<svg xmlns="http://www.w3.org/2000/svg" width="1336" height="1222" fill="none" viewBox="-74 -55 1336 1222">
  <path fill="#EBD3A4" d="M590.067 461.938c1.921-.927 2.404-1.367 4.52-1.055 3.064 2.014 3.594 5.561 3.561 9.05-.105 10.976-.688 21.909-.688 32.9l.056 139.687c-.007 25.665-1.37 54.352 2.271 79.523 5.167 35.714 45.143 51.477 77.144 44.952 48.965-9.995 89.11-40.307 116.032-81.801 7.293-11.157 10.999-18.17 15.428-30.828-9.276-3.081-21.742-6.445-31.384-7.944 5.225-5.747 59.983-58.648 62.181-59.669 1.416 1.664 1.285 4.422 1.233 6.622-.469 13.313-.391 42.949.627 56.021 2.133 6.471.254 19.167-1.279 25.77-4.482-4.039-19.068-15.41-24.463-16.513-2.127.887-16.074 27.011-19.081 31.499-22.741 33.979-58.143 64.813-97.617 77.326-36.701 11.633-81.271 6.818-99.047 50.753-1.513 3.738-2.121 9.101-5.607 11.013l-.94-.34c-9.501-29.685-25.027-42.564-54.867-51.411-4.036-.046-30.965-5.794-37.27-6.824 7.712-.366 1.952-1.025 5.01-5.07 27.136 7.457 59.196-.098 75.466-25.432 2.674-4.162 3.255-10.347 5.465-14.777 1.166-4.397 2.066-7.536 2.421-12.083 1.001-18.529.034-44.391.021-63.568l.149-124.634.098-40.279c.023-5.868-.205-17.669.56-22.888Zm56.489 310.283c-19.955-3.523-39.928-16.565-47.726-35.648-1.161-2.845-2.914-6.936-4.762-9.245l-1.197.026c-6.955 20.799-19.501 34.376-40.314 42.453-2.184.849-6.402 1.188-7.831 2.695l.461 1.2a332.986 332.986 0 0 1 8.956 3.295c16.031 6.244 33.286 21.184 40.199 36.875 5.124-12.226 22.906-30.018 35.535-34.768 7.048-2.655 9.903-2.453 16.679-6.883Zm143.596-129.855c4.625 1.843 14.88 4.77 17.893 6.397 10.36 3.653 16.603 8.813 25.833 14.503-.019-8.077 1.135-55.553-.463-61.085-.561-.381-.868-.695-1.468-.856-7.984 6.74-37.125 33.013-41.561 40.669-.071.126-.156.248-.234.372Z"/>
  <path fill="#E4CFA3" d="m586.818 725.39 1.084.072c.728-1.722.966-2.525 1.482-4.28l1.162 2.225c1.5-2.89-.751-4.293.266-5.363 1.735 4.808-.615 7.81 2.059 9.31-6.955 20.8-19.501 34.377-40.314 42.454-2.184.848-6.402 1.187-7.831 2.694l.461 1.201c-2.741 1.037-5.37-.751-8.081-.398-3.75.489-5.798.796-9.696.874 3.515.731 7.02 1.422 10.496 2.329l.241.985c-4.036-.045-30.965-5.793-37.27-6.824 7.712-.365 1.952-1.024 5.01-5.069 27.136 7.457 59.196-.098 75.466-25.432 2.674-4.163 3.255-10.348 5.465-14.778Z"/>
  <path fill="#B39769" d="M589.238 713.308c1.002-18.529.035-44.392.021-63.568l.15-124.635.097-40.278c.023-5.868-.205-17.67.561-22.889 1.387 6.836.97 22.057.977 29.633l.016 48.788-.035 102.576c.016 9.86.844 65.721-.771 69.642l-1.016.731Z"/>
  <path fill="#EAD7B0" d="M592.144 467.466c1.983 3.066.012 13.181 1.106 16.307-.033-3.501.364-6.266.79-9.708l.578.011c.768 2.17.323 18.6.319 22.097.077 2.305.36 4.218-.525 6.328l.016-.413-.658-.108c.159-3.01.141-3.682-.391-6.642l-.245 1.467c-1.214-7.829-1.493-21.367-.99-29.339Z"/>
  <path fill="#EBD3A4" d="M589.22 282.343c26.241-2.569 49.631 16.538 52.354 42.767 2.723 26.23-16.244 49.735-42.453 52.612-26.428 2.901-50.17-16.261-52.915-42.709-2.746-26.448 16.553-50.08 43.014-52.67Zm9.976 89.056c22.731-2.938 38.856-23.636 36.148-46.398-2.707-22.762-23.237-39.099-46.022-36.622a41.806 41.806 0 0 0-28.877 66.706 41.796 41.796 0 0 0 38.751 16.314ZM348.422 675.14c-1.006-2.851-1.839-5.558-2.11-8.585-.881-9.839-1.898-73.045.735-78.387.505-1.023 1.197-2.003 1.828-2.953 6.673 8.524 13.526 13.915 21.044 21.48 12.157 12.231 24.662 23.767 37.27 35.499 1.442 1.36 2.101 2.334 2.065 4.187-4.341 2.089-24.757 7.745-30.067 9.043 1.267 2.44 2.067 4.293 3.132 6.838 9.186 22.006 25.33 40.124 39.883 57.922-6.213-.072-6.781-5.304-13.069-6.942-11.746-12.592-23.012-32.53-31.841-47.451-.595-1.005-3.517-6.655-5.004-6.811-6.224 1.853-18.941 12.442-23.866 16.16Zm34.051-27.518c6.852-1.232 10.585-3.035 17.015-4.741-3.375-3.915-43.047-41.727-44.966-42.335-1.273 2.995-1.756 58.643-.788 62.113 9.214-3.836 16.77-10.21 28.739-15.037Z"/>
  <path fill="#EAD7B0" d="M501.213 440.313c4.886-.184 5.966 3.03 8.567 3.057 54.874.573 109.837-.183 164.736.395 4.867.051 9.896-5.335 12.93-.791 2.759 4.127.117 8.02-3.562 10.323-3.177-2.567-4.273-2.556-8.357-2.649-31.095-.705-62.44-.244-93.52-.231l-46.159.01c-12.345-.012-19.505-1.074-31.847 2.227-6.364 1.703-8.824-5.979-2.788-12.341Zm-92.08 272.929c6.288 1.638 6.856 6.87 13.068 6.942l.666.509c4.478 3.497 8.717 8.194 13.899 11.744 22.61 15.495 41.956 27.506 69.12 33.163-3.057 4.045 2.702 4.704-5.01 5.069-3.366-.626-11.978-3.993-15.606-5.311-26.251-9.571-58.737-30.155-76.137-52.116Zm180.873-328.288c2.654-1.179 2.859-1.813 5.245-1.473 5.278 5.322 2.311 38.994 2.806 48.068-2.765 3.32-3.016 3.889-7.362 4.077-1.507-2.503-1.864-46.321-.689-50.672Z"/>
  <path fill="#B39769" d="M590.695 435.626c-1.507-2.503-1.864-46.322-.689-50.673 1.427 4.343 1.7 46.1.689 50.673Z"/>
</svg>
