<svg xmlns="http://www.w3.org/2000/svg" width="1516" height="1516" fill="none" viewBox="0 0 1516 1516">
  <path fill="#6F3A53" fill-opacity=".039" d="M804.249 686.398c4.39-.009 10.564-1.97 14.983-3.177 3.893-.009 2.968-.615 5.1 1.434.755 2.581.799 1.282-.614 3.997-2.532 1.385-4.975.054-7.632-.895l-.378.63c2.502 3.34 11.785 3.731 15.93 3.872l2.465 1.723.866-1.139c2.095.407 2.783.899 4.471 2.221l1.222-.518 1.354 1.277c-2.406 1.655-3.331.111-5.759 1.997-12.243-.408-31.845-2.038-43.474 2.204 10.075-.735 20.416-1.344 30.298-2.336l1.688 2.344c2.132.016 2.635-.406 4.597-1.262.473.064 2.879.356 3.168.457l-1.362.593.644 1.101c-.074 3.327-4.294 3.232-6.818 2.701-4.323-.908-8.276 3.66-10.689 6.591l.592 2.989c-1.939 2.564-4.308-1.222-3.545 5.233 6.684 4.884 23.85 9.924 32.178 13.285.94.382 6.158-1.981 7.854-.392-1.274.909-.593.508-2.066 1.19 3.383 2.183 2.754 1.055 3.428 4.154-1.873 4.369-3.465.78-3.169 4.909 2.347 3.946 3.339 2.702 5.708 4.812l-1.518 3.035c-10.978 1.11-12.325 17.469-18.728 18.861-2.243-2.887.133-5.189-2.206-7.78-6.728-.829-16.47.896-20.438-4.767-2.842-4.056.023-8.912-5.507-10.622-4.641-1.436-7.262.533-10.793-2.983-12.273-12.214-22.717-5.147-37.307-16.257-1.984.208-2.465.711-4.19 1.734l-.148 1.017-.304.174 4.434-.726c1.148 1.507 1.126 1.862 1.747 3.691a47.366 47.366 0 0 1 3.368-1.131l.985 1.412-.503.965-1.725-.582.548 1.76c-5.893 3.62-8.328 1.948-14.117-1.153-8.683 2.196-18.265 16.727-21.156 16.135-1.927-.399-4.096-1.125-5.924-.111-1.607.896-2.854 2.473-3.161 4.286-.168.992-.055 2.258-.029 3.242-2.493 4.286-6.734 3.028-9.17 5.389-7.617 7.38-3.597 15.471-16.667 16.323-2.401 1.591-1.735 1.635-3.045 3.738-5.341 8.579-10.576 1.71-10.598 14.286l-1.845 1.636c-3.814 3.59-8.512 7.787-11.874 11.681-2.66-2.273-2.608-1.518-3.378-4.316 3.569-29.224 23.531-49.877 45.917-67.661 4.776-3.806 15.756-9.338 18.333-12.121l.287-.431c2.962-.582 9.15-3.725 12.204-5.13 1.771 1.354 1.475 1.003 3.703 1.798 6.899-.898 19.202-15.132 19.002-22.837 3.568-3.098 17.558-5.581 23.088-8.443.77-2.114.725-2.599 2.398-4.097 6.485-1.748 12.784 3.486 17.277-.01Z"/>
  <path fill="#9A546E" d="M766.135 775.973c2.302-.348 10.718-2.184 11.681-2.176 7.158.074 11.843 2.791 19.845 3.708.526-.066 2.413-.34 2.872-.318 1.984 6.144 2.954 7.536 7.706 11.925-1.525 2.954-3.649 3.968-4.16 6.966.2.711.548 2.102.822 2.724l-.999.555c-4.183-1.147-5.338 3.413-10.045 5.744-14.561 8.158-14.509 8.328-29.24 14.065-6.025-2.354-.77-4.826-12.206-4.826-1.954-1.059-2.68-2.354-4.227-3.213-11.777-6.551-1.954-12.443-2.672-20.845l-.437-.015c-2.569 3.538-3.634 12.71-5.256 18.232-2.675 1.865-3.354 2.295-6.3 3.649 6.24-6.166 8.188-16.869 5.209-24.997-.468-1.836-1.217-2.613-2.31-4.183-2.034-2.235-2.725-2.146-2.841-4.478l1.86-1.362c5.004-.215 7.677-1.828 12.629-.555 3.309.607 11.836.488 15.137-.015l2.932-.585Z"/>
  <path fill="#733757" d="M797.662 777.505c.525-.067 2.413-.34 2.872-.318 1.984 6.144 2.953 7.535 7.706 11.925-1.525 2.954-3.65 3.968-4.16 6.966.199.71.547 2.102.821 2.724l-.999.555c-4.182-1.148-5.337 3.412-10.045 5.744l-.555-2.013c.681-2.665 1.658-3.539 3.368-5.671-.977-6.166-1.281-14.057.992-19.912Z"/>
  <path fill="#83475A" d="M766.135 775.973c2.302-.348 10.718-2.184 11.681-2.176 7.158.074 11.843 2.791 19.845 3.708-2.272 5.856-1.969 13.747-.992 19.913-9.771-11.193 11.511-20.793-30.534-21.445Z"/>
  <path fill="#6E3750" d="M735.437 777.128c5.004-.215 7.677-1.829 12.629-.556-1.762 1.318-2.199 1.533-4.323 2.103-2.117 3.708-.222 6.61-5.015 8.475-.468-1.835-1.217-2.613-2.31-4.182-2.034-2.235-2.725-2.147-2.841-4.478l1.86-1.362Z"/>
  <path fill="#FFFEFE" d="M765.566 788.076c.725-.044 1.45-.081 2.176-.104 3.538-.118 4.819-.133 7.439 2.362 2.421 6.433-2.524 10.489-8.016 12.998-2.784.378-5.419-.274-7.64-2.02-3.523-5.641 1.399-10.564 6.041-13.236Z"/>
  <path fill="#6E3750" fill-opacity=".294" d="M679.138 796.33c.021-12.577 5.256-5.708 10.598-14.287 1.31-2.102.644-2.147 3.044-3.738 13.071-.851 9.05-8.942 16.667-16.322 2.436-2.362 6.677-1.103 9.17-5.389-.026-.985-.138-2.251.03-3.243.306-1.813 1.554-3.39 3.161-4.285 1.827-1.015 3.996-.289 5.923.111 2.891.592 12.473-13.94 21.157-16.136 5.788 3.102 8.224 4.773 14.116 1.153l-.548-1.759 1.725.582.503-.966-.984-1.411c-1.14.34-2.258.705-3.368 1.131-.622-1.829-.6-2.185-1.747-3.692l-4.434.726.303-.174.148-1.017c1.725-1.023 2.206-1.526 4.19-1.734 14.59 11.111 25.035 4.044 37.308 16.257 3.531 3.516 6.151 1.547 10.793 2.983 5.529 1.71 2.664 6.566 5.507 10.622 3.968 5.663 13.709 3.938 20.438 4.768 2.339 2.59-.037 4.893 2.206 7.779 6.403-1.391 7.75-17.75 18.728-18.861-4.782 9.483-13.021 20.416-20.979 27.478l-1.169.71c-2.946.015-6.588.37-9.187-.762-.799-3.131 2.332-3.035 1.422-6.085-6.648 3.272-5.145-2.724-10.068-6.144-5.499-2.035-11.051-4.078-16.026-7.187-5.862-3.672-9.645-7.876-16.203-10.334-22.037-5.589-21.43 6.766-40.906 9.978-2.639.43-4.297 5.152-6.526 7.129l-1.976.533c-21.285 8.749-34.98 17.21-53.016 31.586Z"/>
  <path fill="#6D3850" fill-opacity=".212" d="M706.132 779.859c3.992-1.125 3.063-1.458 6.61-.607 3.389 4.02.518 8.232-1.652 12.303l-7.436 4.057c.426 4.989.232 9.845.1 14.834-.166 6.233-1.108 6.928 2.42 12.125l.644.933.121 1.473c-2.447 2.05-6.487 4.36-7.403 6.699 2.425 2.879 18.843 4.115 22.276 3.013 1.957.148 1.825.214 3.429 1.406 1.128 3.561.286 4.715-1.868 7.587-11.208 2.362-14.577 3.021-26.11 3.183-10.883-.525-19.656-5.929-26.845-13.827-1.301-5.108-5.492-7.277-7.182-18.587l1.64-1.888c4.331-5.182 8.817-9.475 13.888-13.894 5.584-4.331 21.48-16.359 27.368-18.81Zm-15.093 36.583c1.723-2.606 2.523-2.843 5.306-4.308 1.605-2.473-.469-7.447.629-11.008.776-2.516 4.299-6.817 4.464-8.438l-2.035-.489c-3.866 10.215-7.553 16.263-11.227 25.198l.54.91c1.605-.77 1.112-.407 2.323-1.865Z"/>
  <path fill="#6E3750" fill-opacity=".369" d="m699.403 792.199 2.035.489c-.165 1.621-3.688 5.922-4.464 8.438-1.097 3.561.977 8.535-.629 11.008-2.782 1.465-3.582 1.702-5.306 4.308-1.211 1.458-.718 1.095-2.323 1.865l-.539-.91c3.674-8.935 7.361-14.983 11.226-25.198Z"/>
  <path fill="#6E3750" fill-opacity=".875" d="M826.998 790.178c1.362-2.155 2.761-4.856 4.597-6.418l.977 2.265c-5.004 5.552-19.424 19.601-20.786 25.56-3.516 2.85-11.57 5.485-16.085 7.669-12.355 3.834-25.494 12.11-37.96 16.729-1.821.681-7.017 3.146-8.623 3.553l-1.622-.881c-4.123 2.539-2.02.126-6.78-1.199-5.496-3.368.259-3.886.067-7.483l.91-3.028c10.993 1.858 19.439-6.381 29.913-5.567l.762.067c4.249.318 9.283.355 12.57-2.458.984-2.746.94-1.428.436-4.071-1.791-1.095-1.117-.955-3.05-1.28-.074 2.361.156 3.619-1.236 5.485-1.199.325-1.391.362-2.65.318-6.81-.229-13.309.822-19.949 2.273l-.089-.63c1.592-.77 2.806-1.154 4.456-1.739l1.762-.178c14.731-5.737 14.679-5.907 29.239-14.064 4.708-2.332 5.863-6.892 10.045-5.745l1-.555c1.51-1.029 8.046-5.537 9.186-5.729 7.861-1.34 4.885.822 12.91-2.894Z"/>
  <path fill="#9A546E" fill-opacity=".835" d="M861.84 779.156c7.447-5.641 13.65-10.548 20.734-16.626l2.265.718c-.903.829-5.159 4.575-5.714 5.249-5.308 4.441-12.192 9.001-16.663 12.843-5.715 4.397-13.591 10.837-19.505 14.597-6.063 3.812-35.628 26.234-36.56 31.06-.082.437-.097.889-.141 1.333 4.116-1.673 11.155-6.196 14.375-6.181-4.293 2.657-8.416 5.226-12.865 7.617-3.96 2.132-9.06 4.115-12.665 6.573-.585-.185-1.407-.637-1.984-.918-2.11-5.988 5.352-8.49 4.982-14.864l-2.036-.163-.363-1.14c4.516-2.183 12.569-4.818 16.085-7.668 1.363-5.959 15.782-20.009 20.786-25.561l-.977-2.265c-1.836 1.562-3.235 4.264-4.597 6.418-8.024 3.716-5.048 1.555-12.909 2.894-1.14.193-7.677 4.701-9.187 5.73-.274-.622-.622-2.014-.821-2.724.51-2.998 2.635-4.012 4.16-6.966-.674 5.204-1.533 1.17-1.917 5.345 3.612-.141 21.859-13.369 25.301-16.841l1.169-.71 1.318.533c2.147-.274 3.701-2.043 5.455-3.524-3.264 7.195-6.181 8.454-3.419 15.856-1.777 1.688-1.244.881-2.628 1.621-5.086 2.717-11.259 6.647-11.215 12.939l.955.644c3.938-1.117 20.771-10.881 22.866-14.005 5.263-3.42 10.748-7.898 15.715-11.814Z"/>
  <path fill="#6E3750" fill-opacity=".616" d="M720.158 780.77c-2.029-.873-3.756.762-5.214-2.746 1.089-2.154 6.927-4.434 9.475-5.67-.039 2.775-.751 8.172.423 9.985 1.294-1.029 1.572-2.79 2.27-4.634.043 4.368-.374 5.271 2.15 8.683.598 5.152-7.26 13.11-6.896 18.351 2.46.525 3.884-2.621 5.679-4.146 4.18 3.924-.23 4.079-1.013 10.171.401 3.59 1.734 3.923 1.469 7.432-2.624 5.789-7.44 5.648-8.86 9.86 2.106 2.391 5.866 2.332 9.123 2.724 2.005 1.866 3.496 2.843 4.307 5.434-.341 2.909-.139 2.812-2.631 5.092l-4.46 1.547c2.795-3.057 5.693-3.923 4.478-8.446-8.516-7.091-12.567 5.345-18.129-16.477-3.179-3.346-.604.577-4.69-1.385l.04-1.362c9.17-7.158 3.588-5.914 4.839-13.561.761-4.648 5.594-9.253 6.656-16.462l2.73-.415.252-1.266-1.998-2.709Z"/>
  <path fill="#6E3750" fill-opacity=".047" d="M738.405 708.832c4.006-4.219 17.234-8.135 23.082-9.884.2 7.705-12.103 21.939-19.002 22.837-2.228-.795-1.932-.443-3.703-1.798 3.659-.981 6.412-1.219 9.077-3.794l-.666-.434.415-.158c-5.367-.644-17.822 5.762-21.03 9.517l-.287.431-1.717-.411c-4.172 2.93-15.153 11.334-19.787 9.171-1.554.955-.976.376-1.86 1.605-1.18-4.964-1.605-5.096.079-9.333 3.869-3.737 32.779-14.297 35.399-17.749Z"/>
  <path fill="#6E3750" fill-opacity=".753" d="M795.9 769.008c.888-3.894-1.088-.63-.414-4.516 7.098.592 11.059.711 18.306.133 4.922 3.42 3.419 9.416 10.067 6.144.91 3.05-2.221 2.954-1.421 6.085 2.598 1.133 6.24.777 9.186.763-3.442 3.471-21.689 16.699-25.301 16.84.385-4.175 1.243-.141 1.917-5.345-4.752-4.389-5.722-5.781-7.706-11.925l-.481-1.399-2.672-.933c-1.918-4.211.821-.496-1.481-5.847Z"/>
  <path fill="#633349" fill-opacity=".651" d="M734.131 764.21c2.228-1.976 3.887-6.699 6.526-7.128 19.475-3.213 18.868-15.567 40.905-9.978.081 3.879.111 5.174.94 8.934l-.666 1.303-.955.244c-3.205.844-6.558 1.881-9.423 3.591-8.305.444-15.715 1.073-21.659 7.639-2.414-.015-4.457-.822-6.818-1.503 2.658-1.68 11-4.242 11.577-5.737-5.041.282-10.97.541-15.81 1.755-2.057.518-2.331.688-4.617.88Z"/>
  <path fill="#733757" fill-opacity=".627" d="M748.147 842.594h.888c3.576.045 4.153.089 7.484 1.296 1.666-.8 1.54-.778 2.65-2.288 3.479.06 7.314 2.036 9.845.77 5.234-2.62 5.367-2.887 10.593-.177-12.747 7.091-52.091 24.583-65.232 13.405l-.146-.444c12.383-3.649 22.638-9.12 33.918-12.562Z"/>
  <path fill="#6E3750" fill-opacity=".094" d="M662.137 815.856c-.033 4.745 3.781 14.813 6.619 17.936l.603.844c4.746 6.529 11.689 8.624 11.732 13.199a85.1 85.1 0 0 1-1.937 2.642c-6.64 4.442-4.967 6.818-4.368 14.124l-1.647.259c.336-4.508-1.983-9.557-3.602-13.887a197.054 197.054 0 0 1-10.758-2.635c-1.336-5.774-3.101-11.859-3.323-17.795-.066-1.762-.324-1.34-1.515-2.776 2.797-4.908 4.535-7.684 8.196-11.911Z"/>
  <path fill="#723454" fill-opacity=".867" d="m796.063 820.395 2.036.162c.37 6.374-7.092 8.876-4.982 14.864.577.282 1.399.733 1.984.918-1.696 1.954-12.999 5.352-15.494 5.855-5.226-2.709-5.359-2.442-10.592.178-2.532 1.266-6.366-.711-9.845-.77-1.111 1.51-.985 1.488-2.65 2.288-3.332-1.207-3.909-1.251-7.484-1.296h-.889c10.119-4.937 40.839-17.129 47.916-22.199Z"/>
  <path fill="#6E3750" fill-opacity=".475" d="M706.132 779.859c3.525-2.383 19.261-10.711 22.906-9.527l.849 1.925-2.775 5.448c-.698 1.843-.976 3.605-2.27 4.634-1.174-1.814-.462-7.21-.423-9.986-2.548 1.236-8.386 3.516-9.475 5.67 1.458 3.509 3.185 1.873 5.214 2.747-5.757 5.914-12.304 27.892-12.898 36.064 2.311 6.558 3.739 1.429 4.885 13.524 4.285 3.583 4.214 3.775 9.667 4.33-3.433 1.103-19.851-.133-22.276-3.012.917-2.339 4.956-4.649 7.403-6.7l-.12-1.473-.645-.932c-3.528-5.197-2.586-5.893-2.42-12.125.132-4.989.326-9.845-.1-14.835l7.436-4.056c2.17-4.071 5.041-8.283 1.652-12.303-3.547-.851-2.618-.518-6.61.607Z"/>
  <path fill="#733757" fill-opacity=".247" d="M651.106 833.556c3.241 3.708 4.276 10.341 4.709 15.197 1.599 17.95 10.373-1.229 17.324 16.107l-1.568.452c-5.028.007-14.966 1.11-19.99 1.843-7.135-11.563-5.34-21.793-.475-33.599Z"/>
  <path fill="#733757" fill-opacity=".859" d="M563.154 827.597c-.148-22.333 6.82-39.832 20.096-57.894l.47.378c-2.516 5.344-5.874 9.127-8.497 14.175-11.31 21.785-12.727 32.163-6.059 55.473 3.106-3.301 13.16-17.751 16.609-22.436.05.71-12.577 19.601-14.127 23.11l-.425.984c6.295 8.18 10.658 13.465 20.463 17.662 12.374 2.991 23.243 6.625 36.103 8.594 5.526.852 18.92.393 21.942 2.843-4.385-.096-9.78.489-13.907-.133-16.812-2.524-36.371-5.73-51.661-12.947-5.674-4.597-9.555-9.009-13.761-14.982-12.318 22.096-18.955 45.028-9.958 69.907l-.802.334a50.087 50.087 0 0 1-1.254-3.154c-8.485-23.243.228-46.76 10.29-67.583-1.547-5.36-2.57-9.557-5.522-14.331Z"/>
  <path fill="#904B64" fill-opacity=".925" d="m739.82 808.499 1.236.733-.252 1.584c3.539 3.968 5.123 3.908 10.253 4.182.592.03 1.184.052 1.776.074l-.422-.733c11.437 0 6.181 2.473 12.207 4.827l-1.762.177c-3.161.371-20.949 3.79-22.407 5.064a49.512 49.512 0 0 0 1.858 2.124l-.614.415-.911 3.027c-9.308-.814-8.421-4.301-20.669-2.961 3.089-1.206 6.425-2.191 8.906-4.271 1.862-3.309 1.281-5.337 1.375-9.09l3.125-1.503c2.946-1.354 3.626-1.784 6.301-3.649Z"/>
  <path fill="#602C49" fill-opacity=".518" d="M820.631 822.149c-3.22-.015-10.259 4.508-14.375 6.181.044-.444.059-.896.141-1.332.932-4.827 30.497-27.248 36.56-31.06 1.495 2.664 1.362 2.561 1.132 5.692-2.82 3.782-5.588 5.115-8.002 9.497-1.628.822-2.05.985-3.79 1.54l-.096.718c3.627-1.451 5.404-2.465 8.742-4.405l.866.533c-2.761 3.546-16.633 10.571-21.178 12.636Z"/>
  <path fill="#BB6E99" fill-opacity=".918" d="m1050.16 691.275 1.17-.09c-13.76 51.729-82.719 108.239-128.029 134.406l-1.376.785-.585-1c9.149-6.329 19.209-12.184 28.136-18.616 37.086-26.73 86.724-70.941 100.684-115.485Z"/>
  <path fill="#6A354A" fill-opacity=".784" d="M771.457 761.176c8.002 2.021 20.112-1.784 23.71 7.639-1.384 1.377-1.895 1.962-2.813 3.686-2.176-.91-6.551-5.018-7.395-4.663-2.628 1.095-21.334 2.191-22.622 2.709-4.67-2.184-6.891 2.672-12.539-1.732 5.944-6.566 13.354-7.195 21.659-7.639Z"/>
  <path fill="#733757" fill-opacity=".659" d="M866.474 761.08c1.636-1.422 2.798-1.259 4.982-1.436-4.582 4.848-7.424 7.372-12.584 11.666-3.242 2.524-14.716 13.376-16.492 14.16-1.814 1.163-4.782 2.88-6.233 4.301-2.761-7.402.155-8.661 3.42-15.856 3.249-2.361 6.27-6.765 8.646-10.037l2.272 2.154c-.577 2.132-1.184 3.301-.37 5.307 4.042 3.139 13.258-7.261 16.359-10.259Z"/>
  <path fill="#6E3750" fill-opacity=".698" d="M781.561 747.104c6.559 2.457 10.341 6.662 16.204 10.333 4.974 3.109 10.526 5.152 16.026 7.188-7.247.577-11.207.459-18.306-.133-.674 3.886 1.303.621.414 4.515l-.732-.192c-3.598-9.424-15.708-5.619-23.71-7.64 2.865-1.71 6.218-2.746 9.423-3.59l.955-.244.666-1.303c-.829-3.76-.858-5.056-.94-8.934Z"/>
  <path fill="#733757" fill-opacity=".714" d="M740.715 837.457c4.76 1.325 2.658 3.738 6.781 1.199l1.621.881c-6.632 2.909-31.88 11.585-35.376 14.361l-2.981.866c-3.082-1.799-7.247-2.998-10.685-3.887 2.175-.118 1.453-.014 3.538-.784l.296-1.133c-1.97-1.902-3.851-1.754-6.645-2.095 11.533-.162 14.901-.821 26.109-3.183l2.607-.829 4.46-1.547c4.405-2.457 5.807.03 10.275-3.849Z"/>
  <path fill="#733757" fill-opacity=".427" d="M914.508 733.064c.652 9.843-3.013 6.747-8.009 13.174.481 1.976.17 1.332 1.414 2.879l-1.125 1.051c-3.517.629-7.055.94-9.024 3.642.748.866 1.414 1.673 2.006 2.643-.873 1.243-10.06 12.384-10.852 12.976-3.782-1.266-5.433 1.984-8.076 4.79-.57-.985-.399-.541-.695-1.688l-1.022-4.034c.555-.674 4.812-4.42 5.715-5.249 10.703-10.348 19.668-19.209 29.668-30.184Z"/>
  <path fill="#83475A" fill-opacity=".863" d="M736.418 782.968c1.094 1.569 1.842 2.346 2.311 4.182 2.978 8.128 1.031 18.832-5.21 24.998l-3.125 1.503c-.949-1.296-2.039-1.903-3.362-2.887.783-6.093 5.193-6.248 1.014-10.171.862-1.162 4.311-11.022 6.295-13.028-.085.081 1.886-4.183 2.077-4.597Z"/>
  <path fill="#6E3750" fill-opacity=".576" d="m720.159 780.77 1.997 2.709-.251 1.266-2.73.414c-1.062 7.21-5.895 11.814-6.656 16.463-1.252 7.647 4.33 6.403-4.84 13.561l-.04 1.362c4.086 1.962 1.512-1.962 4.69 1.384 5.562 21.822 9.614 9.386 18.129 16.478 1.215 4.523-1.682 5.389-4.477 8.446l-2.608.829c2.154-2.872 2.996-4.027 1.868-7.587-1.603-1.192-1.472-1.259-3.429-1.407-5.453-.555-5.381-.747-9.667-4.33-1.145-12.096-2.573-6.966-4.884-13.524.593-8.172 7.14-30.15 12.898-36.064Z"/>
  <path fill="#BB6E99" fill-opacity=".976" d="M916.151 692.6c3.679 2.389 4.73 3.976 7.543 7.278 2.028 7.144-1.132 10.107.363 15.054l.977.054c2.865-2.875 5.034-7.639 6.677-11.388l.733-.265c-.045 4.49-14.849 26.755-17.936 29.732-10.001 10.974-18.965 19.835-29.669 30.183l-2.265-.718.481-.422c11.607-10.378 31.66-30.356 37.175-44.616 1.88-4.852 2.102-11.325 2.398-16.565-2.502-3.801-3.464-4.987-6.477-8.327Z"/>
  <path fill="#6E3750" fill-opacity=".118" d="M862.462 781.34c2.31.777 2.65.91 4.76 2.095.733 1.932.888 1.924.792 3.938-3.22 3.42-6.522 6.084-10.104 9.097-2.465 1.769-4.967 3.886-7.825 4.715.963-1.221 1.881-2.39 2.887-3.582l-.177-1.185.918-.333c-4.057 1.066-6.152 3.975-9.623 5.545.229-3.132.362-3.028-1.133-5.693 5.915-3.76 13.791-10.2 19.505-14.597Z"/>
  <path fill="#733757" fill-opacity=".412" d="M864.409 726.199c1.488 1.233 1.31.876 3.161 1.402 3.309 6.188 1.332 23.159 2.568 32.545l4.886-5.107.562.288 1.836.111c-1.266 1.733-3.997 3.058-5.966 4.205-2.184.178-3.346.015-4.982 1.436-2.376-1.355-1.613-.407-2.517-2.828 3.628-10.326 1.015-8.283-4.012-16.048l.548-1.421c2.354-5.079 2.658-9.218 3.916-14.583Z"/>
  <path fill="#733757" fill-opacity=".91" d="M449.847 902.686c5.838-34.909 35.04-70.633 62.307-91.863-1.082 3.139-5.964 4.656-8.967 8.18-6.489 7.609-16.394 17.64-22.159 25.575-10.196 14.042-19.848 26.448-25.326 43.104-1.931 5.87-4.088 15.071-6.071 20.09-.182-1.14.121-3.798.216-5.086Z"/>
  <path fill="#814259" fill-opacity=".871" d="M762.338 770.547c1.288-.518 19.994-1.613 22.621-2.709.844-.355 5.219 3.753 7.395 4.664.918-1.725 1.429-2.31 2.813-3.687l.733.193c2.302 5.352-.437 1.636 1.481 5.848l2.672.932.481 1.399c-.459-.022-2.347.252-2.872.319-8.002-.918-12.688-3.635-19.846-3.709-.962-.007-9.379 1.828-11.681 2.176l-2.931.585c.696-2.324.274-3.975-.866-6.011Z"/>
  <path fill="#6E3750" fill-opacity=".733" d="M832.534 699.228c-.289-.102-2.695-.394-3.168-.458-1.962.856-2.465 1.279-4.597 1.262l-1.688-2.343c-9.882.992-20.223 1.6-30.298 2.335 11.629-4.241 31.231-2.611 43.474-2.204 10.208.157 21.349 5.212 25.879 14.848-8.283-6.844-6.152-9.181-18.388-12.671 8.121 6.258 11.896 9.501 18.551 17.304.703 2.737 1.628 6.141 2.109 8.898-1.258 5.366-1.562 9.504-3.916 14.583l-.636-3.677c.044-2.233 1.273-5.681 1.355-8.1.562-16.179-13.658-28.484-28.677-29.777Z"/>
  <path fill="#BB6E99" fill-opacity=".973" d="m795.7 819.254.363 1.14c-7.077 5.071-37.797 17.262-47.916 22.2-11.279 3.442-21.535 8.912-33.917 12.561l-.489-1.258c3.496-2.776 28.743-11.452 35.376-14.361 1.606-.407 6.803-2.872 8.624-3.553 12.465-4.619 25.604-12.895 37.959-16.729Z"/>
  <path fill="#733757" fill-opacity=".024" d="M902.975 686.012c-2.768-.454-1.821.22-3.545-1.365 4.515-12.113 27.026 2.973 26.574 13.938-1.184 1.174-.651.828-2.309 1.293-2.813-3.302-3.864-4.889-7.543-7.278l-.57-.603c-3.021-4.784-7.418-5.548-12.607-5.985Z"/>
  <path fill="#6E3750" fill-opacity=".682" d="M734.131 764.21c2.286-.192 2.56-.362 4.617-.88 4.84-1.214 10.769-1.474 15.81-1.755-.577 1.495-8.92 4.057-11.577 5.737-1.91 1.14-2.874 1.473-3.988 3.398a61.126 61.126 0 0 0 1.79 3.945c-1.705 1.362-2.626 1.11-5.153 1.066-3.554-.081-6.69 4.256-7.175 7.417l.807 3.25c-2.523-3.413-2.106-4.316-2.149-8.683l2.775-5.448c2.104-1.562 1.463-1.858 2.068-5.389l1.018-.792-.82-1.333 1.977-.533Z"/>
  <path fill="#6E3750" fill-opacity=".663" d="M727.032 810.764c1.323.984 2.413 1.591 3.362 2.887-.094 3.753.486 5.781-1.375 9.09-2.482 2.08-5.817 3.064-8.906 4.271 12.248-1.34 11.361 2.146 20.669 2.961.192 3.597-5.563 4.115-.067 7.483-4.468 3.879-5.871 1.392-10.275 3.85 2.492-2.28 2.289-2.184 2.631-5.093-.812-2.591-2.302-3.568-4.307-5.433-3.257-.393-7.017-.334-9.123-2.724 1.42-4.212 6.235-4.072 8.859-9.86.265-3.509-1.068-3.842-1.468-7.432Z"/>
  <path fill="#6F394F" fill-opacity=".816" d="M742.98 767.312c2.362.682 4.405 1.488 6.818 1.503 5.648 4.405 7.869-.451 12.539 1.732 1.14 2.036 1.562 3.687.866 6.011-3.301.503-11.828.622-15.137.015-4.952-1.273-7.625.34-12.629.555l.192-1.406c2.527.044 3.448.296 5.153-1.066a61.953 61.953 0 0 1-1.79-3.946c1.115-1.924 2.078-2.258 3.988-3.398Z"/>
  <path fill="#BB6E99" fill-opacity=".953" d="m663.115 812.082 1.761.481-1.64 1.888-1.099 1.406c-3.661 4.227-5.399 7.003-8.196 11.911l-2.835 5.788c-4.865 11.807-6.66 22.037.475 33.599 1.524 2.451 2.806 4.975 5.07 6.707l4.325 3.968-.253 2.213c-4.602-3.427-6.435-5.493-10.293-9.675-10.205-22.969-7.03-29.654 5.43-50.003 1.644-2.376 5.193-6.033 7.255-8.283Z"/>
  <path fill="#6E3750" fill-opacity=".208" d="M653.942 827.768c1.191 1.436 1.448 1.014 1.514 2.775.222 5.937 1.988 12.022 3.323 17.796a197.28 197.28 0 0 0 10.758 2.635c1.619 4.33 3.938 9.379 3.603 13.887-6.952-17.337-15.725 1.843-17.325-16.108-.433-4.856-1.468-11.488-4.709-15.197l2.836-5.788Z"/>
  <path fill="#733757" fill-opacity=".09" d="M656.65 873.862c7.995-1.651 5.193-5.197 16.012-6.959-1.393 7.38 6.801 14.228-3.61 16.648l-3.332-1.873c-.337-.414-4.089-3.331-4.744-3.849l-4.326-3.967Z"/>
  <path fill="#602C49" fill-opacity=".659" d="M836.146 789.771c1.451-1.422 4.42-3.139 6.233-4.301l.555 5.137c1.281.489.578.429 2.11-.089l1.081.452c-2.095 3.123-18.928 12.887-22.866 14.005l-.955-.644c-.044-6.292 6.129-10.223 11.215-12.939 1.384-.741.851.066 2.627-1.621Z"/>
  <path fill="#6E3750" fill-opacity=".627" d="M859.945 742.203c5.026 7.765 7.639 5.722 4.012 16.048-4.619 4.76-7.38.896-13.473 7.78l-2.272-2.154c3.079-4.286 5.189-9.978 7.935-13.169 1.866 1.459 1.777 1.74 3.087 3.768l1.155-.355c.992-2.502.984-1.318.444-3.642-1.621-1.347-2.088-1.451-2.961-3.301.496-2.465.859-2.806 2.073-4.975Z"/>
  <path fill="#6E3750" fill-opacity=".157" d="M858.871 771.31c1.836 3.538 2.214 4.019 2.969 7.846-4.967 3.916-10.452 8.394-15.715 11.814l-1.081-.451c-1.533.518-.829.577-2.11.089l-.555-5.138c1.776-.784 13.25-11.636 16.492-14.16Z"/>
  <path fill="#733757" fill-opacity=".631" d="M679.137 796.329c18.037-14.375 31.731-22.836 53.017-31.586l.819 1.333-1.018.792c-.604 3.531.037 3.827-2.068 5.389l-.849-1.925c-3.645-1.184-19.381 7.143-22.906 9.527-5.888 2.45-21.784 14.479-27.368 18.809l-1.472-.703 1.845-1.636Z"/>
  <path fill="#733757" fill-opacity=".878" d="M762.856 819.343c-1.651.585-2.865.97-4.456 1.739l.089.63c6.64-1.451 13.139-2.502 19.949-2.273 1.258.045 1.451.008 2.65-.318 1.392-1.866 1.162-3.124 1.236-5.485 1.932.325 1.259.185 3.05 1.28.503 2.643.548 1.325-.437 4.072-3.286 2.813-8.32 2.775-12.569 2.457l-.762-.066c-10.475-.815-18.921 7.424-29.913 5.566l.614-.414a50.24 50.24 0 0 1-1.858-2.125c1.458-1.273 19.246-4.693 22.407-5.063Z"/>
  <path fill="#BB6E99" d="m859.856 737.104.636 3.678-.547 1.421c-1.214 2.169-1.577 2.51-2.073 4.975.874 1.85 1.34 1.954 2.961 3.301.54 2.324.548 1.14-.444 3.642l-1.155.355c-1.31-2.028-1.221-2.309-3.087-3.767-2.746 3.19-4.856 8.882-7.935 13.168-2.376 3.272-5.396 7.677-8.646 10.038-1.754 1.48-3.309 3.25-5.455 3.523l-1.318-.533c7.957-7.061 16.196-17.995 20.978-27.477l1.518-3.035c2.065-3.487 2.998-5.641 4.567-9.289Z"/>
  <path fill="#BB6E99" fill-opacity=".965" d="m668.757 833.792 1.662-.755c7.188 7.898 15.961 13.302 26.845 13.828 2.794.34 4.675.192 6.645 2.095l-.295 1.132c-2.086.77-1.364.666-3.539.785-11.094-1.784-10.283-1.118-20.921-.4a83.96 83.96 0 0 0 1.937-2.643c-.043-4.574-6.985-6.669-11.732-13.198l-.602-.844Z"/>
  <path fill="#6E3750" fill-opacity=".706" d="m729.262 786.388-.808-3.25c.486-3.161 3.621-7.499 7.175-7.417l-.192 1.406-1.86 1.362c.117 2.332.807 2.243 2.841 4.479-.191.414-2.162 4.678-2.077 4.597-1.984 2.006-5.433 11.866-6.295 13.028-1.796 1.525-3.22 4.671-5.68 4.145-.364-5.241 7.494-13.198 6.896-18.35Z"/>
  <path fill="#733757" fill-opacity=".929" d="m447.816 911.132 1.052 2.554c-3.399 5.403 2.705 19.897 4.8 25.493 4.84 12.925 13.282 21.46 23.977 29.728l-1.096.318c-15.221-5.285-37.17-45.332-28.733-58.093Z"/>
  <path fill="#6E3750" fill-opacity=".675" d="M704.507 736.838c2.056.229 1.787-.067 3.451.831-22.387 17.785-42.349 38.438-45.918 67.662l-1.011 1.007c-.685-26.264 25.101-52.239 43.508-67.803l-.03-1.697Z"/>
  <path fill="#733757" fill-opacity=".478" d="M863.957 758.252c.903 2.421.141 1.473 2.517 2.828-3.102 2.998-12.318 13.398-16.359 10.259-.815-2.006-.208-3.175.37-5.307 6.092-6.884 8.853-3.02 13.472-7.78Z"/>
  <path fill="#733757" fill-opacity=".635" d="M844.089 801.629c3.472-1.569 5.567-4.478 9.623-5.544l-.917.333.177 1.184c-1.007 1.192-1.924 2.362-2.887 3.583 2.858-.829 5.36-2.946 7.824-4.715l.563 1.332c-4.974 4.782-10.748 8.239-16.663 11.711l-.866-.533c-3.338 1.939-5.115 2.953-8.742 4.404l.096-.718c1.74-.555 2.162-.718 3.79-1.539 2.414-4.383 5.182-5.715 8.002-9.498Z"/>
  <path fill="#9A546E" fill-opacity=".675" d="M651.581 867.155c5.024-.733 14.962-1.836 19.991-1.843l2.65 1.369-1.56.222c-10.818 1.762-8.017 5.308-16.011 6.958-2.264-1.732-3.546-4.256-5.07-6.706Z"/>
  <path fill="#6E3750" fill-opacity=".514" d="M738.405 708.831c-2.62 3.453-31.53 14.012-35.399 17.749-3.69 1.747-21.559 12.479-23.541 12.49 3.603-5.15 52.311-28.957 58.94-30.239Z"/>
  <path fill="#733757" fill-opacity=".129" d="M662.04 805.33c.77 2.798.718 2.043 3.378 4.316l-2.303 2.435c-2.062 2.25-5.611 5.907-7.255 8.283l-1.953-1.784c-1.151-1.887-1.651-3.701-1.034-5.87 4.183-3.427 4.648-.903 8.156-6.373l1.011-1.007Z"/>
  <path fill="#9A546E" fill-opacity=".91" d="m665.721 881.679 3.332 1.873c13.783 6.558 24.4 8.697 39.814 10.318 3.159.334 11.524.134 13.688.726-6.218.903-15.897.2-22.234-.311-15.705-4.412-18.307-1.71-35.142-10.963l.542-1.643Z"/>
  <path fill="#6E3750" fill-opacity=".533" d="M804.25 686.398c13.731-5.117 50.95-12.136 64.652-10.048-19.949 2.379-28.913 2.755-49.67 6.871-4.419 1.207-10.592 3.168-14.982 3.177Z"/>
  <path fill="#9A546E" fill-opacity=".961" d="M739.82 808.499c1.621-5.523 2.687-14.694 5.256-18.232l.437.014c.718 8.402-9.105 14.294 2.672 20.845 1.547.859 2.272 2.155 4.227 3.213l.422.733a149.87 149.87 0 0 1-1.777-.074c-5.13-.274-6.714-.215-10.252-4.182l.251-1.585-1.236-.732Z"/>
  <path fill="#6E3750" fill-opacity=".859" d="m710.76 854.763 2.981-.866.489 1.259.145.444c-11.337 4.264-28.271 8.105-40.154 11.081l-2.65-1.369 1.568-.452 1.646-.259c10.187-1.073 26.227-6.521 35.975-9.838Z"/>
  <path fill="#733757" fill-opacity=".553" d="m864.823 855.556 1.155.318-.378.829c-15.167 6.669-28.891 12.569-44.532 18.143l-1.74-.207c1.355-.999 16.685-6.536 19.624-7.743a1004.369 1004.369 0 0 0 25.871-11.34Z"/>
  <path fill="#733757" fill-opacity=".89" d="m878.414 776.136 1.488 1.28-.452.444c-8.32 8.261-9.608 12.177-20.978 19.942l-.563-1.332c3.583-3.013 6.884-5.678 10.104-9.097 2.088-2.954 7.684-8.787 10.401-11.237Z"/>
  <path fill="#733757" fill-opacity=".035" d="M843.749 699.997c12.236 3.49 10.104 5.827 18.388 12.671l1.302 1.693c-.407 1.954-.096 1.315-1.14 2.94-6.654-7.803-10.43-11.045-18.55-17.304Z"/>
  <path fill="#6E3750" fill-opacity=".757" d="m1054.47 656.939 1.08-1.647c.94 11.257 1.2 25.497-4.22 35.892l-1.17.091c4.53-13.062 5.2-20.945 4.31-34.336Z"/>
  <path fill="#6E3750" fill-opacity=".243" d="M726.578 725.117c3.208-3.755 15.663-10.161 21.029-9.517l-.414.158.666.435c-2.665 2.574-5.418 2.812-9.077 3.793-3.055 1.405-9.242 4.549-12.204 5.131Z"/>
  <path fill="#602C49" fill-opacity=".18" d="M447.816 911.132c-2.237-2.731-2.785-10.407-.32-12.909 1.934 1.525 1.434 1.591 2.351 4.463-.095 1.288-.397 3.946-.215 5.086-.044 2.494.086 3.531-.764 5.914l-1.052-2.554Z"/>
  <path fill="#6E3750" fill-opacity=".451" d="M702.927 735.914c.884-1.229.305-.65 1.86-1.606 4.634 2.164 15.615-6.24 19.786-9.17l1.718.411c-2.578 2.783-13.557 8.315-18.333 12.12-1.663-.899-1.394-.602-3.451-.831l-1.58-.924Z"/>
  <path fill="#6E3750" fill-opacity=".584" d="M897.904 840.321c-6.602 3.524-19.897 11.822-26.344 13.354 3.138-2.68 20.312-11.451 25.123-14.094l1.221.74Z"/>
  <path fill="#733757" fill-opacity=".671" d="M663.236 814.45c1.689 11.311 5.881 13.48 7.182 18.587l-1.662.756c-2.839-3.124-6.652-13.191-6.619-17.936l1.099-1.407Z"/>
  <path fill="#9A546E" fill-opacity=".722" d="M896.683 839.581c8.224-4.604 16.492-9.475 24.657-14.205l.585.999c-7.58 4.827-16.137 9.586-24.021 13.946l-1.221-.74Z"/>
  <path fill="#6E3750" fill-opacity=".651" d="M656.231 754.047c5.557-4.197 17.13-13.316 23.233-14.977-6.351 5.258-16.342 10.173-21.874 15.614l-1.359-.637Z"/>
  <path fill="#602C49" fill-opacity=".596" d="m621.552 729.419.34 1.237c-4.353 2.905-11.288 7.587-15.036 11.281-2.033 1.999.61.237-2.124 1.799l-.099-1.495c1.263-2.614 13.625-10.484 16.919-12.822Z"/>
  <path fill="#6E3750" fill-opacity=".761" d="m677.292 797.965 1.473.703c-5.072 4.419-9.558 8.713-13.889 13.894l-1.761-.481 2.303-2.435c3.362-3.894 8.06-8.091 11.874-11.681Z"/>
  <path fill="#733757" fill-opacity=".663" d="M880.842 774.219c2.643-2.806 4.293-6.056 8.076-4.79-2.302 2.524-5.974 6.492-9.016 7.987l-1.488-1.28 2.428-1.917Z"/>
  <path fill="#6E3750" fill-opacity=".627" d="M1054.47 656.939c-.48-4.122-4.58-16.937-4.33-18.149 3.21 5.265 4.34 10.514 5.4 16.502l-1.07 1.647Z"/>
  <path fill="#733757" fill-opacity=".506" d="M899.77 756.453c-.593-.97-1.259-1.777-2.006-2.643 1.969-2.702 5.507-3.013 9.023-3.642a108.373 108.373 0 0 0-7.017 6.285Z"/>
  <path fill="#602C49" fill-opacity=".212" d="m610.166 791.933.223.918c-.527 2.353-5.271 5.662-7.468 7.609l-.516-.992c1.139-2.398 5.468-5.529 7.761-7.535Z"/>
  <path fill="#733757" fill-opacity=".369" d="M902.975 686.012c5.189.437 9.586 1.201 12.606 5.985-4.627-2.589-8.217-3.234-12.606-5.985Z"/>
  <path fill="#602C49" fill-opacity=".114" d="M565.044 922.82c2.248 1.91 4.038 4.072 5.306 6.729l-.377.659c-2.527-1.362-4.174-4.375-5.867-6.825l.938-.563Z"/>
  <path fill="#602C49" fill-opacity=".188" d="m598.269 750.428.265 1.576c-1.994 2.539-3.45 4.116-5.685 6.463l-.22-1.155c1.036-2.917 3.352-4.656 5.64-6.884Z"/>
  <path fill="#6E3750" fill-opacity=".196" d="m885.416 739.236.481 1.494c-1.495 2.798-3.434 4.501-5.64 6.795l-.215-.977c1.584-3.049 3.176-4.7 5.374-7.312Z"/>
  <path fill="#602C49" fill-opacity=".447" d="M560.443 912.331a299.883 299.883 0 0 0 4.601 10.489l-.938.563c-1.795-4.442-2.807-5.36-4.465-10.719l.802-.333Z"/>
  <path fill="#6E3750" fill-opacity=".31" d="m656.232 754.047 1.359.637c-2.066 1.695-3.383 3.249-5.958 3.486l-.038-.992c1.982-1.569 2.442-1.895 4.637-3.131Z"/>
  <path fill="#BB6E99" fill-opacity=".796" d="M660.976 877.829c.656.518 4.407 3.435 4.744 3.849l-.542 1.644-4.455-3.28.253-2.213Z"/>
  <path fill="#602C49" fill-opacity=".282" d="M621.553 729.419c2.207-1.692 2.558-2.629 4.758-2.649-.574 2.159-2.388 3.152-4.418 3.886l-.34-1.237Z"/>
</svg>
