<svg xmlns="http://www.w3.org/2000/svg" width="1658" height="1752" fill="none" viewBox="0 0 1658 1752">
  <path fill="currentColor" d="M682.061 884.88c-1.932 3.584-3.455 6.689-6.922 8.717-2.903.008-1.673.479-3.838-1.377-1.809-14.15-38.649-58.449-47.562-74.936-1.789-3.308-2.994-5.568-1.865-9.278 5.079-5.245 80.194-2.287 93.993-2.268l62.041-.197c8.698-.035 37.302-1.347 43.21 2.446 1.859 3.465.903 6.283-.659 9.726-5.298 11.669-17.995 26.741-25.619 37.586-20.908 29.743-41.204 60.198-61.442 90.422-7.217 10.778-17.034 21.934-22.454 33.568-5.039 10.813-2.059 252.951-3.12 285.141 4.767-9.83 11.269-20.81 16.573-30.55a5483.018 5483.018 0 0 1 38.277-69.42c14.58-26.3 28.796-53.04 43.574-79.25 1.568-2.45 3.337-5.39 6.05-6.73 14.675-7.26 30.484-13.34 45.628-19.57l84.636-34.77c20.507-8.41 44.162-19.66 65.418-26.552 1.6-.514 3.78.47 5.15 1.351 4.32 2.791-.71 10.811-1.91 14.531-12.501 24.13-25.548 48.24-38.415 72.14-4.115 7.64-13.688 29.65-22.389 28.96-4.26-2.81-3.114-7.8-1.044-11.88 8.855-17.43 18.009-35.01 27.677-52 6.339-11.15 11.789-23.73 18.436-34.41l.556-.89c-8.008 2.6-17.29 6.62-24.819 10.46-13.945 7.1-27.154 12.27-41.758 17.59-16.588 6.04-33.168 14-49.637 20.5-3.952 1.55-3.217 3.87-4.611 7.46l-1.797.29-2.31-2.77c-4.217-1.44-45.684 17.14-52.59 20.02-4.699 6.22-10.488 18.52-14.477 25.73l-32.977 59.89-43.546 79.11c-3.719 6.78-18.362 30.3-18.853 36.3-1.832 22.36.164 51.39-.418 74.23-.23 9.03 1.496 28.04-3.821 33.85-9.307 3.5-99.851 1.72-117.709 1.71-14.483.14-28.966.42-43.443.86 8.21 10.43 25.564 26.62 35.189 36.42 10.166 10.37 22.805 24.11 33.499 33.37 22.76 1.12 221.722-1.25 225.82 1.77 1.487 1.09 2.317 2.71 2.4 4.55.186 4.11-3.451 7.59-6.083 10.49-6.797 7.51-14.525 14.3-21.685 21.48l-42.906 43.62c-10.836 11-21.475 22.04-31.948 33.39-4.369 4.73-10.169 11.18-16.922 11.57-12.702-7.39-56.478-56.62-70.248-69.3-2.977-2.74-4.591-5.38-4.384-9.49 1.64-2.3 1.58-2.1 4.206-3.26 2.365 0 4.239.3 6.096 1.95 22.862 20.35 42.836 45.43 65.295 65.94 5.509-4.77 11.043-10.43 16.024-15.76 26.308-28.17 56.811-55.13 82.178-83.93-70.072-1.86-141.549.84-211.492-.44l-1.006-.63c-5.846-3.62-13.606-12.34-18.569-17.44l-31.656-32.66c-5.066-5.18-51.363-43.72-25.669-44.3 54.086-1.22 110.038 1.77 164.025-.3 1.07-37.32.389-76.05.478-113.44.443-48.61.594-97.21.455-145.81-4.061-3.74-13.393-9.97-18.151-13.32l-33.859-23.8a12292.803 12292.803 0 0 0-133.928-91.598c-7.815-5.295-38.651-23.457-40.691-28.889-14.239-37.923-26.032-78.669-38.635-117.401-1.582-4.862-4.036-11.18-1.667-15.47 3.47-1.604 1.704-1.287 5.503-1.007 2.23 1.332 3.82 2.75 4.733 5.268 14.612 40.326 26.064 82.149 40.34 122.57a77.108 77.108 0 0 0 2.09 1.532c3.104 2.25 11.091 8.751 14.597 8.195 3.571-3.756 6.197-5.449 10.452-1.3 1.068 3.61.932 4.243-.93 8.075.379 1.386.58 2.011 1.886 2.892 29.683 20.093 59.967 39.833 89.316 60.383-4.511-20.52-13.295-43.81-19.463-63.925-4.055-13.217-11.076-44.39-22.424-50.259-8.228-4.251-61.894-43.825-66.382-43.175-.811 14.483 23.005 61.174 20.148 73.75-2.183 2.284-.904 1.403-4.182 2.438-2.938-.659-4.364-1.882-5.947-4.346-3.691-5.749-24.488-71.414-26.866-81.757-.685-2.977-1.399-6.733-.563-9.744.481-1.736.808-1.882 2.273-2.712 11.226.505 31.406 17.957 41.374 24.646 14.307 9.607 47.096 28.65 57.222 40.019 5.369 6.023 28.197 83.035 32.681 97.305 2.684 8.54 4.886 21.39 10.342 28.57 5.892 7.75 68.078 49.62 80.686 57.77 1.176-36.99-.235-74.47.625-111.5.179-7.677-.515-22.074 3.645-28.507 8.509-13.149 17.573-26.084 26.378-39.044l58.888-86.439c5.24-7.798 15.762-21.554 18.908-29.705-40.709-1.023-81.976.408-122.722-.246a967.474 967.474 0 0 0-42.994.294c6.475 12.527 21.027 30.623 28.777 43.227 1.554 2.532 6.977 4.483 7.36 5.749 2.179 7.203 3.455 11.13 6.869 17.931Z"/>
  <path fill="currentColor" d="M496.703 974.49c3.571-3.755 6.197-5.449 10.452-1.3 1.068 3.61.932 4.243-.93 8.075-2.752-2.634-5.831-3.054-9.522-6.775Z"/>
  <path fill="currentColor" d="M1121.61 253.153c3.89.709 6.63 1.508 6.96 5.663-4.71 10.086-57.04 25.112-71.48 31.261-.93 7.514-1.11 17.732-1.57 25.507a2727.903 2727.903 0 0 0-3.05 63.285c-.43 10.721-.95 21.545-1.75 32.269-3.02 40.889-3.25 82.033-6.62 122.863-.18 2.152-1.74 5.213-2.75 7.145-7.6 5.454-15.21 11.539-22.57 17.333-51.101 40.254-102.911 79.72-154.148 119.777a4627.55 4627.55 0 0 1-49.225 38.413c-7.673 5.847-15.339 11.814-23.285 17.271-4.213 2.893-8.591 4.255-12.183-.219.915-11.178 13.604-44.464 17.924-56.555l28.285-79.459 31.383-88.001c8.709-25.142 19.54-58.049 29.396-82.336 8.016-4.582 19.283-8.204 28.112-11.732l53.299-21.27c7.443-3.08 27.137-13.629 33.772-8.206 1.33 2.67 1.43 2.538.96 5.638-3.668 6.549-48.147 20.691-58.456 25.232-14.389 6.341-31.491 11.6-45.924 18.554l-.898.444c-6.93 15.898-15.545 42.561-21.645 59.768l-35.561 100.171c-12.873 37.16-30.698 80.99-41.818 117.469 19.941-14.741 39.885-31.301 59.276-46.807 2.678-2.143-.522-7.292 1.711-10.573 2.918-1.35 1.506-1.282 4.346-.598 1.412 1.589 2.131 2.827 4.158 3.236 24.477-16.174 58.449-44.706 82.652-63.441l49.309-38.092c10.53-8.127 22.27-16.699 31.97-25.582 1.72-11.833.81-24.224 1.69-36.321 3.53-48.257 4.81-96.757 7.71-145.058 1.38-23.095 1.68-45.35 4.07-68.393 7.47-3.782 18.67-7.668 26.84-10.709l49.11-17.947Zm-798.046.075c8.062.814 72.962 24.418 79.351 29.369 3.807 7.565 5.182 70.968 5.737 83.547l4.839 99.518c.932 19.398 1.644 38.992 3.044 58.355.169 2.326.672 6.709 2.305 8.341 6.259 6.255 14.529 12.175 21.542 17.52a3279.065 3279.065 0 0 1 33.75 25.905l135.045 104.702c13.822 10.791 29.208 21.706 42.486 32.522-6.17-16.547-12.037-34.845-18.024-51.702l-56.371-158.69c-7.423-20.616-16.345-48.919-24.478-68.368-32.107-15.158-69.403-25.261-101.874-40.1-5.18-2.367-5.729-6.075-2.158-10.075 6.781-2.35 27.373 7.374 34.579 10.293 12.165 4.811 72.543 27.059 79.718 32.14 6.69 13.19 16.298 46.099 21.776 61.051 12.289 33.541 24.084 67.749 36.055 101.399l35.167 99.133c4.651 13.086 10.155 27.009 14.424 40.277.841 2.611-.198 4.548-1.49 6.55-5.1 2.219-9.917-.384-14.048-3.758a1525.493 1525.493 0 0 0-31.375-24.916l-96.1-74.713-79.815-61.577c-8.444-6.508-35.817-26.767-41.915-34.088-2.387-18.827-2.876-51.656-3.962-71.527l-8.804-175.006c-22.621-7.394-46.698-15.616-68.605-25.191-2.757-1.205-3.294-2.626-4.025-5.301.631-2.95 1.272-3.367 3.226-5.61Zm743.706 717.49c4.23.889 5.84 1.24 8.36 4.619.64 2.404.48 4.132-.57 6.357-5.43 11.471-79.431 147.096-81.441 148.906-8.615 7.75-103.296 44.18-121.612 51.62-32.572 13.2-64.992 27.39-97.917 39.65-4.085.29-5.429.69-8.147-2.51-.114-1.28-.53-2.76.172-3.72 6.298-8.52 29.489-15.9 38.528-19.48a2620.655 2620.655 0 0 0 40.014-16.45c44.802-18.58 93.464-39.64 138.371-57.11 20.802-32.75 39.952-73.25 59.252-107.25 4.56-8.04 20.26-39.337 24.99-44.632ZM746.569 1334.9c7.763.07 16.135 11.19 21.761 16.6 12.251 11.78 23.323 24.75 36.691 35.39 14.56.71 111.892-.94 116.187 1.55 1.497 3.15 1.377 3.02 1.446 6.56-3.773 8.71-35.231 38.65-43.906 47.64-10.386 11.49-15.63-.36-14.159-2.55 9.086-13.56 28.13-26.65 36.848-40.32-33.545.12-67.095-.03-100.641-.47-6.489-3.94-54.575-52.19-56.603-57.45-.228-3.07.838-4.25 2.376-6.95Z"/>
  <path fill="currentColor" d="M655.174 778.02c3.694 2.38 4.232 9.328 5.071 13.533-2.559.698-1.353.735-3.746.15-1.979-2.937-1.37-9.845-1.325-13.683Z"/>
</svg>
