<svg xmlns="http://www.w3.org/2000/svg" width="1427" height="1389" fill="none" viewBox="0 0 1427 1389">
  <path fill="#2E8EC5" d="M426.472 97.51c2.017-.159 4.026.788 5.307 2.326 1.24 7.201-13.869 14.357-19.463 17.864-128.509 79.949-219.519 208.185-252.585 355.901-34.321 153.202-5.949 313.767 78.794 445.92 79.02 124.449 203.647 212.969 347.154 246.579 24.548 5.51 55.216 11.02 80.307 13.12a567.248 567.248 0 0 0 350.514-89.3c133.21-85.37 226.96-220.279 260.56-374.916a554.05 554.05 0 0 0 11.54-139.942c-4.68-149.313-69.38-290.425-179.45-391.396a655.874 655.874 0 0 0-68.55-54.231c-7.38-5.005-33.8-20.246-37.09-25.421-.22-2.559-.17-1.733 1.25-4.38 5.31-3.373 20.67 6.694 26.44 9.903 54.76 30.449 101.39 67.36 145.9 111.26 63.72 64.949 115.67 141.578 147.59 227.096a654.086 654.086 0 0 1 .48 461.948 648.118 648.118 0 0 1-257.68 316.129c-48.67 30.93-105.477 57.08-160.822 73.9a653.008 653.008 0 0 1-424.131-16.7c-160.155-62.11-289.159-185.2-358.73-342.281-68.336-154.859-73.109-330.37-13.29-488.714a656.535 656.535 0 0 1 229.382-301.511c23.349-17.2 59.933-41.252 86.573-53.153Zm714.258 104.307c9.29 8.506 31.97 37.505 39.61 47.587a570.795 570.795 0 0 1 116.04 321.662c6.31 157.403-50.31 310.841-157.34 426.401-99.97 109.033-249.136 183.863-397.724 190.163-151.154 7.72-299.108-45.38-410.87-147.46C130.125 855.751 78.895 559.262 209.273 319.557c13.009-23.918 27.625-44.811 43.268-67.009 3.334-3.473 10.933-13.552 14.22-17.688 4.313-5.314 8.849-10.619 13.249-15.876 3.36-1.893 17.5-19.835 23.736-24.661 4.767-6.065 12.583-11.23 16.708-16.938l-1.211-.653c-5.356 5.399-39.545 33.228-42.181 37.568-4.733 4.466-9.526 8.851-13.9 13.669-2.901 2.988-11.82 11.753-13.938 14.589-1.746 2.466-11.983 13.189-14.974 16.686C121.471 390.111 65.517 560.557 78.785 732.818c14.109 169.022 94.736 325.522 224.16 435.102 129 108.96 295.624 162.87 463.978 150.13 170.815-13.25 329.307-94.04 440.417-224.48 110.04-129.284 163.92-297.149 149.69-466.33-13.96-163.309-89.99-321.822-216.1-427.755l-.2 2.332Z"/>
  <path fill="#13609A" fill-opacity=".969" d="m319.242 176.732 1.21.653c-4.124 5.708-11.94 10.873-16.707 16.938-6.236 4.826-20.376 22.768-23.736 24.661l-.91-1.376-1.414.698-1.419-1.066 1.322-1.757-.527-1.183c2.636-4.34 36.825-32.169 42.181-37.568Z"/>
  <path fill="#13609A" fill-opacity=".671" d="M263.161 227.969c3.067 2.268 3.32 3.041 3.599 6.89-3.288 4.137-10.887 14.215-14.221 17.688.299-5.73 1.383-6.471-3.316-9.99 2.118-2.835 11.037-11.6 13.938-14.588Z"/>
  <path fill="#13558C" fill-opacity=".776" d="m277.061 214.3.528 1.183-1.323 1.756 1.42 1.067 1.414-.699.909 1.376c-4.4 5.257-8.935 10.562-13.248 15.877-.279-3.85-.532-4.623-3.599-6.891 4.374-4.819 9.166-9.203 13.899-13.669Z"/>
  <path fill="#1B76B2" d="M1140.73 201.816c-4.36-2.671-27.11-24.379-30.46-29.206 5.93 4.028 27.2 21.751 30.66 26.875l-.2 2.331Zm-821.487-25.084c1.045-2.09 8.41-7.187 10.678-8.609-3.154 5.341-21.211 24.634-26.175 26.2 4.767-6.065 12.583-11.23 16.707-16.938l-1.21-.653Z"/>
</svg>
