<svg xmlns="http://www.w3.org/2000/svg" width="1796" height="1406" fill="none" viewBox="0 0 1796 1406">
  <path fill="currentColor" d="M623.25 204.527c9.043-17.281 33.924-40.254 50.477-51.001 98.997-64.27 227.412-4.324 274.259 95.707 1.026 2.192 2.806 2.709 4.832 3.081 2.797-2.718 7.796-13.421 10.172-17.565 26.537-46.355 73.49-87.988 125.43-102.306 42.02-11.265 92.81-11.265 130.7 12.223 43.46 26.942 78.81 69.311 91.4 119.416 2.7 10.751 8.41 44.161 2.13 54.083a7.348 7.348 0 0 1-5.39 3.416c-8.32.917-8.27-11.278-8.27-16.834.08-44.695-20.87-88.689-51.24-120.801-5.73-6.056-18.01-14.539-24.98-19.479-50.78-31.853-106.08-26.627-159.15-5.267-.3.233-.59.465-.89.699-45.82 22.438-83.481 65.833-101.687 113.177-2.771 7.205 20.074 51.503 24.388 59.097 8.086 14.238 20.099 26.459 32.279 36.909 5.31 4.559 9.56 14.08 3.09 18.938-20.82 19.762-40.271 40.986-61.598 60.173-10.217 9.203-31.807-18.256-38.551-24.216-13.742-12.435-27.764-24.771-40.463-38.255-5.139-5.456 1.219-12.298 5.648-15.758 31.518-24.626 41.848-57.514 56.607-92.473-2.236-25.084-40.103-74.518-61.22-91.348-100.246-79.883-233.91-44.72-271.541 80.649-5.136 17.108-3.601 34.082-5.941 51.513-.234 1.743-2.021 1.986-3.201 2.409-23.338-2.862-2.124-73.628 5.638-87.597 5.022-10.517 9.969-19.305 17.072-28.59Zm272.732 176.506c5.183 6.891 50.679 50.918 57.151 53.266 13.076-13.148 25.809-26.386 39.516-38.94 4.77-4.359 10.401-9.635 14.431-14.599-4.69-7.699-13.168-13.888-18.667-20.633-5.858-7.179-13.417-17.515-18.346-25.271a187.608 187.608 0 0 1-12.33-22.787c-2.166-4.813-2.578-9.106-6.445-12.733-6.174 5.989-6.937 16.678-11.392 24.787-12.874 23.425-24.248 38.882-43.918 56.91Z"/>
  <path fill="currentColor" d="M1063.62 159.2c7.88-9.766 30.38-11.272 42.51-16.131-3.06.017-4.83.589-6.94-.915 19.66-7.418 55.43-8.714 75.38-3.176 5.52 1.532 23.72 5.45 26.67 9.108l-1.31 1.092c6.07 5.078 20.72 5.793 22.84 15.289-50.78-31.853-106.08-26.626-159.15-5.267ZM559.463 649.585c11.641-6.454 29.445-19.887 39.634-28.686 7.626-6.586 20.799-26.108 29.501-30.914 1.235-.105 1.897-.482 2.809.195 16.981 12.608 33.393 28.736 50.447 41.09 26.785 19.404 55.203 36.342 82.392 55.18a720.461 720.461 0 0 1 148.303 134.777c35.139 41.454 48.916 58.229 6.138 101.997-2.727 2.78-5.963 6.552-8.62 9.516l-32.973 37.172c-19.466 22.024-38.719 48.828-54.685 73.498-29.138 45.04-42.911 95.16-30.753 148.31 11.754 53.24 48.457 97 100.127 115.25 10.558 3.73 43.075 6.73 45.119 16.96-5.016 11.5-34.684 1.86-43.743-1.31-57.343-20.1-94.214-59.8-112.779-116.86-33.88-104.14 38.128-188.19 99.879-263.196 16.399-19.928 40.051-38.988 50.188-62.941 1.684-3.972.649-11.351-1.832-14.957-13.076-18.332-28.826-35.754-43.506-52.74-59.597-68.949-134.043-120.17-210.724-168.139-7.764-4.857-39.701-33.787-43.535-34.793-6.022 3.736-10.448 13.247-22.356 20.933l-5.585 7.537c-4.452 3.971-24.239 18.739-29.294 20.801l-5.591.553c-3.291.219-3.96.537-6.619-1.073-1.704-2.552-1.516-2.891-1.4-6.126l-.542-2.034Z"/>
  <path fill="currentColor" d="M560.005 651.619c4.47-2.081 9.47-4.02 12.196 1.554-.983 3.233-1.156 3.274-4.177 5.645-3.292.219-3.96.537-6.62-1.073-1.703-2.552-1.515-2.891-1.399-6.126Z"/>
  <path fill="currentColor" d="m602.909 637.464-3.965-1.113c-1.944-2.479-1.471-1.107-1.466-4.259 2.945-4.47 6.592-4.341 11.016-2.164l-5.585 7.536Zm694.881-285.475-1.26.274c-7.83 1.638-18.3 2.434-26.56 3.586-26.94 2.992-46.59 15.145-61.99 36.754-11.46 16.053-12.43 40.285 5.85 51.044 27.66 16.283 54.85-7.747 67.88-28.996a64.38 64.38 0 0 0 7.16-15.954c1.55-5.47 4.85-37.281 16.09-30.095 4.67 8.577.4 25.319-1.98 34.323-13.31 50.259-82.01 89.982-115.29 33.58-5.79-9.815-4.68-24.774-.82-35.244 26.04-70.61 120.05-68.646 182.53-67.376 7.54.153 29.14 7.524 36.4 10.178a195.244 195.244 0 0 1 109.99 99.953c31.65 68.395-2.4 170.284-63.04 212.926-9.08 6.388-17.23 12.543-25.74 19.679-4.02.841-11.57-2.368-13.95-5.686-.58-8.418 19.93-15.941 27.13-22.095 11.26-9.63 23.69-18.401 33.15-30.193 16.21-21.435 30.41-48.509 36.22-74.869 1.43-7.099.89-16.108 2.46-24.941 5.27-7.043-.01-30.079.59-40.088l.14.115c-1.8-4.97-4.85-15.758-8.05-18.735-1.49-2.228-8.1-20.6-11.24-25.823-18.74-31.199-36.27-45.078-65.55-63.785-48.9-23.3-76.49-23.256-130.12-18.532ZM469.723 669.652c-6.349-6.26-18.962-12.073-26.681-18.606-38.193-32.32-63.836-80.672-65.914-130.911-4.269-47.429 13.511-88.273 44.602-122.929 27.48-30.631 80.648-62.463 123.121-61.54 38.739.841 98.326-.003 132.733 21.258 6.984 4.315 13.458 8.376 19.384 13.976 21.75 18.617 32.441 57.888 10.131 80.74a46.89 46.89 0 0 1-34.101 14.381c-24.991-.123-38.223-14.633-54.282-31.025-19.429-19.835-16.736-36.195-23.689-56.359 1.705-3.537 6.783-12.349 10.532-7.857 7.642 9.161 8.158 26.883 14.033 38.416 11.303 22.191 30.853 42.368 57.501 41.075 41.034-5.502 29.75-57.741 4.882-75.504-26.356-19.401-61.181-21.126-92.724-23.11-14.822-.932-37.619-3.233-52.668-.466-47.166 9.086-87.659 32.328-116.35 70.83-26.341 35.348-33.087 73.613-25.74 116.235 7.878 45.698 33.946 85.831 71.327 112.862 7.736 5.594 23.598 11.254 25.329 20.724-2.365 5.734-7.193 5.08-12.463 3.612-4.458-2.086-5.241-2.415-8.963-5.802Z"/>
  <path fill="currentColor" d="M469.723 669.652c4.113-2.423 8.674-4.059 12.288.122-.31 2.975-.578 3.276-3.325 5.68-4.458-2.086-5.242-2.416-8.963-5.802Zm800.577-81.056c7.82 1.601 24.74 21.54 31.65 28.081 7.88 7.568 16.89 15.686 25.86 21.954 51.37 35.87 110.29 56.373 153.76 104.024 24.4 26.753 39.51 63.408 46.71 98.769 4.65 22.844-.06 47.251-.67 69.871-5.43 8.262-6.39 13.201-9.61 22.366-3.77 10.692-10.47 20.735-17.24 29.69-32.82 43.469-79.97 70.579-134.12 76.709-8.28.94-35.12 3.11-36.29-8.57 5.36-11.2 31.15-5.89 42.62-6.98 22.09-2.08 45.48-11.95 65.07-22a156.086 156.086 0 0 0 62.35-67.761c23.6-49.355 17.46-111.476-11.91-157.909-.49-.774-4.62-2.756-5.47-3.157-.49-3.256-.82-6.858-1.21-10.156-25.98-33.409-73.09-62.245-109.6-82.35-38.07-20.97-67.79-39.34-97.32-71.976-1.17-1.295-3.04-3.185-4.82-2.34-6.5 3.08-12.1 9.212-17.66 13.824a3578.355 3578.355 0 0 1-39.32 31.526c-7.53 5.919-15.07 12.158-23.21 17.207-5.55 3.44-16.02 5.278-15.42-4.302 4.24-4.767 89.94-73.602 95.85-76.52Z"/>
  <path fill="currentColor" d="M948.328 480.223c8.594 1.617 13.987 10.809 18.916 17.828 50.446 71.76 122.046 144.305 198.746 187.156 17.94 10.023 96.87 77.773 105.9 80.089 13.16-7.126 85.77-85.281 100.78-65.315.23 1.418-.18 4.44-1.24 5.293-27.93 22.365-61.31 38.007-84.18 67.076-3.86 4.911-12.8 13.812-19.14 8.939-21.56-16.574-42.04-34.195-64.18-50.094-11.09-7.966-21.21-19.069-32.86-26.703l-.86-.564c-6.2-4.777-15.79-10.52-22.54-14.71-69.11-42.866-129.72-101.539-178.988-166-5.946-7.783-9.813-15.517-16.829-23.335-3.981-.896-11.032 15.071-13.54 18.535-30.027 41.449-65.699 79.603-104.13 113.378-9.728 8.55-55.982 54.541-64.921 36.167.693-6.801 19.465-17.645 25.185-22.067 52.038-40.233 98.177-87.963 136.561-141.388 4.858-6.77 11.418-19.412 17.32-24.285ZM670.857 907.155c13.933-.991 30.57 8.437 38.037 19.673 19.777 29.751 2.787 69.055-25.328 86.852-17.675 11.14-40.458 22.19-61.811 20.58-3.903-.29-6.574-5.47-4.768-8.63 5.802-10.14 24.795-9.14 34.85-12.57 5.315-1.82 9.241-2.87 14.131-5.57 13.211-8.029 29.727-23.694 34.244-38.78 10.75-35.918-23.669-56.758-53.908-36.768-41.951 27.743-39.161 63.502-43.381 106.978-5.223 53.79 2.566 86.39 30.538 131.62 33.129 42.41 74.438 71.25 130.876 66.49 19.965-1.68 16.041 14.03 6.198 15.06-85.09 8.77-164.743-63.87-181.981-144.39-5.421-25.31-2.487-54.68.386-80.15 1.356-13.84 1.177-27.887 4.73-41.447 11.132-42.496 33.927-69.265 77.187-78.948Zm564.673 2.86c4.05.289 8.01 1.254 12.04 2.543 34.52 11.008 54.45 42.803 63.42 76.089 2.63 9.78 3.02 25.503 3.83 35.843 2.56 32.52 7.21 66.22-4.04 97.64-3.97 10.98-9.48 28.85-14.84 38.71-16.26 29.97-49.77 64.41-80.41 79.62-23.44 9.99-49.55 14.82-75.03 13.8-8.27-.33-21.38 1.1-25.33-7.66 1.52-13.42 23.69-6.92 31.88-6.74 47.52 1.03 91.81-25.06 121.14-61.3 15.48-17.03 30.08-53.47 33.91-76.71 2.56-14.37-.37-29.33-.41-43.26-.09-25.26-1.56-42.78-6.32-67.434-6.69-34.672-23.1-54.933-56.72-67.564-13.89-5.227-22.37 1.86-30.68 11.806-26.57 33.786 21.82 78.972 55.04 82.292 7.07.7 22.9 5.8 18.16 14.94-6.84 5.53-12.34 1.55-19.28-.28-20.07-5.15-37-14.51-52.93-27.61-21.57-17.733-31.08-55.387-11.01-77.525 9.89-10.903 22.67-16.665 37.58-17.2Zm-676.068-260.43.542 2.034c-.115 3.235-.304 3.574 1.4 6.126 2.66 1.61 3.328 1.292 6.619 1.073l5.592-.553c-10.257 5.797-20.182 12.653-30.702 18.569-7.917 4.453-22.466 10.044-29.004 14.242-24.241 15.571-59.026 36.908-78.856 57.492-27.849 28.908-47.163 79.225-45.94 119.338 1.293 42.38 16.329 78.254 47.306 107.83 25.617 24.454 56.814 39.744 91.676 46.124 11.139 2.05 22.558 1.83 33.705 1.3 3.664.07 8.058-.2 10.628 2.71 2.008 1.61 3.687 10.07.176 10.89-61.021 14.2-130.341-27.1-165.483-70.593a156.345 156.345 0 0 1-33.509-113.598c2.268-20.897 13.185-58.124 23.331-76.513 25.251-45.772 71.215-74.695 114.966-100.396 13.378-7.858 35.751-16.31 46.712-25.367l.841-.708Zm437.923 394.395c19.485-.43 54.655 23.85 69.195 37 58.71 53.07 61.35 143.43 8.99 201.72-18.46 20.54-55.26 45.66-84.403 46.41-4.832-1.84-7.7-3.65-7.138-9.19 4.165-7.24 15.548-8.72 23.041-10.61 97.36-24.62 119.78-153.74 49.09-219.15-8.42-7.79-15.01-14.17-25.43-19.93a92.111 92.111 0 0 0-15.6-6.67c-8.27-2.71-22.279-4.32-26.76-11.32-.228-6.05 3.832-7.34 9.015-8.26Zm-53.02 14.05c-1.71.12-3.42.31-5.112.58-9.156 1.46-18.372 6.23-27.037 9.94-27.703 11.88-46.417 34.1-61.782 59.2-3.358 6.71-13.117 2.5-11.777-5.04 1.404-7.9 5.458-14.5 10.814-21.04 22.323-27.24 50.407-48.74 84.941-57.71 5.244-1.37 17.469-6.64 20.907-.02 6.217 11.96 3.841 27.66 4.533 40.76-1.692 54.12-7.918 110.58-57.414 142.78-10.707 1.22-12.374 9.61-19.915 5.18 12.54-8.77 32.868-26.02 40.743-38.91 18.618-30.47 24.063-67.27 22.511-102.41-.526-11.96.842-21.2-1.412-33.31Zm5.673-1028.038c1.552.203 3.867.311 5.314 1.06 40.682 21.15 72.218 55.55 94.098 95.403 5.59 10.946-6.88 17.051-13.29 6.786-20.25-32.408-49.316-69.243-84.5-86.181-34.508 12.924-69.235 56.834-86.847 88.15-3.5 6.224-13.206 2.312-13.151-2.698.144-13.12 14.374-26.338 20.977-37.352 12.215-18.25 56.51-61.97 77.399-65.168Zm574.542 556.022c20.87.243 101.31 71.95 104.11 97.723 1.15 10.632-3.79 17.846-9.7 25.334.02 3.748.23 5.91-.68 9.589-.45.17-4.65 1.786-4.88 1.995-24.53 21.931-50.43 51.785-82.05 65.177-24.37-5.87 4.61-20.003 12.07-24.501 24.81-14.975 45.47-36.107 62.95-59.03 12.25-16.049 7.68-17.048-1.48-31.535-18.23-29.026-45.82-49.055-74.87-66.238-6.99-4.136-16.44-11.34-5.47-18.514ZM354.505 614.511c-9.983 9.818-72.711 58.131-64.835 74.042 16.736 33.808 54.088 66.664 88.267 83.116 3.841 1.849 3.564 7.894 1.985 11.192-7.708 6.242-19.517-3.219-26.377-7.772-21.316-14.146-41.856-29.556-57.974-49.754-4.902-6.198-26.658-32.516-23.826-39.844 11.724-30.335 49.196-64.296 75.295-83.691 5.928-4.405 26.588-16.436 29.627-14.724 17.944 10.109-8.906 19.384-15.492 22.796-2.691-1.957-3.515-11.448-12.057-2.655-1.201 1.236-.889 1.958-1.139 3.743 1.907 3.414 2.686 3.195 6.526 3.551Z"/>
  <path fill="currentColor" d="M533.706 693.879c14.914-.986 51.368 29.049 63.748 38.697 13.409 10.451 22.59 26.003 39.838 32.105 11.776-12.063 57.148-53.573 71.455-57.976 2.866-.882 4.339-.66 6.919.659 3.508 6.218-.926 11.585-5.29 15.503-10.58 7.504-71.465 58.398-76.568 59.555-7.854 1.779-14.423-7.563-18.846-12.7-23.916-27.77-54.604-44.718-84.912-64.298-2.619-5.234-.044-7.697 3.656-11.545Zm591.184 2.415c4.58-.176 6.18-.12 8.48 3.949.05 9.434-20.39 22.284-28.02 28.407-28.13 22.604-54.73 46.203-78.56 73.372-6.38 7.266-16.25 15.472-22.41 22.87-5.742 6.907-11.88 15.877-17.265 23.208-2.745 3.729-1.666 4.51-6.077 9.414-3.797.101-4.245.245-7.217-1.891-1.807-2.784-2.307-4.814-1.535-8.107 4.665-19.877 81.354-93.922 99.854-110.099 16.71-14.623 34.26-28.813 52.75-41.123ZM1504.7 460.13c3.2 2.977 6.26 13.764 8.05 18.735l-.14-.115c-.6 10.009 4.69 33.044-.59 40.087.56-21.037-1.98-38.564-7.32-58.707Zm-629.9 778.26 1.224 2.54 2.771.67c-3.194 3.16-21.031 12.82-25.607 14.2 1.391-3.78 17.166-14.21 21.612-17.41Z"/>
  <path fill="currentColor" d="M882.521 1232.66c7.542 4.43 9.208-3.96 19.916-5.18-9.085 7.54-13.04 8.98-23.643 14.12l-2.771-.67-1.224-2.54c1.113-1.08 6.188-4.62 7.722-5.73ZM354.505 614.511c-3.84-.356-4.619-.137-6.526-3.551.249-1.785-.063-2.507 1.139-3.743 8.541-8.793 9.366.698 12.057 2.655-2.128 1.466-4.644 3.1-6.67 4.639Z"/>
</svg>
