<svg xmlns="http://www.w3.org/2000/svg" width="1433" height="1498" fill="none" viewBox="0 0 1433 1498">
  <path fill="currentColor" fill-opacity=".984" d="M873.471 758.538c17.987 3.431 34.073 7.622 53.187 8.602 110.282 5.683 237.382-76.39 165.802-197.931-3.68-6.25-12.25-12.005-13.74-19.656.83-2.43.07-1.638 2.09-2.694 9.73.601 39.68 28.293 46.31 35.747 83.88 94.294 38.93 246.773-9.94 347.398-12.53 25.812-30.25 51.954-45.98 75.876-3.34 5.09-8.07 10.66-10.73 16 17.3 7.12 43.06.14 59.48-6.69 47.25-19.649 85.09-56.353 113.31-98.367 6.35-9.465 11.87-20.159 18.42-30.041-21.96 94.971-79.93 161.908-154.56 217.888-1.2.9.99 12.12 1.63 13.95 4.36 20.88 12 39.3 23.25 57.48 1.99 3.22 4.31 6.22 6.93 8.95 12.66-.68 21.1-.03 31.51 8.68 15.73 13.16 17.13 38.8 2.62 53.82a37.17 37.17 0 0 1-27.11 11.47c-20.22 0-37.42-16.51-36.53-36.79.32-7.32 1.47-11.04 3.93-17.93-19.57-26.74-67.46-61.39-101.26-74.06-.3-.04-.59-.07-.89-.1-4.428 4.43 4.36 13.77 7.16 17.85-23.205 18.74-66.685 43.05-93.333 55.12-4.074.91-15.5 6.71-20.123 8.59-22.706 9.21-45.975 15.51-69.632 21.4-29.333 7.31-53.245 9.09-82.812 10.64-96.757 5.06-176.371-24.8-263.989-60.1-3.867-1.49-8.408-3.62-12.224-5.44-81.889-38.8-151.616-106.3-196.247-184.868-6.295-11.081-13.781-23.216-18.049-35 .372-6.67-4.184-6.7-2.457-11.534l1.112.387c.516-.373 1.031-.753 1.547-1.133l2.23 2.047a619.052 619.052 0 0 0 14.811 29.778c52.761 100.933 149.075 183.603 258.001 217.743-4.436-3.77-9.404-7.88-13.984-11.32-70.053-52.56-117.888-130.43-140.135-214.542-3.252-12.289-5.443-25.213-8.264-37.904l1.684 1.726.81-.285c-.275-2.662-.734-4.871.018-7.431 1.931-1.61.754-1.083 3.978-.812 4.561 30.172 18.657 90.058 35.661 115.908 4.281 11.38 14.865 28.83 21.371 39.46 3.122 4.75 6.111 9.69 9.261 14.5-1.952-5.82-3.331-10.26-7.039-15.29-11.166-23.7-19.149-40.12-26.196-65.82-19.864-62.324-21.057-111.894-9.571-175.574l1.367-3.927c16.79-70.504 69.076-145.876 134.376-179.427 49.019-27.706 89.895-35.281 145.141-31.169 5.933 1.003 15.572 1.979 20.939 3.33-1.269 3.203-1.442 4.677-4.495 6.115-20.695-3.037-31.419-3.937-52.148-3.202 6.737 6.592 35.62 25.251 38.071 28.665-1.576-.122-2.47-.19-4.037-.437l-1.968.854-.012 1.222c2.485 2.425 4.768 3.779 5.46 6.692-5.48-3.816-27.096-18.222-32.582-21.093 78.915 77.938 149.224 181.808 149.612 296.645.154 45.679-13.064 101.266-45.111 136.206-2.524 2.75-7.469 6.73-10.709 8.61-4.506-.17-11.325-4.25-15.741-6.07-9.646-3.97-20.741-2.05-28.59 5.11a30.67 30.67 0 0 0-9.834 22.33 28.64 28.64 0 0 0 9.022 21c11.813 11.12 29.84 11.42 41.244-.51 5.274-5.51 8.712-22.77 9.955-23.37 37.965-18.14 83.669-23.36 125.02-19 73.355 7.74 148.611 33.87 206.631 80.06 9.76 7.9 29.25 26.58 35.68 37.06-4.02 9.27-7.67 18.68-3.63 28.86 6.51 15.89 22.76 22.93 38.74 17.06 17.73-6.51 22.06-25.78 15.85-41.52-5.51-13.98-20.32-16.41-33.29-15.5-1.68.11-4.94-1.01-6.17-2.34-5.87-8.62-15.71-23.86-19.54-33.2-4.72-11.47-16.53-43.74-14.15-55.45.68-3.32 22.45-17.09 26.82-20.93 8.67-7.62 18.45-15.74 26.67-23.83a414.56 414.56 0 0 0 73.31-95.485c4.61-8.331 8.33-17.592 12.81-26.011l-.71.615c-5.59 4.915-9.36 11.293-14.23 16.779-29.36 33.032-65.97 61.022-108.88 73.532-10.43 3.04-20.57 5.97-31.57 5.35a52.112 52.112 0 0 1-17.38-4.05c-20.96 39.21-12.43 60.44 7.05 97.25-9.76-10.11-20.13-16.09-32.04-23.23-47.682-28.59-103.773-44.62-159.301-46.31-30.942-.94-54.686 6.36-83.675 10.51 8.236-13.63 17.453-28.77 23.81-43.32 18.792-43.012 28.689-100.943 18.865-147.389-.124-2.502-2.224-12.771-2.897-15.704-6.071-26.523-15.544-57.682-29.501-81.11-3.05-6.422-6.503-12.94-9.656-19.369 14.206-1.543 24.205-3.255 37.775-8.47-6.05-2.26-24.791-10.657-30.372-13.605l1.273-.483-2.275-1.185-.168-.665c1.404-.973 2.136-1.397 3.006-2.875 9.751 5.01 67.898 28.622 74.81 27.32l.037-.637Zm119.884 367.032-18.872-7c-8.785-3.92-25.646-8.74-35.046-11.6-9.575-3.07-19.78-4.65-29.45-6.77-42.28-9.31-85.578-10.81-127.763-.18-11.755 2.96-21.528 5.63-32.581 11.21-8.105 46.3-63.854 41.19-71.802 5.35a36.75 36.75 0 0 1 5.282-27.98 37.79 37.79 0 0 1 24.416-16.01c12.249-2.19 19.716 1.87 29.259 8.36 26.605-22.67 40.379-61.42 46.574-94.94 14.835-80.254-15.69-172.079-61.564-237.734-3.874-7-12.191-17.69-17.073-24.075a671.718 671.718 0 0 0-36.963-44.357c-10.786-11.708-22.115-22.669-32.841-34.412-4.569-4.644-10.224-10.646-15.553-14.152a252.575 252.575 0 0 0-164.779 97.894c-59.378 79.849-75.727 177.54-47.365 272.976 13.764 46.31 36.98 97.25 66.664 135.53 72.818 93.88 215.555 110.43 323.863 93.61a457.18 457.18 0 0 0 171.419-65.25c8.419-5.29 21.593-13.04 28.374-19.74-3.438-8.95-3.942-11.17-4.199-20.73Zm-16.912-346.31c49.857 2.765 113.107-1.836 152.017-36.609a91.286 91.286 0 0 0 30.28-63.367c.37-7.205.07-22.855-1.76-29.855-6.15-23.677-20.5-47.587-37.24-65.34-4.41-4.691-16.84-16.28-22.48-18.845 3.87 7.131 8.67 14.971 11.99 22.225 10.6 23.12 15.5 53.983 7.41 78.718-23.07 70.561-100.62 103.952-169.667 107.755-3.387.191-6.854.366-10.211.717 10.416 2.655 28.66 4.455 39.661 4.601Zm188.327-88.261c-2.31 6.973-4 15.119-6.75 21.69-9.43 22.538-29.24 42.448-51.28 52.674-73.84 34.224-168.342 24.715-243.313-1.317-35.221-12.223-29.435-5.266-63.552.256 8.383 16.728 15.018 30.443 21.901 47.815C852.06 888.545 848.607 974 808.587 1046.25l-5.867 10.15c22.845-4.3 36.773-7.11 60.663-7.41 59.793-.74 130.587 19.28 180.377 52.12-9.12-28.44-7.14-55.88 9.55-80.71 14.12-20.997 29.12-41.36 41.78-63.318 39.09-67.776 66.71-144.102 70.44-222.747.52-10.856 1.55-32.899-.76-43.336Z"/>
  <path fill="currentColor" fill-opacity=".01" d="M997.555 1146.3c-6.781 6.7-19.955 14.45-28.374 19.74a457.18 457.18 0 0 1-171.419 65.25c-108.308 16.82-251.045.27-323.863-93.61-29.684-38.28-52.9-89.22-66.664-135.53-28.362-95.436-12.013-193.128 47.365-272.976a252.575 252.575 0 0 1 164.779-97.894c5.329 3.506 10.984 9.508 15.553 14.152l-.128.661c-.448 2.244-.451 2.646-1.596 4.71-1.823.731-3.531.684-5.504.813-.007 3.014.888 6.341 1.295 9.409 6.997-1.462 5.8 4.773 10.2 9.105 7.018 6.909 14.564 13.175 22.113 19.486 3.288 2.895 8.69 12.348 13.154 16.235 1.448-.072.766.165 1.999-.83 5.178 3.588.849 7.747 5.694 11.365 2.78 2.076 6.564 2.655 9.944 4.444l.72-.415c-1.429-2.648-2.345-3.844-4.158-6.284 3.183 2.09 7.492 4.26 8.594 8.256 1.737 6.305-2.454 8.067 2.281 12.511-.052-1.646-.085-2.999-.045-4.654 1.917 2.233 4.246 5.363 6.707 6.753l.936-.658c-.32-2.107-1.001-2.524-2.337-4.411l.488-.314c2.497 1.865 2.086 1.031 3.136 3.584l-.191.994c-1.904 10.46 3.983 6.488 4.794 9.07.971 3.094 4.76 7.841 5.478 10.321l-.23-1.039.708.198c.986-4.652 1.486-3.299 2.825-6.466 45.874 65.654 76.399 157.48 61.564 237.734-6.195 33.52-19.969 72.27-46.574 94.94-9.543-6.49-17.01-10.55-29.259-8.36a37.79 37.79 0 0 0-24.416 16.01 36.75 36.75 0 0 0-5.282 27.98c7.948 35.84 63.697 40.95 71.802-5.35 11.053-5.58 20.826-8.25 32.581-11.21 42.185-10.63 85.483-9.13 127.763.18 9.67 2.12 19.875 3.7 29.45 6.77-4.82.78-1.565.31-5.201 2.19-4.045-1.96-5.347-1.15-9.539.14l-.614.81c5.742.27 5.296-.63 10.49 1.65l2.823 1.21 1.807-3.13.607.46-1.09 2.8c1.734.53 1.741.89 2.758.45 5.084-2.21 14.132 4.03 19.443 5.38.651.17 3.138-.98 3.979-1.35 6.342 1.25 1.727 5.91 9.583.99l18.873 7c.256 9.56.76 11.78 4.198 20.73Z"/>
  <path fill="currentColor" d="m1040.77 839.802.37.226c-3.92 7.344-9.79 14.461-14.13 21.732-17.18 28.797-28.153 63.643-24.11 97.377 3.05 25.44 12.29 51.143 24.56 73.523.77 1.41.55.21.55 2-3.62-2.14-8.01-9.57-13.16-13.12-7.1-4.89-14.29-11.68-21.596-16.5-31.316-20.646-51.315-27.039-87.75-23.404-9.239.278-28.492 9.085-37.336 13.064 7.176-7.731 20.614-28.153 24.512-37.487 15.618-37.376 10.029-67.622-3.547-103.404 57.195 35.87 100.719 23.589 151.637-14.007Zm-139.933 27.963c14.366 41.341 10.687 73.883-13.021 110.975 7.461-1.529 15.215-3.241 22.713-4.447 41-1.536 65.659 8.792 97.701 33.637-16.417-51.419-18.553-87.413 6.43-138.439.9-1.85 1.6-3.065 2.38-4.988l-.86-.754c-38.617 22.631-75.528 22.382-115.343 4.016Z"/>
  <path fill="currentColor" fill-opacity=".988" d="M971.755 911.52c.359 8.412-21.864 6.744-6.371 36.119-5.991-6.7-7.432-7.907-15.61-11.03-7.498 2.567-10.183 4.498-16.927 8.689l-.87-.402c14.381-14.578 13.576-17.365 3.196-34.166l1.712 1.668c5.574 5.464 7.41 6.627 14.623 9.677 10.109-2.685 11.799-4.711 20.247-10.555Z"/>
  <path fill="currentColor" fill-opacity=".984" d="M576.517 374.308c-6.701-30.07-3.527-55.545 9.577-83.191 33.019-69.662 116.589-100.576 189.605-86.429 5.157.999 16.854 1.581 18.463 7.057l-1.061 1.599c-2.304 1.394-3.094 1.029-5.998.757l-.951-.098c-.57-.131-5.179-.334-6.042-.381a159.594 159.594 0 0 0-83.859 18.228c-3.348 1.782-10.331 5.461-13.153 7.681-40.595 26.968-67.8 92.29-29.617 132.04 30.658 38.738 97.501 34.51 141.178 33.689 49.413-.929 100.442 15.464 131.099 55.916 1.653 2.149 6.423 8.29 7.227 10.678l-1.287.015c-3.094-4.387-5.867-10.358-11.141-11.945l-1.477.271-.3 2.05.746.695c4.074 3.805 11.236 11.837 11.411 17.547-3.328-4.775-7.446-11.085-11.236-15.319 2.429 6.888 5.86 14.929 7.315 21.964 13.284 64.088-38.03 125.21-104.64 112.372l1.448-.559c-2.311-1.44-11.484-2.172-16.151-4.095l-.534-1.37.812-1.558c5.888-3.525 12.377-1.311 19.736-2.627l-2.685-.769c17.388-2.816 33.824-8.79 43.641-23.811 20.987-32.474 13.584-70.682-18.339-92.704-50.224-34.656-108.7-12.489-164.52-18.001-46.715-4.613-87.966-26.125-106.006-71.379-8.935-2.171-24.268-6.745-32.762-7.025-156.478-4.948-278.678 134.809-313.851 277.093-17.184 69.513-21.685 135.66-6.79 206.12 7.358 34.802 14.55 56.343 28.008 89.28l-2.23-2.048c-.516.381-1.031.761-1.547 1.134l-1.112-.388c-1.727 4.835 2.829 4.865 2.457 11.535-10.277-20.414-17.4-40.858-23.814-62.685a434.205 434.205 0 0 1-2.27-241.761c3.058-11.207 6.588-24.809 10.326-35.524 31.299-89.697 87.439-167.408 171.514-214.072 49.745-27.61 112.607-45.327 168.81-29.982ZM730.888 211.67c2.055-.489 4.308-.674 5.588-2.161-2.055-1.128-2.677-.636-5.43-.543-44.213 1.978-82.606 16.843-113.425 49.03-23.201 24.232-38.775 56.762-37.238 90.635 3.538 78.013 77.465 104.648 144.743 99.005 46.177-3.873 101.134-8.052 137.636 25.334 30.32 26.61 32.668 70.468 7.007 101.264-9.823 11.786-17.95 12.872-29.457 19.67 25.12-.9 40.393-6.376 58.03-24.733 17.234-17.618 23.868-39.395 23.21-63.821-1.068-39.8-23.525-67.316-59.419-82.123-68.724-28.347-154.012 13.931-211.533-44.552a80.295 80.295 0 0 1-22.495-52.079c-1.208-26.278 12.038-54.691 29.736-73.612 16.92-18.091 48.201-38.237 73.047-41.314Z"/>
  <path fill="currentColor" fill-opacity=".11" d="M731.047 208.966c2.753-.093 3.375-.584 5.43.544-1.28 1.487-3.533 1.671-5.588 2.16l.158-2.704Z"/>
  <path fill="currentColor" fill-opacity=".988" d="M364.813 931.854c-1.425-10.957-3.343-23.787-4.018-34.641a345.36 345.36 0 0 1 41.077-188.535c61.087-112.209 188.937-186.47 317.571-152.851 8.04 2.102 20.479 4.521 27.626 8.461l-.073 1.001c2.268.849 4.528 1.723 6.781 2.62.256 2.254.49 2.477-.593 4.483-1.375.162-7.892-2.769-10.336-3.446l-1.28.527c-16.604-5.163-32.545-9.623-49.672-12.184-144.334-21.579-273.579 87.143-311.53 221.7-11.87 42.08-18.015 102.344-9.063 146.062-3.224-.27-2.047-.797-3.978.812-.752 2.56-.293 4.769-.018 7.432l-.81.285-1.684-1.726Z"/>
  <path fill="currentColor" d="M930.937 480.487c-.175-5.71-7.337-13.742-11.411-17.547l-.746-.695.3-2.05 1.477-.271c5.274 1.587 8.047 7.558 11.141 11.944l1.287-.014c4.777 6.119 6.803 11.627 10.037 18.45 24.651 51.569 12.172 120.19-34.037 155.433-24.176 18.443-58.029 26.546-87.867 21.811-44.475-7.057-84.356-25.945-129.001-34.39 3.053-1.438 3.227-2.913 4.495-6.115 25.635 5.303 50.903 12.904 75.554 21.461 36.663 12.727 79.09 21.007 115.438 2.514 25.69-13.071 44.65-34.421 53.655-62.032 12.859-39.441 8.646-71.692-10.322-108.499ZM677.484 666.951c-.692-2.912-2.975-4.266-5.461-6.691l.013-1.222 1.968-.854c1.567.247 2.461.315 4.037.436 16.442 9.858 32.142 22.729 49.087 32.596 45.273 26.365 95.19 54.558 146.343 67.322l-.036.636c-6.913 1.302-65.059-22.309-74.81-27.319-.871 1.477-1.602 1.901-3.007 2.874l.169.666 2.275 1.185-1.273.483c-5.128-1.529-21.192-10.335-26.59-13.287a868.687 868.687 0 0 1-67.97-40.538c-7.332-4.747-18.113-11.178-24.745-16.287Z"/>
  <path fill="currentColor" d="m741.568 569.473 1.28-.526c2.444.676 8.961 3.607 10.337 3.445 1.082-2.006.848-2.229.592-4.482a344.684 344.684 0 0 0-6.781-2.621l.073-1.001c26.041 7.556 51.271 27.103 77.934 24.238l2.684.769c-7.359 1.316-13.847-.898-19.735 2.627l-.812 1.558.534 1.37c4.667 1.923 13.839 2.654 16.151 4.095l-1.448.559c-19.078-2.801-35.273-11.39-52.756-18.817-9.114-3.874-18.792-7.501-28.053-11.214Z"/>
  <path fill="currentColor" fill-opacity=".557" d="M430.556 1079.63c3.708 5.03 5.088 9.47 7.039 15.29-3.15-4.81-6.138-9.76-9.261-14.5l2.222-.79Z"/>
</svg>
