<svg xmlns="http://www.w3.org/2000/svg" width="1093" height="1458" fill="none" viewBox="3 -38 1093 1458">
  <path fill="currentColor" d="m417.841 514.823-1.37 3.957c.981.644 1.958 1.295 2.93 1.953-29.602 30.64-44.847 68.223-47.811 110.475-.872 14.131-.065 21.28.048 34.34 8.059 125.032 136.269 216.741 257.977 178.034 18.999-6.044 36.657-14.886 53.208-26.027 4.801-3.232 10.741-8.166 15.56-10.942-1.045 4.022-3.435 5.424-5.583 8.557-1.745 1.68-7.59 7.147-8.615 8.785-29.438 22.026-74.799 33.41-111.186 35.339-4.933.257-14.927-1.132-20.114-1.666-44.968-4.591-86.713-23.115-119.958-53.906a220.38 220.38 0 0 1-60.072-93.154c-4.097-12.207-7.277-23.934-7.755-36.879-6-16.047-.616-54.977 3.539-72.025 6.923-28.402 27.014-67.223 49.202-86.841Z"/>
  <path fill="currentColor" d="m417.841 514.823-1.37 3.957c.981.644 1.958 1.295 2.93 1.953-29.602 30.64-44.847 68.223-47.811 110.475-1.435 2.036-3.041 13.82-2.835 16.453-.295-1.03-.579-2.92-1.249-3.296-.419.898 1.35 33.56 1.043 38.271 2.179-3.86-.435-9.326 1.404-10.194.468 2.872 2.439 23.467 2.165 25.526l-.756.538c-3.54-3.552-3.154-22.396-6.262-24.817-6-16.047-.616-54.977 3.539-72.025 6.923-28.402 27.014-67.223 49.202-86.841Z"/>
  <path fill="currentColor" d="M368.755 647.661c-.206-2.633 1.4-14.417 2.835-16.453-.872 14.132-.065 21.28.048 34.341l-1.162-.704c-.144-6.178-1.672-10.278-1.721-17.184Z"/>
  <path fill="currentColor" d="M317.125 607.468c2.018-1.094 3.566-3.531 4.977-5.406l.827.454.895 4.161c-2.258 6.595-5.574 13.086-7.479 19.602-18.268 62.454-12.071 131.19 25.466 185.466 22.274 32.207 42.642 49.03 75.327 69.263-4.1.056-8.637-3.909-11.631-2.4 1.754 3.482 1.304-.22 4.714 4.628-2.375-1.097-5.535-2.798-7.693-4.179-73.706-47.05-121.188-140.874-99.694-228.075 3.058-12.407 7.793-32.565 14.291-43.514Z"/>
  <path fill="currentColor" d="M694.045 815.711c5.97-4.834 7.15-10.102 15.176-12.401-32.036 51.613-81.449 90.028-141.099 103.975a210.941 210.941 0 0 1-127.235-9.12c-6.328-2.463-26.019-10.458-30.666-14.929-3.41-4.848-2.96-1.146-4.714-4.627 2.994-1.51 7.531 2.456 11.631 2.399 8.209 3.211 15.69 7.867 24.355 11.22 35.426 13.725 76.79 18.88 114.043 11.426 41.249-8.265 83.633-28.028 112.606-58.847 4.695-4.99 13.23-12.807 16.912-18.417l-.868-2.435c1.025-1.637 6.869-7.105 8.615-8.785l1.244.541Z"/>
  <path fill="currentColor" d="m692.801 815.17 1.244.541c-2.912 3.439-6.22 7.176-8.991 10.679l-.868-2.435c1.025-1.637 6.869-7.105 8.615-8.785Z"/>
  <path fill="currentColor" d="M754.811 694.395c13.102-7.841 8.894-23.974 14.69-27.996 2.798 2.987 1.132 13.66 4.286 19.067 2.77 4.746 4.629 6.674 8.63 10.551 3.66.783 12.383 1.695 14.284 4.934-1.958 2.758-9.805 2.958-13.244 3.307-17.687 16.313-7.904 21.873-14.298 29.676l-1.139-.064c-6.138-8.757-.905-15.442-7.292-22.925-2.563-3-5.418-4.376-8.082-6.908 1.973-3.17 1.93-5.989 2.165-9.642Z"/>
  <path fill="currentColor" d="M456.621 483.275c3.317-2.051 22.478-6.694 27.424-7.999.496 2.326-1.041 2.52-.75 4.977-25.395 7.59-44.879 23.001-63.893 40.48a248.367 248.367 0 0 0-2.93-1.953l1.369-3.957c1.25-1.701 13.113-12.769 14.938-14.232 7.116-2.741 19.172-10.944 23.842-17.316Z"/>
  <path fill="currentColor" d="M405.216 506.369c-1.389 3.131-6.064 9.232-6.216 10.858-5.74 4.756-11.256 8.561-16.997 13.676-2.596 2.313-10.058 9.447-12.244 11.045l-14.975 15.992c-3.023 4.311-6.472 8.324-9.838 12.377-.093-1.938 2.33-9.801 2.985-12.144 9.667-14.613 42.047-42.637 57.285-51.804Z"/>
  <path fill="currentColor" d="M456.621 483.275c-4.67 6.373-16.726 14.576-23.842 17.316-12.589 1.624-25.387 12.808-33.779 16.636.152-1.626 4.827-7.727 6.216-10.858 8.565-7.59 40.294-19.563 51.405-23.094Zm-108.69 74.898c-.656 2.343-3.078 10.206-2.985 12.144-4.966 6.475-7.354 11.681-11.515 17.53-2.582 4.792-7.269 15.178-9.608 18.831l-.895-4.161-.826-.454c-1.412 1.875-2.96 4.311-4.977 5.406 4.114-9.213 11.595-23.773 17.895-31.593 1.231-3.612 10.033-14.534 12.911-17.703Z"/>
  <path fill="currentColor" d="M720.526 781.938c-.242 7.339-7.071 15.234-11.305 21.371-8.026 2.3-9.206 7.568-15.176 12.402l-1.244-.541c2.148-3.133 4.538-4.535 5.583-8.558.541-.854 4.214-3.801 5.312-5.047a1068.34 1068.34 0 0 0 16.83-19.627Z"/>
  <path fill="currentColor" d="M754.811 694.396c-.235 3.652-.192 6.471-2.165 9.641-6.494-.891-12.589-1.138-18.905-2.967a112.347 112.347 0 0 0 21.07-6.674Z"/>
  <path fill="currentColor" fill-opacity=".984" d="M484.045 475.276c3.382-1.094 12.79-.928 16.573-.731-4.572 1.675-13.764 4.179-17.323 5.708-.291-2.457 1.246-2.651.75-4.977Z"/>
</svg>
