<svg xmlns="http://www.w3.org/2000/svg" width="1250" height="1471" fill="none" viewBox="-29 -60 1250 1471">
  <path fill="none" stroke="currentColor" stroke-width="5" d="M592.568 447.969c2.894.661 2.238.386 3.832 3.264.084 6.11.65 24.534-.037 29.688-1.039 12.778.058 26.54-.271 39.377-.212 8.25 2.312 10.538 3.591 17.403.024 3.877-.253 17.781.868 20.45l.416.298.594-4.7.627.489c.719 6.155.55 11.829.649 18.037.193 12.145-.155 24.43.66 36.548.069 1.029 1.694 3.365 2.347 4.288 1.146 11.51-.999 25.176 4.694 34.701l1.251.643c3.729-2.11 7.028-5.208 10.204-8.089 12.999-11.793 28.012-22.25 40.186-34.914 2.193 2.4 1.63 1.228 2.146 4.411-9.488 12.426-22.102 25.386-32.092 37.65-3.41 4.186-7.944 7.537-10.442 11.813-1.57 2.2-1.556 1.452-1.306 3.52 1.466.756 1.354.793 2.982.669 6.36 1.344 12.278.81 18.413 1.57 9.893 1.225 18.324 2.306 28.263 2.771 5.983-.135 14.004-.485 19.775.414 5.209.811 8.22 2.031 13.744 2.52 13.583.396 28.034.096 41.439 1.714 8.376 1.01 14.698 1.271 23.182 1.368 6.911 1.285 31.186.078 34.354 2.218-3.556 1.398-32.658.348-37.112 3.01 2.924-.212 6.81-.653 9.641-.374-2.048.302-11.452.993-11.947 1.296-2.206.169-5.043.281-7.148.788-20.359.706-40.709 4.094-61.205 4.051-7.149-.015-15.541 2.075-22.825 2.153-11.52.535-22.58 1.284-34.053 2.421-5.414.535-12.047-.396-17.348.773l-.357.957c1.883 3.728 4.499 6.232 7.06 9.454 12.806 16.108 26.588 31.075 40.379 46.316l1.424 3.182c-1.019 1.523-.365.984-1.99 1.724l-1.993-1.508c-8.644-10.214-45.601-40.052-57.227-49.032-1.431 12.984-1.714 22.463-1.731 35.543-1.927 1.242-2.165 1.422-2.61 4.309-2.031 13.216.464 34.692-1.299 47.104-1.267-1.214-.93-1.25-1.431-3.247-1.444 2.536-.891 16.412-1.429 20.722-.202.632-2.882 15.787-2.875 16.463.12 13.036-1.714 30.152-.196 42.858.199 5.56.329 15.263-.076 20.88.372 14.861-.075 33.011-.66 47.915l-2.966-1.494c-.041-15.924-.689-31.776-.706-47.57l-.023-1.947c-3.105-16.541-2.849-31.1-2.739-47.922a1924.887 1924.887 0 0 0-5.415-92.11c-1.1-14.15-.446-23.667-3.531-37.713.168-1.178.06-.967-.211-2.206-2.283.23-2.622 1.083-4.814 2.733-15.15 12.751-60.682 50.165-71.441 64.746a87.407 87.407 0 0 1-3.492-1.458c11.309-12.326 63.877-67.184 67.784-79.416-22.916.481-46.058-2.916-68.898-4.486-18.864-1.297-43.159-.869-61.536-4.297l.542-1.213c-5.145-3.161-44.883-2.837-52.978-3.612 1.746-2.067 19.165-.765 24.683-1.979 8.887-.112 20.328-.573 29.016-.183 4.32-1.003 6.554-2.189 11.22-2.193a579.692 579.692 0 0 0 26.599-.614l5.684-.114c2.769-.299 4.46-.471 7.117-1.31 7.805-2.463 17.517-1.762 25.764-1.513 9.531-1.027 19.06-1.269 28.637-3.235 4.729-.972 21.532.503 24.741-2.415-.039-5.929-60.346-68.639-67.798-78.895l1.58-.336.713.609c2.367 1.998 3.033 2.702 6.191 2.885 2.495 2.498 4.686 5.693 8.127 9.068 13.13 12.881 26.687 24.868 40.595 36.883 6.666 5.758 14.74 13.778 22.026 18.362.266-6.661 1.736-12.505 2.193-19.212l4.518-74.308c.997-16.904 2.064-28.772 2.411-46.266-.205-13.794.295-31.141 2.698-44.554-.111-5.596.405-12.885.648-18.594Z"/>
  <path fill="none" stroke="currentColor" stroke-width="5" d="m591.956 884.783.164.661c.799 3.347 1.883 18.711 2.178 19.336.14-7.147.087-11.809 1.991-18.848.372 14.861-.075 33.012-.661 47.916l-2.965-1.494c-.042-15.924-.689-31.776-.707-47.571Zm-2.761-49.868c1.218 4.92 1.048 10.329 2.177 15.967l-.486-6.543c1.35 7.297 1.948 30.619 1.048 38.498-3.105-16.541-2.849-31.1-2.739-47.922Zm.026-323.799c-.205-13.794.295-31.141 2.698-44.554.28 8.467.923 31.521-1.132 38.722a149.184 149.184 0 0 0-1.566 5.832ZM438.903 673.72c4.321-1.003 6.554-2.188 11.22-2.192a579.66 579.66 0 0 0 26.599-.615c-11.292 4.366-25.457 3.222-37.819 2.807Zm43.503-2.92c2.77-.3 4.461-.472 7.117-1.31 7.806-2.463 17.517-1.762 25.765-1.514-5.34 3.183-26.696 3.712-32.882 2.824Zm187.737-2.944c5.983-.135 14.004-.485 19.775.414 5.209.811 8.22 2.031 13.744 2.52-5.822.781-28.741.503-33.519-2.934Zm-271.557 12.375c-8.057.908-22.158-.226-30.652-.624-7.675-.359-42.166-.031-46.482-3.702l.802-.898c4.136-1.043 22.547-.735 28.001-.778 19.876-.248 39.754-.356 59.632-.325-5.517 1.213-22.936-.089-24.682 1.978l-3.922 1.13c4.103.842 25.826.661 28.242 2.09-3.477.209-7.638.263-10.939 1.129Zm369.697-6.359c23.872-.311 48.614.194 72.544.407-5.123 4.096-8.176.653-15.101 2.951-9.001.182-18.147.196-27.119.905-10.151.803-25.295 3.61-35.388 1.886.495-.303 9.899-.994 11.947-1.295-2.831-.279-6.717.161-9.641.374 4.454-2.663 33.556-1.613 37.112-3.01-3.168-2.141-27.443-.933-34.354-2.218ZM595.434 381.308c.205 23.252.925 46.763.966 69.925-1.595-2.879-.938-2.603-3.833-3.265-.328-20.72.083-42.329.191-63.114.175 2.232.263 7.253 1.382 8.942.931-2.599 1.107-9.416 1.294-12.488Z"/>
  <path fill="none" stroke="currentColor" stroke-width="5" d="M825.726 677.23c5.603-.032 10.976-.906 15.567 1.864-6.006 2.799-35.294 1.73-43.599 1.639-13.341-.146-28.391.461-41.624.076 2.105-.507 4.943-.619 7.148-.788 10.094 1.724 25.237-1.083 35.388-1.886 8.973-.709 18.118-.723 27.12-.905ZM596.363 480.921c.724 7.506 2.775 14.597 2.985 21.955.331 11.57.279 23.246.335 34.825-1.279-6.865-3.803-9.154-3.591-17.403.329-12.837-.768-26.599.271-39.377Zm.001 384.132c-1.517-12.706.317-29.823.196-42.859-.007-.675 2.673-15.83 2.876-16.463 1.025 9.999-.079 22.058.079 32.25.138 8.871-2.585 17.95-3.151 27.072ZM385.205 675.882c8.095.775 47.833.452 52.978 3.613l-.542 1.212a2719.169 2719.169 0 0 1-39.055-.476c3.301-.866 7.462-.92 10.939-1.128-2.416-1.43-24.139-1.249-28.242-2.091l3.922-1.13Zm282.517 71.053c2.292 2.183 35.122 37.284 35.303 37.665-7.671-4.712-29.505-25.333-35.869-32.76 1.625-.74.971-.201 1.99-1.724l-1.424-3.181Zm-5.544-141.484c1.897-2.295 34.653-32.429 35.256-32.689-.64 3.083-28.858 30.961-33.11 37.1-.516-3.183.047-2.011-2.146-4.411Z"/>
  <path fill="none" stroke="currentColor" stroke-width="5" d="M840.826 674.279c9.002.002 21.724-.284 30.553.667-11.63 3.457-17.967 3.491-30.086 4.148-4.59-2.77-9.964-1.896-15.567-1.864 6.925-2.298 9.978 1.145 15.1-2.951ZM500.29 768.906c1.218.532 2.253.977 3.492 1.458-3.395 3.8-11.632 13.152-15.759 15.005l-.663-.568c1.204-4.632 9.286-12.756 12.93-15.895Zm92.373 163.448 2.965 1.494c.069 10.271.014 20.549-.165 30.82-.512-3.426-.736-9.553-.975-13.201-.922 3.907-1.187 6.457-1.741 10.493-.148-9.869-.176-19.738-.084-29.606Zm-91.795-348.922c-4.695-3.732-9.6-10.76-13.237-13.411l-.054-1.41c4.261 1.968 18.273 14.079 21.775 17.978-3.158-.183-3.824-.886-6.192-2.884l-.712-.609-1.58.336Z"/>
  <path fill="none" stroke="currentColor" stroke-width="5" d="M592.748 961.961c.553-4.037.818-6.587 1.741-10.494.239 3.649.462 9.775.974 13.201.241 2.572.196 7.456.261 10.214l-1.554.625 1.528.129-.553 1.659.517-1.127-.577 1.12c-.887-1.932-2.377-12.943-2.337-15.327Zm-17.524-256.343c2.192-1.65 2.531-2.503 4.814-2.733.271 1.239.379 1.028.211 2.206-1.862 4.15 1.116 5.538-3.609 8.589l-.97-.443c-1.198-3.149.415-4.753-.446-7.619Zm17.534-320.764c-.447-2.162 1.327-9.044 2.509-11.023.8 2.126.327 5.112.167 7.476-.187 3.072-.363 9.89-1.293 12.489-1.12-1.689-1.208-6.71-1.383-8.942Zm42.438 313.338c8.477-1.012 5.739 4.235 16.135 4.638-5.156 2.608-12.88-.703-16.135-4.638Zm-13.406-38.867c1.461.23 2.391.052 3.824-.192l3.293 1.28-.141 1.153c-2.326 1.448-2.548 1.42-5.299 1.948-1.629.124-1.516.088-2.983-.668-.249-2.068-.264-1.321 1.306-3.521Z"/>
</svg>
