<svg xmlns="http://www.w3.org/2000/svg" width="1274" height="1267" fill="none" viewBox="-56 -49 1274 1267">
  <path fill="#F1D0A0" d="M579.566 479.193c3.236 1.176 1.312-.774 3.241.351.131 12.559 2.773 30.404 4.176 43.142 1.523 13.819 5.538 26.187 5.988 40.71 3.761-2.223 6.694-5.009 10.186-7.626 11.964-8.967 22.9-18.988 34.707-28.174-6.077 8.916-31.499 37.167-34.139 43.532.289 1.203.797 1.716 2.156 1.985 25.035 4.958 50.297 9.044 75.839 10.377 1.73.091 2.806.683 3.938 1.771-2.843 4.229-23.751 3.688-29.642 4.575-13.244 1.997-26.357 4.753-39.695 6.018-4.246.404-8.47.695-12.659 1.521-1.366 6.228 24.965 32.02 29.835 41.58-6.967-3.881-10.115-8.074-15.917-12.95-6.195-5.202-17.329-14.694-24.105-18.287-.637 10.38-3.556 22.56-4.926 33.252-1.734 13.528-3.95 27.019-5.279 40.622-.415 4.249.363 17.995-2.846 19.78-5.077-10.829-8.146-87.905-13.975-92.567-4.395 1.238-33.891 26.362-41.91 31.997 7.301-8.95 29.708-34.251 34.637-44.151-21.37-.765-40.747-5.011-61.838-7.747-5.195-.674-21.187-.832-25.14-3.034 1.547-3.061 21.521-2.913 25.006-3.566 18.25-3.416 44.055-4.139 61.185-10.523-6.281-7.171-11.758-14.398-17.557-21.952-5.769-7.511-14.841-14.485-18.529-23.038 4.361 1.931 11.086 9.14 14.857 12.483 5.07 4.492 24.845 21.879 30.003 22.414 2.557-2.064 1.322-8.654 1.946-12.29.706-3.623 1.674-6.911 2.291-10.595 3.131-18.694 4.637-37.516 7.009-56.198-.128 1.006 1.271-3.86 1.157-3.412Zm-2.539-181.129c11.565-.505 13.344 5.001 13.259 15.01-3.096 4.403-4.242 5.18-8.957 7.568-10.376 1.092-18.823-14.104-4.302-22.578Zm-.049 552.207c4.428-.361 8.517.97 11.148 4.795a10.395 10.395 0 0 1 1.571 8.036c-.837 3.969-3.355 5.996-6.568 8.08-3.327-.075-4.655-.286-7.942-.908-8.903-8.08-6.207-13.255 1.791-20.003Zm-.118-463.589a7.276 7.276 0 1 1 6.628 12.955 7.276 7.276 0 0 1-6.628-12.955Zm.826 382.039c10.188-.479 12.829 7.346 6.248 14.337-5.094.212-10.743-1.275-10.748-7.52-.003-3.079 2.436-4.845 4.5-6.817Zm-191.053-190.73c10.439 1.061 9.465 11.777 2.618 15.896-6.746-1.001-9.277-6.322-6.718-13.067.742-1.954 2.27-2.222 4.1-2.829Zm382.712 1.031c6.439-.507 6.532 1.267 9.536 6.287-1.586 3.158-2.401 5.243-4.97 7.741-8.827.434-11.253-7.847-4.566-14.028Z"/>
  <path fill="#E5C87C" d="M723.076 708.245c.56.187.952.51 1.468.84.884 3.57-2.351 7.936-5.237 9.684-1.195-.659-1.518-.945-2.594-1.804-.647-4.733 2.506-6.63 6.363-8.72ZM435.055 455.649l2.218.828c2.104 3.51.144 5.644-2.411 8.278-1.375-.282-2.022-.499-3.357-.952-2.288-3.862.454-5.883 3.55-8.154Zm266.118 271.386c2.78.019 5.07-.404 6.556 2.165-.36 2.183-1.455 2.805-3.116 4.329-.703 1.132-.467.74-1.717 1.53-2.924-1.537-2.681-5.293-1.723-8.024Zm64.857-192.076a3.713 3.713 0 0 1 3.77 3.455 3.715 3.715 0 0 1-3.266 3.935 3.714 3.714 0 0 1-3.484-1.564 3.72 3.72 0 0 1-.255-3.805 3.709 3.709 0 0 1 3.235-2.021Z"/>
  <path fill="#DCAB5F" d="M747.2 671.149c1.909-.105 2.233-.273 4.031.436 2.513 3.29.354 5.212-2.395 7.308-.43.013-1.574-.168-2.053-.23-2.482-2.718-1.711-4.92.417-7.514Z"/>
  <path fill="#E5C87C" d="M714.921 449.506c2.445.168 4.541.164 6.407 1.651 1.369 2.039 1.126 4.287 1.201 6.789-4.591-1.326-7.509-3.243-7.608-8.44ZM445.357 721.443c2.865-.068 4.411-.273 6.821 1.387 1.593 2.24 1.451 2.706 1.712 5.573-6.498.231-6.449-1.443-8.533-6.96Z"/>
  <path fill="#F1D0A0" d="M735.915 690.698c.909.268 1.562.604 2.426.989 2.035 3.098 1.692 5.237-1.455 7.135-2.868-.853-3.073-.585-4.355-2.544.23-2.059 2.028-3.863 3.384-5.58Z"/>
  <path fill="#E5C87C" d="m421.367 475.904 1.884.922.445 1.481c-.84 2.288-3.258 4.106-5.119 5.831-1.403-.367-.746-.137-1.96-1.296-.89-4.529 1.089-5.538 4.75-6.938ZM683.63 741.385c2.613-.143 3.975-.597 5.244 1.897-.541 2.339-1.412 2.843-3.147 4.516-2.75.398-2.514.852-4.311-.268-.199-1.953 1.275-4.254 2.214-6.145Z"/>
  <path fill="#DCAB5F" fill-opacity=".988" d="M768.711 609.717a3.464 3.464 0 0 1 3.969 2.865 3.465 3.465 0 0 1-2.849 3.98 3.463 3.463 0 0 1-3.994-2.862 3.463 3.463 0 0 1 2.874-3.983Z"/>
  <path fill="#E5C87C" d="M430.49 705.166c2.301.025 4.204-.342 5.979.97 1.178 1.773.864 3.975.853 6.195-5.184-.373-5.813-2.606-6.832-7.165Z"/>
  <path fill="#E5C87C" fill-opacity=".988" d="M749.153 498.111c2.37.068 3.428-.12 5.474 1.084 1.357 1.901 1.077 3.035 1.058 5.394-2.165-.01-3.838.28-5.555-.905-1.238-1.797-.964-3.334-.977-5.573Zm-298.49-58.72c2.152.227 3.471.425 4.786 2.141-.367 2.073-2.099 3.119-3.785 4.607-1.489.692-1.403.787-2.995.546l-.523-1.347c.591-3.052.823-3.242 2.517-5.947Zm213.653 313.214c2.674-.18 3.807-.578 5.853.548.498 2.388.075 2.264-.759 4.963-2.332.809-3.067 1.176-4.982-.261-.822-1.984-.43-3.116-.112-5.25Z"/>
  <path fill="#E5C87C" d="M468.05 737.354c3.077.517 3.715.616 4.953 3.577-.054 2.295-.436 2.556-1.762 4.397-2.661-1.53-4.683-2.83-5.203-5.946l2.012-2.028Zm289.395-86.382c1.138 1.256 1.729 1.94 2.756 3.334.504 2.506-.79 4.142-2.035 6.549l-1.704-.665c-2.47-3.266-1.468-6.351.983-9.218Z"/>
  <path fill="#DCAB5F" d="M579.567 479.193c-.191-3.055-.431-8.369.703-11.153l.842-.082c1.698 3.101 1.519 7.91 1.695 11.586-1.928-1.125-.005.825-3.24-.351Z"/>
  <path fill="#E5C87C" fill-opacity=".988" d="M697.938 433.981c2.276.026 3.937-.226 5.866.905 1.393 1.791 1.095 3.178 1.101 5.494-2.551-.013-2.781.083-5.002-1.006-1.636-1.904-1.53-2.79-1.965-5.393Z"/>
  <path fill="#E5C87C" d="M510.078 402.912c2.494.167 2.935-.191 4.411 1.65-.064 2.135-1.264 3.38-2.506 5.203l-2.536-.165c-1.527-1.392-.991-.552-1.499-2.704.588-2.312.541-2.191 2.13-3.984Z"/>
  <path fill="#E5C87C" fill-opacity=".988" d="M393.465 534.063c2.637.991 2.59 1.381 3.222 3.92-.805 2.896-.151 1.944-2.264 3.952-2.792-.717-3.006-.667-3.811-3.226.627-2.518.991-2.678 2.853-4.646Z"/>
  <path fill="#DCAB5F" fill-opacity=".988" d="M386.733 609.606c3.029-.01 3.859-.402 6.105.969.65 1.909-.009 3.033-.665 4.988-1.758.026-2.524-.279-4.19-.734-1.572-2.253-1.055-1.984-1.25-5.223Z"/>
  <path fill="#E5C87C" fill-opacity=".988" d="M399.787 513.887c2.697.588 2.392.665 3.618 2.325.262 2.442-.086 2.906-.964 5.156-2.702-.245-2.524.187-4.405-1.165-.471-2.008.874-4.285 1.751-6.316Zm-.161 139.119c2.057.485 3.12.479 4.428 2.096.785 2.214.426 3.135.053 5.449-2.952-.15-2.343.342-4.136-1.219-.898-2.097-.501-3.994-.345-6.326Zm-7.852-95.645c1.085 1.166.751.684 1.338 2.184-.263.666-.54 1.259-.834 1.91-2.691 1.69-1.626 1.211-5.116 1.28-.877-1.991-1.323-2.745-.387-4.584 2.19-.767 2.742-.698 4.999-.79Zm271.253-147.736 2.937.376c1.517 1.278 1.368 1.26 2.046 3.162-.367 3.12.255 1.865-1.598 4.052-2.93-1.19-3.683-3.179-4.411-6.047l1.026-1.543Zm-174.728 3.399c1.913.234 3.426.203 5 1.255-.052 2.222-.754 2.363-2.346 4.597-.633.457-1.274.498-2.122.717l-.963-.815c-.524-2.632-.251-3.052.431-5.754Z"/>
  <path fill="#E5C87C" fill-opacity=".984" d="M535.459 768.858c2.976-.087 4.356-.504 6.659.921.704 1.94.184 2.936-.361 4.951-3.682-1.275-5.296-2.227-6.298-5.872ZM472.782 424.12c1.603 1.123 1.838 2.42 1.756 4.235-1.647 2.465-.831 1.652-3.819 2.907-2.121-1.596-1.53-.612-2.31-2.728.577-1.869 2.719-3.138 4.373-4.414Z"/>
  <path fill="#E5C87C" fill-opacity=".988" d="M419.522 689.921c2.709.317 3.01.292 4.462 2.071.384 2.438-.144 3.235-1.003 5.667-3.946-1.307-4.281-4.23-3.459-7.738Zm322.514-208.99c3.03.835 4.218 2.337 5.406 5.085l-.665 1.545c-2.302.553-2.7.577-4.486-.645-1.007-2.305-.591-3.366-.255-5.985Zm-334.74 13.22c1.908.544 2.123.44 3.528 1.884.696 2.11-.114 3.645-.795 5.847-1.813-.398-1.918-.222-3.106-1.569-.842-2.066-.115-3.881.373-6.162Z"/>
  <path fill="#E5C87C" d="M769.694 557.533c2.42.969 2.327 1.173 3.079 3.45-.391 2.444-.311 2.33-1.878 4.225-2.041-2.841-3.291-2.91-3.384-5.633l2.183-2.042Z"/>
  <path fill="#E5C87C" fill-opacity=".988" d="M393.65 632.001c2.053.603 2.133.498 3.784 1.984.423 2.457.232 1.767-1.077 4.51-1.532.516-1.015.51-2.508.186l-.837-1.35c-.249-2.649-.194-2.755.638-5.33Zm15.186 41.512c3.067.08 2.659-.405 4.763 1.057.66 2.04-.074 3.576-.667 5.716-3.368-.591-3.916-3.95-4.096-6.773Z"/>
</svg>
