<svg xmlns="http://www.w3.org/2000/svg" viewBox="0 0 1024 1024" fill="none" role="img" aria-label="Ornamental constellation">
  <title>Ornamental Constellation</title>
  <g id="constellation" stroke="currentColor" stroke-width="7" stroke-linecap="round" stroke-linejoin="round" vector-effect="non-scaling-stroke">
    <!-- Main constellation lines -->
    <path id="line-top-left" d="M323 252 L492 145"/>
    <path id="line-top-right" d="M492 145 L662 252"/>
    <path id="line-right-arc" d="M662 252 C731 315 750 404 719 488"/>
    <path id="line-right-mid" d="M662 252 L604 568"/>
    <path id="line-right-lower" d="M719 488 L604 568 L509 755"/>
    <path id="line-left-lower" d="M319 563 L509 755"/>
    <path id="line-left-arc" d="M323 252 C257 347 259 475 319 563"/>
    <path id="line-center" d="M509 755 L509 528"/>

    <!-- Ornamental curves -->
    <path id="ornament-top" d="M323 252 C366 184 432 157 492 145 C556 134 626 174 662 252"/>
    <path id="ornament-top-curl" d="M492 145 C525 93 588 86 607 122 C625 156 582 174 569 143 C559 119 590 110 600 132"/>
    <path id="ornament-left-outer" d="M323 252 C270 300 254 386 285 459 C301 496 325 521 319 563"/>
    <path id="ornament-left-inner" d="M334 290 C292 354 307 407 362 435 C398 454 405 506 365 543"/>
    <path id="ornament-left-curl" d="M313 525 C265 529 261 589 305 595 C338 599 338 557 309 562"/>
    <path id="ornament-left-leaf" d="M300 349 C319 367 335 363 351 337 C326 338 311 342 300 349Z" fill="none"/>

    <path id="ornament-right-outer" d="M662 252 C738 315 756 441 719 488 C675 545 638 624 509 755"/>
    <path id="ornament-right-inner" d="M642 301 C574 344 544 431 571 490 C585 519 607 543 604 568"/>
    <path id="ornament-right-leaf-1" d="M588 335 C625 339 650 319 669 277 C621 285 596 305 588 335Z" fill="none"/>
    <path id="ornament-right-leaf-2" d="M624 646 C673 619 709 563 717 493 C666 528 635 578 624 646Z" fill="none"/>
    <path id="ornament-right-leaf-3" d="M640 584 C679 554 693 515 697 480 C650 504 628 543 640 584Z" fill="none"/>
    <path id="ornament-bottom-curl" d="M509 755 C548 796 597 805 624 773 C591 779 561 763 533 722"/>
    <path id="ornament-center-curl" d="M505 479 C531 435 581 438 584 482 C586 511 544 517 548 487 C552 464 577 470 570 490"/>
  </g>

  <!-- Star nodes: fill is currentColor so your app can recolor them too -->
  <g id="stars" fill="currentColor">
    <path id="star-top" d="M492 103 L507 135 L540 145 L507 155 L492 187 L477 155 L444 145 L477 135Z"/>
    <path id="star-left-top" d="M323 214 L335 244 L365 252 L335 260 L323 290 L311 260 L281 252 L311 244Z"/>
    <path id="star-right-top" d="M662 214 L674 244 L704 252 L674 260 L662 290 L650 260 L620 252 L650 244Z"/>
    <path id="star-left-bottom" d="M319 528 L330 555 L358 563 L330 571 L319 598 L308 571 L280 563 L308 555Z"/>
    <path id="star-right-mid" d="M719 454 L731 480 L759 488 L731 496 L719 522 L707 496 L679 488 L707 480Z"/>
    <path id="star-right-lower" d="M604 536 L616 561 L642 568 L616 575 L604 600 L592 575 L566 568 L592 561Z"/>
    <path id="star-bottom" d="M509 714 L523 745 L556 755 L523 765 L509 796 L495 765 L462 755 L495 745Z"/>
    <path id="star-center" d="M509 502 L517 521 L537 528 L517 535 L509 554 L501 535 L481 528 L501 521Z"/>
  </g>
</svg>
