<svg xmlns="http://www.w3.org/2000/svg" viewBox="0 0 1024 1024">
  <path d="M465.9,317.66c.71,5.42,2.99,10.93,5.4,16.03l3.85,8.16.49-3.2.91-3.06c1.29,6.63,3.69,12.38,7.53,18.18,3.16-8.5,3.63-19.96,1.1-27.31-2.39-2.13-4.37-3.84-5.64-5.76l.25-1.44c.05-.32.37-.43.65-.46l2.3-.29-.4,1.29,6.3,6.78c3.86,11.78-3.36,28.39-.18,28.65l4.19.35c1.5.13,4.17.5,5.21,1.15s1.41,3.23,1.59,4.94c.35,3.34,3.62,3.97,6.33,3.55l7.43-1.16c-2.69,2.89-8.74,3.13-6.81,5.85,2.28,3.23,7.73,1.46,9.28,8.66.44,2.04,2.7,6.74,5.11,6.63,3.92-.18,9.02-2.69,11.79-5.36l11.27-10.91c5.59-5.41,10.22-11.76,12.8-19.32-1.26-5.06-.46-9.59.86-14.09l3.75.11c.18.33.85.9,1.15,1.13l-1.15.82-.76,2.53c2.31,5.35.35,10.56-3.53,14.15-2.96,6.4-6.96,11.72-11.67,17.29,4.81-.45,7.85,1.57,10.08,5.15l9.83,15.79c.34-3.35.97-7.07,2.02-9.89l.16,22.27c0,.69-.78,2.83-.95,3.3s1.5.33,1.94.1l.88-.73.45,1.01.37,1.33-3.34,2.59-1.23.27-1.89-2c3.14-12.68-3.14-22.15-10.63-32.72-1.34-1.89-4.02-4.36-6.1-4.45-6.73-.29-19.45,19.66-29.59,13.04-3.84-2.5-3.57-10.83-7.65-11.77s-5.64-3.25-6.54-6.92c-1.66-.42-5.73-.96-5.94-2.58l-.87-6.53-10.26-.99-.51.46c.78,5.03,1.1,10.85.14,16.27l-1.43,5.15-.67-5.03-.02-11.24c-.01-5.48-2.96-10.6-5.03-15.38-.61-1.41-2.46-3.81-3.52-4.85l-.07,10.6.6,4.76-1.16,1.73-1.47,4.6-.53-4.32.26-1.92c.21-.23.98-1.1.79-1.51l-.74-1.63-.36-11.67c-.08-2.46-1.96-6.19-5.07-8.29-.52-.35.39-2.3.15-2.95l-2.91-7.84-.81-3.14-1.07-2.22,1.4-1.14,1.9-.63ZM485,357.43s-.02.6.06-1.52l-.06,1.52Z" fill="#c8b180"/>
  <path d="M504.65,454.32l-1.84.8c-6.35-8.99-13.88-18.96-19.38-29.29-2.92-5.49-7.56-8.25-11.5-12.63l-20.76-23.07c-4.53-5.04-8.76-8.45-15.02-11.21l-16.02-7.05-13.62,3.61-11.95,4.77c5.05,2.6,9.7,1.17,15.6,0l8.61-1.71,10.92,5.84-1.91,1.61-8.69-4.53-11.68,1.57c2.83,2.11,6.25,4,9.73,4.54-.05.71-.53,1.76-.02,2.06l2.37,1.4c2.91,1.72,6.75,5.19,10.07,6.29l6.89,2.19-2.94,1.36c-7.56-2.3-15.55-3.85-24.35-3.47,1.27,5.07,6.4,7.05,10.59,7.94l-2.19,3.24-6.62-4.22-3.15-2.77-2.21-2.3,1.04-2.77c3.71-2.38,8.92-2.28,14.88-.93-7.77-8.8-18.94-11.75-30.85-12.22-15.18-.61-28.36,4.27-39.6,14.8l-6.11,6.64-.3-4.27c9.64-11.03,23.62-19.03,38.93-19.77,3.51-.17,5.23-1.03,7.79-2.04l9.78-3.87c5.38-2.13,14.23-6.87,20.01-4.66l18.77,7.17c5.29,2.02,8.33,5.91,11.94,9.95l13.22,14.77c5.07,6,10.7,11.18,16.73,16.27l19.82,31.1,3.07,4.89Z" fill="#c7af7d"/>
  <path d="M470.58,263.57l1.78,1.51-9.01,10.49-.89.82c-.26.24.84.87,1.15,1.06l2.9,1.86c-2.08.11-5.1.74-6.46,2.27-1.22,1.37-1.65,4.79-.54,6.13-.29.42-1.24,1.33-1.4.85l-1.21-3.73c-.97,3.26-1.31,6.69-1.26,10.29l2.34-4.52c.43,3.44.84,5.52,2.11,9.48l2-8.03.64-7.48c1.89-.91,4.46-.39,8.29-.05l-3.28-4.3c2.23-.05,4.47,2.63,6.67,4.64l7.77,7.08,3.83,3.83-2.79,1.96-10.52-10.5c1.19,11.64,4.06,21.64,7.76,31.59-.28.02-.61.14-.65.46l-.25,1.44c-6.71-10.08-8.2-22.32-8.3-35.52-5.41,10.19-6.76,21.56-5.33,32.46l-1.9.63-.1-4.56.19-14.23c-.51.94-1.08,2.63-1.48,4.18l-3.18,10.26c-4.82-6.83-6.71-16.85-5.13-27.28-9.7,11.74-9.98,30.37,3.57,40.7l2.92-10.56c.27.5,1.04,1.87.95,2.56l-.81,6c-.42,3.07.22,4.76,2.58,7.24l-3.8-.89-2.01,12.05c-1.62,9.71,4.91,17.95,13.6,20.97l1.07-4.13.53,4.32,1.47-4.6-.85,9.25c-3.29,12.62,1.28,23.89,12.35,30.95-10.31-2.53-15.84-12.16-15.6-22.1l.31-12.76c-11.98-3.13-18.25-13.83-15.47-25.45l2.57-10.75-8.05-8.64c-11.83-12.7-1.36-34.66,11.89-46.93l.75-6.27.77,1.53c.6.7,1.63,1.22,1.76.82,3.55-3.2,3.96-4.8,4.04-8.15l1.76,1.75ZM460.16,308.62c.38-5.44-1.41-9.26-3.35-13.97-.56,4.77.49,10.19,3.35,13.97Z" fill="#bca477"/>
  <path d="M512.22,490.47l.2,3.78-4.02,1.51-2.91,7.07,5.35,3.77-.7,4.97c-.57,2.11.03,4.27,1.73,6.8.44.66,2.51.81,3.06.28l1.63-1.86,1.03.34.98.62c-3.21,2.44-2.44,9.4-.54,12.12.06.67-1.84,2.21-2.1,1.57l-1.26-2.99-.52-3.13-7.8,8.25c-1.84,1.94-2.29,7.84-2.78,10.81,1.66-2.48,3.21-5.28,6.46-6.7l-7.68,11.35c-.34.51-.91,2.05-1.11,2.75s1.48.48,2.7.8l-5.14,7.02,1.73,3.98c-1.27,1.96-1.26,5.57.41,6.21l1.74,1.13-4.67,2.56-1.03-6.67c-1.13,1.73-2.76-.35-3.15-1.27l1.85-2.07,8.84-41.87c-1.52-2.97-1.1-5.72,1.11-8.2l-1.61-8.16-11.55,19.31c-.73,1.22-1.87,2.87-2.87,3.08-3.16.66-4.72,7.52-4.87,4.39l-.36-2.58c1.16-4.69,3.92-8.87,6.76-13.34l17.49-27.5,2.41-3.11,1.17,4.98Z" fill="#c5a769"/>
  <path d="M354.44,517.58c.67,3.05,1.86,6.35,3.5,9.63l9.2,18.51c6.02,4.41,10.85,9.49,14.78,15.51l32.57,10.28c4.97,1.57,9.86,3.8,12.95,8.13l16.5,23.1c1.81-8.17,3.58-16.72,10.46-19.37l.24,5c-2.98-2.87-8.13,8.42-8.05,13.85l.26,18.06,5.75,25.07-3.31-.22c-2.52-9.35-5.54-19.53-5.49-29.53.03-6.54-1.19-9.75-4.66-14.76l-15.13-21.86-23.96-9.11-18.84-6.05-6.92-8.71-8.71-7.21-13.15-27.22c-.32-.66-.41-2.69-.34-3.36s1.21-1.62,1.89-1.65l.45,1.92Z" fill="#c1a976"/>
  <path d="M556.74,521.44l-1.21,5.05-.11-1.6c0-.51-1.73.22-2.35.3l-14.32,1.92,4.79,3.25-2.08,1.14-2.07-1.75c-.44-.37-1.47.2-2.09.66l-9.38-3.81,6.61,7.97-1.27,1.87c-2.06-2.61-3.79-4.74-7.64-7.43l6.25,36.05,4.95,21.15c2.43-5.14,2.95-8.2,2-11.76l1.1-2.18,1.09,2.18,1.78-3.75c-.24.7,1.39,2.61,1.21,2.54-1.42,4.05-1.56,7.96-.71,12.23l-1.18,1.04-1.33-2.09-3.06,8.7,5.55,19.35-1.24-.06c-.44.02-1.57.49-1.22.77l1.66,1.32-.32,2.12-.72,1.87-2.67-.21c-.18-1.64.11-4.28.62-5.87l.85-2.66c.19-.59-.81-1.38-1.75-1.29l.17-1.18-1.04-3.9-1.51-4.97-2.5,4.32c.1-.54-.74-2.25-1.2-2.4.87-2.09,2.44-6.52,2.03-8.74l-5.94-32.27-3.66,2.41v-9.38s-1.05-15.97-1.05-15.97c-.07-1.15-.08-3.22-.76-3.64l-3.25-1.97c1.42-1.13,6.31-4.03,6.53-6.31.34-3.48-.96-7.52-1.97-11.09l-5.72,4.35-.98-.62,2.72-3.68,5.28-3.59,2.09,9.6c.5,2.31,2.24,5.47,4.66,5.49l11.3.1c3.74.03,9.31-2.47,13.09-3.61Z" fill="#b69f73"/>
  <path d="M615.3,385.66c1.18,4.98,3.97,9.37,7.15,13.86,17.33,24.38,32.02,29.16,42.96,40.98,2.26,2.44,2.16,6.77,6.88,7.12l16.08,26.12-.99,4.41-2.87-5.85-.49,15.28c-.26,8.27-3.84,16.59-8.5,23.16,12.44-30.88,8.11-55.76-21.37-70.94l2.23-1.05,1.6-.31c.57-.11.05-1.97-.52-2.41l-14.33-11.16c-8.86-6.9-15.73-14.64-22.55-23.51-3.81-4.95-6.69-11.03-8.57-16.64l2.46-2.5.81,3.43ZM661.39,439.02l-1.53-.46c-.42-.12-.94,1.41-.53,1.55l1.49.54.57-1.63ZM661.83,441.03l-.06.02c1.56.07,2.17.1.06-.02Z" fill="#b39d74"/>
  <path d="M541.39,618.5l3.64,35.28c4.16,39.87,14.18,78.6,43.63,106.2l-1.31,1.13c-3.1-1.47-5.85-4.3-8.43-7.33-9.38-11-16.94-22.25-22.17-35.87-7.16-18.67-11.74-37.74-13.78-57.83l-2.21-21.72-1.04-10.93-.99-9.13,2.67.21Z" fill="#ae9569"/>
  <path d="M559,587.02l-2.64-1.57-8.18-24.16-4.18,11.95c.17.07-1.45-1.84-1.21-2.54l3.79-11.21c-1.54-5.25-4.16-11.46-7.38-15.54l-5.93-7.52,1.27-1.87c.98,1.19,1.79,2.99,3.56,1.42l9.75,17.81,3.15-7.36c.49,1.76,1.16,4.43,1.87,5.67l10.17,17.8,8.98,14.98c7.31,12.2,14.91,23.93,24.96,33.95l7.52,7.49,11.45,9.83c-11.9-4.5-20.36-14.62-28.28-25.04-9.64-12.69-18.43-25.72-26.01-39.73l-10.41-19.22c-2.31,3.21-1.91,5.64-.57,9.25l8,21.67c.33.89.44,3.52.34,3.9Z" fill="#a8906a"/>
  <path d="M522.3,624.57l3.05-.14c-1.57,3.82-5.25,9.32-4.76,13.82l1.67,15.6-2.17-.3-1.79-11.5-11.09,13.25c-3.37,4.02-10.38,7.65-15.35,3.68l-18.9-15.11c-8.73-6.98-15.28-15.97-22.08-24.69l-3.54-.71.88-12.37c.42-5.85,1.01-13.64,6.94-17.35-2.41,8.37-6.43,17.06-4.54,25.15,10.5,16.39,23.95,28.86,38.99,40.4,2.79,2.14,6.3,4.1,10.12,2.95,4.65-1.4,14.72-14.51,18.17-22.49l4.41-10.19Z" fill="#b69f73"/>
  <path d="M320.66,447.4c.08.3.14,1.38.43,1.49l1.62.58c-14.41,6.78-13.94,27.41-7.95,42.44.37.77,3.39.47,3.52-.33l.66-4.1,1.57,1.72c.57.62,14.13-9.22,23.42-8.56-8.16,3.55-15.28,6.53-22.83,11.67l4.64,3.9-5.73,4.83,1.78,3.28-4.87-2.92-1.63-3.97c-14.55,11.08-25.1,29.24-31.52,45.21l-1.44-2.38c5.45-10.54,9.62-22.93,18.27-31.83l12.5-12.86-4.04-13.38c-.92-3.06-.55-8.16-.54-11.62.02-9.78,3.83-19.11,12.16-23.17ZM319.86,492.79l-3.7,3.7,1.53,1.53,3.7-3.7-1.53-1.53ZM321.35,497l-.65.02.65.02h.67l.65-.02-.65-.02h-.67Z" fill="#bca477"/>
  <path d="M585.51,338.44l-.55,1.59,7.16,5.69,2.37,1.02.75,1.49c6.89,6.48,18.5,10.26,28.16,8.67l.05,2.16c-3.38.56-6.91.39-11.4.05,9.74,6.93,22.59,10.58,34.31,7.75,8.86-2.13,15.89-8.26,17.67-16.83l2.49.44c-1.95,11.13-11.81,18.72-24.03,19.66-20.16,1.55-36.37-14.6-37.37-12.39l-.84,1.86-.83-.11c-1.23-3.49-5.46-5.79-8.91-7.06l-2.05-.91-6.05-6.71c-.56-.62-2.2-1.24-3.26-.98l-3.26-5.76-5.45-5.69,1.1-2.19,9.93,8.28Z" fill="#c4ac7b"/>
  <path d="M718.22,513.51l-1.17-.09c4-12.05,7.17-24.23,4.53-37.18-2.2,14.84-7.19,27.29-13.18,40.32l-10.11,20.94-1.22-1.17,15.04-33.03c8.86-19.47,8.88-38.09,2.05-59.5,10.98,19.44,14.17,50.22,4.05,69.72Z" fill="#a8906a"/>
  <path d="M495.69,577.73l-4.86,11.97c-3.26,8.02-6.23,15-8.43,23.31-2.34-6.68.61-11.4,2.43-18.26-8.2-1.48-11.76,8.25-15.53,17.5-1.8-7.86,2.94-14.89,8.79-19.69l-15-8.95-5.33.83c1.29-.99,2.74-3.2,2.86-5.13,3.77.36,9.13.86,11.51,4.34,4.33,6.31,10.81,8.73,14.26,7.42.91-.34,2.3-2.25,2.59-3.27l3.54-12.16,3.19,2.09Z" fill="#bca477"/>
  <path d="M656.39,438.76l-2.23,1.05-17.73-9.12c-.56.62-1.76,2.08-2.02,1.52-.2-.42-1.17-2.38-1.7-2.76l-15.75-11.24c-17.36-16.47-14.78-40.29-19.49-42.65.73-.53,1.7-1.64,1.59-2.46l-.34-2.46c-.07-.51.27-1.78,1.15-1.96l3.09,13.2c2.48,10.58,4.69,20.88,11.85,29.45,2.15,2.57,5.62,6.55,8.35,8.24l13.72,8.5,19.5,10.7Z" fill="#c4ac7b"/>
  <path d="M565.51,412.76c-4.64,3.3-10.14,5.3-16.26,6.68-11.73,2.65-22.92,9.32-26.97,20.84l-5.63,16.01c-1.68.84-1.67,1.67-1.82.77-.05-.32-.24-1.58-.54-1.58,3.16-18.84,12.73-34.05,32.4-38.57,6.17-1.42,11.66-3.36,16.93-6.15l1.89,2Z" fill="#cfb786"/>
  <path d="M489.61,527.62c-.55,6.86-3.88,11.75-1.08,20.8l5.3,17.11c.39.92,2.02,3,3.15,1.27l1.03,6.67c.19,1.25-1.55,3.26-2.31,4.26l-3.19-2.09c.37-1.26.01-4.51-.54-5.93l-8.09-20.73-1.41-.56c1.02-1.47,1.2-4.77.53-7.14l-1.76-6.25c1.04-1.05,2.62-3.47,3.15-5.6l.36,2.58c.15,3.13,1.71-3.73,4.87-4.39Z" fill="#af8950"/>
  <path d="M665.39,472.54l.04,4.08-1.27-.73c-.24-.18-.55-.19-.64.1-.1.31-.42,1.5-.38,1.35l-3.05,3.88c-1.26,1.6-2.55,3.38-3.83,4.37.42-1.66,1.15-3.18,2.2-5l4-6.93c.42-.73,2.06-1.27,2.93-1.13Z" fill="#b4a07b"/>
  <path d="M570.08,409.91l6.73,2.42c13.28,4.77,23.55,14.49,30.66,26.15l4.22,6.92,3.51,7.4,9.62,19.43,2.43,4.04,8.32,12.06c-.79-.06-2.67-.94-3.21-1.65l-7.45-9.79c-5.17-6.79-7.29-15.63-11.58-23.29l-4.06-7.25-3.84-6.62c-8.2-14.16-28.08-29.53-38.69-27.23l3.34-2.59Z" fill="#b4a07b"/>
  <path d="M656.26,485.6c-.33,1.34-2.06,3.23-3.64,4.06l-8.76,4.62c-.45,1.6-.4,5.24-.13,6.57l-3.17,1.22c-.61.23-.31,1.98-.4,2.69l-4.57-.96,5.52-3.97c.8-.58,1.73-2.82,1.42-3.75-1.02-3.06-3.56-2.77-6.98-7.74,3.11,2,8.82,4.21,12.38,2.06l8.32-4.79Z" fill="#b4a07b"/>
  <path d="M685.09,391.68l1.43,1.22c-13.03,22.34-47.83,13.6-62.19.73l-9.03-7.96-.81-3.43c-.02-.34.04-1.44-.13-1.81l3.47,3.82c10.3,11.56,24.97,18.72,40.33,19.53,11.35.59,20.97-3.17,26.93-12.09Z" fill="#c4ac7b"/>
  <path d="M620.4,603.54l2.88,2.02,9.09,6.06,2.93,1.95,1.37,1.01-2.47,1.09c-8.41-4.41-16.23-9.77-23.68-16.32l-8.53-7.5-8.51-8.5-12.26-12.81c3.47-3.31-7.63-9.7-7.67-9.63l-.99,1.78c-.43-.39-.66-1.7-.58-2.27.2-1.39-.87-3.44-2.12-4.65l-1.48-1.47c-.53-1.67-3.08-3.72-4.91-4.5-.76-3.19-3.84-6.27-6.83-7.51l-2.12-.88-.82-2.06-9.36-7.86,5.32,1.7,3.37,1.41,2.52-8.1,1.21-5.05,2.83-13.51c.08-.36.81-1.74.96-2.02.23-.43.85.46,1.86,1.61l-5.85,25.11c-.67,2.88-1.6,4.63,1.12,6.68,15.74,11.82,33.47,43.64,62.73,64.24Z" fill="#c4ac7b"/>
  <path d="M336.9,434.66c.4,4.29,2.82,11.13,6.11,14.22,3.59,3.37,7.72,5.57,11.42,7.57l-2.62,1.17c-.37.08-1.42.15-1.27.5l.79,1.74c3.43,7.51,5.79,14.86,5.44,22.67l-2.1-.06-.64-5.17c-1.31-10.58-5.55-20.47-14.35-26.77l-5.06-2.28-8.56-1.1-.36,3.41-2.99-1.08-1.62-.58c-.29-.1-.35-1.18-.43-1.49l1.95-.95,3.26-1.02,11.86.72-2.22-6.54-.94-4.05-.37-2.08,2.7,1.18Z" fill="#c4ac7b"/>
  <path d="M555.25,640.52l-2.12.04c-.53.04-.69,1.27-.82,1.89l-10.19-25.82.32-2.12h1.88c1.05,3.23,2.32,6.67,4.15,10.09l-6.37-38.08,1.18-1.04,6.78,34.33,2.94,12.84,2.26,7.88Z" fill="#ae9569"/>
  <path d="M543.24,612.48l.27.9-1.08,1.13-1.66-1.32c-.35-.28.78-.75,1.22-.77l1.24.06Z" fill="#ae9569"/>
  <path d="M484.24,379.72l.39,7.78.07,1.65c.01.29.58.31.6,0l.12-1.55.06-1.01.95-3.97.73-8.06c.82.27,1.32,1.49,1.32,2.08v3.97c-1.15,2.93-1.21,7.02-.26,10.14,1.4,4.65,2.58,11.79,7.7,14.11,10.71,4.86,17.62,9.49,15.04,21.93-1.95-19.77-14.18-14.48-22.35-25.15-5.14-6.7-6.95-13.62-6.11-22.14l1.05-4.83.67,5.03Z" fill="#c1a976"/>
  <path d="M559,587.02c.78.63,1.78,2.41,2.17,3.74,5.61,19.49,12.92,37.7,21.5,55.5l-1.24,2.12c-10.69-19.95-17.81-41.51-25.07-62.92l2.64,1.57Z" fill="#a1865f"/>
  <path d="M636.98,638.47l-2.6-1.98,18.53-13.84c-7.54-2.08-13.01-3.98-18.73-6.98l2.47-1.09,15.34,5.77c.54.2,2.73-1.12,2.54-1.66l-1.16-3.25-5.16-12.61c5.49,4.19,7.64,10.76,8.64,17.29.35,2.31-3.88,5.65-5.6,7.03l-14.28,11.3Z" fill="#c1a976"/>
  <path d="M518.03,529.87c.36.51,1.97,2.35,1.53,1.91-.33-.33-2.31,1.42-2.54,2.01l-7.76,20.11c-4.64,12.01-1.07,13.18-6.59,17.02l-1.74-1.13c3.57-3.11,4.63-7.14,3.06-11.56l-3.46,5.35-1.73-3.98,1.55.13c6.34-4.83,10.22-10.62,11.18-18.37l-7.6,11.21c-1.22-.33-2.91-.1-2.7-.8s.77-2.25,1.11-2.75l1.27,1.49,7.36-11.6c3.51-2.6,4.12-6.33,3.69-10.47l1.26,2.99c.27.64,2.17-.89,2.1-1.57Z" fill="#c2ac84"/>
  <path d="M447.72,551.48l-.3,1.12c2.67,4.46,4.59,9.09,3.33,14.77l4.85-.16.23,2.42-3.28,1.12,8.06,8.56c-.11,1.92-1.56,4.14-2.86,5.13l-3.11,3.91-.24-5,3.3-2.9-11.29-12.94,1.1-1.15c3.9-4.02-1.12-11.84-4.94-12.49l-4.3-.74c-.82-.14-.45-1.57.14-2.62,5.54.12,7.3,2.37,9.3.96Z" fill="#b69763"/>
  <path d="M670.43,506.53l-1.17,12.05c-1.05,10.77-4.2,21.06-7.5,30.75l-2.22-.79c3.78-11.38,5.77-23.19,7.97-34.85l.99-5.25c.07-.39-.01-1.85.36-1.88l1.57-.03Z" fill="#c8b180"/>
  <path d="M541.46,531.5l1.92.09.94-.1,9.36,7.86c-.37.05-1.31.93-.92,1.14l1.74.92,2.12.88c.94,3.15,3.83,6.21,6.83,7.51,1.83.79,4.38,2.84,4.91,4.5l.65,2.04c.08.26.36-.14.83-.57,1.25,1.21,2.33,3.26,2.12,4.65-.5.31-2.09-.77-2.69-1.35l-18-17.32-13.98-11.34c.62-.46,1.65-1.04,2.09-.66l2.07,1.75Z" fill="#ac9a77"/>
  <path d="M555.25,640.52l3.26,8.8,10.13,19.84-.27,1.72c0,.35-1.14.59-1.34.3l-.97-1.42-3.78-4.27-9.98-23.02c.14-.63.29-1.85.82-1.89l2.12-.04Z" fill="#c1a976"/>
  <path d="M344.89,404.8c-7.1,7.71-9,19.22-7.99,29.86l-2.7-1.18c-1.52-11.45,2.57-23.99,10.4-32.95l.3,4.27Z" fill="#b69f73"/>
  <path d="M665.43,476.63c2.74,7.08,3.6,14.64,4.34,22.68l.66,7.22-1.57.03c-.38.03-.29,1.49-.36,1.88l-.99,5.25c.5-12.31-.36-24.52-4.36-36.34-.04.15.28-1.04.38-1.35.09-.29.4-.29.64-.1l1.27.73Z" fill="#a78e66"/>
  <path d="M705,405.82l1.22,11.11-2.37-6.22c-5.56,11-14.3,22.34-27.58,23.75,4.07-2.27,9.35-3.89,12.76-7.01,7.85-7.19,12.26-16.53,15.44-25.85l.51,4.23Z" fill="#b09972"/>
  <path d="M568.65,669.15l14,20-1.37,1.02c-.28-.2-2.04-1.6-2.5-2.21l-10.72-14.33-2.08.9-3.67-9.06,3.78,4.27.97,1.42c.2.29,1.33.06,1.34-.3l.27-1.72Z" fill="#b09972"/>
  <path d="M640.15,416.64c17.04,9.83,27.97,11.51,47.35,6.14-14.85,8.58-34.66,5.71-47.35-6.14Z" fill="#9d8e70"/>
  <path d="M581.42,648.38l1.24-2.12c6.66,13.81,16.13,25.5,25.7,38.37-11.38-10.32-19.89-23.09-26.95-36.25Z" fill="#9d8e70"/>
  <path d="M586.45,344.79c-1.23,9.14,1.01,17.94,7.77,26.17,1.26,1.53,3.28,2.55,4.85,2.14.11.81-.86,1.93-1.59,2.46-6.16-3.09-11.04-9.34-12.14-16.91l-2.15-14.83c1.07-.26,2.7.36,3.26.98Z" fill="#b39d74"/>
  <path d="M515.24,463.52l-1.12,9.06-.84,15.1c-.05.93-.4,3.15-1.06,2.8l-1.17-4.98c-.97-4.12-1.07-10.82.49-14.7,1.19-2.96,1.07-4.96-.67-7.47l1.94-.2,1.24-3.8,1.19,4.2Z" fill="#c8b180"/>
  <path d="M689.46,480.55c4.39,7.99,6.66,25.15,3.56,34.84-.82-12.61-1.08-23.74-4.9-34.73l.47-1.54,1.07.25-.19,1.19Z" fill="#9d8e70"/>
  <path d="M659.22,564.52l1.25-.11c1.77,7.29,3.86,14.26,7.94,20.99,2.25,3.71,4.89,6.72,5.82,11.35-8.27-9.83-14.63-20.28-15.01-32.23Z" fill="#9d8e70"/>
  <path d="M575.58,330.16l-1.1,2.19-2.48,9.02c-4.19.93-8.2-.76-10.74-3.77l1.15-.82c1.46,1.11,4.96,3.01,6.77,2.77,5.37-.7,2.82-13.34-3.62-16.78l.88-2.1c3.39,2.79,6.85,6.27,9.15,9.49Z" fill="#b09972"/>
  <path d="M533.56,602.75c-.66,3.57-3.19,9.49-4.87,13.57l-3.34,8.11-3.05.14,10.05-24.21c.46.15,1.3,1.86,1.2,2.4Z" fill="#a78e66"/>
  <path d="M527.69,585.79l-3.4,11.04c-3.84-4.6-4.21-13.07-.17-15.4,1.12-.65,4.01,2.93,3.57,4.36Z" fill="#b69763"/>
  <path d="M660.47,564.41l-1.25.11-.11-3.52-.11-3.56,2.57-.72c10.41-9.55,15.03-21.82,20.55-34.53-1.42,11.02-6.27,21.52-13.81,29.24l-5.5,5.63c-1.95,2-2.95,4.85-2.34,7.35Z" fill="#ac9a77"/>
  <path d="M612.54,655.21l-1.14,1.16-10.46-9.36c-4.57-5.38-9.23-10.2-11.55-16.83,7.39,9.37,14.11,18.08,23.15,25.02Z" fill="#9d8e70"/>
  <path d="M633.28,642.22l-10.06,12.77c-3.2,3.93-8.61,4.26-11.82,1.38l1.14-1.16c2.89,2.22,7.29,1.02,9.69-1.97l9.34-11.92,1.71.9Z" fill="#b4a07b"/>
  <path d="M501.35,392.7c-6.58-8.71-10.77-18.63-10.61-29.32l10.61,29.32Z" fill="#b4a07b"/>
  <path d="M502.55,690.15c.51-1.35,1.88-3.12,3.18-4.63,5.34-8.44,7.3-17.81,9.48-27.24.24,9.85-4.53,26.54-12.65,31.87Z" fill="#9c825d"/>
  <path d="M695.6,576.36l-1.7,1.36c-2.73-6.72-2.89-13.89-3.1-21.67l2.73-.61c-.64,7.13-.66,14.58,2.07,20.92Z" fill="#9d8e70"/>
  <path d="M520.06,526.11c-1.81-.05-2.7-4.28-1.31-6.94.73-1.4,4.21-.44,5.1,1.46.76,1.65-.58,4.56-3.79,5.48Z" fill="#d3b169"/>
  <path d="M569.7,408.58l-.45-1.01,11.57-14.04,1.04.87-7.8,10.87c-.89,1.24-3.16,2.98-4.36,3.3Z" fill="#b4a07b"/>
  <path d="M581.21,570.54l-8.66-7.85.99-1.78c.04-.06,11.14,6.32,7.67,9.63Z" fill="#b69763"/>
  <path d="M510.87,463.32c1.74,2.51,1.86,4.51.67,7.47-.09-3.31-1.99-6.12-4.13-9.15l-4.6-6.52,1.84-.8,6.22,8.99Z" fill="#b69f73"/>
  <path d="M478.52,348.07c-.5-.06-1.77,2.03-1.89,2.85l-1.11,7.66-.6-4.76.07-10.6c1.06,1.04,2.91,3.43,3.52,4.85Z" fill="#bca477"/>
  <path d="M488.51,376.65c0-.59-.5-1.82-1.32-2.08l.56-12.92,1.66.02.18,11.12c.02.94-.49,3.66-1.08,3.87Z" fill="#cfb786"/>
  <path d="M663.94,470.75l1.43-.16.02,1.95c-.87-.14-2.5.4-2.93,1.13l-3.43-6.92,1.62-1.31,3.29,5.31Z" fill="#a78e66"/>
  <path d="M431.78,353.76l4.82,7.14c-3.85-1.93-6.57-4.98-8.28-8.13l3.45.99Z" fill="#9d8e70"/>
  <path d="M516.65,456.29l-1.41,7.23-1.19-4.2-1.24,3.8,1.48-7.64c.31,0,.49,1.26.54,1.58.15.9.14.06,1.82-.77Z" fill="#b69f73"/>
  <path d="M440.92,366.64l-3.38-4.17c1.59.8,3.15,1.93,4.05,2.78l.63,1.66c1.66.22,1.13.41-.04.52-.68-.4-1.15-.65-1.26-.79Z" fill="#9d8e70"/>
  <path d="M539.33,612.42l-.91-3.94c.94-.09,1.94.7,1.75,1.29l-.85,2.66Z" fill="#ae9569"/>
  <path d="M666.44,468.5c-.07.56-.78,1.61-1.07,2.09l-1.43.16.31-2.34,2.19.09Z" fill="#b4a07b"/>
  <path d="M325.87,445.43l-3.26,1.02c.75-.36,2.44-1.07,3.26-1.02Z" fill="#bca477"/>
  <path d="M688.58,479.11l-.47,1.54-.75-.63c-.26-.19-.04-1.46.27-1.36l.95.46Z" fill="#b39d74"/>
  <path d="M682.2,591.45c-.17-.03-.85-.78-.84-1.15.31,0,.89.77.84,1.15Z" fill="#b69f73"/>
  <path d="M476.55,335.6l-.91,3.06c-1.27-6.32-.84-10.44-4.51-18.36-3.42-7.39-4.49-15.22-3.12-22.6,1.15,6.2.65,13.6,3.53,18.87l13.18,24.18c-4.04-3.15-5.63-6.51-8.99-11.36l.82,6.2Z" fill="#ac9a77"/>
  <path d="M482.33,319.82l.4-1.29c2.29-7.32,12.83-10.33,22.94-8.36l-9.87,1.92c-7.42,1.44-8.08,7.28-13.47,7.73Z" fill="#cfb786"/>
  <path d="M464,318.29l-1.4,1.14-.86-.06c.09-.69-.67-2.06-.95-2.56l-.3-1.08.75-1.2c.21-.35-.46-.62-.99-.81l-.81.22,3.18-10.26c.4-1.55.97-3.24,1.48-4.18l-.19,14.23.1,4.56Z" fill="#af8950"/>
  <path d="M561.26,335.66l-3.75-.11-.65-2.71c.48.15,1.09.34,1.42.08l1.4-1.13,1.59,3.87Z" fill="#b09972"/>
  <path d="M406.58,396.52l-1.04,2.77-2.29.49c-.59.13-1.12,2.17-1.06,2.91.26,3.49,2.57,6.11,4.18,8.9l4.09,7.13c1.2-5.57-4.12-8.68-2.7-17.13l3.15,2.77-1.05,1.5c2.87,3.76,5.13,6.51,9.92,6.89-.51-1.52-1.4-3.63-2.24-4.17l2.19-3.24,8.41,1.79c3.06.65,5.73,3.28,7.61,5.23l-3.02-.15c-4.02-2.23-7.85-3.55-13.65-4.61,1.87,2.98,4.19,5.08,6.59,7.05-4.77,2.35-2.03,6.52-4.98,11.85l-18.14-1.02-6.91.59-1.02,2.69c-.64-1.07-1.1-3.74-.4-3.9l6.52-.99,8.25-1.62-4.89-9.15c-2.19-4.09-5.05-7.38-4.35-12.75.17-1.32-1.7-3.79-2.97-3.77l-12.27.15,4.11-1.13,5.17-.74c6.13-.87,9.02,2.39,12.8,1.66ZM420.92,422.55l-7.8-7.69-1.55,7.99c2.9.91,5.24,1.24,9.34-.29Z" fill="#c1a976"/>
  <path d="M433.49,400.87l2.94-1.36-3.09-7.56-12.39-2.09c-.38-.06-2.15.98-1.48,1.18l-2.37-1.4c-.51-.3-.02-1.35.02-2.06l14.73,2.27c-1.51-1.76-2.95-3.27-4.08-3.86l1.91-1.61c4.97,2.66,8.01,7.81,9.04,14.26l7.91,3.82c-4.45.43-8.87-.29-13.14-1.59Z" fill="#b69f73"/>
  <path d="M614.67,276.91c-4.18,16.55-16.42,31.07-33.59,36.31-2.35.72-6.71,1.02-8.78.84l-3.18-.28c-.58-.05-.78,1.19-.91,1.76l-.41,1.84-1.38,3.28-.88,2.1c-1,3.5-3.1,6.79-5.87,9.01l-1.4,1.13c-.32.26-.94.08-1.42-.08-2.01-.65-4.54-1.09-7.39-1.35-5.96-.54-11.05-5.4-16.3-7.15-8.31-2.77-13.23-8.63-20.19-13.12-6.01-3.87-16.38-2.53-22.36-7.65l.8-1.37c.27-.48-.78-2.19-1.25-1.89l-2.08,1.32c-1.42-.45-3.42-2.45-4.87-3.91l2.79-1.96-3.83-3.83,1.28-.32,1.09.08.99.07c2.68,6.77,15.84,13.13,24.19,14.6,8.13,1.43,17.22-.32,24.38-3.97l14.61-7.46-8.26.42c-2.15-.06-3.85.08-6.76.79l-.96-1.68-.1-.96,1.39.02c.28,0,1.46.06,1.33-.19l-.89-1.74,2.12-.96,16.01,1.68c4.34.46,9.99-1.21,14.42-.29,10.87,2.26,21.01-.35,30.3-5.57l1.23,1.74c-5.24,3.45-11.13,5.7-17.99,6.83-12.19,2-20.75-3.33-30.13,2.19l4.23,1.49-.29,1.1c-4.64-.54-9.47,1.57-14.56,3.42l-17.38,6.29c-1.02.37-2.14,1.97-2.3,2.94-.18,1.11,1.13,3.3,2.24,4.86l2.08-4.04c1.3,2.08,2.89,4.18,4.71,4.36,1.46.15,3.9-.92,5.42-1.82,1.86.96,4.41,4.55,6.5,4.85l-.67,1.05-4.41-.97-.56.71c3.9,4.78,11.7,8.33,18.25,7.6,1.8-1.33,3.43-2.1,6.46-1.75l5.77-14.52,1.53-4.02,2.3,3.41c1.67,2.49,17.67-2.48,27.36-10.97,7.57-6.63,12.57-15.49,16.06-24.63l1.54.31ZM533.75,320.07l1.22.12-1.22-.12Z" fill="#c4ac7b"/>
  <path d="M516.55,516.79l-1.63,1.86c-.55.53-2.61.38-3.06-.28-1.7-2.53-2.3-4.69-1.73-6.8l6.42,5.22Z" fill="#b69f73"/>
  <path d="M329.66,449.37c19.58,9.35,26.55,48.99,8.77,61.86,6.65,1.59,10.55-3.64,12.96-9.09l2.65-4.69.32,2.8c.07.64,1.59.96,2.76,1l.31,3.36c.44,4.77,2.13,10.43,4.12,15.08l-1.84,1.83c-1.45-2.3-2.35-4.1-5.26-3.93l-.45-1.92,2.68-.12c.57.59,1.01.76.92.35-.21-.99-.63-2.98-1.12-2.35l-.85-5.02-.96-3.03-.08-1.03-.54-.98c-.22-.25-1.37.22-1.38.56l-.12,1.46c-2.97,6.64-9.79,11.03-17.54,8.35l-3.36.76-.77-1.21c-.25-.39-1.11-1.14-1.48-.87l-1.43,1.04-1.47-.19,1.51-2.75,1-1.88,11.68-9.34c2.5-2.12,4.87-4.23,5.03-7.93.68-15.47-4.6-34.83-18.05-41,.46-.29,1.47-.99,2.02-1.12ZM335.57,510.23c5.41-1.66,7.3-6.28,7.73-10.28-4.24,3.3-6.64,6.25-7.73,10.28Z" fill="#c4ac7b"/>
  <path d="M614.36,380.42c.16.37.11,1.47.13,1.81l-2.46,2.5-6.23-18.61-2.35-6.64.83.11,6.56,12.74,3.52,8.1Z" fill="#b69f73"/>
  <path d="M398.7,642.17l14.05,3.96c10.23,2.88,20.16,5.71,29.82,10.16l12.73,8.06-.84,2.16c-17.75-12.84-38.62-18.57-60.82-19.47l-8.22-.33c23.16,7.48,41.2,13.72,57.33,31.28l-1.51,1.45c-18.9-20.9-44.75-27.66-71.55-34.29l-6.12-1.81,12.06.3,14.97.99,10.3.66-5.24-2.08-.1-1.63.35.04,2.79.53Z" fill="#b4a07b"/>
  <path d="M595.23,348.23l-.75-1.49-2.37-1.02-7.16-5.69.55-1.59,5.89,4.15c12.86,9.06,26.64,11.23,42.82,7.01-10.03,5.57-22.55,5.68-33.1.49l-5.89-1.87Z" fill="#ac9a77"/>
  <path d="M594.55,352.41l5.33,16.27c-.88.18-1.22,1.45-1.15,1.96l-6.23-19.14,2.05.91Z" fill="#a78e66"/>
  <path d="M638,353.72c-4.57,2.64-9.37,4.45-14.57,5.33l-.05-2.16c4.79-.79,10.44-2.26,13.85-5.37l.77,2.21Z" fill="#b09972"/>
  <path d="M483.87,548.99c-6.38,9.94-16.72,18.06-28.06,20.65l-.23-2.42c10.96-3.33,19.49-10.05,26.88-18.79l1.41.56Z" fill="#c1a976"/>
  <path d="M624.76,305.69c-.69,11.12-13.58,26.57-27.83,25.27,8.22,5.53,17.56,7.88,26.57,6.36l.44.63-3.09,2.04c3.42.94,7.39,2.69,10.44,2.49l9.94-.67,3.14.45c-9.93,5.41-30.87-.66-43.09-6.43l-22.79-10.76,1.87-1.5,4.41,1.73c10.09,6.38,22.46,3.86,29.95-5.36,5.18-4.65,7.54-11.53,8.44-18.25l1.6,4.01Z" fill="#c7af7d"/>
  <path d="M648.85,343.52c-3.15,4.03-6.22,7.52-10.85,10.2l-.77-2.21,7.83-7.14c.31-.29,1.32-1.32,1.3-1.29s-1.37-.9-1.1-1.17l3.59,1.62Z" fill="#c2ac84"/>
  <path d="M623.28,605.57l-2.88-2.02,1.73-3.25c2.94-11.14,6.01-21.74,12.24-30.62l-11.09,35.9Z" fill="#ae956e"/>
  <path d="M357.43,504.6l-.31-3.36c-1.17-.04-2.69-.36-2.76-1l-.32-2.8.29-6.17.34-8.81,2.1.06-.81,17.91c6.71-9.96,5.26-25.34-1.12-36.99l-3.04-5.82,2.62-1.17c4.83,2.61,11.1,5.33,11.23,12.47-2.81-3.57-4.97-6.6-8.3-7.58l-.68.76c2.89,6.02,4.79,12.45,5.8,19.83.93,6.75-2.45,13.08-3.6,20.22,8.13-6.48,10.5-15.91,9.36-25.08,3.07.95,3.7,10.19,1.42,14.18-3.26,5.71-6.79,10.39-12.23,13.36ZM356.17,461.04l-.09-1.22.09,1.22Z" fill="#b39d74"/>
  <path d="M334.62,448.24l-4.96,1.13c-.55.13-1.56.82-2.02,1.12l-1.94.06.36-3.41,8.56,1.1Z" fill="#bca477"/>
  <path d="M438.42,550.52c-.59,1.06-.96,2.48-.14,2.62l4.3.74,4.94,12.49-1.1,1.15c-4.2-4.82-2.62-15.9-16.38-14.71l4.91,6.49c-6.99-2.55-8.91-10.73-21.74-11.47l-13.26-.76c-12.07-.7-16.71-10.63-27.65-10.52l2.26,3.92-1.01,2.45-4.22-6.2-9.62-15.22,1.84-1.83c1.92,4.47,6.44,11.2,11.1,13.37l19.39,9.02c11.03,5.13,24.08-.93,35.9,8.25l10.48.22Z" fill="#c1a976"/>
  <path d="M467.3,537.29c-4.39,7.11-12.17,12.12-19.89,15.32l.3-1.12,9.81-6.91,9.77-7.28Z" fill="#b4a07b"/>
  <path d="M471.54,533.65c-.76,1.26-2.9,2.65-4.23,3.64l2.26-3.79h.98s1,.15,1,.15Z" fill="#b4a07b"/>
  <path d="M643.75,500.84l2.24.38c1.88.32-2.91,4.83.3,6.04l-2.96.29-.94.13-2.2-2.93c.09-.71-.21-2.47.4-2.69l3.17-1.22Z" fill="#e0be72"/>
  <path d="M642.38,507.68l.94-.13.61,9.04,2.31,28.8c.38,4.69-.07,9.44-3.35,13.42-3-4.47-2.96-9.82-2.69-15.27l.54-10.98.71-14.99.93-9.9ZM643.62,541.96l-.52-7.53-.82.53.33,18.34c3.69-3.59,1.26-7.63,1.01-11.34Z" fill="#b4a07b"/>
  <path d="M506.32,321.71c-.37,1.1-2.32,4.18-3.53,5.12l-9.2,5.11c.93-2.74,2.21-4.45,1.74-5.46l-2.79-5.94,4.99,5.42,8.8-4.25Z" fill="#bba47c"/>
  <path d="M490.6,303.58l-2.53-1.94,2.08-1.32c.46-.29,1.52,1.42,1.25,1.89l-.8,1.37Z" fill="#bca477"/>
  <path d="M460.48,315.73l-.58-1.13c-.09-.18.02-.45.34-.88.54.18,1.2.45.99.81l-.75,1.2Z" fill="#bca477"/>
  <path d="M393.78,394.86l-5.17.74-4.11,1.13c-15.26.19-29.79,13.27-32.79,28.41-1.37,6.92.76,12.98,5.79,16.55,2.13,1.51,5.93.92,6.8-1.28,3.65-9.23,11.06-13.61,19.18-17.12l3.29,1.02-4.87,2.53c-6.52,3.12-12.12,7.75-15.32,13.93.92.67,2.62,2.05,2.11,2.23l-2.64.97c-4.18,1.53-8.1,1.38-11.24-1.53-10.4-9.65-6.65-23.96,2.5-34.1,9.7-10.75,22.99-15.89,36.46-13.49Z" fill="#c4ac7b"/>
  <path d="M481.49,475.45c-1.37,1.49-2.98,3.57-3,5.1-2.7-9.67-6-19.76-12.13-28,.69-1.11,1.04-4.14.43-5.3l-9.22-17.75,1.81-3.09c1.82.17,4.84,1.67,6.42,2.81l-5.56-.44,9.7,19.41,11.56,27.26Z" fill="#b69763"/>
  <path d="M439.77,513.49l-.2-8.71c-.01-.49-1.08-2.54-1.48-2.22l-2.3,1.83.73-3.59c-3.14-.33-5.35-.53-8.27-1.57l7.03-.99c.47-.38,1.39-1.57,1.15-2.03l-1.89-3.54,4.1,3.16,1.98-8.91,1.3,8.86,4.64-2.44-1.92,3.08c-.48.77,1.8,1.99,2.74,2.09l5.47.61-8.25,1.95.9,3.29-3.89-2.27-.27,10.41-1.58.99Z" fill="#c7af7d"/>
  <path d="M418.26,447.99c-3.61,5.17-7.04,3.54-11.87,2.66.09,2.02,2.93,3.04,5.1,3.42.09,2.82-3.32,2.59-5.46,1.27s-2.09-6.58-.17-6.75l3.45-.3c.49-.04-.64-2.28-.36-2.69,1.18-1.72,5.1-3.55,7.79-4.16,2.05-4.42,6.02-8.63,11.98-6.37l-6.22,1.98,2.34.75c.36.12,1.04.85.76,1.09l-2.06,1.75-3.66,3.9c-.85.91-3.68-.03-5.25.09l-3,.23c-.55.04-.72,1.55-.61,1.91l7.23,1.21Z" fill="#b4a07b"/>
  <path d="M435.74,412.36l4.86,5.06-3.02,1.02-1.01.12-.58-1.02c-.3-.42-1.61.8-1.43,1.12.27,4.47,1.19,11.09,6.04,12.64v2.62s-14.17-3.29-14.17-3.29l.67-1.12,7.61,1.21c-1.87-6.7-2.4-12.1-1.99-18.5l3.02.15Z" fill="#ae9569"/>
  <path d="M422.66,455.69c-3.46,7.67-22.45,23.91-33.39,25.84,6.08-4.4,12.68-7.32,17.92-12.45l15.12-14.84c.42.57.45,1.24.36,1.45Z" fill="#c2ac84"/>
  <path d="M466.79,447.24c.6,1.16.26,4.2-.43,5.3-6.31-8.48-15.47-16.23-25.77-18.62v-2.62c6.7,2.13,12.95,4.85,18.56,9.7l7.65,6.24Z" fill="#c1a976"/>
  <path d="M484.72,482.41l-1.38,1.13-2.35-4.28.58,15.38-.62,8.48h-2.7s.25-22.59.25-22.59c.02-1.52,1.63-3.61,3-5.1l3.23,6.97Z" fill="#c2ac84"/>
  <path d="M400.72,423.88l-6.52.99c-.7.16-.24,2.83.4,3.9-2.45,7.86-9.26,15.99-18.51,18.91l11.33-10.23c3.87-3.5,6.46-8.1,4.68-13.59l-5.33.46-3.29-1.02c8.77-3.79,9.57.64,17.25.58Z" fill="#b09972"/>
  <path d="M381.47,462.54c4.47-4.91,10.12-8.03,14.78-12.35l14.64-13.57c-7.33,10.98-16.92,20.47-29.42,25.92Z" fill="#bba47c"/>
  <path d="M377.33,388.81c-13.42,4.42-24.05,13.69-31.74,25.45,4.99-13.61,17.3-23.53,31.74-25.45Z" fill="#b4a07b"/>
  <path d="M480.94,503.13l-4.21,23.41.49,3.12-4.76,1.58-.79.26c1.79-2.74,3.44-6.28,3.95-9.9l2.61-18.46h2.7Z" fill="#9c825d"/>
  <path d="M400.18,458.53c-.5,3.26-.69,6.06-1.86,6.7l-4.03,2.22c-.84-5.52-1.57-8.48,3.74-11.31l2.15,2.39Z" fill="#bca477"/>
  <path d="M380.89,470.2c-.2,2.18-.94,5.78-2.08,6.82-1.31,1.2-4.42,2.2-6.38,2.44l2.77-7.43c.3-.8,1.37-2.42,2.17-2.45s2.99.39,3.52.62Z" fill="#ac9a77"/>
  <path d="M382.59,475.28l1.45-2.75c.28-.53-.39-1.33-1.21-2.62.98-1.95,3.8-4.98,5.88-6.54,2.91,6.28-1.62,10.54-6.12,11.91Z" fill="#b4a07b"/>
  <path d="M422.66,455.69c.1-.21.07-.88-.36-1.45l7.48-10.32,3.59-5.33c-1.66,6.56-5.93,12.41-10.71,17.11Z" fill="#9d8e70"/>
  <path d="M459.38,426.4l-1.81,3.09c-7.99-1.37-15.36-4.39-19.98-11.04l3.02-1.02c5.45,5.68,11.28,8.27,18.78,8.98Z" fill="#c7af7d"/>
  <path d="M532.73,294.47l.96,1.68c2.91-.71,4.61-.85,6.76-.79-13.5,7.24-29.4,8.77-43.97,2.31l-3.34-2.13,2.13-.1c.5.06,1.09-1.45,1.31-2.09,11.79,4.07,24.17,4.49,36.16,1.11Z" fill="#c2ac84"/>
  <path d="M522.4,309.52l12.15,6.31c-1.52.9-3.96,1.97-5.42,1.82-1.82-.18-3.4-2.28-4.71-4.36l-2.08,4.04c-1.11-1.56-2.41-3.75-2.24-4.86.16-.97,1.28-2.58,2.3-2.94Z" fill="#b69763"/>
  <path d="M566.48,306.41l-1.16.29c-2.37-3.85-6.14-6.33-10.98-6.89l.29-1.1c4.23.14,10.84,3.51,11.84,7.7Z" fill="#9d8e70"/>
  <path d="M565.33,306.7l1.16-.29c.16.69.61,1.9.93,2.38l-1.53,4.02c-4.74-1.64-8.79-3.26-13.79.45l4.4,6.22c.35.5,2.64-.15,2.69-.76.06-.81.03-2.61-.15-3.42l-.49-2.15c-.13-.6,2.1-.25,2.24.34l1.49,6.02-8.17,3.01c-4.74,1.75-9.6,1.38-13.73-.78l.67-1.05,6.78,1c1.83.27,5.13-.62,6.53-1.54-2.94-3.36-4.15-4.55-6.49-6.26l2.3-7.82,6.61.93c2.08.29,4.89,2.15,8.17,4.1l.38-4.39Z" fill="#ac9a77"/>
  <path d="M454.14,699.18l-2.24,3.09c-.85-8.43-4.86-16.41-10.66-22.81l1.51-1.45c5.45,5.93,8.56,13.63,11.38,21.17Z" fill="#a1865f"/>
  <path d="M331.62,514.61c-8.03,18.3-12.57,47.17-1.61,62.72l-1.32,1.24-3.96-8.68-1.18-.3,3.37,11.76-1.66,1.26c-8.51-23.08-4.89-47.38,5.59-69.2l.77,1.21Z" fill="#b39d74"/>
  <path d="M377.56,634.56l-2.06,1.03c-23.78-12.06-40.88-27.64-50.23-52.99l1.66-1.26c4.95,12.63,12.4,24.63,22.62,34.04,6.84,6.3,21.38,16.59,28.01,19.18Z" fill="#bba47c"/>
  <path d="M328.7,578.57l1.32-1.24,8.62,12.23.64.62,5.01,2.78c3.19,1.77,8.34,3.38,11.52,1.87,1.16-.55,2.62-3.84,2-4.85l-3.3-5.37c2.97-.3,5.74,3.67,5.64,6.37-.14,3.76-3.44,6.79-7.68,6.52-5.17-.33-10.33-3.26-13.84-6.45l-.79-.72c-2.96-2.68-7.35-7.83-9.15-11.78Z" fill="#9d8e70"/>
  <path d="M356.67,515.53l-.2-2c.49-.63.91,1.36,1.12,2.35.09.41-.36.24-.92-.35Z" fill="#c1a976"/>
  <path d="M354.57,504.46l-2.04,1.04.12-1.46c0-.33,1.16-.81,1.38-.56l.54.98Z" fill="#b39d74"/>
  <path d="M373.54,542.93l1.01-2.45,2.03.52c.57.15.48,1.25.7,2.51,3.58,6.41,16.11,6.44,21.71,15.6l-17.45-8.62c-3.57-1.76-6.04-4.7-8-7.57Z" fill="#c2ac84"/>
  <path d="M328.98,508.76l-1,1.88-4.55-1.67c.26-1.05.57-2.4.61-2.39.04,0,.84.27,1.54.51,3.52-3.41,6.59-7.31,11.11-9.65l-8.47,9.26c-.35.38.67,2.14.76,2.07Z" fill="#ac9a77"/>
  <path d="M679.55,392.72c-15.92,11.21-45.18,3.93-57.15-12.28,18.34,13.66,34.57,21.09,57.15,12.28Z" fill="#ac9a77"/>
  <path d="M317.34,485.07c-4.41-9.81-4.53-26.21,5.35-31.26l-2.86,4.7c-4.8,7.87-3.1,15.89-2.49,26.56Z" fill="#ae956e"/>
  <path d="M327.94,513.58c-6.12,9.19-8.84,19.27-12.52,30.63-.05-11.51,5.93-21.47,11.05-30.82l1.47.19Z" fill="#ac9a77"/>
  <path d="M436.57,418.57l-2.01.09c-.18-.32,1.12-1.53,1.43-1.12l.58,1.02Z" fill="#c7af7d"/>
</svg>
