<svg xmlns="http://www.w3.org/2000/svg" viewBox="0 0 1024 1024">
  <path d="M248.11,814.71l-1.96,1.39-6.13-5.13-28.73-29.24c-23.61-26.01-43.27-54.02-59.67-85.24-19.05-36.54-32.38-75.29-40-115.8l.32-2.76c.05-.44,1.02-.36,2.13-.28,13.46,75.51,47.66,145.29,99.19,202.11l31.32,31.63,3.52,3.33Z" fill="#9b7f59"/>
  <path d="M614.59,246c-1.24,1.5-2.43,5.05-2.79,7.35l13.35-12.03.49,1.76c-1.26.45-3.29,2.54-4.63,4.25l17.4-1.8c.44-.05,2.18.13,2.14-.26l-.3-1.61,3.13,3.44c8.64,1.62,18.37,3.4,24.04,10.36l-.98,1.52c-4.32-3.71-9.35-7.71-15.7-7.88,7.04,6.21,11.55,12.66,12.68,20.6l1.02,3.01.72,6.42-4.21,2.25-2.43,8.05c-.03.44,3.17,1,3.3.31l.64-3.48-.85-.98c-.41.11.65-.18.96-.26l.5.21,1.46.47-.14,1.03-.16,1.92c-2.37,7.93-10.04,11.86-17.84,13.23l-5.27.72c-.02-.56-.49-1.59-.69-1.94,11.93-1.54,19.36-14.55,17.59-25.81-1.05-6.65-5.58-13.41-10.71-16.91l.54-1.8,3.89,1.93.81-1.02c.19-.66.57-1.84.11-2.28l-2.19-2.14c-2.39-2.33-4.32-3.99-6.93-5.06l-1.86-1.34c-.52-.37-2.36,1.33-2.04,1.9l2.83,5.14c.81-.36-.8.36-1.18.56l-4.89-1.13.66-1.09c.22-.33-.71-1.1-1.06-.9l-1.8,1.03c-7.55-.65-16.71-3.07-22.03,1.67l9.29,3.01c-.77.47-1.96,1.23-1.88,1.88l.44,3.79-4.38-2.69-2.48-3.28c-.56-.74-3.58-.51-4.26-.37l-3.51,5.51-1.21-.18.14-2.4.06-1.98.02-2.36-5.05-3.83c-1.04-.79-.06-3.79,1.33-5.19l.87,5.51c1,.06,3.08.01,3.64.56l2.87,2.78c1.38-3.77-.81-5.06-2.86-10.41l1.59-1.58,2.26.19c.56.05.61-1.61.67-2.9l1.18.11,3.67,4.37ZM652.34,261.02l.97-1.08s-1.03,1.15-.97,1.08ZM660.27,294.16c-1.66-.29-3.01-.49-2.9-.07s.41,1.61.38,1.5l2.52-1.43Z" fill="#b69763"/>
  <path d="M229.93,762.97c-1.59,2.68-3.17.65-4.74-1.16-16.97-19.53-31.66-39.84-44.42-62.53-28.58-50.82-45.87-106.55-50.12-164.73l-.82-15.45c2.54.95,3.01,1.37,2.91,1.84l.95,16.59c3.59,39.53,12.41,77.77,27.41,114.51,16.61,40.71,38.83,77.67,68.82,110.93Z" fill="#9b7f59"/>
  <path d="M424.48,241.6l.14,2.21c.02.27.02.69-.1.88l-.95,1.05.04,1.04-1.04.96.04,1.04-1.04.96.04,1.04-.92.99-.17.98-.89,1.96c-.07.23,0,.95,0,1.18-2.44.83-3.99,5.43-3.4,7.78l.3,2.05c-.43-.51-2.5,1.78-2.57,2.65l-.77,9.24.51,3.08-1.38.53-3.06-2.1c-.53-2.8-1.47-6.25-3.55-8.13-2.99,17.6.14,34.63,5.58,50.8,2.1-.24,2.84-2.37,2.47-4.14-2.29-10.8-2.67-21.17-1.89-31.75.59,14.53,1.57,29.68,6.81,44.12l5.86,11.74,7.24,11.99-3.45-.99c-17.07-18.08-26.52-47.26-24.8-73.05l.87-13,1.18-4.05c1.31-9.73,5.08-19.36,9.65-27.98l3.69-.72c1.7-.32,1.73,6.4,5.57,7.64Z" fill="#af8950"/>
  <path d="M571.37,827.14l1.52,1.38c-7.77,11.18-21.15,17.29-35.58,13.54,7.66,6.02,17.37,6.56,26.68,3.48,12.74-4.22,21.51-16.12,23.17-29.2s-4.5-26.79-15.15-32.68l-2.48.64-.09-1.08-1.07-.99c-4.43-4.3-10.07-7.05-16.77-8.3-16.27-3.03-31.81,3.06-43.96,13.64l-2.04-3.32c6.88-3.71,13.99-8.34,21.78-10.88,16.78-5.47,33.25-1.37,46.97,8.02l-3.5-6.81c7.29,5.21,9.96,12.37,13.99,19.36,6.98,12.11,6.67,27.11-.92,39.01-6.86,10.77-19.63,18.37-33.12,16.94-10.92-1.15-20.11-6.8-23.88-17.21-2.03-5.6.46-14.34,5.63-16.13,2.17-.75,5.82-.25,6.98,1.04-4.11.69-7.6,1.65-9.53,4.65-1.74,2.7-1.63,6.52-.28,9.55,3.07,6.89,9.52,8.66,16.87,8.6,9.85-.08,19.5-5.14,24.76-13.27Z" fill="#bca477"/>
  <path d="M325.93,732.14c-.52.53-.62.67-.79.62l-1.37-.38c-6.77-11.53-23.66-11.89-34.49-4.44s-16.75,20.08-15.22,32.76c1.63,13.51,9.24,23.25,20.8,29.49s25.58,7.33,38.99,4.38c4.52-.99,6.77-2.1,8.77-6.51l.76,2.78,7.24-.15-8.16,3.49c-4.37,7.54-3.44,16.93.3,24.91,9.59,20.47,39.85,27.99,62.09,21.89l19.97-5.48c-6.91,4.13-17.23,8.4-23.43,9.07-15.7,1.7-31.59.68-45.44-7.72s-23.11-25.88-17.19-41.52l-10,2.08c-24.62,5.11-53.01-9.76-56.71-34.01-2.12-13.88,2.75-27.07,13.17-35.48,12.63-10.19,34.55-9.56,40.72,4.21Z" fill="#b39d74"/>
  <path d="M289.75,644.06l7.26,8.96c21.18,21.61,46.4,20.64,65.03,30.93,1,.55,2.61,1.15,3.62,1.44,16.1,11.88,28.03,25.15,25.81,46.92-1.43,14.04-9.3,24.93-20.23,34.67l29.08-7.12.96,1.16-.24,1.77-13.37,4.37c-.42.18-1.48,1.29-1.53.87l-.27-2.27-8.07,2.5c-13.4,1.91-27.89,10.91-34.43,22.61l-.76-2.78c3.2-7.03,9.78-12.04,16.86-15.97,13.79-7.66,27.41-22.75,29.14-38.68,1.37-12.58-1.3-24.44-9.64-33.36-8.21-8.78-17.35-15.65-28.96-19.1l-22.35-6.64c-10.89-3.24-19.73-9.33-28.72-16.25-4.73-3.64-8.23-9.02-11.45-13.75l2.25-.28Z" fill="#bca477"/>
  <path d="M246.15,816.1l1.96-1.39,4.81,3.52c51.97,44.24,114.16,74.75,181.16,88.14.56.36,1.62.99,1.41,1.23l-1.29,1.54c-69.93-13.75-134.76-45.68-188.06-93.04Z" fill="#a78e66"/>
  <path d="M729.31,506.17l-5.41,7.99c-10.77,12.99-18.78,28.17-20.57,45.16-1.58,15.04,4.99,29.76,17.82,37.1,5.08,2.91,11.34,3.37,16.63,1.26,4.43-1.76,9.11-5.85,10.17-11.82.51-2.87-1.88-6.75-3.57-9.61,7.25,2.68,7.69,11.47,3.01,17.6-3.74,4.9-10.49,8.11-17.32,8.4-16.29.69-30.35-10.19-36.18-24.53l1.7-1.36c4.08,9.51,10.64,17.28,20.17,21.15l.67-.8-4.37-4.19c-8.37-8.03-12.48-20.37-11.71-32.08.67-10.14,4.57-18.47,7.99-28.19l-9.16,10.34-.1-2.23-2.2,1.65c-.34.26-1.18-.23-1.81-.61l1.99-5.1,1.22,1.17.26,1.98,7.38-8.51c4.74-5.47,8.88-10.83,11.11-17.54l1.17.09.31,2.82,8.31-10.84,2.47.68ZM716.84,597.31l-.56.8,3.18-.03-2.62-.77Z" fill="#b69f73"/>
  <path d="M724.18,856.66l.14-3.46c17.93-11.47,35.49-23.77,51.42-38.43l12.66-11.64c23.53-21.64,43.4-46.63,61.26-73.28,1.69-2.53,2.65-6.21,6.8-5.15-33.48,52.84-79.03,99.3-132.28,131.95Z" fill="#b69f73"/>
  <path d="M670.91,333.05l-.14,1.57c.01.55,1.01.98,1.57.99l2.01.05,12.16,10c6.13,4.89,9.22,12.64,13.47,19.36,6.28,9.69,8.05,21.43,7.12,32.48l-.34,1.26c-.06.24.23.42.68.76l-2.43,6.29-.51-4.23-.35-16.06c-.12-5.4-2.42-11.37-4.59-16.17.15,14.25-4.23,27.66-15.15,36.19-5.74,4.48-12.36,7.62-19.26,6.59,8.48-1.93,15.44-4.68,20.83-10.85,12.51-14.32,15.07-36.53,2.14-48.78l-.56.93,4.2,14.82c2,7.04-1.25,17.82-5.24,24.65l-1.43-1.22,3.06-8.26c2.77-7.49,1.67-15.74.01-23.59-1.04-4.93-4.12-8.95-6.71-13.18-5.66-9.23-10.53-8.02-12.56-12.39l-.74-1.79,2.77.57ZM686.82,352.4v-1.43s0,1.43,0,1.43Z" fill="#bba47c"/>
  <path d="M748.47,695.55l.83-1.17,2.99-1.76,2.33.09c-3.08,4.33-6.57,8.15-11.12,11.86l-12.69,10.36c-3.68,3.01-9.26,5.12-13.47,6.54l.19-2.22c4.15-1.47,8.27-3.08,12.16-5.52l-12.35,1.7c-9.33,1.28-21.67-3.78-27.2-11.93.6-.72,1.23-2.58,1.14-3.37l.94,1.13,1.12,1.13c8.09,12.24,28.43,13.49,40.43,5.43,7.43-4.99,9.86-13.96,9.66-22.47-.39-16.54-11.35-29.03-25.74-36.44l-6.48-3.34c.12-.2,2-.25,1.82-.59l-.8-1.53c5.76,2.76,12.02,5.55,17.14,9.72,8.98,7.32,14.74,17.02,16.64,28.39,1.03,6.14-.69,11.29-1.7,17.96l4.17-3.97Z" fill="#b09972"/>
  <path d="M397.67,873.01l-.56,2.64c-47.24-15.04-90.61-39.26-128.38-71.27l-9.14-9.01c2.1-.03,3.57.54,5.15,1.92,38.96,34.11,83.61,59.62,132.93,75.71Z" fill="#a78e66"/>
  <path d="M410.57,761.13l-5.43,7.78c-5.11,7.33-8.21,16.89-6.02,25.97l4.67,9.1-1.18.2c-2.32.39,1.69,7.12,4.47,9.75,16.47,15.58,41.69,19.09,62.06,8.9,12.36-6.18,21.15-16,29.05-27.12l-1.08-.72,6.36-2.83-11.58,15.46c-2.41,3.22-5.28,5.95-8.43,8.53-21.31,17.52-43.27,19.03-68.03,7.53l-4.32.55-.53-.58,3.16-1.3c-15.84-9.96-22.62-29.17-14.9-46.04l5.32-11.62-1.45-4.02,7.84.46Z" fill="#bba47c"/>
  <path d="M724.18,856.66c-41.53,25.47-88.46,45.82-137.7,51.84,40.02-10.74,77.66-20.76,113.07-41.08l24.77-14.21-.14,3.46Z" fill="#a8906a"/>
  <path d="M459.39,662.42c2.32,5.82,5.77,9.94,10.09,14.88,8.68,9.93,14.44,22.73,14.05,35.95s-6.35,22.98-12.57,33.31c-5.44,9.03-8.08,19.62-4.24,29.58,3.32,8.6,12.77,13.39,21.84,12.11l13.85-2.28c.3.37,1.37,1.54.95,1.69s-1.79.6-2.15.85l-10.63,1.63c-8.3,1.48-17.03-.89-22.69-7.32-4.49-5.1-6.09-12.72-5.26-19.61,2.42-20.25,19.57-30.95,18.41-52.21-.75-13.77-5.91-26.05-16.09-35.13l-10.49-9.36.84-2.16,2.01.79c.38.15,1.02-.27.94-.66l-.42-2.02,1.56-.05Z" fill="#b09972"/>
  <path d="M699.19,542.6c-3.05,3.45-5.25,8.3-5.65,12.84l-2.73.61c-4.31,7.08-7.77,15.35-9.31,24.49l-.13,9.75c0,.37.67,1.12.84,1.15l-.05,1.57-.93.21-.89.13-1.14.12,1.2,10.06c2.36,19.8,14.97,31.81,31.83,39.91l.8,1.53c.18.35-1.7.39-1.82.59-19.02-7-32.29-23.38-34.45-45.01-1.57-15.75,4.05-32.57,11.69-46.79l6.64-12.36c.63.38,1.46.87,1.81.61l2.2-1.65.1,2.23Z" fill="#c1a976"/>
  <path d="M298.46,270.86l.27.86.05,1.09-2.14,1.83.13,1.15-3.22,4.71.16,1.28-.93,1.93-.09,1.02c-4.69,2.71-3.9,17.08,1.04,20.91-.02.05-.31,1.03-.19,1.25l3.24,4.71-.13,1.15,2.14,1.91,3.95,5.18c-.89.12-2.46.16-2.58.92l-.48,2.89-1.14,3.34c-3.63-2.26-7.99-6.62-9.93-9.91-.05-.54.07-2.16-.43-2.24h-1.46s.32-1.26.32-1.26c1.09-3.99.28-7.82-.64-12.44-1.01-5.09-.78-11.68-.12-16.89l.22-9.74c1.68-2.83,3.68-5.57,5.83-7.9,1.86,2.16,4.26,4.22,6.15,4.24Z" fill="#e0be72"/>
  <path d="M867.13,648.36l-12.22,27.83c-15.84,32.68-35.6,62.98-60.37,89.77-.64-5.24,3.48-7.66,6.32-11.06,26.94-32.22,47.74-67.88,63.31-106.89l2.95.36Z" fill="#ae956e"/>
  <path d="M867.13,648.36l-2.95-.36c14.3-35.83,23.4-72.91,26.1-111.49l1.18-16.89c-.36-.14,2.78.95,2.74,1.52l-.9,13.34c-2.66,39.5-11.91,77.54-26.18,113.87Z" fill="#9c825d"/>
  <path d="M633.49,220.54l-.4,2.59c2.72,5.1,4.73,10.2,1.99,16.18l4.61,1.3c.65.18,1.47-1.34,1.75-1.88l1.66-1.17c-.55,2.94-.27,6.43.29,9.55l-3.13-3.44c-3.58-2.96-10.58-2.01-14.62-.58l-.49-1.76c1.59-1.44,4.39-2.15,7.21-3.09,4.73-1.57.99-15.11-7.89-17.78l-1.29,2.71.93.58c3.58,1.87,4.93,8.28.84,11.46.22-3.71-.04-8.37-1.37-10.67l-.52-.89-2.16-2.6-3.63,6.83c-2.27,4.27-2.94,8.43-3.35,13.58-.75,1.48-.39,2.74.97,1.2l1.56-10.01c3.55,4.86,1.3,9.52-1.88,13.37l-3.67-4.37-1.18-.11c-.06,1.29-.12,2.95-.67,2.9l-2.26-.19c-1.44-2.43-1.91-7.07-.01-8.3.92-.59,2.17,2.49,2.42,1.36l.33-1.46,1.72-1.84c.44-.47-.51-1.81-.6-2.44-.76-4.87,3.38-12.88,7.95-14.43,2.93-.99,7.28.11,9.84,1.23l5.04,2.19Z" fill="#bba47c"/>
  <path d="M437.73,222.48l-7.92,10.7c-.57.75-1.35,2.69-1.27,3.57l.11,1.12-4.17,3.74c-3.84-1.24-3.87-7.96-5.57-7.64l-3.69.72c5.05-9.53,11.01-18.84,19.08-26.01,2.05,2.62,2.45,5.91,1.23,9.33l2.2,4.47Z" fill="#caa45c"/>
  <path d="M255.51,635.87c-9.07,8.98-6.38,26.02,3.49,35.18,9.81,9.11,22.29,13.03,35.29,14.87l13.27,1.88c11.16,1.58,35.78,10.95,41.1,21.82l-10.07-7.2c-11.51-8.23-25.31-12.01-39.26-13.63-18.61-2.15-36.82-7.39-47.08-22.97-7.04-10.68-6.29-24.66,2.46-31.8l.79,1.85Z" fill="#ae956e"/>
  <path d="M687.82,850.24l.62-3.6c27.01-13.94,51.97-32.14,74.55-52.47.61.27,1.81,2.08,1.39,2.48l-1.41,1.37c-22.94,20.8-48.08,37.64-75.16,52.21Z" fill="#b69f73"/>
  <path d="M283.76,542.64c-12.45,33.21-14.09,71.13,5.99,101.42l-2.25.28c-8.36-12.29-13.63-26.56-15.01-41.92-.71-7.86-1.38-15.24.04-22.95l4.66-25.28c.37-2.01.4-4.79,1.34-6.6l3.79-7.33,1.44,2.38Z" fill="#b09972"/>
  <path d="M729.31,506.17l-2.47-.68c12.75-21.56,11.35-47.05-5.13-66.41l-21.5-21.22c2.5-1.03,4.31,3.66,5.24,2.5l1.22-1.51c7.49,11.35,18.33,16.99,25.79,31.56,9.28,18.09,7.89,39.45-3.16,55.76Z" fill="#ae9569"/>
  <path d="M412.33,281.23l.41,3.86-.87.81c-.78,10.58-.4,20.95,1.89,31.75.38,1.78-.36,3.9-2.47,4.14-5.44-16.17-8.57-33.2-5.58-50.8,2.09,1.88,3.02,5.33,3.55,8.13l3.06,2.1Z" fill="#a47e44"/>
  <path d="M301.51,752.54l.88-2.32c2.41,6.46,7.94,10.7,14.91,12.53,10.59,2.78,20.8-.71,29.01-7.87,13.5-11.78,13.13-29.86,2.48-44.59,6.79,4.26,10.02,12.65,10.41,20.45.8,15.9-11.32,30.38-26.37,34.44-9.98,2.69-19.89.83-26.95-6.07-2.07-2.02-3.32-4.59-4.38-6.58Z" fill="#ae956e"/>
  <path d="M707.43,399.52c-.45-.34-.74-.52-.68-.76l.34-1.26c10.56-8.85,11.25-27.05,2.51-39.32-8.46-11.88-21.51-18.94-35.26-22.52l-2.01-.05,3.08-1.71c14.06,2.68,26.8,10.17,35.85,21.71,10.68,13.62,9.63,34.23-3.83,43.91Z" fill="#b09972"/>
  <path d="M658.33,320.97l3.13,5.75c1.39,2.42,4,5.2,6.67,5.75l.74,1.79-3.64,1.03c1.44,5.77,2.14,10.29,1.28,15.17l-2.49-.44c1.25-6-.94-17.13-6.04-21.37-1.85,5.92-5.29,9.95-9.14,14.86l-3.59-1.62-.89.35-3.14-.45c5.96-2.43,8.18-8.13,9.41-13.95l3.05-4.54,2.54,3.84.88-6.14,1.22-.05Z" fill="#bca477"/>
  <path d="M674.78,746.26l-14.02-32.3-14.7-26.31c-3.54-6.33-6.43-13.04-6.58-20.39l6.53,14.39,16.08,28.95c5.17,11.37,12.03,21.89,12.68,35.66Z" fill="#b69f73"/>
  <path d="M537.41,215.55l1.84,2.35c-14.95,2.74-29.79,7.72-40.88,18.66l-12.58,12.41-3.18-3.34c6.78-2.22,19.02-23.81,48.8-29.07l3.12-.55,2.89-.46Z" fill="#cfb786"/>
  <path d="M302.72,319.86l8.84,5.15c4.97,2.89,12.66,4,17.96,3.5l3.16,1.53-4.69,2.55c-9.74,3.27-20.72-.15-29.48-5.59l1.14-3.34.48-2.89c.13-.76,1.69-.79,2.58-.92Z" fill="#af8950"/>
  <path d="M740.28,632.4l-.88,2.21-9.46-5.35-.62.63-.52,1.54c-.28.82-6.08-5.11-12.5-7.9-14.96-6.49-30.95-15.2-35.08-30.31l.93-.21c6.51,13.57,18.1,21.19,32.85,26.68,9.14,3.4,17.53,7.44,25.27,12.7ZM728.79,628.9l-1.24-.07,1.24.07Z" fill="#b69f73"/>
  <path d="M612.43,716.28l27.59,19.41,9.31,8.49c5.23,6.11,10.52,11.8,13.09,18.77l-2.18,1.37c-3.97-7.36-8.74-14.86-15.26-20.64l-7.37-6.54-24.36-17.57-.94-.34c-.78-.21-1.77-1.46-1.81-2.27l-.1-1.79c.33.16.66.21.87.31l1.15.81Z" fill="#ae9569"/>
  <path d="M754.63,692.71l-2.33-.09.96-1.22.87-1.28c6.85-12.95,7.97-29.65-1.44-42.27-3.74-5.02-8.18-10.35-13.28-13.24l.88-2.21c21.79,14.8,29.42,39.12,14.35,60.31Z" fill="#a78e66"/>
  <path d="M563.79,769.04c-21.1-14.78-47.99-17.44-70.82-3.22-3.28,2.04-7.66,3.48-12.26,5.09,9.12-7,20.42-13.72,32.83-15.26l23.87-.5c9.34,2.96,19.71,4.38,26.38,13.89Z" fill="#ac9a77"/>
  <path d="M636.98,638.47l1.25,5.85-.32,18.85-1.96,9.88c-1.84,9.31-1.8,17.75-.83,27.51-2.36-5.08-3.51-11.32-2.76-17.27l3.26-25.99c1.23-9.8.06-17.09-1.31-15.94l-1.03.87-1.71-.9-7.27-1.87,10.08-2.96,2.6,1.98Z" fill="#a8906a"/>
  <path d="M335.88,257.61l-.38,2.24-1.82-.22-2.98-.89-1.01-.04c-2.27-1.13-5.77-1.01-8.11-.11-4.96,1.9-10.73,2.76-14.76,6.19-2.54-.06-4.22-2.56-5.21-5.51,10.74-6.39,22.76-6.63,34.28-1.67Z" fill="#af8950"/>
  <path d="M610.66,231.56c.1.63,1.04,1.97.6,2.44l-1.72,1.84-10.13-14.05c-2.53-3.38-5.72-6.23-9.1-8.84l-10.12-7.85c.93-.41,2.41-.83,2.59-1.49l.9-3.22c10.57,8.02,18.81,19.33,25.87,31.04l1.11.13Z" fill="#9b7f59"/>
  <path d="M660.24,764.32l2.18-1.37c11.3,18.41,11.49,43.59-2,61.44,4-10.73,8.64-20.68,7.84-32.22-.69-9.92-3.55-19.55-8.03-27.85Z" fill="#a78e66"/>
  <path d="M605.21,245.81c2.06,5.34,4.25,6.64,2.86,10.41l-2.87-2.78c-.56-.55-2.64-.5-3.64-.56l-.87-5.51c-1.38,1.39-2.36,4.4-1.33,5.19l5.05,3.83c-2.16.2-7.55-1.86-8.07-4.29l-2.25-10.52,7.44,3.03-8.27-9.69,1.22-2.42c4.49,3.32,8.7,8.05,10.72,13.31Z" fill="#c1a976"/>
  <path d="M287.01,313.6c-7.45-11.9-7.66-27.09-.54-39.07l-.22,9.74c-.66,5.2-.89,11.8.12,16.89.92,4.63,1.72,8.45.64,12.44Z" fill="#d3b169"/>
  <path d="M582.37,223.54l-2.19,2.62c-10.1-6.65-30.21-10.23-40.94-8.26l-1.84-2.35c15.27-2.41,31.59-.04,44.97,7.99Z" fill="#c1a976"/>
  <path d="M482.6,245.62l3.18,3.34-8.62,10.96-.88,2.3c-.22.57-1.67.43-2.7.33l9.2-13.85c-3.98.3-8.32,3.33-9.43,6.58l-2.77,8.29-1.76-1.75.5-4.13-3.49,6.07-2.81,5.39-.77-1.53c1.16-9.73,11.12-18.97,20.36-21.99Z" fill="#c7af7d"/>
  <path d="M565.96,674.54l2.08-.9,13.58,28.45c4.83,9.43,11.46,16.73,18.25,25.26-3.54-1.06-6.65-4.01-8.56-6.91l-10.7-16.25-14.65-29.65Z" fill="#9d8e70"/>
  <path d="M626.15,792.01l-.33,1.34-4.97-4.74-8.76-7.97-21.47-15.69c-1.01-.74-2.66-2.99-3.27-3.84l1.31-1.13,17.54,13.48,15.76,12.31,2.85.37c-.11,2.45.22,4.45,1.34,5.86Z" fill="#b09972"/>
  <path d="M519.74,726.33l-1.19-2.05c-.19-.72-.15-2.24-.02-2.98l.91-3.04,2.18-16.96,1.3-11.87.69-7.15.94-3.93.74,9.76-.98,14.3-4.56,23.92Z" fill="#bca477"/>
  <path d="M625.82,793.35l.33-1.34c10.51,13.27,13.1,32.53,2.42,46.42,5.28-13.38,6.31-30.92-1.86-41.65-.55-.72-1.03-2.6-.89-3.43Z" fill="#9c825d"/>
  <path d="M782.15,783.03c1.64,3.02,1.84,6.58.72,9.25-1.07,2.53-5.06,5.14-8.14,4.65-3.74-.6-6.67-3.93-7.27-6.5-1-4.27.99-8.03,4.18-9.44,3.39-1.5,8.73-1.23,10.5,2.04ZM774.62,782.55c-4.89,1.33-6.18,4.61-4.98,7.78s4,4.54,7.03,4.05c3.56-.58,5.18-3.73,4.69-7.58-.29-2.22-3.96-5-6.74-4.25Z" fill="#b4a07b"/>
  <path d="M630.65,749.44c6.08,4.06,11.9,7.17,15.73,13.06l-16.6-11.7c-10.45-7.37-23.04-12.24-30.13-23.02l30.99,21.67Z" fill="#9d8e70"/>
  <path d="M255.49,794.06c-3.12,3.53-11.54,3.16-14.06-2.13-1.24-2.59-.43-6.19,1.33-8.81,2.66-3.95,7.96-3.76,11.49-.98,3.19,2.51,4.52,8.22,1.25,11.92ZM243.19,790.13c1.1,3.5,5.16,4.74,7.92,3.98,2.47-.68,3.84-3.4,3.87-6.42.02-2.15-2.54-5.03-5.34-5.24-3.68-.27-7.66,3.83-6.45,7.68Z" fill="#a78e66"/>
  <path d="M610.41,715.16l.1,1.79-11.12-7.64-15.8-15.27c-.82-.8-1.98-3.03-2.32-3.87l1.37-1.02,7.68,8.34,20.09,17.66Z" fill="#c1a976"/>
  <path d="M717.34,721.47c-5.47,3.32-10.28,8.46-8.9,15.63.78,4.02,3.2,8.08,6.19,9.5,3.87,1.83,7.23,1.28,11.81.9-4.53,3-10.71,2.55-14.96-.81-3.84-3.04-5.66-8.05-5.36-13.46.4-7.06,5.27-11.8,11.41-13.96l-.19,2.22Z" fill="#a8906a"/>
  <path d="M664.24,290.68l.16-1.92c5.46-3.44,8.03-7.17,8.19-13.97.14-6.45-1.5-11.81-6.15-15.8l.98-1.52c6.39,3.41,8.64,10.91,7.92,18.59-.61,5.9-4.68,12.51-11.1,14.61Z" fill="#bca477"/>
  <path d="M572.01,783.66c8.48,14.04,10.11,31.58.88,44.86l-1.52-1.38c8.88-13.72,7.1-29.43-1.84-42.85l2.48-.64Z" fill="#9d8e70"/>
  <path d="M507.65,787.57l-4.18,4.6-6.36,2.83-9.34,6.36-1.89-3.17c4.86-2.07,11.49-7.02,15.33-9.67.36-.25,1.73-.7,2.15-.85s-.65-1.32-.95-1.69l3.19-1.72,2.04,3.32Z" fill="#a78e66"/>
  <path d="M301.61,259.27c.99,2.95,2.67,5.44,5.21,5.51l-7.06,6-1.31.08c-1.89-.02-4.29-2.08-6.15-4.24,2.84-3.09,5.94-5.35,9.31-7.35Z" fill="#c5a769"/>
  <path d="M319.58,731.14c.02.59-1.56.96-2.27,1.04-4.7.52-13.74,3.38-14.3,10.31l-.62,7.73-.88,2.32c-2.54-4.79-2.43-9.75.72-14.75,3.88-6.16,10.76-8.61,17.34-6.65Z" fill="#b69f73"/>
  <path d="M652.47,314.41l-2.97,6.31-3.72-7.62c-.68-1.39-2.98-3.15-4.46-3.33l-.09-2.09-.11-3.05,5.27-.72c-1.65,2.71,3.76,4.19,6.07,10.5Z" fill="#ac9a77"/>
  <path d="M641.33,309.77l1.53,5.28c1.84,6.35,2.43,12.47-1.34,17.75.76-5.89,1.74-11.22-.18-17.08-2.09,11.13-7.01,20.34-17.4,22.22l-.44-.63c11.14-4.47,16.89-15.9,15.8-27.61l1.04-1.13.99,1.19Z" fill="#ac9a77"/>
  <path d="M402.72,760.67l1.45,4.02-5.14,5.01-7.3,6.93c-2.67,2.54-3.63,8.07-4.67,11.55-2.61-1.09.87-11.26,3.35-13.93l10.64-11.46.24-1.77,1.44-.34Z" fill="#9d8e70"/>
  <path d="M367.57,799.64c.15,3.78,1.91,7.53,4,10.6,6.14,8.99,15.57,11.6,26.32,14.52-15.29.39-30.64-9.85-32.1-25.91l1.79.78Z" fill="#9d8e70"/>
  <path d="M327.99,332.59l4.69-2.55-3.16-1.53c8.71-.81,15.21-5.29,22.42-10.86-4.18,7.88-15.38,14.44-23.95,14.94Z" fill="#bca477"/>
  <path d="M657.35,318.77l-.24,2.25-.88,6.14-2.54-3.84-3.05,4.54c-.14-2.01-.35-5.51-1.14-7.13l2.97-6.31,4.88,4.35Z" fill="#af8950"/>
  <path d="M367.57,799.64l-1.79-.78c-.62-6.84,1.43-14.5,6.14-19.23l9.78-9.82.83.9-11.33,11.79c.46,5.03-4.17,3.35-3.63,17.15Z" fill="#ac9a77"/>
  <path d="M249.5,381.35l-.15,2.16c-.03.38-1.05,1.32-1.11.95l-.48-2.85-.65-3.82c-.18-1.03-3.09-1.34-4.33-1.51,3.27-2.13,4.74-3.58,5.75-7.71l1.69,5.18,6.51,2.55-5.44.41c-1.31.1-1.69,3.15-1.79,4.64Z" fill="#cfb786"/>
  <path d="M736.83,293.38l-2.41-6.86-4.18-1.34c4.18-.52,6.06-3.95,6.44-8.45.42,3.86,2.17,6.41,5.71,8.62-3.46,1.03-5.76,2.04-5.56,8.04Z" fill="#cfb786"/>
  <path d="M643.1,237.56l-1.66,1.17c.21-3.83-.7-9.31-3.68-12.05l-4.67-3.54.4-2.59c6.84,2.97,11.02,9.41,9.61,17.01Z" fill="#a78e66"/>
  <path d="M257.27,577.61c-3.13.31-6.3-1.01-7.11-3.01s-.24-5.82,1.5-7.45c1.84-1.72,5.77-2.26,7.4.68-2.61-.23-5.31-.28-6.47,1-1.62,1.79-1.04,6.36,2.09,7.1,2.76.65,8-1.94,9.83-4.56l9.06-13.03c-1.13,6.03-5.57,10.49-9.82,15.06-1.68,1.8-3.3,3.88-6.48,4.19Z" fill="#9d8e70"/>
  <path d="M323.76,732.38l1.37.38c.17.05.28-.09.79-.62.95,2.12,1.83,4.96,1.82,7.58,0,1.94-2.82,5.2-4.5,5.75l1.72-6.62c.4-1.55-2.07-4.45-3.56-5.01l-4.1-1.65c.71-.08,2.29-.44,2.27-1.04l4.19,1.24Z" fill="#a78e66"/>
  <path d="M234.92,611.06l-1.83-.33c-.5-.09-1.35,1.02-1.59,1.43l-5.04-4.46,4.1-4.69,6.21,4.93-1.85,3.13Z" fill="#e9cc7e"/>
  <path d="M519.74,726.33c-1.66,8.69-4.64,17.14-9.12,25.1l7.93-27.15,1.19,2.05Z" fill="#9d8e70"/>
  <path d="M255.51,635.87l-.79-1.85c2.75-2.24,6.86-4.99,10.74-2.36.82.55,2.15,2.31,2.44,3.2.23.71-1.38,2.24-1.71,2.36-.41-2.18-2.15-4.42-3.72-4.02-4.27,1.09-5.27,5.47-6.04,4.15l-.93-1.48Z" fill="#9c825d"/>
  <path d="M690.1,689.48l1.19,10.65c.09.79-.54,2.65-1.14,3.37-3.36-4.95-3.8-10.87-1.14-16.14l1.09,2.12Z" fill="#a1865f"/>
  <path d="M658.33,320.97l-1.22.05.24-2.25,5.76,1.46c3.02.84,7.14.02,10.19-1.37,5.26-2.39,7.85-6.17,7.07-12.32l2.13,2.13c-.82,8.42-7.71,14.16-16.16,13.2l-8.02-.9Z" fill="#b4a07b"/>
  <path d="M292.68,284.75c-1.61,6.98-1.24,14.12,1.04,20.91-4.93-3.83-5.73-18.2-1.04-20.91Z" fill="#e9cc7e"/>
  <path d="M279.31,519.51c4.02-.17,6.25-1.5,10.3-2.91-2.63,3.49-6.91,4.37-12.29,3.94-1.91-.16-3.77-3.4-3.61-5.49.17-2.3,2.51-4.41,4.88-4.6l-3.07,4.65c-.73,1.11,2.29,4.47,3.79,4.41Z" fill="#9d8e70"/>
  <path d="M690.1,689.48l-1.09-2.12c2.54-5.03,7.51-9.82,13.33-7.54-1.94.38-5.46.91-6.38,2.08l-5.86,7.58Z" fill="#ac9a77"/>
  <path d="M335.51,259.85l.38-2.24c3.8,1.64,7.8,3.25,10.91,7.34l-11.29-5.09Z" fill="#b39d74"/>
  <path d="M416.53,265.73l-3.34,11.89.77-9.24c.07-.87,2.15-3.16,2.57-2.65Z" fill="#bca477"/>
  <path d="M419.64,255.89l-3.4,7.78c-.59-2.36.96-6.95,3.4-7.78Z" fill="#bca477"/>
  <path d="M488.24,390.76c-.94-3.12-.89-7.21.27-10.14l-.27,10.14Z" fill="#cfb786"/>
  <path d="M329.69,258.7l-8.11-.11c2.34-.9,5.84-1.02,8.11.11Z" fill="#b39d74"/>
  <path d="M439.53,222.77l-10.99,13.97c-.09-.88.7-2.82,1.27-3.57l7.92-10.7,1.8.29Z" fill="#c8b180"/>
  <path d="M675.41,333.9l-3.08,1.71c-.55-.01-1.55-.45-1.57-.99l.14-1.57,4.5.86Z" fill="#bca477"/>
  <path d="M335.52,439.6l-.94-4.05.94,4.05Z" fill="#b69f73"/>
  <path d="M404.39,266.72l1.18-4.05-1.18,4.05Z" fill="#a47e44"/>
  <path d="M485.5,386.59l.95-3.97-.95,3.97Z" fill="#cfb786"/>
  <path d="M538.6,607.3l-1.04-3.9,1.04,3.9Z" fill="#ae9569"/>
  <path d="M288.58,317.09l-1.89-2.23h1.46c.5.07.38,1.7.43,2.23Z" fill="#d3b169"/>
  <path d="M518.52,721.31l.91-3.04-.91,3.04Z" fill="#9d8e70"/>
  <path d="M333.69,259.63l-2.98-.89,2.98.89Z" fill="#b39d74"/>
  <path d="M534.52,216l-3.12.55,3.12-.55Z" fill="#c1a976"/>
  <path d="M296.76,311.62l-3.24-4.71,3.24,4.71Z" fill="#e9cc7e"/>
  <path d="M293.54,280.51l3.22-4.71-3.22,4.71Z" fill="#e9cc7e"/>
  <path d="M484.63,387.5l.8.1-.12,1.55c-.02.3-.59.28-.6,0l-.07-1.65Z" fill="#cfb786"/>
  <path d="M292.76,283.72l.93-1.93-.93,1.93Z" fill="#e9cc7e"/>
  <path d="M419.63,254.71l.89-1.96-.89,1.96Z" fill="#bca477"/>
  <path d="M569.45,783.22l-1.07-.99,1.07.99Z" fill="#9d8e70"/>
  <path d="M422.57,247.74l1.04-.96-1.04.96Z" fill="#bca477"/>
  <path d="M421.57,249.74l1.04-.96-1.04.96Z" fill="#bca477"/>
  <path d="M420.69,251.77l.92-.99-.92.99Z" fill="#bca477"/>
  <path d="M613.25,719.56l-.94-.34.94.34Z" fill="#c1a976"/>
  <path d="M612.43,716.28l-1.15-.81,1.15.81Z" fill="#c1a976"/>
  <path d="M693.34,702.4l-1.12-1.13,1.12,1.13Z" fill="#a1865f"/>
  <polygon points="298.73 271.72 298.46 270.86 299.76 270.78 298.73 271.72" fill="#e9cc7e"/>
  <path d="M296.64,274.65l2.14-1.83-2.14,1.83Z" fill="#e9cc7e"/>
  <path d="M689.46,480.55l.19-1.19-.19,1.19Z" fill="#b39d74"/>
  <path d="M298.77,314.68l-2.14-1.91,2.14,1.91Z" fill="#e9cc7e"/>
  <path d="M423.57,245.74l.95-1.05-.95,1.05Z" fill="#c8b180"/>
  <path d="M464.48,324.79l-.81-3.14.81,3.14Z" fill="#bca477"/>
  <path d="M472.62,358.67l.05-3.14.74,1.63c.19.41-.58,1.28-.79,1.51Z" fill="#bca477"/>
  <path d="M488.66,289.47c-.19.24-1.92.31-1.77.66l.47,1.78-1.84-.14-.99-.07.03-1.48c.01-.44-1.4-.2-1.86-.19s.78,1.49.74,1.59l-1.28.32-7.77-7.08c-2.2-2.01-4.44-4.69-6.67-4.64l-1.22-.91-2.9-1.86c-.3-.19-1.41-.82-1.15-1.06l.89-.82,2.39.86c3.45.54,6.84,2.15,9.78,4.28,3.32,1.47,6.59,3.24,9.34,5.56l3.8,3.21Z" fill="#c2ac84"/>
  <path d="M459.5,287.72c.63-.92,2.2-2.65,3.21-3.14l-.64,7.48-2,8.03c-1.27-3.97-1.68-6.05-2.11-9.48l-2.34,4.52c-.06-3.6.29-7.03,1.26-10.29l1.21,3.73c.16.48,1.11-.43,1.4-.85Z" fill="#a47e44"/>
  <path d="M634.44,271.76l-.74,1.89c-.97-1.13-3.2-2.88-4.63-3.49l-7.94-3.42,1.26,11.11h-3.19s-2.93-7.27-2.93-7.27l-1.6,6.33-1.54-.31c1.78-4.67,2.27-10.27,2.52-15.16l4.38,2.69-.44-3.79c-.08-.66,1.11-1.41,1.88-1.88,3.46,1.12,7.65,2.69,9.55,6.48l3.42,6.82Z" fill="#bba47c"/>
  <path d="M598.53,288.2l-1.23-1.74c3.03-1.7,6.33-5.47,8.87-8.01l-1.72-2.28c-.96-1.27,3.13.23,5.47-2.86.58-.77-.92-2-2.35-2.58-3.58-1.47-5.35-4.94-3.38-7.6l1.21.18,3.51-5.51,4.56,6.34c-1.16,10.18-6.89,18.77-14.95,24.07ZM604.91,265.74l-.5.5.5.5.5-.5-.5-.5Z" fill="#b4a07b"/>
  <path d="M647.32,259.98l-6.03-4.11c.38-.2,1.99-.92,1.18-.56l-2.83-5.14c-.31-.57,1.52-2.27,2.04-1.9l1.86,1.34c2.61,1.07,4.54,2.73,6.93,5.06l2.19,2.14c.45.44.08,1.61-.11,2.28l.75.86s-1.03,1.15-.97,1.08l-.6-.92-3.89-1.93-.54,1.8Z" fill="#c2ac84"/>
  <path d="M665.17,281.14c.23,2.08,0,4.92-.63,6.59l-1.46-.47-.62,1.02-.64,3.48c-.13.69-3.32.12-3.3-.31l2.43-8.05,4.21-2.25ZM662.58,287.05c-.32.09-1.37.37-.96.26l.96-.26Z" fill="#bca477"/>
  <path d="M640.44,302.69c.2.35.67,1.38.69,1.94l.11,3.05-.9.9-1.04,1.13-1.64-4.08c.44-1.16-.41-3.54-1.49-4.7l4.27,1.77Z" fill="#9b7f59"/>
  <path d="M604.39,258.75l-.06,1.98c-.68.09-2.38.54-2.95,1.05l-.1-1.26,3.1-1.77Z" fill="#b4a07b"/>
  <path d="M636.41,254.75l-2.2-.96,1.8-1.03c.35-.2,1.28.57,1.06.9l-.66,1.09Z" fill="#c2ac84"/>
  <path d="M660.27,294.16l-2.52,1.43c.03.11-.28-1.07-.38-1.5s1.25-.22,2.9.07Z" fill="#bca477"/>
  <path d="M664.44,274.73l-1.02-3.01,1.02,3.01Z" fill="#bca477"/>
  <path d="M426.72,748.42l-8.85,6.17c-2.7,1.88-5.72,4.27-7.3,6.54l-7.84-.46-1.44.34-.96-1.16,2.38-.43,2.97-1.3c6.1-2.67,12.42-6.62,16.56-12.07l4.47,2.37Z" fill="#b69763"/>
  <path d="M365.66,685.39c-1.01-.29-2.62-.89-3.62-1.44.63-.46,1.32-1.97.96-2.54l-.95-1.48,2.96-3.07,4.14,3c-1.13.84-3.33,3.62-3.49,5.53Z" fill="#cfb786"/>
  <path d="M749.3,694.38l-.83,1.17-1-1.75c10.37-18.47,5.05-39.52-9.75-53.75l-8.44-8.11.82-.91,8.33,7.14c16.69,14.31,20.58,37.07,10.88,56.22Z" fill="#9d8e70"/>
  <path d="M442.44,818.93l.15,1.4-11.43-.65c-11.75-.67-21.61-6.73-28.54-15.5l1.18-.2c6.96,7.76,15.86,11.97,26.36,13.88,4.09.74,8.59,1.96,12.29,1.08Z" fill="#9d8e70"/>
  <path d="M680.33,593.36l-1.14.12,1.14-.12Z" fill="#b69f73"/>
  <path d="M753.26,691.4l.87-1.28-.87,1.28Z" fill="#b09972"/>
  <polygon points="471.54 533.65 471.67 531.49 472.46 531.23 471.54 533.65" fill="#b4a07b"/>
  <path d="M485.89,798.19l1.89,3.17c-11.58,9.16-25.95,14.22-40.47,18.34l-2.34,2.45c-.53.56-2.14-1.54-2.37-1.81l-.15-1.4,8.21-1.95c1.45-.34,3.53-1.9,4.73-3.2,1.44.05,5.41.37,6.96-.44l20.77-10.89c-21.14,3.84-31.05,2.15-43.46-13.38-1.38-1.73-2.06-4.83-2.47-6.78l1.53-2.13c1.72,12.07,11.87,20.18,24.32,21.72,7.73.96,15.7-.66,22.85-3.7Z" fill="#ac9a77"/>
  <path d="M402.54,425.49l-6.91.59,6.91-.59Z" fill="#b09972"/>
  <path d="M470.54,533.48h-.98s.98,0,.98,0Z" fill="#9c825d"/>
  <path d="M601.29,260.52l.1,1.26-4.47,4.04c5.64,3.22,4.48,12.88-.37,15.04-4.97-1.66-4.84-8.42-2.74-13.99l-7.89,3.25c3.56,7.54.98,13.69-4.97,16.78-2.14-5.47-2.78-10.5,1.48-14.85l-3.83-.56c-.48-.2-1.72-.85-2.3-.77l3.52-1.86c-7.5-2.5-10.78-7.79-10.28-15.19,6.67,2.72,11.41,6.4,13.43,13.8,2.31.24,5.71-.46,8.12-1.46-3.36-1.94-5.05-2.55-5.7-5.06,3.66-1.08,6.94,4.45,8.36,3.58l3.1-1.89c-9.1-3.31-10.97-8.47-10.16-17.92,4.63,7.07,12.47,8.33,11.8,16.97l2.79-1.17Z" fill="#bba47c"/>
  <path d="M576.3,270.73c.57-.08,1.82.56,2.3.77l-16.34,4.76c-4.06,5.06-10.62,8.35-16.48,5.01,5.04-6.33,11.1-6.58,18.68-8.36-7.15-2.13-10.43-6.62-11.06-13.2,7.11,1.75,12.37,5.21,15.07,12.18l7.83-1.16Z" fill="#c2ac84"/>
  <path d="M491.65,252.74c14.89-5.42,35.08-6.34,44.66.98-9.26-2.45-17.07-4.81-25.53-3.8-10.65,1.28-19.24,4.69-29.88,8.64l12.43-10.1c16.38-13.31,37.66-13.89,56.32-4.8-7.32-1.11-13.98-3.34-21.09-3.95-14.2-1.22-27.57,3.29-36.91,13.03Z" fill="#bba47c"/>
  <path d="M509.44,272.33l-12.75-5.76c-7.25-3.28-14.27-3.01-22.35-2.19,10.12-3.98,21.19-1.33,31.02,3.54,11.76,5.82,23.69,9.1,36.25,11.43-11.35,1.36-21.73-2.3-32.17-7.02Z" fill="#c2ac84"/>
  <path d="M580.43,233.82c-12.13-5.69-23.56-9.15-36.95-8.14l-10.31.78c3.78-2.71,8.45-2.82,13.3-2.77,12-.1,24.54,1.32,33.95,10.12Z" fill="#bba47c"/>
  <path d="M536.57,290.64l-2.12.96-2.91.45-7.09.78c-8.4-.74-16.92-3.18-23.73-8.05,8.12,1.23,14.43,5.8,21.67,5.82l14.18.05Z" fill="#bba47c"/>
  <path d="M571.16,275.61c1.07,6.1-7.97,11.44-9.4,9.22-.29-.46-.2-2.61.25-2.92l9.15-6.3Z" fill="#c2ac84"/>
  <path d="M488.66,289.47l7.91,3.89c-.21.64-.8,2.15-1.31,2.09l-2.13.1c-1.83-.79-4.09-2.21-5.77-3.64l-.47-1.78c-.15-.36,1.58-.42,1.77-.66Z" fill="#ac9a77"/>
  <path d="M534.45,291.6l.89,1.74c.14.25-1.04.19-1.33.19l-1.39-.02-7.09-.59,6-.87,2.91-.45Z" fill="#c2ac84"/>
  <path d="M636.16,300.92c1.08,1.16,1.93,3.54,1.49,4.7l-12.02-13.99-.88,14.05-1.6-4.01v-11.29s-3.07,4.95-3.07,4.95c-4.48,7.23-9.19,14.18-17.91,16.35l11.06-9.21c6.95-5.79,9.25-16.45,5.96-24.62h3.19c.74,6.47.66,10.72,7.05,15.18,3.75-3.05,5.58-7.5,5.05-12.27l-.79-7.12.74-1.89c3.84,7.66,2.64,17.26-4.17,22.47l2.78,2.3c1.76,1.45,12.77-6.55,6.2-22.59,6.33,6.45,5.3,17.9-2.56,23.01-.61.39-2.81,1.52-2.36,2l1.83,1.96Z" fill="#a8906a"/>
  <path d="M644.6,296.69c5.82-5.95,8.36-13.86,5.89-22.03s-7.95-13.26-14.39-18.93c9.29,3.16,13.61,11.85,16.85,20.6,1.15,7.47-.31,16.76-8.34,20.36Z" fill="#9d8e70"/>
  <path d="M570.72,302.13c8.9-.53,17.2-3.09,25.5-9.54-5.42,7.37-15.19,11.6-25.5,9.54Z" fill="#b4a07b"/>
  <rect x="604.56" y="265.89" width=".71" height=".71" transform="translate(-11.09 505.72) rotate(-45)" fill="#b69763"/>
  <path d="M427.66,743.24l-1.11.54c-.32.15.27,1.78.57,1.59l1.55-.98.94-.13,2.06,1-3,2.11-1.09.86-.85.18-4.47-2.37c5.3-6.97,10.19-14.77,11.34-23.49,2.03-15.37-5.26-26.79-17.67-34.76-11.74-7.54-25.07-9.57-38.55-12.03l-20.73-5.3.21-1.53,10.64,2.88,21.75,3.93c12.02,2.17,23.68,6.03,33.01,13.79,18.08,15.06,17.63,34.83,5.41,53.7Z" fill="#bba47c"/>
  <path d="M316.91,501.4c-15.78,17.95-26.48,39.12-29.82,63.35l-.43,17.74-2.63-4.15.66-10.95c.85-14.14,6.05-27.1,12.2-39.78,3.95-8.15,9.18-15.06,14.71-22.19,1.5-1.93,3.27-3.61,5.31-4.02Z" fill="#b4a07b"/>
  <path d="M286.66,582.49c-.14,5.93,1.82,12.13,3.52,18.37,5.31,19.41,12.44,26.17,29.54,35.61l-3.13.11-14.08-8.5c-.86-.52-2.47-1.21-3.17-2.2-10.12-14.44-14.09-30.51-15.32-47.53l2.63,4.15Z" fill="#a8906a"/>
  <path d="M456.57,717.35l-1.21-.11c.49-2.78.33-6.45-.84-9.75-1.94,16.31-10.36,28.99-22.87,37.78l-2.06-1c14.17-9.4,24.02-25,22.31-42l2.24-3.09c2.12,5.66,3.01,11.71,2.43,18.17Z" fill="#b4a07b"/>
  <path d="M319.72,636.46c1.05.06,2.93.48,3.89.86-1.04,2-.7,2.17.94.9l15.13,3.35c4.38.97,8.63-.48,13.2.2l10.68,1.58,6.12,1.81-10.02-.49-16.96-1.06c-13.37-.84-17.19-5.07-21.05-1.74-1.42-2.52-3.07-4.1-5.07-5.31l3.13-.11Z" fill="#c2ac84"/>
  <path d="M356.84,668.94l-.21,1.53c-13.99-3.57-28.39-9.5-37.94-21.32,11.9,9.06,24.1,15.99,38.14,19.79Z" fill="#9d8e70"/>
  <path d="M309.05,637.28c.52.64,3.94,1.11,3.64,1.74l-1.61,3.38c-4.22-4.54-7.7-8.8-9.2-13.99l7.18,8.87Z" fill="#ac9a77"/>
  <path d="M428.66,744.39l-1.55.98c-.3.19-.89-1.43-.57-1.59l1.11-.54,1,1.15Z" fill="#b4a07b"/>
  <path d="M405.68,758.12l-2.97,1.3,2.97-1.3Z" fill="#bca477"/>
  <path d="M355.62,508.52l-.96-3.03.96,3.03Z" fill="#b39d74"/>
  <path d="M398.7,642.17l-2.79-.53,2.79.53Z" fill="#9d8e70"/>
  <path d="M456.57,717.35c-.6,6.78-2.59,13.8-5.34,20.54l-9.59,23.52c-2.44,5.97-3.77,12.84-2.92,18.77l-1.53,2.13c-3.97-19.37,13.06-35.85,18.18-65.05l1.21.11Z" fill="#9d8e70"/>
  <path d="M424.31,767.44c-1.52,12.55-1.58,18.96,4.99,29.19-8.97-7.08-9.83-19.84-4.99-29.19Z" fill="#9d8e70"/>
  <path d="M427.56,748.23l1.09-.86-1.09.86Z" fill="#b69763"/>
  <path d="M305.99,584.23l-1.51-9.87c-2.63-17.23,2.03-39.92,12.16-54.11-4.17,11.75-9.2,22.18-10.57,34.52l-.11,21.56c-.01,2.21,3.47,4.63.03,7.9Z" fill="#9d8e70"/>
  <path d="M324.56,638.22c-1.64,1.27-1.98,1.1-.94-.9.33.13.94.74.94.9Z" fill="#a8906a"/>
  <path d="M773.31,785.7c1.05-.47,3.68,0,4.44.69.91.83.73,4.4-.51,4.47l-4.44.23c-1.23.06-.61-4.89.51-5.39Z" fill="#c1a976"/>
  <circle cx="249.42" cy="788.4" r="3.11" fill="#b69763"/>
</svg>
