<?xml version="1.0" encoding="UTF-8"?>
<svg id="Layer_1" data-name="Layer 1" xmlns="http://www.w3.org/2000/svg" viewBox="0 0 1024 1024">
  <defs>
    <style>
      .cls-1 {
        fill: #bba47c;
      }

      .cls-2 {
        fill: #9d8e70;
      }

      .cls-3 {
        fill: #e9cc7e;
      }

      .cls-4 {
        fill: #b69763;
      }

      .cls-5 {
        fill: #b69f73;
      }

      .cls-6 {
        fill: #ae9569;
      }

      .cls-7 {
        fill: #c1a976;
      }

      .cls-8 {
        fill: #b4a07b;
      }

      .cls-9 {
        fill: #d3b169;
      }

      .cls-10 {
        fill: #a78e66;
      }

      .cls-11 {
        fill: #a47e44;
      }

      .cls-12 {
        fill: #caa45c;
      }

      .cls-13 {
        fill: #b09972;
      }

      .cls-14 {
        fill: #9c825d;
      }

      .cls-15 {
        fill: #af8950;
      }

      .cls-16 {
        fill: #b39d74;
      }

      .cls-17 {
        fill: #cfb786;
      }

      .cls-18 {
        fill: #c8b180;
      }

      .cls-19 {
        fill: #ac9a77;
      }

      .cls-20 {
        fill: #ae956e;
      }

      .cls-21 {
        fill: #bca477;
      }

      .cls-22 {
        fill: #c5a769;
      }

      .cls-23 {
        fill: #a1865f;
      }

      .cls-24 {
        fill: #c2ac84;
      }

      .cls-25 {
        fill: #e0be72;
      }

      .cls-26 {
        fill: #c4ac7b;
      }

      .cls-27 {
        fill: #9b7f59;
      }

      .cls-28 {
        fill: #c7af7d;
      }

      .cls-29 {
        fill: #a8906a;
      }
    </style>
  </defs>
  <path class="cls-18" d="M465.9,317.66c.71,5.42,2.99,10.93,5.4,16.03l3.85,8.16.49-3.2.91-3.06c1.29,6.63,3.69,12.38,7.53,18.18,3.16-8.5,3.63-19.96,1.1-27.31-2.39-2.13-4.37-3.84-5.64-5.76l.25-1.44c.05-.32.37-.43.65-.46l2.3-.29-.4,1.29,6.3,6.78c3.86,11.78-3.36,28.39-.18,28.65l4.19.35c1.5.13,4.17.5,5.21,1.15s1.41,3.23,1.59,4.94c.35,3.34,3.62,3.97,6.33,3.55l7.43-1.16c-2.69,2.89-8.74,3.13-6.81,5.85,2.28,3.23,7.73,1.46,9.28,8.66.44,2.04,2.7,6.74,5.11,6.63,3.92-.18,9.02-2.69,11.79-5.36l11.27-10.91c5.59-5.41,10.22-11.76,12.8-19.32-1.26-5.06-.46-9.59.86-14.09l3.75.11c.18.33.85.9,1.15,1.13l-1.15.82-.76,2.53c2.31,5.35.35,10.56-3.53,14.15-2.96,6.4-6.96,11.72-11.67,17.29,4.81-.45,7.85,1.57,10.08,5.15l9.83,15.79c.34-3.35.97-7.07,2.02-9.89l.16,22.27c0,.69-.78,2.83-.95,3.3s1.5.33,1.94.1l.88-.73.45,1.01.37,1.33-3.34,2.59-1.23.27-1.89-2c3.14-12.68-3.14-22.15-10.63-32.72-1.34-1.89-4.02-4.36-6.1-4.45-6.73-.29-19.45,19.66-29.59,13.04-3.84-2.5-3.57-10.83-7.65-11.77s-5.64-3.25-6.54-6.92c-1.66-.42-5.73-.96-5.94-2.58l-.87-6.53-10.26-.99-.51.46c.78,5.03,1.1,10.85.14,16.27l-1.43,5.15-.67-5.03-.02-11.24c-.01-5.48-2.96-10.6-5.03-15.38-.61-1.41-2.46-3.81-3.52-4.85l-.07,10.6.6,4.76-1.16,1.73-1.47,4.6-.53-4.32.26-1.92c.21-.23.98-1.1.79-1.51l-.74-1.63-.36-11.67c-.08-2.46-1.96-6.19-5.07-8.29-.52-.35.39-2.3.15-2.95l-2.91-7.84-.81-3.14-1.07-2.22,1.4-1.14,1.9-.63ZM485,357.43s-.02.6.06-1.52l-.06,1.52Z"/>
  <path class="cls-28" d="M504.65,454.32l-1.84.8c-6.35-8.99-13.88-18.96-19.38-29.29-2.92-5.49-7.56-8.25-11.5-12.63l-20.76-23.07c-4.53-5.04-8.76-8.45-15.02-11.21l-16.02-7.05-13.62,3.61-11.95,4.77c5.05,2.6,9.7,1.17,15.6,0l8.61-1.71,10.92,5.84-1.91,1.61-8.69-4.53-11.68,1.57c2.83,2.11,6.25,4,9.73,4.54-.05.71-.53,1.76-.02,2.06l2.37,1.4c2.91,1.72,6.75,5.19,10.07,6.29l6.89,2.19-2.94,1.36c-7.56-2.3-15.55-3.85-24.35-3.47,1.27,5.07,6.4,7.05,10.59,7.94l-2.19,3.24-6.62-4.22-3.15-2.77-2.21-2.3,1.04-2.77c3.71-2.38,8.92-2.28,14.88-.93-7.77-8.8-18.94-11.75-30.85-12.22-15.18-.61-28.36,4.27-39.6,14.8l-6.11,6.64-.3-4.27c9.64-11.03,23.62-19.03,38.93-19.77,3.51-.17,5.23-1.03,7.79-2.04l9.78-3.87c5.38-2.13,14.23-6.87,20.01-4.66l18.77,7.17c5.29,2.02,8.33,5.91,11.94,9.95l13.22,14.77c5.07,6,10.7,11.18,16.73,16.27l19.82,31.1,3.07,4.89Z"/>
  <path class="cls-21" d="M470.58,263.57l1.78,1.51-9.01,10.49-.89.82c-.26.24.84.87,1.15,1.06l2.9,1.86c-2.08.11-5.1.74-6.46,2.27-1.22,1.37-1.65,4.79-.54,6.13-.29.42-1.24,1.33-1.4.85l-1.21-3.73c-.97,3.26-1.31,6.69-1.26,10.29l2.34-4.52c.43,3.44.84,5.52,2.11,9.48l2-8.03.64-7.48c1.89-.91,4.46-.39,8.29-.05l-3.28-4.3c2.23-.05,4.47,2.63,6.67,4.64l7.77,7.08,3.83,3.83-2.79,1.96-10.52-10.5c1.19,11.64,4.06,21.64,7.76,31.59-.28.02-.61.14-.65.46l-.25,1.44c-6.71-10.08-8.2-22.32-8.3-35.52-5.41,10.19-6.76,21.56-5.33,32.46l-1.9.63-.1-4.56.19-14.23c-.51.94-1.08,2.63-1.48,4.18l-3.18,10.26c-4.82-6.83-6.71-16.85-5.13-27.28-9.7,11.74-9.98,30.37,3.57,40.7l2.92-10.56c.27.5,1.04,1.87.95,2.56l-.81,6c-.42,3.07.22,4.76,2.58,7.24l-3.8-.89-2.01,12.05c-1.62,9.71,4.91,17.95,13.6,20.97l1.07-4.13.53,4.32,1.47-4.6-.85,9.25c-3.29,12.62,1.28,23.89,12.35,30.95-10.31-2.53-15.84-12.16-15.6-22.1l.31-12.76c-11.98-3.13-18.25-13.83-15.47-25.45l2.57-10.75-8.05-8.64c-11.83-12.7-1.36-34.66,11.89-46.93l.75-6.27.77,1.53c.6.7,1.63,1.22,1.76.82,3.55-3.2,3.96-4.8,4.04-8.15l1.76,1.75ZM460.16,308.62c.38-5.44-1.41-9.26-3.35-13.97-.56,4.77.49,10.19,3.35,13.97Z"/>
  <path class="cls-27" d="M248.11,814.71l-1.96,1.39-6.13-5.13-28.73-29.24c-23.61-26.01-43.27-54.02-59.67-85.24-19.05-36.54-32.38-75.29-40-115.8l.32-2.76c.05-.44,1.02-.36,2.13-.28,13.46,75.51,47.66,145.29,99.19,202.11l31.32,31.63,3.52,3.33Z"/>
  <path class="cls-3" d="M489.43,177.55l1.71.57c.33.04.23.34-.08.48l-2.78,1.24c.71,2.2,3.26,6.14,5.14,7.91,3.58-.23,5.66-.46,8.07-.18-14.61,3.81-29.95,8.19-42.18,17.94l-16.73,13.28c1.81-2.38,2.12-4.85,1.17-7.93-1.15-3.74-2.52-5.95-6.22-6.12,14.71-13.12,32.52-23.36,51.91-27.17Z"/>
  <path class="cls-4" d="M614.59,246c-1.24,1.5-2.43,5.05-2.79,7.35l13.35-12.03.49,1.76c-1.26.45-3.29,2.54-4.63,4.25l17.4-1.8c.44-.05,2.18.13,2.14-.26l-.3-1.61,3.13,3.44c8.64,1.62,18.37,3.4,24.04,10.36l-.98,1.52c-4.32-3.71-9.35-7.71-15.7-7.88,7.04,6.21,11.55,12.66,12.68,20.6l1.02,3.01.72,6.42-4.21,2.25-2.43,8.05c-.03.44,3.17,1,3.3.31l.64-3.48-.85-.98c-.41.11.65-.18.96-.26l.5.21,1.46.47-.14,1.03-.16,1.92c-2.37,7.93-10.04,11.86-17.84,13.23l-5.27.72c-.02-.56-.49-1.59-.69-1.94,11.93-1.54,19.36-14.55,17.59-25.81-1.05-6.65-5.58-13.41-10.71-16.91l.54-1.8,3.89,1.93.81-1.02c.19-.66.57-1.84.11-2.28l-2.19-2.14c-2.39-2.33-4.32-3.99-6.93-5.06l-1.86-1.34c-.52-.37-2.36,1.33-2.04,1.9l2.83,5.14c.81-.36-.8.36-1.18.56l-4.89-1.13.66-1.09c.22-.33-.71-1.1-1.06-.9l-1.8,1.03c-7.55-.65-16.71-3.07-22.03,1.67l9.29,3.01c-.77.47-1.96,1.23-1.88,1.88l.44,3.79-4.38-2.69-2.48-3.28c-.56-.74-3.58-.51-4.26-.37l-3.51,5.51-1.21-.18.14-2.4.06-1.98.02-2.36-5.05-3.83c-1.04-.79-.06-3.79,1.33-5.19l.87,5.51c1,.06,3.08.01,3.64.56l2.87,2.78c1.38-3.77-.81-5.06-2.86-10.41l1.59-1.58,2.26.19c.56.05.61-1.61.67-2.9l1.18.11,3.67,4.37ZM652.34,261.02l.97-1.08s-1.03,1.15-.97,1.08ZM660.27,294.16c-1.66-.29-3.01-.49-2.9-.07s.41,1.61.38,1.5l2.52-1.43Z"/>
  <path class="cls-27" d="M229.93,762.97c-1.59,2.68-3.17.65-4.74-1.16-16.97-19.53-31.66-39.84-44.42-62.53-28.58-50.82-45.87-106.55-50.12-164.73l-.82-15.45c2.54.95,3.01,1.37,2.91,1.84l.95,16.59c3.59,39.53,12.41,77.77,27.41,114.51,16.61,40.71,38.83,77.67,68.82,110.93Z"/>
  <path class="cls-15" d="M424.48,241.6l.14,2.21c.02.27.02.69-.1.88l-.95,1.05.04,1.04-1.04.96.04,1.04-1.04.96.04,1.04-.92.99-.17.98-.89,1.96c-.07.23,0,.95,0,1.18-2.44.83-3.99,5.43-3.4,7.78l.3,2.05c-.43-.51-2.5,1.78-2.57,2.65l-.77,9.24.51,3.08-1.38.53-3.06-2.1c-.53-2.8-1.47-6.25-3.55-8.13-2.99,17.6.14,34.63,5.58,50.8,2.1-.24,2.84-2.37,2.47-4.14-2.29-10.8-2.67-21.17-1.89-31.75.59,14.53,1.57,29.68,6.81,44.12l5.86,11.74,7.24,11.99-3.45-.99c-17.07-18.08-26.52-47.26-24.8-73.05l.87-13,1.18-4.05c1.31-9.73,5.08-19.36,9.65-27.98l3.69-.72c1.7-.32,1.73,6.4,5.57,7.64Z"/>
  <path class="cls-21" d="M571.37,827.14l1.52,1.38c-7.77,11.18-21.15,17.29-35.58,13.54,7.66,6.02,17.37,6.56,26.68,3.48,12.74-4.22,21.51-16.12,23.17-29.2s-4.5-26.79-15.15-32.68l-2.48.64-.09-1.08-1.07-.99c-4.43-4.3-10.07-7.05-16.77-8.3-16.27-3.03-31.81,3.06-43.96,13.64l-2.04-3.32c6.88-3.71,13.99-8.34,21.78-10.88,16.78-5.47,33.25-1.37,46.97,8.02l-3.5-6.81c7.29,5.21,9.96,12.37,13.99,19.36,6.98,12.11,6.67,27.11-.92,39.01-6.86,10.77-19.63,18.37-33.12,16.94-10.92-1.15-20.11-6.8-23.88-17.21-2.03-5.6.46-14.34,5.63-16.13,2.17-.75,5.82-.25,6.98,1.04-4.11.69-7.6,1.65-9.53,4.65-1.74,2.7-1.63,6.52-.28,9.55,3.07,6.89,9.52,8.66,16.87,8.6,9.85-.08,19.5-5.14,24.76-13.27Z"/>
  <path class="cls-16" d="M325.93,732.14c-.52.53-.62.67-.79.62l-1.37-.38c-6.77-11.53-23.66-11.89-34.49-4.44s-16.75,20.08-15.22,32.76c1.63,13.51,9.24,23.25,20.8,29.49s25.58,7.33,38.99,4.38c4.52-.99,6.77-2.1,8.77-6.51l.76,2.78,7.24-.15-8.16,3.49c-4.37,7.54-3.44,16.93.3,24.91,9.59,20.47,39.85,27.99,62.09,21.89l19.97-5.48c-6.91,4.13-17.23,8.4-23.43,9.07-15.7,1.7-31.59.68-45.44-7.72s-23.11-25.88-17.19-41.52l-10,2.08c-24.62,5.11-53.01-9.76-56.71-34.01-2.12-13.88,2.75-27.07,13.17-35.48,12.63-10.19,34.55-9.56,40.72,4.21Z"/>
  <path class="cls-22" d="M512.22,490.47l.2,3.78-4.02,1.51-2.91,7.07,5.35,3.77-.7,4.97c-.57,2.11.03,4.27,1.73,6.8.44.66,2.51.81,3.06.28l1.63-1.86,1.03.34.98.62c-3.21,2.44-2.44,9.4-.54,12.12.06.67-1.84,2.21-2.1,1.57l-1.26-2.99-.52-3.13-7.8,8.25c-1.84,1.94-2.29,7.84-2.78,10.81,1.66-2.48,3.21-5.28,6.46-6.7l-7.68,11.35c-.34.51-.91,2.05-1.11,2.75s1.48.48,2.7.8l-5.14,7.02,1.73,3.98c-1.27,1.96-1.26,5.57.41,6.21l1.74,1.13-4.67,2.56-1.03-6.67c-1.13,1.73-2.76-.35-3.15-1.27l1.85-2.07,8.84-41.87c-1.52-2.97-1.1-5.72,1.11-8.2l-1.61-8.16-11.55,19.31c-.73,1.22-1.87,2.87-2.87,3.08-3.16.66-4.72,7.52-4.87,4.39l-.36-2.58c1.16-4.69,3.92-8.87,6.76-13.34l17.49-27.5,2.41-3.11,1.17,4.98Z"/>
  <path class="cls-21" d="M289.75,644.06l7.26,8.96c21.18,21.61,46.4,20.64,65.03,30.93,1,.55,2.61,1.15,3.62,1.44,16.1,11.88,28.03,25.15,25.81,46.92-1.43,14.04-9.3,24.93-20.23,34.67l29.08-7.12.96,1.16-.24,1.77-13.37,4.37c-.42.18-1.48,1.29-1.53.87l-.27-2.27-8.07,2.5c-13.4,1.91-27.89,10.91-34.43,22.61l-.76-2.78c3.2-7.03,9.78-12.04,16.86-15.97,13.79-7.66,27.41-22.75,29.14-38.68,1.37-12.58-1.3-24.44-9.64-33.36-8.21-8.78-17.35-15.65-28.96-19.1l-22.35-6.64c-10.89-3.24-19.73-9.33-28.72-16.25-4.73-3.64-8.23-9.02-11.45-13.75l2.25-.28Z"/>
  <path class="cls-23" d="M818.19,235.91l2.69-1.15c46.4,54.29,78.01,120.11,91.39,190.54.1.51-.22,2.53-.63,2.37l-2.06-.84c-13.31-70.83-44.14-136.5-91.39-190.92Z"/>
  <path class="cls-10" d="M246.15,816.1l1.96-1.39,4.81,3.52c51.97,44.24,114.16,74.75,181.16,88.14.56.36,1.62.99,1.41,1.23l-1.29,1.54c-69.93-13.75-134.76-45.68-188.06-93.04Z"/>
  <path class="cls-5" d="M729.31,506.17l-5.41,7.99c-10.77,12.99-18.78,28.17-20.57,45.16-1.58,15.04,4.99,29.76,17.82,37.1,5.08,2.91,11.34,3.37,16.63,1.26,4.43-1.76,9.11-5.85,10.17-11.82.51-2.87-1.88-6.75-3.57-9.61,7.25,2.68,7.69,11.47,3.01,17.6-3.74,4.9-10.49,8.11-17.32,8.4-16.29.69-30.35-10.19-36.18-24.53l1.7-1.36c4.08,9.51,10.64,17.28,20.17,21.15l.67-.8-4.37-4.19c-8.37-8.03-12.48-20.37-11.71-32.08.67-10.14,4.57-18.47,7.99-28.19l-9.16,10.34-.1-2.23-2.2,1.65c-.34.26-1.18-.23-1.81-.61l1.99-5.1,1.22,1.17.26,1.98,7.38-8.51c4.74-5.47,8.88-10.83,11.11-17.54l1.17.09.31,2.82,8.31-10.84,2.47.68ZM716.84,597.31l-.56.8,3.18-.03-2.62-.77Z"/>
  <path class="cls-23" d="M189.01,299.17c-30.69,49.5-49.21,104.48-54.71,162.57l-1.41,14.87c-.31,3.23,2,7.06-3.04,9.69l.78-15.84c4.24-61.6,23.49-120.44,56-172.89l2.37,1.61Z"/>
  <path class="cls-5" d="M724.18,856.66l.14-3.46c17.93-11.47,35.49-23.77,51.42-38.43l12.66-11.64c23.53-21.64,43.4-46.63,61.26-73.28,1.69-2.53,2.65-6.21,6.8-5.15-33.48,52.84-79.03,99.3-132.28,131.95Z"/>
  <path class="cls-7" d="M354.44,517.58c.67,3.05,1.86,6.35,3.5,9.63l9.2,18.51c6.02,4.41,10.85,9.49,14.78,15.51l32.57,10.28c4.97,1.57,9.86,3.8,12.95,8.13l16.5,23.1c1.81-8.17,3.58-16.72,10.46-19.37l.24,5c-2.98-2.87-8.13,8.42-8.05,13.85l.26,18.06,5.75,25.07-3.31-.22c-2.52-9.35-5.54-19.53-5.49-29.53.03-6.54-1.19-9.75-4.66-14.76l-15.13-21.86-23.96-9.11-18.84-6.05-6.92-8.71-8.71-7.21-13.15-27.22c-.32-.66-.41-2.69-.34-3.36s1.21-1.62,1.89-1.65l.45,1.92Z"/>
  <polygon class="cls-5" points="544.32 614.49 542.43 614.51 543.52 613.38 544.32 614.49"/>
  <path class="cls-5" d="M556.74,521.44l-1.21,5.05-.11-1.6c0-.51-1.73.22-2.35.3l-14.32,1.92,4.79,3.25-2.08,1.14-2.07-1.75c-.44-.37-1.47.2-2.09.66l-9.38-3.81,6.61,7.97-1.27,1.87c-2.06-2.61-3.79-4.74-7.64-7.43l6.25,36.05,4.95,21.15c2.43-5.14,2.95-8.2,2-11.76l1.1-2.18,1.09,2.18,1.78-3.75c-.24.7,1.39,2.61,1.21,2.54-1.42,4.05-1.56,7.96-.71,12.23l-1.18,1.04-1.33-2.09-3.06,8.7,5.55,19.35-1.24-.06c-.44.02-1.57.49-1.22.77l1.66,1.32-.32,2.12-.72,1.87-2.67-.21c-.18-1.64.11-4.28.62-5.87l.85-2.66c.19-.59-.81-1.38-1.75-1.29l.17-1.18-1.04-3.9-1.51-4.97-2.5,4.32c.1-.54-.74-2.25-1.2-2.4.87-2.09,2.44-6.52,2.03-8.74l-5.94-32.27-3.66,2.41v-9.38s-1.05-15.97-1.05-15.97c-.07-1.15-.08-3.22-.76-3.64l-3.25-1.97c1.42-1.13,6.31-4.03,6.53-6.31.34-3.48-.96-7.52-1.97-11.09l-5.72,4.35-.98-.62,2.72-3.68,5.28-3.59,2.09,9.6c.5,2.31,2.24,5.47,4.66,5.49l11.3.1c3.74.03,9.31-2.47,13.09-3.61Z"/>
  <path class="cls-20" d="M757.74,207.65c-45.45-38.86-93.41-64.86-150.89-80.21-6.52-1.74-13.88-1.53-19.19-6.8,65.82,12.28,127.46,44.92,177.41,90.12-3.1,2.29-4.9-1.03-7.33-3.11Z"/>
  <path class="cls-29" d="M266.9,178.56l-17.71,14.77-13.88,12.94c-30.67,28.6-56.55,63.57-77.19,99.9l-1.56-2.92c19.15-35.31,53.6-79.78,83.64-105.9l16.1-14,9.84-7.96.75,3.17Z"/>
  <path class="cls-1" d="M670.91,333.05l-.14,1.57c.01.55,1.01.98,1.57.99l2.01.05,12.16,10c6.13,4.89,9.22,12.64,13.47,19.36,6.28,9.69,8.05,21.43,7.12,32.48l-.34,1.26c-.06.24.23.42.68.76l-2.43,6.29-.51-4.23-.35-16.06c-.12-5.4-2.42-11.37-4.59-16.17.15,14.25-4.23,27.66-15.15,36.19-5.74,4.48-12.36,7.62-19.26,6.59,8.48-1.93,15.44-4.68,20.83-10.85,12.51-14.32,15.07-36.53,2.14-48.78l-.56.93,4.2,14.82c2,7.04-1.25,17.82-5.24,24.65l-1.43-1.22,3.06-8.26c2.77-7.49,1.67-15.74.01-23.59-1.04-4.93-4.12-8.95-6.71-13.18-5.66-9.23-10.53-8.02-12.56-12.39l-.74-1.79,2.77.57ZM686.82,352.4v-1.43s0,1.43,0,1.43Z"/>
  <path class="cls-14" d="M848.23,321.63l2.32-1.35c22.63,43.48,37.62,90.72,41.72,140.18l1.09,13.19.64,8.66c.04.55-.2,1.82-.35,2.32s-1.63,1.01-1.73.52l-.57-2.7-.98-12.82-1.08-11.24c-4.64-48.26-18.94-94.16-41.06-136.75Z"/>
  <path class="cls-13" d="M748.47,695.55l.83-1.17,2.99-1.76,2.33.09c-3.08,4.33-6.57,8.15-11.12,11.86l-12.69,10.36c-3.68,3.01-9.26,5.12-13.47,6.54l.19-2.22c4.15-1.47,8.27-3.08,12.16-5.52l-12.35,1.7c-9.33,1.28-21.67-3.78-27.2-11.93.6-.72,1.23-2.58,1.14-3.37l.94,1.13,1.12,1.13c8.09,12.24,28.43,13.49,40.43,5.43,7.43-4.99,9.86-13.96,9.66-22.47-.39-16.54-11.35-29.03-25.74-36.44l-6.48-3.34c.12-.2,2-.25,1.82-.59l-.8-1.53c5.76,2.76,12.02,5.55,17.14,9.72,8.98,7.32,14.74,17.02,16.64,28.39,1.03,6.14-.69,11.29-1.7,17.96l4.17-3.97Z"/>
  <path class="cls-10" d="M397.67,873.01l-.56,2.64c-47.24-15.04-90.61-39.26-128.38-71.27l-9.14-9.01c2.1-.03,3.57.54,5.15,1.92,38.96,34.11,83.61,59.62,132.93,75.71Z"/>
  <path class="cls-1" d="M410.57,761.13l-5.43,7.78c-5.11,7.33-8.21,16.89-6.02,25.97l4.67,9.1-1.18.2c-2.32.39,1.69,7.12,4.47,9.75,16.47,15.58,41.69,19.09,62.06,8.9,12.36-6.18,21.15-16,29.05-27.12l-1.08-.72,6.36-2.83-11.58,15.46c-2.41,3.22-5.28,5.95-8.43,8.53-21.31,17.52-43.27,19.03-68.03,7.53l-4.32.55-.53-.58,3.16-1.3c-15.84-9.96-22.62-29.17-14.9-46.04l5.32-11.62-1.45-4.02,7.84.46Z"/>
  <path class="cls-16" d="M615.3,385.66c1.18,4.98,3.97,9.37,7.15,13.86,17.33,24.38,32.02,29.16,42.96,40.98,2.26,2.44,2.16,6.77,6.88,7.12l16.08,26.12-.99,4.41-2.87-5.85-.49,15.28c-.26,8.27-3.84,16.59-8.5,23.16,12.44-30.88,8.11-55.76-21.37-70.94l2.23-1.05,1.6-.31c.57-.11.05-1.97-.52-2.41l-14.33-11.16c-8.86-6.9-15.73-14.64-22.55-23.51-3.81-4.95-6.69-11.03-8.57-16.64l2.46-2.5.81,3.43ZM661.39,439.02l-1.53-.46c-.42-.12-.94,1.41-.53,1.55l1.49.54.57-1.63ZM661.83,441.03l-.06.02c1.56.07,2.17.1.06-.02Z"/>
  <path class="cls-6" d="M541.39,618.5l3.64,35.28c4.16,39.87,14.18,78.6,43.63,106.2l-1.31,1.13c-3.1-1.47-5.85-4.3-8.43-7.33-9.38-11-16.94-22.25-22.17-35.87-7.16-18.67-11.74-37.74-13.78-57.83l-2.21-21.72-1.04-10.93-.99-9.13,2.67.21Z"/>
  <path class="cls-29" d="M559,587.02l-2.64-1.57-8.18-24.16-4.18,11.95c.17.07-1.45-1.84-1.21-2.54l3.79-11.21c-1.54-5.25-4.16-11.46-7.38-15.54l-5.93-7.52,1.27-1.87c.98,1.19,1.79,2.99,3.56,1.42l9.75,17.81,3.15-7.36c.49,1.76,1.16,4.43,1.87,5.67l10.17,17.8,8.98,14.98c7.31,12.2,14.91,23.93,24.96,33.95l7.52,7.49,11.45,9.83c-11.9-4.5-20.36-14.62-28.28-25.04-9.64-12.69-18.43-25.72-26.01-39.73l-10.41-19.22c-2.31,3.21-1.91,5.64-.57,9.25l8,21.67c.33.89.44,3.52.34,3.9Z"/>
  <path class="cls-29" d="M724.18,856.66c-41.53,25.47-88.46,45.82-137.7,51.84,40.02-10.74,77.66-20.76,113.07-41.08l24.77-14.21-.14,3.46Z"/>
  <path class="cls-13" d="M459.39,662.42c2.32,5.82,5.77,9.94,10.09,14.88,8.68,9.93,14.44,22.73,14.05,35.95s-6.35,22.98-12.57,33.31c-5.44,9.03-8.08,19.62-4.24,29.58,3.32,8.6,12.77,13.39,21.84,12.11l13.85-2.28c.3.37,1.37,1.54.95,1.69s-1.79.6-2.15.85l-10.63,1.63c-8.3,1.48-17.03-.89-22.69-7.32-4.49-5.1-6.09-12.72-5.26-19.61,2.42-20.25,19.57-30.95,18.41-52.21-.75-13.77-5.91-26.05-16.09-35.13l-10.49-9.36.84-2.16,2.01.79c.38.15,1.02-.27.94-.66l-.42-2.02,1.56-.05Z"/>
  <path class="cls-5" d="M522.3,624.57l3.05-.14c-1.57,3.82-5.25,9.32-4.76,13.82l1.67,15.6-2.17-.3-1.79-11.5-11.09,13.25c-3.37,4.02-10.38,7.65-15.35,3.68l-18.9-15.11c-8.73-6.98-15.28-15.97-22.08-24.69l-3.54-.71.88-12.37c.42-5.85,1.01-13.64,6.94-17.35-2.41,8.37-6.43,17.06-4.54,25.15,10.5,16.39,23.95,28.86,38.99,40.4,2.79,2.14,6.3,4.1,10.12,2.95,4.65-1.4,14.72-14.51,18.17-22.49l4.41-10.19Z"/>
  <path class="cls-7" d="M699.19,542.6c-3.05,3.45-5.25,8.3-5.65,12.84l-2.73.61c-4.31,7.08-7.77,15.35-9.31,24.49l-.13,9.75c0,.37.67,1.12.84,1.15l-.05,1.57-.93.21-.89.13-1.14.12,1.2,10.06c2.36,19.8,14.97,31.81,31.83,39.91l.8,1.53c.18.35-1.7.39-1.82.59-19.02-7-32.29-23.38-34.45-45.01-1.57-15.75,4.05-32.57,11.69-46.79l6.64-12.36c.63.38,1.46.87,1.81.61l2.2-1.65.1,2.23Z"/>
  <path class="cls-21" d="M320.66,447.4c.08.3.14,1.38.43,1.49l1.62.58c-14.41,6.78-13.94,27.41-7.95,42.44.37.77,3.39.47,3.52-.33l.66-4.1,1.57,1.72c.57.62,14.13-9.22,23.42-8.56-8.16,3.55-15.28,6.53-22.83,11.67l4.64,3.9-5.73,4.83,1.78,3.28-4.87-2.92-1.63-3.97c-14.55,11.08-25.1,29.24-31.52,45.21l-1.44-2.38c5.45-10.54,9.62-22.93,18.27-31.83l12.5-12.86-4.04-13.38c-.92-3.06-.55-8.16-.54-11.62.02-9.78,3.83-19.11,12.16-23.17ZM319.86,492.79l-3.7,3.7,1.53,1.53,3.7-3.7-1.53-1.53ZM321.35,497l-.65.02.65.02h.67l.65-.02-.65-.02h-.67Z"/>
  <path class="cls-25" d="M298.46,270.86l.27.86.05,1.09-2.14,1.83.13,1.15-3.22,4.71.16,1.28-.93,1.93-.09,1.02c-4.69,2.71-3.9,17.08,1.04,20.91-.02.05-.31,1.03-.19,1.25l3.24,4.71-.13,1.15,2.14,1.91,3.95,5.18c-.89.12-2.46.16-2.58.92l-.48,2.89-1.14,3.34c-3.63-2.26-7.99-6.62-9.93-9.91-.05-.54.07-2.16-.43-2.24h-1.46s.32-1.26.32-1.26c1.09-3.99.28-7.82-.64-12.44-1.01-5.09-.78-11.68-.12-16.89l.22-9.74c1.68-2.83,3.68-5.57,5.83-7.9,1.86,2.16,4.26,4.22,6.15,4.24Z"/>
  <path class="cls-20" d="M867.13,648.36l-12.22,27.83c-15.84,32.68-35.6,62.98-60.37,89.77-.64-5.24,3.48-7.66,6.32-11.06,26.94-32.22,47.74-67.88,63.31-106.89l2.95.36Z"/>
  <path class="cls-23" d="M158.12,306.17l-9.04,17.64c-17.12,33.41-26.19,67.96-36.48,104.84,5.03-44.52,22.97-86.71,43.96-125.4l1.56,2.92Z"/>
  <path class="cls-14" d="M867.13,648.36l-2.95-.36c14.3-35.83,23.4-72.91,26.1-111.49l1.18-16.89c-.36-.14,2.78.95,2.74,1.52l-.9,13.34c-2.66,39.5-11.91,77.54-26.18,113.87Z"/>
  <path class="cls-21" d="M515.93,156.74l-.37-2.29c15.53-1.07,29.25-10.49,35.82-24.6,6.57-14.11,4.95-30.68-4.22-43.25-9.18-12.57-24.47-19.16-39.91-17.2l-4.93-1.82c26.81-6,52.91,12.22,55.28,40.21,2.17,25.69-16.26,47.93-41.67,48.95Z"/>
  <path class="cls-17" d="M502.33,67.58l4.93,1.82c-22.94,2.91-39.41,23.54-37.16,46.56,2.25,23.02,22.4,40.07,45.47,38.49l.37,2.29c-8.28.33-15.59-.15-23.19-4.08-13.83-7.15-23.51-20.01-25.17-35.66-2.5-23.53,12.63-44.47,34.75-49.42Z"/>
  <path class="cls-1" d="M633.49,220.54l-.4,2.59c2.72,5.1,4.73,10.2,1.99,16.18l4.61,1.3c.65.18,1.47-1.34,1.75-1.88l1.66-1.17c-.55,2.94-.27,6.43.29,9.55l-3.13-3.44c-3.58-2.96-10.58-2.01-14.62-.58l-.49-1.76c1.59-1.44,4.39-2.15,7.21-3.09,4.73-1.57.99-15.11-7.89-17.78l-1.29,2.71.93.58c3.58,1.87,4.93,8.28.84,11.46.22-3.71-.04-8.37-1.37-10.67l-.52-.89-2.16-2.6-3.63,6.83c-2.27,4.27-2.94,8.43-3.35,13.58-.75,1.48-.39,2.74.97,1.2l1.56-10.01c3.55,4.86,1.3,9.52-1.88,13.37l-3.67-4.37-1.18-.11c-.06,1.29-.12,2.95-.67,2.9l-2.26-.19c-1.44-2.43-1.91-7.07-.01-8.3.92-.59,2.17,2.49,2.42,1.36l.33-1.46,1.72-1.84c.44-.47-.51-1.81-.6-2.44-.76-4.87,3.38-12.88,7.95-14.43,2.93-.99,7.28.11,9.84,1.23l5.04,2.19Z"/>
  <path class="cls-20" d="M189.01,299.17l-2.37-1.61c11.85-19.11,24.14-37.15,39.64-53.32l17.14-17.88c-2.75-4.82-2.02-9.39,1.43-12.03,2.93-2.24,7.64-2,10.4.45,3.21,2.85,3.36,7.73.99,11.03s-6.92,3.47-11.09,2.23c-20.7,20.66-40.44,45.82-56.13,71.15ZM248.18,215.03c-3.69,1.1-5.15,4.91-4.03,7.86s4.94,4.73,7.81,3.68c3.18-1.15,4.64-4.68,3.42-7.88-.94-2.47-4.25-4.55-7.21-3.66Z"/>
  <path class="cls-12" d="M437.73,222.48l-7.92,10.7c-.57.75-1.35,2.69-1.27,3.57l.11,1.12-4.17,3.74c-3.84-1.24-3.87-7.96-5.57-7.64l-3.69.72c5.05-9.53,11.01-18.84,19.08-26.01,2.05,2.62,2.45,5.91,1.23,9.33l2.2,4.47Z"/>
  <path class="cls-9" d="M528.51,175.71l-5.03,1.01-4.18.26c-1.03.06-1.52,2.66-2.1,3.54l-2.61,5.2c-1.25.14-2.91.62-4.18,1.12-2.54,1.01-5.94,1.05-8.93.71-2.4-.28-4.48-.05-8.07.18-1.88-1.76-4.43-5.71-5.14-7.91l2.78-1.24c.31-.14.41-.44.08-.48l-1.71-.57c12.65-3.28,26.28-4.41,39.08-1.84Z"/>
  <path class="cls-26" d="M585.51,338.44l-.55,1.59,7.16,5.69,2.37,1.02.75,1.49c6.89,6.48,18.5,10.26,28.16,8.67l.05,2.16c-3.38.56-6.91.39-11.4.05,9.74,6.93,22.59,10.58,34.31,7.75,8.86-2.13,15.89-8.26,17.67-16.83l2.49.44c-1.95,11.13-11.81,18.72-24.03,19.66-20.16,1.55-36.37-14.6-37.37-12.39l-.84,1.86-.83-.11c-1.23-3.49-5.46-5.79-8.91-7.06l-2.05-.91-6.05-6.71c-.56-.62-2.2-1.24-3.26-.98l-3.26-5.76-5.45-5.69,1.1-2.19,9.93,8.28Z"/>
  <path class="cls-20" d="M750.22,168.63l-1.56,2.55c-17.46-12.8-35.19-23.99-54.44-34.16l-36.4-16.72,2.96-1.74c32.42,12.61,61.85,29.78,89.43,50.06Z"/>
  <path class="cls-29" d="M718.22,513.51l-1.17-.09c4-12.05,7.17-24.23,4.53-37.18-2.2,14.84-7.19,27.29-13.18,40.32l-10.11,20.94-1.22-1.17,15.04-33.03c8.86-19.47,8.88-38.09,2.05-59.5,10.98,19.44,14.17,50.22,4.05,69.72Z"/>
  <path class="cls-29" d="M688.44,846.64l-.62,3.6c-30.35,16.33-65.86,28.47-99.07,35.56-.41-.25-1.87-2.19-1.46-2.28l1.98-.47,36.17-9.81c18.02-4.89,34.82-12.06,51.44-20.63l11.56-5.96Z"/>
  <path class="cls-20" d="M255.51,635.87c-9.07,8.98-6.38,26.02,3.49,35.18,9.81,9.11,22.29,13.03,35.29,14.87l13.27,1.88c11.16,1.58,35.78,10.95,41.1,21.82l-10.07-7.2c-11.51-8.23-25.31-12.01-39.26-13.63-18.61-2.15-36.82-7.39-47.08-22.97-7.04-10.68-6.29-24.66,2.46-31.8l.79,1.85Z"/>
  <path class="cls-6" d="M898.14,635.09c-9.16,29.47-22.46,57.95-38.68,84.56l-2.97-.57c16.33-27.1,29.31-55.32,39.37-85.43l2.27,1.44Z"/>
  <path class="cls-21" d="M495.69,577.73l-4.86,11.97c-3.26,8.02-6.23,15-8.43,23.31-2.34-6.68.61-11.4,2.43-18.26-8.2-1.48-11.76,8.25-15.53,17.5-1.8-7.86,2.94-14.89,8.79-19.69l-15-8.95-5.33.83c1.29-.99,2.74-3.2,2.86-5.13,3.77.36,9.13.86,11.51,4.34,4.33,6.31,10.81,8.73,14.26,7.42.91-.34,2.3-2.25,2.59-3.27l3.54-12.16,3.19,2.09Z"/>
  <path class="cls-10" d="M820.87,234.77l-2.69,1.15-8.01-9.23-27.31-27.52-6.92-6.05-27.29-21.94,1.56-2.55c11.56,8.49,23.06,17.17,33.58,27.63l27.54,27.38,4.59,5.33,4.95,5.79Z"/>
  <path class="cls-16" d="M342.94,156.15c-27.68,14.7-53.87,32.01-77.46,53.27-2.01,1.81-2.54,2.98-5.42,1.62l8.63-8.38c22.63-19.08,46.96-35.43,72.96-48.83l-.87,1.62c-.21.35,1.93.2,2.16.7Z"/>
  <path class="cls-26" d="M656.39,438.76l-2.23,1.05-17.73-9.12c-.56.62-1.76,2.08-2.02,1.52-.2-.42-1.17-2.38-1.7-2.76l-15.75-11.24c-17.36-16.47-14.78-40.29-19.49-42.65.73-.53,1.7-1.64,1.59-2.46l-.34-2.46c-.07-.51.27-1.78,1.15-1.96l3.09,13.2c2.48,10.58,4.69,20.88,11.85,29.45,2.15,2.57,5.62,6.55,8.35,8.24l13.72,8.5,19.5,10.7Z"/>
  <path class="cls-5" d="M687.82,850.24l.62-3.6c27.01-13.94,51.97-32.14,74.55-52.47.61.27,1.81,2.08,1.39,2.48l-1.41,1.37c-22.94,20.8-48.08,37.64-75.16,52.21Z"/>
  <path class="cls-13" d="M283.76,542.64c-12.45,33.21-14.09,71.13,5.99,101.42l-2.25.28c-8.36-12.29-13.63-26.56-15.01-41.92-.71-7.86-1.38-15.24.04-22.95l4.66-25.28c.37-2.01.4-4.79,1.34-6.6l3.79-7.33,1.44,2.38Z"/>
  <path class="cls-6" d="M729.31,506.17l-2.47-.68c12.75-21.56,11.35-47.05-5.13-66.41l-21.5-21.22c2.5-1.03,4.31,3.66,5.24,2.5l1.22-1.51c7.49,11.35,18.33,16.99,25.79,31.56,9.28,18.09,7.89,39.45-3.16,55.76Z"/>
  <path class="cls-15" d="M562.65,186.42c.4,1.34.54,3.86-.12,4.84-.57.84-2.15,2.31-3.27,2.85-2.68-1.13-6.29-1.61-8.79-3.41-2.95-2.12-8.41-3.21-11.78-2.93l-1.4.12-4.91-1.82c.19-3.73,1.6-7.19,5.19-8.53,8.66,1.74,17.41,4.34,25.09,8.89Z"/>
  <path class="cls-10" d="M850.56,320.27l-2.32,1.35c-12.91-24.84-28.73-48.02-46.99-69.92l-8.43-10.11-.28-.73c-2.4-2-5.7-4.79-7.73-7.45-2.52-3.31-4.14-5.36-8.61-4.7-5.45.8-9.35-3.67-8.9-8.27.52-5.34,4.44-8.41,9.38-7.57,5.57.95,8.23,5.99,5.91,11.64-.49,1.2.46,3.5,1.27,4.44l9.58,11.09.57.46,10.08,10.45c18.19,21.59,33.69,44.76,46.47,69.32ZM781.21,220.78c0-3.3-2.67-5.97-5.97-5.97s-5.97,2.67-5.97,5.97,2.67,5.97,5.97,5.97,5.97-2.67,5.97-5.97Z"/>
  <path class="cls-11" d="M412.33,281.23l.41,3.86-.87.81c-.78,10.58-.4,20.95,1.89,31.75.38,1.78-.36,3.9-2.47,4.14-5.44-16.17-8.57-33.2-5.58-50.8,2.09,1.88,3.02,5.33,3.55,8.13l3.06,2.1Z"/>
  <path class="cls-17" d="M357.58,124.43l-.87-2.78c24.9-10.77,49.84-18.81,76.94-23.9.85.11,1.72,1.15,2.2,2.6-27.09,5.18-53.1,12.8-78.27,24.08Z"/>
  <path class="cls-22" d="M917.98,510.21l-2.95-1.87-4.12-2.43-1.72-4.68.96-3.7.88-2.29,3.16-1.64,1.92-6.22,4.46,6.45,7.93-5.21-4.97,6.21c-.28.55-.7,2.62-.11,2.78l2.7.77,10.17,1.65-13.83,2.34,3.81,7.08-5.45-3.31-2.84,4.05Z"/>
  <path class="cls-20" d="M301.51,752.54l.88-2.32c2.41,6.46,7.94,10.7,14.91,12.53,10.59,2.78,20.8-.71,29.01-7.87,13.5-11.78,13.13-29.86,2.48-44.59,6.79,4.26,10.02,12.65,10.41,20.45.8,15.9-11.32,30.38-26.37,34.44-9.98,2.69-19.89.83-26.95-6.07-2.07-2.02-3.32-4.59-4.38-6.58Z"/>
  <path class="cls-12" d="M108.63,508.02l-1.6,4.08-1.97-4.06c-2.82-1.55-4.73-3.74-6.37-6.58l2.52-4.34-5.45-8.43,7.34,5.18,4.82-5.63.76,3.75c.15.73,2.24,1.47,2.91,1.15l7.28-4.89-6.06,7.62,3.72,4.07-4.49,5.85-3.41,2.24Z"/>
  <path class="cls-13" d="M707.43,399.52c-.45-.34-.74-.52-.68-.76l.34-1.26c10.56-8.85,11.25-27.05,2.51-39.32-8.46-11.88-21.51-18.94-35.26-22.52l-2.01-.05,3.08-1.71c14.06,2.68,26.8,10.17,35.85,21.71,10.68,13.62,9.63,34.23-3.83,43.91Z"/>
  <path class="cls-17" d="M565.51,412.76c-4.64,3.3-10.14,5.3-16.26,6.68-11.73,2.65-22.92,9.32-26.97,20.84l-5.63,16.01c-1.68.84-1.67,1.67-1.82.77-.05-.32-.24-1.58-.54-1.58,3.16-18.84,12.73-34.05,32.4-38.57,6.17-1.42,11.66-3.36,16.93-6.15l1.89,2Z"/>
  <path class="cls-15" d="M489.61,527.62c-.55,6.86-3.88,11.75-1.08,20.8l5.3,17.11c.39.92,2.02,3,3.15,1.27l1.03,6.67c.19,1.25-1.55,3.26-2.31,4.26l-3.19-2.09c.37-1.26.01-4.51-.54-5.93l-8.09-20.73-1.41-.56c1.02-1.47,1.2-4.77.53-7.14l-1.76-6.25c1.04-1.05,2.62-3.47,3.15-5.6l.36,2.58c.15,3.13,1.71-3.73,4.87-4.39Z"/>
  <path class="cls-8" d="M665.39,472.54l.04,4.08-1.27-.73c-.24-.18-.55-.19-.64.1-.1.31-.42,1.5-.38,1.35l-3.05,3.88c-1.26,1.6-2.55,3.38-3.83,4.37.42-1.66,1.15-3.18,2.2-5l4-6.93c.42-.73,2.06-1.27,2.93-1.13Z"/>
  <path class="cls-8" d="M570.08,409.91l6.73,2.42c13.28,4.77,23.55,14.49,30.66,26.15l4.22,6.92,3.51,7.4,9.62,19.43,2.43,4.04,8.32,12.06c-.79-.06-2.67-.94-3.21-1.65l-7.45-9.79c-5.17-6.79-7.29-15.63-11.58-23.29l-4.06-7.25-3.84-6.62c-8.2-14.16-28.08-29.53-38.69-27.23l3.34-2.59Z"/>
  <path class="cls-8" d="M656.26,485.6c-.33,1.34-2.06,3.23-3.64,4.06l-8.76,4.62c-.45,1.6-.4,5.24-.13,6.57l-3.17,1.22c-.61.23-.31,1.98-.4,2.69l-4.57-.96,5.52-3.97c.8-.58,1.73-2.82,1.42-3.75-1.02-3.06-3.56-2.77-6.98-7.74,3.11,2,8.82,4.21,12.38,2.06l8.32-4.79Z"/>
  <path class="cls-21" d="M658.33,320.97l3.13,5.75c1.39,2.42,4,5.2,6.67,5.75l.74,1.79-3.64,1.03c1.44,5.77,2.14,10.29,1.28,15.17l-2.49-.44c1.25-6-.94-17.13-6.04-21.37-1.85,5.92-5.29,9.95-9.14,14.86l-3.59-1.62-.89.35-3.14-.45c5.96-2.43,8.18-8.13,9.41-13.95l3.05-4.54,2.54,3.84.88-6.14,1.22-.05Z"/>
  <path class="cls-26" d="M685.09,391.68l1.43,1.22c-13.03,22.34-47.83,13.6-62.19.73l-9.03-7.96-.81-3.43c-.02-.34.04-1.44-.13-1.81l3.47,3.82c10.3,11.56,24.97,18.72,40.33,19.53,11.35.59,20.97-3.17,26.93-12.09Z"/>
  <path class="cls-26" d="M620.4,603.54l2.88,2.02,9.09,6.06,2.93,1.95,1.37,1.01-2.47,1.09c-8.41-4.41-16.23-9.77-23.68-16.32l-8.53-7.5-8.51-8.5-12.26-12.81c3.47-3.31-7.63-9.7-7.67-9.63l-.99,1.78c-.43-.39-.66-1.7-.58-2.27.2-1.39-.87-3.44-2.12-4.65l-1.48-1.47c-.53-1.67-3.08-3.72-4.91-4.5-.76-3.19-3.84-6.27-6.83-7.51l-2.12-.88-.82-2.06-9.36-7.86,5.32,1.7,3.37,1.41,2.52-8.1,1.21-5.05,2.83-13.51c.08-.36.81-1.74.96-2.02.23-.43.85.46,1.86,1.61l-5.85,25.11c-.67,2.88-1.6,4.63,1.12,6.68,15.74,11.82,33.47,43.64,62.73,64.24Z"/>
  <path class="cls-5" d="M660.78,118.57l-2.96,1.74c-22.17-10.19-45.42-14.04-69.55-21.78,25.52,1.61,49.29,11.01,72.51,20.04Z"/>
  <path class="cls-5" d="M674.78,746.26l-14.02-32.3-14.7-26.31c-3.54-6.33-6.43-13.04-6.58-20.39l6.53,14.39,16.08,28.95c5.17,11.37,12.03,21.89,12.68,35.66Z"/>
  <path class="cls-17" d="M537.41,215.55l1.84,2.35c-14.95,2.74-29.79,7.72-40.88,18.66l-12.58,12.41-3.18-3.34c6.78-2.22,19.02-23.81,48.8-29.07l3.12-.55,2.89-.46Z"/>
  <path class="cls-15" d="M302.72,319.86l8.84,5.15c4.97,2.89,12.66,4,17.96,3.5l3.16,1.53-4.69,2.55c-9.74,3.27-20.72-.15-29.48-5.59l1.14-3.34.48-2.89c.13-.76,1.69-.79,2.58-.92Z"/>
  <path class="cls-5" d="M325.39,140c-20.47,11.13-40.39,23.46-58.49,38.56l-.75-3.17c18.32-14.83,37.97-27.27,58.84-38.5l.41,3.1Z"/>
  <path class="cls-26" d="M336.9,434.66c.4,4.29,2.82,11.13,6.11,14.22,3.59,3.37,7.72,5.57,11.42,7.57l-2.62,1.17c-.37.08-1.42.15-1.27.5l.79,1.74c3.43,7.51,5.79,14.86,5.44,22.67l-2.1-.06-.64-5.17c-1.31-10.58-5.55-20.47-14.35-26.77l-5.06-2.28-8.56-1.1-.36,3.41-2.99-1.08-1.62-.58c-.29-.1-.35-1.18-.43-1.49l1.95-.95,3.26-1.02,11.86.72-2.22-6.54-.94-4.05-.37-2.08,2.7,1.18Z"/>
  <polygon class="cls-7" points="661.76 549.33 659 557.44 659.11 561 653.49 570.68 639.86 600.02 635.3 613.58 632.36 611.63 634.28 606.34 651.57 567.63 659.54 548.54 661.76 549.33"/>
  <path class="cls-5" d="M740.28,632.4l-.88,2.21-9.46-5.35-.62.63-.52,1.54c-.28.82-6.08-5.11-12.5-7.9-14.96-6.49-30.95-15.2-35.08-30.31l.93-.21c6.51,13.57,18.1,21.19,32.85,26.68,9.14,3.4,17.53,7.44,25.27,12.7ZM728.79,628.9l-1.24-.07,1.24.07Z"/>
  <path class="cls-18" d="M372.26,142.76l.68-3.31c20.36-7.9,40.92-14.31,62.44-18.94l2.19.9c.39.16-.36,1.33-.74,1.87-22.2,4.57-43.37,11.19-64.56,19.48Z"/>
  <path class="cls-12" d="M514.39,884.27l3.46,1.2c.86.3.65,3.04.6,3.64l3.05,4.43-2.14.55c-1.03,2.5-2.35,4.2-4.99,4.9l-4,1.07-.86-.82-3.65-4.68-3.26-1.33-.8-1.45,4.75-2.48c.26-1.98,1.27-3.18,2.97-4.18l.75-1.86,4.12,1.01Z"/>
  <path class="cls-6" d="M612.43,716.28l27.59,19.41,9.31,8.49c5.23,6.11,10.52,11.8,13.09,18.77l-2.18,1.37c-3.97-7.36-8.74-14.86-15.26-20.64l-7.37-6.54-24.36-17.57-.94-.34c-.78-.21-1.77-1.46-1.81-2.27l-.1-1.79c.33.16.66.21.87.31l1.15.81Z"/>
  <path class="cls-6" d="M555.25,640.52l-2.12.04c-.53.04-.69,1.27-.82,1.89l-10.19-25.82.32-2.12h1.88c1.05,3.23,2.32,6.67,4.15,10.09l-6.37-38.08,1.18-1.04,6.78,34.33,2.94,12.84,2.26,7.88Z"/>
  <path class="cls-6" d="M543.24,612.48l.27.9-1.08,1.13-1.66-1.32c-.35-.28.78-.75,1.22-.77l1.24.06Z"/>
  <path class="cls-7" d="M484.24,379.72l.39,7.78.07,1.65c.01.29.58.31.6,0l.12-1.55.06-1.01.95-3.97.73-8.06c.82.27,1.32,1.49,1.32,2.08v3.97c-1.15,2.93-1.21,7.02-.26,10.14,1.4,4.65,2.58,11.79,7.7,14.11,10.71,4.86,17.62,9.49,15.04,21.93-1.95-19.77-14.18-14.48-22.35-25.15-5.14-6.7-6.95-13.62-6.11-22.14l1.05-4.83.67,5.03Z"/>
  <path class="cls-10" d="M754.63,692.71l-2.33-.09.96-1.22.87-1.28c6.85-12.95,7.97-29.65-1.44-42.27-3.74-5.02-8.18-10.35-13.28-13.24l.88-2.21c21.79,14.8,29.42,39.12,14.35,60.31Z"/>
  <path class="cls-19" d="M563.79,769.04c-21.1-14.78-47.99-17.44-70.82-3.22-3.28,2.04-7.66,3.48-12.26,5.09,9.12-7,20.42-13.72,32.83-15.26l23.87-.5c9.34,2.96,19.71,4.38,26.38,13.89Z"/>
  <path class="cls-29" d="M636.98,638.47l1.25,5.85-.32,18.85-1.96,9.88c-1.84,9.31-1.8,17.75-.83,27.51-2.36-5.08-3.51-11.32-2.76-17.27l3.26-25.99c1.23-9.8.06-17.09-1.31-15.94l-1.03.87-1.71-.9-7.27-1.87,10.08-2.96,2.6,1.98Z"/>
  <path class="cls-11" d="M583.68,200.38l-.9,3.22c-.18.67-1.66,1.09-2.59,1.49-6.19-4.8-13.69-7.93-20.93-10.98,1.12-.54,2.7-2.01,3.27-2.85.66-.98.53-3.5.12-4.84l12.03,7.13,9,6.83Z"/>
  <path class="cls-23" d="M898.14,635.09l-2.27-1.44c6.14-18.37,10.06-37.11,14.42-56.03.57-.17,2.84.55,2.68,1.28l-.61,2.74-12.3,48.63-1.91,4.82Z"/>
  <path class="cls-23" d="M559,587.02c.78.63,1.78,2.41,2.17,3.74,5.61,19.49,12.92,37.7,21.5,55.5l-1.24,2.12c-10.69-19.95-17.81-41.51-25.07-62.92l2.64,1.57Z"/>
  <path class="cls-15" d="M335.88,257.61l-.38,2.24-1.82-.22-2.98-.89-1.01-.04c-2.27-1.13-5.77-1.01-8.11-.11-4.96,1.9-10.73,2.76-14.76,6.19-2.54-.06-4.22-2.56-5.21-5.51,10.74-6.39,22.76-6.63,34.28-1.67Z"/>
  <path class="cls-27" d="M610.66,231.56c.1.63,1.04,1.97.6,2.44l-1.72,1.84-10.13-14.05c-2.53-3.38-5.72-6.23-9.1-8.84l-10.12-7.85c.93-.41,2.41-.83,2.59-1.49l.9-3.22c10.57,8.02,18.81,19.33,25.87,31.04l1.11.13Z"/>
  <path class="cls-7" d="M636.98,638.47l-2.6-1.98,18.53-13.84c-7.54-2.08-13.01-3.98-18.73-6.98l2.47-1.09,15.34,5.77c.54.2,2.73-1.12,2.54-1.66l-1.16-3.25-5.16-12.61c5.49,4.19,7.64,10.76,8.64,17.29.35,2.31-3.88,5.65-5.6,7.03l-14.28,11.3Z"/>
  <path class="cls-12" d="M537.57,177.53c-3.59,1.34-5,4.81-5.19,8.53l-9.95-1.21-7.83.87,2.61-5.2c.58-.88,1.07-3.47,2.1-3.54l4.18-.26,5.03-1.01,9.06,1.82Z"/>
  <path class="cls-24" d="M518.03,529.87c.36.51,1.97,2.35,1.53,1.91-.33-.33-2.31,1.42-2.54,2.01l-7.76,20.11c-4.64,12.01-1.07,13.18-6.59,17.02l-1.74-1.13c3.57-3.11,4.63-7.14,3.06-11.56l-3.46,5.35-1.73-3.98,1.55.13c6.34-4.83,10.22-10.62,11.18-18.37l-7.6,11.21c-1.22-.33-2.91-.1-2.7-.8s.77-2.25,1.11-2.75l1.27,1.49,7.36-11.6c3.51-2.6,4.12-6.33,3.69-10.47l1.26,2.99c.27.64,2.17-.89,2.1-1.57Z"/>
  <path class="cls-10" d="M660.24,764.32l2.18-1.37c11.3,18.41,11.49,43.59-2,61.44,4-10.73,8.64-20.68,7.84-32.22-.69-9.92-3.55-19.55-8.03-27.85Z"/>
  <path class="cls-7" d="M605.21,245.81c2.06,5.34,4.25,6.64,2.86,10.41l-2.87-2.78c-.56-.55-2.64-.5-3.64-.56l-.87-5.51c-1.38,1.39-2.36,4.4-1.33,5.19l5.05,3.83c-2.16.2-7.55-1.86-8.07-4.29l-2.25-10.52,7.44,3.03-8.27-9.69,1.22-2.42c4.49,3.32,8.7,8.05,10.72,13.31Z"/>
  <path class="cls-4" d="M447.72,551.48l-.3,1.12c2.67,4.46,4.59,9.09,3.33,14.77l4.85-.16.23,2.42-3.28,1.12,8.06,8.56c-.11,1.92-1.56,4.14-2.86,5.13l-3.11,3.91-.24-5,3.3-2.9-11.29-12.94,1.1-1.15c3.9-4.02-1.12-11.84-4.94-12.49l-4.3-.74c-.82-.14-.45-1.57.14-2.62,5.54.12,7.3,2.37,9.3.96Z"/>
  <path class="cls-9" d="M287.01,313.6c-7.45-11.9-7.66-27.09-.54-39.07l-.22,9.74c-.66,5.2-.89,11.8.12,16.89.92,4.63,1.72,8.45.64,12.44Z"/>
  <path class="cls-7" d="M582.37,223.54l-2.19,2.62c-10.1-6.65-30.21-10.23-40.94-8.26l-1.84-2.35c15.27-2.41,31.59-.04,44.97,7.99Z"/>
  <path class="cls-28" d="M482.6,245.62l3.18,3.34-8.62,10.96-.88,2.3c-.22.57-1.67.43-2.7.33l9.2-13.85c-3.98.3-8.32,3.33-9.43,6.58l-2.77,8.29-1.76-1.75.5-4.13-3.49,6.07-2.81,5.39-.77-1.53c1.16-9.73,11.12-18.97,20.36-21.99Z"/>
  <path class="cls-2" d="M565.96,674.54l2.08-.9,13.58,28.45c4.83,9.43,11.46,16.73,18.25,25.26-3.54-1.06-6.65-4.01-8.56-6.91l-10.7-16.25-14.65-29.65Z"/>
  <path class="cls-13" d="M626.15,792.01l-.33,1.34-4.97-4.74-8.76-7.97-21.47-15.69c-1.01-.74-2.66-2.99-3.27-3.84l1.31-1.13,17.54,13.48,15.76,12.31,2.85.37c-.11,2.45.22,4.45,1.34,5.86Z"/>
  <path class="cls-9" d="M442.58,218.77l-3.05,4-1.8-.29-2.2-4.47c1.22-3.42.82-6.71-1.23-9.33l3.22-3.96c3.7.16,5.07,2.38,6.22,6.12.95,3.09.64,5.56-1.17,7.93Z"/>
  <path class="cls-18" d="M670.43,506.53l-1.17,12.05c-1.05,10.77-4.2,21.06-7.5,30.75l-2.22-.79c3.78-11.38,5.77-23.19,7.97-34.85l.99-5.25c.07-.39-.01-1.85.36-1.88l1.57-.03Z"/>
  <path class="cls-19" d="M541.46,531.5l1.92.09.94-.1,9.36,7.86c-.37.05-1.31.93-.92,1.14l1.74.92,2.12.88c.94,3.15,3.83,6.21,6.83,7.51,1.83.79,4.38,2.84,4.91,4.5l.65,2.04c.08.26.36-.14.83-.57,1.25,1.21,2.33,3.26,2.12,4.65-.5.31-2.09-.77-2.69-1.35l-18-17.32-13.98-11.34c.62-.46,1.65-1.04,2.09-.66l2.07,1.75Z"/>
  <path class="cls-21" d="M519.74,726.33l-1.19-2.05c-.19-.72-.15-2.24-.02-2.98l.91-3.04,2.18-16.96,1.3-11.87.69-7.15.94-3.93.74,9.76-.98,14.3-4.56,23.92Z"/>
  <path class="cls-28" d="M356.71,121.65l.87,2.78-6.51,2.92-25.67,12.65-.41-3.1c10.57-5.69,20.74-10.49,31.73-15.24Z"/>
  <path class="cls-20" d="M397.12,875.65l.56-2.64,39.69,10.93c-2.91,1.79-5.92,1.15-8.8.36l-31.45-8.64Z"/>
  <path class="cls-14" d="M625.82,793.35l.33-1.34c10.51,13.27,13.1,32.53,2.42,46.42,5.28-13.38,6.31-30.92-1.86-41.65-.55-.72-1.03-2.6-.89-3.43Z"/>
  <path class="cls-8" d="M782.15,783.03c1.64,3.02,1.84,6.58.72,9.25-1.07,2.53-5.06,5.14-8.14,4.65-3.74-.6-6.67-3.93-7.27-6.5-1-4.27.99-8.03,4.18-9.44,3.39-1.5,8.73-1.23,10.5,2.04ZM774.62,782.55c-4.89,1.33-6.18,4.61-4.98,7.78s4,4.54,7.03,4.05c3.56-.58,5.18-3.73,4.69-7.58-.29-2.22-3.96-5-6.74-4.25Z"/>
  <path class="cls-7" d="M555.25,640.52l3.26,8.8,10.13,19.84-.27,1.72c0,.35-1.14.59-1.34.3l-.97-1.42-3.78-4.27-9.98-23.02c.14-.63.29-1.85.82-1.89l2.12-.04Z"/>
  <path class="cls-2" d="M630.65,749.44c6.08,4.06,11.9,7.17,15.73,13.06l-16.6-11.7c-10.45-7.37-23.04-12.24-30.13-23.02l30.99,21.67Z"/>
  <path class="cls-10" d="M255.49,794.06c-3.12,3.53-11.54,3.16-14.06-2.13-1.24-2.59-.43-6.19,1.33-8.81,2.66-3.95,7.96-3.76,11.49-.98,3.19,2.51,4.52,8.22,1.25,11.92ZM243.19,790.13c1.1,3.5,5.16,4.74,7.92,3.98,2.47-.68,3.84-3.4,3.87-6.42.02-2.15-2.54-5.03-5.34-5.24-3.68-.27-7.66,3.83-6.45,7.68Z"/>
  <path class="cls-5" d="M344.89,404.8c-7.1,7.71-9,19.22-7.99,29.86l-2.7-1.18c-1.52-11.45,2.57-23.99,10.4-32.95l.3,4.27Z"/>
  <path class="cls-7" d="M610.41,715.16l.1,1.79-11.12-7.64-15.8-15.27c-.82-.8-1.98-3.03-2.32-3.87l1.37-1.02,7.68,8.34,20.09,17.66Z"/>
  <path class="cls-21" d="M372.94,139.46l-.68,3.31c-10.12,4.51-20,8.44-29.32,13.39-.23-.5-2.37-.35-2.16-.7l.87-1.62c10.13-5.22,20.45-9.81,31.28-14.38Z"/>
  <path class="cls-29" d="M717.34,721.47c-5.47,3.32-10.28,8.46-8.9,15.63.78,4.02,3.2,8.08,6.19,9.5,3.87,1.83,7.23,1.28,11.81.9-4.53,3-10.71,2.55-14.96-.81-3.84-3.04-5.66-8.05-5.36-13.46.4-7.06,5.27-11.8,11.41-13.96l-.19,2.22Z"/>
  <path class="cls-21" d="M664.24,290.68l.16-1.92c5.46-3.44,8.03-7.17,8.19-13.97.14-6.45-1.5-11.81-6.15-15.8l.98-1.52c6.39,3.41,8.64,10.91,7.92,18.59-.61,5.9-4.68,12.51-11.1,14.61Z"/>
  <path class="cls-2" d="M572.01,783.66c8.48,14.04,10.11,31.58.88,44.86l-1.52-1.38c8.88-13.72,7.1-29.43-1.84-42.85l2.48-.64Z"/>
  <path class="cls-10" d="M507.65,787.57l-4.18,4.6-6.36,2.83-9.34,6.36-1.89-3.17c4.86-2.07,11.49-7.02,15.33-9.67.36-.25,1.73-.7,2.15-.85s-.65-1.32-.95-1.69l3.19-1.72,2.04,3.32Z"/>
  <path class="cls-22" d="M301.61,259.27c.99,2.95,2.67,5.44,5.21,5.51l-7.06,6-1.31.08c-1.89-.02-4.29-2.08-6.15-4.24,2.84-3.09,5.94-5.35,9.31-7.35Z"/>
  <path class="cls-10" d="M665.43,476.63c2.74,7.08,3.6,14.64,4.34,22.68l.66,7.22-1.57.03c-.38.03-.29,1.49-.36,1.88l-.99,5.25c.5-12.31-.36-24.52-4.36-36.34-.04.15.28-1.04.38-1.35.09-.29.4-.29.64-.1l1.27.73Z"/>
  <path class="cls-5" d="M319.58,731.14c.02.59-1.56.96-2.27,1.04-4.7.52-13.74,3.38-14.3,10.31l-.62,7.73-.88,2.32c-2.54-4.79-2.43-9.75.72-14.75,3.88-6.16,10.76-8.61,17.34-6.65Z"/>
  <path class="cls-19" d="M652.47,314.41l-2.97,6.31-3.72-7.62c-.68-1.39-2.98-3.15-4.46-3.33l-.09-2.09-.11-3.05,5.27-.72c-1.65,2.71,3.76,4.19,6.07,10.5Z"/>
  <path class="cls-19" d="M641.33,309.77l1.53,5.28c1.84,6.35,2.43,12.47-1.34,17.75.76-5.89,1.74-11.22-.18-17.08-2.09,11.13-7.01,20.34-17.4,22.22l-.44-.63c11.14-4.47,16.89-15.9,15.8-27.61l1.04-1.13.99,1.19Z"/>
  <path class="cls-13" d="M705,405.82l1.22,11.11-2.37-6.22c-5.56,11-14.3,22.34-27.58,23.75,4.07-2.27,9.35-3.89,12.76-7.01,7.85-7.19,12.26-16.53,15.44-25.85l.51,4.23Z"/>
  <path class="cls-13" d="M568.65,669.15l14,20-1.37,1.02c-.28-.2-2.04-1.6-2.5-2.21l-10.72-14.33-2.08.9-3.67-9.06,3.78,4.27.97,1.42c.2.29,1.33.06,1.34-.3l.27-1.72Z"/>
  <path class="cls-2" d="M640.15,416.64c17.04,9.83,27.97,11.51,47.35,6.14-14.85,8.58-34.66,5.71-47.35-6.14Z"/>
  <path class="cls-2" d="M581.42,648.38l1.24-2.12c6.66,13.81,16.13,25.5,25.7,38.37-11.38-10.32-19.89-23.09-26.95-36.25Z"/>
  <path class="cls-2" d="M402.72,760.67l1.45,4.02-5.14,5.01-7.3,6.93c-2.67,2.54-3.63,8.07-4.67,11.55-2.61-1.09.87-11.26,3.35-13.93l10.64-11.46.24-1.77,1.44-.34Z"/>
  <path class="cls-23" d="M510.92,959.31c3.41-.98,6.69,1.44,7.41,4.44.81,3.4-.74,7.02-4.46,8.15-3.2.97-6.47-.89-7.7-4.96-.79-2.6,1.04-6.56,4.76-7.62ZM509.6,962.43c-1.45.65-1.43,5.1-.24,6.12,1.36,1.16,4.37,1.52,5.5.42,1.6-1.55,1.93-4.58.77-5.63-1.29-1.16-4.32-1.67-6.03-.91Z"/>
  <path class="cls-16" d="M586.45,344.79c-1.23,9.14,1.01,17.94,7.77,26.17,1.26,1.53,3.28,2.55,4.85,2.14.11.81-.86,1.93-1.59,2.46-6.16-3.09-11.04-9.34-12.14-16.91l-2.15-14.83c1.07-.26,2.7.36,3.26.98Z"/>
  <path class="cls-18" d="M515.24,463.52l-1.12,9.06-.84,15.1c-.05.93-.4,3.15-1.06,2.8l-1.17-4.98c-.97-4.12-1.07-10.82.49-14.7,1.19-2.96,1.07-4.96-.67-7.47l1.94-.2,1.24-3.8,1.19,4.2Z"/>
  <path class="cls-2" d="M689.46,480.55c4.39,7.99,6.66,25.15,3.56,34.84-.82-12.61-1.08-23.74-4.9-34.73l.47-1.54,1.07.25-.19,1.19Z"/>
  <path class="cls-2" d="M659.22,564.52l1.25-.11c1.77,7.29,3.86,14.26,7.94,20.99,2.25,3.71,4.89,6.72,5.82,11.35-8.27-9.83-14.63-20.28-15.01-32.23Z"/>
  <path class="cls-2" d="M367.57,799.64c.15,3.78,1.91,7.53,4,10.6,6.14,8.99,15.57,11.6,26.32,14.52-15.29.39-30.64-9.85-32.1-25.91l1.79.78Z"/>
  <polygon class="cls-29" points="522.26 653.84 524.54 678.36 523.59 682.28 522.91 689.43 522.2 675.48 521.26 664.32 520.1 653.54 522.26 653.84"/>
  <path class="cls-13" d="M575.58,330.16l-1.1,2.19-2.48,9.02c-4.19.93-8.2-.76-10.74-3.77l1.15-.82c1.46,1.11,4.96,3.01,6.77,2.77,5.37-.7,2.82-13.34-3.62-16.78l.88-2.1c3.39,2.79,6.85,6.27,9.15,9.49Z"/>
  <path class="cls-21" d="M327.99,332.59l4.69-2.55-3.16-1.53c8.71-.81,15.21-5.29,22.42-10.86-4.18,7.88-15.38,14.44-23.95,14.94Z"/>
  <polygon class="cls-27" points="660.65 465.44 659.03 466.75 653.22 456.78 636.03 434.33 636.88 433.6 646.67 445.33 660.65 465.44"/>
  <path class="cls-10" d="M533.56,602.75c-.66,3.57-3.19,9.49-4.87,13.57l-3.34,8.11-3.05.14,10.05-24.21c.46.15,1.3,1.86,1.2,2.4Z"/>
  <path class="cls-4" d="M527.69,585.79l-3.4,11.04c-3.84-4.6-4.21-13.07-.17-15.4,1.12-.65,4.01,2.93,3.57,4.36Z"/>
  <path class="cls-15" d="M657.35,318.77l-.24,2.25-.88,6.14-2.54-3.84-3.05,4.54c-.14-2.01-.35-5.51-1.14-7.13l2.97-6.31,4.88,4.35Z"/>
  <path class="cls-19" d="M660.47,564.41l-1.25.11-.11-3.52-.11-3.56,2.57-.72c10.41-9.55,15.03-21.82,20.55-34.53-1.42,11.02-6.27,21.52-13.81,29.24l-5.5,5.63c-1.95,2-2.95,4.85-2.34,7.35Z"/>
  <path class="cls-19" d="M367.57,799.64l-1.79-.78c-.62-6.84,1.43-14.5,6.14-19.23l9.78-9.82.83.9-11.33,11.79c.46,5.03-4.17,3.35-3.63,17.15Z"/>
  <path class="cls-17" d="M249.5,381.35l-.15,2.16c-.03.38-1.05,1.32-1.11.95l-.48-2.85-.65-3.82c-.18-1.03-3.09-1.34-4.33-1.51,3.27-2.13,4.74-3.58,5.75-7.71l1.69,5.18,6.51,2.55-5.44.41c-1.31.1-1.69,3.15-1.79,4.64Z"/>
  <path class="cls-2" d="M612.54,655.21l-1.14,1.16-10.46-9.36c-4.57-5.38-9.23-10.2-11.55-16.83,7.39,9.37,14.11,18.08,23.15,25.02Z"/>
  <path class="cls-8" d="M633.28,642.22l-10.06,12.77c-3.2,3.93-8.61,4.26-11.82,1.38l1.14-1.16c2.89,2.22,7.29,1.02,9.69-1.97l9.34-11.92,1.71.9Z"/>
  <path class="cls-17" d="M736.83,293.38l-2.41-6.86-4.18-1.34c4.18-.52,6.06-3.95,6.44-8.45.42,3.86,2.17,6.41,5.71,8.62-3.46,1.03-5.76,2.04-5.56,8.04Z"/>
  <path class="cls-8" d="M501.35,392.7c-6.58-8.71-10.77-18.63-10.61-29.32l10.61,29.32Z"/>
  <polygon class="cls-4" points="594.49 232.5 593.27 234.92 589.13 232.04 580.19 226.16 582.37 223.54 594.49 232.5"/>
  <polygon class="cls-10" points="452.6 645.34 459.39 662.42 457.84 662.47 453.77 656.11 449.29 645.12 452.6 645.34"/>
  <path class="cls-10" d="M643.1,237.56l-1.66,1.17c.21-3.83-.7-9.31-3.68-12.05l-4.67-3.54.4-2.59c6.84,2.97,11.02,9.41,9.61,17.01Z"/>
  <path class="cls-2" d="M257.27,577.61c-3.13.31-6.3-1.01-7.11-3.01s-.24-5.82,1.5-7.45c1.84-1.72,5.77-2.26,7.4.68-2.61-.23-5.31-.28-6.47,1-1.62,1.79-1.04,6.36,2.09,7.1,2.76.65,8-1.94,9.83-4.56l9.06-13.03c-1.13,6.03-5.57,10.49-9.82,15.06-1.68,1.8-3.3,3.88-6.48,4.19Z"/>
  <path class="cls-10" d="M323.76,732.38l1.37.38c.17.05.28-.09.79-.62.95,2.12,1.83,4.96,1.82,7.58,0,1.94-2.82,5.2-4.5,5.75l1.72-6.62c.4-1.55-2.07-4.45-3.56-5.01l-4.1-1.65c.71-.08,2.29-.44,2.27-1.04l4.19,1.24Z"/>
  <path class="cls-3" d="M234.92,611.06l-1.83-.33c-.5-.09-1.35,1.02-1.59,1.43l-5.04-4.46,4.1-4.69,6.21,4.93-1.85,3.13Z"/>
  <path class="cls-2" d="M519.74,726.33c-1.66,8.69-4.64,17.14-9.12,25.1l7.93-27.15,1.19,2.05Z"/>
  <path class="cls-14" d="M502.55,690.15c.51-1.35,1.88-3.12,3.18-4.63,5.34-8.44,7.3-17.81,9.48-27.24.24,9.85-4.53,26.54-12.65,31.87Z"/>
  <path class="cls-14" d="M255.51,635.87l-.79-1.85c2.75-2.24,6.86-4.99,10.74-2.36.82.55,2.15,2.31,2.44,3.2.23.71-1.38,2.24-1.71,2.36-.41-2.18-2.15-4.42-3.72-4.02-4.27,1.09-5.27,5.47-6.04,4.15l-.93-1.48Z"/>
  <path class="cls-23" d="M690.1,689.48l1.19,10.65c.09.79-.54,2.65-1.14,3.37-3.36-4.95-3.8-10.87-1.14-16.14l1.09,2.12Z"/>
  <path class="cls-2" d="M695.6,576.36l-1.7,1.36c-2.73-6.72-2.89-13.89-3.1-21.67l2.73-.61c-.64,7.13-.66,14.58,2.07,20.92Z"/>
  <path class="cls-8" d="M510.36,900.08l4-1.07-.9,9.02-.53,10.04c-1.43-2.87-1.3-4.4-1.54-6.98l-1.03-11Z"/>
  <path class="cls-8" d="M658.33,320.97l-1.22.05.24-2.25,5.76,1.46c3.02.84,7.14.02,10.19-1.37,5.26-2.39,7.85-6.17,7.07-12.32l2.13,2.13c-.82,8.42-7.71,14.16-16.16,13.2l-8.02-.9Z"/>
  <path class="cls-3" d="M292.68,284.75c-1.61,6.98-1.24,14.12,1.04,20.91-4.93-3.83-5.73-18.2-1.04-20.91Z"/>
  <path class="cls-7" d="M532.38,186.07l4.91,1.82-9.87-.74-17.01-.3c1.27-.5,2.93-.99,4.18-1.12l7.83-.87,9.95,1.21Z"/>
  <path class="cls-2" d="M279.31,519.51c4.02-.17,6.25-1.5,10.3-2.91-2.63,3.49-6.91,4.37-12.29,3.94-1.91-.16-3.77-3.4-3.61-5.49.17-2.3,2.51-4.41,4.88-4.6l-3.07,4.65c-.73,1.11,2.29,4.47,3.79,4.41Z"/>
  <circle class="cls-4" cx="916.61" cy="536.98" r="3.41"/>
  <circle class="cls-4" cx="107.4" cy="536.97" r="3.41"/>
  <path class="cls-15" d="M106.12,460.9c.89-.76,3.99.64,4.47,1.65.55,1.18-.38,3.78-1.61,4.62-.93.63-3.18-.12-4.31-.97-1.04-.78-.2-3.88,1.46-5.3Z"/>
  <path class="cls-8" d="M514.39,884.27l-4.12-1.01,1.35-12.12c.06-.5.23-1.99.22-2.02s1.2,1.43,1.39,1.66l1.15,13.48Z"/>
  <path class="cls-9" d="M520.06,526.11c-1.81-.05-2.7-4.28-1.31-6.94.73-1.4,4.21-.44,5.1,1.46.76,1.65-.58,4.56-3.79,5.48Z"/>
  <path class="cls-8" d="M569.7,408.58l-.45-1.01,11.57-14.04,1.04.87-7.8,10.87c-.89,1.24-3.16,2.98-4.36,3.3Z"/>
  <path class="cls-4" d="M915.66,460.66c1.05-.6,3.63,1.19,3.67,2.35.04,1.25-.87,3.64-1.99,4.22-1.02.53-3.06-.59-3.9-1.73s.23-3.71,2.21-4.84Z"/>
  <path class="cls-4" d="M581.21,570.54l-8.66-7.85.99-1.78c.04-.06,11.14,6.32,7.67,9.63Z"/>
  <path class="cls-5" d="M510.87,463.32c1.74,2.51,1.86,4.51.67,7.47-.09-3.31-1.99-6.12-4.13-9.15l-4.6-6.52,1.84-.8,6.22,8.99Z"/>
  <polygon class="cls-16" points="521.5 893.55 518.44 889.11 536.57 891.78 521.5 893.55"/>
  <polygon class="cls-16" points="506.55 889.3 501.8 891.78 502.6 893.24 488.37 891.7 498.64 890.43 505.55 889.51 506.55 889.3"/>
  <path class="cls-8" d="M509.5,899.25c-3.92.98-6.95,3.55-11.93,7.15l4.75-6.46,3.53-5.37,3.65,4.68Z"/>
  <circle class="cls-4" cx="512.41" cy="932.86" r="3.03"/>
  <path class="cls-21" d="M478.52,348.07c-.5-.06-1.77,2.03-1.89,2.85l-1.11,7.66-.6-4.76.07-10.6c1.06,1.04,2.91,3.43,3.52,4.85Z"/>
  <path class="cls-17" d="M488.51,376.65c0-.59-.5-1.82-1.32-2.08l.56-12.92,1.66.02.18,11.12c.02.94-.49,3.66-1.08,3.87Z"/>
  <path class="cls-19" d="M690.1,689.48l-1.09-2.12c2.54-5.03,7.51-9.82,13.33-7.54-1.94.38-5.46.91-6.38,2.08l-5.86,7.58Z"/>
  <path class="cls-16" d="M514.36,899c2.65-.71,3.96-2.4,4.99-4.9l.82,4.28,5.62,5.8-1.25,1.27-5.32-5.21c-.89-.88-3.49-1.29-4.86-1.23Z"/>
  <path class="cls-29" d="M509.52,885.12c-1.7,1.01-2.7,2.21-2.97,4.18l-1,.2-6.33-10.09c3.49-1.26,4.77,5.36,10.3,5.71Z"/>
  <path class="cls-16" d="M335.51,259.85l.38-2.24c3.8,1.64,7.8,3.25,10.91,7.34l-11.29-5.09Z"/>
  <polygon class="cls-10" points="909.2 501.24 896.98 500.09 910.16 497.54 909.2 501.24"/>
  <path class="cls-10" d="M917.98,510.21c.24,2.8.32,6.29-1.16,9.6l-1.79-11.47,2.95,1.87Z"/>
  <path class="cls-10" d="M663.94,470.75l1.43-.16.02,1.95c-.87-.14-2.5.4-2.93,1.13l-3.43-6.92,1.62-1.31,3.29,5.31Z"/>
  <path class="cls-2" d="M431.78,353.76l4.82,7.14c-3.85-1.93-6.57-4.98-8.28-8.13l3.45.99Z"/>
  <polygon class="cls-6" points="101.21 497.12 98.69 501.46 88.77 500.12 101.21 497.12"/>
  <polygon class="cls-20" points="108.63 508.02 107.09 520.13 105.07 508.04 107.03 512.1 108.63 508.02"/>
  <path class="cls-21" d="M416.53,265.73l-3.34,11.89.77-9.24c.07-.87,2.15-3.16,2.57-2.65Z"/>
  <polygon class="cls-10" points="914.19 493.61 911.04 495.25 905.1 488.36 914.19 493.61"/>
  <path class="cls-7" d="M550.47,190.7l-11.78-2.93c3.37-.28,8.83.81,11.78,2.93Z"/>
  <path class="cls-21" d="M419.64,255.89l-3.4,7.78c-.59-2.36.96-6.95,3.4-7.78Z"/>
  <path class="cls-5" d="M516.65,456.29l-1.41,7.23-1.19-4.2-1.24,3.8,1.48-7.64c.31,0,.49,1.26.54,1.58.15.9.14.06,1.82-.77Z"/>
  <polygon class="cls-5" points="859.47 719.65 856.57 724.05 854.16 722.95 856.5 719.08 859.47 719.65"/>
  <path class="cls-17" d="M488.24,390.76c-.94-3.12-.89-7.21.27-10.14l-.27,10.14Z"/>
  <path class="cls-16" d="M329.69,258.7l-8.11-.11c2.34-.9,5.84-1.02,8.11.11Z"/>
  <polygon class="cls-10" points="666.44 468.5 664.25 468.41 667.1 463.15 666.44 468.5"/>
  <polygon class="cls-18" points="428.65 237.87 424.61 243.81 424.48 241.6 428.65 237.87"/>
  <path class="cls-18" d="M439.53,222.77l-10.99,13.97c-.09-.88.7-2.82,1.27-3.57l7.92-10.7,1.8.29Z"/>
  <path class="cls-2" d="M440.92,366.64l-3.38-4.17c1.59.8,3.15,1.93,4.05,2.78l.63,1.66c1.66.22,1.13.41-.04.52-.68-.4-1.15-.65-1.26-.79Z"/>
  <path class="cls-21" d="M675.41,333.9l-3.08,1.71c-.55-.01-1.55-.45-1.57-.99l.14-1.57,4.5.86Z"/>
  <path class="cls-6" d="M539.33,612.42l-.91-3.94c.94-.09,1.94.7,1.75,1.29l-.85,2.66Z"/>
  <path class="cls-8" d="M666.44,468.5c-.07.56-.78,1.61-1.07,2.09l-1.43.16.31-2.34,2.19.09Z"/>
  <path class="cls-5" d="M335.52,439.6l-.94-4.05.94,4.05Z"/>
  <path class="cls-11" d="M404.39,266.72l1.18-4.05-1.18,4.05Z"/>
  <path class="cls-17" d="M485.5,386.59l.95-3.97-.95,3.97Z"/>
  <path class="cls-6" d="M538.6,607.3l-1.04-3.9,1.04,3.9Z"/>
  <polygon class="cls-21" points="412.74 285.09 412.33 281.23 413.7 280.7 412.74 285.09"/>
  <path class="cls-9" d="M288.58,317.09l-1.89-2.23h1.46c.5.07.38,1.7.43,2.23Z"/>
  <path class="cls-2" d="M518.52,721.31l.91-3.04-.91,3.04Z"/>
  <path class="cls-16" d="M333.69,259.63l-2.98-.89,2.98.89Z"/>
  <path class="cls-21" d="M325.87,445.43l-3.26,1.02c.75-.36,2.44-1.07,3.26-1.02Z"/>
  <path class="cls-7" d="M534.52,216l-3.12.55,3.12-.55Z"/>
  <path class="cls-3" d="M296.76,311.62l-3.24-4.71,3.24,4.71Z"/>
  <path class="cls-3" d="M293.54,280.51l3.22-4.71-3.22,4.71Z"/>
  <path class="cls-17" d="M484.63,387.5l.8.1-.12,1.55c-.02.3-.59.28-.6,0l-.07-1.65Z"/>
  <path class="cls-3" d="M292.76,283.72l.93-1.93-.93,1.93Z"/>
  <path class="cls-21" d="M419.63,254.71l.89-1.96-.89,1.96Z"/>
  <path class="cls-16" d="M688.58,479.11l-.47,1.54-.75-.63c-.26-.19-.04-1.46.27-1.36l.95.46Z"/>
  <path class="cls-2" d="M569.45,783.22l-1.07-.99,1.07.99Z"/>
  <path class="cls-21" d="M422.57,247.74l1.04-.96-1.04.96Z"/>
  <path class="cls-21" d="M421.57,249.74l1.04-.96-1.04.96Z"/>
  <path class="cls-21" d="M420.69,251.77l.92-.99-.92.99Z"/>
  <path class="cls-7" d="M613.25,719.56l-.94-.34.94.34Z"/>
  <path class="cls-7" d="M612.43,716.28l-1.15-.81,1.15.81Z"/>
  <path class="cls-23" d="M693.34,702.4l-1.12-1.13,1.12,1.13Z"/>
  <polygon class="cls-3" points="298.73 271.72 298.46 270.86 299.76 270.78 298.73 271.72"/>
  <path class="cls-3" d="M296.64,274.65l2.14-1.83-2.14,1.83Z"/>
  <path class="cls-16" d="M689.46,480.55l.19-1.19-.19,1.19Z"/>
  <path class="cls-5" d="M682.2,591.45c-.17-.03-.85-.78-.84-1.15.31,0,.89.77.84,1.15Z"/>
  <path class="cls-3" d="M298.77,314.68l-2.14-1.91,2.14,1.91Z"/>
  <path class="cls-18" d="M423.57,245.74l.95-1.05-.95,1.05Z"/>
  <path class="cls-19" d="M476.55,335.6l-.91,3.06c-1.27-6.32-.84-10.44-4.51-18.36-3.42-7.39-4.49-15.22-3.12-22.6,1.15,6.2.65,13.6,3.53,18.87l13.18,24.18c-4.04-3.15-5.63-6.51-8.99-11.36l.82,6.2Z"/>
  <path class="cls-17" d="M482.33,319.82l.4-1.29c2.29-7.32,12.83-10.33,22.94-8.36l-9.87,1.92c-7.42,1.44-8.08,7.28-13.47,7.73Z"/>
  <path class="cls-15" d="M464,318.29l-1.4,1.14-.86-.06c.09-.69-.67-2.06-.95-2.56l-.3-1.08.75-1.2c.21-.35-.46-.62-.99-.81l-.81.22,3.18-10.26c.4-1.55.97-3.24,1.48-4.18l-.19,14.23.1,4.56Z"/>
  <path class="cls-13" d="M561.26,335.66l-3.75-.11-.65-2.71c.48.15,1.09.34,1.42.08l1.4-1.13,1.59,3.87Z"/>
  <path class="cls-21" d="M464.48,324.79l-.81-3.14.81,3.14Z"/>
  <path class="cls-21" d="M472.62,358.67l.05-3.14.74,1.63c.19.41-.58,1.28-.79,1.51Z"/>
  <path class="cls-7" d="M406.58,396.52l-1.04,2.77-2.29.49c-.59.13-1.12,2.17-1.06,2.91.26,3.49,2.57,6.11,4.18,8.9l4.09,7.13c1.2-5.57-4.12-8.68-2.7-17.13l3.15,2.77-1.05,1.5c2.87,3.76,5.13,6.51,9.92,6.89-.51-1.52-1.4-3.63-2.24-4.17l2.19-3.24,8.41,1.79c3.06.65,5.73,3.28,7.61,5.23l-3.02-.15c-4.02-2.23-7.85-3.55-13.65-4.61,1.87,2.98,4.19,5.08,6.59,7.05-4.77,2.35-2.03,6.52-4.98,11.85l-18.14-1.02-6.91.59-1.02,2.69c-.64-1.07-1.1-3.74-.4-3.9l6.52-.99,8.25-1.62-4.89-9.15c-2.19-4.09-5.05-7.38-4.35-12.75.17-1.32-1.7-3.79-2.97-3.77l-12.27.15,4.11-1.13,5.17-.74c6.13-.87,9.02,2.39,12.8,1.66ZM420.92,422.55l-7.8-7.69-1.55,7.99c2.9.91,5.24,1.24,9.34-.29Z"/>
  <path class="cls-5" d="M433.49,400.87l2.94-1.36-3.09-7.56-12.39-2.09c-.38-.06-2.15.98-1.48,1.18l-2.37-1.4c-.51-.3-.02-1.35.02-2.06l14.73,2.27c-1.51-1.76-2.95-3.27-4.08-3.86l1.91-1.61c4.97,2.66,8.01,7.81,9.04,14.26l7.91,3.82c-4.45.43-8.87-.29-13.14-1.59Z"/>
  <path class="cls-26" d="M614.67,276.91c-4.18,16.55-16.42,31.07-33.59,36.31-2.35.72-6.71,1.02-8.78.84l-3.18-.28c-.58-.05-.78,1.19-.91,1.76l-.41,1.84-1.38,3.28-.88,2.1c-1,3.5-3.1,6.79-5.87,9.01l-1.4,1.13c-.32.26-.94.08-1.42-.08-2.01-.65-4.54-1.09-7.39-1.35-5.96-.54-11.05-5.4-16.3-7.15-8.31-2.77-13.23-8.63-20.19-13.12-6.01-3.87-16.38-2.53-22.36-7.65l.8-1.37c.27-.48-.78-2.19-1.25-1.89l-2.08,1.32c-1.42-.45-3.42-2.45-4.87-3.91l2.79-1.96-3.83-3.83,1.28-.32,1.09.08.99.07c2.68,6.77,15.84,13.13,24.19,14.6,8.13,1.43,17.22-.32,24.38-3.97l14.61-7.46-8.26.42c-2.15-.06-3.85.08-6.76.79l-.96-1.68-.1-.96,1.39.02c.28,0,1.46.06,1.33-.19l-.89-1.74,2.12-.96,16.01,1.68c4.34.46,9.99-1.21,14.42-.29,10.87,2.26,21.01-.35,30.3-5.57l1.23,1.74c-5.24,3.45-11.13,5.7-17.99,6.83-12.19,2-20.75-3.33-30.13,2.19l4.23,1.49-.29,1.1c-4.64-.54-9.47,1.57-14.56,3.42l-17.38,6.29c-1.02.37-2.14,1.97-2.3,2.94-.18,1.11,1.13,3.3,2.24,4.86l2.08-4.04c1.3,2.08,2.89,4.18,4.71,4.36,1.46.15,3.9-.92,5.42-1.82,1.86.96,4.41,4.55,6.5,4.85l-.67,1.05-4.41-.97-.56.71c3.9,4.78,11.7,8.33,18.25,7.6,1.8-1.33,3.43-2.1,6.46-1.75l5.77-14.52,1.53-4.02,2.3,3.41c1.67,2.49,17.67-2.48,27.36-10.97,7.57-6.63,12.57-15.49,16.06-24.63l1.54.31ZM533.75,320.07l1.22.12-1.22-.12Z"/>
  <path class="cls-24" d="M488.66,289.47c-.19.24-1.92.31-1.77.66l.47,1.78-1.84-.14-.99-.07.03-1.48c.01-.44-1.4-.2-1.86-.19s.78,1.49.74,1.59l-1.28.32-7.77-7.08c-2.2-2.01-4.44-4.69-6.67-4.64l-1.22-.91-2.9-1.86c-.3-.19-1.41-.82-1.15-1.06l.89-.82,2.39.86c3.45.54,6.84,2.15,9.78,4.28,3.32,1.47,6.59,3.24,9.34,5.56l3.8,3.21Z"/>
  <path class="cls-11" d="M459.5,287.72c.63-.92,2.2-2.65,3.21-3.14l-.64,7.48-2,8.03c-1.27-3.97-1.68-6.05-2.11-9.48l-2.34,4.52c-.06-3.6.29-7.03,1.26-10.29l1.21,3.73c.16.48,1.11-.43,1.4-.85Z"/>
  <path class="cls-1" d="M634.44,271.76l-.74,1.89c-.97-1.13-3.2-2.88-4.63-3.49l-7.94-3.42,1.26,11.11h-3.19s-2.93-7.27-2.93-7.27l-1.6,6.33-1.54-.31c1.78-4.67,2.27-10.27,2.52-15.16l4.38,2.69-.44-3.79c-.08-.66,1.11-1.41,1.88-1.88,3.46,1.12,7.65,2.69,9.55,6.48l3.42,6.82Z"/>
  <path class="cls-8" d="M598.53,288.2l-1.23-1.74c3.03-1.7,6.33-5.47,8.87-8.01l-1.72-2.28c-.96-1.27,3.13.23,5.47-2.86.58-.77-.92-2-2.35-2.58-3.58-1.47-5.35-4.94-3.38-7.6l1.21.18,3.51-5.51,4.56,6.34c-1.16,10.18-6.89,18.77-14.95,24.07ZM604.91,265.74l-.5.5.5.5.5-.5-.5-.5Z"/>
  <path class="cls-24" d="M647.32,259.98l-6.03-4.11c.38-.2,1.99-.92,1.18-.56l-2.83-5.14c-.31-.57,1.52-2.27,2.04-1.9l1.86,1.34c2.61,1.07,4.54,2.73,6.93,5.06l2.19,2.14c.45.44.08,1.61-.11,2.28l.75.86s-1.03,1.15-.97,1.08l-.6-.92-3.89-1.93-.54,1.8Z"/>
  <path class="cls-21" d="M665.17,281.14c.23,2.08,0,4.92-.63,6.59l-1.46-.47-.62,1.02-.64,3.48c-.13.69-3.32.12-3.3-.31l2.43-8.05,4.21-2.25ZM662.58,287.05c-.32.09-1.37.37-.96.26l.96-.26Z"/>
  <path class="cls-27" d="M640.44,302.69c.2.35.67,1.38.69,1.94l.11,3.05-.9.9-1.04,1.13-1.64-4.08c.44-1.16-.41-3.54-1.49-4.7l4.27,1.77Z"/>
  <path class="cls-8" d="M604.39,258.75l-.06,1.98c-.68.09-2.38.54-2.95,1.05l-.1-1.26,3.1-1.77Z"/>
  <path class="cls-24" d="M636.41,254.75l-2.2-.96,1.8-1.03c.35-.2,1.28.57,1.06.9l-.66,1.09Z"/>
  <path class="cls-21" d="M660.27,294.16l-2.52,1.43c.03.11-.28-1.07-.38-1.5s1.25-.22,2.9.07Z"/>
  <path class="cls-21" d="M664.44,274.73l-1.02-3.01,1.02,3.01Z"/>
  <polygon class="cls-18" points="510.83 506.59 505.49 502.83 508.4 495.76 512.42 494.25 510.83 506.59"/>
  <path class="cls-5" d="M516.55,516.79l-1.63,1.86c-.55.53-2.61.38-3.06-.28-1.7-2.53-2.3-4.69-1.73-6.8l6.42,5.22Z"/>
  <path class="cls-4" d="M426.72,748.42l-8.85,6.17c-2.7,1.88-5.72,4.27-7.3,6.54l-7.84-.46-1.44.34-.96-1.16,2.38-.43,2.97-1.3c6.1-2.67,12.42-6.62,16.56-12.07l4.47,2.37Z"/>
  <path class="cls-17" d="M365.66,685.39c-1.01-.29-2.62-.89-3.62-1.44.63-.46,1.32-1.97.96-2.54l-.95-1.48,2.96-3.07,4.14,3c-1.13.84-3.33,3.62-3.49,5.53Z"/>
  <path class="cls-26" d="M329.66,449.37c19.58,9.35,26.55,48.99,8.77,61.86,6.65,1.59,10.55-3.64,12.96-9.09l2.65-4.69.32,2.8c.07.64,1.59.96,2.76,1l.31,3.36c.44,4.77,2.13,10.43,4.12,15.08l-1.84,1.83c-1.45-2.3-2.35-4.1-5.26-3.93l-.45-1.92,2.68-.12c.57.59,1.01.76.92.35-.21-.99-.63-2.98-1.12-2.35l-.85-5.02-.96-3.03-.08-1.03-.54-.98c-.22-.25-1.37.22-1.38.56l-.12,1.46c-2.97,6.64-9.79,11.03-17.54,8.35l-3.36.76-.77-1.21c-.25-.39-1.11-1.14-1.48-.87l-1.43,1.04-1.47-.19,1.51-2.75,1-1.88,11.68-9.34c2.5-2.12,4.87-4.23,5.03-7.93.68-15.47-4.6-34.83-18.05-41,.46-.29,1.47-.99,2.02-1.12ZM335.57,510.23c5.41-1.66,7.3-6.28,7.73-10.28-4.24,3.3-6.64,6.25-7.73,10.28Z"/>
  <polygon class="cls-2" points="539.9 572.27 538.81 574.45 531.09 545.66 532.51 545.9 539.9 572.27"/>
  <polygon class="cls-26" points="543.54 530.36 543.38 531.59 541.46 531.5 543.54 530.36"/>
  <path class="cls-2" d="M749.3,694.38l-.83,1.17-1-1.75c10.37-18.47,5.05-39.52-9.75-53.75l-8.44-8.11.82-.91,8.33,7.14c16.69,14.31,20.58,37.07,10.88,56.22Z"/>
  <path class="cls-2" d="M442.44,818.93l.15,1.4-11.43-.65c-11.75-.67-21.61-6.73-28.54-15.5l1.18-.2c6.96,7.76,15.86,11.97,26.36,13.88,4.09.74,8.59,1.96,12.29,1.08Z"/>
  <path class="cls-5" d="M614.36,380.42c.16.37.11,1.47.13,1.81l-2.46,2.5-6.23-18.61-2.35-6.64.83.11,6.56,12.74,3.52,8.1Z"/>
  <path class="cls-8" d="M398.7,642.17l14.05,3.96c10.23,2.88,20.16,5.71,29.82,10.16l12.73,8.06-.84,2.16c-17.75-12.84-38.62-18.57-60.82-19.47l-8.22-.33c23.16,7.48,41.2,13.72,57.33,31.28l-1.51,1.45c-18.9-20.9-44.75-27.66-71.55-34.29l-6.12-1.81,12.06.3,14.97.99,10.3.66-5.24-2.08-.1-1.63.35.04,2.79.53Z"/>
  <path class="cls-5" d="M680.33,593.36l-1.14.12,1.14-.12Z"/>
  <path class="cls-19" d="M595.23,348.23l-.75-1.49-2.37-1.02-7.16-5.69.55-1.59,5.89,4.15c12.86,9.06,26.64,11.23,42.82,7.01-10.03,5.57-22.55,5.68-33.1.49l-5.89-1.87Z"/>
  <path class="cls-10" d="M594.55,352.41l5.33,16.27c-.88.18-1.22,1.45-1.15,1.96l-6.23-19.14,2.05.91Z"/>
  <path class="cls-13" d="M638,353.72c-4.57,2.64-9.37,4.45-14.57,5.33l-.05-2.16c4.79-.79,10.44-2.26,13.85-5.37l.77,2.21Z"/>
  <path class="cls-7" d="M483.87,548.99c-6.38,9.94-16.72,18.06-28.06,20.65l-.23-2.42c10.96-3.33,19.49-10.05,26.88-18.79l1.41.56Z"/>
  <path class="cls-28" d="M624.76,305.69c-.69,11.12-13.58,26.57-27.83,25.27,8.22,5.53,17.56,7.88,26.57,6.36l.44.63-3.09,2.04c3.42.94,7.39,2.69,10.44,2.49l9.94-.67,3.14.45c-9.93,5.41-30.87-.66-43.09-6.43l-22.79-10.76,1.87-1.5,4.41,1.73c10.09,6.38,22.46,3.86,29.95-5.36,5.18-4.65,7.54-11.53,8.44-18.25l1.6,4.01Z"/>
  <path class="cls-24" d="M648.85,343.52c-3.15,4.03-6.22,7.52-10.85,10.2l-.77-2.21,7.83-7.14c.31-.29,1.32-1.32,1.3-1.29s-1.37-.9-1.1-1.17l3.59,1.62Z"/>
  <path class="cls-20" d="M623.28,605.57l-2.88-2.02,1.73-3.25c2.94-11.14,6.01-21.74,12.24-30.62l-11.09,35.9Z"/>
  <path class="cls-16" d="M357.43,504.6l-.31-3.36c-1.17-.04-2.69-.36-2.76-1l-.32-2.8.29-6.17.34-8.81,2.1.06-.81,17.91c6.71-9.96,5.26-25.34-1.12-36.99l-3.04-5.82,2.62-1.17c4.83,2.61,11.1,5.33,11.23,12.47-2.81-3.57-4.97-6.6-8.3-7.58l-.68.76c2.89,6.02,4.79,12.45,5.8,19.83.93,6.75-2.45,13.08-3.6,20.22,8.13-6.48,10.5-15.91,9.36-25.08,3.07.95,3.7,10.19,1.42,14.18-3.26,5.71-6.79,10.39-12.23,13.36ZM356.17,461.04l-.09-1.22.09,1.22Z"/>
  <path class="cls-21" d="M334.62,448.24l-4.96,1.13c-.55.13-1.56.82-2.02,1.12l-1.94.06.36-3.41,8.56,1.1Z"/>
  <path class="cls-13" d="M753.26,691.4l.87-1.28-.87,1.28Z"/>
  <path class="cls-7" d="M438.42,550.52c-.59,1.06-.96,2.48-.14,2.62l4.3.74,4.94,12.49-1.1,1.15c-4.2-4.82-2.62-15.9-16.38-14.71l4.91,6.49c-6.99-2.55-8.91-10.73-21.74-11.47l-13.26-.76c-12.07-.7-16.71-10.63-27.65-10.52l2.26,3.92-1.01,2.45-4.22-6.2-9.62-15.22,1.84-1.83c1.92,4.47,6.44,11.2,11.1,13.37l19.39,9.02c11.03,5.13,24.08-.93,35.9,8.25l10.48.22Z"/>
  <polygon class="cls-8" points="471.54 533.65 471.67 531.49 472.46 531.23 471.54 533.65"/>
  <path class="cls-8" d="M467.3,537.29c-4.39,7.11-12.17,12.12-19.89,15.32l.3-1.12,9.81-6.91,9.77-7.28Z"/>
  <path class="cls-8" d="M471.54,533.65c-.76,1.26-2.9,2.65-4.23,3.64l2.26-3.79h.98s1,.15,1,.15Z"/>
  <path class="cls-19" d="M485.89,798.19l1.89,3.17c-11.58,9.16-25.95,14.22-40.47,18.34l-2.34,2.45c-.53.56-2.14-1.54-2.37-1.81l-.15-1.4,8.21-1.95c1.45-.34,3.53-1.9,4.73-3.2,1.44.05,5.41.37,6.96-.44l20.77-10.89c-21.14,3.84-31.05,2.15-43.46-13.38-1.38-1.73-2.06-4.83-2.47-6.78l1.53-2.13c1.72,12.07,11.87,20.18,24.32,21.72,7.73.96,15.7-.66,22.85-3.7Z"/>
  <path class="cls-25" d="M643.75,500.84l2.24.38c1.88.32-2.91,4.83.3,6.04l-2.96.29-.94.13-2.2-2.93c.09-.71-.21-2.47.4-2.69l3.17-1.22Z"/>
  <path class="cls-8" d="M642.38,507.68l.94-.13.61,9.04,2.31,28.8c.38,4.69-.07,9.44-3.35,13.42-3-4.47-2.96-9.82-2.69-15.27l.54-10.98.71-14.99.93-9.9ZM643.62,541.96l-.52-7.53-.82.53.33,18.34c3.69-3.59,1.26-7.63,1.01-11.34Z"/>
  <path class="cls-1" d="M506.32,321.71c-.37,1.1-2.32,4.18-3.53,5.12l-9.2,5.11c.93-2.74,2.21-4.45,1.74-5.46l-2.79-5.94,4.99,5.42,8.8-4.25Z"/>
  <path class="cls-21" d="M490.6,303.58l-2.53-1.94,2.08-1.32c.46-.29,1.52,1.42,1.25,1.89l-.8,1.37Z"/>
  <path class="cls-21" d="M460.48,315.73l-.58-1.13c-.09-.18.02-.45.34-.88.54.18,1.2.45.99.81l-.75,1.2Z"/>
  <path class="cls-26" d="M393.78,394.86l-5.17.74-4.11,1.13c-15.26.19-29.79,13.27-32.79,28.41-1.37,6.92.76,12.98,5.79,16.55,2.13,1.51,5.93.92,6.8-1.28,3.65-9.23,11.06-13.61,19.18-17.12l3.29,1.02-4.87,2.53c-6.52,3.12-12.12,7.75-15.32,13.93.92.67,2.62,2.05,2.11,2.23l-2.64.97c-4.18,1.53-8.1,1.38-11.24-1.53-10.4-9.65-6.65-23.96,2.5-34.1,9.7-10.75,22.99-15.89,36.46-13.49Z"/>
  <path class="cls-4" d="M481.49,475.45c-1.37,1.49-2.98,3.57-3,5.1-2.7-9.67-6-19.76-12.13-28,.69-1.11,1.04-4.14.43-5.3l-9.22-17.75,1.81-3.09c1.82.17,4.84,1.67,6.42,2.81l-5.56-.44,9.7,19.41,11.56,27.26Z"/>
  <path class="cls-28" d="M439.77,513.49l-.2-8.71c-.01-.49-1.08-2.54-1.48-2.22l-2.3,1.83.73-3.59c-3.14-.33-5.35-.53-8.27-1.57l7.03-.99c.47-.38,1.39-1.57,1.15-2.03l-1.89-3.54,4.1,3.16,1.98-8.91,1.3,8.86,4.64-2.44-1.92,3.08c-.48.77,1.8,1.99,2.74,2.09l5.47.61-8.25,1.95.9,3.29-3.89-2.27-.27,10.41-1.58.99Z"/>
  <path class="cls-8" d="M418.26,447.99c-3.61,5.17-7.04,3.54-11.87,2.66.09,2.02,2.93,3.04,5.1,3.42.09,2.82-3.32,2.59-5.46,1.27s-2.09-6.58-.17-6.75l3.45-.3c.49-.04-.64-2.28-.36-2.69,1.18-1.72,5.1-3.55,7.79-4.16,2.05-4.42,6.02-8.63,11.98-6.37l-6.22,1.98,2.34.75c.36.12,1.04.85.76,1.09l-2.06,1.75-3.66,3.9c-.85.91-3.68-.03-5.25.09l-3,.23c-.55.04-.72,1.55-.61,1.91l7.23,1.21Z"/>
  <path class="cls-6" d="M435.74,412.36l4.86,5.06-3.02,1.02-1.01.12-.58-1.02c-.3-.42-1.61.8-1.43,1.12.27,4.47,1.19,11.09,6.04,12.64v2.62s-14.17-3.29-14.17-3.29l.67-1.12,7.61,1.21c-1.87-6.7-2.4-12.1-1.99-18.5l3.02.15Z"/>
  <path class="cls-24" d="M422.66,455.69c-3.46,7.67-22.45,23.91-33.39,25.84,6.08-4.4,12.68-7.32,17.92-12.45l15.12-14.84c.42.57.45,1.24.36,1.45Z"/>
  <path class="cls-7" d="M466.79,447.24c.6,1.16.26,4.2-.43,5.3-6.31-8.48-15.47-16.23-25.77-18.62v-2.62c6.7,2.13,12.95,4.85,18.56,9.7l7.65,6.24Z"/>
  <path class="cls-24" d="M484.72,482.41l-1.38,1.13-2.35-4.28.58,15.38-.62,8.48h-2.7s.25-22.59.25-22.59c.02-1.52,1.63-3.61,3-5.1l3.23,6.97Z"/>
  <path class="cls-13" d="M400.72,423.88l-6.52.99c-.7.16-.24,2.83.4,3.9-2.45,7.86-9.26,15.99-18.51,18.91l11.33-10.23c3.87-3.5,6.46-8.1,4.68-13.59l-5.33.46-3.29-1.02c8.77-3.79,9.57.64,17.25.58Z"/>
  <path class="cls-1" d="M381.47,462.54c4.47-4.91,10.12-8.03,14.78-12.35l14.64-13.57c-7.33,10.98-16.92,20.47-29.42,25.92Z"/>
  <path class="cls-8" d="M377.33,388.81c-13.42,4.42-24.05,13.69-31.74,25.45,4.99-13.61,17.3-23.53,31.74-25.45Z"/>
  <path class="cls-14" d="M480.94,503.13l-4.21,23.41.49,3.12-4.76,1.58-.79.26c1.79-2.74,3.44-6.28,3.95-9.9l2.61-18.46h2.7Z"/>
  <path class="cls-21" d="M400.18,458.53c-.5,3.26-.69,6.06-1.86,6.7l-4.03,2.22c-.84-5.52-1.57-8.48,3.74-11.31l2.15,2.39Z"/>
  <path class="cls-19" d="M380.89,470.2c-.2,2.18-.94,5.78-2.08,6.82-1.31,1.2-4.42,2.2-6.38,2.44l2.77-7.43c.3-.8,1.37-2.42,2.17-2.45s2.99.39,3.52.62Z"/>
  <path class="cls-8" d="M382.59,475.28l1.45-2.75c.28-.53-.39-1.33-1.21-2.62.98-1.95,3.8-4.98,5.88-6.54,2.91,6.28-1.62,10.54-6.12,11.91Z"/>
  <path class="cls-2" d="M422.66,455.69c.1-.21.07-.88-.36-1.45l7.48-10.32,3.59-5.33c-1.66,6.56-5.93,12.41-10.71,17.11Z"/>
  <path class="cls-13" d="M402.54,425.49l-6.91.59,6.91-.59Z"/>
  <path class="cls-14" d="M470.54,533.48h-.98s.98,0,.98,0Z"/>
  <path class="cls-28" d="M459.38,426.4l-1.81,3.09c-7.99-1.37-15.36-4.39-19.98-11.04l3.02-1.02c5.45,5.68,11.28,8.27,18.78,8.98Z"/>
  <polygon class="cls-2" points="483.34 483.54 484.72 482.41 491.85 498.21 490.24 498.18 483.34 483.54"/>
  <path class="cls-1" d="M601.29,260.52l.1,1.26-4.47,4.04c5.64,3.22,4.48,12.88-.37,15.04-4.97-1.66-4.84-8.42-2.74-13.99l-7.89,3.25c3.56,7.54.98,13.69-4.97,16.78-2.14-5.47-2.78-10.5,1.48-14.85l-3.83-.56c-.48-.2-1.72-.85-2.3-.77l3.52-1.86c-7.5-2.5-10.78-7.79-10.28-15.19,6.67,2.72,11.41,6.4,13.43,13.8,2.31.24,5.71-.46,8.12-1.46-3.36-1.94-5.05-2.55-5.7-5.06,3.66-1.08,6.94,4.45,8.36,3.58l3.1-1.89c-9.1-3.31-10.97-8.47-10.16-17.92,4.63,7.07,12.47,8.33,11.8,16.97l2.79-1.17Z"/>
  <path class="cls-24" d="M576.3,270.73c.57-.08,1.82.56,2.3.77l-16.34,4.76c-4.06,5.06-10.62,8.35-16.48,5.01,5.04-6.33,11.1-6.58,18.68-8.36-7.15-2.13-10.43-6.62-11.06-13.2,7.11,1.75,12.37,5.21,15.07,12.18l7.83-1.16Z"/>
  <path class="cls-1" d="M491.65,252.74c14.89-5.42,35.08-6.34,44.66.98-9.26-2.45-17.07-4.81-25.53-3.8-10.65,1.28-19.24,4.69-29.88,8.64l12.43-10.1c16.38-13.31,37.66-13.89,56.32-4.8-7.32-1.11-13.98-3.34-21.09-3.95-14.2-1.22-27.57,3.29-36.91,13.03Z"/>
  <path class="cls-24" d="M532.73,294.47l.96,1.68c2.91-.71,4.61-.85,6.76-.79-13.5,7.24-29.4,8.77-43.97,2.31l-3.34-2.13,2.13-.1c.5.06,1.09-1.45,1.31-2.09,11.79,4.07,24.17,4.49,36.16,1.11Z"/>
  <path class="cls-24" d="M509.44,272.33l-12.75-5.76c-7.25-3.28-14.27-3.01-22.35-2.19,10.12-3.98,21.19-1.33,31.02,3.54,11.76,5.82,23.69,9.1,36.25,11.43-11.35,1.36-21.73-2.3-32.17-7.02Z"/>
  <path class="cls-1" d="M580.43,233.82c-12.13-5.69-23.56-9.15-36.95-8.14l-10.31.78c3.78-2.71,8.45-2.82,13.3-2.77,12-.1,24.54,1.32,33.95,10.12Z"/>
  <path class="cls-1" d="M536.57,290.64l-2.12.96-2.91.45-7.09.78c-8.4-.74-16.92-3.18-23.73-8.05,8.12,1.23,14.43,5.8,21.67,5.82l14.18.05Z"/>
  <path class="cls-24" d="M571.16,275.61c1.07,6.1-7.97,11.44-9.4,9.22-.29-.46-.2-2.61.25-2.92l9.15-6.3Z"/>
  <path class="cls-19" d="M488.66,289.47l7.91,3.89c-.21.64-.8,2.15-1.31,2.09l-2.13.1c-1.83-.79-4.09-2.21-5.77-3.64l-.47-1.78c-.15-.36,1.58-.42,1.77-.66Z"/>
  <path class="cls-24" d="M534.45,291.6l.89,1.74c.14.25-1.04.19-1.33.19l-1.39-.02-7.09-.59,6-.87,2.91-.45Z"/>
  <polygon class="cls-26" points="531.54 292.05 525.54 292.92 524.45 292.82 531.54 292.05"/>
  <path class="cls-4" d="M522.4,309.52l12.15,6.31c-1.52.9-3.96,1.97-5.42,1.82-1.82-.18-3.4-2.28-4.71-4.36l-2.08,4.04c-1.11-1.56-2.41-3.75-2.24-4.86.16-.97,1.28-2.58,2.3-2.94Z"/>
  <path class="cls-2" d="M566.48,306.41l-1.16.29c-2.37-3.85-6.14-6.33-10.98-6.89l.29-1.1c4.23.14,10.84,3.51,11.84,7.7Z"/>
  <path class="cls-29" d="M636.16,300.92c1.08,1.16,1.93,3.54,1.49,4.7l-12.02-13.99-.88,14.05-1.6-4.01v-11.29s-3.07,4.95-3.07,4.95c-4.48,7.23-9.19,14.18-17.91,16.35l11.06-9.21c6.95-5.79,9.25-16.45,5.96-24.62h3.19c.74,6.47.66,10.72,7.05,15.18,3.75-3.05,5.58-7.5,5.05-12.27l-.79-7.12.74-1.89c3.84,7.66,2.64,17.26-4.17,22.47l2.78,2.3c1.76,1.45,12.77-6.55,6.2-22.59,6.33,6.45,5.3,17.9-2.56,23.01-.61.39-2.81,1.52-2.36,2l1.83,1.96Z"/>
  <path class="cls-2" d="M644.6,296.69c5.82-5.95,8.36-13.86,5.89-22.03s-7.95-13.26-14.39-18.93c9.29,3.16,13.61,11.85,16.85,20.6,1.15,7.47-.31,16.76-8.34,20.36Z"/>
  <path class="cls-19" d="M565.33,306.7l1.16-.29c.16.69.61,1.9.93,2.38l-1.53,4.02c-4.74-1.64-8.79-3.26-13.79.45l4.4,6.22c.35.5,2.64-.15,2.69-.76.06-.81.03-2.61-.15-3.42l-.49-2.15c-.13-.6,2.1-.25,2.24.34l1.49,6.02-8.17,3.01c-4.74,1.75-9.6,1.38-13.73-.78l.67-1.05,6.78,1c1.83.27,5.13-.62,6.53-1.54-2.94-3.36-4.15-4.55-6.49-6.26l2.3-7.82,6.61.93c2.08.29,4.89,2.15,8.17,4.1l.38-4.39Z"/>
  <path class="cls-8" d="M570.72,302.13c8.9-.53,17.2-3.09,25.5-9.54-5.42,7.37-15.19,11.6-25.5,9.54Z"/>
  <rect class="cls-4" x="604.56" y="265.89" width=".71" height=".71" transform="translate(-11.09 505.72) rotate(-45)"/>
  <path class="cls-1" d="M427.66,743.24l-1.11.54c-.32.15.27,1.78.57,1.59l1.55-.98.94-.13,2.06,1-3,2.11-1.09.86-.85.18-4.47-2.37c5.3-6.97,10.19-14.77,11.34-23.49,2.03-15.37-5.26-26.79-17.67-34.76-11.74-7.54-25.07-9.57-38.55-12.03l-20.73-5.3.21-1.53,10.64,2.88,21.75,3.93c12.02,2.17,23.68,6.03,33.01,13.79,18.08,15.06,17.63,34.83,5.41,53.7Z"/>
  <path class="cls-8" d="M316.91,501.4c-15.78,17.95-26.48,39.12-29.82,63.35l-.43,17.74-2.63-4.15.66-10.95c.85-14.14,6.05-27.1,12.2-39.78,3.95-8.15,9.18-15.06,14.71-22.19,1.5-1.93,3.27-3.61,5.31-4.02Z"/>
  <path class="cls-29" d="M286.66,582.49c-.14,5.93,1.82,12.13,3.52,18.37,5.31,19.41,12.44,26.17,29.54,35.61l-3.13.11-14.08-8.5c-.86-.52-2.47-1.21-3.17-2.2-10.12-14.44-14.09-30.51-15.32-47.53l2.63,4.15Z"/>
  <path class="cls-8" d="M456.57,717.35l-1.21-.11c.49-2.78.33-6.45-.84-9.75-1.94,16.31-10.36,28.99-22.87,37.78l-2.06-1c14.17-9.4,24.02-25,22.31-42l2.24-3.09c2.12,5.66,3.01,11.71,2.43,18.17Z"/>
  <path class="cls-24" d="M319.72,636.46c1.05.06,2.93.48,3.89.86-1.04,2-.7,2.17.94.9l15.13,3.35c4.38.97,8.63-.48,13.2.2l10.68,1.58,6.12,1.81-10.02-.49-16.96-1.06c-13.37-.84-17.19-5.07-21.05-1.74-1.42-2.52-3.07-4.1-5.07-5.31l3.13-.11Z"/>
  <path class="cls-2" d="M356.84,668.94l-.21,1.53c-13.99-3.57-28.39-9.5-37.94-21.32,11.9,9.06,24.1,15.99,38.14,19.79Z"/>
  <path class="cls-23" d="M454.14,699.18l-2.24,3.09c-.85-8.43-4.86-16.41-10.66-22.81l1.51-1.45c5.45,5.93,8.56,13.63,11.38,21.17Z"/>
  <path class="cls-19" d="M309.05,637.28c.52.64,3.94,1.11,3.64,1.74l-1.61,3.38c-4.22-4.54-7.7-8.8-9.2-13.99l7.18,8.87Z"/>
  <path class="cls-8" d="M428.66,744.39l-1.55.98c-.3.19-.89-1.43-.57-1.59l1.11-.54,1,1.15Z"/>
  <path class="cls-21" d="M405.68,758.12l-2.97,1.3,2.97-1.3Z"/>
  <path class="cls-16" d="M331.62,514.61c-8.03,18.3-12.57,47.17-1.61,62.72l-1.32,1.24-3.96-8.68-1.18-.3,3.37,11.76-1.66,1.26c-8.51-23.08-4.89-47.38,5.59-69.2l.77,1.21Z"/>
  <path class="cls-1" d="M377.56,634.56l-2.06,1.03c-23.78-12.06-40.88-27.64-50.23-52.99l1.66-1.26c4.95,12.63,12.4,24.63,22.62,34.04,6.84,6.3,21.38,16.59,28.01,19.18Z"/>
  <path class="cls-2" d="M328.7,578.57l1.32-1.24,8.62,12.23.64.62,5.01,2.78c3.19,1.77,8.34,3.38,11.52,1.87,1.16-.55,2.62-3.84,2-4.85l-3.3-5.37c2.97-.3,5.74,3.67,5.64,6.37-.14,3.76-3.44,6.79-7.68,6.52-5.17-.33-10.33-3.26-13.84-6.45l-.79-.72c-2.96-2.68-7.35-7.83-9.15-11.78Z"/>
  <polygon class="cls-2" points="395.57 641.6 395.67 643.23 375.5 635.59 377.56 634.56 395.57 641.6"/>
  <path class="cls-7" d="M356.67,515.53l-.2-2c.49-.63.91,1.36,1.12,2.35.09.41-.36.24-.92-.35Z"/>
  <path class="cls-16" d="M354.57,504.46l-2.04,1.04.12-1.46c0-.33,1.16-.81,1.38-.56l.54.98Z"/>
  <path class="cls-16" d="M355.62,508.52l-.96-3.03.96,3.03Z"/>
  <path class="cls-2" d="M398.7,642.17l-2.79-.53,2.79.53Z"/>
  <path class="cls-24" d="M373.54,542.93l1.01-2.45,2.03.52c.57.15.48,1.25.7,2.51,3.58,6.41,16.11,6.44,21.71,15.6l-17.45-8.62c-3.57-1.76-6.04-4.7-8-7.57Z"/>
  <path class="cls-19" d="M328.98,508.76l-1,1.88-4.55-1.67c.26-1.05.57-2.4.61-2.39.04,0,.84.27,1.54.51,3.52-3.41,6.59-7.31,11.11-9.65l-8.47,9.26c-.35.38.67,2.14.76,2.07Z"/>
  <path class="cls-19" d="M679.55,392.72c-15.92,11.21-45.18,3.93-57.15-12.28,18.34,13.66,34.57,21.09,57.15,12.28Z"/>
  <path class="cls-2" d="M456.57,717.35c-.6,6.78-2.59,13.8-5.34,20.54l-9.59,23.52c-2.44,5.97-3.77,12.84-2.92,18.77l-1.53,2.13c-3.97-19.37,13.06-35.85,18.18-65.05l1.21.11Z"/>
  <path class="cls-2" d="M424.31,767.44c-1.52,12.55-1.58,18.96,4.99,29.19-8.97-7.08-9.83-19.84-4.99-29.19Z"/>
  <path class="cls-4" d="M427.56,748.23l1.09-.86-1.09.86Z"/>
  <path class="cls-2" d="M305.99,584.23l-1.51-9.87c-2.63-17.23,2.03-39.92,12.16-54.11-4.17,11.75-9.2,22.18-10.57,34.52l-.11,21.56c-.01,2.21,3.47,4.63.03,7.9Z"/>
  <path class="cls-20" d="M317.34,485.07c-4.41-9.81-4.53-26.21,5.35-31.26l-2.86,4.7c-4.8,7.87-3.1,15.89-2.49,26.56Z"/>
  <path class="cls-19" d="M327.94,513.58c-6.12,9.19-8.84,19.27-12.52,30.63-.05-11.51,5.93-21.47,11.05-30.82l1.47.19Z"/>
  <path class="cls-29" d="M324.56,638.22c-1.64,1.27-1.98,1.1-.94-.9.33.13.94.74.94.9Z"/>
  <path class="cls-17" d="M521.58,100.96c.62,1.36.89,2.93.86,4.51l-4.12-1.54-3.45-5.46-12.82,9.86-4.44-8.18c-.35-.64-2.51-2-2.81-1.88l3.51-6.57,5.08,9.78,13.88-10.01,4.31,9.47Z"/>
  <path class="cls-17" d="M532.42,117.47c1.42,1.54,2.12,3.89,2.31,5.43-1.27-.1-3.58.84-4.49,1.55l-9.96,7.73-5.21-9.82-7.25,4.93-1.33-4.44,10.62-7.64,4.8,10.21,10.52-7.95Z"/>
  <path class="cls-4" d="M506.49,122.85l1.33,4.44-6.07,4.81-5.25-10.14-10.69,8.22c-.86.66-3.19.45-3.6-.36s-.05-2.8.79-3.39l15.25-10.85,4.96,9.63,3.29-2.36Z"/>
  <path class="cls-22" d="M518.33,103.93l4.12,1.54c.03-1.59-.25-3.15-.86-4.51l2.8-1.24,11.28-8.32,6.66,13.05-3.39,2.73-5.11-8.94-13.02,9.61-2.48-3.92Z"/>
  <path class="cls-22" d="M498.31,91.71l-3.51,6.57c-.68.95-2.12,2.83-3.12,3.57l-5.91,4.42c-.82.61-3.14.36-3.57-.43s-.03-2.78.78-3.35l15.32-10.78Z"/>
  <path class="cls-22" d="M534.73,122.91c-.19-1.55-.89-3.89-2.31-5.43-.05-.14,2.91-1.86,3.49-1.69l5,10.64c.37.78.42,2.73.29,3.51-.09.59-2.56,1.23-2.81.69l-3.66-7.72Z"/>
  <path class="cls-4" d="M248.1,218.27c.74-.68,4.36-1,4.54-.01.22,1.18-.1,3.84-.62,5-.5,1.1-3.56.19-4.66-.52-1.01-.66-.22-3.57.74-4.46Z"/>
  <polygon class="cls-13" points="580.36 323.56 578.49 325.06 567.8 317.39 568.21 315.55 580.36 323.56"/>
  <path class="cls-5" d="M772.56,218.43c.48-.87,3.86-.86,4.54-.14.82.87,1.21,3.33.3,4.11-.83.71-2.78,1.43-3.77,1.33-1.19-.12-1.8-4.02-1.08-5.31Z"/>
  <path class="cls-7" d="M773.31,785.7c1.05-.47,3.68,0,4.44.69.91.83.73,4.4-.51,4.47l-4.44.23c-1.23.06-.61-4.89.51-5.39Z"/>
  <circle class="cls-4" cx="249.42" cy="788.4" r="3.11"/>
  <path class="cls-28" d="M436.57,418.57l-2.01.09c-.18-.32,1.12-1.53,1.43-1.12l.58,1.02Z"/>
</svg>