<svg xmlns="http://www.w3.org/2000/svg" viewBox="0 0 1024 1024">
  <path d="M489.43,177.55l1.71.57c.33.04.23.34-.08.48l-2.78,1.24c.71,2.2,3.26,6.14,5.14,7.91,3.58-.23,5.66-.46,8.07-.18-14.61,3.81-29.95,8.19-42.18,17.94l-16.73,13.28c1.81-2.38,2.12-4.85,1.17-7.93-1.15-3.74-2.52-5.95-6.22-6.12,14.71-13.12,32.52-23.36,51.91-27.17Z" fill="currentColor"/>
  <path d="M818.19,235.91l2.69-1.15c46.4,54.29,78.01,120.11,91.39,190.54.1.51-.22,2.53-.63,2.37l-2.06-.84c-13.31-70.83-44.14-136.5-91.39-190.92Z" fill="currentColor"/>
  <path d="M189.01,299.17c-30.69,49.5-49.21,104.48-54.71,162.57l-1.41,14.87c-.31,3.23,2,7.06-3.04,9.69l.78-15.84c4.24-61.6,23.49-120.44,56-172.89l2.37,1.61Z" fill="currentColor"/>
  <polygon points="544.32 614.49 542.43 614.51 543.52 613.38 544.32 614.49" fill="currentColor"/>
  <path d="M757.74,207.65c-45.45-38.86-93.41-64.86-150.89-80.21-6.52-1.74-13.88-1.53-19.19-6.8,65.82,12.28,127.46,44.92,177.41,90.12-3.1,2.29-4.9-1.03-7.33-3.11Z" fill="currentColor"/>
  <path d="M266.9,178.56l-17.71,14.77-13.88,12.94c-30.67,28.6-56.55,63.57-77.19,99.9l-1.56-2.92c19.15-35.31,53.6-79.78,83.64-105.9l16.1-14,9.84-7.96.75,3.17Z" fill="currentColor"/>
  <path d="M848.23,321.63l2.32-1.35c22.63,43.48,37.62,90.72,41.72,140.18l1.09,13.19.64,8.66c.04.55-.2,1.82-.35,2.32s-1.63,1.01-1.73.52l-.57-2.7-.98-12.82-1.08-11.24c-4.64-48.26-18.94-94.16-41.06-136.75Z" fill="currentColor"/>
  <path d="M158.12,306.17l-9.04,17.64c-17.12,33.41-26.19,67.96-36.48,104.84,5.03-44.52,22.97-86.71,43.96-125.4l1.56,2.92Z" fill="currentColor"/>
  <path d="M515.93,156.74l-.37-2.29c15.53-1.07,29.25-10.49,35.82-24.6,6.57-14.11,4.95-30.68-4.22-43.25-9.18-12.57-24.47-19.16-39.91-17.2l-4.93-1.82c26.81-6,52.91,12.22,55.28,40.21,2.17,25.69-16.26,47.93-41.67,48.95Z" fill="currentColor"/>
  <path d="M502.33,67.58l4.93,1.82c-22.94,2.91-39.41,23.54-37.16,46.56,2.25,23.02,22.4,40.07,45.47,38.49l.37,2.29c-8.28.33-15.59-.15-23.19-4.08-13.83-7.15-23.51-20.01-25.17-35.66-2.5-23.53,12.63-44.47,34.75-49.42Z" fill="currentColor"/>
  <path d="M189.01,299.17l-2.37-1.61c11.85-19.11,24.14-37.15,39.64-53.32l17.14-17.88c-2.75-4.82-2.02-9.39,1.43-12.03,2.93-2.24,7.64-2,10.4.45,3.21,2.85,3.36,7.73.99,11.03s-6.92,3.47-11.09,2.23c-20.7,20.66-40.44,45.82-56.13,71.15ZM248.18,215.03c-3.69,1.1-5.15,4.91-4.03,7.86s4.94,4.73,7.81,3.68c3.18-1.15,4.64-4.68,3.42-7.88-.94-2.47-4.25-4.55-7.21-3.66Z" fill="currentColor"/>
  <path d="M528.51,175.71l-5.03,1.01-4.18.26c-1.03.06-1.52,2.66-2.1,3.54l-2.61,5.2c-1.25.14-2.91.62-4.18,1.12-2.54,1.01-5.94,1.05-8.93.71-2.4-.28-4.48-.05-8.07.18-1.88-1.76-4.43-5.71-5.14-7.91l2.78-1.24c.31-.14.41-.44.08-.48l-1.71-.57c12.65-3.28,26.28-4.41,39.08-1.84Z" fill="currentColor"/>
  <path d="M750.22,168.63l-1.56,2.55c-17.46-12.8-35.19-23.99-54.44-34.16l-36.4-16.72,2.96-1.74c32.42,12.61,61.85,29.78,89.43,50.06Z" fill="currentColor"/>
  <path d="M688.44,846.64l-.62,3.6c-30.35,16.33-65.86,28.47-99.07,35.56-.41-.25-1.87-2.19-1.46-2.28l1.98-.47,36.17-9.81c18.02-4.89,34.82-12.06,51.44-20.63l11.56-5.96Z" fill="currentColor"/>
  <path d="M898.14,635.09c-9.16,29.47-22.46,57.95-38.68,84.56l-2.97-.57c16.33-27.1,29.31-55.32,39.37-85.43l2.27,1.44Z" fill="currentColor"/>
  <path d="M820.87,234.77l-2.69,1.15-8.01-9.23-27.31-27.52-6.92-6.05-27.29-21.94,1.56-2.55c11.56,8.49,23.06,17.17,33.58,27.63l27.54,27.38,4.59,5.33,4.95,5.79Z" fill="currentColor"/>
  <path d="M342.94,156.15c-27.68,14.7-53.87,32.01-77.46,53.27-2.01,1.81-2.54,2.98-5.42,1.62l8.63-8.38c22.63-19.08,46.96-35.43,72.96-48.83l-.87,1.62c-.21.35,1.93.2,2.16.7Z" fill="currentColor"/>
  <path d="M562.65,186.42c.4,1.34.54,3.86-.12,4.84-.57.84-2.15,2.31-3.27,2.85-2.68-1.13-6.29-1.61-8.79-3.41-2.95-2.12-8.41-3.21-11.78-2.93l-1.4.12-4.91-1.82c.19-3.73,1.6-7.19,5.19-8.53,8.66,1.74,17.41,4.34,25.09,8.89Z" fill="currentColor"/>
  <path d="M850.56,320.27l-2.32,1.35c-12.91-24.84-28.73-48.02-46.99-69.92l-8.43-10.11-.28-.73c-2.4-2-5.7-4.79-7.73-7.45-2.52-3.31-4.14-5.36-8.61-4.7-5.45.8-9.35-3.67-8.9-8.27.52-5.34,4.44-8.41,9.38-7.57,5.57.95,8.23,5.99,5.91,11.64-.49,1.2.46,3.5,1.27,4.44l9.58,11.09.57.46,10.08,10.45c18.19,21.59,33.69,44.76,46.47,69.32ZM781.21,220.78c0-3.3-2.67-5.97-5.97-5.97s-5.97,2.67-5.97,5.97,2.67,5.97,5.97,5.97,5.97-2.67,5.97-5.97Z" fill="currentColor"/>
  <path d="M357.58,124.43l-.87-2.78c24.9-10.77,49.84-18.81,76.94-23.9.85.11,1.72,1.15,2.2,2.6-27.09,5.18-53.1,12.8-78.27,24.08Z" fill="currentColor"/>
  <path d="M917.98,510.21l-2.95-1.87-4.12-2.43-1.72-4.68.96-3.7.88-2.29,3.16-1.64,1.92-6.22,4.46,6.45,7.93-5.21-4.97,6.21c-.28.55-.7,2.62-.11,2.78l2.7.77,10.17,1.65-13.83,2.34,3.81,7.08-5.45-3.31-2.84,4.05Z" fill="currentColor"/>
  <path d="M108.63,508.02l-1.6,4.08-1.97-4.06c-2.82-1.55-4.73-3.74-6.37-6.58l2.52-4.34-5.45-8.43,7.34,5.18,4.82-5.63.76,3.75c.15.73,2.24,1.47,2.91,1.15l7.28-4.89-6.06,7.62,3.72,4.07-4.49,5.85-3.41,2.24Z" fill="currentColor"/>
  <path d="M660.78,118.57l-2.96,1.74c-22.17-10.19-45.42-14.04-69.55-21.78,25.52,1.61,49.29,11.01,72.51,20.04Z" fill="currentColor"/>
  <path d="M325.39,140c-20.47,11.13-40.39,23.46-58.49,38.56l-.75-3.17c18.32-14.83,37.97-27.27,58.84-38.5l.41,3.1Z" fill="currentColor"/>
  <polygon points="661.76 549.33 659 557.44 659.11 561 653.49 570.68 639.86 600.02 635.3 613.58 632.36 611.63 634.28 606.34 651.57 567.63 659.54 548.54 661.76 549.33" fill="currentColor"/>
  <path d="M372.26,142.76l.68-3.31c20.36-7.9,40.92-14.31,62.44-18.94l2.19.9c.39.16-.36,1.33-.74,1.87-22.2,4.57-43.37,11.19-64.56,19.48Z" fill="currentColor"/>
  <path d="M514.39,884.27l3.46,1.2c.86.3.65,3.04.6,3.64l3.05,4.43-2.14.55c-1.03,2.5-2.35,4.2-4.99,4.9l-4,1.07-.86-.82-3.65-4.68-3.26-1.33-.8-1.45,4.75-2.48c.26-1.98,1.27-3.18,2.97-4.18l.75-1.86,4.12,1.01Z" fill="currentColor"/>
  <path d="M583.68,200.38l-.9,3.22c-.18.67-1.66,1.09-2.59,1.49-6.19-4.8-13.69-7.93-20.93-10.98,1.12-.54,2.7-2.01,3.27-2.85.66-.98.53-3.5.12-4.84l12.03,7.13,9,6.83Z" fill="currentColor"/>
  <path d="M898.14,635.09l-2.27-1.44c6.14-18.37,10.06-37.11,14.42-56.03.57-.17,2.84.55,2.68,1.28l-.61,2.74-12.3,48.63-1.91,4.82Z" fill="currentColor"/>
  <path d="M537.57,177.53c-3.59,1.34-5,4.81-5.19,8.53l-9.95-1.21-7.83.87,2.61-5.2c.58-.88,1.07-3.47,2.1-3.54l4.18-.26,5.03-1.01,9.06,1.82Z" fill="currentColor"/>
  <path d="M442.58,218.77l-3.05,4-1.8-.29-2.2-4.47c1.22-3.42.82-6.71-1.23-9.33l3.22-3.96c3.7.16,5.07,2.38,6.22,6.12.95,3.09.64,5.56-1.17,7.93Z" fill="currentColor"/>
  <path d="M356.71,121.65l.87,2.78-6.51,2.92-25.67,12.65-.41-3.1c10.57-5.69,20.74-10.49,31.73-15.24Z" fill="currentColor"/>
  <path d="M397.12,875.65l.56-2.64,39.69,10.93c-2.91,1.79-5.92,1.15-8.8.36l-31.45-8.64Z" fill="currentColor"/>
  <path d="M372.94,139.46l-.68,3.31c-10.12,4.51-20,8.44-29.32,13.39-.23-.5-2.37-.35-2.16-.7l.87-1.62c10.13-5.22,20.45-9.81,31.28-14.38Z" fill="currentColor"/>
  <path d="M510.92,959.31c3.41-.98,6.69,1.44,7.41,4.44.81,3.4-.74,7.02-4.46,8.15-3.2.97-6.47-.89-7.7-4.96-.79-2.6,1.04-6.56,4.76-7.62ZM509.6,962.43c-1.45.65-1.43,5.1-.24,6.12,1.36,1.16,4.37,1.52,5.5.42,1.6-1.55,1.93-4.58.77-5.63-1.29-1.16-4.32-1.67-6.03-.91Z" fill="currentColor"/>
  <polygon points="522.26 653.84 524.54 678.36 523.59 682.28 522.91 689.43 522.2 675.48 521.26 664.32 520.1 653.54 522.26 653.84" fill="currentColor"/>
  <polygon points="660.65 465.44 659.03 466.75 653.22 456.78 636.03 434.33 636.88 433.6 646.67 445.33 660.65 465.44" fill="currentColor"/>
  <polygon points="594.49 232.5 593.27 234.92 589.13 232.04 580.19 226.16 582.37 223.54 594.49 232.5" fill="currentColor"/>
  <polygon points="452.6 645.34 459.39 662.42 457.84 662.47 453.77 656.11 449.29 645.12 452.6 645.34" fill="currentColor"/>
  <path d="M510.36,900.08l4-1.07-.9,9.02-.53,10.04c-1.43-2.87-1.3-4.4-1.54-6.98l-1.03-11Z" fill="currentColor"/>
  <path d="M532.38,186.07l4.91,1.82-9.87-.74-17.01-.3c1.27-.5,2.93-.99,4.18-1.12l7.83-.87,9.95,1.21Z" fill="currentColor"/>
  <circle cx="916.61" cy="536.98" r="3.41" fill="currentColor"/>
  <circle cx="107.4" cy="536.97" r="3.41" fill="currentColor"/>
  <path d="M106.12,460.9c.89-.76,3.99.64,4.47,1.65.55,1.18-.38,3.78-1.61,4.62-.93.63-3.18-.12-4.31-.97-1.04-.78-.2-3.88,1.46-5.3Z" fill="currentColor"/>
  <path d="M514.39,884.27l-4.12-1.01,1.35-12.12c.06-.5.23-1.99.22-2.02s1.2,1.43,1.39,1.66l1.15,13.48Z" fill="currentColor"/>
  <path d="M915.66,460.66c1.05-.6,3.63,1.19,3.67,2.35.04,1.25-.87,3.64-1.99,4.22-1.02.53-3.06-.59-3.9-1.73s.23-3.71,2.21-4.84Z" fill="currentColor"/>
  <polygon points="521.5 893.55 518.44 889.11 536.57 891.78 521.5 893.55" fill="currentColor"/>
  <polygon points="506.55 889.3 501.8 891.78 502.6 893.24 488.37 891.7 498.64 890.43 505.55 889.51 506.55 889.3" fill="currentColor"/>
  <path d="M509.5,899.25c-3.92.98-6.95,3.55-11.93,7.15l4.75-6.46,3.53-5.37,3.65,4.68Z" fill="currentColor"/>
  <circle cx="512.41" cy="932.86" r="3.03" fill="currentColor"/>
  <path d="M514.36,899c2.65-.71,3.96-2.4,4.99-4.9l.82,4.28,5.62,5.8-1.25,1.27-5.32-5.21c-.89-.88-3.49-1.29-4.86-1.23Z" fill="currentColor"/>
  <path d="M509.52,885.12c-1.7,1.01-2.7,2.21-2.97,4.18l-1,.2-6.33-10.09c3.49-1.26,4.77,5.36,10.3,5.71Z" fill="currentColor"/>
  <polygon points="909.2 501.24 896.98 500.09 910.16 497.54 909.2 501.24" fill="currentColor"/>
  <path d="M917.98,510.21c.24,2.8.32,6.29-1.16,9.6l-1.79-11.47,2.95,1.87Z" fill="currentColor"/>
  <polygon points="101.21 497.12 98.69 501.46 88.77 500.12 101.21 497.12" fill="currentColor"/>
  <polygon points="108.63 508.02 107.09 520.13 105.07 508.04 107.03 512.1 108.63 508.02" fill="currentColor"/>
  <polygon points="914.19 493.61 911.04 495.25 905.1 488.36 914.19 493.61" fill="currentColor"/>
  <path d="M550.47,190.7l-11.78-2.93c3.37-.28,8.83.81,11.78,2.93Z" fill="currentColor"/>
  <polygon points="859.47 719.65 856.57 724.05 854.16 722.95 856.5 719.08 859.47 719.65" fill="currentColor"/>
  <polygon points="666.44 468.5 664.25 468.41 667.1 463.15 666.44 468.5" fill="currentColor"/>
  <polygon points="428.65 237.87 424.61 243.81 424.48 241.6 428.65 237.87" fill="currentColor"/>
  <polygon points="412.74 285.09 412.33 281.23 413.7 280.7 412.74 285.09" fill="currentColor"/>
  <polygon points="510.83 506.59 505.49 502.83 508.4 495.76 512.42 494.25 510.83 506.59" fill="currentColor"/>
  <polygon points="539.9 572.27 538.81 574.45 531.09 545.66 532.51 545.9 539.9 572.27" fill="currentColor"/>
  <polygon points="543.54 530.36 543.38 531.59 541.46 531.5 543.54 530.36" fill="currentColor"/>
  <polygon points="483.34 483.54 484.72 482.41 491.85 498.21 490.24 498.18 483.34 483.54" fill="currentColor"/>
  <polygon points="531.54 292.05 525.54 292.92 524.45 292.82 531.54 292.05" fill="currentColor"/>
  <polygon points="395.57 641.6 395.67 643.23 375.5 635.59 377.56 634.56 395.57 641.6" fill="currentColor"/>
  <path d="M521.58,100.96c.62,1.36.89,2.93.86,4.51l-4.12-1.54-3.45-5.46-12.82,9.86-4.44-8.18c-.35-.64-2.51-2-2.81-1.88l3.51-6.57,5.08,9.78,13.88-10.01,4.31,9.47Z" fill="currentColor"/>
  <path d="M532.42,117.47c1.42,1.54,2.12,3.89,2.31,5.43-1.27-.1-3.58.84-4.49,1.55l-9.96,7.73-5.21-9.82-7.25,4.93-1.33-4.44,10.62-7.64,4.8,10.21,10.52-7.95Z" fill="currentColor"/>
  <path d="M506.49,122.85l1.33,4.44-6.07,4.81-5.25-10.14-10.69,8.22c-.86.66-3.19.45-3.6-.36s-.05-2.8.79-3.39l15.25-10.85,4.96,9.63,3.29-2.36Z" fill="currentColor"/>
  <path d="M518.33,103.93l4.12,1.54c.03-1.59-.25-3.15-.86-4.51l2.8-1.24,11.28-8.32,6.66,13.05-3.39,2.73-5.11-8.94-13.02,9.61-2.48-3.92Z" fill="currentColor"/>
  <path d="M498.31,91.71l-3.51,6.57c-.68.95-2.12,2.83-3.12,3.57l-5.91,4.42c-.82.61-3.14.36-3.57-.43s-.03-2.78.78-3.35l15.32-10.78Z" fill="currentColor"/>
  <path d="M534.73,122.91c-.19-1.55-.89-3.89-2.31-5.43-.05-.14,2.91-1.86,3.49-1.69l5,10.64c.37.78.42,2.73.29,3.51-.09.59-2.56,1.23-2.81.69l-3.66-7.72Z" fill="currentColor"/>
  <path d="M248.1,218.27c.74-.68,4.36-1,4.54-.01.22,1.18-.1,3.84-.62,5-.5,1.1-3.56.19-4.66-.52-1.01-.66-.22-3.57.74-4.46Z" fill="currentColor"/>
  <polygon points="580.36 323.56 578.49 325.06 567.8 317.39 568.21 315.55 580.36 323.56" fill="currentColor"/>
  <path d="M772.56,218.43c.48-.87,3.86-.86,4.54-.14.82.87,1.21,3.33.3,4.11-.83.71-2.78,1.43-3.77,1.33-1.19-.12-1.8-4.02-1.08-5.31Z" fill="currentColor"/>
</svg>
