<svg xmlns="http://www.w3.org/2000/svg" viewBox="0 0 1024 1024">
  <path d="M531.36,311.92l8.48,1.36-2.93,2.32c-.55.44-.23,2.2.1,3.04l-5.79,1.53,7.24,4.49-2.99,2.02c-6.6-4.07-13.26-7.74-21-9.39l4.99-.51,16.13-.28c-15.34-2.92-25.07-13.31-39.18-14.01-5.3,17.7-8.66,27.6-22.4,38.47l-2.36-2.44c13-9.49,19.22-25.21,22.09-41.77l-11.37,6.8c-11.99,7.17-21.71,10.01-27.57,26.12l-2.02-.07.13-.65.49-1.35c1.16-5.91,4.97-10.79,9.95-15.22s11.28-6.92,17.38-10.72l-19.92,5.55c-4.39,1.22-9.75,5.45-12.6,8.8l-8.5,10.03-2.46-1.2c-.59-.17-1.55,1.21-1.78,1.57h-1.07s-1.87-.72-1.87-.72c11.79-8.35,16.21-17.26,28.08-22.69l2.27.2c.57.05,1.36-.91,1.69-1.31,10.61-2.14,21.43-5.13,31.19-10.85.71-.61,1.63-1.36,1.85-.91s.8,2.14.73,2.63l-.96,6.51c7.83,1.52,13.03,3.4,20.93,6.72-.81-2.86-1.9-6.95-3.45-9.52l-5.78-9.55,2.42-3.08c5.38,7.09,8.87,15.34,11.6,24.33,2.25,1.56,5.76,3.37,8.25,3.76Z" fill="#d1b984"/>
  <path d="M556.22,366.26l3.31.4-1.91,2.97-8.8,5.02,3.79,1.88-.08,2.02c-5.15-2.39-10.97-1.21-15.92.65l9.82,7.39,1.19,1.24c-5.17,3.13-5.52,9.96-4.57,16.34-5.25-3.66-2.11-9.73-.22-14.55l-8.38,1.94c-3.67.85-6.64,2.94-6.93,7.07l-.56,7.81c-4.47-4.82-1.23-9.23.43-13.91l-9.11.31c-2.38.08-4.44,5.76-5.78,8.21-1.83-2.61-.14-4.79,2.63-7.96l-8.65-2.67-7,6.57c1.06-2.9,2.02-4.34,3.87-7.22l-7.49-2.92-8.76,4.58c2.47-2.94,4.05-3.84,7.01-6.08l-9.14-6.04c-5.46-6.53-9.9-12.65-9.51-20.67.79-.62,1.9-1.82,2.35-2.43l-4.59-.72c9.49-4.95,7.79,10.45,21.11,17.44,19.5,10.24,44.97,6.76,61.88-6.67ZM484.94,368.85l-7.11-10.78c-.63,8.23,3.8,13.39,8.78,19.35,2.29-3.54.21-5.74-1.67-8.58ZM495.08,382.27c2.15-3.3-3.06-8.65-6.13-8.34-2.49,3.48,2.86,8.99,6.13,8.34ZM505.48,386.62c0-5.55-3.71-7.74-8.79-8.95-.07,1.53.66,5.52,1.73,7.3.95,1.57,5.65,2.59,7.06,1.64ZM515.9,389.48c-1.61-7.32-5.13-7.25-9.47-9.13l1.29,8.41,8.18.72ZM531.43,389.7c3.84.15,9.46-1.39,12.29-3.45-5.5-5.76-13.18-5.28-19.04-4.44,2.9,2.3,4.33,4.35,6.75,7.89ZM529.03,389.46c-3.7-6.1-8.82-7.97-14.52-7.88l4.44,8.78c2.4.7,7.06.34,10.07-.9Z" fill="#c5af83"/>
  <path d="M415.38,521.23l1.27,4.38-3.87,4.05-1.87-2.98-3.41,4.77-5.19,3.8c-17.82,15.28-23.32,39.77-10.59,59.93,2.03,3.22,4.68,5.34,4.08,10.02-4.89-5.28-7.57-10.3-11.35-16.61-3.3,10.1-9.19,18.38-18.29,21.69l.15-3.03c8.44-5.31,15.27-13.72,15.45-24.58l.37-21.51c.14-8.01,1.32-15.66,5.69-22.41l8.68-13.41,1.32,3.43c-3.23,4.1-5.61,9.41-8.22,15.4l6.55-7.19c4.08-4.48,8.5-8.66,13.24-11.8l3.01-1.99,2.96-1.97Z" fill="#cbb17d"/>
  <path d="M436.47,418.7l2.43,1.12c-13.36,16.86-21.48,19.34-43.72,24.2,8.58,1.81,16.57,6.35,20.42,13.25l.97,1.33c.15.22.16.73.02.92l-2.04,2.19c-5.98-10.74-17.29-16.25-30.04-15.34-6.21.65-12.2,2.62-18.02,4.89l-13.15,5.13c-5.88,2.29-7.33,10.5-13.17,10.58l5.59-5.35c1.76-1.69,2.99-4,2.78-6.05l21.87-9.15c23.77-9.94,55.1-2.99,62.14-31.62,1,2.58.54,4.51.27,8.05l3.66-4.16Z" fill="#cbb17d"/>
  <path d="M684.5,651.32l-3.2.03c22.62-39.17,26.12-89.48-4.66-125.13l-5.49-6.36,1.27-2.45c34.23,32.11,37.88,83.42,16.47,125.33l-4.38,8.58Z" fill="#9f7f56"/>
  <path d="M475.46,358.64c-3.45,2.71-4.24,8.08-4.07,13.07.36,10.66,6.23,19.11,13.84,26.32,10.87,10.3,24.82,14.48,39.26,16.85l18.83.81c.51-.25,2.55-.85,1.88-1.11.38,0,1.07.03,1.31.12l2.66,1.57c-.92.42-3.3,1.42-4.74,1.39l-22.64-.52c-25.41-3.32-51.89-20.74-54.22-46.44-.53-5.8.93-12.74,5.65-15.2l4.59.72c-.45.61-1.56,1.81-2.35,2.43Z" fill="#c2a978"/>
  <path d="M397.35,562.93c2.13,49.24,46.64,48.35,80.17,64.41l-.05,2.43-7.25-3.04-20.87-7.08c-9.42-3.19-18.57-6.03-27.32-10.65-18.44-9.73-30.05-29.55-26.81-49.47l2.13,3.4Z" fill="#ac9570"/>
  <path d="M616.34,419.55l-3.98,3.06c-1.8-.59-4.16-1.73-4.72-3.01-.02-1.25-1.54-2.55-2.94-3.22l-1.23-.75-2.12-.97c-.31-.18-.68-.81-.83-1.08-.16-1.02-.83-3.47-1.56-4.45l-7.29-9.92c-11.09,7.62-22.05,12.87-34.75,16.06l.42,3.48-2.97-2.66-5.21.19-2.66-1.57,5-1.55c24.88-4.55,35.71-16.64,40.94-17.38,1.37-.2,4.08-.22,5.13-1.1l-2.32,3,9.96,14.25c2.44,3.49,7.33,7.09,11.12,7.64Z" fill="#b3966b"/>
  <path d="M397.83,528.78l-1.32-3.43,10.05-12.43c.32-.4,1.15-1.68,1.2-1.82.03-.1-.88-.56-1.21-.72.09-.24.55-1.44,1.03-1.43l3.18.05c.95.02.59-2.74.07-3.53-.63-.95-2.97-.67-4.25-.15l-3.98,1.62c9.66-5.92,13.85-16.69,15.39-27.33.32-2.17.49-5.19-.35-7.06l-.05-2.04-.9-2.98-2.13-5.8,2.04-2.19c7.96,14.08,5.34,30.05-4.27,44.11l9.28-6.19-9.21,12.84-14.57,18.48Z" fill="#d1b984"/>
  <path d="M598.59,473.54l9.76,8.97c3.72,3.42,8.84,6.82,13.39,8.19l22.62,6.83,3.03.83,7.99.96.99.18-1.61,3.01-3.7.02c-2.11-1.21-3.86-1.88-6.9-2.51l2.24,3.27-16.62-4.3-17.29-5.6-8.18-4.49.59-1.47c4.53,2.57,9.94,4.64,15.64,6.09-9.75-5.5-18.32-11.17-24.67-19.8l2.73-.21ZM600.49,477.03c.14.37,1.21,2.02,1.29,1.71l.28-1.17c.07-.31-1.69-.85-1.57-.54Z" fill="#c2a978"/>
  <path d="M471.5,472.45l-1.03,2.04-.71,1.16c-8.21,16.86-21.09,31.05-38.4,39.48l-14.71,10.49-1.27-4.38,12.37-7.61c17.65-9.18,32.2-23.13,40.35-41.09l3.41-.08Z" fill="#c0a573"/>
  <path d="M663.25,628.38l-1.22-1.42c-.26-.26-.54-.23-1.37-.1l2.78-15.45c3.65-20.27-4.5-41.77-19.12-55.81l.07-3.25c22.98,18.77,27.41,48.02,18.85,76.03Z" fill="#927857"/>
  <path d="M583.34,303.72c.26-.07.69.04,1.36.16l-.36.91.76,12.69-.73,7.11.23,6.07,3.08-.71c.33-.08.57,1.45.46,1.28-2.43.74-5.18,2.78-5.92,5.02l-1.76,5.34c-.15.45-.14,1.6.04,2.02-1.46.82-3.5,3.46-4.07,4.97l-1.15,3.05-5.31,6.26c-.38.44-.24,2.96-.8,3.12l-2.62.76c-.56-.15-1.79-.2-1.78-.66l.05-1.31-.08-1.07,1.71-2.19c13.06-13.55,17.89-33.29,13.64-51.84l3.25-.98Z" fill="#ab8b5d"/>
  <path d="M590.08,706.38l-.71-3.26c19.31-9.83,36.8-23.39,51-39.74l5.02-1.01-5.5,6.65c-14.15,15.55-31.29,28.4-49.8,37.36Z" fill="#d1b984"/>
  <path d="M567.49,712.97l-.08,3.21-29.16,8.83-37.24,8.35c2.92-1.15,6.61-3.73,8.95-5.4-2.99.19-7.47.08-9.49.65l11.59-4.14-1.63,2.41c-.35.47,1.05,2.38,1.48,2l1.62-1.44c18.23-3.92,36.32-8.49,53.95-14.46Z" fill="#b3966b"/>
  <path d="M501.01,733.34l-20.42,8.04c-6.76,2.66-12.53,7.52-18.32,12.04l-3.49-.49c11.21-11.64,26.41-20.02,41.69-24.34,2.02-.57,6.5-.46,9.49-.65-2.34,1.66-6.03,4.25-8.95,5.4Z" fill="#9f7f56"/>
  <path d="M513.54,727.43l-1.62,1.44c-.43.38-1.83-1.53-1.48-2l1.63-2.41,42.31-12.25c19.9-5.76,37.29-14.96,54.1-26.86-14.47,13.74-32.5,22.83-51.56,28.42l-37.07,10.87-6.29,2.79Z" fill="#af9b78"/>
  <path d="M395.59,359.27c-1.64,3.05-3.24,8.02-5.65,9.31-3.35,1.79-8.22,2.37-11.29,1.4-5.35-1.69-7.07.58-12.02,4.04l5.24-9.03c5.97-16.64,17.42-7.45,33.83-9.77-2.45,2.24-6.72,2.9-10.11,4.05ZM392.85,359.49l-6.15-1.18c-6.09-1.17-11.24,2.83-11.84,7.95,8.24,3.07,15.57,1.27,17.99-6.78Z" fill="#d1b984"/>
  <path d="M543.86,519.78l-17.45,18.52c-9.36,12.22-14.71,20.96-14.03,36.1l-.87,2.39c-.12.52.72,1.26.87,1.74l.97,3.01c.04-.24-1.02,2.17-1.34,1.76l-1.55-1.81v-2.05s-.37-15.02-.37-15.02c1.01-16.94,20.2-35.04,32.2-47.27l1.57,2.63Z" fill="#cab486"/>
  <path d="M566.55,361.77l-6.07,5.19,10.21,6.59c2.35-2.05,5.39-4.51,8.79-6.15-1.82,2.51-3.38,3.77-5.87,5.55-5.12,3.67-3.66,11.92-1.35,19.9-4.34-4.09-4.05-8.96-3.86-15.86l-8.41,5.65c-3.93,8.18-2.93,15.13,2.61,22.28-7.77-3.33-8.18-11.68-6.07-20.17-2.57.54-6.72,1.76-8.9,3.08l-1.19-1.24,10.15-4.81c-.84-1.11-2.73-2.62-4.05-3.23l.08-2.02c1.75.87,3.47,2.36,6.19,4.61l10.3-6.51c-3.24-3.4-7.04-4.68-11.48-4.99l1.91-2.97-3.31-.4,8.6-6.46-.05,1.31c-.02.46,1.22.51,1.78.66Z" fill="#ac9570"/>
  <path d="M366.31,607.26l-.15,3.03c-3.62,2.79-8.23,3.2-13.91,3.51,5.43,3.7,11.01,1.03,18.43-.32l-14.23,14.8-6.28,7.56-3.22,4.73c-.83-.13-1.84-.37-2.03-.85l-.35-1.42c5.24-7.5,11.5-13.93,18.31-20.7l-11.09-.39c-1.76-.06-5.32-1.9-6.04-2.68l4.98-.99-3.42-3.06c6.22.15,13.56.2,19-3.22Z" fill="#c0a573"/>
  <path d="M302.65,455.52l1.63-.14-2.6-6.87,1.17-2.78c1.17-3.64,3.46-7.06,6.52-8.27l2.38.89-4.52,4.14c-1.49,1.37-1.94,5.77-.91,7.82,3.82,7.58,22.66,3.59,34.58-11.52,2.35-2.98,5.67-4.01,8.73-2.85-2.75.76-5.76,2.1-7.29,4.28-8.52,12.11-24.58,21.6-36.43,14.5l.4,3.31-3.66-2.51Z" fill="#c5af83"/>
  <path d="M471.5,472.45l-3.41.08c4.1-9.03,6.69-19.41,7.39-29.88,1.18-17.52-5.85-32.46-14.8-47.43,9.31,9.6,15.51,22.87,16.73,36.32l.83,9.15c1,11.06-2.05,22.47-6.74,31.76Z" fill="#9a815e"/>
  <path d="M741.75,550.29l-3.43,1.15c-9.81-13.91-22.28-25.25-37.15-33.89l1.14-3.4c16.4,7.49,29.12,21.44,39.43,36.15Z" fill="#ab8b5d"/>
  <path d="M644.4,552.35l-.07,3.25c-15.83-15.21-39.47-19.58-57.1-5.51-6.64,5.3-8.72,11.91-12.1,20.03,1.2-15.53,12.75-26.87,28.02-29.96,16.08-3.26,29.09,2.25,41.25,12.19Z" fill="#9e896b"/>
  <path d="M562.96,493.73l-2.78-1.2c11.69-23.61,10.65-50.57-2.86-73.95,2.04,1.43,3.9,3.78,5.12,6.21,10.93,21.77,10.76,47.42.53,68.95Z" fill="#9a815e"/>
  <path d="M666.62,339.06c-5.57,9.84-9.11,21.72-8.01,33.19s4.13,20.81,10.63,29.52c1.17,1.57,2.2,3.78,2.78,5.33l-.68.86c-17.76-19.04-19.93-48.28-6.65-70.42l1.94,1.52Z" fill="#9a815e"/>
  <path d="M662.37,499.62l22.83,6.7,17.12,7.82-1.14,3.4c-13.75-8-31.61-12.58-46.42-15.02l1.61-3.01,6.01.11Z" fill="#b3966b"/>
  <path d="M347.32,610.49l3.42,3.06-4.98.99-1.03-.28-1.26-.69c-5.89-2.74-10.04-9.65-9.44-16.66.53-6.24,4.87-10.42,9.92-11.87s11.57.07,14.03,5.14c-3.14-1.65-5.97-2.81-9.21-3-6.54-.38-11.26,3.86-11.3,10.25-.06,8.77,6.89,10.41,9.85,13.05Z" fill="#ab8b5d"/>
  <path d="M513.35,581.54c1.7,5.27,4.07,11.19,8.53,15.61,11.35,11.24,25.61,15.14,37.82,30.87l-2.29.38c-5.76-6.76-13.47-11.52-20.96-16.97l-14.48-10.56c-6.3-4.59-9.5-12.28-11.51-19.39l1.55,1.81c.33.41,1.38-2,1.34-1.76Z" fill="#b8a27b"/>
  <path d="M600.52,413.58c.15.27.52.9.83,1.08l2.12.97,1.23.75c-.68.16-1.19,1.71-.75,2.12l1.25,1.16,5.04,9.99c3.31,6.57,5.77,13.48,10.43,18.76l-4.31.08c-4.22-5.83-7.47-12.56-10.28-19.54-3.42-8.47-9.11-14.25-16.72-19.9.92-.33,4.05-.22,5.05.46l6.11,4.06Z" fill="#c0a573"/>
  <path d="M530.64,686.94c-2.69,3.78-6.13,7.75-10.34,10.23l-21.95,12.95-21.34,13.49.78-3.5,27.57-16.95c8.58-5.27,17.52-9.73,23.29-18l2,1.79Z" fill="#b49d76"/>
  <path d="M754.72,415.01c-11.05,9.1-24.47,14.88-39.39,13.47-8.73.34-17.54-1.25-24.2-5.98l1.42-.87c9.28,2.99,19.28,6.05,29.39,4.76,11.99-1.54,22.43-5.8,31.04-13.02l1.74,1.65Z" fill="#b49d76"/>
  <path d="M493.5,551.53l-1.19-2.33c4.08-7.8,8.05-15.45,14.84-22.39l15.85-16.21c.49-.5,2.91.92,2.52,1.33l-1.76,1.86c-12.15,11.25-22.5,23.55-30.26,37.75Z" fill="#d6c092"/>
  <path d="M684.5,651.32c-11.72,22.96-39.39,50.28-63.23,63.23l24.2-19.19c15.09-11.96,26.37-27.62,35.83-44.01l3.2-.03Z" fill="#ac9570"/>
  <path d="M602.17,676.52l.3-2.51c1.43-.73,2.57-1.54,3.95-2.61,12.44-9.22,24.35-18.87,33.16-31.8l1.39-2.04c.28-.41,1.69.77,2.28,1.23-5.55,7.28-11.05,15.04-18.24,21.08s-14.65,11.89-22.84,16.65Z" fill="#cbb98e"/>
  <path d="M607.37,305.79c.64,3.56-1.16,8.15,2.11,10.9l-1.36.8c-2.76,4.33-3.91,10.42-.07,14.42l5.59,5.82c-4.26-1.15-6.14-3.44-9.01-7.31l-3.95,10.22-2.35,1.02-1.02-.31.32-1.52c1.06-.24,3.04-2.18,3.34-3.46l1.78-7.59-7.35-.32v-1.55s8.59-.49,8.59-.49l1.7-10.89-5.03.97-1.31-1.18,5.82-1.14.06-8.45,2.15.06Z" fill="#927857"/>
  <path d="M598.59,473.54l-2.73.21c-5.34-7.25-8.6-15.8-11.56-25.03l-7.79-24.38c5.26,6.31,6.99,14.05,9.27,21.84,2.96,10.1,6.72,19.33,12.8,27.36Z" fill="#ac9570"/>
  <path d="M464.62,454.2c-2.34,9.32-4.96,18.49-11.38,25.42,10.55-18.77,12.29-38.41,5.27-58.53,4.59,3.94,4.47,9.61,6.02,14.53l.09,18.58Z" fill="#ac9570"/>
  <path d="M402.59,506.94l3.98-1.62c1.28-.52,3.62-.8,4.25.15.52.79.88,3.54-.07,3.53l-3.18-.05c-.48,0-.94,1.18-1.03,1.43l-.93.19-2.01.87-1.03.03-4.98,1.14c-7.12.84-15.99-3.18-14.54-11.83,3.26,3.77,5.22,7.28,8.83,8.25,3.27.88,7.82-.9,10.71-2.07Z" fill="#c2a978"/>
  <path d="M412.77,529.66c-6.95,7.27-11.95,16.66-13.9,26.96l-1.52,6.31-2.13-3.4.4-2.05.9-3.15c1.33-8.29,6.1-16.04,10.98-22.88l3.41-4.77,1.87,2.98Z" fill="#c0a573"/>
  <path d="M310.8,579.09c-.38,5.64-6.56,8.07-10.64,6.41-4.72-1.92-7.18-7.31-4.19-11.67,2.21-3.23,5.73-4.93,8.75-4.1,4.1,1.13,6.43,4.07,6.08,9.36ZM307.35,574.63l-1.65-1.39c-1.56-1.31-5.7-.85-6.88.88-1.68,2.45-1.68,6.82.32,8.42,1.75,1.4,6.01,1.16,7.81-.21,2.24-1.7,2.35-6.05.39-7.7Z" fill="#af9b78"/>
  <path d="M486.24,576.38c-1.25,17.18,4.56,32.45,14.6,47.15-12.75-11.22-18.33-31.83-16.41-46.96l.45,8.69,1.35-8.88Z" fill="#ac9570"/>
  <path d="M741.75,550.29l4,5.7c4.79,7.16,8.11,14.35,9.64,22.21l-2.29.53c-3.25-9.83-8.8-18.82-14.78-27.3l3.43-1.15Z" fill="#9f7f56"/>
  <path d="M562.96,493.73c-4.67,9.83-11.23,18.57-19.1,26.05l-1.57-2.63c7.02-7.16,13.43-15.63,17.88-24.62l2.78,1.2Z" fill="#b3966b"/>
  <path d="M557,343.34l-1.45,1.06-.9.09c-2.75-2.99-5.79-6.09-9.1-7.88l-3.42-3.76c-1.09-1-2.55-3.07-3.73-3.34l.14-.95-1.16-.72-1.91-1.18,2.99-2.02c5.14,3.18,10.16,6.95,13.9,12.18l4.65,6.5Z" fill="#be9e6b"/>
  <path d="M636.53,465.63l-8.04-2.55c1.86-.58,3.46-2.26,4-4.62,7.11,4.53,15.79,4.8,24.04,3.42-5.87,4.71-14,5.65-20,3.75Z" fill="#9f7f56"/>
  <path d="M489.54,483.32c-6.06,8.93-14.38,15.9-21.71,24.54l-4,4.71-1.41-1.36,5.3-6.49,11.97-13.12,6.71-7.71c.49-.57,2.46-1.06,3.14-.56Z" fill="#cbb98e"/>
  <path d="M474.01,340.94c-5.69,4.51-12.68,4.28-20.18,5.31-3.83.53-7.58,5.67-12.43,2.78l12.13-6.2c6.61-.21,13.13-.68,18.13-4.33l2.36,2.44Z" fill="#c0a573"/>
  <path d="M489.54,483.32c-.68-.51-2.65-.01-3.14.56,6.3-9.96,10.81-20.83,10.92-33.47l-1.53-15.65c5.92,14.09,3.38,34.37-6.25,48.56Z" fill="#9e896b"/>
  <path d="M620.67,448.41c3.3,3.74,7.64,7.4,11.82,10.06-.54,2.35-2.14,4.03-4,4.62l8.04,2.55-4.35.26c2.22,3.17,5.19,6.61,8.42,8.38l-1.14,1.11c-3.36-1.42-6.89-7.44-9.42-10.24l-13.83-5.59.43-2.1c3.38,2.32,9.04,2.98,14.01,4.13-5.46-4.35-10.56-7.95-14.29-13.1l4.31-.08Z" fill="#b3966b"/>
  <path d="M592.78,641.37l-1.81.7c-4.54-11.99-13.49-22.07-25.05-27.55l2-1.29c11.86,5.67,20.84,15.77,24.87,28.14Z" fill="#c5af83"/>
  <path d="M651.06,502.55c7.49,4.31,15.02,8.92,21.35,14.86l-1.27,2.45c-7.25-5.9-14.47-11.35-22.7-15.47l-1.15-.75-.9-.32-2.24-3.27c3.04.62,4.79,1.29,6.9,2.51Z" fill="#b3966b"/>
  <path d="M404.53,613.45c.11-.05,2.43.04,2.16-.33l-.92-2.07c6.99,6.46,16.06,10.64,25.37,13.74,2.87.96,5.54,1.77,6.84,4.65-12.75-3.37-24.63-7.55-33.45-15.99Z" fill="#b8a27b"/>
  <path d="M746.28,487.32l-2.38.37c-2.46-4.73-2.3-9.7.99-14.18,3.04-4.14,7.8-5.78,13.27-4.81l.02,2.08c-3.13,1.25-4.92,2.35-7.48,4.26l-4.04.39c-1.37.13-3.18,5.67-.38,11.89Z" fill="#c2b088"/>
  <path d="M735.11,603.49l-2.28-.06c-.61-.01-.2-2.51-.31-3.11l-.92-5.03-5.78-24.57,1.79-1.28c2.89,7.75,5.48,16.22,6.46,24.94l1.03,9.11Z" fill="#c1aa7e"/>
  <path d="M548.62,463.17c3.16,11.06-10.26,37.55-19.5,42.06,9.6-13.81,17.91-25.3,19.5-42.06Z" fill="#978368"/>
  <path d="M420.29,320.69l-10.99.7,2.15-3.47-6.23-.76c7.64-1.33,11.31-3.38,17.21-9.07-1.39,3.94-3.51,7.27-5.83,10.42l11.22.42c-2.35,1.21-4.58,1.56-7.54,1.75Z" fill="#cab486"/>
  <path d="M483.83,530.5c-8.15,11.46-13.17,24.93-14.43,39.03-.23-.53-.96-2.51-.98-3.31-.27-9.59,7.38-28.96,13.67-37.08l1.74,1.36Z" fill="#c1aa7e"/>
  <path d="M340.16,466.97c-.09.08-.52.21-.65.26l-1.13,1.49c-3.66,1.9-11.38,2.48-15.65.87l6.13-.55-2.46-3.4c3.98,1.6,8.87,1.67,12.8-1.81l9.33-8.26c.21,2.06-1.01,4.37-2.78,6.05l-5.59,5.35Z" fill="#c2a978"/>
  <path d="M437.55,539.68c-3.17,10.57.51,28.66,8.15,38.81-6.37-5-10.75-12.96-10.82-21.16l-.14-14.78,2.81-2.87Z" fill="#b8a27b"/>
  <path d="M631.5,517.17c11.89,4.15,24.53,10.09,31.7,20.53-11.53-8.3-21.19-16.25-33.96-18.81l2.26-1.71Z" fill="#c2b088"/>
  <path d="M314.58,459.46l3.25,2.14c2.28,1.57,5.66,2.87,8.58,4.05l2.46,3.4-6.13.55c-.24.02-.8.02-1.05-.06l-2-.92-.98-.16-.98-.92-1.19.16-3.01-3.07-3.19-4.24,4.24-.92Z" fill="#be9e6b"/>
  <path d="M378.77,623.85c-5.67,8.13-8.96,19.23-7.36,28.92l-2.26,2.4c-2.21-12.09,1.27-23.29,8.52-33.17l1.1,1.85Z" fill="#cab486"/>
  <path d="M662.37,499.62l-6.01-.11-.99-.18-.16-1.15c.15.76-21.83-7.83-26.33-22.36l12.32,12c5.89,5.74,13.56,9.57,21.16,11.8Z" fill="#b8a27b"/>
  <path d="M683.78,590.13c.05-16.88-6.45-31.85-15.34-47.02,12.08,12.15,16.99,29.91,15.34,47.02Z" fill="#897963"/>
  <path d="M411.57,566.54l1.22,5.03c.83,5.61,2.94,12.07,6.79,16.98,2.7,3.44,6.4,8.08,9.89,9.67l-1.02,1.31c-7.57-4.47-15.64-13.95-16.93-23.05l-.89-3.21-.02-8.9,1.5.31c-.14.39-.59,1.39-.54,1.85Z" fill="#b8a27b"/>
  <path d="M534.51,366.46c-8.23-11.29-18.69-19.8-31.74-23.62,13.99.61,27.03,10.49,31.74,23.62Z" fill="#b8a27b"/>
  <path d="M602.47,674.01l-.3,2.51c-10.61,6.17-21.24,11.76-32.6,15.19l-1.15-1.48c11.93-3.94,22.8-10.48,34.05-16.21Z" fill="#af9b78"/>
  <path d="M440.48,674.89l1.93-2.19c-.22,4.19,2.4,7.78,6.71,7.72,3.51-.05,6.29-3.6,5.47-7.51-.7-3.36-4.47-5.32-7.91-4.65l-2.18-1.02c4.27-2.57,10.16-.59,11.71,3.91,1.84,5.33-.58,10.62-6.05,11.25-4.62.54-9.25-2.06-9.67-7.51Z" fill="#af9b78"/>
  <path d="M311.75,438.35l-2.38-.89,2.16-1.44c3.53-2.35,8.33-7.39,5.19-12.64l-9.12,1.18c2.33-3.64,6.54-4.97,10.4-2.87,2.54,1.38,3.1,5.71,1.92,9.07-1.46,4.13-4.2,7.39-8.17,7.59Z" fill="#d6c092"/>
  <path d="M445.19,471.41c-2.05,10.74-5.59,22.32-14.14,30.82,4.47-10.13,9.72-19.25,11.61-29.65l1.06-1.49c.35-.42,1.26.05,1.47.32Z" fill="#cbb98e"/>
  <path d="M493.5,551.53c0,.34.03.66-.07.86l-1.81.46c-.24.06.75.53.9.61l-6.28,22.92-1.35,8.88-.45-8.69-.03-2.22.76-5.96c.87-6.82,4-13.22,7.13-19.19l1.19,2.33Z" fill="#cab486"/>
  <path d="M567.91,613.24l-2,1.29-14.58-6.91c-6.17-2.92-11.99-5.54-17.04-10.26l15.78,7.44,13.32,5.83,4.52,2.6Z" fill="#a28e70"/>
  <path d="M663.25,628.38c-1.96,6.41-4.27,13.32-7.96,18.93l-3.31-1.03,7.33-14.89.99-3.04.36-1.48c.83-.14,1.11-.17,1.37.1l1.22,1.42Z" fill="#b3966b"/>
  <path d="M338.66,409.87c1.7-4.33,4.51-7.54,7.13-11.13,4.42-6.07,8.31-12.07,14.09-17.24-5.74,10.76-12.7,19.71-21.21,28.36Z" fill="#c2b088"/>
  <path d="M475.3,642.08c-10.95-5.66-22.57-9.45-35.98-12.2,1.26-1.54,4.12-1.6,6.47-.82,10.15,3.34,20.7,5.1,29.51,13.02Z" fill="#a28e70"/>
  <circle cx="652.93" cy="438.22" r="4.55" fill="#ac9570"/>
  <path d="M530.64,686.94l-2-1.79c4.3-6.16,8.32-14.59,6.69-21.33l-.71-2.94c-.13-.52,1.16-1.21,1.62-1.43,3.16,9.74.11,19.47-5.6,27.5Z" fill="#a28e70"/>
  <path d="M477.47,629.77l.05-2.43c8.83,4.23,17.38,9.14,24.17,16.91-2.6.44-3.54-1.19-5.43-2.67-5.92-4.62-12.17-9.02-18.79-11.81Z" fill="#9e896b"/>
  <path d="M413.41,445.83c11.32,1.14,22.59,12.63,19.53,24.08-2.06-11.63-8.62-19.88-19.53-24.08Z" fill="#b8a27b"/>
  <path d="M563.64,353.39l-1.41,2.25-8.85-6.54,2.17-4.69,1.45-1.06c2.06,2.87,5.61,6.77,6.64,10.05Z" fill="#ab8b5d"/>
  <path d="M551.33,344.68l1.13,1.15,2.19-1.35.9-.09-2.17,4.69c-5.86-4.33-13.33-5.76-20.94-8.01,6.13-1.45,13.69.3,18.89,3.6Z" fill="#b8a27b"/>
  <path d="M692.55,421.64l-1.42.87c-8.01-2.26-14.17-8.46-19.79-14.55l.68-.86c-.85-.3,1.34.17,1.52.37,4.12,4.41,12.9,11.01,19.01,14.17Z" fill="#a28e70"/>
  <path d="M528.59,327.34l9.81,2.18c1.19.26,2.64,2.33,3.73,3.34l3.42,3.76c-7.64-4.15-15.68-6.62-24.09-8.23l7.13-1.05Z" fill="#c5af83"/>
  <path d="M463.83,512.56l-7.36,11.67-5.36,13.95c-.18-10.64,5.23-19.53,11.31-26.99l1.41,1.36Z" fill="#af9b78"/>
  <path d="M658.05,485.62l1.46-1.41c8.9,4.28,17.85,10.02,22.97,19.43-7.79-7.57-15.19-13.56-24.43-18.02Z" fill="#9e896b"/>
  <path d="M520.83,480.67l-1.39-1.11c5.21-12.15,4.82-24.54,1.95-38.22,3.41,5.6,3.05,11.73,3.25,18.2.24,7.71-1.05,14.54-3.82,21.12Z" fill="#897963"/>
  <path d="M445.19,471.41c-.21-.27-1.12-.74-1.47-.32l-1.06,1.49c1.8-9.87,1-19.67-.91-30.15,4.25,6.64,4.8,21.81,3.44,28.97Z" fill="#978368"/>
  <path d="M528.59,327.34l-7.13,1.05-16.31,2.06-6.7,1.01c9.31-5,20.11-6.35,30.14-4.12Z" fill="#ac9570"/>
  <path d="M444.84,407.26l-2.57.28c2.77-7.98,2.11-15.97,2.69-25.21,2.66,7.39,2.31,17.52-.12,24.93Z" fill="#9a8364"/>
  <path d="M659.51,484.21l-1.46,1.41-14.52-7-4.08-3.24,1.14-1.11,7.1,3.9c4.35,1.78,8.54,3.64,11.83,6.04Z" fill="#c2b088"/>
  <path d="M656.19,605.34c-.78,8.83-3.73,18.13-9.69,25.64,2.26-9.58,6.68-16.99,8.05-25.54l1.65-.1Z" fill="#9e896b"/>
  <path d="M607.44,514.45l7.87,1.08,3.11-.06v1.24s-18.77.07-18.77.07c-6.04.02-11.35,2.83-18.01,4.67,5.55-4.58,12.83-5.73,20.34-6.47l5.45-.54Z" fill="#a28e70"/>
  <path d="M727.62,569.44l-1.79,1.28-11.51-24.47c6.33,6.76,10.25,14.98,13.3,23.19Z" fill="#9e896b"/>
  <path d="M379.91,672.23l-1.67,1.04c-4.65-5.39-7.86-11.4-9.09-18.1l2.26-2.4c1.15,6.97,3.22,14.85,8.5,19.46Z" fill="#b49d76"/>
  <path d="M520.83,480.67c-3.34,7.96-8.33,14.76-14,21.22l-1.49-1.52c5.81-6.18,10.81-13.13,14.1-20.8l1.39,1.11Z" fill="#af9b78"/>
  <path d="M398.36,664.33l1.41-1.31c4.58,7.82,12.61,11.46,22.09,13.86-9.68,1.21-18.53-4.76-23.5-12.55Z" fill="#af9b78"/>
  <path d="M445.12,713.39l1.61-1.16c5.55,6.57,9.9,14.87,8.46,23.14-2.44-8.11-4.73-15.94-10.07-21.98Z" fill="#a28e70"/>
  <path d="M559.71,628.02c4.78,6.15,8.01,13.28,8.66,21.4l-1.95-.09c-.84-7.52-4.05-15.12-9-20.93l2.29-.38Z" fill="#a28e70"/>
  <path d="M616.64,457.47l-.43,2.1c-6.7-2.71-13.49-7.1-16.47-13.7l16.9,11.59Z" fill="#c1aa7e"/>
  <path d="M469.39,569.53c-.25,8.79,1.12,17.61,2.95,27.01-4.39-8.73-5.03-19.09-4.81-28.98.14-.25.89-1.27.88-1.33.02.8.75,2.78.98,3.31Z" fill="#897963"/>
  <path d="M392.31,349.44c-6.61-1.65-12.79.69-19.82,3.9,2.07-6.33,15.55-9.22,19.82-3.9Z" fill="#cbb98e"/>
  <path d="M590.97,642.08l1.81-.7c2.77,7.65,3.02,20.77-1.18,27.15l1.46-12.61c.43-3.71-.71-10.17-2.1-13.83Z" fill="#9e896b"/>
  <path d="M554.34,363.95c-6.57-6.9-12.26-12.36-19.84-16.32,8.53,2.09,17.33,7.88,19.84,16.32Z" fill="#b49d76"/>
  <path d="M317.82,461.6l-3.25-2.14c7.35-1.59,13.98-4.35,21.17-7.76-2.45,3.14-6.14,5.52-9.97,6.88l-7.95,3.02Z" fill="#c2b088"/>
  <path d="M412.11,564.69l-1.5-.31c-.02-8.28,3.64-17.08,10.06-23.06-4.13,7.91-7.78,15.18-8.56,23.37Z" fill="#a28e70"/>
  <path d="M463.17,326.04c4.34-7.51,12.15-10.2,19.61-11.95l-19.61,11.95Z" fill="#c2b088"/>
  <path d="M446.73,712.24l-1.61,1.16c-4.04-4.58-9.05-9.36-14.53-11.99l.14-2.3c6.09,3.21,11.41,7.7,16,13.14Z" fill="#cab486"/>
  <path d="M428.45,599.54l1.02-1.31,24.13,11.05c-8.99-.81-17.36-5.14-25.15-9.74Z" fill="#a28e70"/>
  <path d="M407.63,430.79c-.09-.44-1.85-1.32-2.39-1.21l3.84-1.5c6.28-2.26,11.23-6.18,16.81-10.44-3.94,6.89-11.09,11.59-18.26,13.15Z" fill="#af9b78"/>
  <path d="M430.73,699.1l-.14,2.3-23.1-11.07c8.43,2.08,16.15,5.02,23.24,8.77Z" fill="#a28e70"/>
  <path d="M604.89,487.46l-.59,1.47c-7.11-3.9-14.45-8.98-19.18-16.32,6.85,5.34,12.79,10.89,19.77,14.85Z" fill="#9a8364"/>
  <path d="M519.2,373.35l-2.12-3.22c-3.58-5.44-7.57-9.46-13.67-13.31,7.51,1.84,14.69,7.28,15.79,16.53Z" fill="#af9b78"/>
  <path d="M385.93,380.17c3.63-1.25,9.5-2.32,12.06-5.83l5.63-7.73c-1.23,8.21-8.61,15.58-17.69,13.56Z" fill="#b8a27b"/>
  <path d="M396.37,647.36c-.03,5.34.68,11.02,3.39,15.66l-1.41,1.31c-2.13-3.34-3.95-7.06-3.86-10.88l.17-7.15,1.7,1.06Z" fill="#d6c092"/>
  <path d="M390.64,432.4l3.09,1.41-22.36,6.58c5.75-4.27,12.46-6.67,19.27-7.99Z" fill="#af9b78"/>
  <path d="M513.43,665.32l-11.32-19.79c6.33,4.22,10.92,12.39,11.32,19.79Z" fill="#9e896b"/>
  <path d="M599.35,315.32l1.31,1.18-13.07,4.19-3.22,3.89.73-7.11.55,3.05c4.67-3.41,9.04-4.29,13.71-5.21Z" fill="#af9b78"/>
  <path d="M568.37,649.42c.59,7.4-.7,15.59-4.74,21.76,1.91-8.2,3.58-14.73,2.79-21.84l1.95.09Z" fill="#897963"/>
  <path d="M437.55,539.68l-2.81,2.87c-.07-7.81,3.9-15.93,8.53-21.91l-5.71,19.04Z" fill="#9e896b"/>
  <path d="M612.36,422.61l3.98-3.06,10.3,1.48c-4.1,3.23-9.54,3.12-14.28,1.57Z" fill="#ab8b5d"/>
  <path d="M405.24,429.57c.54-.1,2.3.78,2.39,1.21l-13.9,3.02-3.09-1.41,14.6-2.82Z" fill="#cbb98e"/>
  <path d="M378.77,623.85l-1.1-1.85,3.6-4.91,7.35-10.35c-1.47,7.34-6.21,11.88-9.85,17.11Z" fill="#af9b78"/>
  <path d="M444.84,407.26c-1.43,4.36-3.08,8.95-5.94,12.57l-2.43-1.12c2.59-2.94,4.54-7.52,5.8-11.16l2.57-.28Z" fill="#b8a27b"/>
  <path d="M434.4,326.4l-3.93,5.14-5.88,7.39c.62-5.88,3.83-10.35,7.94-13.26l1.87.73Z" fill="#c1aa7e"/>
  <path d="M519.46,316.76l-4.99.51-16.24,2.07c4.03-3.54,9.65-4.11,15.29-3.69l5.94,1.11Z" fill="#af9b78"/>
  <path d="M454.8,329.65c-1.87,5.15-7.74,11.28-13.05,13.21,4.36-4.33,7.69-8.48,11.04-13.27l2.02.07Z" fill="#af9b78"/>
  <path d="M446.68,668.26c1.04.72,2.16,3.67,1.52,3.81-2.64-.28-5.05-.44-5.78.63l-1.93,2.19c-.26-3.46,1.32-6.03,4.01-7.65l2.18,1.02Z" fill="#d6c092"/>
  <path d="M656.19,605.34l-1.65.1c1.26-7.83.66-15.51.21-24.16,1.36,5.04,2.64,10.42,2.16,15.95l-.72,8.11Z" fill="#85694b"/>
  <path d="M584.34,304.78l.36-.91,11.59-12.78c-.75,7.29-6.78,10.9-11.96,13.69Z" fill="#b8a27b"/>
  <path d="M396.37,647.36l-1.7-1.06-.17,7.15c-1.72-7.44,1.43-18.33,7.09-22.97-2.75,6.57-5.18,11.21-5.22,16.88Z" fill="#9e896b"/>
  <path d="M405.77,611.06l.92,2.07c.27.36-2.05.28-2.16.33l-5.07-4.85.34-1.15-2.92-.98c-.5-.17.36-2.02,1.03-2.66l7.86,7.26Z" fill="#cbb17d"/>
  <path d="M378.24,673.27l1.67-1.04,12.67,11.03c-5.31-1.73-10.51-5.57-14.34-10Z" fill="#978368"/>
  <path d="M631.5,517.17l-2.26,1.71-10.82-2.17v-1.24c4.44-.08,8.94.25,13.08,1.7Z" fill="#af9b78"/>
  <path d="M439.71,326.02c-1.43,1.69-2.96,4.21-4.65,4.71l1.05-2.92c.16-.44-.07-1.08-.64-1.42.23-.36,1.18-1.74,1.78-1.57l2.46,1.2Z" fill="#c1aa7e"/>
  <path d="M510.47,579.43c-.18.26-.9-1.5-1.16-2l.78-13.02.38,15.02Z" fill="#b8a27b"/>
  <path d="M607.64,419.6l-2.44.06-1.25-1.16c-.44-.41.07-1.96.75-2.12,1.4.68,2.92,1.98,2.94,3.22Z" fill="#ab8b5d"/>
  <path d="M566.45,356.54l-1.71,2.19-2.51-3.1,1.41-2.25c.41,1.01,2.01,2.86,2.81,3.15Z" fill="#ac9570"/>
  <path d="M458.64,393.14c-.11-.3,1.62.2,1.55.51l-.27,1.17c-.07.31-1.16-1.34-1.28-1.68Z" fill="#9a815e"/>
  <path d="M537.01,318.64c-.33-.85-.66-2.61-.1-3.04l2.93-2.32-8.48-1.36c10.62.63,12.67-.88,19.05-9.48,0,8.37-6.49,14.38-13.4,16.2Z" fill="#be9e6b"/>
  <path d="M602.5,386.57l-2.18,2.06-6.79-1.21c-8.95-.91-11.42-11.18-12.85-18.15-.93-4.52.8-6.58,4.38-9.21l5.26-3.86-.72-3.54.94-.87,4.19-2.08-2.42,4.17,1.99,12.1c-2.07-2.61-2.47-4.75-3.51-8.72-1.26.91-4.57,3.55-5.42,5.17-4.74,9.07-.8,20.81,9.21,24.03l7.92.1Z" fill="#9e896b"/>
  <path d="M638.74,316.92l-1.63-.84c-6.77,10.23-21.43,10.18-28.99,1.41l1.36-.8c2.6,2.18,7.13,5.63,10.84,5.81,7.66.35,14.21-4.51,18.22-9.89.28.56.9,1.77.73,2.4l-.53,1.91Z" fill="#a28e70"/>
  <path d="M545.2,414.59c.67.26-1.37.86-1.88,1.11l-18.83-.81,20.71-.3Z" fill="#b3966b"/>
  <path d="M600.49,477.03c-.12-.31,1.64.23,1.57.54l-.28,1.17c-.07.31-1.15-1.35-1.29-1.71Z" fill="#ac9570"/>
  <path d="M590.54,351.79l-.94.87-14.32-1.02,1.15-3.05,4.01.87c3.8.22,7.14.77,10.11,2.33Z" fill="#af9b78"/>
  <path d="M597.61,339.84l-.32,1.52c-4.82-1.46-12.28-.28-16.8,2.27-.18-.42-.18-1.58-.04-2.02.76-.06,3.95-1.71,5.23-1.74l11.92-.02Z" fill="#af9b78"/>
  <path d="M600.67,340.64c3,10.29,12.28,16.63,23.9,15.16-10.65,5.46-21.96-1.86-25.48-12.67l-.67-.48-.11-.99,2.35-1.02Z" fill="#ac9570"/>
  <path d="M305.7,573.25l1.65,1.39c-.2,2.62-.39,6.69-5.02,6.91-1.82.08-3.98-3.57-3.32-5.19,1.14-2.82,4.02-3.36,6.68-3.11Z" fill="#b3966b"/>
  <path d="M599.09,343.14l-1.27,1.44c-.2.23-.68-1.26-.41-1.4l1.02-.53.67.48Z" fill="#927857"/>
</svg>
