<svg xmlns="http://www.w3.org/2000/svg" viewBox="0 0 1024 1024">
  <path d="M597.58,394.67c-1.06.88-3.76.91-5.13,1.1l7.88-7.14,2.18-2.06c5.28-4.29,9.59-9.22,13.54-15.04l10.01-14.76c-.3-.36-1.43-1.78-1.47-1.73-.06.07,2.33-1.05,2.55-1.39,2.45-3.73,5.87-11.5,7.1-16.01-1.24-1.3-1.67-1.63-1.37-1.93.41-.4,2.53-2.11,2.64-2.67l3.24-16.13.53-1.91c.17-.64-.44-1.84-.73-2.4,1.17-6.58.89-13.58,0-20.87l-1.24-10.13-2.92-.82c.44-1.02,1.35-3.84.9-5.13l-6.86-19.5-2.95.07c1.05-8.8-8.4-19.16-15.03-26.97,2.03,8.42.35,14.47-4.89,19.72l-1.5-1.33c5.6-5.2,7.77-15.05,3.31-21.78l-8.04-8.84,1.59-2.66c21.01,17.97,35.34,43.44,40.35,71.38l.9,8.02-.18,23.65c-3.16,27.56-16.31,51.73-36.23,70.48l-8.16,6.79Z" fill="#9f7f56"/>
  <path d="M385.9,761.23l-2.7,1.2c-.5.22,0,1.05.13,1.75-4.63,1.09-8.47,4.22-8.85,9.05,2.74-.66,5.71-1.06,7.47-.04,1.52.87,3.45,4.12,3.51,6.33.17,6.72-6.32,12.15-13.1,12.42-12.98.5-22-10.99-20.8-23.78.69-7.29,4.13-13.49,9.93-18.25,14.51-11.91,36.44-9.59,48.67,4.69,8.11,9.47,12.14,21.54,8.03,33.4-.39-12.47-1.64-22.49-9.61-31.09-6.64-7.17-16.85-12.51-27.94-11.45-5.3.51-10.72,2.86-15.35,5.51-12.26,7-14.23,25.44-5.49,33.56,8.3,7.71,19.91,4.69,22.16-.63,1.04-2.44,1.06-6.82-.41-8.21-.83-.79-3.13-1.51-3.88-1.09s-2.05,1.9-1.66,2.66l1.57,3.11c-4.32-.9-5.87-4.86-4.93-9.31,1.21-5.72,7.36-10.04,13.23-9.83Z" fill="#a18964"/>
  <path d="M342.76,721.11l-.87,1.26c-3.03-6.41-7.07-12.94-14.39-14.65s-13.2.1-18.62,5.32c.23-5.49-.56-9.34-3.07-12.9,3.95-5.84,6.39-12.91,4.35-20.28-4.04-14.58-18.65-23.95-33.69-19.65-3.22.92-6.48,3.75-9.87,5.79,1.3-8.68-.98-14.64-9.03-18.82,5.46-1.3,7.98-5.83,8.85-11.3,2.51-15.69-5.52-30.54-18.3-39.93-.64-.47-1.42-1.19-1.06-1.45.24-.17,1.22-1.06,1.2-.97-.02.07.85.93,1.11,1.2,11.91,7.81,18.97,19.78,19.96,34.15.63,6.76-2.1,13.6-6.06,19.39,6.89,5.31,5.38,12.8,6.94,12.08l2.52-1.16c3.95-1.82,8.36-3.48,13.02-2.86,12.71,1.68,23.62,10.75,26.62,23.05,1.85,7.59.46,14.63-3.89,20.69l3.77,7.75c6.96-3.65,13.3-3.59,20.18-.15,4.49,2.24,9.52,7.55,10.3,13.42Z" fill="#b49d76"/>
  <path d="M414.73,230.01l-3.15,1.62-5.92.4-9.61,1.41-3.34,1.39-1.83,1.43c-4.07,1.1-8.76,3.04-12.37,5.23l-2.89,2.46c-3.16.09-9.63,6.69-9.78,6.47l1,1.49-2.27,2.02c-4.37.78-7.81,6.53-10.19,10.92l8.67-3.99-.64,2.19c-5.21,1.94-12.78,8.86-14.87,15.14l-1,3.01c-.24.72,1.45,1.82,2.19,1.6-4.22,2.42-4.1,9.78-4.12,13.67l-1.93.84c-.65.28.26,2.25.89,2.56l2.17.61c-.49.62-1.02,2.5-1.05,3.31l-.61,6.63-.57-7.34-2.67.04c-1.66-19.63,8.46-43.24,23.71-56.21,14.44-12.28,31.88-18.8,50.17-16.9Z" fill="#ab8b5d"/>
  <path d="M517.44,784.38l4.07,10.36,2.23.97c.36.16-1.03.54-1.49.62l-1.47.24c-.16.15-1.27,1.2-1.11,1.05l3.89,3.37-2.88,2.83-3.92-2.62-.91,7.15c-.29-.46-2.83-1.34-3.07-.77l-2.82,6.7-1.69-7.05-.71-6.93.2-18.04.49-4.15,7.26-2.16.9,4.34,1.04,4.08Z" fill="#f2d992"/>
  <path d="M338.74,343.58c-1.81,5.11-2.65,11.87-3.33,18.24l4.52-4.24-4.16,8.23c-9.57,14.76-18.11,29.61-26.02,44.77l.44-5.04c.06-.7-1.81-1.59-3.02-1.99l18.9-30.54c9.63-15.56,4.24-23.27,9.58-30.81l3.1,1.37Z" fill="#dec68a"/>
  <path d="M421.64,230.57l-1.08,4.83-2.38-1.2c-4.72,3.04-7.29,9.08-8.21,15-1.1,6.99,2.54,11.76,9.4,12.87s13.13,4.25,17.21,9.47l-.82,1.94c-8.42-9.87-21.68-7.84-25.82-13.75-2.32-3.31-2.28-6.7-2.71-11.87l-7.16,11.39-4.03,7.93-2.1,4.72-4.01,9.89.89,3.11-2.37-.13-.97-4.22c6.32-19.32,14.63-32.18,27.14-48.51l-3.03-.41,3.15-1.62,4.61-1.92,2.3,2.49Z" fill="#d1b984"/>
  <path d="M750.5,728.3c-9.48,10.57-21.4,19.22-34.89,25.11l-17.63,7.7,16.75-2.44,23.53-5.36,3.03-1.03,5.15-2.29.13,1.7c.02.28.21.43.85,1.01l-5.11,1.69-1.99,1.11c-16.15,4.8-32.88,7.94-49.59,9.35l4.24-1.08,2.46-5.42,16.19-6.79c12.95-5.43,24.05-13.51,33.46-23.33l3.4.07Z" fill="#cbb98e"/>
  <path d="M765.25,329.06l11.23,23.29c-1.76,2.66-1.82,3.81-1.37,5.82,4.69,20.77-4.17,43.46-20.4,56.83l-1.74-1.65c24.9-20.9,27.23-58.44,7.25-82.74l5.03-1.56Z" fill="#9a815e"/>
  <path d="M346.96,640.58c-3.79,5.57-5.41,13.18-5.77,20.41-.55,11,3.48,21.32,10.62,29.12l-2.63.49c-.56-.03-2.3-.33-2.33.22l-.24,1.72-2.09-2.07c.27-.71.32-2.91-.45-2.99l-2.57-.16c-10.97-16.54-8.23-32.84,3.08-49.01l.35,1.42c.19.48,1.2.73,2.03.85ZM344.34,686c-4.02-9.27-6.14-16.37-6.12-24.66-1.76,9.06.69,18.46,6.12,24.66Z" fill="#b3966b"/>
  <path d="M228.6,770.2l-1.08.17c-23.57-23.55-42.68-51.73-58.89-80.9l1.43-3.41c15.55,28.24,33.92,54.82,55.81,78.97,1.6,1.77,2.68,3.43,2.73,5.17Z" fill="#c5af83"/>
  <path d="M377.88,301.42l-7,8.51c-2.47.4-6.19,1.95-7.6,4.33l-9.26,15.63.48-6.33-15.76,20.01-3.1-1.37,6.51-9.21c1.37-1.93,2.52-4.19,2.81-6.24.12-.87.77-2.3,1.22-3.31l2.05,2.25,9.94-16.19.79,4.15,5.21-4.48c3.31-2.85,6.22-5.72,8.39-9.31l5.34,1.56ZM347.16,325.69l-.02.65v.67s.02.65.02.65l.02-.65v-.67s-.02-.65-.02-.65Z" fill="#cbb17d"/>
  <path d="M583.6,231.99c-3.34,5.56-9.76,7.86-16.95,9.49l12.43,8.72c7.26,5.1,18.77,3.17,24.95-2.57l1.5,1.33c-5.79,5.8-13.85,6.73-22.62,5.19l6.64,7.61c1.41,1.61,3.58,4.6,5.33,5.3l.64,2.64,5.77,12.08-2.05.85c-6.86-15.92-19.22-29.04-33.92-38.66-.76.11-2.55.59-2.79.06l-1.08-2.36,4.32.21c-1.16-1.09-2.08-2.11-2.84-2.42,6.96.47,13.56-2.93,18.3-7.63l2.37.15Z" fill="#c2a978"/>
  <path d="M525.51,257.74l3.97.03,2.02.02,2.97.88,2.04.14,2.91.96,3.14.36-6.22,1.99-6.93-1.16c-2.05-1.09-5.78-1.09-7.89-.24-9.18-.27-17.5,2.87-26.51,6.55l2.53,2.4-2.87,2.18c-.82-.68-2.81-1.48-4.05-2.02-4.69,3.81-10.08,7.07-13.72,11.15l-1.51-3.38c13.04-13.77,31.28-20,50.12-19.87Z" fill="#d1b984"/>
  <path d="M824.45,696.57c-13.08,22.18-27.67,42.85-45.69,61.19l-21.16,21.54-.72-1.96,18.98-19.55c18.41-18.96,33.56-40.26,47.05-62.61l1.54,1.39Z" fill="#cbb98e"/>
  <path d="M693.39,699.99l-4.05,2.22c-10.89-.14-19.91,8.44-19.01,20.03-19.39-6.97-36.57,5.43-45.57,23.05l-2.39.07c5.14-11.45,13.78-21.3,26.24-25.77,3.03-1.09,8.56-2.33,11.37-2.03l8.12.87c.54-13.36,17.03-21.95,25.29-18.44Z" fill="#b8a27b"/>
  <path d="M528.74,212.96c-1.55,5.76-4.77,11.41-9.41,15.49l14.15,1.32c2.21.21,6.88,1.66,8.83.9,4.24-1.65,8.46-5.08,10.88-8.15l1.47,1.3c-2.51,2.82-5.77,5.65-9.67,8.21l17.94,7.44c.76.32,1.68,1.34,2.84,2.42l-4.32-.21c-6.45-3.15-13.89-6.25-20.78-7.25l-1.11.08c-1.35-.84-3.84-1.87-5.83-2.05l-8.21-.75c-2.58-.84-6.6-.86-9.11-.63l.15,1.71-1.88-1.84c-.47-.42-1.75.35-2.27.6l-5,.46-3.05-.59,3-1.61,7.24.05c5.65-4.42,10.18-10.33,11.58-17.12l2.57.22Z" fill="#cab486"/>
  <path d="M854.43,689.51c-12.41,23.43-27.27,45.82-44.81,65.71l-3.52.14c18.06-20.21,32.78-43.26,45.84-66.99l1.81-.8c.33-.21.29,1.74.69,1.94Z" fill="#d6c092"/>
  <path d="M724.47,684.21l-1.9.04-.48-7.65c-10.7,5.27-14.84,16.84-9.58,26.85-4.17,1.18-6.45,2.08-9.11,3.68-3.17-4.12-9.12-5.42-14.05-4.93l4.05-2.22,9.88,4.2,6.54-2.6c-4.72-12.07,1.14-22.61,11.73-27.52-8.35-8.2-7.4-19.65-3.94-30.11,1.29.58,2.78,1.32,2.59,1.81l-.93,2.4c-3.68,9.45-1.6,19.81,6.02,26.21-.74,3.31-1.26,7.06-.81,9.84Z" fill="#9e896b"/>
  <path d="M249.23,644.09c-1.16-6.66-2.28-14.21-8.26-18.6-9.73-7.14-20.84-6.79-30.37,1.38,2.07-7.2,10.34-7.75,15.57-8.88,3.54-7.04-.63-15.74-6.63-20.31-7.38-5.62-15.9-4.98-25.02-2.13,3.09-3.05,8.21-5.91,11.4-5.19,14.88,3.4,26.82,11.19,22.68,27.62,12.24,1.55,23.38,12.26,20.62,26.11Z" fill="#9e896b"/>
  <path d="M299.91,739.58l-.96-1.75c4.62-4.59,6.57-11.03,3.31-17.22-1.87-3.57-6.47-4.86-10.32-4.33-.17-3.13-.45-6.17-2.06-8.55-2.89-4.28-10.01-2.24-10.96-5.12,1.67-10.68-2.26-19.41-11.63-24.25l.91-2.13c10.26,3.97,15.14,14.6,13.15,26.2,8.15-2.44,10.27,6.5,13.43,9.54,6.83,4.48,12.73,7.51,11.04,17.72-.62,3.74-2.65,7.06-5.91,9.89Z" fill="#b8a27b"/>
  <path d="M782.7,727.58l-2.52-1.24c15.6-18.74,21.11-45.88,3.08-62.67l-.02-2.32c8.3,6.27,13.17,16.15,13.72,27.33.36,7.24-1.84,14.49-3.44,21.69-1.05,4.69-3.25,8.19-6.33,11.86l-4.48,5.34Z" fill="#927857"/>
  <path d="M276.1,788.45l1.18-1.73c27.37,23.98,57.63,42.69,90.7,58.13-5.83-.79-10.63-3.64-15.96-6.24-27.54-13.45-52.47-30.46-75.92-50.17Z" fill="#978368"/>
  <path d="M583.34,303.72l-3.25.98c-1.89-8.26-5.54-16.13-11.01-22.67l-3.34-7.04,7.34,5.83,3.8-22.21c.52,2.91.59,5.97-.07,9.19l-2.93,14.36,6.45,10.96c4.26-6.62,5.43-12.96,7.75-20.61l-.35,6.47c-.33,6.11-2.92,11.47-7.32,15.42l2.92,9.3Z" fill="#b3966b"/>
  <path d="M632.58,787.54c-8.08,5.97-15.17,13.63-18.13,23.59-1.88,6.36-1.31,13.17,3.05,17.84,3.36,3.59,7.51,5.73,12.33,5.36,3.93-.3,7.06-3.01,10.64-6.21-1.47,4.99-6.54,7.42-10.83,7.97-9.63,1.25-18.29-9.17-18.54-13.92-.63-11.89,2.86-21.51,11.28-29.02l9.99-8.92.21,3.31Z" fill="#927857"/>
  <path d="M235.3,744.2l-1.97,1c-16.68-19.32-31.5-39.95-42.9-62.85l1.86-.85c12.09,22.51,26.23,43.46,43.01,62.7Z" fill="#c2b088"/>
  <path d="M783.17,575.38c.44,7.68,4.35,13.97,12.67,15.6-3.08,5.97-4.49,11.72-2.59,17.9l-9.03-.5c-9.16-.51-15.02,7.34-16.48,15.7-.8,4.57.22,6.83,2.57,12.42l-4.14-3.91c.56-.84,1.21-2.14.61-2.16l-2.56-.07-.71-.02-.7-1.82,2.2-.79c1.02-.53-.25-12.08,8.93-18.21,5.23-3.49,11.41-5.2,17.32-3.18-.35-6.02,0-9.2,2.17-14.08-8.5-1-12.84-10.46-13.08-17.08l2.81.2Z" fill="#9a8364"/>
  <path d="M300.87,431.69c-1.51.63-3.54.83-6.56,1.26l4.38,7.73,3,7.82,2.6,6.87-1.63.14c-4.96-2.91-7.3-8.47-7-14.67-4.3-5.35-3.85-12.06-.31-17.6l5.28-8.77v9.1s.25,8.11.25,8.11Z" fill="#ab8b5d"/>
  <path d="M734.35,284.91l-4.17,1.74c-2.74.3-6.24-.2-7.56-2.72s-1.29-5.55-.36-8.14l.4-1.92,6.93-1.11c2.28-.39,5.24,2.88,5.93,5.34.61,2.17.09,4.41-1.17,6.81Z" fill="#ab8b5d"/>
  <path d="M248.16,377.6l-.66,2.03-6.89-.03,1.62,5.34-3.91-2.73-2.3,9.89c-1.14-3.59-1.23-5.7-1.63-9.67l-3.81,2.09,2.59-4.41-5.35-1.22,5.04-1.82-2.11-4.86,3.8,2.37c.2-4.75.53-8.66,2.48-13.79l1.07,14.44,6.48-4.97-4.75,7.15,8.35.19Z" fill="#d1b984"/>
  <path d="M801.17,521.54c-2.59,1.34-5.2,4.94-7.22,7.64-6.59,8.77-7.45,19.91-1.23,29.1-4.34,2.99-7.32,6.56-9.92,10.66l.37,6.43-2.81-.2-.08-2.19.64-3.67c.8-4.57,4.17-8.69,8.12-11.99-6.89-13.65-1.61-28.2,10.14-37.06l1.98,1.28Z" fill="#c1aa7e"/>
  <path d="M565.74,274.99l3.34,7.04c-8.42-10.06-19.75-17.74-32.75-19.91l6.22-1.99c4.94.56,12.29,5.42,18.05,9.11-1.35-8.41-1.95-15.96,1.61-23.54-.67,7.55-.97,14.17.02,22.15.66,5.29,4.64,4.53,3.5,7.14Z" fill="#c2a978"/>
  <path d="M844.31,658.69l-1.18-1.75c13.73-29.76,22.58-60.1,29.84-92.52-4.19,32.35-15.17,64.06-28.66,94.27Z" fill="#897963"/>
  <path d="M503.75,781.28l3.73,3.38.28-2.41-.2,18.04-5.88,4.97-2.17-3.09,3.98-4.61-5.49-1.4c1.01-2.26,1.26-4.92.35-7.02l4.71-1.53-2.58-3.27,3.28-3.06Z" fill="#e5c582"/>
  <path d="M351.81,690.11c7.52,8.21,17.25,14.59,28.05,17.64l-3.34,1.94c-11.01-3.03-22.24-8.93-29.91-17.15l.24-1.72c.03-.55,1.77-.25,2.33-.22l2.63-.49Z" fill="#ab8b5d"/>
  <path d="M309.75,410.59c-.02.24.11.88.01,1.1-.95-.1-2.06.62-2.06,1.35v2.69c.01,4.31-5.41,6.87-1.48,10.46-.75,1.49-3.5,4.74-5.36,5.51l-.27-8.11v-9.1s6.57-10.93,6.57-10.93c1.21.4,3.08,1.29,3.02,1.99l-.44,5.04Z" fill="#c0a573"/>
  <path d="M264.98,675.07l-.49,2.13c-7.71-1.69-15.37-1.15-20.59,5.42l1.96-10.19c1.31-6.77-2.13-13.17-6.57-17.17-4.91-4.41-10.64-5.12-17.7-5.22,5.82-4.57,15.92-.35,21.82,6.52,4.88,5.69,4.75,12.55,4.2,20.06,5.83-2.52,11.96-3.2,17.38-1.56Z" fill="#a28e70"/>
  <path d="M637.29,281.61l-4.08,5.03c-6.54,9.51-19.8,8.76-28.71,3.17l2.87,15.99-2.15-.06c-1.17-7.88-2.83-15.77-5.99-23.1l2.05-.85c1.56,3.26,2.57,5.24,6.04,7.14,7.69,4.23,17.36,4.06,23.82-2.53,1.23-1.25,2.6-4.18,3.22-5.61l2.92.82Z" fill="#ac9570"/>
  <path d="M755.39,578.21c5.58,9.57,5.72,20.99,5.49,32.18-.09,4.18.33,8.14-.75,11.68l-1.32,4.33-1.58-1.83c2.51-15.53.75-31.03-4.14-45.82l2.29-.53Z" fill="#85694b"/>
  <path d="M668.3,767.18l3.31,2.41c-14.01,3.24-27.46,9.4-39.02,17.94l-.21-3.31c10.66-8.05,23.23-13.25,35.92-17.05Z" fill="#a18964"/>
  <path d="M388.43,284.77l.11.95.12,1.01c-.34-.13-.89.96-1.02,1.61l-5,24.78,3.24-.71-.67,2.97-4.45,2.84v-9.41c1.49-1.68.59-2.44-1.75-1.27l1.53-4.82c.23-.74.34-2.5.31-3.38-.03-.78-1.4-1.49-2.06-1.63,2.58-1.26,4.39-4.05,5.46-7.3l3.22-9.83.97,4.22Z" fill="#c0a573"/>
  <path d="M515.51,775.96l-7.26,2.16,3.53-29.98c1.38,1.5,1.44,2.8,1.69,5.11l1.28,12.01.76,10.71ZM510,774.24l-.59.5.59.5.5-.5-.5-.5Z" fill="#c0a573"/>
  <path d="M622.02,769.49c-9.14,7.19-16.4,19.22-17.34,32.09-.5,6.93,2.78,13.2,4.44,19.67-12.68-16.81-5.75-36.57,8.59-50.53l3.44-4.5c.43.21,1.28.57,1.26.92l-.41,2.35Z" fill="#927857"/>
  <path d="M527.48,779.2l-6.65,8.6,7.63,1.1,4.17,6.61-11.85,1.05,1.47-.24c.46-.07,1.85-.46,1.49-.62l-2.23-.97-4.07-10.36,5.76-5.22,4.28.05Z" fill="#d1b984"/>
  <path d="M376.52,709.69l3.34-1.94,18.14,5.12c9.12,2.58,21.15,8.13,25.73,14.77l.68.5c3.68,2.7,7.54,7.94,8.22,12.97l-8.58-12.27c-.09-.13-.36-.3-.89-.69-7.6-5.99-16.55-10.19-26.43-12.91l-20.2-5.55Z" fill="#9e896b"/>
  <path d="M765.4,799.31l-7.23,6.87-40.69,29.28-.3-1.46c16.85-11.14,33.44-22.91,48.09-36.8l.13,2.1Z" fill="#a28e70"/>
  <path d="M575.47,807.98c3.87-3.9,7.29-7.21,7.25-12.21-.05-5.98-2.21-9.99-7.96-14.18,7.26.22,12.01,6.19,12.14,12.59s-3.09,13.75-11.43,13.8Z" fill="#be9e6b"/>
  <path d="M700.25,310.44l3.16,1.12c-15.19,4.16-28.94,13.62-36.79,27.5l-1.94-1.52c7.9-13.17,20.29-24.08,35.56-27.1Z" fill="#ac9570"/>
  <path d="M447.11,782.15c-5.26,4.78-7.56,8.09-7.54,13.55.02,4.86,3.8,9.29,8.2,12.31-7.22.5-11.96-6.07-12.22-12.24-.29-6.69,3.4-12.28,10.51-14.32l1.05.69Z" fill="#be9e6b"/>
  <path d="M393.93,271.9l2.1-4.72.4,3.44c.06,7.38,4.88,11.57,12.27,11.2,11-.55,23.61,1.99,24.77,12.68-3.38-7.47-10.74-9.76-18.77-10.24l-11.16-.67c-4.69-.28-7.45-4.96-8.73-9.03l-.88-2.67Z" fill="#c5af83"/>
  <path d="M697.45,758.35l-2.46,5.42-4.24,1.08c-.15.04-.27.24-.44.45l-4.1.91-14.61,3.38-3.31-2.41c.4.13.81.35,1.06.24l3.19-1.39,21.63-6.84c.1.17.64.99.62.98-.02,0,.55-.91.78-1.01l1.87-.82Z" fill="#c0a573"/>
  <path d="M167.69,627.45l-1.39,1.12c-7.24-19.64-13.6-40.38-15.95-61.44,5.65,20.99,10.24,40.79,17.34,60.32Z" fill="#897963"/>
  <path d="M256.62,798.43l-.27-2.25c2.17,1.31,4.25,3.39,5.58,5.29l.47.51c1.07.46,2.92,1.46,4.09,2.48,15.27,13.4,31.94,23.68,48.27,35.76-19.5-10.36-36.48-23.86-53.23-37.24l-.54-.55-4.39-4.01Z" fill="#978368"/>
  <path d="M759.6,321.73l.81-1.17,4.85,8.5-5.03,1.56-7.06-6.85c-6.32-6.13-14.61-9.39-22.82-11.33l.81-1.96c11.22,1.72,19.81,8.85,28.84,16.06l-.4-4.82ZM761.76,326.69l-.02.65v.67l.02.65.02-.65v-.67l-.02-.65Z" fill="#a28e70"/>
  <path d="M791.74,641.89c-2.12-.05-1.49-.04.12-.02l.79.57c8.72,6.99,13.82,17.22,14,28.7l.11,6.59c.13,8.16-2.41,15.87-6.35,22.42l4.47-20.39c.58-2.67.04-5.83-.19-8.64-.89-10.65-4.41-20.52-12.63-27.56l-.31-1.67Z" fill="#897963"/>
  <path d="M760.4,320.56l-.81,1.17-23.91-32.43c-1.14-1.59-4-2.82-5.51-2.66l4.17-1.74c9.75,10.93,18.72,22.8,26.05,35.66Z" fill="#c2b088"/>
  <path d="M734.01,796.69l.55,1.91c-24.71,20.15-53.27,37.58-83.19,48.56,29.76-15,57.67-29.48,82.65-50.47Z" fill="#9e896b"/>
  <path d="M735.11,603.49c.34,2.96.31,7.31-.12,10.57l-1.53,13.66-4.09,2.78,1.74-13,.71-11.87-.22-10.33.92,5.03c.11.6-.3,3.1.31,3.11l2.28.06Z" fill="#9f7f56"/>
  <path d="M477,723.6c-13.08,9.47-22.31,22-28.14,36.51.39-6.8,3.52-11.1,5.97-16.7,1.58-3.61,16.74-19.49,22.95-23.31l-.78,3.5Z" fill="#a28e70"/>
  <path d="M743.9,487.69l2.38-.37c3.68,4.89,10.42,6.07,15.29,2.07,4.84-3.97,4.46-10.32.53-15.89,2.61-.39,4.04,1.18,4.64,3.42,1.93,7.2-.51,13.58-7.06,16.42-6.01,2.6-12.76.17-15.79-5.66Z" fill="#927857"/>
  <path d="M390.8,284.9c1.57,6.15,5.45,11.92,12.94,11.56,5.5-.27,11.64-2.88,17.18,1.42l-5.32.24-12,.64c-6.74.36-11.05-3.37-13.42-9.78l-1.64-3.24-.11-.95,2.37.13Z" fill="#c5af83"/>
  <path d="M476.9,280.99c-5.37,6.03-9.41,13.47-12.32,20.88-.34.4-1.13,1.36-1.69,1.31l-2.27-.2c3.56-9.21,8.12-18.34,14.77-25.37l1.51,3.38Z" fill="#be9e6b"/>
  <path d="M642.7,745.34l-1.64-.24,3.54-4.63c7.78-10.18,23.55-12.73,33.04-3.18-10.09-4.29-21.2-5.26-28.97,2.27l-5.97,5.79Z" fill="#b8a27b"/>
  <path d="M782.7,727.58c-6.75,8.04-14.88,15.4-24.4,19.94l-1.33-2.52c8.96-4.25,16.96-11.16,23.21-18.67l2.52,1.24Z" fill="#ac9570"/>
  <path d="M507.35,229.82l-3,1.61,3.05.59-15.76,3.92c-2.15,8.17,1.38,14.96,6.97,20.91-11.92-5.1-7.68-19.16-10.34-19.24l-1.65-.05-.94-1.09c2.17-1.11,5.92-2.54,6.76-4.63.26.34,1.77,1,2.36.87l12.55-2.88Z" fill="#af9b78"/>
  <path d="M385.22,315.38l.67-2.97c5.43-1.83,11.21-2.73,17.65-3.51l-3.02,3.57,8.59-.38-18.82,6.66,6.5-6.28-11.57,2.9Z" fill="#c1aa7e"/>
  <path d="M433.56,221.78c-1.02,10.34,15.4,11.53,18.3,24.88-.57.2-.99,1.02-.96,1.33l-3.11-4.72c-6.64-11.09-18.6-9.92-16.13-23.13l1.89,1.64Z" fill="#c1aa7e"/>
  <path d="M741.22,625.3l7.72.78,7.33-.58-1.89,1.84-11.8.32c-9.74.27-17.52,11.49-18.69,10.63l-1.84-1.35,7.31-6.46,4.09-2.78c1.87-1.27,5.58-2.63,7.76-2.41Z" fill="#cbb98e"/>
  <path d="M722.66,273.86l-.4,1.92c-11.18-11.49-23.87-20.92-37.06-31.1,10.55,4.75,18.64,12.46,27.68,19.56l9.78,9.62Z" fill="#9e896b"/>
  <path d="M233.06,524.77l12.65,43.87c-7.03-14.78-12.29-30.37-15.06-46.13l2.41,2.26Z" fill="#897963"/>
  <path d="M385.48,329.21c-13.76,2.5-23.84,12.17-28.47,26.73-1.44-11.67,15.14-29.57,28.47-26.73Z" fill="#b8a27b"/>
  <path d="M783.24,661.35l.02,2.32c-12.28-8.72-26.69-9.56-38.22,1.75,6.62-12.96,26.08-13.22,38.19-4.07Z" fill="#a28e70"/>
  <path d="M420.56,235.4c-2.75,12.34,18.17,8.53,23.12,24.96l-9.03-8.87c-1.85-1.82-6.76-3.54-9.25-4.34-6.12-1.97-7.74-6.84-7.22-12.95l2.38,1.2Z" fill="#c1aa7e"/>
  <path d="M454.69,259.85c-1.43,1.95-3.14,4.2-4.92,6.18,1.4-4.94,2.02-8.4,1.59-13.09l-.45-4.95c-.03-.3.38-1.13.96-1.33.62,2.86.74,6.43.75,10.08v2.44c0,.59,1.35.64,2.08.67Z" fill="#a28e70"/>
  <path d="M485.68,236.47l.94,1.09-10.61,5.7c-3.79,1.93-6.89,4.77-8.01,8.26-.45-.59-1.41-1.88-1.78-1.56l-1.89,1.62-9.65,8.27c1.22-3.22,3.87-5.67,6.92-8.08l6.25-4.95,2.63-5.03.73.3c.1.2.73,1.5.72,1.47,0-.02,1.23-.68,1.51-.83l12.22-6.27Z" fill="#a28e70"/>
  <path d="M731.15,310.49l-.81,1.96c-16.18-3.81-22.2-.16-26.93-.89l-3.16-1.12,10.98-2.17c4.88-.97,9.26-.09,14.29,1l5.63,1.22Z" fill="#c2b088"/>
  <path d="M801.17,521.54l-1.98-1.28c10.01-7.55,24.77-9.72,36.2-3.02l-14.21-1.93c-4.22-.57-9.03.57-12.55,2.38l-7.46,3.85Z" fill="#a28e70"/>
  <path d="M294.68,254.22c-3.33.85-7.12,2.42-8.4,4.54-2.1,3.46-1.73,7.13.28,9.82,2.29,3.07,6.12,3.32,10.54,3.58-2.88,4.48-8.74,1.77-11.31-1-3.35-3.62-4.06-8.05-1.75-12.38,1.98-3.71,6.39-7.23,10.63-4.56Z" fill="#9a815e"/>
  <path d="M389.07,761.35l2.91.68c8.54,2.01,16.57,10.64,17.95,16.26l-2.6.06c-4.02-9.51-14.07-16.5-24-14.16-.14-.71-.63-1.53-.13-1.75l2.7-1.2,3.17.12Z" fill="#b8a27b"/>
  <path d="M341.88,722.37l.87-1.26,1.28,4.12c9.71-4.74,23.51-.94,26.49,10.15-7.35-9.99-18.59-13.28-28.65-6.65v-6.36Z" fill="#9e896b"/>
  <path d="M247.69,593.07c-4.16,2.45-11.66-5.72-25.87-5.52-5.16.07-9.96,1.8-15.27,1.52,13.75-4.96,28.87-3.47,41.14,4Z" fill="#a28e70"/>
  <path d="M759.35,716.12l-2.19-.71c5.9-9.07,7.47-18.33,7.68-29.99,4.26,11.24-.34,21.62-5.49,30.7Z" fill="#9a8364"/>
  <path d="M412.92,790.45l3.64,14.85c1.35,5.51,5.52,9.4,9.2,14.65-5.77-3.35-10.34-9.21-11.95-16.01l-3.34-14.17,2.45.67Z" fill="#927857"/>
  <path d="M226.93,471.57c-.41-.55-1.18,1.69-1.18,2.15l.03,10.75-1.05-.98.44-27.63.9-12.61c3.27,3.1,1.02,7.49.99,11.54l-.13,16.78Z" fill="#927857"/>
  <path d="M344.09,310.42l.45,3.26.65,3.07c.93,1.87,1.72,5.03,1,6.69-.44,1.02-1.1,2.44-1.22,3.31l-3.73-13.03-.58-8.92.19-1.7,2.67-.04.57,7.34Z" fill="#be9e6b"/>
  <path d="M462.27,753.43c-7.7,6.01-11.52,14.83-16.59,23.84.67-8.86,6.35-17.31,13.1-24.32l3.49.49Z" fill="#a28e70"/>
  <path d="M784.26,782.69l-9.61,9-6.19,5.76c-.7.65-2.54,1.7-3.05,1.87l-.13-2.1,16.71-15.85,2.27,1.33Z" fill="#b8a27b"/>
  <path d="M498.34,789.14c.91,2.1.66,4.77-.35,7.02l-9.51-.72-4.87-1.21,9.26-.25-2.56-4.02,8.03-.82Z" fill="#be9e6b"/>
  <path d="M490.31,789.97l2.56,4.02-9.26.25-5.92-.05c-.56,0-1.89-1.11-2.23-1.56-.23-.3.41-1.19.78-1.23l2.26-.23,11.8-1.21Z" fill="#9f7f56"/>
  <path d="M806.45,574.43c1.77,5.48,4.8,9.2,10.56,13.43-4.02.66-9.17.26-11.57,1.72l-1.52-1.35,7.3-3.25c-3.19-2.9-6.39-7.3-6.9-11.41l2.13.85Z" fill="#9a8364"/>
  <path d="M724.47,684.21c1.37,8.39,8.56,12.07,16.2,15.78-9.64.67-17.55-6.92-18.11-15.74l1.9-.04Z" fill="#b49d76"/>
  <path d="M515.84,808.34l-1.21,9.29-2.05-1.48c-.38-.32-.94,1.13-1.03,1.62l-.49,2.62-1.63-4.34c-.88-2.33-.89-6.01-1.18-8.83l1.69,7.05,2.82-6.7c.24-.58,2.78.31,3.07.77Z" fill="#d1b984"/>
  <path d="M717.48,835.46c-11.08,6.75-22.08,14.14-34.24,18.51l33.95-19.97.3,1.46Z" fill="#897963"/>
  <path d="M314.69,407.63c3.75-10.58,10.5-19.73,18.15-28.11l-18.15,28.11Z" fill="#cbb98e"/>
  <path d="M812.36,554.59l-2.32-.91c7.25-8.15,18.38-10.67,25.92-4.34l-7.97-1.89c-5.69.26-12.07,3.07-15.63,7.14Z" fill="#9e896b"/>
  <path d="M624.76,745.29c-3,5.88-3.22,14.23-1.32,20.71l.8,2.72c.16.53-1.79.7-2.21.77l.41-2.35c.02-.36-.83-.71-1.26-.92-1.61-6.67-1.67-14.47,1.2-20.87l2.39-.07Z" fill="#a28e70"/>
  <path d="M786.52,380.54l-1.46.13-9.13-25.15-.82,2.66c-.45-2.01-.39-3.17,1.37-5.82l10.04,28.18Z" fill="#9e896b"/>
  <path d="M734.56,798.6l-.55-1.91,20.28-17.05c-1.44,5.4-6.02,7.78-9.73,10.8l-10.01,8.16Z" fill="#af9b78"/>
  <path d="M812.36,554.59c-4.85,5.55-7.24,12.75-5.91,19.83l-2.13-.85c-.95-7.71.78-14.34,5.72-19.89l2.32.91Z" fill="#cbb98e"/>
  <path d="M803.91,588.23l1.52,1.35c-6.37,3.88-8.66,10.44-7.47,18.33-6.06-3.69-1-16.6,5.95-19.68Z" fill="#c2b088"/>
  <path d="M516.56,232.8c-2.42,7.39.81,14.76,5.91,21.2-6.46-3.05-9.59-10.82-8.52-17.52l.64-4c.09-.57-1.64-.83-2.19-.91.52-.25,1.8-1.02,2.27-.6l1.88,1.84Z" fill="#af9b78"/>
  <path d="M884.88,488.42c.37.71,1.26,1.46,1.12,1.85l-1.05,2.32-8.91-.72-6.97-1.17c2.63-.91,4.2-1.35,5.82-1.48l9.99-.8Z" fill="#b3966b"/>
  <path d="M227.88,489.31l-1.25,1.87c-.39.58,1.52,1.56,1.9,1.36l.19,2.99-2.35-.24-.58-10.83-.03-10.75c0-.46.77-2.71,1.18-2.15l.95,17.74Z" fill="#c2b088"/>
  <path d="M514.64,817.63l-.81,9.7-3.53-2.05-.86-9.23,1.63,4.34.49-2.62c.09-.49.65-1.94,1.03-1.62l2.05,1.48Z" fill="#be9e6b"/>
  <path d="M503.75,781.28l-3.28,3.06-8.83-12.23c5.2,3.18,8.61,5.99,12.11,9.18Z" fill="#ab8b5d"/>
  <path d="M639.7,758.6l-1.06-2.43c7.53-3.71,15.89-4.92,23.76-3.39-8.15.76-16.16,1.78-22.7,5.82Z" fill="#b8a27b"/>
  <path d="M520.68,803.82l2.88-2.83,9.2,12.17c-4.36-2.59-8.91-7.23-12.08-9.34Z" fill="#c2a978"/>
  <path d="M756.97,745.01l1.33,2.52-10.85,5.18c-.64-.58-.82-.73-.85-1.01l-.13-1.7,10.51-4.99Z" fill="#c1aa7e"/>
  <path d="M759.35,716.12c-2.34,4.34-5.47,8.41-8.85,12.18l-3.4-.07,10.06-12.82,2.19.71Z" fill="#b8a27b"/>
  <path d="M378.79,297.69c.66.14,2.03.86,2.06,1.63.03.88-.07,2.65-.31,3.38l-2.66-1.28-5.34-1.56c1.85-3.07,3.34-5.57,7.3-7.14l-3.54,5.78,2.48-.81Z" fill="#b49d76"/>
  <path d="M689.19,731.24c-.19-3.64,3.44-8.01,7.56-9.38,2.16-.72,3.33-1.74,4.23-3.31l1.61,4.59c-5.87-.72-8.6,2.69-13.4,8.1Z" fill="#af9b78"/>
  <path d="M642.7,745.34c-1.81,3.23-3.48,7.53-4.06,10.83l1.06,2.43-6.81,4.21-6.26,8.74c.21-6.8,7-9.32,9.73-14.29l4.7-12.17,1.64.24Z" fill="#9e896b"/>
  <path d="M854.42,486.91c1.14-.09,3.24,1.72,3.53,2.81.34,1.27-1.47,3.48-2.73,3.8-1.62.4-4.18-1.08-4.22-2.5-.04-1.6,1.78-3.97,3.42-4.11Z" fill="#cbb17d"/>
  <path d="M168.06,486.96c1.14-.03,3.46,1.31,3.78,2.37.36,1.23-1.53,3.86-2.78,4.17s-3.53-1.42-4.18-2.73c-.57-1.15,1.57-3.77,3.18-3.81Z" fill="#c2a978"/>
  <path d="M785.06,380.67l1.46-.13c2.81,7.88,4.9,16.22,5.54,25.18l-7-25.04Z" fill="#85694b"/>
  <path d="M435.75,273.47l.82-1.94c8.45,10.8.92,19.98,1.4,16.11l.34-2.76c.46-3.76-.94-7.9-2.56-11.41Z" fill="#978368"/>
  <path d="M501.67,805.27c-3.42,3.06-6.53,5.77-11.28,8.24l9.11-11.33,2.17,3.09Z" fill="#ac9570"/>
  <path d="M539.57,234.52l1.11-.08c-3.15,6.51-2.65,12.39-.14,20.18-4.98-5.66-5.23-13.71-.97-20.09Z" fill="#9e896b"/>
  <path d="M513.83,827.33l-.54,9.31c-.02.34-1.48,1.89-1.52,1.55l-.23-2.02-1.25-10.89,3.53,2.05Z" fill="#9a815e"/>
  <path d="M301.46,270.9l-.3-14.9c3.94,3.84,4.3,10.98.3,14.9Z" fill="#9e896b"/>
  <path d="M299.91,739.58c-6,5.2-16.45,5.34-19.3.52,6.84,3.23,13.28,2.76,18.34-2.27l.96,1.75Z" fill="#9e896b"/>
  <path d="M409.93,778.29l2.99,12.16-2.45-.67c-.86-3.66-1.81-8.27-3.14-11.43l2.6-.06Z" fill="#a18964"/>
  <path d="M527.48,779.2l-4.28-.05,10.24-8.49c-1.73,4.13-3.84,5.8-5.95,8.54Z" fill="#ac9570"/>
  <path d="M762.82,628.52l.7,1.82-9.13-2.99,1.89-1.84-7.33.58-7.72-.78.47-.94,15.56.21,1.58,1.83,1.32-4.33c.12,2.43,1.18,4.51,2.68,6.45Z" fill="#b49d76"/>
  <path d="M468.1,281.23c-4.78,2.1-11.47,1.92-16.74-2.07l16.74,2.07Z" fill="#a28e70"/>
  <path d="M757.79,675.18l-11.53-2.47c3.41-2.51,8.5.1,11.83,2.07.17.1.63.59.77.73,2.02,2,6.16,5.5,5.64,10.02l-6.33-9.63-.38-.73Z" fill="#978368"/>
  <path d="M484.36,266.32c-4.86.29-8.61-.34-10.96-3.88l10.96,3.88Z" fill="#ac9570"/>
  <path d="M471.69,260.36c-2.15-.16-3.58-2.96-2.71-5.75l2.71,5.75Z" fill="#ac9570"/>
  <path d="M341.24,313.73c-.49-2.25-.83-6.64-.58-8.92l.58,8.92Z" fill="#ab8b5d"/>
  <path d="M525.53,231.72l-9.11-.63c2.51-.23,6.53-.22,9.11.63Z" fill="#af9b78"/>
  <path d="M615.31,515.53l-7.87-1.08,7.87,1.08Z" fill="#af9b78"/>
  <path d="M417.98,479.61l-.35-7.06c.83,1.88.67,4.89.35,7.06Z" fill="#cbb17d"/>
  <path d="M484.41,574.35l.76-5.96-.76,5.96Z" fill="#ac9570"/>
  <path d="M309.76,411.68l-2.06,4.04v-2.69c0-.73,1.11-1.45,2.06-1.35Z" fill="#dec68a"/>
  <path d="M344.52,690.47l-3.01-3.16,2.57.16c.76.09.72,2.29.45,2.99Z" fill="#ab8b5d"/>
  <path d="M412.79,571.57l-1.22-5.03,1.22,5.03Z" fill="#a28e70"/>
  <path d="M402.57,511.45l-4.98,1.14,4.98-1.14Z" fill="#d1b984"/>
  <path d="M228.53,492.55c-.38.2-2.29-.78-1.9-1.36l1.25-1.87.65,3.24Z" fill="#cbb98e"/>
  <path d="M766.17,632.58l-1.94-2.23,2.56.07c.59.02-.05,1.32-.61,2.16Z" fill="#b49d76"/>
  <path d="M780.29,572.98l.64-3.67-.64,3.67Z" fill="#9a8364"/>
  <path d="M690.31,765.3l-4.1.91,4.1-.91Z" fill="#cbb98e"/>
  <path d="M512.39,578.53c-.15-.48-.99-1.22-.87-1.74l.87-2.39v4.13Z" fill="#b8a27b"/>
  <path d="M412.42,523.21l-3.01,1.99,3.01-1.99Z" fill="#c0a573"/>
  <path d="M529.48,257.77l-3.97-.03,2.39-1.06c.51-.13,1.59.64,1.58,1.09Z" fill="#c2a978"/>
  <path d="M534.46,258.68l-2.97-.88,2.97.88Z" fill="#c2a978"/>
  <path d="M395.62,557.48l.9-3.15-.9,3.15Z" fill="#ac9570"/>
  <path d="M417.58,470.5l-.9-2.98.9,2.98Z" fill="#cbb17d"/>
  <path d="M540.47,107.87l-.79-3.04.79,3.04Z" fill="#b49d76"/>
  <path d="M426.67,820.72c-.11-.31,1.62.2,1.55.51l-.28,1.17c-.07.3-1.15-1.35-1.28-1.68Z" fill="#927857"/>
  <path d="M411.52,576.49c-.48-.31-.89-2.35-.89-3.21l.89,3.21Z" fill="#a28e70"/>
  <path d="M647.38,498.37l-3.03-.83,3.03.83Z" fill="#b3966b"/>
  <path d="M672.55,766.04l-3.19,1.39,3.19-1.39Z" fill="#a18964"/>
  <path d="M741.31,752.28l-3.03,1.03,3.03-1.03Z" fill="#c1aa7e"/>
  <path d="M659.32,631.39l.99-3.04-.99,3.04Z" fill="#927857"/>
  <path d="M391.98,762.03l-2.91-.68,2.91.68Z" fill="#a18964"/>
  <path d="M539.41,259.78l-2.91-.96,2.91.96Z" fill="#c2a978"/>
  <path d="M742.33,754.39l-1.99,1.11,1.99-1.11Z" fill="#c1aa7e"/>
  <path d="M135.66,608.52l-.79-2.12.79,2.12Z" fill="#85694b"/>
  <path d="M493.42,552.39l-.9,1.06c-.15-.08-1.15-.55-.9-.61l1.81-.46Z" fill="#d6c092"/>
  <path d="M405.61,510.56l-2.01.87,2.01-.87Z" fill="#d1b984"/>
  <path d="M321.68,469.53l-2-.92,2,.92Z" fill="#c2a978"/>
  <path d="M338.38,468.72l1.13-1.49c.17.15-.77,1.3-1.13,1.49Z" fill="#cbb17d"/>
  <path d="M694.18,759.2l1.4-.03c-.24.1-.81,1-.78,1.01.02,0-.51-.81-.62-.98Z" fill="#cbb98e"/>
  <path d="M276.1,788.45l1.18-1.73-1.18,1.73Z" fill="#b8a27b"/>
  <path d="M648.45,504.39l-1.15-.75,1.15.75Z" fill="#c2a978"/>
  <path d="M387.65,288.34c.13-.64.67-1.74,1.02-1.61l-1.02,1.61Z" fill="#d1b984"/>
  <path d="M452.91,328.93l.49-1.35-.49,1.35Z" fill="#af9b78"/>
  <path d="M538.53,328.56l-1.16-.72,1.16.72Z" fill="#c5af83"/>
  <path d="M552.46,345.84l-1.13-1.15,1.13,1.15Z" fill="#ab8b5d"/>
  <path d="M469.76,475.65l.71-1.16-.71,1.16Z" fill="#9a815e"/>
  <path d="M416.57,458.61l-.97-1.33.97,1.33Z" fill="#d1b984"/>
  <path d="M522.27,108.77l1.12-.97-1.12.97Z" fill="#dec68a"/>
  <path d="M344.73,614.25l-1.26-.69,1.26.69Z" fill="#c0a573"/>
  <path d="M399.46,608.6l.34-1.15-.34,1.15Z" fill="#b8a27b"/>
  <path d="M316.53,467.69l-3.01-3.07,3.01,3.07Z" fill="#c2a978"/>
  <path d="M318.7,468.45l-.98-.92.98.92Z" fill="#c2a978"/>
  <path d="M511.51,283.82l-2.42,3.08c-3.22-5.33-9.9-11.26-14.42-15.04l2.87-2.18c4.74,4.49,10.01,8.92,13.98,14.14Z" fill="#be9e6b"/>
  <path d="M471.23,242.09l-.73-.3.08-11.06c.04-6.23-3.01-11.64-7.68-15.36l-8.16-6.5,1.01-1.1c14.24,7.65,21.9,18.76,15.49,34.32Z" fill="#b8a27b"/>
  <path d="M389.78,242.64c.15.92-.61,2.32-1.41,2.97l-7.75,6.38,2.19,7.83-4.19-5.72-5.69,6.37c-1.05,1.18.48,4.69,1.59,7.09l-4.14-3.31-4.59,8.61,4.89,5.75-6.01-2.1-2.08-.85-3.07.95c.05-.56.03-.89.34-1.04l1.75-.86,2.14-1.04,3.91-10.58c-.49-.2-3.86-.56-5.26-.04l.64-2.19c1.55-.72,5-.56,6.75-.54l6.49-8.47-11.72,2.09,2.27-2.02c3.62-1.47,7.3-2.15,11.79-1.42l8.17-6.53,1.82-1.74,1.18.4Z" fill="#c5af83"/>
  <path d="M388.37,245.61c.79-.65,1.55-2.05,1.41-2.97l7.69-3.9-6.6-2.47,1.83-1.43c4.43,2.61,9.99,4.5,15.15,1.01-3.75-2.03-7.88-2.33-11.8-2.41l9.61-1.41,3.62,4.92-15.67,6c-.5,1.45-1.06,4.87-1.27,6.54l-3.96-3.89Z" fill="#af9b78"/>
  <path d="M359.7,288.69l.37.98-6.99,6.47-8.39,7.65c.03-.8.56-2.69,1.05-3.31,3.18-4,9.1-9.58,13.96-11.79Z" fill="#af9b78"/>
  <path d="M363.76,273.68l-2.14,1.04-1.75.86c-.31.15-.28.48-.34,1.04l-10.81,6.19c-.74.22-2.43-.88-2.19-1.6l1-3.01.41,2.49c4.71-3.76,10.01-6.63,15.82-7Z" fill="#ac9570"/>
  <path d="M344.6,296.48c0,.93-.38,2.99-1.03,3.4-.64-.31-1.54-2.28-.89-2.56l1.93-.84Z" fill="#be9e6b"/>
  <polygon points="347.16 325.69 347.18 326.34 347.18 327.02 347.16 327.67 347.14 327.02 347.14 326.34 347.16 325.69" fill="#be9e6b"/>
  <path d="M615.16,267.56l1.32,1.41c-4.69,2.13-9.97,3.71-15.43,2.12l-5.53-1.39-.64-2.64c7.35,2.92,13.08,3.3,20.28.5Z" fill="#c1aa7e"/>
  <path d="M529.4,260.97l-7.89-.24c2.12-.85,5.84-.85,7.89.24Z" fill="#c2a978"/>
  <polygon points="510 774.24 510.5 774.74 510 775.24 509.42 774.74 510 774.24" fill="#f2d992"/>
  <path d="M494.81,232.7c-.59.14-2.1-.53-2.36-.87,2.13-5.29,3.49-10.27,4.51-15.62l1.95-3.54c1.1,5.96-.96,12.49-4.02,18.4l-.09,1.63Z" fill="#cbb98e"/>
  <path d="M345.18,316.75l-.65-3.07,3.74-4.46c3.37-4.68,7.89-8.29,12.5-11.43l1.74-5.24.33,4.29c.07.79,2.79,1.46,2.51,1.36l-2.3,6.51-1.82-5.05c-6.26,4.43-10.46,9.37-14.45,15.32l-1.61,1.78Z" fill="#af9b78"/>
  <path d="M616.48,268.97l-1.32-1.41c4.56-1.77,7.74-5.51,10.72-10.39,1.34,6.23-5,9.8-9.4,11.8Z" fill="#9a815e"/>
  <path d="M363.02,283.89c-.54,2.18.2,6.52-.51,8.65l-1.74,5.24-.71-8.12-.37-.98,1.69-5.05,1.63.25Z" fill="#927857"/>
</svg>
