<svg xmlns="http://www.w3.org/2000/svg" viewBox="0 0 1024 1024">
  <path d="M504.48,185.78l11.88.34,13.08,1-.87,1.46-10.05-.86c-1.43-.12-4.2.23-5.06.91-9.89-.18-19.64,1.9-29.15,4.6l4.99,3.36-.97,1.28c-1.74-1.58-6.32-3.77-8.72-3.12-9.21,2.5-17.58,6.56-26.17,11.18.67.64,1.73,1.54,2.3,1.85l-1.01,1.1c-.85-.67-4-1.29-5.01-.77-6.4,3.27-14.43,8.26-16.15,13.68l-1.89-1.64-10.04,10.44-2.3-2.49c13.07-14.83,29.99-25.14,48.49-33.02,12.07-4.78,24.16-9.64,36.66-9.29Z" fill="currentColor"/>
  <path d="M218.77,233.97l-5.22,6.62c-16.14,20.44-30.49,41.58-43.76,64.01l-2.95,4.67c.24-.49-.61-2.9-1.26-2.77,13.67-27.11,31.83-52.24,51.94-74.94l1.24,2.42Z" fill="currentColor"/>
  <path d="M854.61,300.63l-2.86.65c-14.91-28.09-34.29-53.2-55.52-76.47l.54-3.02,11.8,12.71c18.48,19.91,32.76,42.52,46.04,66.13Z" fill="currentColor"/>
  <path d="M903.84,481.74l1.83,5.85c.69,2.74,1.42,4.68,3.33,5.58l-.37,1.78c-.24,1.15,3.01,2.32,2.2,6.12l-5.25-4.14-1.27,4.7-4.82.62-1.14-3.93c-.15-.5-1.25-1.27-1.61-.89l-1.37,1.47c-1.72,1.85-3.3,2.82-5.78,2.24l4.97-5.99c-.91-.6-2.76-1.44-3.7-1.6l1-5.8c1.15-.25,2.71-1.44,2.27-2.24l-2.2-4.04,5.74,2.11.68-4.02,5.49,2.16Z" fill="currentColor"/>
  <path d="M522.17,109.54c-2.57,8.6-5.06,17.66-5.91,27.02l-.98,4.43-1.07-5.23-5.01,2.03c-1.54-8.61-2.63-17.29-4.77-26.03l2.75,2.34,1.35-3.51,4.49,15.44c.96-6.86,2.61-12.8,5.32-18.25l3.83,1.76Z" fill="currentColor"/>
  <path d="M769.51,194.85l-2.82.86c-23.77-21.78-50.7-39.15-78.66-54.38l.83-1.65c29.17,15.08,56.5,33.04,80.64,55.17Z" fill="currentColor"/>
  <path d="M585.38,202.8l-1.57,3c-9.62-5.49-19.55-10.25-30.79-12.99,9.55,10.12,9.69,21.95,1.64,31l-1.47-1.3c7.19-9.1,6.54-21.33-2.23-29.34-1.23-.81-4.14-2.16-5.65-2.36l2.19-3.25c13.29,3.27,26.27,8.02,37.88,15.23Z" fill="currentColor"/>
  <path d="M514.69,867.45l.49,3.26c.07.46.3,1.94.29,1.88-.01-.05,1.21-.06,1.51-.07l.46,1.41.46,1.4-1.3,7.36-2.52,5.23.29,2.08-3.84,1.43-1.44-6.21c-.31.27-3.43,1.31-3.44.38l-.03-3.47c0-.9-.18-2.76-.78-3.43-.48-.53-2.09-1.32-2.83-1.4l3.81-1.48c.05-.86-.03-2.29.62-2.42l2.94-.59.81-6.64c.58-.11,2.39-1.52,2.73-.98l1.78,2.25Z" fill="currentColor"/>
  <path d="M131.25,487.73l1.45,5.88-3.47.77c-.7.16.56,1.69,1.41,2.6l-.26,3.23c-.15,1.8-4.29-3.64-4.62-2.33l-.72,2.83-6.4-.92v-1.3s-.59-13.56-.59-13.56l6.39-3.09,1.95,1.71c.43.38,1.75-.99,2.32-1.34s2.11-.17,2.83.05c1.59.49-3.33,3.56-2.28,4.21l2.01,1.25Z" fill="currentColor"/>
  <path d="M884.97,618.36l-2.83-.18,3.04-10.77c5.32-18.86,9.68-36.86,12.65-57.05,1.91,1.46,2.08,4.6,1.61,7.23-3.35,21.04-8.35,41.06-14.47,60.78Z" fill="currentColor"/>
  <path d="M337.45,138.47l1.22,1.37c-24.83,12.69-48.63,27.35-69.73,45.5l-1.56-1.81c21.4-17.57,45.27-32.7,70.07-45.06Z" fill="currentColor"/>
  <path d="M760.05,222.07l1.49-1.38,22.23,22.58c10.67,10.84,19.92,23.78,28.46,36.1.55.8,1.11,3.87,1.05,4.53-10.15-13.77-19.48-27.41-31.52-39.7l-21.71-22.14Z" fill="currentColor"/>
  <path d="M882.61,371.4l2.05-1.63c6.79,21.96,14.02,44.09,14.84,67.79l-12.38-50.92-4.51-15.23Z" fill="currentColor"/>
  <path d="M248.99,236.04l-9.52,10.5c-12.88,14.21-23.68,29.71-34.48,45.1l-1.47-1.34c9.2-14.21,19.07-28.14,30.73-41.05l7.57-8.39,5.65-6.23,1.51,1.4Z" fill="currentColor"/>
  <path d="M138.69,377.56c-6.36,19.13-9.17,38.69-14.88,59.71.3-20.73,6.91-41.22,12.64-60.85l2.24,1.14Z" fill="currentColor"/>
  <path d="M124.14,475.35l.29,6.49-6.39,3.09.6,13.56-1.62-.36-9.46,6.32,7.45-10.28c-6.57-1.04-11.45-1.69-17.67-3.99l18.03-3.36-2.45-3.16,1.12-2.34,4.52,2.52.99-7.37,4.59-1.12Z" fill="currentColor"/>
  <path d="M136.32,602.3l-1.32,3.22-1.02-.6c-3.31-18.4-10.32-36.06-10.22-55.51l12.57,52.89Z" fill="currentColor"/>
  <path d="M600.88,214.36l-1.59,2.66-2.95-2.08-8.09-5.62-1.02,1.17c3.17,7.18,2.65,16.2-3.64,21.51l-2.37-.15c12-11.92,1.68-24.07,2.58-26.03l1.57-3,15.5,11.56ZM586.87,208.06l.07,1.23-.07-1.23Z" fill="currentColor"/>
  <path d="M909,493.18c-1.9-.91-2.64-2.84-3.33-5.58l-1.83-5.85,2,1.67c.52.43,1.84-1.31,2.4-1.71l8.14-5.98-8.46,11.02,19.38,3.6-11.13,2.59c-1.82.42-5.15.48-7.17.24Z" fill="currentColor"/>
  <path d="M504.51,103.04l-4.29,1.91c-1.07-1.31-5.17-2.65-6.82-1.95-1.48.63-3.41,2.99-4.14,4.56l-1.58,3.38c-.15.33-.3,1.96-.66,1.9l-1.67-.15c-2.1-4.88.35-10.95,4.98-13.68,4.89-2.88,11.74-.58,14.19,4.02Z" fill="currentColor"/>
  <path d="M511.65,959.08l-.34-24.14c-2.08-1.38-4.3-3.83-3.95-5.32s2.77-3.83,4.25-4.18c1.7-.4,4.39,1.12,4.87,2.54.78,2.3-.43,5.59-2.93,6.78l-.09,23.85-1.82.49Z" fill="currentColor"/>
  <path d="M188.13,319.82c-10.05,19.75-18.98,39.94-26.01,60.95l-.55-2.37c6.1-20.15,15.05-40.07,25.02-58.8l1.54.22Z" fill="currentColor"/>
  <polygon points="869.98 658.28 866.26 659.4 880.89 622.3 883.76 621.64 869.98 658.28" fill="currentColor"/>
  <path d="M152.82,338.95c-5.72,12.44-9.81,25.63-14.12,38.61l-2.24-1.14.41-2.71,13.69-36.18,2.27,1.42Z" fill="currentColor"/>
  <path d="M848.73,344.66l-1.85-.2-14.01-28.44c-4.2-8.52-10.54-15.42-13.53-25.06,11.06,14.28,18.95,30.01,26.16,46.35l3.24,7.36Z" fill="currentColor"/>
  <polygon points="884.66 369.77 882.61 371.4 867.88 333.45 870.57 332.67 884.66 369.77" fill="currentColor"/>
  <path d="M284.84,203.1c-.06-.83-1.9-.55-2.31-.23,27.84-22.31,58.1-41.44,92.03-54.31-2.09,2.05-5.07,3.14-7.82,4.46-11.07,5.33-21.9,10.28-32.52,16.38-17.65,10.13-34.25,20.88-49.38,33.7Z" fill="currentColor"/>
  <polygon points="796.77 221.79 796.23 224.81 774.86 203.2 766.69 195.71 769.51 194.85 779.3 203.82 794.03 218.06 796.77 221.79" fill="currentColor"/>
  <polygon points="246.05 205.83 223.16 229.15 218.77 233.97 217.53 231.55 221.06 227.1 243.55 204.52 246.05 205.83" fill="currentColor"/>
  <path d="M547.5,187.57l-2.19,3.25-16.75-2.25.87-1.46-13.08-1-11.88-.34,3.14-.87c1.44-.23,3.06-.56,3.89-.98l1.82-.92c.06.57,2,1.95,2.99,1.92,10.86-.41,21.32.23,31.18,2.65Z" fill="currentColor"/>
  <path d="M539.68,104.83l.79,3.04c.19.73.33,2.37.1,3.08l-2.66,2.23-.78-6.35-1.55,5.1c0-1.96-.05-5.31-.93-7.39-.97-2.27-6.59-2.3-7.98-.65l-3.13-3.44c1.17-1.21,3.5-2.4,5.76-2.68,5.74-.71,9.34,2.47,10.38,7.05Z" fill="currentColor"/>
  <polygon points="870.57 332.67 867.88 333.45 860.01 316.85 851.74 301.28 854.61 300.63 870.57 332.67" fill="currentColor"/>
  <path d="M744.71,205.71l-1.34,1.29c-14.41-13.01-30.92-23.48-47.3-33.78l1.51-.72c16.41,9.89,32.47,20.9,47.13,33.22Z" fill="currentColor"/>
  <path d="M854.43,689.51c-.39-.2-.36-2.15-.69-1.94l-1.81.8,14.33-28.97,3.72-1.12-10.11,21.78-5.44,9.45Z" fill="currentColor"/>
  <polygon points="233.33 745.19 235.3 744.2 241.58 751.4 249.74 760.37 266.16 777.33 264.67 778.48 248.68 762.35 238.64 751.35 233.33 745.19" fill="currentColor"/>
  <path d="M166.84,309.27l-9.1,18.97-4.92,10.72-2.27-1.42,3-7.16,12.04-23.88c.64-.12,1.5,2.28,1.26,2.77Z" fill="currentColor"/>
  <polygon points="809.62 755.22 798.64 767.67 784.26 782.69 781.99 781.35 786.21 777.43 792.06 771.07 806.1 755.36 809.62 755.22" fill="currentColor"/>
  <polygon points="506.83 501.88 501.24 508.25 489.52 522.49 483.83 530.5 482.09 529.14 499.98 506.06 505.34 500.36 506.83 501.88" fill="currentColor"/>
  <path d="M146.84,634.39l-2.5,1.22-8.69-27.09-.79-2.12c-.06-.2.05-.62.12-.88l1.32-3.22,10.53,32.09Z" fill="currentColor"/>
  <polygon points="146.84 634.39 157.83 661.6 156.62 665.45 144.34 635.61 146.84 634.39" fill="currentColor"/>
  <polygon points="268.94 185.34 262.13 191.19 254.11 198.23 246.05 205.83 243.55 204.52 253.86 194.91 261.39 188.44 267.38 183.53 268.94 185.34" fill="currentColor"/>
  <polygon points="132.7 493.61 131.25 487.73 153.73 490.5 132.7 493.61" fill="currentColor"/>
  <polygon points="844.31 658.69 830.01 687.13 824.45 696.57 822.91 695.18 843.12 656.95 844.31 658.69" fill="currentColor"/>
  <polygon points="589.36 703.12 590.08 706.38 581.58 710.49 567.41 716.17 567.49 712.97 589.36 703.12" fill="currentColor"/>
  <polygon points="170.06 686.06 168.63 689.47 156.62 665.45 157.83 661.6 163.78 673.54 170.06 686.06" fill="currentColor"/>
  <polygon points="532.64 795.51 528.46 788.9 552.81 792.42 542.57 794.46 532.64 795.51" fill="currentColor"/>
  <path d="M688.87,139.68l-.83,1.65c-14.95-8.14-30.97-14.2-46.73-21.46,16.85,4.79,32.09,11.81,47.56,19.81Z" fill="currentColor"/>
  <polygon points="256.36 796.18 256.62 798.43 250.6 793.42 227.52 770.37 228.6 770.2 230.96 771.02 256.36 796.18" fill="currentColor"/>
  <path d="M512.52,973.97c-3.85.39-5.28-3.59-5.12-6.21.13-2.13,4.14-5.4,5.97-4.16,2.22,1.51,3.87,4.04,3.73,5.71s-2.73,4.47-4.58,4.66Z" fill="currentColor"/>
  <path d="M846.87,344.46l1.85.2c6.65,15.07,12.88,30.26,15.95,46.24-6.42-16.06-10.45-31.52-17.81-46.44Z" fill="currentColor"/>
  <path d="M513.69,72.8c2.17,2.53,3.98,4.69,3.92,6.59-.1,3.1-4.87,4.21-7.11,3.52-1.3-.4-2.65-3.28-2.31-4.43.4-1.34,2.03-3.57,3.01-4.89l.52-14.73c.27.17,1.68,1.73,1.69,2.26l.28,11.69ZM510.52,76.52c-.8,1.34-.31,3.99.54,4.69.75.62,2.79.47,3.3-.34.81-1.28,1.27-3.26.7-4.22-.48-.79-4.07-.94-4.54-.14Z" fill="currentColor"/>
  <polygon points="655.3 647.31 645.38 662.38 640.36 663.39 645.87 655.88 651.98 646.28 655.3 647.31" fill="currentColor"/>
  <path d="M513.33,183l-1.82.92-.22-11.76c-2-1.68-3.49-4.62-2.77-7.39.4-1.51,3.88-3.4,5.24-2.81s3.5,3,3.87,4.47-1.99,3.9-3.78,5.12l-.53,11.43ZM515.54,166.96c0-1.59-1.29-2.88-2.88-2.88s-2.88,1.29-2.88,2.88,1.29,2.88,2.88,2.88,2.88-1.29,2.88-2.88Z" fill="currentColor"/>
  <path d="M338.67,139.84l-1.22-1.37c12.81-6.38,25.87-12.55,40.27-16.59l-39.05,17.97Z" fill="currentColor"/>
  <polygon points="180.11 657.51 178.43 658.25 170.7 640.51 166.3 628.57 167.69 627.45 180.11 657.51" fill="currentColor"/>
  <path d="M204.99,291.64l-15.08,25.11-1.25-1.15c4.44-8.71,9.57-17.13,14.86-25.3l1.47,1.34Z" fill="currentColor"/>
  <path d="M501.99,877.3c.73.08,2.35.86,2.83,1.4.6.67.77,2.53.78,3.43l-19.41-2.6c5.01-2.1,11.85-2.67,15.81-2.23Z" fill="currentColor"/>
  <path d="M697.58,172.49l-1.51.72-35.79-19.45c9,2.98,17.03,7.43,25.32,11.88l9.07,4.87,2.91,1.97Z" fill="currentColor"/>
  <path d="M523.69,876.96l.08,4.05-5.39,1.68,1.75,2.76,1.33,2.1c1.29,2.04-5.3-1.25-5.25-1.29l-2.13,1.66,2.52-5.23,1.3-7.36,5.8,1.63Z" fill="currentColor"/>
  <polygon points="903.84 481.74 898.35 479.58 901.53 465.29 903.84 481.74" fill="currentColor"/>
  <polygon points="192.29 681.49 190.43 682.35 178.43 658.25 180.11 657.51 188.56 674.55 192.29 681.49" fill="currentColor"/>
  <path d="M284.84,203.1l-9.66,8.19c-3.6,3.05-6.42,6.09-10.64,9.09,2.14-5.62,6.26-8.17,10.42-11.48l7.57-6.02c.41-.32,2.25-.6,2.31.23Z" fill="currentColor"/>
  <polygon points="162.12 380.77 153.58 410.69 152.47 409.98 159.89 382.64 161.56 378.4 162.12 380.77" fill="currentColor"/>
  <path d="M510.39,45.39c2.96-1.28,6.21,0,6.9,2.18.9,2.85.29,5.91-2.68,7.05-1.83.7-5.07-.02-6.34-1.8-1.51-2.13-.95-6.1,2.12-7.43ZM512.09,53.73c1.34.71,3.84-2.69,3.58-4.19-.22-1.31-2.48-3.93-3.66-3.38-1.28.59-2.93,3.06-2.71,4.2.18.95,1.66,2.77,2.79,3.36Z" fill="currentColor"/>
  <polygon points="761.54 220.69 760.05 222.07 743.37 207 744.71 205.71 752.12 211.95 761.54 220.69" fill="currentColor"/>
  <polygon points="233.06 524.77 230.65 522.51 227.67 505.53 229.48 502.52 233.06 524.77" fill="currentColor"/>
  <polygon points="248.99 236.04 247.48 234.64 262.74 219.34 264.38 220.51 248.99 236.04" fill="currentColor"/>
  <path d="M523.76,881.01l-.08-4.05,9.95,1.01c1.77.18,3.73.83,5.14,1.61l-8.74,1.29-6.27.13Z" fill="currentColor"/>
  <polygon points="508.53 110.58 507.18 114.09 504.43 111.75 500.22 104.95 504.51 103.04 508.53 110.58" fill="currentColor"/>
  <polygon points="568.43 690.23 569.57 691.71 543.11 699.7 542.46 698.8 568.43 690.23" fill="currentColor"/>
  <path d="M120.22,527.73c.97-.76,4.36.11,4.62,1.26.31,1.36-.17,4.43-1.29,5.37-1.05.89-4.19-.43-4.98-1.86-.66-1.19.22-3.66,1.65-4.78Z" fill="currentColor"/>
  <path d="M898.8,533.83c-.84-1.02-.85-4.67-.03-5.7.73-.91,4.19-.73,4.9.19.83,1.07,1.08,3.49.48,4.71-.68,1.36-4.38,1.97-5.34.8Z" fill="currentColor"/>
  <path d="M526.67,103.9l-3.28,3.91-1.12.97-.1.77-3.83-1.76c1.36-2.73,3.08-5.12,5.2-7.32l3.13,3.44Z" fill="currentColor"/>
  <path d="M540.57,110.96l-1.92,6.11c-.28.9-2.66,2.18-3.57,1.9-.73-.22-1.58-1.91-1.29-2.61l1.8-4.42,1.55-5.1.78,6.35,2.66-2.23Z" fill="currentColor"/>
  <path d="M485.34,112.69l1.67.15c.37.06.51-1.57.66-1.9l1.58-3.38,2.9,10.18c.05.41-2.96,1.49-3.55.92-1.29-1.25-2.59-4.38-3.27-5.96Z" fill="currentColor"/>
  <path d="M898.86,455.94c-.69-.78-.86-3.43-.41-4.33s2.65-2.22,3.65-2c1.86.41,3.03,3.56,2.4,4.9-.82,1.77-4.45,2.77-5.64,1.43Z" fill="currentColor"/>
  <path d="M123.92,506.02l-1.36,11.6c-1.1-1.3-1.88-3.23-1.99-4.82l-.53-7.54,3.88.76Z" fill="currentColor"/>
  <circle cx="121.88" cy="453.2" r="3.41" fill="currentColor"/>
  <path d="M515.28,140.98l.04,2.2-3.28-.78c-.74-.17-.97,2.48-1.49,2.9l-1.34-7.52,5.01-2.03,1.07,5.23Z" fill="currentColor"/>
  <path d="M891.85,487.77l-1,5.8-5.91-.97,1.05-2.32c.15-.4-.75-1.14-1.12-1.85l6.98-.66Z" fill="currentColor"/>
  <path d="M517.43,873.93l-.46-1.41c3.18-3.71,6.69-6.92,11.53-9.64l-8.83,11.38-2.23-.33Z" fill="currentColor"/>
  <path d="M514.69,867.45l-1.78-2.25c-.34-.54-2.15.87-2.73.98.52-4.23.7-7.8,2.48-13.01l2.03,14.28Z" fill="currentColor"/>
  <polygon points="124.14 475.35 119.55 476.47 121.86 464.45 124.14 475.35" fill="currentColor"/>
  <polygon points="904.31 501.64 903.43 507.64 900.63 508.29 898.84 504.48 898.35 498.34 899.49 502.26 904.31 501.64" fill="currentColor"/>
  <path d="M510.51,891.43l3.84-1.43c.37,3.68.8,7.17-3.32,10.24l-.52-8.81Z" fill="currentColor"/>
  <polygon points="125.03 500.7 123.92 506.02 120.05 505.26 118.63 499.78 125.03 500.7" fill="currentColor"/>
  <polygon points="903.43 507.64 901.2 518.19 898.84 504.48 900.63 508.29 903.43 507.64" fill="currentColor"/>
  <path d="M515.32,143.18v5.67c-1.92.1-4.56.3-4.6-.49l-.17-3.07c.52-.42.75-3.07,1.49-2.9l3.28.78Z" fill="currentColor"/>
  <polygon points="272.31 544.21 269.15 539.95 272.74 536.41 276.46 540.04 272.31 544.21" fill="currentColor"/>
  <polygon points="632.97 204.34 629.97 200.19 632.93 196.08 636.92 200.32 632.97 204.34" fill="currentColor"/>
  <polygon points="247.5 379.63 248.16 377.6 258.94 377.78 256.71 379.67 247.5 379.63" fill="currentColor"/>
  <polygon points="228.72 495.54 229.48 502.52 227.67 505.53 226.37 495.3 228.72 495.54" fill="currentColor"/>
  <polygon points="274.43 787.27 267.13 780.06 268.62 778.9 274.8 784.71 274.43 787.27" fill="currentColor"/>
  <path d="M114.05,481.31l-1.12,2.34-5.47-7.06c3.23,1.34,5,2.92,6.59,4.72Z" fill="currentColor"/>
  <polygon points="268.2 676.23 267.29 678.36 265.48 677.42 266.07 675.4 268.2 676.23" fill="currentColor"/>
  <polygon points="884.97 618.36 883.18 620.57 882 619.37 882.13 618.18 884.97 618.36" fill="currentColor"/>
  <polygon points="189.84 317.72 188.13 319.82 186.59 319.6 187.64 317.61 189.84 317.72" fill="currentColor"/>
  <polygon points="883.18 620.57 883.76 621.64 880.89 622.3 882 619.37 883.18 620.57" fill="currentColor"/>
  <polygon points="189.91 316.75 189.84 317.72 187.64 317.61 188.67 315.61 189.91 316.75" fill="currentColor"/>
  <polygon points="265.48 677.42 264.49 677.2 264.98 675.07 266.07 675.4 265.48 677.42" fill="currentColor"/>
  <path d="M498.91,212.67l-1.95,3.54c0-6.37-4.15-14.3-8.62-18.35l.97-1.28c5.62,3.78,8.42,9.63,9.61,16.1Z" fill="currentColor"/>
  <path d="M518.52,187.71l5.1,5.93-1.13.44c-1.74-2.39-6.25-5.42-9.03-5.47.85-.67,3.62-1.03,5.06-.91Z" fill="currentColor"/>
  <polygon points="378.49 241.5 388.6 242.23 386.78 243.98 375.6 243.96 378.49 241.5" fill="currentColor"/>
  <path d="M528.74,212.96l-2.57-.22c1.28-6.26.16-13.39-3.68-18.66l1.13-.44c4.97,5.35,6.71,13.44,5.12,19.31Z" fill="currentColor"/>
  <polygon points="364.68 276.52 363.02 283.89 361.39 283.64 362.6 275.66 364.68 276.52" fill="currentColor"/>
</svg>
