<svg xmlns="http://www.w3.org/2000/svg" viewBox="0 0 1024 1024">
  <path d="M531.36,311.92l8.48,1.36-2.93,2.32c-.55.44-.23,2.2.1,3.04l-5.79,1.53,7.24,4.49-2.99,2.02c-6.6-4.07-13.26-7.74-21-9.39l4.99-.51,16.13-.28c-15.34-2.92-25.07-13.31-39.18-14.01-5.3,17.7-8.66,27.6-22.4,38.47l-2.36-2.44c13-9.49,19.22-25.21,22.09-41.77l-11.37,6.8c-11.99,7.17-21.71,10.01-27.57,26.12l-2.02-.07.13-.65.49-1.35c1.16-5.91,4.97-10.79,9.95-15.22s11.28-6.92,17.38-10.72l-19.92,5.55c-4.39,1.22-9.75,5.45-12.6,8.8l-8.5,10.03-2.46-1.2c-.59-.17-1.55,1.21-1.78,1.57h-1.07s-1.87-.72-1.87-.72c11.79-8.35,16.21-17.26,28.08-22.69l2.27.2c.57.05,1.36-.91,1.69-1.31,10.61-2.14,21.43-5.13,31.19-10.85.71-.61,1.63-1.36,1.85-.91s.8,2.14.73,2.63l-.96,6.51c7.83,1.52,13.03,3.4,20.93,6.72-.81-2.86-1.9-6.95-3.45-9.52l-5.78-9.55,2.42-3.08c5.38,7.09,8.87,15.34,11.6,24.33,2.25,1.56,5.76,3.37,8.25,3.76Z" fill="#d1b984"/>
  <path d="M597.58,394.67c-1.06.88-3.76.91-5.13,1.1l7.88-7.14,2.18-2.06c5.28-4.29,9.59-9.22,13.54-15.04l10.01-14.76c-.3-.36-1.43-1.78-1.47-1.73-.06.07,2.33-1.05,2.55-1.39,2.45-3.73,5.87-11.5,7.1-16.01-1.24-1.3-1.67-1.63-1.37-1.93.41-.4,2.53-2.11,2.64-2.67l3.24-16.13.53-1.91c.17-.64-.44-1.84-.73-2.4,1.17-6.58.89-13.58,0-20.87l-1.24-10.13-2.92-.82c.44-1.02,1.35-3.84.9-5.13l-6.86-19.5-2.95.07c1.05-8.8-8.4-19.16-15.03-26.97,2.03,8.42.35,14.47-4.89,19.72l-1.5-1.33c5.6-5.2,7.77-15.05,3.31-21.78l-8.04-8.84,1.59-2.66c21.01,17.97,35.34,43.44,40.35,71.38l.9,8.02-.18,23.65c-3.16,27.56-16.31,51.73-36.23,70.48l-8.16,6.79Z" fill="#9f7f56"/>
  <path d="M556.22,366.26l3.31.4-1.91,2.97-8.8,5.02,3.79,1.88-.08,2.02c-5.15-2.39-10.97-1.21-15.92.65l9.82,7.39,1.19,1.24c-5.17,3.13-5.52,9.96-4.57,16.34-5.25-3.66-2.11-9.73-.22-14.55l-8.38,1.94c-3.67.85-6.64,2.94-6.93,7.07l-.56,7.81c-4.47-4.82-1.23-9.23.43-13.91l-9.11.31c-2.38.08-4.44,5.76-5.78,8.21-1.83-2.61-.14-4.79,2.63-7.96l-8.65-2.67-7,6.57c1.06-2.9,2.02-4.34,3.87-7.22l-7.49-2.92-8.76,4.58c2.47-2.94,4.05-3.84,7.01-6.08l-9.14-6.04c-5.46-6.53-9.9-12.65-9.51-20.67.79-.62,1.9-1.82,2.35-2.43l-4.59-.72c9.49-4.95,7.79,10.45,21.11,17.44,19.5,10.24,44.97,6.76,61.88-6.67ZM484.94,368.85l-7.11-10.78c-.63,8.23,3.8,13.39,8.78,19.35,2.29-3.54.21-5.74-1.67-8.58ZM495.08,382.27c2.15-3.3-3.06-8.65-6.13-8.34-2.49,3.48,2.86,8.99,6.13,8.34ZM505.48,386.62c0-5.55-3.71-7.74-8.79-8.95-.07,1.53.66,5.52,1.73,7.3.95,1.57,5.65,2.59,7.06,1.64ZM515.9,389.48c-1.61-7.32-5.13-7.25-9.47-9.13l1.29,8.41,8.18.72ZM531.43,389.7c3.84.15,9.46-1.39,12.29-3.45-5.5-5.76-13.18-5.28-19.04-4.44,2.9,2.3,4.33,4.35,6.75,7.89ZM529.03,389.46c-3.7-6.1-8.82-7.97-14.52-7.88l4.44,8.78c2.4.7,7.06.34,10.07-.9Z" fill="#c5af83"/>
  <path d="M415.38,521.23l1.27,4.38-3.87,4.05-1.87-2.98-3.41,4.77-5.19,3.8c-17.82,15.28-23.32,39.77-10.59,59.93,2.03,3.22,4.68,5.34,4.08,10.02-4.89-5.28-7.57-10.3-11.35-16.61-3.3,10.1-9.19,18.38-18.29,21.69l.15-3.03c8.44-5.31,15.27-13.72,15.45-24.58l.37-21.51c.14-8.01,1.32-15.66,5.69-22.41l8.68-13.41,1.32,3.43c-3.23,4.1-5.61,9.41-8.22,15.4l6.55-7.19c4.08-4.48,8.5-8.66,13.24-11.8l3.01-1.99,2.96-1.97Z" fill="#cbb17d"/>
  <path d="M385.9,761.23l-2.7,1.2c-.5.22,0,1.05.13,1.75-4.63,1.09-8.47,4.22-8.85,9.05,2.74-.66,5.71-1.06,7.47-.04,1.52.87,3.45,4.12,3.51,6.33.17,6.72-6.32,12.15-13.1,12.42-12.98.5-22-10.99-20.8-23.78.69-7.29,4.13-13.49,9.93-18.25,14.51-11.91,36.44-9.59,48.67,4.69,8.11,9.47,12.14,21.54,8.03,33.4-.39-12.47-1.64-22.49-9.61-31.09-6.64-7.17-16.85-12.51-27.94-11.45-5.3.51-10.72,2.86-15.35,5.51-12.26,7-14.23,25.44-5.49,33.56,8.3,7.71,19.91,4.69,22.16-.63,1.04-2.44,1.06-6.82-.41-8.21-.83-.79-3.13-1.51-3.88-1.09s-2.05,1.9-1.66,2.66l1.57,3.11c-4.32-.9-5.87-4.86-4.93-9.31,1.21-5.72,7.36-10.04,13.23-9.83Z" fill="#a18964"/>
  <path d="M342.76,721.11l-.87,1.26c-3.03-6.41-7.07-12.94-14.39-14.65s-13.2.1-18.62,5.32c.23-5.49-.56-9.34-3.07-12.9,3.95-5.84,6.39-12.91,4.35-20.28-4.04-14.58-18.65-23.95-33.69-19.65-3.22.92-6.48,3.75-9.87,5.79,1.3-8.68-.98-14.64-9.03-18.82,5.46-1.3,7.98-5.83,8.85-11.3,2.51-15.69-5.52-30.54-18.3-39.93-.64-.47-1.42-1.19-1.06-1.45.24-.17,1.22-1.06,1.2-.97-.02.07.85.93,1.11,1.2,11.91,7.81,18.97,19.78,19.96,34.15.63,6.76-2.1,13.6-6.06,19.39,6.89,5.31,5.38,12.8,6.94,12.08l2.52-1.16c3.95-1.82,8.36-3.48,13.02-2.86,12.71,1.68,23.62,10.75,26.62,23.05,1.85,7.59.46,14.63-3.89,20.69l3.77,7.75c6.96-3.65,13.3-3.59,20.18-.15,4.49,2.24,9.52,7.55,10.3,13.42Z" fill="#b49d76"/>
  <path d="M436.47,418.7l2.43,1.12c-13.36,16.86-21.48,19.34-43.72,24.2,8.58,1.81,16.57,6.35,20.42,13.25l.97,1.33c.15.22.16.73.02.92l-2.04,2.19c-5.98-10.74-17.29-16.25-30.04-15.34-6.21.65-12.2,2.62-18.02,4.89l-13.15,5.13c-5.88,2.29-7.33,10.5-13.17,10.58l5.59-5.35c1.76-1.69,2.99-4,2.78-6.05l21.87-9.15c23.77-9.94,55.1-2.99,62.14-31.62,1,2.58.54,4.51.27,8.05l3.66-4.16Z" fill="#cbb17d"/>
  <path d="M684.5,651.32l-3.2.03c22.62-39.17,26.12-89.48-4.66-125.13l-5.49-6.36,1.27-2.45c34.23,32.11,37.88,83.42,16.47,125.33l-4.38,8.58Z" fill="#9f7f56"/>
  <path d="M504.48,185.78l11.88.34,13.08,1-.87,1.46-10.05-.86c-1.43-.12-4.2.23-5.06.91-9.89-.18-19.64,1.9-29.15,4.6l4.99,3.36-.97,1.28c-1.74-1.58-6.32-3.77-8.72-3.12-9.21,2.5-17.58,6.56-26.17,11.18.67.64,1.73,1.54,2.3,1.85l-1.01,1.1c-.85-.67-4-1.29-5.01-.77-6.4,3.27-14.43,8.26-16.15,13.68l-1.89-1.64-10.04,10.44-2.3-2.49c13.07-14.83,29.99-25.14,48.49-33.02,12.07-4.78,24.16-9.64,36.66-9.29Z" fill="#dec68a"/>
  <path d="M414.73,230.01l-3.15,1.62-5.92.4-9.61,1.41-3.34,1.39-1.83,1.43c-4.07,1.1-8.76,3.04-12.37,5.23l-2.89,2.46c-3.16.09-9.63,6.69-9.78,6.47l1,1.49-2.27,2.02c-4.37.78-7.81,6.53-10.19,10.92l8.67-3.99-.64,2.19c-5.21,1.94-12.78,8.86-14.87,15.14l-1,3.01c-.24.72,1.45,1.82,2.19,1.6-4.22,2.42-4.1,9.78-4.12,13.67l-1.93.84c-.65.28.26,2.25.89,2.56l2.17.61c-.49.62-1.02,2.5-1.05,3.31l-.61,6.63-.57-7.34-2.67.04c-1.66-19.63,8.46-43.24,23.71-56.21,14.44-12.28,31.88-18.8,50.17-16.9Z" fill="#ab8b5d"/>
  <path d="M517.44,784.38l4.07,10.36,2.23.97c.36.16-1.03.54-1.49.62l-1.47.24c-.16.15-1.27,1.2-1.11,1.05l3.89,3.37-2.88,2.83-3.92-2.62-.91,7.15c-.29-.46-2.83-1.34-3.07-.77l-2.82,6.7-1.69-7.05-.71-6.93.2-18.04.49-4.15,7.26-2.16.9,4.34,1.04,4.08Z" fill="#f2d992"/>
  <path d="M475.46,358.64c-3.45,2.71-4.24,8.08-4.07,13.07.36,10.66,6.23,19.11,13.84,26.32,10.87,10.3,24.82,14.48,39.26,16.85l18.83.81c.51-.25,2.55-.85,1.88-1.11.38,0,1.07.03,1.31.12l2.66,1.57c-.92.42-3.3,1.42-4.74,1.39l-22.64-.52c-25.41-3.32-51.89-20.74-54.22-46.44-.53-5.8.93-12.74,5.65-15.2l4.59.72c-.45.61-1.56,1.81-2.35,2.43Z" fill="#c2a978"/>
  <path d="M338.74,343.58c-1.81,5.11-2.65,11.87-3.33,18.24l4.52-4.24-4.16,8.23c-9.57,14.76-18.11,29.61-26.02,44.77l.44-5.04c.06-.7-1.81-1.59-3.02-1.99l18.9-30.54c9.63-15.56,4.24-23.27,9.58-30.81l3.1,1.37Z" fill="#dec68a"/>
  <path d="M421.64,230.57l-1.08,4.83-2.38-1.2c-4.72,3.04-7.29,9.08-8.21,15-1.1,6.99,2.54,11.76,9.4,12.87s13.13,4.25,17.21,9.47l-.82,1.94c-8.42-9.87-21.68-7.84-25.82-13.75-2.32-3.31-2.28-6.7-2.71-11.87l-7.16,11.39-4.03,7.93-2.1,4.72-4.01,9.89.89,3.11-2.37-.13-.97-4.22c6.32-19.32,14.63-32.18,27.14-48.51l-3.03-.41,3.15-1.62,4.61-1.92,2.3,2.49Z" fill="#d1b984"/>
  <path d="M397.35,562.93c2.13,49.24,46.64,48.35,80.17,64.41l-.05,2.43-7.25-3.04-20.87-7.08c-9.42-3.19-18.57-6.03-27.32-10.65-18.44-9.73-30.05-29.55-26.81-49.47l2.13,3.4Z" fill="#ac9570"/>
  <path d="M750.5,728.3c-9.48,10.57-21.4,19.22-34.89,25.11l-17.63,7.7,16.75-2.44,23.53-5.36,3.03-1.03,5.15-2.29.13,1.7c.02.28.21.43.85,1.01l-5.11,1.69-1.99,1.11c-16.15,4.8-32.88,7.94-49.59,9.35l4.24-1.08,2.46-5.42,16.19-6.79c12.95-5.43,24.05-13.51,33.46-23.33l3.4.07Z" fill="#cbb98e"/>
  <path d="M765.25,329.06l11.23,23.29c-1.76,2.66-1.82,3.81-1.37,5.82,4.69,20.77-4.17,43.46-20.4,56.83l-1.74-1.65c24.9-20.9,27.23-58.44,7.25-82.74l5.03-1.56Z" fill="#9a815e"/>
  <path d="M346.96,640.58c-3.79,5.57-5.41,13.18-5.77,20.41-.55,11,3.48,21.32,10.62,29.12l-2.63.49c-.56-.03-2.3-.33-2.33.22l-.24,1.72-2.09-2.07c.27-.71.32-2.91-.45-2.99l-2.57-.16c-10.97-16.54-8.23-32.84,3.08-49.01l.35,1.42c.19.48,1.2.73,2.03.85ZM344.34,686c-4.02-9.27-6.14-16.37-6.12-24.66-1.76,9.06.69,18.46,6.12,24.66Z" fill="#b3966b"/>
  <path d="M228.6,770.2l-1.08.17c-23.57-23.55-42.68-51.73-58.89-80.9l1.43-3.41c15.55,28.24,33.92,54.82,55.81,78.97,1.6,1.77,2.68,3.43,2.73,5.17Z" fill="#c5af83"/>
  <path d="M616.34,419.55l-3.98,3.06c-1.8-.59-4.16-1.73-4.72-3.01-.02-1.25-1.54-2.55-2.94-3.22l-1.23-.75-2.12-.97c-.31-.18-.68-.81-.83-1.08-.16-1.02-.83-3.47-1.56-4.45l-7.29-9.92c-11.09,7.62-22.05,12.87-34.75,16.06l.42,3.48-2.97-2.66-5.21.19-2.66-1.57,5-1.55c24.88-4.55,35.71-16.64,40.94-17.38,1.37-.2,4.08-.22,5.13-1.1l-2.32,3,9.96,14.25c2.44,3.49,7.33,7.09,11.12,7.64Z" fill="#b3966b"/>
  <path d="M377.88,301.42l-7,8.51c-2.47.4-6.19,1.95-7.6,4.33l-9.26,15.63.48-6.33-15.76,20.01-3.1-1.37,6.51-9.21c1.37-1.93,2.52-4.19,2.81-6.24.12-.87.77-2.3,1.22-3.31l2.05,2.25,9.94-16.19.79,4.15,5.21-4.48c3.31-2.85,6.22-5.72,8.39-9.31l5.34,1.56ZM347.16,325.69l-.02.65v.67s.02.65.02.65l.02-.65v-.67s-.02-.65-.02-.65Z" fill="#cbb17d"/>
  <path d="M397.83,528.78l-1.32-3.43,10.05-12.43c.32-.4,1.15-1.68,1.2-1.82.03-.1-.88-.56-1.21-.72.09-.24.55-1.44,1.03-1.43l3.18.05c.95.02.59-2.74.07-3.53-.63-.95-2.97-.67-4.25-.15l-3.98,1.62c9.66-5.92,13.85-16.69,15.39-27.33.32-2.17.49-5.19-.35-7.06l-.05-2.04-.9-2.98-2.13-5.8,2.04-2.19c7.96,14.08,5.34,30.05-4.27,44.11l9.28-6.19-9.21,12.84-14.57,18.48Z" fill="#d1b984"/>
  <path d="M218.77,233.97l-5.22,6.62c-16.14,20.44-30.49,41.58-43.76,64.01l-2.95,4.67c.24-.49-.61-2.9-1.26-2.77,13.67-27.11,31.83-52.24,51.94-74.94l1.24,2.42Z" fill="#cab486"/>
  <path d="M854.61,300.63l-2.86.65c-14.91-28.09-34.29-53.2-55.52-76.47l.54-3.02,11.8,12.71c18.48,19.91,32.76,42.52,46.04,66.13Z" fill="#c5af83"/>
  <path d="M903.84,481.74l1.83,5.85c.69,2.74,1.42,4.68,3.33,5.58l-.37,1.78c-.24,1.15,3.01,2.32,2.2,6.12l-5.25-4.14-1.27,4.7-4.82.62-1.14-3.93c-.15-.5-1.25-1.27-1.61-.89l-1.37,1.47c-1.72,1.85-3.3,2.82-5.78,2.24l4.97-5.99c-.91-.6-2.76-1.44-3.7-1.6l1-5.8c1.15-.25,2.71-1.44,2.27-2.24l-2.2-4.04,5.74,2.11.68-4.02,5.49,2.16Z" fill="#e5c582"/>
  <path d="M598.59,473.54l9.76,8.97c3.72,3.42,8.84,6.82,13.39,8.19l22.62,6.83,3.03.83,7.99.96.99.18-1.61,3.01-3.7.02c-2.11-1.21-3.86-1.88-6.9-2.51l2.24,3.27-16.62-4.3-17.29-5.6-8.18-4.49.59-1.47c4.53,2.57,9.94,4.64,15.64,6.09-9.75-5.5-18.32-11.17-24.67-19.8l2.73-.21ZM600.49,477.03c.14.37,1.21,2.02,1.29,1.71l.28-1.17c.07-.31-1.69-.85-1.57-.54Z" fill="#c2a978"/>
  <path d="M522.17,109.54c-2.57,8.6-5.06,17.66-5.91,27.02l-.98,4.43-1.07-5.23-5.01,2.03c-1.54-8.61-2.63-17.29-4.77-26.03l2.75,2.34,1.35-3.51,4.49,15.44c.96-6.86,2.61-12.8,5.32-18.25l3.83,1.76Z" fill="#dec68a"/>
  <path d="M583.6,231.99c-3.34,5.56-9.76,7.86-16.95,9.49l12.43,8.72c7.26,5.1,18.77,3.17,24.95-2.57l1.5,1.33c-5.79,5.8-13.85,6.73-22.62,5.19l6.64,7.61c1.41,1.61,3.58,4.6,5.33,5.3l.64,2.64,5.77,12.08-2.05.85c-6.86-15.92-19.22-29.04-33.92-38.66-.76.11-2.55.59-2.79.06l-1.08-2.36,4.32.21c-1.16-1.09-2.08-2.11-2.84-2.42,6.96.47,13.56-2.93,18.3-7.63l2.37.15Z" fill="#c2a978"/>
  <path d="M471.5,472.45l-1.03,2.04-.71,1.16c-8.21,16.86-21.09,31.05-38.4,39.48l-14.71,10.49-1.27-4.38,12.37-7.61c17.65-9.18,32.2-23.13,40.35-41.09l3.41-.08Z" fill="#c0a573"/>
  <path d="M663.25,628.38l-1.22-1.42c-.26-.26-.54-.23-1.37-.1l2.78-15.45c3.65-20.27-4.5-41.77-19.12-55.81l.07-3.25c22.98,18.77,27.41,48.02,18.85,76.03Z" fill="#927857"/>
  <path d="M525.51,257.74l3.97.03,2.02.02,2.97.88,2.04.14,2.91.96,3.14.36-6.22,1.99-6.93-1.16c-2.05-1.09-5.78-1.09-7.89-.24-9.18-.27-17.5,2.87-26.51,6.55l2.53,2.4-2.87,2.18c-.82-.68-2.81-1.48-4.05-2.02-4.69,3.81-10.08,7.07-13.72,11.15l-1.51-3.38c13.04-13.77,31.28-20,50.12-19.87Z" fill="#d1b984"/>
  <path d="M824.45,696.57c-13.08,22.18-27.67,42.85-45.69,61.19l-21.16,21.54-.72-1.96,18.98-19.55c18.41-18.96,33.56-40.26,47.05-62.61l1.54,1.39Z" fill="#cbb98e"/>
  <path d="M693.39,699.99l-4.05,2.22c-10.89-.14-19.91,8.44-19.01,20.03-19.39-6.97-36.57,5.43-45.57,23.05l-2.39.07c5.14-11.45,13.78-21.3,26.24-25.77,3.03-1.09,8.56-2.33,11.37-2.03l8.12.87c.54-13.36,17.03-21.95,25.29-18.44Z" fill="#b8a27b"/>
  <path d="M583.34,303.72c.26-.07.69.04,1.36.16l-.36.91.76,12.69-.73,7.11.23,6.07,3.08-.71c.33-.08.57,1.45.46,1.28-2.43.74-5.18,2.78-5.92,5.02l-1.76,5.34c-.15.45-.14,1.6.04,2.02-1.46.82-3.5,3.46-4.07,4.97l-1.15,3.05-5.31,6.26c-.38.44-.24,2.96-.8,3.12l-2.62.76c-.56-.15-1.79-.2-1.78-.66l.05-1.31-.08-1.07,1.71-2.19c13.06-13.55,17.89-33.29,13.64-51.84l3.25-.98Z" fill="#ab8b5d"/>
  <path d="M528.74,212.96c-1.55,5.76-4.77,11.41-9.41,15.49l14.15,1.32c2.21.21,6.88,1.66,8.83.9,4.24-1.65,8.46-5.08,10.88-8.15l1.47,1.3c-2.51,2.82-5.77,5.65-9.67,8.21l17.94,7.44c.76.32,1.68,1.34,2.84,2.42l-4.32-.21c-6.45-3.15-13.89-6.25-20.78-7.25l-1.11.08c-1.35-.84-3.84-1.87-5.83-2.05l-8.21-.75c-2.58-.84-6.6-.86-9.11-.63l.15,1.71-1.88-1.84c-.47-.42-1.75.35-2.27.6l-5,.46-3.05-.59,3-1.61,7.24.05c5.65-4.42,10.18-10.33,11.58-17.12l2.57.22Z" fill="#cab486"/>
  <path d="M590.08,706.38l-.71-3.26c19.31-9.83,36.8-23.39,51-39.74l5.02-1.01-5.5,6.65c-14.15,15.55-31.29,28.4-49.8,37.36Z" fill="#d1b984"/>
  <path d="M854.43,689.51c-12.41,23.43-27.27,45.82-44.81,65.71l-3.52.14c18.06-20.21,32.78-43.26,45.84-66.99l1.81-.8c.33-.21.29,1.74.69,1.94Z" fill="#d6c092"/>
  <path d="M567.49,712.97l-.08,3.21-29.16,8.83-37.24,8.35c2.92-1.15,6.61-3.73,8.95-5.4-2.99.19-7.47.08-9.49.65l11.59-4.14-1.63,2.41c-.35.47,1.05,2.38,1.48,2l1.62-1.44c18.23-3.92,36.32-8.49,53.95-14.46Z" fill="#b3966b"/>
  <path d="M769.51,194.85l-2.82.86c-23.77-21.78-50.7-39.15-78.66-54.38l.83-1.65c29.17,15.08,56.5,33.04,80.64,55.17Z" fill="#978368"/>
  <path d="M724.47,684.21l-1.9.04-.48-7.65c-10.7,5.27-14.84,16.84-9.58,26.85-4.17,1.18-6.45,2.08-9.11,3.68-3.17-4.12-9.12-5.42-14.05-4.93l4.05-2.22,9.88,4.2,6.54-2.6c-4.72-12.07,1.14-22.61,11.73-27.52-8.35-8.2-7.4-19.65-3.94-30.11,1.29.58,2.78,1.32,2.59,1.81l-.93,2.4c-3.68,9.45-1.6,19.81,6.02,26.21-.74,3.31-1.26,7.06-.81,9.84Z" fill="#9e896b"/>
  <path d="M249.23,644.09c-1.16-6.66-2.28-14.21-8.26-18.6-9.73-7.14-20.84-6.79-30.37,1.38,2.07-7.2,10.34-7.75,15.57-8.88,3.54-7.04-.63-15.74-6.63-20.31-7.38-5.62-15.9-4.98-25.02-2.13,3.09-3.05,8.21-5.91,11.4-5.19,14.88,3.4,26.82,11.19,22.68,27.62,12.24,1.55,23.38,12.26,20.62,26.11Z" fill="#9e896b"/>
  <path d="M501.01,733.34l-20.42,8.04c-6.76,2.66-12.53,7.52-18.32,12.04l-3.49-.49c11.21-11.64,26.41-20.02,41.69-24.34,2.02-.57,6.5-.46,9.49-.65-2.34,1.66-6.03,4.25-8.95,5.4Z" fill="#9f7f56"/>
  <path d="M585.38,202.8l-1.57,3c-9.62-5.49-19.55-10.25-30.79-12.99,9.55,10.12,9.69,21.95,1.64,31l-1.47-1.3c7.19-9.1,6.54-21.33-2.23-29.34-1.23-.81-4.14-2.16-5.65-2.36l2.19-3.25c13.29,3.27,26.27,8.02,37.88,15.23Z" fill="#b3966b"/>
  <path d="M513.54,727.43l-1.62,1.44c-.43.38-1.83-1.53-1.48-2l1.63-2.41,42.31-12.25c19.9-5.76,37.29-14.96,54.1-26.86-14.47,13.74-32.5,22.83-51.56,28.42l-37.07,10.87-6.29,2.79Z" fill="#af9b78"/>
  <path d="M514.69,867.45l.49,3.26c.07.46.3,1.94.29,1.88-.01-.05,1.21-.06,1.51-.07l.46,1.41.46,1.4-1.3,7.36-2.52,5.23.29,2.08-3.84,1.43-1.44-6.21c-.31.27-3.43,1.31-3.44.38l-.03-3.47c0-.9-.18-2.76-.78-3.43-.48-.53-2.09-1.32-2.83-1.4l3.81-1.48c.05-.86-.03-2.29.62-2.42l2.94-.59.81-6.64c.58-.11,2.39-1.52,2.73-.98l1.78,2.25Z" fill="#f2d992"/>
  <path d="M395.59,359.27c-1.64,3.05-3.24,8.02-5.65,9.31-3.35,1.79-8.22,2.37-11.29,1.4-5.35-1.69-7.07.58-12.02,4.04l5.24-9.03c5.97-16.64,17.42-7.45,33.83-9.77-2.45,2.24-6.72,2.9-10.11,4.05ZM392.85,359.49l-6.15-1.18c-6.09-1.17-11.24,2.83-11.84,7.95,8.24,3.07,15.57,1.27,17.99-6.78Z" fill="#d1b984"/>
  <path d="M543.86,519.78l-17.45,18.52c-9.36,12.22-14.71,20.96-14.03,36.1l-.87,2.39c-.12.52.72,1.26.87,1.74l.97,3.01c.04-.24-1.02,2.17-1.34,1.76l-1.55-1.81v-2.05s-.37-15.02-.37-15.02c1.01-16.94,20.2-35.04,32.2-47.27l1.57,2.63Z" fill="#cab486"/>
  <path d="M566.55,361.77l-6.07,5.19,10.21,6.59c2.35-2.05,5.39-4.51,8.79-6.15-1.82,2.51-3.38,3.77-5.87,5.55-5.12,3.67-3.66,11.92-1.35,19.9-4.34-4.09-4.05-8.96-3.86-15.86l-8.41,5.65c-3.93,8.18-2.93,15.13,2.61,22.28-7.77-3.33-8.18-11.68-6.07-20.17-2.57.54-6.72,1.76-8.9,3.08l-1.19-1.24,10.15-4.81c-.84-1.11-2.73-2.62-4.05-3.23l.08-2.02c1.75.87,3.47,2.36,6.19,4.61l10.3-6.51c-3.24-3.4-7.04-4.68-11.48-4.99l1.91-2.97-3.31-.4,8.6-6.46-.05,1.31c-.02.46,1.22.51,1.78.66Z" fill="#ac9570"/>
  <path d="M131.25,487.73l1.45,5.88-3.47.77c-.7.16.56,1.69,1.41,2.6l-.26,3.23c-.15,1.8-4.29-3.64-4.62-2.33l-.72,2.83-6.4-.92v-1.3s-.59-13.56-.59-13.56l6.39-3.09,1.95,1.71c.43.38,1.75-.99,2.32-1.34s2.11-.17,2.83.05c1.59.49-3.33,3.56-2.28,4.21l2.01,1.25Z" fill="#e5c582"/>
  <path d="M366.31,607.26l-.15,3.03c-3.62,2.79-8.23,3.2-13.91,3.51,5.43,3.7,11.01,1.03,18.43-.32l-14.23,14.8-6.28,7.56-3.22,4.73c-.83-.13-1.84-.37-2.03-.85l-.35-1.42c5.24-7.5,11.5-13.93,18.31-20.7l-11.09-.39c-1.76-.06-5.32-1.9-6.04-2.68l4.98-.99-3.42-3.06c6.22.15,13.56.2,19-3.22Z" fill="#c0a573"/>
  <path d="M299.91,739.58l-.96-1.75c4.62-4.59,6.57-11.03,3.31-17.22-1.87-3.57-6.47-4.86-10.32-4.33-.17-3.13-.45-6.17-2.06-8.55-2.89-4.28-10.01-2.24-10.96-5.12,1.67-10.68-2.26-19.41-11.63-24.25l.91-2.13c10.26,3.97,15.14,14.6,13.15,26.2,8.15-2.44,10.27,6.5,13.43,9.54,6.83,4.48,12.73,7.51,11.04,17.72-.62,3.74-2.65,7.06-5.91,9.89Z" fill="#b8a27b"/>
  <path d="M302.65,455.52l1.63-.14-2.6-6.87,1.17-2.78c1.17-3.64,3.46-7.06,6.52-8.27l2.38.89-4.52,4.14c-1.49,1.37-1.94,5.77-.91,7.82,3.82,7.58,22.66,3.59,34.58-11.52,2.35-2.98,5.67-4.01,8.73-2.85-2.75.76-5.76,2.1-7.29,4.28-8.52,12.11-24.58,21.6-36.43,14.5l.4,3.31-3.66-2.51Z" fill="#c5af83"/>
  <path d="M471.5,472.45l-3.41.08c4.1-9.03,6.69-19.41,7.39-29.88,1.18-17.52-5.85-32.46-14.8-47.43,9.31,9.6,15.51,22.87,16.73,36.32l.83,9.15c1,11.06-2.05,22.47-6.74,31.76Z" fill="#9a815e"/>
  <path d="M884.97,618.36l-2.83-.18,3.04-10.77c5.32-18.86,9.68-36.86,12.65-57.05,1.91,1.46,2.08,4.6,1.61,7.23-3.35,21.04-8.35,41.06-14.47,60.78Z" fill="#85694b"/>
  <path d="M741.75,550.29l-3.43,1.15c-9.81-13.91-22.28-25.25-37.15-33.89l1.14-3.4c16.4,7.49,29.12,21.44,39.43,36.15Z" fill="#ab8b5d"/>
  <path d="M644.4,552.35l-.07,3.25c-15.83-15.21-39.47-19.58-57.1-5.51-6.64,5.3-8.72,11.91-12.1,20.03,1.2-15.53,12.75-26.87,28.02-29.96,16.08-3.26,29.09,2.25,41.25,12.19Z" fill="#9e896b"/>
  <path d="M782.7,727.58l-2.52-1.24c15.6-18.74,21.11-45.88,3.08-62.67l-.02-2.32c8.3,6.27,13.17,16.15,13.72,27.33.36,7.24-1.84,14.49-3.44,21.69-1.05,4.69-3.25,8.19-6.33,11.86l-4.48,5.34Z" fill="#927857"/>
  <path d="M337.45,138.47l1.22,1.37c-24.83,12.69-48.63,27.35-69.73,45.5l-1.56-1.81c21.4-17.57,45.27-32.7,70.07-45.06Z" fill="#978368"/>
  <path d="M276.1,788.45l1.18-1.73c27.37,23.98,57.63,42.69,90.7,58.13-5.83-.79-10.63-3.64-15.96-6.24-27.54-13.45-52.47-30.46-75.92-50.17Z" fill="#978368"/>
  <path d="M583.34,303.72l-3.25.98c-1.89-8.26-5.54-16.13-11.01-22.67l-3.34-7.04,7.34,5.83,3.8-22.21c.52,2.91.59,5.97-.07,9.19l-2.93,14.36,6.45,10.96c4.26-6.62,5.43-12.96,7.75-20.61l-.35,6.47c-.33,6.11-2.92,11.47-7.32,15.42l2.92,9.3Z" fill="#b3966b"/>
  <path d="M632.58,787.54c-8.08,5.97-15.17,13.63-18.13,23.59-1.88,6.36-1.31,13.17,3.05,17.84,3.36,3.59,7.51,5.73,12.33,5.36,3.93-.3,7.06-3.01,10.64-6.21-1.47,4.99-6.54,7.42-10.83,7.97-9.63,1.25-18.29-9.17-18.54-13.92-.63-11.89,2.86-21.51,11.28-29.02l9.99-8.92.21,3.31Z" fill="#927857"/>
  <path d="M562.96,493.73l-2.78-1.2c11.69-23.61,10.65-50.57-2.86-73.95,2.04,1.43,3.9,3.78,5.12,6.21,10.93,21.77,10.76,47.42.53,68.95Z" fill="#9a815e"/>
  <path d="M235.3,744.2l-1.97,1c-16.68-19.32-31.5-39.95-42.9-62.85l1.86-.85c12.09,22.51,26.23,43.46,43.01,62.7Z" fill="#c2b088"/>
  <path d="M666.62,339.06c-5.57,9.84-9.11,21.72-8.01,33.19s4.13,20.81,10.63,29.52c1.17,1.57,2.2,3.78,2.78,5.33l-.68.86c-17.76-19.04-19.93-48.28-6.65-70.42l1.94,1.52Z" fill="#9a815e"/>
  <path d="M662.37,499.62l22.83,6.7,17.12,7.82-1.14,3.4c-13.75-8-31.61-12.58-46.42-15.02l1.61-3.01,6.01.11Z" fill="#b3966b"/>
  <path d="M783.17,575.38c.44,7.68,4.35,13.97,12.67,15.6-3.08,5.97-4.49,11.72-2.59,17.9l-9.03-.5c-9.16-.51-15.02,7.34-16.48,15.7-.8,4.57.22,6.83,2.57,12.42l-4.14-3.91c.56-.84,1.21-2.14.61-2.16l-2.56-.07-.71-.02-.7-1.82,2.2-.79c1.02-.53-.25-12.08,8.93-18.21,5.23-3.49,11.41-5.2,17.32-3.18-.35-6.02,0-9.2,2.17-14.08-8.5-1-12.84-10.46-13.08-17.08l2.81.2Z" fill="#9a8364"/>
  <path d="M300.87,431.69c-1.51.63-3.54.83-6.56,1.26l4.38,7.73,3,7.82,2.6,6.87-1.63.14c-4.96-2.91-7.3-8.47-7-14.67-4.3-5.35-3.85-12.06-.31-17.6l5.28-8.77v9.1s.25,8.11.25,8.11Z" fill="#ab8b5d"/>
  <path d="M760.05,222.07l1.49-1.38,22.23,22.58c10.67,10.84,19.92,23.78,28.46,36.1.55.8,1.11,3.87,1.05,4.53-10.15-13.77-19.48-27.41-31.52-39.7l-21.71-22.14Z" fill="#c2b088"/>
  <path d="M882.61,371.4l2.05-1.63c6.79,21.96,14.02,44.09,14.84,67.79l-12.38-50.92-4.51-15.23Z" fill="#927857"/>
  <path d="M347.32,610.49l3.42,3.06-4.98.99-1.03-.28-1.26-.69c-5.89-2.74-10.04-9.65-9.44-16.66.53-6.24,4.87-10.42,9.92-11.87s11.57.07,14.03,5.14c-3.14-1.65-5.97-2.81-9.21-3-6.54-.38-11.26,3.86-11.3,10.25-.06,8.77,6.89,10.41,9.85,13.05Z" fill="#ab8b5d"/>
  <path d="M513.35,581.54c1.7,5.27,4.07,11.19,8.53,15.61,11.35,11.24,25.61,15.14,37.82,30.87l-2.29.38c-5.76-6.76-13.47-11.52-20.96-16.97l-14.48-10.56c-6.3-4.59-9.5-12.28-11.51-19.39l1.55,1.81c.33.41,1.38-2,1.34-1.76Z" fill="#b8a27b"/>
  <path d="M600.52,413.58c.15.27.52.9.83,1.08l2.12.97,1.23.75c-.68.16-1.19,1.71-.75,2.12l1.25,1.16,5.04,9.99c3.31,6.57,5.77,13.48,10.43,18.76l-4.31.08c-4.22-5.83-7.47-12.56-10.28-19.54-3.42-8.47-9.11-14.25-16.72-19.9.92-.33,4.05-.22,5.05.46l6.11,4.06Z" fill="#c0a573"/>
  <path d="M530.64,686.94c-2.69,3.78-6.13,7.75-10.34,10.23l-21.95,12.95-21.34,13.49.78-3.5,27.57-16.95c8.58-5.27,17.52-9.73,23.29-18l2,1.79Z" fill="#b49d76"/>
  <path d="M734.35,284.91l-4.17,1.74c-2.74.3-6.24-.2-7.56-2.72s-1.29-5.55-.36-8.14l.4-1.92,6.93-1.11c2.28-.39,5.24,2.88,5.93,5.34.61,2.17.09,4.41-1.17,6.81Z" fill="#ab8b5d"/>
  <path d="M248.16,377.6l-.66,2.03-6.89-.03,1.62,5.34-3.91-2.73-2.3,9.89c-1.14-3.59-1.23-5.7-1.63-9.67l-3.81,2.09,2.59-4.41-5.35-1.22,5.04-1.82-2.11-4.86,3.8,2.37c.2-4.75.53-8.66,2.48-13.79l1.07,14.44,6.48-4.97-4.75,7.15,8.35.19Z" fill="#d1b984"/>
  <path d="M754.72,415.01c-11.05,9.1-24.47,14.88-39.39,13.47-8.73.34-17.54-1.25-24.2-5.98l1.42-.87c9.28,2.99,19.28,6.05,29.39,4.76,11.99-1.54,22.43-5.8,31.04-13.02l1.74,1.65Z" fill="#b49d76"/>
  <path d="M801.17,521.54c-2.59,1.34-5.2,4.94-7.22,7.64-6.59,8.77-7.45,19.91-1.23,29.1-4.34,2.99-7.32,6.56-9.92,10.66l.37,6.43-2.81-.2-.08-2.19.64-3.67c.8-4.57,4.17-8.69,8.12-11.99-6.89-13.65-1.61-28.2,10.14-37.06l1.98,1.28Z" fill="#c1aa7e"/>
  <path d="M565.74,274.99l3.34,7.04c-8.42-10.06-19.75-17.74-32.75-19.91l6.22-1.99c4.94.56,12.29,5.42,18.05,9.11-1.35-8.41-1.95-15.96,1.61-23.54-.67,7.55-.97,14.17.02,22.15.66,5.29,4.64,4.53,3.5,7.14Z" fill="#c2a978"/>
  <path d="M248.99,236.04l-9.52,10.5c-12.88,14.21-23.68,29.71-34.48,45.1l-1.47-1.34c9.2-14.21,19.07-28.14,30.73-41.05l7.57-8.39,5.65-6.23,1.51,1.4Z" fill="#cbb98e"/>
  <path d="M844.31,658.69l-1.18-1.75c13.73-29.76,22.58-60.1,29.84-92.52-4.19,32.35-15.17,64.06-28.66,94.27Z" fill="#897963"/>
  <path d="M138.69,377.56c-6.36,19.13-9.17,38.69-14.88,59.71.3-20.73,6.91-41.22,12.64-60.85l2.24,1.14Z" fill="#927857"/>
  <path d="M124.14,475.35l.29,6.49-6.39,3.09.6,13.56-1.62-.36-9.46,6.32,7.45-10.28c-6.57-1.04-11.45-1.69-17.67-3.99l18.03-3.36-2.45-3.16,1.12-2.34,4.52,2.52.99-7.37,4.59-1.12Z" fill="#c0a573"/>
  <path d="M503.75,781.28l3.73,3.38.28-2.41-.2,18.04-5.88,4.97-2.17-3.09,3.98-4.61-5.49-1.4c1.01-2.26,1.26-4.92.35-7.02l4.71-1.53-2.58-3.27,3.28-3.06Z" fill="#e5c582"/>
  <path d="M351.81,690.11c7.52,8.21,17.25,14.59,28.05,17.64l-3.34,1.94c-11.01-3.03-22.24-8.93-29.91-17.15l.24-1.72c.03-.55,1.77-.25,2.33-.22l2.63-.49Z" fill="#ab8b5d"/>
  <path d="M309.75,410.59c-.02.24.11.88.01,1.1-.95-.1-2.06.62-2.06,1.35v2.69c.01,4.31-5.41,6.87-1.48,10.46-.75,1.49-3.5,4.74-5.36,5.51l-.27-8.11v-9.1s6.57-10.93,6.57-10.93c1.21.4,3.08,1.29,3.02,1.99l-.44,5.04Z" fill="#c0a573"/>
  <path d="M493.5,551.53l-1.19-2.33c4.08-7.8,8.05-15.45,14.84-22.39l15.85-16.21c.49-.5,2.91.92,2.52,1.33l-1.76,1.86c-12.15,11.25-22.5,23.55-30.26,37.75Z" fill="#d6c092"/>
  <path d="M264.98,675.07l-.49,2.13c-7.71-1.69-15.37-1.15-20.59,5.42l1.96-10.19c1.31-6.77-2.13-13.17-6.57-17.17-4.91-4.41-10.64-5.12-17.7-5.22,5.82-4.57,15.92-.35,21.82,6.52,4.88,5.69,4.75,12.55,4.2,20.06,5.83-2.52,11.96-3.2,17.38-1.56Z" fill="#a28e70"/>
  <path d="M637.29,281.61l-4.08,5.03c-6.54,9.51-19.8,8.76-28.71,3.17l2.87,15.99-2.15-.06c-1.17-7.88-2.83-15.77-5.99-23.1l2.05-.85c1.56,3.26,2.57,5.24,6.04,7.14,7.69,4.23,17.36,4.06,23.82-2.53,1.23-1.25,2.6-4.18,3.22-5.61l2.92.82Z" fill="#ac9570"/>
  <path d="M136.32,602.3l-1.32,3.22-1.02-.6c-3.31-18.4-10.32-36.06-10.22-55.51l12.57,52.89Z" fill="#85694b"/>
  <path d="M755.39,578.21c5.58,9.57,5.72,20.99,5.49,32.18-.09,4.18.33,8.14-.75,11.68l-1.32,4.33-1.58-1.83c2.51-15.53.75-31.03-4.14-45.82l2.29-.53Z" fill="#85694b"/>
  <path d="M684.5,651.32c-11.72,22.96-39.39,50.28-63.23,63.23l24.2-19.19c15.09-11.96,26.37-27.62,35.83-44.01l3.2-.03Z" fill="#ac9570"/>
  <path d="M602.17,676.52l.3-2.51c1.43-.73,2.57-1.54,3.95-2.61,12.44-9.22,24.35-18.87,33.16-31.8l1.39-2.04c.28-.41,1.69.77,2.28,1.23-5.55,7.28-11.05,15.04-18.24,21.08s-14.65,11.89-22.84,16.65Z" fill="#cbb98e"/>
  <path d="M668.3,767.18l3.31,2.41c-14.01,3.24-27.46,9.4-39.02,17.94l-.21-3.31c10.66-8.05,23.23-13.25,35.92-17.05Z" fill="#a18964"/>
  <path d="M388.43,284.77l.11.95.12,1.01c-.34-.13-.89.96-1.02,1.61l-5,24.78,3.24-.71-.67,2.97-4.45,2.84v-9.41c1.49-1.68.59-2.44-1.75-1.27l1.53-4.82c.23-.74.34-2.5.31-3.38-.03-.78-1.4-1.49-2.06-1.63,2.58-1.26,4.39-4.05,5.46-7.3l3.22-9.83.97,4.22Z" fill="#c0a573"/>
  <path d="M515.51,775.96l-7.26,2.16,3.53-29.98c1.38,1.5,1.44,2.8,1.69,5.11l1.28,12.01.76,10.71ZM510,774.24l-.59.5.59.5.5-.5-.5-.5Z" fill="#c0a573"/>
  <path d="M600.88,214.36l-1.59,2.66-2.95-2.08-8.09-5.62-1.02,1.17c3.17,7.18,2.65,16.2-3.64,21.51l-2.37-.15c12-11.92,1.68-24.07,2.58-26.03l1.57-3,15.5,11.56ZM586.87,208.06l.07,1.23-.07-1.23Z" fill="#ab8b5d"/>
  <path d="M622.02,769.49c-9.14,7.19-16.4,19.22-17.34,32.09-.5,6.93,2.78,13.2,4.44,19.67-12.68-16.81-5.75-36.57,8.59-50.53l3.44-4.5c.43.21,1.28.57,1.26.92l-.41,2.35Z" fill="#927857"/>
  <path d="M909,493.18c-1.9-.91-2.64-2.84-3.33-5.58l-1.83-5.85,2,1.67c.52.43,1.84-1.31,2.4-1.71l8.14-5.98-8.46,11.02,19.38,3.6-11.13,2.59c-1.82.42-5.15.48-7.17.24Z" fill="#be9e6b"/>
  <path d="M527.48,779.2l-6.65,8.6,7.63,1.1,4.17,6.61-11.85,1.05,1.47-.24c.46-.07,1.85-.46,1.49-.62l-2.23-.97-4.07-10.36,5.76-5.22,4.28.05Z" fill="#d1b984"/>
  <path d="M504.51,103.04l-4.29,1.91c-1.07-1.31-5.17-2.65-6.82-1.95-1.48.63-3.41,2.99-4.14,4.56l-1.58,3.38c-.15.33-.3,1.96-.66,1.9l-1.67-.15c-2.1-4.88.35-10.95,4.98-13.68,4.89-2.88,11.74-.58,14.19,4.02Z" fill="#ab8b5d"/>
  <path d="M376.52,709.69l3.34-1.94,18.14,5.12c9.12,2.58,21.15,8.13,25.73,14.77l.68.5c3.68,2.7,7.54,7.94,8.22,12.97l-8.58-12.27c-.09-.13-.36-.3-.89-.69-7.6-5.99-16.55-10.19-26.43-12.91l-20.2-5.55Z" fill="#9e896b"/>
  <path d="M511.65,959.08l-.34-24.14c-2.08-1.38-4.3-3.83-3.95-5.32s2.77-3.83,4.25-4.18c1.7-.4,4.39,1.12,4.87,2.54.78,2.3-.43,5.59-2.93,6.78l-.09,23.85-1.82.49Z" fill="#b8a27b"/>
  <path d="M607.37,305.79c.64,3.56-1.16,8.15,2.11,10.9l-1.36.8c-2.76,4.33-3.91,10.42-.07,14.42l5.59,5.82c-4.26-1.15-6.14-3.44-9.01-7.31l-3.95,10.22-2.35,1.02-1.02-.31.32-1.52c1.06-.24,3.04-2.18,3.34-3.46l1.78-7.59-7.35-.32v-1.55s8.59-.49,8.59-.49l1.7-10.89-5.03.97-1.31-1.18,5.82-1.14.06-8.45,2.15.06Z" fill="#927857"/>
  <path d="M188.13,319.82c-10.05,19.75-18.98,39.94-26.01,60.95l-.55-2.37c6.1-20.15,15.05-40.07,25.02-58.8l1.54.22Z" fill="#978368"/>
  <path d="M765.4,799.31l-7.23,6.87-40.69,29.28-.3-1.46c16.85-11.14,33.44-22.91,48.09-36.8l.13,2.1Z" fill="#a28e70"/>
  <path d="M598.59,473.54l-2.73.21c-5.34-7.25-8.6-15.8-11.56-25.03l-7.79-24.38c5.26,6.31,6.99,14.05,9.27,21.84,2.96,10.1,6.72,19.33,12.8,27.36Z" fill="#ac9570"/>
  <polygon points="869.98 658.28 866.26 659.4 880.89 622.3 883.76 621.64 869.98 658.28" fill="#a18964"/>
  <path d="M464.62,454.2c-2.34,9.32-4.96,18.49-11.38,25.42,10.55-18.77,12.29-38.41,5.27-58.53,4.59,3.94,4.47,9.61,6.02,14.53l.09,18.58Z" fill="#ac9570"/>
  <path d="M402.59,506.94l3.98-1.62c1.28-.52,3.62-.8,4.25.15.52.79.88,3.54-.07,3.53l-3.18-.05c-.48,0-.94,1.18-1.03,1.43l-.93.19-2.01.87-1.03.03-4.98,1.14c-7.12.84-15.99-3.18-14.54-11.83,3.26,3.77,5.22,7.28,8.83,8.25,3.27.88,7.82-.9,10.71-2.07Z" fill="#c2a978"/>
  <path d="M412.77,529.66c-6.95,7.27-11.95,16.66-13.9,26.96l-1.52,6.31-2.13-3.4.4-2.05.9-3.15c1.33-8.29,6.1-16.04,10.98-22.88l3.41-4.77,1.87,2.98Z" fill="#c0a573"/>
  <path d="M152.82,338.95c-5.72,12.44-9.81,25.63-14.12,38.61l-2.24-1.14.41-2.71,13.69-36.18,2.27,1.42Z" fill="#a28e70"/>
  <path d="M575.47,807.98c3.87-3.9,7.29-7.21,7.25-12.21-.05-5.98-2.21-9.99-7.96-14.18,7.26.22,12.01,6.19,12.14,12.59s-3.09,13.75-11.43,13.8Z" fill="#be9e6b"/>
  <path d="M700.25,310.44l3.16,1.12c-15.19,4.16-28.94,13.62-36.79,27.5l-1.94-1.52c7.9-13.17,20.29-24.08,35.56-27.1Z" fill="#ac9570"/>
  <path d="M447.11,782.15c-5.26,4.78-7.56,8.09-7.54,13.55.02,4.86,3.8,9.29,8.2,12.31-7.22.5-11.96-6.07-12.22-12.24-.29-6.69,3.4-12.28,10.51-14.32l1.05.69Z" fill="#be9e6b"/>
  <path d="M848.73,344.66l-1.85-.2-14.01-28.44c-4.2-8.52-10.54-15.42-13.53-25.06,11.06,14.28,18.95,30.01,26.16,46.35l3.24,7.36Z" fill="#9e896b"/>
  <path d="M393.93,271.9l2.1-4.72.4,3.44c.06,7.38,4.88,11.57,12.27,11.2,11-.55,23.61,1.99,24.77,12.68-3.38-7.47-10.74-9.76-18.77-10.24l-11.16-.67c-4.69-.28-7.45-4.96-8.73-9.03l-.88-2.67Z" fill="#c5af83"/>
  <polygon points="884.66 369.77 882.61 371.4 867.88 333.45 870.57 332.67 884.66 369.77" fill="#a28e70"/>
  <path d="M697.45,758.35l-2.46,5.42-4.24,1.08c-.15.04-.27.24-.44.45l-4.1.91-14.61,3.38-3.31-2.41c.4.13.81.35,1.06.24l3.19-1.39,21.63-6.84c.1.17.64.99.62.98-.02,0,.55-.91.78-1.01l1.87-.82Z" fill="#c0a573"/>
  <path d="M284.84,203.1c-.06-.83-1.9-.55-2.31-.23,27.84-22.31,58.1-41.44,92.03-54.31-2.09,2.05-5.07,3.14-7.82,4.46-11.07,5.33-21.9,10.28-32.52,16.38-17.65,10.13-34.25,20.88-49.38,33.7Z" fill="#978368"/>
  <polygon points="796.77 221.79 796.23 224.81 774.86 203.2 766.69 195.71 769.51 194.85 779.3 203.82 794.03 218.06 796.77 221.79" fill="#b49d76"/>
  <polygon points="246.05 205.83 223.16 229.15 218.77 233.97 217.53 231.55 221.06 227.1 243.55 204.52 246.05 205.83" fill="#c5af83"/>
  <path d="M310.8,579.09c-.38,5.64-6.56,8.07-10.64,6.41-4.72-1.92-7.18-7.31-4.19-11.67,2.21-3.23,5.73-4.93,8.75-4.1,4.1,1.13,6.43,4.07,6.08,9.36ZM307.35,574.63l-1.65-1.39c-1.56-1.31-5.7-.85-6.88.88-1.68,2.45-1.68,6.82.32,8.42,1.75,1.4,6.01,1.16,7.81-.21,2.24-1.7,2.35-6.05.39-7.7Z" fill="#af9b78"/>
  <path d="M486.24,576.38c-1.25,17.18,4.56,32.45,14.6,47.15-12.75-11.22-18.33-31.83-16.41-46.96l.45,8.69,1.35-8.88Z" fill="#ac9570"/>
  <path d="M741.75,550.29l4,5.7c4.79,7.16,8.11,14.35,9.64,22.21l-2.29.53c-3.25-9.83-8.8-18.82-14.78-27.3l3.43-1.15Z" fill="#9f7f56"/>
  <path d="M167.69,627.45l-1.39,1.12c-7.24-19.64-13.6-40.38-15.95-61.44,5.65,20.99,10.24,40.79,17.34,60.32Z" fill="#897963"/>
  <path d="M547.5,187.57l-2.19,3.25-16.75-2.25.87-1.46-13.08-1-11.88-.34,3.14-.87c1.44-.23,3.06-.56,3.89-.98l1.82-.92c.06.57,2,1.95,2.99,1.92,10.86-.41,21.32.23,31.18,2.65Z" fill="#cbb17d"/>
  <path d="M539.68,104.83l.79,3.04c.19.73.33,2.37.1,3.08l-2.66,2.23-.78-6.35-1.55,5.1c0-1.96-.05-5.31-.93-7.39-.97-2.27-6.59-2.3-7.98-.65l-3.13-3.44c1.17-1.21,3.5-2.4,5.76-2.68,5.74-.71,9.34,2.47,10.38,7.05Z" fill="#ab8b5d"/>
  <path d="M256.62,798.43l-.27-2.25c2.17,1.31,4.25,3.39,5.58,5.29l.47.51c1.07.46,2.92,1.46,4.09,2.48,15.27,13.4,31.94,23.68,48.27,35.76-19.5-10.36-36.48-23.86-53.23-37.24l-.54-.55-4.39-4.01Z" fill="#978368"/>
  <path d="M759.6,321.73l.81-1.17,4.85,8.5-5.03,1.56-7.06-6.85c-6.32-6.13-14.61-9.39-22.82-11.33l.81-1.96c11.22,1.72,19.81,8.85,28.84,16.06l-.4-4.82ZM761.76,326.69l-.02.65v.67l.02.65.02-.65v-.67l-.02-.65Z" fill="#a28e70"/>
  <path d="M791.74,641.89c-2.12-.05-1.49-.04.12-.02l.79.57c8.72,6.99,13.82,17.22,14,28.7l.11,6.59c.13,8.16-2.41,15.87-6.35,22.42l4.47-20.39c.58-2.67.04-5.83-.19-8.64-.89-10.65-4.41-20.52-12.63-27.56l-.31-1.67Z" fill="#897963"/>
  <polygon points="870.57 332.67 867.88 333.45 860.01 316.85 851.74 301.28 854.61 300.63 870.57 332.67" fill="#b8a27b"/>
  <path d="M562.96,493.73c-4.67,9.83-11.23,18.57-19.1,26.05l-1.57-2.63c7.02-7.16,13.43-15.63,17.88-24.62l2.78,1.2Z" fill="#b3966b"/>
  <path d="M557,343.34l-1.45,1.06-.9.09c-2.75-2.99-5.79-6.09-9.1-7.88l-3.42-3.76c-1.09-1-2.55-3.07-3.73-3.34l.14-.95-1.16-.72-1.91-1.18,2.99-2.02c5.14,3.18,10.16,6.95,13.9,12.18l4.65,6.5Z" fill="#be9e6b"/>
  <path d="M744.71,205.71l-1.34,1.29c-14.41-13.01-30.92-23.48-47.3-33.78l1.51-.72c16.41,9.89,32.47,20.9,47.13,33.22Z" fill="#978368"/>
  <path d="M636.53,465.63l-8.04-2.55c1.86-.58,3.46-2.26,4-4.62,7.11,4.53,15.79,4.8,24.04,3.42-5.87,4.71-14,5.65-20,3.75Z" fill="#9f7f56"/>
  <path d="M760.4,320.56l-.81,1.17-23.91-32.43c-1.14-1.59-4-2.82-5.51-2.66l4.17-1.74c9.75,10.93,18.72,22.8,26.05,35.66Z" fill="#c2b088"/>
  <path d="M489.54,483.32c-6.06,8.93-14.38,15.9-21.71,24.54l-4,4.71-1.41-1.36,5.3-6.49,11.97-13.12,6.71-7.71c.49-.57,2.46-1.06,3.14-.56Z" fill="#cbb98e"/>
  <path d="M854.43,689.51c-.39-.2-.36-2.15-.69-1.94l-1.81.8,14.33-28.97,3.72-1.12-10.11,21.78-5.44,9.45Z" fill="#c1aa7e"/>
  <path d="M474.01,340.94c-5.69,4.51-12.68,4.28-20.18,5.31-3.83.53-7.58,5.67-12.43,2.78l12.13-6.2c6.61-.21,13.13-.68,18.13-4.33l2.36,2.44Z" fill="#c0a573"/>
  <polygon points="233.33 745.19 235.3 744.2 241.58 751.4 249.74 760.37 266.16 777.33 264.67 778.48 248.68 762.35 238.64 751.35 233.33 745.19" fill="#b8a27b"/>
  <path d="M489.54,483.32c-.68-.51-2.65-.01-3.14.56,6.3-9.96,10.81-20.83,10.92-33.47l-1.53-15.65c5.92,14.09,3.38,34.37-6.25,48.56Z" fill="#9e896b"/>
  <path d="M734.01,796.69l.55,1.91c-24.71,20.15-53.27,37.58-83.19,48.56,29.76-15,57.67-29.48,82.65-50.47Z" fill="#9e896b"/>
  <path d="M735.11,603.49c.34,2.96.31,7.31-.12,10.57l-1.53,13.66-4.09,2.78,1.74-13,.71-11.87-.22-10.33.92,5.03c.11.6-.3,3.1.31,3.11l2.28.06Z" fill="#9f7f56"/>
  <path d="M477,723.6c-13.08,9.47-22.31,22-28.14,36.51.39-6.8,3.52-11.1,5.97-16.7,1.58-3.61,16.74-19.49,22.95-23.31l-.78,3.5Z" fill="#a28e70"/>
  <path d="M620.67,448.41c3.3,3.74,7.64,7.4,11.82,10.06-.54,2.35-2.14,4.03-4,4.62l8.04,2.55-4.35.26c2.22,3.17,5.19,6.61,8.42,8.38l-1.14,1.11c-3.36-1.42-6.89-7.44-9.42-10.24l-13.83-5.59.43-2.1c3.38,2.32,9.04,2.98,14.01,4.13-5.46-4.35-10.56-7.95-14.29-13.1l4.31-.08Z" fill="#b3966b"/>
  <path d="M166.84,309.27l-9.1,18.97-4.92,10.72-2.27-1.42,3-7.16,12.04-23.88c.64-.12,1.5,2.28,1.26,2.77Z" fill="#b8a27b"/>
  <path d="M743.9,487.69l2.38-.37c3.68,4.89,10.42,6.07,15.29,2.07,4.84-3.97,4.46-10.32.53-15.89,2.61-.39,4.04,1.18,4.64,3.42,1.93,7.2-.51,13.58-7.06,16.42-6.01,2.6-12.76.17-15.79-5.66Z" fill="#927857"/>
  <path d="M592.78,641.37l-1.81.7c-4.54-11.99-13.49-22.07-25.05-27.55l2-1.29c11.86,5.67,20.84,15.77,24.87,28.14Z" fill="#c5af83"/>
  <polygon points="809.62 755.22 798.64 767.67 784.26 782.69 781.99 781.35 786.21 777.43 792.06 771.07 806.1 755.36 809.62 755.22" fill="#c2b088"/>
  <polygon points="506.83 501.88 501.24 508.25 489.52 522.49 483.83 530.5 482.09 529.14 499.98 506.06 505.34 500.36 506.83 501.88" fill="#d6c092"/>
  <path d="M390.8,284.9c1.57,6.15,5.45,11.92,12.94,11.56,5.5-.27,11.64-2.88,17.18,1.42l-5.32.24-12,.64c-6.74.36-11.05-3.37-13.42-9.78l-1.64-3.24-.11-.95,2.37.13Z" fill="#c5af83"/>
  <path d="M476.9,280.99c-5.37,6.03-9.41,13.47-12.32,20.88-.34.4-1.13,1.36-1.69,1.31l-2.27-.2c3.56-9.21,8.12-18.34,14.77-25.37l1.51,3.38Z" fill="#be9e6b"/>
  <path d="M642.7,745.34l-1.64-.24,3.54-4.63c7.78-10.18,23.55-12.73,33.04-3.18-10.09-4.29-21.2-5.26-28.97,2.27l-5.97,5.79Z" fill="#b8a27b"/>
  <path d="M651.06,502.55c7.49,4.31,15.02,8.92,21.35,14.86l-1.27,2.45c-7.25-5.9-14.47-11.35-22.7-15.47l-1.15-.75-.9-.32-2.24-3.27c3.04.62,4.79,1.29,6.9,2.51Z" fill="#b3966b"/>
  <path d="M146.84,634.39l-2.5,1.22-8.69-27.09-.79-2.12c-.06-.2.05-.62.12-.88l1.32-3.22,10.53,32.09Z" fill="#927857"/>
  <path d="M404.53,613.45c.11-.05,2.43.04,2.16-.33l-.92-2.07c6.99,6.46,16.06,10.64,25.37,13.74,2.87.96,5.54,1.77,6.84,4.65-12.75-3.37-24.63-7.55-33.45-15.99Z" fill="#b8a27b"/>
  <path d="M746.28,487.32l-2.38.37c-2.46-4.73-2.3-9.7.99-14.18,3.04-4.14,7.8-5.78,13.27-4.81l.02,2.08c-3.13,1.25-4.92,2.35-7.48,4.26l-4.04.39c-1.37.13-3.18,5.67-.38,11.89Z" fill="#c2b088"/>
  <path d="M735.11,603.49l-2.28-.06c-.61-.01-.2-2.51-.31-3.11l-.92-5.03-5.78-24.57,1.79-1.28c2.89,7.75,5.48,16.22,6.46,24.94l1.03,9.11Z" fill="#c1aa7e"/>
  <path d="M782.7,727.58c-6.75,8.04-14.88,15.4-24.4,19.94l-1.33-2.52c8.96-4.25,16.96-11.16,23.21-18.67l2.52,1.24Z" fill="#ac9570"/>
  <path d="M548.62,463.17c3.16,11.06-10.26,37.55-19.5,42.06,9.6-13.81,17.91-25.3,19.5-42.06Z" fill="#978368"/>
  <path d="M420.29,320.69l-10.99.7,2.15-3.47-6.23-.76c7.64-1.33,11.31-3.38,17.21-9.07-1.39,3.94-3.51,7.27-5.83,10.42l11.22.42c-2.35,1.21-4.58,1.56-7.54,1.75Z" fill="#cab486"/>
  <path d="M507.35,229.82l-3,1.61,3.05.59-15.76,3.92c-2.15,8.17,1.38,14.96,6.97,20.91-11.92-5.1-7.68-19.16-10.34-19.24l-1.65-.05-.94-1.09c2.17-1.11,5.92-2.54,6.76-4.63.26.34,1.77,1,2.36.87l12.55-2.88Z" fill="#af9b78"/>
  <path d="M385.22,315.38l.67-2.97c5.43-1.83,11.21-2.73,17.65-3.51l-3.02,3.57,8.59-.38-18.82,6.66,6.5-6.28-11.57,2.9Z" fill="#c1aa7e"/>
  <polygon points="146.84 634.39 157.83 661.6 156.62 665.45 144.34 635.61 146.84 634.39" fill="#a18964"/>
  <path d="M483.83,530.5c-8.15,11.46-13.17,24.93-14.43,39.03-.23-.53-.96-2.51-.98-3.31-.27-9.59,7.38-28.96,13.67-37.08l1.74,1.36Z" fill="#c1aa7e"/>
  <path d="M433.56,221.78c-1.02,10.34,15.4,11.53,18.3,24.88-.57.2-.99,1.02-.96,1.33l-3.11-4.72c-6.64-11.09-18.6-9.92-16.13-23.13l1.89,1.64Z" fill="#c1aa7e"/>
  <path d="M340.16,466.97c-.09.08-.52.21-.65.26l-1.13,1.49c-3.66,1.9-11.38,2.48-15.65.87l6.13-.55-2.46-3.4c3.98,1.6,8.87,1.67,12.8-1.81l9.33-8.26c.21,2.06-1.01,4.37-2.78,6.05l-5.59,5.35Z" fill="#c2a978"/>
  <polygon points="268.94 185.34 262.13 191.19 254.11 198.23 246.05 205.83 243.55 204.52 253.86 194.91 261.39 188.44 267.38 183.53 268.94 185.34" fill="#ac9570"/>
  <path d="M437.55,539.68c-3.17,10.57.51,28.66,8.15,38.81-6.37-5-10.75-12.96-10.82-21.16l-.14-14.78,2.81-2.87Z" fill="#b8a27b"/>
  <polygon points="132.7 493.61 131.25 487.73 153.73 490.5 132.7 493.61" fill="#be9e6b"/>
  <path d="M631.5,517.17c11.89,4.15,24.53,10.09,31.7,20.53-11.53-8.3-21.19-16.25-33.96-18.81l2.26-1.71Z" fill="#c2b088"/>
  <path d="M741.22,625.3l7.72.78,7.33-.58-1.89,1.84-11.8.32c-9.74.27-17.52,11.49-18.69,10.63l-1.84-1.35,7.31-6.46,4.09-2.78c1.87-1.27,5.58-2.63,7.76-2.41Z" fill="#cbb98e"/>
  <path d="M722.66,273.86l-.4,1.92c-11.18-11.49-23.87-20.92-37.06-31.1,10.55,4.75,18.64,12.46,27.68,19.56l9.78,9.62Z" fill="#9e896b"/>
  <polygon points="844.31 658.69 830.01 687.13 824.45 696.57 822.91 695.18 843.12 656.95 844.31 658.69" fill="#af9b78"/>
  <path d="M314.58,459.46l3.25,2.14c2.28,1.57,5.66,2.87,8.58,4.05l2.46,3.4-6.13.55c-.24.02-.8.02-1.05-.06l-2-.92-.98-.16-.98-.92-1.19.16-3.01-3.07-3.19-4.24,4.24-.92Z" fill="#be9e6b"/>
  <polygon points="589.36 703.12 590.08 706.38 581.58 710.49 567.41 716.17 567.49 712.97 589.36 703.12" fill="#be9e6b"/>
  <polygon points="170.06 686.06 168.63 689.47 156.62 665.45 157.83 661.6 163.78 673.54 170.06 686.06" fill="#b49d76"/>
  <path d="M378.77,623.85c-5.67,8.13-8.96,19.23-7.36,28.92l-2.26,2.4c-2.21-12.09,1.27-23.29,8.52-33.17l1.1,1.85Z" fill="#cab486"/>
  <path d="M662.37,499.62l-6.01-.11-.99-.18-.16-1.15c.15.76-21.83-7.83-26.33-22.36l12.32,12c5.89,5.74,13.56,9.57,21.16,11.8Z" fill="#b8a27b"/>
  <polygon points="532.64 795.51 528.46 788.9 552.81 792.42 542.57 794.46 532.64 795.51" fill="#ab8b5d"/>
  <path d="M683.78,590.13c.05-16.88-6.45-31.85-15.34-47.02,12.08,12.15,16.99,29.91,15.34,47.02Z" fill="#897963"/>
  <path d="M411.57,566.54l1.22,5.03c.83,5.61,2.94,12.07,6.79,16.98,2.7,3.44,6.4,8.08,9.89,9.67l-1.02,1.31c-7.57-4.47-15.64-13.95-16.93-23.05l-.89-3.21-.02-8.9,1.5.31c-.14.39-.59,1.39-.54,1.85Z" fill="#b8a27b"/>
  <path d="M688.87,139.68l-.83,1.65c-14.95-8.14-30.97-14.2-46.73-21.46,16.85,4.79,32.09,11.81,47.56,19.81Z" fill="#897963"/>
  <path d="M534.51,366.46c-8.23-11.29-18.69-19.8-31.74-23.62,13.99.61,27.03,10.49,31.74,23.62Z" fill="#b8a27b"/>
  <polygon points="256.36 796.18 256.62 798.43 250.6 793.42 227.52 770.37 228.6 770.2 230.96 771.02 256.36 796.18" fill="#af9b78"/>
  <path d="M233.06,524.77l12.65,43.87c-7.03-14.78-12.29-30.37-15.06-46.13l2.41,2.26Z" fill="#897963"/>
  <path d="M385.48,329.21c-13.76,2.5-23.84,12.17-28.47,26.73-1.44-11.67,15.14-29.57,28.47-26.73Z" fill="#b8a27b"/>
  <path d="M602.47,674.01l-.3,2.51c-10.61,6.17-21.24,11.76-32.6,15.19l-1.15-1.48c11.93-3.94,22.8-10.48,34.05-16.21Z" fill="#af9b78"/>
  <path d="M783.24,661.35l.02,2.32c-12.28-8.72-26.69-9.56-38.22,1.75,6.62-12.96,26.08-13.22,38.19-4.07Z" fill="#a28e70"/>
  <path d="M440.48,674.89l1.93-2.19c-.22,4.19,2.4,7.78,6.71,7.72,3.51-.05,6.29-3.6,5.47-7.51-.7-3.36-4.47-5.32-7.91-4.65l-2.18-1.02c4.27-2.57,10.16-.59,11.71,3.91,1.84,5.33-.58,10.62-6.05,11.25-4.62.54-9.25-2.06-9.67-7.51Z" fill="#af9b78"/>
  <path d="M311.75,438.35l-2.38-.89,2.16-1.44c3.53-2.35,8.33-7.39,5.19-12.64l-9.12,1.18c2.33-3.64,6.54-4.97,10.4-2.87,2.54,1.38,3.1,5.71,1.92,9.07-1.46,4.13-4.2,7.39-8.17,7.59Z" fill="#d6c092"/>
  <path d="M512.52,973.97c-3.85.39-5.28-3.59-5.12-6.21.13-2.13,4.14-5.4,5.97-4.16,2.22,1.51,3.87,4.04,3.73,5.71s-2.73,4.47-4.58,4.66Z" fill="#a28e70"/>
  <path d="M420.56,235.4c-2.75,12.34,18.17,8.53,23.12,24.96l-9.03-8.87c-1.85-1.82-6.76-3.54-9.25-4.34-6.12-1.97-7.74-6.84-7.22-12.95l2.38,1.2Z" fill="#c1aa7e"/>
  <path d="M454.69,259.85c-1.43,1.95-3.14,4.2-4.92,6.18,1.4-4.94,2.02-8.4,1.59-13.09l-.45-4.95c-.03-.3.38-1.13.96-1.33.62,2.86.74,6.43.75,10.08v2.44c0,.59,1.35.64,2.08.67Z" fill="#a28e70"/>
  <path d="M485.68,236.47l.94,1.09-10.61,5.7c-3.79,1.93-6.89,4.77-8.01,8.26-.45-.59-1.41-1.88-1.78-1.56l-1.89,1.62-9.65,8.27c1.22-3.22,3.87-5.67,6.92-8.08l6.25-4.95,2.63-5.03.73.3c.1.2.73,1.5.72,1.47,0-.02,1.23-.68,1.51-.83l12.22-6.27Z" fill="#a28e70"/>
  <path d="M445.19,471.41c-2.05,10.74-5.59,22.32-14.14,30.82,4.47-10.13,9.72-19.25,11.61-29.65l1.06-1.49c.35-.42,1.26.05,1.47.32Z" fill="#cbb98e"/>
  <path d="M846.87,344.46l1.85.2c6.65,15.07,12.88,30.26,15.95,46.24-6.42-16.06-10.45-31.52-17.81-46.44Z" fill="#897963"/>
  <path d="M731.15,310.49l-.81,1.96c-16.18-3.81-22.2-.16-26.93-.89l-3.16-1.12,10.98-2.17c4.88-.97,9.26-.09,14.29,1l5.63,1.22Z" fill="#c2b088"/>
  <path d="M801.17,521.54l-1.98-1.28c10.01-7.55,24.77-9.72,36.2-3.02l-14.21-1.93c-4.22-.57-9.03.57-12.55,2.38l-7.46,3.85Z" fill="#a28e70"/>
  <path d="M294.68,254.22c-3.33.85-7.12,2.42-8.4,4.54-2.1,3.46-1.73,7.13.28,9.82,2.29,3.07,6.12,3.32,10.54,3.58-2.88,4.48-8.74,1.77-11.31-1-3.35-3.62-4.06-8.05-1.75-12.38,1.98-3.71,6.39-7.23,10.63-4.56Z" fill="#9a815e"/>
  <path d="M493.5,551.53c0,.34.03.66-.07.86l-1.81.46c-.24.06.75.53.9.61l-6.28,22.92-1.35,8.88-.45-8.69-.03-2.22.76-5.96c.87-6.82,4-13.22,7.13-19.19l1.19,2.33Z" fill="#cab486"/>
  <path d="M389.07,761.35l2.91.68c8.54,2.01,16.57,10.64,17.95,16.26l-2.6.06c-4.02-9.51-14.07-16.5-24-14.16-.14-.71-.63-1.53-.13-1.75l2.7-1.2,3.17.12Z" fill="#b8a27b"/>
  <path d="M513.69,72.8c2.17,2.53,3.98,4.69,3.92,6.59-.1,3.1-4.87,4.21-7.11,3.52-1.3-.4-2.65-3.28-2.31-4.43.4-1.34,2.03-3.57,3.01-4.89l.52-14.73c.27.17,1.68,1.73,1.69,2.26l.28,11.69ZM510.52,76.52c-.8,1.34-.31,3.99.54,4.69.75.62,2.79.47,3.3-.34.81-1.28,1.27-3.26.7-4.22-.48-.79-4.07-.94-4.54-.14Z" fill="#9a815e"/>
  <path d="M341.88,722.37l.87-1.26,1.28,4.12c9.71-4.74,23.51-.94,26.49,10.15-7.35-9.99-18.59-13.28-28.65-6.65v-6.36Z" fill="#9e896b"/>
  <path d="M567.91,613.24l-2,1.29-14.58-6.91c-6.17-2.92-11.99-5.54-17.04-10.26l15.78,7.44,13.32,5.83,4.52,2.6Z" fill="#a28e70"/>
  <polygon points="655.3 647.31 645.38 662.38 640.36 663.39 645.87 655.88 651.98 646.28 655.3 647.31" fill="#c0a573"/>
  <path d="M663.25,628.38c-1.96,6.41-4.27,13.32-7.96,18.93l-3.31-1.03,7.33-14.89.99-3.04.36-1.48c.83-.14,1.11-.17,1.37.1l1.22,1.42Z" fill="#b3966b"/>
  <path d="M247.69,593.07c-4.16,2.45-11.66-5.72-25.87-5.52-5.16.07-9.96,1.8-15.27,1.52,13.75-4.96,28.87-3.47,41.14,4Z" fill="#a28e70"/>
  <path d="M513.33,183l-1.82.92-.22-11.76c-2-1.68-3.49-4.62-2.77-7.39.4-1.51,3.88-3.4,5.24-2.81s3.5,3,3.87,4.47-1.99,3.9-3.78,5.12l-.53,11.43ZM515.54,166.96c0-1.59-1.29-2.88-2.88-2.88s-2.88,1.29-2.88,2.88,1.29,2.88,2.88,2.88,2.88-1.29,2.88-2.88Z" fill="#9e896b"/>
  <path d="M759.35,716.12l-2.19-.71c5.9-9.07,7.47-18.33,7.68-29.99,4.26,11.24-.34,21.62-5.49,30.7Z" fill="#9a8364"/>
  <path d="M338.67,139.84l-1.22-1.37c12.81-6.38,25.87-12.55,40.27-16.59l-39.05,17.97Z" fill="#897963"/>
  <path d="M412.92,790.45l3.64,14.85c1.35,5.51,5.52,9.4,9.2,14.65-5.77-3.35-10.34-9.21-11.95-16.01l-3.34-14.17,2.45.67Z" fill="#927857"/>
  <path d="M338.66,409.87c1.7-4.33,4.51-7.54,7.13-11.13,4.42-6.07,8.31-12.07,14.09-17.24-5.74,10.76-12.7,19.71-21.21,28.36Z" fill="#c2b088"/>
  <path d="M226.93,471.57c-.41-.55-1.18,1.69-1.18,2.15l.03,10.75-1.05-.98.44-27.63.9-12.61c3.27,3.1,1.02,7.49.99,11.54l-.13,16.78Z" fill="#927857"/>
  <path d="M475.3,642.08c-10.95-5.66-22.57-9.45-35.98-12.2,1.26-1.54,4.12-1.6,6.47-.82,10.15,3.34,20.7,5.1,29.51,13.02Z" fill="#a28e70"/>
  <circle cx="652.93" cy="438.22" r="4.55" fill="#ac9570"/>
  <path d="M530.64,686.94l-2-1.79c4.3-6.16,8.32-14.59,6.69-21.33l-.71-2.94c-.13-.52,1.16-1.21,1.62-1.43,3.16,9.74.11,19.47-5.6,27.5Z" fill="#a28e70"/>
  <path d="M344.09,310.42l.45,3.26.65,3.07c.93,1.87,1.72,5.03,1,6.69-.44,1.02-1.1,2.44-1.22,3.31l-3.73-13.03-.58-8.92.19-1.7,2.67-.04.57,7.34Z" fill="#be9e6b"/>
  <path d="M477.47,629.77l.05-2.43c8.83,4.23,17.38,9.14,24.17,16.91-2.6.44-3.54-1.19-5.43-2.67-5.92-4.62-12.17-9.02-18.79-11.81Z" fill="#9e896b"/>
  <path d="M462.27,753.43c-7.7,6.01-11.52,14.83-16.59,23.84.67-8.86,6.35-17.31,13.1-24.32l3.49.49Z" fill="#a28e70"/>
  <polygon points="180.11 657.51 178.43 658.25 170.7 640.51 166.3 628.57 167.69 627.45 180.11 657.51" fill="#978368"/>
  <path d="M204.99,291.64l-15.08,25.11-1.25-1.15c4.44-8.71,9.57-17.13,14.86-25.3l1.47,1.34Z" fill="#b8a27b"/>
  <path d="M784.26,782.69l-9.61,9-6.19,5.76c-.7.65-2.54,1.7-3.05,1.87l-.13-2.1,16.71-15.85,2.27,1.33Z" fill="#b8a27b"/>
  <path d="M501.99,877.3c.73.08,2.35.86,2.83,1.4.6.67.77,2.53.78,3.43l-19.41-2.6c5.01-2.1,11.85-2.67,15.81-2.23Z" fill="#be9e6b"/>
  <path d="M413.41,445.83c11.32,1.14,22.59,12.63,19.53,24.08-2.06-11.63-8.62-19.88-19.53-24.08Z" fill="#b8a27b"/>
  <path d="M498.34,789.14c.91,2.1.66,4.77-.35,7.02l-9.51-.72-4.87-1.21,9.26-.25-2.56-4.02,8.03-.82Z" fill="#be9e6b"/>
  <path d="M563.64,353.39l-1.41,2.25-8.85-6.54,2.17-4.69,1.45-1.06c2.06,2.87,5.61,6.77,6.64,10.05Z" fill="#ab8b5d"/>
  <path d="M551.33,344.68l1.13,1.15,2.19-1.35.9-.09-2.17,4.69c-5.86-4.33-13.33-5.76-20.94-8.01,6.13-1.45,13.69.3,18.89,3.6Z" fill="#b8a27b"/>
  <path d="M490.31,789.97l2.56,4.02-9.26.25-5.92-.05c-.56,0-1.89-1.11-2.23-1.56-.23-.3.41-1.19.78-1.23l2.26-.23,11.8-1.21Z" fill="#9f7f56"/>
  <path d="M692.55,421.64l-1.42.87c-8.01-2.26-14.17-8.46-19.79-14.55l.68-.86c-.85-.3,1.34.17,1.52.37,4.12,4.41,12.9,11.01,19.01,14.17Z" fill="#a28e70"/>
  <path d="M697.58,172.49l-1.51.72-35.79-19.45c9,2.98,17.03,7.43,25.32,11.88l9.07,4.87,2.91,1.97Z" fill="#897963"/>
  <path d="M523.69,876.96l.08,4.05-5.39,1.68,1.75,2.76,1.33,2.1c1.29,2.04-5.3-1.25-5.25-1.29l-2.13,1.66,2.52-5.23,1.3-7.36,5.8,1.63Z" fill="#e5c582"/>
  <path d="M528.59,327.34l9.81,2.18c1.19.26,2.64,2.33,3.73,3.34l3.42,3.76c-7.64-4.15-15.68-6.62-24.09-8.23l7.13-1.05Z" fill="#c5af83"/>
  <path d="M806.45,574.43c1.77,5.48,4.8,9.2,10.56,13.43-4.02.66-9.17.26-11.57,1.72l-1.52-1.35,7.3-3.25c-3.19-2.9-6.39-7.3-6.9-11.41l2.13.85Z" fill="#9a8364"/>
  <path d="M463.83,512.56l-7.36,11.67-5.36,13.95c-.18-10.64,5.23-19.53,11.31-26.99l1.41,1.36Z" fill="#af9b78"/>
  <polygon points="903.84 481.74 898.35 479.58 901.53 465.29 903.84 481.74" fill="#b3966b"/>
  <path d="M724.47,684.21c1.37,8.39,8.56,12.07,16.2,15.78-9.64.67-17.55-6.92-18.11-15.74l1.9-.04Z" fill="#b49d76"/>
  <path d="M658.05,485.62l1.46-1.41c8.9,4.28,17.85,10.02,22.97,19.43-7.79-7.57-15.19-13.56-24.43-18.02Z" fill="#9e896b"/>
  <path d="M520.83,480.67l-1.39-1.11c5.21-12.15,4.82-24.54,1.95-38.22,3.41,5.6,3.05,11.73,3.25,18.2.24,7.71-1.05,14.54-3.82,21.12Z" fill="#897963"/>
  <path d="M445.19,471.41c-.21-.27-1.12-.74-1.47-.32l-1.06,1.49c1.8-9.87,1-19.67-.91-30.15,4.25,6.64,4.8,21.81,3.44,28.97Z" fill="#978368"/>
  <path d="M528.59,327.34l-7.13,1.05-16.31,2.06-6.7,1.01c9.31-5,20.11-6.35,30.14-4.12Z" fill="#ac9570"/>
  <path d="M515.84,808.34l-1.21,9.29-2.05-1.48c-.38-.32-.94,1.13-1.03,1.62l-.49,2.62-1.63-4.34c-.88-2.33-.89-6.01-1.18-8.83l1.69,7.05,2.82-6.7c.24-.58,2.78.31,3.07.77Z" fill="#d1b984"/>
  <polygon points="192.29 681.49 190.43 682.35 178.43 658.25 180.11 657.51 188.56 674.55 192.29 681.49" fill="#af9b78"/>
  <path d="M717.48,835.46c-11.08,6.75-22.08,14.14-34.24,18.51l33.95-19.97.3,1.46Z" fill="#897963"/>
  <path d="M314.69,407.63c3.75-10.58,10.5-19.73,18.15-28.11l-18.15,28.11Z" fill="#cbb98e"/>
  <path d="M444.84,407.26l-2.57.28c2.77-7.98,2.11-15.97,2.69-25.21,2.66,7.39,2.31,17.52-.12,24.93Z" fill="#9a8364"/>
  <path d="M659.51,484.21l-1.46,1.41-14.52-7-4.08-3.24,1.14-1.11,7.1,3.9c4.35,1.78,8.54,3.64,11.83,6.04Z" fill="#c2b088"/>
  <path d="M812.36,554.59l-2.32-.91c7.25-8.15,18.38-10.67,25.92-4.34l-7.97-1.89c-5.69.26-12.07,3.07-15.63,7.14Z" fill="#9e896b"/>
  <path d="M624.76,745.29c-3,5.88-3.22,14.23-1.32,20.71l.8,2.72c.16.53-1.79.7-2.21.77l.41-2.35c.02-.36-.83-.71-1.26-.92-1.61-6.67-1.67-14.47,1.2-20.87l2.39-.07Z" fill="#a28e70"/>
  <path d="M284.84,203.1l-9.66,8.19c-3.6,3.05-6.42,6.09-10.64,9.09,2.14-5.62,6.26-8.17,10.42-11.48l7.57-6.02c.41-.32,2.25-.6,2.31.23Z" fill="#b8a27b"/>
  <path d="M656.19,605.34c-.78,8.83-3.73,18.13-9.69,25.64,2.26-9.58,6.68-16.99,8.05-25.54l1.65-.1Z" fill="#9e896b"/>
  <path d="M786.52,380.54l-1.46.13-9.13-25.15-.82,2.66c-.45-2.01-.39-3.17,1.37-5.82l10.04,28.18Z" fill="#9e896b"/>
  <path d="M607.44,514.45l7.87,1.08,3.11-.06v1.24s-18.77.07-18.77.07c-6.04.02-11.35,2.83-18.01,4.67,5.55-4.58,12.83-5.73,20.34-6.47l5.45-.54Z" fill="#a28e70"/>
  <path d="M734.56,798.6l-.55-1.91,20.28-17.05c-1.44,5.4-6.02,7.78-9.73,10.8l-10.01,8.16Z" fill="#af9b78"/>
  <path d="M812.36,554.59c-4.85,5.55-7.24,12.75-5.91,19.83l-2.13-.85c-.95-7.71.78-14.34,5.72-19.89l2.32.91Z" fill="#cbb98e"/>
  <path d="M803.91,588.23l1.52,1.35c-6.37,3.88-8.66,10.44-7.47,18.33-6.06-3.69-1-16.6,5.95-19.68Z" fill="#c2b088"/>
  <path d="M727.62,569.44l-1.79,1.28-11.51-24.47c6.33,6.76,10.25,14.98,13.3,23.19Z" fill="#9e896b"/>
  <path d="M379.91,672.23l-1.67,1.04c-4.65-5.39-7.86-11.4-9.09-18.1l2.26-2.4c1.15,6.97,3.22,14.85,8.5,19.46Z" fill="#b49d76"/>
  <path d="M520.83,480.67c-3.34,7.96-8.33,14.76-14,21.22l-1.49-1.52c5.81-6.18,10.81-13.13,14.1-20.8l1.39,1.11Z" fill="#af9b78"/>
  <path d="M516.56,232.8c-2.42,7.39.81,14.76,5.91,21.2-6.46-3.05-9.59-10.82-8.52-17.52l.64-4c.09-.57-1.64-.83-2.19-.91.52-.25,1.8-1.02,2.27-.6l1.88,1.84Z" fill="#af9b78"/>
  <path d="M398.36,664.33l1.41-1.31c4.58,7.82,12.61,11.46,22.09,13.86-9.68,1.21-18.53-4.76-23.5-12.55Z" fill="#af9b78"/>
  <path d="M445.12,713.39l1.61-1.16c5.55,6.57,9.9,14.87,8.46,23.14-2.44-8.11-4.73-15.94-10.07-21.98Z" fill="#a28e70"/>
  <path d="M884.88,488.42c.37.71,1.26,1.46,1.12,1.85l-1.05,2.32-8.91-.72-6.97-1.17c2.63-.91,4.2-1.35,5.82-1.48l9.99-.8Z" fill="#b3966b"/>
  <polygon points="162.12 380.77 153.58 410.69 152.47 409.98 159.89 382.64 161.56 378.4 162.12 380.77" fill="#897963"/>
  <path d="M559.71,628.02c4.78,6.15,8.01,13.28,8.66,21.4l-1.95-.09c-.84-7.52-4.05-15.12-9-20.93l2.29-.38Z" fill="#a28e70"/>
  <path d="M510.39,45.39c2.96-1.28,6.21,0,6.9,2.18.9,2.85.29,5.91-2.68,7.05-1.83.7-5.07-.02-6.34-1.8-1.51-2.13-.95-6.1,2.12-7.43ZM512.09,53.73c1.34.71,3.84-2.69,3.58-4.19-.22-1.31-2.48-3.93-3.66-3.38-1.28.59-2.93,3.06-2.71,4.2.18.95,1.66,2.77,2.79,3.36Z" fill="#9e896b"/>
  <path d="M616.64,457.47l-.43,2.1c-6.7-2.71-13.49-7.1-16.47-13.7l16.9,11.59Z" fill="#c1aa7e"/>
  <path d="M469.39,569.53c-.25,8.79,1.12,17.61,2.95,27.01-4.39-8.73-5.03-19.09-4.81-28.98.14-.25.89-1.27.88-1.33.02.8.75,2.78.98,3.31Z" fill="#897963"/>
  <polygon points="761.54 220.69 760.05 222.07 743.37 207 744.71 205.71 752.12 211.95 761.54 220.69" fill="#af9b78"/>
  <path d="M392.31,349.44c-6.61-1.65-12.79.69-19.82,3.9,2.07-6.33,15.55-9.22,19.82-3.9Z" fill="#cbb98e"/>
  <path d="M590.97,642.08l1.81-.7c2.77,7.65,3.02,20.77-1.18,27.15l1.46-12.61c.43-3.71-.71-10.17-2.1-13.83Z" fill="#9e896b"/>
  <polygon points="233.06 524.77 230.65 522.51 227.67 505.53 229.48 502.52 233.06 524.77" fill="#b8a27b"/>
  <path d="M554.34,363.95c-6.57-6.9-12.26-12.36-19.84-16.32,8.53,2.09,17.33,7.88,19.84,16.32Z" fill="#b49d76"/>
  <path d="M317.82,461.6l-3.25-2.14c7.35-1.59,13.98-4.35,21.17-7.76-2.45,3.14-6.14,5.52-9.97,6.88l-7.95,3.02Z" fill="#c2b088"/>
  <polygon points="248.99 236.04 247.48 234.64 262.74 219.34 264.38 220.51 248.99 236.04" fill="#b8a27b"/>
  <path d="M412.11,564.69l-1.5-.31c-.02-8.28,3.64-17.08,10.06-23.06-4.13,7.91-7.78,15.18-8.56,23.37Z" fill="#a28e70"/>
  <path d="M523.76,881.01l-.08-4.05,9.95,1.01c1.77.18,3.73.83,5.14,1.61l-8.74,1.29-6.27.13Z" fill="#be9e6b"/>
  <path d="M463.17,326.04c4.34-7.51,12.15-10.2,19.61-11.95l-19.61,11.95Z" fill="#c2b088"/>
  <path d="M446.73,712.24l-1.61,1.16c-4.04-4.58-9.05-9.36-14.53-11.99l.14-2.3c6.09,3.21,11.41,7.7,16,13.14Z" fill="#cab486"/>
  <path d="M428.45,599.54l1.02-1.31,24.13,11.05c-8.99-.81-17.36-5.14-25.15-9.74Z" fill="#a28e70"/>
  <path d="M227.88,489.31l-1.25,1.87c-.39.58,1.52,1.56,1.9,1.36l.19,2.99-2.35-.24-.58-10.83-.03-10.75c0-.46.77-2.71,1.18-2.15l.95,17.74Z" fill="#c2b088"/>
  <polygon points="508.53 110.58 507.18 114.09 504.43 111.75 500.22 104.95 504.51 103.04 508.53 110.58" fill="#cbb17d"/>
  <path d="M407.63,430.79c-.09-.44-1.85-1.32-2.39-1.21l3.84-1.5c6.28-2.26,11.23-6.18,16.81-10.44-3.94,6.89-11.09,11.59-18.26,13.15Z" fill="#af9b78"/>
  <path d="M430.73,699.1l-.14,2.3-23.1-11.07c8.43,2.08,16.15,5.02,23.24,8.77Z" fill="#a28e70"/>
  <polygon points="568.43 690.23 569.57 691.71 543.11 699.7 542.46 698.8 568.43 690.23" fill="#978368"/>
  <path d="M514.64,817.63l-.81,9.7-3.53-2.05-.86-9.23,1.63,4.34.49-2.62c.09-.49.65-1.94,1.03-1.62l2.05,1.48Z" fill="#be9e6b"/>
  <path d="M503.75,781.28l-3.28,3.06-8.83-12.23c5.2,3.18,8.61,5.99,12.11,9.18Z" fill="#ab8b5d"/>
  <path d="M639.7,758.6l-1.06-2.43c7.53-3.71,15.89-4.92,23.76-3.39-8.15.76-16.16,1.78-22.7,5.82Z" fill="#b8a27b"/>
  <path d="M604.89,487.46l-.59,1.47c-7.11-3.9-14.45-8.98-19.18-16.32,6.85,5.34,12.79,10.89,19.77,14.85Z" fill="#9a8364"/>
  <path d="M520.68,803.82l2.88-2.83,9.2,12.17c-4.36-2.59-8.91-7.23-12.08-9.34Z" fill="#c2a978"/>
  <path d="M519.2,373.35l-2.12-3.22c-3.58-5.44-7.57-9.46-13.67-13.31,7.51,1.84,14.69,7.28,15.79,16.53Z" fill="#af9b78"/>
  <path d="M385.93,380.17c3.63-1.25,9.5-2.32,12.06-5.83l5.63-7.73c-1.23,8.21-8.61,15.58-17.69,13.56Z" fill="#b8a27b"/>
  <path d="M756.97,745.01l1.33,2.52-10.85,5.18c-.64-.58-.82-.73-.85-1.01l-.13-1.7,10.51-4.99Z" fill="#c1aa7e"/>
  <path d="M759.35,716.12c-2.34,4.34-5.47,8.41-8.85,12.18l-3.4-.07,10.06-12.82,2.19.71Z" fill="#b8a27b"/>
  <path d="M120.22,527.73c.97-.76,4.36.11,4.62,1.26.31,1.36-.17,4.43-1.29,5.37-1.05.89-4.19-.43-4.98-1.86-.66-1.19.22-3.66,1.65-4.78Z" fill="#9f7f56"/>
  <path d="M898.8,533.83c-.84-1.02-.85-4.67-.03-5.7.73-.91,4.19-.73,4.9.19.83,1.07,1.08,3.49.48,4.71-.68,1.36-4.38,1.97-5.34.8Z" fill="#9f7f56"/>
  <path d="M396.37,647.36c-.03,5.34.68,11.02,3.39,15.66l-1.41,1.31c-2.13-3.34-3.95-7.06-3.86-10.88l.17-7.15,1.7,1.06Z" fill="#d6c092"/>
  <path d="M390.64,432.4l3.09,1.41-22.36,6.58c5.75-4.27,12.46-6.67,19.27-7.99Z" fill="#af9b78"/>
  <path d="M378.79,297.69c.66.14,2.03.86,2.06,1.63.03.88-.07,2.65-.31,3.38l-2.66-1.28-5.34-1.56c1.85-3.07,3.34-5.57,7.3-7.14l-3.54,5.78,2.48-.81Z" fill="#b49d76"/>
  <path d="M513.43,665.32l-11.32-19.79c6.33,4.22,10.92,12.39,11.32,19.79Z" fill="#9e896b"/>
  <path d="M689.19,731.24c-.19-3.64,3.44-8.01,7.56-9.38,2.16-.72,3.33-1.74,4.23-3.31l1.61,4.59c-5.87-.72-8.6,2.69-13.4,8.1Z" fill="#af9b78"/>
  <path d="M642.7,745.34c-1.81,3.23-3.48,7.53-4.06,10.83l1.06,2.43-6.81,4.21-6.26,8.74c.21-6.8,7-9.32,9.73-14.29l4.7-12.17,1.64.24Z" fill="#9e896b"/>
  <path d="M526.67,103.9l-3.28,3.91-1.12.97-.1.77-3.83-1.76c1.36-2.73,3.08-5.12,5.2-7.32l3.13,3.44Z" fill="#c0a573"/>
  <path d="M599.35,315.32l1.31,1.18-13.07,4.19-3.22,3.89.73-7.11.55,3.05c4.67-3.41,9.04-4.29,13.71-5.21Z" fill="#af9b78"/>
  <path d="M540.57,110.96l-1.92,6.11c-.28.9-2.66,2.18-3.57,1.9-.73-.22-1.58-1.91-1.29-2.61l1.8-4.42,1.55-5.1.78,6.35,2.66-2.23Z" fill="#b49d76"/>
  <path d="M568.37,649.42c.59,7.4-.7,15.59-4.74,21.76,1.91-8.2,3.58-14.73,2.79-21.84l1.95.09Z" fill="#897963"/>
  <path d="M485.34,112.69l1.67.15c.37.06.51-1.57.66-1.9l1.58-3.38,2.9,10.18c.05.41-2.96,1.49-3.55.92-1.29-1.25-2.59-4.38-3.27-5.96Z" fill="#be9e6b"/>
  <path d="M898.86,455.94c-.69-.78-.86-3.43-.41-4.33s2.65-2.22,3.65-2c1.86.41,3.03,3.56,2.4,4.9-.82,1.77-4.45,2.77-5.64,1.43Z" fill="#9f7f56"/>
  <path d="M123.92,506.02l-1.36,11.6c-1.1-1.3-1.88-3.23-1.99-4.82l-.53-7.54,3.88.76Z" fill="#ab8b5d"/>
  <path d="M437.55,539.68l-2.81,2.87c-.07-7.81,3.9-15.93,8.53-21.91l-5.71,19.04Z" fill="#9e896b"/>
  <path d="M612.36,422.61l3.98-3.06,10.3,1.48c-4.1,3.23-9.54,3.12-14.28,1.57Z" fill="#ab8b5d"/>
  <path d="M405.24,429.57c.54-.1,2.3.78,2.39,1.21l-13.9,3.02-3.09-1.41,14.6-2.82Z" fill="#cbb98e"/>
  <path d="M854.42,486.91c1.14-.09,3.24,1.72,3.53,2.81.34,1.27-1.47,3.48-2.73,3.8-1.62.4-4.18-1.08-4.22-2.5-.04-1.6,1.78-3.97,3.42-4.11Z" fill="#cbb17d"/>
  <circle cx="121.88" cy="453.2" r="3.41" fill="#9f7f56"/>
  <path d="M515.28,140.98l.04,2.2-3.28-.78c-.74-.17-.97,2.48-1.49,2.9l-1.34-7.52,5.01-2.03,1.07,5.23Z" fill="#cbb17d"/>
  <path d="M378.77,623.85l-1.1-1.85,3.6-4.91,7.35-10.35c-1.47,7.34-6.21,11.88-9.85,17.11Z" fill="#af9b78"/>
  <path d="M444.84,407.26c-1.43,4.36-3.08,8.95-5.94,12.57l-2.43-1.12c2.59-2.94,4.54-7.52,5.8-11.16l2.57-.28Z" fill="#b8a27b"/>
  <path d="M434.4,326.4l-3.93,5.14-5.88,7.39c.62-5.88,3.83-10.35,7.94-13.26l1.87.73Z" fill="#c1aa7e"/>
  <path d="M519.46,316.76l-4.99.51-16.24,2.07c4.03-3.54,9.65-4.11,15.29-3.69l5.94,1.11Z" fill="#af9b78"/>
  <path d="M168.06,486.96c1.14-.03,3.46,1.31,3.78,2.37.36,1.23-1.53,3.86-2.78,4.17s-3.53-1.42-4.18-2.73c-.57-1.15,1.57-3.77,3.18-3.81Z" fill="#c2a978"/>
  <path d="M891.85,487.77l-1,5.8-5.91-.97,1.05-2.32c.15-.4-.75-1.14-1.12-1.85l6.98-.66Z" fill="#cbb17d"/>
  <path d="M785.06,380.67l1.46-.13c2.81,7.88,4.9,16.22,5.54,25.18l-7-25.04Z" fill="#85694b"/>
  <path d="M454.8,329.65c-1.87,5.15-7.74,11.28-13.05,13.21,4.36-4.33,7.69-8.48,11.04-13.27l2.02.07Z" fill="#af9b78"/>
  <path d="M517.43,873.93l-.46-1.41c3.18-3.71,6.69-6.92,11.53-9.64l-8.83,11.38-2.23-.33Z" fill="#b49d76"/>
  <path d="M514.69,867.45l-1.78-2.25c-.34-.54-2.15.87-2.73.98.52-4.23.7-7.8,2.48-13.01l2.03,14.28Z" fill="#c0a573"/>
  <path d="M435.75,273.47l.82-1.94c8.45,10.8.92,19.98,1.4,16.11l.34-2.76c.46-3.76-.94-7.9-2.56-11.41Z" fill="#978368"/>
  <path d="M501.67,805.27c-3.42,3.06-6.53,5.77-11.28,8.24l9.11-11.33,2.17,3.09Z" fill="#ac9570"/>
  <path d="M539.57,234.52l1.11-.08c-3.15,6.51-2.65,12.39-.14,20.18-4.98-5.66-5.23-13.71-.97-20.09Z" fill="#9e896b"/>
  <path d="M446.68,668.26c1.04.72,2.16,3.67,1.52,3.81-2.64-.28-5.05-.44-5.78.63l-1.93,2.19c-.26-3.46,1.32-6.03,4.01-7.65l2.18,1.02Z" fill="#d6c092"/>
  <path d="M656.19,605.34l-1.65.1c1.26-7.83.66-15.51.21-24.16,1.36,5.04,2.64,10.42,2.16,15.95l-.72,8.11Z" fill="#85694b"/>
  <path d="M584.34,304.78l.36-.91,11.59-12.78c-.75,7.29-6.78,10.9-11.96,13.69Z" fill="#b8a27b"/>
  <path d="M513.83,827.33l-.54,9.31c-.02.34-1.48,1.89-1.52,1.55l-.23-2.02-1.25-10.89,3.53,2.05Z" fill="#9a815e"/>
  <polygon points="124.14 475.35 119.55 476.47 121.86 464.45 124.14 475.35" fill="#ab8b5d"/>
  <polygon points="904.31 501.64 903.43 507.64 900.63 508.29 898.84 504.48 898.35 498.34 899.49 502.26 904.31 501.64" fill="#c0a573"/>
  <path d="M396.37,647.36l-1.7-1.06-.17,7.15c-1.72-7.44,1.43-18.33,7.09-22.97-2.75,6.57-5.18,11.21-5.22,16.88Z" fill="#9e896b"/>
  <path d="M301.46,270.9l-.3-14.9c3.94,3.84,4.3,10.98.3,14.9Z" fill="#9e896b"/>
  <path d="M510.51,891.43l3.84-1.43c.37,3.68.8,7.17-3.32,10.24l-.52-8.81Z" fill="#cbb17d"/>
  <path d="M405.77,611.06l.92,2.07c.27.36-2.05.28-2.16.33l-5.07-4.85.34-1.15-2.92-.98c-.5-.17.36-2.02,1.03-2.66l7.86,7.26Z" fill="#cbb17d"/>
  <path d="M299.91,739.58c-6,5.2-16.45,5.34-19.3.52,6.84,3.23,13.28,2.76,18.34-2.27l.96,1.75Z" fill="#9e896b"/>
  <polygon points="125.03 500.7 123.92 506.02 120.05 505.26 118.63 499.78 125.03 500.7" fill="#cbb17d"/>
  <polygon points="903.43 507.64 901.2 518.19 898.84 504.48 900.63 508.29 903.43 507.64" fill="#9a815e"/>
  <path d="M409.93,778.29l2.99,12.16-2.45-.67c-.86-3.66-1.81-8.27-3.14-11.43l2.6-.06Z" fill="#a18964"/>
  <path d="M515.32,143.18v5.67c-1.92.1-4.56.3-4.6-.49l-.17-3.07c.52-.42.75-3.07,1.49-2.9l3.28.78Z" fill="#b3966b"/>
  <path d="M378.24,673.27l1.67-1.04,12.67,11.03c-5.31-1.73-10.51-5.57-14.34-10Z" fill="#978368"/>
  <path d="M527.48,779.2l-4.28-.05,10.24-8.49c-1.73,4.13-3.84,5.8-5.95,8.54Z" fill="#ac9570"/>
  <polygon points="272.31 544.21 269.15 539.95 272.74 536.41 276.46 540.04 272.31 544.21" fill="#cab486"/>
  <polygon points="632.97 204.34 629.97 200.19 632.93 196.08 636.92 200.32 632.97 204.34" fill="#cbb98e"/>
  <path d="M762.82,628.52l.7,1.82-9.13-2.99,1.89-1.84-7.33.58-7.72-.78.47-.94,15.56.21,1.58,1.83,1.32-4.33c.12,2.43,1.18,4.51,2.68,6.45Z" fill="#b49d76"/>
  <path d="M468.1,281.23c-4.78,2.1-11.47,1.92-16.74-2.07l16.74,2.07Z" fill="#a28e70"/>
  <path d="M631.5,517.17l-2.26,1.71-10.82-2.17v-1.24c4.44-.08,8.94.25,13.08,1.7Z" fill="#af9b78"/>
  <polygon points="247.5 379.63 248.16 377.6 258.94 377.78 256.71 379.67 247.5 379.63" fill="#ac9570"/>
  <polygon points="228.72 495.54 229.48 502.52 227.67 505.53 226.37 495.3 228.72 495.54" fill="#cbb98e"/>
  <polygon points="274.43 787.27 267.13 780.06 268.62 778.9 274.8 784.71 274.43 787.27" fill="#b8a27b"/>
  <path d="M757.79,675.18l-11.53-2.47c3.41-2.51,8.5.1,11.83,2.07.17.1.63.59.77.73,2.02,2,6.16,5.5,5.64,10.02l-6.33-9.63-.38-.73Z" fill="#978368"/>
  <path d="M484.36,266.32c-4.86.29-8.61-.34-10.96-3.88l10.96,3.88Z" fill="#ac9570"/>
  <path d="M114.05,481.31l-1.12,2.34-5.47-7.06c3.23,1.34,5,2.92,6.59,4.72Z" fill="#b3966b"/>
  <path d="M439.71,326.02c-1.43,1.69-2.96,4.21-4.65,4.71l1.05-2.92c.16-.44-.07-1.08-.64-1.42.23-.36,1.18-1.74,1.78-1.57l2.46,1.2Z" fill="#c1aa7e"/>
  <path d="M510.47,579.43c-.18.26-.9-1.5-1.16-2l.78-13.02.38,15.02Z" fill="#b8a27b"/>
  <path d="M607.64,419.6l-2.44.06-1.25-1.16c-.44-.41.07-1.96.75-2.12,1.4.68,2.92,1.98,2.94,3.22Z" fill="#ab8b5d"/>
  <path d="M471.69,260.36c-2.15-.16-3.58-2.96-2.71-5.75l2.71,5.75Z" fill="#ac9570"/>
  <path d="M341.24,313.73c-.49-2.25-.83-6.64-.58-8.92l.58,8.92Z" fill="#ab8b5d"/>
  <path d="M525.53,231.72l-9.11-.63c2.51-.23,6.53-.22,9.11.63Z" fill="#af9b78"/>
  <path d="M566.45,356.54l-1.71,2.19-2.51-3.1,1.41-2.25c.41,1.01,2.01,2.86,2.81,3.15Z" fill="#ac9570"/>
  <path d="M615.31,515.53l-7.87-1.08,7.87,1.08Z" fill="#af9b78"/>
  <path d="M417.98,479.61l-.35-7.06c.83,1.88.67,4.89.35,7.06Z" fill="#cbb17d"/>
  <path d="M484.41,574.35l.76-5.96-.76,5.96Z" fill="#ac9570"/>
  <polygon points="268.2 676.23 267.29 678.36 265.48 677.42 266.07 675.4 268.2 676.23" fill="#a28e70"/>
  <path d="M309.76,411.68l-2.06,4.04v-2.69c0-.73,1.11-1.45,2.06-1.35Z" fill="#dec68a"/>
  <path d="M344.52,690.47l-3.01-3.16,2.57.16c.76.09.72,2.29.45,2.99Z" fill="#ab8b5d"/>
  <polygon points="884.97 618.36 883.18 620.57 882 619.37 882.13 618.18 884.97 618.36" fill="#a18964"/>
  <polygon points="189.84 317.72 188.13 319.82 186.59 319.6 187.64 317.61 189.84 317.72" fill="#b8a27b"/>
  <path d="M412.79,571.57l-1.22-5.03,1.22,5.03Z" fill="#a28e70"/>
  <path d="M402.57,511.45l-4.98,1.14,4.98-1.14Z" fill="#d1b984"/>
  <polygon points="883.18 620.57 883.76 621.64 880.89 622.3 882 619.37 883.18 620.57" fill="#85694b"/>
  <path d="M228.53,492.55c-.38.2-2.29-.78-1.9-1.36l1.25-1.87.65,3.24Z" fill="#cbb98e"/>
  <path d="M766.17,632.58l-1.94-2.23,2.56.07c.59.02-.05,1.32-.61,2.16Z" fill="#b49d76"/>
  <path d="M780.29,572.98l.64-3.67-.64,3.67Z" fill="#9a8364"/>
  <path d="M690.31,765.3l-4.1.91,4.1-.91Z" fill="#cbb98e"/>
  <path d="M512.39,578.53c-.15-.48-.99-1.22-.87-1.74l.87-2.39v4.13Z" fill="#b8a27b"/>
  <path d="M412.42,523.21l-3.01,1.99,3.01-1.99Z" fill="#c0a573"/>
  <path d="M529.48,257.77l-3.97-.03,2.39-1.06c.51-.13,1.59.64,1.58,1.09Z" fill="#c2a978"/>
  <path d="M458.64,393.14c-.11-.3,1.62.2,1.55.51l-.27,1.17c-.07.31-1.16-1.34-1.28-1.68Z" fill="#9a815e"/>
  <path d="M534.46,258.68l-2.97-.88,2.97.88Z" fill="#c2a978"/>
  <path d="M395.62,557.48l.9-3.15-.9,3.15Z" fill="#ac9570"/>
  <path d="M417.58,470.5l-.9-2.98.9,2.98Z" fill="#cbb17d"/>
  <path d="M540.47,107.87l-.79-3.04.79,3.04Z" fill="#b49d76"/>
  <path d="M426.67,820.72c-.11-.31,1.62.2,1.55.51l-.28,1.17c-.07.3-1.15-1.35-1.28-1.68Z" fill="#927857"/>
  <path d="M411.52,576.49c-.48-.31-.89-2.35-.89-3.21l.89,3.21Z" fill="#a28e70"/>
  <path d="M647.38,498.37l-3.03-.83,3.03.83Z" fill="#b3966b"/>
  <path d="M672.55,766.04l-3.19,1.39,3.19-1.39Z" fill="#a18964"/>
  <polygon points="189.91 316.75 189.84 317.72 187.64 317.61 188.67 315.61 189.91 316.75" fill="#978368"/>
  <path d="M741.31,752.28l-3.03,1.03,3.03-1.03Z" fill="#c1aa7e"/>
  <path d="M659.32,631.39l.99-3.04-.99,3.04Z" fill="#927857"/>
  <path d="M391.98,762.03l-2.91-.68,2.91.68Z" fill="#a18964"/>
  <path d="M539.41,259.78l-2.91-.96,2.91.96Z" fill="#c2a978"/>
  <path d="M742.33,754.39l-1.99,1.11,1.99-1.11Z" fill="#c1aa7e"/>
  <polygon points="265.48 677.42 264.49 677.2 264.98 675.07 266.07 675.4 265.48 677.42" fill="#b8a27b"/>
  <path d="M135.66,608.52l-.79-2.12.79,2.12Z" fill="#85694b"/>
  <path d="M493.42,552.39l-.9,1.06c-.15-.08-1.15-.55-.9-.61l1.81-.46Z" fill="#d6c092"/>
  <path d="M405.61,510.56l-2.01.87,2.01-.87Z" fill="#d1b984"/>
  <path d="M321.68,469.53l-2-.92,2,.92Z" fill="#c2a978"/>
  <path d="M338.38,468.72l1.13-1.49c.17.15-.77,1.3-1.13,1.49Z" fill="#cbb17d"/>
  <path d="M694.18,759.2l1.4-.03c-.24.1-.81,1-.78,1.01.02,0-.51-.81-.62-.98Z" fill="#cbb98e"/>
  <path d="M276.1,788.45l1.18-1.73-1.18,1.73Z" fill="#b8a27b"/>
  <path d="M648.45,504.39l-1.15-.75,1.15.75Z" fill="#c2a978"/>
  <path d="M387.65,288.34c.13-.64.67-1.74,1.02-1.61l-1.02,1.61Z" fill="#d1b984"/>
  <path d="M452.91,328.93l.49-1.35-.49,1.35Z" fill="#af9b78"/>
  <path d="M538.53,328.56l-1.16-.72,1.16.72Z" fill="#c5af83"/>
  <path d="M552.46,345.84l-1.13-1.15,1.13,1.15Z" fill="#ab8b5d"/>
  <path d="M469.76,475.65l.71-1.16-.71,1.16Z" fill="#9a815e"/>
  <path d="M416.57,458.61l-.97-1.33.97,1.33Z" fill="#d1b984"/>
  <path d="M522.27,108.77l1.12-.97-1.12.97Z" fill="#dec68a"/>
  <path d="M344.73,614.25l-1.26-.69,1.26.69Z" fill="#c0a573"/>
  <path d="M399.46,608.6l.34-1.15-.34,1.15Z" fill="#b8a27b"/>
  <path d="M316.53,467.69l-3.01-3.07,3.01,3.07Z" fill="#c2a978"/>
  <path d="M318.7,468.45l-.98-.92.98.92Z" fill="#c2a978"/>
  <path d="M537.01,318.64c-.33-.85-.66-2.61-.1-3.04l2.93-2.32-8.48-1.36c10.62.63,12.67-.88,19.05-9.48,0,8.37-6.49,14.38-13.4,16.2Z" fill="#be9e6b"/>
  <path d="M511.51,283.82l-2.42,3.08c-3.22-5.33-9.9-11.26-14.42-15.04l2.87-2.18c4.74,4.49,10.01,8.92,13.98,14.14Z" fill="#be9e6b"/>
  <path d="M602.5,386.57l-2.18,2.06-6.79-1.21c-8.95-.91-11.42-11.18-12.85-18.15-.93-4.52.8-6.58,4.38-9.21l5.26-3.86-.72-3.54.94-.87,4.19-2.08-2.42,4.17,1.99,12.1c-2.07-2.61-2.47-4.75-3.51-8.72-1.26.91-4.57,3.55-5.42,5.17-4.74,9.07-.8,20.81,9.21,24.03l7.92.1Z" fill="#9e896b"/>
  <path d="M638.74,316.92l-1.63-.84c-6.77,10.23-21.43,10.18-28.99,1.41l1.36-.8c2.6,2.18,7.13,5.63,10.84,5.81,7.66.35,14.21-4.51,18.22-9.89.28.56.9,1.77.73,2.4l-.53,1.91Z" fill="#a28e70"/>
  <path d="M471.23,242.09l-.73-.3.08-11.06c.04-6.23-3.01-11.64-7.68-15.36l-8.16-6.5,1.01-1.1c14.24,7.65,21.9,18.76,15.49,34.32Z" fill="#b8a27b"/>
  <path d="M498.91,212.67l-1.95,3.54c0-6.37-4.15-14.3-8.62-18.35l.97-1.28c5.62,3.78,8.42,9.63,9.61,16.1Z" fill="#ac9570"/>
  <path d="M518.52,187.71l5.1,5.93-1.13.44c-1.74-2.39-6.25-5.42-9.03-5.47.85-.67,3.62-1.03,5.06-.91Z" fill="#cbb17d"/>
  <path d="M389.78,242.64c.15.92-.61,2.32-1.41,2.97l-7.75,6.38,2.19,7.83-4.19-5.72-5.69,6.37c-1.05,1.18.48,4.69,1.59,7.09l-4.14-3.31-4.59,8.61,4.89,5.75-6.01-2.1-2.08-.85-3.07.95c.05-.56.03-.89.34-1.04l1.75-.86,2.14-1.04,3.91-10.58c-.49-.2-3.86-.56-5.26-.04l.64-2.19c1.55-.72,5-.56,6.75-.54l6.49-8.47-11.72,2.09,2.27-2.02c3.62-1.47,7.3-2.15,11.79-1.42l8.17-6.53,1.82-1.74,1.18.4Z" fill="#c5af83"/>
  <path d="M388.37,245.61c.79-.65,1.55-2.05,1.41-2.97l7.69-3.9-6.6-2.47,1.83-1.43c4.43,2.61,9.99,4.5,15.15,1.01-3.75-2.03-7.88-2.33-11.8-2.41l9.61-1.41,3.62,4.92-15.67,6c-.5,1.45-1.06,4.87-1.27,6.54l-3.96-3.89Z" fill="#af9b78"/>
  <path d="M359.7,288.69l.37.98-6.99,6.47-8.39,7.65c.03-.8.56-2.69,1.05-3.31,3.18-4,9.1-9.58,13.96-11.79Z" fill="#af9b78"/>
  <path d="M363.76,273.68l-2.14,1.04-1.75.86c-.31.15-.28.48-.34,1.04l-10.81,6.19c-.74.22-2.43-.88-2.19-1.6l1-3.01.41,2.49c4.71-3.76,10.01-6.63,15.82-7Z" fill="#ac9570"/>
  <polygon points="378.49 241.5 388.6 242.23 386.78 243.98 375.6 243.96 378.49 241.5" fill="#af9b78"/>
  <path d="M344.6,296.48c0,.93-.38,2.99-1.03,3.4-.64-.31-1.54-2.28-.89-2.56l1.93-.84Z" fill="#be9e6b"/>
  <path d="M545.2,414.59c.67.26-1.37.86-1.88,1.11l-18.83-.81,20.71-.3Z" fill="#b3966b"/>
  <polygon points="347.16 325.69 347.18 326.34 347.18 327.02 347.16 327.67 347.14 327.02 347.14 326.34 347.16 325.69" fill="#be9e6b"/>
  <path d="M600.49,477.03c-.12-.31,1.64.23,1.57.54l-.28,1.17c-.07.31-1.15-1.35-1.29-1.71Z" fill="#ac9570"/>
  <path d="M615.16,267.56l1.32,1.41c-4.69,2.13-9.97,3.71-15.43,2.12l-5.53-1.39-.64-2.64c7.35,2.92,13.08,3.3,20.28.5Z" fill="#c1aa7e"/>
  <path d="M529.4,260.97l-7.89-.24c2.12-.85,5.84-.85,7.89.24Z" fill="#c2a978"/>
  <path d="M590.54,351.79l-.94.87-14.32-1.02,1.15-3.05,4.01.87c3.8.22,7.14.77,10.11,2.33Z" fill="#af9b78"/>
  <path d="M597.61,339.84l-.32,1.52c-4.82-1.46-12.28-.28-16.8,2.27-.18-.42-.18-1.58-.04-2.02.76-.06,3.95-1.71,5.23-1.74l11.92-.02Z" fill="#af9b78"/>
  <path d="M528.74,212.96l-2.57-.22c1.28-6.26.16-13.39-3.68-18.66l1.13-.44c4.97,5.35,6.71,13.44,5.12,19.31Z" fill="#9f7f56"/>
  <polygon points="510 774.24 510.5 774.74 510 775.24 509.42 774.74 510 774.24" fill="#f2d992"/>
  <path d="M600.67,340.64c3,10.29,12.28,16.63,23.9,15.16-10.65,5.46-21.96-1.86-25.48-12.67l-.67-.48-.11-.99,2.35-1.02Z" fill="#ac9570"/>
  <path d="M305.7,573.25l1.65,1.39c-.2,2.62-.39,6.69-5.02,6.91-1.82.08-3.98-3.57-3.32-5.19,1.14-2.82,4.02-3.36,6.68-3.11Z" fill="#b3966b"/>
  <path d="M494.81,232.7c-.59.14-2.1-.53-2.36-.87,2.13-5.29,3.49-10.27,4.51-15.62l1.95-3.54c1.1,5.96-.96,12.49-4.02,18.4l-.09,1.63Z" fill="#cbb98e"/>
  <path d="M345.18,316.75l-.65-3.07,3.74-4.46c3.37-4.68,7.89-8.29,12.5-11.43l1.74-5.24.33,4.29c.07.79,2.79,1.46,2.51,1.36l-2.3,6.51-1.82-5.05c-6.26,4.43-10.46,9.37-14.45,15.32l-1.61,1.78Z" fill="#af9b78"/>
  <path d="M616.48,268.97l-1.32-1.41c4.56-1.77,7.74-5.51,10.72-10.39,1.34,6.23-5,9.8-9.4,11.8Z" fill="#9a815e"/>
  <path d="M599.09,343.14l-1.27,1.44c-.2.23-.68-1.26-.41-1.4l1.02-.53.67.48Z" fill="#927857"/>
  <path d="M363.02,283.89c-.54,2.18.2,6.52-.51,8.65l-1.74,5.24-.71-8.12-.37-.98,1.69-5.05,1.63.25Z" fill="#927857"/>
  <polygon points="364.68 276.52 363.02 283.89 361.39 283.64 362.6 275.66 364.68 276.52" fill="#ac9570"/>
</svg>
