<svg xmlns="http://www.w3.org/2000/svg" viewBox="0 0 1024 1024">
  <path d="M577.41,559.26l-2.84,6.63c-.53,1.23.92,4.63,1.51,5.05-1.37.55-3.97,2.08-4.75,3.35-1.63,2.67-2.56,6.05-.88,8.51,1.21,1.78,3.69,3.29,5.96,4.34-4.15,1.3-6.96-.9-9.03-5.79-2.66,1.71-4.6,4.9-4.98,7.84-.41,3.2,1.17,7.43,4.49,8.81,2.84,1.18,7.48.15,10.77-.78-.5,4-.5,8.2,1.86,11.54,1.45,2.05,5.28,3.18,8.96,4.48-2.81.14-5.73-.07-9.67-.65-1.04,3.04-.67,8.45,2.64,11.2,3.02,2.51,7.17,1.98,12.22,2.02-2.97,1.39-6.41,1.71-9.98,1.71l-.78,5.03-.74-5.93c-5.31-2.15-6.8-7.73-5.38-13.19-5.22,1.13-8.39,1.13-13.94-.01-2.3,5.48-.14,13.11,5.08,15.17,3.51,1.39,6.73.32,11.39-1.1-1.52,2.86-4.84,3.86-9.62,4.06.67,2.96,2.89,7.47,5.29,8.99,3.8,2.42,6.94,1.3,11.81,1.17-2.49,1.98-4.42,2.42-8.85,3.19,1.42,2.61,3.82,5.21,6.99,8.01-4.22,1.39-8.45-2.84-7.33-7.93-5.85-2.28-9.33-6.79-9.24-13.3l-4.51-1.94c-3.16,2.34-6.54,3.47-10.22,4.07-1.12,4.48,2.19,9.99,5.87,12.16,4.79,2.82,9.47,1.02,15.16-.55-2.42,2.87-6.38,3.88-10.13,4.32.18,3.69,3.66,8.07,7.08,9.11,4.33,1.31,7.1-.8,12.03-2.55-1.77,2.47-4.18,3.91-7.41,5.35.66,4.57,5.19,7.73,10.28,8.08-2.24,1.58-4.75,1.84-7.22.29-1.71-1.07-3.41-3.62-4.45-5.68-2.45,3.8-5.55,6.04-10.19,7.83,3.48,6.23,9.73,7.47,16.72,4.12l-4.58,4.7,10.59,5.1c-.92,1.38-5.36,1.64-7.25.27-1.4-1.02-2.96-3.66-4.13-5.77-4.92-.1-9.83-1.74-12.48-6.23-2.35,6.2-7.84,10.64-13.43,9.53s-9.36-5.91-8.08-10.73c2.26,4.11,4.76,8.3,9.44,8.24,5.32-.07,9.62-5.06,10.18-9.64-5.23-1.07-8.49-4-9.75-8.67-2.75,5.44-7.24,8.5-12.37,8.25.05-.92,2.04-2.42,3.09-2.78,2.98-1.04,5.81-3.23,8.36-6.29-5.27-2.98-8.07-6.8-8.75-11.74l-7.72,3.54c-4.02,4.34-.92,10.21,1.92,13.07l.96,3.38-2.96-1.93c.76-.45,1.25-2.22.64-2.22l-2.59-.06-2.55-6.07-5.75,2.22c-1.85-1.55-4.97-4.81-5.31-6.93l-1.45-5.24,1.7-1.27,1.11,4.05c.65,2.36,2.37,6.04,5.46,6.13s7.43-4.64,6.37-6.95c-1.43-3.1-2.46-6.11-3.21-9.01l-8.73,2.7-.71-.36-3.15-6.11,1.16-1.43c.77,1.66,2.24,3.41,3.4,4.04,1.32.71,5.06.01,6.32-.79l2.97-1.9c.73-.47-.56-2.54-.73-3.62l.88-4.42c.36,1.75,2.57,6.04,4.47,6.61,4.22,1.28,8.03-.11,12.25-1.18-3.7,5.16-9.11,5.16-15.03,3.33-.83,2.13-.74,7.89,1.24,9.31,4.2,3.01,9.48-.25,10.47-4.96.23-1.1,1.86-3.54,2.53-4.21-.44,4.6-1.06,8.83-.35,12.82.41,2.32,4.34,6.27,6.53,6.24,4.4-.06,7.49-4.86,9.7-8.07,1.18,5.66-3.23,9.12-8.78,10.29,1.07,4.81,5.78,8.07,10.56,7.78,3.97-.24,7.89-3.83,9.91-7.52-6.72-1.12-10.27-5.89-10.37-12.27-8.27-1.18-12.73-7.65-11.79-16.03-6.32.17-9.64-6.66-8.94-10.33l1.49.72c1.06,2.59,3.38,6.18,6.67,7.22,3.71,1.17,9.02-.63,11.62-2.11l-3.63-11.47-2.93.4.66-1.13,4.81-4.68c-2.23-4.06-3.85-8.77-1.87-12.57l1.76-.21c-.77,3.07.78,8.82,3.25,10.86,3.54,2.93,9.27,3.05,12.74,1.31-1.32-4.12-1.76-7.62-1.96-12.36-4.15,1.96-10.55,2.44-12.72-1.59l-1.87-3.48c-.97-1.81-.38-5.96-.24-8.36-2.04-.2-4.84-.43-6.06-1.15l2.21-1.03c12.78.59,9.87-8.81,16.29-13.37-.11-3.63.78-7.52,2.4-11.09l1.26-.03c.22,0,.69.16.92.24Z" fill="#b6a283"/>
  <path d="M629.27,253.66l.06,1.11.06,1-1.01.96.06,1.09c-1.07.3-2.46.97-2.83,1.8-.3.67-.29,2.39-.24,3.12l.07,1.04c-2.64,1.35-4.43,6.59-3.41,8.89l.56,2.13h-1.65c-.37.05-.44,1.25-.48,1.82l-.75,10.23,1.64,13.87c.07.6.29,1.77.65,1.84l1.49.08-.17,1.09,1.01,1.96.04,1.06c.07,1.82.25,5.36,1.19,6.9-3.86,9.23-2.16,17.35.29,26.48l3.52,13.5c-8.5-5.26-15.91-12.53-21.33-20.78,6.28-6.21,7.69-16.87,3.75-26.32,2.22-4.85,2.35-10.28-.18-14.94-1.72-4.92-1.76-9.56.64-14.25l-1.16-8.23c-.7-4.97.27-7.16,2.19-11.59l4.39-10.12-5.32,3.48c.36-1.42,1.98-3.81,3.12-4.84l6.09-5.49,7.72,13.11Z" fill="#aa8550"/>
  <path d="M757.26,571.3l3.99-.85,2.19-.26.98,2.28c-11.53,3.39-23.56,2.91-36.29,3.17-10.98-1.37-21.28-4.63-31.23-8.31l-.71.77,18.48,18.09c18.15,21.7,28.99,48.25,30.77,76.15l-.22,8.82c-.01.48.82,2.67,1.03,2.13l-.02,7.07-1.23-2.98c-.23-.77-1.47-2.63-2.21-2.32s-1.4,1.56-1.5,2.37c-4.67,34.89-34.33,65.36-66.66,78.21l-2.33-1.73c25.87-12.17,44.86-26.96,58.12-53.51,11.3-22.62,13.15-47.52,4.47-70.99l-1.82-6.36-.93.95-1.24,1.39c-6.31-23.02-22.25-45.39-41.86-58.51.34-1.23.7-3.25.69-3.22l5.93,2.01-3.28-4.52c16.37,7.91,34.08,12.39,52.81,11.02l12.08-.88ZM695.82,566.96l-1.23-.08,1.23.08ZM732.75,622.64l-1.56-2.74.43,3.43,1.13-.69Z" fill="#bea378"/>
  <path d="M348.05,602.81c-10.47,11.79-17.77,25.11-22.98,39.91-9.77,26.77-6.29,55.39,8.8,78.85l.73-1.23c-1.89-7.25-4.71-14.47-4.71-22.01v-21.05c1.25-16.3,7.11-31.56,15.47-45.25l1.58,2.89c-10.34,18.68-15.96,39.62-13.79,60.92,1.84,18.02,7.34,35.48,18.79,49.05l12.12,14.35-1.87,1.42c-11.49-9.73-21.29-21.79-30.17-34.64-9.25-13.4-14.11-27.96-15.93-44.13-3.34-29.64,10.48-58.46,29.36-81.07l2.6,2ZM335.33,721.36l-.09,1.55.09-1.55Z" fill="#a18662"/>
  <path d="M375.52,835.81l.17,3.49-3.97,1.14-3.09.86-4.96.96-2.99,1.02c-30.9,4.47-62.93-5.3-85.05-27.66-17.91-19.67-17.99-47.54,2.87-62.97,4.37-3.23,11.27-5.37,17.26-6.14,12.31-1.6,24.3,4.64,30.51,15,4.93,8.23,4.99,19-1.29,25.68-5.01,5.33-13.05,5.7-17.87.62-2.37-2.5-2.16-7.83.97-9.93-.21,2.76-.43,6,.69,7.84,1,1.65,4.77,2.83,6.67,2.6,9.36-1.1,13.55-12.35,9.59-21.68-5.6-13.18-20.99-19.41-35.03-14.97s-23.54,17.04-23.9,32.01c-.31,12.89,6.57,25.02,16.51,33.8,25.12,22.2,61.78,29.52,92.9,18.32Z" fill="#a18662"/>
  <path d="M608.02,332.86c-14.96-22.78-15.61-51.88-1.11-75.61,1.46-2.39,3.48-5.09,5.42-6.37l5.32-3.48-4.39,10.12c-1.92,4.43-2.89,6.62-2.19,11.59l1.16,8.23c-2.4,4.7-2.35,9.33-.64,14.25,2.53,4.66,2.41,10.09.18,14.94,3.94,9.45,2.52,20.11-3.75,26.32Z" fill="#9b7645"/>
  <path d="M379.56,347.52c1.59-1.64,3.01-4.83,2.88-6.95,9.99-10.47,23.31-14.99,38.14-16.21l8.98-.74,19.33-2.99-3.85-2.64.29-.74c4.56,1.94,9.35,2.1,13.56-1.45.56.32,1.83,1.51,1.6,2.19-.17.51-.9,2.11-1.26,2.6l-11.74,15.93c-5.1,6.92-9.25,13.75-15.48,19.62-13.69,12.9-29.31,18.44-47.58,10.89l21.13-.71c9.03-.3,16.93-6.24,23.57-12.22,6.14-5.53,10.59-12.69,15.32-19.5l7.1-10.21c-10.45,4.04-18.35,7.3-28.01,9.29s-16.78,6.89-22.07,14.95c-5.94,9.04-15.43,16.6-27.03,14.6,10.72-2.01,19.24-8.15,25.42-17.31,4.78-7.09,11.28-11.96,19.59-14.36l15.37-4.45-13.04.83c-14.03.89-25.9,5.16-36.31,14.61l-5.93,4.98Z" fill="#bea378"/>
  <path d="M286.65,464.43v3.21c0,1.56,2.47,3.96,3.49,4.87l5.51-8.07,1.03-1.51c.3-.44-.38-1.59-.91-1.54l-3.05.31,3.08-3.33,2.85,7.39c-3.54,2.98-6.2,8.76-2.41,13.52,2.17,2.73,6.77,2.25,9.73.61l4.94-2.58.77,2.29-4.14,3.76c2.29,1.18,5.88,2.52,7.85,2.03,6.48-1.64,10.22-6.82,12.61-12.56,1.24-2.99,3.37-5.35,5.25-7.33l1.58,3.14c-4.18,4.27-4.12,9.42-9.63,15.09-6.32,6.51-13.49,6.17-20.89,2.24-2.78-1.48-8.73-.68-10.71-4.27-1.98-3.6-4.16-6.16-7.63-8.58s-4.28-8.03-2.79-12.3c5.68-16.27,11.76-31.94,14.4-49.23l-.05-13.04c-.02-4.88-2.14-10.88-.41-15.52l8.77-23.43c.83-.78,2.08-2.16,2.59-3.06l4.33-7.64c2.77-4.9,5.55-8.9,11.59-11.46-.91,2.34-2.2,4.12-3.91,6.06-7.61,8.65-11.51,19.42-16.01,29.89-3.51,8.17-3.88,15.34-2.94,24.38l.82,7.9-.64,6.92c-3.14,15.55-7.44,30.05-13.25,44.66-.92,2.32-1.82,5.37-1.81,7.18Z" fill="#a38862"/>
  <path d="M673.04,537.97l-2.73,2.48-1.54.92c-.52.31-.49,2.33.13,2.4l3.85.39-6.59,1.22-1.44,3.01c-.39.82,1.65,1.5,2.45,1.08l5.45,1.61,19.75,10.08,3.28,4.52-5.93-2.01s-.35,1.99-.69,3.22l-9.7-6.49c-3.72-2.49-8.04-4.55-11.89-6.05-.04-.76-.82-1.96-1.56-1.94l-2.56.07c-.26,0-.71.02-.97-.06l-1.96-1.05-1.14.18c-7.97-5.65-24.19-6.7-35.83-5.95-2.26.15-4.63-.49-5.76-1.94,12.15-3.62,17.44,1.49,22.56.04.88-.25,2.29-1.61,2.8-2.38l6.1-9.34c3.97-6.08,7.35-5.29,7.36-7.07l.02-3.41c.39.05,1.4-.19,1.58-.67l.29-1.45,1.23.29c1.42-2,2.94-4.84,2.86-7.07l.98.1,3.7,1.75c.04,5.32-1.33,8.85-4.22,12.54l-1.15,1.47c-.19.25-.16,1.21.13,1.11l3.5-1.2c1.07,3.27-.33,6.14-4.07,8.84l3.44-.7,8.26,1.45Z" fill="#cfac72"/>
  <path d="M515.68,93.71l-1.21.8c-.27.22.2,1.38.55,1.39h1.38s.09.99.09.99l.98,2.99v1.05s1.05,3.95,1.05,3.95l.34,3.03c-1.37,1.8-1.38,5.64-.77,8.1l2.56,7.73-.19,2.17,1.09,3.89c.04.25-.2.86-.35,1.33l5.44,3.82-1.34,6.27c.8,2.46,4.66,5.91,7.06,6.48.82,3.21,2.18,5.54,5.18,6.65-4.77.83-9.48-.99-14.64-5.03-2.74,6.38-6.18,14-13.53,15.08l-9.13,1.34c-.41-1.77-.65-5.36-.48-7,9.02,1.42,13.76-3.75,16.14-10.67,1.77-5.13,1.4-8.25-.06-13.55-3.64-13.16-2.1-26.53-6.25-39.24-6.06,3.1-7.65,8.37-9.8,14.05l-1.49,2.63c-.21-4.3,1.49-8.05,4.18-12.12-6.51-1.44-4.85,8.9-9.75,6.25,3.98-2.65,4.2-12.19,11.98-15.86,1.77-.84,5.16-1.44,6.69-1.03,1.65.44,3.73,2.88,4.28,4.5Z" fill="#caaa74"/>
  <path d="M485.5,756.97l.98,2.11c-2.07.17-4.94,1.04-7.16,1.79,30.35.06,55.75,10.77,80.13,27.32,46.19,29.58,88.62,40.05,138.11,11-26.59,21.16-63.32,24.97-94.95,14.07l-26.26-10.98-37.55-22.28c-13.52-8.02-28.12-12.13-43.75-14.21l-20.53-.46,1.81-3.29c.52-.8,1.23-2.89,1.18-3.74l2.06-.06c.3.25,1.96,1.34,2.23.78l.79-1.66,2.91-.39Z" fill="#b89f78"/>
  <path d="M594.34,703.43l-.99-.14c-3.54,1.36-6.81,2.04-11.48.98,1.08,4.58-.27,7.78-3.07,13.75l9.78,1.41-2.51,1.78-4.37-.61-1.31,10.38c3.87,2.46,5.51,7.23,1.69,10.77.2-4.25-.76-7.71-2.99-10.52-4.02,3.87-9.33,5.04-12.81,1.14,5.44,1.59,11.22-.31,12.14-6.16.43-2.74-.39-7.01-1.28-8.97-3.69,1.3-6.1,1.34-7.83-.45,4.35-.54,7.66-1.56,9.64-4.61,1.64-2.53,1.74-7.17.32-10.18-3.81.19-7.22,0-12.17-.64,2.73,4.78.74,10.08-3.14,12.9s-8.55,2.59-12.92-1.54c-.89,4.51-2.36,8.7-5.86,11.15-3.74,2.62-9.3,1.99-11.77-1.43,2.53.39,6.82,1.28,8.75.66,5.28-1.72,6.79-7.83,7.09-11.76l-6.64,1.08c-5.28.86-7.83-3.33-9.55-6.76-5.44-.2-12.31-2.59-11.31-10.13,1.31,2.91,4.14,7.15,7.86,7.43,4.78.35,9.4-6.36,8.55-9.91-3.37-1.61-6.36-3.71-9.41-6.72-.78,3.28-4.1,7.86-8.17,7.54-5.48-.44-9.2-6.15-7.83-10.47l3.65,6.67c.76,1.4,5.43,1.87,6.8.89,2.71-1.93,4.94-6.24,5.49-9.1-4.78-1.25-6.81-3.04-9.39-7.23-1.55,3.73-4.59,6.64-8.06,5.13,5.5-2.62,8.69-7.95,8.01-13.1-2.63-.47-6.67-1.74-7.78-3.72-1.27-2.27-1.8-5.34-1.63-7.85l3.92,7.48c2.06,1.19,6.8.64,9.72-.25-1.26,2.99-2.2,5.83-2.19,9.06.01,4.38,4.76,10.26,8.91,7.48l7.07-4.74c-1,3.01-3.86,4.81-6.15,7.1-2.87,2.86,2.84,8.55,6.75,8.77,4.61.27,8.33-2.38,11.38-5.95.31,5.77-6.03,6.43-8.9,9.22-2.06,3.26-.68,9.39-6.29,11.32,2.16,4.4,6.04,6.63,10.62,5.53,3.62-.87,6.92-4.92,6.48-9.14-4.82-.59-8.62-3.74-9.62-7.45,3.41,2.52,6.84,4.98,10.35,4.91s6.35-2.88,9.49-5.51c-.26,4.9-5.79,6.21-8.33,8.5l-2.69,9.15c2.28,3.14,9.34,4.26,12.67,1.25,4.62-4.18,3.25-11.38.26-16.29,2.56,1.68,5.64,3.73,8.42,4.46,6.18,1.62,10.25-3.04,12.36-8.76.8,3.54-1.19,6.68-3.94,10.45,2.05,1.52,7.04,2.54,9.3.78,3.09-2.42,4.86-4.95,7.04-7.85l-2.13,8.82Z" fill="#ab987c"/>
  <path d="M418.6,120.04l-1.04,2.66c-30.89,7.67-60.73,18.44-89.04,33.96-25.82,14.16-49.8,29.65-71.25,49.61l-12.95,12.05-11.02,11.03-9.67,10.28-21.45,26.66-2.09-1.64,8.6-10.97,1.9-.51c.31-.13-.02-1.36-.14-1.66,51.08-63.46,122.59-110.45,202.59-130.11l5.57-1.37Z" fill="#ab9678"/>
  <path d="M667.03,699.06c.76.86,1.41,3.55,1.12,4.55-1,3.37-4.62,8.55-7.67,11.65l-9.94,10.07c-1.24,1.26-2.73,2.53-3.11,4.19l-9.88,4.94c-18.89,11.18-40.14,15.61-62.03,13.9l-12.06-.94-3.97-1.17h-1.02s-2.97-1.01-2.97-1.01l-2.16.23-1.99-2.02,4.12-.19,3,.03,2.94.97,1.16-.04,5.86,1.08,23.73-.4c14.25-1.19,27.5-5.05,39.91-11.97,25.83-14.42,38.34-44.32,25.36-71.61-1.31-1.67-2.61-3.27-2.93-5.44,6.51,4.79,8.58,12.58,10.18,20.21,2.38,11.4-.64,21.72-4.21,32.28,2.68-3.25,5.11-6.43,6.56-9.29Z" fill="#b99d73"/>
  <path d="M674.58,348.48l-8.32-.52,3.89,7.86,2.04,6.27c-10.57,1.7-27.89-1.2-36.92-7.21,4.1-7.66,3.04-13.18,6.63-21.13,1.16.16,3,.96,4.31,2.03,8.39,6.89,18.44,9.77,28.36,12.71Z" fill="#cfac72"/>
  <path d="M785.82,222.8l.91-2.99,8.93,9.51,9.18,9.96c47.25,54.33,78.57,120.54,89.99,191.5l-2.15.86c-.37.15-.95-1.34-1.02-1.77-10.41-69.61-46.46-144.98-94.85-195.58l-11-11.5Z" fill="#a28b70"/>
  <path d="M786.72,219.82l-.91,2.99c-34.76-34.56-74.93-61.62-120.13-81.28-30.01-12.65-60.87-20.95-93.07-25.83l.69-2.34c.15-.49,1.48.06,2.43.36,71.86,10.73,138.32,41.92,192.94,89.56l10.51,9.57,7.53,6.98Z" fill="#ab9678"/>
  <path d="M686.35,832.72l-.76-1.64c13.74-6.89,26.45-14.46,38.43-24.09,24.98-20.1,41.4-47.86,44.82-79.97l.19-26.54c.01-2.13-1.94-4.8.66-6.82l1.37,10.57-.14,23.96c-2.02,24.18-12.9,45.17-28.16,64.02,3.31-1.08,6.31-3.43,8.7-5.84l26.33-26.54c11.84-11.93,19.81-25.96,29.54-39.63-7.46,15.85-17.3,30.26-29.61,42.57l-23.93,23.94c-20.64,18.38-42.83,33.91-67.42,46.01Z" fill="#b29e82"/>
  <path d="M495.52,210.72l-4,.9c-2.37.13-4.36.31-6.66,1.35l17.73,3.74-27.76.46c-8.25.12-16.08,3.04-23.28,5.45l-2.03-2.97,18.89-5.31-1.4-2.59c-2.82-.24-7.86,1.32-10.51,2.32-2.94-.45-8.06-1.94-9.61,2.34-3.5-3.06-10.12,1.05-10.14.95l.7,3.36-4.33-2.74-9.55,3.77c1.33,2.32,1.85,3.57,1.68,4.23l-4.69-3.27-8.24,4.4,2.3,4.38-4.52-2.73c-.79-.48-2.8.43-3.59.95l-2.01-3.05,1.13.33.9-1.48c15.51-8.46,32.59-15.64,50.95-16.61l7.95-.42c4.62-.24,8.86-.79,13.35-.15l16.74,2.4Z" fill="#ccb386"/>
  <path d="M421.08,779.22c.44.58,2.06.36,2.05.79l.18,2.29-18.46,11.21-26.04,13.97c-22.72,10.56-54.36,16.4-75.62,4.3-9.61-5.47-17.66-14.89-16.92-26.31,3.07,7.73,5,14.2,11.19,19.08,20.83,16.43,50.16,11.65,74.31,1.71,12.64-5.2,23.8-12.46,35.59-19.2l13.71-7.83Z" fill="#a88e68"/>
  <path d="M348.58,267.55c-3.33,9.15-5.78,18.96-7.1,29.46l15.01-25.38,1.96,5.19.33.8-1.41.81c-2.67,1.54-7.91,9.51-5.45,12.41l-2.66.55-4.97,8.57,6.44,3.8-4.06-.18-3.65-.84-3.95,11.37c4.06,1.98,8.21,2.81,12.65,2.66l2.08,1.91c-6.09.37-10.26-.36-15.89-2.18l-3.79,11.54c5.76,2.93,10.62,2.84,17.28,2.12-5.53,4.16-11.17,3.06-17.31.3-1.73,3.82-2.57,8.12-2.3,12.14l-2.34.98c-2.18,2.88.66,7.91,4.71,8.55l6.78,1.08c-4.14,3.19-9.04.95-11.92-1.5-3.33-2.84-2.6-7.07-1.62-11.24,2.66-11.35,6.04-21.77,9.86-33.13,1.59-4.72.18-19.09,7.98-40.78l3.33,1Z" fill="#ad926c"/>
  <path d="M386.67,214.84l-.11-4.17c12.34-9.74,26.89-15.21,42.28-19.52-7.01-.43-13.24,1.35-19.7,3.3-4.41,1.33-9.45,2.75-13.22,5.37-1.7.33-4.35,1-6.19,1.9l-9.37,4.09.18-3.22c27.38-15.61,59.77-20.8,90.21-11.07l-27.87.73c-21.03,1.97-39.97,10.29-56.19,22.6Z" fill="#c2a87c"/>
  <path d="M508.11,789.89l.05,2.75c.02.34-2.04-.95-1.66-.35l-1.03.07-3.92-1.15h-1.04c.05-.42-.99-.92-1.5-.92s-1.55.5-1.51.97l-11.12-.46-9.92.48c-16.36.8-31.71,6.6-45.19,15.7l-30.32,20.49c-7.98,5.39-16.51,9.32-25.26,11.84l-.17-3.49c13.77-4.96,26.12-12.58,38.29-21.39,31.27-22.65,56.09-32.16,94.31-24.53Z" fill="#ad926c"/>
  <path d="M617.67,543.67c1.13,1.45,3.51,2.08,5.76,1.94,11.63-.75,27.86.29,35.83,5.95-8.19-2.38-16.67-4.64-25.61-4.6l-9.55.04c-9.52.04-19.28,1.42-28.11,4.82l-4.45,4.77-.07-1.11,1.95-3.27c-5.99,1.4-11.96,3.51-16,7.05-.23-.08-.7-.25-.92-.24l-1.26.03-17.08,10.75,3.13,2.05c-4.94.78-7.79,6.45-7.02,8l2.29,3.66-2.21,1.03c-1.57-.93-2.13-4.32-1.86-5.99l.78-4.81-11.63,9.92-5.32,4.82,1.84-3.04c.43-.71-.02-2.28-.74-3.07l9.28-8.84c19.99-17.51,45.04-28.23,70.98-29.86ZM554.12,572.92l-.65.02.65.02h.67l.65-.02-.65-.02h-.67Z" fill="#ccb386"/>
  <path d="M490.05,457.95l2.95-2.32c3.8,7.77,9.06,15,14.81,21.53,8.27,9.4,18.18,16.6,29.79,21.17,4.43,1.75,9.63,2.16,14.54,2.73s10.08-1.08,15.34-2.39c-.95,1.28-3.37,3.34-5.06,3.79-24.53,6.51-49.64-1.79-66.15-20.65-2.87-3.28-6.19-5.52-7.34-9.75l14.46,13.48c7.59,7.08,16.76,12.15,27.36,13.85-18.08-9.35-31.89-23.58-40.71-41.45Z" fill="#ccb386"/>
  <path d="M202.19,266.29c-37.05,49.17-57.85,104.97-70.65,166.13,5.98-60.79,33.7-119.28,68.55-167.78l2.09,1.64Z" fill="#a28b70"/>
  <path d="M336.54,249.22c-.5,5.89-5.55,8.45-7.49,15.26l8.89.69-10.83,3.09-4.36,12.73-4.47,13.59,10.89-3,.65.96-11.79,4.88-2.59,10.99c-.11.47,2.11,1.72,1.97.96l.05,2.27c-1.15.49-2.54,2.76-2.7,3.96l-1,7.47,12.72-4.59-.2,1.29-12.54,6.95.06,10.15,9.09-4.55c-2.6,4.19-7.89,5.05-12.18,11.59-3.66-30.89,6.66-71.53,23.38-96.33l2.46,1.63Z" fill="#a18662"/>
  <path d="M841.29,712.74c-12.11,19.27-25.29,37.02-40.62,54.02l-28.92,28.95c-22.67,20.69-47.1,38.49-74.47,51.8l-.76-1.67c27.92-13.81,52.56-32.45,75.77-53.62,26.24-23.94,48.28-51.06,66.95-81.2l2.05,1.71Z" fill="#b29e82"/>
  <polygon points="514.71 863.41 515.69 871.32 525.93 863.58 518.47 873.95 535.54 877.12 518.99 880.38 524.45 889.45 515.9 883.38 512.37 900.12 509.89 883 500.33 890.01 506.97 880.27 490.5 877.14 506.64 874.1 500.1 863.99 509.6 871.14 510.53 866.05 511.44 862.11 514.71 863.41" fill="#b09063"/>
  <path d="M745.45,687.45c-1.61,22.36-10.04,43.68-24.4,61.54l-14.01,14.08c-17.44,13.49-38.23,23.45-60.96,23.79,55.49-9.05,92.06-47.55,96.43-103.53l2.94,4.12Z" fill="#b89f78"/>
  <path d="M328.12,584.76l-.67-2.67c-.08-.53-1.17-.75-2.08-.86l1.34-1.77,3.21-1.83c5.69-3.48,10.56-8.99,16.07-13.04,21.02-15.43,47.09-20.31,75.26-47.48,1.73-1.67,2.14-5.49,6.28-4.15-11.58,15.5-27,26.45-44.02,35.33l-22.43,11.7c-12.42,6.48-23.84,14.72-32.96,24.77Z" fill="#b29770"/>
  <path d="M376.58,293.71l.14,1.03-.98,1.3-7.55,23.81c12.55-4.46,23.52-8.64,36.38-9.09,14.16-.49,28.36,1.2,40.76,6.5l-.29.74-25.03-3.92c-5.73-.97-11.42-.11-17.38.37-12.47,1-24.6,4.2-35.48,9.29l-2.81,18.89c-3.64-4.15-2.06-7.77-1.78-11.94.99-15.16,6.55-29.01,12.96-42.05l1.06,5.08Z" fill="#ad926c"/>
  <path d="M641.38,333.84c-.05,0,.22-.04.53-.1-3.59,7.95-2.54,13.47-6.63,21.13-1.05-.69-3.61-1.21-4.87-1.23h-1.05s-3.52-13.52-3.52-13.52c-2.45-9.13-4.15-17.25-.29-26.48l4.59,7.53,4.6,5.88,6.64,6.78Z" fill="#bb965e"/>
  <path d="M643.25,828.86l2.07,1.73-13.84,2.02c-16.32,2.38-42.37-3.98-57.93-11.58l-40.19-19.64-26.86-9.1c-.38-.6,1.68.7,1.66.35l-.05-2.75,7.19,1.43c10.95,3.16,20.91,7.95,30.99,13.02l28.59,14.39c18.12,9.12,38.17,13.48,58.39,11.24l9.97-1.1Z" fill="#b19a79"/>
  <path d="M554.34,584.53l-2.2.13c-1.31.24-4.65,8.19-.37,12.5.97.98,4.34,1.33,5.56.8,1.33-.58,3.01-2.31,3.3-3.92l1.87,3.48c-.39-.12-1.17,1.25-1.31,1.78l-1.76.21c-2.54.43-5.9.45-8.84.3-2.78,3.19-3.52,9.46-1.27,13.98,1.01,2.03,5.15,3.12,7.18,2.97l-.66,1.13-8.01,1.07c-1.65.22-3.97,3.31-3.72,4.88l-1.49-.72c.79-4.13-5.29-1.96-9.15-8.95-1.25.83-4.24,3.17-4.75,4.53-.84,2.28.99,6.45,2.8,7.42,2.12,1.13,4.73,1.29,8.22,1.94l-7.37,1.6c-.42.09-1.58,0-1.7.35l-.44,1.3-.88,4.42-1.12-7.37c-3.11,2.74-6.61,4.1-11.38,3.56-.25,1.51-.16,4.61.52,6.09l-1.16,1.43c-1.85-3.6.75-7.64-2.56-10.06l1.67-4.38c-.7,2.24,2.12,6.3,5.02,5.2l8.11-3.1-2.15-7.9c-.28-1.03-1.05-2.66-1.68-3.79,4.38.18,9.55-2.14,9.69-7.21-2.35-2.83-3.52-6.62-2.41-10.35l-.33-2.58,2.88-3.91.94,2.67c.24.52,2.49.55,3.05.35l8.45-3.12,3.85-8.33,1.72-4.4c-.27,1.66.29,5.06,1.86,5.99ZM535.45,604.61c6.27,3.02,11.93-1.67,14.02-6.62l-2.77-4.94c-4.3,3.08-7.86,3.99-12.11,2.82-1.65,2.47-1.58,7.56.86,8.73ZM548.04,617.28c-2.33-4.52-2.75-7.99-2.66-11.65l-9.48,3.73c-.97,2.16,1.07,7,3.24,8.05,2.85,1.39,7.73,1.37,8.9-.13Z" fill="#b29e82"/>
  <path d="M189.19,716.36l-1.92.93c-26.6-41.07-44.97-86.41-54.66-134.54l-.33-2.44c-.07-.52,2.11-.76,2.5-.65,9.31,48.9,28.01,94.7,54.41,136.69Z" fill="#988267"/>
  <path d="M556.42,486.77c4.47-31-2.77-60.84-22.54-84.53-7.66-9.18-16.25-15.89-25.47-23.92,38.41,18.97,61.74,68.08,48.01,108.46Z" fill="#c1ab88"/>
  <path d="M345.99,564.59c-5.51,4.04-10.37,9.56-16.07,13.04l-1.51-.36,1.93-3.92-4.5,2.04-1.14-1.77c7.11-3.26,11.87-7.02,16.97-13.18,19.21-23.2,45.58-32.53,67.1-50.78,5.63-4.77,9.97-10.51,16.04-15.1-8.24,12.89-20.35,21.69-32.79,30.32l-34.16,23.73c-7.24,5.03-13.06,10.73-18.87,17.42l7-1.44Z" fill="#b6a283"/>
  <path d="M380.41,472.17l2.18-1.22-1.79,13.41c5.7-8.38,7.47-18.69,8.4-28.82,1.17,9.54-1.3,19.49-5.75,27.71l-8.21,15.14c21.17-16.17,31.9-36.42,32.78-62.87,2.07,13.12-.9,26.71-7.83,38.71-6.21,10.77-15,19.35-24.11,27.78l-16.58,15.34c10.25-14.56,19.3-28.17,20.9-45.18ZM374.13,498.52l-.02.65v.67l.02.65.02-.65v-.67l-.02-.65Z" fill="#ae9b7e"/>
  <path d="M309.51,572.02c-.47-17.12,8.53-32.34,19.25-45.53,4.89-6.02,10.88-10.99,16.35-16.43l13.11-13.05c8.31-8.27,13.49-18.24,16.2-29.56,0,12.03-6.03,23.07-14.34,31.65l-27.9,28.79c-11.7,12.61-17.23,26.8-22.68,44.14Z" fill="#ad926c"/>
  <path d="M721.69,688.35c-11.7,25.3-30.83,46.85-56.64,57.84,23.16-14.24,42.24-31.93,53.1-56.94,9.95-22.94,10.94-46.94,2.8-71.04,5.6,7.22,6.31,16.31,7.59,25.2,2.22,14.46-1.6,30.11-6.85,44.95Z" fill="#b6a283"/>
  <path d="M897.2,522.89l-2.39-11.89-6.98,3.33,3.89-6.65-14.62-3.27,13.62-2.33-3.55-8.41,7.23,4.75,2.78-11.82,2.78,10.57c1.56.77,3.97-.87,7.04-2.96l-3.56,7.21,13.1,2.96-12.41,2.84,1.97,7.15-5.91-3.48-2.98,12.01Z" fill="#b99d73"/>
  <path d="M438.33,787.53c-14.06,6.67-25.17,15.55-38.04,23.24-16.59,9.92-34.19,17.83-53.79,18.16,14.84-3.1,29.37-6.13,42.47-14.34l31.35-19.64c14.65-9.18,30.06-17.04,47.49-19.2l27.66-.28c3.63-.04,7.82,1.46,11.15,2.69l-16.45-1.53c-17.8-1.65-35.18,3-51.84,10.91Z" fill="#ab987c"/>
  <path d="M128.24,522.72l-3.07-12.48-6.32,4.16,2.18-5.56c.47-1.21-3.17-2.67-4.45-2.95l-6.91-1.49,11.88-3.07-3.33-6.93c2.7,1.7,5.5,3.29,7.07,3.33l2.82-10.74,2.61,10.29c1.56.55,4.28-1.21,6.86-2.97l-3.18,7.43,14.42,2.75-14.27,2.7,2.3,7.06-6.07-3.26-2.53,11.71Z" fill="#b09063"/>
  <path d="M467.06,346.84l1.85-1.38,16.95,10.8c14.31,9.12,36.05,11.13,45.56-1.24-.57,5.19-3.84,8.42-7.2,11.42-7.02,6.27-16.39,7.54-25.68,7.31-6.66-.16-12.81.15-18.16-4.08l9.97,1.37c8.4,1.16,19.4-.69,27.43-4.14-24.43.98-34.29-8.37-50.72-20.07Z" fill="#c1ab88"/>
  <path d="M325.83,575.4c-20.19,12.37-40.74,25.88-52.46,47.63-9.82,18.22-10.56,30.97-3.64,50.42-9.65-13.87-8.07-33.21-.43-48.71,10.99-22.31,33.52-41.08,55.4-51.11l1.14,1.77Z" fill="#a28b70"/>
  <path d="M663.36,462.43c-7.69,16.16-11.11,33.75-9.97,52.05l-.83,7.15c1.06-2.17,2.34-4.87,2.71-6.74l2.87,2.3,1.15-2.91.32,5.41-1.23-.29c-.1-.21-1.69-1.37-1.72-.91l-.15,3.03-.02,3.41c-.01,1.78-3.4.99-7.36,7.07l-6.1,9.34c-.5.77-1.92,2.13-2.8,2.38l5.13-8.22c6.87-18,1.15-38.09,9.66-62.34l2.21-4.62.99-3.03,1.86-4.05,3.27.98Z" fill="#ccb386"/>
  <path d="M803.21,575.36l-1.32,2.46-14.83-5.38-22.64.03-.98-2.28,12.16-1.29-5.83-2.16c-6.89-2.55-14.25-5.99-19.67-11.32l-13.96-13.74,2.3-1.55c1.23.78,3.74,2.46,5.08,3.96,22.55,25.16,44.31,21.58,59.69,31.27Z" fill="#a88e68"/>
  <path d="M406.51,229.7l-4.96,3.25,4.01,4.84-6.88-3.26-8.58,6.33c-.54.4-.32,3.8-.99,3.71l-3.16-.44-10.4,10.09,7.4,5.43c-3.89-.16-5.45-1.48-8.9-4.06l-8.18,9.19,10.96,5.77c-5.01.44-8.19-.95-12.09-3.82l-6.31,10.08-1.96-5.19c4.41-7.45,10.39-13.83,16.71-20.31l5.96-6.1c7.47-7.66,16.48-13.25,25.35-18.57l2.01,3.05Z" fill="#b89f78"/>
  <path d="M328.12,584.76c-14.79,16.29-24.13,37.16-25.51,59.44-.8,12.87,1.29,23.81,4.08,36.38-5.82-11.43-7.47-24.27-6.92-37.28.55-12.92,4.98-24.61,9.07-36.61.7-2.05,1.23-3.74,2.47-5.48l14.06-19.97c.92.11,2.01.33,2.08.86l.67,2.67Z" fill="#a38862"/>
  <path d="M484.94,380.73c13.65,11.6,22.02,27.28,23.64,44.72.39,4.18-.15,8.31-1.78,12.23.69-35.4-22.55-61.83-57.38-71.59,3.37-.63,6.76.11,10.65,1.24l5.19-.58,19.69,13.98Z" fill="#c0a981"/>
  <path d="M642.28,228.67l3.32.38,3.22-.3c.68-.06.92,2.97.43,3.42l-10.48,9.7c-2.69,2.49-4.58,4.01-5.87,6.72l.5,1.16-.88,1.1-3.24,2.8-7.72-13.11c5.9-5.32,13.22-9.35,20.73-11.89Z" fill="#c19d65"/>
  <path d="M686.35,832.72c-42.06,20.69-93.74,36.28-135.07,8.78-2.05-1.37-3.96-3.21-4.98-4.58l-.82-.58-2.55-1.53,1.73-.62,1.83,1.54c.12.1.48.21.98.39,13.77,10.5,29.66,16.23,46.97,17.47l16.95-.03,12.15-1.09,9.83-1.31c18.24-5.13,35.4-11.63,52.22-20.07l.76,1.64Z" fill="#a28f76"/>
  <path d="M663.58,630.3l-4.51.26c-7.02-7.84-17.01-12.54-27.56-15.23-19.58-5-40.28-11.49-47.36-29.81l1.6-2.17c2.47,6.46,7.3,12.33,13.55,16.21,3.75,2.33,8.26,5.13,12.47,6.37l27.15,7.96c10.06,2.95,18.23,9.02,24.67,16.43Z" fill="#ccb386"/>
  <path d="M433.96,627.84l-.46-2.06c.06-.41-1.23-.26-1.5.03l-2.59,2.68,2.67-4.53,20.49-25.54c13.58-16.92,20.78-36.29,25.66-57.24-1.04,23.66-11.26,45.2-25.62,63.24l-18.65,23.42Z" fill="#c0a981"/>
  <path d="M663.58,630.3c16,18.4,19.14,44.38,8.62,66.89l-4.06,6.43c.29-1-.36-3.69-1.12-4.55,11.92-23.5,9.65-48.82-7.96-68.51l4.51-.26Z" fill="#bea378"/>
  <path d="M718.12,276.57l-1.08,1.8c-2.27,1.23-2.29,4.36-2.04,7.41l1.13,13.97-.24,1.84,4.81-.35,1.32,5.91-1.09,1.99c-4.96-.99-8.92-2.74-10.36-7.5l-8.17-.03c-1.04,0-3.41-2.23-3.01-3.22,2.1-5.21,6.84-4.79,7.64-9.75,1.1-6.81,5.24-9.73,11.1-12.07Z" fill="#a38862"/>
  <path d="M441.64,411.17c2.44,6.65,3.24,13.71,3.05,21.5-.49,20.48-9.58,39.51-24,53.18l-1.21-3.52c13.96-15.27,22.9-35.23,21.86-56.63l-.91-8.98c-.06-.6-.41-2.02-.88-2.1-.15-.46-.09-1.58.24-1.94l1.85-1.51Z" fill="#c2a87c"/>
  <path d="M490.63,98.64c.86,2.05,1.7,5.08,2.1,7.47,4.91,2.65,3.25-7.69,9.75-6.25-2.69,4.07-4.39,7.82-4.18,12.12l-1.75,8.78c-3.36,6.24-1.13,13.51-2.63,14.01l-3.11,1.03-.81-12.11-.5,12.72-1.04-2.46c.54-10.26-.38-19.44-2.12-28.95.52-2.81,1.87-5.86,4.29-6.35Z" fill="#bb965e"/>
  <path d="M380.35,205.81l-.83,3.35c-.19.75-2.57.18-3.47.23l-11.09,8.14,5.06,3.18-7.35-.88c-2.81,2.26-6.25,5.4-8.39,8.44-1.53,2.18-2.82,2.67-4.7,4.72l-6.1,6.64c.09.69.31,2.04.73,2.08l2.43.23,2.01.19c.33.03-1.14,1.3-1.47,1.34l-6.51.84-4.11,4.92-2.46-1.63,6.58-9.76,10.67-12.39c8.29-9.62,18.45-16.74,29.19-22.86l-.18,3.22Z" fill="#b29770"/>
  <path d="M683.89,171.29c27.04,15.13,54.77,30.74,76.55,54.63-37.44-31.64-77.7-56.97-124.48-73.66,17.61,2.87,31.78,12.23,47.93,19.03Z" fill="#ae9b7e"/>
  <path d="M420.88,239.14c-14.04,8.66-30.41,29.72-39.11,45.71l-5.19,8.86-1.06-5.08c10.07-20.48,24.57-38.77,43.01-52.14l2.35,2.66Z" fill="#c2a87c"/>
  <path d="M264.66,687.4l.97,1.53c.21.35-1.92.26-1.86.37l-1.06.13-2.9-1.11c-15.51-1.06-29.15,9.78-30.19,25.92-.99,13.63,6.73,24.72,17.21,31.85l-1.22,1.41c-10.12-5.76-17.57-15.78-18.86-28.16-1.87-17.93,11.65-34.16,29.92-33.87,2.36.04,6.1,1.29,7.98,1.93Z" fill="#a38862"/>
  <path d="M186.01,677.17l-3.74-7.43c-14.14-28.11-25.15-57.54-29.18-90.14,10.38,44.17,26.86,86.59,51.18,126.66-8.12-8.38-13.11-18.85-18.26-29.08Z" fill="#988771"/>
  <path d="M477.52,758.29c.06.85-.66,2.94-1.18,3.74l-1.81,3.29c-15.49.64-30.11,6.55-44.26,13.53l-6.97,3.44-.18-2.29c.01-.43-1.61-.21-2.05-.79,11.68-6.67,24.12-12.17,37.63-15.87l14.83-4.06c-.08.3.89,1.19,1.22.85l.84-.88c.4-.41,1.34-.96,1.92-.98Z" fill="#b29770"/>
  <path d="M730.7,277.63c2.6,8.55-1.87,13.39-.13,18.72l-8.86,2.84c-.44-.06-1.12-.5-1.08-.85l.33-2.92-3.93-17.04,1.08-1.8c3.88-1.55,9.05-1.56,12.59,1.06Z" fill="#caaa74"/>
  <path d="M719.67,459.63c-2.53,15.79-7.29,31.53-17.98,44.18l-9.4,9.64-2.22.69,4.17.53.21,1.89c-.2-.04-.96.28-1.09.34l-6.13.67-.89-.18.5-3.72,5.62-5.14c7.12-6.51,13.7-14.88,16.69-23.99l6.2-18.9,1.4-4.83,1.44-4.96,1.48,3.8Z" fill="#c2a87c"/>
  <path d="M386.67,214.84c-17.47,13.26-30.58,32.08-38.09,52.71l-3.33-1c6.68-18.57,16.96-36.67,32.84-49.2l8.46-6.68.11,4.17Z" fill="#b99d73"/>
  <path d="M537.54,154.37c-2.99-1.1-4.36-3.44-5.18-6.65,4.15.98,7.73,0,10.11-3.29s2.5-7.58.07-11.23l-1.79-2.69-.54.17-4.37-6.06,3.4-1c6.6,1.91,11.31,7.73,11.42,15.18.13,8.69-5.41,14.23-13.14,15.57Z" fill="#aa8550"/>
  <path d="M462.7,400.58c9.78,11.03,15.61,24.99,22.26,38.6l8.04,16.44-2.95,2.32-9.57-19.4c-6.32-12.8-11.4-25.89-20.48-36.89l2.69-1.07Z" fill="#c2a87c"/>
  <path d="M536.31,588.47l-1.85,2.89-2.88,3.91-10.41,16.83-5.83,12.9-1.67,4.38-3.09,11.12-2.46-2.32,1.82-7.41c4.6-18.7,14.81-34.62,27.47-48.41.73.78,1.18,2.36.74,3.07l-1.84,3.04Z" fill="#bea378"/>
  <path d="M398.06,738.33c-21.94-24.67-24.76-63.32-11.65-91.86l-5.16,27.87c-.89,4.81-.78,9.46,0,14.2,1.15,16.5,5.81,32.01,15.84,45.26l1.58,3.44c.07.15.58.7.71.83l4.87,4.51,15.41,13.86c-8.62-3.82-15.1-10.21-21.15-17.07l-.46-1.03Z" fill="#a28b70"/>
  <path d="M412.64,673.36c-4.85,26.19,4.33,50.42,23.07,70.23-18.94-13.5-30.43-42.17-27.49-65.25l2.01-10.08,2.4,5.1Z" fill="#ad926c"/>
  <path d="M351.63,679.3l1.95-.51c-.55,17.2,2.44,34.03,9.96,49.81,3.78,7.94,8.24,16.16,14.37,22.27l15.77,15.72c-29.49-19.42-44.2-52.88-42.05-87.28Z" fill="#a28b70"/>
  <path d="M348.05,602.81l-2.6-2c13.86-16.59,31.58-28.8,49.74-40.72l19.52-12.81c-4.52,5.33-10.19,8.52-15.86,12.46-11.22,7.8-22.43,15.13-32.44,24.38l-9.86,9.11-8.51,9.57Z" fill="#ab9678"/>
  <path d="M493.24,585.35l-.73-5.12.48-16.64-.43-9.18c-.7-14.9-6.49-27.67-11.06-42.72,10.1,14.42,17.43,43.67,14.31,61.75l-2.56,11.91Z" fill="#c0a981"/>
  <path d="M873.37,648.83l-2.55-1.02c8.74-21.99,15.15-45.03,19.54-68.01l2.96.43c-4.79,24.14-10.94,46.25-19.95,68.6Z" fill="#a28b70"/>
  <path d="M439.99,853.23c-11.5-12.95-6.39-31.39,8.17-41.33,10.07-6.87,21.28-9.31,33.36-8.81,6.38.27,12.59.05,18.13,3.17-19.36-4.31-39.54-2.06-53.99,11.06-9.97,9.06-12.35,23.09-4.66,34.67l.12,1.06c2.05,1.15,4.13,2.76,5.38,5.94l-5.93-5.11-.59-.66Z" fill="#ab9678"/>
  <path d="M719.67,459.63l-1.48-3.8-1.44,4.96-.44-1.25,3.02-19.95c2.01-13.28,7.56-28.82,17.2-36.35.8-.62,1.73-2.26,1.97-3.16l1.3.95c.37.22,1.34-.79,1.75-1.06l4.74-3.23-8.7,9.25c-8.29,8.69-12.6,20.41-14.5,32.3l-3.42,21.34Z" fill="#b29770"/>
  <path d="M873.37,648.83c-8.57,22.67-19.22,43.45-32.08,63.91l-2.05-1.71c12.58-20.31,22.74-41.01,31.57-63.21l2.55,1.02Z" fill="#ab9678"/>
  <path d="M379.65,437.73l-11.77,8.07c-12.2,6.01-23.85,13.43-33.06,22.84l-1.58-3.14c7.91-8.33,17.56-14.43,27.83-20.51l16.21-9.59,2.35,2.32Z" fill="#b29770"/>
  <path d="M701.53,345.22c.91,1.01,2.55,3.65,1.96,4.76l-2.2,3.62-8.82,4.3-4.03,1.83-1.14-.05-1.97.92c-.26.08-.7.06-.96.06l-3.26-.02,3.79-10.69c-4.48-.32-6.45-.44-8.63-1.39,3.74.09,8.76.56,12.58-.35l12.69-3Z" fill="#b09063"/>
  <path d="M735.28,395.17l1.16,1.27-1.23,2.28-7.85,3.02c-11.76,5.39-22.34,12.35-32.31,20.53l-6.42,5.27-2.61-2.07c13.97-13.5,30.81-24.05,49.26-30.3Z" fill="#ad926c"/>
  <path d="M738.45,540.13l-2.3,1.55-10.7-10.45-3.14-2.92-10.85-7.04c-1.54-1-3.62-1.91-5.12-2.22l-11.88-2.48-.21-1.89.17-1.23c14.08.23,25.13,7.52,35.85,17.04,3.36,2.98,7.48,6.03,8.19,9.65Z" fill="#bea378"/>
  <path d="M740.25,282.02c-1.19.19-3.49,1.26-3.15,2.14.27.7,1.25,2.38,1.76,2.94l2.27,3.64c-3.04,5.39-1.29,12.43-9.79,16.39l-.17-8.91c1.51-.44,3.81-1.99,6.2-3.71-2.36.25-4.53,1.05-6.79,1.84-1.75-5.33,2.73-10.16.13-18.72l3.97,2.94c1.11.82,3.75,1.37,5.58,1.45Z" fill="#b09063"/>
  <path d="M246.28,245.89c-22.67,21.45-38.18,46.83-55.3,72.42,13.06-28.18,32.85-51.48,53.47-74.18,1.5-1.1,3.1.56,1.83,1.76Z" fill="#ae9b7e"/>
  <path d="M188.61,324.54c-17.67,32.67-28.67,67.23-36.7,103.08,4.99-37.99,19.34-73.35,36.59-107.38,1.59,1.06,1.36,3.13.11,4.3Z" fill="#988771"/>
  <path d="M420.81,613.58l8.59-10.36c18.65-19.68,31.57-37.5,37.95-63.86-1.12,23.37-15.4,42.52-30.7,59.02-4.86,5.49-9.35,10.48-15.84,15.21Z" fill="#b6a283"/>
  <path d="M433.96,627.84c-9.4,11.81-16.06,26.06-20.36,40.44l-.86.91c-.3.32.51,1.21.76,1.12l-.85,3.04-2.4-5.1,1.2-4.93,1.09-2.99,1.02-2,.82-3.09c2.7-7.9,10.23-21.77,15.04-26.76l2.59-2.68c.27-.28,1.56-.44,1.5-.03l.46,2.06Z" fill="#b99d73"/>
  <path d="M292.85,632.31l-.27,1.02-.58,1.17c-5.69,16.45-7.24,33.84-3.1,50.75l.96,3.03,1.1,3.68-1.8,1.34c-8.56-19.88-7.06-43.61,2.23-63.05l1.46,2.06Z" fill="#988267"/>
  <path d="M472.02,477.69l.13,7.54c-1.48,20.43-8.76,40.68-23.81,55.33,12.45-17.17,20.17-35.52,20.59-56.63l.65-6.74,2.44.5Z" fill="#bda785"/>
  <path d="M647.42,729.52c.38-1.66,1.87-2.93,3.11-4.19l1.44.66c25.45-12,40.54-26.82,43.94-54.74,1.33,11.65-2.82,23.55-9.98,32.7l-8.92,9.05c-8.84,7.54-19.7,11.57-29.6,16.52Z" fill="#bda785"/>
  <path d="M473.29,724.42c-12.54-8.67-22.54-25.1-22.83-41.04-.19-10.83.5-21.8,7.39-29.84-8.66,22.07-6.3,44.08,7.86,61.54l7.57,9.34Z" fill="#ab9678"/>
  <path d="M391.3,687.31l-1.31,9.14c-1.55-15.64,1.92-30.97,9.66-45.08,6.92-12.62,14.92-24.64,26.22-33.93-18.73,22.46-30.4,40.82-34.57,69.87Z" fill="#ab987c"/>
  <path d="M674.58,348.48l1.68.09c2.18.95,4.15,1.08,8.63,1.39l-3.79,10.69-8.91,1.43-2.04-6.27-3.89-7.86,8.32.52Z" fill="#c19d65"/>
  <path d="M688.63,427.54c-10.04,10.53-19.05,21.81-25.27,34.89l-3.27-.98c6.25-13.58,15.25-25.65,25.94-35.98l2.61,2.07Z" fill="#c2a87c"/>
  <path d="M554.51,764.08l-1.2,1.57-26.83-6.32-18-1.33h-8.89s-13.11,1.09-13.11,1.09l-.98-2.11,8.52-1.29c20.7-1.71,41.12,2.27,60.49,8.4ZM489.02,757.19l-.5.57.5.5.5-.5-.5-.57Z" fill="#ae9b7e"/>
  <path d="M520.58,530.3c-11.74-3.7-20.71-12.12-28.53-21.29-6.45-10.06-13.69-19.48-15.38-31.69,4.42,9.52,8.77,18.41,15.42,26.58,7.51,10.96,17.02,18.54,28.48,26.4Z" fill="#bda785"/>
  <path d="M326.86,404.6l-2.36-6.14c2.91-10.45,19.28-3.87,24.9-16.03-.27,4.98-3.64,8.06-7.46,10.39l-3.16,7.89c-1.91,4.77-8.24,4.18-11.93,3.89ZM338.15,395.18c-3.77-.5-9.01,1.57-11.26,5.62,4.32,1.64,9.1.31,11.26-5.62Z" fill="#b89f78"/>
  <path d="M510.58,640.51l-2.57,16.58c-1.14,7.36-1,14.78.38,22.24l3.93,21.17c-5.36-10.62-9.12-32.57-7.33-43.4l3.13-18.92,2.46,2.32Z" fill="#a28b70"/>
  <path d="M535.45,470.83c1.83-14.13,1.81-26.84-3.66-39.64-2.68-9.17-8.28-16.11-14.38-24.4,14.4,10.83,21.4,29.34,21.2,47.69-.06,5.95-.38,11.22-3.16,16.36Z" fill="#b6a283"/>
  <path d="M513.09,284.62l-1.36-15.98c-2.62-1.91-5.79-4.18-5.56-7.37s2.33-5.3,5.81-7.54l1-15.04,1.98,15.61c2.58,1.37,5.24,4.09,5.53,7.04s-2.49,5.9-5.44,7.13l-1.97,16.14ZM511.51,257.09c-2.86,1.23-3.73,4.83-2.53,6.77.9,1.46,4.14,2.37,5.84,1.77,2.15-.76,3.22-3.79,2.6-6.2-.46-1.78-3.45-3.4-5.91-2.34Z" fill="#bda785"/>
  <path d="M426.22,452.28c-.39-1.01-.27-3.83,0-5.91,2.35-18.57-4.92-34.66-15.58-50.31,16.19,12.99,21.96,35.65,15.58,56.22Z" fill="#b19a79"/>
  <path d="M505.16,597.83c1.4-9.88,2.7-19.17,2.52-29.41-.18-10.49-3.48-19.73-6.3-30.11,6.33,8.67,7.09,19.06,8.85,29.6.5,9.7.06,20.22-5.08,29.92Z" fill="#b29e82"/>
  <path d="M553.39,545.18c-17.46-4.57-33.71-18.88-40.67-37.22,10.79,15.33,22.65,27.64,40.67,37.22Z" fill="#c1ab88"/>
  <path d="M827.16,307.72l1.33-.83c14.23,23.79,26.21,48.5,33.65,76.46-9.88-25.67-20.28-51.65-34.98-75.63Z" fill="#988771"/>
  <path d="M604.08,576.58c.59-3.1,1.68-6.65.88-9.34-1.19-4.04-5.02-4.01-8.63-4.1,1.12-1.79,4.67-2.38,7.02-1.17,1.77.91,3.36,3.82,4.26,6.97l6.79.36c1.36-2.36,2.46-6.61.06-9.17-1.66-1.77-6.09-1.81-9.06-2.05,2.69-1.93,7.44-2.35,10.33-.54,3.36,2.11,3.43,7.11,1.22,10.68-2.4,3.87,5.45,8.7-1.44,15.04.67-3.99,1.16-6.71-.11-9.23-1.06-2.12-5.26-3.91-7.23-3.62l-4.1,6.16Z" fill="#bda785"/>
  <path d="M502.59,216.71l-17.73-3.74c2.3-1.05,4.29-1.22,6.66-1.35l4-.9c10.18,1.46,20.26,5.11,29.26,11.06l-22.19-5.07Z" fill="#c2a87c"/>
  <path d="M632.9,248.6c1.29-2.72,3.18-4.24,5.87-6.72l10.48-9.7c.5-.46.25-3.49-.43-3.42l-3.22.3-3.32-.38c9.01-3.05,20.19-6.16,30.81-3.53-8.98,2.5-18.9,4.33-26.28,11.25l-13.91,12.21Z" fill="#ccb386"/>
  <path d="M555.46,743.26l-4.12.19,1.99,2.02c-15.61-4.38-37.82-12.61-48.59-26.25,15.12,11.29,31.98,20.35,50.72,24.04Z" fill="#b19a79"/>
  <path d="M645.32,830.59l-2.07-1.73c10.81-1.2,20.98-5.73,31.03-10.58l23.84-15.21c-14.31,14.65-33.54,23.33-52.79,27.51Z" fill="#b29e82"/>
  <path d="M522.95,576.58l-.85-10.85c-1.12-14.31-8.59-25.97-15.79-38.32,12.41,10.99,21.63,34.68,16.64,49.17Z" fill="#b6a283"/>
  <path d="M172.33,575.35l1.66-.65c6.76,19.67,16.88,36.65,28.96,53.8-14.84-14.76-24-33.76-30.62-53.15Z" fill="#a28f76"/>
  <path d="M490.63,98.64c-2.42.48-3.77,3.54-4.29,6.35l-1.49-3.48c-1.59-3.76-4.98-5.17-9.81-5.48l-.55-5.94c7.69-1.28,13.42,2.1,16.14,8.55Z" fill="#aa8550"/>
  <path d="M836.09,440.78l-2.2-8.36-7.65-2.38c2-.8,5.52-1.96,6.94-3.17s1.89-5.16,2.97-8.07l2.73,8.32,7.52,2.78-7.22,2.38c-1.75.58-1.85,4.5-3.08,8.51Z" fill="#b99d73"/>
  <path d="M539.26,123.62l-3.4,1,4.37,6.06c-5.19-1.79-9.94-.04-13.58,4.28l-5.44-3.82,3.37-2.92c4.72-4.31,9.36-6.15,14.68-4.61Z" fill="#c19d65"/>
  <path d="M237.65,590.27c.23,1.95-.39,2.32-1.3.98l-1.62-6.18c-.42-1.59-4.19-2.26-5.78-2.59l-2.18-.45c-2.23-.46,7.1-1.96,7.59-3.37l2.4-6.99,2.16,6.24c.5,1.45,3.88,2.26,5.46,2.86l1.93.73c.33.12-.02.41-.33.48l-6.2,2.03c-1.31.43-1.65,3.69-2.15,6.27Z" fill="#b29770"/>
  <path d="M420.7,485.84c-8.87,8.41-18.77,16.43-31.87,20.65,10.8-7.32,21.69-14.36,30.66-24.17l1.21,3.52Z" fill="#b19a79"/>
  <path d="M346.94,634.91l-1.58-2.89c9.1-14.9,20.63-27.16,35.18-36.97-1.72,3.83-5.5,5.31-8.17,7.95-9.93,9.81-18.72,19.78-25.42,31.91Z" fill="#a28f76"/>
  <path d="M698.12,802.66l8.81-9.98,22.4-27.67c-3.49,9.34-9.7,16.93-16.22,24.08-4.87,4.78-7.95,11.29-14.99,13.57Z" fill="#b29e82"/>
  <path d="M828.49,306.89l-1.33.83-27.92-41.29c12.58,12.26,20.76,26.26,29.25,40.46Z" fill="#ae9b7e"/>
  <path d="M489.79,729.51c-9.69-7.83-22.04-25.91-21.02-39.3,2.71,10.01,6.53,19.32,13.33,27.64l8.52,10.43.66.65,4.93,3.59,16.46,11.79c-8.57-2.9-15.56-8.26-22.02-14.1l-.86-.7Z" fill="#ab9678"/>
  <path d="M433.3,382.58c14.7,8.82,27.51,28.76,26.77,46.24-3.36-18.48-12.66-33.27-26.77-46.24Z" fill="#ab9678"/>
  <path d="M253.28,310.89c-2.69,1.01-2.58,8.43-3.45,6.4-2.04-4.76-1.09-6.65-8.88-8.56,7.26-1.81,6.82-3.39,9.11-8.94l2.25,6.08c.6,1.61,4.43,1.89,7.07,2.72l-6.11,2.3Z" fill="#b29770"/>
  <path d="M593.48,674.36c4.28,13.26,14.56,23.08,28.12,27.65-7.56-.5-13.9-4.72-19.48-9.44-5.94-5.02-9.65-13.17-11.36-19.57l2.71,1.36Z" fill="#ab9678"/>
  <path d="M324.17,183.33c-14.94,8.46-28.01,18.51-41.5,28.24,1.7-3.36,4.02-5.27,6.74-7.2,20.69-14.64,41.53-28.4,65.88-38.67l-31.13,17.63Z" fill="#ab987c"/>
  <path d="M672.29,753.91l2.33,1.73c-13.41,5.33-27.79,9.86-42.5,9.22,14.34-3.28,27.78-5.12,40.18-10.95Z" fill="#b29e82"/>
  <path d="M417.56,122.69l1.04-2.66c11.43-2.81,23.19-6.17,35.89-5.29l-36.93,7.95Z" fill="#ae9b7e"/>
  <path d="M731.16,298.22l.17,8.91c-3.43,1.6-6.94,2.71-10.4,2.02l1.09-1.99-1.32-5.91,10.47-3.03Z" fill="#caaa74"/>
  <path d="M187.27,717.3l1.92-.93,24.79,35.99c-10.54-10.8-18.65-22.62-26.71-35.06Z" fill="#988771"/>
  <path d="M436.39,225.36l4.17,1.5-19.68,12.27-2.35-2.66c5.72-4.15,11.44-8.32,17.86-11.12Z" fill="#ccb386"/>
  <path d="M746.3,396.74l-4.74,3.23c-.4.27-1.38,1.28-1.75,1.06l-1.3-.95.63-2.45c.19-.73-2.02-1.27-2.68-1.19l-1.16-1.27,4.05-1.2c5.56-1.77,10.7-3.01,17.05-3.25l-10.08,6.02Z" fill="#a18662"/>
  <path d="M591.46,664.32c-.22-.03-1.65,1.38-1.69.91l-.25-2.84-1.29-5.96.09-1.16.8-4.95c1.35-8.32,5.1-15.75,10.74-22.47,2.13-2.54,4.16-4.97,7.65-5.49l-7.08,7.23c-4.7,6.25-8.8,14.65-8.87,22.68l-.1,12.04Z" fill="#bda785"/>
  <path d="M379.56,347.52c-5.31,5.48-11.11,5.99-16.94,12.22-.12-8.57,10.27-9.16,19.82-19.17.13,2.12-1.29,5.31-2.88,6.95Z" fill="#b29770"/>
  <path d="M701.29,353.61l2.2-3.62c.59-1.11-1.05-3.75-1.96-4.76,5.01-1.19,9.94-4.54,14.42-7.2l2.51,1.16c-5.42,5.15-10.58,11.21-17.17,14.42Z" fill="#a18662"/>
  <path d="M635.28,354.88c9.03,6,26.34,8.9,36.92,7.21l8.91-1.43,3.26.02c-17.42,5.74-39.03,3.38-53.96-7.02,1.26.02,3.82.53,4.87,1.23Z" fill="#c1ab88"/>
  <path d="M626.36,562.83c.18-1.85-4.04-4.11-5.94-5.04,5.19-3.42,13.59,2.23,17.41-8.51,1.2,2.78.27,5.91-1.94,7.36-2.37,1.56-5.22,1.87-8.81,2.05,2.85,4.87.95,11.4-4.6,12.87,1.51-2.37,3.59-5.64,3.89-8.72Z" fill="#c1ab88"/>
  <path d="M379.65,437.73l-2.35-2.32c8.71-6.64,10.72-16.82,12.71-28.15,2.44,9.42-3.24,25.59-10.36,30.47Z" fill="#b19a79"/>
  <path d="M411.31,344.61c5.43-4.46,11.89-5.35,18.21-8.05l15.55-6.63c-5.15,5.96-12.88,8.61-20.36,10.78l-13.41,3.89Z" fill="#b29e82"/>
  <path d="M696.52,845.85l.76,1.67-8.53,4.15c-11.19,5.44-22.03,11.07-34.61,13.43l28.6-12.43,13.78-6.82Z" fill="#988771"/>
  <path d="M786.28,252.18l-25.7-25.69c2.35-.34,4.34,1.34,5.96,2.98l21.07,21.35.21.82,6.84,7.69c-3.93.18-6.74-4.04-7.62-6.87l-.76-.27Z" fill="#ae9b7e"/>
  <path d="M462.7,400.58l-2.69,1.07-4.31-5.23c-6.41-7.76-14.71-12.98-23.08-19.75,11.85,5.03,21.49,14.2,30.09,23.9Z" fill="#a28f76"/>
  <path d="M362.19,760.65l1.87-1.42,6.35,5.38c7.84,6.64,16.6,11.46,24.91,16.57-13.49-3.97-23.5-12.38-33.13-20.53Z" fill="#a28f76"/>
  <path d="M334.16,550.71c-.74-5.43,1.31-9.9,2.76-14.99,5.43-9.28,10.91-18.73,20.57-25.23-10.77,11.74-19.56,24.27-23.33,40.22Z" fill="#ab987c"/>
  <path d="M289.16,693.29l1.8-1.34c4.93,12.19,12.72,21.26,22.72,31.33-11-6.75-19.37-18.05-24.52-29.99Z" fill="#a28b70"/>
  <path d="M734.88,629.41l.07,7.17.21,20.84c.02,1.81-1,5.25-1.45,6.96-1.31-5.01.59-10.08.36-14.94-.39-8.27-1.16-16.65-3.18-24.04l1.24-1.39-.51-.68-.43-3.43,1.56,2.74.31.42,1.82,6.36Z" fill="#b29e82"/>
  <path d="M352.6,356.54c1.42-5.45,6.05-8.57,11.08-10.91,4.03-1.87,4.82-5.93,5.73-10.8,3.47,5.71.11,11.24-5.16,13.49-4.3,1.84-7.41,4.66-11.66,8.22Z" fill="#ab987c"/>
  <path d="M263.77,689.3c-.06-.11,2.07-.02,1.86-.37l-.97-1.53c4.78,1.63,8.05,5.19,10.22,9.81,2.74,5.83,2.19,12.1-2.36,16.97-3.02,3.22-8.84,5.04-11.91,1.3,4.1.86,9.08.56,11.34-2.74,5.51-8.02,1.47-18.53-8.19-23.44Z" fill="#a28f76"/>
  <path d="M586.08,721.22l2.51-1.78c6.78-4.05,6.78-6.98,4.77-16.14l.99.14c2.62,3.68,7.69,1.96,11.04-1.26-.47,4.31-5.52,5.31-8.64,5.34.41,3.03.23,7.57-1.53,10.18s-6.36,3.92-9.14,3.53Z" fill="#ae9b7e"/>
  <path d="M800.19,499.21c3.46-.75,6.22,2.22,6.25,4.85.02,2.77-1.93,6-4.74,6.43-2.64.41-5.64-2.05-6.39-4.73-.66-2.37,1.69-5.86,4.88-6.55ZM804.4,504.76c0-1.9-1.54-3.44-3.44-3.44s-3.44,1.54-3.44,3.44,1.54,3.44,3.44,3.44,3.44-1.54,3.44-3.44Z" fill="#a28b70"/>
  <path d="M441.64,411.17l-1.85,1.51c-3.48-8.28-7.46-15.85-12.39-24.24,7.45,5.93,11.22,14.5,14.24,22.73Z" fill="#ab9678"/>
  <path d="M292.85,632.31l-1.46-2.06c4.27-8.93,8.81-18.29,16.31-24.69-5.78,9.63-10.92,17.75-14.85,26.75Z" fill="#a28b70"/>
  <path d="M472.02,477.69l-2.44-.5-1.37-11.53-2.51-16.32c4.53,8.97,6.15,18.73,6.31,28.34Z" fill="#ab9678"/>
  <path d="M591.53,556.6c-6.55,7.02-9.3,17.54-5.79,26.74l-1.6,2.17c-4.11-10.63-1.73-22.84,7.32-30.03l.07,1.11Z" fill="#b29e82"/>
  <path d="M493.24,585.35c.62,4.33-5.68,21.21-9.68,26.88,3.73-11.62,6.93-21.41,8.95-32l.73,5.12Z" fill="#a28f76"/>
  <path d="M323.9,409.88c-4.36,7.78-6.27,18.53-13.29,25.86l7.59-17.76,3.48-9.35,2.23,1.25Z" fill="#ae9b7e"/>
  <path d="M510.83,957.28c2.54-1.05,6,.56,6.94,2.96.7,1.77-.64,5.43-2.32,6.37-2.27,1.28-5.69.01-7.02-1.93-1.72-2.52-.93-6.02,2.39-7.4ZM515.79,961.95c0-1.69-1.37-3.06-3.06-3.06s-3.06,1.37-3.06,3.06,1.37,3.06,3.06,3.06,3.06-1.37,3.06-3.06Z" fill="#ab9678"/>
  <path d="M561.06,691.99c-2.91-.67-6.38-4.44-6.48-6.4,3.76,2.86,7.62,4.61,12.23,3.77,2.96-.54,5.52-4.39,8.38-8.15-.65,6.24-6.29,12.6-14.13,10.79Z" fill="#ab9678"/>
  <path d="M741.12,290.74l-2.27-3.64c-.51-.56-1.49-2.24-1.76-2.94-.33-.88,1.96-1.95,3.15-2.14,1.52.07,4.57.96,5.84,1.93,1.2,2.89-1.91,6.76-4.97,6.79Z" fill="#ab987c"/>
  <path d="M801.9,577.82l1.32-2.46c7.94,5,15.32,13.01,14.74,23.12-2.46-8.94-7.24-17.46-16.06-20.65Z" fill="#a28f76"/>
  <path d="M586.11,735.05c3.61-.59,8.05-.6,9.64-4.61,1.36-3.42.36-8.05-.2-12.33,3.49,3.25,4.87,8.58,2.58,12.43-2.3,3.87-7.01,7.99-12.02,4.5Z" fill="#ab9678"/>
  <path d="M485.52,338.58l-11.2-6.67c-5.14-3.06-10.35-5.37-15.08-9.44,10.04,3.28,18.47,8.71,26.28,16.11Z" fill="#ab987c"/>
  <path d="M489.49,136.4l.5-12.72.81,12.11,3.11-1.03c1.51-.5-.73-7.78,2.63-14.01l-.07,16.21-7-.56Z" fill="#c2a87c"/>
  <path d="M897.49,543.95c-1.27.54-3.68-1.3-4.15-2.51-.52-1.35.22-4.8,1.52-4.97,2.12-.28,4.9.66,5.88,1.89,1.18,1.48-.38,4.38-3.25,5.59Z" fill="#b99d73"/>
  <path d="M895.3,467.93c1.18-.95,4.75.27,5.44,1.51.73,1.31-.29,4.27-1.75,5.4-1.04.81-3.52.24-4.77-.89s-.92-4.41,1.08-6.02Z" fill="#c19d65"/>
  <path d="M622.58,274.81c-1.95,9.3-1.34,18.6.9,27.84l-1.49-.08c-.37-.07-.58-1.24-.65-1.84l-1.64-13.87.75-10.23c.04-.58.11-1.77.48-1.82h1.65Z" fill="#b89f78"/>
  <path d="M600.02,587.61c.26-2.83.73-6.86-.06-9.91-.54-2.1-5.16-3.92-7.51-4.77,3.66-1.65,7.27.27,9.43,3.61,2.01,3.11,3.01,8.14-1.87,11.07Z" fill="#b6a283"/>
  <path d="M174,574.7l-1.66.65c-3.32-9.71-5.79-19.49-6.4-29.97l8.06,29.32Z" fill="#988771"/>
  <path d="M549.39,730.47c3.9-.14,9.11.47,11.32-2.95,1.73-2.69,2.37-6.76,3.16-10.26,2.46,3.88,1.06,8.95-1.95,12.1-3.3,3.46-8.68,3.76-12.53,1.1Z" fill="#ab987c"/>
  <path d="M510.41,929.47c-2.27-2.36-.96-6.8,2.39-7.25,2.39-.32,4.35,3.09,3.62,5.21s-4.46,3.66-6.01,2.05Z" fill="#ab987c"/>
  <path d="M126.03,467.93c1.11-.97,4.67.19,5.43,1.44s-.12,4.04-1.62,5.4c-1.01.92-3.09.43-4.5-1.09-1.18-1.27-1.44-3.89.69-5.76Z" fill="#b09063"/>
  <circle cx="128.37" cy="539.96" r="3.82" fill="#b09063"/>
  <circle cx="825.68" cy="676.82" r="3.82" fill="#b29e82"/>
  <path d="M808.3,638.06l-4.21,5.54c-.9-2.48-3.06-4.91-5.65-5.81,2.53-.19,4.84-2.77,5.53-5.83l4.33,6.1Z" fill="#c0a981"/>
  <path d="M389.99,696.45l1.31-9.14c-.28,10.04,1.01,19.66,3.11,30.14-3.1-6.34-5.4-14.22-4.42-21Z" fill="#988267"/>
  <path d="M468.91,345.46l-1.85,1.38-16.67-11.87c7.23,1.47,12.61,6.72,18.52,10.49Z" fill="#ab9678"/>
  <path d="M329.46,343.57l2.34-.98c5.21,2.62,10.4,3.41,17.7,2.2-6.03,4.34-14.31,3.65-20.04-1.22Z" fill="#ab987c"/>
  <path d="M449.52,219.65l2.03,2.97-1,.14c-.03-.12-1.39-1.47-1.52-1.02l-.47,1.98h-1.08s-3.83,2.12-3.83,2.12c-.24.1-.88,0-1.11,0l-1.05.89c-.19.13-.69.18-.94.12l-4.17-1.5,13.13-5.71Z" fill="#c2a87c"/>
  <path d="M311.67,479.61l-.77-2.29,11.69-14.77c-1.41,6.45-5.99,12.58-10.92,17.06Z" fill="#ab987c"/>
  <path d="M451.97,136.08c1.41-.24,3.64,2.08,3.79,3.37s-1.62,3.69-3.07,4.03c-1.26.29-3.22-1.41-3.91-2.61-.99-1.73,1.22-4.45,3.19-4.79Z" fill="#caaa74"/>
  <path d="M308.48,356.54c-.51.9-1.76,2.28-2.59,3.06l-1.29-6.97c-.5-4.79.83-9.82,4.79-12.29-3.16,7.56-4.35,16.66-.91,16.2Z" fill="#a28b70"/>
  <path d="M274.09,213.2c.9-.72,4.3-.45,5.14.37.99.95.35,3.88-.73,5.3-.82,1.07-3.41.45-4.86-.49-1.14-.74-.86-4.13.45-5.18Z" fill="#b29770"/>
  <path d="M306.18,391.64l-1.52-6.05c.67-5.3,2.29-10.64,5.6-15.09l-2.9,13.95-1.18,7.18Z" fill="#ae9b7e"/>
  <path d="M544.66,834.18l-1.73.62c-5.04-4.3-11.36-11.46-13.41-18.62l5.79,8.09,9.35,9.91Z" fill="#988771"/>
  <path d="M245.61,747.49l1.22-1.41c7.05,4.79,15.68,6.4,23.95,7.83-9.2,1.2-17.76-2.21-25.17-6.43Z" fill="#ae9b7e"/>
  <path d="M398.36,358.27l18.79-6.39c-4.4,5.5-11.72,7.39-18.79,6.39Z" fill="#ae9b7e"/>
  <rect x="253.41" y="227.21" width="17.69" height="2.12" transform="translate(-84.6 252.3) rotate(-45)" fill="#ae9b7e"/>
  <path d="M587,483.04l-4.06-4.04,3.99-4.96c.94,1.21,3.77,4.08,5.06,5.12-1.53.35-4.25,2.47-4.99,3.89Z" fill="#ccb386"/>
  <path d="M746.22,680.37l-.77,7.08-2.94-4.12-1.23-5.9c.11-.81.77-2.07,1.5-2.37s1.98,1.55,2.21,2.32l1.23,2.98Z" fill="#ccb386"/>
  <path d="M382.59,470.95l-2.18,1.22c.64-6.89-.02-13.62-.39-20.71,2.14,6,3.46,12.77,2.57,19.49Z" fill="#988267"/>
  <path d="M415.86,348.91l-9.15,1.11c6.05-3.77,11.1-3.95,17.44-4.8-2.56,2.38-5.51,3.36-8.29,3.69Z" fill="#b29e82"/>
  <path d="M353.58,678.78l-1.95.51c.46-7.35,1.25-14.82,3.75-21.78l-1.81,21.27Z" fill="#988267"/>
  <polygon points="326.86 404.6 323.9 409.88 321.67 408.64 324.5 398.46 326.86 404.6" fill="#a38862"/>
  <path d="M606.37,719.91c4.21-3.37,6.23-7.05,4.11-13.44,1.64,1.77,3.34,5.21,2.86,7.18-.75,3.06-2.18,7.65-6.97,6.27Z" fill="#ab987c"/>
  <path d="M605.54,553.81l-3.19,6.27c-3.17-3.82,4.35-10.79,8.33-9.54,1.13.35,2.44,2.4,2.89,3.83l-4.09-2.46c-.87-.53-3.41,1.02-3.94,1.91Z" fill="#c1ab88"/>
  <path d="M196.99,405.91c.82-.47,3.27.95,3.49,1.87.27,1.1-.39,3.7-1.52,3.83-.98.11-3.1-.46-3.89-.98-.95-.62.5-3.9,1.92-4.72Z" fill="#a88e68"/>
  <path d="M520.08,645.92l.11,7.14-1.11-4.05-1.7,1.27c-1.8,1.35-3.27,2.32-6.3,2.91l4.46-3.83,3.83-3.81.71.36Z" fill="#a28b70"/>
  <path d="M357.36,278.42l1.41-.81,11.2,4.59c-4.57,1.23-9.18-.86-12.61-3.78Z" fill="#b89f78"/>
  <path d="M553.31,765.64l1.2-1.57c5.14,1.63,10.08,3.43,14.71,6.05l-15.9-4.48Z" fill="#a28f76"/>
  <path d="M520.65,123.75l-2.56-7.73c-.61-2.46-.61-6.3.77-8.1l1.79,15.83Z" fill="#ccb386"/>
  <path d="M298.64,465.78l-2.85-7.39c.68-.62,2.39-.98,3.33-.86.75.1,1.88,2.32,1.82,3.07-.13,1.56-1.26,4.31-2.3,5.19Z" fill="#ad926c"/>
  <path d="M295.76,461.41c.12.73-1.58,2.22-2.42,2.67l-6.7,3.57v-3.21s6.06-2.71,6.06-2.71l3.05-.31Z" fill="#ad926c"/>
  <path d="M349.26,291.38l2.66-.55,9.76,3.52c-4.09.99-9-.03-12.42-2.96Z" fill="#b29e82"/>
  <path d="M317.45,311.64l-.05-2.27c3.06-1.49,6.42-2.91,10.52-3.46-2.98,2.25-7.77,4.58-10.47,5.73Z" fill="#ab9678"/>
  <path d="M350.73,303.75c2.13.09,4.82.84,7.71,2.21-4.43,1.03-8.75-.23-11.77-2.39l4.06.18Z" fill="#bda785"/>
  <path d="M514.71,863.41l-3.26-1.31c.08-2.29.34-4.77,1.6-8.12l1.66,9.42Z" fill="#b19a79"/>
  <path d="M641.38,333.84l-6.64-6.78-4.6-5.88-4.59-7.53c-.94-1.54-1.12-5.08-1.19-6.9,3.77,8.6,8.54,16.41,15.28,23.76.63.68,1.68,2.6,1.74,3.32Z" fill="#b89f78"/>
  <rect x="246.5" y="237.27" width="9.37" height="2.12" transform="translate(-94.96 247.42) rotate(-45)" fill="#ae9b7e"/>
  <path d="M591.46,664.32l.08,2.94-2.65.04-.66-10.87,1.29,5.96.25,2.84c.04.47,1.47-.94,1.69-.91Z" fill="#ab9678"/>
  <polygon points="591.54 667.27 593.48 674.36 590.76 673 590.33 671.37 589.31 668.39 588.89 667.31 591.54 667.27" fill="#bda785"/>
  <path d="M625.43,263.79l-3.41,8.89c-1.02-2.3.77-7.54,3.41-8.89Z" fill="#b89f78"/>
  <rect x="795.66" y="260.06" width="2.12" height="6.36" transform="translate(47.21 640.47) rotate(-45)" fill="#ae9b7e"/>
  <path d="M746.24,673.29c-.21.54-1.04-1.65-1.03-2.13l.22-8.82c.1-.49.84,1.71.83,2.2l-.03,8.76Z" fill="#ccb386"/>
  <path d="M652.79,654.58l-3.58-2.96c1.84-.35,3.2.62,3.58,2.96Z" fill="#b99d73"/>
  <path d="M568.42,745.3l-5.86-1.08,5.86,1.08Z" fill="#b19a79"/>
  <path d="M625.36,262.74c-.05-.73-.06-2.45.24-3.12.37-.84,1.77-1.5,2.83-1.8l-3.07,4.92Z" fill="#b89f78"/>
  <path d="M588.32,655.28l.8-4.95-.8,4.95Z" fill="#ab9678"/>
  <path d="M482.59,757.35l-.79,1.66c-.27.56-1.93-.53-2.23-.78l3.02-.88Z" fill="#ae9b7e"/>
  <path d="M667.43,554.34l-4.11-1.86,2.56-.07c.74-.02,1.51,1.18,1.56,1.94Z" fill="#ccb386"/>
  <path d="M505.47,792.35l-3.92-1.15,3.92,1.15Z" fill="#b19a79"/>
  <path d="M521.55,129.81l-1.09-3.89,1.09,3.89Z" fill="#ccb386"/>
  <path d="M450.55,222.76l-1.98.96.47-1.98c.13-.45,1.49.9,1.52,1.02Z" fill="#ccb386"/>
  <path d="M518.53,104.89l-1.06-3.95,1.06,3.95Z" fill="#ccb386"/>
  <polygon points="692.29 513.45 694.41 513.44 694.24 514.67 690.08 514.14 692.29 513.45" fill="#c1ab88"/>
  <path d="M391.04,246.06c-.18-.29,1.35-.05,1.56.19l.91,1.06c.2.23-1.26.73-1.42.46l-1.05-1.7Z" fill="#b89f78"/>
  <path d="M516.4,95.92h-1.38c-.35-.02-.82-1.18-.55-1.4l1.21-.8.72,2.2Z" fill="#ccb386"/>
  <path d="M563.45,747.42l-3.97-1.17,3.97,1.17Z" fill="#b19a79"/>
  <path d="M262.71,689.43l-2.9-1.11,2.9,1.11Z" fill="#a28f76"/>
  <path d="M590.33,671.37l-1.02-2.98,1.02,2.98Z" fill="#ab9678"/>
  <path d="M517.47,99.89l-.98-2.99.98,2.99Z" fill="#ccb386"/>
  <path d="M561.4,744.26l-2.94-.97,2.94.97Z" fill="#b19a79"/>
  <path d="M413.55,658.34l.82-3.09-.82,3.09Z" fill="#ad926c"/>
  <path d="M558.46,746.25l-2.97-1.01,2.97,1.01Z" fill="#b19a79"/>
  <path d="M411.44,663.33l1.09-2.99-1.09,2.99Z" fill="#ad926c"/>
  <path d="M657.23,468.53l.99-3.03-.99,3.03Z" fill="#c2a87c"/>
  <path d="M363.67,842.27l-2.99,1.02,2.99-1.02Z" fill="#ad926c"/>
  <path d="M289.86,688.27l-.96-3.03.96,3.03Z" fill="#a28b70"/>
  <path d="M371.72,840.44l-3.09.86,3.09-.86Z" fill="#ad926c"/>
  <path d="M500.51,791.21l-3.01.04c-.04-.47,1-.97,1.51-.97s1.55.5,1.5.93Z" fill="#b19a79"/>
  <path d="M208.69,253.68l1.75-2.16c.12.3.45,1.52.14,1.66l-1.9.51Z" fill="#a28b70"/>
  <path d="M447.49,223.72l-3.83,2.13,3.83-2.13Z" fill="#ccb386"/>
  <path d="M413.49,670.32c-.25.09-1.06-.8-.76-1.12l.86-.91-.1,2.04Z" fill="#ad926c"/>
  <polygon points="629.33 254.78 629.27 253.66 632.51 250.86 629.33 254.78" fill="#b89f78"/>
  <path d="M692.46,357.91l-4.03,1.83,4.03-1.83Z" fill="#c1ab88"/>
  <path d="M662.36,552.42l-1.96-1.05,1.96,1.05Z" fill="#ccb386"/>
  <polygon points="329.92 577.63 326.71 579.46 328.41 577.27 329.92 577.63" fill="#a38862"/>
  <path d="M475.6,759.27l-.84.88c-.33.34-1.3-.55-1.22-.85l2.07-.03Z" fill="#b89f78"/>
  <path d="M624.32,305.7l-1.01-1.96,1.01,1.96Z" fill="#b89f78"/>
  <path d="M687.3,359.69l-1.97.92,1.97-.92Z" fill="#c1ab88"/>
  <path d="M440.44,416.71l-.88-2.1c.47.08.82,1.5.88,2.1Z" fill="#ab9678"/>
  <path d="M441.51,226.74l1.05-.89-1.05.89Z" fill="#ccb386"/>
  <path d="M375.74,296.04l.98-1.3-.98,1.3Z" fill="#c2a87c"/>
  <path d="M632.51,250.86l.88-1.1-.88,1.1Z" fill="#ccb386"/>
  <path d="M292,634.5l.58-1.17-.58,1.17Z" fill="#a28b70"/>
  <path d="M628.37,256.73l1.01-.96-1.01.96Z" fill="#b89f78"/>
  <path d="M405.63,226.97l.9-1.48-.9,1.48Z" fill="#b89f78"/>
  <path d="M542.58,668.57c-1.04.36-3.04,1.86-3.09,2.78l-2.15-.84-.96-3.38,6.2,1.43Z" fill="#ab9678"/>
  <path d="M534.38,668.59c-.55-.48-1.66-1.59-1.95-2.28l2.59.06c.61,0,.13,1.78-.64,2.22Z" fill="#ab9678"/>
  <path d="M761.25,570.45l-3.99.85,3.99-.85Z" fill="#a88e68"/>
  <path d="M664.58,507.78c-1.53.93-2.19,2.71-2.11,4.83s-1.44,5.07-2.86,7.07l-.32-5.41c6.99-25.68,21.43-48.88,39.95-68.6l11.24-11.98c3.26-3.47,5.78-7.75,10.2-9.66l-26.4,31.55c-13.14,15.7-23.81,33.14-29.7,52.21Z" fill="#c1ab88"/>
  <path d="M716.32,459.55l.44,1.25-1.4,4.83-.59-3.18c-5.38,8.19-10.84,14.66-17.41,21.16l-17.5,17.3-6.8,7.73,1.02,1.39,8.15-7.57,24.86-19.93.18,1.44-32.65,28.67,1.36,1.08c5.87-3.49,11.18-8.58,18.68-10.33-8.39,7.09-18.06,10.18-24.68,19.44l16.87-9.16-.5,3.72c-4.25,2.75-10.12,3.67-12.51,9.46,11.23-4.24,21.02-7.37,32.77-6.16l-.26-1.65c1.5.31,3.58,1.22,5.12,2.22-10.87.52-22.93,1.08-32.71,6.66l-11.57,6.59,14.24-2.89,20.47-3.74c6.21-1.14,12.5-.28,18.68,1.51l1.74-1.08,3.14,2.92-14.4-1.44c-12.61-.29-24.76,2.83-36.22,6.29l4.58,2.36c-1.02.03-2.72,1.09-3.07,2.04l-2.98-.05,1.65-1.24c.26-.19.09-.85-.2-.9l-1.78-.32-8.26-1.45-3.44.7c3.74-2.7,5.14-5.57,4.07-8.84l-3.5,1.2c-.3.1-.33-.86-.13-1.11l1.15-1.47c2.89-3.69,4.26-7.22,4.22-12.54l-3.7-1.75,1.13-4.93c.96-.58,1.92-1.88,2.76-3.32,6.28-10.77,13.54-20.65,22.1-29.95l24.99-27.14c-3.25,7.01-8.05,12.6-13.1,18.17l-10,11.02c-7.81,8.61-15.38,17.14-20.18,28.75l23.79-23.09,8.6-7.71,6.18-7.36,6.6-7.6ZM668.4,509.2c1.76-.61,2.23-2.23,1.53-3.72l-1.53,3.72ZM669.85,512.51l-.02.65v.67l.02.65.02-.65v-.67l-.02-.65ZM672.01,515.98l-.65.02.65.02h.67l.65-.02-.65-.02h-.67ZM668.01,523.97l-.65.02.65.02h.67l.65-.02-.65-.02h-.67Z" fill="#c1ab88"/>
  <path d="M673.36,540.43l-.08,2.46,10.96,1.9,45.06,7.51c-.45.8-3.06,1.38-4.32,1.33-9.1-.39-20.79-2.2-30.53-4.15-8.11-1.63-15.04-3.61-23.5-3.76l30.77,10.19c11.6,3.84,23.44,6.1,35.47,7.62l19.22,2.42-15.8.15c-14.61-1.14-28.26-4.2-42.34-8.73l-27.13-8.73c-1.09-.35-3.2.41-3.99.83s-2.84-.27-2.45-1.08l1.44-3.01,6.59-1.22-3.85-.39c-.61-.06-.65-2.08-.13-2.4l1.54-.92,2.73-2.48,1.78.32c.29.05.46.71.2.9l-1.65,1.24Z" fill="#bda785"/>
  <path d="M658.38,519.39l-.29,1.45c-.19.47-1.19.72-1.58.67l.15-3.03c.02-.46,1.62.7,1.72.91Z" fill="#c1ab88"/>
  <path d="M698.44,431.96c-11.69,12.75-22.06,26.98-29.32,43.28-5.79,13-8.55,26.44-11.88,40.19l.89,1.75-2.87-2.3c2.68-13.41,5.14-26.78,10.78-39.6,7.53-17.14,17.69-31.63,30.1-44.81l2.3,1.49Z" fill="#c1ab88"/>
  <path d="M717.03,278.37l3.93,17.04-.33,2.92c-.04.35.64.79,1.08.85l-5.59.57-1.13-13.97c-.25-3.05-.23-6.18,2.04-7.41Z" fill="#bb965e"/>
  <path d="M731.16,298.22l-10.47,3.03-4.81.35.24-1.84,5.59-.57,8.86-2.84c2.26-.78,4.43-1.59,6.79-1.84-2.39,1.72-4.7,3.27-6.2,3.71Z" fill="#9b7645"/>
  <path d="M693.36,516.89l-6.13.67,6.13-.67Z" fill="#c1ab88"/>
  <path d="M542.55,133.2l-1.79-2.69,1.79,2.69Z" fill="#c19d65"/>
  <path d="M738.5,400.08c-.23.9-1.17,2.54-1.97,3.16l-.71-1.69c-14,8.19-26.46,18.48-37.39,30.4l-2.3-1.49c5.99-6.36,12.44-12.64,20.01-18.07l19.07-13.68,1.23-2.28c.66-.08,2.87.46,2.68,1.19l-.63,2.45Z" fill="#b6a283"/>
  <polygon points="489.02 757.19 489.52 757.76 489.02 758.26 488.52 757.76 489.02 757.19" fill="#b89f78"/>
  <path d="M724.98,553.63c1.26.05,3.87-.53,4.32-1.33,6.43,1.07,12.76,1.61,19.17,3.96l-18.2-1.77-5.29-.87Z" fill="#ab987c"/>
  <path d="M673.28,542.9l.08-2.46,2.98.05h1c2.5.91,6.53.92,9.02.06l32.13-.29c-10.26-3.48-21.4-2.31-31.24-2.03l-7.83.22-4.58-2.36,8.45-.41,23.08.05c3.21,0,8.29,1.35,11.41,2.3l16.64,5.1-7.16-.55-53.98.32Z" fill="#b29e82"/>
  <path d="M686.36,540.54c-2.49.86-6.52.85-9.02-.06l9.02.06Z" fill="#c1ab88"/>
</svg>
