<svg xmlns="http://www.w3.org/2000/svg" viewBox="0 0 1024 1024">
  <path d="M515.68,93.71l-1.21.8c-.27.22.2,1.38.55,1.39h1.38s.09.99.09.99l.98,2.99v1.05s1.05,3.95,1.05,3.95l.34,3.03c-1.37,1.8-1.38,5.64-.77,8.1l2.56,7.73-.19,2.17,1.09,3.89c.04.25-.2.86-.35,1.33l5.44,3.82-1.34,6.27c.8,2.46,4.66,5.91,7.06,6.48.82,3.21,2.18,5.54,5.18,6.65-4.77.83-9.48-.99-14.64-5.03-2.74,6.38-6.18,14-13.53,15.08l-9.13,1.34c-.41-1.77-.65-5.36-.48-7,9.02,1.42,13.76-3.75,16.14-10.67,1.77-5.13,1.4-8.25-.06-13.55-3.64-13.16-2.1-26.53-6.25-39.24-6.06,3.1-7.65,8.37-9.8,14.05l-1.49,2.63c-.21-4.3,1.49-8.05,4.18-12.12-6.51-1.44-4.85,8.9-9.75,6.25,3.98-2.65,4.2-12.19,11.98-15.86,1.77-.84,5.16-1.44,6.69-1.03,1.65.44,3.73,2.88,4.28,4.5Z" fill="#caaa74"/>
  <path d="M418.6,120.04l-1.04,2.66c-30.89,7.67-60.73,18.44-89.04,33.96-25.82,14.16-49.8,29.65-71.25,49.61l-12.95,12.05-11.02,11.03-9.67,10.28-21.45,26.66-2.09-1.64,8.6-10.97,1.9-.51c.31-.13-.02-1.36-.14-1.66,51.08-63.46,122.59-110.45,202.59-130.11l5.57-1.37Z" fill="#ab9678"/>
  <path d="M785.82,222.8l.91-2.99,8.93,9.51,9.18,9.96c47.25,54.33,78.57,120.54,89.99,191.5l-2.15.86c-.37.15-.95-1.34-1.02-1.77-10.41-69.61-46.46-144.98-94.85-195.58l-11-11.5Z" fill="#a28b70"/>
  <path d="M786.72,219.82l-.91,2.99c-34.76-34.56-74.93-61.62-120.13-81.28-30.01-12.65-60.87-20.95-93.07-25.83l.69-2.34c.15-.49,1.48.06,2.43.36,71.86,10.73,138.32,41.92,192.94,89.56l10.51,9.57,7.53,6.98Z" fill="#ab9678"/>
  <path d="M386.67,214.84l-.11-4.17c12.34-9.74,26.89-15.21,42.28-19.52-7.01-.43-13.24,1.35-19.7,3.3-4.41,1.33-9.45,2.75-13.22,5.37-1.7.33-4.35,1-6.19,1.9l-9.37,4.09.18-3.22c27.38-15.61,59.77-20.8,90.21-11.07l-27.87.73c-21.03,1.97-39.97,10.29-56.19,22.6Z" fill="#c2a87c"/>
  <path d="M202.19,266.29c-37.05,49.17-57.85,104.97-70.65,166.13,5.98-60.79,33.7-119.28,68.55-167.78l2.09,1.64Z" fill="#a28b70"/>
  <polygon points="514.71 863.41 515.69 871.32 525.93 863.58 518.47 873.95 535.54 877.12 518.99 880.38 524.45 889.45 515.9 883.38 512.37 900.12 509.89 883 500.33 890.01 506.97 880.27 490.5 877.14 506.64 874.1 500.1 863.99 509.6 871.14 510.53 866.05 511.44 862.11 514.71 863.41" fill="#b09063"/>
  <path d="M897.2,522.89l-2.39-11.89-6.98,3.33,3.89-6.65-14.62-3.27,13.62-2.33-3.55-8.41,7.23,4.75,2.78-11.82,2.78,10.57c1.56.77,3.97-.87,7.04-2.96l-3.56,7.21,13.1,2.96-12.41,2.84,1.97,7.15-5.91-3.48-2.98,12.01Z" fill="#b99d73"/>
  <path d="M128.24,522.72l-3.07-12.48-6.32,4.16,2.18-5.56c.47-1.21-3.17-2.67-4.45-2.95l-6.91-1.49,11.88-3.07-3.33-6.93c2.7,1.7,5.5,3.29,7.07,3.33l2.82-10.74,2.61,10.29c1.56.55,4.28-1.21,6.86-2.97l-3.18,7.43,14.42,2.75-14.27,2.7,2.3,7.06-6.07-3.26-2.53,11.71Z" fill="#b09063"/>
  <path d="M490.63,98.64c.86,2.05,1.7,5.08,2.1,7.47,4.91,2.65,3.25-7.69,9.75-6.25-2.69,4.07-4.39,7.82-4.18,12.12l-1.75,8.78c-3.36,6.24-1.13,13.51-2.63,14.01l-3.11,1.03-.81-12.11-.5,12.72-1.04-2.46c.54-10.26-.38-19.44-2.12-28.95.52-2.81,1.87-5.86,4.29-6.35Z" fill="#bb965e"/>
  <path d="M683.89,171.29c27.04,15.13,54.77,30.74,76.55,54.63-37.44-31.64-77.7-56.97-124.48-73.66,17.61,2.87,31.78,12.23,47.93,19.03Z" fill="#ae9b7e"/>
  <path d="M537.54,154.37c-2.99-1.1-4.36-3.44-5.18-6.65,4.15.98,7.73,0,10.11-3.29s2.5-7.58.07-11.23l-1.79-2.69-.54.17-4.37-6.06,3.4-1c6.6,1.91,11.31,7.73,11.42,15.18.13,8.69-5.41,14.23-13.14,15.57Z" fill="#aa8550"/>
  <path d="M873.37,648.83l-2.55-1.02c8.74-21.99,15.15-45.03,19.54-68.01l2.96.43c-4.79,24.14-10.94,46.25-19.95,68.6Z" fill="#a28b70"/>
  <path d="M873.37,648.83c-8.57,22.67-19.22,43.45-32.08,63.91l-2.05-1.71c12.58-20.31,22.74-41.01,31.57-63.21l2.55,1.02Z" fill="#ab9678"/>
  <path d="M246.28,245.89c-22.67,21.45-38.18,46.83-55.3,72.42,13.06-28.18,32.85-51.48,53.47-74.18,1.5-1.1,3.1.56,1.83,1.76Z" fill="#ae9b7e"/>
  <path d="M188.61,324.54c-17.67,32.67-28.67,67.23-36.7,103.08,4.99-37.99,19.34-73.35,36.59-107.38,1.59,1.06,1.36,3.13.11,4.3Z" fill="#988771"/>
  <path d="M827.16,307.72l1.33-.83c14.23,23.79,26.21,48.5,33.65,76.46-9.88-25.67-20.28-51.65-34.98-75.63Z" fill="#988771"/>
  <path d="M502.59,216.71l-17.73-3.74c2.3-1.05,4.29-1.22,6.66-1.35l4-.9c10.18,1.46,20.26,5.11,29.26,11.06l-22.19-5.07Z" fill="#c2a87c"/>
  <path d="M490.63,98.64c-2.42.48-3.77,3.54-4.29,6.35l-1.49-3.48c-1.59-3.76-4.98-5.17-9.81-5.48l-.55-5.94c7.69-1.28,13.42,2.1,16.14,8.55Z" fill="#aa8550"/>
  <path d="M539.26,123.62l-3.4,1,4.37,6.06c-5.19-1.79-9.94-.04-13.58,4.28l-5.44-3.82,3.37-2.92c4.72-4.31,9.36-6.15,14.68-4.61Z" fill="#c19d65"/>
  <path d="M828.49,306.89l-1.33.83-27.92-41.29c12.58,12.26,20.76,26.26,29.25,40.46Z" fill="#ae9b7e"/>
  <path d="M324.17,183.33c-14.94,8.46-28.01,18.51-41.5,28.24,1.7-3.36,4.02-5.27,6.74-7.2,20.69-14.64,41.53-28.4,65.88-38.67l-31.13,17.63Z" fill="#ab987c"/>
  <path d="M417.56,122.69l1.04-2.66c11.43-2.81,23.19-6.17,35.89-5.29l-36.93,7.95Z" fill="#ae9b7e"/>
  <path d="M696.52,845.85l.76,1.67-8.53,4.15c-11.19,5.44-22.03,11.07-34.61,13.43l28.6-12.43,13.78-6.82Z" fill="#988771"/>
  <path d="M786.28,252.18l-25.7-25.69c2.35-.34,4.34,1.34,5.96,2.98l21.07,21.35.21.82,6.84,7.69c-3.93.18-6.74-4.04-7.62-6.87l-.76-.27Z" fill="#ae9b7e"/>
  <path d="M510.83,957.28c2.54-1.05,6,.56,6.94,2.96.7,1.77-.64,5.43-2.32,6.37-2.27,1.28-5.69.01-7.02-1.93-1.72-2.52-.93-6.02,2.39-7.4ZM515.79,961.95c0-1.69-1.37-3.06-3.06-3.06s-3.06,1.37-3.06,3.06,1.37,3.06,3.06,3.06,3.06-1.37,3.06-3.06Z" fill="#ab9678"/>
  <path d="M489.49,136.4l.5-12.72.81,12.11,3.11-1.03c1.51-.5-.73-7.78,2.63-14.01l-.07,16.21-7-.56Z" fill="#c2a87c"/>
  <path d="M897.49,543.95c-1.27.54-3.68-1.3-4.15-2.51-.52-1.35.22-4.8,1.52-4.97,2.12-.28,4.9.66,5.88,1.89,1.18,1.48-.38,4.38-3.25,5.59Z" fill="#b99d73"/>
  <path d="M895.3,467.93c1.18-.95,4.75.27,5.44,1.51.73,1.31-.29,4.27-1.75,5.4-1.04.81-3.52.24-4.77-.89s-.92-4.41,1.08-6.02Z" fill="#c19d65"/>
  <path d="M510.41,929.47c-2.27-2.36-.96-6.8,2.39-7.25,2.39-.32,4.35,3.09,3.62,5.21s-4.46,3.66-6.01,2.05Z" fill="#ab987c"/>
  <path d="M126.03,467.93c1.11-.97,4.67.19,5.43,1.44s-.12,4.04-1.62,5.4c-1.01.92-3.09.43-4.5-1.09-1.18-1.27-1.44-3.89.69-5.76Z" fill="#b09063"/>
  <circle cx="128.37" cy="539.96" r="3.82" fill="#b09063"/>
  <path d="M451.97,136.08c1.41-.24,3.64,2.08,3.79,3.37s-1.62,3.69-3.07,4.03c-1.26.29-3.22-1.41-3.91-2.61-.99-1.73,1.22-4.45,3.19-4.79Z" fill="#caaa74"/>
  <path d="M274.09,213.2c.9-.72,4.3-.45,5.14.37.99.95.35,3.88-.73,5.3-.82,1.07-3.41.45-4.86-.49-1.14-.74-.86-4.13.45-5.18Z" fill="#b29770"/>
  <rect x="253.41" y="227.21" width="17.69" height="2.12" transform="translate(-84.6 252.3) rotate(-45)" fill="#ae9b7e"/>
  <polygon points="326.86 404.6 323.9 409.88 321.67 408.64 324.5 398.46 326.86 404.6" fill="#a38862"/>
  <path d="M520.65,123.75l-2.56-7.73c-.61-2.46-.61-6.3.77-8.1l1.79,15.83Z" fill="#ccb386"/>
  <path d="M514.71,863.41l-3.26-1.31c.08-2.29.34-4.77,1.6-8.12l1.66,9.42Z" fill="#b19a79"/>
  <rect x="246.5" y="237.27" width="9.37" height="2.12" transform="translate(-94.96 247.42) rotate(-45)" fill="#ae9b7e"/>
  <polygon points="591.54 667.27 593.48 674.36 590.76 673 590.33 671.37 589.31 668.39 588.89 667.31 591.54 667.27" fill="#bda785"/>
  <rect x="795.66" y="260.06" width="2.12" height="6.36" transform="translate(47.21 640.47) rotate(-45)" fill="#ae9b7e"/>
  <polygon points="692.29 513.45 694.41 513.44 694.24 514.67 690.08 514.14 692.29 513.45" fill="#c1ab88"/>
  <path d="M516.4,95.92h-1.38c-.35-.02-.82-1.18-.55-1.4l1.21-.8.72,2.2Z" fill="#ccb386"/>
  <path d="M208.69,253.68l1.75-2.16c.12.3.45,1.52.14,1.66l-1.9.51Z" fill="#a28b70"/>
  <polygon points="629.33 254.78 629.27 253.66 632.51 250.86 629.33 254.78" fill="#b89f78"/>
  <polygon points="329.92 577.63 326.71 579.46 328.41 577.27 329.92 577.63" fill="#a38862"/>
</svg>
