<svg xmlns="http://www.w3.org/2000/svg" viewBox="0 0 1024 1024">
  <path d="M577.41,559.26l-2.84,6.63c-.53,1.23.92,4.63,1.51,5.05-1.37.55-3.97,2.08-4.75,3.35-1.63,2.67-2.56,6.05-.88,8.51,1.21,1.78,3.69,3.29,5.96,4.34-4.15,1.3-6.96-.9-9.03-5.79-2.66,1.71-4.6,4.9-4.98,7.84-.41,3.2,1.17,7.43,4.49,8.81,2.84,1.18,7.48.15,10.77-.78-.5,4-.5,8.2,1.86,11.54,1.45,2.05,5.28,3.18,8.96,4.48-2.81.14-5.73-.07-9.67-.65-1.04,3.04-.67,8.45,2.64,11.2,3.02,2.51,7.17,1.98,12.22,2.02-2.97,1.39-6.41,1.71-9.98,1.71l-.78,5.03-.74-5.93c-5.31-2.15-6.8-7.73-5.38-13.19-5.22,1.13-8.39,1.13-13.94-.01-2.3,5.48-.14,13.11,5.08,15.17,3.51,1.39,6.73.32,11.39-1.1-1.52,2.86-4.84,3.86-9.62,4.06.67,2.96,2.89,7.47,5.29,8.99,3.8,2.42,6.94,1.3,11.81,1.17-2.49,1.98-4.42,2.42-8.85,3.19,1.42,2.61,3.82,5.21,6.99,8.01-4.22,1.39-8.45-2.84-7.33-7.93-5.85-2.28-9.33-6.79-9.24-13.3l-4.51-1.94c-3.16,2.34-6.54,3.47-10.22,4.07-1.12,4.48,2.19,9.99,5.87,12.16,4.79,2.82,9.47,1.02,15.16-.55-2.42,2.87-6.38,3.88-10.13,4.32.18,3.69,3.66,8.07,7.08,9.11,4.33,1.31,7.1-.8,12.03-2.55-1.77,2.47-4.18,3.91-7.41,5.35.66,4.57,5.19,7.73,10.28,8.08-2.24,1.58-4.75,1.84-7.22.29-1.71-1.07-3.41-3.62-4.45-5.68-2.45,3.8-5.55,6.04-10.19,7.83,3.48,6.23,9.73,7.47,16.72,4.12l-4.58,4.7,10.59,5.1c-.92,1.38-5.36,1.64-7.25.27-1.4-1.02-2.96-3.66-4.13-5.77-4.92-.1-9.83-1.74-12.48-6.23-2.35,6.2-7.84,10.64-13.43,9.53s-9.36-5.91-8.08-10.73c2.26,4.11,4.76,8.3,9.44,8.24,5.32-.07,9.62-5.06,10.18-9.64-5.23-1.07-8.49-4-9.75-8.67-2.75,5.44-7.24,8.5-12.37,8.25.05-.92,2.04-2.42,3.09-2.78,2.98-1.04,5.81-3.23,8.36-6.29-5.27-2.98-8.07-6.8-8.75-11.74l-7.72,3.54c-4.02,4.34-.92,10.21,1.92,13.07l.96,3.38-2.96-1.93c.76-.45,1.25-2.22.64-2.22l-2.59-.06-2.55-6.07-5.75,2.22c-1.85-1.55-4.97-4.81-5.31-6.93l-1.45-5.24,1.7-1.27,1.11,4.05c.65,2.36,2.37,6.04,5.46,6.13s7.43-4.64,6.37-6.95c-1.43-3.1-2.46-6.11-3.21-9.01l-8.73,2.7-.71-.36-3.15-6.11,1.16-1.43c.77,1.66,2.24,3.41,3.4,4.04,1.32.71,5.06.01,6.32-.79l2.97-1.9c.73-.47-.56-2.54-.73-3.62l.88-4.42c.36,1.75,2.57,6.04,4.47,6.61,4.22,1.28,8.03-.11,12.25-1.18-3.7,5.16-9.11,5.16-15.03,3.33-.83,2.13-.74,7.89,1.24,9.31,4.2,3.01,9.48-.25,10.47-4.96.23-1.1,1.86-3.54,2.53-4.21-.44,4.6-1.06,8.83-.35,12.82.41,2.32,4.34,6.27,6.53,6.24,4.4-.06,7.49-4.86,9.7-8.07,1.18,5.66-3.23,9.12-8.78,10.29,1.07,4.81,5.78,8.07,10.56,7.78,3.97-.24,7.89-3.83,9.91-7.52-6.72-1.12-10.27-5.89-10.37-12.27-8.27-1.18-12.73-7.65-11.79-16.03-6.32.17-9.64-6.66-8.94-10.33l1.49.72c1.06,2.59,3.38,6.18,6.67,7.22,3.71,1.17,9.02-.63,11.62-2.11l-3.63-11.47-2.93.4.66-1.13,4.81-4.68c-2.23-4.06-3.85-8.77-1.87-12.57l1.76-.21c-.77,3.07.78,8.82,3.25,10.86,3.54,2.93,9.27,3.05,12.74,1.31-1.32-4.12-1.76-7.62-1.96-12.36-4.15,1.96-10.55,2.44-12.72-1.59l-1.87-3.48c-.97-1.81-.38-5.96-.24-8.36-2.04-.2-4.84-.43-6.06-1.15l2.21-1.03c12.78.59,9.87-8.81,16.29-13.37-.11-3.63.78-7.52,2.4-11.09l1.26-.03c.22,0,.69.16.92.24Z" fill="#b6a283"/>
  <path d="M379.56,347.52c1.59-1.64,3.01-4.83,2.88-6.95,9.99-10.47,23.31-14.99,38.14-16.21l8.98-.74,19.33-2.99-3.85-2.64.29-.74c4.56,1.94,9.35,2.1,13.56-1.45.56.32,1.83,1.51,1.6,2.19-.17.51-.9,2.11-1.26,2.6l-11.74,15.93c-5.1,6.92-9.25,13.75-15.48,19.62-13.69,12.9-29.31,18.44-47.58,10.89l21.13-.71c9.03-.3,16.93-6.24,23.57-12.22,6.14-5.53,10.59-12.69,15.32-19.5l7.1-10.21c-10.45,4.04-18.35,7.3-28.01,9.29s-16.78,6.89-22.07,14.95c-5.94,9.04-15.43,16.6-27.03,14.6,10.72-2.01,19.24-8.15,25.42-17.31,4.78-7.09,11.28-11.96,19.59-14.36l15.37-4.45-13.04.83c-14.03.89-25.9,5.16-36.31,14.61l-5.93,4.98Z" fill="#bea378"/>
  <path d="M673.04,537.97l-2.73,2.48-1.54.92c-.52.31-.49,2.33.13,2.4l3.85.39-6.59,1.22-1.44,3.01c-.39.82,1.65,1.5,2.45,1.08l5.45,1.61,19.75,10.08,3.28,4.52-5.93-2.01s-.35,1.99-.69,3.22l-9.7-6.49c-3.72-2.49-8.04-4.55-11.89-6.05-.04-.76-.82-1.96-1.56-1.94l-2.56.07c-.26,0-.71.02-.97-.06l-1.96-1.05-1.14.18c-7.97-5.65-24.19-6.7-35.83-5.95-2.26.15-4.63-.49-5.76-1.94,12.15-3.62,17.44,1.49,22.56.04.88-.25,2.29-1.61,2.8-2.38l6.1-9.34c3.97-6.08,7.35-5.29,7.36-7.07l.02-3.41c.39.05,1.4-.19,1.58-.67l.29-1.45,1.23.29c1.42-2,2.94-4.84,2.86-7.07l.98.1,3.7,1.75c.04,5.32-1.33,8.85-4.22,12.54l-1.15,1.47c-.19.25-.16,1.21.13,1.11l3.5-1.2c1.07,3.27-.33,6.14-4.07,8.84l3.44-.7,8.26,1.45Z" fill="#cfac72"/>
  <path d="M594.34,703.43l-.99-.14c-3.54,1.36-6.81,2.04-11.48.98,1.08,4.58-.27,7.78-3.07,13.75l9.78,1.41-2.51,1.78-4.37-.61-1.31,10.38c3.87,2.46,5.51,7.23,1.69,10.77.2-4.25-.76-7.71-2.99-10.52-4.02,3.87-9.33,5.04-12.81,1.14,5.44,1.59,11.22-.31,12.14-6.16.43-2.74-.39-7.01-1.28-8.97-3.69,1.3-6.1,1.34-7.83-.45,4.35-.54,7.66-1.56,9.64-4.61,1.64-2.53,1.74-7.17.32-10.18-3.81.19-7.22,0-12.17-.64,2.73,4.78.74,10.08-3.14,12.9s-8.55,2.59-12.92-1.54c-.89,4.51-2.36,8.7-5.86,11.15-3.74,2.62-9.3,1.99-11.77-1.43,2.53.39,6.82,1.28,8.75.66,5.28-1.72,6.79-7.83,7.09-11.76l-6.64,1.08c-5.28.86-7.83-3.33-9.55-6.76-5.44-.2-12.31-2.59-11.31-10.13,1.31,2.91,4.14,7.15,7.86,7.43,4.78.35,9.4-6.36,8.55-9.91-3.37-1.61-6.36-3.71-9.41-6.72-.78,3.28-4.1,7.86-8.17,7.54-5.48-.44-9.2-6.15-7.83-10.47l3.65,6.67c.76,1.4,5.43,1.87,6.8.89,2.71-1.93,4.94-6.24,5.49-9.1-4.78-1.25-6.81-3.04-9.39-7.23-1.55,3.73-4.59,6.64-8.06,5.13,5.5-2.62,8.69-7.95,8.01-13.1-2.63-.47-6.67-1.74-7.78-3.72-1.27-2.27-1.8-5.34-1.63-7.85l3.92,7.48c2.06,1.19,6.8.64,9.72-.25-1.26,2.99-2.2,5.83-2.19,9.06.01,4.38,4.76,10.26,8.91,7.48l7.07-4.74c-1,3.01-3.86,4.81-6.15,7.1-2.87,2.86,2.84,8.55,6.75,8.77,4.61.27,8.33-2.38,11.38-5.95.31,5.77-6.03,6.43-8.9,9.22-2.06,3.26-.68,9.39-6.29,11.32,2.16,4.4,6.04,6.63,10.62,5.53,3.62-.87,6.92-4.92,6.48-9.14-4.82-.59-8.62-3.74-9.62-7.45,3.41,2.52,6.84,4.98,10.35,4.91s6.35-2.88,9.49-5.51c-.26,4.9-5.79,6.21-8.33,8.5l-2.69,9.15c2.28,3.14,9.34,4.26,12.67,1.25,4.62-4.18,3.25-11.38.26-16.29,2.56,1.68,5.64,3.73,8.42,4.46,6.18,1.62,10.25-3.04,12.36-8.76.8,3.54-1.19,6.68-3.94,10.45,2.05,1.52,7.04,2.54,9.3.78,3.09-2.42,4.86-4.95,7.04-7.85l-2.13,8.82Z" fill="#ab987c"/>
  <path d="M667.03,699.06c.76.86,1.41,3.55,1.12,4.55-1,3.37-4.62,8.55-7.67,11.65l-9.94,10.07c-1.24,1.26-2.73,2.53-3.11,4.19l-9.88,4.94c-18.89,11.18-40.14,15.61-62.03,13.9l-12.06-.94-3.97-1.17h-1.02s-2.97-1.01-2.97-1.01l-2.16.23-1.99-2.02,4.12-.19,3,.03,2.94.97,1.16-.04,5.86,1.08,23.73-.4c14.25-1.19,27.5-5.05,39.91-11.97,25.83-14.42,38.34-44.32,25.36-71.61-1.31-1.67-2.61-3.27-2.93-5.44,6.51,4.79,8.58,12.58,10.18,20.21,2.38,11.4-.64,21.72-4.21,32.28,2.68-3.25,5.11-6.43,6.56-9.29Z" fill="#b99d73"/>
  <path d="M674.58,348.48l-8.32-.52,3.89,7.86,2.04,6.27c-10.57,1.7-27.89-1.2-36.92-7.21,4.1-7.66,3.04-13.18,6.63-21.13,1.16.16,3,.96,4.31,2.03,8.39,6.89,18.44,9.77,28.36,12.71Z" fill="#cfac72"/>
  <path d="M617.67,543.67c1.13,1.45,3.51,2.08,5.76,1.94,11.63-.75,27.86.29,35.83,5.95-8.19-2.38-16.67-4.64-25.61-4.6l-9.55.04c-9.52.04-19.28,1.42-28.11,4.82l-4.45,4.77-.07-1.11,1.95-3.27c-5.99,1.4-11.96,3.51-16,7.05-.23-.08-.7-.25-.92-.24l-1.26.03-17.08,10.75,3.13,2.05c-4.94.78-7.79,6.45-7.02,8l2.29,3.66-2.21,1.03c-1.57-.93-2.13-4.32-1.86-5.99l.78-4.81-11.63,9.92-5.32,4.82,1.84-3.04c.43-.71-.02-2.28-.74-3.07l9.28-8.84c19.99-17.51,45.04-28.23,70.98-29.86ZM554.12,572.92l-.65.02.65.02h.67l.65-.02-.65-.02h-.67Z" fill="#ccb386"/>
  <path d="M490.05,457.95l2.95-2.32c3.8,7.77,9.06,15,14.81,21.53,8.27,9.4,18.18,16.6,29.79,21.17,4.43,1.75,9.63,2.16,14.54,2.73s10.08-1.08,15.34-2.39c-.95,1.28-3.37,3.34-5.06,3.79-24.53,6.51-49.64-1.79-66.15-20.65-2.87-3.28-6.19-5.52-7.34-9.75l14.46,13.48c7.59,7.08,16.76,12.15,27.36,13.85-18.08-9.35-31.89-23.58-40.71-41.45Z" fill="#ccb386"/>
  <path d="M328.12,584.76l-.67-2.67c-.08-.53-1.17-.75-2.08-.86l1.34-1.77,3.21-1.83c5.69-3.48,10.56-8.99,16.07-13.04,21.02-15.43,47.09-20.31,75.26-47.48,1.73-1.67,2.14-5.49,6.28-4.15-11.58,15.5-27,26.45-44.02,35.33l-22.43,11.7c-12.42,6.48-23.84,14.72-32.96,24.77Z" fill="#b29770"/>
  <path d="M641.38,333.84c-.05,0,.22-.04.53-.1-3.59,7.95-2.54,13.47-6.63,21.13-1.05-.69-3.61-1.21-4.87-1.23h-1.05s-3.52-13.52-3.52-13.52c-2.45-9.13-4.15-17.25-.29-26.48l4.59,7.53,4.6,5.88,6.64,6.78Z" fill="#bb965e"/>
  <path d="M554.34,584.53l-2.2.13c-1.31.24-4.65,8.19-.37,12.5.97.98,4.34,1.33,5.56.8,1.33-.58,3.01-2.31,3.3-3.92l1.87,3.48c-.39-.12-1.17,1.25-1.31,1.78l-1.76.21c-2.54.43-5.9.45-8.84.3-2.78,3.19-3.52,9.46-1.27,13.98,1.01,2.03,5.15,3.12,7.18,2.97l-.66,1.13-8.01,1.07c-1.65.22-3.97,3.31-3.72,4.88l-1.49-.72c.79-4.13-5.29-1.96-9.15-8.95-1.25.83-4.24,3.17-4.75,4.53-.84,2.28.99,6.45,2.8,7.42,2.12,1.13,4.73,1.29,8.22,1.94l-7.37,1.6c-.42.09-1.58,0-1.7.35l-.44,1.3-.88,4.42-1.12-7.37c-3.11,2.74-6.61,4.1-11.38,3.56-.25,1.51-.16,4.61.52,6.09l-1.16,1.43c-1.85-3.6.75-7.64-2.56-10.06l1.67-4.38c-.7,2.24,2.12,6.3,5.02,5.2l8.11-3.1-2.15-7.9c-.28-1.03-1.05-2.66-1.68-3.79,4.38.18,9.55-2.14,9.69-7.21-2.35-2.83-3.52-6.62-2.41-10.35l-.33-2.58,2.88-3.91.94,2.67c.24.52,2.49.55,3.05.35l8.45-3.12,3.85-8.33,1.72-4.4c-.27,1.66.29,5.06,1.86,5.99ZM535.45,604.61c6.27,3.02,11.93-1.67,14.02-6.62l-2.77-4.94c-4.3,3.08-7.86,3.99-12.11,2.82-1.65,2.47-1.58,7.56.86,8.73ZM548.04,617.28c-2.33-4.52-2.75-7.99-2.66-11.65l-9.48,3.73c-.97,2.16,1.07,7,3.24,8.05,2.85,1.39,7.73,1.37,8.9-.13Z" fill="#b29e82"/>
  <path d="M556.42,486.77c4.47-31-2.77-60.84-22.54-84.53-7.66-9.18-16.25-15.89-25.47-23.92,38.41,18.97,61.74,68.08,48.01,108.46Z" fill="#c1ab88"/>
  <path d="M345.99,564.59c-5.51,4.04-10.37,9.56-16.07,13.04l-1.51-.36,1.93-3.92-4.5,2.04-1.14-1.77c7.11-3.26,11.87-7.02,16.97-13.18,19.21-23.2,45.58-32.53,67.1-50.78,5.63-4.77,9.97-10.51,16.04-15.1-8.24,12.89-20.35,21.69-32.79,30.32l-34.16,23.73c-7.24,5.03-13.06,10.73-18.87,17.42l7-1.44Z" fill="#b6a283"/>
  <path d="M380.41,472.17l2.18-1.22-1.79,13.41c5.7-8.38,7.47-18.69,8.4-28.82,1.17,9.54-1.3,19.49-5.75,27.71l-8.21,15.14c21.17-16.17,31.9-36.42,32.78-62.87,2.07,13.12-.9,26.71-7.83,38.71-6.21,10.77-15,19.35-24.11,27.78l-16.58,15.34c10.25-14.56,19.3-28.17,20.9-45.18ZM374.13,498.52l-.02.65v.67l.02.65.02-.65v-.67l-.02-.65Z" fill="#ae9b7e"/>
  <path d="M309.51,572.02c-.47-17.12,8.53-32.34,19.25-45.53,4.89-6.02,10.88-10.99,16.35-16.43l13.11-13.05c8.31-8.27,13.49-18.24,16.2-29.56,0,12.03-6.03,23.07-14.34,31.65l-27.9,28.79c-11.7,12.61-17.23,26.8-22.68,44.14Z" fill="#ad926c"/>
  <path d="M467.06,346.84l1.85-1.38,16.95,10.8c14.31,9.12,36.05,11.13,45.56-1.24-.57,5.19-3.84,8.42-7.2,11.42-7.02,6.27-16.39,7.54-25.68,7.31-6.66-.16-12.81.15-18.16-4.08l9.97,1.37c8.4,1.16,19.4-.69,27.43-4.14-24.43.98-34.29-8.37-50.72-20.07Z" fill="#c1ab88"/>
  <path d="M663.36,462.43c-7.69,16.16-11.11,33.75-9.97,52.05l-.83,7.15c1.06-2.17,2.34-4.87,2.71-6.74l2.87,2.3,1.15-2.91.32,5.41-1.23-.29c-.1-.21-1.69-1.37-1.72-.91l-.15,3.03-.02,3.41c-.01,1.78-3.4.99-7.36,7.07l-6.1,9.34c-.5.77-1.92,2.13-2.8,2.38l5.13-8.22c6.87-18,1.15-38.09,9.66-62.34l2.21-4.62.99-3.03,1.86-4.05,3.27.98Z" fill="#ccb386"/>
  <path d="M328.12,584.76c-14.79,16.29-24.13,37.16-25.51,59.44-.8,12.87,1.29,23.81,4.08,36.38-5.82-11.43-7.47-24.27-6.92-37.28.55-12.92,4.98-24.61,9.07-36.61.7-2.05,1.23-3.74,2.47-5.48l14.06-19.97c.92.11,2.01.33,2.08.86l.67,2.67Z" fill="#a38862"/>
  <path d="M484.94,380.73c13.65,11.6,22.02,27.28,23.64,44.72.39,4.18-.15,8.31-1.78,12.23.69-35.4-22.55-61.83-57.38-71.59,3.37-.63,6.76.11,10.65,1.24l5.19-.58,19.69,13.98Z" fill="#c0a981"/>
  <path d="M663.58,630.3l-4.51.26c-7.02-7.84-17.01-12.54-27.56-15.23-19.58-5-40.28-11.49-47.36-29.81l1.6-2.17c2.47,6.46,7.3,12.33,13.55,16.21,3.75,2.33,8.26,5.13,12.47,6.37l27.15,7.96c10.06,2.95,18.23,9.02,24.67,16.43Z" fill="#ccb386"/>
  <path d="M433.96,627.84l-.46-2.06c.06-.41-1.23-.26-1.5.03l-2.59,2.68,2.67-4.53,20.49-25.54c13.58-16.92,20.78-36.29,25.66-57.24-1.04,23.66-11.26,45.2-25.62,63.24l-18.65,23.42Z" fill="#c0a981"/>
  <path d="M663.58,630.3c16,18.4,19.14,44.38,8.62,66.89l-4.06,6.43c.29-1-.36-3.69-1.12-4.55,11.92-23.5,9.65-48.82-7.96-68.51l4.51-.26Z" fill="#bea378"/>
  <path d="M441.64,411.17c2.44,6.65,3.24,13.71,3.05,21.5-.49,20.48-9.58,39.51-24,53.18l-1.21-3.52c13.96-15.27,22.9-35.23,21.86-56.63l-.91-8.98c-.06-.6-.41-2.02-.88-2.1-.15-.46-.09-1.58.24-1.94l1.85-1.51Z" fill="#c2a87c"/>
  <path d="M719.67,459.63c-2.53,15.79-7.29,31.53-17.98,44.18l-9.4,9.64-2.22.69,4.17.53.21,1.89c-.2-.04-.96.28-1.09.34l-6.13.67-.89-.18.5-3.72,5.62-5.14c7.12-6.51,13.7-14.88,16.69-23.99l6.2-18.9,1.4-4.83,1.44-4.96,1.48,3.8Z" fill="#c2a87c"/>
  <path d="M462.7,400.58c9.78,11.03,15.61,24.99,22.26,38.6l8.04,16.44-2.95,2.32-9.57-19.4c-6.32-12.8-11.4-25.89-20.48-36.89l2.69-1.07Z" fill="#c2a87c"/>
  <path d="M536.31,588.47l-1.85,2.89-2.88,3.91-10.41,16.83-5.83,12.9-1.67,4.38-3.09,11.12-2.46-2.32,1.82-7.41c4.6-18.7,14.81-34.62,27.47-48.41.73.78,1.18,2.36.74,3.07l-1.84,3.04Z" fill="#bea378"/>
  <path d="M398.06,738.33c-21.94-24.67-24.76-63.32-11.65-91.86l-5.16,27.87c-.89,4.81-.78,9.46,0,14.2,1.15,16.5,5.81,32.01,15.84,45.26l1.58,3.44c.07.15.58.7.71.83l4.87,4.51,15.41,13.86c-8.62-3.82-15.1-10.21-21.15-17.07l-.46-1.03Z" fill="#a28b70"/>
  <path d="M412.64,673.36c-4.85,26.19,4.33,50.42,23.07,70.23-18.94-13.5-30.43-42.17-27.49-65.25l2.01-10.08,2.4,5.1Z" fill="#ad926c"/>
  <path d="M348.05,602.81l-2.6-2c13.86-16.59,31.58-28.8,49.74-40.72l19.52-12.81c-4.52,5.33-10.19,8.52-15.86,12.46-11.22,7.8-22.43,15.13-32.44,24.38l-9.86,9.11-8.51,9.57Z" fill="#ab9678"/>
  <path d="M493.24,585.35l-.73-5.12.48-16.64-.43-9.18c-.7-14.9-6.49-27.67-11.06-42.72,10.1,14.42,17.43,43.67,14.31,61.75l-2.56,11.91Z" fill="#c0a981"/>
  <path d="M379.65,437.73l-11.77,8.07c-12.2,6.01-23.85,13.43-33.06,22.84l-1.58-3.14c7.91-8.33,17.56-14.43,27.83-20.51l16.21-9.59,2.35,2.32Z" fill="#b29770"/>
  <path d="M738.45,540.13l-2.3,1.55-10.7-10.45-3.14-2.92-10.85-7.04c-1.54-1-3.62-1.91-5.12-2.22l-11.88-2.48-.21-1.89.17-1.23c14.08.23,25.13,7.52,35.85,17.04,3.36,2.98,7.48,6.03,8.19,9.65Z" fill="#bea378"/>
  <path d="M420.81,613.58l8.59-10.36c18.65-19.68,31.57-37.5,37.95-63.86-1.12,23.37-15.4,42.52-30.7,59.02-4.86,5.49-9.35,10.48-15.84,15.21Z" fill="#b6a283"/>
  <path d="M433.96,627.84c-9.4,11.81-16.06,26.06-20.36,40.44l-.86.91c-.3.32.51,1.21.76,1.12l-.85,3.04-2.4-5.1,1.2-4.93,1.09-2.99,1.02-2,.82-3.09c2.7-7.9,10.23-21.77,15.04-26.76l2.59-2.68c.27-.28,1.56-.44,1.5-.03l.46,2.06Z" fill="#b99d73"/>
  <path d="M472.02,477.69l.13,7.54c-1.48,20.43-8.76,40.68-23.81,55.33,12.45-17.17,20.17-35.52,20.59-56.63l.65-6.74,2.44.5Z" fill="#bda785"/>
  <path d="M473.29,724.42c-12.54-8.67-22.54-25.1-22.83-41.04-.19-10.83.5-21.8,7.39-29.84-8.66,22.07-6.3,44.08,7.86,61.54l7.57,9.34Z" fill="#ab9678"/>
  <path d="M391.3,687.31l-1.31,9.14c-1.55-15.64,1.92-30.97,9.66-45.08,6.92-12.62,14.92-24.64,26.22-33.93-18.73,22.46-30.4,40.82-34.57,69.87Z" fill="#ab987c"/>
  <path d="M688.63,427.54c-10.04,10.53-19.05,21.81-25.27,34.89l-3.27-.98c6.25-13.58,15.25-25.65,25.94-35.98l2.61,2.07Z" fill="#c2a87c"/>
  <path d="M520.58,530.3c-11.74-3.7-20.71-12.12-28.53-21.29-6.45-10.06-13.69-19.48-15.38-31.69,4.42,9.52,8.77,18.41,15.42,26.58,7.51,10.96,17.02,18.54,28.48,26.4Z" fill="#bda785"/>
  <path d="M326.86,404.6l-2.36-6.14c2.91-10.45,19.28-3.87,24.9-16.03-.27,4.98-3.64,8.06-7.46,10.39l-3.16,7.89c-1.91,4.77-8.24,4.18-11.93,3.89ZM338.15,395.18c-3.77-.5-9.01,1.57-11.26,5.62,4.32,1.64,9.1.31,11.26-5.62Z" fill="#b89f78"/>
  <path d="M510.58,640.51l-2.57,16.58c-1.14,7.36-1,14.78.38,22.24l3.93,21.17c-5.36-10.62-9.12-32.57-7.33-43.4l3.13-18.92,2.46,2.32Z" fill="#a28b70"/>
  <path d="M535.45,470.83c1.83-14.13,1.81-26.84-3.66-39.64-2.68-9.17-8.28-16.11-14.38-24.4,14.4,10.83,21.4,29.34,21.2,47.69-.06,5.95-.38,11.22-3.16,16.36Z" fill="#b6a283"/>
  <path d="M426.22,452.28c-.39-1.01-.27-3.83,0-5.91,2.35-18.57-4.92-34.66-15.58-50.31,16.19,12.99,21.96,35.65,15.58,56.22Z" fill="#b19a79"/>
  <path d="M505.16,597.83c1.4-9.88,2.7-19.17,2.52-29.41-.18-10.49-3.48-19.73-6.3-30.11,6.33,8.67,7.09,19.06,8.85,29.6.5,9.7.06,20.22-5.08,29.92Z" fill="#b29e82"/>
  <path d="M553.39,545.18c-17.46-4.57-33.71-18.88-40.67-37.22,10.79,15.33,22.65,27.64,40.67,37.22Z" fill="#c1ab88"/>
  <path d="M604.08,576.58c.59-3.1,1.68-6.65.88-9.34-1.19-4.04-5.02-4.01-8.63-4.1,1.12-1.79,4.67-2.38,7.02-1.17,1.77.91,3.36,3.82,4.26,6.97l6.79.36c1.36-2.36,2.46-6.61.06-9.17-1.66-1.77-6.09-1.81-9.06-2.05,2.69-1.93,7.44-2.35,10.33-.54,3.36,2.11,3.43,7.11,1.22,10.68-2.4,3.87,5.45,8.7-1.44,15.04.67-3.99,1.16-6.71-.11-9.23-1.06-2.12-5.26-3.91-7.23-3.62l-4.1,6.16Z" fill="#bda785"/>
  <path d="M555.46,743.26l-4.12.19,1.99,2.02c-15.61-4.38-37.82-12.61-48.59-26.25,15.12,11.29,31.98,20.35,50.72,24.04Z" fill="#b19a79"/>
  <path d="M522.95,576.58l-.85-10.85c-1.12-14.31-8.59-25.97-15.79-38.32,12.41,10.99,21.63,34.68,16.64,49.17Z" fill="#b6a283"/>
  <path d="M420.7,485.84c-8.87,8.41-18.77,16.43-31.87,20.65,10.8-7.32,21.69-14.36,30.66-24.17l1.21,3.52Z" fill="#b19a79"/>
  <path d="M346.94,634.91l-1.58-2.89c9.1-14.9,20.63-27.16,35.18-36.97-1.72,3.83-5.5,5.31-8.17,7.95-9.93,9.81-18.72,19.78-25.42,31.91Z" fill="#a28f76"/>
  <path d="M489.79,729.51c-9.69-7.83-22.04-25.91-21.02-39.3,2.71,10.01,6.53,19.32,13.33,27.64l8.52,10.43.66.65,4.93,3.59,16.46,11.79c-8.57-2.9-15.56-8.26-22.02-14.1l-.86-.7Z" fill="#ab9678"/>
  <path d="M433.3,382.58c14.7,8.82,27.51,28.76,26.77,46.24-3.36-18.48-12.66-33.27-26.77-46.24Z" fill="#ab9678"/>
  <path d="M593.48,674.36c4.28,13.26,14.56,23.08,28.12,27.65-7.56-.5-13.9-4.72-19.48-9.44-5.94-5.02-9.65-13.17-11.36-19.57l2.71,1.36Z" fill="#ab9678"/>
  <path d="M591.46,664.32c-.22-.03-1.65,1.38-1.69.91l-.25-2.84-1.29-5.96.09-1.16.8-4.95c1.35-8.32,5.1-15.75,10.74-22.47,2.13-2.54,4.16-4.97,7.65-5.49l-7.08,7.23c-4.7,6.25-8.8,14.65-8.87,22.68l-.1,12.04Z" fill="#bda785"/>
  <path d="M379.56,347.52c-5.31,5.48-11.11,5.99-16.94,12.22-.12-8.57,10.27-9.16,19.82-19.17.13,2.12-1.29,5.31-2.88,6.95Z" fill="#b29770"/>
  <path d="M635.28,354.88c9.03,6,26.34,8.9,36.92,7.21l8.91-1.43,3.26.02c-17.42,5.74-39.03,3.38-53.96-7.02,1.26.02,3.82.53,4.87,1.23Z" fill="#c1ab88"/>
  <path d="M626.36,562.83c.18-1.85-4.04-4.11-5.94-5.04,5.19-3.42,13.59,2.23,17.41-8.51,1.2,2.78.27,5.91-1.94,7.36-2.37,1.56-5.22,1.87-8.81,2.05,2.85,4.87.95,11.4-4.6,12.87,1.51-2.37,3.59-5.64,3.89-8.72Z" fill="#c1ab88"/>
  <path d="M379.65,437.73l-2.35-2.32c8.71-6.64,10.72-16.82,12.71-28.15,2.44,9.42-3.24,25.59-10.36,30.47Z" fill="#b19a79"/>
  <path d="M411.31,344.61c5.43-4.46,11.89-5.35,18.21-8.05l15.55-6.63c-5.15,5.96-12.88,8.61-20.36,10.78l-13.41,3.89Z" fill="#b29e82"/>
  <path d="M462.7,400.58l-2.69,1.07-4.31-5.23c-6.41-7.76-14.71-12.98-23.08-19.75,11.85,5.03,21.49,14.2,30.09,23.9Z" fill="#a28f76"/>
  <path d="M334.16,550.71c-.74-5.43,1.31-9.9,2.76-14.99,5.43-9.28,10.91-18.73,20.57-25.23-10.77,11.74-19.56,24.27-23.33,40.22Z" fill="#ab987c"/>
  <path d="M586.08,721.22l2.51-1.78c6.78-4.05,6.78-6.98,4.77-16.14l.99.14c2.62,3.68,7.69,1.96,11.04-1.26-.47,4.31-5.52,5.31-8.64,5.34.41,3.03.23,7.57-1.53,10.18s-6.36,3.92-9.14,3.53Z" fill="#ae9b7e"/>
  <path d="M441.64,411.17l-1.85,1.51c-3.48-8.28-7.46-15.85-12.39-24.24,7.45,5.93,11.22,14.5,14.24,22.73Z" fill="#ab9678"/>
  <path d="M472.02,477.69l-2.44-.5-1.37-11.53-2.51-16.32c4.53,8.97,6.15,18.73,6.31,28.34Z" fill="#ab9678"/>
  <path d="M591.53,556.6c-6.55,7.02-9.3,17.54-5.79,26.74l-1.6,2.17c-4.11-10.63-1.73-22.84,7.32-30.03l.07,1.11Z" fill="#b29e82"/>
  <path d="M493.24,585.35c.62,4.33-5.68,21.21-9.68,26.88,3.73-11.62,6.93-21.41,8.95-32l.73,5.12Z" fill="#a28f76"/>
  <path d="M323.9,409.88c-4.36,7.78-6.27,18.53-13.29,25.86l7.59-17.76,3.48-9.35,2.23,1.25Z" fill="#ae9b7e"/>
  <path d="M561.06,691.99c-2.91-.67-6.38-4.44-6.48-6.4,3.76,2.86,7.62,4.61,12.23,3.77,2.96-.54,5.52-4.39,8.38-8.15-.65,6.24-6.29,12.6-14.13,10.79Z" fill="#ab9678"/>
  <path d="M586.11,735.05c3.61-.59,8.05-.6,9.64-4.61,1.36-3.42.36-8.05-.2-12.33,3.49,3.25,4.87,8.58,2.58,12.43-2.3,3.87-7.01,7.99-12.02,4.5Z" fill="#ab9678"/>
  <path d="M485.52,338.58l-11.2-6.67c-5.14-3.06-10.35-5.37-15.08-9.44,10.04,3.28,18.47,8.71,26.28,16.11Z" fill="#ab987c"/>
  <path d="M600.02,587.61c.26-2.83.73-6.86-.06-9.91-.54-2.1-5.16-3.92-7.51-4.77,3.66-1.65,7.27.27,9.43,3.61,2.01,3.11,3.01,8.14-1.87,11.07Z" fill="#b6a283"/>
  <path d="M549.39,730.47c3.9-.14,9.11.47,11.32-2.95,1.73-2.69,2.37-6.76,3.16-10.26,2.46,3.88,1.06,8.95-1.95,12.1-3.3,3.46-8.68,3.76-12.53,1.1Z" fill="#ab987c"/>
  <path d="M389.99,696.45l1.31-9.14c-.28,10.04,1.01,19.66,3.11,30.14-3.1-6.34-5.4-14.22-4.42-21Z" fill="#988267"/>
  <path d="M468.91,345.46l-1.85,1.38-16.67-11.87c7.23,1.47,12.61,6.72,18.52,10.49Z" fill="#ab9678"/>
  <path d="M311.67,479.61l-.77-2.29,11.69-14.77c-1.41,6.45-5.99,12.58-10.92,17.06Z" fill="#ab987c"/>
  <path d="M398.36,358.27l18.79-6.39c-4.4,5.5-11.72,7.39-18.79,6.39Z" fill="#ae9b7e"/>
  <path d="M587,483.04l-4.06-4.04,3.99-4.96c.94,1.21,3.77,4.08,5.06,5.12-1.53.35-4.25,2.47-4.99,3.89Z" fill="#ccb386"/>
  <path d="M382.59,470.95l-2.18,1.22c.64-6.89-.02-13.62-.39-20.71,2.14,6,3.46,12.77,2.57,19.49Z" fill="#988267"/>
  <path d="M415.86,348.91l-9.15,1.11c6.05-3.77,11.1-3.95,17.44-4.8-2.56,2.38-5.51,3.36-8.29,3.69Z" fill="#b29e82"/>
  <path d="M353.58,678.78l-1.95.51c.46-7.35,1.25-14.82,3.75-21.78l-1.81,21.27Z" fill="#988267"/>
  <path d="M606.37,719.91c4.21-3.37,6.23-7.05,4.11-13.44,1.64,1.77,3.34,5.21,2.86,7.18-.75,3.06-2.18,7.65-6.97,6.27Z" fill="#ab987c"/>
  <path d="M605.54,553.81l-3.19,6.27c-3.17-3.82,4.35-10.79,8.33-9.54,1.13.35,2.44,2.4,2.89,3.83l-4.09-2.46c-.87-.53-3.41,1.02-3.94,1.91Z" fill="#c1ab88"/>
  <path d="M520.08,645.92l.11,7.14-1.11-4.05-1.7,1.27c-1.8,1.35-3.27,2.32-6.3,2.91l4.46-3.83,3.83-3.81.71.36Z" fill="#a28b70"/>
  <path d="M298.64,465.78l-2.85-7.39c.68-.62,2.39-.98,3.33-.86.75.1,1.88,2.32,1.82,3.07-.13,1.56-1.26,4.31-2.3,5.19Z" fill="#ad926c"/>
  <path d="M591.46,664.32l.08,2.94-2.65.04-.66-10.87,1.29,5.96.25,2.84c.04.47,1.47-.94,1.69-.91Z" fill="#ab9678"/>
  <path d="M652.79,654.58l-3.58-2.96c1.84-.35,3.2.62,3.58,2.96Z" fill="#b99d73"/>
  <path d="M667.43,554.34l-4.11-1.86,2.56-.07c.74-.02,1.51,1.18,1.56,1.94Z" fill="#ccb386"/>
  <path d="M413.49,670.32c-.25.09-1.06-.8-.76-1.12l.86-.91-.1,2.04Z" fill="#ad926c"/>
  <path d="M542.58,668.57c-1.04.36-3.04,1.86-3.09,2.78l-2.15-.84-.96-3.38,6.2,1.43Z" fill="#ab9678"/>
  <path d="M534.38,668.59c-.55-.48-1.66-1.59-1.95-2.28l2.59.06c.61,0,.13,1.78-.64,2.22Z" fill="#ab9678"/>
  <path d="M664.58,507.78c-1.53.93-2.19,2.71-2.11,4.83s-1.44,5.07-2.86,7.07l-.32-5.41c6.99-25.68,21.43-48.88,39.95-68.6l11.24-11.98c3.26-3.47,5.78-7.75,10.2-9.66l-26.4,31.55c-13.14,15.7-23.81,33.14-29.7,52.21Z" fill="#c1ab88"/>
  <path d="M716.32,459.55l.44,1.25-1.4,4.83-.59-3.18c-5.38,8.19-10.84,14.66-17.41,21.16l-17.5,17.3-6.8,7.73,1.02,1.39,8.15-7.57,24.86-19.93.18,1.44-32.65,28.67,1.36,1.08c5.87-3.49,11.18-8.58,18.68-10.33-8.39,7.09-18.06,10.18-24.68,19.44l16.87-9.16-.5,3.72c-4.25,2.75-10.12,3.67-12.51,9.46,11.23-4.24,21.02-7.37,32.77-6.16l-.26-1.65c1.5.31,3.58,1.22,5.12,2.22-10.87.52-22.93,1.08-32.71,6.66l-11.57,6.59,14.24-2.89,20.47-3.74c6.21-1.14,12.5-.28,18.68,1.51l1.74-1.08,3.14,2.92-14.4-1.44c-12.61-.29-24.76,2.83-36.22,6.29l4.58,2.36c-1.02.03-2.72,1.09-3.07,2.04l-2.98-.05,1.65-1.24c.26-.19.09-.85-.2-.9l-1.78-.32-8.26-1.45-3.44.7c3.74-2.7,5.14-5.57,4.07-8.84l-3.5,1.2c-.3.1-.33-.86-.13-1.11l1.15-1.47c2.89-3.69,4.26-7.22,4.22-12.54l-3.7-1.75,1.13-4.93c.96-.58,1.92-1.88,2.76-3.32,6.28-10.77,13.54-20.65,22.1-29.95l24.99-27.14c-3.25,7.01-8.05,12.6-13.1,18.17l-10,11.02c-7.81,8.61-15.38,17.14-20.18,28.75l23.79-23.09,8.6-7.71,6.18-7.36,6.6-7.6ZM668.4,509.2c1.76-.61,2.23-2.23,1.53-3.72l-1.53,3.72ZM669.85,512.51l-.02.65v.67l.02.65.02-.65v-.67l-.02-.65ZM672.01,515.98l-.65.02.65.02h.67l.65-.02-.65-.02h-.67ZM668.01,523.97l-.65.02.65.02h.67l.65-.02-.65-.02h-.67Z" fill="#c1ab88"/>
  <path d="M673.36,540.43l-.08,2.46,10.96,1.9,45.06,7.51c-.45.8-3.06,1.38-4.32,1.33-9.1-.39-20.79-2.2-30.53-4.15-8.11-1.63-15.04-3.61-23.5-3.76l30.77,10.19c11.6,3.84,23.44,6.1,35.47,7.62l19.22,2.42-15.8.15c-14.61-1.14-28.26-4.2-42.34-8.73l-27.13-8.73c-1.09-.35-3.2.41-3.99.83s-2.84-.27-2.45-1.08l1.44-3.01,6.59-1.22-3.85-.39c-.61-.06-.65-2.08-.13-2.4l1.54-.92,2.73-2.48,1.78.32c.29.05.46.71.2.9l-1.65,1.24Z" fill="#bda785"/>
  <path d="M658.38,519.39l-.29,1.45c-.19.47-1.19.72-1.58.67l.15-3.03c.02-.46,1.62.7,1.72.91Z" fill="#c1ab88"/>
  <path d="M698.44,431.96c-11.69,12.75-22.06,26.98-29.32,43.28-5.79,13-8.55,26.44-11.88,40.19l.89,1.75-2.87-2.3c2.68-13.41,5.14-26.78,10.78-39.6,7.53-17.14,17.69-31.63,30.1-44.81l2.3,1.49Z" fill="#c1ab88"/>
  <path d="M724.98,553.63c1.26.05,3.87-.53,4.32-1.33,6.43,1.07,12.76,1.61,19.17,3.96l-18.2-1.77-5.29-.87Z" fill="#ab987c"/>
  <path d="M673.28,542.9l.08-2.46,2.98.05h1c2.5.91,6.53.92,9.02.06l32.13-.29c-10.26-3.48-21.4-2.31-31.24-2.03l-7.83.22-4.58-2.36,8.45-.41,23.08.05c3.21,0,8.29,1.35,11.41,2.3l16.64,5.1-7.16-.55-53.98.32Z" fill="#b29e82"/>
  <path d="M686.36,540.54c-2.49.86-6.52.85-9.02-.06l9.02.06Z" fill="#c1ab88"/>
</svg>
