<svg xmlns="http://www.w3.org/2000/svg" viewBox="0 0 1024 1024">
  <path d="M629.27,253.66l.06,1.11.06,1-1.01.96.06,1.09c-1.07.3-2.46.97-2.83,1.8-.3.67-.29,2.39-.24,3.12l.07,1.04c-2.64,1.35-4.43,6.59-3.41,8.89l.56,2.13h-1.65c-.37.05-.44,1.25-.48,1.82l-.75,10.23,1.64,13.87c.07.6.29,1.77.65,1.84l1.49.08-.17,1.09,1.01,1.96.04,1.06c.07,1.82.25,5.36,1.19,6.9-3.86,9.23-2.16,17.35.29,26.48l3.52,13.5c-8.5-5.26-15.91-12.53-21.33-20.78,6.28-6.21,7.69-16.87,3.75-26.32,2.22-4.85,2.35-10.28-.18-14.94-1.72-4.92-1.76-9.56.64-14.25l-1.16-8.23c-.7-4.97.27-7.16,2.19-11.59l4.39-10.12-5.32,3.48c.36-1.42,1.98-3.81,3.12-4.84l6.09-5.49,7.72,13.11Z" fill="#aa8550"/>
  <path d="M757.26,571.3l3.99-.85,2.19-.26.98,2.28c-11.53,3.39-23.56,2.91-36.29,3.17-10.98-1.37-21.28-4.63-31.23-8.31l-.71.77,18.48,18.09c18.15,21.7,28.99,48.25,30.77,76.15l-.22,8.82c-.01.48.82,2.67,1.03,2.13l-.02,7.07-1.23-2.98c-.23-.77-1.47-2.63-2.21-2.32s-1.4,1.56-1.5,2.37c-4.67,34.89-34.33,65.36-66.66,78.21l-2.33-1.73c25.87-12.17,44.86-26.96,58.12-53.51,11.3-22.62,13.15-47.52,4.47-70.99l-1.82-6.36-.93.95-1.24,1.39c-6.31-23.02-22.25-45.39-41.86-58.51.34-1.23.7-3.25.69-3.22l5.93,2.01-3.28-4.52c16.37,7.91,34.08,12.39,52.81,11.02l12.08-.88ZM695.82,566.96l-1.23-.08,1.23.08ZM732.75,622.64l-1.56-2.74.43,3.43,1.13-.69Z" fill="#bea378"/>
  <path d="M348.05,602.81c-10.47,11.79-17.77,25.11-22.98,39.91-9.77,26.77-6.29,55.39,8.8,78.85l.73-1.23c-1.89-7.25-4.71-14.47-4.71-22.01v-21.05c1.25-16.3,7.11-31.56,15.47-45.25l1.58,2.89c-10.34,18.68-15.96,39.62-13.79,60.92,1.84,18.02,7.34,35.48,18.79,49.05l12.12,14.35-1.87,1.42c-11.49-9.73-21.29-21.79-30.17-34.64-9.25-13.4-14.11-27.96-15.93-44.13-3.34-29.64,10.48-58.46,29.36-81.07l2.6,2ZM335.33,721.36l-.09,1.55.09-1.55Z" fill="#a18662"/>
  <path d="M375.52,835.81l.17,3.49-3.97,1.14-3.09.86-4.96.96-2.99,1.02c-30.9,4.47-62.93-5.3-85.05-27.66-17.91-19.67-17.99-47.54,2.87-62.97,4.37-3.23,11.27-5.37,17.26-6.14,12.31-1.6,24.3,4.64,30.51,15,4.93,8.23,4.99,19-1.29,25.68-5.01,5.33-13.05,5.7-17.87.62-2.37-2.5-2.16-7.83.97-9.93-.21,2.76-.43,6,.69,7.84,1,1.65,4.77,2.83,6.67,2.6,9.36-1.1,13.55-12.35,9.59-21.68-5.6-13.18-20.99-19.41-35.03-14.97s-23.54,17.04-23.9,32.01c-.31,12.89,6.57,25.02,16.51,33.8,25.12,22.2,61.78,29.52,92.9,18.32Z" fill="#a18662"/>
  <path d="M608.02,332.86c-14.96-22.78-15.61-51.88-1.11-75.61,1.46-2.39,3.48-5.09,5.42-6.37l5.32-3.48-4.39,10.12c-1.92,4.43-2.89,6.62-2.19,11.59l1.16,8.23c-2.4,4.7-2.35,9.33-.64,14.25,2.53,4.66,2.41,10.09.18,14.94,3.94,9.45,2.52,20.11-3.75,26.32Z" fill="#9b7645"/>
  <path d="M286.65,464.43v3.21c0,1.56,2.47,3.96,3.49,4.87l5.51-8.07,1.03-1.51c.3-.44-.38-1.59-.91-1.54l-3.05.31,3.08-3.33,2.85,7.39c-3.54,2.98-6.2,8.76-2.41,13.52,2.17,2.73,6.77,2.25,9.73.61l4.94-2.58.77,2.29-4.14,3.76c2.29,1.18,5.88,2.52,7.85,2.03,6.48-1.64,10.22-6.82,12.61-12.56,1.24-2.99,3.37-5.35,5.25-7.33l1.58,3.14c-4.18,4.27-4.12,9.42-9.63,15.09-6.32,6.51-13.49,6.17-20.89,2.24-2.78-1.48-8.73-.68-10.71-4.27-1.98-3.6-4.16-6.16-7.63-8.58s-4.28-8.03-2.79-12.3c5.68-16.27,11.76-31.94,14.4-49.23l-.05-13.04c-.02-4.88-2.14-10.88-.41-15.52l8.77-23.43c.83-.78,2.08-2.16,2.59-3.06l4.33-7.64c2.77-4.9,5.55-8.9,11.59-11.46-.91,2.34-2.2,4.12-3.91,6.06-7.61,8.65-11.51,19.42-16.01,29.89-3.51,8.17-3.88,15.34-2.94,24.38l.82,7.9-.64,6.92c-3.14,15.55-7.44,30.05-13.25,44.66-.92,2.32-1.82,5.37-1.81,7.18Z" fill="#a38862"/>
  <path d="M485.5,756.97l.98,2.11c-2.07.17-4.94,1.04-7.16,1.79,30.35.06,55.75,10.77,80.13,27.32,46.19,29.58,88.62,40.05,138.11,11-26.59,21.16-63.32,24.97-94.95,14.07l-26.26-10.98-37.55-22.28c-13.52-8.02-28.12-12.13-43.75-14.21l-20.53-.46,1.81-3.29c.52-.8,1.23-2.89,1.18-3.74l2.06-.06c.3.25,1.96,1.34,2.23.78l.79-1.66,2.91-.39Z" fill="#b89f78"/>
  <path d="M686.35,832.72l-.76-1.64c13.74-6.89,26.45-14.46,38.43-24.09,24.98-20.1,41.4-47.86,44.82-79.97l.19-26.54c.01-2.13-1.94-4.8.66-6.82l1.37,10.57-.14,23.96c-2.02,24.18-12.9,45.17-28.16,64.02,3.31-1.08,6.31-3.43,8.7-5.84l26.33-26.54c11.84-11.93,19.81-25.96,29.54-39.63-7.46,15.85-17.3,30.26-29.61,42.57l-23.93,23.94c-20.64,18.38-42.83,33.91-67.42,46.01Z" fill="#b29e82"/>
  <path d="M495.52,210.72l-4,.9c-2.37.13-4.36.31-6.66,1.35l17.73,3.74-27.76.46c-8.25.12-16.08,3.04-23.28,5.45l-2.03-2.97,18.89-5.31-1.4-2.59c-2.82-.24-7.86,1.32-10.51,2.32-2.94-.45-8.06-1.94-9.61,2.34-3.5-3.06-10.12,1.05-10.14.95l.7,3.36-4.33-2.74-9.55,3.77c1.33,2.32,1.85,3.57,1.68,4.23l-4.69-3.27-8.24,4.4,2.3,4.38-4.52-2.73c-.79-.48-2.8.43-3.59.95l-2.01-3.05,1.13.33.9-1.48c15.51-8.46,32.59-15.64,50.95-16.61l7.95-.42c4.62-.24,8.86-.79,13.35-.15l16.74,2.4Z" fill="#ccb386"/>
  <path d="M421.08,779.22c.44.58,2.06.36,2.05.79l.18,2.29-18.46,11.21-26.04,13.97c-22.72,10.56-54.36,16.4-75.62,4.3-9.61-5.47-17.66-14.89-16.92-26.31,3.07,7.73,5,14.2,11.19,19.08,20.83,16.43,50.16,11.65,74.31,1.71,12.64-5.2,23.8-12.46,35.59-19.2l13.71-7.83Z" fill="#a88e68"/>
  <path d="M348.58,267.55c-3.33,9.15-5.78,18.96-7.1,29.46l15.01-25.38,1.96,5.19.33.8-1.41.81c-2.67,1.54-7.91,9.51-5.45,12.41l-2.66.55-4.97,8.57,6.44,3.8-4.06-.18-3.65-.84-3.95,11.37c4.06,1.98,8.21,2.81,12.65,2.66l2.08,1.91c-6.09.37-10.26-.36-15.89-2.18l-3.79,11.54c5.76,2.93,10.62,2.84,17.28,2.12-5.53,4.16-11.17,3.06-17.31.3-1.73,3.82-2.57,8.12-2.3,12.14l-2.34.98c-2.18,2.88.66,7.91,4.71,8.55l6.78,1.08c-4.14,3.19-9.04.95-11.92-1.5-3.33-2.84-2.6-7.07-1.62-11.24,2.66-11.35,6.04-21.77,9.86-33.13,1.59-4.72.18-19.09,7.98-40.78l3.33,1Z" fill="#ad926c"/>
  <path d="M508.11,789.89l.05,2.75c.02.34-2.04-.95-1.66-.35l-1.03.07-3.92-1.15h-1.04c.05-.42-.99-.92-1.5-.92s-1.55.5-1.51.97l-11.12-.46-9.92.48c-16.36.8-31.71,6.6-45.19,15.7l-30.32,20.49c-7.98,5.39-16.51,9.32-25.26,11.84l-.17-3.49c13.77-4.96,26.12-12.58,38.29-21.39,31.27-22.65,56.09-32.16,94.31-24.53Z" fill="#ad926c"/>
  <path d="M336.54,249.22c-.5,5.89-5.55,8.45-7.49,15.26l8.89.69-10.83,3.09-4.36,12.73-4.47,13.59,10.89-3,.65.96-11.79,4.88-2.59,10.99c-.11.47,2.11,1.72,1.97.96l.05,2.27c-1.15.49-2.54,2.76-2.7,3.96l-1,7.47,12.72-4.59-.2,1.29-12.54,6.95.06,10.15,9.09-4.55c-2.6,4.19-7.89,5.05-12.18,11.59-3.66-30.89,6.66-71.53,23.38-96.33l2.46,1.63Z" fill="#a18662"/>
  <path d="M841.29,712.74c-12.11,19.27-25.29,37.02-40.62,54.02l-28.92,28.95c-22.67,20.69-47.1,38.49-74.47,51.8l-.76-1.67c27.92-13.81,52.56-32.45,75.77-53.62,26.24-23.94,48.28-51.06,66.95-81.2l2.05,1.71Z" fill="#b29e82"/>
  <path d="M745.45,687.45c-1.61,22.36-10.04,43.68-24.4,61.54l-14.01,14.08c-17.44,13.49-38.23,23.45-60.96,23.79,55.49-9.05,92.06-47.55,96.43-103.53l2.94,4.12Z" fill="#b89f78"/>
  <path d="M376.58,293.71l.14,1.03-.98,1.3-7.55,23.81c12.55-4.46,23.52-8.64,36.38-9.09,14.16-.49,28.36,1.2,40.76,6.5l-.29.74-25.03-3.92c-5.73-.97-11.42-.11-17.38.37-12.47,1-24.6,4.2-35.48,9.29l-2.81,18.89c-3.64-4.15-2.06-7.77-1.78-11.94.99-15.16,6.55-29.01,12.96-42.05l1.06,5.08Z" fill="#ad926c"/>
  <path d="M643.25,828.86l2.07,1.73-13.84,2.02c-16.32,2.38-42.37-3.98-57.93-11.58l-40.19-19.64-26.86-9.1c-.38-.6,1.68.7,1.66.35l-.05-2.75,7.19,1.43c10.95,3.16,20.91,7.95,30.99,13.02l28.59,14.39c18.12,9.12,38.17,13.48,58.39,11.24l9.97-1.1Z" fill="#b19a79"/>
  <path d="M189.19,716.36l-1.92.93c-26.6-41.07-44.97-86.41-54.66-134.54l-.33-2.44c-.07-.52,2.11-.76,2.5-.65,9.31,48.9,28.01,94.7,54.41,136.69Z" fill="#988267"/>
  <path d="M721.69,688.35c-11.7,25.3-30.83,46.85-56.64,57.84,23.16-14.24,42.24-31.93,53.1-56.94,9.95-22.94,10.94-46.94,2.8-71.04,5.6,7.22,6.31,16.31,7.59,25.2,2.22,14.46-1.6,30.11-6.85,44.95Z" fill="#b6a283"/>
  <path d="M438.33,787.53c-14.06,6.67-25.17,15.55-38.04,23.24-16.59,9.92-34.19,17.83-53.79,18.16,14.84-3.1,29.37-6.13,42.47-14.34l31.35-19.64c14.65-9.18,30.06-17.04,47.49-19.2l27.66-.28c3.63-.04,7.82,1.46,11.15,2.69l-16.45-1.53c-17.8-1.65-35.18,3-51.84,10.91Z" fill="#ab987c"/>
  <path d="M325.83,575.4c-20.19,12.37-40.74,25.88-52.46,47.63-9.82,18.22-10.56,30.97-3.64,50.42-9.65-13.87-8.07-33.21-.43-48.71,10.99-22.31,33.52-41.08,55.4-51.11l1.14,1.77Z" fill="#a28b70"/>
  <path d="M803.21,575.36l-1.32,2.46-14.83-5.38-22.64.03-.98-2.28,12.16-1.29-5.83-2.16c-6.89-2.55-14.25-5.99-19.67-11.32l-13.96-13.74,2.3-1.55c1.23.78,3.74,2.46,5.08,3.96,22.55,25.16,44.31,21.58,59.69,31.27Z" fill="#a88e68"/>
  <path d="M406.51,229.7l-4.96,3.25,4.01,4.84-6.88-3.26-8.58,6.33c-.54.4-.32,3.8-.99,3.71l-3.16-.44-10.4,10.09,7.4,5.43c-3.89-.16-5.45-1.48-8.9-4.06l-8.18,9.19,10.96,5.77c-5.01.44-8.19-.95-12.09-3.82l-6.31,10.08-1.96-5.19c4.41-7.45,10.39-13.83,16.71-20.31l5.96-6.1c7.47-7.66,16.48-13.25,25.35-18.57l2.01,3.05Z" fill="#b89f78"/>
  <path d="M642.28,228.67l3.32.38,3.22-.3c.68-.06.92,2.97.43,3.42l-10.48,9.7c-2.69,2.49-4.58,4.01-5.87,6.72l.5,1.16-.88,1.1-3.24,2.8-7.72-13.11c5.9-5.32,13.22-9.35,20.73-11.89Z" fill="#c19d65"/>
  <path d="M686.35,832.72c-42.06,20.69-93.74,36.28-135.07,8.78-2.05-1.37-3.96-3.21-4.98-4.58l-.82-.58-2.55-1.53,1.73-.62,1.83,1.54c.12.1.48.21.98.39,13.77,10.5,29.66,16.23,46.97,17.47l16.95-.03,12.15-1.09,9.83-1.31c18.24-5.13,35.4-11.63,52.22-20.07l.76,1.64Z" fill="#a28f76"/>
  <path d="M718.12,276.57l-1.08,1.8c-2.27,1.23-2.29,4.36-2.04,7.41l1.13,13.97-.24,1.84,4.81-.35,1.32,5.91-1.09,1.99c-4.96-.99-8.92-2.74-10.36-7.5l-8.17-.03c-1.04,0-3.41-2.23-3.01-3.22,2.1-5.21,6.84-4.79,7.64-9.75,1.1-6.81,5.24-9.73,11.1-12.07Z" fill="#a38862"/>
  <path d="M380.35,205.81l-.83,3.35c-.19.75-2.57.18-3.47.23l-11.09,8.14,5.06,3.18-7.35-.88c-2.81,2.26-6.25,5.4-8.39,8.44-1.53,2.18-2.82,2.67-4.7,4.72l-6.1,6.64c.09.69.31,2.04.73,2.08l2.43.23,2.01.19c.33.03-1.14,1.3-1.47,1.34l-6.51.84-4.11,4.92-2.46-1.63,6.58-9.76,10.67-12.39c8.29-9.62,18.45-16.74,29.19-22.86l-.18,3.22Z" fill="#b29770"/>
  <path d="M420.88,239.14c-14.04,8.66-30.41,29.72-39.11,45.71l-5.19,8.86-1.06-5.08c10.07-20.48,24.57-38.77,43.01-52.14l2.35,2.66Z" fill="#c2a87c"/>
  <path d="M264.66,687.4l.97,1.53c.21.35-1.92.26-1.86.37l-1.06.13-2.9-1.11c-15.51-1.06-29.15,9.78-30.19,25.92-.99,13.63,6.73,24.72,17.21,31.85l-1.22,1.41c-10.12-5.76-17.57-15.78-18.86-28.16-1.87-17.93,11.65-34.16,29.92-33.87,2.36.04,6.1,1.29,7.98,1.93Z" fill="#a38862"/>
  <path d="M186.01,677.17l-3.74-7.43c-14.14-28.11-25.15-57.54-29.18-90.14,10.38,44.17,26.86,86.59,51.18,126.66-8.12-8.38-13.11-18.85-18.26-29.08Z" fill="#988771"/>
  <path d="M477.52,758.29c.06.85-.66,2.94-1.18,3.74l-1.81,3.29c-15.49.64-30.11,6.55-44.26,13.53l-6.97,3.44-.18-2.29c.01-.43-1.61-.21-2.05-.79,11.68-6.67,24.12-12.17,37.63-15.87l14.83-4.06c-.08.3.89,1.19,1.22.85l.84-.88c.4-.41,1.34-.96,1.92-.98Z" fill="#b29770"/>
  <path d="M730.7,277.63c2.6,8.55-1.87,13.39-.13,18.72l-8.86,2.84c-.44-.06-1.12-.5-1.08-.85l.33-2.92-3.93-17.04,1.08-1.8c3.88-1.55,9.05-1.56,12.59,1.06Z" fill="#caaa74"/>
  <path d="M386.67,214.84c-17.47,13.26-30.58,32.08-38.09,52.71l-3.33-1c6.68-18.57,16.96-36.67,32.84-49.2l8.46-6.68.11,4.17Z" fill="#b99d73"/>
  <path d="M351.63,679.3l1.95-.51c-.55,17.2,2.44,34.03,9.96,49.81,3.78,7.94,8.24,16.16,14.37,22.27l15.77,15.72c-29.49-19.42-44.2-52.88-42.05-87.28Z" fill="#a28b70"/>
  <path d="M439.99,853.23c-11.5-12.95-6.39-31.39,8.17-41.33,10.07-6.87,21.28-9.31,33.36-8.81,6.38.27,12.59.05,18.13,3.17-19.36-4.31-39.54-2.06-53.99,11.06-9.97,9.06-12.35,23.09-4.66,34.67l.12,1.06c2.05,1.15,4.13,2.76,5.38,5.94l-5.93-5.11-.59-.66Z" fill="#ab9678"/>
  <path d="M719.67,459.63l-1.48-3.8-1.44,4.96-.44-1.25,3.02-19.95c2.01-13.28,7.56-28.82,17.2-36.35.8-.62,1.73-2.26,1.97-3.16l1.3.95c.37.22,1.34-.79,1.75-1.06l4.74-3.23-8.7,9.25c-8.29,8.69-12.6,20.41-14.5,32.3l-3.42,21.34Z" fill="#b29770"/>
  <path d="M701.53,345.22c.91,1.01,2.55,3.65,1.96,4.76l-2.2,3.62-8.82,4.3-4.03,1.83-1.14-.05-1.97.92c-.26.08-.7.06-.96.06l-3.26-.02,3.79-10.69c-4.48-.32-6.45-.44-8.63-1.39,3.74.09,8.76.56,12.58-.35l12.69-3Z" fill="#b09063"/>
  <path d="M735.28,395.17l1.16,1.27-1.23,2.28-7.85,3.02c-11.76,5.39-22.34,12.35-32.31,20.53l-6.42,5.27-2.61-2.07c13.97-13.5,30.81-24.05,49.26-30.3Z" fill="#ad926c"/>
  <path d="M740.25,282.02c-1.19.19-3.49,1.26-3.15,2.14.27.7,1.25,2.38,1.76,2.94l2.27,3.64c-3.04,5.39-1.29,12.43-9.79,16.39l-.17-8.91c1.51-.44,3.81-1.99,6.2-3.71-2.36.25-4.53,1.05-6.79,1.84-1.75-5.33,2.73-10.16.13-18.72l3.97,2.94c1.11.82,3.75,1.37,5.58,1.45Z" fill="#b09063"/>
  <path d="M292.85,632.31l-.27,1.02-.58,1.17c-5.69,16.45-7.24,33.84-3.1,50.75l.96,3.03,1.1,3.68-1.8,1.34c-8.56-19.88-7.06-43.61,2.23-63.05l1.46,2.06Z" fill="#988267"/>
  <path d="M647.42,729.52c.38-1.66,1.87-2.93,3.11-4.19l1.44.66c25.45-12,40.54-26.82,43.94-54.74,1.33,11.65-2.82,23.55-9.98,32.7l-8.92,9.05c-8.84,7.54-19.7,11.57-29.6,16.52Z" fill="#bda785"/>
  <path d="M674.58,348.48l1.68.09c2.18.95,4.15,1.08,8.63,1.39l-3.79,10.69-8.91,1.43-2.04-6.27-3.89-7.86,8.32.52Z" fill="#c19d65"/>
  <path d="M554.51,764.08l-1.2,1.57-26.83-6.32-18-1.33h-8.89s-13.11,1.09-13.11,1.09l-.98-2.11,8.52-1.29c20.7-1.71,41.12,2.27,60.49,8.4ZM489.02,757.19l-.5.57.5.5.5-.5-.5-.57Z" fill="#ae9b7e"/>
  <path d="M513.09,284.62l-1.36-15.98c-2.62-1.91-5.79-4.18-5.56-7.37s2.33-5.3,5.81-7.54l1-15.04,1.98,15.61c2.58,1.37,5.24,4.09,5.53,7.04s-2.49,5.9-5.44,7.13l-1.97,16.14ZM511.51,257.09c-2.86,1.23-3.73,4.83-2.53,6.77.9,1.46,4.14,2.37,5.84,1.77,2.15-.76,3.22-3.79,2.6-6.2-.46-1.78-3.45-3.4-5.91-2.34Z" fill="#bda785"/>
  <path d="M632.9,248.6c1.29-2.72,3.18-4.24,5.87-6.72l10.48-9.7c.5-.46.25-3.49-.43-3.42l-3.22.3-3.32-.38c9.01-3.05,20.19-6.16,30.81-3.53-8.98,2.5-18.9,4.33-26.28,11.25l-13.91,12.21Z" fill="#ccb386"/>
  <path d="M645.32,830.59l-2.07-1.73c10.81-1.2,20.98-5.73,31.03-10.58l23.84-15.21c-14.31,14.65-33.54,23.33-52.79,27.51Z" fill="#b29e82"/>
  <path d="M172.33,575.35l1.66-.65c6.76,19.67,16.88,36.65,28.96,53.8-14.84-14.76-24-33.76-30.62-53.15Z" fill="#a28f76"/>
  <path d="M836.09,440.78l-2.2-8.36-7.65-2.38c2-.8,5.52-1.96,6.94-3.17s1.89-5.16,2.97-8.07l2.73,8.32,7.52,2.78-7.22,2.38c-1.75.58-1.85,4.5-3.08,8.51Z" fill="#b99d73"/>
  <path d="M237.65,590.27c.23,1.95-.39,2.32-1.3.98l-1.62-6.18c-.42-1.59-4.19-2.26-5.78-2.59l-2.18-.45c-2.23-.46,7.1-1.96,7.59-3.37l2.4-6.99,2.16,6.24c.5,1.45,3.88,2.26,5.46,2.86l1.93.73c.33.12-.02.41-.33.48l-6.2,2.03c-1.31.43-1.65,3.69-2.15,6.27Z" fill="#b29770"/>
  <path d="M698.12,802.66l8.81-9.98,22.4-27.67c-3.49,9.34-9.7,16.93-16.22,24.08-4.87,4.78-7.95,11.29-14.99,13.57Z" fill="#b29e82"/>
  <path d="M253.28,310.89c-2.69,1.01-2.58,8.43-3.45,6.4-2.04-4.76-1.09-6.65-8.88-8.56,7.26-1.81,6.82-3.39,9.11-8.94l2.25,6.08c.6,1.61,4.43,1.89,7.07,2.72l-6.11,2.3Z" fill="#b29770"/>
  <path d="M672.29,753.91l2.33,1.73c-13.41,5.33-27.79,9.86-42.5,9.22,14.34-3.28,27.78-5.12,40.18-10.95Z" fill="#b29e82"/>
  <path d="M731.16,298.22l.17,8.91c-3.43,1.6-6.94,2.71-10.4,2.02l1.09-1.99-1.32-5.91,10.47-3.03Z" fill="#caaa74"/>
  <path d="M187.27,717.3l1.92-.93,24.79,35.99c-10.54-10.8-18.65-22.62-26.71-35.06Z" fill="#988771"/>
  <path d="M436.39,225.36l4.17,1.5-19.68,12.27-2.35-2.66c5.72-4.15,11.44-8.32,17.86-11.12Z" fill="#ccb386"/>
  <path d="M746.3,396.74l-4.74,3.23c-.4.27-1.38,1.28-1.75,1.06l-1.3-.95.63-2.45c.19-.73-2.02-1.27-2.68-1.19l-1.16-1.27,4.05-1.2c5.56-1.77,10.7-3.01,17.05-3.25l-10.08,6.02Z" fill="#a18662"/>
  <path d="M701.29,353.61l2.2-3.62c.59-1.11-1.05-3.75-1.96-4.76,5.01-1.19,9.94-4.54,14.42-7.2l2.51,1.16c-5.42,5.15-10.58,11.21-17.17,14.42Z" fill="#a18662"/>
  <path d="M362.19,760.65l1.87-1.42,6.35,5.38c7.84,6.64,16.6,11.46,24.91,16.57-13.49-3.97-23.5-12.38-33.13-20.53Z" fill="#a28f76"/>
  <path d="M289.16,693.29l1.8-1.34c4.93,12.19,12.72,21.26,22.72,31.33-11-6.75-19.37-18.05-24.52-29.99Z" fill="#a28b70"/>
  <path d="M734.88,629.41l.07,7.17.21,20.84c.02,1.81-1,5.25-1.45,6.96-1.31-5.01.59-10.08.36-14.94-.39-8.27-1.16-16.65-3.18-24.04l1.24-1.39-.51-.68-.43-3.43,1.56,2.74.31.42,1.82,6.36Z" fill="#b29e82"/>
  <path d="M352.6,356.54c1.42-5.45,6.05-8.57,11.08-10.91,4.03-1.87,4.82-5.93,5.73-10.8,3.47,5.71.11,11.24-5.16,13.49-4.3,1.84-7.41,4.66-11.66,8.22Z" fill="#ab987c"/>
  <path d="M263.77,689.3c-.06-.11,2.07-.02,1.86-.37l-.97-1.53c4.78,1.63,8.05,5.19,10.22,9.81,2.74,5.83,2.19,12.1-2.36,16.97-3.02,3.22-8.84,5.04-11.91,1.3,4.1.86,9.08.56,11.34-2.74,5.51-8.02,1.47-18.53-8.19-23.44Z" fill="#a28f76"/>
  <path d="M800.19,499.21c3.46-.75,6.22,2.22,6.25,4.85.02,2.77-1.93,6-4.74,6.43-2.64.41-5.64-2.05-6.39-4.73-.66-2.37,1.69-5.86,4.88-6.55ZM804.4,504.76c0-1.9-1.54-3.44-3.44-3.44s-3.44,1.54-3.44,3.44,1.54,3.44,3.44,3.44,3.44-1.54,3.44-3.44Z" fill="#a28b70"/>
  <path d="M292.85,632.31l-1.46-2.06c4.27-8.93,8.81-18.29,16.31-24.69-5.78,9.63-10.92,17.75-14.85,26.75Z" fill="#a28b70"/>
  <path d="M741.12,290.74l-2.27-3.64c-.51-.56-1.49-2.24-1.76-2.94-.33-.88,1.96-1.95,3.15-2.14,1.52.07,4.57.96,5.84,1.93,1.2,2.89-1.91,6.76-4.97,6.79Z" fill="#ab987c"/>
  <path d="M801.9,577.82l1.32-2.46c7.94,5,15.32,13.01,14.74,23.12-2.46-8.94-7.24-17.46-16.06-20.65Z" fill="#a28f76"/>
  <path d="M622.58,274.81c-1.95,9.3-1.34,18.6.9,27.84l-1.49-.08c-.37-.07-.58-1.24-.65-1.84l-1.64-13.87.75-10.23c.04-.58.11-1.77.48-1.82h1.65Z" fill="#b89f78"/>
  <path d="M174,574.7l-1.66.65c-3.32-9.71-5.79-19.49-6.4-29.97l8.06,29.32Z" fill="#988771"/>
  <circle cx="825.68" cy="676.82" r="3.82" fill="#b29e82"/>
  <path d="M808.3,638.06l-4.21,5.54c-.9-2.48-3.06-4.91-5.65-5.81,2.53-.19,4.84-2.77,5.53-5.83l4.33,6.1Z" fill="#c0a981"/>
  <path d="M329.46,343.57l2.34-.98c5.21,2.62,10.4,3.41,17.7,2.2-6.03,4.34-14.31,3.65-20.04-1.22Z" fill="#ab987c"/>
  <path d="M449.52,219.65l2.03,2.97-1,.14c-.03-.12-1.39-1.47-1.52-1.02l-.47,1.98h-1.08s-3.83,2.12-3.83,2.12c-.24.1-.88,0-1.11,0l-1.05.89c-.19.13-.69.18-.94.12l-4.17-1.5,13.13-5.71Z" fill="#c2a87c"/>
  <path d="M308.48,356.54c-.51.9-1.76,2.28-2.59,3.06l-1.29-6.97c-.5-4.79.83-9.82,4.79-12.29-3.16,7.56-4.35,16.66-.91,16.2Z" fill="#a28b70"/>
  <path d="M306.18,391.64l-1.52-6.05c.67-5.3,2.29-10.64,5.6-15.09l-2.9,13.95-1.18,7.18Z" fill="#ae9b7e"/>
  <path d="M544.66,834.18l-1.73.62c-5.04-4.3-11.36-11.46-13.41-18.62l5.79,8.09,9.35,9.91Z" fill="#988771"/>
  <path d="M245.61,747.49l1.22-1.41c7.05,4.79,15.68,6.4,23.95,7.83-9.2,1.2-17.76-2.21-25.17-6.43Z" fill="#ae9b7e"/>
  <path d="M746.22,680.37l-.77,7.08-2.94-4.12-1.23-5.9c.11-.81.77-2.07,1.5-2.37s1.98,1.55,2.21,2.32l1.23,2.98Z" fill="#ccb386"/>
  <path d="M196.99,405.91c.82-.47,3.27.95,3.49,1.87.27,1.1-.39,3.7-1.52,3.83-.98.11-3.1-.46-3.89-.98-.95-.62.5-3.9,1.92-4.72Z" fill="#a88e68"/>
  <path d="M357.36,278.42l1.41-.81,11.2,4.59c-4.57,1.23-9.18-.86-12.61-3.78Z" fill="#b89f78"/>
  <path d="M553.31,765.64l1.2-1.57c5.14,1.63,10.08,3.43,14.71,6.05l-15.9-4.48Z" fill="#a28f76"/>
  <path d="M295.76,461.41c.12.73-1.58,2.22-2.42,2.67l-6.7,3.57v-3.21s6.06-2.71,6.06-2.71l3.05-.31Z" fill="#ad926c"/>
  <path d="M349.26,291.38l2.66-.55,9.76,3.52c-4.09.99-9-.03-12.42-2.96Z" fill="#b29e82"/>
  <path d="M317.45,311.64l-.05-2.27c3.06-1.49,6.42-2.91,10.52-3.46-2.98,2.25-7.77,4.58-10.47,5.73Z" fill="#ab9678"/>
  <path d="M350.73,303.75c2.13.09,4.82.84,7.71,2.21-4.43,1.03-8.75-.23-11.77-2.39l4.06.18Z" fill="#bda785"/>
  <path d="M641.38,333.84l-6.64-6.78-4.6-5.88-4.59-7.53c-.94-1.54-1.12-5.08-1.19-6.9,3.77,8.6,8.54,16.41,15.28,23.76.63.68,1.68,2.6,1.74,3.32Z" fill="#b89f78"/>
  <path d="M625.43,263.79l-3.41,8.89c-1.02-2.3.77-7.54,3.41-8.89Z" fill="#b89f78"/>
  <path d="M746.24,673.29c-.21.54-1.04-1.65-1.03-2.13l.22-8.82c.1-.49.84,1.71.83,2.2l-.03,8.76Z" fill="#ccb386"/>
  <path d="M568.42,745.3l-5.86-1.08,5.86,1.08Z" fill="#b19a79"/>
  <path d="M625.36,262.74c-.05-.73-.06-2.45.24-3.12.37-.84,1.77-1.5,2.83-1.8l-3.07,4.92Z" fill="#b89f78"/>
  <path d="M588.32,655.28l.8-4.95-.8,4.95Z" fill="#ab9678"/>
  <path d="M482.59,757.35l-.79,1.66c-.27.56-1.93-.53-2.23-.78l3.02-.88Z" fill="#ae9b7e"/>
  <path d="M505.47,792.35l-3.92-1.15,3.92,1.15Z" fill="#b19a79"/>
  <path d="M521.55,129.81l-1.09-3.89,1.09,3.89Z" fill="#ccb386"/>
  <path d="M450.55,222.76l-1.98.96.47-1.98c.13-.45,1.49.9,1.52,1.02Z" fill="#ccb386"/>
  <path d="M518.53,104.89l-1.06-3.95,1.06,3.95Z" fill="#ccb386"/>
  <path d="M391.04,246.06c-.18-.29,1.35-.05,1.56.19l.91,1.06c.2.23-1.26.73-1.42.46l-1.05-1.7Z" fill="#b89f78"/>
  <path d="M563.45,747.42l-3.97-1.17,3.97,1.17Z" fill="#b19a79"/>
  <path d="M262.71,689.43l-2.9-1.11,2.9,1.11Z" fill="#a28f76"/>
  <path d="M590.33,671.37l-1.02-2.98,1.02,2.98Z" fill="#ab9678"/>
  <path d="M517.47,99.89l-.98-2.99.98,2.99Z" fill="#ccb386"/>
  <path d="M561.4,744.26l-2.94-.97,2.94.97Z" fill="#b19a79"/>
  <path d="M413.55,658.34l.82-3.09-.82,3.09Z" fill="#ad926c"/>
  <path d="M558.46,746.25l-2.97-1.01,2.97,1.01Z" fill="#b19a79"/>
  <path d="M411.44,663.33l1.09-2.99-1.09,2.99Z" fill="#ad926c"/>
  <path d="M657.23,468.53l.99-3.03-.99,3.03Z" fill="#c2a87c"/>
  <path d="M363.67,842.27l-2.99,1.02,2.99-1.02Z" fill="#ad926c"/>
  <path d="M289.86,688.27l-.96-3.03.96,3.03Z" fill="#a28b70"/>
  <path d="M371.72,840.44l-3.09.86,3.09-.86Z" fill="#ad926c"/>
  <path d="M500.51,791.21l-3.01.04c-.04-.47,1-.97,1.51-.97s1.55.5,1.5.93Z" fill="#b19a79"/>
  <path d="M447.49,223.72l-3.83,2.13,3.83-2.13Z" fill="#ccb386"/>
  <path d="M692.46,357.91l-4.03,1.83,4.03-1.83Z" fill="#c1ab88"/>
  <path d="M662.36,552.42l-1.96-1.05,1.96,1.05Z" fill="#ccb386"/>
  <path d="M475.6,759.27l-.84.88c-.33.34-1.3-.55-1.22-.85l2.07-.03Z" fill="#b89f78"/>
  <path d="M624.32,305.7l-1.01-1.96,1.01,1.96Z" fill="#b89f78"/>
  <path d="M687.3,359.69l-1.97.92,1.97-.92Z" fill="#c1ab88"/>
  <path d="M440.44,416.71l-.88-2.1c.47.08.82,1.5.88,2.1Z" fill="#ab9678"/>
  <path d="M441.51,226.74l1.05-.89-1.05.89Z" fill="#ccb386"/>
  <path d="M375.74,296.04l.98-1.3-.98,1.3Z" fill="#c2a87c"/>
  <path d="M632.51,250.86l.88-1.1-.88,1.1Z" fill="#ccb386"/>
  <path d="M292,634.5l.58-1.17-.58,1.17Z" fill="#a28b70"/>
  <path d="M628.37,256.73l1.01-.96-1.01.96Z" fill="#b89f78"/>
  <path d="M405.63,226.97l.9-1.48-.9,1.48Z" fill="#b89f78"/>
  <path d="M761.25,570.45l-3.99.85,3.99-.85Z" fill="#a88e68"/>
  <path d="M717.03,278.37l3.93,17.04-.33,2.92c-.04.35.64.79,1.08.85l-5.59.57-1.13-13.97c-.25-3.05-.23-6.18,2.04-7.41Z" fill="#bb965e"/>
  <path d="M731.16,298.22l-10.47,3.03-4.81.35.24-1.84,5.59-.57,8.86-2.84c2.26-.78,4.43-1.59,6.79-1.84-2.39,1.72-4.7,3.27-6.2,3.71Z" fill="#9b7645"/>
  <path d="M693.36,516.89l-6.13.67,6.13-.67Z" fill="#c1ab88"/>
  <path d="M542.55,133.2l-1.79-2.69,1.79,2.69Z" fill="#c19d65"/>
  <path d="M738.5,400.08c-.23.9-1.17,2.54-1.97,3.16l-.71-1.69c-14,8.19-26.46,18.48-37.39,30.4l-2.3-1.49c5.99-6.36,12.44-12.64,20.01-18.07l19.07-13.68,1.23-2.28c.66-.08,2.87.46,2.68,1.19l-.63,2.45Z" fill="#b6a283"/>
  <polygon points="489.02 757.19 489.52 757.76 489.02 758.26 488.52 757.76 489.02 757.19" fill="#b89f78"/>
</svg>
