<svg xmlns="http://www.w3.org/2000/svg" viewBox="0 0 1024 1024">
  <path d="M582.12,892.26c32.3-5.67,61.81-15.78,91.17-29.19,30.63-14.89,58.73-33.15,84.71-55.02,4.68-3.94,9.94-7.94,12.88-12.97,1.06-1.82.93-6.8,2.43-8.17,2.17-1.98,5.61-2.64,9.12-2.64l11.96-12c59.07-66.74,91.61-147.86,97.41-236.83l.55-18.89h1.57s.61,8.24.61,8.24l-.8,19.45c-6.99,90.81-44.97,175.63-108.47,241.52,3.13,3.86,4.09,8.53,1.1,12.23-3.26,4.02-8.51,4.88-13.57.55l-11.98,10.27c-50.41,43.2-110.52,73.05-175.92,85.66l-2.62.28c-.56.06-.51-2.33-.16-2.49ZM776.52,787.7c-2.93,1.47-3.34,5.92-2.02,8.04,1.92,3.09,5.51,3.68,7.61,2.62,3.91-1.97,3.86-5.95,2.78-8.7s-5.64-3.33-8.37-1.96Z" fill="#9f8c75"/>
  <path d="M584.73,918.47c-1.32.24-2.54,0-2.99-.25-.58-.31,1.13-1.96,1.85-2.09,78.17-13.98,149.51-50.1,207.11-104.37l16.54-16.48,10.58-11.6c52.02-59.81,86.13-133.31,97.38-212.01l1.26-10.4,1.19-4.78c.12-.5,2.79,1.11,2.55,1.57l-1.45,2.7c.51,2.55.4,4.48-.01,7.37-11.82,82.71-47.26,160.19-103.51,222.12l-30.5,30.39c-56.49,50.76-125.01,84.13-199.99,97.83Z" fill="#9f8c75"/>
  <path d="M104.59,456.27c-2.47-.07-2.18-5.51-.07-7.12,3.98-21.34,8.45-41.49,14.51-62.37,18.83-58.58,49.95-115.06,91.29-160.48,38.1-41.86,83.17-76.31,134.38-100.3,28.76-12.87,57.4-22.83,88.24-28.66l2.36.54c.64.15-1.23,1.78-1.93,1.91-38.02,7.24-73.77,20.52-108.02,38.79-32.12,17.13-60.77,38.62-87.61,63.28-28.93,26.56-53.2,57.45-73.55,91.17-29.03,48.11-48.24,100.78-56.38,156.36-.37,2.49.69,6.99-3.21,6.88Z" fill="#9d8a73"/>
  <path d="M144.2,401.99l-1.71-2.99c17.38-60.79,48.92-116.27,91.28-163.04l7.25-8.01c-3.89-4.17-2.75-9.1.96-12.43,3.22-2.89,8.05-1.74,11.3,1.15l8.18-7.27c40.23-35.79,86.54-63.21,138.02-79.54,13.09-3.98,25.23-7.16,38.26-9.78l3.33-1.2c.73-.26.84,3.05.07,3.2l-2.71.51c-69.6,12.98-133.32,48.79-184.12,96.57.89,3.91.09,6.82-2.05,8.84-1.64,1.55-5.77,1.7-8.55,1.82-3.73,3-7.11,6.77-10.5,10.53-41.4,45.87-72.41,101.9-89,161.68ZM244.25,217.12c-3.53,1.72-4.14,4.92-2.77,7.52,1.6,3.04,4.74,4.02,7.54,2.68,2.6-1.24,3.5-5.39,2.43-7.78s-4.74-3.62-7.2-2.42Z" fill="#9f8c75"/>
  <path d="M442.56,215.79l.13.98-2.95,10.28-.9,5.81-4,8.09c-2.4.84-3.8,3.28-4.07,5.93l-6.3,6.83c-8.13,8.81-14.04,18.31-16.92,30.06-3.54,14.44-15.45,28.43-28.77,33.34l-5.38.34c-.39.07-1.69.14-1.86-.14l-.77-1.64,1.37-.65c3.65-1.19,6.99-2.68,9.62-5.16l6.82-6.43c.96-.91,2.01-3.4,2.23-4.56,2.78-1.59,4.59-6.84,4.23-11.22l-2.14-25.95-.95-11.05.8-9.98c.67-8.41,4.64-17.28,8.52-23.9l2.54,3.13-1.34,1.85c-3.21,4.42-5.56,10.64-5.4,15.84l.44,1.12c-.79-.31-2.35,1.54-2.03,2.4l.99,2.7.25,5.64,8.98-4.56c14.96-7.59,25.55-18.09,33.42-32.07.79-.43,2.23.41,2.5,1.05l.95,1.91ZM432.66,229.87l-5.01,5.67-1.26.05-10.58,7.3-2.21,1.69-2.93,2.39-5.85,2.97-1.35-.3-4.71,1.49c-1.41.45-3.54,2.81-3.89,4.52-.3,1.43.59,4.04,1.62,5.01l-.04,1.29c-.08,2.84.87,7.83,2.32,10.46l-.07,1.84-.09,1.48-.4,7.19c-.33,5.93-1.8,10.82-3.48,17.68,3.94-3.97,6.31-8.9,7.61-13.62,2.26-1.54,3.28-5.04,3.22-8.34l3.74-11.04,1.75-.02c.34,0,.9-1.09.61-1.28l-1.18-.63,1.79-3.13,12.02-13.06,4.38-5.53.94-2.13c.18-.07,1.07-.82,1.23-1.13l5.01-9.67c.54-1.04.56-3.29.21-4.92l-3.39,3.77ZM394.48,301.71c0-.47-.38-.86-.86-.86s-.86.38-.86.86.38.86.86.86.86-.38.86-.86ZM392.12,303.7l-.5.5.5.5.5-.5-.5-.5Z" fill="#cbb288"/>
  <path d="M729.63,184.99l-.23-2.31c12.73,9.25,24.99,19.08,36.92,30.08,1.41,1.3,4.07,3.07,5.74,3.18,3.54-2.68,8.51-2.68,11.22.39s2.85,7.82-.71,12.09c41.56,42.95,72.55,94.32,91.56,151.18,9.71,29.04,16.53,58.33,18.95,88.84l.73,9.18.65,14.7.19,3.26c.03.56-2.12.97-2.26.85l-1.06-18.99c-6.47-86.05-40.37-167.75-96.96-232.72l-9.54-10.37c-3.31-3.6-4.51-4.83-9.81-4.85-4.27-.01-7.09-6.4-5.39-10.95l-16.71-14.45-18.83-15.11c-1.59-1.28-4.14-2.55-4.46-4ZM774.46,217.27c-2.66,1.26-3.38,6.03-2.02,7.94,1.88,2.65,5.51,3.12,7.64,1.85,2.83-1.69,3.62-4.96,2.47-7.11-1.62-3.03-4.79-4.25-8.09-2.68Z" fill="#97836e"/>
  <path d="M323.19,875.85l-1.92,1.51c-31.55-16.37-59.87-36.75-85.95-60.63l-26.77-26.55c-53.05-58.83-91.23-133.16-102.13-212.54,11.51,44.96,22.73,87.64,45.26,127.92,16.94,30.29,35.8,58.81,59.82,83.92,7.46,9.05,15.37,16.15,23.98,24.12,26.57,24.62,55.86,45.06,87.72,62.25Z" fill="#97836e"/>
  <path d="M255.83,799.23l-.27,2.06-4.36-2.96c-2.89,3.43-8.78,4.12-12.01.86s-3.65-8.51-.2-12.85c-65.74-68.92-104.1-151.96-110.71-247.98-.54-7.87-1.15-14.69.74-22.82l1.65,18.87,1.08,13.12c6.63,80.85,38.16,157.29,91.68,218.01l7.19,8.16c2.81,3.19,6.66,9.39,10.81,10.22,2.92.58,6.26.64,8.22,1.66,5,2.6.5,8.91,6.18,13.65ZM249.31,790.16c-.45-.04-1.74-.18-1.74-.18l.02-2.17c.01-1.52-7.01-.98-8.73,3.29-.78,1.93.87,5.35,2.38,6.32,2.07,1.34,6.24,1.09,7.57-.81l2.1-2.98c.57-.8-.65-3.38-1.6-3.47Z" fill="#97836e"/>
  <path d="M501.2,717.4c-.19,1.19.95,3.32,2.12,3.92,1.33.69,3.56.45,5.65.11l.18,3.77c.04.83,2.1,2.16,2.89,2.6l4.35,2.4c2.33,1.29,4.98,2.19,6.88,4.19,1.62,1.69,4.43,2.81,7,4.16l7.71,4.06,3.39,1.84,1.05.88.87,3.56,7.05-8.68-.4,3.36-3.54,3.28,8.96,12.12c-.51.3-.82,1.87-.45,2.36l1.51,1.95c.35.45.91,1.5,1.15,2.15l-4.04-2.52-2.51-4.29-8.69-9.14-19.19-11.75c-5.58-3.41-10.86-6.05-15.91-10.16l-6.62-5.39-1.03,1.07c3.17,5.38,9.58,12.92,15.96,16.47l-1.35,2.59-5.06-3.6-10.02-9.68c3.33,10.61,9.66,18.15,18.14,24.91l6.06-.74,2.38,8.4c-9.12-3.62-15.18-9.2-21.48-16.24-4.33-4.84-6.34-11.37-9.67-16.79,1.41,8.94,4.2,16.36,6.93,23.67-.49.1-.77.91-.53,1.22l1.66,1.8.81,2.14c.66,1.76,2.46,4.48,3.6,5.46l1.69-.81,2.06,2.94.19,1.47c.64,1.93,1.78,4.1,3.16,6.1l1.53,4.1c-18.86-16.78-25.96-39.66-26.11-65.41l-1.43-4.25,2.32-1.82,2.09-.76,2.65,5.54,3.48-.27c.65-.05.16,2.37.43,2.96l2.15,4.74ZM499.23,721.65c-.2-1.67-.42-1.14-.55.05l.55-.05Z" fill="#c4ab85"/>
  <path d="M585.42,182.07c.52-.09,1.52-.3,2.02-.22-.19.6.62,2.34,1.23,2.01l1.87-1.02,4.88.75c.98,1.2,3.06,1.79,3.88,1.66l1.19-.59-.07,2.14-.09,1.21-1,.8c-1.43-.52-3.94-.78-6.15-.7,8.69,5.5,16.8,10.63,23.33,18.57,8.88,10.79,16.22,24.86,16.43,38.66l.27,17.99c.26.7.98,2.44,1,3.13l-3.07,6.29c-1.52,4.38-.94,10.53-.48,15.64.84,9.47,5.42,17.31,12.87,21.97l-.31,1.06-1.72,1.01,6.84,5.39c-16.3-5.45-29.95-23.49-32.07-39.1l-.83-6.13,2.15,2.31c.27.29.6.39.93-.32.24.8.29,2.09.28,3.07-.01,1.67.75,3.64,1.5,5.26,2.86,6.12,3.88,13.87,10.23,18.57-2.72-9.25-4.67-16.79-3.68-25.17l-1.49-.77.05-1.82,2.14-5.05,2.54-12.29c.11-.54.5-1.9.16-2.03l-1.83-.73-.98-.96.22-2.21c4.55,1.23,2.05-10.45-1.13-18.75-5.22-13.62-13.36-24.77-25.53-33.7-7.3-5.36-16.22-9.4-24.03-13.4l-2.51-1.29c-.43-.22.44-1.81.9-1.94l5.43,1.28c1.14.22,3.8-.25,4.6-.6ZM630.74,301.63l.07,1.05-.07-1.05ZM631.88,302.72l-.52.5.5.5.51-.51-.5-.49ZM632.88,303.7l-.51.51.51.49.5-.5-.5-.5ZM633.88,304.7l-.5.5.5.5.49-.49-.5-.5ZM634.88,305.7l-.49.49.5.5.49-.49-.5-.5ZM635.88,306.7l-.5.5.49.5.51-.51-.5-.5ZM636.62,308.47l.5-.54-.5.54Z" fill="#c5ae87"/>
  <path d="M716.04,562.26c-2.65,3.64-3.15,9.19-2.28,13.83l2-.62-.29,2.53-2.62,1.46c-.65,2.35-.62,6.55.38,8.86l-.1,1.25,1.2,4.95c5.28,21.8,20.28,37.87,41.98,44.73l1.65,4.03-14.08-5.56c-2.26-.89-3.38-2.48-4.12-5.27l-1.76,2.1-8.73-7.18c-.15.07-1.98.55-2.32.12l-1.91-2.38h2.23c-5.5-6.11-10.09-12.92-13.19-20.57-.26-.63-1.2-1.61-1.74-1.56l-1.27.12c.66.07.86-1.78.76-2.45l-1.69-11.58-.98-6.7-3.88,1.57-.95.38c-.39-.5-.53-.63-.45-.8l.78-1.53c.26-.51-.85-1.35-1.32-1.69l-1.25-.96c-.04-.18-.05-1.22.26-1.3l1.9-.52,1.05-.06,1.42,1.1c.24.09.48-3.05.2-4.12l-2.86-10.92,5.34,1.38-3.14,1.85,3.81,3.79,1.78-5.17,4.25-11.81c.18-.51-1.64-1.31-1.88-.86l-.95,1.76-2.22-1.3-.57-3.66c1.03.35,2.95,1.15,3.02.65l.4-2.83-3.69.26c-.77.06-2.26.53-3,.84-.64.27-.75,1.93-.85,2.82l-1.07,9.99-2.08-8.73-1.15-4.52,1.24-1.62,1.16.93c.3.28.19-.02.93-2.16l7.67-1.76,4.59,3.3.09,3.18,2.5-4.72c.35.24,1.48.98,1.9.67l2.22-1.66c1.93-1.74,4.23-4.55,5.85-6.8l.7-1.04,6.05-3.05c4.56-2.7,8.06-5.16,13.19-7.44.05,0-1.46-.61-2.01-.68-1.75-.21-4.79-.08-6.93.2v-.76s1,.03,1,.03l5.06-3.11,9.73.04c.76,0,2.84,1.87,2.28,2.37l-2.03,1.83c-19.17,4.9-33.98,18.7-41.26,36.54ZM716.8,550.46l-.5.5.5.5.5-.5-.5-.5Z" fill="#c1a882"/>
  <path d="M536.68,202.49c5.48,3.27,5.45,9.37,6.38,14.79,1.52,8.9-2.73,18.09-8.58,24.06-6.54,6.68-15.49,9-25.1,8.56-10.34-.47-19.41-7.24-23.83-15.11-5.9-9.72-5.05-20.63-.43-30.27l1.4-1.3c.36-.34,1.77.09,1.7.58l-.33,2.39c-1.42,10.35,2.57,20.47,10.98,25.73,9,5.63,20.31,5.25,28.86-1.23,8.08-6.12,11.45-16.52,8.95-28.2ZM539.92,218.69c-5.78,13.17-15.81,20.62-28.89,20.07-12.23-.52-22.24-9.04-26.19-21.33-1.64,14.2,8.31,25.68,20.8,28.73,13.14,3.21,26-2.72,32.07-15.26,1.69-3.5,2.35-8.61,2.21-12.22Z" fill="#a69279"/>
  <path d="M605.26,412.53l-1.11-1.05c.54.33,1.44,1.12,1.11,1.05Z" fill="#bda581"/>
  <path d="M604.15,411.48l-1.56-1.24,1.56,1.24Z" fill="#bda581"/>
  <path d="M337.93,318.62l-.19,2.12c-2.22,1.76-2.39,4.91-1.04,7.71l2.98,6.19,3.48,6.66c4.68,8.97,9.84,17.76,15.79,26.05l3.65,3.52,9.78,9.3,5.86,3.82c2.17,1.41,4.83,2.3,7.38,3.03l1.42-.74.59-8.54,1.1,8.83c6.31-.01,12.7.95,18.09-1.66l10.91-5.28c2.81-1.36,5.78-3.64,8.02-5.79l3.11-2.99c.78-.75,1.78-1.85,1.98-2.79l.89-.26c2.79-2.52,5.59-5.41,7.98-7.98l8.27-8.9,1.41-2.63c.58-.18,1.86,1.24,1.75,1.85l-.53,2.82-26.23,26.34c-9.83,6.04-19.88,12.48-31.7,11.96-25.31-1.12-46.51-33.81-55.54-57.12-2.34-6.04-3.87-11.86-1.25-18.31l5.97-2.83-3.29,3.49c-.19.2-1.59,1.11-1.6,1.09-.03-.02.78.84.96,1.03Z" fill="#cbb288"/>
  <path d="M255.57,801.28l.27-2.06,18.02,15.02c48.48,39.18,105.24,65.99,166.73,77.86.6,0,.84,2.68.17,2.56l-2.4-.43c-65.61-13.25-123.38-42.12-174.46-85.09l-8.33-7.87Z" fill="#9d8a73"/>
  <path d="M756.32,639.25c5.75,1.82,12.87,2.45,18.9,2.01l.2,2.05-9.14-.38-8.53-1.18c3.19,1.7,5.81,2.54,8.32,2.5l14.8-.23c6.04-.1,11.4-2.79,16.29-5.32l4.17-2.15,4.64-2.39,2.39,2.06-.94,2.49c-.97,4.23-5.03,1.86-6.26,5.01-.33.84,1.15,2.5,2.05,2.59-1.9,2.88-5.86,3.49-10.09,2.82l-13.48-2.11c-.43-.07-1.94,2.01-1.5,2l2.17-.06c3.54-.1,6.05.23,9.1,1.04l-1.25,1.57c-1.48-.25-4.39-.5-5.83-.07l-4.72,1.41c-1.82.55-3.31,5.9-2.02,7.32l4.51,4.93c-2.66.78-6.22,1.1-8.23-.11l1.24-2.97c.26-.7-1.66-1.82-2.15-2.49l-4.57-6.25c-2.63-3.6-5.44-7.22-8.89-9.25-.96-.56-2.64-.42-4.52.18-5.18-5.01-12.45-5.73-18.79-2.71l.03-2.35-7.8,2.07,4.61-4.83,2.41-1.59c.26-.17-.7-.81-.99-.93l-1.09-.48-2.03-6.09,8.73,7.18,1.76-2.1c.74,2.79,1.86,4.38,4.12,5.27l14.08,5.56-1.65-4.03Z" fill="#9d8264"/>
  <path d="M771.55,668.11c-.61-.04-2.13-.42-2.35-.5l2.35.5Z" fill="#957b5c"/>
  <path d="M769.2,667.61l-1.03-.56,1.03.56Z" fill="#957b5c"/>
  <path d="M826.27,612.5l-2.15,7.88-1.4,4.82-.49,1.55-6.05,11.61-6.28,9.65-.76,1.34-3.5,3.78-5.41,5.24c-.54.53-.59,1.95-.13,2.83l-2.8,2.31-1.68-3.27-1.78,4.87-2.27-1.44-1.21,4.84-1.18-.45c-4.38-2.61-6.79,2.23-12.66,3.68l-4.52,1.12-1.63.22c-.37.05-.89,1.31-1.21,1.52l-3.27-.62-15.62,1.15-1.65-2.78c-.25-.43-1.55,1.12-2.11,1.79-5.65-.6-12.51-1.24-17.62-3.49l3.49-1.13,1.73-2.26,2.35.94c2.87,2.42,7.29,3.14,11.24,1.64,7.18-2.74,10.76-9.2,9.89-16.62l4.27,6.22,6.31,7.57-.77,2.1c-.2.45.41.75,1.33,1.43l4.32.61-1.5-3.07c3.26.21,9.69-.2,12.14-3.08l3.78-4.46c2.33-1.64,3.52-4.94,3.9-8.42l9.87-.81c4.3-.35,7.55-6.02,8.62-9.09l2.18-1.8c.56-.46-.55-2.18-1.01-2.75l-1.39-1.73c-.25-.31-1.23.18-1.29.24l-2.39-2.06,6.27-5.75,4.07-3.67c3.77-3.4,6.47-7.89,9.05-12.34l.93.11Z" fill="#957b5c"/>
  <path d="M626.55,231.73c3.18,8.3,5.68,19.98,1.13,18.75-9.39-3.82-18.16-9.13-26.62-15.29l-2.51-1.41-2.15-3.02-4.44-4.92-1.68,1.74c-2.56,2.65,4.63,14.25,9.98,19.4,8.04,7.73,15.25,17.33,18.29,27.62-.34.72-.67.61-.93.32l-2.15-2.31.83,6.13c-3.57-8.17-4.49-11.93-10.99-19.77l-3.01-4.01.62-.1,1.1-.95-11.5-12.93-.23,3.02c-6.17-8.33-9.05-18.09-10.39-28.85-.37-2.92-1.08-5.77,1.71-7.98,7.81,21.42,24.49,33.32,44.74,41.82.35-6.43-.65-11.67-1.78-17.27ZM604.04,254.52l-.62.74,1.41,1.54.66-.62-1.44-1.66ZM605.75,257.81l.41-1.1-.41,1.1Z" fill="#baa07d"/>
  <path d="M542.93,783.77l3.97,1.48c.72.24.65-2.79.55-2.95l.89-1.05,3.55,3.12c-5.92,1.83-10.66,1.94-17.99,2.08l4.28,5.04,14.73,13.32c8.15,7.37,18.72,11.68,30.29,13.66l8.32.36,8.93.34-.97-1.91,2.03.37c4.86.89,11.02-1.98,14.84-5.36l1.1-.97,1.9-1.15,1.21-.74,3.27-2.93c1.22-1.09,3.01-2.26,4.24-2.48l-6.38,6.54-4.33,3.45c-.16.41-.76,1.34.17,1.04l2.82-.23.03,1.79-6.33,1.31c-22.89,8.75-47.02,2.56-65.38-12.8l-15.72-15.37c-5.23-5.11-12.18-8.49-17.35-13.08l-1.53-4.1c-1.38-2-2.52-4.17-3.16-6.1,7.37,9.22,23.12,20.44,31.99,17.31ZM530.98,784.23l-.5.5.5.5.5-.5-.5-.5ZM532.98,785.23l-.5.5.5.5.5-.5-.5-.5Z" fill="#bda581"/>
  <path d="M346.11,565.14l-2.67,1.67c-6.57-5.68-17.47-10.56-24.72-9.43-4.65-1.11-9.38-1.95-14.82.6,10.91,2.36,19.89,6.19,28.82,12.44l2.93,1.61c3.58,1.96,9.52,6.41,13.34,7.12-.12.41-.47.67-.2.77l1.08.4.84-1.16,3.32.74-2.77,1.53,15.38,1.05,9.66-.96.19-3.16,1.1-.09,2.64,3.59c-4.29.72-12.04,2.86-17.21,2.39-11.03-.99-20.26-3.9-29.37-9.91-14.17-9.34-23.91-14.33-42.22-11.42l-3.17.5c-.59.09-1.08-2.14-.57-2.47l2.07-1.36c8.3-5.44,17.7-7.4,27.37-5.64,10.67,1.95,20.32,5.63,28.98,11.17Z" fill="#c1a882"/>
  <path d="M403.82,219.91l-2.54-3.13,1.25-2.14,2.58,1.93c.63.39,1.05-2.3,1.47-2.89l4.13-5.75.73-1.12,12.08-10.53c1.18-1.14,1.14-1.73-1.21-1.72l9.75-6.91c-18.19,3.53-43.04,15.38-55.69,27.16l-10.7,9.97-6.78,7.99-.61,11.13-1.27-.91c-.23-.17-.58,1.08-.33,1.23l.95.54.21,1.46.88-.41,3.03-.75,2.9-1.52c1.78-.71,4.99-1.82,6.76-1.47l3.35.67,6.98,6.73-.12,6.22-.9,1.19-1.91-.44c.67-2.55.56-5.1-1-6.82-2.12-2.34-5.07-3.23-8.09-3-.08-.34-1.15-1.06-1.65-.93l-2.34,1.23-6.94,2.76c-.77.31-2.78.44-3.38,1.01l-9.1,8.59c-.78-.77-1.49-1.09-1.87-.72l-2.34,2.26-2.23-4.52-4.76,13.77-1.53,5.65c.16-6.89,2.18-13.96,5.57-20.45l5.12-9.82.84,2.2c9.27-12.95,19.16-25.31,31.82-35.55l9.54-6.55c3.76-2.59,8.1-5.63,12.28-7.45l25.8-11.19-7.87,1.14.32-1.17c10.01-2.88,19.93-4.93,30.5-6.38l2.45.39c.62.1,1.12,1.92.65,2.31-2.85,2.36-14.07,4.32-31.1,18.54-6.29,5.25-11.03,11.76-15.68,18.16ZM343.49,257.65c6.25-5.29,10.44-11.32,11.06-19.37-5.11,5.74-9.26,12.12-11.06,19.37ZM341.17,253.76l-.02.65v.67l.02.65.02-.65v-.67l-.02-.65Z" fill="#c1a882"/>
  <path d="M322.48,474.69l.71,2.68-6.84-2.49c-7.99-3.23-15.9-6.42-24.92-4.76,12.35,1.97,22.65,7.24,30.45,17.25,1.63,2.09,4.52,3.61,6.5,4.85l16.01,10.06.3,3.52-4.08-1.24c-17.32-9.24-30.01-30.34-46.02-30.78l-13.24-.36c-.31,0-1.85-1.21-1.63-1.42l1.55-1.5c8.56-5.55,22.3-4.39,31.62-.16l9.59,4.35Z" fill="#bda581"/>
  <path d="M791.19,550.44l-1.79,2.94,3.99.28c.86.06.63,2.64.57,3.42-5.01-2.8-11.42-3.54-17.67-2.85l-11.29,1.24,1.4,6.49-4.84-2.94-1.1,6.57-2.14-2.19-1.44-4.03-2.26,2.13c-.37.35-1.53-.95-1.34-1.41l1.44-3.41-3.58.75-1.28-1.13,1.36-1.81-.94-2.9c.79-.21,3.08-.31,3.11-1.14l.12-3.01,3.6.69,2.7-8.35,2.7,8.64,5.53-3.23-3.2,6.36,19.52-.19,6.82-.9Z" fill="#cfac7b"/>
  <path d="M484.14,634.9l2.64,2.3-2.51,1.19c-.39.18-.58.97-.59,1.4l-.03,1.64-1.15,4.96-1.61,14.33c-1.46,12.95,2.36,25.77,5.84,37.83.42,1.45,1.82,3.6,2.68,4.78l1.01,1.85-2.32,1.82c-14.26-20.25-13.36-45.91-7.57-69.63l1.28.68c.3.16.73.08.67-.24s-.56-1.54-.82-1.74l-3.48-2.6,1.84-.29c.36-.02.43-.27.59-.83l3.54,2.54Z" fill="#c1a882"/>
  <path d="M754.46,679.35c5.88,8.5,6.82,20.75.47,29.67l-11.2,15.75c-8.74,12.29,2.43,26.81-18.01,48.08-12.67,13.18-28.47,18.39-34.38,26.15l-1.29-1.91c2.61-2.89,6.58-10.25,5.58-11.75l.02-1.29,3.63-2.45-3.91,10.31,17.95-12.21c.86-.58,2.22-2.72,2.32-3.07,1.68-.61,3.83-2.53,4.82-4.2l1.08-.62c3.11-1.8,5.76-5.26,7.96-8.38,5.96-8.46,8.75-19.3,4.98-29.28-.83-2.2-3.53-5.21-5.76-5.86l-.25-1.31,5.87.72,2.49,6.49,1.41-.59,11.2-19.94c.34-1.55,1.2-3.84,1.98-5.25,1.85-3.36,3.33-7.34,4.23-11.26l-1.17-5.59c.67-1.31.83-4.72.09-6.17l-3.39-7.12,3.25,1.08Z" fill="#bda581"/>
  <path d="M361.65,433.63l.98-.26c-1.01,1.44-4.66,3.01-5.43,3.06-1.3-7.38-2.67-11.62-5.02-17.97-.18.6-.26,2.49-.09,3.23l-2.39-4.07-.94-3.15c-.42-1.42-2-3.78-3.1-4.78-1.01-.93-2.11-2.03-2.59-2.94-2.96-5.64-10.7-12.93-17.63-14.42,4.59,4.28,8.01,7.51,11.33,12.24l2.81,2.1-1.34-.18.12,2.27c.02.42-1.15.42-2.15.52-4.86-6.99-7.7-12.47-16.95-17.28-2.1-1.09-3.98-2.52-5.79-4.08,23.95-3.13,42.39,23.75,44.49,46.66l3.69-.96Z" fill="#baa07d"/>
  <path d="M690.77,271.06l.93,2.92-.58,15.97c-.09,5.07-2.63,12.77-5.62,16.59l-5.35,6.85,2.17.43c6.05,1.74,9.08,8.15,6.32,14.2l-3.74,6.43c4.9-9.35,3.87-17.38-.67-18.48-1.62-.39-4.69.39-6.14.97l-1.79.71c-.8-1.48-3.43-1.94-4.99-1.45-2.2.69-2.98,2.48-3.45,5.06l-3.87,3.05-4.61,2.95-5.21,6.09-1.84,2.15-2.25.97,2.08-5.02c4.14-4.37,8.33-8.14,13.44-11.96-3.38-4.27-10.48.59-12.37-3.48,5.46,2.13,11.55.25,17.07-.87l2-.41,1.33-.86,1.64-.97,2.18-1.2,3.25-2.38c9.02-8.29,11.15-26.62,7.26-35.04-3.16-6.84-6.74-12.65-11.61-17.82l.92-.29,3.05,2.38,6.02,8.33c-.49-4.24-1.83-7.56-3.84-10.36l-.13-3.79,1.21-.02,7.21,18.33Z" fill="#e0c28e"/>
  <path d="M690.06,797.08c-4.06,4.5-9.71,8.54-15.08,11.94l1.1,2.2c-6.98,4.84-15.71,6.71-24.59,8.29-5.74,1.02-11.19.44-17.08-.06-3.3-.28-5.77-.61-7.42-3.02l4.43.08,10.23.35c4.1.14,8.45-.52,11.74-1.55l13.85-4.35c9.96-3.13,18.27-10.9,24.35-19.4l4.05-6.23c1.01,1.5-2.97,8.86-5.58,11.75Z" fill="#b79d77"/>
  <path d="M433.36,337.45c1.83,2.58,6.64-1.65,12.05,1.26-11.74,2.31-23.08,5.41-32.8,12.79l4.36-.28-5.3,3.68c.54,1.23.74,2.26,1.44,2.29l2.5.47c-4.69,3.33-7.71-3.67-12.8,1.26l-6.16,5.96-.24-2.44,1.88-4.79c.23-.27,1.04-.87,1.34-1.05l1.94-1.19c1.77-1.58,4.61-4.97,7.14-6.6,7.96-5.13,16.17-9.26,24.66-11.36ZM404.96,354.54c4.25-2.28,7.1-4.59,10.59-7.57-4.13,1.57-7.93,3.92-10.59,7.57Z" fill="#c8b08b"/>
  <path d="M283.8,687.58l-1.84,8.34-2.91-12.16c-.39-1.63-3.51-3.03-5.17-3.35l-7.41-1.45,12.31-3.85,2.91-13.54,3.67,13.86,12.52,3.33-11.07,2.68c-1.56.38-2.66,4.58-3,6.15Z" fill="#c29f67"/>
  <path d="M825.59,626.5l-1.47-.93-1.4-.38,1.4-4.82c.97.25,2.83-1.95,2.96-3.02l.97-7.95-1.78,3.09-.93-.11-.45-1.92-4.93,7.8-3.68,6.46-4.07,3.67-11.62,6.9.72,1.25-4.17,2.15c-5.39.28-14.24,4.92-21.73,4.61l-.2-2.05c14.87-1.08,29.3-7.98,39.52-19.17,8.27-9.06,11.45-21.5,13.96-19.69,3.69,2.65-.23,15.97-3.11,24.11ZM827.37,605.57l.17,2.87c.02.39,1.65-.17,1.66-.56l.06-1.96c.01-.39-1.91-.74-1.89-.35Z" fill="#c1a882"/>
  <path d="M801.23,544.44l-.02,1.13,1.16,1.18,7.09-4.73-4.17,8.44,7.19,2.1-5.01,1.95-1.4-.17c-.69-.08-2.24.68-1.99,1.42l1.21,3.6-4.12-2.25-2.1,9.54c-.59-3.15-.76-7.1-2.59-8.15l-2.52-1.44c.06-.78.28-3.36-.57-3.42l-3.99-.28,1.79-2.94,1.08-.08,6.21-4.33c-.17-1.35-.33-3.51.13-3.29l1.8.87.82.84Z" fill="#cfa66e"/>
  <path d="M498.19,320.61l1.18,3.03-2.61.41c-4.72-6.26-5-13.41-2.37-20.51-6.28,4.31-7.89,11.23-7.71,17.15l1.74-1.49c.27-.23,1.23-.53,1.59-.7.49-.23,0,1.96.18,2.48l1.49,4.86-1.18-.09-.22-1.6c-.05-.3-.46-.31-.53-.02l-.29,1.53-1.15,2.22c-.24.47-1.41-.02-1.63-.15-5.42-11.34-.86-23.85,10.87-29.14,1-.45,3.21-.45,3.72.27l-5.68,11.1c-1.62,3.17,1.53,7.93,2.58,10.64Z" fill="#cbb288"/>
  <path d="M353.84,438.42c9.28,9.5,24.19,11.16,36.79,7.55-12.68,5.69-29.08,2.64-39.09-7.15l2.3-.39Z" fill="#b19c7c"/>
  <path d="M339.59,406.68c.25.44.9,1.57,1.37,1.31l2.12-1.24c.48.91,1.58,2.01,2.59,2.94l.53,3.63c.16.71,1.81,1.08,2.56,1.15l.94,3.15-2.76-2.04-1.44,5.98-2.38.08c-.6.01.78,3.46,1.42,2.62l1.38-1.57c1.55,4.13,3.36,9.05,7.86,12.16l-1.69-13.15,3.83,16.48-2.09.24c-.46-.73-1.62-2.64-2.32-3.37l-1.38-1.46c-.24-.26-1.65.12-1.62.48l-.12,1.68c-2.67-2.62-5.16-6.36-6.56-10.37l-5.63-16.08c1-.1,2.17-.11,2.15-.52l-.12-2.27,1.34.18ZM343.91,412.38c-.86-.13-3.75.53-5.55,1.19l2.65,2.61c.55.54,2.96.66,2.95,0l-.05-3.8ZM344.28,427.07l-.68.02.68.02h.7s.68-.02.68-.02l-.68-.02h-.7Z" fill="#b19c7c"/>
  <path d="M633.14,672.33l-.47,12.76,1.8,5.71c.38,1.21-1.92,3.27-3.42,4.54l-3.88,26.51,3.37-.33-1.24,4.8-3.41-5.48-1.88.21c-.54.06-1.3,1.03-1.62,1.44l.35-3.99c.07-.66,1.18-.58,2.64-.72l3.11-23.27c-.97-1.5-2.58-4.04-1.88-5.04l3.29-4.7,1.25-12.18.65-9.56,1.32,9.31Z" fill="#b79d77"/>
  <path d="M806.71,600.91c.91.66-.3-.22-1.27-.93-.06-2.65-.82-7.1-2.17-9.3l-9.28-2.95,8.07-2.85c3.86-1.36,2.04-9.46,4.76-10.07l2.2,9.71,10.56,3.15-10.31,2.85-2.57,10.38Z" fill="#baa07d"/>
  <path d="M357,318.03l9.24-.57,4.54-1.79.77,1.64c.17.28,1.47.21,1.86.14l5.38-.34c-5.79,2.13-11.82,2.78-18.29,2.85l5.34,4.53c-1.34,1.56-1.57,3.88-.98,5.52l1.97,5.49c-2.62-7.33-8.81-13.38-15.98-15.48-.78,2.54-1.67,4.78-2.59,5.86s-4.48.77-5.58-.06c-.73-.55-1.93-2.37-1.59-3.06s2-1.95,2.61-1.49,2.18,1.94,2.44,1.44l1.34-2.64c-.76-1.68-4.05-3.05-6.21-2.3-1.7.6-2.78,3.55-2.94,6.02,5.12,17.17,13.49,32.22,24.35,45.9l-.08,1.17-3.65-3.52c-5.95-8.29-11.1-17.09-15.79-26.05l-3.48-6.66-1.59-6.54c-.48-1.78-.51-5.55-.34-7.37l.19-2.12c1.15-1.61,4.09-3.22,6.25-3.02,1.58.15,3.32,2.7,4.68,4.33l.32-2.28.43-1.5-.48-.31-2.62-.83,3.19.04c.25,0,.34.24.75.93,2.24-.45,4.62.83,5.85,3.45-.04.07.41-.8.71-1.4Z" fill="#b79d77"/>
  <path d="M557.47,738.31l-4.94,1.95-2.19-.05-7.05,8.68-.87-3.56,1.97-3.48-3.02,2.6-3.39-1.84,1.38-1.42,1.17-1.81-1.7-1.65c-.3-.29.66-1.75.94-2.11l2.58-3.44,2.78-3.73,1.87,3.87c.37.77,2.86-1.71,3.08-1.98l.58,4.24c.11.83,2.33.87,3.36,1.01-.08.65-.61,2.66.07,2.67l3.38.06Z" fill="#cfa66e"/>
  <path d="M622.17,733.2l-3.85,2.28-2.1-3.59-19.7,8.1c-1.6.66-3.93,4.82-5.54,4.43-1.42-.34-3.65-2.57-4.9-3.89l-10.69-.3,5.15-1.9c1.61,0,4.67-.12,6.33-.52,1.12-.27,3.1-3.18,4.14-2.71l4.62,2.11,19.19-6.92c.15-1.31.76-2.91,1.6-3.13l2.98,6.17,2.48-.91c.3-.11.26.36.29.78Z" fill="#c1a882"/>
  <path d="M629.31,726.32c1.78.37,3.81,1.33,4.46,2.29l-5.26,2.07,1.86,2.02c.38.41.12,2.63-.42,2.47l-3.12-.94-2.4,6.43c-1.25-1.83-1.99-4.76-2.24-7.46-.04-.42,0-.89-.29-.78l-2.48.91-2.98-6.17c.59-.15,2.43-.15,2.43-.76l-.02-3.2,3.58-.73c.32-.41,1.09-1.38,1.62-1.44l1.88-.21,3.41,5.48Z" fill="#cfac7b"/>
  <path d="M346.29,259.31c-5.56,5.25-8.55,13.45-10.5,21.39-.7,2.87-.15,7.83.15,10.73,1.1,10.44,6.91,19.38,16.44,23.52,1.84.8,3.71,1.91,4.6,3.08-.3.6-.75,1.47-.71,1.4-1.23-2.62-3.61-3.9-5.85-3.45l-.83.16-.43,1.5-.32,2.28c-1.36-1.63-3.1-4.18-4.68-4.33-2.17-.2-5.11,1.42-6.25,3.02-.17-.19-.99-1.05-.96-1.03.01.01,1.42-.89,1.6-1.09l3.29-3.49s1.83-.39,1.62-.79l-1.23-2.32-4.49-4.36v-.88s-1.13-.9-1.13-.9l.14-1.12c-2.65-8.76-3.47-17.65-3.2-26.87l1.53-5.65,4.76-13.77,2.23,4.52,2.34-2.26c.38-.37,1.09-.05,1.87.72ZM349.69,315.05l-3.19-.04,2.62.83.57-.79Z" fill="#e0c28e"/>
  <path d="M531.23,700.95l2.57.45c.21,1.12.68,3.3,1.65,3.83l3.41,1.84-2.72,3.71-3.62,2.37-3.36,3.37-1.78-3.5c-.34-.68-2.45-.19-2.57-.19l-1.02-4.52c-.76-.49-.4-1.94-.13-2.71l.54-1.5c.04-.1-.59-.68-.71-.8l.23-1,4.61-1.29c.67-.22,2.25-.17,2.91-.06Z" fill="#cfa66e"/>
  <path d="M352.71,499.51l-1.02,2.56c-.3.76-2.59-.28-2.88-.36l-3.65-5.74c-.15-.22-.94-1.39-.95-1.38l-1.53,1.28-4.68-4.69c-3.8-3.81-7.61-6.48-12.76-8.85-.03,2.19,0,3.75.42,4.46-1.05-.23-4.48-2.37-3.58-3.38l3.71-4.12-2.6-1.93-.71-2.68c4.66,2.11,10.15,6.02,13.98,9.83l6.74,6.72c4.77,4.75,6.68,9.63,7.68,9.18l1.84-.9Z" fill="#ac9675"/>
  <path d="M376.74,336.76c3.04,4.65,6.13,10.22,6.32,15.85l-.72,4-4.09-13.08-.68,3.19-6.7-10.52-.39,25.63c-.03,2.27.93,5.2,1.92,6.82-.39-.3-1.45.4-1.64.99l-1.13,3.62c-.52-1.39-.94-2.8-1.01-3.58l.43-11.33-.81-25.91c2.88,2.26,5.53,3.75,8.5,4.31Z" fill="#b79d77"/>
  <path d="M353.84,438.42l-2.3.39-3.13-3.07.12-1.68c-.03-.36,1.37-.74,1.62-.48l1.38,1.46c.69.74,1.86,2.65,2.32,3.37Z" fill="#c4ab85"/>
  <path d="M238.05,390.12c-3.45.88-.97,8.17-3.76,10.57l-2.78-10.33-8.34-2.33,8.54-2.59,2.63-10.05,2.77,10.15,8.8,2.59-7.86,2Z" fill="#b79d77"/>
  <path d="M690.77,271.06l-7.21-18.33-1.04-1.23-11.71-18.26-1.3-.59c-13.78-17.02-31.23-30.74-51.17-39.82l.23-1.49c9.67,4.59,19.16,9.51,28,16.23,17.74,13.47,32.37,30.21,40.92,50.93l3.28,12.54Z" fill="#baa07d"/>
  <path d="M757.91,604c.47,1.93,1.13,4.12,2.23,5.15l3.77,3.52-3.4,5.08c-.21-.03-2.25.38-2.79.92-.43.43-1.64,2.34-1.85,1.77l-.78-2.12c-.17-.47-.77-1.61-1.24-1.51l-2.33.49c.11-.95.57-2.56,0-2.83l-2.88-1.36,6.83-7.62c.87-.97.98-4.47,1.29-6.15l1.13,4.67Z" fill="#cfac7b"/>
  <path d="M383.06,352.61l.6,17.98-2.16.62c2.84,2.73,5.75,1.43,7.81-.87l7.09-7.91.24,2.44-9.01,12.86-.59,8.54-1.42.74-.22-7.8-.11-3.79c-.06-2.09-6.3-.66-7.66-3.69h2.43c.39-.02.48-1.47.46-2.09l-.54-18.94c-.01-.46-.59-1.87-.95-1.94l-1.23-.11-.21-1.94.68-3.19,4.09,13.08.72-4ZM381.86,369.69l.82-.55-.28-4.55-.84.55.3,4.55Z" fill="#d5bc8f"/>
  <path d="M760.47,565.58c-2,11.91,2.45,19.32,1.74,20.03l-3.69,3.69-.62,14.7-1.13-4.67c-.32,1.68-.43,5.18-1.29,6.15l.44-6.61c.41-2.93.76-7.98-.37-10.56-1.55-3.55-1.08-4.84.5-8.36,2.04-4.56,2.18-11.52,2.27-16.55l2.14,2.19Z" fill="#b79d77"/>
  <path d="M774.05,312.77l-.68,3.61c-.71,3.76-2.62-7.35-3.23-7.56l-7.92-2.73,8.17-1.95,2.17-9.09,2.68,9.02,7.13,2.08-6.34,2.3c-.98.35-1.78,3.26-1.98,4.33Z" fill="#baa07d"/>
  <path d="M335.38,563.28c1.96-.55,5.49,1.79,7.26,3.11l.81.42,2.67-1.67,4.82,2.93-1.26.41-1.56.17c-.29.05-.22.48,0,.67l1.52,1.13s.97-.03,1.18.02c1.73,1.86,4.59,5.63,5.46,7.94.22.58-2.42,2.55-2.24,1.5l-3.32-.74h-1.72c-3.81-.72-9.76-5.17-13.34-7.13l.12-1.8,8.94,5.29c2.51,1.49,5.88,2.14,9,1.82-1.68-1.95-3.72-4.91-5.91-6.05l-12.79-6.73c-.44-.23-2.37-.04-2.36.34l-.1,1.66-1.97-1.92,4.79-1.35Z" fill="#ac9675"/>
  <path d="M559.38,675.97l3.1,3.56-5.14,5.77c.05.24.18.81.11,1.05-2.31-.3-5.38-2.31-7.05-3.78-.8-.71-1.91-2.59-1.76-3.58.12-.83,1.2-2.26,1.92-2.68l4.95-2.89c1.2.73,3.14,1.71,3.87,2.54Z" fill="#cfa66e"/>
  <path d="M376.74,336.76c-2.97-.56-5.62-2.05-8.5-4.31l.81,25.91-.43,11.33-.16-2.01c-.03-.37-.44-.94-.84-1.02l.04-28.97-.97-1.07c.02-.06.22-.89.13-1.13l-1.97-5.49c-.59-1.65-.36-3.97.98-5.52,4.17,3.54,7.87,7.62,10.91,12.27ZM368.14,329.69l-.02.65v.67l.02.65.02-.65v-.67l-.02-.65Z" fill="#d2b78e"/>
  <path d="M825.59,626.5c-3.85,10.87-10.09,20.21-18.37,29.02l-7.11,5.68c-.46-.88-.41-2.3.13-2.83,3.68-1.65,6.99-5.64,8.91-9.03l.76-1.34c.18.29,1.97-1.01,2.39-1.65l4.61-7.1c.16-.25-.54-1.12-.73-.9l6.05-11.61,1.88-1.18,1.47.93Z" fill="#baa07d"/>
  <path d="M537.26,313.77c-.69-1.28-1.96-3.43-2.86-4.24l-5.97-5.31,1.72,8.51c.11.56-.13,2.1-.32,2.59s-1.91.36-1.97-.17l-.25-2.39-2.33-7.52c-2.25-2.71-3.4-4.2-4.04-7.79,7.76,1.14,15.1,9.26,16.01,16.32Z" fill="#baa07d"/>
  <path d="M630.49,805.25l-.27.98c.55.68,1.54,3.21.69,3.86l-4.6,3.51,5.12,2.9-4.43-.08h-4.56s-.46-2.17-.46-2.17c-.11-.45-1.23.38-1.6.56l-2.82.23-.17-1.04,4.33-3.45,6.38-6.54c.27-.05,1.06.22,1.27.29l1.13.94Z" fill="#8c7055"/>
  <path d="M683.75,343.83l-3.11.45,1.8-3.56.69-1.13c.4-1.61,1.02-3.7,1.77-5.13l3.74-6.43c2.75-6.05-.27-12.46-6.32-14.2-.08-.32.7-1.96,1.23-2.56l3.97,3.39c3.89,2.34,4.97,8.24,3.26,12.33l-7.03,16.84Z" fill="#d5bc8f"/>
  <path d="M203.18,595.97c-2.56-2.75.25-6.02-7.73-8.25,4.7-1.53,6.42-3.05,7.19-8.06l2.18,5.37c.44,1.07,2.68,1.37,5.39,2.06l-.58,1.58c-4.95.45-5.58,1.45-6.45,7.31Z" fill="#9f876b"/>
  <path d="M536.14,710.78l-1.82,2.48,8.04,18.9-2.58,3.44c-.27.37-1.24,1.82-.94,2.11l1.7,1.65-4.02-1.24,3.18-5.54-5.98-14.7-1.2-4.75,3.62-2.37Z" fill="#bea987"/>
  <path d="M801.23,544.44l-.82-.84-1.8-.87c-.46-.22-.3,1.94-.13,3.29l-6.21,4.33-3.26-8.52,6.91,5.27,2.93-17.03c2.09,5.21,2.44,9.76,2.37,14.37Z" fill="#cfac7b"/>
  <path d="M735.27,468.6v-1.32s1.08.28,1.08.28c-.19.32-.75.91-1.08,1.03Z" fill="#c4ab85"/>
  <path d="M557.46,686.35l-1.65,6.4-2.98-7.9-13.69,14.1c-1.94,2-3.46,4.25-3.69,6.28-.97-.52-1.44-2.71-1.65-3.83l15.46-16.38c.5-.51,1.5-2.25,1.15-2.44,1.67,1.47,4.74,3.48,7.05,3.78Z" fill="#bea987"/>
  <path d="M730.31,473.65l-1.37-2.21,3.43-1.72,2.9-1.12c.33-.13.89-.71,1.08-1.03l5.5,2.23c.53.21,1.96,1.84,1.56,2.21s-1.89,1.44-2.44,1.45l-10.66.19Z" fill="#ac9675"/>
  <path d="M643.23,311.45l6.35,3.06,3.64,1.52c1.88,4.07,8.98-.79,12.37,3.48-6.01.38-11.86.14-17.24-1.66l-6.84-5.39,1.72-1.01Z" fill="#baa07d"/>
  <path d="M691.35,799c-1.21,1.58-2.65,3.47-4.47,4.73l-10.81,7.5-1.1-2.2c5.37-3.4,11.02-7.45,15.08-11.94l1.29,1.91Z" fill="#c8b08b"/>
  <path d="M386.17,764.07c-.93-3.37-2.67-5.6-5.91-6.69,2.84-1.29,4.59-3.24,5.68-6.01.95,2.38,2.92,4.58,5.59,6.46-2.84.34-4.8,2.91-5.36,6.23Z" fill="#ac9675"/>
  <path d="M414.46,621.91c-1.09.43-3.67,1-3.99,1.97l-1.54,4.62-1.73-4.46c-.4-1.04-3.2-1.69-4.45-2.03,2.53-.86,4.62-3.02,5.83-5.97,1.43,2.98,2.8,4.23,5.87,5.87Z" fill="#bda581"/>
  <path d="M683.55,311.26c-.53.59-1.31,2.24-1.23,2.56l-2.17-.43,5.35-6.85c2.98-3.82,5.53-11.52,5.62-16.59l.58-15.97c1.54,4.83.83,13.23.36,19.48-.52,6.85-5.13,14.03-8.51,17.8Z" fill="#b79d77"/>
  <path d="M772.01,672.87l1.05,1.19,6.26-.47c-6.23,2.52-13.11,3.53-20.29,4.55l-4.56,1.21-3.25-1.08c6.02-3.61,12.7-.2,17.96-3.66.31-.21.84-1.47,1.21-1.52l1.63-.22Z" fill="#a68a69"/>
  <path d="M716.78,356.54l-1.41-3.61c-.41-1.05-3.24-1.54-4.54-2.03,3.22-1.79,4.84-3.16,6.06-6.07.53,2.28,2.52,4.61,5.36,5.43-2.7,1.21-4.79,3.01-5.47,6.29Z" fill="#bda581"/>
  <path d="M789.19,668.07c-.32,1.04-2.27,2.44-3.27,2.85l-6.6,2.67-6.26.47-1.05-1.19,4.52-1.12c5.87-1.45,8.28-6.29,12.66-3.68Z" fill="#baa07d"/>
  <path d="M806.07,554.35l3.32,9.57-7.88-4.82c-.35,6.08-.79,10.94-2.54,16.73l-2.49-17.31c1.83,1.04,2,5,2.59,8.15l2.1-9.54,4.12,2.25-1.21-3.6c-.25-.74,1.3-1.5,1.99-1.42Z" fill="#c1a882"/>
  <path d="M559.8,216.98c1.09-.54,3.86.84,4.37,1.88.59,1.21-.52,3.91-1.71,4.55-1.66.89-4.07.18-4.77-1.52-.54-1.31.66-4.18,2.12-4.91Z" fill="#ac9675"/>
  <path d="M873.44,504.79c1.13-.44,4.28.31,4.64,1.4.43,1.26-.86,4.09-1.93,4.96s-3.75-.34-4.69-1.64c-.78-1.08.54-4.15,1.97-4.71Z" fill="#a68a69"/>
  <circle cx="464.04" cy="220.27" r="3.42" fill="#ac9675"/>
  <path d="M146.2,504.72c1.06-.47,3.75.81,4.31,1.76.79,1.35-.19,3.57-1.9,4.46-1.19.62-3.45-.17-4.44-1.47-.78-1.03.65-4.15,2.03-4.76Z" fill="#ac9675"/>
  <path d="M807.47,554.52l5.01-1.95-7.19-2.1,15.61,1.95c-4.56,1.66-10.07,2.5-13.42,2.1Z" fill="#c1a882"/>
  <path d="M514.08,217.05l-1.61,11.86-1.82-13.62,1.22,1.78c.34.5,1.93.52,2.21-.02Z" fill="#bda581"/>
  <path d="M336.77,302.62c-4.61-7.33-5.32-19.02-3.2-26.87-.27,9.22.55,18.11,3.2,26.87Z" fill="#a68a69"/>
  <path d="M477.38,339.5l.95-1c-.18.33-.6.86-.95,1Z" fill="#d5bc8f"/>
  <path d="M396.4,362.44l-7.09,7.91c-2.06,2.3-4.96,3.6-7.81.87l2.16-.62c2.47.25,4.59-.99,6.6-3.39l8.02-9.56-1.88,4.79Z" fill="#ac9675"/>
  <path d="M397.07,237.6c-.16-5.2,2.19-11.42,5.4-15.84l-.76,3.25-4.64,12.59Z" fill="#c1a882"/>
  <path d="M557.34,685.3l5.14-5.77-3.1-3.56.03-1.41c1.91-1.63,2.83-2.42,2.82-1.81l-.4,4.71,5.94,2.27-6.76,2.28,2.3,5.72-5.97-2.43Z" fill="#c8b08b"/>
  <path d="M461.54,585.43l-1.06-1.06,1.06,1.06Z" fill="#e0c28e"/>
  <path d="M462.52,586.41l-.98-.98c.31.17.75.83.98.98Z" fill="#e0c28e"/>
  <path d="M366.61,572.36c.25,2.73-4.7,6.58-6.99,4.24-2.53-2.59-6.18-5.58-8.82-6.14-.21-.04-1.18-.02-1.18-.02l.05-1.97,1.26-.41c3.6,2.11,7.03,5.12,10.71,8.61l4.97-4.32Z" fill="#c1a882"/>
  <path d="M382.53,578.71l1.78.72,7.48-1.61c-2.82,1.79-6.9,3.08-10.01,3.78l-.3-4.17,1.12-.21-.06,1.49Z" fill="#c1a882"/>
  <path d="M341.87,313.01l-4.1-7.47,4.49,4.36,1.23,2.32c.22.41-1.66.81-1.62.79Z" fill="#a68a69"/>
  <path d="M430.77,246.88c.28-2.65,1.67-5.09,4.07-5.93-.98,1.98-2.59,4.32-4.07,5.93Z" fill="#c4ab85"/>
  <path d="M713.24,588.32c-1.01-2.31-1.03-6.51-.38-8.86l.38,8.86Z" fill="#bea987"/>
  <path d="M747.32,521.48l-5.06,3.11-.04-2.38c1.37-.33,3.57-.74,5.1-.74Z" fill="#b79d77"/>
  <path d="M438.84,232.86l.9-5.81,2.95-10.28c-.44,5.33-1.46,11.26-3.85,16.09Z" fill="#c4ab85"/>
  <path d="M397.5,238.72l-1.05,5.1-.99-2.7c-.31-.86,1.24-2.71,2.03-2.4Z" fill="#b39f81"/>
  <path d="M495.72,897.41l-6.27.33,6.27-.33Z" fill="#957b5c"/>
  <path d="M353.66,498.42l4.05-2.93c.04.81-.4,2.36-1.1,2.53l-2.95.4Z" fill="#ac9675"/>
  <path d="M714.34,594.52l-1.2-4.95,1.2,4.95Z" fill="#bea987"/>
  <path d="M751.23,554.48l-1.88-.45c-.47-.13-1.19-1.3-.76-1.53l1.7-.92.94,2.9Z" fill="#bea987"/>
  <path d="M622.43,816.43l-2.04.18-.03-1.79c.37-.19,1.5-1.01,1.6-.56l.46,2.17Z" fill="#b79d77"/>
  <path d="M508.11,942.2c-.77-.91-.49-3.26.19-4.24l-.19,4.24Z" fill="#9d8264"/>
  <path d="M396.57,442.59l-2.95,2.03,2.95-2.03Z" fill="#b19c7c"/>
  <path d="M415.21,187.76l-4.71,1.84,4.71-1.84Z" fill="#c1a882"/>
  <path d="M639.49,560.3l-2.14-.83,2.14.83Z" fill="#957b5c"/>
  <path d="M590.44,496.52l-1.85-1.18,1.85,1.18Z" fill="#baa07d"/>
  <path d="M401.56,355.42l-1.94,1.19,1.94-1.19Z" fill="#ac9675"/>
  <path d="M494.57,104.9l.87-2.01-.87,2.01Z" fill="#c4ab85"/>
  <path d="M666.46,496.33l-1.17-.86,1.17.86Z" fill="#957b5c"/>
  <path d="M399.55,441.51l1.11-.94c-.21.28-.76.81-1.11.94Z" fill="#e4c99a"/>
  <path d="M435.53,505.93c.08-.32.86-1.62.94-1.6l-.94,1.6Z" fill="#9d8264"/>
  <path d="M444.29,432.7l1.37-1.01-1.37,1.01Z" fill="#baa07d"/>
  <path d="M337.76,304.65l-1.12-.9,1.12.9Z" fill="#a68a69"/>
  <path d="M802.37,546.75l-1.16-1.18,1.16,1.18Z" fill="#cfac7b"/>
  <path d="M495.62,101.91l.92-.99-.92.99Z" fill="#c4ab85"/>
  <path d="M515.49,100.88l1.02-.96-1.02.96Z" fill="#c4ab85"/>
  <path d="M496.5,99.88l1.03-.96-1.03.96Z" fill="#c4ab85"/>
  <path d="M516.38,98.77l2.97-2.94-2.97,2.94Z" fill="#c4ab85"/>
  <path d="M497.43,97.8l1.97-1.95-1.97,1.95Z" fill="#c4ab85"/>
  <path d="M518.61,41.12l-1.14-1.21,1.14,1.21Z" fill="#baa07d"/>
  <path d="M572.76,559.43l.23-4.04-.23,4.04Z" fill="#e4c99a"/>
  <path d="M571.79,561.2c.24,2.59.26,2.76.04.43-.11-1.1-.14-1.49-.04-.43Z" fill="#e4c99a"/>
  <path d="M355.83,251.91l-4.17,5.81c-10.75,14.98-17.86,37.77-2.29,47.39,6.07,3.75,12.19,5.7,19.36,4.53l-1.51,1.84c-2.49-.27-5.96-.5-8.36,2.86l11.78.5,1.51.18-1.37.65-4.54,1.79-9.24.57c-.89-1.16-2.77-2.28-4.6-3.08-9.53-4.15-15.34-13.08-16.44-23.52-.31-2.9-.86-7.86-.15-10.73,1.95-7.94,4.94-16.14,10.5-21.39l9.1-8.59.44,1.2Z" fill="#a08866"/>
  <path d="M423.56,242.71l-3.67,5.33-6.93,8.14c-6.53,7.67-11.88,18.3-11.3,28.66l3.89-6.19c.06,3.3-.96,6.8-3.22,8.34l-2.4-.26.5-8c.06-.96-1.24-3.06-1.83-2.99l.09-1.48c4.68-10.24,10.52-19.22,19.38-27.52l-4.48-2.16,2.21-1.69,3.52,3.8,4.24-3.97Z" fill="#b39f81"/>
  <path d="M391.04,297.62l-3.73,2.68-9.1,8.74,3.56.83c-2.63,2.48-5.97,3.97-9.62,5.16l-1.51-.18c.12-.8.16-2.96-.65-3.05l-2.77-.3,1.51-1.84c7.51-1.22,16.95-8.29,18.87-14.85l3.44,2.82Z" fill="#b39f81"/>
  <path d="M402.32,286.99c-1.3,4.72-3.66,9.64-7.61,13.62,1.68-6.86,3.15-11.75,3.48-17.68l.4-7.19c.59-.07,1.89,2.04,1.83,2.99l-.5,8,2.4.26Z" fill="#957b5c"/>
  <path d="M393.65,287.82l1.4-.17c.36,4.39-1.45,9.63-4.23,11.22l.21-1.26-3.44-2.82,2.99-10.21.69,3.05c.13.54,1.82.26,2.37.19Z" fill="#9d8264"/>
  <path d="M412.26,262.55c4.1-7.17,9.97-13.4,16.4-18.6l-4.38,5.53-12.02,13.06Z" fill="#c4ab85"/>
  <path d="M403.46,249.64l-6.49,3.93-.5,7.1c-1.03-.97-1.91-3.58-1.62-5.01.35-1.71,2.48-4.08,3.89-4.52l4.71-1.49Z" fill="#b39f81"/>
  <path d="M398.76,272.42c-1.45-2.64-2.4-7.62-2.32-10.46l2.32,10.46Z" fill="#b39f81"/>
  <path d="M410.66,246.97c-1.53,1.25-4.31,3.31-5.85,2.97l5.85-2.97Z" fill="#b39f81"/>
  <path d="M426.61,238.76l-.22-3.17,1.26-.05,1,2.02c.3.6-1.51,1.39-2.04,1.2Z" fill="#c4ab85"/>
  <path d="M435.83,231.01c-.3-1.12-.61-2.12-1.17-1.91l-2.01.76,3.39-3.77c.35,1.63.33,3.88-.21,4.92Z" fill="#c4ab85"/>
  <path d="M409.29,267.61l1.18-1.93,1.18.63c.28.19-.27,1.28-.61,1.28l-1.75.02Z" fill="#c4ab85"/>
  <path d="M429.6,241.82l1.23-1.13c-.16.31-1.05,1.06-1.23,1.13Z" fill="#c4ab85"/>
  <circle cx="393.62" cy="301.71" r=".86" fill="#957b5c"/>
  <rect x="391.76" y="303.85" width=".71" height=".71" transform="translate(-100.26 366.37) rotate(-45)" fill="#957b5c"/>
  <path d="M247.57,789.99s1.28.13,1.74.18c-.65,1.54-1.05,4.29-1.68,5.48-.71,1.34-4.66.52-5.98-.68-1.12-1.02-.85-4.03.65-5.57,1.05-1.08,3.77-.78,5.27.59Z" fill="#a68a69"/>
  <path d="M539.36,741.19l-1.38,1.42-7.71-4.06c-2.56-1.35-5.38-2.47-7-4.16-.18.04,2.3-.06,2.06-.49l-1.22-2.19c-2.67-4.76-6.31-9.09-12.17-6.85l4.45,5.34-4.35-2.4c-.79-.44-2.85-1.77-2.89-2.6l-.18-3.77c-2.09.33-4.32.57-5.65-.11-1.17-.6-2.31-2.73-2.12-3.92,4.1,1.77,7.57,3.19,12.59,4.11.35-5.24-.58-10.82-4.53-13.79-7.91-5.94-13.31-12.74-17.56-21.64l-.22,16.21-.96-1.17-.05-15.2c0-.3.78-2.46.81-2.46.03,0,.71.52.95.7l1.2.89c-1.17-3.39-2.34-8.76-.57-11.52l2.66-4.17-2.02,9.01c2.03,9.88,7.81,18.95,15.48,25.35,3.52,2.94,5.22,5.69,7.67,9.59l11.92,18.97c.8-.81,2.67-2.64,3.28-2.01l2.62,2.74c.61.64-1.09,2.4-2.33,3.76l7.23,4.41Z" fill="#baa07d"/>
  <path d="M553.53,762.9l4.04,2.52c1.39,3.89,1.13,9.85-1.06,13.75l-.14-4.57-4.93,2.47-1.86.93c-.41.21.46,1.52.91,1.55l4.95.79-1.83,4.06,24.86-4.23,13.9-1.09c8.09-.63,14.39,1.48,21.27,5.25l.68,2.36.97.92c.1-.05-1.1.52-1.37.65l-.18-.77-5.45-2.28c-6.1-2.56-12.72-4.58-19.87-3.29l-32.09,5.79-.97.91-12.88-.88,8.79-1.67c.26.63,1.11-1.56.64-1.71l-3.55-3.12c2.87-14.86-5.97-22.8-18.75-30.12l-15.41-8.82,1.35-2.59,8.03,4.47c14.46,8.05,24.73,11.63,29.16,30.92l.79-12.2ZM556,768.18l-.23,4.04.23-4.04Z" fill="#baa07d"/>
  <path d="M491.48,702.29l1.02,2.14-2.09.76-1.01-1.85c-2.4-10.4.64-17.88-.39-24.95l-.82-1.06c1.98-.85,3.19-2.37,2.79-3.62l1.88-.17c-1.77,2.77-.61,8.13.57,11.52l-1.2-.89c-.24-.18-.93-.7-.95-.7-.03,0-.81,2.16-.81,2.46l.05,15.2.96,1.17Z" fill="#cbb288"/>
  <path d="M556.43,763.28l-1.51-1.95c-.38-.48-.07-2.06.45-2.36.69.94,1.14,3.44,1.07,4.3Z" fill="#baa07d"/>
  <path d="M507,762.86c-1.14-.98-2.93-3.71-3.6-5.46l3.6,5.46Z" fill="#bda581"/>
  <path d="M510.75,764.99l-2.06-2.94,2.06,2.94Z" fill="#bda581"/>
  <path d="M502.59,755.25l-1.66-1.8c-.24-.31.05-1.12.53-1.22l1.13,3.02Z" fill="#bda581"/>
  <path d="M505.58,484.07c-.03-.25.04-.67.2-.91l.58-.68-.78,1.58Z" fill="#c5ae87"/>
  <path d="M634.21,266.48l.57,18.61c.3,9.62,5.93,17.36,12.83,21.38,8.12,4.73,18.52,4.68,26.06-.37,2.18-1.46,3.89-1.99,6.24-1.97l2.93-2.18-1.2,2.95-.95,4.45-3.25,2.38-2.18,1.2-1.64.97-1.33.86-2,.41-.7-3.03c-.14-.47-1.61.02-1.95.4l-1.62,1.82-12.81,1.68-3.64-1.52-6.35-3.06.31-1.06c.71.93,3.4-1.74,2.5-2.35-6.77-4.57-13.17-12.65-13.82-21.16l-1.07-14.1,3.07-6.29Z" fill="#a69279"/>
  <path d="M609.39,244.74l.24,4.7c7.16,7.27,11.8,15.42,15.8,24.31l-.05,1.82-.27,9.28c-.8-4.08-1.19-7.36-2.45-10.2-2.82-6.38-5.82-13.14-10.44-18.57l-11.79-14.26,5.34,4.64,3.62-1.72Z" fill="#b19c7c"/>
  <path d="M625.38,275.57l1.49.77c-.99,8.38.96,15.92,3.68,25.17-6.34-4.7-7.36-12.46-10.23-18.57l2.28-3.14.06-5.14c1.25,2.84,1.64,6.12,2.45,10.2l.27-9.28Z" fill="#9d8264"/>
  <path d="M627.68,250.48l-.22,2.21-12.61-4.51c-1.81-.65-3.2-2.35-4.45-3.5l-11.85-10.9,2.51,1.41c8.45,6.16,17.22,11.47,26.62,15.29Z" fill="#d5bc8f"/>
  <path d="M622.61,279.79l-2.28,3.14c-.75-1.61-1.51-3.59-1.5-5.26l3.79,2.12Z" fill="#baa07d"/>
  <path d="M627.58,268.69l.53-8.1.34-6.94,1.83.73c.34.13-.05,1.49-.16,2.03l-2.54,12.29Z" fill="#baa07d"/>
  <path d="M663.99,324.32l1.4.67c-2.22,1.49-4.39,6.17-5.77,8.6l-2.04,3.81-.5-2.98,2.29-7.16,4.61-2.95Z" fill="#c8b08b"/>
  <path d="M654.33,368.65l.94-1.04-.94,1.04Z" fill="#a08866"/>
  <rect x="610.55" y="347.81" width=".71" height=".71" transform="translate(-67.26 533.95) rotate(-45)" fill="#d5bc8f"/>
  <rect x="608.55" y="346.81" width=".71" height=".71" transform="translate(-67.14 532.24) rotate(-45)" fill="#d5bc8f"/>
  <rect x="606.55" y="345.81" width=".71" height=".71" transform="translate(-67.01 530.54) rotate(-45)" fill="#d5bc8f"/>
  <path d="M736.66,531.98l-5.7,4.3-.7,1.04-5.85,6.8-2.22,1.66c-.42.31-1.55-.42-1.9-.67.46-.83-.55-2.78-1.03-3.57l.48-2.41c.01-.45-1.13-1.37-1.37-1.63l3.65-3.58c.68-.67,2.88-.3,3.87.03,1.91-4.26,5.93-6.12,11.06-4.99l-.29,3.01Z" fill="#b79d77"/>
  <path d="M725.06,625.11l-3.36,4.01-.58-6.54-3.92-6.52c-1.48-2.46-5.65-4.83-8.2-6.38l4.53-.4-1.17-6.3c.54-.05,1.48.92,1.74,1.56,3.1,7.65,7.69,14.46,13.19,20.56h-2.23Z" fill="#9d8264"/>
  <path d="M748.18,525.12l-11.52,6.86.29-3.01c-5.13-1.13-9.15.73-11.06,4.99-1-.33-3.19-.7-3.87-.03l-3.65,3.58c.24.26,1.38,1.17,1.37,1.63l-.48,2.41c-.63-1.04-1.33-2.78-1.66-4.13-.23-.92-2.5-1.48-3.38-1.07,5.49-5.13,19.34-10.03,27.04-11.04,2.13-.28,5.17-.4,6.93-.2Z" fill="#a68a69"/>
  <path d="M706.51,540.8c.15-.33.53-1.3.76-1.58l-.76,1.58Z" fill="#e4c99a"/>
  <path d="M730.96,536.28l5.7-4.3,11.52-6.86c.55.06,2.06.67,2.01.68-5.12,2.28-8.63,4.73-13.19,7.44l-6.05,3.05Z" fill="#e4c99a"/>
  <path d="M724.41,544.13l5.85-6.8c-1.62,2.25-3.92,5.06-5.85,6.8Z" fill="#e4c99a"/>
  <rect x="716.45" y="550.61" width=".71" height=".71" transform="translate(-179.64 668.23) rotate(-45)" fill="#9d8264"/>
  <path d="M706.76,578.54l-1.42-1.1,1.42,1.1Z" fill="#baa07d"/>
  <polygon points="637.58 439.26 636.49 438.88 637.38 437.57 637.58 439.26" fill="#b19c7c"/>
  <path d="M599.44,405.54l.97.18-.97-.18Z" fill="#9d8264"/>
  <path d="M367.63,366.66l.84,1.02.16,2.01c.06.78.49,2.19,1.01,3.58l1.13-3.62,1.95.04,2.18,7.54c.19.65,2.98.26,2.72.02l-1.16-2.14c-.18-.33,2.71-1.01,2.85-.66.66,1.68,1.29,5.03,1.34,6.86l.05,1.64-4.43-3c-.5-.4-1.59-1.6-2.04-1.28l-1.85,1.5-9.78-9.3.08-1.17,3.87,1.72.15-34.79.97,1.07-.04,28.97ZM371.14,375.63l-.5.5.5.5.5-.5-.5-.5ZM379.13,378.64l-.02.65v.67l.02.65.02-.65v-.67l-.02-.65Z" fill="#ac9675"/>
  <path d="M385.61,387.02c-2.55-.73-5.21-1.62-7.38-3.03l2.45-1.04-.05-1.64,2.28,1.62,2.47-3.71.22,7.8Z" fill="#a68a69"/>
  <path d="M380.69,382.96l-2.45,1.04-5.86-3.82,1.85-1.5c.45-.32,1.53.88,2.04,1.28l4.43,3Z" fill="#b79d77"/>
  <path d="M339.67,334.65l-2.98-6.19c-1.35-2.8-1.18-5.95,1.04-7.71-.17,1.81-.14,5.59.34,7.37l1.59,6.54Z" fill="#e0c28e"/>
  <path d="M431.72,367.81l7.98-7.98c-2.39,2.57-5.19,5.46-7.98,7.98Z" fill="#baa07d"/>
  <path d="M424.12,359.41c-8.12,8.56-10.19,19.84-25.73,19.01,2.1-6.16,6.62-12.57,12.81-14.14,4.08-1.04,7.88-3.5,9.42-6.82l5.52-.31-2.02,2.26Z" fill="#c8b08b"/>
  <rect x="428.73" y="353.8" width=".71" height=".71" transform="translate(-124.75 407.14) rotate(-45)" fill="#957b5c"/>
  <path d="M757.48,644.1c-.46.2-1.87.26-1.87.67v1.91s6.61,11.74,6.61,11.74l-.36,1.05-4.27-6.22c.87,7.42-2.71,13.88-9.89,16.62-3.94,1.5-8.37.79-11.24-1.64l3.8-.72,2.02.02c2.62,1.91,7.46.54,9.01-1.99,3.89-6.3,4.54-13.23-.34-18.35-10.09-10.6-18.99,2.58-29.55,4.58l-2.22-.88,3.63-2.25,5.45-3.39,4.98-4.05.93.37c6.34-3.02,13.61-2.3,18.79,2.71,1.88-.6,3.57-.74,4.52-.18Z" fill="#baa07d"/>
  <path d="M782.3,651.52l5.16,9.05-3.78,4.46c-2.45,2.88-8.87,3.29-12.14,3.08l-2.35-.5-1.03-.56-6.31-7.57.36-1.05,2.26.39c1.24,2.49,4.61,4.6,7.38,6.26,2.01,1.21,5.56.89,8.23.11l-4.51-4.93c-1.29-1.41.19-6.77,2.02-7.32l4.72-1.41ZM779.85,663.55c1.08-.35,3.33-2.39,3.52-3.72.17-1.14-1.14-3.3-2.11-4.12-.88-.74-3.48.24-4.31,1.29l2.9,6.55Z" fill="#ac9675"/>
  <path d="M771.55,668.11l1.5,3.07-4.32-.61c-.92-.68-1.52-.98-1.33-1.43l.77-2.1,1.03.56c.22.09,1.74.47,2.35.5Z" fill="#ac9675"/>
  <path d="M791.36,652.15c-.84.07-2.43-.4-3.23-.56l1.25-1.57c9.27,2.47,18.44-3.19,15.52-3.51l-1.71-.19c-.89-.1-2.37-1.76-2.05-2.59,1.23-3.15,5.29-.78,6.26-5.01l.94-2.49c.06-.06,1.04-.55,1.29-.24l1.39,1.73c.45.57,1.56,2.29,1.01,2.75l-2.18,1.8c-1.07,3.07-4.32,8.74-8.62,9.09l-9.87.81Z" fill="#b39f81"/>
  <path d="M797.15,638.7c-4.89,2.53-10.25,5.22-16.29,5.32l-14.8.23.22-1.32,9.14.38c7.49.31,16.34-4.33,21.73-4.61Z" fill="#d2b78e"/>
  <path d="M789.39,650.02c-3.05-.81-5.56-1.14-9.1-1.04l-2.17.06c-.44.01,1.07-2.07,1.5-2l13.48,2.11c4.23.66,8.19.05,10.09-2.82l1.71.19c2.92.32-6.24,5.98-15.52,3.51Z" fill="#8c7055"/>
  <path d="M766.28,642.94l-.22,1.32c-2.5.04-5.12-.8-8.32-2.5l8.53,1.18Z" fill="#c1a882"/>
  <path d="M824.12,620.38l2.15-7.88,1.78-3.09-.97,7.95c-.13,1.07-1.99,3.27-2.96,3.02Z" fill="#d2b78e"/>
  <path d="M825.34,612.39c-2.58,4.46-5.28,8.94-9.05,12.34l3.68-6.46,4.93-7.8.45,1.92Z" fill="#d2b78e"/>
  <path d="M800.24,658.38l5.41-5.24,3.5-3.78c-1.92,3.39-5.23,7.38-8.91,9.03Z" fill="#d5bc8f"/>
  <path d="M809.91,648.02l6.28-9.65c.19-.22.89.65.73.9l-4.61,7.1c-.42.64-2.21,1.94-2.39,1.65Z" fill="#d5bc8f"/>
  <path d="M596.4,230.75l2.15,3.02,11.85,10.9-1.01.06-3.62,1.72-5.34-4.64c-2.5-2.17-4.22-3.87-4.32-7.72l-3.82-4.2.42-1.04,3.68,1.9Z" fill="#a68a69"/>
  <path d="M559.72,803.74l-2.67,1.87c3.58,3.16,8.33,5.25,12.71,5.79l1.34-3.06c.24-.54,2.37-.24,2.51.33l.97,3.93c1.59,1.89,6.79,4.34,9.89,4.39l15.03.28.97,1.91-8.93-.34-8.32-.36c-11.57-1.98-22.15-6.3-30.29-13.66l.31-4.64c2.41.47,5.53,1.99,6.48,3.57Z" fill="#9f876b"/>
  <path d="M542.58,791.42l5.26,2.67c0,3.08,2.65,5.56,5.4,6.09l-.31,4.64-14.73-13.32c.47-.81,3.43-.55,4.38-.07Z" fill="#8c7055"/>
  <path d="M542.48,787.75l.1,3.68c-.95-.48-3.91-.74-4.38.07l-4.28-5.04c7.33-.14,12.07-.26,17.99-2.08.47.15-.38,2.34-.64,1.71l-8.79,1.67Z" fill="#9d8264"/>
  <path d="M616.37,812.3c-3.83,3.38-9.98,6.25-14.84,5.36,4.84-1.86,9.61-3.6,13.93-6.28l.91.92Z" fill="#9f876b"/>
  <path d="M547.46,782.3c.1.16.17,3.19-.55,2.95l-3.97-1.48,4.53-1.47Z" fill="#baa07d"/>
  <rect x="530.63" y="784.38" width=".71" height=".71" transform="translate(-399.37 605.3) rotate(-45)" fill="#9d8264"/>
  <rect x="532.63" y="785.38" width=".71" height=".71" transform="translate(-399.49 607.01) rotate(-45)" fill="#9d8264"/>
  <path d="M617.55,815.05c-.93.31-.32-.63-.17-1.04l.17,1.04Z" fill="#b79d77"/>
  <path d="M318.72,557.38l12.84,3.05c1.2.29,3.48,2.06,3.82,2.84l-4.79,1.35,1.97,1.92,3.22,3.68-.12,1.8-2.93-1.61c-8.93-6.25-17.91-10.08-28.82-12.44,5.44-2.55,10.17-1.71,14.82-.6Z" fill="#957b5c"/>
  <path d="M343.44,566.81l-.81-.42c-1.77-1.33-5.3-3.66-7.26-3.11-.34-.79-2.62-2.56-3.82-2.84l-12.84-3.05c7.25-1.13,18.15,3.75,24.72,9.43Z" fill="#d5bc8f"/>
  <path d="M350.71,579.16l-.84,1.16-1.08-.4c-.27-.1.09-.36.2-.77h1.72Z" fill="#cbb288"/>
  <polygon points="573.94 430.59 573.96 431.24 573.96 431.92 573.94 432.57 573.92 431.92 573.92 431.24 573.94 430.59" fill="#e0c28e"/>
  <polygon points="572.94 428.58 573.44 429.08 572.94 429.58 572.41 429.08 572.94 428.58" fill="#e0c28e"/>
  <path d="M374.74,242.76l-3.35-.67,5.19-5.06,1.49-.74c.25-.08.86.73,1.12,1.02l6.79-4.38c-2.05,4.34-6.82,7.99-11.25,9.83Z" fill="#bda581"/>
  <path d="M380.7,256.91c-1.32,1.95-4.29,4.01-6.34,3.65-3.36-.59-6.26-4.35-3.98-7.21,1.96,1.93,4.17,3.96,5.75,4.54,2.61-2.26,2.31-5.77,1.66-8.24,1.56,1.72,1.67,4.27,1,6.82l1.91.44Z" fill="#bda581"/>
  <path d="M381.6,255.72l.12-6.22-.12,6.22Z" fill="#bda581"/>
  <path d="M358.77,249.71l-2.94,2.2-.44-1.2c.6-.57,2.61-.7,3.38-1.01Z" fill="#bda581"/>
  <path d="M369.7,246.65l-3.99.3,2.34-1.23c.5-.13,1.58.6,1.65.93Z" fill="#bda581"/>
  <path d="M358.27,243.91l-.65.86-.95-.54c-.25-.14.1-1.39.33-1.23l1.27.91Z" fill="#bda581"/>
  <path d="M364.63,243.56l-2.9,1.52,2.9-1.52Z" fill="#bda581"/>
  <polygon points="341.17 253.76 341.18 254.41 341.18 255.09 341.17 255.74 341.15 255.09 341.15 254.41 341.17 253.76" fill="#e0c28e"/>
  <path d="M357.82,246.23l.88-.41-.88.41Z" fill="#bda581"/>
  <path d="M323.19,477.36l2.6,1.93-3.71,4.12c-.91,1.01,2.53,3.15,3.58,3.38l2.73,5.43c-1.98-1.25-4.88-2.77-6.5-4.85-7.81-10.01-18.1-15.28-30.45-17.25,9.02-1.65,16.93,1.54,24.92,4.76l6.84,2.49Z" fill="#957b5c"/>
  <path d="M489.4,703.33c-.85-1.18-2.26-3.33-2.68-4.78l.59-4.18,1.7-15.99c1.03,7.06-2,14.55.39,24.95Z" fill="#b39f81"/>
  <path d="M482.5,646.39l1.15-4.96-1.15,4.96Z" fill="#c4ab85"/>
  <path d="M718.12,726.03l10.37.96.25,1.31c-3.92-1.13-7.72-.79-10.75.7-1.29.64-3.9,1.78-4.8,3l-7.2,9.83-3.06,8.94c-.99,2.9-1.72,7.73-1.48,10.34l.55,5.98-1.04,7.07-.57,3.81-1.09,3.62-3.63,2.45,1.2-12.63-6.53-1.95.02-2.04c-9.2-3.27-19.02-2.2-27.83,2.99-5.56,3.28-11.26,7.09-14.19,12.17l-1.02,1.76-13.56,16.16-1.44-.45c-.36-.34-.63-.61-.84-.33l-1.22,1.59c.26.24-2.27-.82-2.61-1.33.75-.26,1.03-1.11,1.49-1.11l1.54.02c3.02-2.56,5.97-6.03,7.89-9.62,1.79-3.35,4.45-6.46,7.38-9.46l5.94-6.07c12.19-10.79,29.42-14.98,44.97-7.39l2.94-17.63c1.74-10.44,9.25-19.08,18.33-22.7Z" fill="#b79d77"/>
  <path d="M747.24,677.19c.1,2.21,1.7,3.52,4.62,4.97l2.64,9.4,1.17,5.59-2.51.55c-.53.19-.96,1.9-1.03,2.46l-.69,8.25c-.78,1.41-1.63,3.7-1.98,5.25l-7.22,7.71c-2.99,3.36-4.32,8.13-3.98,12.23l-1.41.59-2.49-6.49-5.87-.72-10.37-.96c3.67-1.46,6.78-1.95,11.86-.76-3.92-10.07-6.29-20.13-3.96-29.95.29,8.02.6,16.6,3.12,23.99l.24,1.4c.07.39,1.4,1.86,1.43,1.47s.53-1.87.33-2.21l-.47-.78-1.69-8.57c-1.11-5.65-.77-11.8,0-17.35.55-.45,1.32-1.43,1.3-2.13l1.28.03-1.48,8.22,2.82-2.24,1.52,3.33c-.1.31-.21.87-.51,1l-1.59.64c-4.21,1.7-1.72,16.78,3.54,23.38l1.04-8.36c1.12-.07,2.86-1.54,2.97-2.49l1.5,5.48c10.39-12,11.02-28.32,1.49-40.34-3.48,5.38-5.65,13.01-5.49,17.94l-1.9,1.77-1.88-5.39c2.4-2.96,3.35-6.38,1.62-8.75-.37-.57-.6-.76-.32-1.01l1.95-1.7c2.74-2.38,7.12-5.48,10.4-5.46ZM732.56,721.82l-2.24.54,1.02,4.28,2.24-.54-1.02-4.28Z" fill="#9f876b"/>
  <path d="M715.66,776.63c-.09.35-1.46,2.48-2.32,3.07l-17.95,12.21,3.91-10.31,1.09-3.62,3.67,3.1,1.1-1.37c.16-.2.68-.11.64.15l-.37,2.61c6.57-2.2,8.35-8.33,10.23-5.83ZM703.43,783.24c0-.61-.5-1.11-1.11-1.11s-1.11.5-1.11,1.11.5,1.11,1.11,1.11,1.11-.5,1.11-1.11Z" fill="#957b5c"/>
  <path d="M717.99,728.99l4.02,2.78c-1.49,1-2.33,1.26-1.21,1.37l2.54.25c-12.92,7.09-11.35,18.66-13.46,28.47l-3.67,17.03c6.6-1.94,11.9-10.91,12.56-16.23.08-.65,2.05-1.98,2.13-1.56s.56,2.06.43,2.46l-3.1,9.47,2.27-.6c-1,1.67-3.15,3.59-4.82,4.2-1.88-2.5-3.66,3.63-10.23,5.83l.37-2.61c.04-.27-.48-.36-.64-.15l-1.1,1.37-3.67-3.1.57-3.81c4.62-4.03,5.78-9.95,1.53-15.29l-1.03,2.24c-.24-2.61.49-7.45,1.48-10.34l3.06-8.94,7.2-9.83c.89-1.22,3.51-2.37,4.8-3ZM707.6,748.84c-5.24.42-4.54,4.42-4.31,6.67.15,1.5,1.38,3.48,2.88,4.7l1.43-11.37Z" fill="#a69279"/>
  <path d="M728.73,728.29c2.24.65,4.93,3.66,5.76,5.86l-1.28.08c-2.83-1.92-6.71-2.58-9.88-.84l-2.54-.25c-1.12-.1-.28-.36,1.21-1.37l-4.02-2.78c3.02-1.5,6.83-1.84,10.75-.7Z" fill="#957b5c"/>
  <path d="M729.52,763.42l-.37-1.31,4.44-10.49c2.21-5.22.67-12.21-.37-17.4l1.28-.08c3.77,9.98.99,20.82-4.98,29.28Z" fill="#9f876b"/>
  <path d="M738.26,733.61c-.35-4.1.99-8.87,3.98-12.23l7.22-7.71-11.2,19.94Z" fill="#cbb288"/>
  <path d="M729.52,763.42c-2.21,3.13-4.86,6.59-7.96,8.38l7.6-9.69.37,1.31Z" fill="#a69279"/>
  <path d="M343.08,406.75l-2.12,1.24c-.47.26-1.12-.87-1.37-1.31l-2.81-2.1c-3.32-4.73-6.74-7.96-11.33-12.24,6.94,1.49,14.67,8.78,17.63,14.42Z" fill="#8c7055"/>
  <path d="M348.77,414.47c-.76-.07-2.4-.44-2.56-1.15l-.53-3.63c1.1,1.01,2.68,3.36,3.1,4.78Z" fill="#8c7055"/>
  <polygon points="521.99 890.14 522.01 890.79 522.01 891.47 521.99 892.12 521.97 891.47 521.97 890.79 521.99 890.14" fill="#cfa66e"/>
  <path d="M676.34,256.49c4.86,5.17,8.45,10.98,11.61,17.82,3.89,8.42,1.76,26.76-7.26,35.04l.95-4.45,1.2-2.95,2.16-8.15-1.04-13.98c-.75-10.11-8.35-17.65-13.66-25.08,2.04-.8,4.38-.03,6.06,1.75Z" fill="#a08866"/>
  <path d="M669.52,232.67l1.3.59.19,4.17c-2.07,5.48,3.02,15.77,9.53,18.83-.88-3.8-2.05-6.92-3.53-9.28l2.41,1.7,1,1.07.09,2.38c.02.54,1.27.67,1.85.62l.13,3.79-.57,1.48c-.16.41-.76.52-1.6.56l-3.05-2.38-.92.29c-1.67-1.78-4.02-2.55-6.06-1.75l-3.11-4.47c.68.24,2.93.25,3.09.16l-7.26-4.35c-.57-.34-1.96-1.79-1.83-2.28l6.23,2.25-1.47-10.28-1.51-6.3c1.26,1.12,3.63,2.56,5.1,3.2Z" fill="#b79d77"/>
  <path d="M679.45,317.59l-1.82,3.69,6.75,1.46c-1.33,2.5-2.32,3.93-3.48,4.08-.96.13-3.4-1-3.96-1.86l-3.64-5.29,2.99-2.01,1.79-.71,1.36.64Z" fill="#d2b78e"/>
  <path d="M676.3,317.66l-2.99,2.01-7.92,5.32-1.4-.67,3.87-3.05c.47-2.58,1.25-4.37,3.45-5.06,1.55-.49,4.19-.03,4.99,1.45Z" fill="#ac9675"/>
  <path d="M670.29,315.15c-5.52,1.12-11.61,3-17.07.87l12.81-1.68,1.62-1.82c.34-.38,1.81-.88,1.95-.4l.7,3.03Z" fill="#a08866"/>
  <path d="M680.3,258.58c.85-.03,1.45-.14,1.6-.56l.57-1.48c2.01,2.8,3.35,6.13,3.84,10.36l-6.02-8.33Z" fill="#a68a69"/>
  <path d="M682.33,339.67l.1,1.05-1.8,3.56-4.27,8.22c-.23.45.27,2.37.53,2.8s-2.08.3-2.61.33c-.39.02-1.55,1.18-1.22,1.38l2.33,1.39-4.98,1.31,10.54-19.81,1.37-.23Z" fill="#ac9675"/>
  <path d="M684.9,334.45c-.75,1.44-1.38,3.53-1.77,5.13l-.8.08-.81-1c2.42-5.46,4.98-12.49,5.03-19.01-1.55-1.62-5.29-2.24-7.1-2.08l-1.36-.64c1.46-.58,4.53-1.36,6.14-.97,4.54,1.09,5.56,9.12.67,18.48Z" fill="#ac9675"/>
  <path d="M677.44,311.73l-2.18,1.2,2.18-1.2Z" fill="#a08866"/>
  <path d="M672.29,314.75l1.33-.86-1.33.86Z" fill="#a08866"/>
  <path d="M653.39,815.31c-3.28,1.03-7.64,1.69-11.74,1.55l-10.23-.35-5.12-2.9,4.6-3.51c.85-.65-.14-3.19-.69-3.86,4.97.36,11.81-7.69,15.75-13.14l1.81,2.15c-4.24,6.31-9.02,11.24-16.67,15.8,8.21-.64,16.24-3.84,23.06-9.17,2.93-2.29,4.9-6.58,7.56-10.25,1.87,6.16-3.68,10.55-7.99,13.95-6.31,4.97-12.94,7.07-20.6,9.42l20.25.32Z" fill="#a69279"/>
  <path d="M359.63,438.34c.09,1.37,1.81,2.89,2.84,2.94l3.65.17c5.41,1.38,11.82,3.07,17.52,2.16-.09.11,1.35,1.62.88,1.66l-2.84.22c-8.82.67-17.13-.63-24.42-5.82l2.37-1.32Z" fill="#a08866"/>
  <path d="M392.66,435.57l-1.23-.89,1.23.89Z" fill="#c4ab85"/>
  <path d="M404.96,354.54c2.66-3.64,6.46-6,10.59-7.57-3.49,2.97-6.34,5.28-10.59,7.57Z" fill="#e4c99a"/>
  <rect x="518.64" y="643.52" width=".71" height=".71" transform="translate(-303.28 555.57) rotate(-45)" fill="#c4ab85"/>
  <rect x="683.48" y="489.67" width=".71" height=".71" transform="translate(-146.21 627.07) rotate(-45)" fill="#c4ab85"/>
  <rect x="682.48" y="491.67" width=".71" height=".71" transform="translate(-147.91 626.95) rotate(-45)" fill="#c4ab85"/>
  <path d="M423.55,450.48l2.82-2.3-2.82,2.3Z" fill="#957b5c"/>
  <path d="M407.7,470.59l-.07-1.2.07,1.2Z" fill="#ac9675"/>
  <path d="M407,434.76l-1.75.84,1.75-.84Z" fill="#b39f81"/>
  <path d="M827.37,605.57c-.02-.4,1.9-.04,1.89.35l-.06,1.96c-.01.39-1.64.95-1.66.56l-.17-2.87Z" fill="#d2b78e"/>
  <path d="M496.76,324.05c-.94,1.13-3.39,1.93-5.07,1.8l-1.49-4.86c-.17-.53.31-2.72-.18-2.48-.36.17-1.32.46-1.59.7l-1.74,1.49c-.18-5.92,1.43-12.84,7.71-17.15-2.63,7.11-2.35,14.26,2.37,20.51Z" fill="#9d8264"/>
  <path d="M343.91,412.38l.05,3.8c0,.66-2.4.54-2.95,0l-2.65-2.61c1.8-.67,4.68-1.32,5.55-1.19Z" fill="#baa07d"/>
  <path d="M345.51,421.56l.42,1.12-1.38,1.57c-.64.84-2.02-2.61-1.42-2.62l2.38-.08Z" fill="#baa07d"/>
  <polygon points="344.28 427.07 344.98 427.07 345.66 427.08 344.98 427.1 344.28 427.1 343.6 427.08 344.28 427.07" fill="#baa07d"/>
  <rect x="700.46" y="390.76" width=".71" height=".71" transform="translate(-71.3 610.11) rotate(-45)" fill="#a08866"/>
  <path d="M426.62,528.47l.57-1.09-.57,1.09Z" fill="#bea987"/>
  <path d="M348.81,501.71l-2.51,2.03.21-.9c-.78-1.95-2.39-5.52-3.83-6.97l1.53-1.28s.8,1.16.95,1.38l3.65,5.74Z" fill="#bda581"/>
  <polygon points="452.06 417.6 452.08 418.25 452.08 418.93 452.06 419.58 452.04 418.93 452.04 418.25 452.06 417.6" fill="#e4c99a"/>
  <path d="M523.79,708.31l-2.5-.58,2.2-4.42c.12.12.75.69.71.8l-.54,1.5c-.27.76-.63,2.21.13,2.71Z" fill="#b19c7c"/>
  <path d="M755.67,697.16c-.9,3.92-2.38,7.91-4.23,11.26l.69-8.25c.07-.56.51-2.27,1.03-2.46l2.51-.55Z" fill="#8c7055"/>
  <path d="M751.2,678.27l3.39,7.12c.74,1.45.58,4.86-.09,6.17l-2.64-9.4c-2.92-1.45-4.52-2.76-4.62-4.97,1.03,0,3.02.76,3.97,1.08Z" fill="#8c7055"/>
  <path d="M372.41,368.66l.31,1.03-1.95-.04c.19-.59,1.25-1.29,1.64-.99Z" fill="#d2b78e"/>
  <path d="M682.52,251.51l-.17,1.24c-.58.05-1.83-.08-1.85-.62l-.09-2.38-1-1.07-2.41-1.7-6-9.55-.19-4.17,11.71,18.26Z" fill="#d2b78e"/>
  <path d="M376.61,369.51l1.01,2.23c1.37,3.03,7.6,1.61,7.66,3.69l.11,3.79-2.47,3.71-2.28-1.62c-.05-1.83-.68-5.19-1.34-6.86-.14-.35-3.03.33-2.85.66l1.16,2.14c.25.23-2.53.63-2.72-.02l-2.18-7.54-.31-1.03,4.21.85ZM375.13,370.64l-.5.5.5.5.5-.5-.5-.5Z" fill="#c5ae87"/>
  <path d="M377.62,371.74l-1.01-2.23c.12.57,2.21-.6,2.2-1.16l-.24-13.63-.79-6.06,1.23.11c.36.07.94,1.47.95,1.94l.54,18.94c.02.62-.06,2.07-.46,2.08h-2.43Z" fill="#ac9675"/>
  <polygon points="466.04 327.66 466.54 328.18 466.04 328.68 465.55 328.18 466.04 327.66" fill="#baa07d"/>
  <polygon points="725.95 473.02 726.63 473.02 727.28 473.04 726.63 473.06 725.95 473.06 725.3 473.04 725.95 473.02" fill="#ac9675"/>
  <path d="M349.67,568.47l-.05,1.97-1.52-1.13c-.22-.19-.28-.62,0-.67l1.56-.17Z" fill="#cbb288"/>
  <polygon points="368.14 329.69 368.16 330.34 368.16 331.01 368.14 331.67 368.12 331.01 368.12 330.34 368.14 329.69" fill="#b79d77"/>
  <path d="M368.47,367.68l-.84-1.02c.4.08.81.65.84,1.02Z" fill="#b79d77"/>
  <path d="M627.64,799.99c.34.51,2.87,1.57,2.61,1.33l.12.89-1.01,2.1c-.2-.07-1-.34-1.27-.29-1.23.22-3.02,1.39-4.24,2.48l-3.27,2.93-.24-1.3,3.36-4.08c-1.06-5.44-4.56-9.82-9.25-11.89l-2.05-.9-.98-.09-1.95-1.07c-.15-.07-.46-.01-.75,0l-6.53-.86c-1.07-.06-3.79-.11-4.01-1.08-.17-.77-.71-3.15-.57-2.53l7.57,1.05,2.6.36c.49.07.49-1.11.52-1.81l5.45,2.28.58-.8-.68-2.36c5.54,3.04,11,11.1,14,15.64ZM615.29,787.62l-1.37.65c.27-.13,1.47-.7,1.37-.65Z" fill="#a68a69"/>
  <path d="M532.29,640.58l1.25.07s-.96-.05-1.25-.07Z" fill="#c4ab85"/>
  <path d="M688.8,615.88l-.37,3.55c-.63.09-1.99.04-2.31-.46l-1.4-2.11c-.52.66-1.95,3.73-1.01,4.58l3.98,2.96-1.13,4.07c2.73,9.07,8.21,16.78,14.65,23.26l1.86,1.87,6.01,5.23c5.68,4.94,12.74,8.73,19.8,11.84,5.11,2.25,11.97,2.89,17.62,3.49.56-.67,1.86-2.22,2.11-1.79l1.65,2.78,15.62-1.15,3.27.62c-5.27,3.46-11.94.04-17.96,3.66-.95-.32-2.93-1.07-3.97-1.08-3.27-.02-7.65,3.08-10.4,5.46l-1.95,1.7c-.28.24-.05.44.32,1.01-1,1.49-3.34,4.11-3.64,5.81l-1.28-.03-3.29.05c.87-3.67,3.21-7.45,6.14-9.92l1.12-.95,4.12-3.57c-10.05-1.9-18.67-6.26-27.36-12.1-17.48-11.73-32.13-35.29-34.04-55.19.3-1.25,2-3.14,3.28-3.8l1.36,6.85c.2,1,1.26,3.57,2.1,3.09l3.21-1.86,1.88,2.12Z" fill="#baa07d"/>
  <path d="M445.63,472.54c-.64-.16-1.15-2.06-.9-2.89l.9,2.89Z" fill="#e4c99a"/>
  <path d="M779.31,788.73c2.12-.43,4.21,2.11,4.23,3.97.01,1.47-1.96,4.17-3.64,4.14-1.47-.03-3.83-1.95-4.62-3.4-.7-1.29,1.79-4.26,4.03-4.71Z" fill="#9f876b"/>
  <path d="M479.6,524.45l-1.12-2,1.12,2Z" fill="#c5ae87"/>
  <rect x="518.64" y="495.66" width=".71" height=".71" transform="translate(-198.73 512.26) rotate(-45)" fill="#c8b08b"/>
  <path d="M518.54,560.44l.96-1.23-.4,2.23c-.05.24-.44-.79-.56-1Z" fill="#e0c28e"/>
  <path d="M620.65,375.28c1.06.1.67.06-.43-.04-2.33-.22-2.16-.2.43.04Z" fill="#ac9675"/>
  <path d="M353.38,284.77l.29.95.87,1.07c.12.2.1.63.1,1.04,1.56,7.8,13.65,12.85,18.97,7.7l.91.17,2.24.51c.37.08-.49,1.92-.79,2.13l-3.92,2.91-.54.39-10.71-.23c-9.2-1.44-15.55-11.15-13.89-19.53.91-4.6,2.7-8.42,6.78-11.23l-2.19,9.26c-.31,1.33,1.07,4.5,1.89,4.86Z" fill="#cfa66e"/>
  <path d="M387.95,228.78l-1.96,4.15-6.79,4.38c-.26-.29-.87-1.1-1.12-1.02l-1.49.74,1.91-10.99c.11-.64,1.82-2.16,2.2-2.52.06.9.69.48,1.85-.28.76-.61,3.78-.8,3.93.29l1.48,5.26Z" fill="#a69279"/>
  <path d="M372.85,278.94l-.48,5.34c-.03.34-1.22,1.75-1.36,1.45l-1.05-2.23c-.5-1.05-.35-3.87-1.26-4.28l-5.45-2.42,5.8-2.2,2.08-6.46,2.09,6.41,6.77,2.52-7.14,1.86Z" fill="#c1a882"/>
  <path d="M393.65,287.82c-.55.07-2.24.36-2.37-.19l-.69-3.05-.09-9.84c-.03-3.52-2.78-7.17.66-10.89,1.28,6.06,2.43,12.04,2.26,17.78l.22,6.18Z" fill="#ac9675"/>
  <path d="M353.38,284.77c-.83-.37-2.21-3.54-1.89-4.86l2.19-9.26c-4.08,2.81-5.87,6.63-6.78,11.23l-1.32-.15c.97-8.06,7.12-15.54,14.3-14.76-6.07,4.5-7.5,10.91-6.5,17.79Z" fill="#c8b08b"/>
  <path d="M371.5,301.64c-3.12,2.73-8.44,2.63-12.71,1.05-9.21-3.41-14.31-11.82-13.21-20.95l1.32.15c-1.66,8.38,4.69,18.08,13.89,19.53l10.71.23Z" fill="#c4ab85"/>
  <path d="M368.11,228.91c.98-.51,3.58,1.01,3.96,2.1.42,1.19-.59,3.42-1.77,4.19s-3.64-.28-4.36-1.54.53-3.89,2.17-4.75Z" fill="#c4ab85"/>
  <path d="M373.61,295.53c-5.31,5.16-17.41.1-18.97-7.7,4.04,6.82,11.22,9.16,18.97,7.7Z" fill="#c8b08b"/>
  <path d="M387.95,228.78l-1.48-5.26c-.15-1.08-3.16-.89-3.93-.29-1.16.77-1.79,1.19-1.85.28,1.21-1.58,3.94-3.92,6.05-4.58,2.49,3.26,2.48,7.16,1.21,9.84Z" fill="#bea987"/>
  <path d="M372.04,301.25l3.92-2.91c.3-.21,1.16-2.05.79-2.13l-2.24-.51,6.21-3.78c-.79,5.73-4.64,8.87-8.7,9.33Z" fill="#c4ab85"/>
  <path d="M354.54,286.79l-.87-1.07.87,1.07Z" fill="#c8b08b"/>
  <path d="M424.62,241.79l2.04-1.9-2.04,1.9Z" fill="#c4ab85"/>
  <path d="M556.51,779.18l-1.07,1.18-4.95-.79c-.44-.03-1.32-1.35-.91-1.55l1.86-.93,4.93-2.47.14,4.57Z" fill="#c4ab85"/>
  <path d="M630.67,798.9l2.84-4.59,5.05-5.03c-1.92,3.59-4.87,7.06-7.89,9.62Z" fill="#a68a69"/>
  <path d="M730.29,691.13c.02.7-.75,1.68-1.3,2.13l-2.97,2.05.98-4.12,3.29-.05Z" fill="#b79d77"/>
  <path d="M733.14,681.26l1.12-.95-1.12.95Z" fill="#b79d77"/>
  <path d="M533.27,776.33l-1.96-2.26c-.41-.47-1.85-.07-2.64.07l.6-3.3c.13-.7-2.36-1.08-3.01-1.35l-1.72-.71c-.74-.3,3.81-1.77,3.75-2.13l-.56-3.36,2.79.86c1.17.36,1.18-5.78,2.41-3.92l1.04,1.57c.26.4.68,2.07,1.14,2.08l2.71.1c.49.02-.56,2.01-.18,2.26l2.36,1.56c.28.19,1.44.98,1.47.97-.57.19-3.89,2.2-3.9,2.14l.65,3.26-2.7-.5c-.63-.12-1.09,1.01-2.24,2.64Z" fill="#bda581"/>
  <path d="M555.78,772.22l.23-4.04-.23,4.04Z" fill="#c4ab85"/>
  <path d="M482.51,417.54l-2.06-1.87,2.06,1.87Z" fill="#b19c7c"/>
  <path d="M480.62,414.51l-2.17-1.82,2.17,1.82Z" fill="#b19c7c"/>
  <path d="M478.59,411.54l-1.89-2.09,1.89,2.09Z" fill="#b19c7c"/>
  <path d="M676.93,273.53c1.05,4.98,2.48,10.3,1.46,15.16-.81,3.84-2.61,7.41-6.3,10.1-6.42,4.69-16.14,3.78-22.95.18-2.04-1.95-3.92-4.2-4.83-7.16,6.57,4.44,14.97,6.07,21.24,1.29,4.29-3.27,6.87-8.06,6.97-12.91s-2.83-9.29-6.08-13.45c4.43.92,8.16,3.36,10.49,6.8Z" fill="#cfa66e"/>
  <path d="M656.35,242.84c-1.84.04-3.97.71-6.4,1.6l2.83,2.06c-2.4-.05-4.77,2.18-5.81,4.52-.96,2.16.71,5.11,3.05,6.79l3.68-3.66c.43-.43,2.67-.52,2.67.09.01,3.03-2.75,5.4-5.81,6.39-1.41.45-4.05-1.16-5.76-2.73s-2.08-6.38-.93-8.92c.9-1.99,3.5-3.91,6.54-5.92l-6.62-4.73c-6.17-4.41-7.75-12.53-5.51-19.5,12.95,5.72,5,16.56,15.66,22.39l2.42,1.62ZM642.5,234.2l3.26-1.7c-.67-5.7-1.03-8.1-5.91-10.94-1.21,3.2-1.24,5.79-.08,9.64l3.32-3.14c-.03-.16,1.34,2.2.95,3l-1.54,3.13Z" fill="#b39f81"/>
  <path d="M653.82,285.55l-1.7-6.22-7-2.35,6.43-1.66,2.23-7.77,2.59,7.17,6.16,2.28-5.62,1.89c-1.28.43-1.58,2.81-3.1,6.65Z" fill="#c5ae87"/>
  <path d="M656.35,242.84c1.25-.03,3.64.53,4.82.95-.13.49,1.27,1.94,1.83,2.28l7.26,4.35c-.15.09-2.41.08-3.09-.16-3.74-1.34-10.09-3.68-14.4-3.77l-2.83-2.06c2.44-.89,4.56-1.56,6.4-1.6Z" fill="#d5bc8f"/>
  <path d="M649.13,298.97c6.81,3.6,16.54,4.51,22.95-.18,3.69-2.69,5.49-6.26,6.3-10.1l1.2.57c-2.71,10.91-14.13,16.97-25.17,13.32-1.95-.65-4.01-2.4-5.28-3.61Z" fill="#cbb288"/>
  <path d="M659.41,233.85c-.03,1.28-3.07,2.33-4.1,1.6-1.2-.85-2.47-3.85-1.51-4.78,1.23-1.19,3.1-2.11,4.08-1.93s1.59,2.63,1.53,5.1Z" fill="#bda581"/>
  <path d="M679.58,289.26l-1.2-.57c1.02-4.86-.41-10.17-1.46-15.16,3.22,4.76,4.07,10.04,2.66,15.73Z" fill="#d2b78e"/>
  <path d="M669.76,344.05l-3.19,3.68-.85-3.27c-.77-2.96-1.87-5.45-3.4-8.71l5.27.76c1.1.16,2.47-2.4,3.53-2.99l1.78-.99c1.37-.76-2.83,6.21,3.63,9.82l-6.76,1.69Z" fill="#cbb288"/>
  <path d="M709,609.68c2.55,1.55,6.73,3.91,8.2,6.38l3.92,6.52-1.94,3.78c-2.49,5.86-9.88,8.04-15.39,4.53-.58-2.67-.78-7.55.12-9.69.39-.94,3.01-2,4.03-2,1.22,0,3.03,2.65,2.11,3.37l-2.96,2.31c-.78.61,1.27,3.5,2.2,3.85,1.45.54,4.18.07,5.19-.81,2.79-2.4,3.35-9-1.55-12.29-2.58-1.74-7.1-3.05-10.4-1.9-2.48.86-5.15,4.06-7.15,6.78l-.52-1.92c-4.56,7.64-2.87,18.44,4.42,22.73l6.84,4.03,4.22,1.86c-9.84.5-18.73-7.66-19.42-18.22-.34-5.27,1.63-10.94,3.28-15.5.44-.31,1.19-.42,1.52-.26l1.51.76c2.74-2.49,6.44-3.86,10.08-4.41l1.69.1Z" fill="#c4ab85"/>
  <path d="M734.16,641.57l-.93-.37c-5.84.25-10.66,5.94-19.97,8.05l9.54-.62-3.63,2.25,2.22.88c-5.07.96-10.5.66-15.58-.24l-.49.3.04,1.52-2.3.26-1.86-1.87c.28-1.15,1.13-2.81,2.05-3.03.74-.18,2.64-.03,3.41.12l3.07.6c.56.11.62-1.67.59-2.19l-4.22-1.86,10.26-.28c3.7-.17,7.46-5,10.1-7.21l4.84-4.41,1.09.48c.29.13,1.25.76.99.93l-2.41,1.59-4.61,4.83,7.8-2.07-.03,2.35ZM703.61,650.88l1.5-.06-1.5.06Z" fill="#a69279"/>
  <path d="M695.39,620.52l.34,5.66,3.8-4.17,2.05,12.94-3.2,2.12.9,4.25c-7.29-4.29-8.98-15.1-4.42-22.73l.52,1.92Z" fill="#9d8264"/>
  <path d="M723.03,638.31c-2.02-1.36-4.3-2.63-3.83-3.39l2.03-3.26c.57-.92,3.76,1.08,3.78,2.15.02,1.27-1.44,3.94-1.98,4.51Z" fill="#ac9675"/>
  <path d="M694.2,613.48c-1.65,4.57-3.62,10.24-3.28,15.5.69,10.56,9.57,18.72,19.42,18.22.03.53-.03,2.3-.59,2.19l-3.07-.6c-.76-.15-2.67-.3-3.41-.12-.92.23-1.77,1.89-2.05,3.03-6.44-6.47-11.92-14.19-14.65-23.26l1.13-4.07.74-4.97.37-3.55,2.65-.79c.41-2.53.99-4.33,2.22-6.36l.53,4.75Z" fill="#957b5c"/>
  <path d="M709.16,589.14c.24,4.79-.88,9.91-4.27,13.53l.93-5.56c.4-2.42.84-6.26.4-8.65l2.94.67Z" fill="#c1a882"/>
  <path d="M703.97,605.2c-3.89.97-2.25.65-2.04.31l1.34-2.22c.33-.54,1.05,2.64.71,1.92Z" fill="#c1a882"/>
  <rect x="700.46" y="576.58" width=".71" height=".71" transform="translate(-202.69 664.53) rotate(-45)" fill="#c1a882"/>
  <rect x="690.47" y="576.58" width=".71" height=".71" transform="translate(-205.62 657.47) rotate(-45)" fill="#9d8264"/>
  <path d="M637.41,436.55c.01-.37.59-.82.95-.95l-.95.95Z" fill="#b19c7c"/>
  <polygon points="379.13 378.64 379.15 379.29 379.15 379.97 379.13 380.62 379.11 379.97 379.11 379.29 379.13 378.64" fill="#c5ae87"/>
  <rect x="370.78" y="375.78" width=".71" height=".71" transform="translate(-157.26 372.6) rotate(-45)" fill="#b79d77"/>
  <path d="M463.92,356.82l.68-3.12-.68,3.12Z" fill="#ac9675"/>
  <path d="M751.29,665.54c-1.56,2.52-6.4,3.9-9.01,1.99-.95-2.18-1.15-5.7.82-7.16.69-.51,2.82-1.07,3.61-1.03s1.59,2.3,1.31,2.5c-1.57,1.35-2.72,2.82-3.06,4.42l6.32-.72Z" fill="#a69279"/>
  <path d="M764.48,658.81l-2.26-.39-6.62-11.74c1.85.42,4.21,2.73,4.91,4.14l3.97,7.99Z" fill="#9f876b"/>
  <path d="M414.17,545.38l-.22-13.84.22,13.84Z" fill="#9f876b"/>
  <path d="M608.29,785.22c-.02.7-.03,1.87-.52,1.81l-2.6-.36-7.57-1.05c-.14-.62.4,1.76.57,2.53.22.96,2.94,1.02,4.01,1.08l6.53.86-17.02.5-23.38,5.47-7.76.68-9.2-.24c3.44,2.03,8.68,4.53,11.79,4.59l-2.68,3.06-.76-.42c-.95-1.58-4.07-3.1-6.48-3.57-2.74-.53-5.39-3.01-5.4-6.09l-5.26-2.67-.1-3.68,12.88.88-11.28,1.19c3.9,2.03,8.94,3.2,13.03,3.71l-.78-5.8,32.09-5.79c7.15-1.29,13.77.73,19.87,3.29ZM571.72,792.17l20.12-5.09,2.6-4.29-34.83,5.53,1.54,5.01c2.17,0,7.21-.31,10.57-1.15Z" fill="#ac9675"/>
  <path d="M574.32,802.31c.88.11,2.68.94,3.24,2.11-3.88,1.18-9.07.6-13.18.17l.21-3.45,9.73,1.18Z" fill="#a69279"/>
  <path d="M577.56,804.41c-.56-1.17-2.36-2-3.24-2.11l5.69-5.01c2.16,1.72,3.74,3.75,2.86,5.43-2.07,1.73-3.3,2.07-5.31,1.68Z" fill="#9d8264"/>
  <path d="M611.42,791.17l-1.95-1.07,1.95,1.07Z" fill="#ac9675"/>
  <path d="M614.45,792.16l-2.05-.9,2.05.9Z" fill="#ac9675"/>
  <path d="M562.88,414.61l-.43.98-1.51-.22c-.29-.05-.33-.57-.05-.59l1.99-.17Z" fill="#bda581"/>
  <rect x="633.53" y="498.66" width=".71" height=".71" transform="translate(-167.2 594.38) rotate(-45)" fill="#a69279"/>
  <path d="M489.49,647.37l.76-3.24-.76,3.24Z" fill="#bea987"/>
  <polygon points="492.18 604.89 492.86 604.89 493.51 604.91 492.86 604.93 492.18 604.93 491.53 604.91 492.18 604.89" fill="#e0c28e"/>
  <path d="M723.75,757.28c-3.9-.38-.76-6.33-6.01-7.37-.67-.13-2.77-.86-2.34-1.14,3.95-2.57,6.32-1.58,6.75-7.46.06-.5,2.36-.52,2.04,0,.32,5.72,2.91,5.92,7.32,7.46l-4.93,2.12c-1.45.62-2.11,4.23-2.84,6.38Z" fill="#bda581"/>
  <path d="M690.34,767.43c-14.61-1.87-28.88,3.92-37.08,16.81l-4.94-1.65c2.93-5.07,8.63-8.89,14.19-12.17,8.8-5.19,18.63-6.26,27.83-2.99Z" fill="#8c7055"/>
  <path d="M690.34,767.43l-.02,2.04c-8.35-.82-17.75-.63-24.53,5.09-7.27,6.14-13.03,13.27-18.01,20.68l-1.81-2.15,3.44-4.75c.47-.66,1.37-2.99.67-3.26l-2.77-.74,1.02-1.76,4.94,1.65c8.2-12.89,22.47-18.67,37.08-16.81Z" fill="#b39f81"/>
  <path d="M632.31,800.06l-1.94,2.15-.12-.89,1.22-1.59c.21-.28.48,0,.84.33Z" fill="#bda581"/>
  <path d="M739.86,714.64c-.11.95-1.85,2.42-2.97,2.49.36-2.88-.63-7.92-.92-11.53l-3.66-3.5,1.59-.64c.3-.12.42-.69.51-1l1.04-.98,1.9-1.77,6.21-.12c3.22,1.57.85,7.87-2.84,9.19l-.87,7.84Z" fill="#957b5c"/>
  <path d="M728.99,693.26c-.77,5.54-1.12,11.7,0,17.35l1.69,8.57-1.53.12c-2.52-7.4-2.82-15.97-3.12-23.99l2.97-2.05Z" fill="#cbb288"/>
  <rect x="730.79" y="722.03" width="2.31" height="4.4" transform="translate(-148.26 189.92) rotate(-13.44)" fill="#b79d77"/>
  <path d="M729.14,719.3l1.53-.12.47.78c.2.34-.29,1.82-.33,2.21s-1.37-1.08-1.43-1.47l-.24-1.4Z" fill="#b79d77"/>
  <circle cx="702.31" cy="783.24" r="1.11" fill="#a69279"/>
  <polygon points="374.13 502.51 374.74 503.01 374.13 503.51 373.64 503.01 374.13 502.51" fill="#ac9675"/>
  <path d="M677.7,790.5l-2.88,3.52-.66-6.36-4.95-1.72,3.57-1.83c.61-.31.06-2.26-.17-3.08l6.23-2.61,5.09,3.67-.14,2.52c-.04.68.97,1.81,1.73,3.03l-3.36,1.03c-.72.22-1,1.25-2.08,3.42.2.13-.85-.56-2.38-1.58Z" fill="#bda581"/>
  <path d="M515.59,680.33c-4.09,1.93-4.41,7.16-6.14,11.95-1.73-7.31-2.83-11.82-10.53-14.29l6.85-3.27,3.78-9.47,3.26,9.16,7.74,3.58-4.96,2.34Z" fill="#cfac7b"/>
  <path d="M358.91,346.77c-.05.09-2.11-1.48-3.1-2.32l-7.13-2.29,3.62-2.61c.79-.57.15-3.2-.08-4.15l-.51-2.14c-.09-.38,1.36-1.06,1.62-.77l1.72,1.93c.74.83,2.1,2.35,3.02,2.16l4.65-.96c-2.08,4.29-2.87,6.47-3.81,11.14Z" fill="#cbb288"/>
  <rect x="374.78" y="370.78" width=".71" height=".71" transform="translate(-152.56 373.96) rotate(-45)" fill="#d5bc8f"/>
  <path d="M732.38,669.54l-3.49,1.13c-7.06-3.11-14.12-6.9-19.8-11.84l-.06-2.59,2.29.82c4.49-1.85,9.98-2.66,15.08-1.67-.98,4.01-1.78,8.69-.2,12.01.7,1.46,4.92,2.25,6.18,2.14Z" fill="#9f876b"/>
  <path d="M688.43,619.43l-.74,4.97-3.98-2.96c-.95-.85.48-3.92,1.01-4.58l1.4,2.11c.33.49,1.68.54,2.31.46Z" fill="#9d8264"/>
  <path d="M705.38,653.35c1.24.5,3.43,1.67,3.65,2.9l.06,2.59-6.01-5.23,2.3-.26Z" fill="#957b5c"/>
  <path d="M740.26,667.51l-3.8.72-2.35-.94c-2.88-1.81-3.51-6.25-2.6-10.17.65-2.83,4.08-6.34,7.62-6.75,4.62-.54,8.66.73,11.65,3.81l-5.31,3.88c-1.26.92-3.5-2.26-3.74-4.51-1.36-.67-5.52.72-6.21,2.32s-1.19,5.74.03,6.98l4.71,4.66Z" fill="#a69279"/>
  <rect x="495.66" y="542.62" width=".71" height=".71" transform="translate(-238.66 509.77) rotate(-45)" fill="#957b5c"/>
  <path d="M501.55,594.37l-2.36-2.16,2.36,2.16Z" fill="#c1a882"/>
  <path d="M508.4,593.55l-.75-1.28.75,1.28Z" fill="#a08866"/>
  <path d="M642.5,234.2l1.54-3.13c.39-.8-.98-3.16-.95-3l-3.32,3.14c-1.16-3.85-1.13-6.44.08-9.64,4.88,2.84,5.24,5.24,5.91,10.94l-3.26,1.7Z" fill="#957b5c"/>
</svg>
