<svg xmlns="http://www.w3.org/2000/svg" viewBox="0 0 1024 1024">
  <path d="M503.91,606.39l-1.87,1.24-.45.32.41,1.47-8.55-2.03,7.34,9.72c3.71,4.91,6.99,9.69,9.75,16.27,4.19-9.16,10.44-16.69,17.22-25.17l-3.39-.81c2.37-1.15,5.3-1.63,8.08-2.11l-8.31,12.9c1.88-.72,3.89-1.75,5.24-2.8l1.67.22c.28.02.15.43-.03.64l-1.59,1.89,8.11.37-.6.63-6.61.7-6.49,5.57c5.99-2.14,11.65-.72,13.42,4.1.53,1.43-.92,4.64-1.74,6.09-3.15.94-6.39,1.18-8.25-2.18.48-.56,2.07-1.91,2.65-1.6l2.82,1.47c.87.45,2.43-2.58,1.78-3.31-.52-.58-2.07-1.7-3.05-1.95-8.92-2.22-16.37,6.33-17.39,15.46-.02-.03-1.4.32-1.19.71l1.22,2.26-12.69.2-9.5-2.84-1.69.29-.76,3.24v.99s-2.66-1.93-2.66-1.93c.75-.76,1.76-2.98.88-3.7l-4.02-2.93c0-.43.2-1.22.59-1.4l2.51-1.19-2.64-2.3.55-7.44c3.79-2.73,7.89-3.11,13.09-2.04-7.13-9.73-19.19-1.05-25.12-8.09l15.91.06c-3.55-8.16-10.24-1.15-16.14-6.96l3.94-1.03c7.34-.07,13.72,4.21,20.25,8.06l-6.68-10.78-8.59-3.83,3.64-1.26-11.27-5.44c-2.29-1.1-4.42-3.58-5.43-5.53,5.43,3.17,11.12,7.48,17.38,9.63l18.26,6.15ZM490.84,602.6l-4.97.16c1.88,1.98,4.12,2.62,4.97-.16ZM492.18,604.89l-.65.02.65.02h.67l.65-.02-.65-.02h-.67ZM501.54,606.72h-3.19s2.58.88,2.58.88l.62-.88ZM497.18,618.88l-.65.02.65.02h.67l.65-.02-.65-.02h-.67ZM489.87,638.14c6.4,3.02,12.11,4.79,18.87,5.48-3.02-10.13-11.04-18.17-19.36-14.65-.71.3-2.4,2.33-1.98,2.97l1.49,2.33c1.2-1.1,3.83-2.27,4.38-1.44.79,1.19-1.1,3.23-3.4,5.32Z" fill="#c4ab85"/>
  <path d="M578.66,445.59c1.49,7.42-1.39,17.24-.72,21.87l2.76,19.08c.24,1.68,2.21,3.8,3.56,5l4.32,3.81,1.85,1.18,2.16,1.84c.49,2.33,2.66,4.5,4.92,4.97l.85,1.24.93,4.03-14-13.33-1.22.89,2.56,4.22-2.24.73c-.46-1.02-1.97-2.79-3.19-4l-.51,10.53c-.34,7.09-3.08,13.62-6.1,19.89l1.19,7.87c2.54,16.75-2.69,36.42-13.28,50.36.72,19.47-5.26,40.42-20.97,50.73l7.18-8.37c-5.87,2.67-9.83,9.11-15.17,11.39l.09-1.04,1.89-2.83c10.2-3.04,20.69-21.1,22.11-35.12l1.03-10.25-6.24,5.21c-.8-.59-2.43-.24-3.54.18l-5.4,2.01,11.09-9.08c8.87-9.67,15.26-22.01,16.63-35.13l.03-20.44c-7.9,10.46-16.83,18.59-29.09,21.52l4.96-3.23-3.65.36v-1.22c16.77-5.29,31.69-26.17,32.87-44.81l.65-10.27-.8-11.71-1.48-9.93c-3.73,8.71-7.89,14.79-14.67,20.65-12.87,11.14-31.61,11.2-43.08,26.63-.52.7-1.34,2.3-1.53,3.03-.49,1.85,4.5,3.42,4.32,7.26l-7.22.02c.99-2.45,2.29-6.58,1.48-8.78l-1.41-3.24-.25-3.79h1.16s-.38,2.51-.38,2.51c-.06.39,1.58.88,1.8.55l1.18-1.83c1.82-2.83,6.07-7.58,9.33-9.05l25.72-11.57c9.43-4.24,14.76-14.01,19.5-22.43.79-1.4,1.95-3.58,1.95-5v-1.04s4.05-8.97,4.05-8.97c1.72-3.82.2-8.9.05-13.11l1.97.03ZM582.91,493.61l-1.79.49,1.79-.49ZM583.24,493.92l-.8,1.1,1.29.9.71-.89-1.2-1.11ZM574.48,532.48h-1.11s.08,19.98.08,19.98h1.11s-.08-19.98-.08-19.98ZM572.98,555.39l-.23,4.04.23-4.04ZM571.83,561.63c-.11-1.1-.14-1.49-.04-.43.24,2.59.26,2.76.04.43ZM550.32,626.39c0-.47-.38-.86-.86-.86s-.86.38-.86.86.38.86.86.86.86-.38.86-.86Z" fill="#c4ab85"/>
  <path d="M517.81,324.48l.76.08c-.14.45-.13.87,0,1.1l1.35,2.58,2.46,4.7c.56,1.9,2.89,6.59,5.03,6.56l13.27-.16c-4.22-4.28-8.32-7.85-13.15-9.33l-.34-3.35,3.61.64.3.12,7.54,6.77c.96.12,2.28.21,2.81.56l2.96,1.96c6.57-9.27,17.37-13.53,28.49-11.48,4.52.83,7.03,4.46,6.58,9.53l5.34,1.38c5.63,1.45,10.87,2.28,15.72,4.25l-.19,1.65-21.33-4.88-.14,3.4-1.28,2.77c-.32.68,1.28,2.45,2.11,2.11-1.11-.12-3.95.72-4.71,1.22l18.65,5.76.62-.63,2.26-1.08,10.67-.05c.5,0,2.74.74,2.2,1.11l-1.88.81-11.06.03.57,2.8,5.04-.11,2.26,3.38c.21.29.94,1.08,1.26,1.25-.13-.19-.61,1.39-.61,1.47s-1.29-.48-1.66-.61l-2.97-1.05,3.24,12.34,1.91,6.52-3.22-.82-1.4-6.19c-.08-.28-1.5-1.32-1.48-1.27.78,2.06,4.77-7.96-7.5-14.13,1.59,4.77,3.76,8.81,6,12.26-.5.38-1.78,1.26-1.67,1.84l.44,2.39-.25,1.92c-3.14-1.4-5.13-4.27-7.94-7.08l-15.66-15.69-9.02,10.04c-.62.69-1.4,2.9-1.09,3.85l3.76,11.43-2.46,1.5c.03-1.41.31-2.61-.21-2.92l-2.12-1.29c-.58-.35-1.14-1.55-1.86-2.77l-1.4,11.19-2-3.63c1.12-5.3,1.49-8.44-.49-13.85l-1.49-9.55-3.87-5.23c-6.04-8.17-9.61-8.84-20.14-7.65l4.12,2.7-.82,2.95c-3.93-2.44-8.36-.72-11.69,2.74-3.27,3.39-3.9,7.82-3.66,12.34l-2.11-8.03c1.25-4.65,5.96-8.45,10.13-11.25l-7.63-10.02c-1.97-2.58-3.77-5.71-6.15-7.52l.07-2.3,5.13-.06ZM562.18,335.75l13.38-3.52c-9.68-5.33-22.3-2.52-28.88,7.33l6.03,7.74c1.6-5.37,3.76-10.04,9.47-11.54ZM573.18,335.45l-3.08,1.14c-6.39,4.42-11.92,13.62-10.41,22.64,10.96-7.24,17.79-25.36,13.49-23.77ZM562.95,337.68l-.02.65v.67l.02.65.02-.65v-.67l-.02-.65ZM561.52,341.46c.3-.64-1.78-1.86-2.04-1.42-1.62,2.69-5.43,8.33-3.1,12.18l5.14-10.76ZM575.23,348.86l18.76,18.45c-4.37-12.44-4.73-18.35-18.76-18.45Z" fill="#c1a882"/>
  <path d="M467.15,357.73c-2.82,9.64-1.4,19.29-.75,30.19-1.4-2.41-2.19-5.23-2.21-8.25l-.13-19.19-2.86,8.88c-.91,2.81-1.98,5.64-2.12,8.14.14-.03-.91-.14-1.05.21-.21.53-.74,2.3-.78,2.92l-.87,13.92c-.64,10.24.18,20.49,5.97,28.23,5.99,8.02,12.48,15.26,21.06,20.66-.76.73.87,3.1,1.78,3.54,9.54,4.62,16.89,11.68,23.3,19.48-.43-3.64-1.02-5.73-1.89-7.94l.9-1.01,3.55,6.43,3.32-10.49,8-13.88,13.42-16.72c2.96-3.69,6.14-7.29,8.06-10.93l-.28-1.2c3.69-2.71,7-7.47,7.01-11.99v-1.11c.14.47,2.19-1.23,2.33-1.93l3.5-16.52,2,3.63-.69,2.65c-1.35-.07-1.51.1-1.35.67.18.66.82,2.94,1.03,2.46-2.77,11.53-7.59,22.05-15.54,31.36-3.73,4.84-7.41,9.66-11.48,13.47-9.2,8.61-14.28,20.91-18.37,33.05-.27.5-.66,1.17-.3,1.41l2.95,1.95-2.43,1.76c-.53.39,0,1.93.19,2.81l2.04,10.19-3.59-8.22-1.56,5.05-1.24,7.63c-.86,5.29-1.72,11.55.48,16.25l-.14,4.32-1.78-1.21.18-1.19-2.57-7.23-.76-1.82c-.16-.39,1.48-.16,1.51-.16l.77-12.44-.2-1.54.78-1.58,1.71-6.78c1.97-7.77-14.32-20.5-24.17-26.53-11.65-7.12-25.14-19.42-27.34-31.5-1.12-6.15-2.67-5.21-2.88-7.08.86-1.03.9-3.68.48-5.28l-1.66-4.6.08-1.04,1.54-.19c.39-.05.84-1.32.48-1.48s-1.71-.57-2.07-.38l-3.26,2.07-3.61.61,2.86-1.77c.36-.17,1.6-1.11,1.26-1.32l-1.16-.74-2.17-1.26,7.5-1.77,3.51-22.89c.22-1.43,1.25-3.45,2.11-4.7,1.89-2.74,3.44-6.05,4.34-9.03l.68-3.12.51-.43c.09-.17,2.47-.54,2.41.11l-.37,4.35Z" fill="#d5bc8f"/>
  <path d="M654.17,333.36l2.92,1.07.5,2.98,2.04-3.81c-.36,1.36-1.18,4.54-1.19,6.03l-.14,29.1-.94-.05.11-1.73c.04-.55-1.4-1.92-1.56-1.39l-.64,2.06-.94,1.04.06.94c.31,4.92-2.07,9.09-6.92,11.31l1.09-3.42c1.73-.85,4.02-3.08,4.02-5.89l-5.31,1.6c-1.13.34-1.02,4.12-.95,4.42-1.46,1.2-2.42,2.24-4.21,4.42l-2.49-.58-1.22,6.83c3.08-.94,7.68-2.31,10.32-4.09l6.29-4.82,2.33.32c-7.13,6.36-16.49,11.61-26.95,11.69-11.54.09-27.13-8.45-33.95-16.8l.25-1.92,5.61,5.11,3.22.82c5.06,1.28,14.04,10.56,30.19,7.51,3.15-7.23-1.8-14.08-6.32-19.41-3.74-4.4-7.28-7.87-11.47-10.76-3.4,4.24-7.89,3.04-12,1.85l-1.57.88-2.26-3.38,11.88,1.36c-1.57-2.3-4.34-4.09-6.44-4.08l1.88-.81,1.52-.36c.31-.07.32-.49.07-.66l-1.67-1.08-4.98-2.88,1.57-1.83-5.57-2.92.19-1.65c15.07,6.11,27.95,16.93,37.18,30.8l2.64-.33,1.55.62c.41.16,1.28-.48,1.51-.66l1-.12c.82-.1,2.31-.55,3.05-.91l6.05-2.94c.91-.44.79-3.38.81-4.46l3.09,1.65-.19-26.18-2.62,6.31.58-5.69c.07-.42.01-1.57-.34-1.62l-1.46-.21-1.05-1.13,1.84-2.15ZM606.91,345.66l-.5.5.5.5.5-.5-.5-.5ZM608.91,346.66l-.5.5.5.5.5-.5-.5-.5ZM610.9,347.66l-.5.5.5.5.5-.5-.5-.5Z" fill="#c5ae87"/>
  <path d="M480.6,632.36c-.16.56-.23.81-.59.83l-1.84.29.52-2.28,1.91,1.16Z" fill="#c4ab85"/>
  <path d="M460.48,584.38l1.06,1.06.98.98,2.01,4.7-1.04,5.27c-1.23,11.78,5.64,21.52,10.74,31.04,1.28,2.4,2.06,4.66,3.94,6.06l3.48,2.6c.26.2.76,1.41.82,1.74s-.37.4-.67.24l-1.28-.68-4.01-2.9c-12.13-10.32-16.38-25.58-17.37-40.95l-.67-9.51,2.02.36Z" fill="#c4ab85"/>
  <path d="M446.98,473.58l-2.41,18.95c-1.56,15.71,3.36,31.54,13.17,43.6,6.53,8.02,15.08,12.17,23.85,16.18l-4.37.19,2.22,2.18c-12.24-2.9-21.87-11.19-29.5-21.92l.02,18.29c1.69,14.72,7.67,28.03,17.51,38.27l-4.95-2.92c-.23-.15-.67-.81-.98-.98l-1.06-1.06-4.21-6.88-.9,2.11c-7.82-12.91-11.1-28.37-9.51-44.24.47-4.71,1.04-8.8-.76-13.26-3.34-8.25-4.37-16.14-5.12-24.94l-3.5,7.17c-.08-.02-.87,1.27-.94,1.6l-5.78,24.44-1.46.21,3.06-17.1-.48-.91,1.42-4.73c1.33-4.46,3.96-9.7,6.69-12.92.53-.62,2.23-1.5,2.13-2.25l-.45-3.13c.66.1,2.83.24,2.84-.6l.06-3.52,1.15-10.79,1.09-.46,1.19-.57Z" fill="#c4ab85"/>
  <path d="M629.34,434.47c-.9.54-2.31,1.89-2.98,2.61-.36.36-1.28,1.37-.85,1.67l2.24,1.57c.98.68,3.8,2.39,4.92,2,1.28-.44,2.91-2.23,3.82-3.43l1.09.38,18.83-2.67,5.54,3.63-3.85,4.11,7.82-1.6c.27-.73.91-2.19,1.48-1.96l1.94.79c-11.32,8.6-27.28,9.34-40.52,2.48l-17.22-8.92c-5.71-2.96-11.35-8.31-14.08-13.38l3.3,3.09,1.2-1.06-3.66-4.46,1.25-1.92,3.83,2.4c.76-1.76,1.87-4.98,1.83-7.25,2.54,2.38,4.39,4.52,8.29,3.65l-8.98-8.99-2.42,1.33-3.34-.68c-1.34-.69-3.13-2.74-3.47-4.06l4.09,1.76.97.18,3.19.5c-6.03-4.2-12.28-7.63-19.23-8.6l-5.98-.87c-2.08-1.36-5.43-1.17-7.26.49l-.73.95,2.04,1.47h-2.31c-.43.06-3.14,6.9-.57,13.73l6.65,17.69,3.66,3.77c-.14.06.58,2.17.1,2.08l-3.6-.64-1.72-2.83.88,16.14,1.12,9.09-4.05,8.97c3.96-15.66,1.63-34.31-6.02-49.61-2.69,1.64-2.06,5.79-3.33,7.35l-7.72,9.39c-.57-.82-.98-1.19-.73-1.61l1.64-2.82c-1.37,1.01-2.63,2.36-3.52,3.44l-1.58-.3,7.56-10.98c.34-.49.78-2.96.56-2.92l2.17,1.21c4.15-6.07,6.31-13.27,5.93-21.17l-.44-8.97-.79-9.84.07-1.17c1.54,4.19,2.05,8.83,2.09,14.04,12.3.12,23.75,3.25,34,9.74,5.61,3.56,10.83,7.24,13.99,13.34,9.04,6.3,8.15,17.42,10.5,17.68l2.34.02ZM570.42,396.96l-1.05.31,1.05-.31ZM612.5,431.03l-5.94-14.42-3.38,6.44c3.31,3.44,4.69,5.14,9.33,7.98ZM613.08,425.48l-.23,2.52c-.08.94,2.59,2.64,3.23,1.96l2.88-3.12,2.46,1.93c-1.14-2.02-2.37-3.92-3.24-4.96-1.79-2.13-3.64-4.56-6.46-6.86-.34,4.07.22,5.77,1.36,8.53ZM602.21,424.03l-.99,1.16.62.56,1.05-.91-.68-.81ZM603.14,425.12l-.87,1.01.6.51.54-.54-.26-.98ZM603.91,426.61l-.51.48.53.46.46-.5-.49-.44ZM606.1,428.08l-1.5.05,1.5-.05ZM572.94,428.58l-.53.5.53.5.5-.5-.5-.5ZM573.94,430.59l-.02.65v.67l.02.65.02-.65v-.67l-.02-.65ZM639.69,444.22l-4.62,1.14,13.39,2.16c1.98.32,6.12-1.08,7.97-1.62l-16.05-.73,6.31-1.05,11-1.17c-.62-4.46-4.16-3.49-7.14-3.02l-13.31,2.1,2.45,2.19Z" fill="#bda581"/>
  <path d="M578.39,396.74l-.03,2.09c-1.3.26-3.22-.19-5.65-1.07l5.69-1.01Z" fill="#bda581"/>
  <path d="M602.59,410.24c.07.29.02.09-.43-1.72.49,1.29,1.03,1.79.43,1.72Z" fill="#bda581"/>
  <path d="M465.76,330.76c-13.8-3.15-18.83,1.49-14.72,2.54l9.65,2.45-4.01,1.61-7.12-.63c2.86,7.84,6.91,14.54,12.06,21.01l2.3-.91c-.9,2.98-2.44,6.29-4.34,9.03.76-5.02-4.2-10.4-8.98-12.88l.53-2.82c.11-.6-1.16-2.03-1.75-1.85l-12.12,3.73-4.79,10.7c-.68,1.53-1.32,3.78-1.65,5.33-.2.95-1.2,2.05-1.98,2.79-3.4-6.9,3.95-8.38,3.86-14.4l-4.75,1.58-.83-1.84c-.13-.29-.81.73-.99.95l-5.52.31-5.02.2-2.5-.47c-.7-.03-.89-1.06-1.44-2.29l5.3-3.68,12.14-.97,18.79-5.37-2.49-6.17c-5.41-2.91-10.22,1.32-12.05-1.26l10.84-2.15,2.42-6.67c4.83-1.7,10.14-2.41,15.71-1.82l3.43,3.94ZM429.08,353.65l-.5.5.5.5.5-.5-.5-.5Z" fill="#baa07d"/>
  <path d="M424.82,505.46c-2.75,5.85-5.08,7.12-6.21,10.92-8.81,10.12-11.77,23.23-11.63,37.16l.96,3.85c.2.81,2.01-1.36,2.74-1.75l4.1-2.2c.87-.47,2.69-2.08,3.2-2.92l6.45-10.73,2.51-.32c-2.94,9.48-9.19,15.27-16.29,22.13-3.17,3.06-5.59,7.83-9.5,10.31l-9.35,5.92-7.48,1.61-1.78-.72c9.56-3.85,18.78-8.7,24.91-18.65-17.08-1.83-32.35,4.25-42.31,17.92l-1.58,2.17c-1.57,2.15,7.33-.63,12.74,1.38l-9.66.96-15.38-1.05,2.77-1.53c-.18,1.05,2.46-.92,2.24-1.5-.87-2.31-3.73-6.08-5.46-7.94,2.64.56,6.3,3.56,8.82,6.14,2.28,2.33,7.24-1.51,6.99-4.24,8.64-10.88,22.46-16.27,37.19-15.97-1.94-18.03,5.57-34.94,17.26-48.45l3.76-2.48Z" fill="#cbb288"/>
  <path d="M601.18,545.38c2.79,5.53,6.43,10.73,13.5,12.75l-.2-14.7c-.07-5.14-1.32-11.06-3.67-15.42-2.89-6.28-6.77-12.42-11.26-17.65l-.26-1.76-.93-4.03c9.27,9.42,16.1,21.06,19.29,33.84l-1.27,1.15-.02,15.89c0,.56.45,2.51.98,2.55l2,.15,16.97,1.25,1.03.08,2.14.83-.67,2.49c-7.7-3.46-16.08-3.75-24.76-2.84l7.68,9.33-.65,1.53-3.89-3.22c-.34-2.04-2.04-3.98-3.88-5.1-16.3-9.94-19.61-27.13-23.51-45.41-1.2-5.65-3.21-11.05-5.42-15.97l2.24-.73c1.79,2.95,3.68,6.51,4.6,10.33l6,25c.81,3.36,2.59,7.01,3.94,9.68Z" fill="#baa07d"/>
  <path d="M675.78,597.67c.11.3.39,1.11.4,1.55l-2.04.15c-1.57.21-3.36,2.3-4.85,4.09-4.95,5.93-1.54,9.43-7.31,10.76l-14.85,22.78-5.05,8.05c2.68,1.81-2.1,5.12-.75,5.74l3.23,1.47,2.46,1.12c1.87.85-5.3,2.85-5.22,3.97l.33,4.86c-.38.3-2.98-.76-4.86-1.86l-4.14,11.98-1.32-9.31.11-.48,1.2-.05.93-1.35c1.83-2.85,4.98-5.72,8.84-7.37l-6.73-4.9-1.52-2.29c-.33-.5-1.42.3-1.9.64l-1.24-.6,2.84-6,3.43,6.74,21.7-34.27c-1.4-2.22-1.4-5.31.12-6.71,1.11-1.02,3.4-1.48,5.8-1.43l5-6.56,1.74-4.08,3.65,3.35Z" fill="#c1a882"/>
  <path d="M620.75,472.36l-3.49-.99.22,2.2-7.1-10.08-.95.62,4.91,18.48c.57,2.15,2.9,2.96,6.37,3.54l-2.84,3.14c-.23.31-.57,2.29-1.02,2.06l-1.91-.95c-.45-.22-.59-1.33-.48-1.83.05-.24.98-.72.74-.75-.4-.05-2.19-.27-1.98-.24l-.94-.8-4.09-17.07-1.8-.12c.71-.55,1.97-1.69,1.68-2.37l-1.85-4.34-2.58,2.51-.6-8.31,1.49-1.38c.44-.41-.68-1.49-1.14-1.89l-1.24,2.26-3.62-1.56c-2.13-4.56-6.39-9.18-11.26-9.07l4.23-1.3c-2.81-.94-5.02-2.9-4.89-6.06,13.92,8.4,26.82,19.65,34.15,34.28ZM600.93,453.4c1.77,2.25,2.24,1.21,1.29-.6l-1.29.6ZM606.91,458.56l-.02.65v.67l.02.65.02-.65v-.67l-.02-.65ZM609.56,462.97l-.81-2.61-.02,3.18.83-.57Z" fill="#bda581"/>
  <path d="M678.43,498.61l-1.2.74-2.02.95,1.01-2.4c.23-.56,1.67.28,2.21.71Z" fill="#c4ab85"/>
  <path d="M620.75,472.36c2.93,5.85,4.3,12.72,5.43,19.12-.5.52-1.04,1.57-.51,1.84l2.1.85-4.29,1.5c14.38,11.8,32.16,15.14,49.14,9.5l-5.35-5.53,4.82,2.7,3.12-2.04c-.13.3.03,1.11.06,1.3l-1.24,1.6c-.24.32.47,1.73.85,1.61l2.44-.75c10.19-3.14,12.05-9.52,15.94-6.35l-8.81,5.91c-14.34,9.61-39.67,9.37-54.97-.37l-15.15-9.64,5.67.71,1.87-.03c2.82-.05,1.74-11.14-2.88-18.36l-1.51-2.35-.22-2.2,3.49.99Z" fill="#c4ab85"/>
  <path d="M478.69,631.2l-.52,2.28c-1.88-1.4-2.65-3.67-3.94-6.06l4.46,3.78Z" fill="#c1a882"/>
  <path d="M433.32,457.42l-4.88,10.86c-5.08,11.32-11.95,20.72-22.9,27.22l-6.84,4.06c-.11-.34-.48-1.36-.75-1.16l-2.06,1.52c-.32.24-1.41,1.01-1.39,1.02.04.02-1.14-.75-1.17-.77l5.88-4.74c-11.71-3.34-22.64-4.48-34.24-.44-8.25,2.87-11.77,9.68-15.86,9.08-.45-.07-.49,1.36-.04,1.34l1.62-.12c-.15.26-2.04,1.83-2.44,1.25l-1.94-2.81,2.51-2.03c.29.08,2.57,1.12,2.88.36l1.02-2.56c.15-.2.66-.88.95-1.09l2.95-.4c.71-.17,1.15-1.72,1.1-2.53l1.1.02c2.73-.96,7.64-3.26,10.78-3.63l11.25-1.32,13.55,1.32,4.35-1.43,1.61,3.81c2.91-.29,6.79-2.05,8.23-4.59,1.49-.58,3.48-2.34,4.73-3.47l.44-1.61,5.41-4.35,4.17-8.19-.46-2.44c.74-.24,1.14-1.17,1.55-2.19,1.44-3.59,3.36-7.34,5.43-10.4l3.16-4.68.32,5.06Z" fill="#d2b78e"/>
  <path d="M644.41,370.68l-1,.12c-2.62-11.35-.78-25.03,6.67-34.31l-1.49,5.58c-1.56,4-4.08,9.06-4.13,13.43l-.05,15.19Z" fill="#e0c28e"/>
  <path d="M689.21,406.58l-2.73,6.38c-.24.06-1.63-1.78-1.87-1.36l-1.51,2.7-1.62,2.9c-.34.61,1.43,1.92,2.03,2.56-6.6,1.93-4.67,7.84-6.13,8.33l-1.96.51c1.98-4.34,2.33-9.23,1.61-14.17l-3.92,5.41.29-3.99c.04-.5,1.06-2.26.57-2.21l-1.89.03.86-1.82,1,1.68c.24.43,1.94-1.18,2.07-1.66l1.09-7.28c.38-.67,1.77-1.63,2.29-1.91,4.43,2.34,9.43-9.75,20.2-11.19l-11.63,11.74,1.24,3.36Z" fill="#a08866"/>
  <path d="M400.45,429.02l-1.81,6.46-2.14,1.35-3.84-1.26-1.23-.89-1.71-1.15-1.23-.68c-.46-.19-1.28,1.04-1.27,1.33l-2.61-.52-.03-1.58c-.04-.57-2.29-1-2.46-.46l-.49,2.13c-.81.27-2.21,1.16-2.7,1.85-3.43-1.35-7.13-1.61-11.42.48,1.3,1.08,2.96,1.37,4.8,1.19l6.37-.64c4.77,5.31,13.67,1.8,13.86,3.45l.17,1.61-1.71.75-4.47-.76c-2.34-.15-6.26-.08-8.12-.73-4.74-1.68-8.51-1.92-12.31.52l-3.65-.17c-1.03-.05-2.75-1.56-2.84-2.94,2.81-3.15,6.45-3.81,11.79-6.3l-8.78,1.33-.98.26c4.98-3.03,14.39-4.95,19.39-3.65l16.32,4.24,1.93-5.54,1.16.34Z" fill="#b19c7c"/>
  <path d="M533.63,638.46l-.09,1.04-1.24,1.08c.29.02,1.3.07,1.25.07l3.62-.89-2.65,3.68-1.77,2.36c-.42.57-1.95,1.61-2.58,2.02-.45.29-.99-1.62-1.51-1.75l-4.09-1.02-.26-1.13c-.13-.52-.96-.81-2.42-1.5l-.47,2.41c-.11.55,1.71.6,2.11.77l-8.72,2.52c4.13,6.89,8.99,12.8,10.94,19.77l2.46,8.72c.29.25,1.3,1.03.93,1.16l-2.52.89,1.63,1.92c.32.38-1.47,2.08-1.49,2.63l-.44,13.11c-.02.49.31,1.85.69,1.9l1.48.19c.66.08,1.89.47,2.49.77.45.22.35,1.63.24,1.77-.66-.11-2.23-.16-2.91.06l-4.61,1.29c1.74-2.53,2.14-6.25,1.63-9.94,1.44-14.44-1.87-27.64-11.22-38.78-.07-1.83-4.08-5.41-5.08-4.01l-4.21,5.86,2.69-6.76-6.1-2,12.69-.2-1.22-2.26c-.21-.39,1.16-.74,1.19-.71l19.54-5.04ZM525.29,642.54l.64,1.58,4.97-2.18-.21-1.33-5.4,1.93ZM518.99,643.37l-.5.5.5.5.5-.5-.5-.5Z" fill="#b19c7c"/>
  <path d="M678.34,501.74l-3.07-.14c-.03-.19-.19-1-.06-1.3l2.02-.95,1.11,2.39Z" fill="#bda581"/>
  <path d="M690.29,482.37l-5.77,7.14,5-1.89-7.12,7.03-3.97,3.95c-.54-.43-1.98-1.27-2.21-.71l-1.01,2.4-3.12,2.04-4.82-2.7c-4.56-4.72-21.23-8.11-30.42-6.78l-9.08,1.31-2.1-.85c-.53-.27.01-1.32.51-1.84,13.09-2.73,29.07-3.59,39.12,3.99l1.17.86,4.84,3.02c1.54.96,3.97-2.83,5.46-4.39l10.12-10.62c.73-.76,2.87-1.87,3.42-1.97ZM683.83,489.52l-.5.5.5.5.5-.5-.5-.5ZM682.83,491.52l-.5.5.5.5.5-.5-.5-.5Z" fill="#bda581"/>
  <path d="M445.7,435.6l-14.41,9.14c-1.45.71-3.56,2.32-4.92,3.43l-2.82,2.3-1.14.87c-6.2,4.71-11.29,11.17-14.77,18.04l.07,1.2-.03.75c-.81.39-2.96,1.17-3.31,2.25l-4.14,12.74c-.23.7,0,1.96-.38,2.06l-1.9.13c.25-10.51,5.01-20.97,12.73-28.97l10.39-10.75c6.24-6.46,16.47-11.12,23.23-16.1l1.37-1.01-.23-1.19,1.43.03-1.16,5.08Z" fill="#d2b78e"/>
  <path d="M445.67,400.31l3.61-.61,1.28-.04c-.97,1.23-3.35,2.76-4.84,3.02l-2.1.37c-.23.04.72.45.98.64-8.52,7.05-15.51,15.25-22.89,24.1-3.13,3.75-12.72,10.57-17.99,10.69l6.01-3.49-2.73-.23-1.75.84-2.38.07c-.59.02-.68-1.48-.7-2.07h6.79s4.72-2.93,4.72-2.93c5.05-3.15,10.7-9.02,11.83-15.1l10.26-8.7,7.74-6.98-2.51-.29c.66-.26,2.19-1.63,2.69-1.16l1.99,1.87Z" fill="#c8b08b"/>
  <path d="M732.37,469.72l-3.43,1.72c-13-.26-28.42,13.46-34.39,25.09l-1.29,1.18c-3.89-3.17-5.75,3.21-15.94,6.35l-2.44.75c-.39.12-1.1-1.29-.85-1.61l1.24-1.6,3.07.14s2.79-.05,3.25-.44l12.46-10.82c2.44-2.12,3.62-4.5,4.57-6.92l-3.67-1.71c11.1-7.36,24.17-13.45,37.42-12.14Z" fill="#957b5c"/>
  <path d="M528.5,698.41l-1.48-.19c-.38-.05-.71-1.41-.69-1.9l.44-13.11c.02-.55,1.81-2.25,1.49-2.63l-1.63-1.92,2.52-.89c.37-.13-.64-.9-.93-1.16.12-1.29.79-2.91,1.73-3.05l2.39-16.95c-2.36-2.8-4.09-6.03-3.51-9.15l-.17-1.38c.52.13,1.06,2.03,1.51,1.75.63-.41,2.15-1.45,2.58-2.02l1.77-2.36c2.75,13.72-.64,24.67-3.27,37.67l-2.41,11.92-.34,5.38Z" fill="#c8b08b"/>
  <path d="M658.78,579.93c.51-.19,1.69-1.09,1.48-1.53l-.88-1.94,9.03,3.92c-7.79,4.65-15.3,3.19-22.97,2.05-9.47-1.41-17.39-5.87-24.35-11.63l.65-1.53,7.6,4.13,2.53,1.63c.54.35,1.68-2.1,1.7-2.07l7.74-.58,3.9.78-3.44,2.37c-4.28,2.95,9.24,7.38,17.01,4.41Z" fill="#b19c7c"/>
  <path d="M689.21,406.58l-1.24-3.36,11.63-11.74c-10.77,1.43-15.77,13.52-20.2,11.19,5.06-8.64,20.87-18.27,31.87-14.8-8.81,5.61-16.07,11.24-22.06,18.71ZM700.82,390.62l-.5.5.5.5.5-.5-.5-.5Z" fill="#baa07d"/>
  <path d="M686.48,412.95l-9.16,22.46-2.61,1.1c-1.67,2.93-2.95,3.96-5.37,5.04l-2.53-8.11c-2-6.4,2.54-13.98,5.28-19.79l1.89-.03c.49-.05-.54,1.71-.57,2.21l-.29,3.99-3.85,16.21c3.53-1.7,4.77-4.39,6.16-7.45l1.96-.51c1.46-.5-.47-6.4,6.13-8.33-.6-.63-2.37-1.95-2.03-2.56l1.62-2.9,1.51-2.7c.23-.42,1.62,1.42,1.87,1.36Z" fill="#baa07d"/>
  <path d="M430.86,512.57l-3.68,14.81-.57,1.09-.02,1.01-1.15-1.03,1.01-7.35c.28-2.07-1.42-6.03-2.86-8.07l-5,3.36c1.14-3.8,3.47-5.07,6.21-10.92,1.55-3.31,5.23-7,8.11-9.28l6.04-1.27c-2.73,3.22-5.35,8.47-6.69,12.92l-1.42,4.73Z" fill="#9d8264"/>
  <path d="M587.25,445.43l-.41,1.01c-.16,1.2,1.44,2.34,2.65,3.54,3.13,3.12,5.66,8.07,6.77,12.67,1.64,6.85,5.23,17.4,10.1,18.63l.62,1.04.41,3.19-1.25,1.14c-12.88-12.78-13.79-31.95-27.77-45.26l-.15-2.15-.62-.41.51-1.14.94.9,5.46,5.91c.49.53,2.1.97,2.74.95Z" fill="#c1a882"/>
  <path d="M398.7,499.57c-14.29,12.27-37.72,14.5-54,6.24l-.3-3.52,2.12.55-.21.9,1.94,2.81c.4.58,2.29-.99,2.44-1.25,9.36,2.86,19.8,3.24,29.18.37l1.15.24,12.31-5.73s1.2.79,1.17.77c-.02,0,1.07-.78,1.39-1.02l2.06-1.52c.27-.2.64.83.75,1.16Z" fill="#c5ae87"/>
  <path d="M456.56,417.68l-1.63-1.08-4.79,16.5-2.2,10.77c-.85,4.19-1.03,10.34-.14,14.48l3.58,16.79c-.56-.83-2.22-2.2-2.82-2.71l-2.18-11.93c-2.39-12.18,1.84-27.26,5-40.08l-4.53,10.1-1.43-.03,5.08-15.02c.48-1.42,2.27-3.79,3.18-4.88.21,1.87,1.76.93,2.88,7.08ZM452.06,417.6l-.02.65v.67l.02.65.02-.65v-.67l-.02-.65Z" fill="#baa07d"/>
  <path d="M445.7,435.6c-1.69,7.41-1.57,16.22-.66,24.28l.85,7.57-1.16,2.2c-.25.82.27,2.73.9,2.89l.16,1.61-1.09.46-2.36,10.97c-.09.59.06,1.83-.31,1.86l-1.68-.11,3.46-21.8-.92-13.79.37-10.66-9.95,16.32-.32-5.06-3.16,4.68c0-.92.66-3.5,1.44-4.65l5.76-8.44-3.47.52c-.53.08-1.81.04-2.3.28l14.41-9.14Z" fill="#b79d77"/>
  <path d="M499.37,323.64l.25.77c-.18-.06.83,1.14,1.19,1.11l11.87-.98-.07,2.3c-1.7-1.29-6.02,1.76-7.15,3.57l-2.84,5.15c-2.21-.44-1.8-.62-1.11-1.01l.87-4-3.74,4.41-.55-4.28c-.12-.75-7.43-1.83-10.42,1.67l-2.52.4c-.49.08-.98-.47-1.34-1.32l2.89-3.68c.22.13,1.38.62,1.63.15l1.15-2.22,1.04.08,1.18.09c1.67.13,4.13-.67,5.07-1.8l2.61-.41Z" fill="#a08866"/>
  <path d="M362.64,433.38l8.78-1.33c-5.34,2.49-8.98,3.15-11.79,6.3l-2.37,1.32c7.29,5.19,15.6,6.49,24.42,5.82l2.84-.22c.46-.04-.97-1.55-.88-1.66l7.38-1.18,1.71-.75,5.78-2.27c.95-.37,3.45-.29,3.99.13l-1.83,1.04-1.11.94-2.98,1.08-2.95,2.03-3,1.35c-12.6,3.62-27.51,1.95-36.79-7.55l2.09-.24-3.83-16.48c-.17-.74-.09-2.63.09-3.23,2.35,6.35,3.72,10.59,5.02,17.97.77-.06,4.41-1.62,5.43-3.06Z" fill="#c4ab85"/>
  <path d="M661.5,371.81c-.74,1.03-1.18,3.46-.93,4.99l-3.25,2.9-2.33-.32-16.61,8.91,1.22-6.83,2.49.58c1.79-2.18,2.75-3.22,4.21-4.42l2.24-.13-1.09,3.42c4.85-2.21,7.24-6.39,6.92-11.31.74,0,1.66.22,1.77.81l.76,4.08.45-5.8.94.05,3.2,3.08Z" fill="#a08866"/>
  <path d="M480.37,334.79l-2.04,3.71-.95,1c-.66.27-2.11.53-2.65.99l.7-2.64-6-1.81-3.66-5.28-3.43-3.94c-5.57-.6-10.89.12-15.71,1.82,3.25-4.52,10.38-4.19,16.04-3.04,9.05,1.85,12.29,7.53,17.71,9.2ZM466.04,327.66l-.5.52.5.5.5-.5-.5-.52Z" fill="#ac9675"/>
  <path d="M471.92,343.85c2.08,1.58,4.89-1.79,5.46-4.35.35-.14.77-.67.95-1l2.29.05-.06,1.22-3.8,3.82c-3.51,3.53-6.5,7.65-7.4,13.59l9.19-6.5.54,2.99-5.47,4.03-6.47.02.37-4.35c.06-.65-2.33-.28-2.41-.11l-8.42-15.92,4.01-1.61c6.09,1.54,7.71,10.39,11.22,8.11ZM461.21,339.15l-.65.02.65.02h.67l.65-.02-.65-.02h-.67ZM466.84,349.93c1.68-3.76.48-8.64-4.76-9.35l4.76,9.35Z" fill="#ac9675"/>
  <path d="M728.94,471.44l1.37,2.21c-8.98.16-17.26,5.55-24.02,11.88l-11.74,11c5.96-11.63,21.38-25.35,34.39-25.09ZM725.95,473.02l-.65.02.65.02h.67l.65-.02-.65-.02h-.67Z" fill="#c4ab85"/>
  <path d="M664.44,433.6l-.54,2.78-8.53-2.99c-3.29-1.15-7.22-.93-11.06-.48l-4.11.48-13.83,3.69c.66-.71,2.07-2.07,2.98-2.61,10.65-6.36,23.88-6.14,35.1-.87Z" fill="#c4ab85"/>
  <path d="M527.18,326.66l.34,3.35-7.61-1.77-1.35-2.58,1.46-.21c.31-.06.33-.46.02-.53l-1.48-.36-.76-.08c-2.07-.85-6.65-2.13-8.92-1.72l-9.26,1.65-.25-.77-1.18-3.03,11.7.82,12.79.89,3.82-4.85c.45,1.33.67,3.28.67,4.67v4.52Z" fill="#baa07d"/>
  <path d="M534.41,309.53c1.01,4.39,1,8.56.17,12.67l-3.49,5.22-.3-.12c-.06-2.71.03-4.46,1.61-8l-5.9-1.82c-.02-1.19.29-4.27,1.12-4.72l.25,2.39c.06.52,1.78.65,1.97.17s.43-2.03.32-2.59l-1.72-8.51,5.97,5.31Z" fill="#a68a69"/>
  <path d="M681.41,586.4v6.2c0,1.28-1.19,3.87-1.81,4.86l-2.26-.22-1.56.42-3.65-3.35c-.91-.83-1.53-2.48-.8-3.17l2.92-2.76,7.15-1.99Z" fill="#cfac7b"/>
  <path d="M664.44,433.6l2.36-.15,2.53,8.11-1.94-.79c-.56-.23-1.21,1.23-1.48,1.96l-7.82,1.6,3.85-4.11-5.54-3.63-1.05-2.01v-1.2s8.54,2.99,8.54,2.99l.54-2.78Z" fill="#9d8264"/>
  <path d="M631.51,646.63l1.24.6-6.35,5.8,5.12,5.47c.74.79,1.64,2.82,1.61,3.99l-1.2.05c-.26-.77-1.64-2.44-2.4-2l-3.21,1.87,1.15-5.55-7.22-3.38,5.92-1.8.34-7.18,5.01,2.13Z" fill="#bda581"/>
  <path d="M682.25,578.37c-.26,2.08-.84,5.97-.84,8.04l-7.15,1.99.95-2.24c.23-.53,1.7-.28,2.47-.28l1.55-5.46,3.02-2.04Z" fill="#b79d77"/>
  <path d="M714.21,536.35c.88-.41,3.15.15,3.38,1.07l-6.56,2.2,7.55,5.49-.89,1.54-4.59-3.3-7.67,1.76c-.75,2.14-.64,2.44-.93,2.16l-1.16-.93,3.18-5.54.76-1.58,6.94-2.87Z" fill="#b79d77"/>
  <path d="M737.15,524.4c-9.14,2.64-25.49,9.56-29.87,14.82-.23.28-.61,1.25-.76,1.58-1.93-.06-3.29,1.35-4.73,2.96l-7.74,8.67c-1.59,1.78-3.82,5.8-4.72,8.02l-1.5,1.04c-.27.24.2.6.82,1.21l-6.4,15.67-1.3-4.04c2.84-10,8.3-18.64,15.33-27,10.64-12.64,25.26-20.91,41.05-24.65l-.18,1.72Z" fill="#b79d77"/>
  <path d="M659.38,576.47l.88,1.94c.21.44-.97,1.33-1.48,1.53-5.21-7.32-11.89-13.53-19.96-17.15l.67-2.49c8.03,3.1,15.23,8.86,19.89,16.17Z" fill="#b79d77"/>
  <path d="M660.57,376.79c-.26-1.52.18-3.95.93-4.99l3.37-4.68,3.37-4.47,1.62-1.18c.28-.21.05-.49-.52-.81.2-.29.81-.75,1.08-.96l4.98-1.31-2.33-1.39c-.34-.2.83-1.36,1.22-1.38.53-.03,2.86.11,2.61-.33s-.76-2.36-.53-2.8l4.27-8.22,3.11-.45c-4.49,10.77-14.45,25.18-23.18,32.96Z" fill="#c5ae87"/>
  <path d="M735.27,468.6l-2.9,1.12c-13.25-1.31-26.32,4.78-37.42,12.14l3.67,1.71c-3.23,0-6.84,1.84-9.09,4.06l-5,1.89,5.77-7.14c2.81-3.48,7.89-6.02,11.82-8.11.64,1.08,3.13.97,3.68.17l1.47-2.91,1.04.27,2.67-.09c.61-.02,1.53-1.77,1.27-2.18l1.21.32c2.1.56,5.9-.65,7.91-2.12l.96.41,12.93.47Z" fill="#c4ab85"/>
  <path d="M407.67,471.34l-3.25,9.01-2.06,5.17-.89,6.53,7.11-2.37c-1.44,2.54-5.32,4.3-8.23,4.59l-1.61-3.81-.8-1.94,1.9-.13c.38-.1.15-1.37.38-2.06l4.14-12.74c.35-1.07,2.51-1.85,3.31-2.25Z" fill="#ac9675"/>
  <path d="M735.27,467.28v1.32s-12.94-.47-12.94-.47c4.13-1.67,8.91-1.91,12.94-.85Z" fill="#ac9675"/>
  <path d="M446.47,395.22l2.17,1.26c-8.68,1.48-17.7,4.27-25.21,8.74l-7.8,4.71-.36-2.58c3.16-2.65,8.18-5.84,12.13-6.65l4.42-.9c4.85-2.17,10.01-3.48,14.65-4.58Z" fill="#e0c28e"/>
  <path d="M581.43,435.54c.09,1.73.75,3.57,1.27,4.47l-.17-4.38,4.06,2.45c-.13,3.15,2.08,5.12,4.89,6.06l-4.23,1.3c-.64.01-2.25-.42-2.74-.95l-5.46-5.91-.83.66.15,2.15.29,4.2-1.97-.03-.33-9.28,3.6.64c.48.09-.24-2.02-.1-2.08l1.56.7ZM577.6,438.81l.51-1.14-.51,1.14Z" fill="#a68a69"/>
  <path d="M401.98,428.24l.18,5.35c.02.59.11,2.09.7,2.07l2.38-.07,1.75-.84,2.73.23-6.01,3.49-1.22,1.06c-.54-.42-3.05-.51-3.99-.13l.04-1.82.1-2.1,1.81-6.46.06-1.64,1.47.86Z" fill="#e4c99a"/>
  <path d="M394.39,491.89l-13.55-1.32-11.25,1.32c-3.14.37-8.05,2.66-10.78,3.63,8.44-6.87,24.54-7.5,35.58-3.62Z" fill="#ac9675"/>
  <path d="M619.07,556.49l.27,1.65-2-.15c-.53-.04-.98-2-.98-2.55l.02-15.89,1.27-1.15.88,13.17.54,4.92Z" fill="#9f876b"/>
  <path d="M612.25,486.77l.94.8v1.04c.16.86,1.23,2.54,2,2.96l4.79,2.75-5.67-.71c-2.16-1.38-4.32-3.12-6.09-4.88l.17-3.22,1.01-1.13,2.83,2.39Z" fill="#c1a882"/>
  <path d="M537.26,313.77l1.52,2.82c-2.23,1.96-2.79,5.9-1.37,8.05-.18,1.08-1.26,3.22-2.08,4.21l-1.71-.7.95-5.95c.83-4.1.84-8.28-.17-12.67.9.8,2.16,2.95,2.86,4.24Z" fill="#e4c99a"/>
  <path d="M559.41,674.56l-.03,1.41c-.73-.84-2.66-1.82-3.87-2.54l-4.95,2.89-1.94-3.83c2.32.43,4.6,1.34,4.9.43l1.19-3.56c.12-.36,1.07-1.36,1.2-1l.7,1.95c.6,1.69,1.78,3.6,2.8,4.25Z" fill="#c1a882"/>
  <path d="M650.08,336.49c-7.45,9.28-9.29,22.96-6.67,34.31-.23.18-1.1.83-1.51.66l-1.55-.62c.7-1.75,1.22-5,1.06-7.11-.93-12.33,2.74-23.8,10.75-32.26l-2.08,5.02Z" fill="#ac9675"/>
  <path d="M653.38,336.64c-6.37,9.41-10.12,23.12-5.92,33.13-.74.36-2.23.82-3.05.91l.05-15.19c.04-4.37,2.57-9.42,4.13-13.43l1.49-5.58,2.25-.97,1.05,1.13Z" fill="#ac9675"/>
  <path d="M578.39,396.74l-5.69,1.01c2.44.88,4.36,1.33,5.65,1.07l-.96,4.14-4.96-3.3-2.04-1.47-1.03-.92,1.05-.31.71.27c1.82-1.67,5.17-1.86,7.26-.49Z" fill="#e4c99a"/>
  <path d="M600.41,405.72l-.97-.18-4.09-1.76-3.84-1.26c-1.68-.55-3.95-1.67-5.26-1.68l-1.89-3.22c6.95.98,13.2,4.41,19.23,8.6l-3.19-.5Z" fill="#e4c99a"/>
  <path d="M636.32,559.39l-16.97-1.25-.27-1.65c6.06-.16,12.13.67,17.24,2.9Z" fill="#957b5c"/>
  <path d="M487.68,332.35c-1.01,1.17-2.43,2.8-3.58,3.64l-3.48,2.56-2.29-.05,2.04-3.71,3.45-3.37c.36.85.85,1.4,1.34,1.32l2.52-.4Z" fill="#d5bc8f"/>
  <path d="M477.38,339.5c-.58,2.56-3.39,5.93-5.46,4.35l2.81-3.36c.54-.46,2-.72,2.65-.99Z" fill="#d5bc8f"/>
  <path d="M541.53,636.48c-1.04,1.21-2.77,2.46-4.36,3.28l-3.62.89-1.25-.07,1.24-1.08c5.34-2.28,9.3-8.72,15.17-11.39l-7.18,8.37Z" fill="#e4c99a"/>
  <path d="M440.65,489.53l.45,3.13c.11.75-1.6,1.63-2.13,2.25l-6.04,1.27c.74-.47,2.36-1.48,2.92-2.22l4.69-5.33.11.89Z" fill="#b79d77"/>
  <path d="M446.47,395.22c-4.64,1.1-9.8,2.41-14.65,4.58l-4.42.9c3.88-2.73,8.78-4.79,13.65-5.6l11.33-1.87.67-3.19c1.31-6.21,2.06-13.53,4.43-19.49l-3.51,22.89-7.5,1.77Z" fill="#b79d77"/>
  <path d="M440.65,489.53l-.11-.89c-.04-.27-.09-1.01-.18-1.3l1.68.11c.37-.04.23-1.28.31-1.86l2.36-10.97-1.15,10.79-.06,3.52c-.01.84-2.19.7-2.84.6Z" fill="#e4c99a"/>
  <path d="M672.94,411.84l4.16-7.26-1.09,7.28c-.13.48-1.83,2.1-2.07,1.66l-1-1.68Z" fill="#baa07d"/>
  <path d="M566.46,377.12c.18.55-.02,1.94-.05,2.51l-.07,1.17-.89-.18-2.06,1.05-1.72-7.27,2.12,1.29c.52.31.24,1.51.21,2.92l2.46-1.5Z" fill="#a08866"/>
  <path d="M460.48,584.38l-2.02-.36c-1.27-.35-2.18-2.9-3.1-4.41l.9-2.11,4.21,6.88Z" fill="#e0c28e"/>
  <path d="M467.47,589.33c.3.17.62.93.8,1.28,1.01,1.95,3.14,4.42,5.43,5.53l11.27,5.44-3.64,1.26c-6.19-2.76-12-6.85-16.8-11.73l-2.01-4.7,4.95,2.92Z" fill="#e0c28e"/>
  <path d="M426.92,539.47l-2.51.32.17-1.35c1.47-2.1,3.25-5.58,3.69-7.86l1.46-.21-2.82,9.09Z" fill="#c8b08b"/>
  <path d="M535.34,328.85l6.1,5.89c-.53-.35-1.85-.43-2.81-.56l-7.54-6.77,3.49-5.22-.95,5.95,1.71.7Z" fill="#b79d77"/>
  <path d="M721.38,467.72c-2.01,1.47-5.8,2.68-7.91,2.12l7.91-2.12Z" fill="#a68a69"/>
  <path d="M414.77,410.49l-2.39,2.94c-7.35,4.54-6.89,12.58-10.39,14.8l-1.47-.86,5.43-9.31,2.46-4.66c.62-.55,1.74-1.56,2.49-1.78l3.87-1.14Z" fill="#e0c28e"/>
  <path d="M537.42,324.64c-1.42-2.15-.86-6.09,1.37-8.05l-1.37,8.05Z" fill="#baa07d"/>
  <path d="M415.27,407.35l.36,2.58c0,.32-.45.44-.86.56l-3.87,1.14,4.38-4.28Z" fill="#c4ab85"/>
  <path d="M702.11,474.27l5.16-2.74-1.47,2.91c-.55.8-3.04.91-3.68-.17Z" fill="#a68a69"/>
  <path d="M597.51,503.32c-2.26-.47-4.43-2.64-4.92-4.97l4.92,4.97Z" fill="#baa07d"/>
  <path d="M400.51,427.38l-.06,1.64-1.16-.34c1.45-5.68,4.7-11.34,9.11-15.27l-2.46,4.66-5.43,9.31Z" fill="#c4ab85"/>
  <path d="M617.2,567.59c-1.53-1.27-3.19-3.35-3.88-5.1,1.84,1.12,3.54,3.06,3.88,5.1Z" fill="#b19c7c"/>
  <path d="M713.76,576.09c-.86-4.64-.37-10.2,2.28-13.83l-2.28,13.83Z" fill="#bea987"/>
  <path d="M452.59,399.68l-2.02-.03-1.28.04,3.26-2.07c.36-.18,1.71.22,2.07.38s-.09,1.43-.48,1.48l-1.54.19Z" fill="#b79d77"/>
  <path d="M690.49,563.55l-2.81,6.23c-.24.53-.69,2.5-.23,2.8l1.87,1.17-3.5,9.22c-1.83,4.81-1.31,9.66,3.23,12.73l-.73,1.81c-.02.59.15,1.66.76,1.74l3.19.42-1.66,2.76c-.45.75.56,2.44,1.3,2.99l5.04-5.64c1.33,1.54,4.64,1.87,5.82.59l3.06-3.26-.93,5.56c3.39-3.63,4.52-8.75,4.27-13.53l1.01-.08,1.69,11.58c.1.67-.1,2.52-.76,2.45-1.51,1.46-3.3,4.24-3.78,6.48-3.64.55-7.34,1.91-10.08,4.41l-1.51-.76c-.33-.16-1.08-.05-1.52.26l-.53-4.75c-1.23,2.03-1.81,3.83-2.22,6.36l-2.65.79-1.88-2.12-3.21,1.86c-.84.48-1.9-2.09-2.1-3.09l-1.36-6.85c-1.28.65-2.98,2.54-3.28,3.8l-.68-7.03-.12-3.22c-.02-.44-.3-1.25-.4-1.55l1.56-.42-.07,3.26c0,1.02.42,2.75,1.1,4.67.59-1.97.95-3.56,1.03-4.68l.2-3.03c.62-.98,1.82-3.58,1.81-4.86v-6.2c-.01-2.07.58-5.95.83-8.04l6.4-15.67.7-.28,1.14,1.13ZM703.97,605.2c.34.72-.38-2.46-.71-1.92l-1.34,2.22c-.21.34-1.84.66,2.04-.31ZM698.31,609.99h.99s2-2.09,2-2.09l-.49-.49-2.5,2.58Z" fill="#9d8264"/>
  <path d="M708.32,471.79l3.94-2.27c.26.41-.66,2.16-1.27,2.18l-2.67.09Z" fill="#a68a69"/>
  <path d="M453.68,410.6l-1.18-9.88,1.66,4.6c.42,1.6.38,4.24-.48,5.28Z" fill="#b79d77"/>
  <path d="M581.43,435.54l1.1.09.17,4.38c-.52-.9-1.18-2.74-1.27-4.47Z" fill="#bda581"/>
  <path d="M445.72,402.68l-1.12,1c-.25-.18-1.2-.6-.98-.64l2.1-.37Z" fill="#d5bc8f"/>
  <path d="M599.29,508.59l.26,1.76.16,1.18c1.9,3.16,3.83,6.95,4.4,9.8l-2.44-.55c-.85-.56.05-6.31-3.8-7.68-2.48,5.68-1.5,9.55.29,15.12l5.28-5.69,1.89-.22c2.3,7.05-2.85,7.08-1.4,10.32l-4.7,2.12,3.23,9.73-1.27.9c-1.35-2.66-3.13-6.32-3.94-9.68l-6-25c-.92-3.82-2.82-7.38-4.6-10.33l-2.56-4.22-.34-.24-1.29-.9-1.32-.92,1.79-.49.33.3,1.2,1.11.85.23,14,13.33Z" fill="#9d8264"/>
  <path d="M526.3,456.86c-17.04,15.73-11.97,16.66-8.53,36.56l2.01-1.04,1.72,3.35c-3.97,5.06-6.61,13.33-8,19.76h-1.16s-.28-4.2-.28-4.2c.25-.28.99-.93.89-1.45l-.48-2.41c1.65-9.17,1.73-19.02-1.32-27.91l-1.83,1.92,1.56-5.05,3.59,8.22-2.04-10.19c-.18-.88-.72-2.42-.19-2.81l2.43-1.76-2.95-1.95c-.35-.23.04-.9.3-1.41.28.26,1.35.41,1.47.13l.76-1.79,7.62-8.15c.87-.93,3.87-1.11,4.43.17ZM518.99,495.52l-.5.5.5.5.5-.5-.5-.5Z" fill="#c1a882"/>
  <path d="M512.06,511.29l.28,4.21.25,3.79c.06.92.44,3.12,1.41,3.24.81,2.2-.48,6.33-1.48,8.78-.31.76-1.6,2.5-2.28,2.07l-2.7-1.7-.87-11.13,2.39,1.12-.37-11.44,2.42,4.32.94-3.27Z" fill="#e0c28e"/>
  <path d="M542.15,554.53c-8.24,4.27-17.75,6.5-26.74,8.04l1.05-2.08,2.09-.05c.12.21.51,1.24.56,1l.4-2.23,10.12-2.78,13.84-4.78,3.65-.36-4.96,3.23Z" fill="#e4c99a"/>
  <path d="M576.36,436.28l.33,9.28c.15,4.2,1.67,9.29-.05,13.11l-1.12-9.09-.88-16.14,1.72,2.83Z" fill="#e0c28e"/>
  <rect x="573.41" y="532.48" width="1.11" height="19.98" transform="translate(-2.13 2.26) rotate(-.23)" fill="#e4c99a"/>
  <path d="M570.64,473.67l1.95-5c0,1.42-1.17,3.6-1.95,5Z" fill="#bda581"/>
  <path d="M514,522.53c-.97-.13-1.35-2.33-1.41-3.24l1.41,3.24Z" fill="#c1a882"/>
  <circle cx="549.46" cy="626.39" r=".86" fill="#e4c99a"/>
  <path d="M495.86,345.51c7,3.13,13.13,12.27,9.41,21.18l5.54-3.87,4.43,5.11c.29-4.94.02-8.54,1.03-12.31l2.11,8.03c.07,1.3.33,3.58,1.07,4.5.87,1.08,4.24,1.65,5.64,1.25,6.92-1.94,10.25-7.44,15.07-13.28-1.72,7.84-8.48,14.43-16.63,15.55l-8.91-.92c8.93,19.22,25.2,28.18,19.84,51.44l9.39-10.26c-1.92,3.64-5.1,7.24-8.06,10.93l-13.42,16.72-8,13.88c5.51-17.4,17.94-24.09,17.85-41.57-.07-15.01-15.87-26.24-21.45-42.35l-3.39,7.07-9.4,14.54c-3.23,4.99-6.86,9.78-8.05,15.87-1.72,8.82.98,17.94,5.74,25.29l7.17,11.09c1.27,1.97,2.41,5.07,2.5,7.34l-3.45-5.62c-4.87-7.92-10.35-15.06-16.33-21.64-1.09-1.19-3.19-3.38-3.13-4.59l5.28,4.47c-3.15-13.05.52-24.07,7.64-33.96,4.54-6.31,9.2-12.04,11.76-20.13-7,3.49-12.89,3.44-17.86-1.42-3.29-3.21-7.39-6.47-7.66-11.51,4.53,5.81,7.87,11.15,15.16,13.24,2.62.75,5.31-.96,6.09-3.72,2.16-7.62-1.64-16.03-9.23-18.28l-.98-1.48c-.25-.39.85-1.65,1.27-1.46l1.95.87Z" fill="#b19c7c"/>
  <path d="M550.57,350.56l3.87,5.23,1.49,9.55c1.98,5.42,1.61,8.55.49,13.85l-3.5,16.52c-.15.7-2.2,2.4-2.33,1.93l4.27-18.98c1.02-4.55,1.08-11.25-1.26-14.23l-5.8-7.15-14.06-8.72.82-2.95,16.97,10.85-.95-5.91Z" fill="#b19c7c"/>
  <path d="M603.31,360.78c.37.13,1.66.68,1.66.61s.48-1.66.61-1.47l12.78,6.94c3.69,2.01,6.4,7.42,8.13,11.29-9.12,1.82-15.49-4.26-19.68-10.91l-3.49-6.46ZM618.31,368.17l-9.12-3.07c1.25,5.52,4.72,7.9,8.23,9.32l.89-6.25ZM620.22,375.24c-2.33-.22-2.16-.2.43.04,1.06.1.67.06-.43-.04Z" fill="#c5ae87"/>
  <path d="M602.27,377.78l-5.61-5.11-.44-2.39c-.11-.58,1.17-1.45,1.67-1.84-2.25-3.45-4.42-7.48-6-12.26,12.27,6.17,8.28,16.19,7.5,14.13-.02-.05,1.4.99,1.48,1.27l1.4,6.19Z" fill="#957b5c"/>
  <path d="M600.33,342.03l5.57,2.92-1.57,1.83-11.76-4.35c-4.52-1.67-9.18-1.9-13.7-1.89l.14-3.4,21.33,4.88Z" fill="#d5bc8f"/>
  <path d="M607.52,352.57c2.1,0,4.87,1.78,6.44,4.08l-11.88-1.36-5.04.11-.57-2.8,11.06-.03Z" fill="#957b5c"/>
  <path d="M530.79,327.3l-3.61-.64v-4.52c-.01-1.39-.24-3.34-.68-4.67l5.9,1.82c-1.58,3.54-1.67,5.3-1.61,8Z" fill="#b79d77"/>
  <path d="M596.52,350.7l-2.26,1.08-14.56-6.35c4.82.53,11.88,3.05,16.83,5.28Z" fill="#c5ae87"/>
  <path d="M517.81,324.48l-5.13.06-11.87.98c-.36.03-1.37-1.17-1.19-1.11l9.26-1.65c2.28-.41,6.86.87,8.92,1.72Z" fill="#e4c99a"/>
  <path d="M579.7,345.43l14.56,6.35-.62.63-18.65-5.76c.76-.5,3.6-1.34,4.71-1.22Z" fill="#e4c99a"/>
  <path d="M518.56,325.66c-.12-.23-.14-.66,0-1.1l1.48.36c.3.07.29.47-.02.53l-1.46.21Z" fill="#e4c99a"/>
  <path d="M459.08,377.5l-.59,10.14c-.53,9.2,1.31,18.1,6.08,25.79l6.07.29c3.73.18-.97,9.48,2.08,12.55,7.56,7.61,15.34,13.94,24.1,19.53l-4.3,1.7-9.59-8.43-20.04-19.57-.55,3.28c-5.78-7.74-6.6-18-5.97-28.23l.87-13.92c.04-.62.57-2.39.78-2.92.14-.35,1.19-.24,1.05-.21Z" fill="#a69279"/>
  <path d="M473.62,357.71c-1.4,1.03-2.76,4.28-3.56,5.83l-1.71-1.47c-.24-.21-.5-.21-.61.11l-.73,2.08c-2.28,16.14,2.42,31.34,9.7,45.18l1.89,2.09-.14,1.15,2.17,1.82-.17,1.16,2.06,1.87-.07,1.36c-.06,1.21,2.04,3.4,3.13,4.59l-1.3,2.39c-15.41-17.59-21.1-33.65-23.06-56.51l2.86-8.88.13,19.19c.02,3.02.81,5.84,2.21,8.25-.65-10.9-2.07-20.55.75-30.19l6.47-.02Z" fill="#c1a882"/>
  <path d="M505.78,485.61l-.77,12.44s-1.68-.23-1.51.16l.76,1.82,2.57,7.23-5.12-9.11c-1.82-3.62-6.57-8.08-10.95-7.44-12.58,1.82-19.52,5.3-29.16-6.57l13.12-2.48c2.83-.53,5.3-.55,7.07.75l-2.23,1.09-11.84,2.88c2.7,2.26,5.71,3.33,8.72,3.27l8.03-.15c.81-.01,2.62-.42,3.12-1.04l8.44.65c.55.04-.46-1.37-.99-1.53l-3.31-1.01,5.52-1.84.39-6.27c1.68,4.62-.28,9.8,5.83,15.32l1.33-6.35,1-1.82Z" fill="#c5ae87"/>
  <path d="M506.6,458.53c.87,2.21,1.46,4.3,1.89,7.94-6.42-7.8-13.77-14.86-23.3-19.48-.91-.44-2.54-2.81-1.78-3.54l8.97,5.65.15-1.59,4.3-1.7-2.79-8.73c6.41,5.19,9.5,13.66,12.56,21.46Z" fill="#9d8264"/>
  <path d="M530.39,433.44l-5.05,8.99-2.27,3.7,8.69,2.4-1.63,4.84-3-1.57.72,3.95-1.54,1.1c-.57-1.29-3.56-1.1-4.43-.17l-7.62,8.15-.76,1.79c-.12.28-1.19.13-1.47-.13,4.09-12.14,9.17-24.44,18.37-33.05Z" fill="#a08866"/>
  <path d="M448.63,396.48l1.16.74c.34.21-.9,1.15-1.26,1.32l-2.86,1.77-1.99-1.87c-.5-.47-2.03.9-2.69,1.16l-12.29,4.77-5.18,2.21-.09-1.36c7.5-4.46,16.53-7.26,25.21-8.74Z" fill="#ac9675"/>
  <path d="M512.46,507.43l.48,2.41c.1.52-.63,1.18-.89,1.45l-.94,3.27-2.42-4.32.37,11.44-2.39-1.12-.23-2.08,1.61-.32c.5-.1.19-1.09.02-2l-1.45-7.72,1.78,1.21.14-4.32,2.45,5.21,1.46-3.11Z" fill="#c5ae87"/>
  <path d="M505.35,450.75l2.19,3.81-.03,2.97-.9,1.01c-3.07-7.79-6.16-16.27-12.56-21.46-3.81-3.09-6.65-7.64-9.77-11.2l1.3-2.39c5.98,6.58,11.46,13.72,16.33,21.64l3.45,5.62Z" fill="#e0c28e"/>
  <path d="M543.57,410.74l7.01-11.99c0,4.52-3.32,9.27-7.01,11.99Z" fill="#b19c7c"/>
  <path d="M557.72,385.48l-.32,3.13c-.22.48-.85-1.79-1.03-2.46-.16-.57,0-.75,1.35-.67Z" fill="#c1a882"/>
  <path d="M657.36,368.68l-.45,5.8-.76-4.08c-.11-.59-1.02-.82-1.77-.81l-.06-.94.94-1.04.64-2.06c.16-.52,1.6.85,1.56,1.39l-.11,1.73Z" fill="#c8b08b"/>
  <path d="M654.99,379.37l-6.29,4.82c-2.64,1.78-7.24,3.15-10.32,4.09l16.61-8.91Z" fill="#e4c99a"/>
  <path d="M448.57,472.43c.6.51,2.25,1.87,2.82,2.71,2.56,3.79,6.24,11.28,10.38,14.82,5.65,4.83,11.6,7.48,18.04,10.3l11.78,5.17c6.28,2.76,11.78,7.41,14.86,13.06l.23,2.08.87,11.13-4.97-.69c-1.19-.16-2.44-3.08-1.8-4.12.3-.5,2.04-.09,2.36.39l1.79,2.69c3.71-7.62-4.4-16-11.61-19.22l-21.46-9.6c-12.31-5.51-20.43-15.65-24.89-27.56l-1.19.57-.16-1.61-.9-2.89,1.16-2.2,2.69,4.97Z" fill="#c8b08b"/>
  <path d="M532.55,536.67c-3.13.95-5.82,4.11-7.37,7.11-1.94,3.75-4.97,1.84-8.94,10.62-.55,1.22-.41,3.94-.02,5.03l.24,1.06-1.05,2.08-1.02-.39-.97.89c-.27.25.26,1.48.49,1.77l1.46,1.89c.27.35-.97,1.14-1.17,1.21-1.65-1.42-5.35-2.14-6.94-.57l1.33-2.48c.22-.46-.57-1.24-1-1.51l-2.06-1.3-24.07-6.46-2.02-.93-2.22-2.18,4.37-.19c10.04,4.58,25.38,7.55,24.68,5.8l-.66-1.63c.1-.1,1.29-1.36.84-1.51l-1.94-.51.14-.98-.94-1.66c-.2-.36.09-.93.41-1.16l1.28-.94c.29-.21-.06-1.35-.24-1.67l-7.09-12.34,3.28,2.99,3.3,3.75c5.16,5.86,5.65,13.8,7.08,10.03.15-.4.74-1.64,1-1.98,1.41-1.81,3.67-5.54,3.95-7.81.03-.25-.21-1.05-.3-1.38l3.22-1.6-4,10.9,7.44-8.64c3.08-3.57,6.19-6.3,10.46-9.42l-.96,4.12Z" fill="#e0c28e"/>
  <path d="M428.28,530.58c-.44,2.29-2.23,5.76-3.69,7.86l1.84-6.76.17-2.2.02-1.01.57-1.09,3.68-14.81.48.91-3.06,17.1Z" fill="#e4c99a"/>
  <path d="M704.29,577.51l-1.9.52c-.31.09-.31,1.12-.26,1.3-2.64-.52-6.3-1.15-8.32-.13-3.14,1.58-4.78,4.84-4.56,7.98,6.64-4.1,12.82-2.53,14.12-6.88.48.34,1.58,1.19,1.32,1.69l-.78,1.53c-.09.17.05.31.45.8l-5.27,2.81c1.06,1.63,2.34,3.4,2.16,4.49-.82,4.84-6.51,6.49-12.94,5.91l.73-1.81c-4.54-3.08-5.06-7.92-3.23-12.73l3.5-9.22c6.09,3.34,11.02.08,14.97,3.75ZM690.83,576.44l-.5.5.5.5.5-.5-.5-.5ZM700.82,576.44l-.5.5.5.5.5-.5-.5-.5ZM688.83,577.18l-.92.75.92.5.5-.5-.5-.75Z" fill="#baa07d"/>
  <path d="M702.1,547.96l1.15,4.52-1.34.13c-.52.09-.32,1.44-.47,1.96l-1.65,5.64c-1.63,5.55,3.42,12.77.66,11.9l-3.67-1.16c-1.63-.52-4.29-2.64-4.55-3.83,3.48-3.16,5.24-6.21,3.43-10.37l-4.24,4.81-1.11-1.06,6.43-8.77c1.29-1.68,3.6-3.23,5.37-3.74Z" fill="#9d8264"/>
  <path d="M712.32,557.46l-1.84,6.02c-.14.45.91,2.18,1.4,1.87l-1.78,5.17-3.81-3.79,3.14-1.85-5.34-1.38-2.66-8.94c.15-.51-.05-1.86.47-1.96l1.34-.13,2.08,8.73,1.07-9.99c.09-.88.21-2.55.85-2.82l.13,13.23,4.95-4.17Z" fill="#bea987"/>
  <path d="M711.88,565.35c-.49.3-1.53-1.43-1.4-1.87l1.84-6.02.97-3.01.95-1.76c.24-.45,2.07.35,1.88.86l-4.25,11.81Z" fill="#9d8264"/>
  <path d="M706.51,540.8l-3.18,5.54-1.24,1.62c-1.77.51-4.08,2.06-5.37,3.74l-6.43,8.77-.97-.03c.9-2.22,3.13-6.24,4.72-8.02l7.74-8.67c1.44-1.61,2.8-3.02,4.73-2.96Z" fill="#e4c99a"/>
  <path d="M689.35,562.43l-.7.28c-.62-.61-1.09-.98-.82-1.21l1.5-1.04.02,1.98Z" fill="#e4c99a"/>
  <path d="M737.15,524.4l4.11.15v.76c-7.71,1.01-21.56,5.91-27.05,11.04l-6.94,2.87c4.38-5.27,20.73-12.19,29.87-14.82Z" fill="#e4c99a"/>
  <path d="M711.07,553.14c-.73-.41-2.02-1.44-1.83-2.25l.99-3.33,3.69-.26-.4,2.83c-.07.5-1.99-.3-3.02-.65l.57,3.66Z" fill="#bea987"/>
  <path d="M640.2,433.38l-.77,1.82-1.07.39c-.36.13-.94.58-.95.95l-.03,1.02-.89,1.3c-.91,1.2-2.53,2.98-3.82,3.43-1.12.39-3.94-1.32-4.92-2l-2.24-1.57c-.42-.29.49-1.31.85-1.67l13.83-3.69Z" fill="#9d8264"/>
  <path d="M602.16,408.52c.46,1.81.5,2.01.43,1.72l1.56,1.24,1.11,1.05c.04,2.27-1.07,5.49-1.83,7.25l-3.83-2.4-.94-.85.15-8.69,3.34.68Z" fill="#9d8264"/>
  <path d="M605.26,412.53c.33.07-.58-.72-1.11-1.05l-1.56-1.24c.6.07.06-.43-.43-1.72l2.42-1.33,8.98,8.99c-3.9.87-5.75-1.27-8.29-3.65Z" fill="#9d8264"/>
  <path d="M639.69,444.22l.7.95,16.05.73c-1.85.54-5.99,1.94-7.97,1.62l-13.39-2.16,4.62-1.14Z" fill="#e4c99a"/>
  <path d="M613.08,425.48l5.1-1.67c.88,1.04,2.1,2.94,3.24,4.96l-2.46-1.93-2.88,3.12c-.63.69-3.31-1.02-3.23-1.96l.23-2.52Z" fill="#957b5c"/>
  <path d="M428.85,370.86l-3.11,2.99-2.13.76-1.45-5.97,1.25-4.13.71-5.1,2.02-2.26c.18-.22.86-1.25.99-.95l.83,1.84,4.75-1.58c.09,6.02-7.25,7.5-3.86,14.4Z" fill="#957b5c"/>
  <path d="M425.74,373.84c-2.24,2.15-5.21,4.43-8.02,5.79l4.42-5.21c-.13-1.77-.4-4.42.02-5.79l1.45,5.97,2.13-.76Z" fill="#baa07d"/>
  <path d="M382.53,578.71l.06-1.49,6.91-3.74,12.42-10.46c-3.89-2.85-7.45-2.39-10.45-.39-1.71.05-4.28,3.1-5.04,4.61.71.94.96,1.27,1.22.97l-.32,1.57c-.37,1.8-5.85-1.56-11.43,3.79l-2.36,2.26c-.53.51.25,2.74.98,2.68l1.97-.15-.19,3.16c-5.41-2.01-14.31.78-12.74-1.38l1.58-2.17c9.97-13.68,25.24-19.75,42.31-17.92-6.13,9.94-15.35,14.8-24.91,18.65Z" fill="#957b5c"/>
  <path d="M418.49,522.46l-1.91,9.8c2.04-1.99,1.81-2.27,2.8-4.8v5.88s4.44-3.74,4.44-3.74l1.63-1.14,1.15,1.03-.17,2.2-3.54.12c-.72.08,0,1.95-.09,2.7l-6.06-2.49-.32,14.94-.67,3.02c-.07.31.34.43.66.46l1.54.1c-.5.84-2.32,2.45-3.2,2.92l-4.1,2.2c-.94-2.68-2.32-6.29-2.18-9.02l2.63.83c.82.23,2.4-1.28,3.05-2.07l-.22-13.84.99-.53,1.81-8.4,1.76-.15Z" fill="#bea987"/>
  <path d="M416.74,522.61l-1.81,8.4-1.81-3.06c-2.55,6.32-4.31,12.29-4.64,18.67-.14,2.73,1.24,6.34,2.18,9.02-.73.39-2.54,2.56-2.74,1.75l-.96-3.85c-.14-13.94,2.83-27.05,11.63-37.16l-1.87,6.23Z" fill="#9f876b"/>
  <path d="M426.43,531.68l-1.84,6.76-.17,1.35-6.45,10.73-1.54-.1c3.42-4.35,5.69-10.5,6.38-15.93.09-.74-.64-2.62.09-2.7l3.54-.12Z" fill="#a08866"/>
  <path d="M638.82,562.79c8.07,3.62,14.74,9.83,19.96,17.15-7.77,2.97-21.29-1.46-17.01-4.41l3.44-2.37-3.9-.78-7.74.58s-1.16,2.42-1.7,2.07l-2.53-1.63-7.6-4.13-7.68-9.33c8.69-.91,17.06-.61,24.76,2.84ZM634.19,563.89l-8.57-1.56c.52,3.71,4.47,6.43,7.61,6.17.87-.07,2.67-1.04,3.29-1.45s-1.5-3.01-2.32-3.16Z" fill="#957b5c"/>
  <path d="M610.81,528c2.35,4.36,3.6,10.29,3.67,15.42l-1.06-.02c-.37-4.82-1.5-10-4.75-14.3l.51,12.3.27,6.07.63,3.81-4.83-4.58.17-14.75-1.49.67c-1.44-3.24,3.7-3.26,1.4-10.32.24-.41,1.27-.07,1.41.52l.64,2.66.66,2.73c.13.53,1.85.03,2.77-.22Z" fill="#9f876b"/>
  <path d="M614.48,543.42l.2,14.7c-7.07-2.02-10.7-7.22-13.5-12.75l1.27-.9c.29.86,2.21,1.85,2.8,2.23l4.83,4.58-.63-3.81,2.19.5,1.77-4.58,1.06.02Z" fill="#8c7055"/>
  <path d="M610.81,528c-.92.24-2.64.75-2.77.22l-.66-2.73-.64-2.66c-.14-.59-1.17-.93-1.41-.52l-1.89.22.68-1.2c-.58-2.85-2.5-6.64-4.4-9.8l-.16-1.18c4.48,5.23,8.37,11.37,11.26,17.65Z" fill="#8c7055"/>
  <path d="M565.45,384.62l.28,16.09c.08,4.74-1.04,10.44-2.85,13.9l-1.99.17c-.28.02-.24.54.05.59l1.51.22-.82,5.19-2.17-1.21-.96.06.66-2.29c.22-.61-1.8-.76-2.1-.23l-3.55,6.53-1.18.95-2.83.05-.19-7.24,7.6-1.54c2.87-.48,4.39-2.84,4.32-5.56l-.8-4.42c2.37-6.75,3.32-14.15,3.07-21.22l1.96-.04Z" fill="#a08866"/>
  <path d="M561.63,420.79l.82-5.19.43-.98c1.81-3.46,2.93-9.15,2.85-13.9l-.28-16.09v-4s.89.18.89.18l.79,9.84.44,8.97c.38,7.91-1.78,15.11-5.93,21.17Z" fill="#e0c28e"/>
  <path d="M555.52,434.78l-6.97,6.83-1.13-1.61c-.25-.41,1.5-1.38,1.88-1.84l3.61-4.37c.89-1.08,2.15-2.43,3.52-3.44l-1.64,2.82c-.24.42.16.8.73,1.61Z" fill="#e4c99a"/>
  <path d="M633.13,662.5c.03-1.17-.87-3.2-1.61-3.99l-5.12-5.47,6.35-5.8c.48-.34,1.57-1.14,1.9-.64l1.52,2.29,6.73,4.9c-3.86,1.65-7.02,4.52-8.84,7.37l-.93,1.35Z" fill="#e0c28e"/>
  <path d="M606.36,469.58c-.41.47-1.24,1.53-1.87,1.44l-2.59-.34-.63.47,5.09,10.12c-4.87-1.23-8.46-11.78-10.1-18.63l2.86,2.37c.39-3.53.69-7.73-.61-10.52l3.62,1.56-1.19-2.66c1.77,2.25,2.24,1.21,1.29-.6l1.14,1c.46.4,1.58,1.48,1.14,1.89l-1.49,1.38.6,8.31,2.58-2.51,1.85,4.34c.29.68-.97,1.82-1.68,2.37ZM601.73,469.84l-2.24-3.63,1.21,4.3,1.03-.67Z" fill="#ac9675"/>
  <path d="M619.99,494.31l-4.79-2.75c-.78-.42-1.84-2.09-2-2.96l1.23-.05c-.1.49.03,1.6.48,1.83l1.91.95c.45.22.79-1.75,1.02-2.06l2.84-3.14c-3.47-.58-5.8-1.4-6.37-3.54l2.44.72c.85.18,2.32-1.8,2.26-2.66l-.05-4.72c4.62,7.22,5.7,18.31,2.88,18.36l-1.87.03Z" fill="#ac9675"/>
  <path d="M667.27,499.64l5.35,5.53c-16.97,5.64-34.76,2.31-49.14-9.5l4.29-1.5,9.08-1.31c9.19-1.33,25.86,2.06,30.42,6.78ZM642.08,504.56c3.59-2.42,3.37-6.58,1.94-9.05-1.64-.83-6.24-.57-7.45.09l.63,3.36c.22,1.2,4.06-2.19,4.6-1.49l1.36,1.77c-.72,1.79-1.35,4.39-1.08,5.31ZM633.88,498.51l-.5.5.5.5.5-.5-.5-.5Z" fill="#957b5c"/>
  <path d="M393.33,500.17l-12.31,5.73-2.39-3.8,10.01-1.1c-3.37-.86-9.53-.74-12.49.55-.72.31-.34,3.3.44,3.46l3.28.65c-9.38,2.87-19.82,2.49-29.18-.37l-1.62.12c-.45.02-.41-1.41.04-1.34,4.1.6,7.62-6.21,15.86-9.08,11.6-4.04,22.53-2.9,34.24.44l-5.88,4.74ZM372.21,500.58l-3.8.47c.54,2.3,3.67,1.95,3.8-.47ZM374.13,502.51l-.5.5.5.5.6-.5-.6-.5Z" fill="#9d8264"/>
  <path d="M433.58,444.47l-5.42,6.05c-3.65,3.82-7.12,12.87-3.74,16.92-.41,1.02-.81,1.95-1.55,2.19l-5.15,1.64-.86-1.46c-.16-.27-.71-1.56-.86-1.28-.23.41-1.02,1.82-1.14,2.3l-3.97,15.44,2.42-.05c-1.25,1.12-3.24,2.88-4.73,3.47.27-.48.96-1.69.89-1.58l-7.11-2.59,2.06-5.17,2.64,4.21,2.3-2.29,2.49-15.15c-1.49,1.77-2.87,3.58-4.18,4.22l.03-.75-.07-1.2,5.26-3.56,6.29-7.64c1.7-2.07,3.05-4.78,3.22-6.84l1.14-.87,2.82-2.3c1.36-1.11,3.47-2.72,4.92-3.43.49-.24,1.77-.2,2.3-.28Z" fill="#b39f81"/>
  <path d="M384.61,433.65l2.61.52c.68.14,1.75-.29,2.5-.65l1.71,1.15,1.23.89,3.84,1.26,2.04.75-.04,1.82-5.78,2.27-.17-1.61c-.2-1.66-9.09,1.85-13.86-3.45l.24-1.02c.48-.68,1.89-1.58,2.7-1.85.71-.23,2.25-.23,2.98-.09Z" fill="#957b5c"/>
  <path d="M384.61,433.65c-.73-.15-2.27-.14-2.98.09l.49-2.13c.17-.54,2.42-.1,2.46.46l.03,1.58Z" fill="#c4ab85"/>
  <path d="M389.71,433.52c-.75.36-1.82.79-2.5.65-.01-.29.81-1.52,1.27-1.33l1.23.68Z" fill="#c4ab85"/>
  <path d="M504.83,655.43l-9.32,13.93-2.66,4.17-1.88.17c2.63-9.34,8.99-18.96,16.55-25.04l-2.69,6.76Z" fill="#c5ae87"/>
  <path d="M524.57,645.05l-1.03.55c-.41-.16-2.22-.21-2.11-.77l.47-2.41c1.46.69,2.29.98,2.42,1.5l.26,1.13Z" fill="#c4ab85"/>
  <path d="M448.57,472.43l-2.69-4.97-.85-7.57c-.91-8.06-1.03-16.88.66-24.28l1.16-5.08,4.53-10.1c-3.15,12.82-7.39,27.9-5,40.08l2.18,11.93Z" fill="#e4c99a"/>
  <path d="M407.63,469.39c3.48-6.87,8.58-13.34,14.77-18.04-.17,2.06-1.52,4.78-3.22,6.84l-6.29,7.64-5.26,3.56Z" fill="#957b5c"/>
  <path d="M425.5,415.56l-5.35,5.21-3.17-2.83c-1.96,3.75-3.64,8.14-4.03,11.5l.72,1.21-4.72,2.94h-6.79s-.18-5.36-.18-5.36c3.5-2.23,3.04-10.26,10.39-14.8l3.38,1.47,1.63.62,3.26,3.78c2.94-3.5,3.02-6.47,2.59-10.43l4.16-3.44c-4.18,2.81-2.05,6.3-1.9,10.12ZM410.72,424.68l2.8-8.73c-3.35,2.19-6.34,5.87-6.51,8.57-.04.59,1.58,2.77,1.95,2.32.25-.3,1.61-1.68,1.76-2.16Z" fill="#b39f81"/>
  <path d="M413.67,430.66l-.72-1.21,3.52-3.21c1.56-1.48,3.02-3.99,3.68-5.46l5.35-5.21c-1.12,6.08-6.77,11.94-11.83,15.1Z" fill="#a08866"/>
  <path d="M529.95,673.56l-.47-11.97c0-1.04-1.33-4.21-1.42-4.05l-4.64.62,4.33-8.81,1.08-1.88c-.58,3.11,1.15,6.35,3.51,9.15l-2.39,16.95Z" fill="#b19c7c"/>
  <path d="M490.52,325.76l-1.04-.08.29-1.53c.07-.29.48-.27.53.02l.22,1.6Z" fill="#9d8264"/>
  <path d="M423.6,513.03l-3.3,10.26,3.52,6.3c-3.4-1.94-4.49-4.96-4.61-9.13l-.71,2-1.76.15,1.87-6.23,5-3.36Z" fill="#b39f81"/>
  <path d="M589.5,449.98c-1.2-1.2-2.8-2.34-2.65-3.54l2.65,3.54Z" fill="#a68a69"/>
  <path d="M381.02,505.9l-1.15-.24-3.28-.65c-.77-.15-1.16-3.14-.44-3.46,2.96-1.29,9.13-1.41,12.49-.55l-10.01,1.1,2.39,3.8Z" fill="#ac9675"/>
  <path d="M502.63,335.56l-5.67,7.52-1.1,2.43-1.95-.87c-.42-.19-1.52,1.07-1.27,1.46l.98,1.48c-2.54-.75-6.83,1.24-9.19,2.73l-5.34,3.37-.54-2.99,14.3-8.72c-5.66-.68-10.82.29-16.09,1.63l3.8-3.82,6.93-.98c1.67-.04,6.22,1.67,7.42.34l3.74-4.17,3.74-4.41-.87,4c-.69.39-1.09.56,1.11,1.01Z" fill="#bea987"/>
  <path d="M655.37,433.39v1.2s-7.92,0-7.92,0c-.76,0-3.3.95-3.42,1.01l-4.6-.38.77-1.82,4.11-.48c3.84-.44,7.77-.67,11.06.48Z" fill="#b19c7c"/>
  <path d="M668.24,362.66l1.1-1.99c.57.33.8.61.52.81l-1.62,1.18Z" fill="#ac9675"/>
  <path d="M423.52,406.58l-.65,2.71-3.45,1.35-3.66,4.27-3.38-1.47,2.39-2.94c.41-.12.86-.24.86-.56l7.8-4.71.09,1.36Z" fill="#957b5c"/>
  <path d="M516.24,554.39c3.97-8.79,7.01-6.87,8.94-10.62l8.82-4.54,8.51-4.72c7.57,5.21,15.58-.09,21.21-8.97l-6.27.75v-.76s-.03-1.25-.03-1.25l3.14-1.62,7.63-4.34c1.66,11.03-10.99,21.28-22.14,22.7-8.51,1.09-17.16,2.38-23.75,8.31l-6.07,5.06Z" fill="#c5ae87"/>
  <path d="M504.65,542.44l-3.3-3.75-3.28-2.99c-3.49-6.08-7.78-12.6-13.19-16.4-1.69-1.19-2.6-2.07-4.31-4.73-.4,3.24.33,7.12,2.18,10.93l1.7-.8c-.04,1.82,1.69,3.92,3.27,5.68l8.52,9.44c1.93,2.13,4.04,4.57,5.25,6.8l-3.14.84-7.7-2.97-9.44-3.41,2.12-2.27c.49-.47,1.66.48,2.24.9l9.76,3.25c-1.79-3.51-4.55-6.31-6.54-7.48-.25-.15-1.09-.35-1.29-.39l-4.12-5.26c-.95-1.11-2.08-4-3.52-4.26l-.24-1.12-1.12-2c-1.77-4.54-1.86-10.35,1.31-15.19l6.26,7.81c7.03,8.78,13.56,17.65,18.6,27.38ZM496.02,542.47l-.5.5.5.5.5-.5-.5-.5Z" fill="#d2b78e"/>
  <path d="M479.84,525.56c1.44.26,2.57,3.15,3.52,4.26l-2.01,1.13-13.63-4.75-7.14-.6c-4.99-1.41.94,6.69,9.64,10.88,1.22.59,3.07,2,3.03,3.16-9.76-.49-18.14-9.51-20.47-19.47,1.31-1.35,3.79,1.24,4.91,1.44l22.14,3.96Z" fill="#c5ae87"/>
  <path d="M543.83,519.19l-2.02,2.26c.5-3.44.74-5.95-.21-9.28l-5.33,6.13-14.44,19.37c-.48.65-1.69,1.66-2.24,2.04l-3.22,1.6c4.75-7.27,9.81-15.16,15.84-21.95l9.84-11.07c2.92,3.78,2.81,7.46,1.77,10.91Z" fill="#c8b08b"/>
  <path d="M487.49,535.09c.2.04,1.04.25,1.29.39l-3.22,4.23c-.58-.42-1.75-1.37-2.24-.9l-2.12,2.27c-2.36-.85-5.32-1.3-7.94-1.44.04-1.17-1.81-2.58-3.03-3.16l11.32-.66c-6.82-4.49-14.43-3.12-14.08-7.26l6.6,2.63,13.42,3.9Z" fill="#b19c7c"/>
  <path d="M543.83,519.19l-2.2,7.27,18.94-3.81-3.14,1.62c-9.83.07-16.04,6.22-20.23,3.46-1.15-1.54-1.72-4.02-1.11-5.48l.62,2.25c.66,2.73,4.83-1.29,4.51-9.56l-3.98,4.58-.95-1.23,5.33-6.13c.95,3.34.71,5.84.21,9.28l2.02-2.26Z" fill="#bda581"/>
  <path d="M558.82,509.13l-3.19,3.28c-.73.75-2.89-1.41-4.23-2.67l3.49-5.3,3.93,4.69Z" fill="#cbb288"/>
  <path d="M450.63,491.92c.83-.46,3.35.89,3.56,1.77.25,1.05-.39,3.27-1.32,3.8-.78.45-3.08-.55-3.68-1.21-.72-.8.08-3.59,1.44-4.36Z" fill="#d2b78e"/>
  <path d="M504.12,550.66c-.32.23-.61.8-.41,1.16l.94,1.66-4.23-3.89,1.97-1.3,1.73,2.37Z" fill="#d2b78e"/>
  <path d="M512.73,550.49l3.95-7.81c-.28,2.28-2.54,6.01-3.95,7.81Z" fill="#c8b08b"/>
  <path d="M505.61,556.48l-1.1-2.02,1.94.51c.45.15-.74,1.41-.84,1.51Z" fill="#d2b78e"/>
  <path d="M555.64,466.57l-1.41,1.33c-.36.34,1.18,2.13,1.47,1.72l.79-1.14.96.06,5.53.32-6.88,2.31c-.53.18-2.11.39-2.12.84l-.04,1.88-4.47,1.72-10.33,5.28,20.79,3.11c-4.69,6.87-10.9,9.27-18.51,8.31l-12.8-1.62c-2.02-.26-5.82,3.36-7.13,5.04l-1.72-3.35c6.81-11.9-.42-23.62,16.09-35.1,1.59,2.81,2.33,6.55,1.23,9.71l-4.79,13.82c17.37-7.75,7.49-16.74,12.12-27.34l-.69,5.72,1.71-.8-.29,15.58,4.4-3.52c-1.34-2.37-1.47-3-1.59-4.66l-.66-9.27,3.16-4.7c1.46,4.7,1.12,10.67-1.37,17.35,8.83-5.05,8.76-13.21,8.1-21.66-.5-6.52,4.13-13.28,7.31-19.47,10.64,16.29,3.51,26.88-8.87,38.55ZM564.15,441.56c.76-2.32,1.22-4.67,1.2-7.15-4.59,4.68-5.75,10.71-4.52,17.27l3.32-10.12ZM532.78,473.06l1.69-10.03c-6.18,3.18-6.29,8.01-5.72,14.28,1.18-.21,3.77-2.71,4.03-4.25ZM542.94,485.14l-.07,2.58-1.49-.22-6.04.36c5.87,2.33,12.04,3.17,18.21-.97l-3.93-1.72c-3.66-2.05-8.47-2.72-12.24.14l5.55-.18Z" fill="#c8b08b"/>
  <path d="M552.91,433.78l-3.61,4.37c-.38.46-2.13,1.43-1.88,1.84l1.13,1.61-20.71,14.16-.72-3.95,3,1.57,1.63-4.84-.29-.96,4.09-1.74,7.55-5.65,8.24-6.71,1.58.3Z" fill="#c1a882"/>
  <path d="M549.48,475.61l4.47-1.72.04-1.88c0-.45,1.59-.66,2.12-.84l6.88-2.31-5.53-.32,12.25-2.12c-.85,7.41-11.66,9.35-20.23,9.19Z" fill="#bea987"/>
  <path d="M550.48,451.81l-3.16,4.7-1.86,1.88-1.71.8.69-5.72c.25-2.09,1.1-4.02,2.95-6.52,1.41,1.77,2.66,3.47,3.09,4.86Z" fill="#d5bc8f"/>
  <path d="M556.5,468.48l-.79,1.14c-.29.41-1.84-1.37-1.47-1.72l1.41-1.33.85,1.91Z" fill="#bea987"/>
  <path d="M536.22,581.23l2.26-.47,3.4,2.69c-5.41,2.52-10.14,5.74-15.26,9.87,5.02-.79,10.34-1.9,15.3-4.23l2.73,1.51c-6,4.77-17.96,4.25-26.35,10.37l1.03-3.98-4.41,6.04c-2.27,3.11-3.09,7.14-3.88,11.6l-3.88-11.11,4.46,1.65,7.46-10.15c5-6.8,7.66-14.01,1.72-21.44l-6.59-5.66c.2-.07,1.44-.86,1.17-1.21l-1.46-1.89c-.23-.3-.77-1.52-.49-1.77l.97-.89c.42,1.73,1.97,3.41,3.59,4.74l5.61,4.61c4.04,3.32,3.97,10.69,3.94,15.83l8.7-6.13Z" fill="#c1a882"/>
  <path d="M544.65,590.6l-2.73-1.51c4.11-1.92,7.81-5.02,11-9.35-4.12.11-7.34,1.99-11.04,3.71l-3.4-2.69-2.26.47,6.55-5.75-2.02,3.86,1.76,1.62c.25.23.61.32.67,0l.32-1.55c5.85-2.11,9.44-9.19,7.19-15.33.54.71,1.5,2.3,1.72,3.18l.81,3.23.43,1.48c.09.29.38.17.58-.05l1.34-1.49,4.07-7.91c2.37,9.45-2.23,17.9-8.85,23.16l-6.16,4.91ZM553.96,576.45l-.02.65v.67l.02.65.02-.65v-.67l-.02-.65Z" fill="#b39f81"/>
  <path d="M553.24,570.51l-.81-3.23c-.22-.88-1.19-2.48-1.72-3.18-1.03-1.36-4.09-3.27-5.9-2.9l-4.92,1.03c-1,.21-1.56,2.91-1.52,4.13.03.77,2.26,2.9,2.72,2.28l2.29-3.08c1.85-.15,4.06,3.98,2.97,6.42l-2.84,7.44-.32,1.55c-.06.31-.42.23-.67,0l-1.76-1.62,2.02-3.86.78-4.71c-2.05.41-4.64.81-5.95.29-1.12-.44-2.05-3.27-2.16-4.91-.4-5.76,6.88-9.66,11.89-8.26,5.34,1.49,8.77,7.67,5.91,12.61Z" fill="#c8b08b"/>
  <path d="M547.34,611.44c-4.76,2.12-10.09.15-14.78,5.64l15.1.63c-.94.99-3.68,2.68-5.13,2.68l-12.19-.53,6.61-.7.6-.63-8.11-.37,1.59-1.89c.18-.21.31-.62.03-.64l-1.67-.22c2.82-2.2,5.97-4.03,9.66-5.44l6.33-2.43c.59-.26,1.64.36,1.67.8l.3,3.1Z" fill="#bda581"/>
  <path d="M547.34,611.44l-.3-3.1c-.03-.44-1.07-1.06-1.67-.8.36-1.67.86-3.32,1.78-4.07,1.07-.87,5.6.55,5.32,1.97-.44,2.27-3.26,5.16-5.13,6Z" fill="#d5bc8f"/>
  <path d="M505.72,600.26l-2.77-.69c-.43-.14-.46,1.53-.55,1.96l-3.01-3.06,3.28.91-1.15-3.95,4.2,4.82Z" fill="#c1a882"/>
  <path d="M541.19,381.01l-1.6,7.57-3.14-7.6-6.12-1.49,6.03-2.41c1.23-.49,1.55-3.53,2.52-6.26l2.52,6.33,6.55,1.85c-2.28,1.13-2.65,1.2-6.77,2.01Z" fill="#c4ab85"/>
  <path d="M552.33,424.59c-.04.15-.8,2.48-1.4,3.02l-19.56,17.52c-.29.26-.97,1.44-.76,1.64l.86.8.29.96-8.69-2.4,2.27-3.7.59,3.54,13.53-11.4,10.04-9.94,2.83-.05Z" fill="#a69279"/>
  <path d="M549.3,417.41c-.78-7.06,7.36-.83,9.88-7.97l1.25-3.55.8,4.42c.07,2.72-1.45,5.08-4.32,5.56l-7.6,1.54Z" fill="#baa07d"/>
  <path d="M618.31,368.17l-.89,6.25c-3.52-1.42-6.99-3.81-8.23-9.32l9.12,3.07Z" fill="#ac9675"/>
  <path d="M489.49,648.35l-.07,15.1c-.02,3.46.66,7.38,1.56,10.25.4,1.24-.81,2.77-2.79,3.62l-2.02-11.88c-.71-4.19-.49-8.15-.06-12.26l.72-6.76,2.66,1.93Z" fill="#bea987"/>
  <path d="M496.34,474.94c-1.29-3.57-3.5-9-5.93-11.27l-.84.38-.1.37-1.68,1c-.46.27-.23,2.01-.05,2.53l3.82,10.99,1.08-3.53c.26.95,1.1,2.58.98,3.52l-.5,3.71c-1.62,1.41-4.12.96-6.35-.22l-4.22-2.23c-11.48-8.33-23.45-.85-31.51-13.36l14.77.72-6.8-8.44c-8.81-8.69-10.13-20.52-2.36-30.84,4.33,6.95,8.31,13.99,7.86,22.23-.37,6.68.97,13.63,6.45,17.1l.6-.58c-1.7-6.89-2.1-14.53,2.68-20.71,8.66,12.74,2.46,21.99,4.75,25.67,2.48,3.98,6.49,6.93,10.78,8.94-3.35-8.79-7.72-16.29-3.78-24.45,6.24,6.55,13.66,13.54,10.36,18.45ZM457.75,441.8l2.42,6.79c1.14-5.36.03-10.01-3.34-14.33l-2.64,6.87c1.51,0,3.35.07,3.56.67ZM489.5,462.81l-1.11-.63-1.33-.51c-.35-.13-.65,1.59-.28,1.62l2.23.18.49-.67ZM473.75,465.06l.36,6.37,2.21,1.98.71-8.27.48-2.14c.1-.43-1.37-.89-1.51-.48l-.87,2.5c.08,1.54-.21,1.79-1-.35l-.38.38ZM473.31,463.84l-.6.46.6-.46ZM472.09,469.26l-.04-1.25.04,1.25Z" fill="#c8b08b"/>
  <path d="M493.12,482.65c1.72.36,1.34-.02.87-.02s-.84.38-.84.84.38.84.84.84.84-.38-.87-1.67Z" fill="#c8b08b"/>
  <path d="M496.34,474.94l1.28,3.51-.39,6.27-5.52,1.84,3.31,1.01c.53.16,1.55,1.57.99,1.53l-8.44-.65c-.02-.35-.87-2.35-1.53-2.08l-2.55,1-2.02.24,1-4.65.07-2.75,4.22,2.23c2.23,1.18,4.73,1.62,6.35.22,1.72,1.29,1.34,1.67.87,1.67s-.84-.38-.84-.84.38-.84.84-.84.84.38-.87.02l.5-3.71c.13-.94-.71-2.58-.98-3.52l-1.58-5.63-1.59-5.37.1-.37-.56-.56-2.23-.18c-.37-.03-.07-1.76.28-1.62l1.33.51,1.11.63.92.86c2.42,2.27,4.63,7.7,5.93,11.27Z" fill="#a68a69"/>
  <path d="M481.47,487.61c-2.39.74-4.44,1.22-7.22-.42l6.16-2.18-.87-1.51,2.23-1.09.7.55-1,4.65Z" fill="#bea987"/>
  <path d="M487.56,488.46c-.5.62-2.31,1.03-3.12,1.04l2.17-1.69-3.13-.44,2.55-1c.66-.26,1.51,1.73,1.53,2.08Z" fill="#bea987"/>
  <path d="M490.62,585.66l-3.08,2-13.33-6.99-7.53-4.39c4.51,11.6,15.26,14.41,27.72,17l-3.72,2.45c-7.31-1.99-15.5-4.4-21.12-10.15-7.29-7.45-9.99-20.57-8.58-21.19l2.23-.97c.22,3.93,1.38,7.22,4.39,8.88-2.33-7.45.96-12.86,7.27-14.54,4.96-1.32,8.79.91,10.82,5.69.91,2.16,1.1,5-.37,7.02-.9,1.23-4.01,2.13-5.58.49-.98-1.03,1.41-3.29,3.47-4.47.08-1.66-2.4-4.72-4.12-5.33-1.9-.68-6.16-.14-7.11,1.47-3.93,6.64-.25,14.69,5.9,16.91l.64-.74c-6.05-8.26-1.61-14.92-.31-14.24l2.19,1.15c-1.12,1.67-2.59,4.23-2.37,5.83.2,1.42,1.85,4.45,2.92,5.42l9.68,8.72ZM480.26,580l-1.23-.06c-1.07-.05-1.04-.05,1.23.06Z" fill="#bea987"/>
  <path d="M507.26,567.37l-6.54,6.47c-4.62,4.56-4.93,14.56-1.52,18.38l2.36,2.16-.03,1.08,1.15,3.95-3.28-.91-1.94-.9,1.93-1.91-3.81-1.93c-.75-.38-2.57,2.32-2.08,2.76l-2.82-.77,3.72-2.45c-1.86-1.84-4.72-4.5-6.86-5.62l3.08-2,1.92,1.73,2.92,2.21-.25-11.23c.67-5.44,5.01-9.25,9.77-12.68l2.61-2.32c.43.27,1.22,1.06,1,1.51l-1.33,2.48Z" fill="#d2b78e"/>
  <path d="M458.13,555.67l-6-4.1,5.58-4.34,3.39,3.42c.83.84-.93,2.86-2.97,5.02Z" fill="#d5bc8f"/>
  <path d="M497.45,597.58l-3.96-1.08c-.5-.44,1.33-3.14,2.08-2.76l3.81,1.93-1.93,1.91Z" fill="#c1a882"/>
  <path d="M492.54,587.39c.61.12,1.76-.02,1.79-.62l.14-2.37.74-6.03.25,11.23-2.92-2.21Z" fill="#bea987"/>
  <path d="M537.23,519.53l-1.14,2.73c-.61,1.46-.05,3.94,1.11,5.48-.99.44-2.98,3.58-1.99,4.64.55.59,1.4,3.05.63,3.29l-3.28,1,.96-4.12c-4.27,3.12-7.38,5.85-10.46,9.42l-7.44,8.64,4-10.9c.55-.37,1.75-1.39,2.24-2.04l14.44-19.37.95,1.23Z" fill="#957b5c"/>
  <path d="M498.07,535.7l7.09,12.34c.18.32.53,1.46.24,1.67l-1.28.94-1.73-2.37-.91-1.67c-1.21-2.23-3.32-4.66-5.25-6.8l-8.52-9.44c-1.58-1.75-3.31-3.85-3.27-5.68l.44-5.4c5.41,3.8,9.69,10.32,13.19,16.4Z" fill="#a08866"/>
  <path d="M679.4,600.5c-.08,1.12-.44,2.71-1.03,4.68-.68-1.92-1.11-3.65-1.1-4.67h2.13Z" fill="#baa07d"/>
  <path d="M389.5,573.48l-4.86-1.2c-4.71-.58-9.12,2.06-10.11,6.22-.73.06-1.51-2.17-.98-2.68l2.36-2.26c5.58-5.34,11.06-1.99,11.43-3.79l.32-1.57c4.62,1.38,8.32-1.19,10.96-5.77l-7.14.19c3-2,6.56-2.45,10.45.39l-12.42,10.46Z" fill="#bea987"/>
  <path d="M423.82,529.59l-4.45,3.74v-5.88c-.98,2.53-.75,2.81-2.79,4.8l1.91-9.8.71-2c.12,4.17,1.21,7.19,4.61,9.13Z" fill="#8c7055"/>
  <path d="M558.5,419.64l-4.99,4.01,3.55-6.53c.3-.52,2.32-.37,2.1.23l-.66,2.29Z" fill="#bda581"/>
  <path d="M642.08,504.56c-.27-.92.36-3.52,1.08-5.31l-1.36-1.77c-.54-.7-4.38,2.69-4.6,1.49l-.63-3.36c1.22-.67,5.82-.93,7.45-.09,1.43,2.47,1.65,6.63-1.94,9.05Z" fill="#a69279"/>
  <path d="M476.35,609.39l-3.94,1.03c-1.04-1.03-2.85-3.38-3.56-4.73.13-2.4,4.01-3.07,5.71-1.82,1.29.95,2.08,3.65,1.78,5.52Z" fill="#d2b78e"/>
  <path d="M490.84,602.6c-.85,2.78-3.09,2.13-4.97.16l4.97-.16Z" fill="#e0c28e"/>
  <path d="M552.42,595.47c-5.59,4.67-12.84,8.61-19.97,9.84-2.78.48-5.72.95-8.08,2.11-4.13,2.01-9.05,4.07-11.09,8.61l-2.71,6.04c-2.25-5.79-3.16-11.35-8.57-12.63l-.41-1.47-.67-.34-2.58-.89h3.19c.19,0,.23.17.5.91l1.87-1.24c1.15-.76-.53-3.85-1.51-4.85.09-.43.11-2.11.55-1.96l2.77.69c.53.7,1.13,2.42,1.43,3.26l3.88,11.11c.79-4.46,1.61-8.49,3.88-11.6l4.41-6.04-1.03,3.98-2.11,6.35,6.48-2.57,20.81-7.1,5.4-2.01c1.11-.41,2.74-.77,3.54-.18Z" fill="#d5bc8f"/>
  <path d="M372.21,500.58c-.13,2.43-3.26,2.77-3.8.47l3.8-.47Z" fill="#ac9675"/>
  <path d="M417.39,415.53l2.03-4.9,3.45-1.35.37-.4c.43,3.96.34,6.93-2.59,10.43l-3.26-3.78Z" fill="#8c7055"/>
  <path d="M557.46,525.53v.76s-5.27,4.68-5.27,4.68c-3.74,1.1-7.04,2.07-9.69,3.54l-8.51,4.72-8.82,4.54c1.55-3,4.24-6.15,7.37-7.11l3.28-1c.77-.23-.07-2.69-.63-3.29l4.03-1.25,18.22-5.6Z" fill="#9d8264"/>
  <path d="M557.42,524.28l.04,1.25-18.22,5.6-4.03,1.25c-.99-1.06.99-4.2,1.99-4.64,4.19,2.76,10.4-3.39,20.23-3.46Z" fill="#e4c99a"/>
  <path d="M485.56,539.71l3.22-4.23c1.99,1.17,4.75,3.97,6.54,7.48l-9.76-3.25Z" fill="#957b5c"/>
  <path d="M545.46,458.38l1.86-1.88.66,9.27c.11,1.66.24,2.29,1.59,4.66l-4.4,3.52.29-15.58Z" fill="#957b5c"/>
  <path d="M549.63,485.18l-6.69-.03-5.55.18c3.77-2.86,8.58-2.2,12.24-.14Z" fill="#bea987"/>
  <path d="M541.39,487.5l1.49.22,2.24-1.93c.45-.39,1.99,1.31,2.79,2.5l-6.52-.78Z" fill="#bea987"/>
  <path d="M508.4,593.55l-.75-1.28-6.48-8.16,7.09-9.93c.52-.73,1.92-3.39,2.58-2.8,3.31,2.9,2.9,7.3,9.81,11.68l-10.3,14.81c-.77-1.32-1.6-3.18-1.95-4.32ZM510.53,593.69l7.78-10.48c-3.21-1.87-6.39-5.44-7.25-8.64l-6.91,9.49,6.38,9.63Z" fill="#c8b08b"/>
  <path d="M510.79,430.26c-3.03-8.85-5.37-16.63-13.51-21.96,3.33-1.79,6.78-4.21,8.3-7.46l5.53-11.78c2.76,6.33,4.12,12.31,8.49,16.3l4.59,4.2c-8.61,4.54-9.49,11.16-13.41,20.7ZM511.09,423.76c1.24-6.17,4.17-11.2,8.73-15.1-4.15-3.78-7.31-8.51-8.89-13.91-.98,5.26-4.8,10.08-9.65,13.79,4.79,4.49,8.11,9.57,9.8,15.22Z" fill="#c1a882"/>
  <path d="M483.51,387.58c.15.63-.6-1.3-1.11-2.83-1.05-3.19-3.17-3.89-7.7-5.18,5.47-1.63,7.39-2.82,8.43-8.19l1.93,5.36,6.9,2.96-6.01,1.83c-1.22.37-1.46,3.05-2.45,6.04Z" fill="#c4ab85"/>
  <path d="M474.13,464.68c.79,2.13,1.08,1.89,1,.35l.87-2.5c.14-.41,1.6.06,1.51.48l-.48,2.14-.71,8.27-2.21-1.98-.36-6.37-1.03-.76.6-.46.82.84Z" fill="#a08866"/>
  <path d="M510.53,593.69l-6.38-9.63,6.91-9.49c.86,3.21,4.04,6.77,7.25,8.64l-7.78,10.48ZM515.4,583.83l-3.86-5.29c-1.37-1.03-4.91,2.61-5.07,4.51-.19,2.4,2.2,5.1,5.26,5.79,1.09-1.11,3.22-3.93,3.67-5.01Z" fill="#a08866"/>
  <path d="M511.09,423.76c-1.69-5.65-5.01-10.72-9.8-15.22,4.84-3.71,8.67-8.53,9.65-13.79,1.58,5.4,4.74,10.13,8.89,13.91-4.56,3.89-7.49,8.93-8.73,15.1ZM516.92,408.32l-4.54-7.49c-.27-.44-1.11-2.59-1.38-2.15l-1.35,2.12-5.29,7.28,6.3,10.81,6.28-10.56Z" fill="#9d8264"/>
  <path d="M515.4,583.83c-.45,1.08-2.58,3.9-3.67,5.01-3.06-.69-5.45-3.39-5.26-5.79.15-1.9,3.7-5.53,5.07-4.51l3.86,5.29Z" fill="#cfac7b"/>
  <path d="M516.92,408.32l-6.28,10.56-6.3-10.81,5.29-7.28,1.35-2.12c.28-.43,1.12,1.72,1.38,2.15l4.54,7.49Z" fill="#cfac7b"/>
</svg>
