<svg xmlns="http://www.w3.org/2000/svg" viewBox="0 0 1024 1024">
  <path d="M523.78,95.86l-.39-1.43c-.14-.54-2.17-1.03-2.36-.52l-.53,1.94-1.15-.03-2.97,2.94.14,1.16-1.02.96-.05,1.03c-1.98,1.08-3.43,4.21-2.22,5.92l.29.98c-.39-.26-.84,1.56-.89,2.07l-.82,9.08-.24,17.02c-.06,4.24,2.98,10.13-2.92,13.19l-.19-48.8-.88-.58-.13,43.04c.08.17-.75-.79-.96-1.1l.08-38.95c0-3.01-1.33-6.02-2.81-8.01l-.79-1.88c-.22-.51-2.38-.08-2.41.47v1.46s-1.15-.02-1.15-.02l-1.97,1.95.1,1.13-1.03.96.04,1.04-.92.99-.17.98-.87,2.01-.04.99-2.13,2.85.29,38.51c.26.8-.73,1.66-3.12,2.1l-.06-47.95-.95-.58-.03,48.12-1.02-2.02.02-46.58c-1.19-2.64-3.37-5.26-5.17-5.13l-3.94.3c-.99.07-.96-3.43-.03-4.04,1.77-1.17,6.12-1.63,8.43-.57,2.48,1.13,3.98,3.37,5.75,6.62,2.22-3.98,5.63-7.54,9.35-7.67,4.56-.16,7.87,3.65,10.1,7.11,2.44-4.05,6.52-7.45,10.91-7.01,4,.4,9.2,4.19,9.26,9.48l.52,49.05c.03,2.47,2.64,6.24,4.31,7.49s6.64,2.02,8.09,1.22l-.36-7.45c4.49,3.01,7.4,6.12,10.19,10.19l-10.38,8.85.57-6.08c-7.97,1.14-17.45-3.93-18.08-13.46-.95-14.24-.38-28.59-.43-43.37-.01-3.66-1.22-7.57-2.84-9.99Z" fill="#c29f67"/>
  <path d="M832.27,248.65l-2.41.43-13.22-15.85-10.45-11.5-24.45-24.45c-31.82-28.95-67.06-52.59-106.14-70.62-28.87-13.32-57.69-21.03-89.17-28.98,38.42,2.95,88.48,24.12,121.99,43.18,26,14.79,49.48,32.24,71.86,51.82l13.87,13.17,7.51,7.52,14.82,16.11,15.79,19.17Z" fill="#9f8c75"/>
  <polygon points="584.36 397.61 586.25 400.84 581.33 400.79 595.69 414.27 591.81 415.11 594.61 418.71 581.02 405.94 577.39 402.97 578.35 398.83 584.36 397.61" fill="#bda581"/>
  <path d="M832.83,253.07l.36-2.31c42.28,54.69,70.8,119.12,82.75,187.77l3.1,14.13c.21.97-1.44,3.33-2.39,3.13s-2.26-2.25-2.34-3.22l-1.17-14.12c-11.71-67.93-39.59-130.86-80.31-185.37Z" fill="#97836e"/>
  <path d="M102.3,529.51l-2.86-10.75c-.28-1.05-2.98-2.51-3.71-1.81l-6.18,4.13,3.72-7.97c-3.01-2.74-8.04-4.07-11.92-3.74-.35-.36-1.44-1.4-1.42-1.39s1.45-.36,1.82-.48l11.55-3.89-3.64-7.26,8.26,3.45,4.04-14.38,3.78,15.32,9.04-5.66-4.28,7.74c3.26,3.57,10.86,4.09,15.19,3.74.55-.05,1.4,1.91.88,2.09-4.49,1.6-9.29-.22-15.99,3.92l4.16,7.48-8.82-5.01-3.63,14.48Z" fill="#b99468"/>
  <path d="M922.89,518.57l-2.83,12.04-3.12-14.33-9.63,4.58,3.13-8.3c-5.03-2.5-10.47-3.88-15.2-3.49-1.02,1.03-3.34,2.96-4.36,2.45s-2.7-2.32-2.81-3.45,1.77-3.07,2.82-3.52,2.97,1.16,4.24,2.8l14.43-2.6c.69-3.1-.39-5.42-2.16-9.2,2.9-.8,3.42,2.61,8.08,3.93.87.25,1.9-2.46,2.12-3.37l2.58-10.63,2.61,12.61c.29,1.4,3.19,1.45,4.33.76l6.13-3.71-4.99,8.08,13.32,4.02,2.47.72c3.27.96-10.27.96-15.1,4.86l4.19,8.19-7.9-5.28c-.32-.02-2.18,2.09-2.36,2.84ZM920.4,519.1c3.19-5.33,6.26-8.7,9.77-12.28l-4.99-3.48c-1.62-1.14-3.47-3.06-5.22-4.95l-7.59,7.36c-.69.35-2.76,1.45-2.15,1.86.45.31,2.17,1.31,2.5,1.72l7.68,9.77Z" fill="#a68a69"/>
  <path d="M729.4,182.68l.23,2.31-6.12-3.6c-30.95-20.59-63.62-38.09-99.22-49.24-13.14-4.12-25.38-8.15-38.75-9.72l-3.78-.45c-.75-.09-.02-3.01.72-2.86l3.28.68c29.38,6.06,57.47,14.85,84.57,27.98,21.08,10.21,40.55,21.45,59.06,34.9Z" fill="#a69279"/>
  <path d="M321.27,877.35l1.92-1.51c37.32,20.14,76.6,31.13,118.3,41.47-42.41-4.78-82.85-20.58-120.22-39.96Z" fill="#9d8a73"/>
  <path d="M344.26,245.48c3.38-6.49,7.33-12.71,12.85-18.16l11.61-11.46c11.1-10.96,27.62-20.73,41.77-26.25l4.71-1.84,1.46.3,7.87-1.14-25.8,11.19c-4.18,1.81-8.52,4.86-12.28,7.45l-9.54,6.55c-12.66,10.25-22.55,22.61-31.82,35.55l-.84-2.2Z" fill="#d2b78e"/>
  <path d="M489.44,897.74l6.27-.33c1.81-.31,4.25-2.71,6.03-4.44l1.79.89,1.97,2.09c.43.66-1.21,2.08-2,2.18l-1.58-3.29-1.31,3.66-6.13,1.14,10.79,1.24c.12,1.23.09,3.72.71,3.72l3.12.03,2.53,11.06c2.81-3.87,2.77-6.79,3.54-10.1l4.3-4.89,8.71-1.52-8.27-1.72c-1.29-.27-.03-4.54.44-4.96-.98.55-5.86.6-6.46-.97-1.28-3.41-1.65-8.71-1.84-12.33l-1.28,4-1.49-1.11,2.91-10.22c1.51,3.3,2.18,8.26,2.43,12.29.71,1.41,3.94,3.58,5.29,3.89l9.02-5.28-4.89,7.86c-.72,1.16.03,4.63,1.19,5.42,3.45,2.34,10.29-.42,13.48,3.28l-14.97,2.74c-6.46,1.18,2.28,6.9,4.57,13.42l-10.34-6.73-.9,3.7c-.14.57-1.86.52-2.18.64l-1.66,14.7c-4.45-2.78-1.81-6.74-2.89-9.36l-3.85-9.36-11.25,6.58,6.99-10.36c.7-2.06-4.38-4.08-6.51-4.43l-10.81-1.78,4.52-1.35ZM521.99,890.14l-.02.65v.67l.02.65.02-.65v-.67l-.02-.65Z" fill="#a08866"/>
  <path d="M144.2,401.99c-6.72,24.22-11.98,47.83-12.87,73.02l-.72,20.24c-.02.43-2.3,1.89-2.39,1.47l-.55-2.47,1.04-18.65c1.47-26.38,6.55-51.3,13.78-76.6l1.71,2.99Z" fill="#97836e"/>
  <path d="M514.66,204.61c.52.14,2.2-.74,4.68-1.85l-2.32,4.54,10.39,2.51-10.02,2.29.91,3.61-3.23-.73c-.5-.11-.77,1.62-1.01,2.08-.28.54-1.86.52-2.21.02l-1.22-1.78-7.28-6.27c3.08-1.21,5.75-2.77,7.54-5.03.42-.52,1.47-2.58,1.83-2.07l1.92,2.69Z" fill="#cfa66e"/>
  <path d="M494.53,105.89l-.08,44.27-4.38.89c-.75.15-1.55-1.31-1.55-2.11l.03-48.12.95.58.06,47.95c2.39-.44,3.38-1.3,3.12-2.1l-.29-38.51,2.13-2.85Z" fill="#c4ab85"/>
  <path d="M513.51,108.83l-.04,41.06-5.5,1.27-.54-7.3.13-43.04.88.58.19,48.8c5.9-3.07,2.86-8.95,2.92-13.19l.24-17.02.82-9.08c.05-.51.5-2.34.89-2.07Z" fill="#c4ab85"/>
  <path d="M514.56,943.13c-.26.78-1.16,3.7-1.14,4.9l.34,19.38c1.49,1.5,3.29,3.29,4.01,4.46-.21.4-.31,2.62-.85,2.41l-2.68-1.08-4.66-2.75,3.15-.97-2.85-.49.71-11.87-.92-14.29,4.89.31Z" fill="#9d8264"/>
  <path d="M849.48,204.22l-2.72,8.71-2.18-8.6-7.54-2.26,5.98-1.93c2.07-.67,2.83-5.49,3.65-8.29,3.16,3.03-.55,7.8,6.57,9.05,1.45.26,3.14.84,4.12,1.29l-7.88,2.03Z" fill="#b79d77"/>
  <path d="M513.3,49.17l.58,21.08c.04,1.49,2.46,4.41,1.34,5.68-1.05,1.2-3.32,2.21-4.67,1.69-5.23-2.04,2.14-6.5,1.21-14.6l-1.73-14.9c-2-1.49-3.03-2.63-3.85-4.14l2.82-.53c.43-.04.95,1.58,1.23,1.93l3.08,3.79Z" fill="#9f876b"/>
  <polygon points="749.87 556.29 751.15 557.42 741.36 563.56 715.48 578 715.76 575.47 749.87 556.29" fill="#bea987"/>
  <path d="M918.44,553.47l-2.68-4.78c-1.48-2.49-2.19-5.17-.37-7.32s4.88-2.61,6.74-.56c1.97,2.17,2.17,4.84.59,6.95l-4.28,5.71Z" fill="#b99468"/>
  <path d="M104.63,551.63c-.19.56-2.38.98-2.56.41s-.75-2.3-1.11-2.75l-2.89-3.65c-.68-.86.74-3.47,1.61-4.6.73-.94,3.33-1.79,4.5-1.54,1.36.3,3.37,3.57,2.91,4.9l-2.47,7.23Z" fill="#b99468"/>
  <path d="M51.31,509.43c-.53-.02-2.77-1.15-2.36-1.44s1.9-1.34,2.41-1.36l13.85-.56c2.11-.72,3.72-1.42,5.18-.62,1.55.85,1.62,3.2.44,4.42-1.75,1.83-3.05,1.05-5.61.07l-13.91-.51Z" fill="#9f876b"/>
  <path d="M516.21,38.66l.47,6.05-2.25-4.15,1.12,6.53-2.25,2.08-3.08-3.79c-.28-.35-.81-1.97-1.23-1.93l-2.82.53c-1.23-2.25.72-4.57,3-6.27,1.52-1.13,5.71-.37,7.04.94Z" fill="#baa07d"/>
  <path d="M957.92,505.81c5.55,1.58,19.14.13,16.17,2.19-4.61,3.21-9.67.3-16.26,2.06-2.42.64-3.45,1.46-4.87.16s-1.82-3.08-.76-3.99c2.18-1.88,3.01-1.19,5.71-.42Z" fill="#a69279"/>
  <path d="M510.79,883.2l-1.28,10.2-5.57-1.65-.4,2.1-1.79-.89-4.81-8.03c-.74-.61.65-2.18,1.34-1.43,2.95,3.21,5.68,4.72,8.75,4.86l2.27-6.27,1.49,1.11Z" fill="#957b5c"/>
  <path d="M917.47,466.77c1.7-.68,5.29,1.35,6.07,3.09.85,1.91-.84,5.47-2.57,6.28-2.18,1.02-5.34-.34-6.13-1.89-1.2-2.36-1.31-5.9,2.64-7.47Z" fill="#ac9675"/>
  <path d="M102.27,466.85c1.62-.54,5.02,2.09,5.33,3.73.37,1.96-1.74,5.37-3.51,5.9-1.9.57-4.93-1.42-5.71-3.02-1.05-2.17.39-5.43,3.9-6.61Z" fill="#ac9675"/>
  <polygon points="691.4 561.54 690.49 563.55 689.35 562.43 689.33 560.45 690.3 560.48 691.4 561.54" fill="#b79d77"/>
  <path d="M514.56,943.13l-4.89-.31c-.39-.02-1.31-.32-1.56-.61l.19-4.24c1.01-1.45,3.25-3.15,4.73-2.97,1.35.16,3.49,2.4,3.65,3.7.17,1.39-.96,3.71-2.11,4.43Z" fill="#b99468"/>
  <path d="M562.78,892.43c1.63-.64,4.65.44,5.29,1.68.85,1.62-.06,4.81-1.63,5.62s-5.02.06-5.81-1.32c-.89-1.55.25-5.23,2.15-5.98Z" fill="#cfac7b"/>
  <path d="M457.76,892.49c1.42-.75,4.73.72,5.23,2,.62,1.56-.21,4.66-1.64,5.29s-4.66.42-5.42-.73c-.95-1.45-.53-5.31,1.83-6.56Z" fill="#cfac7b"/>
  <path d="M517.77,971.87c.33.53.72,1.85.68,2.47-.03.46-.45,1.03-.79,1.56l-3.82,2.06c-1.69,1.07-4.7-1.53-5.11-3.49l-1.18-3.5,2.34-1.99,2.85.49-3.15.97,4.66,2.75,2.68,1.08c.54.22.63-2.01.85-2.41Z" fill="#b39f81"/>
  <polygon points="580.55 738.33 575.4 740.24 552.53 740.26 557.47 738.31 580.55 738.33" fill="#ac9675"/>
  <path d="M184.99,144.67l-1.48-3.36c-.45-1.02-3.22-1.58-4.58-1.78l6.36-5.09,5.39,5.04c-2.48.53-4.13,1.66-5.69,5.19Z" fill="#957b5c"/>
  <path d="M562.77,114.16c2.12-.9,4.57.32,4.85,2.15.2,1.36-.84,4.16-2.19,4.89-1.19.64-3.71-.31-4.54-1.38-1.15-1.49-.02-4.86,1.89-5.66Z" fill="#b79d77"/>
  <circle cx="459.05" cy="117.86" r="3.75" fill="#b79d77"/>
  <path d="M517.66,975.89c-.09,1.73-2.89,5.05-4.79,4.85-2.08-.22-5.01-1.53-5.93-2.96-1.02-1.58-.71-5.7.6-6.81l1.18,3.5c.41,1.95,3.42,4.55,5.11,3.49l3.82-2.06Z" fill="#9f8c75"/>
  <path d="M618.58,191.36l-.23,1.49c-2.49-1.13-5.42-1.95-7.84-2.22-.9-1.2-3.25-1.68-5.05-1.92-1.38-.89-3.35-1.75-5.04-1.9l.07-2.14,18.09,6.69Z" fill="#b79d77"/>
  <path d="M605.46,188.71c1.38,1.23,3.08,1.9,5.05,1.92.37.5-1.86,1.46-2.22,1.46l-8.96-3.26,1-.8,5.13.68Z" fill="#b79d77"/>
  <path d="M130.48,511.01l-2.65-2.11c-.61-.49.68-2.8,1.34-3.22,1.14-.72,3.69-1.25,4.39-.36.74.94,1.49,3.37,1.31,4.48s-3.5,1.92-4.38,1.22Z" fill="#a68a69"/>
  <polygon points="602.29 254.97 592.28 244.01 592.51 240.99 604.01 253.92 604.04 254.52 605.48 256.18 606.16 256.71 605.75 257.81 604.82 256.8 603.42 255.26 602.91 254.87 602.29 254.97" fill="#d2b78e"/>
  <polygon points="595.69 414.27 598.67 416.53 599.6 417.38 598.35 419.3 602.02 423.76 602.21 424.03 602.89 424.85 603.14 425.12 603.4 426.1 603.91 426.61 604.39 427.05 606.1 428.08 604.6 428.13 603.93 427.56 603.4 427.1 602.86 426.64 602.27 426.13 601.84 425.75 601.22 425.19 600.81 424.82 597.51 421.73 594.61 418.71 591.81 415.11 595.69 414.27" fill="#e0c28e"/>
  <path d="M952.57,756.73l-4.02-4.94c1.02-.48,3.24-2.7,3.97-4.02l4.56,4.54c-1.45,1.05-3.71,3.17-4.51,4.42Z" fill="#a69279"/>
  <polygon points="584.36 397.61 578.35 398.83 578.39 396.74 584.36 397.61" fill="#e4c99a"/>
  <path d="M514.66,204.61l-1.92-2.69c-.36-.5-1.41,1.55-1.83,2.07l1.62-11.2,2.13,11.81Z" fill="#bda581"/>
  <path d="M442.56,215.79l-.95-1.91c-.27-.64-1.71-1.48-2.5-1.05l3.01-5.34c2.25,3.33,1.87,6.1.44,8.3Z" fill="#c4ab85"/>
  <path d="M517.47,39.91l1.14,1.21c.31,1.94-1.2,5.03-3.06,5.97l-1.12-6.53,2.25,4.15-.47-6.05,1.26,1.25Z" fill="#9f876b"/>
  <path d="M585.42,182.07c-.8.36-3.47.82-4.6.6l-5.43-1.28c2.52-.7,7.52-.69,10.03.68Z" fill="#b79d77"/>
  <polygon points="381.47 577.43 381.78 581.6 380.23 581.86 377.59 578.27 381.47 577.43" fill="#957b5c"/>
  <polygon points="742.22 522.21 742.26 524.59 741.26 524.55 737.15 524.4 737.33 522.68 742.22 522.21" fill="#a68a69"/>
  <polygon points="797.32 663.52 790.36 668.52 791.58 663.68 793.85 665.11 795.63 660.25 797.32 663.52" fill="#baa07d"/>
  <polygon points="682.25 578.37 679.23 580.41 680.95 574.33 682.25 578.37" fill="#9d8264"/>
  <path d="M513.21,107.84c-1.2-1.72.24-4.84,2.22-5.92l-2.22,5.92Z" fill="#c4ab85"/>
  <path d="M503.75,95.81l-3.21.06v-1.46c.04-.55,2.2-.98,2.42-.47l.79,1.88Z" fill="#c4ab85"/>
  <path d="M523.78,95.86h-3.28s.53-1.95.53-1.95c.2-.52,2.22-.02,2.36.52l.39,1.43Z" fill="#c4ab85"/>
  <polygon points="832.27 248.65 833.18 249.77 832.15 251.82 829.86 249.08 832.27 248.65" fill="#97836e"/>
  <path d="M590.54,182.85l-1.87,1.02c-.61.33-1.42-1.42-1.23-2.01l3.1.99Z" fill="#b79d77"/>
  <path d="M599.3,185.26c-.81.13-2.9-.46-3.88-1.66l3.88,1.66Z" fill="#b79d77"/>
  <polygon points="608.41 485.51 608.24 488.73 606.14 486.65 607.39 485.51 608.41 485.51" fill="#c4ab85"/>
  <polygon points="833.18 250.76 832.83 253.07 832.15 251.82 833.18 249.77 833.18 250.76" fill="#9f8c75"/>
  <polygon points="426.61 238.76 426.66 239.88 424.62 241.79 423.56 242.71 419.32 246.68 415.8 242.89 426.39 235.59 426.61 238.76" fill="#957b5c"/>
  <polygon points="542.42 745.32 541.37 744.45 544.39 741.84 542.42 745.32" fill="#baa07d"/>
  <polygon points="507.51 457.52 507.53 454.56 510.52 461.31 514.38 453.46 511.05 463.95 507.51 457.52" fill="#c1a882"/>
  <path d="M605.46,188.71l-5.13-.68.09-1.21c1.7.14,3.66,1.01,5.04,1.9Z" fill="#d2b78e"/>
  <path d="M610.51,190.63c-1.97-.02-3.67-.68-5.05-1.92,1.8.24,4.15.72,5.05,1.92Z" fill="#d2b78e"/>
  <path d="M618.35,192.85c19.94,9.08,37.39,22.8,51.17,39.82-1.47-.65-3.84-2.08-5.1-3.2l-11.04-10.77c-12.83-12.51-28.57-20.59-45.1-26.61.36,0,2.6-.96,2.22-1.46,2.42.27,5.35,1.08,7.84,2.22Z" fill="#d2b78e"/>
  <polygon points="630.81 302.68 630.74 301.63 631.88 302.72 632.38 303.21 632.88 303.7 633.38 304.2 633.88 304.7 634.38 305.2 634.88 305.7 635.38 306.2 635.88 306.7 636.38 307.2 637.12 307.93 636.62 308.47 635.87 307.7 635.38 307.2 634.89 306.7 634.39 306.19 633.89 305.69 633.39 305.2 632.88 304.7 632.37 304.21 631.87 303.72 631.36 303.23 630.81 302.68" fill="#9d8264"/>
  <polygon points="654.32 362.37 654.6 344.15 657.22 337.84 657.41 364.02 654.32 362.37" fill="#c8b08b"/>
  <polygon points="657.09 334.42 654.17 333.36 659.38 327.27 657.09 334.42" fill="#ac9675"/>
  <polygon points="710.17 589.06 709.16 589.14 706.22 588.47 705.31 583.93 709.19 582.36 710.17 589.06" fill="#baa07d"/>
  <polygon points="720.28 545.12 717.78 549.84 717.69 546.66 718.59 545.12 720.28 545.12" fill="#9d8264"/>
  <polygon points="812.22 628.4 805.96 634.15 801.32 636.55 800.6 635.3 812.22 628.4" fill="#d2b78e"/>
  <polygon points="824.12 625.57 822.24 626.75 822.72 625.2 824.12 625.57" fill="#d2b78e"/>
  <polygon points="596.4 230.75 592.72 228.86 592.3 229.9 590.28 227.58 591.96 225.84 596.4 230.75" fill="#d5bc8f"/>
  <polygon points="619.37 810.17 617.47 811.32 616.4 811.26 618.42 809.28 619.37 810.17" fill="#9f876b"/>
  <polygon points="617.47 811.32 616.37 812.3 615.46 811.37 616.4 811.26 617.47 811.32" fill="#b79d77"/>
  <path d="M920.4,519.1l-7.68-9.77c-.32-.41-2.05-1.41-2.5-1.72-.6-.41,1.46-1.51,2.15-1.86l7.59-7.36c1.75,1.89,3.59,3.81,5.22,4.95l4.99,3.48c-3.51,3.58-6.58,6.95-9.77,12.28Z" fill="#c29f67"/>
  <polygon points="676.18 599.22 676.3 602.44 674.15 599.37 676.18 599.22" fill="#baa07d"/>
  <polygon points="413.75 484.6 418.56 477.51 423.33 472.07 419.16 480.26 413.75 484.6" fill="#b39f81"/>
  <path d="M500.62,898.49l2.89-.37c.78-.1,2.42-1.52,2-2.18l-1.97-2.09.4-2.1,5.57,1.65,1.28-10.2,1.28-4c.18,3.61.55,8.92,1.84,12.33.59,1.57,5.47,1.53,6.46.97-.47.42-1.73,4.69-.44,4.96l8.27,1.72-8.71,1.52-4.3,4.89c-.78,3.3-.74,6.23-3.54,10.1l-2.53-11.06-3.12-.03c-.62,0-.6-2.5-.71-3.72l-10.79-1.24,6.13-1.14Z" fill="#cfa66e"/>
  <path d="M417.48,198.75c-2.39,2.63-4.76,5.2-6.03,8.06l-.73,1.12-3.94,2.9c-.36.33-1.06,1.91-1.17,2.38-.08.32.47.5.99.47-.42.59-.85,3.28-1.47,2.89l-2.58-1.93c3.31-5.65,9.68-13.02,14.95-15.89Z" fill="#cbb288"/>
  <path d="M422.31,194.56c2.35,0,2.39.58,1.21,1.72l-12.08,10.53c1.27-2.86,3.64-5.43,6.03-8.06,1.42-1.56,3.23-3.05,4.84-4.19Z" fill="#e0c28e"/>
  <path d="M410.72,207.93l-4.13,5.75c-.51.03-1.07-.14-.99-.47.12-.47.81-2.05,1.17-2.38l3.94-2.9Z" fill="#e0c28e"/>
  <polygon points="398.64 435.48 398.54 437.58 396.5 436.83 398.64 435.48" fill="#c4ab85"/>
  <polygon points="503.51 898.12 500.62 898.49 501.94 894.83 503.51 898.12" fill="#957b5c"/>
  <polygon points="609.42 484.38 608.41 485.51 607.39 485.51 606.99 482.32 609.42 484.38" fill="#ac9675"/>
  <polygon points="381.86 369.69 381.57 365.14 382.4 364.59 382.69 369.14 381.86 369.69" fill="#ac9675"/>
  <polygon points="633.75 800.51 630.49 805.25 629.36 804.31 630.37 802.21 632.31 800.06 633.75 800.51" fill="#a69279"/>
  <polygon points="679.6 597.47 679.4 600.5 677.27 600.51 677.34 597.25 679.6 597.47" fill="#c1a882"/>
  <polygon points="682.44 340.72 682.33 339.67 683.13 339.58 682.44 340.72" fill="#c5ae87"/>
  <polygon points="682.33 339.67 680.96 339.9 681.52 338.67 682.33 339.67" fill="#c5ae87"/>
  <polygon points="525.29 642.54 530.69 640.61 530.9 641.94 525.93 644.12 525.29 642.54" fill="#c4ab85"/>
  <polygon points="565.45 384.62 563.5 384.66 563.39 381.68 565.45 380.63 565.45 384.62" fill="#c1a882"/>
  <polygon points="453.26 511.43 448.51 506.73 453.15 501.95 458.18 506.96 453.26 511.43" fill="#cbb288"/>
  <polygon points="567.9 511.23 563.27 506.64 568.4 502.5 572.46 506.49 567.9 511.23" fill="#c5ae87"/>
  <polygon points="466.94 513.16 462.78 509.04 466.12 504.65 470.84 509.3 466.94 513.16" fill="#cbb288"/>
  <polygon points="573.38 493.83 569.99 498.57 566.06 494.54 569.94 490.56 573.38 493.83" fill="#d2b78e"/>
  <polygon points="543.46 551.65 529.62 556.43 519.5 559.21 518.54 560.44 516.45 560.49 516.21 559.42 520.59 557.65 543.45 550.44 543.46 551.65" fill="#b79d77"/>
  <polygon points="501.48 546.61 502.39 548.28 500.42 549.59 498.34 547.45 501.48 546.61" fill="#e0c28e"/>
  <polygon points="564.49 555.95 559.57 551.01 564.46 547.44 569.33 550.99 564.49 555.95" fill="#d5bc8f"/>
  <polygon points="511.16 350.67 505.63 343.38 510.98 336.76 516.24 343.13 511.16 350.67" fill="#cfa66e"/>
  <path d="M246.06,218.25c1.41-.57,4.27,1.05,4.7,2.38.56,1.72-.5,5.34-2.37,5.33-1.62,0-3.98-.9-5.24-2.07-1.17-1.08.48-4.66,2.92-5.65Z" fill="#ac9675"/>
  <path d="M393.11,215.33c-.05-5.37,4.93-6.48,7.71-9.21,2.17-2.12,4.17-4.92,7.87-4.45l-15.58,13.66Z" fill="#b39f81"/>
  <path d="M780.9,221.06c.93,4.22-1.77,5.14-4.17,4.83-2.25-.29-4.46-3.47-3.2-6.39.81-1.9,6.91-.57,7.37,1.57Z" fill="#9f876b"/>
  <polygon points="428.7 404.36 427.39 405.44 423.24 408.88 422.87 409.28 423.52 406.58 428.7 404.36" fill="#c8b08b"/>
  <polygon points="505.53 562.07 498.08 560.94 481.45 555.61 505.53 562.07" fill="#c8b08b"/>
  <polygon points="698.31 609.99 700.81 607.41 701.3 607.9 699.29 610 698.31 609.99" fill="#c1a882"/>
  <polygon points="688.83 577.18 689.33 577.94 688.83 578.44 687.91 577.94 688.83 577.18" fill="#9d8264"/>
  <polygon points="599.69 814.29 596.37 806.19 587.66 803.25 596.43 800.75 599.06 792.78 602.55 800.72 611.77 803.47 602.39 806.11 599.69 814.29" fill="#b79d77"/>
  <polygon points="564.38 804.58 560.48 804.17 563.15 801.1 564.6 801.13 564.38 804.58" fill="#9f876b"/>
  <polygon points="620.59 809.43 619.37 810.17 618.42 809.28 620.34 808.13 620.59 809.43" fill="#b79d77"/>
  <polygon points="417.39 415.53 415.76 414.9 419.42 410.63 417.39 415.53" fill="#c8b08b"/>
  <polygon points="483.37 529.82 487.49 535.09 474.06 531.19 467.47 528.56 467.56 527.5 467.73 526.2 481.36 530.95 483.37 529.82" fill="#957b5c"/>
  <polygon points="467.73 526.2 467.56 527.5 460.59 525.6 467.73 526.2" fill="#b19c7c"/>
</svg>
