<?xml version="1.0" encoding="UTF-8"?>
<svg id="Layer_1" data-name="Layer 1" xmlns="http://www.w3.org/2000/svg" viewBox="0 0 1254 1254">
  <defs>
    <style>
      .cls-1 {
        fill: #4b3f29;
      }

      .cls-2 {
        fill: #998656;
      }

      .cls-3 {
        fill: #a09063;
      }

      .cls-4 {
        fill: #a28c53;
      }

      .cls-5 {
        fill: #a48945;
      }

      .cls-6 {
        fill: #d9c88b;
      }

      .cls-7 {
        fill: #a1905d;
      }

      .cls-8 {
        fill: #9d8855;
      }

      .cls-9 {
        fill: #c3ac6b;
      }

      .cls-10 {
        fill: #8b7844;
      }

      .cls-11 {
        fill: #aa9968;
      }

      .cls-12 {
        fill: #b7a774;
      }

      .cls-13 {
        fill: #9a8247;
      }

      .cls-14 {
        fill: #7d6b44;
      }

      .cls-15 {
        fill: #8c7b4b;
      }

      .cls-16 {
        fill: #a08b52;
      }

      .cls-17 {
        fill: #917941;
      }

      .cls-18 {
        fill: #b9a267;
      }

      .cls-19 {
        fill: #bea661;
      }

      .cls-20 {
        fill: #cab474;
      }

      .cls-21 {
        fill: #9f8b4f;
      }

      .cls-22 {
        fill: #b39c59;
      }

      .cls-23 {
        fill: #b3a16c;
      }

      .cls-24 {
        fill: #64573a;
      }

      .cls-25 {
        fill: #a68f53;
      }

      .cls-26 {
        fill: #bdb081;
      }

      .cls-27 {
        fill: #aa904e;
      }

      .cls-28 {
        fill: #c4b17b;
      }

      .cls-29 {
        fill: #b49f5f;
      }

      .cls-30 {
        fill: #a9965e;
      }
    </style>
  </defs>
  <path class="cls-25" d="M963.05,821.24c-7.49,13.35-19.72,21.44-32.89,31.05,20.66-2.72,38.57-10.69,56.22-16.9.74.43,1.75.45,3.4.18l1.38.72-10.47,4.32-9.73,3.55-17.31,5.85c-.57.19-1.62,2.42-1.13,2.57l1.91.55,11.03,2.97-.1,3.96-18.85-5.82-20.08,3.52-48.41,11.18-11.95,2.69c-.68.15-2.22,2.58-1.53,2.6l-2.77.43c-.89-.48-1.26-.71-1.11-.95l1.64-2.49-22.03,5.62-4.16.67,3.35,1.87-1.12.93-1.57-1.03c-.47-.18-1.2.6-1.54.97l-.9,1.02c.53-.23-1.62-.81-2.47-1.04-.37-.1.04.44.45,1.31l-18.77,6.52-2.03-1.93,27.52-13.11c9.67-4.61,18.69-10.14,25.08-18.27l2.19,1.6c-7,8.77-13.26,10.45-16,15.34l17.44-3.83,31.74-7.03c4.79-1.06,8.87-1.81,13.07-4.1l28.43-15.56c8.17-5.84,15.11-12.42,19.93-20.82l2.09.9Z"/>
  <path class="cls-21" d="M1139.85,686.2c.15.4-.44,1.15-.76,1.46.24.02-.47-1.16-.46-1.16-.14.01-8.6,6.1-10.19,11.87-4.53,4.56-7.83,13.12-8.82,19.97l-2.35,16.18c-.05.34.85,2.15,1.03,2.43.2.3.48.33.66.06l1.16-1.72,14.64-24.77c.39-.66,1.47-2.04,1.87-2.43.53-.52,2.28,1.43,2.8,1.96s-1.76,1.96-2.14,2.64l-6.71,11.93-5.69,9.3,2.28,1.94c15.06-7.64,24.97-21.57,26.99-38.32l1.1-9.09,1.69,3.03,1.38,4.9c-3.04,21.52-17.32,36.65-36.35,47.04-2.14,1.17-4.13,3.24-6.71,3.39l-9.97,13.9-12,13.64c-.52.59-2.81,1.9-2.31,2.44s2.26,1.7,2.93,1.49l5.5-1.73-3.31,3.85-8.5,2.41c-2.07,1.23-4.15,2.31-5.84,2.73.03-.31.9-1.2.72-1.51l-.79-1.34,1.38-3.25,5.54-5.57c8.08-8.12,16.41-15.69,22.09-25.84,8.87-15.86-3.39-40.73,28.37-63.71l.75,1.88Z"/>
  <path class="cls-19" d="M1057.88,769.48c-.31,1.35-1.56,3.76-2.42,4.98l-4.81,6.77,3.63-1.83,2.08,2.37c-4.54,5.26-9.86,4.33-14.64,12.16-3.79,6.22-8.5,11.33-14.13,15.81-2.75,2.19-5.07,4.14-7.27,7.84,22.05-10.37,43.19-23.43,62.77-38.12l-1.38,3.25.79,1.34c.19.32-.68,1.2-.72,1.51l-1.46,1.1-5.13,1.81-11.04,6.95c-.8.5-2.16,2.27-2.06,2.87l-7.64,4.31-15,8.97-11.38,5.51-8.91,3.96,2.98.38-.3,1.84c-.06.36-.18,1.24.44,1.46l-23.23,8.34-7.89,3.24-1.38-.72c-1.66.28-2.66.26-3.4-.18,19.23-10.1,44.21-27,54.84-46.03.72-1.3,1.91-2.51,2.79-3.04l3.28-3.69-2.16-2.57,3.22-3.49c1.69-.09,3.69-1.49,4.57-3.27l4.31-8.78,1.8-.02-1.15,4.97Z"/>
  <path class="cls-30" d="M179.15,724.24c-.56-.2-1.02,1.58-1.08,2.15l-.98,9.13-.24,2.2c-.04.41,1.04.79,1.49.7l-.25,8.05c1.03,8.26,4.54,16.6,9.57,23.07l8.89,8.27c1.41,1.31,4.16,1.94,5.57.91-4.87-8.33-9.45-15.62-11.72-25.12,5.61,4.7,6.98,11.41,10.34,17.07l5.7,9.6c.86-7.97-1.1-24.14-3.25-28.34l-4.31-8.41c-.29-.56-.53-1.74-.47-2.33,6.43,4.28,9.15,12.09,10.1,19.77l1.43,11.54,1.26,10.74c1.85,7.49,6.7,14.16,12.22,19.52l12.7,12.31c-.08.56-3.29,2.11-4.02,1.73l-8.35-9.56-11.9-13.87c-4.15-4.84-9.11-8.21-14.35-11.43-18-11.05-24.97-31.11-21.74-51.43l1.84-11.61c.26,2.05.92,4.2,1.55,5.35Z"/>
  <path class="cls-8" d="M416.75,874.27l-5.96,1.02c-.49.07-.57,2.78-.44,3.01l8.82-.92-4.04,1.47,8.31,1.9c.92.21,2.58.96,3.2,1.53l-14.02-3c-14.3-3.41-37.27-3.13-49.88,2.03l-2.24-2.49c5.31-2.52,11.56-3.82,17.94-3.99l7.82-.22,4.51.24c4.47.24,7.91.29,12.58-.34l-18.89-5.3c-1.57-.44-3.65-.45-4.86-.07l-8.2-1.59-12.71-3.37,2.04-2.16,14.94,3.18,28.69,6.82-14.16-13.09c-5.3-4.9-8.43-12.99-5.59-19.39,1.72-3.87,5.92-6.08,9.24-5.65s7.21,4.45,6.56,7.97c-.26,1.41-2.58,3.6-3.74,4.2-1.36.71-4.05-.66-4.07-2.03,2.18-.71,4.54-1.76,5-3.08.37-1.07-1.59-3.4-2.87-4.02-3.91-1.87-8.32,2.84-7.93,7.66.36,4.5,2.84,10.15,6.09,13.3,7.41,7.18,14.98,12.62,23.87,16.37Z"/>
  <path class="cls-4" d="M222.93,820.35l-.19,2.24c-8.45-1.17-12.84.65-19.22,5.25l-6.63,4.77c-2.81,2.02-6.3,3.15-9.66,4.25-5.42,1.76-9.84,1.78-15.12.37-7.84-2.09-14.91-4.76-22.23-8.8-2.37-1.31-5.44-2.43-6.34-4.48,5.76-2.07,9.94-3.6,14.35-6.6,27.3-18.54,44.21.37,55.76,1.82l9.28,1.17ZM162.79,817.2l-14.9,7.93c2.1-.01,5.47-.32,6.84-1.22l-.63,3.01c18.89,11.2,34.65,11.11,49.9-3.93l.39,2.43c.41-1.23.67-2.61,1.19-2.9l3.59-2.05-7.58-.59-1.75-2.74-7.03-1.69c-3.81-4.69-12.07-3.76-19.2-1.57l-10.81,3.32Z"/>
  <path class="cls-18" d="M232.1,816.79c.73.39,3.94-1.17,4.02-1.73l2.64,2.32c-.52.28-.75.53-.49.77.19.18,1.01,1.02.99,1.13-.01.12.69-1.14.71-1.17l2.95,2.01c-.39.06-1.53,1.21-1.19,1.56l1.58,1.58c.34.34.49-1.68.54-1.99l2.88,1.87-.55,1.27c-.02.28,1.16,1.34,1.44,1.49l19.33,10.38,2-1.24,2.74,1.46.47,1.84c.05.25.45-.79.75-1.41l9.6,3.39,12.1,3.98,23.99,8.31c-2.41.17-6.48-.3-9.11-.96l-7.66-1.91-10.78-3.11-12.43-4.25-8.62-3.36-15.64-6.33c-10.47-4.24-20.71-8.57-31.64-10.08l.19-2.24c1.17.15,3.32-.38,5.03-1.26-1.57-2.01-3.26-2.61-6.32-2.91l-5.74-4.85-3.07-2.6,1.12-1.53,18.15,9.59Z"/>
  <path class="cls-27" d="M1042.07,822.53l.15-1.05,5.94,2.54,2.34-.79c16.76,15.43,31.7,15.09,51.11,2.5-6.8-.42-12-.28-17.65-1.99l17.8.19c-4.78-4.61-16.94-10.07-20.69-10.16l2.06-1.03c-7.2-1.43-14.3-2.74-20.1.41-1.57.85-3.98,1.68-6.87,2.68l.77,3.62-4.54-2.89-7.3,3.8-1.8-1.12c15.29-9.31,30.47-14.04,47.25-5.29l20.53,10.71-18.5,9.06-7.75,3.4-16.38-.19c-7.93-1.28-13.46-7.11-19.99-10.8l-6.36-3.6Z"/>
  <path class="cls-23" d="M127.28,695.12l5.28,7.82c1.92,2.85,4.37,8.24,4.86,11.58l4.16,28.35-1.6.45-1.51-6.19-1.42,3.84c-.26.69-1.99-.08-3.69-.62l.3,2.94-5.38-2.98-5.05-3.24c-6.48-4.16-13.32-8.89-17.2-15.62l-4.74-8.23-3.24-9.39c.59-.73,1.69-2.53,1.81-3.49l1.59,3.32,3.52,10.57c6.19,8.98,12.71,16.66,22.21,22.07l3.06-.89c.56-.16.09-1.4-.14-2,.2-.41.44-.75.16-.99l-1.47-.93-2.21-4.01c.58-.35,1.77-1.09,1.74-1.05-.01.02.49,1.89.65,2.17.45.8,2.04,1.94,2.81,1.83l3.37,5.67c3-8.82-.35-16.18-2.19-24.73-1.28-5.91-4.83-11.87-9.19-15.84l.21-2.35,3.31,1.96Z"/>
  <path class="cls-11" d="M148.33,773.59l-3.6,3.56-6.12,1.87-19.62-2.29c6.37-3,15.06-2.53,21.48-1.15l2.37.51c.52.11,1.5-1.89,1.03-2.15l-2.94-1.67c-6.61-3.76-10.83-7.01-22.15-5.16-4.18.68-8.51,1.39-11.58,3.11.23-.4-1.99-.65-2.4-.57l-10.02,2.02,4.61,4.63,1.06-2.31c1.43,1.86,4.04,4.8,6.32,6.25l6.35,4.04-4.33,1.18-17.87-12.75c-.61-.44-1.4-3.51-.69-3.49l3.15.1c2.67.08,6.32-1.41,9.35-2l21.19-4.17,9.07,2.08c5.69,1.3,12.66,4.5,15.32,8.35Z"/>
  <path class="cls-17" d="M968.94,864.51l1.1-1.23,3.27,3.07c10.68,13.84,26.47,15.36,43.51,10.34l-4.11-2.93,1.48-2.89c-9.9-13.13-23.49-17.34-39.89-17,13.54-5.23,29.45,1.37,38.62,11.49l11.12,12.25-18.58,4.21c-13.27,3.01-31.08-5.57-36.52-17.32Z"/>
  <path class="cls-13" d="M864.57,874.22l13.68.91c13.02.87,32.79,8.84,31.95,22.02-.28,4.35-3.3,7.72-6.51,8.13-4.07.51-7.8.18-9.33-4.18-.5-1.42.1-5.09,1.29-5.97s4.77-.83,6-.38c-2.32,2.22-3.61,3.34-4.09,4.95-.36,1.18,2.53,3.67,3.77,3.42,2.25-.46,5.09-3.04,5.67-4.9,2.7-8.73-10.54-17.92-24.31-19.42l-20.08-2.19-7.29.76-15.82,2.01-3.35-1.87,4.16-.67,14.93-1.45,6.56-.74,2.77-.43Z"/>
  <path class="cls-16" d="M166.96,779.38c3.96,1.78,8.06,4.88,11.56,7.45l.67,1.55-7.31-3.17-9.66-3.24c-5.74-1.92-9.61-2.03-15.05.72l-5.93,3-7.21,2.92-15.18-.24c-3.25,0-7.34-.98-10.05-2.9l4.33-1.18c1.35.86,4.55,1.32,6.26,1.86,4.86,1.52,9.28,2.11,13.85-.23l11.21-5.75,2.32-1.27c.25-.14-.72-.65-.94-.83l-1.1-.91,3.6-3.56,4.55,3.49c5.2.1,9.83.39,14.08,2.3Z"/>
  <path class="cls-13" d="M1159.58,774.12c-4.46,3.51-6.16,9.13-19.68,14.13l-3.39-.26-14.82.02c-1.14,0-2.63-.2-2.41.09l-7.56-3.51c-4.26-1.98-8.08-5.48-12.57-3.93.02-.31.61-1.7,1.16-1.7l3.4-.04c1.27-.94,5-1.58,6.08-.36s2.79,3.3,4.07,3.8l8.58,3.35c11.36,2.91,22.06-2.06,30.67-9.75l-3.12-2.24,5.2-1.62c1.28-.4,3.43.56,4.39,2.02Z"/>
  <path class="cls-18" d="M360.74,862.02l-2.04,2.16-35.09-7.66,3.27-.7-6.1-1.78,1.23-1.89c.7-1.08-.62-3.22-2.14-3.83l2.04-1.23c10.75,5.51,22.25,10.38,34.32,13.69l4.51,1.24Z"/>
  <path class="cls-30" d="M321.92,847.1l-2.04,1.23-12.34-7.81-11.25-11.71c-10.07-10.49-12.95-27.89-2.53-29.53l-4.37,8.36c1.59,6.13,3.72,13.2,7.83,18.04l6.89,8.1c5.09,4.6,10.11,8.08,15.84,11.41l1.97,1.9Z"/>
  <path class="cls-23" d="M142.14,744.63c6.44,11.49,15.24,21.77,25.72,30.71l11.27,9.62-.62,1.87c-3.5-2.57-7.6-5.67-11.56-7.45l-3.15-4.14c-1.08-1.27-4.36-3.12-5.45-4.44l-15.3-18.6c-2.08-2.53-3.75-5.03-6.19-6.71l1.19-2.63,4.08,1.77Z"/>
  <path class="cls-10" d="M360.5,878.83l2.24,2.49c-3.04,1.24-7.24,3.09-9.68,4.84-4.15,3.25-6.19,7.34-5.31,11.94.58,3.01,2.75,4.86,5.53,4.33,1.68-.32,3.74-3.14,3.64-4.34l-5.23-3.4,6.78-.26c1.35,2.44,1.99,7.15.55,8.78-2.68,3.02-6.78,3.4-9.56,1.94-3.04-1.6-5.25-4.27-5.36-8.38-.15-5.66,3.62-11.64,8.39-13.66.85.76,1.13,1.16,1.12.82s.03-1.86.12-1.88l6.77-3.21Z"/>
  <path class="cls-29" d="M261.11,853.32l-3.34,2.52,2.41.62c-8.02,4.15-16.63,8.15-20.18,16.72l-1.04,2.51c-.23.55,1.46,1.55,1.75,1.7l.8.63,1.23.98-4.89.26c-2.35.12-6.42-.07-8.84-1.34-2.61-1.37,5.48-4.85,11.66-11.67,5.66-6.23,12.59-11.19,20.44-12.94Z"/>
  <path class="cls-25" d="M287.96,861.41c-3.86,8.54-12.09,15.7-20.96,19.35-.07-.65-.81-.98-1.07-1.09-6.86,1.48-13.44,1.83-20.24,1.78l-7.84-2.17,4.89-.26-1.23-.98-.8-.63,8.13,1.33c14.4,3.04,27.19-4.28,34.49-15.69.77.6,1.62,1.25,1.7.77.11-.67.38-2.39.07-2.25l1.12-.82,1.74.65Z"/>
  <path class="cls-4" d="M283.77,853.61l-3,1.38.89,5.22c-1.27.2-3.18,1.22-4.82,2.12l-7.22,2.85c-4.32,1.7-7.94,3.81-12.96,2.74,7.26-5.08,21.97-8.58,21.76-9.61l-.62-3.02-17.63,1.19-2.41-.62,3.34-2.52c7.43-1.66,15.07-1.21,22.66.29Z"/>
  <path class="cls-2" d="M1156,768.67l-5.92,1.79-15.31-2.83c-6.92-1.28-14.36,1.22-20.54,3.56l-2.13-2.14,10.09-4.31c3.26-1.39,14.31-1.01,18.63.08l15.17,3.85Z"/>
  <path class="cls-7" d="M213.95,807.2l-1.12,1.53,3.07,2.6-5.59-2.4-7.61-4.34-19.23-12.8c-1.58-1.05-3.73-2.15-4.28-3.41l-.67-1.55.62-1.87,22.8,15.28,6.94,3.9,5.08,3.07Z"/>
  <path class="cls-22" d="M963.05,821.24l-2.09-.9c2.43-4.24,4-10.53,2.74-15.06-1.5-5.36-3.98-8.31-9.66-8.12-1.58.05-4.68.86-5.49,2.04-.74,1.09-1.23,3.13-1.72,5.39-.31,1.39,2.45,4.94,3.62,3.95l4.27-3.62c1.8,3.56-1.79,5.58-4.97,5.38-2.43-.15-4.91-2.27-5.26-5.44-.3-2.68,1.52-6.43,3.34-7.7,2.37-1.66,6.41-2.26,9.44-1.8,4.7.71,7.47,4.42,8.91,8.63,1.24,3.65.36,7.68-1.19,12.03-.58,1.89-1.26,4.02-1.93,5.21Z"/>
  <path class="cls-2" d="M444.51,889.22c.53.46,2.12-.55,2.31-1.31,12.38,5.74,22.34,14.9,32.11,25.12,1.35,1.41,2.07,3.1.7,4.58-8.38-8.37-16.47-15.84-25.99-22.24l-9.13-6.14Z"/>
  <path class="cls-15" d="M811.55,886.13l2.03,1.93c-14.07,6.29-24.88,16.16-38.28,26.63,8.09-13.12,22.55-22.04,36.25-28.56Z"/>
  <path class="cls-5" d="M1056.08,744.25c-3.99,3.9-6.83,13.19-7.2,19.03l-.52,13.29-3.22,3.49,2.16,2.57-3.28,3.69.72-10.21,1.14-11.71c.82-8.38,2.76-16.48,8.08-22.32l2.12,2.16Z"/>
  <path class="cls-25" d="M1077.05,754.63c-.56,4.9-2.38,11.42-6.2,15.25l-9.7,9.75c-.98.99-3.6,1.83-4.79,2.14l-2.08-2.37c10.21-4.98,18.09-13.69,20.37-25.49l1.68-2.73.72,3.46Z"/>
  <path class="cls-9" d="M1077.05,754.63l-.72-3.46-.18-14.83c-.02-2.07-1.33-4.55-2.62-5.44.78-.35,2.68-2.13,2.17-2.95l-2.59-4.69,2.81-2.59c.75-.69,2.36,2.74,2.39,3.84l.7,26.69c.03,1.11-1.21,3.16-1.96,3.42Z"/>
  <path class="cls-20" d="M416.75,874.27l7.05,2.97,23.02,10.67c-.19.76-1.78,1.77-2.31,1.31-4.47-3.01-14.03-6.77-16.27-6.68-.29.01-.48.27-.53.74l-1.08-.99c-.62-.57-2.28-1.32-3.2-1.53l-8.31-1.9,4.04-1.47-8.82.92c-.13-.23-.05-2.93.44-3.01l5.96-1.02Z"/>
  <path class="cls-12" d="M1157.79,675.4l.47,1.07-2.34-.08-4.63,7.19.36-4.48-11.8,7.11-.75-1.88,13.97-11.9c1.66-1.41,3.23-4.14,4.89-3.7l-.16,6.68Z"/>
  <path class="cls-3" d="M1073.53,730.9l-.36,1.09c-.09.27-.49,1.63-.58,1.36l-1.12-3.29-10.59,8.44-4.8,5.75-2.12-2.16,6.14-6.73,13.02-12.1,2.59,4.69c.51.82-1.39,2.6-2.17,2.95Z"/>
  <path class="cls-17" d="M318.61,852.6l3.4-.44-1.23,1.89,6.1,1.78-3.27.7-8.91-.94-13.81-.5-4.24-.46,5.19-4.9,7.66,1.91c2.64.66,6.71,1.13,9.11.96Z"/>
  <path class="cls-26" d="M116.1,685.15l-3.16.52-3.79-2.37-5.89-4.84-4.3,2.03,2.81-3.71c.57-.76-2.03-2.55-3.71-3.72l-.93,3.3-1.57.14-.56-9.21c3.56-.79,5.18,5.19,9.98,9.01l6.67,5.32,4.45,3.54Z"/>
  <path class="cls-19" d="M296.65,854.63l4.24.46-12.93,6.32-1.74-.65,3.33-3.16c-3.51,1.13-4.85,1.62-5.95,2.31l-1.94.3-.89-5.22,3-1.38c3.83.76,9.25.63,12.88,1.02Z"/>
  <path class="cls-30" d="M977.01,858.45l1.54,3.82-9.02-3.34.51,4.35-1.1,1.23c-1.09-1.05-3.53-2.98-3.57-4.46l.1-3.96c2.28.61,7.01-1.11,9.12-1.59l2.42,3.96Z"/>
  <path class="cls-29" d="M1114.23,771.18l-2.2,3.15,21.13.1.86,1.78-15.77.64c-.89.92-3.63,2.31-4.36,1.49l-3.17-3.57-.93,3.8c-1.08-1.21-4.82-.58-6.08.36l-3.4.04c-.54,0-1.14,1.4-1.16,1.7l-3.02-.26,3.31-3.85c.4-.13,1.28-.12,1.68.02l3,1.01c.39.13,1.5-1.03,1.38-1.43l-.41-1.41,1.02-1.54,1.64-.86c.35-.22.93.73,1,1.15l.42,2.49,1.86-5.71,1.07-1.23,2.13,2.14Z"/>
  <path class="cls-11" d="M302.67,811.46c-1.23-.05-3.61-1.72-3.88-2.86s.72-3.68,1.32-4.18c1.18,2.15,3.76,3.8,5.81,2.74,1.52-.79,1.5-4.64,1.01-7.35-.27-.52,2.6.15,2.93.94.77,1.86.09,6.63-1.47,8.77-.84,1.15-3.68,2.03-5.73,1.94Z"/>
  <path class="cls-22" d="M1042.14,819.24l-1.47,1.3c-.22.17-.32.56-.02.62l1.58.32-.15,1.05c-2.73-.36-7.41-.39-10.38.22l-9.4,1.95c-.62-.21-.5-1.09-.44-1.46l.3-1.84c6.66-1.29,13.33-2.18,19.98-2.17Z"/>
  <path class="cls-27" d="M99.25,692.36c.05,2.13.86,5.9.61,7.96-.11.96-1.21,2.76-1.81,3.49-.66-1.9-1.21-4.96-1.35-7.34l-1.15-19.98,1.57-.14.87,15.22,1.25.78Z"/>
  <path class="cls-26" d="M192.73,733.63l.44,3.1-9.13-6.66c-.75-.57-2.43-1.72-2.68-1.82l-2.2-4.01c-.63-1.15-1.29-3.31-1.55-5.35l4.68,5.2,10.45,9.55Z"/>
  <path class="cls-10" d="M866.34,856.34l-2.19-1.6c3.88-4.93,3.72-11.07,2.13-17.42,5.91.29,5.08,12.74.06,19.02Z"/>
  <path class="cls-24" d="M386.26,874.62l3.66-1.48-10.31-3.99c1.21-.37,3.29-.37,4.86.07l18.89,5.3c-4.67.63-8.11.58-12.58.34l-4.51-.24Z"/>
  <path class="cls-6" d="M268.95,835.03l-2,1.24-19.33-10.38c-.28-.15-1.46-1.22-1.44-1.49l.55-1.27,11.16,6.09,11.06,5.81Z"/>
  <path class="cls-7" d="M116.1,685.15l2.37,1.08,1.7,2.25c1.39,1.84,5.7,4.56,7.11,6.65l-3.31-1.96-.21,2.35-10.81-9.84,3.16-.52Z"/>
  <path class="cls-20" d="M1045.09,820.36l9.76.26,5.41,1.35c-3.21.29-7.17.38-9.76,1.25l-2.34.79-5.94-2.54-1.58-.32c-.29-.06-.2-.45.02-.62l1.47-1.3h1.15s1.8,1.12,1.8,1.12Z"/>
  <path class="cls-10" d="M861.59,844.27c-.21.53-3.25,2.1-4.6,1.96-2.77-.29-4.8-8.18-.02-10.66l-.17,6.89,4.78,1.81Z"/>
  <path class="cls-28" d="M1159.58,774.12c-.97-1.46-3.11-2.41-4.39-2.02l-5.11-1.65,5.92-1.79,8.47,1.6-4.89,3.85Z"/>
  <path class="cls-15" d="M267,880.75c-6.84,2.81-13.99,2.4-21.32.69,6.81.05,13.38-.3,20.24-1.78.27.11,1.01.43,1.07,1.09Z"/>
  <path class="cls-14" d="M1080.33,786.65l-12.48,8.36-5.75,3.26c-.1-.6,1.26-2.37,2.06-2.87l11.04-6.95,5.13-1.81Z"/>
  <path class="cls-2" d="M141.58,742.87l.56,1.76-4.08-1.77-1.19,2.63-3.21-2.21-.3-2.94c1.7.54,3.43,1.3,3.69.62l1.42-3.84,1.51,6.19,1.6-.45Z"/>
  <path class="cls-24" d="M1158.34,696.39l-1.38-4.9,1.3-15-.47-1.07c.53-.13,1.17,1.5,1.42,2.02l-.88,18.97Z"/>
  <path class="cls-15" d="M198.41,741.18c-.06.6.18,1.77.47,2.33-2.17-1.19-5.56-4.47-5.72-6.78l-.44-3.1,4.23,3.73c.54.42,1.74,1.17,1.68,1.7l-.22,2.12Z"/>
  <path class="cls-1" d="M1139.9,788.25c-5.79,2.14-15.05,2.45-20.63-.14-.22-.29,1.27-.09,2.41-.09l14.82-.02,3.39.26Z"/>
  <path class="cls-11" d="M134.03,788.61c-4.98,2.01-10.31,2.35-15.18-.24l15.18.24Z"/>
  <polygon class="cls-14" points="1115.28 746.81 1113.64 750.92 1109.25 756.6 1105.32 760.72 1115.28 746.81"/>
  <path class="cls-8" d="M444.51,889.22l-7.33-2.3-9.46-3.64c.05-.47.24-.73.53-.74,2.24-.09,11.8,3.67,16.27,6.68Z"/>
  <path class="cls-2" d="M1111.03,770.27l-1.86,5.71-.42-2.49c-.07-.42-.65-1.37-1-1.15l-1.64.86c.84-1.27,3.24-2.46,4.92-2.94Z"/>
  <path class="cls-2" d="M1105.09,774.75l.41,1.41c.12.4-.99,1.56-1.38,1.43l-3-1.01,3.98-1.83Z"/>
  <path class="cls-6" d="M243.86,821.26c-.05.31-.2,2.33-.54,1.99l-1.58-1.58c-.34-.34.81-1.5,1.19-1.56l.93,1.14Z"/>
  <path class="cls-13" d="M838.38,880.3l-3.1-.06c.33-.38,1.07-1.16,1.54-.97l1.57,1.03Z"/>
  <path class="cls-13" d="M834.38,881.27l-2.03.28c-.4-.87-.82-1.41-.45-1.31.85.23,3.01.8,2.47,1.04Z"/>
  <path class="cls-6" d="M272.92,836.92c-.31.61-.7,1.66-.75,1.41l-.47-1.84,1.23.43Z"/>
  <path class="cls-8" d="M352.49,883.11c.29-.03.92-.91,1.24-1.06-.09.02-.13,1.55-.12,1.88s-.27-.06-1.12-.82Z"/>
  <path class="cls-6" d="M239.98,818.11s-.72,1.29-.71,1.17-.8-.95-.99-1.13c-.26-.24-.03-.49.49-.77l1.21.73Z"/>
  <path class="cls-1" d="M861.8,874.65l-6.56.74-14.93,1.45,22.03-5.62-1.64,2.49c-.16.24.22.47,1.11.95Z"/>
  <polygon class="cls-22" points="1158.26 676.48 1156.96 691.48 1155.27 688.45 1155.92 676.39 1158.26 676.48"/>
  <path class="cls-14" d="M1139.09,687.67l-10.65,10.71c1.59-5.77,10.05-11.86,10.19-11.87-.01,0,.69,1.19.46,1.16Z"/>
  <path class="cls-14" d="M1057.88,769.48l1.15-4.97-1.8.02,6.86-13.97c2.72,5.41-.7,8.79-2.67,13l-3.54,5.92Z"/>
  <path class="cls-24" d="M181.36,728.25c-1.6,3.42-2.9,6.9-3.01,10.17-.46.1-1.54-.29-1.49-.7l.24-2.2.98-9.13c.06-.57.52-2.35,1.08-2.15l2.2,4.01Z"/>
  <path class="cls-24" d="M162.79,817.2c.36.29-.71,1.85-1.13,2.13l-6.93,4.58c-1.37.9-4.73,1.21-6.84,1.22l14.9-7.93Z"/>
  <path class="cls-20" d="M204,822.99s-1.18-1.79-1.82-1.59l-3.23,1.01c.23-.3.81-1.17.66-1.57l-.59-1.51.81-2.21,1.75,2.74,7.58.59-3.59,2.05c-.52.3-.77,1.67-1.19,2.9l-.39-2.43Z"/>
  <path class="cls-24" d="M1081.07,813.77l-18.04-.63c5.8-3.15,12.91-1.84,20.1-.41l-2.06,1.03Z"/>
  <path class="cls-24" d="M1056.93,819.44c.27.17,1.19,0,1.48.02l-3.56,1.16-9.76-.26,7.3-3.8,4.54,2.89Z"/>
  <path class="cls-3" d="M131.78,730.42c-.76.11-2.36-1.03-2.81-1.83-.16-.28-.66-2.16-.65-2.17.02-.04-1.16.7-1.74,1.05-.93.57-1.83-2.14-2.43-3.18l-4.5-7.75-4.39-7.58c-1.45-2.49-2.67-4.3-2.14-7.53l4.84,5.71,5.04,9.17,8.76,14.12Z"/>
  <path class="cls-3" d="M130.1,733.39l-1.31-1.92,1.47.93c.28.24.04.57-.16.99Z"/>
  <path class="cls-1" d="M107.21,770.22l-6.75,3.78-1.06,2.31-4.61-4.63,10.02-2.02c.41-.08,2.63.17,2.4.57Z"/>
  <path class="cls-4" d="M286.21,860.76l-1.12.82-1.27.74.66-1.57c.09-.22-.24-.32-.89-.84,1.1-.7,2.44-1.18,5.95-2.31l-3.33,3.16Z"/>
  <path class="cls-19" d="M285.1,861.57c.3-.14.03,1.58-.07,2.25-.07.47-.92-.18-1.7-.77l.5-.73,1.27-.74Z"/>
  <path class="cls-24" d="M98.96,680.49l.29,11.87-1.25-.78-.87-15.22.93-3.3c1.68,1.17,4.28,2.97,3.71,3.72l-2.81,3.71Z"/>
  <path class="cls-14" d="M978.56,862.27l-1.54-3.82,6.08,2.71c5.85,2.89,11.09,4.23,16.24,7.92-3.56.34-5.84-.69-8.84-1.92l-11.93-4.89Z"/>
  <path class="cls-24" d="M1118.25,776.84l15.77-.64-.86-1.78,15.16.07c-1.23,1.35-3.6,2.78-5.05,2.84l-10.04.39c-5.44.21-10.32.81-14.99-.88Z"/>
  <path class="cls-27" d="M1060.26,821.98l-5.41-1.35,3.56-1.16,5.79.53c6.27.57,12.05,1,18.05,3.92-3.62.41-8.16.72-11.83.01l-10.16-1.95Z"/>
  <path class="cls-30" d="M199.02,819.34l.59,1.51c.16.4-.43,1.27-.66,1.57-.55.17-1.77.7-2.4.74l1.02-2.03-11.89,1.18c-1.73.17-4.18.88-4.71,1.81-3.01.19-5.34.36-9.07-.94,7.54-2.16,13.62-2.62,20.74-3.3l6.39-.54Z"/>
  <path class="cls-24" d="M196.55,823.16l-15.59.97c.53-.93,2.98-1.64,4.71-1.81l11.89-1.18-1.02,2.03Z"/>
  <path class="cls-2" d="M110.99,697.73c-.38.89-1.88-.91-2.19-2.11-2.92-3.91-5.51-7.2-5.74-12.39,3.24,4.5,5.17,8.17,7.93,14.5Z"/>
</svg>