<svg xmlns="http://www.w3.org/2000/svg" viewBox="0 0 1024 1024">
  <path fill="#dcc38c" d="M506.55,750.58l-4.41-1.31,14.85-16.37c11.12-12.26,17.76-25.68,20.33-42.03,4.9-31.17-5.88-57.44-28.09-78.42l4.35-2.09c7.16,6.97,12.69,14.7,18.7,24.15-1.81-9.35-9.35-21.48-16.02-28.87l2.57-2.46c15.36,18.48,24.28,41.72,25.11,66.53l-.55,10.67-4.65,23.06c18.84-24.4,17.72-64.15,1.83-89.08l-15.99-25.09-21.33-33.63-.59-1.25-.11-.97c-.1-.87-.59-2.25-.99-2.97l-1.09-1.98-.73-1.12-.46-1.83-.72-1.04-.15-2.03,4.29-.11,2.77,7.12c-.68-.17-.43,1.27-.11,1.72l1.16,1.24c.09.25.07.67.03,1.22.24,1.6,2.03,4.42,3.44,6.04l2.15-7.15c2.82,10.13,6.4,20.4,13.29,29.5-1.74-15.15-3.41-28.61-.14-42.79,3.25-14.09,8.6-27.18,16.93-39.02l25.1-35.68c18.28-25.99,18.42-61.87-2.9-84.91l-12.45-13.45c-4.94-5.34-9.15-11.34-10.53-18.94,5.65,6.89,9.99,13.44,16.38,19.02,7.84,6.85,15.74,13.77,21.08,22.92,14.88,25.51,11.1,53.9-6.3,77.48l-19.97,27.06c-10.8,14.64-22.52,36.96-23.89,54.74-1.83,23.69,1.73,37.47,12.74,57.95,4.8,8.93,9.84,17.35,12.66,27.2,6.6,23.06,3.66,47.32-8.39,68-6.97,11.97-13.89,23.64-23.56,33.31l-15.65,15.66Z"/>
  <path fill="#d4bd8e" d="M575.7,261.75c-.84-.27-3.08.33-3.97.54l-11.21-2.82c-2.29-.57-5.56-.94-7.98-.63l-8.08,1.05-17.26,3.43c16.44,4.25,28.42,13.51,40.21,24.31s28.74,13.86,44.34,7.27c4.24-1.79,6.97-6.38,10.76-9.41-.66,5.54-5.17,8.66-9.36,12.93,8.06,2.77,16.44,5.64,22.91,11.45s11.55,14.03,9.8,23.13c-2.36-11.77-8.79-21.05-19.78-26.1-5.61-2.58-11.71-4.91-18.21-4.59-9.42.46-18.66.6-29.11-.6l18.43,23.18c14.75,18.56,32.83,27.23,56.04,15.63-15.79,15.28-40.93,8.8-55.02-8.66l-18.83-23.34c-8.04-9.97-19.02-17.46-29.35-24.46l1.43-1.51,1.49.18.85-1.05c-11.69-10.62-28.4-17.48-44.75-15.66l-17.73,3.69c5.86-4.84,13.06-5.16,20.62-6.57l-20.41-8.41.35-4.33,8.24,3.61c16.02,7.01,33.62,8.33,46.03-5.96-.93,3.19-3.09,5.61-5.66,8.47,10.6-1.53,26.12-.44,35.21,5.22ZM555.39,283.86l1.57.82.47-.47-1.94-1.52-1.62.03-.37.4,1.89.74ZM557.96,284.7l-.49.47.49.54.5-.5-.51-.51ZM558.69,286.49l.51-.55-.51.55Z"/>
  <path fill="#ceb786" d="M652.34,531.41l.5-5.69c-8.4,4.32-6.36,14.78-12.13,18.95,12.73-26.97,9.19-60.55-3.09-87.53,7.54,7.44,8.89,17.12,11.93,26.39l2.33,18.89-.76,12.05c-.22,3.49-.69,6.25-.14,9.44,3.61-8.3,7.03-15.97,7.17-24.41l.26-16c-2.3-14.53-8.76-27.06-17.94-37.78l2.25-1.32,11.26,13.88c.78-5.73.08-10.71-.88-16.43-4.99-29.8-21.48-56.04-48.11-70.79-2.91-1.61-5.55-3.02-7.69-5.4,32.54,10.89,54.92,39.05,59.33,72.82l.63,25.45c8.23,26.05,6.74,43.84-4.91,67.47Z"/>
  <path fill="#dec691" d="M613.67,607.45l-8.35,33.74c-3.28,18.25-6.53,35.85-12.62,53.41-8.29,23.94-20.79,45.52-38.31,63.54l-8.43,8.67c-13.78,11.96-27.86,23.26-43.39,31.97l-1.92-2.73,26.89-18.7,13.1-11.11c10.99-9.32,19.5-20.85,27.89-33,15.6-22.58,24.04-48.71,28.92-75.78,3.05-16.92,6.07-32.9,11.01-48.71l5.21-1.31Z"/>
  <path fill="#bba478" d="M448.57,211.73l-1.94,2.39c-12.21,9.86-23.79,11.48-28.8,21.66l23.26-6.62-4.1,2.98c-.46.34-.61,2.58-.02,2.58h2.49s-13.99,17.93-13.99,17.93l-2.4-4.07,11.33-16.03-14.95,5.88c-5.05,1.99-6.95,5.28-9.52,9.97l-5.86,10.73c-1.72,3.14-3.4,5.63-6.73,7.68l11.38-22.14-9.69,4.32c3-3.8,5.69-5.31,9.15-7.82,4.81-3.48,8.59-8.51,12.42-13.44-8.53.86-15.51,9.92-22.02,17.12l-3.33,8.33-12.16,20.11c-.67,1.1-4.27,1.64-4.58.83l6.5-9.87,7.89-16.12c6.91-14.11,18.19-23.56,33.59-27.53,8.14-2.1,15.66-6.26,21.37-12.3l1.99-5.81,2.24-9.88c.49,4.35.64,8.02.2,12.02l-3.73,7.1Z"/>
  <path fill="#d5bc86" d="M502.7,542.35l-4.29.11c-9.17-23.73-4.91-47.04,6.29-70.8,5.86-12.42,11.44-24.56,13.47-38.31,2.61-17.68-8.01-36.94-21.75-47.54l4.44-2.47c7.66,9.01,15.73,18.48,19,30.62,3.61,13.4,1.87,27.16-3.11,39.73l-5.45,13.73c-6.13,12.69-10.9,25.33-12.42,39.5-1.31,12.21-.5,24.33,3.82,35.43Z"/>
  <path fill="#d6c49b" d="M670.42,682.84l-2.04,9.48c-5.16,23.96-17.47,44.35-37.86,58.17l-8.19,10.39,2.1.32-4.36,3.18c-1.24.9-4.27,1.4-5.84,1.24l9.63-11.96c9.99-12.15,4.17-29.96,16.68-45.33l3.08.89c-5.24,9.14-10.36,18.76-9.84,30.43,2.85-4.24,6.88-9.61,8.12-14.43l4.47-17.97,1.39-.92-2.03,14.35,14.87-26.31.09-2.05c.02-.38,1.72.05,1.58.41l-.71,1.84-12.64,25.98,8.41-4.32c4.41-10.99,7.88-21.7,8.77-33.07l1.68-4.08-.02,8.41,2.66-4.66ZM639.64,738.8c6.41-4.67,10.4-10.17,14.01-17.28-6.92,3.04-12.7,9.05-14.01,17.28ZM637.88,739.29l-.02.65v.67l.02.65.02-.65v-.67l-.02-.65Z"/>
  <path fill="#dec691" d="M641.27,749.75l1.25,3.81c-16.47,12.11-34.33,22.34-52.95,31.81l-9.15,4.65-4.26,1.81,4.64.61c.85.11,1.45,1.45,1.61,2.28-8.99,0-17.57,3.33-25.77,7.63l-19.38,10.17.21-3.2c.05-.49-.24-1.59-.38-2.16-.11-.48-1.68.82-1.63.88l-3.03.65-2.06-.93c-.34-.09.36-1.48.23-1.79,17.12-4.79,51.44-18.51,61.89-30.7v4.2s4.58-2.92,4.58-2.92l17.17-10.92c1.56.15,4.6-.34,5.84-1.24l4.36-3.18,16.85-11.46Z"/>
  <path fill="#dec897" d="M588.35,539.38c4.53,0,8.74.13,13.98.96l-9.88,2.06c-2.26-.01-4.23.44-7.29,1.67,3.32,1.68,6.68,2.39,10.3,2.54l5.21,2.67c-6.71,4.1-13.83-1.24-21.12-1.81-7.51-.04-13.46,10.77-13.08,17.42.33,5.73,2.63,7.95,7.39,7.75,3.61-.15,6.38-3.25,6.07-7.51l-5.15-3.82c3.88-2.05,5.87.2,7.64,2.88,1.37,2.07.75,5.73-1.17,8.03-2.21,2.64-5.23,4.34-8.31,4.41s-6.92-2.01-8.62-5.12c-5.07-9.26-.35-20.53,8.42-25.85.87-.53.52-3.44-.43-4.11-7.89-5.58-11.47-16.6-7.03-24.97,2.9-5.47,9.21-7.7,14.37-5.33,2.83,1.3,4.66,3.98,4.97,6.66.37,3.19-1.28,6.3-4.22,7.4.9-4.33,1.17-7.51-.91-9.26-2.78-2.34-6.53-2.17-8.91.48-6.84,7.6-.15,21.51,9.71,24.89,2.36-.79,6.04-2.06,8.06-2.06Z"/>
  <path fill="#d8c393" d="M506.52,278.56l2.97,1.19,2.01.92c9.71,4.45,18.33,11.43,24.34,20.56,10.22,15.55,9.72,37.1-4.66,49.26-4.39,3.72-8.34,9.04-10.3,14.38-4.23,11.52,1.78,23.04,13.5,26.02,6.54,1.66,12.44-2.17,14.85-8.37.77,7.74-7.58,11.9-14.9,11.1-11.79-1.3-18.77-12.41-18.03-24.01.73-11.52,8.17-17.69,16.28-27,13.41-15.39,2.84-44.27-16.38-54.58l-13.4-7.19c-.02-1.17-.21-2.12.31-2.1l3.4-.19Z"/>
  <path fill="#d6c49b" d="M553.43,732.01c5.86-10.26,12.82-18.22,17.31-28.38,5.53-12.53,9.17-25.63,10.38-39.38l-.13-28.66c-2.14-28.1,2.72-54.34,21.25-75.56-8.53,15.87-16.2,30.72-17.39,48.71l.06,32.31c.01,7.93.56,15.29-.32,23.32-1.3,11.88-3.83,23.53-8.86,34.29-5.88,12.55-12.92,24.21-22.31,33.36Z"/>
  <path fill="#d6c49b" d="M596.54,774.34l-1.27.92,1.79,1.28-4.6,2.92v-4.2c3.33-3.87,6.98-9.44,5.82-14.78-2.11-9.74-3.02-18.97-.02-28.42l5.59-26.19,4.96,9.96c4.34,8.71,6.08,16.69,5.77,26.55-.35,10.91-6.55,19.32-13.82,27.32l-4.22,4.64ZM602.95,748.46l-1.6-9.19,3.65,6.67c.6-9.68,1.01-16.39-.42-25.75l-6.31,24.27,2.61,13.98c2.11-2.9,2.63-6.78,2.07-9.98ZM608.7,743.76l-4.37,15.63c9.87-10.07,10.28-25.73,3.32-38.13l-.34,18.58c-.01.7,1.54,3.38,1.38,3.92Z"/>
  <path fill="#d4bd8e" d="M670.42,682.84l-2.66,4.66.02-8.41-1.68,4.08-6.47,8.31-7.75,8.5c-1.67,1.83-3.83,4.48-4.12,6.37l-1.39.92-2.75,1.96-3.08-.89,9.38-11.53c6.33-7.79,13.72-14.76,17.63-24.12,4.93-11.79,2.74-23.91-.54-35.8-3.23-11.73-9.98-21.77-21.97-26.29l-4.16-1.57-7.64-2.01c17.93-4.45,33.53,10.75,38.04,30.5,2.25,9.84,3.13,20.08,1.55,30.08l-2.41,15.24Z"/>
  <path fill="#d2bd91" d="M600.66,549.28l-5.21-2.67c4.7.2,9.52-1.47,13.98-4.35-.23-.21-1.29-.75-1.71-.64l-3.08.84-12.2-.06,9.88-2.06c-5.24-.82-9.45-.96-13.98-.96-.44-.2,1.77-.87,2.38-.88l13.58-.08c19.45-.12,25.69-31.95,23.67-51.46-1.91-18.49-6.2-35.01-17.54-48.72l-.74-.53-3.5-5.03c1.82,1.12,3.25,2.62,4.4,4.17l.49.54c1.06.75,2.89,2.25,3.88,3.59,9.6,12.98,14.46,27.85,15.99,44l.1,20.26c-1.15,14.72-7.33,28.03-17.45,38.29-4.24,3.02-8.41,5.94-12.96,5.75Z"/>
  <path fill="#d8c393" d="M505.54,831.16c0-2.68,1.56-4.15,3.92-5.25l1.49.99,10.63-2.49,27.88-3.97c12.79-1.82,25.87,2.42,37.57,7.02,6.33,2.49,11.11,6.69,15.7,11.4,8.45,8.68,8.85,26.18-.74,31.23,6.38-9.29,6.43-20.16-1.15-28.61-6.91-7.69-16.75-13.4-27.1-14.7l-16.18-2.04c-3.81-.48-7.32-.32-11.19.05l-12.9,1.23-27.93,5.11Z"/>
  <path fill="#d2bd91" d="M670.29,374.03c-3.94-5-7.84-11.76-14.13-14.8-8.26-3.99-16.67-6.64-25.3-5.25l-20.69,3.33c-17.67,2.84-36.94-6.54-46.94-21.18l-10.04-14.68c6.06,2.8,8.54,8.29,12.46,12.96,12.6,15.03,31.25,22.24,50.66,18.05,9.37-2.03,18.68-2.62,28.05-.95,11.62,2.43,23.39,8.93,25.93,22.52Z"/>
  <path fill="#d8c393" d="M687.21,844.76l.14,3.81c-31.65,16.79-65.32,28.61-100.53,35.96-5.64,1.18-10.43,1.69-16.04,1.52,2.38-4.39,5.38-3.26,8.75-3.9,37.85-7.19,73.78-19.49,107.69-37.39Z"/>
  <path fill="#d4bd8e" d="M490.77,728.48l-1.47-5.08c6.13-11.24,11.59-22.83,13-36.1v-16.01s-5.49,13.32-5.49,13.32l-.73-2.69c-.06-.38-1.72.61-2.03.31l5.53-14.74c4.72-12.58.63-24.89-2.89-37.36,8.61,12.46,10.08,27.01,10.19,41.17l.07,9.27c.1,12.84-4.04,24.74-10.02,36.16l-6.17,11.77Z"/>
  <path fill="#c0a676" d="M463.11,245.69l.52,3.39c-6.51,1.19-17.11,7.37-21.34,12.38l-10.04,11.89c-3.11,3.69-6.94,5.68-9.73,9.53l12.38-4.33c4.01-1.4,9.48-5.42,12.48-8.15l3.66,2.89c-.01.39.48,1,.46.99s-1.94.34-2.2.5l-9.19,5.48c-15.73,9.38-32.23,2.46-36.38,19.71-.51,2.14-2.06,3.72-3.33,3.64.26-9.37,5.15-14.38,11.54-18.58l8.47-5.57c14.56-9.57,17.91-28.26,42.69-33.76Z"/>
  <path fill="#d6c08f" d="M489.66,226.67h-1.14s-1.03-.68-1.03-.68l-.06-4.56c5.41.88,10.7,3.35,16.21,5.14l24.1,7.84c5.26,1.71,11.88,2.13,17.08,1.86,15.97-.85,29.04-9.12,36.46-22.59-.16,4.94-2.98,9-6.36,12.79-9.46,10.62-23.92,15.82-38.52,14.11s-26.36-7.98-39.75-11.88l-6.99-2.03Z"/>
  <path fill="#a6895a" d="M370.66,753.13l-3.95,1.7-.07,2.54c-11.4,1.7-23.17,15.73-23.79,24.83-.35,5.21-.71,10.97.26,15.68,1.66,8.07,6.2,15.58,12.33,20.36l8.39,6.54-.25,3.78c-.02.87-2.23.3-3.09.16l-8.07-7.4c-13.3-11.12-18.85-30.29-12.16-46.4,3.4-8.2,9.99-14.5,17.22-18.67,4.35-2.51,8.71-3.08,13.15-3.1Z"/>
  <path fill="#b09768" d="M425.47,252.64l-4.28,6.7c-10.05,15.73-17.18,14.45-29.85,24.08-6.88,5.23-3.24,13.1-6.02,16.3-3-5.91-1.17-12.9,3.81-17.5l5.71-5.27c-8.71-.69-16.67,2.93-21.49,9.24-5.97,7.83.27,12.81-1.1,17.89-5.03-6.56-5.34-15.4-.72-21.57,1.74-2.31,6.06-6.19,8.78-6.77l13.33-2.84c11.9-2.54,20.21-9.31,26.54-19.63l2.87-4.69,2.4,4.07Z"/>
  <path fill="#b49661" d="M407.42,827.13l-1.06,5.18-.85-.39-1.92,1.19-.98.08-2.98,1.13-4,.88-1.5.11c-.35.03-.59.92-.6,1.27s1.18.84,1.43.59l.63-.65,7.3.76c.74.08,2.13.5,2.69.89l1.53,1.05c.41.28,1.58-.65,1.45-1.11l2.14-.06-.06,4.2-1.05-.05-4.93-.16c-1.41-1.42-4.52-1.96-6.97-2.05l-1.2.49c-3.3-2.44-7.74-3.07-11.86-3.39l-7.11-.56-12.5-1.61c-6.63-.86-13.1-2.77-18.37-5.79l2.15-.12c.5-.03.57-1.3.59-1.73l1.25.03,1.04.03,8.82,1.4c.86.14,3.06.71,3.09-.16l.25-3.78c10.95,8.53,29.63,6.7,43.57,2.36Z"/>
  <path fill="#b49661" d="M393.68,238.85c-1.48,6.74-6.89,13.93-12.29,19.65l-11.12,11.78c-5.17,5.48-8.6,11.4-7.69,19.58l-1.97-2.23.04-8.86c0-.53-.37-1.55-.57-2.05-1-2.48-2.57,7.1-8.2,9.3l.09-4.29-.49-1.13c1.51-.18,3.61-2.27,4.15-3.59l2.19-5.31c3.06-7.44,11.58-10.79,17.88-15.92l6.09-4.96c5.59-4.55,8.48-11.68,11.05-18.15,0,1.55,1.19,4.62.85,6.19Z"/>
  <path fill="#bba478" d="M382.79,864.63l-1.14,3.39c-36.31-13.81-70.92-32.35-101.19-56.42.69-.45,1.13-1.33.99-1.74l-.51-1.91,32.31,22.69c22.14,13.82,45.52,25.08,69.54,33.98Z"/>
  <path fill="#ceb786" d="M483.29,302.76l2.6-1.35c.62-.26.78-2.23.86-3.11,8.23,5.87,15.15,14.45,15.82,25.24.53,8.5-.64,15.95-5.14,23.25-4.82,7.83-16.95,6.45-18.56,12.95-.91,3.66.07,7.67,1.21,11.29-5.33-3.64-6.11-12.96-.62-17.57l11.15-5.58c9.12-7.6,10.24-29.43-.64-38.85l-6.69-6.27Z"/>
  <path fill="#c8ac76" d="M470.27,776.33l-1.44,6.7,10.35-10.85.63,4.1-10.31,11-18.9,18.94-13.8,11.26-1.46-4.72,6.23-5.51,7.99-8.09c6.01-6.09,11.23-12.99,15.06-20.78l5.55-11.29c-.52,3.26-.93,6.55.08,9.24Z"/>
  <path fill="#d5bc86" d="M652.34,531.41l.12,1.15c-3.06.94-4.97,4.86-5.2,7.79-.06.82-.46,2.51-.85,3.19-.99.25-2.68.87-2.81,1.78l-.07,3.22-1.25,1.86-.6,1.28-9.29,15.87c-7.5,12.81-14.08,26.17-18.72,39.9l-5.21,1.31c4.75-15.19,11.24-29.45,19.93-43.28l8.83-14.05c1.16-1.85,2.52-3.84,3.37-5.84l.12-.92c5.77-4.17,3.73-14.63,12.13-18.95l-.5,5.69Z"/>
  <path fill="#d6c08f" d="M544.6,449.36l-1.16,1.16-.82,1.16-7.34,8.73c-4.81,5.73-9.9,11.67-13.36,18.48-7.67,15.09-14.33,31.53-13.27,48.57l.83,13.33-3.04,1.61-1.32-10.9c-.53-4.34-.36-8.47.11-13.13,2.19-21.68,11.26-42.17,25.86-58.14l10.08-11.03,3.43.14Z"/>
  <path fill="#d6c49b" d="M665.73,768.85l.18,3.36c-11.04,3.28-21.9,7.52-32.32,13.1l-14.94,7.99c9.53,3.68,19.2,7.11,23.9,15.86-8.79-7.92-18.62-13.27-30.68-14.44h-29.45c-.15-.84-.76-2.17-1.61-2.29l-4.64-.61,4.26-1.81c5.76,1.66,12.54-.71,21.79.57,7.59,1.05,14.22,1.2,20.97-2.57l12.19-6.81c9.92-5.55,19.45-10.76,30.35-12.35Z"/>
  <path fill="#c5b089" d="M467.44,256.48l3.22,1.23c-7.12,3.1-14.46,7.62-18.88,13.97,9.24-2.95,17.06-1.84,24.93,1.84,10.07.1,20.98,1.5,29.81,5.04l-3.4.19c-.52-.02-.32.92-.31,2.1l-11.23-3.17c-5.66-1.6-11.23-1.25-16.62.42-9.46,1.95-17.46,5.97-24.34,12.97l1.09.71c-1.37,2.36-5.68,3-8.08,2.1,1.98-1.09,3.82-2.58,5.33-4.78,6.34-6.16,13.93-10.6,22.22-13.61l1.36-1.17c.23-.2-1.5-1.64-1.84-1.63l-19.66.62-3.66-2.89,12.06-11c1.74-1.58,5.81-2.25,8-2.91Z"/>
  <path fill="#dec897" d="M633.25,607.03l7.64,2.01-10.43,2.66c-10.02,3.85-14.4,17.39-8.88,26.12,3.66,5.79,10.9,8.19,15.79,5.06l-3.87-1.04c-1.19-.32,1.62-7.2,6.16-6.37,1.3.24,3.41,2.29,3.63,3.59s-1.01,4.19-2.13,5.17c-5.96,5.19-14.16,3.48-20.11-1.87s-7.05-14.48-3.92-22.34c2.54-6.38,9.12-11.25,16.12-12.99ZM638.04,640.86l-.65.02.65.02h.67l.65-.02-.65-.02h-.67Z"/>
  <path fill="#c6ae81" d="M482.77,832.34c-1.53.6-3.58,3.53-3.45,5.15-11.4,3.06-24.17,4.93-36.43,6.03l-6.31-.22-19.92-.21,2.02-4.02c19.66.76,39.3-.62,58.66-6.06l5.43-.67Z"/>
  <path fill="#cdb98e" d="M518.84,603.19l-2.57,2.46-5.7-6.32-9.07-9.93c-12.3-13.47-20.33-29.49-22.18-47.81-.55-5.42-2.15-10.72,1.01-15.33.02,31.86,13.25,50.77,34.36,71.93l4.15,5Z"/>
  <path fill="#d2bd91" d="M614.64,348.39c-9.43.27-17.39-4.73-24.42-10.75-5.25-4.5-8.76-11.16-12.71-17.06-7.92-15.9-21.35-25.56-38.87-31.04,14.26.16,25.95,8.44,35.03,19.09,3.95,4.64,6.68,10.44,10.17,15.66,6.93,12.03,17.72,19.87,30.8,24.11Z"/>
  <path fill="#cab07d" d="M487.44,221.44l.06,4.56c-16.61-3.29-33.89-.41-48.04,8.72h-2.49c-.59,0-.44-2.24.02-2.58l4.1-2.98c11.1-8.07,32.6-9.96,46.35-7.72Z"/>
  <path fill="#c5b089" d="M500.65,796.07l1.92,2.73c-12.89,7.23-25.99,14.6-40.78,18.71l-25.06,6.95-1.14-1.05,9.5-3.66c19.44-6.29,39.18-12.29,55.56-23.68Z"/>
  <path fill="#ceb786" d="M520.55,820.76l-11.09,5.16c-2.36,1.1-3.93,2.56-3.92,5.25l-1.12-.17-4.06,1.25-15.5,3.9-1.37.04c-.3,0-.72-.03-.94.04l-1.99.94-1.23.33c-.13-1.62,1.92-4.55,3.45-5.15l23.01-8.97,13.56-6.08,1.22,3.48Z"/>
  <path fill="#bb9d69" d="M435.35,812.76l1.46,4.72-6.29,4.42c-1.65,1.16-3.69,2.56-5.28,4.32l-18.88,6.1,1.06-5.18c9.99-3.11,20-7.37,27.93-14.37Z"/>
  <path fill="#d2bd91" d="M485.55,232.62c3.03.13,6.74.58,9.96,2.05l14.58,6.64c6.25,2.85,11.89,5.07,18.68,7.09-14.39,1.85-29.7-11.73-44.16-12.44l-10.7-.45c3.16-2.95,7.33-2.97,11.64-2.9Z"/>
  <path fill="#d2bd91" d="M530.59,805.97c.13.31-.57,1.7-.23,1.79l2.06.93-23.68,6.75c-12.39,3.53-24.27,6.6-37.42,6.81,2.48-2.06,6.01-1.37,9.02-2.22l50.24-14.06Z"/>
  <path fill="#c5b089" d="M485.55,232.62c-4.31-.08-8.48-.05-11.64,2.9-16.18,2.43-30.67,8.94-43.53,20.36,3.42-6.37,9.22-10.52,15.12-14.14,11.97-6.48,24.35-10.31,38.1-10.02l1.94.91Z"/>
  <path fill="#c7b590" d="M480.91,483.82c-1.12-1.54-1.7-3.21-1.51-4.25l2.49-2.66c6.72-16.82,4.75-34.01-3.42-50.8,6.44,4.88,7.64,12.81,9.25,20.25,2.87,13.26-.78,26.21-6.8,37.46Z"/>
  <path fill="#d2bd91" d="M512.86,357.19l5.33-17.8c2.23-7.45-1.51-16.71-7.21-22.12l-7.4-5.52c3.11.39,7.83,1.58,9.99,3.8,11.23,11.48,10.01,28.09-.71,41.64Z"/>
  <path fill="#d6c49b" d="M544.6,449.36l-3.43-.14,7.77-9c5.91-6.85,9.1-14.62,8.96-23.41l-.12-7.44c-.05-2.89-.25-5.7.15-8.88,4.3,20.12.9,34.62-13.32,48.87Z"/>
  <path fill="#ceb786" d="M491.88,250.42l-.35,4.33c-9.23-3.8-15.95-7.84-27.89-5.66l-.52-3.39c10.69-2.37,19.2.54,28.77,4.73Z"/>
  <path fill="#dec897" d="M655.96,828.32l-1.31-7.35-6.34-2.27c2.6-.62,6.1-1.84,6.57-3.54l1.67-6.14,2.16,7.34c.47,1.58,4.33,1.66,6.83,2.57l-6.27,1.72-3.31,7.67Z"/>
  <path fill="#d8c393" d="M535.38,809.18l2.08.15-.21,3.2-16.7,8.23-1.22-3.48,12.01-6.23c1.41-.73,2.94-1.89,4.03-1.88Z"/>
  <path fill="#d2bd91" d="M642.72,444.41l-2.25,1.32-3.23-2.96c-6.08-5.59-11.68-10.33-19.24-13.98-1.27-.61-3.43-2.28-4.68-3.36,12.06,3.33,22.12,10.01,29.4,18.98Z"/>
  <path fill="#c7b590" d="M489.83,418.83l.88-2.43c3.81,6.61,4.75,14.79,5.01,22.97,1.02,3.34,1.54,7.02-.79,9.37l-.94-7.45-3.1-18c-.29-1.66-1.25-3.39-1.06-4.46Z"/>
  <path fill="#d8c393" d="M521.52,776.34l-1.43-5.86-5.58-2.27,4.84-1.42,2.65-6.61,1.56,5.63c.33,1.19,2.96,1.51,5.44,1.66l.04,1.71c-2.08.05-4.68.02-5.09,1.05l-2.44,6.11Z"/>
  <path fill="#ae9973" d="M346.11,270.59c-1.15,1.82-3.08,5.97-3.17,8.23l-.51,13.91-1.06-.61-1.05-12.69-.89-5.6,1.97-4.27c.49-1.05,3.69.13,4.71,1.03Z"/>
  <path fill="#d5bc86" d="M510.38,543.5c-.21-.15-1.12,1.02-.87,1.43l.96,1.57,1.68,6.03-2.15,7.15c-1.41-1.62-3.21-4.44-3.44-6.04.41-1.14.92-3.54.75-4.8l-.86-6.41,3.04-1.61.9,2.68Z"/>
  <path fill="#d6c49b" d="M575.7,261.75c4.68,1.49,16.82,12.6,17.56,19.48-5.14-6.51-10.04-12.27-17.02-16.22l-4.51-2.72c.9-.21,3.13-.81,3.97-.54Z"/>
  <path fill="#c7b590" d="M500.86,383.35l-4.44,2.47-8.2-6.32,9.22,4.31-4.61-9.71c-1.25-2.63-1.5-6.93-1-9.46,2.18,7.08,4.61,13.54,9.02,18.72Z"/>
  <path fill="#d6c49b" d="M551.47,282.56l-1.43,1.51c-6.71-4.55-14.87-6.36-23.34-9.52,9.33-.99,17.5,3.83,24.77,8.01Z"/>
  <path fill="#cdb98e" d="M461.57,315.86l3.96-1.11,4.99-1.26c5.64,1.8,11.64,5.6,11.52,12.91-4.44-8.45-11.77-12.19-20.47-10.53Z"/>
  <path fill="#bba478" d="M393.68,238.85c.34-1.56-.85-4.63-.85-6.19l-.02-13.99c3.33,3.8,2.71,14.01.87,20.18Z"/>
  <path fill="#d2bd91" d="M470.66,257.71l-3.22-1.23c6.27-1.9,12.82-1.66,19.23,1.03l-10.09-.16-5.92.36Z"/>
  <path fill="#ae9973" d="M366.87,253.05l-1.05-2.39c3.63-2.19,4.89-7.11,6.32-12.06,2.03,5.72-.89,11.14-5.27,14.45Z"/>
  <path fill="#d6c49b" d="M416.66,843.09l19.92.21c.56.15-1.74.88-2.46.88h-20.45c-1.1.01-3.82-1.35-4.08-1.98l1.05.05,6.01.84Z"/>
  <path fill="#d6c49b" d="M430.52,821.89l5.07,1.51,1.14,1.05-11.5,1.77c1.59-1.76,3.63-3.16,5.28-4.32Z"/>
  <path fill="#bba478" d="M396.5,840.47l-11.86-3.39c4.12.33,8.56.95,11.86,3.39Z"/>
  <path fill="#ceb786" d="M647.27,540.36c.23-2.93,2.13-6.85,5.2-7.79l-5.2,7.79Z"/>
  <path fill="#d2bd91" d="M551.17,319l-6.99-5.07c3.52.08,5.88,1.89,6.99,5.07Z"/>
  <path fill="#a68857" d="M351.48,280.6l6.34-8.9-2.19,5.31c-.54,1.32-2.65,3.41-4.15,3.59Z"/>
  <path fill="#d6c49b" d="M560.51,259.48l-7.98-.63c2.42-.31,5.69.05,7.98.63Z"/>
  <path fill="#bba478" d="M404.66,842.04l-6.97-2.05c2.44.09,5.56.63,6.97,2.05Z"/>
  <path fill="#ceb786" d="M643.54,548.55l.07-3.22c.13-.9,1.82-1.53,2.81-1.78l-2.88,5Z"/>
  <path fill="#bba478" d="M395.64,835.2l-.04,1.32-.63.65c-.24.25-1.43-.24-1.43-.59s.25-1.24.6-1.27l1.5-.11Z"/>
  <path fill="#d8c393" d="M504.42,830.99l-4.06,1.25,4.06-1.25Z"/>
  <path fill="#b49661" d="M390.63,721.25l-3.94-.98,3.94.98Z"/>
  <path fill="#a78d60" d="M316.6,520.63l-2.81-2.23,2.81,2.23Z"/>
  <path fill="#c5b089" d="M442.54,671.34l-.86-3.08.86,3.08Z"/>
  <path fill="#d5bc86" d="M502.56,553.44l-.99-2.97c.4.72.89,2.11.99,2.97Z"/>
  <path fill="#bba478" d="M279.83,810.14l-2.53-1.08c.77-.41,1.07-.65,1.3-.38l1.23,1.45Z"/>
  <path fill="#c1ad85" d="M318.23,513.05l.48,2.43-.98.11c0-.61.68-3.24.5-2.55Z"/>
  <path fill="#d6c08f" d="M510.47,546.5l-.96-1.57c-.25-.41.66-1.58.87-1.43l.09,3Z"/>
  <path fill="#d5bc86" d="M481.45,585.49l-2-3.04,1.99,1.4c.44.31.87,1.63,0,1.64Z"/>
  <path fill="#c5b089" d="M440.62,673.3l-1.26-2.96c.55.68,1.26,2.14,1.26,2.96Z"/>
  <path fill="#bb9d69" d="M402.62,833.19l-2.98,1.13,2.98-1.13Z"/>
  <path fill="#bba478" d="M408.57,838.11c.13.46-1.05,1.38-1.45,1.11l-1.53-1.05,2.98-.06Z"/>
  <path fill="#d2bd91" d="M455.59,299.8l-2.03.86,2.03-.86Z"/>
  <path fill="#cdb98e" d="M460.52,315.59l-1.94,1.17,1.94-1.17Z"/>
  <path fill="#ceb786" d="M637.22,551.44l3.37-5.84c-.85,2-2.21,3.99-3.37,5.84Z"/>
  <path fill="#bb9d69" d="M405.51,831.92l-1.92,1.19,1.92-1.19Z"/>
  <path fill="#c5b089" d="M721.42,660.6l.6-2.5-.12,1.54c-.03.35-.17.64-.48.96Z"/>
  <path fill="#b49661" d="M345.63,829.25l-2.32-.9,2.32.9Z"/>
  <path fill="#c5b089" d="M511.51,280.67l-2.01-.92,2.01.92Z"/>
  <path fill="#ae9973" d="M305.59,481.72l-5.88-3.19,5.88,3.19Z"/>
  <path fill="#d5bc86" d="M506.52,552.43l-1.16-1.24c-.32-.45-.57-1.89.11-1.72l1.05,2.96Z"/>
  <path fill="#b49661" d="M342.66,725.21l-2.21-.7,2.21.7Z"/>
  <path fill="#d2bd91" d="M514.47,901.17c0-.56.55-1.7.92-2.16l-.92,2.16Z"/>
  <path fill="#c6ae81" d="M482.54,836.22l-1.99.94,1.99-.94Z"/>
  <path fill="#dec691" d="M643.38,753.25l1.15-.8-1.15.8Z"/>
  <path fill="#d5bc86" d="M503.26,555.65l-.59-1.25.59,1.25Z"/>
  <path fill="#c7b590" d="M437.57,552.71l1.07-1.19-1.07,1.19Z"/>
  <path fill="#ceb786" d="M641.69,551.68l.6-1.28-.6,1.28Z"/>
  <path fill="#d5bc86" d="M692.27,723.26c-.03-.22,1.05-.79,1.4-.87l-1.4.87Z"/>
  <path fill="#d6c49b" d="M542.62,451.69l.82-1.16-.82,1.16Z"/>
  <path fill="#dec691" d="M595.27,775.26l1.27-.92-1.27.92Z"/>
  <path fill="#cab07d" d="M489.66,226.67h-1.14s1.14,0,1.14,0Z"/>
  <path fill="#c6ae81" d="M432.62,498.61l1.99-2.11-1.99,2.11Z"/>
  <path fill="#c1ad85" d="M446.63,214.12l1.94-2.39c-.34.64-1.35,1.91-1.94,2.39Z"/>
  <path fill="#c1ad85" d="M334.63,162.79l1.35.2-1.35-.2Z"/>
  <path fill="#cab07d" d="M702.41,704.46l.9-1.16-.9,1.16Z"/>
  <path fill="#a08250" d="M350.65,827.29l1.04.03-1.04-.03Z"/>
  <path fill="#cab07d" d="M705.32,702.32l1.06-.94-1.06.94Z"/>
  <path fill="#d5bc86" d="M500.48,548.48l-.73-1.12.73,1.12Z"/>
  <path fill="#d5bc86" d="M499.29,545.53l-.72-1.04.72,1.04Z"/>
  <path fill="#c6ae81" d="M484.85,836.14l-1.37.04,1.37-.04Z"/>
  <path fill="#a78d60" d="M346.98,317.1l1.34-2.52-1.34,2.52Z"/>
  <path fill="#c6ae81" d="M413.57,514.51l2.2-1.76-2.2,1.76Z"/>
  <path fill="#a78d60" d="M312.68,518.43l-1.05-1.09,1.05,1.09Z"/>
  <path fill="#c5b089" d="M717.94,653.53l-.42-6.24c.44,1.84.67,4.72.42,6.24Z"/>
  <path fill="#bfa980" d="M780.27,615.35l3.95-3.94-3.95,3.94Z"/>
  <path fill="#c5b089" d="M715.95,653.32s-.28-.87-.61-1.49l.61,1.49Z"/>
  <path fill="#d4bd8e" d="M491.5,699.38l.88-3.15-.88,3.15Z"/>
  <path fill="#d2bd91" d="M537.46,809.32l-2.08-.15.07-1.13c-.04-.06,1.52-1.36,1.63-.88.13.57.43,1.67.38,2.16Z"/>
  <path fill="#dec897" d="M607.72,541.63l-3.08.84,3.08-.84Z"/>
  <path fill="#bb9d69" d="M496.48,116.84l-4.91.2,4.91-.2Z"/>
  <polygon fill="#c7b590" points="486.19 410.08 486.86 410.08 487.51 410.1 486.86 410.12 486.19 410.12 485.54 410.1 486.19 410.08"/>
  <path fill="#c7b590" d="M713.35,233.9l-4.03,1.05,4.03-1.05Z"/>
  <path fill="#c7b590" d="M733.21,234.8l-3.89-1.07,3.89,1.07Z"/>
  <path fill="#c7b590" d="M738.31,235.66l-3.93-.97c1.04-.1,2.93.56,3.93.97Z"/>
  <path fill="#c1ad85" d="M332.93,508.15c1.06.1.67.06-.43-.04-2.33-.22-2.16-.2.43.04Z"/>
</svg>
