<svg xmlns="http://www.w3.org/2000/svg" viewBox="0 0 1024 1024">
  <path fill="#bfa980" d="M758.52,626.49c-1.67.41-3.15,1.26-4.96,2.48l-1.66-1.66,3.37-18.72c2.95-16.39-18.54-20.52-22.06-48.97-1.2-9.68-4.13-17.22-9.36-27.28l21.12,14.33c13.05,8.85,18.68,26.32,16.49,41.75l-4.88,34.41c7.52-13.24,12.14-26.55,15.68-40.23,2.39-9.22.45-16.61-3.37-24.57-7.83-16.28-5.89-32.07,4.03-46.76l15.1-22.34-2,17.61c-.84,7.43,5.61,21.57,2.58,38.32-1.46,8.08-6.46,14.96-9.86,21.99-3.62,21.25-8.62,42.24-20.23,59.65ZM770.45,534.57l4.66,5c-.25-11.61,2.44-21.89,5.12-33.44-15.05,18.8-17.14,34.13-6.14,56.38,3.56-10.47-.37-19.15-3.64-27.94ZM786.67,536.54l-.58-9.94-3.11-17.35c-.98,1.19-2.04,3.18-2.3,4.54l-2.11,10.85-.06,37.18c5.31-8.03,8.67-16.52,8.15-25.28ZM745.41,564.89l-10.24-17.88c-.42-.47,2.49.57,2.85,1.12l10.06,15.31c5.32,8.1,6.15,17.06,9.22,27.21,2.25-4.17,2.05-8.87,1.52-13.49-1.82-15.71-9.53-24.29-21.63-33.28-.71-.53-3.44-.72-3.83-.04-.29.5-.65,2-.48,2.7l3.64,15.62c2.4,11.03,7.29,19.97,15.14,28.21.39.09,2.7-.74,2.53-1.48l-.67-2.83c-.94-3.96-2.29-9.63-5.02-12.63l-8.88-9.74,5.21,1.68.61-.5ZM745.82,565.64l-.06,1.5.06-1.5Z"/>
  <path fill="#bfa980" d="M779.49,622.69l-.61-2.71,10.59-4.56c16.99-6.74,22.17-19.31,30.11-36.01-3.17,1.49-4.89,3.16-7.13,5.25l-9.3,8.68-15.81,14.27-1.12-2.02,6.17-7.66c2.56-4.89,3.07-8.63,7.49-13.25l-2.26,9.48,21.2-17.75c-11.51.88-21.48,6.03-29.21,13.33l-5.34,5.04c-4.22,4.56-6.68,11.73-8.28,17.46l-.81,3.21-3.45,3.68c-.71.76-2.54,2.07-3.48,2.34l6.02-14.14c2.47-9.64,8.25-16.73,16.03-23.09,14.87-23.33,22.76-50.69,21.8-78.34l-2.86-20.56c-3.12-22.49-15.02-39.93-28.82-57.09,24.19,19.59,34.96,50.34,35.24,79.95l.08,8.73c-2.03,25.55-8.29,42-20.46,63.85l22-7.56,13.17-5.17c-5.02,7-8.05,13-11.86,19.92l-9.16,16.65c-7.24,9.89-18.98,15.03-29.96,18.05Z"/>
  <path fill="#cab07d" d="M786.22,605.6l1.12,2.02-3.12,3.79-3.95,3.94-2.12,2.96-2.01.63c-.51.16.96,1.83,1.41,1.54l1.03-.66.31.16.61,2.71c-16.43,4.52-34.99,30.75-47.39,46.43l-12.82,16.22c-.82,1.03-1.96,3.08-2.51,4.32l20.31-12.63,1.44,2.81c1.02,1.73,3.98-2.39,4.3-1.1l.37,1.5-2.08,3.32,16.15.82c.25.22-.49,1.93-1.04,1.94l-5.05.04-16.73.36c-6.69.14-13.77,4.26-18.83,7.94l-4.51-.8,2.56-5.08-7.07,4.1.58-2.61c5.14-8.19,7.21-16.54,9.16-26.39-.82-5.5-3.39-10.46-6.16-15.43l2.02-2.37,3.14,5.75c.34.62.61,1.49.61,1.49,0-.03.82.08,1.99.21.25-1.52.02-4.4-.42-6.24l-2.25-9.34c.05-1.05.74-2.7,1.3-2.48l1.67.74,2.08,4.3-.19,10.93c-.03,1.72.78,4.35,1.58,5.9l.3.74-.6,2.5-6.83,23.25c4.28-3.43,6.82-6.28,9.4-9.83l13.05-18c6.38-8.79,11.42-18.72,14.84-28.72l1.66,1.66c1.82-1.21,3.29-2.07,4.96-2.48l-4.26,9.67c5.04-4.37,11.42-8.62,14-14.68.94-.27,2.77-1.58,3.48-2.34l3.45-3.68s1.16.26,1.29.05l1.93-3.06c.56-.9,2-2.23,2.96-2.95,1.03-.77,2.07-2.35,3-4.01-.28.22.5.34.82.4.2.04.91-.47,1.04-.29Z"/>
  <path fill="#bfa980" d="M790.28,769.73l-2.46-1.84c22.14-24.2,41.39-50.21,57.21-79.8,17.17-32.11,30.22-66.01,37.84-101.64l5.39-30.08c.12-.68.85-1.82,1.32-2.21s1.84,1.75,1.72,2.45l-4.11,25.9c-2.6,16.37-6.72,31.74-12.67,47.09l-10.37,26.74c-9.91,25.58-23.97,48.72-39.62,71.19l-7.83,11.25-16.67,20.31-9.76,10.63Z"/>
  <path fill="#b49661" d="M690.42,242.15c-16.49,10.13-28.34,27.57-29.98,47.36-1.07,12.93.77,25.14,7.04,36.09l7.99,11.73c-.26.92-.44,2.77-1.17,2.89l-3.47.75c-14.07-15.37-20.09-36.47-16.25-56.95s17.11-37.96,35.8-47.17l.05,5.29Z"/>
  <path fill="#c1ad85" d="M751.18,686.35l5.05-.04c.55,0,1.3-1.72,1.04-1.94l16.35-.57c8.67-.3,14.72-6.18,21.71-10.08l10.97-6.12-10.78-2.54c-5.14-2.62-9.91-3.93-15.31-4.14l-10.02.44c-5.36,1.03-14.99,6.99-17.95,12.82,5.31-.62,9.34-3.45,13.87-6.55l-1.73,5.68-4.1,1.19c-.67.2-1.84.76-2.33,1.04l-14.74,4.7-.37-1.5c-.32-1.3-3.28,2.82-4.3,1.1l-1.44-2.81,4.23-3.61c5.11-4.37,9.58-7.84,15.99-10.22,3.23-1.2,7.56-4.54,11.01-4.54l17.88.02,19.14,5.2,13.51,2.54c-9.41,3.56-16.86,6.4-24.71,11.9-9.13,6.38-20.36,10.76-31.75,9.73l-9.04-.82c-.58-.05-2.43-.51-2.15-.85Z"/>
  <path fill="#c5b089" d="M721.73,657.36c-.8-1.55-1.61-4.18-1.58-5.9,2.61-.42,4.9-8.94,4.66-12.13l-.85-11.8c-1.88-9.04-7.1-17.34-13.64-23.79,3.54,11.6,6.43,21.72,7.93,32.49l-1.67-.74c-.56-.22-1.25,1.42-1.3,2.48l-6.39-12.69,5.77,5.38c-1.6-10.21-4.34-18.54-7.89-27.52l-1.33,14.13c-1,10.66.61,20.36,6.75,28.82l-2.02,2.37c-2.94-5.28-7.6-11.48-7.57-18.08l.07-19.85c.02-4.63.45-8.82.04-13.31l-1-10.76,15.85,20.75c12.14,15.89,13.4,33.2,4.16,50.15Z"/>
  <path fill="#d5bc86" d="M715.62,694.65l-9.24,6.73-1.06.94-2.01.99-.9,1.16-11.46,11.41-8.68,8.38c3.64-.83,5.29-1.32,7.15-2.12l1.95,1.19c-11.75,5.14-22.41,12.12-33.24,19.66l-13.61,9.47-1.15.8-.85.31-1.25-3.81,21.86-15.68,13.26-10.78,25.06-24.84c1.66-1.65,3.52-4.64,5.14-5.58l7.07-4.1-2.56,5.08,4.51.8Z"/>
  <path fill="#ceb786" d="M682.35,810.81l-5.25-3.75c.54-.4,2.85-1.29,3.42-.93l10.19,6.42c7.58,4.78,16.79,2.77,22.3-3.1s7.13-14.5,2.85-21.96c-5.53-9.65-15.91-15.81-26.93-15.86l-14.39-.07-8.66.66-.18-3.36,5.59-.82c18.22-2.66,39.53,1.75,47.9,18.19,4.18,8.21,2.7,18-3.25,24.84-5.27,6.07-14.22,9.72-23.12,6.25-3.58-1.4-7.47-4.41-10.5-6.52Z"/>
  <path fill="#ceb786" d="M790.28,769.73c-28.77,31.34-65.09,58.78-102.94,78.85l-.14-3.81,12.53-7.25c26.85-15.53,51.54-33.44,73.46-55.15l14.62-14.48,2.46,1.84Z"/>
  <path fill="#c5b089" d="M693.67,722.39c-.35.08-1.43.65-1.4.87-.23.15-.68.16-.9.06l-1.95-1.19,7.59-3.3c18.74-8.15,43.85-5.72,47.51,12.38,1.21,5.98-.1,12.02-4.57,15.44s-10.92,4.1-15.33.48c-2.37-1.95-3.03-5.33-.77-7.25,1.24-1.05,3.34-1.83,4.32-1.29.82.45,2.63,2.37,2.15,3.18l-2.38,3.99c5.75,2.24,11.73-.96,13.75-7.27,2.47-7.74-2.92-15.31-10.47-18.16l-5.06-1.91-15.9.19-16.58,3.79Z"/>
  <path fill="#c7b590" d="M762.34,346.88l-1.18-3.25c26.51-22.37,29.61-62.36,7.85-87.48-6.59-7.6-14.2-13.75-22.9-17.31.56-.21,2.14-.04,2.05-.54l-.12-1.89c20.35,9.65,34.4,28.99,37.3,51.33s-5.77,44.62-22.99,59.14Z"/>
  <path fill="#c8ac76" d="M762.34,346.88c-18.34,15.46-43.6,19.8-66.04,11.33l2.04-.56,2.1-.66c.61-.19.13-1.93.02-2.72,11.37,4.1,24.15,4.65,36.66,2,9.04-1.91,17.24-6.9,24.05-12.64l1.18,3.25Z"/>
  <path fill="#c6ae81" d="M748.03,236.42l.12,1.89c.1.5-1.49.33-2.05.54l-7.8-3.19c-1.01-.41-2.89-1.07-3.93-.97l-1.17.11-3.89-1.07h-1.12s-6.91-1-6.91-1l-6.72,1.08-1.23.08-4.03,1.05c-6.35,1.66-13.23,3.72-18.9,7.2l-.05-5.29c18.15-8.95,39.39-9.11,57.66-.44Z"/>
  <path fill="#bb9d69" d="M700.45,354.27c.11.79.59,2.53-.02,2.72l-2.1.66-2.04.56c-9.73-3.67-18.46-9.57-25.48-17.24l3.47-.75c.73-.12.91-1.97,1.17-2.89,6.88,7.7,15.37,13.47,24.99,16.93Z"/>
  <path fill="#d6c49b" d="M682.35,810.81c-.72,1.47-2.43,3.57-3.74,4.16s-4.63-1.94-4.46-3.37c.19-1.53,1.79-3.69,2.95-4.54l5.25,3.75Z"/>
  <path fill="#dec897" d="M664.77,579.18c-.45-2.84-2.03-4.59-5.39-6.24l3.27-.8c.93-.23,1.6-2.23,2.21-3.69l2.04,5.29-2.12,5.44Z"/>
  <path fill="#bfa980" d="M784.37,605.49c-.93,1.67-1.97,3.25-3,4.01.37-3.44.93-6.8,4.03-10.42l-1.04,6.4Z"/>
  <path fill="#bfa980" d="M778.15,618.31l.42,1.51-1.03.66c-.45.29-1.92-1.38-1.41-1.54l2.01-.63Z"/>
  <path fill="#d2bd91" d="M780.22,660.92l-13.15,8.7,1.95,1.31,5.17,2.43-9.81-.04,1.73-5.68,8.97-6.12c-.46-.09-3.65-.39-4.89-.16l10.02-.44Z"/>
  <path fill="#d6c49b" d="M760.28,674.5c3.18,2.59,8,1.06,11.78,5.93l-9.55-2.44-4.56-2.45c.5-.28,1.66-.84,2.33-1.04Z"/>
  <polygon fill="#c7b590" points="728.2 233.73 714.58 233.81 721.3 232.73 728.2 233.73"/>
  <path fill="#d2bd91" d="M775.25,673.28l2.82-.18.2-3.92c5.52-.96,11.33-1.86,17.92.44l-15.87,1.28c.28,1.53,2.08,2.79,4.55,3.51,1.69-.36,1.28,2.35-.01,2.07l-9.61-3.21Z"/>
</svg>
