<svg xmlns="http://www.w3.org/2000/svg" viewBox="0 0 1024 1024">
  <polygon fill="currentColor" points="778.41 612.45 776.48 615.51 775.99 612.25 778.41 612.45"/>
  <path fill="currentColor" d="M237.05,241.82l-12.94,14.34c-10.24,11.35-18.52,23.91-27.16,36.61-8.41,12.38-15.08,24.89-22,38.07-8.11,15.44-14.75,31-20.22,47.69-7.89,24.08-14.36,47.72-16.98,72.94-.11,1.05-.8,2.58-1.35,3.13-.41.41-2.14-.52-2.22-1.1-.93-6.86,4.92-32.87,8-45.59,7.55-31.24,19.12-60.11,34.57-88.25,7.48-13.61,15.05-26.33,24.22-38.75,7.15-9.7,13.92-19.15,21.94-28.03l11.29-12.51,2.85,1.43Z"/>
  <path fill="currentColor" d="M833.83,301.77l3.68-1.04,7.59,13.17c21.65,37.58,34.51,75.13,43.15,117.54l2.4,17.69.43,3.8c.09.84-1.92,1.52-3.01,1.54-5.5-42.39-18.02-82.65-36.67-120.98l-17.57-31.71Z"/>
  <path fill="currentColor" d="M767.65,217.62l-2.5,1.3c-22.79-20.45-47-37.28-73.62-52.27-30.39-17.11-62.32-26.06-96.23-37.18,45.11,6.45,86.85,26.74,124.58,50.5,12.76,8.04,23.59,16.79,35.27,25.93l7.14,6.67,5.35,5.04Z"/>
  <polygon fill="currentColor" points="917.74 511.25 914.2 532.64 910.72 512.04 903.33 515.6 906.8 508.86 896.84 506.91 886.13 504.72 907.27 500.93 902.88 493.56 910.88 497.89 914.62 478.15 917.37 497.99 924.2 494.27 921.62 501.24 937.52 504.99 921.72 508.27 924.32 515.5 917.74 511.25"/>
  <path fill="currentColor" d="M528.06,134.06l-1.63-10.26c-.29.06-3.08,2.19-4.14,3.51l1.01-2.82c5.78-12.01,12.17-23.31,9.93-36.34l-3.53-6.24c-1.64-2.9-1.59-6.29,1-9.41,21.15,11.02,11.9,36.74.53,57.08l-3.16,4.47Z"/>
  <path fill="currentColor" d="M521.46,878.92l1.36,2.53-2.34,2.73c-.39.46-1.19,1.61-.67,1.93.39.24,1.39.73,1.83.8l7.38,1.2.55,2.53c.09.38-1.7.26-2.14.33l-3.59,1.37c-.25.04-1.23-.26-1.4-.3l-2.5.96c-.37.14-.05.62.37,1.09l.37,1.17-3.1,1.85c-.67.33-1.7,1.31-2.17,1.89-.37.45-.92,1.6-.92,2.16l.02,5.68-3.64,1.19-1.43-10.97-11.43,7.67,7.66-11.33-18.72-3.77,18.97-3.27-7.9-11.35,11.24,7.81,1.36-10.76c.5-3.97,1.02-7.95,2.3-12.03l2.74,20.08c.11.79,1.89,2.36,2.42,1.88l3.4-3.07Z"/>
  <path fill="currentColor" d="M112.73,521.51c-.32,2.32-1.11,4.37-2.62,6.41l-2.66-15.2-5.49.57.66-5.06-13.75-3.03c4.11-2.48,7.86-2.58,13.3-2.91l.84-5.82,4.25.84,3.39-18.78c4.35,8.83-.54,13.35,5.26,19.89,6.28,7.07,13.82,2.68,14.64,4.62l1.24,2.93-12.5,2.04-.58,5.58-4.7-1.41-1.28,9.33Z"/>
  <path fill="currentColor" d="M502.32,90.11c-.06,4.81.32,10.95,2.42,15.62l-2.66,5.53c-1.23,2.43-2.25,4.73-3.76,6.08l-1.85-.5-4.91.2c-.8.03-2.23.65-3.05.95-2.02-.64-4.25-1.9-3.86-3.32.58-2.15,1.95-3.62,3.24-4.12l2.56-1.63c1.64-.07,4.33-.65,5.06-1.52-5.43-12.85-4.23-26.39,5.98-33.53,5.35,6.1-1.73,12.03.83,16.25Z"/>
  <path fill="currentColor" d="M335.63,165.76l-24,14.05c-12.22,7.15-23.4,15.47-34.22,24.63l-15.14,12.82-18.9,18.06-6.31,6.5-2.85-1.43c5.07-5.61,10.81-10.93,16.65-16.48l11.83-11.24c22.31-19.38,46.28-36.05,71.94-49.88l1.35.2c.02-.07.8-1.33,1.08-1.46l-1.43,4.23Z"/>
  <path fill="currentColor" d="M837.51,300.73l-3.68,1.04-14.73-22.06c-15.2-22.77-33.59-42.51-53.94-60.78l2.5-1.3,6.81,5.08c24.6,23.11,45.14,49.56,63.05,78.02Z"/>
  <path fill="currentColor" d="M487.43,145.15c1.13-.36,2.11-.58,2.71-1.01s.75-3.19,1.41-3.56c1.55-.87,5.39-2.08,6.63-3.38,2.19-2.29,5.29-6.25,5.33-9.07.06-4.16-2.31-8.8-5.18-10.79,1.51-1.35,2.53-3.65,3.76-6.08l2.66-5.53,4.99,11.09c3.63,8.08,3.95,16.73-2.71,23.89-4.83,5.19-13.13,6.24-19.59,4.43Z"/>
  <path fill="currentColor" d="M490.45,108.91l-2.56,1.63c-1.29.5-2.66,1.97-3.24,4.12-.39,1.43,1.85,2.68,3.86,3.32-2.34,2.47-5.21,6.13-4.87,9.32.39,3.64,2.88,9.32,6.67,9.54l7.86.34c-1.25,1.3-5.09,2.51-6.63,3.38-.66.37-.81,3.13-1.41,3.56s-1.58.65-2.71,1.01c-8.57-2.4-13.74-10.61-13.02-19.82.61-7.91,7.6-16.07,16.04-16.42Z"/>
  <path fill="currentColor" d="M528.06,134.06c.88,5.5-6.02,15.74,2.39,21.76v6.2s-6.25.23-6.25.23c-12.33-7.69-8.04-27.27-1.91-34.93,1.06-1.32,3.85-3.45,4.14-3.51l1.63,10.26Z"/>
  <path fill="currentColor" d="M381.65,868.02l1.14-3.39c20.55,7.61,41.84,12.97,63.71,17.57,3.3.69,6.23-.47,8.75,3.7-3.67.23-7.26.3-10.88-.47-21.55-4.58-42.6-9.75-62.72-17.4Z"/>
  <path fill="currentColor" d="M417.61,133.96c-22.17,5.54-43.53,13.43-64.78,23l-17.2,8.79,1.43-4.23,19.82-9.49c20.07-9.61,40.67-15.84,61.78-21.03l-1.05,2.94Z"/>
  <path fill="currentColor" d="M524.2,162.25l6.26-.23v-6.2c4.72.84,9.17-.59,11-6l9.33.25c-.9,7.72-5.61,11.17-10.42,13.42-5.81,2.71-11.56,1.63-16.18-1.25Z"/>
  <polygon fill="currentColor" points="513.58 610.36 509.23 612.45 496.52 600.44 484.33 588.63 486.37 584.45 497.57 595.35 506.47 603.43 513.58 610.36"/>
  <polygon fill="currentColor" points="506.55 750.58 492.52 764.28 479.82 776.28 479.18 772.18 485.09 765.83 496.64 754.34 502.14 749.27 506.55 750.58"/>
  <path fill="currentColor" d="M517.49,68.78c-1.14.84-2.54,4.05-2.19,5.51.3,1.26,1.93,2.69,3.26,3.41-8.08-.64-15.42,3.82-16.23,12.41-2.56-4.22,4.52-10.15-.83-16.25,4.68-3.28,10.36-4.92,16-5.08Z"/>
  <path fill="currentColor" d="M530.69,72.51c-2.59,3.12-2.64,6.51-1,9.41-3.53-2.4-7.1-3.9-11.13-4.22-1.33-.71-2.96-2.15-3.26-3.41-.35-1.47,1.05-4.68,2.19-5.51,4.64-.14,10.24.91,13.2,3.73Z"/>
  <polygon fill="currentColor" points="308.93 222.78 302.54 219.45 308.03 215.16 313.61 219.5 308.93 222.78"/>
  <path fill="currentColor" d="M510.85,908.03l3.64-1.19c.02,4.87-.65,9.72-2.46,14.51l-1.18-13.32Z"/>
  <polygon fill="currentColor" points="418.68 839.07 416.66 843.09 410.65 842.25 410.71 838.05 418.68 839.07"/>
  <path fill="currentColor" d="M517.55,897.13l3.1-1.85c2.55,2.72,4.76,5.11,7.23,9.33l-10.34-7.48Z"/>
  <path fill="currentColor" d="M417.61,133.96l1.05-2.94,8.33-2.05s.44,1.72.6,2.34c.15.58-1.75.92-2.33,1.05l-7.66,1.6Z"/>
  <path fill="currentColor" d="M523.82,892.35l3.59-1.37c.45-.08,2.23.05,2.14-.33l-.55-2.53c2.84.46,6.56-1.24,9.68,1.71l-14.87,2.52Z"/>
  <path fill="currentColor" d="M522.82,881.46l-1.36-2.53c1.47-1.32,3.38-2.7,6.19-4l-4.82,6.53Z"/>
  <polygon fill="currentColor" points="356.73 360.87 351.68 361.92 349.55 359.5 356.73 360.87"/>
  <path fill="currentColor" d="M521.64,886.92c-.45-.07-1.45-.57-1.83-.8-.52-.32.28-1.47.67-1.93l1.16,2.73Z"/>
  <path fill="currentColor" d="M522.42,892.05l-2.13,2.05c-.42-.47-.74-.95-.37-1.09l2.5-.96Z"/>
  <polygon fill="currentColor" points="555.39 283.86 555.49 282.69 557.43 284.22 557.96 284.7 558.46 285.21 559.2 285.94 558.69 286.49 557.97 285.71 557.47 285.17 556.97 284.68 555.39 283.86"/>
  <polygon fill="currentColor" points="778.27 669.18 778.07 673.1 775.25 673.28 774.2 673.35 769.02 670.92 778.27 669.18"/>
</svg>
