<svg xmlns="http://www.w3.org/2000/svg" viewBox="0 0 1024 1024">
  <path fill="#a18559" d="M336.92,576.8c-6.45,3.12-11.64,8.62-17.08,13.74-6.48,6.1-11.04,13.1-13.47,21.73l-3.32,11.79,14.95-16.44c11.22-9.42,23.82-17.23,36.67-23.33l-.9,4.01-11.07,8.06c.35-.38-.73-2.09-1.21-1.74l-1.86,1.34-1.01.41-2.95,1c-.49.17-1.8.1-2.04.57l-1.02,2.5c-8.98,5.54-16.98,13.98-20.29,24.57l-6.68,21.36-1.49,10.1c-.8-.71-2.21-4.49-1.86-6.06l5.32-23.94c-11.45,17.24-12.61,38.91-4.75,58.61,2.59,6.48,6.38,11.87,10.77,17.28l1.52,1.87c.2.25,1.08-.98,1.3-1.28-3.53-7.33-7.87-15.1-8.54-23.74l-.83-10.7.47-10.28c.18-3.98,1.24-7.81,2.28-11.65,4.04-14.87,10.74-28.11,20.51-39.49.82.35.7,3,.31,3.67l-8.26,14.2c-6.44,11.07-9.5,22.56-11.16,35.12-1.98,15,2.13,29.91,9.36,43.21,8.07,14.86,24.03,21.71,40.15,19.26.22.77-3.09,2.29-4.41,2.31l-12.66.25-1.03.07-2.21-.7c-27.03-9.93-43.01-30.25-46.37-59.32-1.47,2.38-1.25,5.26-1.42,8.15-.81,14.22,1.91,27.69,10.11,39.02l-2.3.11c-5.31-6.35-8.79-14.4-10.14-23.05-1.04-6.69-2.72-12.72-.9-19.6.28-1.08-.6-3.21-1.87-3.51-6.56,6.05-15.22,12.07-24.71,10.81l-7.12-.94.98-2.75c21.07,4.09,37.57-19.81,41.54-38.65l3.12-14.78c2.77-13.12,8.3-24.33,17.73-33.11l8.97-8.34c-9.08-.39-14.96,5.24-21.97,9.26-12.49,7.17-20.94,19.51-21.41,34.75-.09,2.82,2.55,5.96.73,9.62-6.99-11.22-4.04-25.24,4.36-35.99,11.05-12.24,26.17-19.83,41.98-23.42-.04.88.45,2.56,1.32,2.8l3.84,1.23Z"/>
  <path fill="#a18559" d="M287.68,427.77l2.26,2.16c-2.87,1.6-6.32,1.19-9.8-.95-5.51-3.39-8.54,2.16-17.5,2,.1,3.34,3.31,7.33,6.47,9.31l5.99,10.36c1.57-2.73,3.68-7.45,6.32-9.14l10.82-6.94,2.58,1.21c-7.03,7.58-20.89,11.04-14.75,23.5,3.07,6.22,8.73,10.01,14.88,13.1l10.01,5.02,3.6,1.8-1.87,2.52h-1.09s-5.88-3.2-5.88-3.2c-6.28-2.69-11.96-5.66-18.36-10.4-3.11,7.16,4.56,7.21,7.26,12.46.05,7.64,1.14,15.8,4.33,22.95l2.35-3.14,4.12,5.86-4.26-.76c-1.03-.18-1.55,3.28-1.62,4.2-3.56-3.42-7.02-8.08-7.29-13.84l-.62-13.26c-11.06-8.45-15.98-24.42-19.65-38.31-2.81-4.19-6.85-9.06-7.7-14.02-1.31-7.61,3.98-13.39,8.66-18.38l9.71-10.36,18.08-18.87,13.56-14.39c3.79-4.02,4.33-9.38,4.72-14.51.51-6.76,6.03-11.16,10.77-14.84l10.9-8.47c1.45-1.12,3.09-4.2,2.97-5.63l3.74,1.77c1.82.86,4.38-4.06,3.38-5.92.19.06.7.24.87.22,1.65-.26,4.45-1.22,6.01-2.2-7.84,9.32-17.13,17.09-27.07,24.66-6.69,5.1-10.06,12.65-8.1,20.39-6.47,7.38-12.33,14.2-18.77,20.72l-14.98,15.15-15.2,15.84c-2.63,2.74-4.36,6.25-6.13,10.08,7.02,3.74,10.32-3.31,21,.4l5.32,1.85Z"/>
  <path fill="#a78d60" d="M280.94,807.95l.51,1.91c.14.41-.3,1.29-.99,1.74l-.63-1.46-1.23-1.45c-.23-.27-.53-.03-1.3.38l-16.57-13.67-9.87-9.22-14.56-14.55c-27.4-29-50.99-60.95-67.18-97.44l-14.14-31.86c-10.44-27.97-17.26-56.13-21.31-85.91.12-1,1.12-1.78,2.93-2.23,5.5,39.8,15.97,78.32,33.79,114.49l8.99,18.25c15.66,29.14,34.55,55.44,56.97,79.71l23.6,23.41,21,17.92Z"/>
  <path fill="#cfb37c" d="M494.05,682.22c.3.3,1.97-.69,2.03-.31l.73,2.69-4.43,11.63-.88,3.15-2.97,19.05c-.2,1.31.46,3.83.76,4.97l1.47,5.08-7.6,19.41-8.38,21.54-4.51,6.89c-1.01-2.68-.6-5.98-.08-9.24,6.47-13.16,12.15-27.5,12.16-42.74l.02-20.13c-1.99-20.93-10.86-40.4-24.18-56.48-6.33-7.64-15.73-10.98-19.75-15.9l1.17-2.87c7.6,4.12,15.71,8.77,21.84,15.36,14.86,15.99,21.58,34.49,25.71,55.3l6.9-17.4Z"/>
  <path fill="#cab07d" d="M479.4,479.57c-.19,1.04.39,2.71,1.51,4.25-18.19,34-21.69,71.04,5.45,100.63l-2.04,4.18-2.87-3.15c.86,0,.43-1.33,0-1.64l-1.99-1.4c-1.12-.79-2.92-2.49-3.98-4.01-10.25-14.65-15.33-31.82-13.75-50.09,1.87-21.67,13.27-38.6,14.88-58.6,1.69-21.05-5.82-39.39-21.22-53.05l-7.42-8.37-13.06-16.08c-.36-.45-1.63-1.86-1.11-1.99l1.76-.45-.79-9.35,4.96,12.04c10.85,18.83,40.3,37.07,40.56,62.08l.2,19.12-1.07,5.88Z"/>
  <path fill="#a68857" d="M366.87,253.05l-8,6.05c-4.38,3.31-10.03,7.17-12.76,11.49-1.02-.91-4.22-2.09-4.71-1.03l-1.97,4.27c-4.81,14.4.92,34.58,15.52,34-7.57-7.4-8.33-18.21-2.98-26.1l-.09,4.29c5.63-2.2,7.2-11.77,8.2-9.3.2.5.57,1.51.57,2.05-5.11,5.76-6.49,13.85-3.53,21.64,2.06,5.44,7.79,8.24,13.18,8.22.03.86.44,1.6,1.04,1.77l3.45.94-12.96.97-10.2,6.38c-1.57.98-4.36,1.95-6.01,2.2l.66-3.64.71-.15,1.34-2.52c-10.89-4.46-16.45-13.41-16.83-24.84-.3-9.04,2.3-16.96,8.78-23.51,4.86-4.92,11.37-6.99,17.4-10.64l8.15-4.93,1.05,2.39Z"/>
  <path fill="#a08250" d="M347,732.77c-21.27,9.76-36,31.93-31.51,55.59,3.13,16.49,14.72,27.46,28.57,35.35l5.34,3.54c-.02.43-.1,1.71-.59,1.73l-2.15.12-1.03.14-2.32-.9c-12.6-4.88-29.05-21.66-32.41-38.06-5.57-27.17,10.37-49.36,33.74-60.78l2.35,3.27Z"/>
  <path fill="#a6895a" d="M361.92,608.71l-8.63,10.16c-16.02,18.85-21.49,52.95-8.51,72.38l-1.57,2.42c-6.33-7.88-9.46-17.77-10.79-28.24l-2.16-16.98-.08-9.27,3.75-19.58c.49-2.58,3.14-5.34,4.19-7.3l1.48,2.26c-4.56,11.41-7.26,23.74-5.41,37.15,2.95-12.49,7.23-23.54,15.13-33.6l7.93-10.11,3.64-3.4,1.02,4.11Z"/>
  <path fill="#c0a676" d="M386.69,720.27l3.94.98c9.37,1,18.5,4.59,25.73,11.21,10.97,10.06,18.15,23.55,16.95,38.48-1.01,12.54-6.4,24.07-16.12,31.79-5.62,4.46-12.5,9.12-20.46,7.33,6.93-2.92,13.82-4.73,19.57-10.28,6.26-6.04,11.52-14.45,12.11-23.51l.63-9.72c-.02-23.92-25.58-44.02-47.44-41.38l3.62-4.39c.27-.12,1.09-.55,1.48-.5Z"/>
  <path fill="#c0a676" d="M444.65,479.75c-2.19,6.05-6.21,11.38-10.04,16.75l-1.99,2.11-8.61,8.35-8.23,5.79-2.2,1.76-16.05,11.83-10.57,9.54-5.27,4.36-5.13-.77v-1.08c.75.32,1.81.39,1.86-.15l.18-1.92,5.58-8.35,13.8-14.18,5.31-4.05.63,3.28-6.13,5.18c-.34.29-.06,2.81.33,2.58l1.72-1,19.92-14.25c3.92-2.8,8.14-6.86,10.83-10.94l5.94-8.96c1.58-.71,3.5-1.8,4.01-2.99l2.71-6.23,1.41,3.34ZM394.28,522.97l-.65.02.65.02h.67l.65-.02-.65-.02h-.67Z"/>
  <path fill="#c0a676" d="M439.6,628.96l-1.17,2.87-10.19-3.01c-10.06-2.97-20.07-6.93-30.23-2.59,21.55,4.11,40.94,22.12,43.67,42.02l.86,3.08.27,3.13c-.42.25-.23,1.69-.75,1.76l-1.45.14v-3.07c0-.83-.71-2.29-1.25-2.96-4.94-21.1-21.45-37.05-43.56-41.23l-6.18.18,2.14-3.28c.97-1.33,3.59-1.91,5.55-2.66l6.7-2.94,12.92.57c8.29,1.83,15.79,4.27,22.66,8Z"/>
  <path fill="#c8ac76" d="M486.75,298.29c-.08.88-.24,2.85-.86,3.11l-2.6,1.35c-8.64-4.32-18.36-5.38-27.69-2.96l-2.03.86c-.26.08-.82.1-1.09.1l-5.77-2.31c-1.01.36-4.54,1.68-4.93.66l-1.16-3.58,3.03-1.67c2.4.91,6.71.27,8.08-2.1,12.21-3,24.89-.69,35.03,6.54Z"/>
  <path fill="#b49661" d="M381.67,540.24c-.39,1.05-1.51,3.39-2.56,4.53l-12.63,13.75c2.33-.45,5.34-1.17,6.75-1.98l.79,2.14c-2.74,2.07-6.18,2.99-9.65,4.7l-13.8,6.81-13.64,6.6-3.84-1.23c-.87-.24-1.36-1.92-1.32-2.8l2.86-1.42c.4.66.69.93.91.63l1.14-1.52,1.01-.75c.41-.31,1.31-.85,1.82-.85l.21,1.1c.09.34,1.05.64,1.26.37l.77-.99,8.68-3.36-.7-1.54c11.01-3.32,19.72-15.32,26.83-24.96l5.13.77Z"/>
  <path fill="#b09768" d="M394.15,562.18l.67,2.61c-10.72,5.64-20.94,12.27-30.85,20.01l-8.9,8.91-15.47,20.85-1.48-2.26c3.74-6.96,8.62-13.93,14.1-20.31.61-.71,1.29-2.79,1.56-3.68l.9-4.01c7.49-3.55,14.2-7.75,21.6-12.22l10.66-6.45,7.21-3.44Z"/>
  <path fill="#b09768" d="M366.65,757.37l.07-2.54,3.95-1.7c9.65-.05,19.26,6.17,21.85,16.04,2.25,8.59-1.24,17.88-9.83,20.08-2.72.69-6.38-1.28-7.43-3.22-.93-1.72-.44-5.52,1.1-7.05,1.11-1.1,5.61-1.17,6.57.05l3.89,4.94c5.74-7.36,3.47-17.03-3.5-22.5-4.75-3.73-10.95-4.95-16.67-4.1Z"/>
  <path fill="#c5b089" d="M475.48,641.93c-1.62-1.35-3.46-3.86-5.34-6.23l-6.4-7.44c-9.79-8.95-16.39-19.05-18.48-32.68-2.24-14.64.37-30.06,6.8-44.51.4,5.94-2.48,11.4-3.44,17.33-2.33,14.37-1.76,28.3,4.61,41.38,5.89,12.1,18.33,19.92,22.25,32.14Z"/>
  <path fill="#bfa980" d="M490.71,416.4l-.88,2.43-2.61-3.94c-5.18-11.58-13.89-20.52-24.97-27.03-15.82-9.3-31.81-19.66-32.96-39.76,4.73,11.53,10.32,21.84,21.17,28.66l17.81,11.19c10.96,6.88,18.43,16.73,22.45,28.46ZM486.19,410.08l-.65.02.65.02h.67l.65-.02-.65-.02h-.67Z"/>
  <path fill="#c7b590" d="M401.56,545.05c1.16-2.02,2.95-5.27,4.26-6.26l14.86-11.11c6.07-4.54,11.94-8.43,17.25-13.86,13.07-13.39,14.27-21.22,20.2-38.62-1.23,13.64-6.23,27-14.92,37.9-5.57,6.99-13.32,11.31-20.47,16.52l-21.18,15.42Z"/>
  <path fill="#bb9d69" d="M412.53,572.67c-14,8.55-28.44,16.48-41.03,27.6l-9.57,8.45-1.02-4.11c12.5-11.68,26.62-21.15,41.86-29.95l8.72-5.03,1.05,3.04Z"/>
  <path fill="#bfa980" d="M470.52,313.48l-4.99,1.26-3.96,1.11-1.05-.27-1.94,1.17-3.98,1.7-1.33.57c-.44.19-.22,1.57.01,1.56l4.22.86c-1.79,1.8-4.47,3.91-5.98,6.12-4.06,5.91-11.71,10.61-19.01,4.69,2.42-.19,4.29.05,7.29.47,3.01-.99,6.66-3.85,8.17-6.79-8.7,3.31-18.72,6.64-19.51.69,14.28,2.1,17.75-6.81,28.02-13.01,4.32-1.66,10.25-1.36,14.05-.15Z"/>
  <path fill="#ae9973" d="M346.6,613.72c-1.92,3.52-2.07,7.33-6.48,8.62,4.58-10.71,10.99-20.26,19.99-27.51l18.82-15.16,19.06-12.87,2.16-1.2c.43-.24,1.3,1.44,1.25,1.64-9.17,5.61-17.78,12.04-26,18.87l-13.69,11.38c-5.5,4.57-11.45,9.51-15.11,16.24Z"/>
  <path fill="#b09768" d="M404.01,620.4l-6.7,2.94c-1.96.76-4.58,1.34-5.55,2.66l-2.14,3.28c-11.47-.25-21.72,5.61-29.9,14.39-3.55,3.82-4.48,9.29-6.79,14.89-.56-10.97,6.53-20.17,15.47-26.41,3.27-2.28,6.4-4.57,9.99-6,8.5-3.38,17-6.13,25.6-5.75Z"/>
  <path fill="#b49661" d="M385.21,720.77l-3.62,4.39-13.38,1.61c-7.68.93-14.69,3-21.22,5.99l-2.35-3.27,2.17-2.5-3.12-1.86,12.66-.25c1.32-.03,4.63-1.54,4.41-2.31l9.88-1.5,14.58-.31Z"/>
  <path fill="#c1ad85" d="M359.68,361.59l4.9,1.03,1.01,1.54c.21.31.68-.18,1.09-.57l7.86,1.57c-1.56,1.12-3.22,2.14-2.74,2.58l1.73,1.63-5.57,3.48c-8.71,10.65-17.3,7.26-28.64,13.03.99-7.85,10.22-6.14,14.42-9l4.15-2.83c3.7-1.76,6.96-3.72,10.4-7l-13.44-4.53c-.9-.3-3.55.31-3.73,1.08l-.62,2.69-2.77,1.55-2.3-1.05c.34-.69,1.37-1.83,2.03-2.24l4.21-2.62,5.05-1.05c.35-.12.66-.29.92-.21l.96,1.52c.2.29.69-.22,1.07-.59Z"/>
  <path fill="#ae9973" d="M327.04,595.1l-8.22,7.71c.53-4.71,11.45-13.81,16.14-16.12l20.13-9.88c9.3-4.56,18.38-9.81,25.44-17.44,1.22-1.31,2.99-3.06,3.84-2.07.4,3.58-3.09,5.68-5.45,7.44-7.52,5.61-14.74,10.91-23.19,14.97l-16.08,7.71c-4.44,2.13-8.9,4.2-12.61,7.67Z"/>
  <path fill="#c1ad85" d="M456.77,346.53c6.19,4.48,6.37,15.13,13.89,23.87-12.84-6-5.74-23.64-30.72-26.32-7.77-.83-16.61-5.23-18.38-14.34l8.86,8.1c7.6,4.44,17.33,2.17,26.36,8.7Z"/>
  <path fill="#c1ad85" d="M384.75,519.66c1.49-8.78,7.45-15.47,12.49-22.5l20.77-17.09c7.16-5.89,8.51-14.54,9.92-23.77,2.86,10.7-1.96,20.98-10.65,27.98l-13.81,11.13c-8.04,6.48-12.46,15.06-18.71,24.25Z"/>
  <path fill="#ae9973" d="M352.39,542.15c-6.24,9.23-17.27,15.76-25.93,10.53,5.45-.02,10.39.12,14.6-2.84,15.41-10.83,22.17-35.14,8.58-48.36,3.6-.25,6,3.3,7.56,6.69,5.13,11.15,1.99,23.92-4.82,33.98Z"/>
  <path fill="#c1ad85" d="M430.78,432.48c-.36-5.62.32-11.1-.75-16.48-.93-4.68-3.77-8.76-5.49-13.56l6.07,6.46c.36-7.48-3.17-12.86-5.84-19.86,6.29,4.8,9.33,13.02,9.47,20.83l.3,17.67c.03,1.8-1.53,4.02-3.75,4.95Z"/>
  <path fill="#c1ad85" d="M394.82,564.79l-.67-2.61,20.85-11.28c12.7-6.87,20.94-17.02,29.52-28.81-6.44,17.75-23.58,28.97-39.8,37.5l-9.9,5.21Z"/>
  <path fill="#ae9973" d="M306.69,481.73l1.87-2.52,1.12.36.49,1.98c.14.47,1.47-.85,1.57-.99l13.11-.05c1.99,0,4.9-1.67,7.07-3.4l-12.45-9.55c9.19,3.19,19.83,11.13,21.02,19.32l-6.87-6.68c-8.62,4.41-18.76,4.54-26.93,1.53Z"/>
  <path fill="#c6ae81" d="M444.65,479.75l-1.41-3.34c3.98-9.16,6.3-20.22,4.93-30.46l-2.36-17.68c5.31,7.3,4.55,15.33,4.83,23.29.36,10.16-.98,19.87-6,28.19Z"/>
  <path fill="#ae9973" d="M379.96,516.83l-2.46.13c.91-4.26.1-10.18-2.75-13.66-4.16-5.09-16.37-5.98-23.45-4.22-3.53.88-5.68,1.79-8.87.91,6.44-3.72,15.89-4.91,22.68-4.05,10.36,1.31,17.86,11.14,14.85,20.89Z"/>
  <path fill="#a78d60" d="M299.41,506.26l1.28.32,4.09.79,7.89,7.16-4.12.39c-.95.09-.87,2.86-.83,3.65l-6.96-4.15-.26-1.35c-.06-.32-1.02-.93-1.21-.66l-.79,1.33c-1.69-1.07-3.38-2.53-4.97-4.05.07-.92.59-4.39,1.62-4.2l4.26.76Z"/>
  <path fill="#c6ae81" d="M440.89,549.27l-2.25,2.26-1.07,1.19c-6.9,7.65-16.06,14.47-25.04,19.96l-1.05-3.04,20.26-15.11c2.26-1.69,4.81-4.59,6.83-4.97l2.32-.27Z"/>
  <path fill="#bba478" d="M353.04,465.52c8.93,4.39,17.14,9.1,23.69,16.26-13.89-8.3-26.28-16.54-42.51-20.35,6.7-2.48,12.62,1.05,18.82,4.09Z"/>
  <path fill="#c1ad85" d="M429.84,487.78l-4.36,5.71c-1.93,2.52-4.42,4.92-6.9,7.03l-14.68,12.5-.63-3.28,10.11-8.51c5.45-4.59,11.54-8.91,14.93-14.84l1.53,1.4Z"/>
  <path fill="#c1ad85" d="M371.67,461.01c4.77,2.65,10.73,3.68,13.02,9.79-13.11-8.34-26.13-14.17-42.42-16.3,8.31-2.03,20.58,1.61,29.4,6.51Z"/>
  <path fill="#ae9973" d="M345,566.01l-2.31-1.81c3.89-3.92,8.1-9.45,10.74-14.88l11.19-23c-2.34,14.43-9.72,26.56-18.56,37.31.16.59.49,1.87.14,1.82l-1.2.56Z"/>
  <path fill="#c6ae81" d="M440.53,482.64c-.52,1.19-2.43,2.28-4.01,2.99l1.72-9.21.03-22.78c0-2.8-2.38-5.9-1.31-9.17,3.84,7.03,5.04,18.64,3.94,27.22l-1.11,8.71c-.06.49.42,2.73.73,2.25Z"/>
  <path fill="#ae9973" d="M357.67,484.88c-10.41-8.6-21.67-13.92-33.3-20.36,14.23,2.1,25.76,10.98,35.74,20.87-.56,1.4-2.72,1.21-2.44-.51Z"/>
  <path fill="#c5b089" d="M426.13,434.98c-.16,6.15-4.3,12.06-8.24,16.67l5.84-18.04c2.26-6.98.39-13.75-1.1-21.2,1.63,1.35,3.95,4.93,3.9,7.01l-.4,15.56Z"/>
  <path fill="#c7b590" d="M361.82,312.3l12.96-.97-3.45-.94c-.6-.16-1.01-.91-1.04-1.77l5.84-.02c3.64-.01,6.44-.56,9.47-2.62-3.83,8.36,4.47,8.34,4.83,14.6-2.24-1.72-5.79-7.46-8.74-7.53l-19.87-.75Z"/>
  <path fill="#a78d60" d="M346.27,317.25l-.66,3.64c-.17.03-.67-.16-.87-.22l-1.13.31c-4.19-3.83-7.51-.09-13.85-5.42-5.12-4.3-7.36-11.37-3.41-17.21.46,3.87-.31,9.5,1.62,11.82,4.73,5.69,12.17,6.08,18.3,7.08Z"/>
  <path fill="#c1ad85" d="M397.63,460.41l10.12-7.59c6.8-5.5,10.21-12.48,11.36-21.39.98,2.7.77,5.29.17,8.72-3.74,9.23-10.25,17.99-21.65,20.26Z"/>
  <path fill="#c5b089" d="M440.62,676.37l1.45-.14c.51-.07.33-1.51.75-1.76,1.99,9.62,0,22.12-6.24,30.87l3.66-15.23.38-13.74Z"/>
  <path fill="#a78d60" d="M349.55,359.5l2.13,2.42-4.21,2.62c-.67.41-1.69,1.55-2.03,2.24-1.35,2.72-2.59,8.36-7.74,10.03l5.33-12.88c.94-2.27,4.57-4.59,6.53-4.43Z"/>
  <path fill="#d2bd91" d="M440.62,295.52l1.16,3.58c.39,1.01,3.92-.31,4.93-.66l5.77,2.31-12.01,7.5,5.61-7.47c-4.4-.37-6.73,1.33-9.29,3.91l.37-2.53c.07-.5-1.51-.71-1.93-.72,1.19-.9,2.76-3.31,3.27-4.89l2.12-1.03Z"/>
  <path fill="#ae9973" d="M336.92,350.53l-.36,7.04c-.03.5-1.06,1.71-1.36,2.1-1.92,2.52-4.64-17.09,12.65-24.29-4,5.01-8.71,8.64-10.93,15.16Z"/>
  <path fill="#c7b590" d="M440.89,549.27l-2.32.27,5.22-7.96,10.18-18.71c-.72,10.05-6.86,20.17-13.08,26.4Z"/>
  <path fill="#c1ad85" d="M377.49,516.96l2.46-.13-3.49,11.32-8.92,18.18c-1.14-3.92,1.34-6.32,2.77-9.26,3.14-6.44,5.66-13.01,7.18-20.11Z"/>
  <path fill="#bba478" d="M438.49,296.55c-.5,1.58-2.08,3.99-3.27,4.89-4.7,3.54-8.75,8.31-12.61,13.12.89-9.32,9.13-14.74,15.88-18.01Z"/>
  <path fill="#c1ad85" d="M336.82,510.59c-.13.56-.34,1.79-.93,1.8l-3.38.05c-1.32.02-3.81.2-3.86,1.2l-.18,3.65-8.87-3.59,3.02-3.27c.42-.42.85-1.31,1.04-1.87l6.42.26-3.08,2.43,9.83-.65Z"/>
  <path fill="#bfa980" d="M223.93,600.82c-2.23.5-4.53.8-5.54,1.45s-1.74,3-2.59,4.57c-1.11-3.3-2.31-5.28-4.79-6.85,1.87-1.54,4.34-4.29,5.46-6.32.36,2.5,2.07,4.84,4.13,5.72l3.33,1.42Z"/>
  <path fill="#ae9973" d="M294.82,435.79l-2.58-1.21c1.56-1,2.53-4.87,2.5-7.31l-4.8,2.67-2.26-2.16,3.6-2.75c.8-.64,2.69-1.43,3.64-1.44.76,0,2.32,1.68,2.56,2.51.87,2.99-.54,7.4-2.66,9.7Z"/>
  <path fill="#a78d60" d="M322.62,510.42l-3.02,3.27-1.37-.64c.18-.69-.5,1.94-.5,2.55l-1.16,1.59c-.3.41-1.94.27-1.96-.23l-.06-2.49-2.27-8.59,10.33,4.54Z"/>
  <path fill="#ae9973" d="M374.02,558.68l-.79-2.14,8.6-4.94c2.82-1.62,4.81-2.98,8.56-3.88-1.6,5.43-6.78,6.26-11.08,8.36l-5.3,2.6Z"/>
  <path fill="#a18559" d="M312.67,514.55l1.89-.08.06,2.49c.01.5,1.65.64,1.96.23l1.16-1.59.98-.11,1.16,2.91-1.2,3.34-2.07-1.1-2.81-2.23c-.21-.11-.89.04-1.11.04l-1.05-1.09-1.15,1.97-1.24,2.13c-.25.42-1.11-1.16-1.22-1.64l-.3-1.22c-.04-.79-.12-3.56.83-3.65l4.12-.39Z"/>
  <path fill="#c7b590" d="M357.55,704.59l1.18-1.35c5.93,3.94,17.62,2.56,26.29-1.64-5.06,7.44-20.04,7.09-27.47,2.99Z"/>
  <path fill="#a6895a" d="M336.82,510.59l-9.83.65,3.08-2.43-6.42-.26c.16-.49.62-2.05,1.13-2.05h10.67c.77,0,2.66,1.75,2.32,2.38l-.95,1.71ZM332.5,508.11c-2.33-.22-2.16-.2.43.04,1.06.1.67.06-.43-.04Z"/>
  <path fill="#a78d60" d="M256.71,673.43l-.98,2.75c-7.5-.99-14.23-7.84-16.89-14.75,5.55,5.93,10.84,10.64,17.86,12Z"/>
  <path fill="#ae9973" d="M358.73,703.24l-1.18,1.35-7.21-3.98c-3.09-1.7-5.23-4.57-7.14-6.94l1.57-2.42c3.29,4.92,8.91,8.64,13.95,11.99Z"/>
  <path fill="#a68857" d="M337.62,324.81c-2.21-.07-4.38-.38-6.21-1.72l12.2-2.11,1.13-.31c1,1.85-1.56,6.78-3.38,5.92l-3.74-1.77Z"/>
  <path fill="#ae9973" d="M308.04,411.36c1.02-2.71,1.73-3.78,2.96-5.41l8.81-11.26c-.46,2.59-1.23,4.96-2.23,7.56l-9.55,9.11Z"/>
  <path fill="#bba478" d="M341.63,597.41l-10.97,13.37c.39-.67.51-3.33-.31-3.67l5.58-6.5,2.69-4.22,1.01-.41,1.99,1.44Z"/>
  <path fill="#d6c49b" d="M457.49,321.46l-4.22-.86c-.23,0-.45-1.38-.01-1.56l1.33-.57,1.82,1.32c5.09-2.89,11.98-2.02,15.28,2.92-5.1-2.09-9.77-2.76-14.2-1.25Z"/>
  <path fill="#bba478" d="M350.51,366.28l1.57,6.17c.41,1.39,4.7,2.02,5.81,1.58l-4.15,2.83c-3.12-1.8-5.44-6.02-6.01-9.03l2.77-1.55Z"/>
  <path fill="#ae9973" d="M302.78,712.36c3.28,4.53,8.44,7.67,12.99,11.9-6.33-1.81-11.4-7.14-15.29-11.79l2.3-.11Z"/>
  <path fill="#c7b590" d="M345,566.01l4.72-1.58.7,1.54-8.68,3.36-2.23-.48c-.51,0-1.41.54-1.82.85l5-5.5,2.31,1.81Z"/>
  <path fill="#c7b590" d="M429.84,487.78l-1.53-1.4,6.89-12.08c-.13,5.12-2.5,9.72-5.37,13.47Z"/>
  <path fill="#a18559" d="M304.78,507.38l-4.09-.79,1.39-2.28c.37-.4,1.88.67,2.05,1.18l.65,1.89Z"/>
  <path fill="#b09768" d="M342.71,596.38l-1.08,1.04-1.99-1.44,1.86-1.34c.48-.35,1.56,1.36,1.21,1.74Z"/>
  <path fill="#a78d60" d="M318.67,521.73l1.2-3.34.9,3.51c.16.63-1.69.21-2.11-.18Z"/>
  <path fill="#a18559" d="M300.76,514.44l-2.26-.68.79-1.33c.18-.27,1.14.34,1.21.66l.26,1.35Z"/>
  <path fill="#a18559" d="M311.74,480.56c-.1.14-1.43,1.45-1.57.99l-.49-1.98,2.05.99Z"/>
  <path fill="#bba478" d="M366.69,363.59c-.41.39-.88.88-1.09.57l-1.01-1.54,2.1.97Z"/>
  <path fill="#a18559" d="M336.67,570.45l-1.14,1.52c-.22.3-.52.04-.91-.63l2.05-.89Z"/>
  <path fill="#b49661" d="M376.55,538.39l2.04-2.07-.18,1.92c-.05.54-1.11.47-1.86.15Z"/>
  <path fill="#bba478" d="M359.68,361.59c-.39.38-.87.89-1.07.59l-.96-1.52,2.04.93Z"/>
  <path fill="#b09768" d="M335.68,597.38l-3.06,3.07,1.02-2.5c.24-.46,1.55-.4,2.04-.57Z"/>
  <path fill="#a18559" d="M341.74,569.33l-.77.99c-.21.27-1.17-.03-1.26-.37l-.21-1.1,2.23.48Z"/>
</svg>
