<?xml version="1.0" encoding="UTF-8"?>
<svg id="Layer_1" data-name="Layer 1" xmlns="http://www.w3.org/2000/svg" viewBox="0 0 1024 1024">
  <defs>
    <style>
      .cls-1 {
        fill: #c8ac76;
      }

      .cls-2 {
        fill: #c0a676;
      }

      .cls-3 {
        fill: #d8c393;
      }

      .cls-4 {
        fill: #bb9d69;
      }

      .cls-5 {
        fill: #cab07d;
      }

      .cls-6 {
        fill: #a6895a;
      }

      .cls-7 {
        fill: #bfa980;
      }

      .cls-8 {
        fill: #c7b590;
      }

      .cls-9 {
        fill: #dec691;
      }

      .cls-10 {
        fill: #a08250;
      }

      .cls-11 {
        fill: #a68857;
      }

      .cls-12 {
        fill: #d4bd8e;
      }

      .cls-13 {
        fill: #d5bc86;
      }

      .cls-14 {
        fill: #dcc38c;
      }

      .cls-15 {
        fill: #c1ad85;
      }

      .cls-16 {
        fill: #b09768;
      }

      .cls-17 {
        fill: #d6c49b;
      }

      .cls-18 {
        fill: #d6c08f;
      }

      .cls-19 {
        fill: #a18559;
      }

      .cls-20 {
        fill: #b49661;
      }

      .cls-21 {
        fill: #ae9973;
      }

      .cls-22 {
        fill: #c5b089;
      }

      .cls-23 {
        fill: #cfb37c;
      }

      .cls-24 {
        fill: #a78d60;
      }

      .cls-25 {
        fill: #cdb98e;
      }

      .cls-26 {
        fill: #c6ae81;
      }

      .cls-27 {
        fill: #bba478;
      }

      .cls-28 {
        fill: #ceb786;
      }

      .cls-29 {
        fill: #d2bd91;
      }

      .cls-30 {
        fill: #dec897;
      }
    </style>
  </defs>
  <path class="cls-14" d="M506.55,750.58l-4.41-1.31,14.85-16.37c11.12-12.26,17.76-25.68,20.33-42.03,4.9-31.17-5.88-57.44-28.09-78.42l4.35-2.09c7.16,6.97,12.69,14.7,18.7,24.15-1.81-9.35-9.35-21.48-16.02-28.87l2.57-2.46c15.36,18.48,24.28,41.72,25.11,66.53l-.55,10.67-4.65,23.06c18.84-24.4,17.72-64.15,1.83-89.08l-15.99-25.09-21.33-33.63-.59-1.25-.11-.97c-.1-.87-.59-2.25-.99-2.97l-1.09-1.98-.73-1.12-.46-1.83-.72-1.04-.15-2.03,4.29-.11,2.77,7.12c-.68-.17-.43,1.27-.11,1.72l1.16,1.24c.09.25.07.67.03,1.22.24,1.6,2.03,4.42,3.44,6.04l2.15-7.15c2.82,10.13,6.4,20.4,13.29,29.5-1.74-15.15-3.41-28.61-.14-42.79,3.25-14.09,8.6-27.18,16.93-39.02l25.1-35.68c18.28-25.99,18.42-61.87-2.9-84.91l-12.45-13.45c-4.94-5.34-9.15-11.34-10.53-18.94,5.65,6.89,9.99,13.44,16.38,19.02,7.84,6.85,15.74,13.77,21.08,22.92,14.88,25.51,11.1,53.9-6.3,77.48l-19.97,27.06c-10.8,14.64-22.52,36.96-23.89,54.74-1.83,23.69,1.73,37.47,12.74,57.95,4.8,8.93,9.84,17.35,12.66,27.2,6.6,23.06,3.66,47.32-8.39,68-6.97,11.97-13.89,23.64-23.56,33.31l-15.65,15.66Z"/>
  <path class="cls-19" d="M336.92,576.8c-6.45,3.12-11.64,8.62-17.08,13.74-6.48,6.1-11.04,13.1-13.47,21.73l-3.32,11.79,14.95-16.44c11.22-9.42,23.82-17.23,36.67-23.33l-.9,4.01-11.07,8.06c.35-.38-.73-2.09-1.21-1.74l-1.86,1.34-1.01.41-2.95,1c-.49.17-1.8.1-2.04.57l-1.02,2.5c-8.98,5.54-16.98,13.98-20.29,24.57l-6.68,21.36-1.49,10.1c-.8-.71-2.21-4.49-1.86-6.06l5.32-23.94c-11.45,17.24-12.61,38.91-4.75,58.61,2.59,6.48,6.38,11.87,10.77,17.28l1.52,1.87c.2.25,1.08-.98,1.3-1.28-3.53-7.33-7.87-15.1-8.54-23.74l-.83-10.7.47-10.28c.18-3.98,1.24-7.81,2.28-11.65,4.04-14.87,10.74-28.11,20.51-39.49.82.35.7,3,.31,3.67l-8.26,14.2c-6.44,11.07-9.5,22.56-11.16,35.12-1.98,15,2.13,29.91,9.36,43.21,8.07,14.86,24.03,21.71,40.15,19.26.22.77-3.09,2.29-4.41,2.31l-12.66.25-1.03.07-2.21-.7c-27.03-9.93-43.01-30.25-46.37-59.32-1.47,2.38-1.25,5.26-1.42,8.15-.81,14.22,1.91,27.69,10.11,39.02l-2.3.11c-5.31-6.35-8.79-14.4-10.14-23.05-1.04-6.69-2.72-12.72-.9-19.6.28-1.08-.6-3.21-1.87-3.51-6.56,6.05-15.22,12.07-24.71,10.81l-7.12-.94.98-2.75c21.07,4.09,37.57-19.81,41.54-38.65l3.12-14.78c2.77-13.12,8.3-24.33,17.73-33.11l8.97-8.34c-9.08-.39-14.96,5.24-21.97,9.26-12.49,7.17-20.94,19.51-21.41,34.75-.09,2.82,2.55,5.96.73,9.62-6.99-11.22-4.04-25.24,4.36-35.99,11.05-12.24,26.17-19.83,41.98-23.42-.04.88.45,2.56,1.32,2.8l3.84,1.23Z"/>
  <path class="cls-7" d="M758.52,626.49c-1.67.41-3.15,1.26-4.96,2.48l-1.66-1.66,3.37-18.72c2.95-16.39-18.54-20.52-22.06-48.97-1.2-9.68-4.13-17.22-9.36-27.28l21.12,14.33c13.05,8.85,18.68,26.32,16.49,41.75l-4.88,34.41c7.52-13.24,12.14-26.55,15.68-40.23,2.39-9.22.45-16.61-3.37-24.57-7.83-16.28-5.89-32.07,4.03-46.76l15.1-22.34-2,17.61c-.84,7.43,5.61,21.57,2.58,38.32-1.46,8.08-6.46,14.96-9.86,21.99-3.62,21.25-8.62,42.24-20.23,59.65ZM770.45,534.57l4.66,5c-.25-11.61,2.44-21.89,5.12-33.44-15.05,18.8-17.14,34.13-6.14,56.38,3.56-10.47-.37-19.15-3.64-27.94ZM786.67,536.54l-.58-9.94-3.11-17.35c-.98,1.19-2.04,3.18-2.3,4.54l-2.11,10.85-.06,37.18c5.31-8.03,8.67-16.52,8.15-25.28ZM745.41,564.89l-10.24-17.88c-.42-.47,2.49.57,2.85,1.12l10.06,15.31c5.32,8.1,6.15,17.06,9.22,27.21,2.25-4.17,2.05-8.87,1.52-13.49-1.82-15.71-9.53-24.29-21.63-33.28-.71-.53-3.44-.72-3.83-.04-.29.5-.65,2-.48,2.7l3.64,15.62c2.4,11.03,7.29,19.97,15.14,28.21.39.09,2.7-.74,2.53-1.48l-.67-2.83c-.94-3.96-2.29-9.63-5.02-12.63l-8.88-9.74,5.21,1.68.61-.5ZM745.82,565.64l-.06,1.5.06-1.5Z"/>
  <path class="cls-12" d="M575.7,261.75c-.84-.27-3.08.33-3.97.54l-11.21-2.82c-2.29-.57-5.56-.94-7.98-.63l-8.08,1.05-17.26,3.43c16.44,4.25,28.42,13.51,40.21,24.31s28.74,13.86,44.34,7.27c4.24-1.79,6.97-6.38,10.76-9.41-.66,5.54-5.17,8.66-9.36,12.93,8.06,2.77,16.44,5.64,22.91,11.45s11.55,14.03,9.8,23.13c-2.36-11.77-8.79-21.05-19.78-26.1-5.61-2.58-11.71-4.91-18.21-4.59-9.42.46-18.66.6-29.11-.6l18.43,23.18c14.75,18.56,32.83,27.23,56.04,15.63-15.79,15.28-40.93,8.8-55.02-8.66l-18.83-23.34c-8.04-9.97-19.02-17.46-29.35-24.46l1.43-1.51,1.49.18.85-1.05c-11.69-10.62-28.4-17.48-44.75-15.66l-17.73,3.69c5.86-4.84,13.06-5.16,20.62-6.57l-20.41-8.41.35-4.33,8.24,3.61c16.02,7.01,33.62,8.33,46.03-5.96-.93,3.19-3.09,5.61-5.66,8.47,10.6-1.53,26.12-.44,35.21,5.22ZM555.39,283.86l1.57.82.47-.47-1.94-1.52-1.62.03-.37.4,1.89.74ZM557.96,284.7l-.49.47.49.54.5-.5-.51-.51ZM558.69,286.49l.51-.55-.51.55Z"/>
  <path class="cls-19" d="M287.68,427.77l2.26,2.16c-2.87,1.6-6.32,1.19-9.8-.95-5.51-3.39-8.54,2.16-17.5,2,.1,3.34,3.31,7.33,6.47,9.31l5.99,10.36c1.57-2.73,3.68-7.45,6.32-9.14l10.82-6.94,2.58,1.21c-7.03,7.58-20.89,11.04-14.75,23.5,3.07,6.22,8.73,10.01,14.88,13.1l10.01,5.02,3.6,1.8-1.87,2.52h-1.09s-5.88-3.2-5.88-3.2c-6.28-2.69-11.96-5.66-18.36-10.4-3.11,7.16,4.56,7.21,7.26,12.46.05,7.64,1.14,15.8,4.33,22.95l2.35-3.14,4.12,5.86-4.26-.76c-1.03-.18-1.55,3.28-1.62,4.2-3.56-3.42-7.02-8.08-7.29-13.84l-.62-13.26c-11.06-8.45-15.98-24.42-19.65-38.31-2.81-4.19-6.85-9.06-7.7-14.02-1.31-7.61,3.98-13.39,8.66-18.38l9.71-10.36,18.08-18.87,13.56-14.39c3.79-4.02,4.33-9.38,4.72-14.51.51-6.76,6.03-11.16,10.77-14.84l10.9-8.47c1.45-1.12,3.09-4.2,2.97-5.63l3.74,1.77c1.82.86,4.38-4.06,3.38-5.92.19.06.7.24.87.22,1.65-.26,4.45-1.22,6.01-2.2-7.84,9.32-17.13,17.09-27.07,24.66-6.69,5.1-10.06,12.65-8.1,20.39-6.47,7.38-12.33,14.2-18.77,20.72l-14.98,15.15-15.2,15.84c-2.63,2.74-4.36,6.25-6.13,10.08,7.02,3.74,10.32-3.31,21,.4l5.32,1.85Z"/>
  <polygon class="cls-7" points="778.41 612.45 776.48 615.51 775.99 612.25 778.41 612.45"/>
  <path class="cls-7" d="M779.49,622.69l-.61-2.71,10.59-4.56c16.99-6.74,22.17-19.31,30.11-36.01-3.17,1.49-4.89,3.16-7.13,5.25l-9.3,8.68-15.81,14.27-1.12-2.02,6.17-7.66c2.56-4.89,3.07-8.63,7.49-13.25l-2.26,9.48,21.2-17.75c-11.51.88-21.48,6.03-29.21,13.33l-5.34,5.04c-4.22,4.56-6.68,11.73-8.28,17.46l-.81,3.21-3.45,3.68c-.71.76-2.54,2.07-3.48,2.34l6.02-14.14c2.47-9.64,8.25-16.73,16.03-23.09,14.87-23.33,22.76-50.69,21.8-78.34l-2.86-20.56c-3.12-22.49-15.02-39.93-28.82-57.09,24.19,19.59,34.96,50.34,35.24,79.95l.08,8.73c-2.03,25.55-8.29,42-20.46,63.85l22-7.56,13.17-5.17c-5.02,7-8.05,13-11.86,19.92l-9.16,16.65c-7.24,9.89-18.98,15.03-29.96,18.05Z"/>
  <path class="cls-28" d="M652.34,531.41l.5-5.69c-8.4,4.32-6.36,14.78-12.13,18.95,12.73-26.97,9.19-60.55-3.09-87.53,7.54,7.44,8.89,17.12,11.93,26.39l2.33,18.89-.76,12.05c-.22,3.49-.69,6.25-.14,9.44,3.61-8.3,7.03-15.97,7.17-24.41l.26-16c-2.3-14.53-8.76-27.06-17.94-37.78l2.25-1.32,11.26,13.88c.78-5.73.08-10.71-.88-16.43-4.99-29.8-21.48-56.04-48.11-70.79-2.91-1.61-5.55-3.02-7.69-5.4,32.54,10.89,54.92,39.05,59.33,72.82l.63,25.45c8.23,26.05,6.74,43.84-4.91,67.47Z"/>
  <path class="cls-24" d="M280.94,807.95l.51,1.91c.14.41-.3,1.29-.99,1.74l-.63-1.46-1.23-1.45c-.23-.27-.53-.03-1.3.38l-16.57-13.67-9.87-9.22-14.56-14.55c-27.4-29-50.99-60.95-67.18-97.44l-14.14-31.86c-10.44-27.97-17.26-56.13-21.31-85.91.12-1,1.12-1.78,2.93-2.23,5.5,39.8,15.97,78.32,33.79,114.49l8.99,18.25c15.66,29.14,34.55,55.44,56.97,79.71l23.6,23.41,21,17.92Z"/>
  <path class="cls-9" d="M613.67,607.45l-8.35,33.74c-3.28,18.25-6.53,35.85-12.62,53.41-8.29,23.94-20.79,45.52-38.31,63.54l-8.43,8.67c-13.78,11.96-27.86,23.26-43.39,31.97l-1.92-2.73,26.89-18.7,13.1-11.11c10.99-9.32,19.5-20.85,27.89-33,15.6-22.58,24.04-48.71,28.92-75.78,3.05-16.92,6.07-32.9,11.01-48.71l5.21-1.31Z"/>
  <path class="cls-5" d="M786.22,605.6l1.12,2.02-3.12,3.79-3.95,3.94-2.12,2.96-2.01.63c-.51.16.96,1.83,1.41,1.54l1.03-.66.31.16.61,2.71c-16.43,4.52-34.99,30.75-47.39,46.43l-12.82,16.22c-.82,1.03-1.96,3.08-2.51,4.32l20.31-12.63,1.44,2.81c1.02,1.73,3.98-2.39,4.3-1.1l.37,1.5-2.08,3.32,16.15.82c.25.22-.49,1.93-1.04,1.94l-5.05.04-16.73.36c-6.69.14-13.77,4.26-18.83,7.94l-4.51-.8,2.56-5.08-7.07,4.1.58-2.61c5.14-8.19,7.21-16.54,9.16-26.39-.82-5.5-3.39-10.46-6.16-15.43l2.02-2.37,3.14,5.75c.34.62.61,1.49.61,1.49,0-.03.82.08,1.99.21.25-1.52.02-4.4-.42-6.24l-2.25-9.34c.05-1.05.74-2.7,1.3-2.48l1.67.74,2.08,4.3-.19,10.93c-.03,1.72.78,4.35,1.58,5.9l.3.74-.6,2.5-6.83,23.25c4.28-3.43,6.82-6.28,9.4-9.83l13.05-18c6.38-8.79,11.42-18.72,14.84-28.72l1.66,1.66c1.82-1.21,3.29-2.07,4.96-2.48l-4.26,9.67c5.04-4.37,11.42-8.62,14-14.68.94-.27,2.77-1.58,3.48-2.34l3.45-3.68s1.16.26,1.29.05l1.93-3.06c.56-.9,2-2.23,2.96-2.95,1.03-.77,2.07-2.35,3-4.01-.28.22.5.34.82.4.2.04.91-.47,1.04-.29Z"/>
  <path class="cls-23" d="M494.05,682.22c.3.3,1.97-.69,2.03-.31l.73,2.69-4.43,11.63-.88,3.15-2.97,19.05c-.2,1.31.46,3.83.76,4.97l1.47,5.08-7.6,19.41-8.38,21.54-4.51,6.89c-1.01-2.68-.6-5.98-.08-9.24,6.47-13.16,12.15-27.5,12.16-42.74l.02-20.13c-1.99-20.93-10.86-40.4-24.18-56.48-6.33-7.64-15.73-10.98-19.75-15.9l1.17-2.87c7.6,4.12,15.71,8.77,21.84,15.36,14.86,15.99,21.58,34.49,25.71,55.3l6.9-17.4Z"/>
  <path class="cls-5" d="M479.4,479.57c-.19,1.04.39,2.71,1.51,4.25-18.19,34-21.69,71.04,5.45,100.63l-2.04,4.18-2.87-3.15c.86,0,.43-1.33,0-1.64l-1.99-1.4c-1.12-.79-2.92-2.49-3.98-4.01-10.25-14.65-15.33-31.82-13.75-50.09,1.87-21.67,13.27-38.6,14.88-58.6,1.69-21.05-5.82-39.39-21.22-53.05l-7.42-8.37-13.06-16.08c-.36-.45-1.63-1.86-1.11-1.99l1.76-.45-.79-9.35,4.96,12.04c10.85,18.83,40.3,37.07,40.56,62.08l.2,19.12-1.07,5.88Z"/>
  <path class="cls-24" d="M237.05,241.82l-12.94,14.34c-10.24,11.35-18.52,23.91-27.16,36.61-8.41,12.38-15.08,24.89-22,38.07-8.11,15.44-14.75,31-20.22,47.69-7.89,24.08-14.36,47.72-16.98,72.94-.11,1.05-.8,2.58-1.35,3.13-.41.41-2.14-.52-2.22-1.1-.93-6.86,4.92-32.87,8-45.59,7.55-31.24,19.12-60.11,34.57-88.25,7.48-13.61,15.05-26.33,24.22-38.75,7.15-9.7,13.92-19.15,21.94-28.03l11.29-12.51,2.85,1.43Z"/>
  <path class="cls-7" d="M790.28,769.73l-2.46-1.84c22.14-24.2,41.39-50.21,57.21-79.8,17.17-32.11,30.22-66.01,37.84-101.64l5.39-30.08c.12-.68.85-1.82,1.32-2.21s1.84,1.75,1.72,2.45l-4.11,25.9c-2.6,16.37-6.72,31.74-12.67,47.09l-10.37,26.74c-9.91,25.58-23.97,48.72-39.62,71.19l-7.83,11.25-16.67,20.31-9.76,10.63Z"/>
  <path class="cls-11" d="M366.87,253.05l-8,6.05c-4.38,3.31-10.03,7.17-12.76,11.49-1.02-.91-4.22-2.09-4.71-1.03l-1.97,4.27c-4.81,14.4.92,34.58,15.52,34-7.57-7.4-8.33-18.21-2.98-26.1l-.09,4.29c5.63-2.2,7.2-11.77,8.2-9.3.2.5.57,1.51.57,2.05-5.11,5.76-6.49,13.85-3.53,21.64,2.06,5.44,7.79,8.24,13.18,8.22.03.86.44,1.6,1.04,1.77l3.45.94-12.96.97-10.2,6.38c-1.57.98-4.36,1.95-6.01,2.2l.66-3.64.71-.15,1.34-2.52c-10.89-4.46-16.45-13.41-16.83-24.84-.3-9.04,2.3-16.96,8.78-23.51,4.86-4.92,11.37-6.99,17.4-10.64l8.15-4.93,1.05,2.39Z"/>
  <path class="cls-27" d="M448.57,211.73l-1.94,2.39c-12.21,9.86-23.79,11.48-28.8,21.66l23.26-6.62-4.1,2.98c-.46.34-.61,2.58-.02,2.58h2.49s-13.99,17.93-13.99,17.93l-2.4-4.07,11.33-16.03-14.95,5.88c-5.05,1.99-6.95,5.28-9.52,9.97l-5.86,10.73c-1.72,3.14-3.4,5.63-6.73,7.68l11.38-22.14-9.69,4.32c3-3.8,5.69-5.31,9.15-7.82,4.81-3.48,8.59-8.51,12.42-13.44-8.53.86-15.51,9.92-22.02,17.12l-3.33,8.33-12.16,20.11c-.67,1.1-4.27,1.64-4.58.83l6.5-9.87,7.89-16.12c6.91-14.11,18.19-23.56,33.59-27.53,8.14-2.1,15.66-6.26,21.37-12.3l1.99-5.81,2.24-9.88c.49,4.35.64,8.02.2,12.02l-3.73,7.1Z"/>
  <path class="cls-13" d="M502.7,542.35l-4.29.11c-9.17-23.73-4.91-47.04,6.29-70.8,5.86-12.42,11.44-24.56,13.47-38.31,2.61-17.68-8.01-36.94-21.75-47.54l4.44-2.47c7.66,9.01,15.73,18.48,19,30.62,3.61,13.4,1.87,27.16-3.11,39.73l-5.45,13.73c-6.13,12.69-10.9,25.33-12.42,39.5-1.31,12.21-.5,24.33,3.82,35.43Z"/>
  <path class="cls-20" d="M690.42,242.15c-16.49,10.13-28.34,27.57-29.98,47.36-1.07,12.93.77,25.14,7.04,36.09l7.99,11.73c-.26.92-.44,2.77-1.17,2.89l-3.47.75c-14.07-15.37-20.09-36.47-16.25-56.95s17.11-37.96,35.8-47.17l.05,5.29Z"/>
  <path class="cls-17" d="M670.42,682.84l-2.04,9.48c-5.16,23.96-17.47,44.35-37.86,58.17l-8.19,10.39,2.1.32-4.36,3.18c-1.24.9-4.27,1.4-5.84,1.24l9.63-11.96c9.99-12.15,4.17-29.96,16.68-45.33l3.08.89c-5.24,9.14-10.36,18.76-9.84,30.43,2.85-4.24,6.88-9.61,8.12-14.43l4.47-17.97,1.39-.92-2.03,14.35,14.87-26.31.09-2.05c.02-.38,1.72.05,1.58.41l-.71,1.84-12.64,25.98,8.41-4.32c4.41-10.99,7.88-21.7,8.77-33.07l1.68-4.08-.02,8.41,2.66-4.66ZM639.64,738.8c6.41-4.67,10.4-10.17,14.01-17.28-6.92,3.04-12.7,9.05-14.01,17.28ZM637.88,739.29l-.02.65v.67l.02.65.02-.65v-.67l-.02-.65Z"/>
  <path class="cls-9" d="M641.27,749.75l1.25,3.81c-16.47,12.11-34.33,22.34-52.95,31.81l-9.15,4.65-4.26,1.81,4.64.61c.85.11,1.45,1.45,1.61,2.28-8.99,0-17.57,3.33-25.77,7.63l-19.38,10.17.21-3.2c.05-.49-.24-1.59-.38-2.16-.11-.48-1.68.82-1.63.88l-3.03.65-2.06-.93c-.34-.09.36-1.48.23-1.79,17.12-4.79,51.44-18.51,61.89-30.7v4.2s4.58-2.92,4.58-2.92l17.17-10.92c1.56.15,4.6-.34,5.84-1.24l4.36-3.18,16.85-11.46Z"/>
  <path class="cls-30" d="M588.35,539.38c4.53,0,8.74.13,13.98.96l-9.88,2.06c-2.26-.01-4.23.44-7.29,1.67,3.32,1.68,6.68,2.39,10.3,2.54l5.21,2.67c-6.71,4.1-13.83-1.24-21.12-1.81-7.51-.04-13.46,10.77-13.08,17.42.33,5.73,2.63,7.95,7.39,7.75,3.61-.15,6.38-3.25,6.07-7.51l-5.15-3.82c3.88-2.05,5.87.2,7.64,2.88,1.37,2.07.75,5.73-1.17,8.03-2.21,2.64-5.23,4.34-8.31,4.41s-6.92-2.01-8.62-5.12c-5.07-9.26-.35-20.53,8.42-25.85.87-.53.52-3.44-.43-4.11-7.89-5.58-11.47-16.6-7.03-24.97,2.9-5.47,9.21-7.7,14.37-5.33,2.83,1.3,4.66,3.98,4.97,6.66.37,3.19-1.28,6.3-4.22,7.4.9-4.33,1.17-7.51-.91-9.26-2.78-2.34-6.53-2.17-8.91.48-6.84,7.6-.15,21.51,9.71,24.89,2.36-.79,6.04-2.06,8.06-2.06Z"/>
  <path class="cls-27" d="M833.83,301.77l3.68-1.04,7.59,13.17c21.65,37.58,34.51,75.13,43.15,117.54l2.4,17.69.43,3.8c.09.84-1.92,1.52-3.01,1.54-5.5-42.39-18.02-82.65-36.67-120.98l-17.57-31.71Z"/>
  <path class="cls-3" d="M506.52,278.56l2.97,1.19,2.01.92c9.71,4.45,18.33,11.43,24.34,20.56,10.22,15.55,9.72,37.1-4.66,49.26-4.39,3.72-8.34,9.04-10.3,14.38-4.23,11.52,1.78,23.04,13.5,26.02,6.54,1.66,12.44-2.17,14.85-8.37.77,7.74-7.58,11.9-14.9,11.1-11.79-1.3-18.77-12.41-18.03-24.01.73-11.52,8.17-17.69,16.28-27,13.41-15.39,2.84-44.27-16.38-54.58l-13.4-7.19c-.02-1.17-.21-2.12.31-2.1l3.4-.19Z"/>
  <path class="cls-25" d="M767.65,217.62l-2.5,1.3c-22.79-20.45-47-37.28-73.62-52.27-30.39-17.11-62.32-26.06-96.23-37.18,45.11,6.45,86.85,26.74,124.58,50.5,12.76,8.04,23.59,16.79,35.27,25.93l7.14,6.67,5.35,5.04Z"/>
  <path class="cls-15" d="M751.18,686.35l5.05-.04c.55,0,1.3-1.72,1.04-1.94l16.35-.57c8.67-.3,14.72-6.18,21.71-10.08l10.97-6.12-10.78-2.54c-5.14-2.62-9.91-3.93-15.31-4.14l-10.02.44c-5.36,1.03-14.99,6.99-17.95,12.82,5.31-.62,9.34-3.45,13.87-6.55l-1.73,5.68-4.1,1.19c-.67.2-1.84.76-2.33,1.04l-14.74,4.7-.37-1.5c-.32-1.3-3.28,2.82-4.3,1.1l-1.44-2.81,4.23-3.61c5.11-4.37,9.58-7.84,15.99-10.22,3.23-1.2,7.56-4.54,11.01-4.54l17.88.02,19.14,5.2,13.51,2.54c-9.41,3.56-16.86,6.4-24.71,11.9-9.13,6.38-20.36,10.76-31.75,9.73l-9.04-.82c-.58-.05-2.43-.51-2.15-.85Z"/>
  <path class="cls-10" d="M347,732.77c-21.27,9.76-36,31.93-31.51,55.59,3.13,16.49,14.72,27.46,28.57,35.35l5.34,3.54c-.02.43-.1,1.71-.59,1.73l-2.15.12-1.03.14-2.32-.9c-12.6-4.88-29.05-21.66-32.41-38.06-5.57-27.17,10.37-49.36,33.74-60.78l2.35,3.27Z"/>
  <polygon class="cls-26" points="917.74 511.25 914.2 532.64 910.72 512.04 903.33 515.6 906.8 508.86 896.84 506.91 886.13 504.72 907.27 500.93 902.88 493.56 910.88 497.89 914.62 478.15 917.37 497.99 924.2 494.27 921.62 501.24 937.52 504.99 921.72 508.27 924.32 515.5 917.74 511.25"/>
  <path class="cls-13" d="M528.06,134.06l-1.63-10.26c-.29.06-3.08,2.19-4.14,3.51l1.01-2.82c5.78-12.01,12.17-23.31,9.93-36.34l-3.53-6.24c-1.64-2.9-1.59-6.29,1-9.41,21.15,11.02,11.9,36.74.53,57.08l-3.16,4.47Z"/>
  <path class="cls-22" d="M721.73,657.36c-.8-1.55-1.61-4.18-1.58-5.9,2.61-.42,4.9-8.94,4.66-12.13l-.85-11.8c-1.88-9.04-7.1-17.34-13.64-23.79,3.54,11.6,6.43,21.72,7.93,32.49l-1.67-.74c-.56-.22-1.25,1.42-1.3,2.48l-6.39-12.69,5.77,5.38c-1.6-10.21-4.34-18.54-7.89-27.52l-1.33,14.13c-1,10.66.61,20.36,6.75,28.82l-2.02,2.37c-2.94-5.28-7.6-11.48-7.57-18.08l.07-19.85c.02-4.63.45-8.82.04-13.31l-1-10.76,15.85,20.75c12.14,15.89,13.4,33.2,4.16,50.15Z"/>
  <path class="cls-6" d="M361.92,608.71l-8.63,10.16c-16.02,18.85-21.49,52.95-8.51,72.38l-1.57,2.42c-6.33-7.88-9.46-17.77-10.79-28.24l-2.16-16.98-.08-9.27,3.75-19.58c.49-2.58,3.14-5.34,4.19-7.3l1.48,2.26c-4.56,11.41-7.26,23.74-5.41,37.15,2.95-12.49,7.23-23.54,15.13-33.6l7.93-10.11,3.64-3.4,1.02,4.11Z"/>
  <path class="cls-17" d="M553.43,732.01c5.86-10.26,12.82-18.22,17.31-28.38,5.53-12.53,9.17-25.63,10.38-39.38l-.13-28.66c-2.14-28.1,2.72-54.34,21.25-75.56-8.53,15.87-16.2,30.72-17.39,48.71l.06,32.31c.01,7.93.56,15.29-.32,23.32-1.3,11.88-3.83,23.53-8.86,34.29-5.88,12.55-12.92,24.21-22.31,33.36Z"/>
  <path class="cls-23" d="M521.46,878.92l1.36,2.53-2.34,2.73c-.39.46-1.19,1.61-.67,1.93.39.24,1.39.73,1.83.8l7.38,1.2.55,2.53c.09.38-1.7.26-2.14.33l-3.59,1.37c-.25.04-1.23-.26-1.4-.3l-2.5.96c-.37.14-.05.62.37,1.09l.37,1.17-3.1,1.85c-.67.33-1.7,1.31-2.17,1.89-.37.45-.92,1.6-.92,2.16l.02,5.68-3.64,1.19-1.43-10.97-11.43,7.67,7.66-11.33-18.72-3.77,18.97-3.27-7.9-11.35,11.24,7.81,1.36-10.76c.5-3.97,1.02-7.95,2.3-12.03l2.74,20.08c.11.79,1.89,2.36,2.42,1.88l3.4-3.07Z"/>
  <path class="cls-17" d="M596.54,774.34l-1.27.92,1.79,1.28-4.6,2.92v-4.2c3.33-3.87,6.98-9.44,5.82-14.78-2.11-9.74-3.02-18.97-.02-28.42l5.59-26.19,4.96,9.96c4.34,8.71,6.08,16.69,5.77,26.55-.35,10.91-6.55,19.32-13.82,27.32l-4.22,4.64ZM602.95,748.46l-1.6-9.19,3.65,6.67c.6-9.68,1.01-16.39-.42-25.75l-6.31,24.27,2.61,13.98c2.11-2.9,2.63-6.78,2.07-9.98ZM608.7,743.76l-4.37,15.63c9.87-10.07,10.28-25.73,3.32-38.13l-.34,18.58c-.01.7,1.54,3.38,1.38,3.92Z"/>
  <path class="cls-2" d="M386.69,720.27l3.94.98c9.37,1,18.5,4.59,25.73,11.21,10.97,10.06,18.15,23.55,16.95,38.48-1.01,12.54-6.4,24.07-16.12,31.79-5.62,4.46-12.5,9.12-20.46,7.33,6.93-2.92,13.82-4.73,19.57-10.28,6.26-6.04,11.52-14.45,12.11-23.51l.63-9.72c-.02-23.92-25.58-44.02-47.44-41.38l3.62-4.39c.27-.12,1.09-.55,1.48-.5Z"/>
  <path class="cls-12" d="M670.42,682.84l-2.66,4.66.02-8.41-1.68,4.08-6.47,8.31-7.75,8.5c-1.67,1.83-3.83,4.48-4.12,6.37l-1.39.92-2.75,1.96-3.08-.89,9.38-11.53c6.33-7.79,13.72-14.76,17.63-24.12,4.93-11.79,2.74-23.91-.54-35.8-3.23-11.73-9.98-21.77-21.97-26.29l-4.16-1.57-7.64-2.01c17.93-4.45,33.53,10.75,38.04,30.5,2.25,9.84,3.13,20.08,1.55,30.08l-2.41,15.24Z"/>
  <path class="cls-11" d="M112.73,521.51c-.32,2.32-1.11,4.37-2.62,6.41l-2.66-15.2-5.49.57.66-5.06-13.75-3.03c4.11-2.48,7.86-2.58,13.3-2.91l.84-5.82,4.25.84,3.39-18.78c4.35,8.83-.54,13.35,5.26,19.89,6.28,7.07,13.82,2.68,14.64,4.62l1.24,2.93-12.5,2.04-.58,5.58-4.7-1.41-1.28,9.33Z"/>
  <path class="cls-29" d="M600.66,549.28l-5.21-2.67c4.7.2,9.52-1.47,13.98-4.35-.23-.21-1.29-.75-1.71-.64l-3.08.84-12.2-.06,9.88-2.06c-5.24-.82-9.45-.96-13.98-.96-.44-.2,1.77-.87,2.38-.88l13.58-.08c19.45-.12,25.69-31.95,23.67-51.46-1.91-18.49-6.2-35.01-17.54-48.72l-.74-.53-3.5-5.03c1.82,1.12,3.25,2.62,4.4,4.17l.49.54c1.06.75,2.89,2.25,3.88,3.59,9.6,12.98,14.46,27.85,15.99,44l.1,20.26c-1.15,14.72-7.33,28.03-17.45,38.29-4.24,3.02-8.41,5.94-12.96,5.75Z"/>
  <path class="cls-13" d="M715.62,694.65l-9.24,6.73-1.06.94-2.01.99-.9,1.16-11.46,11.41-8.68,8.38c3.64-.83,5.29-1.32,7.15-2.12l1.95,1.19c-11.75,5.14-22.41,12.12-33.24,19.66l-13.61,9.47-1.15.8-.85.31-1.25-3.81,21.86-15.68,13.26-10.78,25.06-24.84c1.66-1.65,3.52-4.64,5.14-5.58l7.07-4.1-2.56,5.08,4.51.8Z"/>
  <path class="cls-2" d="M444.65,479.75c-2.19,6.05-6.21,11.38-10.04,16.75l-1.99,2.11-8.61,8.35-8.23,5.79-2.2,1.76-16.05,11.83-10.57,9.54-5.27,4.36-5.13-.77v-1.08c.75.32,1.81.39,1.86-.15l.18-1.92,5.58-8.35,13.8-14.18,5.31-4.05.63,3.28-6.13,5.18c-.34.29-.06,2.81.33,2.58l1.72-1,19.92-14.25c3.92-2.8,8.14-6.86,10.83-10.94l5.94-8.96c1.58-.71,3.5-1.8,4.01-2.99l2.71-6.23,1.41,3.34ZM394.28,522.97l-.65.02.65.02h.67l.65-.02-.65-.02h-.67Z"/>
  <path class="cls-3" d="M505.54,831.16c0-2.68,1.56-4.15,3.92-5.25l1.49.99,10.63-2.49,27.88-3.97c12.79-1.82,25.87,2.42,37.57,7.02,6.33,2.49,11.11,6.69,15.7,11.4,8.45,8.68,8.85,26.18-.74,31.23,6.38-9.29,6.43-20.16-1.15-28.61-6.91-7.69-16.75-13.4-27.1-14.7l-16.18-2.04c-3.81-.48-7.32-.32-11.19.05l-12.9,1.23-27.93,5.11Z"/>
  <path class="cls-29" d="M670.29,374.03c-3.94-5-7.84-11.76-14.13-14.8-8.26-3.99-16.67-6.64-25.3-5.25l-20.69,3.33c-17.67,2.84-36.94-6.54-46.94-21.18l-10.04-14.68c6.06,2.8,8.54,8.29,12.46,12.96,12.6,15.03,31.25,22.24,50.66,18.05,9.37-2.03,18.68-2.62,28.05-.95,11.62,2.43,23.39,8.93,25.93,22.52Z"/>
  <path class="cls-3" d="M687.21,844.76l.14,3.81c-31.65,16.79-65.32,28.61-100.53,35.96-5.64,1.18-10.43,1.69-16.04,1.52,2.38-4.39,5.38-3.26,8.75-3.9,37.85-7.19,73.78-19.49,107.69-37.39Z"/>
  <path class="cls-28" d="M682.35,810.81l-5.25-3.75c.54-.4,2.85-1.29,3.42-.93l10.19,6.42c7.58,4.78,16.79,2.77,22.3-3.1s7.13-14.5,2.85-21.96c-5.53-9.65-15.91-15.81-26.93-15.86l-14.39-.07-8.66.66-.18-3.36,5.59-.82c18.22-2.66,39.53,1.75,47.9,18.19,4.18,8.21,2.7,18-3.25,24.84-5.27,6.07-14.22,9.72-23.12,6.25-3.58-1.4-7.47-4.41-10.5-6.52Z"/>
  <path class="cls-12" d="M490.77,728.48l-1.47-5.08c6.13-11.24,11.59-22.83,13-36.1v-16.01s-5.49,13.32-5.49,13.32l-.73-2.69c-.06-.38-1.72.61-2.03.31l5.53-14.74c4.72-12.58.63-24.89-2.89-37.36,8.61,12.46,10.08,27.01,10.19,41.17l.07,9.27c.1,12.84-4.04,24.74-10.02,36.16l-6.17,11.77Z"/>
  <path class="cls-2" d="M439.6,628.96l-1.17,2.87-10.19-3.01c-10.06-2.97-20.07-6.93-30.23-2.59,21.55,4.11,40.94,22.12,43.67,42.02l.86,3.08.27,3.13c-.42.25-.23,1.69-.75,1.76l-1.45.14v-3.07c0-.83-.71-2.29-1.25-2.96-4.94-21.1-21.45-37.05-43.56-41.23l-6.18.18,2.14-3.28c.97-1.33,3.59-1.91,5.55-2.66l6.7-2.94,12.92.57c8.29,1.83,15.79,4.27,22.66,8Z"/>
  <path class="cls-28" d="M790.28,769.73c-28.77,31.34-65.09,58.78-102.94,78.85l-.14-3.81,12.53-7.25c26.85-15.53,51.54-33.44,73.46-55.15l14.62-14.48,2.46,1.84Z"/>
  <path class="cls-2" d="M463.11,245.69l.52,3.39c-6.51,1.19-17.11,7.37-21.34,12.38l-10.04,11.89c-3.11,3.69-6.94,5.68-9.73,9.53l12.38-4.33c4.01-1.4,9.48-5.42,12.48-8.15l3.66,2.89c-.01.39.48,1,.46.99s-1.94.34-2.2.5l-9.19,5.48c-15.73,9.38-32.23,2.46-36.38,19.71-.51,2.14-2.06,3.72-3.33,3.64.26-9.37,5.15-14.38,11.54-18.58l8.47-5.57c14.56-9.57,17.91-28.26,42.69-33.76Z"/>
  <path class="cls-18" d="M489.66,226.67h-1.14s-1.03-.68-1.03-.68l-.06-4.56c5.41.88,10.7,3.35,16.21,5.14l24.1,7.84c5.26,1.71,11.88,2.13,17.08,1.86,15.97-.85,29.04-9.12,36.46-22.59-.16,4.94-2.98,9-6.36,12.79-9.46,10.62-23.92,15.82-38.52,14.11s-26.36-7.98-39.75-11.88l-6.99-2.03Z"/>
  <path class="cls-20" d="M502.32,90.11c-.06,4.81.32,10.95,2.42,15.62l-2.66,5.53c-1.23,2.43-2.25,4.73-3.76,6.08l-1.85-.5-4.91.2c-.8.03-2.23.65-3.05.95-2.02-.64-4.25-1.9-3.86-3.32.58-2.15,1.95-3.62,3.24-4.12l2.56-1.63c1.64-.07,4.33-.65,5.06-1.52-5.43-12.85-4.23-26.39,5.98-33.53,5.35,6.1-1.73,12.03.83,16.25Z"/>
  <path class="cls-6" d="M370.66,753.13l-3.95,1.7-.07,2.54c-11.4,1.7-23.17,15.73-23.79,24.83-.35,5.21-.71,10.97.26,15.68,1.66,8.07,6.2,15.58,12.33,20.36l8.39,6.54-.25,3.78c-.02.87-2.23.3-3.09.16l-8.07-7.4c-13.3-11.12-18.85-30.29-12.16-46.4,3.4-8.2,9.99-14.5,17.22-18.67,4.35-2.51,8.71-3.08,13.15-3.1Z"/>
  <path class="cls-16" d="M425.47,252.64l-4.28,6.7c-10.05,15.73-17.18,14.45-29.85,24.08-6.88,5.23-3.24,13.1-6.02,16.3-3-5.91-1.17-12.9,3.81-17.5l5.71-5.27c-8.71-.69-16.67,2.93-21.49,9.24-5.97,7.83.27,12.81-1.1,17.89-5.03-6.56-5.34-15.4-.72-21.57,1.74-2.31,6.06-6.19,8.78-6.77l13.33-2.84c11.9-2.54,20.21-9.31,26.54-19.63l2.87-4.69,2.4,4.07Z"/>
  <path class="cls-20" d="M407.42,827.13l-1.06,5.18-.85-.39-1.92,1.19-.98.08-2.98,1.13-4,.88-1.5.11c-.35.03-.59.92-.6,1.27s1.18.84,1.43.59l.63-.65,7.3.76c.74.08,2.13.5,2.69.89l1.53,1.05c.41.28,1.58-.65,1.45-1.11l2.14-.06-.06,4.2-1.05-.05-4.93-.16c-1.41-1.42-4.52-1.96-6.97-2.05l-1.2.49c-3.3-2.44-7.74-3.07-11.86-3.39l-7.11-.56-12.5-1.61c-6.63-.86-13.1-2.77-18.37-5.79l2.15-.12c.5-.03.57-1.3.59-1.73l1.25.03,1.04.03,8.82,1.4c.86.14,3.06.71,3.09-.16l.25-3.78c10.95,8.53,29.63,6.7,43.57,2.36Z"/>
  <path class="cls-20" d="M393.68,238.85c-1.48,6.74-6.89,13.93-12.29,19.65l-11.12,11.78c-5.17,5.48-8.6,11.4-7.69,19.58l-1.97-2.23.04-8.86c0-.53-.37-1.55-.57-2.05-1-2.48-2.57,7.1-8.2,9.3l.09-4.29-.49-1.13c1.51-.18,3.61-2.27,4.15-3.59l2.19-5.31c3.06-7.44,11.58-10.79,17.88-15.92l6.09-4.96c5.59-4.55,8.48-11.68,11.05-18.15,0,1.55,1.19,4.62.85,6.19Z"/>
  <path class="cls-21" d="M335.63,165.76l-24,14.05c-12.22,7.15-23.4,15.47-34.22,24.63l-15.14,12.82-18.9,18.06-6.31,6.5-2.85-1.43c5.07-5.61,10.81-10.93,16.65-16.48l11.83-11.24c22.31-19.38,46.28-36.05,71.94-49.88l1.35.2c.02-.07.8-1.33,1.08-1.46l-1.43,4.23Z"/>
  <path class="cls-27" d="M382.79,864.63l-1.14,3.39c-36.31-13.81-70.92-32.35-101.19-56.42.69-.45,1.13-1.33.99-1.74l-.51-1.91,32.31,22.69c22.14,13.82,45.52,25.08,69.54,33.98Z"/>
  <path class="cls-7" d="M837.51,300.73l-3.68,1.04-14.73-22.06c-15.2-22.77-33.59-42.51-53.94-60.78l2.5-1.3,6.81,5.08c24.6,23.11,45.14,49.56,63.05,78.02Z"/>
  <path class="cls-28" d="M483.29,302.76l2.6-1.35c.62-.26.78-2.23.86-3.11,8.23,5.87,15.15,14.45,15.82,25.24.53,8.5-.64,15.95-5.14,23.25-4.82,7.83-16.95,6.45-18.56,12.95-.91,3.66.07,7.67,1.21,11.29-5.33-3.64-6.11-12.96-.62-17.57l11.15-5.58c9.12-7.6,10.24-29.43-.64-38.85l-6.69-6.27Z"/>
  <path class="cls-1" d="M470.27,776.33l-1.44,6.7,10.35-10.85.63,4.1-10.31,11-18.9,18.94-13.8,11.26-1.46-4.72,6.23-5.51,7.99-8.09c6.01-6.09,11.23-12.99,15.06-20.78l5.55-11.29c-.52,3.26-.93,6.55.08,9.24Z"/>
  <path class="cls-13" d="M652.34,531.41l.12,1.15c-3.06.94-4.97,4.86-5.2,7.79-.06.82-.46,2.51-.85,3.19-.99.25-2.68.87-2.81,1.78l-.07,3.22-1.25,1.86-.6,1.28-9.29,15.87c-7.5,12.81-14.08,26.17-18.72,39.9l-5.21,1.31c4.75-15.19,11.24-29.45,19.93-43.28l8.83-14.05c1.16-1.85,2.52-3.84,3.37-5.84l.12-.92c5.77-4.17,3.73-14.63,12.13-18.95l-.5,5.69Z"/>
  <path class="cls-18" d="M544.6,449.36l-1.16,1.16-.82,1.16-7.34,8.73c-4.81,5.73-9.9,11.67-13.36,18.48-7.67,15.09-14.33,31.53-13.27,48.57l.83,13.33-3.04,1.61-1.32-10.9c-.53-4.34-.36-8.47.11-13.13,2.19-21.68,11.26-42.17,25.86-58.14l10.08-11.03,3.43.14Z"/>
  <path class="cls-4" d="M487.43,145.15c1.13-.36,2.11-.58,2.71-1.01s.75-3.19,1.41-3.56c1.55-.87,5.39-2.08,6.63-3.38,2.19-2.29,5.29-6.25,5.33-9.07.06-4.16-2.31-8.8-5.18-10.79,1.51-1.35,2.53-3.65,3.76-6.08l2.66-5.53,4.99,11.09c3.63,8.08,3.95,16.73-2.71,23.89-4.83,5.19-13.13,6.24-19.59,4.43Z"/>
  <path class="cls-17" d="M665.73,768.85l.18,3.36c-11.04,3.28-21.9,7.52-32.32,13.1l-14.94,7.99c9.53,3.68,19.2,7.11,23.9,15.86-8.79-7.92-18.62-13.27-30.68-14.44h-29.45c-.15-.84-.76-2.17-1.61-2.29l-4.64-.61,4.26-1.81c5.76,1.66,12.54-.71,21.79.57,7.59,1.05,14.22,1.2,20.97-2.57l12.19-6.81c9.92-5.55,19.45-10.76,30.35-12.35Z"/>
  <path class="cls-22" d="M467.44,256.48l3.22,1.23c-7.12,3.1-14.46,7.62-18.88,13.97,9.24-2.95,17.06-1.84,24.93,1.84,10.07.1,20.98,1.5,29.81,5.04l-3.4.19c-.52-.02-.32.92-.31,2.1l-11.23-3.17c-5.66-1.6-11.23-1.25-16.62.42-9.46,1.95-17.46,5.97-24.34,12.97l1.09.71c-1.37,2.36-5.68,3-8.08,2.1,1.98-1.09,3.82-2.58,5.33-4.78,6.34-6.16,13.93-10.6,22.22-13.61l1.36-1.17c.23-.2-1.5-1.64-1.84-1.63l-19.66.62-3.66-2.89,12.06-11c1.74-1.58,5.81-2.25,8-2.91Z"/>
  <path class="cls-11" d="M490.45,108.91l-2.56,1.63c-1.29.5-2.66,1.97-3.24,4.12-.39,1.43,1.85,2.68,3.86,3.32-2.34,2.47-5.21,6.13-4.87,9.32.39,3.64,2.88,9.32,6.67,9.54l7.86.34c-1.25,1.3-5.09,2.51-6.63,3.38-.66.37-.81,3.13-1.41,3.56s-1.58.65-2.71,1.01c-8.57-2.4-13.74-10.61-13.02-19.82.61-7.91,7.6-16.07,16.04-16.42Z"/>
  <path class="cls-1" d="M528.06,134.06c.88,5.5-6.02,15.74,2.39,21.76v6.2s-6.25.23-6.25.23c-12.33-7.69-8.04-27.27-1.91-34.93,1.06-1.32,3.85-3.45,4.14-3.51l1.63,10.26Z"/>
  <path class="cls-22" d="M693.67,722.39c-.35.08-1.43.65-1.4.87-.23.15-.68.16-.9.06l-1.95-1.19,7.59-3.3c18.74-8.15,43.85-5.72,47.51,12.38,1.21,5.98-.1,12.02-4.57,15.44s-10.92,4.1-15.33.48c-2.37-1.95-3.03-5.33-.77-7.25,1.24-1.05,3.34-1.83,4.32-1.29.82.45,2.63,2.37,2.15,3.18l-2.38,3.99c5.75,2.24,11.73-.96,13.75-7.27,2.47-7.74-2.92-15.31-10.47-18.16l-5.06-1.91-15.9.19-16.58,3.79Z"/>
  <path class="cls-8" d="M762.34,346.88l-1.18-3.25c26.51-22.37,29.61-62.36,7.85-87.48-6.59-7.6-14.2-13.75-22.9-17.31.56-.21,2.14-.04,2.05-.54l-.12-1.89c20.35,9.65,34.4,28.99,37.3,51.33s-5.77,44.62-22.99,59.14Z"/>
  <path class="cls-1" d="M486.75,298.29c-.08.88-.24,2.85-.86,3.11l-2.6,1.35c-8.64-4.32-18.36-5.38-27.69-2.96l-2.03.86c-.26.08-.82.1-1.09.1l-5.77-2.31c-1.01.36-4.54,1.68-4.93.66l-1.16-3.58,3.03-1.67c2.4.91,6.71.27,8.08-2.1,12.21-3,24.89-.69,35.03,6.54Z"/>
  <path class="cls-20" d="M381.67,540.24c-.39,1.05-1.51,3.39-2.56,4.53l-12.63,13.75c2.33-.45,5.34-1.17,6.75-1.98l.79,2.14c-2.74,2.07-6.18,2.99-9.65,4.7l-13.8,6.81-13.64,6.6-3.84-1.23c-.87-.24-1.36-1.92-1.32-2.8l2.86-1.42c.4.66.69.93.91.63l1.14-1.52,1.01-.75c.41-.31,1.31-.85,1.82-.85l.21,1.1c.09.34,1.05.64,1.26.37l.77-.99,8.68-3.36-.7-1.54c11.01-3.32,19.72-15.32,26.83-24.96l5.13.77Z"/>
  <path class="cls-1" d="M762.34,346.88c-18.34,15.46-43.6,19.8-66.04,11.33l2.04-.56,2.1-.66c.61-.19.13-1.93.02-2.72,11.37,4.1,24.15,4.65,36.66,2,9.04-1.91,17.24-6.9,24.05-12.64l1.18,3.25Z"/>
  <path class="cls-30" d="M633.25,607.03l7.64,2.01-10.43,2.66c-10.02,3.85-14.4,17.39-8.88,26.12,3.66,5.79,10.9,8.19,15.79,5.06l-3.87-1.04c-1.19-.32,1.62-7.2,6.16-6.37,1.3.24,3.41,2.29,3.63,3.59s-1.01,4.19-2.13,5.17c-5.96,5.19-14.16,3.48-20.11-1.87s-7.05-14.48-3.92-22.34c2.54-6.38,9.12-11.25,16.12-12.99ZM638.04,640.86l-.65.02.65.02h.67l.65-.02-.65-.02h-.67Z"/>
  <path class="cls-26" d="M482.77,832.34c-1.53.6-3.58,3.53-3.45,5.15-11.4,3.06-24.17,4.93-36.43,6.03l-6.31-.22-19.92-.21,2.02-4.02c19.66.76,39.3-.62,58.66-6.06l5.43-.67Z"/>
  <path class="cls-16" d="M394.15,562.18l.67,2.61c-10.72,5.64-20.94,12.27-30.85,20.01l-8.9,8.91-15.47,20.85-1.48-2.26c3.74-6.96,8.62-13.93,14.1-20.31.61-.71,1.29-2.79,1.56-3.68l.9-4.01c7.49-3.55,14.2-7.75,21.6-12.22l10.66-6.45,7.21-3.44Z"/>
  <path class="cls-25" d="M518.84,603.19l-2.57,2.46-5.7-6.32-9.07-9.93c-12.3-13.47-20.33-29.49-22.18-47.81-.55-5.42-2.15-10.72,1.01-15.33.02,31.86,13.25,50.77,34.36,71.93l4.15,5Z"/>
  <path class="cls-29" d="M614.64,348.39c-9.43.27-17.39-4.73-24.42-10.75-5.25-4.5-8.76-11.16-12.71-17.06-7.92-15.9-21.35-25.56-38.87-31.04,14.26.16,25.95,8.44,35.03,19.09,3.95,4.64,6.68,10.44,10.17,15.66,6.93,12.03,17.72,19.87,30.8,24.11Z"/>
  <path class="cls-16" d="M366.65,757.37l.07-2.54,3.95-1.7c9.65-.05,19.26,6.17,21.85,16.04,2.25,8.59-1.24,17.88-9.83,20.08-2.72.69-6.38-1.28-7.43-3.22-.93-1.72-.44-5.52,1.1-7.05,1.11-1.1,5.61-1.17,6.57.05l3.89,4.94c5.74-7.36,3.47-17.03-3.5-22.5-4.75-3.73-10.95-4.95-16.67-4.1Z"/>
  <path class="cls-26" d="M381.65,868.02l1.14-3.39c20.55,7.61,41.84,12.97,63.71,17.57,3.3.69,6.23-.47,8.75,3.7-3.67.23-7.26.3-10.88-.47-21.55-4.58-42.6-9.75-62.72-17.4Z"/>
  <path class="cls-22" d="M475.48,641.93c-1.62-1.35-3.46-3.86-5.34-6.23l-6.4-7.44c-9.79-8.95-16.39-19.05-18.48-32.68-2.24-14.64.37-30.06,6.8-44.51.4,5.94-2.48,11.4-3.44,17.33-2.33,14.37-1.76,28.3,4.61,41.38,5.89,12.1,18.33,19.92,22.25,32.14Z"/>
  <path class="cls-7" d="M490.71,416.4l-.88,2.43-2.61-3.94c-5.18-11.58-13.89-20.52-24.97-27.03-15.82-9.3-31.81-19.66-32.96-39.76,4.73,11.53,10.32,21.84,21.17,28.66l17.81,11.19c10.96,6.88,18.43,16.73,22.45,28.46ZM486.19,410.08l-.65.02.65.02h.67l.65-.02-.65-.02h-.67Z"/>
  <path class="cls-15" d="M417.61,133.96c-22.17,5.54-43.53,13.43-64.78,23l-17.2,8.79,1.43-4.23,19.82-9.49c20.07-9.61,40.67-15.84,61.78-21.03l-1.05,2.94Z"/>
  <path class="cls-8" d="M401.56,545.05c1.16-2.02,2.95-5.27,4.26-6.26l14.86-11.11c6.07-4.54,11.94-8.43,17.25-13.86,13.07-13.39,14.27-21.22,20.2-38.62-1.23,13.64-6.23,27-14.92,37.9-5.57,6.99-13.32,11.31-20.47,16.52l-21.18,15.42Z"/>
  <path class="cls-4" d="M412.53,572.67c-14,8.55-28.44,16.48-41.03,27.6l-9.57,8.45-1.02-4.11c12.5-11.68,26.62-21.15,41.86-29.95l8.72-5.03,1.05,3.04Z"/>
  <path class="cls-7" d="M470.52,313.48l-4.99,1.26-3.96,1.11-1.05-.27-1.94,1.17-3.98,1.7-1.33.57c-.44.19-.22,1.57.01,1.56l4.22.86c-1.79,1.8-4.47,3.91-5.98,6.12-4.06,5.91-11.71,10.61-19.01,4.69,2.42-.19,4.29.05,7.29.47,3.01-.99,6.66-3.85,8.17-6.79-8.7,3.31-18.72,6.64-19.51.69,14.28,2.1,17.75-6.81,28.02-13.01,4.32-1.66,10.25-1.36,14.05-.15Z"/>
  <path class="cls-26" d="M748.03,236.42l.12,1.89c.1.5-1.49.33-2.05.54l-7.8-3.19c-1.01-.41-2.89-1.07-3.93-.97l-1.17.11-3.89-1.07h-1.12s-6.91-1-6.91-1l-6.72,1.08-1.23.08-4.03,1.05c-6.35,1.66-13.23,3.72-18.9,7.2l-.05-5.29c18.15-8.95,39.39-9.11,57.66-.44Z"/>
  <path class="cls-5" d="M487.44,221.44l.06,4.56c-16.61-3.29-33.89-.41-48.04,8.72h-2.49c-.59,0-.44-2.24.02-2.58l4.1-2.98c11.1-8.07,32.6-9.96,46.35-7.72Z"/>
  <path class="cls-21" d="M346.6,613.72c-1.92,3.52-2.07,7.33-6.48,8.62,4.58-10.71,10.99-20.26,19.99-27.51l18.82-15.16,19.06-12.87,2.16-1.2c.43-.24,1.3,1.44,1.25,1.64-9.17,5.61-17.78,12.04-26,18.87l-13.69,11.38c-5.5,4.57-11.45,9.51-15.11,16.24Z"/>
  <path class="cls-22" d="M500.65,796.07l1.92,2.73c-12.89,7.23-25.99,14.6-40.78,18.71l-25.06,6.95-1.14-1.05,9.5-3.66c19.44-6.29,39.18-12.29,55.56-23.68Z"/>
  <path class="cls-16" d="M404.01,620.4l-6.7,2.94c-1.96.76-4.58,1.34-5.55,2.66l-2.14,3.28c-11.47-.25-21.72,5.61-29.9,14.39-3.55,3.82-4.48,9.29-6.79,14.89-.56-10.97,6.53-20.17,15.47-26.41,3.27-2.28,6.4-4.57,9.99-6,8.5-3.38,17-6.13,25.6-5.75Z"/>
  <path class="cls-20" d="M385.21,720.77l-3.62,4.39-13.38,1.61c-7.68.93-14.69,3-21.22,5.99l-2.35-3.27,2.17-2.5-3.12-1.86,12.66-.25c1.32-.03,4.63-1.54,4.41-2.31l9.88-1.5,14.58-.31Z"/>
  <path class="cls-28" d="M520.55,820.76l-11.09,5.16c-2.36,1.1-3.93,2.56-3.92,5.25l-1.12-.17-4.06,1.25-15.5,3.9-1.37.04c-.3,0-.72-.03-.94.04l-1.99.94-1.23.33c-.13-1.62,1.92-4.55,3.45-5.15l23.01-8.97,13.56-6.08,1.22,3.48Z"/>
  <path class="cls-15" d="M359.68,361.59l4.9,1.03,1.01,1.54c.21.31.68-.18,1.09-.57l7.86,1.57c-1.56,1.12-3.22,2.14-2.74,2.58l1.73,1.63-5.57,3.48c-8.71,10.65-17.3,7.26-28.64,13.03.99-7.85,10.22-6.14,14.42-9l4.15-2.83c3.7-1.76,6.96-3.72,10.4-7l-13.44-4.53c-.9-.3-3.55.31-3.73,1.08l-.62,2.69-2.77,1.55-2.3-1.05c.34-.69,1.37-1.83,2.03-2.24l4.21-2.62,5.05-1.05c.35-.12.66-.29.92-.21l.96,1.52c.2.29.69-.22,1.07-.59Z"/>
  <path class="cls-13" d="M524.2,162.25l6.26-.23v-6.2c4.72.84,9.17-.59,11-6l9.33.25c-.9,7.72-5.61,11.17-10.42,13.42-5.81,2.71-11.56,1.63-16.18-1.25Z"/>
  <path class="cls-21" d="M327.04,595.1l-8.22,7.71c.53-4.71,11.45-13.81,16.14-16.12l20.13-9.88c9.3-4.56,18.38-9.81,25.44-17.44,1.22-1.31,2.99-3.06,3.84-2.07.4,3.58-3.09,5.68-5.45,7.44-7.52,5.61-14.74,10.91-23.19,14.97l-16.08,7.71c-4.44,2.13-8.9,4.2-12.61,7.67Z"/>
  <path class="cls-15" d="M456.77,346.53c6.19,4.48,6.37,15.13,13.89,23.87-12.84-6-5.74-23.64-30.72-26.32-7.77-.83-16.61-5.23-18.38-14.34l8.86,8.1c7.6,4.44,17.33,2.17,26.36,8.7Z"/>
  <path class="cls-15" d="M384.75,519.66c1.49-8.78,7.45-15.47,12.49-22.5l20.77-17.09c7.16-5.89,8.51-14.54,9.92-23.77,2.86,10.7-1.96,20.98-10.65,27.98l-13.81,11.13c-8.04,6.48-12.46,15.06-18.71,24.25Z"/>
  <path class="cls-21" d="M352.39,542.15c-6.24,9.23-17.27,15.76-25.93,10.53,5.45-.02,10.39.12,14.6-2.84,15.41-10.83,22.17-35.14,8.58-48.36,3.6-.25,6,3.3,7.56,6.69,5.13,11.15,1.99,23.92-4.82,33.98Z"/>
  <path class="cls-4" d="M700.45,354.27c.11.79.59,2.53-.02,2.72l-2.1.66-2.04.56c-9.73-3.67-18.46-9.57-25.48-17.24l3.47-.75c.73-.12.91-1.97,1.17-2.89,6.88,7.7,15.37,13.47,24.99,16.93Z"/>
  <path class="cls-15" d="M430.78,432.48c-.36-5.62.32-11.1-.75-16.48-.93-4.68-3.77-8.76-5.49-13.56l6.07,6.46c.36-7.48-3.17-12.86-5.84-19.86,6.29,4.8,9.33,13.02,9.47,20.83l.3,17.67c.03,1.8-1.53,4.02-3.75,4.95Z"/>
  <path class="cls-4" d="M435.35,812.76l1.46,4.72-6.29,4.42c-1.65,1.16-3.69,2.56-5.28,4.32l-18.88,6.1,1.06-5.18c9.99-3.11,20-7.37,27.93-14.37Z"/>
  <polygon class="cls-13" points="513.58 610.36 509.23 612.45 496.52 600.44 484.33 588.63 486.37 584.45 497.57 595.35 506.47 603.43 513.58 610.36"/>
  <path class="cls-29" d="M485.55,232.62c3.03.13,6.74.58,9.96,2.05l14.58,6.64c6.25,2.85,11.89,5.07,18.68,7.09-14.39,1.85-29.7-11.73-44.16-12.44l-10.7-.45c3.16-2.95,7.33-2.97,11.64-2.9Z"/>
  <path class="cls-29" d="M530.59,805.97c.13.31-.57,1.7-.23,1.79l2.06.93-23.68,6.75c-12.39,3.53-24.27,6.6-37.42,6.81,2.48-2.06,6.01-1.37,9.02-2.22l50.24-14.06Z"/>
  <path class="cls-22" d="M485.55,232.62c-4.31-.08-8.48-.05-11.64,2.9-16.18,2.43-30.67,8.94-43.53,20.36,3.42-6.37,9.22-10.52,15.12-14.14,11.97-6.48,24.35-10.31,38.1-10.02l1.94.91Z"/>
  <path class="cls-15" d="M394.82,564.79l-.67-2.61,20.85-11.28c12.7-6.87,20.94-17.02,29.52-28.81-6.44,17.75-23.58,28.97-39.8,37.5l-9.9,5.21Z"/>
  <path class="cls-8" d="M480.91,483.82c-1.12-1.54-1.7-3.21-1.51-4.25l2.49-2.66c6.72-16.82,4.75-34.01-3.42-50.8,6.44,4.88,7.64,12.81,9.25,20.25,2.87,13.26-.78,26.21-6.8,37.46Z"/>
  <polygon class="cls-13" points="506.55 750.58 492.52 764.28 479.82 776.28 479.18 772.18 485.09 765.83 496.64 754.34 502.14 749.27 506.55 750.58"/>
  <path class="cls-29" d="M512.86,357.19l5.33-17.8c2.23-7.45-1.51-16.71-7.21-22.12l-7.4-5.52c3.11.39,7.83,1.58,9.99,3.8,11.23,11.48,10.01,28.09-.71,41.64Z"/>
  <path class="cls-21" d="M306.69,481.73l1.87-2.52,1.12.36.49,1.98c.14.47,1.47-.85,1.57-.99l13.11-.05c1.99,0,4.9-1.67,7.07-3.4l-12.45-9.55c9.19,3.19,19.83,11.13,21.02,19.32l-6.87-6.68c-8.62,4.41-18.76,4.54-26.93,1.53Z"/>
  <path class="cls-26" d="M444.65,479.75l-1.41-3.34c3.98-9.16,6.3-20.22,4.93-30.46l-2.36-17.68c5.31,7.3,4.55,15.33,4.83,23.29.36,10.16-.98,19.87-6,28.19Z"/>
  <path class="cls-4" d="M517.49,68.78c-1.14.84-2.54,4.05-2.19,5.51.3,1.26,1.93,2.69,3.26,3.41-8.08-.64-15.42,3.82-16.23,12.41-2.56-4.22,4.52-10.15-.83-16.25,4.68-3.28,10.36-4.92,16-5.08Z"/>
  <path class="cls-21" d="M379.96,516.83l-2.46.13c.91-4.26.1-10.18-2.75-13.66-4.16-5.09-16.37-5.98-23.45-4.22-3.53.88-5.68,1.79-8.87.91,6.44-3.72,15.89-4.91,22.68-4.05,10.36,1.31,17.86,11.14,14.85,20.89Z"/>
  <path class="cls-1" d="M530.69,72.51c-2.59,3.12-2.64,6.51-1,9.41-3.53-2.4-7.1-3.9-11.13-4.22-1.33-.71-2.96-2.15-3.26-3.41-.35-1.47,1.05-4.68,2.19-5.51,4.64-.14,10.24.91,13.2,3.73Z"/>
  <path class="cls-24" d="M299.41,506.26l1.28.32,4.09.79,7.89,7.16-4.12.39c-.95.09-.87,2.86-.83,3.65l-6.96-4.15-.26-1.35c-.06-.32-1.02-.93-1.21-.66l-.79,1.33c-1.69-1.07-3.38-2.53-4.97-4.05.07-.92.59-4.39,1.62-4.2l4.26.76Z"/>
  <path class="cls-17" d="M544.6,449.36l-3.43-.14,7.77-9c5.91-6.85,9.1-14.62,8.96-23.41l-.12-7.44c-.05-2.89-.25-5.7.15-8.88,4.3,20.12.9,34.62-13.32,48.87Z"/>
  <path class="cls-28" d="M491.88,250.42l-.35,4.33c-9.23-3.8-15.95-7.84-27.89-5.66l-.52-3.39c10.69-2.37,19.2.54,28.77,4.73Z"/>
  <path class="cls-26" d="M440.89,549.27l-2.25,2.26-1.07,1.19c-6.9,7.65-16.06,14.47-25.04,19.96l-1.05-3.04,20.26-15.11c2.26-1.69,4.81-4.59,6.83-4.97l2.32-.27Z"/>
  <path class="cls-27" d="M353.04,465.52c8.93,4.39,17.14,9.1,23.69,16.26-13.89-8.3-26.28-16.54-42.51-20.35,6.7-2.48,12.62,1.05,18.82,4.09Z"/>
  <path class="cls-15" d="M429.84,487.78l-4.36,5.71c-1.93,2.52-4.42,4.92-6.9,7.03l-14.68,12.5-.63-3.28,10.11-8.51c5.45-4.59,11.54-8.91,14.93-14.84l1.53,1.4Z"/>
  <path class="cls-15" d="M371.67,461.01c4.77,2.65,10.73,3.68,13.02,9.79-13.11-8.34-26.13-14.17-42.42-16.3,8.31-2.03,20.58,1.61,29.4,6.51Z"/>
  <path class="cls-21" d="M345,566.01l-2.31-1.81c3.89-3.92,8.1-9.45,10.74-14.88l11.19-23c-2.34,14.43-9.72,26.56-18.56,37.31.16.59.49,1.87.14,1.82l-1.2.56Z"/>
  <path class="cls-26" d="M440.53,482.64c-.52,1.19-2.43,2.28-4.01,2.99l1.72-9.21.03-22.78c0-2.8-2.38-5.9-1.31-9.17,3.84,7.03,5.04,18.64,3.94,27.22l-1.11,8.71c-.06.49.42,2.73.73,2.25Z"/>
  <path class="cls-21" d="M357.67,484.88c-10.41-8.6-21.67-13.92-33.3-20.36,14.23,2.1,25.76,10.98,35.74,20.87-.56,1.4-2.72,1.21-2.44-.51Z"/>
  <path class="cls-22" d="M426.13,434.98c-.16,6.15-4.3,12.06-8.24,16.67l5.84-18.04c2.26-6.98.39-13.75-1.1-21.2,1.63,1.35,3.95,4.93,3.9,7.01l-.4,15.56Z"/>
  <path class="cls-8" d="M361.82,312.3l12.96-.97-3.45-.94c-.6-.16-1.01-.91-1.04-1.77l5.84-.02c3.64-.01,6.44-.56,9.47-2.62-3.83,8.36,4.47,8.34,4.83,14.6-2.24-1.72-5.79-7.46-8.74-7.53l-19.87-.75Z"/>
  <path class="cls-24" d="M346.27,317.25l-.66,3.64c-.17.03-.67-.16-.87-.22l-1.13.31c-4.19-3.83-7.51-.09-13.85-5.42-5.12-4.3-7.36-11.37-3.41-17.21.46,3.87-.31,9.5,1.62,11.82,4.73,5.69,12.17,6.08,18.3,7.08Z"/>
  <path class="cls-30" d="M655.96,828.32l-1.31-7.35-6.34-2.27c2.6-.62,6.1-1.84,6.57-3.54l1.67-6.14,2.16,7.34c.47,1.58,4.33,1.66,6.83,2.57l-6.27,1.72-3.31,7.67Z"/>
  <path class="cls-3" d="M535.38,809.18l2.08.15-.21,3.2-16.7,8.23-1.22-3.48,12.01-6.23c1.41-.73,2.94-1.89,4.03-1.88Z"/>
  <path class="cls-15" d="M397.63,460.41l10.12-7.59c6.8-5.5,10.21-12.48,11.36-21.39.98,2.7.77,5.29.17,8.72-3.74,9.23-10.25,17.99-21.65,20.26Z"/>
  <path class="cls-29" d="M642.72,444.41l-2.25,1.32-3.23-2.96c-6.08-5.59-11.68-10.33-19.24-13.98-1.27-.61-3.43-2.28-4.68-3.36,12.06,3.33,22.12,10.01,29.4,18.98Z"/>
  <path class="cls-8" d="M489.83,418.83l.88-2.43c3.81,6.61,4.75,14.79,5.01,22.97,1.02,3.34,1.54,7.02-.79,9.37l-.94-7.45-3.1-18c-.29-1.66-1.25-3.39-1.06-4.46Z"/>
  <path class="cls-22" d="M440.62,676.37l1.45-.14c.51-.07.33-1.51.75-1.76,1.99,9.62,0,22.12-6.24,30.87l3.66-15.23.38-13.74Z"/>
  <path class="cls-24" d="M349.55,359.5l2.13,2.42-4.21,2.62c-.67.41-1.69,1.55-2.03,2.24-1.35,2.72-2.59,8.36-7.74,10.03l5.33-12.88c.94-2.27,4.57-4.59,6.53-4.43Z"/>
  <path class="cls-29" d="M440.62,295.52l1.16,3.58c.39,1.01,3.92-.31,4.93-.66l5.77,2.31-12.01,7.5,5.61-7.47c-4.4-.37-6.73,1.33-9.29,3.91l.37-2.53c.07-.5-1.51-.71-1.93-.72,1.19-.9,2.76-3.31,3.27-4.89l2.12-1.03Z"/>
  <path class="cls-21" d="M336.92,350.53l-.36,7.04c-.03.5-1.06,1.71-1.36,2.1-1.92,2.52-4.64-17.09,12.65-24.29-4,5.01-8.71,8.64-10.93,15.16Z"/>
  <path class="cls-3" d="M521.52,776.34l-1.43-5.86-5.58-2.27,4.84-1.42,2.65-6.61,1.56,5.63c.33,1.19,2.96,1.51,5.44,1.66l.04,1.71c-2.08.05-4.68.02-5.09,1.05l-2.44,6.11Z"/>
  <path class="cls-21" d="M346.11,270.59c-1.15,1.82-3.08,5.97-3.17,8.23l-.51,13.91-1.06-.61-1.05-12.69-.89-5.6,1.97-4.27c.49-1.05,3.69.13,4.71,1.03Z"/>
  <path class="cls-8" d="M440.89,549.27l-2.32.27,5.22-7.96,10.18-18.71c-.72,10.05-6.86,20.17-13.08,26.4Z"/>
  <path class="cls-13" d="M510.38,543.5c-.21-.15-1.12,1.02-.87,1.43l.96,1.57,1.68,6.03-2.15,7.15c-1.41-1.62-3.21-4.44-3.44-6.04.41-1.14.92-3.54.75-4.8l-.86-6.41,3.04-1.61.9,2.68Z"/>
  <path class="cls-17" d="M575.7,261.75c4.68,1.49,16.82,12.6,17.56,19.48-5.14-6.51-10.04-12.27-17.02-16.22l-4.51-2.72c.9-.21,3.13-.81,3.97-.54Z"/>
  <path class="cls-15" d="M377.49,516.96l2.46-.13-3.49,11.32-8.92,18.18c-1.14-3.92,1.34-6.32,2.77-9.26,3.14-6.44,5.66-13.01,7.18-20.11Z"/>
  <path class="cls-8" d="M500.86,383.35l-4.44,2.47-8.2-6.32,9.22,4.31-4.61-9.71c-1.25-2.63-1.5-6.93-1-9.46,2.18,7.08,4.61,13.54,9.02,18.72Z"/>
  <path class="cls-27" d="M438.49,296.55c-.5,1.58-2.08,3.99-3.27,4.89-4.7,3.54-8.75,8.31-12.61,13.12.89-9.32,9.13-14.74,15.88-18.01Z"/>
  <path class="cls-15" d="M336.82,510.59c-.13.56-.34,1.79-.93,1.8l-3.38.05c-1.32.02-3.81.2-3.86,1.2l-.18,3.65-8.87-3.59,3.02-3.27c.42-.42.85-1.31,1.04-1.87l6.42.26-3.08,2.43,9.83-.65Z"/>
  <path class="cls-7" d="M223.93,600.82c-2.23.5-4.53.8-5.54,1.45s-1.74,3-2.59,4.57c-1.11-3.3-2.31-5.28-4.79-6.85,1.87-1.54,4.34-4.29,5.46-6.32.36,2.5,2.07,4.84,4.13,5.72l3.33,1.42Z"/>
  <path class="cls-21" d="M294.82,435.79l-2.58-1.21c1.56-1,2.53-4.87,2.5-7.31l-4.8,2.67-2.26-2.16,3.6-2.75c.8-.64,2.69-1.43,3.64-1.44.76,0,2.32,1.68,2.56,2.51.87,2.99-.54,7.4-2.66,9.7Z"/>
  <path class="cls-24" d="M322.62,510.42l-3.02,3.27-1.37-.64c.18-.69-.5,1.94-.5,2.55l-1.16,1.59c-.3.41-1.94.27-1.96-.23l-.06-2.49-2.27-8.59,10.33,4.54Z"/>
  <path class="cls-21" d="M374.02,558.68l-.79-2.14,8.6-4.94c2.82-1.62,4.81-2.98,8.56-3.88-1.6,5.43-6.78,6.26-11.08,8.36l-5.3,2.6Z"/>
  <path class="cls-17" d="M551.47,282.56l-1.43,1.51c-6.71-4.55-14.87-6.36-23.34-9.52,9.33-.99,17.5,3.83,24.77,8.01Z"/>
  <path class="cls-19" d="M312.67,514.55l1.89-.08.06,2.49c.01.5,1.65.64,1.96.23l1.16-1.59.98-.11,1.16,2.91-1.2,3.34-2.07-1.1-2.81-2.23c-.21-.11-.89.04-1.11.04l-1.05-1.09-1.15,1.97-1.24,2.13c-.25.42-1.11-1.16-1.22-1.64l-.3-1.22c-.04-.79-.12-3.56.83-3.65l4.12-.39Z"/>
  <path class="cls-8" d="M357.55,704.59l1.18-1.35c5.93,3.94,17.62,2.56,26.29-1.64-5.06,7.44-20.04,7.09-27.47,2.99Z"/>
  <path class="cls-6" d="M336.82,510.59l-9.83.65,3.08-2.43-6.42-.26c.16-.49.62-2.05,1.13-2.05h10.67c.77,0,2.66,1.75,2.32,2.38l-.95,1.71ZM332.5,508.11c-2.33-.22-2.16-.2.43.04,1.06.1.67.06-.43-.04Z"/>
  <path class="cls-24" d="M256.71,673.43l-.98,2.75c-7.5-.99-14.23-7.84-16.89-14.75,5.55,5.93,10.84,10.64,17.86,12Z"/>
  <path class="cls-21" d="M358.73,703.24l-1.18,1.35-7.21-3.98c-3.09-1.7-5.23-4.57-7.14-6.94l1.57-2.42c3.29,4.92,8.91,8.64,13.95,11.99Z"/>
  <path class="cls-25" d="M461.57,315.86l3.96-1.11,4.99-1.26c5.64,1.8,11.64,5.6,11.52,12.91-4.44-8.45-11.77-12.19-20.47-10.53Z"/>
  <path class="cls-11" d="M337.62,324.81c-2.21-.07-4.38-.38-6.21-1.72l12.2-2.11,1.13-.31c1,1.85-1.56,6.78-3.38,5.92l-3.74-1.77Z"/>
  <path class="cls-17" d="M682.35,810.81c-.72,1.47-2.43,3.57-3.74,4.16s-4.63-1.94-4.46-3.37c.19-1.53,1.79-3.69,2.95-4.54l5.25,3.75Z"/>
  <polygon class="cls-15" points="308.93 222.78 302.54 219.45 308.03 215.16 313.61 219.5 308.93 222.78"/>
  <path class="cls-27" d="M393.68,238.85c.34-1.56-.85-4.63-.85-6.19l-.02-13.99c3.33,3.8,2.71,14.01.87,20.18Z"/>
  <path class="cls-21" d="M308.04,411.36c1.02-2.71,1.73-3.78,2.96-5.41l8.81-11.26c-.46,2.59-1.23,4.96-2.23,7.56l-9.55,9.11Z"/>
  <path class="cls-27" d="M341.63,597.41l-10.97,13.37c.39-.67.51-3.33-.31-3.67l5.58-6.5,2.69-4.22,1.01-.41,1.99,1.44Z"/>
  <path class="cls-17" d="M457.49,321.46l-4.22-.86c-.23,0-.45-1.38-.01-1.56l1.33-.57,1.82,1.32c5.09-2.89,11.98-2.02,15.28,2.92-5.1-2.09-9.77-2.76-14.2-1.25Z"/>
  <path class="cls-27" d="M350.51,366.28l1.57,6.17c.41,1.39,4.7,2.02,5.81,1.58l-4.15,2.83c-3.12-1.8-5.44-6.02-6.01-9.03l2.77-1.55Z"/>
  <path class="cls-29" d="M470.66,257.71l-3.22-1.23c6.27-1.9,12.82-1.66,19.23,1.03l-10.09-.16-5.92.36Z"/>
  <path class="cls-8" d="M510.85,908.03l3.64-1.19c.02,4.87-.65,9.72-2.46,14.51l-1.18-13.32Z"/>
  <polygon class="cls-27" points="418.68 839.07 416.66 843.09 410.65 842.25 410.71 838.05 418.68 839.07"/>
  <path class="cls-21" d="M302.78,712.36c3.28,4.53,8.44,7.67,12.99,11.9-6.33-1.81-11.4-7.14-15.29-11.79l2.3-.11Z"/>
  <path class="cls-21" d="M366.87,253.05l-1.05-2.39c3.63-2.19,4.89-7.11,6.32-12.06,2.03,5.72-.89,11.14-5.27,14.45Z"/>
  <path class="cls-30" d="M664.77,579.18c-.45-2.84-2.03-4.59-5.39-6.24l3.27-.8c.93-.23,1.6-2.23,2.21-3.69l2.04,5.29-2.12,5.44Z"/>
  <path class="cls-17" d="M416.66,843.09l19.92.21c.56.15-1.74.88-2.46.88h-20.45c-1.1.01-3.82-1.35-4.08-1.98l1.05.05,6.01.84Z"/>
  <path class="cls-8" d="M345,566.01l4.72-1.58.7,1.54-8.68,3.36-2.23-.48c-.51,0-1.41.54-1.82.85l5-5.5,2.31,1.81Z"/>
  <path class="cls-29" d="M517.55,897.13l3.1-1.85c2.55,2.72,4.76,5.11,7.23,9.33l-10.34-7.48Z"/>
  <path class="cls-8" d="M429.84,487.78l-1.53-1.4,6.89-12.08c-.13,5.12-2.5,9.72-5.37,13.47Z"/>
  <path class="cls-8" d="M417.61,133.96l1.05-2.94,8.33-2.05s.44,1.72.6,2.34c.15.58-1.75.92-2.33,1.05l-7.66,1.6Z"/>
  <path class="cls-17" d="M430.52,821.89l5.07,1.51,1.14,1.05-11.5,1.77c1.59-1.76,3.63-3.16,5.28-4.32Z"/>
  <path class="cls-29" d="M523.82,892.35l3.59-1.37c.45-.08,2.23.05,2.14-.33l-.55-2.53c2.84.46,6.56-1.24,9.68,1.71l-14.87,2.52Z"/>
  <path class="cls-27" d="M396.5,840.47l-11.86-3.39c4.12.33,8.56.95,11.86,3.39Z"/>
  <path class="cls-29" d="M522.82,881.46l-1.36-2.53c1.47-1.32,3.38-2.7,6.19-4l-4.82,6.53Z"/>
  <path class="cls-28" d="M647.27,540.36c.23-2.93,2.13-6.85,5.2-7.79l-5.2,7.79Z"/>
  <polygon class="cls-27" points="356.73 360.87 351.68 361.92 349.55 359.5 356.73 360.87"/>
  <path class="cls-29" d="M551.17,319l-6.99-5.07c3.52.08,5.88,1.89,6.99,5.07Z"/>
  <path class="cls-11" d="M351.48,280.6l6.34-8.9-2.19,5.31c-.54,1.32-2.65,3.41-4.15,3.59Z"/>
  <path class="cls-19" d="M304.78,507.38l-4.09-.79,1.39-2.28c.37-.4,1.88.67,2.05,1.18l.65,1.89Z"/>
  <path class="cls-17" d="M560.51,259.48l-7.98-.63c2.42-.31,5.69.05,7.98.63Z"/>
  <path class="cls-16" d="M342.71,596.38l-1.08,1.04-1.99-1.44,1.86-1.34c.48-.35,1.56,1.36,1.21,1.74Z"/>
  <path class="cls-27" d="M404.66,842.04l-6.97-2.05c2.44.09,5.56.63,6.97,2.05Z"/>
  <path class="cls-28" d="M643.54,548.55l.07-3.22c.13-.9,1.82-1.53,2.81-1.78l-2.88,5Z"/>
  <path class="cls-24" d="M318.67,521.73l1.2-3.34.9,3.51c.16.63-1.69.21-2.11-.18Z"/>
  <path class="cls-27" d="M395.64,835.2l-.04,1.32-.63.65c-.24.25-1.43-.24-1.43-.59s.25-1.24.6-1.27l1.5-.11Z"/>
  <path class="cls-3" d="M504.42,830.99l-4.06,1.25,4.06-1.25Z"/>
  <path class="cls-20" d="M390.63,721.25l-3.94-.98,3.94.98Z"/>
  <path class="cls-19" d="M300.76,514.44l-2.26-.68.79-1.33c.18-.27,1.14.34,1.21.66l.26,1.35Z"/>
  <path class="cls-24" d="M316.6,520.63l-2.81-2.23,2.81,2.23Z"/>
  <path class="cls-19" d="M311.74,480.56c-.1.14-1.43,1.45-1.57.99l-.49-1.98,2.05.99Z"/>
  <path class="cls-27" d="M366.69,363.59c-.41.39-.88.88-1.09.57l-1.01-1.54,2.1.97Z"/>
  <path class="cls-22" d="M442.54,671.34l-.86-3.08.86,3.08Z"/>
  <path class="cls-13" d="M502.56,553.44l-.99-2.97c.4.72.89,2.11.99,2.97Z"/>
  <path class="cls-27" d="M279.83,810.14l-2.53-1.08c.77-.41,1.07-.65,1.3-.38l1.23,1.45Z"/>
  <path class="cls-19" d="M336.67,570.45l-1.14,1.52c-.22.3-.52.04-.91-.63l2.05-.89Z"/>
  <path class="cls-15" d="M318.23,513.05l.48,2.43-.98.11c0-.61.68-3.24.5-2.55Z"/>
  <path class="cls-20" d="M376.55,538.39l2.04-2.07-.18,1.92c-.05.54-1.11.47-1.86.15Z"/>
  <path class="cls-18" d="M510.47,546.5l-.96-1.57c-.25-.41.66-1.58.87-1.43l.09,3Z"/>
  <path class="cls-13" d="M481.45,585.49l-2-3.04,1.99,1.4c.44.31.87,1.63,0,1.64Z"/>
  <path class="cls-27" d="M359.68,361.59c-.39.38-.87.89-1.07.59l-.96-1.52,2.04.93Z"/>
  <path class="cls-22" d="M440.62,673.3l-1.26-2.96c.55.68,1.26,2.14,1.26,2.96Z"/>
  <path class="cls-4" d="M402.62,833.19l-2.98,1.13,2.98-1.13Z"/>
  <path class="cls-27" d="M408.57,838.11c.13.46-1.05,1.38-1.45,1.11l-1.53-1.05,2.98-.06Z"/>
  <path class="cls-29" d="M455.59,299.8l-2.03.86,2.03-.86Z"/>
  <path class="cls-25" d="M460.52,315.59l-1.94,1.17,1.94-1.17Z"/>
  <path class="cls-28" d="M637.22,551.44l3.37-5.84c-.85,2-2.21,3.99-3.37,5.84Z"/>
  <path class="cls-4" d="M405.51,831.92l-1.92,1.19,1.92-1.19Z"/>
  <path class="cls-22" d="M721.42,660.6l.6-2.5-.12,1.54c-.03.35-.17.64-.48.96Z"/>
  <path class="cls-29" d="M521.64,886.92c-.45-.07-1.45-.57-1.83-.8-.52-.32.28-1.47.67-1.93l1.16,2.73Z"/>
  <path class="cls-20" d="M345.63,829.25l-2.32-.9,2.32.9Z"/>
  <path class="cls-29" d="M522.42,892.05l-2.13,2.05c-.42-.47-.74-.95-.37-1.09l2.5-.96Z"/>
  <path class="cls-22" d="M511.51,280.67l-2.01-.92,2.01.92Z"/>
  <path class="cls-21" d="M305.59,481.72l-5.88-3.19,5.88,3.19Z"/>
  <path class="cls-13" d="M506.52,552.43l-1.16-1.24c-.32-.45-.57-1.89.11-1.72l1.05,2.96Z"/>
  <path class="cls-20" d="M342.66,725.21l-2.21-.7,2.21.7Z"/>
  <path class="cls-29" d="M514.47,901.17c0-.56.55-1.7.92-2.16l-.92,2.16Z"/>
  <path class="cls-26" d="M482.54,836.22l-1.99.94,1.99-.94Z"/>
  <path class="cls-9" d="M643.38,753.25l1.15-.8-1.15.8Z"/>
  <path class="cls-13" d="M503.26,555.65l-.59-1.25.59,1.25Z"/>
  <path class="cls-8" d="M437.57,552.71l1.07-1.19-1.07,1.19Z"/>
  <path class="cls-28" d="M641.69,551.68l.6-1.28-.6,1.28Z"/>
  <path class="cls-13" d="M692.27,723.26c-.03-.22,1.05-.79,1.4-.87l-1.4.87Z"/>
  <path class="cls-17" d="M542.62,451.69l.82-1.16-.82,1.16Z"/>
  <path class="cls-9" d="M595.27,775.26l1.27-.92-1.27.92Z"/>
  <path class="cls-5" d="M489.66,226.67h-1.14s1.14,0,1.14,0Z"/>
  <path class="cls-26" d="M432.62,498.61l1.99-2.11-1.99,2.11Z"/>
  <path class="cls-15" d="M446.63,214.12l1.94-2.39c-.34.64-1.35,1.91-1.94,2.39Z"/>
  <path class="cls-15" d="M334.63,162.79l1.35.2-1.35-.2Z"/>
  <path class="cls-5" d="M702.41,704.46l.9-1.16-.9,1.16Z"/>
  <path class="cls-10" d="M350.65,827.29l1.04.03-1.04-.03Z"/>
  <path class="cls-5" d="M705.32,702.32l1.06-.94-1.06.94Z"/>
  <path class="cls-13" d="M500.48,548.48l-.73-1.12.73,1.12Z"/>
  <path class="cls-13" d="M499.29,545.53l-.72-1.04.72,1.04Z"/>
  <path class="cls-26" d="M484.85,836.14l-1.37.04,1.37-.04Z"/>
  <path class="cls-24" d="M346.98,317.1l1.34-2.52-1.34,2.52Z"/>
  <path class="cls-26" d="M413.57,514.51l2.2-1.76-2.2,1.76Z"/>
  <path class="cls-24" d="M312.68,518.43l-1.05-1.09,1.05,1.09Z"/>
  <path class="cls-16" d="M335.68,597.38l-3.06,3.07,1.02-2.5c.24-.46,1.55-.4,2.04-.57Z"/>
  <polygon class="cls-17" points="555.39 283.86 555.49 282.69 557.43 284.22 557.96 284.7 558.46 285.21 559.2 285.94 558.69 286.49 557.97 285.71 557.47 285.17 556.97 284.68 555.39 283.86"/>
  <path class="cls-7" d="M784.37,605.49c-.93,1.67-1.97,3.25-3,4.01.37-3.44.93-6.8,4.03-10.42l-1.04,6.4Z"/>
  <path class="cls-22" d="M717.94,653.53l-.42-6.24c.44,1.84.67,4.72.42,6.24Z"/>
  <path class="cls-7" d="M778.15,618.31l.42,1.51-1.03.66c-.45.29-1.92-1.38-1.41-1.54l2.01-.63Z"/>
  <path class="cls-7" d="M780.27,615.35l3.95-3.94-3.95,3.94Z"/>
  <path class="cls-22" d="M715.95,653.32s-.28-.87-.61-1.49l.61,1.49Z"/>
  <path class="cls-12" d="M491.5,699.38l.88-3.15-.88,3.15Z"/>
  <path class="cls-29" d="M537.46,809.32l-2.08-.15.07-1.13c-.04-.06,1.52-1.36,1.63-.88.13.57.43,1.67.38,2.16Z"/>
  <path class="cls-29" d="M780.22,660.92l-13.15,8.7,1.95,1.31,5.17,2.43-9.81-.04,1.73-5.68,8.97-6.12c-.46-.09-3.65-.39-4.89-.16l10.02-.44Z"/>
  <path class="cls-17" d="M760.28,674.5c3.18,2.59,8,1.06,11.78,5.93l-9.55-2.44-4.56-2.45c.5-.28,1.66-.84,2.33-1.04Z"/>
  <path class="cls-30" d="M607.72,541.63l-3.08.84,3.08-.84Z"/>
  <path class="cls-4" d="M496.48,116.84l-4.91.2,4.91-.2Z"/>
  <path class="cls-19" d="M341.74,569.33l-.77.99c-.21.27-1.17-.03-1.26-.37l-.21-1.1,2.23.48Z"/>
  <polygon class="cls-8" points="486.19 410.08 486.86 410.08 487.51 410.1 486.86 410.12 486.19 410.12 485.54 410.1 486.19 410.08"/>
  <polygon class="cls-8" points="728.2 233.73 714.58 233.81 721.3 232.73 728.2 233.73"/>
  <path class="cls-8" d="M713.35,233.9l-4.03,1.05,4.03-1.05Z"/>
  <path class="cls-8" d="M733.21,234.8l-3.89-1.07,3.89,1.07Z"/>
  <path class="cls-8" d="M738.31,235.66l-3.93-.97c1.04-.1,2.93.56,3.93.97Z"/>
  <path class="cls-15" d="M332.93,508.15c1.06.1.67.06-.43-.04-2.33-.22-2.16-.2.43.04Z"/>
  <path class="cls-29" d="M775.25,673.28l2.82-.18.2-3.92c5.52-.96,11.33-1.86,17.92.44l-15.87,1.28c.28,1.53,2.08,2.79,4.55,3.51,1.69-.36,1.28,2.35-.01,2.07l-9.61-3.21Z"/>
  <polygon class="cls-15" points="778.27 669.18 778.07 673.1 775.25 673.28 774.2 673.35 769.02 670.92 778.27 669.18"/>
</svg>