<?xml version="1.0" encoding="UTF-8"?>
<svg id="Layer_1" data-name="Layer 1" xmlns="http://www.w3.org/2000/svg" viewBox="0 0 1024 1024">
  <defs>
    <style>
      .cls-1 {
        fill: #b37e4e;
      }

      .cls-2 {
        fill: #a29387;
      }

      .cls-3 {
        fill: #89705c;
      }

      .cls-4 {
        fill: #c1a88b;
      }

      .cls-5 {
        fill: #b39a7e;
      }

      .cls-6 {
        fill: #b1977a;
      }

      .cls-7 {
        fill: #9a7d62;
      }

      .cls-8 {
        fill: #cda373;
      }

      .cls-9 {
        fill: #503a28;
      }

      .cls-10 {
        fill: #a1856d;
      }

      .cls-11 {
        fill: #8f715a;
      }

      .cls-12 {
        fill: #907b69;
      }

      .cls-13 {
        fill: #a38971;
      }

      .cls-14 {
        fill: #71553d;
      }

      .cls-15 {
        fill: #ba8f64;
      }

      .cls-16 {
        fill: #b89e82;
      }

      .cls-17 {
        fill: #ab9279;
      }

      .cls-18 {
        fill: #7f6959;
      }

      .cls-19 {
        fill: #e4b885;
      }

      .cls-20 {
        fill: #886953;
      }

      .cls-21 {
        fill: #806752;
      }

      .cls-22 {
        fill: #866e59;
      }

      .cls-23 {
        fill: #99806c;
      }

      .cls-24 {
        fill: #c3996e;
      }

      .cls-25 {
        fill: #3f2b1c;
      }

      .cls-26 {
        fill: #694c35;
      }

      .cls-27 {
        fill: #907660;
      }

      .cls-28 {
        fill: #867261;
      }

      .cls-29 {
        fill: #785d4a;
      }

      .cls-30 {
        fill: #95775e;
      }
    </style>
  </defs>
  <path class="cls-7" d="M161.93,296.03l-2.24-1.82c20.07-33.27,46.5-67.14,75.14-93.34l14.14-12.94c53.28-45.47,116.43-78.21,185.09-91.18.37.85.73,3.08.09,3.1l-2.6.1c-36.68,7.31-71.02,20.26-104.29,37.55-68.75,37.31-125.42,91.21-165.33,158.52Z"/>
  <path class="cls-27" d="M305.91,669.51c-8.45,6.13-7.8,26.34-1.68,37.03l-.59-5.29,2.14,3.05c.42,9.35,4.96,17.25,11.68,24.14l.25-3.25,1.25,4.17c.33,1.1,2.99.77,3.6.07l.93-.2c-2.21,6.07,1.38,13.65,6.27,18.16-.12,1.93.95,4.18,2.83,5.28,3.52,11.17,13.15,28.32,13.61,27.47l.92-1.59c.19,1.15.11,3.32-.45,4.73-.14.13.84,1.19,1.1.91l1.27-1.37c4.48,9.83,10.53,18.89,18.39,26.6l11.72,11.5c-.05-2.6-.67-3.88-1.71-5.64l1.5-.26c10.15,18.97,35.12,24.55,55.91,26.96l-2.42-2.75c.17.02.62-.18,1-.65l4.37,2.52c.69.4,2.07.9,2.8,1.01l-.09,2.06-7-.61c-6.15-.54-11.7-.86-17.82-2.58l-16.85-4.75-5.27-2.95c-1.86-.83-4.1-1.96-5.7-3.28l-15.4-12.7c-6.45-5.32-12.55-13.06-20.7-13.78l-.06-2.72,5.44,2.43.73-.64c-4.19-7.81-9.95-14.53-16.92-20.67-2.65-2.71-6.32-6.27-9.22-7.51l2.19-1.37,7.99,6.22.54-1.08-12.96-23.4-3.78-7.66c-12.26-24.81-31.75-45.72-59.99-45.95l.59-1.67c.14-.32,1.33-.3,1.63-.56,8.25.58,17.76,3.85,25.07,7.28l.6-.38c-2.34-2.65-4.51-5.38-6.14-8.31l2.18-3.58c.62-1.37,3.29-3.19,4.55-2.51l3.33,1.81.54-11.97c.1-2.29.42-4.99-.03-6.91l-.47-1.98c1.76,0,3.95-3.98,3.75-5.9l2.03-1.43c.49-.3,1.73.83,1.76,1.45l.81,3.01ZM294.27,706.27l-.5.46,10.04,6.75c-1.45-4.72-5.46-7.79-9.53-7.22ZM343.19,780.92v-1.43s0,1.43,0,1.43ZM359.38,803.78l-1.24-.07c-1.06-.06-1.04-.06,1.24.07Z"/>
  <path class="cls-11" d="M790.08,815.52l-3.59,1.71-.07-2.16,23.4-23.36c28.84-31.23,52.88-65.89,71.2-104.45,15.17-32.64,26.3-65.92,32.5-101.07l2.1-.84c.41-.16.68,1.78.59,2.28-14.24,76.55-49.78,146.95-102.5,204.05l-23.64,23.85Z"/>
  <path class="cls-21" d="M220.39,762.96c2.89,3.45,6.69,6.23,5.62,9.98-57.99-64.16-92.21-144.41-98.7-229.6-.5-6.56-1.14-11.94.68-18.83l1.73,15.97c6.11,83.52,36.83,158.25,90.68,222.47Z"/>
  <path class="cls-20" d="M214.1,792.08l-.73,3.2-12.07-12.8c-48.82-55.77-83.14-123.86-95.64-197.87,7.33,12.24,6.97,25.91,11.5,38.65,15.59,57.68,54.86,127.67,96.95,168.83Z"/>
  <path class="cls-22" d="M790.08,815.52c-52.96,49.56-119.23,85.53-190.84,100.37-3.56.74-7.28,2.7-10.64-.24,74.66-14.16,142.71-49.75,197.81-100.57l.07,2.16,3.59-1.71Z"/>
  <path class="cls-11" d="M780.62,192.91l-1.58,1.45-10.2-8.16c-25.56-21.74-53.35-39.41-83.33-54.54-31.39-15.85-63.39-25.07-98.18-33.91,38.46,2.65,88.05,24.65,121.7,43.47,26.16,14.63,49.45,32.46,71.58,51.69Z"/>
  <path class="cls-16" d="M476.87,442.69c-1.86,5.22-4.38,10.23-9.13,14.18-9.07,7.55-20.13,13.07-32.14,14.37-10.13,1.1-20.67,3.03-27.28,11.15l-4.78,5.88-11.62,19.26c9.1,1.93,15.08,5,21.75,9.91l8.62,6.34c8,5.89,17.14,7.28,26.88,7.38l5.46.06,6.14,1.02-1.24,1.24-17.61-.03-.81,4.17-1.04-3.98c-3.78-1.1-9.34-1.64-12.71-3.94l-20.14-13.72c-5.99-4.08-13.04-6.53-19.84-5.15l-3.72,5.62c-.38.63-.92,1.93-1.21,2.74-.31.89,2.29,1.49,3.08,1.3.28-.02,1.2-.12,1.5-.06l-.63,1.8-.55-.1c-.19-.15-.78-.61-.75-.64.04-.03-.61,1.02-.55.8l-6.76.62c-1.78.16-3.16,3.77-3.23,5.65l-3.02.23c-2.04-6.02,6.12-7.1,8.12-10.01,3.29-4.77,4.32-8.93,9.05-12.51,7.01-5.32,13.06-34.21,41.78-36.56,17.93-1.46,41.34-13.09,44.69-29.25l1.67,2.21Z"/>
  <path class="cls-6" d="M526.46,418.75c-5.97,8.91-7.47,23.99.51,28.35,8.72,4.77,19.92,7.35,29.55,6.52,2.93-.25,5.19-.53,8.12-.4l18.75.77c4.89.2,11.24,4.25,14.67,7.81,7.91,8.22,13.48,17.57,18.26,27.75,3.49,7.43,7.9,13.63,12.92,20.06,3.88,4.98,7.73,9.5,13,13.08,2.65,5.39,6.75,9.01,12.04,10.9l-1.57,5.3c-.1.35-.28,1.52-.12,1.82l.86.74-2.17,7.11-.4-5.87-1.43,2.87-1.38-2.18,1.32-6.26c-1.41,1.67-2.33,2.81-2.96,4.03l-2.54.14,3.03-5.11c.27-.45.3-2.24.17-2.76s-1.4-.47-1.76-.1l-3.91,4.12,3.2-6.51c-1.5-2.66-4.36-7.31-6.69-8.77l-2.72-1.7-8.95-10.85c-6.62-8.03-11.15-16.17-15.43-25.56-2.88-6.32-7.26-12.14-11.52-17.28-7.56-9.12-17.73-12.42-28.73-11.35-1.91-.53-5.06-.87-7.3-.57-2.86.38-4.51,1.85-5.58,4.46l-.94-.94c-.2-.55-.51-1.53-1.06-1.58l-2.23-.18c-10.2-.82-19.89-3.61-28.6-7.76l-.58,2.15c-.09.35-.5.45-.66.15l-.93-1.79-3.02-6.75.62-1.82c.21-.61-1.39-1.32-2.16-1.27l.81-.77c.23-1.04.57-3.11.52-4.26-.24-5.57,1.15-12.46,5.86-15.99l1.14.23Z"/>
  <path class="cls-10" d="M260.86,213.19c-1.74,1.61-3.21,2.09-4.55.35,22.59-20.74,46.48-39.17,73.43-53.47l17.72-9.4c28.61-13.16,58.17-26.12,90.11-29.22-28.31,8.59-54.7,15.22-80.67,27.7-35.08,16.86-67.24,37.37-96.04,64.04Z"/>
  <path class="cls-8" d="M520.57,188.48c9.83.91,19.11,9.2,24.21,18.14l2.14,10.88c1.26,5.54.16,11.82-.55,17.15l.29,1.26-6.77,9.24c-2.74-.58-5.39-2.32-6.6-4.36,5.45-9.01,6.91-19.06,2.88-29.61-3.21-8.4-10.14-15.93-19.84-19.17l4.24-3.53Z"/>
  <path class="cls-8" d="M505.38,120.8l.06,4.05-8.81.08-1.97-3.72,3.54-1.48-3.28-7.24c-2.72-10.45,6.02-20.34,16.39-20.82,7.64-.35,13.73,3.12,17.07,8.96,3.57,6.26,2.31,13.02-2.1,19.15l14.07.32c1.44.03,1.42,5.64-.03,5.65l-20.01.09c-1.49,0-1.91-4.6-.6-5.63,5.77-4.53,7.62-12.92,3.14-18.45-3.94-4.85-10.27-6.2-15.61-3.85-4.63,2.04-8,6.67-7.5,12.67.32,3.86,3.03,8.45,5.65,10.22Z"/>
  <path class="cls-30" d="M767.58,214.96c-27.08-20.18-51.25-42.04-81.9-56.36-30.57-18.16-63.5-26.92-98.37-37.02,29.88,2.11,56.89,14.99,84.14,26.17,34.3,18.04,68.74,37.66,96.13,67.21Z"/>
  <path class="cls-3" d="M686,762l1.68,1.4-9.55,17.56,12.09-9.88c.36.22,1.15.63.93.51-.83.92-1.45,1.58-1.51,1.68-.03.05.73,1,.74,1.01-4.4,3.34-8.58,7.13-12.62,11.31l-5.5,5.69c-3.02,3.12-5.38,6.84-8.38,11.65,3.15-.88,5.91-1.73,8.29-2.95l3.93,3.04c-4.85-.17-10.24,1.25-14.47,4.33l-3.85,2.81-.74-2.27,8.21-10.69c8.69-11.31,12.88-28.26,1.02-35.91-12.93-8.33-7.23-23.37-9.55-29.35-4.98-12.81-9.59-25.43-7.89-38.88l4.85,25.8c3.13,16.67,20.73,18.65,23.16,30.73s-2.59,20.71-1.29,30.73c4.12-6.06,7.58-11.92,10.43-18.35ZM668.41,750.37c2.78,3.81,4.45,7.82,6.56,13.01,2.47-14.17-3.52-22.7-15.32-28.87-.94,9.22-.98,18.47,5.62,23.9l7.33,6.03-4.19-14.08Z"/>
  <path class="cls-22" d="M406.4,291.87c-3,1.76-4.8,5.64-6.53,8.83l.48-5.18c-2.79,2.43-3.5,6.11-2.09,9.88l7.1-7.74-1.83,5.45c-.31.93,1.5,2.69,2.41,3.2l5.77,3.24c-4.08.29-6.89-1.47-10.37-4.26l-4.29,7.99c-1.85,3.45-2.44,8.53.3,11.43,4,4.24,8.56,5.96,14.3,6.46-4.81,4.25-13.25-.81-17.97-7.49l-1.88-1.22-3.29-10.27c-5.59,3.12-8.55,7.97-7.95,14.78.37,4.15,3.89,10.03,8.75,11.17l2.2-1.39c.77,2.06,3.8,3.3,5.94,2.86l-3.81-5.59.7-.97c4.34,6.26,9.62,7.21,17.69,5.9-3.82,2.02-7.36,2.34-12.09,3.43,3.48,3.1,7.35,4.52,11.11,3.33,3.02-.95,5.54-3.49,8.4-6.09l-.71,5.1,7.56-5.4c-1.12,5.39-6.79,9.21-12.33,7.37-5.64,3.89-11.89,1.22-15.85-3.43l-12.52-4.83c-4.91-1.9-7.04-8.76-7.08-13.16-.1-11.55,10.08-14.75,9.1-17.09l-1.32-3.14c-1.81-4.32-1.55-7.76.15-11.69l1.59,1.41c-.72,2.74-.43,7.1-.37,10.76.98.58,1.61.99,1.95.68l2.79-2.57-.78,8.11,4.82-3.56c1.12-.83-1.13-4.65-1.46-6.13-.86-3.85,3.88-7.81,6.43-10.32l3.07-3.01,1.91,3.13Z"/>
  <path class="cls-3" d="M588.27,892.46c58.99-14.92,114.31-38.01,162.04-78.27l8.92-7.15,8.63-7.65c.29-.25,2.8.01,2.62.35-.27.51-1.01,1.77-1.72,2.4-50.17,44.12-112,79.72-180.49,90.32Z"/>
  <path class="cls-30" d="M880.41,325.46l-1.62,2.61c-23.67-48.56-55.42-92.43-95.45-129.22l-4.3-4.5,1.58-1.45,6.22,5.41,21.34,21.4,10.59,11.63c25.51,27.99,45.55,60.28,61.64,94.13Z"/>
  <path class="cls-16" d="M746.23,428.93c-7.11,4.95-14.77,8.83-23.33,12.27-3.47,1.4-6.94,4.29-7.98,7.94l-4.7,16.45-15.94,78.79c-3.03,14.99-9.34,28-17.15,40.75-2.16,3.53-4.39,8.22-8.25,8.92l-.16-1.65c3.21-2.94,5.35-6.76,7.78-10.92,7.55-12.93,13.25-26,16.2-40.79l7.3-36.61c3.59-18.02,6.66-35.51,11.74-53.15l3.62-9.04c10.66-4.16,20.39-8.81,29.77-14.36l1.1,1.4Z"/>
  <path class="cls-5" d="M308.66,594.53l2.54,3.4c.55.74,3.37-1.23,3.63-1.65,2.36,2.89,2.78,6.97-.12,10.24-9.27,12.35-23.21,20.12-37.91,23.15l-3.02-3.14c3.31.11,6.12-1,9.31-2.6,8.21-4.11,15.24-8.3,22.72-13.52,1.89-1.32,5.86-1.31,6.84-5.14l-24.89,3.04-10.13.79-16.9.31,8.01-1.06,7.01-.94c2.92.01,5.46-1.3,7.88-3.11,5.13,1.21,10.86,1.67,16.28.51l12.41-2.67c-7.56-3.26-14.6-3.34-22.39-4.15l-10.17-1.06-20.03-.56,1.86,2.71c.36.52-1.12,1.36-1.53,1.54l-5.33.81v-7.06s15,.7,15,.7l16.7.72,17.84,1.59,4.38-2.9Z"/>
  <path class="cls-6" d="M341.03,582.36l-1.73,1.21c-9.04-13.23-14.47-27.97-17.5-44.33l-11.07-59.66-6.9-30.13c-.67-2.94-3.45-6.68-6.15-7.66-9.93-3.62-18.18-8.26-26.21-14.09l.25-2.3,14.37,8.66,18.24,8.66c3.94,13.32,6.8,25.51,9.3,38.92l10.99,58.8c2.32,12.43,6.53,23.62,12.44,34.58l3.96,7.34Z"/>
  <path class="cls-14" d="M200.05,566.57l-.85,3.27,3.63,3.23c-.23.61-1.52,1.53-2.24,1.35l-7.77-13.12c-6.44,1.15-11.06-.61-13.97-5.92l-4.43-8.08,12.48,2.97,8.15,7.54-2.84-19.85c-.91-6.36-11.91-5.94-9.01-12.97l6.81,4.58c-.25-10.81-12.15-11.51-14.03-23.95,7.16,1.87,10.88,8.38,13.2,13.75,1.44-.78,3.69-1.94,3.22-1.64-.97,6.92-.44,13.14,1.52,17.84l4.14-6.21c.81.74,1.87,1.72,1.63,2.39l-.98,2.71c-4.83,8.76-3.02,23.07,1.34,32.11Z"/>
  <path class="cls-5" d="M730.2,553.33l-.03,1.63c-.01.49-1.5.05-2.37-.21l-13.29,37.04c-.65,1.82-1.25,6.22,1.23,5.94l15.52-1.74,3.14,1.75-17.52,2.34c-1.42.19-3.79,1.52-4.72,2.7l22,3.61c6.24-2.4,12.29,1.74,19.12-1.82l6.07-.4c1.44-.09,1.89-3.76,1.06-4.86-.37-.49-.76-2.48-.15-2.56l2.98-.38,2.96-.38c.4-.05,0-1.67-.03-1.47l.94-.35c.7,4.78-.91,10.1-7.71,11.58l3.03,3.63-12.18-.25-13.09-.91-22.12-2.51c-.51-.06-2.48-.52-2.4-.05l.27,1.63c-.91.43-1.18.95-1.09,1.97,5.93,6.26,12.1,10.55,19.34,13.31l11.6,4.42c1.03.39,3.47-.03,4.49-.52l16.68,3.16-3.67,2.47c-16.29-1.04-33.17-5.85-45.01-17.56l-6.73-6.66c-1.58-1.56-2.69-6.34-2.19-8.62.45-2.08,3.46-4.66,5.45-6.55l14.21-39.41c-.86-1.02-1.64-1.7-1.41-2.31l.95-2.08,4.65,4.39ZM757.76,629.39l-.5.5.5.5.5-.5-.5-.5Z"/>
  <path class="cls-11" d="M161.93,296.03c-25.33,42.73-42.89,88.77-52.93,137.41-.13.65-2.03,2.49-2.17,1.85l-.52-2.42c7.8-39.92,21.08-77.76,39.83-113.77,4.34-8.87,8.54-16.57,13.55-24.89l2.24,1.82Z"/>
  <path class="cls-10" d="M271.73,425.39l-.25,2.3c-4.1-2.98-9.54-4.9-14.62-4.07.5,3.62.17,5.79-1.05,9.37l1.05,10.53,33.23,92.04-1.58,1.29-31.5-86.46c-.3-.83-1.81-2.8-2.38-2.88,1.7-3.3,1.37-7.8-1.93-10.12.53-2.13-1.02-6.3-1.02-8.5,0-1.86.95-3.79-.64-5.48-.96-1.02-2.82-4.34-2.1-5.55,3.75-6.39,12.71-16.17,17.07-16.32,1.43-.05,4.17,1.9,4.53,2.76-3.29-.38-6.62-.73-7.98.84l-11.82,13.61c.61,1,2.26,2.89,3.16,2.73.74-.13,2.09-.97,2.93-.89,4.48.43,11.17,2.56,14.89,4.8Z"/>
  <path class="cls-17" d="M374.57,528.58c7.44-.56,12.96,6.28,18.37,10.89l-1.47,1.19c-7.54-6.97-15.64-14.18-23.01-7.67l5.22,6.31-.21,2.23-3.7-4.15c-.45-.52-2.09-2.52-2.45-1.95l-1.54,2.42c1.7-2.68,5.55,13.05,6.49,24.66l1.05,12.94,1.02,13.97.9,11.05-1.92,3.09-.9-7.09-1.18-11.58-6.38,4.99c-.84.66-2.25,2.57-2.25,3.69l-2.03-.42c-2.53-1.61-7.43,4.87-12.94,1.43-4.46-2.79-5.94-7.5-8.34-11.02l1.73-1.21c.66.9,2.05,2.74,2.56,4.07,1.76,4.62,6.63,8.07,11.61,5.37l15.44-8.36-.25-15.84-2.87-22.25-1.76,3.4-4.37-13.33,1.31-1.96,8.84-4.65,3.02-.23Z"/>
  <path class="cls-20" d="M861.81,352.18l2.75-.46c16.64,39.83,26.7,81.14,30.06,124.14.45,5.72,1.25,10.39-.51,16.63-1.8-6.84-1.93-12.27-2.45-18.74-3.38-42.26-13.65-82.58-29.85-121.58Z"/>
  <path class="cls-10" d="M252.85,594.37l-.18,6.68c0,.53-2.29,1.46-2.23,1.35l-.21,1-4.61,3.61,2.29,2.33-15.11-.18-14.05-1.03-10.74-1.13-8.31.34c-2.31-1.65-3.53-3.14-7.18-2.96l7.7,8.73-1.62.47-5.88-5.92c-3.7-3.72-3.4-9.58.18-12.22l.35,2.07c.12.5,1.54.66,2,.42l2.23-1.16c.88.72,2.54,1.32,3.57,1.16l9.02-1.33,8.78-.95,28.95-.38,5.06-.91ZM241.5,605.22c2.58.09,5.31-.29,5.3-1.33-.04-3.58-2.34-4.84-1.63-5.57l1.61-1.65-19.93.14c-.77,0-2.74,2.63-2.9,3.02.67.2,2.67.61,2.71,1.46l.26,5.19,7.71-.31,4.27,1.36c.9.29,1.78-1.61,2.6-2.31ZM223.19,605.38l-2.2-3.43c-.29-.46.27-1.62.89-3.56l-15.05.71c-4.39.21-7.78.58-11.74,3.3l13.75,2.24,14.35.75ZM249.54,601.44l-.46.75.46-.75Z"/>
  <path class="cls-20" d="M160.12,354.2c-16.6,39.08-26.59,79.97-29.94,122.37-.45,5.66.28,10.17-2.6,15.92-.86-5.28-.8-9.09-.42-13.97,3.45-44.21,13.89-86.88,31.51-127.39l1.45,3.07Z"/>
  <path class="cls-10" d="M649.43,545.57l-2.17,13.87-1.24,13.97-.71,8.97,11.99,7.17c3.5,2.09,7.7,2.83,11.4,2.86l.16,1.65c-3.12.57-5.93.15-10.42-.7l.16,12.89,1,12.16.99,12.01.96,10.01.97,14.95c.09,1.34-.66,3.78-1.31,5.15l-1.05-6.13-1.1-10.93-.99-11.08-.95-11-1.05-15.04-.94-14.72-9.61-6.01c-.42,1.66-1.21,5.32-1.2,7.61l-.24,16.31-.82-7.18-1.19-3.95.74-15.55,1.03-13.87c.66-8.88,2.45-17.34,4.19-25.61l1.38,2.18Z"/>
  <path class="cls-24" d="M514.18,890.6l1.04,3.02,6.75-6.08c2.35,4.16-4.72,6.63-3.54,8.08,2.49,3.05,9.43.2,18.05,3-7.68,3.03-14.49-.26-18.09,2.95-1.07.96,5.74,5.48,6.12,10.44l-9.79-8.62c-.11,6.34-.39,10.38-2.97,14.54-1.98-6.68-.97-15.39-2.66-13.72l-2.27,2.25c-1.89,1.87-3.06,2.9-5.74,2l6.22-7.07-10.92-1.43c-2.15-.28-4.33-.62-7.01-1.41l10.1-1.42,7.11-.73-6.13-8.95,8.88,5.66,1.64-4.79,1.59-3.32,1.6,5.59Z"/>
  <path class="cls-18" d="M291.25,830.42l1.99-1.69c43.19,31.65,90.85,49.93,143.14,63.73-52.58-7.79-101.99-32.37-145.13-62.04Z"/>
  <path class="cls-11" d="M873.08,645.78c-17.29,46.28-41.41,91.76-77.22,126.9,31.79-39.17,57.86-79.3,74.43-126.64l2.79-.26Z"/>
  <path class="cls-13" d="M769.09,424.38c.84,3.47,1.23,6.96.81,10.85-.48,4.56,1.16,8.57,2.83,12.98l33.72,89.04,5.11,14.17-1.52,1.4-5.09-13.25-34.8-92.12-1.08,3.07-1.79,1.05-.87-3.47-3.37,9.38-2.21-.09,5.5-15.9c1.08-3.13.44-6.59-1.09-8.94l2.77-.05-.36-5.86-.12-1.57c-.03-.43,1.04-.7,1.56-.69Z"/>
  <path class="cls-30" d="M864.55,351.72l-2.75.46c-15.73-37.89-37.34-72.63-63.91-103.99l-1.58-1.86c-.33-.39,1.37-2.1,1.73-1.73l1.7,1.74c27.36,31.45,48.74,66.94,64.79,105.38Z"/>
  <path class="cls-22" d="M805.11,684.78l-4.98,5.37c-.38.41-1.48.91-2.01,1.13-10.51,4.39-21.75,8-33.91,8.38,5.85,2.34,11.67,6.11,14.58,11.86,2.69,5.31.98,10.32-2.73,13.63l-1,.89-10.41,2.44c-.49.11-2.11-.45-2.52-.71s-1.22-1.76-.77-1.93l2.88-1.08c4.14,1.17,10.9.33,12.59-4.63,1.39-4.08.16-8.38-4.21-9.16-5.5-13.65-26.89-10.65-38.35-4.53l-1.98-1.02c7.71-4.35,16.37-6.35,25.67-7.48l4.35-2.32c2.25-.54,4.91-1.71,6.84-3.2l3.14-2.13-6.28,7.25,14.91-2.65c8.66-1.54,16.32-6.23,22.99-11.47l1.21,1.36Z"/>
  <path class="cls-28" d="M628.34,611.38c-2.27,17.61-5.25,34.93-10.53,52.33-4.83,16.08-11.72,30.24-20.77,44.21l-5.64,10.5-4.98,8.87c-8.55,15.23-12.87,30.94-14.76,48.62-2.05-15.31,5.51-35.98,13.31-50l11.47-20.61c8.38-15.06,16.04-29.57,20.67-46.31,4.4-15.92,7.05-31.72,8.85-47.66l2.37.05Z"/>
  <path class="cls-5" d="M768.22,397.88l-.92-1.72-15.79-3.13c-4.93-.98-10.52,1.4-15.37,3.4-3.76,1.55-9.19,2.3-12.37,4.65-4.34,3.19-7.44,7.93-10.96,12.16-5.82,6.99-12.83,13.89-15.93,22.78l-15.86,45.48-1.95-1.25,15.44-44.64c1.07-3.09,3.37-7.91,5.34-10.32l14.97-18.32,8.23-8.66,22.47-7.33c4.73-1.54,22.77,1.93,25.83,4.03.45.31-.55,1.94-1.06,2.12l-2.06.75Z"/>
  <path class="cls-16" d="M613.45,562.42l-9.93,21.22c-7.6,16.22-17.21,31.21-29.37,44.37l-9.71,10.5-14.12,11.68c-8.63,7.14-17.66,13.46-27.53,17.48l-1.28-1.82c12.58-6.38,24.26-14.66,35.48-24l16.49-16.4c15.24-17.51,25.89-37.54,35.28-58.59l3.01-5.54c.12.54,1.06,1.08,1.69,1.1Z"/>
  <path class="cls-6" d="M362.7,533.46l-1.31,1.96-4.78-10.99c-14.85-27.94-25.99-56.68-34.5-87.22-2.28-8.19-8.25-14.32-13.06-20.98l-7.42-10.29,1.34-1.35,14.94,19.71c4.33,5.72,6.59,11.7,8.49,18.64,7.67,27.99,18.35,54.22,31.88,79.79l4.42,10.73Z"/>
  <path class="cls-15" d="M111.37,506.58l.32,2.84c-1.31.05-3.45,1.23-4.75,2.22l5.56,6.86-8.75-4.71-2.43,14.98-2.53-14.99-8.79,4.83,5.62-8.13-12.82-2.53,9.55-1.82c.97-.18,2.74-2.65,2.41-3.03l-5.75-6.65,8.08,5.33c.86-.68,2.42-3.22,2.64-4.52l1.51-8.85,3.23,13.31,9.54-6.57-5.24,6.09c-.61.7-1.29,3.64-.47,4l3.08,1.35Z"/>
  <path class="cls-30" d="M160.12,354.2l-1.45-3.07c16.88-38.79,39.12-74.59,66.79-106.46.54.02,2.37.17,2.22.49l-.82,1.83c-27.6,32.36-50.08,68-66.75,107.21Z"/>
  <path class="cls-21" d="M623.8,833.18l-.64,3.02-14.34,4.18-13.31,2.58-13.1.92c-5.12.36-9.78,1.48-14.11,4.02-8.93-.05-12.89,4.78-17.23,6.21-.34.11-.84-1.13-.64-1.43,2.92-4.45,17.43-8.52,26-10.4,9.34-2.06,17.29-5.83,22.36-13.65,3.83-5.91,3.83-13.31-2.04-17.84-2.25-1.73-6.32-2.14-8.73-.55-1.76,1.16-3.18,4.14-4.21,6.92-1.4-3.57.95-9.15,5.47-9.9s8.58.47,11.33,3.36,3.24,7.13,2.9,11.81c-.64,8.88-7.78,14.3-15.4,18.82,12.88-.61,24.52-3.81,35.7-8.06Z"/>
  <path class="cls-21" d="M873.08,645.78l-2.79.26c11.17-31.92,18.37-64.33,21.23-98.13l.83-11.47c.28-3.82.84-7.45,1.87-11.86,1.79,7.78.81,14.5.13,21.87l-1.03,11.21c-2.79,30.32-9.49,59.36-20.23,88.13Z"/>
  <path class="cls-24" d="M918.56,514.91c-2.69-1.03-5.89,1.37-8.97,3.89-1.94-3.02,3.02-3.15,4.8-6.83.34-.7-1.82-1.89-2.81-2.08l-9.68-1.85,12.7-2.72-3.21-5.97,5.29,1.69c1.22.39,2.17-2.99,2.4-4.36l1.59-9.39,2.09,12.69c2.27,1.04,4.05,2.22,5.02,5.12l12.42,3.06-13.03,2.32-4.54,5.44-2.01,12.41-2.06-13.43Z"/>
  <path class="cls-12" d="M253.52,697.23l2.7,1.78c-10.12-.45-21.18-3.49-30.41-7.51-.9-.39-2.64-1.35-3.32-2.06l-12.1-12.73c-1.79-1.89-5.98-3.58-7.24-5.41l-2.26-3.3c-.32-2.57-.04-6.15,1.28-7.76-.02,3.08-.19,6.42.77,9.03.71,1.93,4.7,3.54,6.93,3.49,4.14-2.4,4.87-8.47,1.44-12.13,3.05,1,5.21,1.72,7.24,1.22,2.46-.6,4.47-2.62,4.37-5.6-.07-2.39-4.06-5.33-6.38-4.88-1.76.35-4.44,2.32-5.5,3.49,3.46.35,2.81,1.85.42,2.06l-1.48,2.33c-.27.43-2.2-1-2.03-1.06l.7-2.85.11-.98.11-1.23c2.17.06,5.68-2.1,6.5-4.09.99-2.42.33-7.47-.83-8.85l-8.46,4.4,5.48-5.53c1.39-1.41,6.19-2.52,7.16-.91,1.88,3.15.86,7.85-.23,11.37,4.32,1.7,8.29,4.56,10.06,8.49-3.41,3.09-8.3,5.26-12.29,5.75l-2.61,12.54c5.29,9.04,15.05,15.49,25.28,17.73l14.59,3.19Z"/>
  <path class="cls-18" d="M303.59,867.37l2.59-1.4c22.51,13.46,45.46,24.64,70.27,33.29l48.22,14.05c1.23-.2,2,.4,1.95,2.83-45.59-9.86-82.78-25.1-123.03-48.77Z"/>
  <path class="cls-20" d="M878.79,328.07l1.62-2.61,4.87,10.25c14.51,30.51,24.25,62.7,30.71,95.93.17.88.3,2.87-.33,2.88l-2.02.03c-.41,0-.34-1.24-.5-2.1-6.75-36.56-19.01-71.25-34.35-104.37Z"/>
  <path class="cls-17" d="M472.47,304.66l1.9.15c-.77,5.35-2.86,10.02-6.77,14.04l-5.38,1.43,8.35,1.51c1.64-1.01,2.16-1.28,4.1-1.87l2.66,1.23c1.06-.22,2-.31,2.43.04l1.14,2.4c.31.46,1.61.82,1.74-.06.46.37.9,1.58.97,2.16l-4.11,1.4,2.09,1.56-4.01-.07-1.58-3.07-.59,2.39c-7-.6-6.72-10.16-17.79-4.8,4.19,3.14,7.51,6.31,10.37,10.61-6.68,2.03-12.6-1.74-15.5-6.95-.57-1.02-3.08-2.4-3.76-2.1l-.17-1.51c4.13-4.96,2.55-11.1,12.3-15.74.49,5.19-1.38,9.26-4.24,13.16,7.91,1.6,3.53-12.59,15.86-15.93Z"/>
  <path class="cls-29" d="M306.18,865.96l-2.59,1.4c-23.65-13.91-45.52-30.14-66.34-48.64l-23.87-23.44.73-3.2,24.18,23.65c20.36,19.91,43.42,35.6,67.9,50.23Z"/>
  <path class="cls-25" d="M831.55,650.43l4.72,2.85,2,4.13c-2.47,2.98-7.18,4.92-11.08,5.35l1.53,7.42c.13.64-.55,3.03-1.15,3.08l-2.54.31c-1.39-.23-3.65-1.36-4.22-2.61l-1.28-2.77-.4-.87c.23.14,1.32-.76,1.24-1.13l-1.62-7.68,4.51-1.51c-.53-.42-1.87-1.46-1.66-1.3l3.42-2.69c1.56-1.23-7.88-9.64-2.65-12.35l3.64-2.28,2.36.33c1.51.21,2.9,7.11-2.65,13.75l5.83-2.04Z"/>
  <path class="cls-17" d="M451.82,579.62l1.81.46c.51.13.94,1.53,1,2.05s-1.5.52-2.01.39l-1-.33,3.05,10.25c3.09,11.58,3.19,24.42-3.49,34.75l-.87,5.41-1.33-2.95c-.19-.42-1.12.33-1.5.62l-1.23-.36c-19.02,11.73-35.06,28.95-46.16,49.58l-1.71-1.39c5.36-9.67,11.48-19.15,19.42-27.47,8-8.39,16.11-15.76,25.68-22.33,17.71-12.14,10.03-28.98,5.29-48.85l3.05.18Z"/>
  <path class="cls-5" d="M477.33,321.16l-2.66-1.23c-1.94.58-2.46.85-4.1,1.87l-8.35-1.51,5.38-1.43,3.96-.22,2.97-.99,9.22-2.46c1.3-6.38,4.61-10.98,11.47-13.11.07,4.26-1.53,7.9-4.46,11.44,7.15,1.59,8.24-10.99,22.11-11.65-3.47,8.65-9.99,10.17-18.22,12.57l6.22,2.94c-2.66,5.28-8.35,5.72-12.76,2.46-2.23-1.66-4.84-2.2-7.56-1.48l-3.05.81c-.37.1.15,1.41-.17,2.01Z"/>
  <path class="cls-24" d="M517.2,749.17l-.14,1.29c-.08.35-.97.58-1.42.76l-2.09,1.18c-16.22,2.19-27.96,15.54-29.39,31.93l-.62-5.23c-.13-1.07-.79-3.22-1.31-4.01s-3.12-.63-3.53-.08c-.24,2.98-.83,2.16-1.56.12,5.31-17.21,22.18-28.14,40.06-25.95Z"/>
  <path class="cls-22" d="M721.32,664.23l-5.16-1.89h-.85s-2.08-3.2-2.08-3.2l2.27-.09,3.16,3.88c2.75-8.86-3.03-18.12-11.17-19.78l-1.01-1.24c.04-.14-1.27-1.53-1.9-1.81l-8.09-3.59c-.93,2.07.58,5.68,2.52,7.93l-.4,6,5.75-5.61-2.82,6.12c-.38-.11,1.77.51,2.42.69-.32,5.92,3.23,10.9,9.39,12.08l-3.97.51c0-.32,0,.83-.05,1.24-6.68-2.76-13.89-.7-18.45,4.82-5.78,1.89-5.84,9.98-2.11,14.61.13.55.67,2.44,1.13,2.3l2.34-.74,4.33.72c1.05.17,2.76-2.48,2.66-2.98l-2.05-1.6c-.47-.37,1.82-1.53,2.43-1.31,1.38.51,2.14,3.81,1.45,5.14-.64,1.21-3.03,2.69-4.57,2.98-6.21,1.15-9.86-2.7-11.12-8.38-1.16-5.21.7-10.63,4.39-13.78,4.07-3.47,8.83-5.24,15.12-4.12-5.16-5.79-7.45-11.8-9.37-19.02l-3.23-12.15,11.47,5.91c13.82,7.12,18.12,9.11,17.58,26.36Z"/>
  <path class="cls-4" d="M542.93,485.88l-8.66,10.38-11.68,11.4c-5.78,5.64-13.29,9.19-19.95,14l-27.96,20.23.99,1.95c-8.91,2.78-17.02,8.8-23.1,14.01l-1.93-1.63,7.64-6.23,25.39-17.42,5.81-4.4-1.41-.86,2.81-1.5,13.75-8.15c14.59-8.65,26.78-20.03,36.9-33.11l1.41,1.34Z"/>
  <path class="cls-8" d="M740.18,319.64l-.92-6.82-7.32,4.95,4.83-6.97-13.77-1.5c-.33-.07-2.04-1.1-1.71-1.14l1.92-.21,13.55-1.52-3.05-5.83,5.55,2.96,1.01-6.78,1.45-9.32,1.31,9.39.6,7.32c3.52-2.7,4.94-3.9,8.09-5.39l-5.86,7.45,16.47,2.43-16.71,2.29,5.71,7.19-7.63-5.97-1.96,16.65-1.56-9.2Z"/>
  <path class="cls-29" d="M362.62,593.57l.02,15.77.05,28.06-.97,19.95-3.78,25.36c-1.85,12.42-6.75,24.52-15.85,34.07,4.09-9.21,9.32-17.42,11.6-27.4,3.23-14.16,6.38-27.9,6.51-42.5l.4-53.72,2.03.42Z"/>
  <path class="cls-12" d="M461.28,364.36l.29,4.01c-2.06-.08-3.47-.11-6.07.63,19.43,10.67,26.81-15.33,49.2-11.85l-14.13,3.72c-1.58.42-3.44,3.35-3.21,4.9l-1.95-.44c-.36-.5-3.24.15-4.06.96-8.52,8.47-20.35,9.47-30.05,2.4-2.4-1.75-5.29-2.69-8.51-3.6l-8.77-8.69-3.2-4.45,1.62,8.78-1.83-.02-2.01-7.99c-2.91,8.18-6.17,13.52-14.19,16.36l4.29,2.19-9.02,1.57-6.28,1.89,1.42-4.33,8.49,1.28c-.02-.97-.89-3.36-1.96-4.2,7.11-.71,13.81-6.46,14.26-13.74l-.43-1.28,5.69-.26.7-8.8.03-1.77.92,1.05c-.24,5.76.95,11.1,4.95,15.2-1.51-5.03-3.02-8.84-2.61-13.34l3.81,9.26c1.96,4.76,14.47,14.91,22.11,12.54-5.06-2.55-10.45-4.85-13.5-9.49,4.87,2.33,9.16,7.18,14.01,7.51Z"/>
  <path class="cls-1" d="M485.37,794.42l.02.92,1.09,1.91.06.98,1.07,2.03c3.38,6.01,7.54,11.39,14,14.88l3.82,2.06c-.3,1.63-1.92,3.03-3.87,4.39-12.89-4.04-22.58-14.76-25.31-27.99l9.12.82Z"/>
  <path class="cls-22" d="M528.5,350.73c-2.28,3.27-5.72,5.75-9.68,8.67-.33,3.77-.61,8.7.03,12.09l-1.43,2.21c-.31-.01-1.89,0-1.79-.51l.42-2.24.09-8.55c-1.54,2.01-2.74,5.19-2.92,8.03l-.53,8.36-5.25,5.72c-.56.61-1.01,2.31-.76,3.27-1.06.19-2.78,1.22-4.34,2.14,1.87,5.46,4,11.14,8.3,14.47l-1.38,1.6c-5.19-3.03-8.18-8.66-9.06-15.33-4.34-.89-3.21,4.47-8.69,5.01l-1.46-1.89c2.75-2.82,4.99-4.27,9.67-6.8l-1.87-9.11c-7.42.59-9.78-5.38-12.44-12.54l1.95.44c1.3,4.08,4.19,8.6,7.42,10.98l2.71-4.67,4.47,13.72c12.31-7.54,9.3-16.33,11.23-20.48l5.96-12.78-.48,5.04,8.82-6.9,1,.05Z"/>
  <path class="cls-23" d="M767.29,396.16l.92,1.72c-6.23,2.26-17.82-1.06-23.44,2.2l-12.62,7.33-4.32,10.64c6.24,2.5,12.77,1.65,17.4-3.68,1.05-1.21,3.16-2.34,5.18-2.84l-5.75,5.75,14.5-3.27c-2.37-1.51-3.8-1.76-5.51-1.84l-.15-2.52c-.04-.65-2.75-1.2-3.51-1.14l-14.88,1.06c1.51-1.67,3.56-1.52,5.79-2.43l13.4-5.53-.94,1.83-5.18,2.8c8.37-.18,9.4,6.39,16.05,8.98l-24.15,5.08-10.75,1-10.57,1.21,6.08-3.77,4.86-11.92c4.3-3.81,11.55-8.49,17.43-8.82l20.16-1.84Z"/>
  <path class="cls-12" d="M253.33,395.52c6.23,3.91,14.49.88,21.25,2.56,4.67,1.16,9.81,4.1,13.85,6.87,3.64,2.49,4.48,8.19,5.41,12.48l7.26,5.03-18.52-1.99c-8.45-.91-14.63-4.33-24.39-4.34,8.59-10.46,14.58-12.2,27.59-6.97-5.33,1.46-11.79-2.89-18.07.9-.04,5.15,4.46,6.93,8.43,7.08l-3.25-4.35,1.41-.2,4.73,5.75,12.47.4c.21-7.56-3.67-13.29-10.67-16.37-5.12-2.25-10.83-4.28-15.94-3.79l-4.25.21c-3.4-.02-7.92-.48-10.95-1.78l3.66-1.49Z"/>
  <path class="cls-6" d="M553.24,291.87l-3.59-2.56-8.48-4.53c-4.53-2.42-9.91-6.46-14.39-7.21-9.01-4.22-19.02-5.66-29.24-4.94l-9.94.7c-2.69.19-6.12,1.05-8.46,2.1-.86.39-2.17,1.33-2.89,1.89-8.41,2.18-18.08,7.2-23.56,14.37l-2.32-1.11,3.4-3.86c.68-.77.5-3.09-.02-4.06l1.78.16c.43.04,1.62,1.21,1.68.78l.38-2.85.76-1.36c.23.65.22,2.57.78,2.4l2.7-.83c12.94-8.54,28.13-11.14,43.69-10.17,13.37.47,25.47,5.32,36.68,12.34,4.2,2.63,8.79,4.1,11.04,8.74Z"/>
  <path class="cls-21" d="M603.94,401.78l-1.67,2.29c-.43.58-2.1.61-2.82.65l2.78-3.24,1.72.31Z"/>
  <path class="cls-21" d="M597.33,402.68l.59,1.86c.1.33,1.18.21,1.53.19-.43.36-.32,2.57-.99,2.89l-6.75,3.3c-3.19,4.15-6.53,9.31-7,14.77-.33,3.82,4.51,9.5,7.84,10.42l12.92,3.57-1.02,2.11c-6.04-.98-13.31-2.48-18.11-6.95-6.15-5.72-4.12-13.68.56-20.95-5.69,1.7-11.61,5.38-13.8,11.42-1.35,3.73-.55,8.89.5,12.44l-3-.03c-3.59-10.04,2.2-20.88,12.09-24.83,3.66-1.46,6.95-3.67,10.15-5.93.73-1.49,2.43-4.12,2.41-5.46l1.88-.8c.36-.22.1,1.57.22,1.98Z"/>
  <path class="cls-12" d="M807.26,637.32c-3.1,2.33-3.68,6.79-2.8,10.11,1.33-.72,2.24-1.26,2.75-1.35.16,3.56,2.43,7.35,7.4,7.4l-2.18-8.29c1.64.75,4.57,4.58,4.44,5.73l-2.54,6.49c-2.84-.71-6.9-7.91-11.76-5.48-1.64.82-3.77,3.7-4.22,5.56l7.07,3.84c1.01.55,3.89-1.3,5.38-2.06l-1.76,6.06c-.49,1.7,5.16-.24,5.38,2.4.07.84-1.09,2.51-1.9,2.67l-2.73.53c-.7.13.75,2.17,1.81,3.17l5.86-5.51,2.08-.39,1.28,2.77-9.05,6.63-6.65,7.18-1.21-1.36c1.72-1.35,4.14-4.89,5.58-7.03-5.67-9.28.54-10.1-6.66-13.52l-9.05-4.3c1.47-4.8,4.46-7.17,9.14-8.91l-.45-5.64c-.1-1.2.22-3.93.69-5.04s2.91-1.85,4.12-1.65Z"/>
  <path class="cls-4" d="M549.4,495.46c-6.2,11.01-13.15,21.49-21.3,31.62-5.01,6.23-11.26,10.72-17.73,15.26-9.17,6.44-19.36,9.39-29.71,11.55l-2.23-1.71c13.17-2.94,26.49-6.39,36.67-16.31l13.09-12.75c7.56-8.83,13.67-18.76,18.95-28.68l2.27,1.01Z"/>
  <path class="cls-21" d="M393.71,382.63c-1.66,4.98-2.39,11.4,1.4,16.32.96-7.64,2.96-16.21,11-19.36-7.93,9.01-11.36,20.85-3.37,24.96-1.66-5.35-2.65-8.57-1.79-12.99,1.53,4.5,1.74,9.85,5.11,13.69s8.98,7.25,13.49,8.93l-1.16,1.72-7.46-3-2.75,1.91-13.24-13.61c-2.93-3.01-5.73-8.2-5.15-12.09.99-6.71,4.04-12.12,8.85-15.36-2.1,2.31-3.91,5.8-4.94,8.89Z"/>
  <path class="cls-6" d="M227.26,513.5l-10.81,29.65-1.7,4.97-2.28,5.27-10.55,26.77,1.86.27-.23,1.12c-1.21.4-2.58,2.89-3.33,4.64l-1.11,1.99c-.35.62,1.27,1.9,1.91,2.28-1.1-.15-3.54,1.14-3.58,2.2l.03,4.12-2.23,1.16c-.46.24-1.88.08-2-.42l-.35-2.07,2.89-4.94.74-1.88,2.58-7.23c.61-1.71,2.47-5.31,1.49-6.97.73.18,2.02-.74,2.24-1.35l4.23-11.26,3.89-10.25-2.06-2.89c1.27-.6,2.88-1.9,3.58-3.44l3.46-7.62,9.52-24.89,1.81.79Z"/>
  <path class="cls-13" d="M541.6,334.75l-8,8.77,3.88-.63h2.08s-7.84,3.22-7.84,3.22l-3.22,4.61-1-.05,1.88-4.42c-9.54,5.46-19.22,6.71-29.7,4.05l-9.33.28c1.02-1.09,1.63-1.73,2.34-1.66l3.73.38c-8.76-7.29-20.13-7.83-32.18-5.61,2.21-3.13,5.64-2.91,9.37-3.28,5.1-.5,9.69-.62,14.62,1.68,7.86,3.67,16.09,8.01,24.85,7.22,10.22-.92,20.38-7.52,25.43-14.77l3.08.2Z"/>
  <path class="cls-20" d="M347.61,762.3l1.85,3.2-.57,15.15.15,2.18-1.27,1.37c-.25.27-1.24-.78-1.1-.91.57-1.41.65-3.57.45-4.73l-1.57-9.49c-1.04-6.28-1.62-12.99-.29-19.14,1.37-6.35,6.63-10.15,10.92-14.04l9.14-8.27-.64,11.69c-.42,7.61-.47,15.19-6.96,20.11l-6.43,4.87c2.03-3.22,4.11-5.28,6.56-7.82,7.14-7.39,5.03-22.25,3.56-21.31l-2.91,1.85c-7.84,4.97-11.85,11.41-12.48,20.76l-.25,3.71c-.04.59,1.41.77,1.84.84Z"/>
  <path class="cls-22" d="M373.48,541.54l.21-2.23,6.24,9c9.35,17.8,15.32,36.6,20.7,56.06,3.26,11.8,7,22.8,7.81,35.13-5.97-20.87-10.35-41.97-18.56-62.28l-8.67-21.44-7.73-14.23Z"/>
  <path class="cls-3" d="M438.07,275.58c.87.57,3.03,1.8,3.61,1.13l1.71-2.03,3.28,2.81,8.86,5.33-1.78-.16-2.97-1.05.66,4.02-3.09-4.32-.58,5.02c-2.69-4.9-4.58-7.37-9.67-8.28-5.55-.99-11.31.62-16.3,4.74l6.33,2.31c2.98,5.92,3.88,13.04.74,18.73l-.54-11.4c-.02-.37-.81-1.92-.98-2.26-.15-.31-.42-.33-.52.02l-.66,2.37c-1.08-2.42-4.11-5.7-6.4-5.97-.62-.07-1.43,1.72-1.03,2.22l-1.79-.54-.26-2.86-.18-2.12c.27.62,3.72,0,4.13-1.11,2.08-5.55,12.26-9.96,17.42-6.6Z"/>
  <path class="cls-5" d="M616.35,585.46c-.02,1.35-.81,3.81-1.4,5.54l-9.7,28.36c-5.66,16.55-12.32,32.19-20.52,47.08l-1.63-1.31c10.17-19.25,17.58-39.52,24.64-60.52l7.78-23.15c.5.55.84,2.92.82,3.99Z"/>
  <path class="cls-10" d="M637.91,522.18c-12.43,6.96-17.97,26.38-24.46,40.24-.63-.02-1.57-.56-1.69-1.1l-.75-3.45c-9.06-10.26-18.32-19.99-24.55-32.89,7.53,7.44,12.9,15.8,19.77,23.68l6.87,7.89,12.73-25.63c2.12-4.26,6.35-7.67,9.35-10.45l2.72,1.7Z"/>
  <path class="cls-16" d="M437.57,562.52c1.68.02,4.67-1.04,6.06-1.91l7-4.39,1.93,1.63c-1.06.91-2.33,2.36-3.05,3.24l-4.38,1.44c-3.08,1.01,1.78,10.78,6.69,17.08l-3.05-.18c-3.88-4.06-5.95-9.15-7.37-15.02-15.87,1.56-30.11-5.44-41.66-16.11l-8.28-7.65,1.47-1.19,12.26,10.44c9.05,7.71,20.72,12.46,32.37,12.61Z"/>
  <path class="cls-29" d="M825.73,637.36l.27,1.03-3.64,2.28c-5.23,2.71,4.21,11.12,2.65,12.35l-3.42,2.69c-.22-.17,1.13.88,1.66,1.3l-4.51,1.51-4.42-1.1,2.54-6.49c.13-1.15-2.81-4.98-4.44-5.73l-5.22.89c-.51.09-1.42.63-2.75,1.35-.88-3.33-.3-7.78,2.8-10.11,3.27.54,7,3.09,8.91,6.28,3.05-2.49,6.51-5.42,9.56-6.23Z"/>
  <path class="cls-27" d="M398.84,458.92l-4.36-2.48,5.36-3.58,11.68-7.06-.78,2.84,10.93-2.63c9.81-.57,16.12-5.16,20.85-13.66-.35,3.09-1.59,5.12-3.14,8.28,7.95-3.28,9.84-10.95,13.45-18.74-.13,12.57-9.55,21.38-21.55,24.44-7.71,1.97-15.51,2.71-23.04,6.07-2.98,1.33-7.53,4.38-9.39,6.52Z"/>
  <path class="cls-17" d="M584.73,666.45l-5.08,9.23,5.06,12.99-.8.67-5.4-11.87c-14.7,20.3-30,35.03-51.95,44.11l.87-2.43c20.27-9.44,36.97-25.27,49.4-44.35l6.29-9.66,1.63,1.31Z"/>
  <path class="cls-14" d="M827.98,554.95l1.54.39c-.1.47-.1,1.44-.12,2.92-.14.24.26-.44.88-1.55,1.46-1.5,5.05-5.98,7.43-6.44l11.81-2.29c-2.09,5.62-6.06,12-11.4,12.99s-9.52.72-11.82,7.56c-.06.77-2.34.57-2.02-.26l3.7-13.34Z"/>
  <path class="cls-20" d="M498.25,190.36l-2.01,3.4c-11.86,6.44-18.98,19.4-17.66,33.31,1.23,12.87,10.49,24.32,23.08,28.91l-2.57.37c-4.09.59-10.67-4.98-14.97-10.11-6.39-7.62-8.4-16.45-7.68-26.65.93-13.2,10.14-24.53,21.81-29.23Z"/>
  <polygon class="cls-17" points="763.04 457.48 733.11 541.16 731.4 540.26 760.83 457.39 763.04 457.48"/>
  <path class="cls-24" d="M540.46,138.74l-39.95-.88-.2-2.54-6.69-1.23,24.45-.37,4.43-.88,15.75.06c1.06,0,3.73,1.5,3.41,2.4l-1.2,3.43Z"/>
  <path class="cls-17" d="M215.71,622.78c3.37,1.63,6.98,4.61,10.27.35,9.08,3.93,19.01,5.98,28.74,7.65,2.2.38,4.45.13,6.07-1.5l7.99-1.74c-.15.19,1.03,1.13,1.45.87l1.56-.96,2-.92,3.02,3.14-3.1.84-5.23-.6-6.95.61,4.25,1.62-23.56-.23c-16.28-1.8-32.46-7.1-43.62-18.34l1.62-.47c4,4.54,10.14,7.08,15.5,9.67Z"/>
  <path class="cls-21" d="M545.59,331.86c-1.15.46-3.14,1.96-3.99,2.9l-3.08-.2c-5.75,2.9-12.95,5.98-20.01,4.97l-8.67-1.24c-9.95-1.42-18.31-2.52-28.58-.73,10.89-6.61,21.27-1.69,32.16-3.11.09,1.44,1.57,3.73,2.72,3.48l5.54-1.19c7.57-1.63,16.75-3.41,22.61-9.26l1.29,4.38Z"/>
  <path class="cls-13" d="M547.51,680.65c-10.39,9.34-21.78,16.77-34.22,23.45-12.11,6.89-23.89,13.33-34.83,21.65l.21-2.84,26.1-16.41c14.27-8.98,29.19-16.53,41.72-27.75l1.03,1.91Z"/>
  <path class="cls-5" d="M311.05,591.37l-3.05,1.67c-.36.41-.32-2.56-.36-3.56l-11.49-31.38c-1.23-3.34-3.82-6.59-5.89-8.63-.07-4.16-.38-8.85-1.75-12.61l1.58-1.29c1.2,3.31,3.09,5.97,5.59,8.49l2.68,2.97c-2.09,1.47-2.66,4.33-1.54,7.27l14.23,37.08Z"/>
  <path class="cls-22" d="M289.62,755c3.64,3.31,8.78,4.15,13.74,4.61,12.06,1.11,22.34,5.42,30.56,13.44l-2.19,1.37-3.55-1.51c-1.21-.51-2.58-2.72-3.67-3.84-8.78-7.35-28.85-10.5-34.69.24l-1.97,2.97.21-1.06-1.4-3.34c2.68-2.71,5.25-4.18,9.78-6.94-2.71-.75-6.76-1.69-8.67-.97l-.53-2.89,2.38-2.08Z"/>
  <path class="cls-21" d="M380.7,786.29c-.77-1.11-.87-3.93-.23-5.39.53-1.21,2.47-1.88,4.28-2.43-.16-1.21-.48-3.16-.93-3.79-.56-.79-2.74-1.42-3.65-1.04l-4.52,1.56-4.52-4.72,5.68.09,11.15-6.09c1.54,3.97,1.72,6.17.73,9.94-1.65,6.22,1.17,10.94-1.51,10.54l-2.45-.36-4.02,1.7Z"/>
  <path class="cls-22" d="M639.73,656.43l-2.45,15.84c-5.24,18.51-11.63,35.88-18.49,53.22l-1.77-.33c9.02-23.04,17.8-46.29,20.91-70.92l1.79,2.19Z"/>
  <path class="cls-22" d="M661.24,660.52c.64-1.37,1.39-3.81,1.31-5.15,2.04,13.82,4.31,27.91,8.9,41.78,3.53,10.68,9.59,19,16.11,28.19-17.91-14.62-24.33-43.03-26.31-64.82Z"/>
  <path class="cls-21" d="M304.99,649.55c-2.41,3.87-2.44,9.27-2.35,13.89.48.35.7.5,1.05.43l2.13-.45,8.53-1.75,1.99,1.73c.33.29,1.27-.84,1.44-1.06,4.93-.46,10.77.87,14.68,4.65,3.36,3.25,5.99,8.7,4.81,13.66-.87,3.68-2.81,6.79-5.55,8.32-2.34,1.31-7.52,1-9.23-1.34-.82-1.13-.92-4.63-.91-6.22l3.83.05-1.86,4.15c-.31.69,2.83,2.08,3.51,1.74l5.68-2.88s1.22,1.25,1.39.79l.71-1.88c.99-3.04,2.29-8.13-1.22-9.19-2.2-6.51-8.11-11.03-16.18-9.78-3.64.56-8.55,2.91-11.55,5.08l-.81-3.01c-.03-.62-1.27-1.74-1.76-1.45l-2.03,1.43-.77-7.31c-.36-3.43,1.14-7.83,2.79-9.98l1.65.36Z"/>
  <path class="cls-21" d="M389.45,367.39l1.4,1.92c-4.8,2.8-9,6.32-11.63,11.12-3.54,6.44-.97,14.65,5.15,19.44,4.22,3.31,6.63,7.3,4.67,12.54-1.38,3.69-5.13,6.87-9.3,7.48l-.11-1.59c2.61-.28,6.62-4.25,7.6-6.81,1.4-3.64.04-6.74-2.95-8.66-4.7-3.02-9.46-8.05-9.53-14.23-.1-9.69,6.89-17.32,14.7-21.22Z"/>
  <path class="cls-4" d="M681,481.49l-17.67,37.98-9.88,21.98-.86-.74c-.16-.3.02-1.48.12-1.82l1.57-5.3,4.38-10.76,8.47-16.42,6.2-12.92,5.73-13.24,1.95,1.25Z"/>
  <path class="cls-23" d="M588.74,318.73c5.34,3.23,7.53,9.18,9.24,15.54,1.46,5.44,3.23,11.05,2.28,16.39-.55.03-1.37-.27-1.45-.78l-.5-3.18-1.46-3.38c.28-1.98-.52-4.79-1.14-6.75-1.17-3.68-2.16-7.25-5.26-10.19,2.1,6.71,3.59,12.18-1.29,17.54,2.75-9.1,1.27-16.68-5.53-22.55l-3.07-2.78,8.19.14Z"/>
  <path class="cls-28" d="M467.37,687.97l1.38,1.73c-15.36,6.27-27.93,16.98-38.45,30.37-7.51,9.56-10.96,20.45-15.76,32.25,5.01-28.87,26-53.41,52.83-64.35Z"/>
  <path class="cls-22" d="M646.41,541.15l-3.87,7.4c-7.69,14.71-10.78,30.84-12.24,46.85l-2.3-1.08c1.4-10.61.88-22.48,5.75-32.4l10.12-20.64,2.54-.14Z"/>
  <path class="cls-10" d="M826.2,590.55l.8-.07c.37,1.88,1.48,3.14,3.56,5.11l.35,3.36c.65,1.07,1.55,3.87,1.07,5.17l-5.48,4.62-3.31-2.68-5.94.62c-.9-1-3.73-1.4-5.13-1.28l16.52-3.37c-6.66-2.32-12.04-2.92-18.43-3.57l-7.03-.71,7.69-.92c.9-.1,2.59-.92,3.36-1.42,2.49,2.42,7.51,2.97,10.72.85l-.68-5.8,1.94.1Z"/>
  <path class="cls-15" d="M484.15,784.32l1.21,10.1-9.12-.82c-1.26-6.14-.96-12.49.89-18.48.72,2.04,1.31,2.87,1.56-.12.4-.55,3.01-.72,3.53.08s1.18,2.95,1.31,4.01l.62,5.23Z"/>
  <path class="cls-27" d="M275.65,726.3v1.35c-1.73-.15-4.3,2.63-5,4.59-1.85,5.14-7.77,10.02-13.11,8.35l-8.9-2.4,2.07-1.85c5.42,1.21,4.97,4.9,12.15,1.14,3.83-2.01,6.11-7.32,5.22-10.11l-.27-1.04c.72-.43,2.08-1.51,1.61-2.12l-1.97-2.56-1.22-1.58c-.2-.26-.28-.57.04-.61s2-.19,1.96-.19l.56-.63c-.32-1.05-2.32-3.91-3.64-3.5l-6.27,1.96c-.46-1.2,2.21-3.9,4.01-4.25,1.4-.27,4.46.5,5.62,1.52,5.44,4.78,2.86,10.12,7.13,11.91ZM269.22,721l.05-1.49-.05,1.49Z"/>
  <path class="cls-24" d="M539.89,245.14l-2.57,3.47c-3.94,5.31-9.65,8.09-15.7,9.6l-2.25-4.29c4.36-3.29,10.96-8.23,13.94-13.14,1.21,2.04,3.86,3.78,6.6,4.36Z"/>
  <polygon class="cls-23" points="252.83 447.46 227.26 513.5 225.45 512.71 250.69 445.51 252.83 447.46"/>
  <path class="cls-11" d="M535.62,815.39l-1.44-1.5c8.8-6.92,13.49-16.89,13.39-28.18s-4.94-21.91-14.27-28.19l.11-2.32c9.9,6.64,16.02,17.62,16.46,29.53.44,11.91-4.86,23.31-14.24,30.66Z"/>
  <path class="cls-21" d="M195.63,650.56l2.35,1.84-3.69,4.07-4.74,1.87c3.41,3.31,4.37,4.22,5.23,6.86l-.72,1.01.77,9.24c-.79.38-3.26-1.38-3.15-2.25l1.07-8.41-11.31-6.65c3.89-7.98,10.45-6.53,11.3-9.77l2.88,2.2Z"/>
  <path class="cls-20" d="M434.62,317.69c-.07.42-.75,1.39-.96,1.77s.52,1.07.94.99l2.12-.37-3.18,4.55-1.56-1.37-3.99-.59-.2-1.12-1.28-.79c-3.42-.6-5.22-2.48-7.45-7.05,1.06-.95,4.79-1.94,6.45-1.23l-1.74,1.48c2.36,2.29,3.63,3.81,5.57,6.54,1.19.56,4.64-2.64,4.43-4.49l-1.37-8.41c1.71-3.47,4.01-7.18,7.11-10.7,2.99,5.12-.83,7.85-3.36,11.58l-1.55,9.21Z"/>
  <path class="cls-10" d="M732.28,705.42l1.98,1.02-7.01,3.75-.18-1.4c-.05-.28-.5-.32-.55-.04l-.24,1.58c-7.08,5.21-13.41,11.55-19.15,18.76l-3.75,3.96.94-2.59c.2-.56-1.26-1.36-1.87-1.29l.91-2.92,2.53.63c3.73-4.13,6.48-9.46,9.6-14.46l2.71-4.08.23,1.46.29,1.86c.11.7.93-1.11,1.79-1.61l7.84-4.57,3.92-.05Z"/>
  <path class="cls-21" d="M402.81,438.94l-16.76,6.22-6.46,2.21c-2.57.88-3.81.85-5.16,2.15l-1.74-.03-2.46-1.18c12.13-8.81,20.38-7.34,31.38-13.72l1.22,4.36Z"/>
  <polygon class="cls-13" points="521.5 665.86 522.78 667.67 496.52 678.37 468.75 689.7 467.37 687.97 502.77 673.53 521.5 665.86"/>
  <path class="cls-28" d="M418.4,415.9l1.16-1.72,5.6,2.08c1.63.61,5.42-.07,7.44-.34l11.59-1.55c13.85-3.49,24.43-11.96,30.14-24.98-3.24,22.23-37.18,34.05-55.92,26.51Z"/>
  <path class="cls-21" d="M433.42,838.59c-.39.47-.84.66-1,.65-6.07-.62-17.56-12.48-12.87-25.13,1.29-3.48,4.91-6.57,7.65-6.9,3.99-.49,7.94.21,9.95,3.24,1.22,1.85,1.43,4.5.15,5.76-1.31-3.77-4.25-6.97-8.22-7.04s-6.96,3.42-8.03,7.75c-1.63,6.59,2.04,13.17,7.32,17.53l5.05,4.16Z"/>
  <path class="cls-23" d="M231.21,240.39c-.46-4.43,5.9-6.76,7.85-11.34-2.64-3.85-3.39-8.13-.97-11.3,2.6-3.41,7.08-4.12,11.07-1.83,3.12,1.8,4.48,6.24,3.18,9.85-1.46,4.04-5.85,5.87-10.61,4.77l-10.51,9.85ZM249,219.75l-1.23-1.26c-.75-2.83-5.17-2.17-7.16-.32-2.42,2.24-2.49,5.98-.31,8.56,2.04,2.42,5.66,2.57,8.48.62,2.38-1.64,3.52-6.52.23-7.61Z"/>
  <path class="cls-26" d="M199.1,581.38l-2.58,7.23-2.69-.25c-6.06-.63-10.2-5.11-12.92-10.93,6.63-.57,12.17,1.5,18.19,3.94Z"/>
  <path class="cls-23" d="M320.5,657.78l-.98-1.68c1.58-1.67,2.83-5.77,3.55-8.14,1.01-3.32,1.29-5.84,1.21-10.12l-7.29,3.16c-4.34,1.88-9.35,4.29-12,8.55l-1.65-.36c.94-1.23,2.22-4.72,3.63-5.45l15.29-7.88,7.5-3.85-3.14,10.3-2.93,11.13c-.35,1.34-2.29,3.38-3.19,4.34Z"/>
  <path class="cls-27" d="M785.26,785.73c1.73,3.4,3.34,7.27,2.16,10.02-1.35,3.14-4.7,5.41-7.71,5.57-3.53.2-7.85-2.19-8.46-5.98-.54-3.32.37-7.43,2.45-9.19,2.27-1.94,6.09-2.12,9.58-1.83l7.91-6.99c-.13,4.15-3.92,6.02-5.93,8.4ZM777.65,786.46c-3.87,1.28-5.25,5.18-4.01,8.75,1.05,3.02,4.59,5.06,8.31,3.35,2.5-1.15,4.84-5.17,3.6-7.94-1.42-3.14-4.52-5.28-7.9-4.16Z"/>
  <path class="cls-12" d="M554.32,413.45l1.28,5.22c-2.41,12-16.55,5.44-29.14.08l-1.14-.23-10.67-8.16-5.39-4.37,1.38-1.6,6.82,5.28c8.72,6.75,26.18,16.44,32.39,12.94,1.56-.88,3.16-3.92,3.65-5.85l.83-3.31Z"/>
  <path class="cls-28" d="M389.94,548.43c.03-.34.17-2.27.12-1.58l1.41,1.41c7.19,8.76,13.62,18.44,19.56,28.74s13.35,20.48,17.51,33.15l-14.32-24.35-23.57-36.84-.72-.53Z"/>
  <path class="cls-17" d="M302.98,404.59l-1.34,1.35-5.09-5.12-23.93-8.19-9.48,1.37-9.81,1.52-3.66,1.49c-.12-.62,1.03-2.72,1.79-2.88l10.26-2.23c5.21-1.13,11.97-1.38,16.66.22l17.9,6.12c2.18.74,5.28,4.49,6.69,6.35Z"/>
  <path class="cls-21" d="M293.25,828.73l-1.99,1.69-37.46-29.37,1.56-1.92c.34-.41,1.73,1.02,2.02,1.51l35.88,28.09Z"/>
  <path class="cls-29" d="M829.53,555.34l-1.54-.39.98-7.56-1.59-12.15,3.43,3.9,2.05-13.76,2.87,7c2.22-2.39,4.25-4.16,8.19-5.24-.6,6.12-9.13,4.62-11.4,14.81l-2.98,13.4Z"/>
  <path class="cls-28" d="M478.46,725.75c-17.09,13.02-27.84,31.26-33.87,51.51,2.93-22.14,16.64-41.09,34.08-54.36l-.21,2.84Z"/>
  <path class="cls-23" d="M417.53,276.44l-2.83,5.29c-.13.25.15,1.6.48,1.59l1.34-.03.18,2.12c-2.6,0-4.46,1.13-5.78,3.24l-.87-2.84c-.15-.49-1.61,1.03-2.16,1.62l-1.33-.8,2.55-2.14-.52-2.14-5.99,1.29-4.05,2.08c-4.7,1.13-9.24,4.22-10.52,9.07l-1.59-1.41c3.17-7.33,11.63-13.8,20.52-12.95,1.53.15,4.73,1.33,5.57.74,1.63-2.14,3.47-3.85,4.99-4.73Z"/>
  <path class="cls-23" d="M441.64,271.46l4.04.95-2.58.35c-.6,0-.06,1.17.29,1.92l-1.71,2.03c-.57.68-2.74-.56-3.61-1.13l3.75-.31c-8.2-7.35-16.3-3.04-24.29,1.16,4.44-8.31,14.26-8.25,24.11-4.98Z"/>
  <path class="cls-17" d="M580.27,531.02c-.18-.1-2.23-.72-2.13-.22l.07,1.76c-4.4-14.12-10.77-28.12-10.18-43.88l7.12,27.77,4.23-9.54,1.16-.23-4.18,11.79,3.91,12.55Z"/>
  <path class="cls-23" d="M526.78,277.57c4.48.75,9.86,4.79,14.39,7.21l8.48,4.53,3.59,2.56c.2.14,1.01-.16,1.25-.1l-.04,1.94-.33,1.61c-2.48-1.29-4.23-2.3-6.78-4.62-8.3-7.56-29.41-7.76-41.91-8.55l23.82-.19,5.5.26-11.59-4.42,3.62-.25Z"/>
  <path class="cls-12" d="M345.14,797.89l-.59,4.77,2.27.43-11.05,7.54c-2.4,1.64-8.85.24-11.72.17l-6.11,1.09,4.2-7.5c1.46-2.61,5.05-7.21,8.29-7.07l9.65.4c-7.22.33-14.22,1.79-16.31,8.47-.23.73-.28,3.04.38,3l2.5-.13c6.1,1.16,11.45-.92,15.48-5.61-.15-2.21,1.15-4.64,3-5.57Z"/>
  <path class="cls-30" d="M534.18,813.89l1.44,1.5c-9.64,7.55-22.38,9.87-34.07,6.21,1.96-1.36,3.57-2.76,3.87-4.39,9.68,3.29,20.62,3.09,28.76-3.32Z"/>
  <path class="cls-13" d="M576.54,315.32l.35,2.2c-.91-.35-2.74-.6-3.65-.37s-.27,2.83-.05,3.75l2.61,10.86-2.34-.03-2.88-13.42-10,4.02-2.5-.69.05-1.16c.4-.08.67-.09.77-.2.29.23,2.21-.26,2.83-.57l7.93-3.94c-.17-1.66-4.52-2.85-5.53-1.66l-3.8,4.48-2.02.12c.67-3.49,3.62-7.63,7.9-7.37l2.51.15c.51.03.8-1.45.82-1.75l1-.08,2.58,5.3c.36.74,2.85.59,3.44.35Z"/>
  <path class="cls-10" d="M785.68,230.53l-1.58.98-7.93-1.12c-2.87-.41-5.21-4.7-5.16-7.08.07-3.39,1.07-7.21,4.25-8.11,4.55-1.29,7.98-.56,10.52,2.5,4.25,5.13-1.84,9.55-.1,12.83ZM784.14,220.11c-.76-3.36-5.56-4.21-7.98-2.53-2.88,2.01-4.01,5.17-2.37,8.18,1.24,2.27,5.04,3.55,7.2,2.4,2.7-1.44,4.04-4.12,3.15-8.05Z"/>
  <path class="cls-23" d="M385.57,648.71l-2.15.38c-4.9-14.7-8.35-30.25-10.09-45.52l1.92-3.09,1.25,11c1.47,12.98,5.29,25.25,9.08,37.24Z"/>
  <path class="cls-10" d="M570.56,455.43l-4.05.83-3.38,6.74c-5.41,10.77-8.03,22.35-13.72,32.46l-2.27-1.01c6.67-12.52,11.85-25.87,16.13-39.58,2.24-.3,5.39.04,7.3.57Z"/>
  <path class="cls-17" d="M649.91,773.99l1.51,5.21-2.75,5.2c-.34-.39-.87-1.07-.91-1.07-.08,0-1.39.35-1.37.34.03,0,.83.71,1.04.88l.87.7.88,4.97-1.89-.09c-.42-2.74-3.71-4.5-6.92-4.85l-6.04-.66,3.05-.38,4.83-.02-.74-3.22-1.59-6.01c.43-.3,1.98.22,2.16.29l3.72,5.85-.28-4.34c-.06-.99,1.51-2.23,2.38-2.93l2.05.14Z"/>
  <path class="cls-4" d="M580.27,531.02c5.69,18.26,2.01,21.43-3.06,35.21l-1.58,4.29c-.08-.4-.53-2.07-.94-1.9l-2.17.87,4.58-9.14c4.73-9.28,3.94-18.68,1.1-27.79l-.07-1.76c-.1-.5,1.95.12,2.13.22Z"/>
  <path class="cls-27" d="M400.1,679.47c-7.45,13.85-12.62,29.24-14.12,44.93l-1.79-2.19c2.11-12.98,5.75-25.67,10.99-38.32l3.22-5.81,1.71,1.39Z"/>
  <path class="cls-5" d="M575.8,331.76c1.87,7.78-.34,21.46-6.1,29.53-.08,2.99-.42,7.76.63,10.3l-2.27.09c-2.6-6.21-1.26-10.36,2.19-16.29,3.97-6.82,3.88-16.19,3.19-23.66l2.34.03Z"/>
  <path class="cls-18" d="M432.45,360.73c2.2,11.91,13.72,24.33,25.39,20.38l18.94-6.41c-5.98,5.41-13.59,7.13-21.85,8.52-4.93.83-11.98-1.4-15.51-5.38-4.38-4.93-7.33-11.27-8.8-17.13l1.83.02Z"/>
  <path class="cls-3" d="M600.26,350.67c-.82,4.58-3.93,10.65-7.59,10.13,3.29-5.23,4.66-7.91,5.63-14.1l.5,3.18c.08.51.9.81,1.45.78Z"/>
  <path class="cls-3" d="M596.84,343.33c-1.1,7.63-9.77,9.92-8.44,19.23l4.27-1.76c-.91,1.45-1.89,2.4-4.3,4.41l3.22,7.41-4.23-.11c-3.33-6.03-2.45-14.61,2.26-20.88,3.51-4.67,6.73-9.16,6.08-15.05.62,1.96,1.43,4.78,1.14,6.75Z"/>
  <path class="cls-9" d="M648.25,771.34c.66-.05,2.07-.1,1.96.48s-.38,1.77-.3,2.16l-2.05-.14-.84-1.15-4.98,2.57c-.18-.06-1.74-.58-2.16-.29l-4.43,3.09c-1.11-3.5-1.51-8.36-.97-11.41l4.95-.35,8.81,5.02Z"/>
  <path class="cls-26" d="M772.28,690.29l-3.14,2.13c-1.94,1.49-4.59,2.66-6.84,3.2l4.29-10.2c.93-2.16,5.25-5.03,7.44-6.48,2.15,3.86.53,8.72-1.75,11.35Z"/>
  <path class="cls-23" d="M698.35,739.21l1.14,1.2-4.97,9.91-6.84,13.09-1.68-1.4c3.31-7.45,2.76-15.57,4.21-24.57,1.36,4.33,1.13,8.31,1.37,12.97l6.77-11.2Z"/>
  <polygon class="cls-13" points="643.73 615.52 642.44 636.31 639.73 656.43 637.94 654.24 639.32 643.33 640.72 625.4 641.37 612.41 643.73 615.52"/>
  <path class="cls-9" d="M703.36,726.25l-.91,2.92c-.44.06-1.51,1.18-1.65.76l-1.01-2.93-.41,2.33c-2.98-5.55-2.68-12.24.75-17.26.02,1.07,1.35.29,1.7.09l.89-2.03c.68-1.54,3.52,6.89.64,16.13Z"/>
  <path class="cls-18" d="M491.51,395.66l-1.06,7.92c-1.2,8.97,6.95,8.91,7.27,15.56.06,1.35-1.75,3.68-3.07,4.56,3.25-10.99-6.95-8.22-8.68-20.03-.47-3.23,1.59-7.34,4.08-9.9l1.46,1.89Z"/>
  <path class="cls-18" d="M743.15,727.1l.13,1.06c-15.48,1.52-28.53,9.35-42.8,18.37,8-11.1,28.52-19.58,42.67-19.44Z"/>
  <path class="cls-9" d="M834,578.18l2.42,7.14c-1.74,2.86-5.98,4.86-9.43,5.17l-.8.07-2.49-8,10.29-4.37Z"/>
  <path class="cls-21" d="M728.36,705.47l-7.84,4.57c-.86.5-1.68,2.31-1.79,1.61l-.29-1.86c1.58-1.62,2.27-3.22,2.75-5.98l3.11-3.44c.2-.23,1.09-1.54.8-1.61l-1.77-.47.65-6.12c5.3-1.71,7.42-7.6,15.28-9.56-1.11,9.7-3.5,18.55-10.9,22.86ZM727.4,700.06l5.16-1.21c2.29-3.92,4.08-7.3,3.04-12.08-4.73,1.53-7.39,4.26-10.13,7.61l1.93,5.67Z"/>
  <path class="cls-3" d="M257.85,724.18c-.64.44-1.94,1.48-1.56,2.1l2.04,2.72c-3.51-1.12-6.2-.3-9.71,2.07.96-4.52,7.27-2.83,3.81-5.75-3.34-.49-6.69,1.49-6.82,6.16.64,1.84,2.46,4.27,5.1,4.86l-2.07,1.85-4.42,3.33c-4.4-5.95-1.32-13.24,2.94-16.96l2.8-2.55c1.26,1.64,5.82,2.14,7.88,2.17Z"/>
  <path class="cls-18" d="M729.89,757.45l-.65,2.7-3.29.67,6.23,3.58c6.15,3.54,8.86,10.62,6.31,16.88-.16-2.79-.54-5.75-1.7-7.26-.92-3.16-2.57-5.18-5.63-7.84-4.83-3.15-11.41-4.68-16.95-3.67l-3.03-1.58,12.78-2.3,5.92-1.18Z"/>
  <path class="cls-13" d="M585.46,316.74c-.42.47-1.55,1.36-1.76.81l-.83-2.17-3.54-3.62-8.13-6.23-1.83,1.25-3.21-2.43c-.75-.57-.2-2.57.2-3.59,9.27.56,16.73,6.81,19.11,16Z"/>
  <path class="cls-21" d="M275.66,727.65v-1.35c17.38,1.65,34.73,6.82,47.26,19.97l-14.92-8.41c-10.09-5.69-21.07-9.2-32.35-10.2Z"/>
  <path class="cls-6" d="M514.55,48.83l-4.81-2.31.88,2.33c-2.43-.15-4.42-3.14-4.15-5.38.3-2.44,2.52-4.83,4.82-5.42s4.9,1.37,6.4,4c1.43,2.5-.56,6.33-3.15,6.78Z"/>
  <path class="cls-1" d="M518.07,133.73l-24.45.37,6.69,1.23.2,2.54-15.97.87-1.1-4.29c-.19-.74,2.35-1.58,2.96-1.6h30.2s1.47.88,1.47.88Z"/>
  <path class="cls-9" d="M753.47,758.55c.23.12-1.58,2.75-2.41,2.84l-10.81,1.06-6.89-2.13c-.65-.27,1.34-2.55,2.07-2.48l9.53.93-1.85-4.86c4.34.57,7.74,2.07,10.37,4.65Z"/>
  <path class="cls-20" d="M267.93,698.93c-.3.26-1.49.24-1.63.56l-.59,1.67c-2.86-.02-6.21.98-8.82,2.44l-1.73-1.04c-2.87-.74-11.35,9.25-10.78,18.94-4.96-6.65,1.79-16.37,11.02-20.27l2.01-.85c.38-.16-.18-1-.52-1.21l-.67-.18-2.7-1.78,3.09-.11-5.28-6.63,5.16-.54-.68-4.9c4.33,4.4,1.31,13.12,12.12,13.89Z"/>
  <polygon class="cls-23" points="527.42 719.15 526.55 721.58 516.48 726.29 488.73 737.65 487.3 736.05 504.54 728.32 527.42 719.15"/>
  <path class="cls-5" d="M514.18,890.6l-1.6-5.59-1.59,3.32.25-9.46.18-17.37c.01-1.08-2.3-3.15-1.97-4.06l1.95-5.36c-.08-.59,2.15-.41,2.25.14,1.74,4.6.93,5.05.46,8.47-.99,7.06-1.41,15.01-.44,22.37l.5,7.56Z"/>
  <path class="cls-29" d="M279.01,751.92l-2.34,4.23,10.56.94.53,2.89-6.9,2.61c-4.15,1.57-11.31,1.17-11.87-1.84l7.69,1.59c.59.12,2.89-.09,2.76-.66l-.61-2.5-6.57-1.76c-1.08-.29-2.38-.72-2.74-.08-.67,1.16-1.79,3.1-1.19,3.48-2.36.19-6.04-.62-8.85-1.6,8.57-1.58,12.03-5.68,19.51-7.26Z"/>
  <path class="cls-29" d="M844.62,519.49c-.92,1.3-2.11,3.56-3.07,4.18l-5.68,3.65c1.55-8.79,7.79-16.72,16.98-19.45l-8.23,11.62Z"/>
  <path class="cls-22" d="M487.3,736.05l1.44,1.6c-13.74,7.41-23.63,19.16-28.37,34.57l-1.75-1.65,8.6-16.65c5.42-7.48,12.22-14.34,20.09-17.87Z"/>
  <path class="cls-9" d="M647.04,838.24l-1.73,1.13-7.75-.19c-.28-.24-.5-.41-.49-.41l.25-3.57-.41-2.07c-.15-.47-1.68.73-1.63.97-.63,0-2.09.05-2.75.26l.37-1.31c.16-.32.9-.58,1.42-.82l2.23-1.15.98-.04,8.56,1.06c.72.09,2.71,2.1,2.42,2.77l-1.47,3.37Z"/>
  <path class="cls-12" d="M711.18,760.93l3.03,1.58c-5.89,1.07-11.18,2.73-17.3,6.26l10.37.65c1.34.08,3.65,3.17,2.71,3.46-5.04,2.32-8.62,1.61-11.38-1.5l-3.18-4.19c4.44-3.32,10.42-5.3,15.75-6.26Z"/>
  <path class="cls-19" d="M731.4,540.26l1.71.9.52,6.23,4.79.56-4.64.66c-.97.14-.1,2.53.38,3.77l-2.82-.79c-.63-.18-1.12,1.08-1.14,1.74l-4.65-4.39-5.39-.99,5.29-.86-1.06-4.54,2.68,1.94c.44.32,1.2-.99,1.27-1.55l.29-2.46c.07.14,1.39,2.05,1.7,1.55l1.08-1.77Z"/>
  <path class="cls-18" d="M250.47,671.34c-1.53-3.53-3.18-6.78-5.67-7.59-3.49-1.14-8.22-.45-10.16,2.3-4.63,6.55-2.49,13.65,1.26,20.39-6.21-4.63-7.54-13.38-4.06-19.87,3.99-7.44,13.93-6.23,16.99-2.8,1.71,1.92,2.2,5.51,1.64,7.57Z"/>
  <path class="cls-18" d="M614.41,796.05c-.48,4.37,3.48,8.43,7.14,9.84-5.63,1.02-7.88-4.07-9.66-8.15l-3.8-8.73,9.2,3.29c4.57,1.63,10.1,2.58,10.98,8.18-3.39-4.44-9.41-7.19-13.86-4.42Z"/>
  <path class="cls-26" d="M822.05,559.58l2.31,11.17-2.36,7.96-6.06-16.13c1.58-1.63,4.1-2.79,6.11-2.99Z"/>
  <path class="cls-23" d="M657.78,810.18c-6.86,7.2-14.99,13.48-23.41,18.96l-1.01-1.07,6.03-6.83,3.74-6.21,1.17,1.2c-.58.94-1.14,2.73-1.67,4.64l7.46-6.22,6.95-6.74.74,2.27Z"/>
  <path class="cls-10" d="M441,322.42l7.56.74.17,1.51c1.47,3.18,2.66,7.1,3.14,10.91-10.22-1.28-6.35-12.19-13.53-11.06l1.21-3.03,1.45.92Z"/>
  <path class="cls-16" d="M831.98,604.12c-1.5,4.13-6.43,8.54-10.37,11.66-9.65,7.65-20.25,12.5-32.41,14.65l-9.94,1.76-2.93-1.98,16.96-2.36,7.13-2.27,6.97-2.95,10.18-5.94c3.47-2.03,6.27-5.36,8.93-7.95l5.48-4.62Z"/>
  <path class="cls-18" d="M787.48,685.71c2.65-6.17,5-11.54,1.97-17.66-1.67-3.37-4.77-5.32-8.62-4.76-3.32.48-5.25,3.13-7,7.36-1.81-3.81.43-6.7,3.59-8.76,2.76-1.8,7.39-1.82,10.69,1.08,6.26,5.5,5.88,17.14-.61,22.75Z"/>
  <path class="cls-2" d="M392.78,835.89c-3.94,3.28-10.05,5.41-15,3.9l.52-.82-4.07-3.87,7.49-.52c.72-.07,1.74-2.81,2.39-2.52l3.14,1.38,5.53,2.43Z"/>
  <path class="cls-14" d="M754.27,757.11l-.8,1.44c-2.63-2.58-6.03-4.08-10.37-4.65l1.85,4.86-9.53-.93c-.73-.07-2.72,2.2-2.07,2.48l-4.12-.17.65-2.7c9.46-5.6,15.31-7.85,24.38-.33Z"/>
  <path class="cls-27" d="M560.32,318.58l-1.43,1.68c-.1.11-.36.12-.77.2-.02.36-.06,1.28-.05,1.16l2.5.69c-6,2.41-7.41,15.02-21,20.58h-2.08s10.07-8.14,10.07-8.14l3.96-5.08c.02-.2-.22-1.2-.55-1.15l-1.5.23,1.01-.98,1.19-.96,4.59-5.39,2.05-2.74,2.02-.12Z"/>
  <path class="cls-30" d="M724.67,669.52l-1.07,5.26c-.31,1.5.08,4.24.25,5.61.47,3.77.53,8.05.14,11.78l-.65,6.12-2.32.09,1.13-8.23c.9-6.57-1.34-13.55-3.77-19.08l.87-2.73,3.53,4.02,1.91-2.85Z"/>
  <path class="cls-18" d="M377.85,682.68c-.59,16.14-6.62,31.07-14.99,44.73,6.37-14.38,10.61-28.78,14.99-44.73Z"/>
  <path class="cls-24" d="M812.93,552.72c-.38,2.9,1.95,7.04,3.01,9.86l6.06,16.13,1.71,3.84,2.49,8-1.94-.1-2.19-.11,1.51-1.07c.43-.41-.04-1.94-.33-2.68l-11.85-30.31-1.35-3.45,1.52-1.4,1.36,1.29Z"/>
  <path class="cls-5" d="M312.21,347.78c-.52-2.46-.94-5.25-2.14-6.1s-4.23-1.14-6.38-1.48l5.64-1.63-.32-1.62c-.05-.26-.07-1.39.12-1.21l2.02,1.86,1.71-7.1c.69,2.29.76,6.21,2.32,6.91l6.45,2.88-3.34.48c-.8.12-1.32,1.02-2.21,2.17l-2,.06c-.5.01-.54,2.02-.52,2.54l.11,2.66c.01.32-.74-.03-1.46-.42Z"/>
  <path class="cls-21" d="M363.58,468.55l1.92,4.09c3.86,8.2,12.62,6.89,14.42,14.16.6,2.43-.07,5.27-2.19,6.84,4.54-13.74-13.82-8.8-16.61-24.37l.64-2.72,1.82,2.01Z"/>
  <path class="cls-12" d="M490.86,525.8l-2.81,1.5c-7.37,3.95-18.8,5.14-27.29,4.94l-6.14-1.02,3.96-.65,19.14-2.95,13.14-1.82Z"/>
  <path class="cls-29" d="M698.45,802.07l-2.15-.17c-2.87-1.61-6.21-3.31-9.95-3.79-5.93-.77-7.87,7.21-9.18,5.96l-1.08-1.04-3.93-3.04c9.92-5.07,21-6.1,26.28,2.08Z"/>
  <path class="cls-7" d="M769.37,421.6l-.64,2c-.06.2.21.53.36.78-.53-.01-1.6.26-1.56.69l.12,1.57.36,5.86-2.77.05.87-6.51c.27-2.04-3.21-4.34-5.56-3.44l-8.13,3.1-6.18,3.24-1.1-1.4c4.45-2.63,9.3-7.56,15.14-6.9l9.1.97Z"/>
  <path class="cls-2" d="M428.01,322.67l3.99.59,1.56,1.37.05.83c-1.81.7-3.29,2.22-4.58,4.15-1.41,2.11-6.53,2.34-9.29.62.4-3.8,4.53-7.56,8.27-7.56Z"/>
  <path class="cls-12" d="M402.81,438.94l-1.22-4.36,2.94-4.03c3.62-4.97,4.05-9.1,4.76-15.66,1.35,1.65,2.15,6.73,1.26,8.45l-6.15,12c4.91-1.29,7.37-5.72,9.97-10.88-.09,7.03-5.52,12.22-11.58,14.47Z"/>
  <path class="cls-28" d="M446.26,629.89l1.23.36-2.68,6.48-17.14,32.33c3.62-14.96,11.75-26.66,18.59-39.17Z"/>
  <path class="cls-16" d="M616.18,207.22c3.67.13-5.45,2.2-5.8,3.23l-1.97,5.77-1.78-5.78-6.34-3.04c1.81-.44,4.47-.88,5.54-1.71,1.23-.95,1.66-4.01,2.41-6.58l2.37,5.85c.52,1.29,4.12,2.21,5.56,2.26Z"/>
  <path class="cls-17" d="M555.6,418.67l-1.28-5.22c.45-6.1,6.25-4.03,6.41-10.83.03-1.17,1.83-2.97,2.8-3.87,2.54-2.34-1.98-4.83,1.77-8.93l1.75-1.9c.44-.48,1.59,1.09,2.01,1.76.34.55-.55.94-2.14,1.68-3.12,2.54.74,7.29-.58,8.33l-3.34,2.65c-.36,3.86-1.25,7.14-5.78,8.28l-1.61,8.03Z"/>
  <path class="cls-10" d="M519.36,253.92l2.25,4.29c-7.47,1.86-15.67,2.58-22.53-1.86l2.57-.37,11.65-.51,6.05-1.55Z"/>
  <path class="cls-21" d="M639.43,766.32l-4.95.35c-.54,3.05-.14,7.91.97,11.41l4.43-3.09,1.59,6.01-6.71.61,2.62,2.63-3.05.38c-.77-.08-2.62-1.27-2.21-1.91l2.08-3.29c-1.73-4.6-3.49-10.72.39-15.06l4.85,1.96Z"/>
  <path class="cls-12" d="M760.12,739.37l1.16-1.3c4.33,2.32,10.93-4.2,12.8-2.43l2.82,2.68c2.56-4.43.93-8.81-1.84-12.28l1-.89c4.66,3.89,5.84,11.62,1.38,16.62-1.77-1.61-3.48-3.44-4.8-3.53-3.51-.23-7.22,5.22-12.52,1.13Z"/>
  <path class="cls-26" d="M526.78,277.57l-3.62.25-14.47-3.16c-2.78-.61-5.75-1.1-8.17.02h-1.12s-5.77,1.13-5.77,1.13c-.26.02-.96-.31-1.17-.4l-4.74.1-.13-2.18,9.94-.7c10.23-.72,20.23.72,29.24,4.94Z"/>
  <path class="cls-23" d="M398.84,458.92l-6.97,9.09c-.62-.78-1.44-1.59-1.16-2.02l2.04-3.2c-2.37.25-4.45,2.89-4.63,5.51l-2.53,9.16.5,6.34c-4.53-10.06-.1-21.71,8.38-27.38l4.36,2.48ZM394.12,460.55l-.5.5.5.5.5-.5-.5-.5Z"/>
  <path class="cls-14" d="M256.89,703.6c-6.6,3.7-11.78,12.13-6.93,18.41l-2.8,2.55-2.78-3.05c-.57-9.69,7.91-19.69,10.78-18.94l1.73,1.04Z"/>
  <path class="cls-28" d="M698.45,802.07l6.4,9.91-9.56-.76c-5.51-.44-11.96-.04-14.36-6.49,6.26,3.63,10.86,5.8,18.16,3.15l-2.8-5.98,2.15.17Z"/>
  <path class="cls-13" d="M479.14,275.43l4.09.58c.77.08-.05,2.01.48,3.13-5.53,1.97-10.98,6.06-14.95,10.7l-10.16,11.87c3.54-10.42,12.14-17.1,22.17-23.43l-4.52-.96c.72-.56,2.02-1.5,2.89-1.89Z"/>
  <path class="cls-18" d="M450.41,843.87c-.22,1.24-.02,1.58.43,1.39.77-.32,2.02-.85,1.74-1.13,9.32,2.57,19.3,6.7,24.06,16.17-8.31-8.44-18-13.24-28.99-13.65l-.06-3.45c.9.15,2.67.59,2.82.68Z"/>
  <path class="cls-14" d="M822.05,559.58c-2.01.21-4.53,1.36-6.11,2.99-1.06-2.82-3.38-6.96-3.01-9.86.14-1.1,1.32-3.26,2.29-4.93,3.49,3.96,5.96,7.58,6.83,11.79Z"/>
  <path class="cls-10" d="M380.7,786.29c-.46.19-1.65.03-2.05,0l-.36-1.78-3.5,1.61-1.25-3.78.1-1.1,1.51.87c.41.22,1.83-1.55,1.9-2,.19-1.27-.64-3.87-1.4-4.9l4.52-1.56c.9-.38,3.09.25,3.65,1.04.45.63.77,2.58.93,3.79-1.81.54-3.75,1.22-4.28,2.43-.64,1.47-.54,4.28.23,5.39Z"/>
  <path class="cls-10" d="M511.48,967.14l2.17-.16c1.79,1.16,4.86,4.44,4.69,6.67-.27,3.44-3.1,5.48-5.32,5.62-2.6.16-5.67-.88-6.31-2.94-1.46-4.74.89-8.89,4.77-9.18ZM515.89,972.88l-3.74-3.46c-2.62.26-3.92,1.77-3.92,4.16s2.32,3.73,4.45,3.7c1.62-.02,4.36-3.34,3.2-4.4Z"/>
  <path class="cls-18" d="M446.68,401.29c-11.9,1.62-22.55-4.53-28.03-14.87l.33-8.94c1.24,16.26,13.23,20.67,27.7,23.81Z"/>
  <path class="cls-28" d="M407.51,798.31c.31-1-.99-3.59-1.93-3.76-4.27-.78-9.27,2.43-13.03,6.58,1.47-7.16,10.61-9.98,17.64-8.34.95,5.84-3.91,14.81-12.2,14.15,3.66-1.17,8.32-4.75,9.53-8.62Z"/>
  <path class="cls-12" d="M571.14,658.86c-5.11-1.42-4.99,7.06-11.25,7.57l9.54-12.12,13.9-20.03c-2.22,9.43-11.85,16.4-12.19,24.58Z"/>
  <path class="cls-6" d="M441,322.42l-1.45-.92c-.91-.58-2.11-1.35-1.6-2.02.85-1.1,2.04-1.76,3.64-2.2l2.03-5.53-3.63,3.93c.24.29-.7-.88-1.02-1.27-.41-.5-1.79,0-2.37-.05,1.39-2.58,4.79-6.24,8.32-9.18,1.03,3.64,1.07,8.19-.56,11.04l-3.36,6.2Z"/>
  <path class="cls-29" d="M323.49,729.23l-.93.2-2.08-3.82c.35-1.38,1.51-1.55,2.96.47l.3-4.81c-.25-3.38-1.23-6.55-2.84-10.69-4.22,3.74-.25,7.28-1.85,9.53l-2.2,3.08c-.42-3.96-.87-11.59,4.13-15.47,5.37,9.21,5.65,12.88,2.51,21.51Z"/>
  <path class="cls-7" d="M566.35,300.75c-.4,1.02-.96,3.02-.2,3.59l3.21,2.43,1.16,2.89-1,.08-6.3-5.41,1.19-1.57c.23-.32-.44-1.06-.7-1.31-.3-.61-1.53-1.95-2.42-2.41l-7.17-3.72.33-1.61,3.12-1.15c3.82.98,7.55,4.49,8.77,8.19Z"/>
  <path class="cls-29" d="M480.53,421.63h-1.47c-.38.03-.23,1.61-.31,1.98l-1.11,5.08.53-10.88-.06-13.3c-.02-5.53,1.15-11.17,5.33-15-.56,2.7-2.83,6.75-2.83,8.91l-.08,23.21Z"/>
  <path class="cls-2" d="M399.3,368.72l4.21.9,1.31.77-1.42,4.33-8.67,10.47-1.03-2.56c1.03-3.08,2.84-6.58,4.94-8.89l2.86-2.82-4.19-.42c-.62-.06-.8-1.36-.7-2.08l2.67.31Z"/>
  <path class="cls-12" d="M202.76,654.39l-.89,3.89-7.75.47,4.63,3.27-3.96,3.18c-.86-2.65-1.82-3.55-5.23-6.86l4.74-1.87,3.69-4.07,4.77,1.99Z"/>
  <path class="cls-29" d="M718.16,704.22c-.27.62-.85,1.67-.63,2.27l.68,1.85-2.71,4.08c1.87-11.68,1.99-23.29-8.63-24.77,1.06-1.16,3.68-2.79,4.64-2.23,6.39,3.71,7.53,11.17,6.66,18.81Z"/>
  <path class="cls-2" d="M324.5,769.07c1.09,1.11,2.46,3.32,3.67,3.84l-7.71,2.1c-1.75.55-5.7-.36-7.72-1.06-.03-2.9,2.94-4.88,5.77-4.81l5.99-.06Z"/>
  <path class="cls-9" d="M730.24,671.38c0,.34.06.73,0,.95l-.89,2.02c-.07.22-.04.8-.04,1.06l-2.13,1.99-1.34,2.08c-.27.42-1.39,1.01-1.98.92-.17-1.38-.56-4.11-.25-5.61l1.07-5.26c.04-.21-.06-.6-.12-.89l5.58-2.84.11,5.59Z"/>
  <path class="cls-15" d="M498.2,119.73l-3.54,1.48,1.97,3.72-10.2.99c-1.68,0-3.26-1.83-3.11-3.67.1-1.2,2.59-2.51,3.87-2.49l11.01-.03Z"/>
  <path class="cls-13" d="M520.57,188.48l-4.24,3.53c-6.64-2.22-13.88-1.62-20.09,1.75l2.01-3.4c4.1-1.65,8.14-3.19,13.27-2.72l9.05.84Z"/>
  <path class="cls-13" d="M768.73,423.6l.64-2c.27-.83,1.29-2.65.73-3.32l-2.47-2.96-7.65-8.76c-1.21-1.39-4.81-2.93-6.61-3.13l.94-1.83c2.07-.85,6.17,2.36,7.71,4.06l8.22,9.13c.95,1.05,2.42,3.85,2.15,5.19s-2.19,3.13-3.67,3.63Z"/>
  <path class="cls-19" d="M387.76,196.13l1.98,2.61-2.81-.53c-.69-.13-2.04,1.78-1.89,1.63l-6.54-5.15,6.5-4.98,7.13,4.82-4.37,1.6Z"/>
  <path class="cls-14" d="M255.81,685.04l.68,4.9-5.16.54c-2.45-3.08-4.13-7.52-2.3-12.34l6.78,6.89Z"/>
  <path class="cls-26" d="M207.06,561.81l-5.57-2.38c.87-4.28,3.26-8.81,7.4-10.76l2.06,2.89-3.89,10.25Z"/>
  <path class="cls-2" d="M391.87,468.02c-5.16,8.15-3.23,17.65,4.97,24.29-7.14-.53-9.77-8.02-9.32-14.75l.61-9.25c.17-2.62,2.26-5.26,4.63-5.51l-2.04,3.2c-.28.44.54,1.24,1.16,2.02Z"/>
  <path class="cls-26" d="M385.98,724.4l-1.04,10.9-.62,22.06c-2.66-11.71-2.01-23.53-.12-35.15l1.79,2.19Z"/>
  <polygon class="cls-9" points="207.06 561.81 202.83 573.07 199.21 569.84 200.05 566.57 201.5 559.43 207.06 561.81"/>
  <path class="cls-12" d="M246.43,800.53l.97-1.97,2.39-6.3c.23-3.06-3-5.83-5.59-6.11s-5.24,1.11-7.38,3.03l-1.22-.22,2.44-4.38c.49-.87,3.64-.42,4.8-.45,4.66-.16,7.97,2.34,8.79,6.84.73,3.98-.72,7.63-5.2,9.58Z"/>
  <path class="cls-12" d="M558.4,302.5v2.31c-4.85.47-9.37,4.07-13.17,7.59l-10.37,9.61c6.11-8.45,13.65-18.31,23.54-19.5Z"/>
  <path class="cls-12" d="M533.63,322.83l1.23-.82-1.23.82Z"/>
  <path class="cls-12" d="M521.69,336.74l-5.54,1.19c-1.16.25-2.63-2.05-2.72-3.48,2.21-.29,6.69-1.68,8.6-3.12l11.61-8.49c-3.55,7.08-11.26,9.66-18.46,13.4l6.51.5Z"/>
  <path class="cls-23" d="M387.85,830.01c1.6,1.32,3.83,2.45,5.7,3.28l.05,2.82c-.23,0-.53-.12-.82-.22l-5.53-2.43-3.14-1.38c-.65-.29-1.67,2.45-2.39,2.52l-7.49.52,5.35-3.6-1.88-1.24c2.37-.99,7.46-.38,10.15-.26Z"/>
  <path class="cls-18" d="M425.37,351.77l-.18.69.43,1.28c-6.24,6.07-14.24,11.1-22.91,12.06l.92-2.05c7.77-2.15,15.02-6.61,20.9-12.1l.85.12Z"/>
  <path class="cls-20" d="M755.5,722.45c-.9,1.83-1.02,5.63-1.07,7.94l-3.71-1.06c-1.98-.57-5.31-1.38-7.45-1.17l-.13-1.06,5.19-2c1.22-.47,1.63-3.58,2.19-4.82l4.97,2.17Z"/>
  <path class="cls-21" d="M378.65,786.29c-6.54,4.67-4.37,20.03.28,28.74l-1.5.26c-5.26-8.49-6.58-20.15-2.65-29.17l3.5-1.61.36,1.78Z"/>
  <path class="cls-29" d="M305.78,704.3l-2.14-3.05c.43-7.05,2.11-14.85,7.74-16.11,1.33-.3,3.84.86,4.53,2.54-7.78-1.33-9.12,7.09-10.13,16.62Z"/>
  <path class="cls-13" d="M557.68,459.32c-3.89,9.48-8.34,18.87-14.76,26.56l-1.41-1.34c5.26-6.8,9.48-14.6,13.21-22.79l2.02-3.36.94.94Z"/>
  <path class="cls-18" d="M612.19,448.75l2.62-.06c.56,0,.37-1.84.63-2.46l3.82,4.52c4.84,5.73,4.55,14.81-1.96,18.6,4-6.23,5.11-13.01-.33-17.81l-.98,2.99-3.79-5.78Z"/>
  <path class="cls-27" d="M603.94,401.78l-1.72-.31c3-4.62,2.92-10.24.1-14.69l-1.57-2.47-1.04,5.37-1.59-5.07,3.36-3.08c5.57,5.03,6.61,14.53,2.45,20.23Z"/>
  <polygon class="cls-16" points="500.51 137.86 540.46 138.74 484.54 138.74 500.51 137.86"/>
  <path class="cls-14" d="M755.5,722.45l-4.97-2.17c1.19-2.64,4.35-6.24,6.74-8.69l4.81,1.01c-2.51,2.92-4.72,6.08-6.57,9.86Z"/>
  <path class="cls-13" d="M425.53,312.49l5.8,2.49c.22-2.97.32-5.78,1.1-7.37l1.37,8.41c.21,1.85-3.24,5.05-4.43,4.49-1.94-2.73-3.21-4.25-5.57-6.54l1.74-1.48Z"/>
  <path class="cls-2" d="M379.58,447.37l-6.25,5.88c-5.82,5.06-8.72,11.9-7.82,19.39l-1.92-4.09c.13-8.1,5.44-13.83,10.83-19.04,1.35-1.3,2.58-1.27,5.16-2.15Z"/>
  <path class="cls-26" d="M573.59,437.75l7.79,8.79c.52.58.69,3.34-.02,3.43-3.4.42-8.92-7.07-10.77-12.25l3,.03Z"/>
  <polygon class="cls-5" points="572.81 586.57 566.34 606.67 564.19 605.39 570.19 586.67 572.81 586.57"/>
  <path class="cls-28" d="M372.68,449.48c-3.21,2.76-6.96,5.89-9.18,9.96l-1.73,7.11-.64,2.72c-3.01-7.28,1.9-15.74,9.09-20.96l2.46,1.18Z"/>
  <path class="cls-22" d="M514.55,48.83c-.17.26-1.01,2.51-1.02,3.28l-.13,17.72-1.79.12-.06-10.06-.93-11.04-.88-2.33,4.81,2.31Z"/>
  <path class="cls-10" d="M575.63,570.52l-2.82,16.05-2.63.1,3.34-15.5c-6.48,5.75-12.02,11.89-20.68,12.67,6.08-3.61,11.66-6.31,16.38-10.61,1.07-.97,2.18-3.29,3.3-3.74l2.17-.87c.4-.16.86,1.5.94,1.9Z"/>
  <path class="cls-21" d="M383.42,649.09l2.15-.38,9.1,28.77c-3.35-4.99-5.24-10.36-7.14-16.08l-4.11-12.32Z"/>
  <path class="cls-29" d="M591.59,372.61l9.9,8.94-3.36,3.08c-1.5-5.6-8.59-8.16-10.77-12.12l4.23.11Z"/>
  <path class="cls-13" d="M439.54,321.5l-1.21,3.03c.63,2.27,1.34,5.38.91,8.05-.31,1.95-4.93,3.94-6.52,4.04l2.15-6.73.77-2.47c.17-.53-1.79-.96-1.98-.95l-.06-1.01-.05-.83,3.18-4.55-2.12.37c-.42.07-1.14-.62-.94-.99s.89-1.35.96-1.77l1.72-.69c.45-.3,0-2.16.26-2.64.58.05,1.96-.45,2.37.05.31.38,1.25,1.56,1.02,1.27l3.63-3.93-2.03,5.53c-1.6.44-2.79,1.1-3.64,2.2-.52.67.69,1.44,1.6,2.02ZM437.71,325.7c0-.64-.52-1.15-1.15-1.15s-1.15.52-1.15,1.15.52,1.15,1.15,1.15,1.15-.52,1.15-1.15Z"/>
  <path class="cls-26" d="M295.56,666.26c-1.06.59-3.25,2.53-2.84,3.73l2.07,6.14,3.24-1.77c.45,1.92.14,4.62.03,6.91-5.09-3.63-8.15-9.89-7.33-15.66l3.39-1.33c.6-.22,1.32,1.54,1.44,1.98Z"/>
  <path class="cls-7" d="M393.68,323.7l.67,9.37-.7.97-2.56-4.22c-.4,3.06-.37,4.82.42,6.95l-2.2,1.39c-1.45-5.39-1.34-11.38,2.49-15.68l1.88,1.22Z"/>
  <path class="cls-26" d="M367.5,809.06l-2.11-8.18c.2-1.79.84-4.5,1.57-5.75,2.79,1.72,4.23,4.21,4.26,6.6.03,2.21-1.65,4.8-3.73,7.33Z"/>
  <path class="cls-29" d="M431.58,343.39l-.7,8.8-5.69.26.18-.69.21-1.12,1.07-1.08c3.61-4.18.21-10.95,3.94-18.9h.99s-2.64,12.65-2.64,12.65l2.64.07Z"/>
  <path class="cls-21" d="M288.79,787.51l-.68-3.87,4.94,2.26c.87.45,3.51.09,4.25-.53s-.29-2.36-1.33-3.65c-.32,0,1.92-2.2,2.29-1.6l1.98,3.23c1.04,1.7-2.52,5.14-4.46,5.71-2.23.65-5.64-.24-6.99-1.56Z"/>
  <path class="cls-26" d="M291.95,688.03l2.31,1.27c.47.26.24,1.95-.06,2.13-1.26-.68-3.93,1.13-4.55,2.51l-2.18,3.58c-.58-1.05-1.57-3.01-1.91-4.27l.29-7.13,6.1,1.91Z"/>
  <path class="cls-17" d="M478.43,552.19l2.23,1.71-27.29,5.69c4.48-2.98,9.19-3.86,14.37-5.01l10.69-2.38Z"/>
  <path class="cls-28" d="M534.56,296.36l-17.88,10.33c5.72-6.32,17.46-14.54,26.99-13.73l-9.11,3.4Z"/>
  <path class="cls-18" d="M649.19,790.21c1.63,9.17.05,18.09-4.88,26.01l-1.17-1.2c3.17-5.27,5.98-12.98,4.98-19.54l-.82-5.36,1.89.09Z"/>
  <path class="cls-24" d="M919.49,467.82c1.43-.24,3.92,1.54,4.4,2.79.64,1.65-1.05,4.6-2.57,4.9-1.97.39-4.52-1.07-5.15-2.68-.78-1.98,1.06-4.62,3.32-5.01Z"/>
  <path class="cls-2" d="M391.77,369.49l2.92,1.74c-6.85,2.04-11.92,6.78-14.65,13.51l-.83-4.31c2.64-4.8,6.83-8.33,11.63-11.12l.92.18Z"/>
  <polygon class="cls-3" points="513.56 943.21 513.65 966.98 511.48 967.14 511.42 944.22 513.56 943.21"/>
  <path class="cls-13" d="M566.77,352.73c-6.97-3.32-12.76-5.72-20.72-5.6,6.54-2.92,17.01-2.44,20.72,5.6Z"/>
  <path class="cls-15" d="M105.18,470.09c.93,1.3-.2,4.54-1.42,5.14s-4.24-.04-5.08-1.12c-1.13-1.46-.92-4.37,1.03-6.17,1.04-.95,4.29.52,5.47,2.15Z"/>
  <path class="cls-15" d="M919.34,540.79c1.35-.47,4.13,1.46,4.58,2.74.55,1.57-.98,4.54-2.56,4.89-1.42.32-4.1-.82-4.83-1.94-.98-1.48.07-4.75,2.81-5.7Z"/>
  <polygon class="cls-15" points="208.89 653.15 208.78 654.38 208.66 655.36 207.96 658.2 207.46 662.84 201.87 658.28 202.76 654.39 202.68 653.36 204.83 653.05 208.89 653.15"/>
  <path class="cls-13" d="M480.53,421.63c-.02,7.05-1.33,14.51-3.66,21.07l-1.67-2.21,2.45-11.8,1.11-5.08c.08-.37-.07-1.95.31-1.97h1.47Z"/>
  <path class="cls-26" d="M332.59,752.67c-1.88-1.1-2.95-3.35-2.83-5.28l-.08-1.13c.24.2,1.45-1.11,1.03-1.41l-1.17-.66c-.22-3.3.71-7.27,3.2-9.76.5.15,1.94.85,1.74,1.32l-1.06,2.49c-1.65,3.88-1.37,12.72-.83,14.42Z"/>
  <path class="cls-14" d="M403.62,363.74l-.92,2.05-1.14-.25c-.55.03-1.69.17-1.81.7l-.45,2.48-2.67-.31c-.5-.06-1.54.1-2.02.25l-1.99.92c-.24.07-.53-.04-.85-.1l-.92-.18-1.4-1.92c3.64-3.36,9.11-4.03,14.17-3.64Z"/>
  <path class="cls-20" d="M374.22,835.1l4.07,3.87-.52.82-10.51-3.21c-.31-.1-1.98-.9-1.64-.94l2.11-.23,9.96-5.13,1.88,1.24-5.35,3.6Z"/>
  <path class="cls-15" d="M98.88,547.83c-1.16-.83-1.86-3.29-1.34-4.21.64-1.14,3-3.32,4.26-3.11,1.98.31,3.66,3.72,3.06,5.23-.77,1.93-3.61,3.8-5.98,2.09Z"/>
  <path class="cls-2" d="M602.32,386.79c-1.24,5.26-.84,10.55-4.99,15.89-.13-.41.14-2.2-.22-1.98l-1.88.8-.16-9.52,2.94,6.67,1.71-8.95,1.04-5.37,1.57,2.47Z"/>
  <path class="cls-9" d="M319.05,720.11l4.69,1.16-.3,4.81c-1.45-2.02-2.62-1.85-2.96-.47l2.08,3.82c-.61.7-3.27,1.03-3.6-.07l-1.25-4.17c-.14-.47-.8-1.47-.86-2.01l2.2-3.08Z"/>
  <path class="cls-14" d="M615.44,446.23c-.25.62-.07,2.46-.63,2.46l-2.62.06-7.76-6.98,1.02-2.11c3.81,1.05,7.54,3.67,9.98,6.56Z"/>
  <path class="cls-14" d="M836.42,585.31l-2.42-7.14c2.12-.88,4.82-.79,8.56-.56-1.63,3.53-3.47,5.92-6.14,7.69Z"/>
  <path class="cls-29" d="M705.89,726.87l-2.53-.63c2.88-9.24.04-17.66-.64-16.13l-.89,2.03c-.35.2-1.68.98-1.7-.09.84-1.23,1.24-4.78,3.14-5.25,4.41,6.06,3.41,13.23,2.63,20.06Z"/>
  <path class="cls-28" d="M474.37,304.81l-1.9-.15,5.62-4.45c7.34-5.76,15.71-11.69,25.68-11.28-7.39,3.4-15.47,5.14-21.95,10.13l-7.46,5.75Z"/>
  <polygon class="cls-13" points="775.2 629.31 776.34 630.21 779.27 632.19 760.28 632.15 763.95 629.68 775.2 629.31"/>
  <path class="cls-9" d="M269.01,760.73l-.65.05c-.61-.37.52-2.32,1.19-3.48.37-.64,1.66-.21,2.74.08l6.57,1.76.61,2.5c.14.57-2.16.78-2.76.66l-7.69-1.59Z"/>
  <path class="cls-21" d="M730.24,671.38l-.11-5.59-5.58,2.84c-.15-.96.08-4.14,1.04-5.04l6.32-5.85-.77,10.74c-.06.89-.43,3.02-.9,2.9Z"/>
  <path class="cls-14" d="M634.37,829.13c0,.17-.04,1.26.28,1.36l1.9.59-2.23,1.15c-.52.24-1.26.5-1.42.82l-.37,1.31-5.18,1.65-4.2.19.64-3.02c.04-.32.38-.83.66-.98,1.71.48,4.7-.61,6.03-1.72l2.88-2.42,1.01,1.07Z"/>
  <path class="cls-20" d="M732.23,785.13l1.25,2.45c-1.29.62-3.39,1.7-4.68,1.67-3.24-.08-7.7-4.89-5.81-8,.61-.99,3.43-1.03,4.67-.72l-2.64,4.3c1.69,1.05,5.73,1.65,7.21.3Z"/>
  <path class="cls-26" d="M432.72,336.63l-1.12,5-.03,1.77-2.64-.07,2.64-12.64c.25-1.22,1.25-3.2,2.09-4.21.19,0,2.14.42,1.98.95l-.77,2.47-2.15,6.73Z"/>
  <path class="cls-13" d="M533.41,755.2l-.11,2.32c-3.59-2.41-9.13-3.92-13.73-5.6-1.5-.18-4.37.26-6.02.49l2.09-1.18c.46-.18,1.34-.41,1.42-.76l.14-1.29c5.8.71,11.36,2.78,16.21,6.03Z"/>
  <path class="cls-26" d="M690.88,670.28c.4.91-1.78,3.31-1.84,4.49l-.32,6.92,3.52,4.76-2.34.74c-.46.15-1-1.74-1.13-2.3-3.73-4.63-3.67-12.72,2.11-14.61Z"/>
  <path class="cls-12" d="M379.62,418.31l.11,1.59-5.11.75c-4.51.66-7.05,3.98-9.11,8.58-1.23-2-.62-4.84.95-6.74,3.62-4.39,8.25-3.66,13.16-4.19Z"/>
  <path class="cls-27" d="M825.03,673.58l2.54-.31c.6-.05,1.29-2.44,1.15-3.08l-1.53-7.42c3.89-.43,8.61-2.38,11.08-5.35l-2-4.13,2.88,1.56c.77.42,1.09,3.55.38,3.99l-9.1,5.67-.47,8.56c-.05.97-2.23,2.91-2.9,2.31l-2.02-1.8Z"/>
  <path class="cls-2" d="M798.12,691.28c.54-.22,1.63-.72,2.01-1.13l14.95,1.73c-5.91,4.59-11.89,1.68-16.97-.6Z"/>
  <path class="cls-14" d="M618.8,725.49l-2.3,5.81-6.76,18.19c.58-9.14,4.27-16.61,7.29-24.34l1.77.33Z"/>
  <path class="cls-27" d="M570.34,371.59l4.71,11.37c.56,1.34.33,4.44-.54,5.41s-3.71,1.28-4.92.99l3.82-3.55c.72-.67-.75-3.18-1.13-4.09l-4.21-10.05,2.27-.09Z"/>
  <path class="cls-14" d="M654.42,804.75l-1.14,2.17c-.3.57-2.05-.54-3.1-1.25l2.68-8.56c.17-.54,3.02-1.5,3.06-.94l.19,2.6c-.09,1.98-.79,4.26-1.7,5.98Z"/>
  <path class="cls-23" d="M616.35,585.46c.02-1.07-.32-3.45-.82-3.99l5.56-17.58,1.35-.4-4.94,20.91-1.15,1.06Z"/>
  <path class="cls-10" d="M512.55,166.43l-2.77-10.89,2.32-2.6c.57-.64,2.84,1.16,2.99,2.01s-.54,2.12-1.02,3.36l-1.53,8.13Z"/>
  <path class="cls-2" d="M416.7,285.41l.26,2.86c-3.35.86-7.51,1.82-10.56,3.61l-1.91-3.13,2.07-2.12,1.33.8c.55-.59,2.02-2.1,2.16-1.62l.87,2.84c1.32-2.11,3.18-3.25,5.78-3.24Z"/>
  <path class="cls-23" d="M506.68,387.78c-.25-.96.2-2.66.76-3.27.28.98,3.26.99,4.4.38,3.95-2.11,6.83-6.94,5.58-11.19l1.43-2.21c.74,3.87,1.08,7.54-1.77,11.26-2.02,2.65-7.22,4.45-10.4,5.02Z"/>
  <path class="cls-28" d="M520.42,474.74c-1.62.46-4.22,2.5-6.6,3.97.19-2.51,3.09-5.2,5.97-5.87l14.21-3.31.67,1.12-14.25,4.1Z"/>
  <path class="cls-14" d="M738.48,781.27c-.77,2.92-2.46,5.08-5,6.31l-1.25-2.45c3.11-2.85,4.22-6.98,4.55-11.12,1.16,1.51,1.54,4.47,1.7,7.26Z"/>
  <path class="cls-21" d="M236.82,789.17c-.36,2.9-.03,6.23,2.3,8.15,2.11,1.74,5.36,1.76,8.27,1.24l-.97,1.97c-3.29,1.43-6.83.37-9.26-2.22s-3.27-6.31-1.57-9.36l1.22.22Z"/>
  <path class="cls-29" d="M754.43,730.4c1.75,2.77,3.81,6.04,6.85,7.67l-1.16,1.3c-4.52-1.08-8.18-5.32-9.4-10.03l3.71,1.06Z"/>
  <path class="cls-29" d="M698.61,771.39c.26.63-1.67,1.67-2.36,1.78l-5.87,1.13s-.77-.96-.74-1.01c.06-.1.68-.76,1.51-1.68.22.11-.57-.29-.93-.51l5.21-3.89,3.18,4.19Z"/>
  <path class="cls-3" d="M740.25,762.45l10.81-1.06c.84-.09,2.65-2.72,2.41-2.84l.8-1.44,6.74,2.05c-7.43,3.37-13.96,5.39-20.76,3.28Z"/>
  <path class="cls-22" d="M831.55,650.43l-5.83,2.04c5.54-6.64,4.15-13.54,2.65-13.75l-2.36-.33-.27-1.03,4.21-1.11c2.91,7.28-.71,11.21,1.6,14.18Z"/>
  <path class="cls-23" d="M195.63,650.56l-2.88-2.2c-1.3-3.77-.88-7.96,1.16-12.02,3.24.16,6.2,1.34,8.04,4.04l-6.71-2.08c-1.86,3.68-1.59,8.37.39,12.26Z"/>
  <path class="cls-22" d="M458.36,279.39l-.76,1.36c-2.85-4.51-7.08-7.21-11.91-8.35l-4.04-.95c6.17-3.1,14.81,2.65,16.71,7.94Z"/>
  <path class="cls-15" d="M513.56,943.21l-2.14,1.01c-.78-1.26-1.79-3.33-2.02-4.6s2.41-3.77,3.61-3.31c1.12.42,3.32,3.28,2.65,4.16l-2.09,2.74Z"/>
  <path class="cls-3" d="M566.34,606.67l-3.34,14.79c-.64-.4-1.85-2.94-1.61-4l2.79-12.07,2.15,1.28Z"/>
  <path class="cls-2" d="M200.91,668l2.26,3.3-8.33,4.15-.77-9.24c.17,2.11.99,4.58,3.11,4.4,1.96-.16,3.73-1.05,3.73-2.61Z"/>
  <path class="cls-20" d="M254.63,447.51l.13,1.08-1.93-1.14-2.14-1.95,2.01-8.12c3.3,2.32,3.64,6.82,1.93,10.12Z"/>
  <path class="cls-24" d="M563.13,893.43c2.46-.85,4.64.8,4.49,2.22-.13,1.19-1.22,3.45-2.2,4.09s-3.33-.47-3.93-1.47.43-4.42,1.64-4.84Z"/>
  <polygon class="cls-4" points="644.1 609.53 643.73 615.52 641.37 612.41 642.08 598.41 643.28 602.36 644.1 609.53"/>
  <path class="cls-2" d="M225.82,691.49c-17.61,6.5-18.83-.57-15.48-.08l2.98.43c3.89.56,7.57.5,9.18-2.4.67.71,2.42,1.67,3.32,2.06Z"/>
  <path class="cls-19" d="M546.36,234.65c.71-5.34,1.81-11.61.55-17.15l-2.14-10.88c4.63,8.12,4.95,19.55,1.59,28.03Z"/>
  <path class="cls-13" d="M723.33,698.3l1.77.47c.28.07-.6,1.38-.8,1.61l-3.11,3.44c-.48,2.76-1.17,4.36-2.75,5.98l-.23-1.46-.68-1.85c-.22-.6.36-1.66.63-2.27,1.12-1.03,2.63-4.21,2.85-5.83l2.32-.09Z"/>
  <path class="cls-12" d="M547.51,680.65l-1.03-1.91,8.19-7.34c1.33-1.19,2.68-2.21,4.42-1.18l-11.59,10.42Z"/>
  <path class="cls-26" d="M713.35,663.72l.95-.38.93,2.23,4.29,1.87-.29.91-.87,2.73-9.03-5.61c.05-.41.05-1.56.05-1.24l3.97-.51Z"/>
  <path class="cls-23" d="M452.69,291.69l-10.14,13.26c.75-5.71,4.48-10.57,7.82-14.37l2.32,1.11Z"/>
  <path class="cls-25" d="M296.54,666.53l-.07.97.9,3.79.19,1.09.47,1.98-3.24,1.77-2.07-6.14c-.4-1.2,1.79-3.14,2.84-3.73l.98.27Z"/>
  <path class="cls-15" d="M458.97,893.31c1.01-.31,3.16,1.61,3.57,2.58.49,1.13-1.42,3.44-2.8,3.85-1.18.35-3.18-1.22-3.83-2.53-.56-1.1,1.58-3.45,3.06-3.9Z"/>
  <path class="cls-28" d="M349.46,765.49l-1.85-3.2.59-3.29c2.16-4.12,3.38-7.94,7.09-11.2-2.56,6.48-5.6,11.42-5.83,17.69Z"/>
  <path class="cls-27" d="M487.6,273.33l.13,2.18,4.74-.1-8.76,3.73c-.53-1.11.29-3.05-.48-3.13l-4.09-.58c2.34-1.05,5.77-1.91,8.46-2.1Z"/>
  <path class="cls-29" d="M582.86,315.38l.83,2.17c.21.56,1.34-.34,1.76-.81l3.28,1.99-8.19-.14c-1.06-.14-2.72-.7-3.67-1.07l-.35-2.2,6.32.06Z"/>
  <path class="cls-14" d="M461.57,368.36l-.29-4.01,11.6.77c-3.74,2.47-7.8,3.37-11.31,3.23Z"/>
  <path class="cls-12" d="M289.62,755l-2.38,2.08-10.56-.94,2.34-4.23c1.64-.35,4.54,1.71,5.65,3.15l4.96-.06Z"/>
  <path class="cls-6" d="M267.81,726.33l.27,1.04-9.75,1.63-2.04-2.72c-.37-.61.93-1.65,1.56-2.1,1.36.02,3.52,1.06,5.51,1.48l4.45.67Z"/>
  <path class="cls-14" d="M288.06,771.22l-2.32.53c-1.1,3.58-1.18,8.87-.2,12.61-4.63-4.49-3.19-12.12,1.12-16.49l1.4,3.34Z"/>
  <path class="cls-9" d="M288.06,771.22l-.21,1.06-.19.95-.91,2.01c-.08.26-.08.67-.07.97l-.98,2.41c-.12.5.78,1.2.98,1.67l1.43,3.35.68,3.87-3.25-3.15c-.98-3.74-.9-9.03.2-12.61l2.32-.53Z"/>
  <path class="cls-11" d="M784.11,231.51l1.58-.98,9.01,10.8c-3.6-.39-5.34-2.92-7.4-5.63l-3.19-4.19Z"/>
  <path class="cls-20" d="M563.53,398.75c-.97.9-2.78,2.7-2.8,3.87l-10.47-2.44,13.27-1.43Z"/>
  <path class="cls-29" d="M291.95,688.03l-6.1-1.91-.29,7.13-2.85-10.78c3.44,1.42,6.68,3.28,9.24,5.56Z"/>
  <path class="cls-4" d="M362.69,637.4l-.05-28.06c.28-.52,1.01,1.82,1.01,2.38v23.33c0,.57-.74,2.9-.96,2.35Z"/>
  <path class="cls-24" d="M513.11,78.36c-.84.57-2.99-.79-3.37-1.58-.46-.95.5-3.37,1.57-4.43.74-.73,3.22.65,3.85,1.58s-.92,3.66-2.06,4.43Z"/>
  <path class="cls-24" d="M562.58,115.45c.62-.74,3.86-.59,4.43.19.68.93.49,3.76-.46,4.42-.79.55-2.49.53-3.67.11-1.1-.39-1.47-3.29-.29-4.71Z"/>
  <path class="cls-29" d="M438.04,857.36l2.69,1.37c.37.19-1.04,1.52-1.51,1.53-1.91.08-4.57-3.47-3.71-5.91,1.07-3.01,3.28-5.64,5.99-6.25-2.34,2.82-4.95,6.37-3.47,9.25Z"/>
  <path class="cls-24" d="M457.74,115.08c.84-.45,3.49.45,4.04,1.23.66.93-.07,3.01-.87,3.82-.92.94-3.63.75-4.09-.28s-.08-4.22.92-4.76Z"/>
  <path class="cls-28" d="M635.28,834.1l2.04,1.11-.25,3.57c-1.42-.19-3.49-.63-4.92-1.15l-4.8-1.61,5.18-1.65c.65-.21,2.12-.25,2.75-.26Z"/>
  <path class="cls-21" d="M296.54,666.53l-.98-.27c-.11-.44-.84-2.21-1.44-1.98l-3.39,1.33c.21-1.49-.36-4.44-.7-5.9.57-3.14,6.77,2.85,6.51,6.82Z"/>
  <path class="cls-19" d="M314.83,596.28c-.26.42-3.08,2.38-3.63,1.65l-2.54-3.4-.65-1.49,3.05-1.67,3.78,4.91Z"/>
  <polygon class="cls-14" points="351.69 800.81 351.75 803.53 346.82 803.09 344.55 802.66 345.14 797.89 351.69 800.81"/>
  <path class="cls-18" d="M400.25,325.3c-3.28-4.22-4.11-11.09,1.43-14.83-1.73,5.12-2.51,8.28-1.43,14.83Z"/>
  <path class="cls-29" d="M702.45,729.17c.61-.08,2.08.72,1.87,1.29l-.94,2.59-.3,1.1-3.71.15v-4.97s.42-2.33.42-2.33l1.01,2.93c.14.42,1.21-.7,1.65-.76Z"/>
  <path class="cls-29" d="M647.04,838.24l1.47-3.37c.28-.67-1.7-2.68-2.42-2.77l-8.56-1.06,1.6-1.74c.57-.5,3.16-.07,3.9.31l11.12,5.74c-3.5,1.94-5.03,2.54-7.1,2.89Z"/>
  <path class="cls-22" d="M629.32,602.43c-.51.35-.9,2.15-.91,3l-.07,5.94-2.37-.05,1.24-10.95,2.4-.93-.29,2.99Z"/>
  <path class="cls-3" d="M519.67,442.61l-4.04,10.17,2.5-13.26c.77-.06,2.37.66,2.16,1.27l-.62,1.82Z"/>
  <path class="cls-26" d="M332.75,684.48l.89-10.28c3.51,1.06,2.21,6.15,1.22,9.19l-.71,1.88c-.17.46-1.39-.77-1.39-.79Z"/>
  <path class="cls-10" d="M111.69,509.41l-.32-2.84c2.66.1,6.05.56,9.59,1.42-2.87.76-6.72,1.33-9.27,1.42Z"/>
  <path class="cls-19" d="M486.43,125.92l10.2-.99,8.81-.08-.06-4.05c.8.54,1.45,2.6,1.17,3.52-.22.73-2.13,1.58-3.06,1.58l-17.07.02Z"/>
  <polygon class="cls-5" points="273.7 630.51 265.76 632.14 261.52 630.52 268.47 629.91 273.7 630.51"/>
  <path class="cls-30" d="M721.32,664.23c-.03.96-1.25,2.75-1.8,3.21l-4.29-1.87.93-3.23,5.16,1.89Z"/>
  <path class="cls-21" d="M651.42,779.2l-1.51-5.21c-.08-.39.19-1.58.3-2.16s-1.31-.54-1.96-.48l1.16-1.79c1.61-2.51,4.08,5.76,2.02,9.65Z"/>
  <path class="cls-27" d="M320.5,657.78l-3.44,3.7c-.06-.15.3.75.74.87-.17.23-1.11,1.35-1.44,1.06l-1.99-1.73,5.16-5.58.98,1.68Z"/>
  <path class="cls-13" d="M563.72,301.46c.26.25.93.99.7,1.31l-1.19,1.57-4.84.47v-2.31s5.33-1.05,5.33-1.05Z"/>
  <polygon class="cls-28" points="630.3 595.41 629.61 599.44 627.2 600.37 628 594.33 630.3 595.41"/>
  <path class="cls-10" d="M703.08,734.15l-3.59,6.26-1.14-1.2c-.13-.19-.18-.64-.12-.9l1.11-3.02.04-.99,3.71-.15Z"/>
  <path class="cls-20" d="M433.6,325.46l.06,1.01c-.85,1.01-1.84,2.99-2.09,4.21h-.99s-1.56-1.07-1.56-1.07c1.29-1.93,2.77-3.45,4.58-4.15Z"/>
  <path class="cls-18" d="M445.6,842.85c-.26.81-1.44,1.28-2.04,1.29l-3.06.04.09-2.06,5.01.73Z"/>
  <polygon class="cls-2" points="398.83 836.24 393.6 836.1 393.55 833.29 398.83 836.24"/>
  <path class="cls-21" d="M630.49,830.48c-1.32,1.11-4.32,2.2-6.03,1.72l5.37-2.86s.54.66.66,1.14Z"/>
  <path class="cls-27" d="M508.7,274.65l-8.17.02c2.42-1.11,5.39-.63,8.17-.02Z"/>
  <path class="cls-28" d="M645.32,839.37c-1.93,1.26-6.09,1.18-7.75-.19l7.75.19Z"/>
  <path class="cls-27" d="M447.6,843.19l.06,3.45-4.1-2.5c.6,0,1.78-.47,2.04-1.29l2,.34Z"/>
  <path class="cls-5" d="M481.58,328.67l-2.09-1.56,4.11-1.4c.11.98-1.02,2.97-2.03,2.96Z"/>
  <path class="cls-27" d="M499.41,274.67l-5.77,1.13,5.77-1.13Z"/>
  <polygon class="cls-12" points="204.83 653.05 202.68 653.36 202.24 649.82 204.83 653.05"/>
  <path class="cls-5" d="M482.64,323.55c-.13.89-1.43.52-1.74.06l-1.14-2.4,2.88,2.34Z"/>
  <path class="cls-19" d="M537.31,248.61l2.57-3.47,6.77-9.24c-1.73,4.88-5.01,9.67-9.34,12.7Z"/>
  <polygon class="cls-6" points="557.58 292.56 554.46 293.71 554.5 291.77 557.58 292.56"/>
  <path class="cls-5" d="M477.57,328.6c-.57,0-1.62-.48-2.17-.68l.59-2.39,1.58,3.07Z"/>
  <path class="cls-14" d="M286.68,780.29c-.2-.47-1.11-1.17-.98-1.67l.98-2.41v4.08Z"/>
  <path class="cls-21" d="M373.64,781.24l-.1,1.1-1.79-2.98c.3-.06,1.87-.05,1.87.33l.02,1.55Z"/>
  <path class="cls-3" d="M518.94,438.76l.52-4.26c.05,1.15-.29,3.22-.52,4.26Z"/>
  <path class="cls-26" d="M297.37,671.29l-.9-3.79.9,3.79Z"/>
  <path class="cls-17" d="M264.86,398.58c-.62.41-1.82,1.26-2.43.99l-1.82-.79,4.25-.21Z"/>
  <path class="cls-17" d="M474.52,317.65l-2.97.99,2.97-.99Z"/>
  <polygon class="cls-10" points="196.52 588.62 195.78 590.5 193.83 588.37 196.52 588.62"/>
  <path class="cls-27" d="M452.59,844.12c.27.28-.97.8-1.74,1.13-.45.19-.66-.15-.43-1.39l2.18.26Z"/>
  <path class="cls-28" d="M628.41,605.44c0-.85.4-2.65.91-3l-.91,3Z"/>
  <path class="cls-29" d="M698.22,738.31l1.11-3.02-1.11,3.02Z"/>
  <path class="cls-18" d="M648.67,784.4l-.37.85-.87-.7c-.21-.17-1.01-.88-1.04-.88-.02,0,1.29-.34,1.37-.34.04,0,.57.67.91,1.07Z"/>
  <path class="cls-14" d="M286.75,775.24l.91-2.01-.91,2.01Z"/>
  <path class="cls-28" d="M394.61,368.66l-1.99.92,1.99-.92Z"/>
  <path class="cls-2" d="M418.76,288.81c-.4-.49.4-2.29,1.03-2.22l-1.03,2.22Z"/>
  <path class="cls-21" d="M727.25,710.19l-.97.14.24-1.58c.04-.28.5-.24.55.04l.18,1.4Z"/>
  <path class="cls-21" d="M729.34,674.35l.89-2.02-.89,2.02Z"/>
  <path class="cls-27" d="M329.68,746.27l-.14-2.07,1.17.66c.42.3-.79,1.61-1.03,1.41Z"/>
  <path class="cls-21" d="M727.16,677.4l2.13-1.99-2.13,1.99Z"/>
  <path class="cls-16" d="M452.62,582.52l-1-.33,1,.33Z"/>
  <path class="cls-12" d="M255.41,701.24l1.49-2.06c.34.21.9,1.05.52,1.21l-2.01.85Z"/>
  <path class="cls-18" d="M425.58,350.65l1.07-1.08-1.07,1.08Z"/>
  <polygon class="cls-12" points="425.37 351.77 424.51 351.64 425.58 350.65 425.37 351.77"/>
  <path class="cls-2" d="M427.81,321.55l-1.28-.79,1.28.79Z"/>
  <path class="cls-10" d="M394.61,523.41l.05,2.46-8.26-3.62.63-1.8c2.05.43,5.53,1.71,7.58,2.96Z"/>
  <path class="cls-10" d="M385.53,520.51c-.79.18-3.39-.42-3.08-1.3.29-.81.82-2.11,1.21-2.74l1.87,4.04Z"/>
  <path class="cls-10" d="M385.85,522.15l-1.3.16c-.06.22.59-.83.55-.8-.04.03.56.48.75.64Z"/>
  <path class="cls-9" d="M279.77,596.98c-.83,1.03-.79,3.97-.2,4.99s2.79,2.07,4.07,2.37c-2.42,1.8-4.96,3.12-7.88,3.11l-10.81-.05,1.89-1.7-3.07-.29c-.91-.08-3.99-.29-3.93-1.19l.23-3.54c.41-.18,1.89-1.02,1.53-1.54l-1.86-2.71,20.03.56Z"/>
  <path class="cls-19" d="M769.21,593.42l-.13,1.02c-.53,4.27,4.9,3.11,6.38,8.74-.43.3-1.44.85-1.18.89l2,.3c.29.02.74.01.94.11l4.57,2.29c.81.41,3.06.62,3.63.59l-5.12,1.01-5.13.68-2.14,1.03,3.46,5.12-5.55-2.83-3.05,5-1.97-5.8c-1.96,1.45-4.01,2.74-4.62,2.8l1.65-3.66c.19-.42-.12-.85-.49-1.29l-3.03-3.63c6.79-1.48,8.41-6.8,7.71-11.58l.15-.84,1.93.05Z"/>
  <path class="cls-3" d="M712.94,607.34l19.45,11.92-1.2,3.36c-7.24-2.76-13.41-7.06-19.34-13.31-.09-1.02.19-1.53,1.09-1.97Z"/>
  <path class="cls-4" d="M760.43,599.34c.83,1.1.38,4.77-1.06,4.86l-6.07.4c-.59.04-2,.04-2.26-.5l-1.27-2.69-1.55,3.91-1.45-3.78c-.3-.78.82-2.04,1.42-2.78l-2.94-1.42,7.16.26c2.63.09,5.49.77,8.02,1.74Z"/>
  <path class="cls-10" d="M766.2,594.56c.02-.2.42,1.42.03,1.47l-2.96.38-2.98.38c-.61.08-.22,2.07.15,2.56-2.53-.98-5.39-1.65-8.02-1.74l-7.16-.26-10.85.41-3.14-1.75,21.95-.69c4.7-.15,9.05.08,12.98-.76Z"/>
  <path class="cls-9" d="M241.5,605.22c-.82.69-1.69,2.6-2.6,2.31l-4.27-1.36-7.71.31-.26-5.19c-.04-.84-2.04-1.26-2.71-1.46.16-.38,2.13-3.01,2.9-3.02l19.93-.14-1.61,1.65c-.71.73,1.59,2,1.63,5.57.01,1.03-2.72,1.42-5.3,1.33Z"/>
  <path class="cls-26" d="M218.84,595.67l-8.78.95-9.04-6.15c-.64-.38-2.26-1.66-1.91-2.28l1.11-1.99,5.63,4.13c.55.44,1.64,1.43,2.29,1.17l1.72-1.13,2.79,5.21c1.94-5.34-3.49-12.49,5.63-20.08,2.83,6.49,3.23,13.37.56,20.18Z"/>
  <path class="cls-9" d="M199.69,607.35l11.77,8.37,4.77,3.3-.52,3.76c-5.36-2.59-11.5-5.14-15.5-9.67l-7.7-8.73c3.65-.18,4.87,1.32,7.18,2.96Z"/>
  <path class="cls-19" d="M254.74,594.42v7.06s5.33-.81,5.33-.81l-.23,3.54c-.06.91,3.02,1.11,3.93,1.19l-.89,1.6c-.19.37,1.64.39,2.07.39l10.81.05-7.01.94-8.01,1.06-2.75.02,1.23,2.6c.19.4-1.2,1.36-1.48,1.02l-1.3-1.61-2.59,5.96-2.59-5.97-4.61,4.32c-.42-.74-.85-1.9-.49-2.28l1.32-1.37,1.5-2.04c.19-.26-.86-.5-1.09-.73l-2.29-2.33,4.61-3.61-1.14-1.21.46-.75.89.95c-.05.11,2.23-.82,2.23-1.35l.18-6.68c.84-.15.92-2.05.92-2.92l.97-.02v2.99Z"/>
  <polygon class="cls-23" points="769.3 539.49 767.13 541.5 767.28 451.57 769.07 450.52 769.3 539.49"/>
  <path class="cls-12" d="M819.13,667.33l1.24-1.13c.08.37-1.01,1.28-1.24,1.13Z"/>
  <path class="cls-9" d="M706.48,641.9c-.91.4-1.73,2.09-2.12,2.93l-5.75,5.61.4-6c-1.93-2.25-3.44-5.86-2.52-7.93l8.09,3.59c.62.28,1.94,1.67,1.9,1.81Z"/>
  <path class="cls-12" d="M707.49,643.14c-.92-.25-1.07,3.02-.49,3.84l8.5,12.06-2.27.09-5.42-7.01c-.55-.71-3.72-.77-3.84-.49-.65-.18-2.79-.8-2.42-.69l2.82-6.12c.39-.84,1.21-2.53,2.12-2.93l1.01,1.24Z"/>
  <path class="cls-12" d="M475.66,543.84l-.99-1.95c18.08-4.81,34.64-12.44,48.9-24.34l8.13-6.78c-7.59,10.9-18.35,16.69-29.01,22.93l-14.71,6.3-12.31,3.85Z"/>
  <path class="cls-15" d="M486.48,797.25l-1.09-1.91,1.09,1.91Z"/>
  <path class="cls-15" d="M487.61,800.26l-1.07-2.03,1.07,2.03Z"/>
  <path class="cls-2" d="M817.45,668.59l-5.86,5.51c-1.05-1.01-2.5-3.04-1.81-3.17l2.73-.53c.81-.16,1.97-1.82,1.9-2.67-.23-2.65-5.88-.71-5.38-2.4l4.75-.93,3.66,4.19Z"/>
  <path class="cls-14" d="M204.82,578.11c-.44.57-.93,1.74-1.05,2.31l-1.86-.27,10.55-26.77c2.77,8.52-2.18,17.64-7.65,24.72Z"/>
  <path class="cls-18" d="M209.86,590.35l-1.72,1.13c-.65.26-1.74-.72-2.29-1.17l1.8-.06-4.1-8.71.23-1.12c.12-.57.61-1.74,1.05-2.31l5.04,12.24Z"/>
  <path class="cls-23" d="M443.63,560.61c-1.39.87-4.38,1.93-6.06,1.91l3.47-2.09-2.04-9.09c-13.36-.85-24.84-4.18-34.24-12.05,10.48,3.95,18.44,8.71,28.79,9.18l10.13.47c4.89.23,9.71-2.95,15.09-.74l-16.57,3.15c-1.2,2.28-.3,7.12,1.45,9.25Z"/>
  <path class="cls-29" d="M829.41,558.26l.88-1.55c-.63,1.11-1.02,1.79-.88,1.55Z"/>
  <path class="cls-28" d="M225.98,623.13c-3.29,4.26-6.9,1.28-10.27-.35l.52-3.76c3.05.64,6.6,2.74,9.75,4.11Z"/>
  <path class="cls-5" d="M260.78,629.29c-1.62,1.63-3.86,1.88-6.07,1.5l6.07-1.5Z"/>
  <path class="cls-23" d="M549.47,328.77l1.5-.23c.33-.05.58.95.55,1.15l-5.93,2.17-1.29-4.38,14.47-14.46c.44,2.38-1.61,3.6-2.89,5.02l-10.02,11.15,3.61-.42Z"/>
  <path class="cls-27" d="M305.83,663.43l-2.13.45c-.36.07-.58-.08-1.05-.43l8.5-11.12,1.4.16-6.72,10.94Z"/>
  <path class="cls-14" d="M822.06,590.33l-7.85,5.07c-.78.5-2.46,1.33-3.36,1.42l-8.7-1.14.98-4.19c.75.78,2.63,1.84,4.66,2.77.93-3.3,1.31-7.06,1.35-9.85l-7.1,2.78c.24-4.05,1.73-8.13,3.63-11.95,5.89,5.93,4.97,12.83,3.75,20.4,3.69-4.53,6.45-9.72,8.77-15.23l-6.87-14.24c-1.3-2.69-.86-7.51.07-9.91l11.85,30.31c.29.74.76,2.28.33,2.68l-1.51,1.07Z"/>
  <path class="cls-26" d="M826.5,608.74c-2.66,2.59-5.46,5.92-8.93,7.95l-10.18,5.94-1.3-1.16,4.13-4.08c3.65-3.61,8.68-5.03,12.96-11.33l3.31,2.68Z"/>
  <path class="cls-16" d="M812.11,605.4c1.4-.12,4.24.28,5.13,1.28l-13.92,1.59-6.25-1.55,2.2-.22,12.83-1.1Z"/>
  <polygon class="cls-16" points="802.15 595.69 810.85 596.83 803.17 597.75 799.3 597.52 798.23 597.4 791.3 596.42 787.24 596.38 787.21 595.3 802.15 595.69"/>
  <path class="cls-15" d="M247.77,218.49l1.23,1.26-.75,4.11c-.22,1.2-3.49,1.17-4.52.51s-1.63-4.07-.53-4.6,3.11-1.01,4.57-1.28Z"/>
  <path class="cls-4" d="M323.07,647.96c-.02-3.79-2.24-6.6-6.08-6.97l7.29-3.16c.08,4.29-.2,6.8-1.21,10.12Z"/>
  <path class="cls-4" d="M747.27,626.52c-1.02.48-3.46.91-4.49.52l-11.6-4.42,1.2-3.36,6.95,3.07,7.93,4.19Z"/>
  <rect class="cls-13" x="757.41" y="629.53" width=".71" height=".71" transform="translate(-223.45 720.31) rotate(-45)"/>
  <polygon class="cls-2" points="409.1 284.48 402.6 283.63 408.59 282.34 409.1 284.48"/>
  <polygon class="cls-2" points="641.47 780.99 642.22 784.21 637.38 784.23 634.76 781.6 641.47 780.99"/>
  <path class="cls-21" d="M647.86,773.85c-.87.7-2.44,1.94-2.38,2.93l.28,4.34-3.72-5.85,4.98-2.57.84,1.15Z"/>
  <path class="cls-9" d="M727.4,700.06l-1.93-5.67c2.73-3.35,5.4-6.08,10.13-7.61,1.04,4.78-.75,8.16-3.04,12.08l-5.16,1.21Z"/>
  <path class="cls-14" d="M637.32,835.2l-2.04-1.11c-.05-.23,1.48-1.43,1.63-.97l.41,2.07Z"/>
  <polygon class="cls-29" points="810.23 617.39 806.1 621.47 807.39 622.63 800.43 625.58 793.3 627.85 793.15 623.92 810.23 617.39"/>
  <polygon class="cls-3" points="793.15 623.92 793.3 627.85 776.34 630.21 775.2 629.31 793.15 623.92"/>
  <path class="cls-23" d="M550.47,327.79l1.19-.96-1.19.96Z"/>
  <rect class="cls-2" x="393.76" y="460.7" width=".71" height=".71" transform="translate(-210.58 413.72) rotate(-45)"/>
  <path class="cls-25" d="M323.74,721.27l-4.69-1.16c1.59-2.25-2.37-5.78,1.85-9.53,1.61,4.14,2.59,7.31,2.84,10.69Z"/>
  <path class="cls-26" d="M411.35,367.47c1.07.84,1.94,3.23,1.96,4.2l-8.49-1.28-1.31-.77c.88-.64,2.4-1.6,3.32-1.69l4.53-.45Z"/>
  <path class="cls-28" d="M401.56,365.54l5.27,2.39c-.91.09-2.44,1.05-3.32,1.69l-4.21-.9.45-2.48c.12-.53,1.27-.67,1.81-.7Z"/>
  <circle class="cls-20" cx="436.55" cy="325.7" r="1.15"/>
  <polygon class="cls-7" points="254.76 448.6 254.6 540.95 252.79 541.52 252.74 493.52 253.77 491.58 253.77 452.49 252.77 450.55 252.83 447.46 254.76 448.6"/>
  <polygon class="cls-12" points="715.23 665.57 714.3 663.33 715.31 662.35 716.16 662.34 715.23 665.57"/>
  <path class="cls-5" d="M271.78,627.46l-1.56.96c-.42.26-1.6-.68-1.45-.87l3.01-.09Z"/>
  <path class="cls-28" d="M394.66,525.87l-.05-2.46,19.93,12.12,19.68,7.37c-7.33-.45-14.54-2.66-20.76-6.24l-18.81-10.8Z"/>
  <polygon class="cls-12" points="534.98 506.52 535 507.17 535 507.84 534.98 508.49 534.96 507.84 534.96 507.17 534.98 506.52"/>
  <path class="cls-7" d="M254.78,545.41l-1.04,1.09.03,44.95c0,.88-.09,2.77-.92,2.92l-.03-52.29c1.8,1.19,1.96,2.08,1.96,3.33Z"/>
  <polygon class="cls-4" points="254.74 591.43 253.77 591.45 253.74 546.5 254.78 545.41 254.74 591.43"/>
  <polygon class="cls-29" points="252.74 493.52 252.77 450.55 253.77 452.49 253.77 491.58 252.74 493.52"/>
  <path class="cls-5" d="M264.95,607.4c-.43,0-2.27-.02-2.07-.39l.89-1.6,3.07.29-1.89,1.7Z"/>
  <polygon class="cls-10" points="769.21 593.42 767.29 593.37 767.13 541.5 769.3 539.49 769.31 547.44 769.21 593.42"/>
  <path class="cls-28" d="M792.58,604.05l1.44,1.96c.5.68,2.24.51,3.06.71l6.25,1.55-7.1.43c.53-.55-1.68-1.4-2.18-1.39l-8.61.04.6-3.46,6.55.15Z"/>
  <path class="cls-16" d="M796.22,608.71l-21.05.35,5.13-.68,5.12-1.01,8.61-.04c.5-.01,2.71.84,2.18,1.39Z"/>
  <path class="cls-14" d="M798.23,597.4l-6.21.1.57,6.55-6.55-.15-.6,3.46c-.56.02-2.82-.19-3.63-.59l-4.57-2.29-.33-7.72c8.15,4.86,11.09.86,11.08.85l1.94,2.07,1.38-3.25,6.93.98Z"/>
  <path class="cls-10" d="M787.21,595.3l.03,1.08-10.34.37.33,7.72c-.2-.1-.65-.09-.94-.11l-.82-1.19c-1.48-5.63-6.92-4.47-6.38-8.74l18.12.86Z"/>
  <path class="cls-14" d="M776.29,604.37l-2-.3c-.26-.04.75-.58,1.18-.89l.82,1.19Z"/>
  <path class="cls-9" d="M803.13,591.5c-.78-.81-1.16-3.15-1.09-4.3l7.1-2.78c-.04,2.79-.42,6.55-1.35,9.85-2.03-.93-3.91-1.99-4.66-2.77Z"/>
  <path class="cls-4" d="M798.23,597.4l1.07.13-4.85,1.27.21,5.85,4.63,1.86-2.2.22c-.82-.2-2.56-.03-3.06-.71l-1.44-1.96-.57-6.55,6.21-.1Z"/>
  <path class="cls-9" d="M787.24,596.38l4.06.04-1.38,3.25-1.94-2.07s-2.93,4.01-11.08-.85l10.34-.37Z"/>
  <path class="cls-17" d="M777.36,789.57c.89-.47,3.33.9,3.56,1.82.27,1.1-.38,3.77-1.51,3.83s-3.1-.47-3.91-.97c-.96-.59.63-4.03,1.86-4.69Z"/>
  <path class="cls-17" d="M779.13,219.5c.19,2.88-.47,4.94-1.39,5.33-1.29.54-3.72-1.24-3.75-3.07-.04-2.65,5.04-3.83,5.14-2.26Z"/>
  <circle class="cls-10" cx="243.91" cy="792.38" r="3.08"/>
</svg>