<svg xmlns="http://www.w3.org/2000/svg" viewBox="0 0 1024 1024">
  <path d="M305.91,669.51c-8.45,6.13-7.8,26.34-1.68,37.03l-.59-5.29,2.14,3.05c.42,9.35,4.96,17.25,11.68,24.14l.25-3.25,1.25,4.17c.33,1.1,2.99.77,3.6.07l.93-.2c-2.21,6.07,1.38,13.65,6.27,18.16-.12,1.93.95,4.18,2.83,5.28,3.52,11.17,13.15,28.32,13.61,27.47l.92-1.59c.19,1.15.11,3.32-.45,4.73-.14.13.84,1.19,1.1.91l1.27-1.37c4.48,9.83,10.53,18.89,18.39,26.6l11.72,11.5c-.05-2.6-.67-3.88-1.71-5.64l1.5-.26c10.15,18.97,35.12,24.55,55.91,26.96l-2.42-2.75c.17.02.62-.18,1-.65l4.37,2.52c.69.4,2.07.9,2.8,1.01l-.09,2.06-7-.61c-6.15-.54-11.7-.86-17.82-2.58l-16.85-4.75-5.27-2.95c-1.86-.83-4.1-1.96-5.7-3.28l-15.4-12.7c-6.45-5.32-12.55-13.06-20.7-13.78l-.06-2.72,5.44,2.43.73-.64c-4.19-7.81-9.95-14.53-16.92-20.67-2.65-2.71-6.32-6.27-9.22-7.51l2.19-1.37,7.99,6.22.54-1.08-12.96-23.4-3.78-7.66c-12.26-24.81-31.75-45.72-59.99-45.95l.59-1.67c.14-.32,1.33-.3,1.63-.56,8.25.58,17.76,3.85,25.07,7.28l.6-.38c-2.34-2.65-4.51-5.38-6.14-8.31l2.18-3.58c.62-1.37,3.29-3.19,4.55-2.51l3.33,1.81.54-11.97c.1-2.29.42-4.99-.03-6.91l-.47-1.98c1.76,0,3.95-3.98,3.75-5.9l2.03-1.43c.49-.3,1.73.83,1.76,1.45l.81,3.01ZM294.27,706.27l-.5.46,10.04,6.75c-1.45-4.72-5.46-7.79-9.53-7.22ZM343.19,780.92v-1.43s0,1.43,0,1.43ZM359.38,803.78l-1.24-.07c-1.06-.06-1.04-.06,1.24.07Z" fill="#907660"/>
  <path d="M476.87,442.69c-1.86,5.22-4.38,10.23-9.13,14.18-9.07,7.55-20.13,13.07-32.14,14.37-10.13,1.1-20.67,3.03-27.28,11.15l-4.78,5.88-11.62,19.26c9.1,1.93,15.08,5,21.75,9.91l8.62,6.34c8,5.89,17.14,7.28,26.88,7.38l5.46.06,6.14,1.02-1.24,1.24-17.61-.03-.81,4.17-1.04-3.98c-3.78-1.1-9.34-1.64-12.71-3.94l-20.14-13.72c-5.99-4.08-13.04-6.53-19.84-5.15l-3.72,5.62c-.38.63-.92,1.93-1.21,2.74-.31.89,2.29,1.49,3.08,1.3.28-.02,1.2-.12,1.5-.06l-.63,1.8-.55-.1c-.19-.15-.78-.61-.75-.64.04-.03-.61,1.02-.55.8l-6.76.62c-1.78.16-3.16,3.77-3.23,5.65l-3.02.23c-2.04-6.02,6.12-7.1,8.12-10.01,3.29-4.77,4.32-8.93,9.05-12.51,7.01-5.32,13.06-34.21,41.78-36.56,17.93-1.46,41.34-13.09,44.69-29.25l1.67,2.21Z" fill="#b89e82"/>
  <path d="M526.46,418.75c-5.97,8.91-7.47,23.99.51,28.35,8.72,4.77,19.92,7.35,29.55,6.52,2.93-.25,5.19-.53,8.12-.4l18.75.77c4.89.2,11.24,4.25,14.67,7.81,7.91,8.22,13.48,17.57,18.26,27.75,3.49,7.43,7.9,13.63,12.92,20.06,3.88,4.98,7.73,9.5,13,13.08,2.65,5.39,6.75,9.01,12.04,10.9l-1.57,5.3c-.1.35-.28,1.52-.12,1.82l.86.74-2.17,7.11-.4-5.87-1.43,2.87-1.38-2.18,1.32-6.26c-1.41,1.67-2.33,2.81-2.96,4.03l-2.54.14,3.03-5.11c.27-.45.3-2.24.17-2.76s-1.4-.47-1.76-.1l-3.91,4.12,3.2-6.51c-1.5-2.66-4.36-7.31-6.69-8.77l-2.72-1.7-8.95-10.85c-6.62-8.03-11.15-16.17-15.43-25.56-2.88-6.32-7.26-12.14-11.52-17.28-7.56-9.12-17.73-12.42-28.73-11.35-1.91-.53-5.06-.87-7.3-.57-2.86.38-4.51,1.85-5.58,4.46l-.94-.94c-.2-.55-.51-1.53-1.06-1.58l-2.23-.18c-10.2-.82-19.89-3.61-28.6-7.76l-.58,2.15c-.09.35-.5.45-.66.15l-.93-1.79-3.02-6.75.62-1.82c.21-.61-1.39-1.32-2.16-1.27l.81-.77c.23-1.04.57-3.11.52-4.26-.24-5.57,1.15-12.46,5.86-15.99l1.14.23Z" fill="#b1977a"/>
  <path d="M686,762l1.68,1.4-9.55,17.56,12.09-9.88c.36.22,1.15.63.93.51-.83.92-1.45,1.58-1.51,1.68-.03.05.73,1,.74,1.01-4.4,3.34-8.58,7.13-12.62,11.31l-5.5,5.69c-3.02,3.12-5.38,6.84-8.38,11.65,3.15-.88,5.91-1.73,8.29-2.95l3.93,3.04c-4.85-.17-10.24,1.25-14.47,4.33l-3.85,2.81-.74-2.27,8.21-10.69c8.69-11.31,12.88-28.26,1.02-35.91-12.93-8.33-7.23-23.37-9.55-29.35-4.98-12.81-9.59-25.43-7.89-38.88l4.85,25.8c3.13,16.67,20.73,18.65,23.16,30.73s-2.59,20.71-1.29,30.73c4.12-6.06,7.58-11.92,10.43-18.35ZM668.41,750.37c2.78,3.81,4.45,7.82,6.56,13.01,2.47-14.17-3.52-22.7-15.32-28.87-.94,9.22-.98,18.47,5.62,23.9l7.33,6.03-4.19-14.08Z" fill="#89705c"/>
  <path d="M746.23,428.93c-7.11,4.95-14.77,8.83-23.33,12.27-3.47,1.4-6.94,4.29-7.98,7.94l-4.7,16.45-15.94,78.79c-3.03,14.99-9.34,28-17.15,40.75-2.16,3.53-4.39,8.22-8.25,8.92l-.16-1.65c3.21-2.94,5.35-6.76,7.78-10.92,7.55-12.93,13.25-26,16.2-40.79l7.3-36.61c3.59-18.02,6.66-35.51,11.74-53.15l3.62-9.04c10.66-4.16,20.39-8.81,29.77-14.36l1.1,1.4Z" fill="#b89e82"/>
  <path d="M308.66,594.53l2.54,3.4c.55.74,3.37-1.23,3.63-1.65,2.36,2.89,2.78,6.97-.12,10.24-9.27,12.35-23.21,20.12-37.91,23.15l-3.02-3.14c3.31.11,6.12-1,9.31-2.6,8.21-4.11,15.24-8.3,22.72-13.52,1.89-1.32,5.86-1.31,6.84-5.14l-24.89,3.04-10.13.79-16.9.31,8.01-1.06,7.01-.94c2.92.01,5.46-1.3,7.88-3.11,5.13,1.21,10.86,1.67,16.28.51l12.41-2.67c-7.56-3.26-14.6-3.34-22.39-4.15l-10.17-1.06-20.03-.56,1.86,2.71c.36.52-1.12,1.36-1.53,1.54l-5.33.81v-7.06s15,.7,15,.7l16.7.72,17.84,1.59,4.38-2.9Z" fill="#b39a7e"/>
  <path d="M341.03,582.36l-1.73,1.21c-9.04-13.23-14.47-27.97-17.5-44.33l-11.07-59.66-6.9-30.13c-.67-2.94-3.45-6.68-6.15-7.66-9.93-3.62-18.18-8.26-26.21-14.09l.25-2.3,14.37,8.66,18.24,8.66c3.94,13.32,6.8,25.51,9.3,38.92l10.99,58.8c2.32,12.43,6.53,23.62,12.44,34.58l3.96,7.34Z" fill="#b1977a"/>
  <path d="M730.2,553.33l-.03,1.63c-.01.49-1.5.05-2.37-.21l-13.29,37.04c-.65,1.82-1.25,6.22,1.23,5.94l15.52-1.74,3.14,1.75-17.52,2.34c-1.42.19-3.79,1.52-4.72,2.7l22,3.61c6.24-2.4,12.29,1.74,19.12-1.82l6.07-.4c1.44-.09,1.89-3.76,1.06-4.86-.37-.49-.76-2.48-.15-2.56l2.98-.38,2.96-.38c.4-.05,0-1.67-.03-1.47l.94-.35c.7,4.78-.91,10.1-7.71,11.58l3.03,3.63-12.18-.25-13.09-.91-22.12-2.51c-.51-.06-2.48-.52-2.4-.05l.27,1.63c-.91.43-1.18.95-1.09,1.97,5.93,6.26,12.1,10.55,19.34,13.31l11.6,4.42c1.03.39,3.47-.03,4.49-.52l16.68,3.16-3.67,2.47c-16.29-1.04-33.17-5.85-45.01-17.56l-6.73-6.66c-1.58-1.56-2.69-6.34-2.19-8.62.45-2.08,3.46-4.66,5.45-6.55l14.21-39.41c-.86-1.02-1.64-1.7-1.41-2.31l.95-2.08,4.65,4.39ZM757.76,629.39l-.5.5.5.5.5-.5-.5-.5Z" fill="#b39a7e"/>
  <path d="M374.57,528.58c7.44-.56,12.96,6.28,18.37,10.89l-1.47,1.19c-7.54-6.97-15.64-14.18-23.01-7.67l5.22,6.31-.21,2.23-3.7-4.15c-.45-.52-2.09-2.52-2.45-1.95l-1.54,2.42c1.7-2.68,5.55,13.05,6.49,24.66l1.05,12.94,1.02,13.97.9,11.05-1.92,3.09-.9-7.09-1.18-11.58-6.38,4.99c-.84.66-2.25,2.57-2.25,3.69l-2.03-.42c-2.53-1.61-7.43,4.87-12.94,1.43-4.46-2.79-5.94-7.5-8.34-11.02l1.73-1.21c.66.9,2.05,2.74,2.56,4.07,1.76,4.62,6.63,8.07,11.61,5.37l15.44-8.36-.25-15.84-2.87-22.25-1.76,3.4-4.37-13.33,1.31-1.96,8.84-4.65,3.02-.23Z" fill="#ab9279"/>
  <path d="M649.43,545.57l-2.17,13.87-1.24,13.97-.71,8.97,11.99,7.17c3.5,2.09,7.7,2.83,11.4,2.86l.16,1.65c-3.12.57-5.93.15-10.42-.7l.16,12.89,1,12.16.99,12.01.96,10.01.97,14.95c.09,1.34-.66,3.78-1.31,5.15l-1.05-6.13-1.1-10.93-.99-11.08-.95-11-1.05-15.04-.94-14.72-9.61-6.01c-.42,1.66-1.21,5.32-1.2,7.61l-.24,16.31-.82-7.18-1.19-3.95.74-15.55,1.03-13.87c.66-8.88,2.45-17.34,4.19-25.61l1.38,2.18Z" fill="#a1856d"/>
  <path d="M628.34,611.38c-2.27,17.61-5.25,34.93-10.53,52.33-4.83,16.08-11.72,30.24-20.77,44.21l-5.64,10.5-4.98,8.87c-8.55,15.23-12.87,30.94-14.76,48.62-2.05-15.31,5.51-35.98,13.31-50l11.47-20.61c8.38-15.06,16.04-29.57,20.67-46.31,4.4-15.92,7.05-31.72,8.85-47.66l2.37.05Z" fill="#867261"/>
  <path d="M613.45,562.42l-9.93,21.22c-7.6,16.22-17.21,31.21-29.37,44.37l-9.71,10.5-14.12,11.68c-8.63,7.14-17.66,13.46-27.53,17.48l-1.28-1.82c12.58-6.38,24.26-14.66,35.48-24l16.49-16.4c15.24-17.51,25.89-37.54,35.28-58.59l3.01-5.54c.12.54,1.06,1.08,1.69,1.1Z" fill="#b89e82"/>
  <path d="M362.7,533.46l-1.31,1.96-4.78-10.99c-14.85-27.94-25.99-56.68-34.5-87.22-2.28-8.19-8.25-14.32-13.06-20.98l-7.42-10.29,1.34-1.35,14.94,19.71c4.33,5.72,6.59,11.7,8.49,18.64,7.67,27.99,18.35,54.22,31.88,79.79l4.42,10.73Z" fill="#b1977a"/>
  <path d="M451.82,579.62l1.81.46c.51.13.94,1.53,1,2.05s-1.5.52-2.01.39l-1-.33,3.05,10.25c3.09,11.58,3.19,24.42-3.49,34.75l-.87,5.41-1.33-2.95c-.19-.42-1.12.33-1.5.62l-1.23-.36c-19.02,11.73-35.06,28.95-46.16,49.58l-1.71-1.39c5.36-9.67,11.48-19.15,19.42-27.47,8-8.39,16.11-15.76,25.68-22.33,17.71-12.14,10.03-28.98,5.29-48.85l3.05.18Z" fill="#ab9279"/>
  <path d="M517.2,749.17l-.14,1.29c-.08.35-.97.58-1.42.76l-2.09,1.18c-16.22,2.19-27.96,15.54-29.39,31.93l-.62-5.23c-.13-1.07-.79-3.22-1.31-4.01s-3.12-.63-3.53-.08c-.24,2.98-.83,2.16-1.56.12,5.31-17.21,22.18-28.14,40.06-25.95Z" fill="#c3996e"/>
  <path d="M721.32,664.23l-5.16-1.89h-.85s-2.08-3.2-2.08-3.2l2.27-.09,3.16,3.88c2.75-8.86-3.03-18.12-11.17-19.78l-1.01-1.24c.04-.14-1.27-1.53-1.9-1.81l-8.09-3.59c-.93,2.07.58,5.68,2.52,7.93l-.4,6,5.75-5.61-2.82,6.12c-.38-.11,1.77.51,2.42.69-.32,5.92,3.23,10.9,9.39,12.08l-3.97.51c0-.32,0,.83-.05,1.24-6.68-2.76-13.89-.7-18.45,4.82-5.78,1.89-5.84,9.98-2.11,14.61.13.55.67,2.44,1.13,2.3l2.34-.74,4.33.72c1.05.17,2.76-2.48,2.66-2.98l-2.05-1.6c-.47-.37,1.82-1.53,2.43-1.31,1.38.51,2.14,3.81,1.45,5.14-.64,1.21-3.03,2.69-4.57,2.98-6.21,1.15-9.86-2.7-11.12-8.38-1.16-5.21.7-10.63,4.39-13.78,4.07-3.47,8.83-5.24,15.12-4.12-5.16-5.79-7.45-11.8-9.37-19.02l-3.23-12.15,11.47,5.91c13.82,7.12,18.12,9.11,17.58,26.36Z" fill="#866e59"/>
  <path d="M542.93,485.88l-8.66,10.38-11.68,11.4c-5.78,5.64-13.29,9.19-19.95,14l-27.96,20.23.99,1.95c-8.91,2.78-17.02,8.8-23.1,14.01l-1.93-1.63,7.64-6.23,25.39-17.42,5.81-4.4-1.41-.86,2.81-1.5,13.75-8.15c14.59-8.65,26.78-20.03,36.9-33.11l1.41,1.34Z" fill="#c1a88b"/>
  <path d="M362.62,593.57l.02,15.77.05,28.06-.97,19.95-3.78,25.36c-1.85,12.42-6.75,24.52-15.85,34.07,4.09-9.21,9.32-17.42,11.6-27.4,3.23-14.16,6.38-27.9,6.51-42.5l.4-53.72,2.03.42Z" fill="#785d4a"/>
  <path d="M461.28,364.36l.29,4.01c-2.06-.08-3.47-.11-6.07.63,19.43,10.67,26.81-15.33,49.2-11.85l-14.13,3.72c-1.58.42-3.44,3.35-3.21,4.9l-1.95-.44c-.36-.5-3.24.15-4.06.96-8.52,8.47-20.35,9.47-30.05,2.4-2.4-1.75-5.29-2.69-8.51-3.6l-8.77-8.69-3.2-4.45,1.62,8.78-1.83-.02-2.01-7.99c-2.91,8.18-6.17,13.52-14.19,16.36l4.29,2.19-9.02,1.57-6.28,1.89,1.42-4.33,8.49,1.28c-.02-.97-.89-3.36-1.96-4.2,7.11-.71,13.81-6.46,14.26-13.74l-.43-1.28,5.69-.26.7-8.8.03-1.77.92,1.05c-.24,5.76.95,11.1,4.95,15.2-1.51-5.03-3.02-8.84-2.61-13.34l3.81,9.26c1.96,4.76,14.47,14.91,22.11,12.54-5.06-2.55-10.45-4.85-13.5-9.49,4.87,2.33,9.16,7.18,14.01,7.51Z" fill="#907b69"/>
  <path d="M485.37,794.42l.02.92,1.09,1.91.06.98,1.07,2.03c3.38,6.01,7.54,11.39,14,14.88l3.82,2.06c-.3,1.63-1.92,3.03-3.87,4.39-12.89-4.04-22.58-14.76-25.31-27.99l9.12.82Z" fill="#b37e4e"/>
  <path d="M528.5,350.73c-2.28,3.27-5.72,5.75-9.68,8.67-.33,3.77-.61,8.7.03,12.09l-1.43,2.21c-.31-.01-1.89,0-1.79-.51l.42-2.24.09-8.55c-1.54,2.01-2.74,5.19-2.92,8.03l-.53,8.36-5.25,5.72c-.56.61-1.01,2.31-.76,3.27-1.06.19-2.78,1.22-4.34,2.14,1.87,5.46,4,11.14,8.3,14.47l-1.38,1.6c-5.19-3.03-8.18-8.66-9.06-15.33-4.34-.89-3.21,4.47-8.69,5.01l-1.46-1.89c2.75-2.82,4.99-4.27,9.67-6.8l-1.87-9.11c-7.42.59-9.78-5.38-12.44-12.54l1.95.44c1.3,4.08,4.19,8.6,7.42,10.98l2.71-4.67,4.47,13.72c12.31-7.54,9.3-16.33,11.23-20.48l5.96-12.78-.48,5.04,8.82-6.9,1,.05Z" fill="#866e59"/>
  <path d="M603.94,401.78l-1.67,2.29c-.43.58-2.1.61-2.82.65l2.78-3.24,1.72.31Z" fill="#806752"/>
  <path d="M597.33,402.68l.59,1.86c.1.33,1.18.21,1.53.19-.43.36-.32,2.57-.99,2.89l-6.75,3.3c-3.19,4.15-6.53,9.31-7,14.77-.33,3.82,4.51,9.5,7.84,10.42l12.92,3.57-1.02,2.11c-6.04-.98-13.31-2.48-18.11-6.95-6.15-5.72-4.12-13.68.56-20.95-5.69,1.7-11.61,5.38-13.8,11.42-1.35,3.73-.55,8.89.5,12.44l-3-.03c-3.59-10.04,2.2-20.88,12.09-24.83,3.66-1.46,6.95-3.67,10.15-5.93.73-1.49,2.43-4.12,2.41-5.46l1.88-.8c.36-.22.1,1.57.22,1.98Z" fill="#806752"/>
  <path d="M549.4,495.46c-6.2,11.01-13.15,21.49-21.3,31.62-5.01,6.23-11.26,10.72-17.73,15.26-9.17,6.44-19.36,9.39-29.71,11.55l-2.23-1.71c13.17-2.94,26.49-6.39,36.67-16.31l13.09-12.75c7.56-8.83,13.67-18.76,18.95-28.68l2.27,1.01Z" fill="#c1a88b"/>
  <path d="M393.71,382.63c-1.66,4.98-2.39,11.4,1.4,16.32.96-7.64,2.96-16.21,11-19.36-7.93,9.01-11.36,20.85-3.37,24.96-1.66-5.35-2.65-8.57-1.79-12.99,1.53,4.5,1.74,9.85,5.11,13.69s8.98,7.25,13.49,8.93l-1.16,1.72-7.46-3-2.75,1.91-13.24-13.61c-2.93-3.01-5.73-8.2-5.15-12.09.99-6.71,4.04-12.12,8.85-15.36-2.1,2.31-3.91,5.8-4.94,8.89Z" fill="#806752"/>
  <path d="M541.6,334.75l-8,8.77,3.88-.63h2.08s-7.84,3.22-7.84,3.22l-3.22,4.61-1-.05,1.88-4.42c-9.54,5.46-19.22,6.71-29.7,4.05l-9.33.28c1.02-1.09,1.63-1.73,2.34-1.66l3.73.38c-8.76-7.29-20.13-7.83-32.18-5.61,2.21-3.13,5.64-2.91,9.37-3.28,5.1-.5,9.69-.62,14.62,1.68,7.86,3.67,16.09,8.01,24.85,7.22,10.22-.92,20.38-7.52,25.43-14.77l3.08.2Z" fill="#a38971"/>
  <path d="M347.61,762.3l1.85,3.2-.57,15.15.15,2.18-1.27,1.37c-.25.27-1.24-.78-1.1-.91.57-1.41.65-3.57.45-4.73l-1.57-9.49c-1.04-6.28-1.62-12.99-.29-19.14,1.37-6.35,6.63-10.15,10.92-14.04l9.14-8.27-.64,11.69c-.42,7.61-.47,15.19-6.96,20.11l-6.43,4.87c2.03-3.22,4.11-5.28,6.56-7.82,7.14-7.39,5.03-22.25,3.56-21.31l-2.91,1.85c-7.84,4.97-11.85,11.41-12.48,20.76l-.25,3.71c-.04.59,1.41.77,1.84.84Z" fill="#886953"/>
  <path d="M373.48,541.54l.21-2.23,6.24,9c9.35,17.8,15.32,36.6,20.7,56.06,3.26,11.8,7,22.8,7.81,35.13-5.97-20.87-10.35-41.97-18.56-62.28l-8.67-21.44-7.73-14.23Z" fill="#866e59"/>
  <path d="M616.35,585.46c-.02,1.35-.81,3.81-1.4,5.54l-9.7,28.36c-5.66,16.55-12.32,32.19-20.52,47.08l-1.63-1.31c10.17-19.25,17.58-39.52,24.64-60.52l7.78-23.15c.5.55.84,2.92.82,3.99Z" fill="#b39a7e"/>
  <path d="M637.91,522.18c-12.43,6.96-17.97,26.38-24.46,40.24-.63-.02-1.57-.56-1.69-1.1l-.75-3.45c-9.06-10.26-18.32-19.99-24.55-32.89,7.53,7.44,12.9,15.8,19.77,23.68l6.87,7.89,12.73-25.63c2.12-4.26,6.35-7.67,9.35-10.45l2.72,1.7Z" fill="#a1856d"/>
  <path d="M437.57,562.52c1.68.02,4.67-1.04,6.06-1.91l7-4.39,1.93,1.63c-1.06.91-2.33,2.36-3.05,3.24l-4.38,1.44c-3.08,1.01,1.78,10.78,6.69,17.08l-3.05-.18c-3.88-4.06-5.95-9.15-7.37-15.02-15.87,1.56-30.11-5.44-41.66-16.11l-8.28-7.65,1.47-1.19,12.26,10.44c9.05,7.71,20.72,12.46,32.37,12.61Z" fill="#b89e82"/>
  <path d="M398.84,458.92l-4.36-2.48,5.36-3.58,11.68-7.06-.78,2.84,10.93-2.63c9.81-.57,16.12-5.16,20.85-13.66-.35,3.09-1.59,5.12-3.14,8.28,7.95-3.28,9.84-10.95,13.45-18.74-.13,12.57-9.55,21.38-21.55,24.44-7.71,1.97-15.51,2.71-23.04,6.07-2.98,1.33-7.53,4.38-9.39,6.52Z" fill="#907660"/>
  <path d="M584.73,666.45l-5.08,9.23,5.06,12.99-.8.67-5.4-11.87c-14.7,20.3-30,35.03-51.95,44.11l.87-2.43c20.27-9.44,36.97-25.27,49.4-44.35l6.29-9.66,1.63,1.31Z" fill="#ab9279"/>
  <path d="M545.59,331.86c-1.15.46-3.14,1.96-3.99,2.9l-3.08-.2c-5.75,2.9-12.95,5.98-20.01,4.97l-8.67-1.24c-9.95-1.42-18.31-2.52-28.58-.73,10.89-6.61,21.27-1.69,32.16-3.11.09,1.44,1.57,3.73,2.72,3.48l5.54-1.19c7.57-1.63,16.75-3.41,22.61-9.26l1.29,4.38Z" fill="#806752"/>
  <path d="M547.51,680.65c-10.39,9.34-21.78,16.77-34.22,23.45-12.11,6.89-23.89,13.33-34.83,21.65l.21-2.84,26.1-16.41c14.27-8.98,29.19-16.53,41.72-27.75l1.03,1.91Z" fill="#a38971"/>
  <path d="M311.05,591.37l-3.05,1.67c-.36.41-.32-2.56-.36-3.56l-11.49-31.38c-1.23-3.34-3.82-6.59-5.89-8.63-.07-4.16-.38-8.85-1.75-12.61l1.58-1.29c1.2,3.31,3.09,5.97,5.59,8.49l2.68,2.97c-2.09,1.47-2.66,4.33-1.54,7.27l14.23,37.08Z" fill="#b39a7e"/>
  <path d="M380.7,786.29c-.77-1.11-.87-3.93-.23-5.39.53-1.21,2.47-1.88,4.28-2.43-.16-1.21-.48-3.16-.93-3.79-.56-.79-2.74-1.42-3.65-1.04l-4.52,1.56-4.52-4.72,5.68.09,11.15-6.09c1.54,3.97,1.72,6.17.73,9.94-1.65,6.22,1.17,10.94-1.51,10.54l-2.45-.36-4.02,1.7Z" fill="#806752"/>
  <path d="M639.73,656.43l-2.45,15.84c-5.24,18.51-11.63,35.88-18.49,53.22l-1.77-.33c9.02-23.04,17.8-46.29,20.91-70.92l1.79,2.19Z" fill="#866e59"/>
  <path d="M661.24,660.52c.64-1.37,1.39-3.81,1.31-5.15,2.04,13.82,4.31,27.91,8.9,41.78,3.53,10.68,9.59,19,16.11,28.19-17.91-14.62-24.33-43.03-26.31-64.82Z" fill="#866e59"/>
  <path d="M304.99,649.55c-2.41,3.87-2.44,9.27-2.35,13.89.48.35.7.5,1.05.43l2.13-.45,8.53-1.75,1.99,1.73c.33.29,1.27-.84,1.44-1.06,4.93-.46,10.77.87,14.68,4.65,3.36,3.25,5.99,8.7,4.81,13.66-.87,3.68-2.81,6.79-5.55,8.32-2.34,1.31-7.52,1-9.23-1.34-.82-1.13-.92-4.63-.91-6.22l3.83.05-1.86,4.15c-.31.69,2.83,2.08,3.51,1.74l5.68-2.88s1.22,1.25,1.39.79l.71-1.88c.99-3.04,2.29-8.13-1.22-9.19-2.2-6.51-8.11-11.03-16.18-9.78-3.64.56-8.55,2.91-11.55,5.08l-.81-3.01c-.03-.62-1.27-1.74-1.76-1.45l-2.03,1.43-.77-7.31c-.36-3.43,1.14-7.83,2.79-9.98l1.65.36Z" fill="#806752"/>
  <path d="M389.45,367.39l1.4,1.92c-4.8,2.8-9,6.32-11.63,11.12-3.54,6.44-.97,14.65,5.15,19.44,4.22,3.31,6.63,7.3,4.67,12.54-1.38,3.69-5.13,6.87-9.3,7.48l-.11-1.59c2.61-.28,6.62-4.25,7.6-6.81,1.4-3.64.04-6.74-2.95-8.66-4.7-3.02-9.46-8.05-9.53-14.23-.1-9.69,6.89-17.32,14.7-21.22Z" fill="#806752"/>
  <path d="M681,481.49l-17.67,37.98-9.88,21.98-.86-.74c-.16-.3.02-1.48.12-1.82l1.57-5.3,4.38-10.76,8.47-16.42,6.2-12.92,5.73-13.24,1.95,1.25Z" fill="#c1a88b"/>
  <path d="M467.37,687.97l1.38,1.73c-15.36,6.27-27.93,16.98-38.45,30.37-7.51,9.56-10.96,20.45-15.76,32.25,5.01-28.87,26-53.41,52.83-64.35Z" fill="#867261"/>
  <path d="M646.41,541.15l-3.87,7.4c-7.69,14.71-10.78,30.84-12.24,46.85l-2.3-1.08c1.4-10.61.88-22.48,5.75-32.4l10.12-20.64,2.54-.14Z" fill="#866e59"/>
  <path d="M484.15,784.32l1.21,10.1-9.12-.82c-1.26-6.14-.96-12.49.89-18.48.72,2.04,1.31,2.87,1.56-.12.4-.55,3.01-.72,3.53.08s1.18,2.95,1.31,4.01l.62,5.23Z" fill="#ba8f64"/>
  <path d="M535.62,815.39l-1.44-1.5c8.8-6.92,13.49-16.89,13.39-28.18s-4.94-21.91-14.27-28.19l.11-2.32c9.9,6.64,16.02,17.62,16.46,29.53.44,11.91-4.86,23.31-14.24,30.66Z" fill="#8f715a"/>
  <path d="M732.28,705.42l1.98,1.02-7.01,3.75-.18-1.4c-.05-.28-.5-.32-.55-.04l-.24,1.58c-7.08,5.21-13.41,11.55-19.15,18.76l-3.75,3.96.94-2.59c.2-.56-1.26-1.36-1.87-1.29l.91-2.92,2.53.63c3.73-4.13,6.48-9.46,9.6-14.46l2.71-4.08.23,1.46.29,1.86c.11.7.93-1.11,1.79-1.61l7.84-4.57,3.92-.05Z" fill="#a1856d"/>
  <path d="M402.81,438.94l-16.76,6.22-6.46,2.21c-2.57.88-3.81.85-5.16,2.15l-1.74-.03-2.46-1.18c12.13-8.81,20.38-7.34,31.38-13.72l1.22,4.36Z" fill="#806752"/>
  <path d="M418.4,415.9l1.16-1.72,5.6,2.08c1.63.61,5.42-.07,7.44-.34l11.59-1.55c13.85-3.49,24.43-11.96,30.14-24.98-3.24,22.23-37.18,34.05-55.92,26.51Z" fill="#867261"/>
  <path d="M433.42,838.59c-.39.47-.84.66-1,.65-6.07-.62-17.56-12.48-12.87-25.13,1.29-3.48,4.91-6.57,7.65-6.9,3.99-.49,7.94.21,9.95,3.24,1.22,1.85,1.43,4.5.15,5.76-1.31-3.77-4.25-6.97-8.22-7.04s-6.96,3.42-8.03,7.75c-1.63,6.59,2.04,13.17,7.32,17.53l5.05,4.16Z" fill="#806752"/>
  <path d="M320.5,657.78l-.98-1.68c1.58-1.67,2.83-5.77,3.55-8.14,1.01-3.32,1.29-5.84,1.21-10.12l-7.29,3.16c-4.34,1.88-9.35,4.29-12,8.55l-1.65-.36c.94-1.23,2.22-4.72,3.63-5.45l15.29-7.88,7.5-3.85-3.14,10.3-2.93,11.13c-.35,1.34-2.29,3.38-3.19,4.34Z" fill="#99806c"/>
  <path d="M554.32,413.45l1.28,5.22c-2.41,12-16.55,5.44-29.14.08l-1.14-.23-10.67-8.16-5.39-4.37,1.38-1.6,6.82,5.28c8.72,6.75,26.18,16.44,32.39,12.94,1.56-.88,3.16-3.92,3.65-5.85l.83-3.31Z" fill="#907b69"/>
  <path d="M389.94,548.43c.03-.34.17-2.27.12-1.58l1.41,1.41c7.19,8.76,13.62,18.44,19.56,28.74s13.35,20.48,17.51,33.15l-14.32-24.35-23.57-36.84-.72-.53Z" fill="#867261"/>
  <path d="M478.46,725.75c-17.09,13.02-27.84,31.26-33.87,51.51,2.93-22.14,16.64-41.09,34.08-54.36l-.21,2.84Z" fill="#867261"/>
  <path d="M580.27,531.02c-.18-.1-2.23-.72-2.13-.22l.07,1.76c-4.4-14.12-10.77-28.12-10.18-43.88l7.12,27.77,4.23-9.54,1.16-.23-4.18,11.79,3.91,12.55Z" fill="#ab9279"/>
  <path d="M534.18,813.89l1.44,1.5c-9.64,7.55-22.38,9.87-34.07,6.21,1.96-1.36,3.57-2.76,3.87-4.39,9.68,3.29,20.62,3.09,28.76-3.32Z" fill="#95775e"/>
  <path d="M385.57,648.71l-2.15.38c-4.9-14.7-8.35-30.25-10.09-45.52l1.92-3.09,1.25,11c1.47,12.98,5.29,25.25,9.08,37.24Z" fill="#99806c"/>
  <path d="M570.56,455.43l-4.05.83-3.38,6.74c-5.41,10.77-8.03,22.35-13.72,32.46l-2.27-1.01c6.67-12.52,11.85-25.87,16.13-39.58,2.24-.3,5.39.04,7.3.57Z" fill="#a1856d"/>
  <path d="M649.91,773.99l1.51,5.21-2.75,5.2c-.34-.39-.87-1.07-.91-1.07-.08,0-1.39.35-1.37.34.03,0,.83.71,1.04.88l.87.7.88,4.97-1.89-.09c-.42-2.74-3.71-4.5-6.92-4.85l-6.04-.66,3.05-.38,4.83-.02-.74-3.22-1.59-6.01c.43-.3,1.98.22,2.16.29l3.72,5.85-.28-4.34c-.06-.99,1.51-2.23,2.38-2.93l2.05.14Z" fill="#ab9279"/>
  <path d="M580.27,531.02c5.69,18.26,2.01,21.43-3.06,35.21l-1.58,4.29c-.08-.4-.53-2.07-.94-1.9l-2.17.87,4.58-9.14c4.73-9.28,3.94-18.68,1.1-27.79l-.07-1.76c-.1-.5,1.95.12,2.13.22Z" fill="#c1a88b"/>
  <path d="M400.1,679.47c-7.45,13.85-12.62,29.24-14.12,44.93l-1.79-2.19c2.11-12.98,5.75-25.67,10.99-38.32l3.22-5.81,1.71,1.39Z" fill="#907660"/>
  <path d="M575.8,331.76c1.87,7.78-.34,21.46-6.1,29.53-.08,2.99-.42,7.76.63,10.3l-2.27.09c-2.6-6.21-1.26-10.36,2.19-16.29,3.97-6.82,3.88-16.19,3.19-23.66l2.34.03Z" fill="#b39a7e"/>
  <path d="M432.45,360.73c2.2,11.91,13.72,24.33,25.39,20.38l18.94-6.41c-5.98,5.41-13.59,7.13-21.85,8.52-4.93.83-11.98-1.4-15.51-5.38-4.38-4.93-7.33-11.27-8.8-17.13l1.83.02Z" fill="#7f6959"/>
  <path d="M600.26,350.67c-.82,4.58-3.93,10.65-7.59,10.13,3.29-5.23,4.66-7.91,5.63-14.1l.5,3.18c.08.51.9.81,1.45.78Z" fill="#89705c"/>
  <path d="M596.84,343.33c-1.1,7.63-9.77,9.92-8.44,19.23l4.27-1.76c-.91,1.45-1.89,2.4-4.3,4.41l3.22,7.41-4.23-.11c-3.33-6.03-2.45-14.61,2.26-20.88,3.51-4.67,6.73-9.16,6.08-15.05.62,1.96,1.43,4.78,1.14,6.75Z" fill="#89705c"/>
  <path d="M648.25,771.34c.66-.05,2.07-.1,1.96.48s-.38,1.77-.3,2.16l-2.05-.14-.84-1.15-4.98,2.57c-.18-.06-1.74-.58-2.16-.29l-4.43,3.09c-1.11-3.5-1.51-8.36-.97-11.41l4.95-.35,8.81,5.02Z" fill="#503a28"/>
  <path d="M698.35,739.21l1.14,1.2-4.97,9.91-6.84,13.09-1.68-1.4c3.31-7.45,2.76-15.57,4.21-24.57,1.36,4.33,1.13,8.31,1.37,12.97l6.77-11.2Z" fill="#99806c"/>
  <path d="M703.36,726.25l-.91,2.92c-.44.06-1.51,1.18-1.65.76l-1.01-2.93-.41,2.33c-2.98-5.55-2.68-12.24.75-17.26.02,1.07,1.35.29,1.7.09l.89-2.03c.68-1.54,3.52,6.89.64,16.13Z" fill="#503a28"/>
  <path d="M491.51,395.66l-1.06,7.92c-1.2,8.97,6.95,8.91,7.27,15.56.06,1.35-1.75,3.68-3.07,4.56,3.25-10.99-6.95-8.22-8.68-20.03-.47-3.23,1.59-7.34,4.08-9.9l1.46,1.89Z" fill="#7f6959"/>
  <path d="M728.36,705.47l-7.84,4.57c-.86.5-1.68,2.31-1.79,1.61l-.29-1.86c1.58-1.62,2.27-3.22,2.75-5.98l3.11-3.44c.2-.23,1.09-1.54.8-1.61l-1.77-.47.65-6.12c5.3-1.71,7.42-7.6,15.28-9.56-1.11,9.7-3.5,18.55-10.9,22.86ZM727.4,700.06l5.16-1.21c2.29-3.92,4.08-7.3,3.04-12.08-4.73,1.53-7.39,4.26-10.13,7.61l1.93,5.67Z" fill="#806752"/>
  <path d="M487.3,736.05l1.44,1.6c-13.74,7.41-23.63,19.16-28.37,34.57l-1.75-1.65,8.6-16.65c5.42-7.48,12.22-14.34,20.09-17.87Z" fill="#866e59"/>
  <path d="M731.4,540.26l1.71.9.52,6.23,4.79.56-4.64.66c-.97.14-.1,2.53.38,3.77l-2.82-.79c-.63-.18-1.12,1.08-1.14,1.74l-4.65-4.39-5.39-.99,5.29-.86-1.06-4.54,2.68,1.94c.44.32,1.2-.99,1.27-1.55l.29-2.46c.07.14,1.39,2.05,1.7,1.55l1.08-1.77Z" fill="#e4b885"/>
  <path d="M614.41,796.05c-.48,4.37,3.48,8.43,7.14,9.84-5.63,1.02-7.88-4.07-9.66-8.15l-3.8-8.73,9.2,3.29c4.57,1.63,10.1,2.58,10.98,8.18-3.39-4.44-9.41-7.19-13.86-4.42Z" fill="#7f6959"/>
  <path d="M560.32,318.58l-1.43,1.68c-.1.11-.36.12-.77.2-.02.36-.06,1.28-.05,1.16l2.5.69c-6,2.41-7.41,15.02-21,20.58h-2.08s10.07-8.14,10.07-8.14l3.96-5.08c.02-.2-.22-1.2-.55-1.15l-1.5.23,1.01-.98,1.19-.96,4.59-5.39,2.05-2.74,2.02-.12Z" fill="#907660"/>
  <path d="M724.67,669.52l-1.07,5.26c-.31,1.5.08,4.24.25,5.61.47,3.77.53,8.05.14,11.78l-.65,6.12-2.32.09,1.13-8.23c.9-6.57-1.34-13.55-3.77-19.08l.87-2.73,3.53,4.02,1.91-2.85Z" fill="#95775e"/>
  <path d="M377.85,682.68c-.59,16.14-6.62,31.07-14.99,44.73,6.37-14.38,10.61-28.78,14.99-44.73Z" fill="#7f6959"/>
  <path d="M363.58,468.55l1.92,4.09c3.86,8.2,12.62,6.89,14.42,14.16.6,2.43-.07,5.27-2.19,6.84,4.54-13.74-13.82-8.8-16.61-24.37l.64-2.72,1.82,2.01Z" fill="#806752"/>
  <path d="M490.86,525.8l-2.81,1.5c-7.37,3.95-18.8,5.14-27.29,4.94l-6.14-1.02,3.96-.65,19.14-2.95,13.14-1.82Z" fill="#907b69"/>
  <path d="M402.81,438.94l-1.22-4.36,2.94-4.03c3.62-4.97,4.05-9.1,4.76-15.66,1.35,1.65,2.15,6.73,1.26,8.45l-6.15,12c4.91-1.29,7.37-5.72,9.97-10.88-.09,7.03-5.52,12.22-11.58,14.47Z" fill="#907b69"/>
  <path d="M446.26,629.89l1.23.36-2.68,6.48-17.14,32.33c3.62-14.96,11.75-26.66,18.59-39.17Z" fill="#867261"/>
  <path d="M555.6,418.67l-1.28-5.22c.45-6.1,6.25-4.03,6.41-10.83.03-1.17,1.83-2.97,2.8-3.87,2.54-2.34-1.98-4.83,1.77-8.93l1.75-1.9c.44-.48,1.59,1.09,2.01,1.76.34.55-.55.94-2.14,1.68-3.12,2.54.74,7.29-.58,8.33l-3.34,2.65c-.36,3.86-1.25,7.14-5.78,8.28l-1.61,8.03Z" fill="#ab9279"/>
  <path d="M639.43,766.32l-4.95.35c-.54,3.05-.14,7.91.97,11.41l4.43-3.09,1.59,6.01-6.71.61,2.62,2.63-3.05.38c-.77-.08-2.62-1.27-2.21-1.91l2.08-3.29c-1.73-4.6-3.49-10.72.39-15.06l4.85,1.96Z" fill="#806752"/>
  <path d="M398.84,458.92l-6.97,9.09c-.62-.78-1.44-1.59-1.16-2.02l2.04-3.2c-2.37.25-4.45,2.89-4.63,5.51l-2.53,9.16.5,6.34c-4.53-10.06-.1-21.71,8.38-27.38l4.36,2.48ZM394.12,460.55l-.5.5.5.5.5-.5-.5-.5Z" fill="#99806c"/>
  <path d="M380.7,786.29c-.46.19-1.65.03-2.05,0l-.36-1.78-3.5,1.61-1.25-3.78.1-1.1,1.51.87c.41.22,1.83-1.55,1.9-2,.19-1.27-.64-3.87-1.4-4.9l4.52-1.56c.9-.38,3.09.25,3.65,1.04.45.63.77,2.58.93,3.79-1.81.54-3.75,1.22-4.28,2.43-.64,1.47-.54,4.28.23,5.39Z" fill="#a1856d"/>
  <path d="M446.68,401.29c-11.9,1.62-22.55-4.53-28.03-14.87l.33-8.94c1.24,16.26,13.23,20.67,27.7,23.81Z" fill="#7f6959"/>
  <path d="M407.51,798.31c.31-1-.99-3.59-1.93-3.76-4.27-.78-9.27,2.43-13.03,6.58,1.47-7.16,10.61-9.98,17.64-8.34.95,5.84-3.91,14.81-12.2,14.15,3.66-1.17,8.32-4.75,9.53-8.62Z" fill="#867261"/>
  <path d="M571.14,658.86c-5.11-1.42-4.99,7.06-11.25,7.57l9.54-12.12,13.9-20.03c-2.22,9.43-11.85,16.4-12.19,24.58Z" fill="#907b69"/>
  <path d="M323.49,729.23l-.93.2-2.08-3.82c.35-1.38,1.51-1.55,2.96.47l.3-4.81c-.25-3.38-1.23-6.55-2.84-10.69-4.22,3.74-.25,7.28-1.85,9.53l-2.2,3.08c-.42-3.96-.87-11.59,4.13-15.47,5.37,9.21,5.65,12.88,2.51,21.51Z" fill="#785d4a"/>
  <path d="M480.53,421.63h-1.47c-.38.03-.23,1.61-.31,1.98l-1.11,5.08.53-10.88-.06-13.3c-.02-5.53,1.15-11.17,5.33-15-.56,2.7-2.83,6.75-2.83,8.91l-.08,23.21Z" fill="#785d4a"/>
  <path d="M399.3,368.72l4.21.9,1.31.77-1.42,4.33-8.67,10.47-1.03-2.56c1.03-3.08,2.84-6.58,4.94-8.89l2.86-2.82-4.19-.42c-.62-.06-.8-1.36-.7-2.08l2.67.31Z" fill="#a29387"/>
  <path d="M718.16,704.22c-.27.62-.85,1.67-.63,2.27l.68,1.85-2.71,4.08c1.87-11.68,1.99-23.29-8.63-24.77,1.06-1.16,3.68-2.79,4.64-2.23,6.39,3.71,7.53,11.17,6.66,18.81Z" fill="#785d4a"/>
  <path d="M730.24,671.38c0,.34.06.73,0,.95l-.89,2.02c-.07.22-.04.8-.04,1.06l-2.13,1.99-1.34,2.08c-.27.42-1.39,1.01-1.98.92-.17-1.38-.56-4.11-.25-5.61l1.07-5.26c.04-.21-.06-.6-.12-.89l5.58-2.84.11,5.59Z" fill="#503a28"/>
  <path d="M391.87,468.02c-5.16,8.15-3.23,17.65,4.97,24.29-7.14-.53-9.77-8.02-9.32-14.75l.61-9.25c.17-2.62,2.26-5.26,4.63-5.51l-2.04,3.2c-.28.44.54,1.24,1.16,2.02Z" fill="#a29387"/>
  <path d="M385.98,724.4l-1.04,10.9-.62,22.06c-2.66-11.71-2.01-23.53-.12-35.15l1.79,2.19Z" fill="#694c35"/>
  <path d="M521.69,336.74l-5.54,1.19c-1.16.25-2.63-2.05-2.72-3.48,2.21-.29,6.69-1.68,8.6-3.12l11.61-8.49c-3.55,7.08-11.26,9.66-18.46,13.4l6.51.5Z" fill="#907b69"/>
  <path d="M425.37,351.77l-.18.69.43,1.28c-6.24,6.07-14.24,11.1-22.91,12.06l.92-2.05c7.77-2.15,15.02-6.61,20.9-12.1l.85.12Z" fill="#7f6959"/>
  <path d="M305.78,704.3l-2.14-3.05c.43-7.05,2.11-14.85,7.74-16.11,1.33-.3,3.84.86,4.53,2.54-7.78-1.33-9.12,7.09-10.13,16.62Z" fill="#785d4a"/>
  <path d="M557.68,459.32c-3.89,9.48-8.34,18.87-14.76,26.56l-1.41-1.34c5.26-6.8,9.48-14.6,13.21-22.79l2.02-3.36.94.94Z" fill="#a38971"/>
  <path d="M612.19,448.75l2.62-.06c.56,0,.37-1.84.63-2.46l3.82,4.52c4.84,5.73,4.55,14.81-1.96,18.6,4-6.23,5.11-13.01-.33-17.81l-.98,2.99-3.79-5.78Z" fill="#7f6959"/>
  <path d="M603.94,401.78l-1.72-.31c3-4.62,2.92-10.24.1-14.69l-1.57-2.47-1.04,5.37-1.59-5.07,3.36-3.08c5.57,5.03,6.61,14.53,2.45,20.23Z" fill="#907660"/>
  <path d="M379.58,447.37l-6.25,5.88c-5.82,5.06-8.72,11.9-7.82,19.39l-1.92-4.09c.13-8.1,5.44-13.83,10.83-19.04,1.35-1.3,2.58-1.27,5.16-2.15Z" fill="#a29387"/>
  <path d="M573.59,437.75l7.79,8.79c.52.58.69,3.34-.02,3.43-3.4.42-8.92-7.07-10.77-12.25l3,.03Z" fill="#694c35"/>
  <path d="M372.68,449.48c-3.21,2.76-6.96,5.89-9.18,9.96l-1.73,7.11-.64,2.72c-3.01-7.28,1.9-15.74,9.09-20.96l2.46,1.18Z" fill="#867261"/>
  <path d="M575.63,570.52l-2.82,16.05-2.63.1,3.34-15.5c-6.48,5.75-12.02,11.89-20.68,12.67,6.08-3.61,11.66-6.31,16.38-10.61,1.07-.97,2.18-3.29,3.3-3.74l2.17-.87c.4-.16.86,1.5.94,1.9Z" fill="#a1856d"/>
  <path d="M383.42,649.09l2.15-.38,9.1,28.77c-3.35-4.99-5.24-10.36-7.14-16.08l-4.11-12.32Z" fill="#806752"/>
  <path d="M591.59,372.61l9.9,8.94-3.36,3.08c-1.5-5.6-8.59-8.16-10.77-12.12l4.23.11Z" fill="#785d4a"/>
  <path d="M295.56,666.26c-1.06.59-3.25,2.53-2.84,3.73l2.07,6.14,3.24-1.77c.45,1.92.14,4.62.03,6.91-5.09-3.63-8.15-9.89-7.33-15.66l3.39-1.33c.6-.22,1.32,1.54,1.44,1.98Z" fill="#694c35"/>
  <path d="M291.95,688.03l2.31,1.27c.47.26.24,1.95-.06,2.13-1.26-.68-3.93,1.13-4.55,2.51l-2.18,3.58c-.58-1.05-1.57-3.01-1.91-4.27l.29-7.13,6.1,1.91Z" fill="#694c35"/>
  <path d="M478.43,552.19l2.23,1.71-27.29,5.69c4.48-2.98,9.19-3.86,14.37-5.01l10.69-2.38Z" fill="#ab9279"/>
  <path d="M391.77,369.49l2.92,1.74c-6.85,2.04-11.92,6.78-14.65,13.51l-.83-4.31c2.64-4.8,6.83-8.33,11.63-11.12l.92.18Z" fill="#a29387"/>
  <path d="M566.77,352.73c-6.97-3.32-12.76-5.72-20.72-5.6,6.54-2.92,17.01-2.44,20.72,5.6Z" fill="#a38971"/>
  <path d="M480.53,421.63c-.02,7.05-1.33,14.51-3.66,21.07l-1.67-2.21,2.45-11.8,1.11-5.08c.08-.37-.07-1.95.31-1.97h1.47Z" fill="#a38971"/>
  <path d="M332.59,752.67c-1.88-1.1-2.95-3.35-2.83-5.28l-.08-1.13c.24.2,1.45-1.11,1.03-1.41l-1.17-.66c-.22-3.3.71-7.27,3.2-9.76.5.15,1.94.85,1.74,1.32l-1.06,2.49c-1.65,3.88-1.37,12.72-.83,14.42Z" fill="#694c35"/>
  <path d="M403.62,363.74l-.92,2.05-1.14-.25c-.55.03-1.69.17-1.81.7l-.45,2.48-2.67-.31c-.5-.06-1.54.1-2.02.25l-1.99.92c-.24.07-.53-.04-.85-.1l-.92-.18-1.4-1.92c3.64-3.36,9.11-4.03,14.17-3.64Z" fill="#71553d"/>
  <path d="M602.32,386.79c-1.24,5.26-.84,10.55-4.99,15.89-.13-.41.14-2.2-.22-1.98l-1.88.8-.16-9.52,2.94,6.67,1.71-8.95,1.04-5.37,1.57,2.47Z" fill="#a29387"/>
  <path d="M319.05,720.11l4.69,1.16-.3,4.81c-1.45-2.02-2.62-1.85-2.96-.47l2.08,3.82c-.61.7-3.27,1.03-3.6-.07l-1.25-4.17c-.14-.47-.8-1.47-.86-2.01l2.2-3.08Z" fill="#503a28"/>
  <path d="M615.44,446.23c-.25.62-.07,2.46-.63,2.46l-2.62.06-7.76-6.98,1.02-2.11c3.81,1.05,7.54,3.67,9.98,6.56Z" fill="#71553d"/>
  <path d="M705.89,726.87l-2.53-.63c2.88-9.24.04-17.66-.64-16.13l-.89,2.03c-.35.2-1.68.98-1.7-.09.84-1.23,1.24-4.78,3.14-5.25,4.41,6.06,3.41,13.23,2.63,20.06Z" fill="#785d4a"/>
  <path d="M730.24,671.38l-.11-5.59-5.58,2.84c-.15-.96.08-4.14,1.04-5.04l6.32-5.85-.77,10.74c-.06.89-.43,3.02-.9,2.9Z" fill="#806752"/>
  <path d="M533.41,755.2l-.11,2.32c-3.59-2.41-9.13-3.92-13.73-5.6-1.5-.18-4.37.26-6.02.49l2.09-1.18c.46-.18,1.34-.41,1.42-.76l.14-1.29c5.8.71,11.36,2.78,16.21,6.03Z" fill="#a38971"/>
  <path d="M690.88,670.28c.4.91-1.78,3.31-1.84,4.49l-.32,6.92,3.52,4.76-2.34.74c-.46.15-1-1.74-1.13-2.3-3.73-4.63-3.67-12.72,2.11-14.61Z" fill="#694c35"/>
  <path d="M379.62,418.31l.11,1.59-5.11.75c-4.51.66-7.05,3.98-9.11,8.58-1.23-2-.62-4.84.95-6.74,3.62-4.39,8.25-3.66,13.16-4.19Z" fill="#907b69"/>
  <path d="M618.8,725.49l-2.3,5.81-6.76,18.19c.58-9.14,4.27-16.61,7.29-24.34l1.77.33Z" fill="#71553d"/>
  <path d="M570.34,371.59l4.71,11.37c.56,1.34.33,4.44-.54,5.41s-3.71,1.28-4.92.99l3.82-3.55c.72-.67-.75-3.18-1.13-4.09l-4.21-10.05,2.27-.09Z" fill="#907660"/>
  <path d="M616.35,585.46c.02-1.07-.32-3.45-.82-3.99l5.56-17.58,1.35-.4-4.94,20.91-1.15,1.06Z" fill="#99806c"/>
  <path d="M506.68,387.78c-.25-.96.2-2.66.76-3.27.28.98,3.26.99,4.4.38,3.95-2.11,6.83-6.94,5.58-11.19l1.43-2.21c.74,3.87,1.08,7.54-1.77,11.26-2.02,2.65-7.22,4.45-10.4,5.02Z" fill="#99806c"/>
  <path d="M520.42,474.74c-1.62.46-4.22,2.5-6.6,3.97.19-2.51,3.09-5.2,5.97-5.87l14.21-3.31.67,1.12-14.25,4.1Z" fill="#867261"/>
  <path d="M566.34,606.67l-3.34,14.79c-.64-.4-1.85-2.94-1.61-4l2.79-12.07,2.15,1.28Z" fill="#89705c"/>
  <path d="M723.33,698.3l1.77.47c.28.07-.6,1.38-.8,1.61l-3.11,3.44c-.48,2.76-1.17,4.36-2.75,5.98l-.23-1.46-.68-1.85c-.22-.6.36-1.66.63-2.27,1.12-1.03,2.63-4.21,2.85-5.83l2.32-.09Z" fill="#a38971"/>
  <path d="M547.51,680.65l-1.03-1.91,8.19-7.34c1.33-1.19,2.68-2.21,4.42-1.18l-11.59,10.42Z" fill="#907b69"/>
  <path d="M713.35,663.72l.95-.38.93,2.23,4.29,1.87-.29.91-.87,2.73-9.03-5.61c.05-.41.05-1.56.05-1.24l3.97-.51Z" fill="#694c35"/>
  <path d="M296.54,666.53l-.07.97.9,3.79.19,1.09.47,1.98-3.24,1.77-2.07-6.14c-.4-1.2,1.79-3.14,2.84-3.73l.98.27Z" fill="#3f2b1c"/>
  <path d="M349.46,765.49l-1.85-3.2.59-3.29c2.16-4.12,3.38-7.94,7.09-11.2-2.56,6.48-5.6,11.42-5.83,17.69Z" fill="#867261"/>
  <path d="M461.57,368.36l-.29-4.01,11.6.77c-3.74,2.47-7.8,3.37-11.31,3.23Z" fill="#71553d"/>
  <path d="M563.53,398.75c-.97.9-2.78,2.7-2.8,3.87l-10.47-2.44,13.27-1.43Z" fill="#886953"/>
  <path d="M291.95,688.03l-6.1-1.91-.29,7.13-2.85-10.78c3.44,1.42,6.68,3.28,9.24,5.56Z" fill="#785d4a"/>
  <path d="M362.69,637.4l-.05-28.06c.28-.52,1.01,1.82,1.01,2.38v23.33c0,.57-.74,2.9-.96,2.35Z" fill="#c1a88b"/>
  <path d="M296.54,666.53l-.98-.27c-.11-.44-.84-2.21-1.44-1.98l-3.39,1.33c.21-1.49-.36-4.44-.7-5.9.57-3.14,6.77,2.85,6.51,6.82Z" fill="#806752"/>
  <path d="M314.83,596.28c-.26.42-3.08,2.38-3.63,1.65l-2.54-3.4-.65-1.49,3.05-1.67,3.78,4.91Z" fill="#e4b885"/>
  <path d="M702.45,729.17c.61-.08,2.08.72,1.87,1.29l-.94,2.59-.3,1.1-3.71.15v-4.97s.42-2.33.42-2.33l1.01,2.93c.14.42,1.21-.7,1.65-.76Z" fill="#785d4a"/>
  <path d="M629.32,602.43c-.51.35-.9,2.15-.91,3l-.07,5.94-2.37-.05,1.24-10.95,2.4-.93-.29,2.99Z" fill="#866e59"/>
  <path d="M519.67,442.61l-4.04,10.17,2.5-13.26c.77-.06,2.37.66,2.16,1.27l-.62,1.82Z" fill="#89705c"/>
  <path d="M332.75,684.48l.89-10.28c3.51,1.06,2.21,6.15,1.22,9.19l-.71,1.88c-.17.46-1.39-.77-1.39-.79Z" fill="#694c35"/>
  <path d="M721.32,664.23c-.03.96-1.25,2.75-1.8,3.21l-4.29-1.87.93-3.23,5.16,1.89Z" fill="#95775e"/>
  <path d="M651.42,779.2l-1.51-5.21c-.08-.39.19-1.58.3-2.16s-1.31-.54-1.96-.48l1.16-1.79c1.61-2.51,4.08,5.76,2.02,9.65Z" fill="#806752"/>
  <path d="M320.5,657.78l-3.44,3.7c-.06-.15.3.75.74.87-.17.23-1.11,1.35-1.44,1.06l-1.99-1.73,5.16-5.58.98,1.68Z" fill="#907660"/>
  <path d="M703.08,734.15l-3.59,6.26-1.14-1.2c-.13-.19-.18-.64-.12-.9l1.11-3.02.04-.99,3.71-.15Z" fill="#a1856d"/>
  <path d="M481.58,328.67l-2.09-1.56,4.11-1.4c.11.98-1.02,2.97-2.03,2.96Z" fill="#b39a7e"/>
  <path d="M373.64,781.24l-.1,1.1-1.79-2.98c.3-.06,1.87-.05,1.87.33l.02,1.55Z" fill="#806752"/>
  <path d="M648.67,784.4l-.37.85-.87-.7c-.21-.17-1.01-.88-1.04-.88-.02,0,1.29-.34,1.37-.34.04,0,.57.67.91,1.07Z" fill="#7f6959"/>
  <path d="M727.25,710.19l-.97.14.24-1.58c.04-.28.5-.24.55.04l.18,1.4Z" fill="#806752"/>
  <path d="M329.68,746.27l-.14-2.07,1.17.66c.42.3-.79,1.61-1.03,1.41Z" fill="#907660"/>
  <path d="M394.61,523.41l.05,2.46-8.26-3.62.63-1.8c2.05.43,5.53,1.71,7.58,2.96Z" fill="#a1856d"/>
  <path d="M385.53,520.51c-.79.18-3.39-.42-3.08-1.3.29-.81.82-2.11,1.21-2.74l1.87,4.04Z" fill="#a1856d"/>
  <path d="M279.77,596.98c-.83,1.03-.79,3.97-.2,4.99s2.79,2.07,4.07,2.37c-2.42,1.8-4.96,3.12-7.88,3.11l-10.81-.05,1.89-1.7-3.07-.29c-.91-.08-3.99-.29-3.93-1.19l.23-3.54c.41-.18,1.89-1.02,1.53-1.54l-1.86-2.71,20.03.56Z" fill="#503a28"/>
  <path d="M712.94,607.34l19.45,11.92-1.2,3.36c-7.24-2.76-13.41-7.06-19.34-13.31-.09-1.02.19-1.53,1.09-1.97Z" fill="#89705c"/>
  <path d="M760.43,599.34c.83,1.1.38,4.77-1.06,4.86l-6.07.4c-.59.04-2,.04-2.26-.5l-1.27-2.69-1.55,3.91-1.45-3.78c-.3-.78.82-2.04,1.42-2.78l-2.94-1.42,7.16.26c2.63.09,5.49.77,8.02,1.74Z" fill="#c1a88b"/>
  <path d="M766.2,594.56c.02-.2.42,1.42.03,1.47l-2.96.38-2.98.38c-.61.08-.22,2.07.15,2.56-2.53-.98-5.39-1.65-8.02-1.74l-7.16-.26-10.85.41-3.14-1.75,21.95-.69c4.7-.15,9.05.08,12.98-.76Z" fill="#a1856d"/>
  <path d="M254.74,594.42v7.06s5.33-.81,5.33-.81l-.23,3.54c-.06.91,3.02,1.11,3.93,1.19l-.89,1.6c-.19.37,1.64.39,2.07.39l10.81.05-7.01.94-8.01,1.06-2.75.02,1.23,2.6c.19.4-1.2,1.36-1.48,1.02l-1.3-1.61-2.59,5.96-2.59-5.97-4.61,4.32c-.42-.74-.85-1.9-.49-2.28l1.32-1.37,1.5-2.04c.19-.26-.86-.5-1.09-.73l-2.29-2.33,4.61-3.61-1.14-1.21.46-.75.89.95c-.05.11,2.23-.82,2.23-1.35l.18-6.68c.84-.15.92-2.05.92-2.92l.97-.02v2.99Z" fill="#e4b885"/>
  <path d="M706.48,641.9c-.91.4-1.73,2.09-2.12,2.93l-5.75,5.61.4-6c-1.93-2.25-3.44-5.86-2.52-7.93l8.09,3.59c.62.28,1.94,1.67,1.9,1.81Z" fill="#503a28"/>
  <path d="M707.49,643.14c-.92-.25-1.07,3.02-.49,3.84l8.5,12.06-2.27.09-5.42-7.01c-.55-.71-3.72-.77-3.84-.49-.65-.18-2.79-.8-2.42-.69l2.82-6.12c.39-.84,1.21-2.53,2.12-2.93l1.01,1.24Z" fill="#907b69"/>
  <path d="M475.66,543.84l-.99-1.95c18.08-4.81,34.64-12.44,48.9-24.34l8.13-6.78c-7.59,10.9-18.35,16.69-29.01,22.93l-14.71,6.3-12.31,3.85Z" fill="#907b69"/>
  <path d="M443.63,560.61c-1.39.87-4.38,1.93-6.06,1.91l3.47-2.09-2.04-9.09c-13.36-.85-24.84-4.18-34.24-12.05,10.48,3.95,18.44,8.71,28.79,9.18l10.13.47c4.89.23,9.71-2.95,15.09-.74l-16.57,3.15c-1.2,2.28-.3,7.12,1.45,9.25Z" fill="#99806c"/>
  <path d="M305.83,663.43l-2.13.45c-.36.07-.58-.08-1.05-.43l8.5-11.12,1.4.16-6.72,10.94Z" fill="#907660"/>
  <path d="M323.07,647.96c-.02-3.79-2.24-6.6-6.08-6.97l7.29-3.16c.08,4.29-.2,6.8-1.21,10.12Z" fill="#c1a88b"/>
  <path d="M747.27,626.52c-1.02.48-3.46.91-4.49.52l-11.6-4.42,1.2-3.36,6.95,3.07,7.93,4.19Z" fill="#c1a88b"/>
  <path d="M647.86,773.85c-.87.7-2.44,1.94-2.38,2.93l.28,4.34-3.72-5.85,4.98-2.57.84,1.15Z" fill="#806752"/>
  <path d="M727.4,700.06l-1.93-5.67c2.73-3.35,5.4-6.08,10.13-7.61,1.04,4.78-.75,8.16-3.04,12.08l-5.16,1.21Z" fill="#503a28"/>
  <path d="M323.74,721.27l-4.69-1.16c1.59-2.25-2.37-5.78,1.85-9.53,1.61,4.14,2.59,7.31,2.84,10.69Z" fill="#3f2b1c"/>
  <path d="M411.35,367.47c1.07.84,1.94,3.23,1.96,4.2l-8.49-1.28-1.31-.77c.88-.64,2.4-1.6,3.32-1.69l4.53-.45Z" fill="#694c35"/>
  <path d="M401.56,365.54l5.27,2.39c-.91.09-2.44,1.05-3.32,1.69l-4.21-.9.45-2.48c.12-.53,1.27-.67,1.81-.7Z" fill="#867261"/>
  <path d="M271.78,627.46l-1.56.96c-.42.26-1.6-.68-1.45-.87l3.01-.09Z" fill="#b39a7e"/>
  <path d="M394.66,525.87l-.05-2.46,19.93,12.12,19.68,7.37c-7.33-.45-14.54-2.66-20.76-6.24l-18.81-10.8Z" fill="#867261"/>
  <path d="M264.95,607.4c-.43,0-2.27-.02-2.07-.39l.89-1.6,3.07.29-1.89,1.7Z" fill="#b39a7e"/>
</svg>
