<svg xmlns="http://www.w3.org/2000/svg" viewBox="0 0 1024 1024">
  <path d="M220.39,762.96c2.89,3.45,6.69,6.23,5.62,9.98-57.99-64.16-92.21-144.41-98.7-229.6-.5-6.56-1.14-11.94.68-18.83l1.73,15.97c6.11,83.52,36.83,158.25,90.68,222.47Z" fill="#806752"/>
  <path d="M790.08,815.52c-52.96,49.56-119.23,85.53-190.84,100.37-3.56.74-7.28,2.7-10.64-.24,74.66-14.16,142.71-49.75,197.81-100.57l.07,2.16,3.59-1.71Z" fill="#866e59"/>
  <path d="M520.57,188.48c9.83.91,19.11,9.2,24.21,18.14l2.14,10.88c1.26,5.54.16,11.82-.55,17.15l.29,1.26-6.77,9.24c-2.74-.58-5.39-2.32-6.6-4.36,5.45-9.01,6.91-19.06,2.88-29.61-3.21-8.4-10.14-15.93-19.84-19.17l4.24-3.53Z" fill="#cda373"/>
  <path d="M406.4,291.87c-3,1.76-4.8,5.64-6.53,8.83l.48-5.18c-2.79,2.43-3.5,6.11-2.09,9.88l7.1-7.74-1.83,5.45c-.31.93,1.5,2.69,2.41,3.2l5.77,3.24c-4.08.29-6.89-1.47-10.37-4.26l-4.29,7.99c-1.85,3.45-2.44,8.53.3,11.43,4,4.24,8.56,5.96,14.3,6.46-4.81,4.25-13.25-.81-17.97-7.49l-1.88-1.22-3.29-10.27c-5.59,3.12-8.55,7.97-7.95,14.78.37,4.15,3.89,10.03,8.75,11.17l2.2-1.39c.77,2.06,3.8,3.3,5.94,2.86l-3.81-5.59.7-.97c4.34,6.26,9.62,7.21,17.69,5.9-3.82,2.02-7.36,2.34-12.09,3.43,3.48,3.1,7.35,4.52,11.11,3.33,3.02-.95,5.54-3.49,8.4-6.09l-.71,5.1,7.56-5.4c-1.12,5.39-6.79,9.21-12.33,7.37-5.64,3.89-11.89,1.22-15.85-3.43l-12.52-4.83c-4.91-1.9-7.04-8.76-7.08-13.16-.1-11.55,10.08-14.75,9.1-17.09l-1.32-3.14c-1.81-4.32-1.55-7.76.15-11.69l1.59,1.41c-.72,2.74-.43,7.1-.37,10.76.98.58,1.61.99,1.95.68l2.79-2.57-.78,8.11,4.82-3.56c1.12-.83-1.13-4.65-1.46-6.13-.86-3.85,3.88-7.81,6.43-10.32l3.07-3.01,1.91,3.13Z" fill="#866e59"/>
  <path d="M588.27,892.46c58.99-14.92,114.31-38.01,162.04-78.27l8.92-7.15,8.63-7.65c.29-.25,2.8.01,2.62.35-.27.51-1.01,1.77-1.72,2.4-50.17,44.12-112,79.72-180.49,90.32Z" fill="#89705c"/>
  <path d="M200.05,566.57l-.85,3.27,3.63,3.23c-.23.61-1.52,1.53-2.24,1.35l-7.77-13.12c-6.44,1.15-11.06-.61-13.97-5.92l-4.43-8.08,12.48,2.97,8.15,7.54-2.84-19.85c-.91-6.36-11.91-5.94-9.01-12.97l6.81,4.58c-.25-10.81-12.15-11.51-14.03-23.95,7.16,1.87,10.88,8.38,13.2,13.75,1.44-.78,3.69-1.94,3.22-1.64-.97,6.92-.44,13.14,1.52,17.84l4.14-6.21c.81.74,1.87,1.72,1.63,2.39l-.98,2.71c-4.83,8.76-3.02,23.07,1.34,32.11Z" fill="#71553d"/>
  <path d="M271.73,425.39l-.25,2.3c-4.1-2.98-9.54-4.9-14.62-4.07.5,3.62.17,5.79-1.05,9.37l1.05,10.53,33.23,92.04-1.58,1.29-31.5-86.46c-.3-.83-1.81-2.8-2.38-2.88,1.7-3.3,1.37-7.8-1.93-10.12.53-2.13-1.02-6.3-1.02-8.5,0-1.86.95-3.79-.64-5.48-.96-1.02-2.82-4.34-2.1-5.55,3.75-6.39,12.71-16.17,17.07-16.32,1.43-.05,4.17,1.9,4.53,2.76-3.29-.38-6.62-.73-7.98.84l-11.82,13.61c.61,1,2.26,2.89,3.16,2.73.74-.13,2.09-.97,2.93-.89,4.48.43,11.17,2.56,14.89,4.8Z" fill="#a1856d"/>
  <path d="M252.85,594.37l-.18,6.68c0,.53-2.29,1.46-2.23,1.35l-.21,1-4.61,3.61,2.29,2.33-15.11-.18-14.05-1.03-10.74-1.13-8.31.34c-2.31-1.65-3.53-3.14-7.18-2.96l7.7,8.73-1.62.47-5.88-5.92c-3.7-3.72-3.4-9.58.18-12.22l.35,2.07c.12.5,1.54.66,2,.42l2.23-1.16c.88.72,2.54,1.32,3.57,1.16l9.02-1.33,8.78-.95,28.95-.38,5.06-.91ZM241.5,605.22c2.58.09,5.31-.29,5.3-1.33-.04-3.58-2.34-4.84-1.63-5.57l1.61-1.65-19.93.14c-.77,0-2.74,2.63-2.9,3.02.67.2,2.67.61,2.71,1.46l.26,5.19,7.71-.31,4.27,1.36c.9.29,1.78-1.61,2.6-2.31ZM223.19,605.38l-2.2-3.43c-.29-.46.27-1.62.89-3.56l-15.05.71c-4.39.21-7.78.58-11.74,3.3l13.75,2.24,14.35.75ZM249.54,601.44l-.46.75.46-.75Z" fill="#a1856d"/>
  <path d="M291.25,830.42l1.99-1.69c43.19,31.65,90.85,49.93,143.14,63.73-52.58-7.79-101.99-32.37-145.13-62.04Z" fill="#7f6959"/>
  <path d="M873.08,645.78c-17.29,46.28-41.41,91.76-77.22,126.9,31.79-39.17,57.86-79.3,74.43-126.64l2.79-.26Z" fill="#8f715a"/>
  <path d="M769.09,424.38c.84,3.47,1.23,6.96.81,10.85-.48,4.56,1.16,8.57,2.83,12.98l33.72,89.04,5.11,14.17-1.52,1.4-5.09-13.25-34.8-92.12-1.08,3.07-1.79,1.05-.87-3.47-3.37,9.38-2.21-.09,5.5-15.9c1.08-3.13.44-6.59-1.09-8.94l2.77-.05-.36-5.86-.12-1.57c-.03-.43,1.04-.7,1.56-.69Z" fill="#a38971"/>
  <path d="M805.11,684.78l-4.98,5.37c-.38.41-1.48.91-2.01,1.13-10.51,4.39-21.75,8-33.91,8.38,5.85,2.34,11.67,6.11,14.58,11.86,2.69,5.31.98,10.32-2.73,13.63l-1,.89-10.41,2.44c-.49.11-2.11-.45-2.52-.71s-1.22-1.76-.77-1.93l2.88-1.08c4.14,1.17,10.9.33,12.59-4.63,1.39-4.08.16-8.38-4.21-9.16-5.5-13.65-26.89-10.65-38.35-4.53l-1.98-1.02c7.71-4.35,16.37-6.35,25.67-7.48l4.35-2.32c2.25-.54,4.91-1.71,6.84-3.2l3.14-2.13-6.28,7.25,14.91-2.65c8.66-1.54,16.32-6.23,22.99-11.47l1.21,1.36Z" fill="#866e59"/>
  <path d="M768.22,397.88l-.92-1.72-15.79-3.13c-4.93-.98-10.52,1.4-15.37,3.4-3.76,1.55-9.19,2.3-12.37,4.65-4.34,3.19-7.44,7.93-10.96,12.16-5.82,6.99-12.83,13.89-15.93,22.78l-15.86,45.48-1.95-1.25,15.44-44.64c1.07-3.09,3.37-7.91,5.34-10.32l14.97-18.32,8.23-8.66,22.47-7.33c4.73-1.54,22.77,1.93,25.83,4.03.45.31-.55,1.94-1.06,2.12l-2.06.75Z" fill="#b39a7e"/>
  <path d="M623.8,833.18l-.64,3.02-14.34,4.18-13.31,2.58-13.1.92c-5.12.36-9.78,1.48-14.11,4.02-8.93-.05-12.89,4.78-17.23,6.21-.34.11-.84-1.13-.64-1.43,2.92-4.45,17.43-8.52,26-10.4,9.34-2.06,17.29-5.83,22.36-13.65,3.83-5.91,3.83-13.31-2.04-17.84-2.25-1.73-6.32-2.14-8.73-.55-1.76,1.16-3.18,4.14-4.21,6.92-1.4-3.57.95-9.15,5.47-9.9s8.58.47,11.33,3.36,3.24,7.13,2.9,11.81c-.64,8.88-7.78,14.3-15.4,18.82,12.88-.61,24.52-3.81,35.7-8.06Z" fill="#806752"/>
  <path d="M253.52,697.23l2.7,1.78c-10.12-.45-21.18-3.49-30.41-7.51-.9-.39-2.64-1.35-3.32-2.06l-12.1-12.73c-1.79-1.89-5.98-3.58-7.24-5.41l-2.26-3.3c-.32-2.57-.04-6.15,1.28-7.76-.02,3.08-.19,6.42.77,9.03.71,1.93,4.7,3.54,6.93,3.49,4.14-2.4,4.87-8.47,1.44-12.13,3.05,1,5.21,1.72,7.24,1.22,2.46-.6,4.47-2.62,4.37-5.6-.07-2.39-4.06-5.33-6.38-4.88-1.76.35-4.44,2.32-5.5,3.49,3.46.35,2.81,1.85.42,2.06l-1.48,2.33c-.27.43-2.2-1-2.03-1.06l.7-2.85.11-.98.11-1.23c2.17.06,5.68-2.1,6.5-4.09.99-2.42.33-7.47-.83-8.85l-8.46,4.4,5.48-5.53c1.39-1.41,6.19-2.52,7.16-.91,1.88,3.15.86,7.85-.23,11.37,4.32,1.7,8.29,4.56,10.06,8.49-3.41,3.09-8.3,5.26-12.29,5.75l-2.61,12.54c5.29,9.04,15.05,15.49,25.28,17.73l14.59,3.19Z" fill="#907b69"/>
  <path d="M472.47,304.66l1.9.15c-.77,5.35-2.86,10.02-6.77,14.04l-5.38,1.43,8.35,1.51c1.64-1.01,2.16-1.28,4.1-1.87l2.66,1.23c1.06-.22,2-.31,2.43.04l1.14,2.4c.31.46,1.61.82,1.74-.06.46.37.9,1.58.97,2.16l-4.11,1.4,2.09,1.56-4.01-.07-1.58-3.07-.59,2.39c-7-.6-6.72-10.16-17.79-4.8,4.19,3.14,7.51,6.31,10.37,10.61-6.68,2.03-12.6-1.74-15.5-6.95-.57-1.02-3.08-2.4-3.76-2.1l-.17-1.51c4.13-4.96,2.55-11.1,12.3-15.74.49,5.19-1.38,9.26-4.24,13.16,7.91,1.6,3.53-12.59,15.86-15.93Z" fill="#ab9279"/>
  <path d="M831.55,650.43l4.72,2.85,2,4.13c-2.47,2.98-7.18,4.92-11.08,5.35l1.53,7.42c.13.64-.55,3.03-1.15,3.08l-2.54.31c-1.39-.23-3.65-1.36-4.22-2.61l-1.28-2.77-.4-.87c.23.14,1.32-.76,1.24-1.13l-1.62-7.68,4.51-1.51c-.53-.42-1.87-1.46-1.66-1.3l3.42-2.69c1.56-1.23-7.88-9.64-2.65-12.35l3.64-2.28,2.36.33c1.51.21,2.9,7.11-2.65,13.75l5.83-2.04Z" fill="#3f2b1c"/>
  <path d="M477.33,321.16l-2.66-1.23c-1.94.58-2.46.85-4.1,1.87l-8.35-1.51,5.38-1.43,3.96-.22,2.97-.99,9.22-2.46c1.3-6.38,4.61-10.98,11.47-13.11.07,4.26-1.53,7.9-4.46,11.44,7.15,1.59,8.24-10.99,22.11-11.65-3.47,8.65-9.99,10.17-18.22,12.57l6.22,2.94c-2.66,5.28-8.35,5.72-12.76,2.46-2.23-1.66-4.84-2.2-7.56-1.48l-3.05.81c-.37.1.15,1.41-.17,2.01Z" fill="#b39a7e"/>
  <path d="M740.18,319.64l-.92-6.82-7.32,4.95,4.83-6.97-13.77-1.5c-.33-.07-2.04-1.1-1.71-1.14l1.92-.21,13.55-1.52-3.05-5.83,5.55,2.96,1.01-6.78,1.45-9.32,1.31,9.39.6,7.32c3.52-2.7,4.94-3.9,8.09-5.39l-5.86,7.45,16.47,2.43-16.71,2.29,5.71,7.19-7.63-5.97-1.96,16.65-1.56-9.2Z" fill="#cda373"/>
  <path d="M767.29,396.16l.92,1.72c-6.23,2.26-17.82-1.06-23.44,2.2l-12.62,7.33-4.32,10.64c6.24,2.5,12.77,1.65,17.4-3.68,1.05-1.21,3.16-2.34,5.18-2.84l-5.75,5.75,14.5-3.27c-2.37-1.51-3.8-1.76-5.51-1.84l-.15-2.52c-.04-.65-2.75-1.2-3.51-1.14l-14.88,1.06c1.51-1.67,3.56-1.52,5.79-2.43l13.4-5.53-.94,1.83-5.18,2.8c8.37-.18,9.4,6.39,16.05,8.98l-24.15,5.08-10.75,1-10.57,1.21,6.08-3.77,4.86-11.92c4.3-3.81,11.55-8.49,17.43-8.82l20.16-1.84Z" fill="#99806c"/>
  <path d="M253.33,395.52c6.23,3.91,14.49.88,21.25,2.56,4.67,1.16,9.81,4.1,13.85,6.87,3.64,2.49,4.48,8.19,5.41,12.48l7.26,5.03-18.52-1.99c-8.45-.91-14.63-4.33-24.39-4.34,8.59-10.46,14.58-12.2,27.59-6.97-5.33,1.46-11.79-2.89-18.07.9-.04,5.15,4.46,6.93,8.43,7.08l-3.25-4.35,1.41-.2,4.73,5.75,12.47.4c.21-7.56-3.67-13.29-10.67-16.37-5.12-2.25-10.83-4.28-15.94-3.79l-4.25.21c-3.4-.02-7.92-.48-10.95-1.78l3.66-1.49Z" fill="#907b69"/>
  <path d="M553.24,291.87l-3.59-2.56-8.48-4.53c-4.53-2.42-9.91-6.46-14.39-7.21-9.01-4.22-19.02-5.66-29.24-4.94l-9.94.7c-2.69.19-6.12,1.05-8.46,2.1-.86.39-2.17,1.33-2.89,1.89-8.41,2.18-18.08,7.2-23.56,14.37l-2.32-1.11,3.4-3.86c.68-.77.5-3.09-.02-4.06l1.78.16c.43.04,1.62,1.21,1.68.78l.38-2.85.76-1.36c.23.65.22,2.57.78,2.4l2.7-.83c12.94-8.54,28.13-11.14,43.69-10.17,13.37.47,25.47,5.32,36.68,12.34,4.2,2.63,8.79,4.1,11.04,8.74Z" fill="#b1977a"/>
  <path d="M807.26,637.32c-3.1,2.33-3.68,6.79-2.8,10.11,1.33-.72,2.24-1.26,2.75-1.35.16,3.56,2.43,7.35,7.4,7.4l-2.18-8.29c1.64.75,4.57,4.58,4.44,5.73l-2.54,6.49c-2.84-.71-6.9-7.91-11.76-5.48-1.64.82-3.77,3.7-4.22,5.56l7.07,3.84c1.01.55,3.89-1.3,5.38-2.06l-1.76,6.06c-.49,1.7,5.16-.24,5.38,2.4.07.84-1.09,2.51-1.9,2.67l-2.73.53c-.7.13.75,2.17,1.81,3.17l5.86-5.51,2.08-.39,1.28,2.77-9.05,6.63-6.65,7.18-1.21-1.36c1.72-1.35,4.14-4.89,5.58-7.03-5.67-9.28.54-10.1-6.66-13.52l-9.05-4.3c1.47-4.8,4.46-7.17,9.14-8.91l-.45-5.64c-.1-1.2.22-3.93.69-5.04s2.91-1.85,4.12-1.65Z" fill="#907b69"/>
  <path d="M227.26,513.5l-10.81,29.65-1.7,4.97-2.28,5.27-10.55,26.77,1.86.27-.23,1.12c-1.21.4-2.58,2.89-3.33,4.64l-1.11,1.99c-.35.62,1.27,1.9,1.91,2.28-1.1-.15-3.54,1.14-3.58,2.2l.03,4.12-2.23,1.16c-.46.24-1.88.08-2-.42l-.35-2.07,2.89-4.94.74-1.88,2.58-7.23c.61-1.71,2.47-5.31,1.49-6.97.73.18,2.02-.74,2.24-1.35l4.23-11.26,3.89-10.25-2.06-2.89c1.27-.6,2.88-1.9,3.58-3.44l3.46-7.62,9.52-24.89,1.81.79Z" fill="#b1977a"/>
  <path d="M438.07,275.58c.87.57,3.03,1.8,3.61,1.13l1.71-2.03,3.28,2.81,8.86,5.33-1.78-.16-2.97-1.05.66,4.02-3.09-4.32-.58,5.02c-2.69-4.9-4.58-7.37-9.67-8.28-5.55-.99-11.31.62-16.3,4.74l6.33,2.31c2.98,5.92,3.88,13.04.74,18.73l-.54-11.4c-.02-.37-.81-1.92-.98-2.26-.15-.31-.42-.33-.52.02l-.66,2.37c-1.08-2.42-4.11-5.7-6.4-5.97-.62-.07-1.43,1.72-1.03,2.22l-1.79-.54-.26-2.86-.18-2.12c.27.62,3.72,0,4.13-1.11,2.08-5.55,12.26-9.96,17.42-6.6Z" fill="#89705c"/>
  <path d="M825.73,637.36l.27,1.03-3.64,2.28c-5.23,2.71,4.21,11.12,2.65,12.35l-3.42,2.69c-.22-.17,1.13.88,1.66,1.3l-4.51,1.51-4.42-1.1,2.54-6.49c.13-1.15-2.81-4.98-4.44-5.73l-5.22.89c-.51.09-1.42.63-2.75,1.35-.88-3.33-.3-7.78,2.8-10.11,3.27.54,7,3.09,8.91,6.28,3.05-2.49,6.51-5.42,9.56-6.23Z" fill="#785d4a"/>
  <path d="M827.98,554.95l1.54.39c-.1.47-.1,1.44-.12,2.92-.14.24.26-.44.88-1.55,1.46-1.5,5.05-5.98,7.43-6.44l11.81-2.29c-2.09,5.62-6.06,12-11.4,12.99s-9.52.72-11.82,7.56c-.06.77-2.34.57-2.02-.26l3.7-13.34Z" fill="#71553d"/>
  <path d="M498.25,190.36l-2.01,3.4c-11.86,6.44-18.98,19.4-17.66,33.31,1.23,12.87,10.49,24.32,23.08,28.91l-2.57.37c-4.09.59-10.67-4.98-14.97-10.11-6.39-7.62-8.4-16.45-7.68-26.65.93-13.2,10.14-24.53,21.81-29.23Z" fill="#886953"/>
  <path d="M215.71,622.78c3.37,1.63,6.98,4.61,10.27.35,9.08,3.93,19.01,5.98,28.74,7.65,2.2.38,4.45.13,6.07-1.5l7.99-1.74c-.15.19,1.03,1.13,1.45.87l1.56-.96,2-.92,3.02,3.14-3.1.84-5.23-.6-6.95.61,4.25,1.62-23.56-.23c-16.28-1.8-32.46-7.1-43.62-18.34l1.62-.47c4,4.54,10.14,7.08,15.5,9.67Z" fill="#ab9279"/>
  <path d="M289.62,755c3.64,3.31,8.78,4.15,13.74,4.61,12.06,1.11,22.34,5.42,30.56,13.44l-2.19,1.37-3.55-1.51c-1.21-.51-2.58-2.72-3.67-3.84-8.78-7.35-28.85-10.5-34.69.24l-1.97,2.97.21-1.06-1.4-3.34c2.68-2.71,5.25-4.18,9.78-6.94-2.71-.75-6.76-1.69-8.67-.97l-.53-2.89,2.38-2.08Z" fill="#866e59"/>
  <path d="M588.74,318.73c5.34,3.23,7.53,9.18,9.24,15.54,1.46,5.44,3.23,11.05,2.28,16.39-.55.03-1.37-.27-1.45-.78l-.5-3.18-1.46-3.38c.28-1.98-.52-4.79-1.14-6.75-1.17-3.68-2.16-7.25-5.26-10.19,2.1,6.71,3.59,12.18-1.29,17.54,2.75-9.1,1.27-16.68-5.53-22.55l-3.07-2.78,8.19.14Z" fill="#99806c"/>
  <path d="M826.2,590.55l.8-.07c.37,1.88,1.48,3.14,3.56,5.11l.35,3.36c.65,1.07,1.55,3.87,1.07,5.17l-5.48,4.62-3.31-2.68-5.94.62c-.9-1-3.73-1.4-5.13-1.28l16.52-3.37c-6.66-2.32-12.04-2.92-18.43-3.57l-7.03-.71,7.69-.92c.9-.1,2.59-.92,3.36-1.42,2.49,2.42,7.51,2.97,10.72.85l-.68-5.8,1.94.1Z" fill="#a1856d"/>
  <path d="M275.65,726.3v1.35c-1.73-.15-4.3,2.63-5,4.59-1.85,5.14-7.77,10.02-13.11,8.35l-8.9-2.4,2.07-1.85c5.42,1.21,4.97,4.9,12.15,1.14,3.83-2.01,6.11-7.32,5.22-10.11l-.27-1.04c.72-.43,2.08-1.51,1.61-2.12l-1.97-2.56-1.22-1.58c-.2-.26-.28-.57.04-.61s2-.19,1.96-.19l.56-.63c-.32-1.05-2.32-3.91-3.64-3.5l-6.27,1.96c-.46-1.2,2.21-3.9,4.01-4.25,1.4-.27,4.46.5,5.62,1.52,5.44,4.78,2.86,10.12,7.13,11.91ZM269.22,721l.05-1.49-.05,1.49Z" fill="#907660"/>
  <path d="M539.89,245.14l-2.57,3.47c-3.94,5.31-9.65,8.09-15.7,9.6l-2.25-4.29c4.36-3.29,10.96-8.23,13.94-13.14,1.21,2.04,3.86,3.78,6.6,4.36Z" fill="#c3996e"/>
  <path d="M195.63,650.56l2.35,1.84-3.69,4.07-4.74,1.87c3.41,3.31,4.37,4.22,5.23,6.86l-.72,1.01.77,9.24c-.79.38-3.26-1.38-3.15-2.25l1.07-8.41-11.31-6.65c3.89-7.98,10.45-6.53,11.3-9.77l2.88,2.2Z" fill="#806752"/>
  <path d="M434.62,317.69c-.07.42-.75,1.39-.96,1.77s.52,1.07.94.99l2.12-.37-3.18,4.55-1.56-1.37-3.99-.59-.2-1.12-1.28-.79c-3.42-.6-5.22-2.48-7.45-7.05,1.06-.95,4.79-1.94,6.45-1.23l-1.74,1.48c2.36,2.29,3.63,3.81,5.57,6.54,1.19.56,4.64-2.64,4.43-4.49l-1.37-8.41c1.71-3.47,4.01-7.18,7.11-10.7,2.99,5.12-.83,7.85-3.36,11.58l-1.55,9.21Z" fill="#886953"/>
  <path d="M199.1,581.38l-2.58,7.23-2.69-.25c-6.06-.63-10.2-5.11-12.92-10.93,6.63-.57,12.17,1.5,18.19,3.94Z" fill="#694c35"/>
  <path d="M785.26,785.73c1.73,3.4,3.34,7.27,2.16,10.02-1.35,3.14-4.7,5.41-7.71,5.57-3.53.2-7.85-2.19-8.46-5.98-.54-3.32.37-7.43,2.45-9.19,2.27-1.94,6.09-2.12,9.58-1.83l7.91-6.99c-.13,4.15-3.92,6.02-5.93,8.4ZM777.65,786.46c-3.87,1.28-5.25,5.18-4.01,8.75,1.05,3.02,4.59,5.06,8.31,3.35,2.5-1.15,4.84-5.17,3.6-7.94-1.42-3.14-4.52-5.28-7.9-4.16Z" fill="#907660"/>
  <path d="M302.98,404.59l-1.34,1.35-5.09-5.12-23.93-8.19-9.48,1.37-9.81,1.52-3.66,1.49c-.12-.62,1.03-2.72,1.79-2.88l10.26-2.23c5.21-1.13,11.97-1.38,16.66.22l17.9,6.12c2.18.74,5.28,4.49,6.69,6.35Z" fill="#ab9279"/>
  <path d="M293.25,828.73l-1.99,1.69-37.46-29.37,1.56-1.92c.34-.41,1.73,1.02,2.02,1.51l35.88,28.09Z" fill="#806752"/>
  <path d="M829.53,555.34l-1.54-.39.98-7.56-1.59-12.15,3.43,3.9,2.05-13.76,2.87,7c2.22-2.39,4.25-4.16,8.19-5.24-.6,6.12-9.13,4.62-11.4,14.81l-2.98,13.4Z" fill="#785d4a"/>
  <path d="M417.53,276.44l-2.83,5.29c-.13.25.15,1.6.48,1.59l1.34-.03.18,2.12c-2.6,0-4.46,1.13-5.78,3.24l-.87-2.84c-.15-.49-1.61,1.03-2.16,1.62l-1.33-.8,2.55-2.14-.52-2.14-5.99,1.29-4.05,2.08c-4.7,1.13-9.24,4.22-10.52,9.07l-1.59-1.41c3.17-7.33,11.63-13.8,20.52-12.95,1.53.15,4.73,1.33,5.57.74,1.63-2.14,3.47-3.85,4.99-4.73Z" fill="#99806c"/>
  <path d="M441.64,271.46l4.04.95-2.58.35c-.6,0-.06,1.17.29,1.92l-1.71,2.03c-.57.68-2.74-.56-3.61-1.13l3.75-.31c-8.2-7.35-16.3-3.04-24.29,1.16,4.44-8.31,14.26-8.25,24.11-4.98Z" fill="#99806c"/>
  <path d="M526.78,277.57c4.48.75,9.86,4.79,14.39,7.21l8.48,4.53,3.59,2.56c.2.14,1.01-.16,1.25-.1l-.04,1.94-.33,1.61c-2.48-1.29-4.23-2.3-6.78-4.62-8.3-7.56-29.41-7.76-41.91-8.55l23.82-.19,5.5.26-11.59-4.42,3.62-.25Z" fill="#99806c"/>
  <path d="M345.14,797.89l-.59,4.77,2.27.43-11.05,7.54c-2.4,1.64-8.85.24-11.72.17l-6.11,1.09,4.2-7.5c1.46-2.61,5.05-7.21,8.29-7.07l9.65.4c-7.22.33-14.22,1.79-16.31,8.47-.23.73-.28,3.04.38,3l2.5-.13c6.1,1.16,11.45-.92,15.48-5.61-.15-2.21,1.15-4.64,3-5.57Z" fill="#907b69"/>
  <path d="M576.54,315.32l.35,2.2c-.91-.35-2.74-.6-3.65-.37s-.27,2.83-.05,3.75l2.61,10.86-2.34-.03-2.88-13.42-10,4.02-2.5-.69.05-1.16c.4-.08.67-.09.77-.2.29.23,2.21-.26,2.83-.57l7.93-3.94c-.17-1.66-4.52-2.85-5.53-1.66l-3.8,4.48-2.02.12c.67-3.49,3.62-7.63,7.9-7.37l2.51.15c.51.03.8-1.45.82-1.75l1-.08,2.58,5.3c.36.74,2.85.59,3.44.35Z" fill="#a38971"/>
  <path d="M772.28,690.29l-3.14,2.13c-1.94,1.49-4.59,2.66-6.84,3.2l4.29-10.2c.93-2.16,5.25-5.03,7.44-6.48,2.15,3.86.53,8.72-1.75,11.35Z" fill="#694c35"/>
  <path d="M743.15,727.1l.13,1.06c-15.48,1.52-28.53,9.35-42.8,18.37,8-11.1,28.52-19.58,42.67-19.44Z" fill="#7f6959"/>
  <path d="M834,578.18l2.42,7.14c-1.74,2.86-5.98,4.86-9.43,5.17l-.8.07-2.49-8,10.29-4.37Z" fill="#503a28"/>
  <path d="M257.85,724.18c-.64.44-1.94,1.48-1.56,2.1l2.04,2.72c-3.51-1.12-6.2-.3-9.71,2.07.96-4.52,7.27-2.83,3.81-5.75-3.34-.49-6.69,1.49-6.82,6.16.64,1.84,2.46,4.27,5.1,4.86l-2.07,1.85-4.42,3.33c-4.4-5.95-1.32-13.24,2.94-16.96l2.8-2.55c1.26,1.64,5.82,2.14,7.88,2.17Z" fill="#89705c"/>
  <path d="M729.89,757.45l-.65,2.7-3.29.67,6.23,3.58c6.15,3.54,8.86,10.62,6.31,16.88-.16-2.79-.54-5.75-1.7-7.26-.92-3.16-2.57-5.18-5.63-7.84-4.83-3.15-11.41-4.68-16.95-3.67l-3.03-1.58,12.78-2.3,5.92-1.18Z" fill="#7f6959"/>
  <path d="M585.46,316.74c-.42.47-1.55,1.36-1.76.81l-.83-2.17-3.54-3.62-8.13-6.23-1.83,1.25-3.21-2.43c-.75-.57-.2-2.57.2-3.59,9.27.56,16.73,6.81,19.11,16Z" fill="#a38971"/>
  <path d="M275.66,727.65v-1.35c17.38,1.65,34.73,6.82,47.26,19.97l-14.92-8.41c-10.09-5.69-21.07-9.2-32.35-10.2Z" fill="#806752"/>
  <path d="M753.47,758.55c.23.12-1.58,2.75-2.41,2.84l-10.81,1.06-6.89-2.13c-.65-.27,1.34-2.55,2.07-2.48l9.53.93-1.85-4.86c4.34.57,7.74,2.07,10.37,4.65Z" fill="#503a28"/>
  <path d="M267.93,698.93c-.3.26-1.49.24-1.63.56l-.59,1.67c-2.86-.02-6.21.98-8.82,2.44l-1.73-1.04c-2.87-.74-11.35,9.25-10.78,18.94-4.96-6.65,1.79-16.37,11.02-20.27l2.01-.85c.38-.16-.18-1-.52-1.21l-.67-.18-2.7-1.78,3.09-.11-5.28-6.63,5.16-.54-.68-4.9c4.33,4.4,1.31,13.12,12.12,13.89Z" fill="#886953"/>
  <path d="M279.01,751.92l-2.34,4.23,10.56.94.53,2.89-6.9,2.61c-4.15,1.57-11.31,1.17-11.87-1.84l7.69,1.59c.59.12,2.89-.09,2.76-.66l-.61-2.5-6.57-1.76c-1.08-.29-2.38-.72-2.74-.08-.67,1.16-1.79,3.1-1.19,3.48-2.36.19-6.04-.62-8.85-1.6,8.57-1.58,12.03-5.68,19.51-7.26Z" fill="#785d4a"/>
  <path d="M844.62,519.49c-.92,1.3-2.11,3.56-3.07,4.18l-5.68,3.65c1.55-8.79,7.79-16.72,16.98-19.45l-8.23,11.62Z" fill="#785d4a"/>
  <path d="M647.04,838.24l-1.73,1.13-7.75-.19c-.28-.24-.5-.41-.49-.41l.25-3.57-.41-2.07c-.15-.47-1.68.73-1.63.97-.63,0-2.09.05-2.75.26l.37-1.31c.16-.32.9-.58,1.42-.82l2.23-1.15.98-.04,8.56,1.06c.72.09,2.71,2.1,2.42,2.77l-1.47,3.37Z" fill="#503a28"/>
  <path d="M711.18,760.93l3.03,1.58c-5.89,1.07-11.18,2.73-17.3,6.26l10.37.65c1.34.08,3.65,3.17,2.71,3.46-5.04,2.32-8.62,1.61-11.38-1.5l-3.18-4.19c4.44-3.32,10.42-5.3,15.75-6.26Z" fill="#907b69"/>
  <path d="M250.47,671.34c-1.53-3.53-3.18-6.78-5.67-7.59-3.49-1.14-8.22-.45-10.16,2.3-4.63,6.55-2.49,13.65,1.26,20.39-6.21-4.63-7.54-13.38-4.06-19.87,3.99-7.44,13.93-6.23,16.99-2.8,1.71,1.92,2.2,5.51,1.64,7.57Z" fill="#7f6959"/>
  <path d="M822.05,559.58l2.31,11.17-2.36,7.96-6.06-16.13c1.58-1.63,4.1-2.79,6.11-2.99Z" fill="#694c35"/>
  <path d="M657.78,810.18c-6.86,7.2-14.99,13.48-23.41,18.96l-1.01-1.07,6.03-6.83,3.74-6.21,1.17,1.2c-.58.94-1.14,2.73-1.67,4.64l7.46-6.22,6.95-6.74.74,2.27Z" fill="#99806c"/>
  <path d="M441,322.42l7.56.74.17,1.51c1.47,3.18,2.66,7.1,3.14,10.91-10.22-1.28-6.35-12.19-13.53-11.06l1.21-3.03,1.45.92Z" fill="#a1856d"/>
  <path d="M831.98,604.12c-1.5,4.13-6.43,8.54-10.37,11.66-9.65,7.65-20.25,12.5-32.41,14.65l-9.94,1.76-2.93-1.98,16.96-2.36,7.13-2.27,6.97-2.95,10.18-5.94c3.47-2.03,6.27-5.36,8.93-7.95l5.48-4.62Z" fill="#b89e82"/>
  <path d="M787.48,685.71c2.65-6.17,5-11.54,1.97-17.66-1.67-3.37-4.77-5.32-8.62-4.76-3.32.48-5.25,3.13-7,7.36-1.81-3.81.43-6.7,3.59-8.76,2.76-1.8,7.39-1.82,10.69,1.08,6.26,5.5,5.88,17.14-.61,22.75Z" fill="#7f6959"/>
  <path d="M392.78,835.89c-3.94,3.28-10.05,5.41-15,3.9l.52-.82-4.07-3.87,7.49-.52c.72-.07,1.74-2.81,2.39-2.52l3.14,1.38,5.53,2.43Z" fill="#a29387"/>
  <path d="M754.27,757.11l-.8,1.44c-2.63-2.58-6.03-4.08-10.37-4.65l1.85,4.86-9.53-.93c-.73-.07-2.72,2.2-2.07,2.48l-4.12-.17.65-2.7c9.46-5.6,15.31-7.85,24.38-.33Z" fill="#71553d"/>
  <path d="M812.93,552.72c-.38,2.9,1.95,7.04,3.01,9.86l6.06,16.13,1.71,3.84,2.49,8-1.94-.1-2.19-.11,1.51-1.07c.43-.41-.04-1.94-.33-2.68l-11.85-30.31-1.35-3.45,1.52-1.4,1.36,1.29Z" fill="#c3996e"/>
  <path d="M312.21,347.78c-.52-2.46-.94-5.25-2.14-6.1s-4.23-1.14-6.38-1.48l5.64-1.63-.32-1.62c-.05-.26-.07-1.39.12-1.21l2.02,1.86,1.71-7.1c.69,2.29.76,6.21,2.32,6.91l6.45,2.88-3.34.48c-.8.12-1.32,1.02-2.21,2.17l-2,.06c-.5.01-.54,2.02-.52,2.54l.11,2.66c.01.32-.74-.03-1.46-.42Z" fill="#b39a7e"/>
  <path d="M698.45,802.07l-2.15-.17c-2.87-1.61-6.21-3.31-9.95-3.79-5.93-.77-7.87,7.21-9.18,5.96l-1.08-1.04-3.93-3.04c9.92-5.07,21-6.1,26.28,2.08Z" fill="#785d4a"/>
  <path d="M769.37,421.6l-.64,2c-.06.2.21.53.36.78-.53-.01-1.6.26-1.56.69l.12,1.57.36,5.86-2.77.05.87-6.51c.27-2.04-3.21-4.34-5.56-3.44l-8.13,3.1-6.18,3.24-1.1-1.4c4.45-2.63,9.3-7.56,15.14-6.9l9.1.97Z" fill="#9a7d62"/>
  <path d="M428.01,322.67l3.99.59,1.56,1.37.05.83c-1.81.7-3.29,2.22-4.58,4.15-1.41,2.11-6.53,2.34-9.29.62.4-3.8,4.53-7.56,8.27-7.56Z" fill="#a29387"/>
  <path d="M519.36,253.92l2.25,4.29c-7.47,1.86-15.67,2.58-22.53-1.86l2.57-.37,11.65-.51,6.05-1.55Z" fill="#a1856d"/>
  <path d="M760.12,739.37l1.16-1.3c4.33,2.32,10.93-4.2,12.8-2.43l2.82,2.68c2.56-4.43.93-8.81-1.84-12.28l1-.89c4.66,3.89,5.84,11.62,1.38,16.62-1.77-1.61-3.48-3.44-4.8-3.53-3.51-.23-7.22,5.22-12.52,1.13Z" fill="#907b69"/>
  <path d="M526.78,277.57l-3.62.25-14.47-3.16c-2.78-.61-5.75-1.1-8.17.02h-1.12s-5.77,1.13-5.77,1.13c-.26.02-.96-.31-1.17-.4l-4.74.1-.13-2.18,9.94-.7c10.23-.72,20.23.72,29.24,4.94Z" fill="#694c35"/>
  <path d="M256.89,703.6c-6.6,3.7-11.78,12.13-6.93,18.41l-2.8,2.55-2.78-3.05c-.57-9.69,7.91-19.69,10.78-18.94l1.73,1.04Z" fill="#71553d"/>
  <path d="M698.45,802.07l6.4,9.91-9.56-.76c-5.51-.44-11.96-.04-14.36-6.49,6.26,3.63,10.86,5.8,18.16,3.15l-2.8-5.98,2.15.17Z" fill="#867261"/>
  <path d="M479.14,275.43l4.09.58c.77.08-.05,2.01.48,3.13-5.53,1.97-10.98,6.06-14.95,10.7l-10.16,11.87c3.54-10.42,12.14-17.1,22.17-23.43l-4.52-.96c.72-.56,2.02-1.5,2.89-1.89Z" fill="#a38971"/>
  <path d="M450.41,843.87c-.22,1.24-.02,1.58.43,1.39.77-.32,2.02-.85,1.74-1.13,9.32,2.57,19.3,6.7,24.06,16.17-8.31-8.44-18-13.24-28.99-13.65l-.06-3.45c.9.15,2.67.59,2.82.68Z" fill="#7f6959"/>
  <path d="M822.05,559.58c-2.01.21-4.53,1.36-6.11,2.99-1.06-2.82-3.38-6.96-3.01-9.86.14-1.1,1.32-3.26,2.29-4.93,3.49,3.96,5.96,7.58,6.83,11.79Z" fill="#71553d"/>
  <path d="M441,322.42l-1.45-.92c-.91-.58-2.11-1.35-1.6-2.02.85-1.1,2.04-1.76,3.64-2.2l2.03-5.53-3.63,3.93c.24.29-.7-.88-1.02-1.27-.41-.5-1.79,0-2.37-.05,1.39-2.58,4.79-6.24,8.32-9.18,1.03,3.64,1.07,8.19-.56,11.04l-3.36,6.2Z" fill="#b1977a"/>
  <path d="M566.35,300.75c-.4,1.02-.96,3.02-.2,3.59l3.21,2.43,1.16,2.89-1,.08-6.3-5.41,1.19-1.57c.23-.32-.44-1.06-.7-1.31-.3-.61-1.53-1.95-2.42-2.41l-7.17-3.72.33-1.61,3.12-1.15c3.82.98,7.55,4.49,8.77,8.19Z" fill="#9a7d62"/>
  <path d="M202.76,654.39l-.89,3.89-7.75.47,4.63,3.27-3.96,3.18c-.86-2.65-1.82-3.55-5.23-6.86l4.74-1.87,3.69-4.07,4.77,1.99Z" fill="#907b69"/>
  <path d="M324.5,769.07c1.09,1.11,2.46,3.32,3.67,3.84l-7.71,2.1c-1.75.55-5.7-.36-7.72-1.06-.03-2.9,2.94-4.88,5.77-4.81l5.99-.06Z" fill="#a29387"/>
  <path d="M768.73,423.6l.64-2c.27-.83,1.29-2.65.73-3.32l-2.47-2.96-7.65-8.76c-1.21-1.39-4.81-2.93-6.61-3.13l.94-1.83c2.07-.85,6.17,2.36,7.71,4.06l8.22,9.13c.95,1.05,2.42,3.85,2.15,5.19s-2.19,3.13-3.67,3.63Z" fill="#a38971"/>
  <path d="M255.81,685.04l.68,4.9-5.16.54c-2.45-3.08-4.13-7.52-2.3-12.34l6.78,6.89Z" fill="#71553d"/>
  <path d="M207.06,561.81l-5.57-2.38c.87-4.28,3.26-8.81,7.4-10.76l2.06,2.89-3.89,10.25Z" fill="#694c35"/>
  <path d="M246.43,800.53l.97-1.97,2.39-6.3c.23-3.06-3-5.83-5.59-6.11s-5.24,1.11-7.38,3.03l-1.22-.22,2.44-4.38c.49-.87,3.64-.42,4.8-.45,4.66-.16,7.97,2.34,8.79,6.84.73,3.98-.72,7.63-5.2,9.58Z" fill="#907b69"/>
  <path d="M558.4,302.5v2.31c-4.85.47-9.37,4.07-13.17,7.59l-10.37,9.61c6.11-8.45,13.65-18.31,23.54-19.5Z" fill="#907b69"/>
  <path d="M533.63,322.83l1.23-.82-1.23.82Z" fill="#907b69"/>
  <path d="M387.85,830.01c1.6,1.32,3.83,2.45,5.7,3.28l.05,2.82c-.23,0-.53-.12-.82-.22l-5.53-2.43-3.14-1.38c-.65-.29-1.67,2.45-2.39,2.52l-7.49.52,5.35-3.6-1.88-1.24c2.37-.99,7.46-.38,10.15-.26Z" fill="#99806c"/>
  <path d="M755.5,722.45c-.9,1.83-1.02,5.63-1.07,7.94l-3.71-1.06c-1.98-.57-5.31-1.38-7.45-1.17l-.13-1.06,5.19-2c1.22-.47,1.63-3.58,2.19-4.82l4.97,2.17Z" fill="#886953"/>
  <path d="M378.65,786.29c-6.54,4.67-4.37,20.03.28,28.74l-1.5.26c-5.26-8.49-6.58-20.15-2.65-29.17l3.5-1.61.36,1.78Z" fill="#806752"/>
  <path d="M755.5,722.45l-4.97-2.17c1.19-2.64,4.35-6.24,6.74-8.69l4.81,1.01c-2.51,2.92-4.72,6.08-6.57,9.86Z" fill="#71553d"/>
  <path d="M425.53,312.49l5.8,2.49c.22-2.97.32-5.78,1.1-7.37l1.37,8.41c.21,1.85-3.24,5.05-4.43,4.49-1.94-2.73-3.21-4.25-5.57-6.54l1.74-1.48Z" fill="#a38971"/>
  <path d="M439.54,321.5l-1.21,3.03c.63,2.27,1.34,5.38.91,8.05-.31,1.95-4.93,3.94-6.52,4.04l2.15-6.73.77-2.47c.17-.53-1.79-.96-1.98-.95l-.06-1.01-.05-.83,3.18-4.55-2.12.37c-.42.07-1.14-.62-.94-.99s.89-1.35.96-1.77l1.72-.69c.45-.3,0-2.16.26-2.64.58.05,1.96-.45,2.37.05.31.38,1.25,1.56,1.02,1.27l3.63-3.93-2.03,5.53c-1.6.44-2.79,1.1-3.64,2.2-.52.67.69,1.44,1.6,2.02ZM437.71,325.7c0-.64-.52-1.15-1.15-1.15s-1.15.52-1.15,1.15.52,1.15,1.15,1.15,1.15-.52,1.15-1.15Z" fill="#a38971"/>
  <path d="M393.68,323.7l.67,9.37-.7.97-2.56-4.22c-.4,3.06-.37,4.82.42,6.95l-2.2,1.39c-1.45-5.39-1.34-11.38,2.49-15.68l1.88,1.22Z" fill="#9a7d62"/>
  <path d="M367.5,809.06l-2.11-8.18c.2-1.79.84-4.5,1.57-5.75,2.79,1.72,4.23,4.21,4.26,6.6.03,2.21-1.65,4.8-3.73,7.33Z" fill="#694c35"/>
  <path d="M431.58,343.39l-.7,8.8-5.69.26.18-.69.21-1.12,1.07-1.08c3.61-4.18.21-10.95,3.94-18.9h.99s-2.64,12.65-2.64,12.65l2.64.07Z" fill="#785d4a"/>
  <path d="M288.79,787.51l-.68-3.87,4.94,2.26c.87.45,3.51.09,4.25-.53s-.29-2.36-1.33-3.65c-.32,0,1.92-2.2,2.29-1.6l1.98,3.23c1.04,1.7-2.52,5.14-4.46,5.71-2.23.65-5.64-.24-6.99-1.56Z" fill="#806752"/>
  <path d="M534.56,296.36l-17.88,10.33c5.72-6.32,17.46-14.54,26.99-13.73l-9.11,3.4Z" fill="#867261"/>
  <path d="M649.19,790.21c1.63,9.17.05,18.09-4.88,26.01l-1.17-1.2c3.17-5.27,5.98-12.98,4.98-19.54l-.82-5.36,1.89.09Z" fill="#7f6959"/>
  <path d="M374.22,835.1l4.07,3.87-.52.82-10.51-3.21c-.31-.1-1.98-.9-1.64-.94l2.11-.23,9.96-5.13,1.88,1.24-5.35,3.6Z" fill="#886953"/>
  <path d="M836.42,585.31l-2.42-7.14c2.12-.88,4.82-.79,8.56-.56-1.63,3.53-3.47,5.92-6.14,7.69Z" fill="#71553d"/>
  <path d="M474.37,304.81l-1.9-.15,5.62-4.45c7.34-5.76,15.71-11.69,25.68-11.28-7.39,3.4-15.47,5.14-21.95,10.13l-7.46,5.75Z" fill="#867261"/>
  <path d="M269.01,760.73l-.65.05c-.61-.37.52-2.32,1.19-3.48.37-.64,1.66-.21,2.74.08l6.57,1.76.61,2.5c.14.57-2.16.78-2.76.66l-7.69-1.59Z" fill="#503a28"/>
  <path d="M634.37,829.13c0,.17-.04,1.26.28,1.36l1.9.59-2.23,1.15c-.52.24-1.26.5-1.42.82l-.37,1.31-5.18,1.65-4.2.19.64-3.02c.04-.32.38-.83.66-.98,1.71.48,4.7-.61,6.03-1.72l2.88-2.42,1.01,1.07Z" fill="#71553d"/>
  <path d="M732.23,785.13l1.25,2.45c-1.29.62-3.39,1.7-4.68,1.67-3.24-.08-7.7-4.89-5.81-8,.61-.99,3.43-1.03,4.67-.72l-2.64,4.3c1.69,1.05,5.73,1.65,7.21.3Z" fill="#886953"/>
  <path d="M432.72,336.63l-1.12,5-.03,1.77-2.64-.07,2.64-12.64c.25-1.22,1.25-3.2,2.09-4.21.19,0,2.14.42,1.98.95l-.77,2.47-2.15,6.73Z" fill="#694c35"/>
  <path d="M825.03,673.58l2.54-.31c.6-.05,1.29-2.44,1.15-3.08l-1.53-7.42c3.89-.43,8.61-2.38,11.08-5.35l-2-4.13,2.88,1.56c.77.42,1.09,3.55.38,3.99l-9.1,5.67-.47,8.56c-.05.97-2.23,2.91-2.9,2.31l-2.02-1.8Z" fill="#907660"/>
  <path d="M798.12,691.28c.54-.22,1.63-.72,2.01-1.13l14.95,1.73c-5.91,4.59-11.89,1.68-16.97-.6Z" fill="#a29387"/>
  <path d="M654.42,804.75l-1.14,2.17c-.3.57-2.05-.54-3.1-1.25l2.68-8.56c.17-.54,3.02-1.5,3.06-.94l.19,2.6c-.09,1.98-.79,4.26-1.7,5.98Z" fill="#71553d"/>
  <path d="M416.7,285.41l.26,2.86c-3.35.86-7.51,1.82-10.56,3.61l-1.91-3.13,2.07-2.12,1.33.8c.55-.59,2.02-2.1,2.16-1.62l.87,2.84c1.32-2.11,3.18-3.25,5.78-3.24Z" fill="#a29387"/>
  <path d="M738.48,781.27c-.77,2.92-2.46,5.08-5,6.31l-1.25-2.45c3.11-2.85,4.22-6.98,4.55-11.12,1.16,1.51,1.54,4.47,1.7,7.26Z" fill="#71553d"/>
  <path d="M754.43,730.4c1.75,2.77,3.81,6.04,6.85,7.67l-1.16,1.3c-4.52-1.08-8.18-5.32-9.4-10.03l3.71,1.06Z" fill="#785d4a"/>
  <path d="M698.61,771.39c.26.63-1.67,1.67-2.36,1.78l-5.87,1.13s-.77-.96-.74-1.01c.06-.1.68-.76,1.51-1.68.22.11-.57-.29-.93-.51l5.21-3.89,3.18,4.19Z" fill="#785d4a"/>
  <path d="M740.25,762.45l10.81-1.06c.84-.09,2.65-2.72,2.41-2.84l.8-1.44,6.74,2.05c-7.43,3.37-13.96,5.39-20.76,3.28Z" fill="#89705c"/>
  <path d="M831.55,650.43l-5.83,2.04c5.54-6.64,4.15-13.54,2.65-13.75l-2.36-.33-.27-1.03,4.21-1.11c2.91,7.28-.71,11.21,1.6,14.18Z" fill="#866e59"/>
  <path d="M195.63,650.56l-2.88-2.2c-1.3-3.77-.88-7.96,1.16-12.02,3.24.16,6.2,1.34,8.04,4.04l-6.71-2.08c-1.86,3.68-1.59,8.37.39,12.26Z" fill="#99806c"/>
  <path d="M458.36,279.39l-.76,1.36c-2.85-4.51-7.08-7.21-11.91-8.35l-4.04-.95c6.17-3.1,14.81,2.65,16.71,7.94Z" fill="#866e59"/>
  <path d="M200.91,668l2.26,3.3-8.33,4.15-.77-9.24c.17,2.11.99,4.58,3.11,4.4,1.96-.16,3.73-1.05,3.73-2.61Z" fill="#a29387"/>
  <path d="M254.63,447.51l.13,1.08-1.93-1.14-2.14-1.95,2.01-8.12c3.3,2.32,3.64,6.82,1.93,10.12Z" fill="#886953"/>
  <path d="M225.82,691.49c-17.61,6.5-18.83-.57-15.48-.08l2.98.43c3.89.56,7.57.5,9.18-2.4.67.71,2.42,1.67,3.32,2.06Z" fill="#a29387"/>
  <path d="M546.36,234.65c.71-5.34,1.81-11.61.55-17.15l-2.14-10.88c4.63,8.12,4.95,19.55,1.59,28.03Z" fill="#e4b885"/>
  <path d="M452.69,291.69l-10.14,13.26c.75-5.71,4.48-10.57,7.82-14.37l2.32,1.11Z" fill="#99806c"/>
  <path d="M487.6,273.33l.13,2.18,4.74-.1-8.76,3.73c-.53-1.11.29-3.05-.48-3.13l-4.09-.58c2.34-1.05,5.77-1.91,8.46-2.1Z" fill="#907660"/>
  <path d="M582.86,315.38l.83,2.17c.21.56,1.34-.34,1.76-.81l3.28,1.99-8.19-.14c-1.06-.14-2.72-.7-3.67-1.07l-.35-2.2,6.32.06Z" fill="#785d4a"/>
  <path d="M289.62,755l-2.38,2.08-10.56-.94,2.34-4.23c1.64-.35,4.54,1.71,5.65,3.15l4.96-.06Z" fill="#907b69"/>
  <path d="M267.81,726.33l.27,1.04-9.75,1.63-2.04-2.72c-.37-.61.93-1.65,1.56-2.1,1.36.02,3.52,1.06,5.51,1.48l4.45.67Z" fill="#b1977a"/>
  <path d="M288.06,771.22l-2.32.53c-1.1,3.58-1.18,8.87-.2,12.61-4.63-4.49-3.19-12.12,1.12-16.49l1.4,3.34Z" fill="#71553d"/>
  <path d="M288.06,771.22l-.21,1.06-.19.95-.91,2.01c-.08.26-.08.67-.07.97l-.98,2.41c-.12.5.78,1.2.98,1.67l1.43,3.35.68,3.87-3.25-3.15c-.98-3.74-.9-9.03.2-12.61l2.32-.53Z" fill="#503a28"/>
  <path d="M635.28,834.1l2.04,1.11-.25,3.57c-1.42-.19-3.49-.63-4.92-1.15l-4.8-1.61,5.18-1.65c.65-.21,2.12-.25,2.75-.26Z" fill="#867261"/>
  <path d="M400.25,325.3c-3.28-4.22-4.11-11.09,1.43-14.83-1.73,5.12-2.51,8.28-1.43,14.83Z" fill="#7f6959"/>
  <path d="M647.04,838.24l1.47-3.37c.28-.67-1.7-2.68-2.42-2.77l-8.56-1.06,1.6-1.74c.57-.5,3.16-.07,3.9.31l11.12,5.74c-3.5,1.94-5.03,2.54-7.1,2.89Z" fill="#785d4a"/>
  <path d="M563.72,301.46c.26.25.93.99.7,1.31l-1.19,1.57-4.84.47v-2.31s5.33-1.05,5.33-1.05Z" fill="#a38971"/>
  <path d="M433.6,325.46l.06,1.01c-.85,1.01-1.84,2.99-2.09,4.21h-.99s-1.56-1.07-1.56-1.07c1.29-1.93,2.77-3.45,4.58-4.15Z" fill="#886953"/>
  <path d="M445.6,842.85c-.26.81-1.44,1.28-2.04,1.29l-3.06.04.09-2.06,5.01.73Z" fill="#7f6959"/>
  <path d="M630.49,830.48c-1.32,1.11-4.32,2.2-6.03,1.72l5.37-2.86s.54.66.66,1.14Z" fill="#806752"/>
  <path d="M508.7,274.65l-8.17.02c2.42-1.11,5.39-.63,8.17-.02Z" fill="#907660"/>
  <path d="M645.32,839.37c-1.93,1.26-6.09,1.18-7.75-.19l7.75.19Z" fill="#867261"/>
  <path d="M447.6,843.19l.06,3.45-4.1-2.5c.6,0,1.78-.47,2.04-1.29l2,.34Z" fill="#907660"/>
  <path d="M499.41,274.67l-5.77,1.13,5.77-1.13Z" fill="#907660"/>
  <path d="M482.64,323.55c-.13.89-1.43.52-1.74.06l-1.14-2.4,2.88,2.34Z" fill="#b39a7e"/>
  <path d="M537.31,248.61l2.57-3.47,6.77-9.24c-1.73,4.88-5.01,9.67-9.34,12.7Z" fill="#e4b885"/>
  <path d="M477.57,328.6c-.57,0-1.62-.48-2.17-.68l.59-2.39,1.58,3.07Z" fill="#b39a7e"/>
  <path d="M286.68,780.29c-.2-.47-1.11-1.17-.98-1.67l.98-2.41v4.08Z" fill="#71553d"/>
  <path d="M518.94,438.76l.52-4.26c.05,1.15-.29,3.22-.52,4.26Z" fill="#89705c"/>
  <path d="M297.37,671.29l-.9-3.79.9,3.79Z" fill="#694c35"/>
  <path d="M264.86,398.58c-.62.41-1.82,1.26-2.43.99l-1.82-.79,4.25-.21Z" fill="#ab9279"/>
  <path d="M474.52,317.65l-2.97.99,2.97-.99Z" fill="#ab9279"/>
  <path d="M452.59,844.12c.27.28-.97.8-1.74,1.13-.45.19-.66-.15-.43-1.39l2.18.26Z" fill="#907660"/>
  <path d="M628.41,605.44c0-.85.4-2.65.91-3l-.91,3Z" fill="#867261"/>
  <path d="M698.22,738.31l1.11-3.02-1.11,3.02Z" fill="#785d4a"/>
  <path d="M286.75,775.24l.91-2.01-.91,2.01Z" fill="#71553d"/>
  <path d="M394.61,368.66l-1.99.92,1.99-.92Z" fill="#867261"/>
  <path d="M418.76,288.81c-.4-.49.4-2.29,1.03-2.22l-1.03,2.22Z" fill="#a29387"/>
  <path d="M729.34,674.35l.89-2.02-.89,2.02Z" fill="#806752"/>
  <path d="M727.16,677.4l2.13-1.99-2.13,1.99Z" fill="#806752"/>
  <path d="M452.62,582.52l-1-.33,1,.33Z" fill="#b89e82"/>
  <path d="M255.41,701.24l1.49-2.06c.34.21.9,1.05.52,1.21l-2.01.85Z" fill="#907b69"/>
  <path d="M425.58,350.65l1.07-1.08-1.07,1.08Z" fill="#7f6959"/>
  <polygon points="425.37 351.77 424.51 351.64 425.58 350.65 425.37 351.77" fill="#907b69"/>
  <path d="M427.81,321.55l-1.28-.79,1.28.79Z" fill="#a29387"/>
  <path d="M385.85,522.15l-1.3.16c-.06.22.59-.83.55-.8-.04.03.56.48.75.64Z" fill="#a1856d"/>
  <path d="M769.21,593.42l-.13,1.02c-.53,4.27,4.9,3.11,6.38,8.74-.43.3-1.44.85-1.18.89l2,.3c.29.02.74.01.94.11l4.57,2.29c.81.41,3.06.62,3.63.59l-5.12,1.01-5.13.68-2.14,1.03,3.46,5.12-5.55-2.83-3.05,5-1.97-5.8c-1.96,1.45-4.01,2.74-4.62,2.8l1.65-3.66c.19-.42-.12-.85-.49-1.29l-3.03-3.63c6.79-1.48,8.41-6.8,7.71-11.58l.15-.84,1.93.05Z" fill="#e4b885"/>
  <path d="M241.5,605.22c-.82.69-1.69,2.6-2.6,2.31l-4.27-1.36-7.71.31-.26-5.19c-.04-.84-2.04-1.26-2.71-1.46.16-.38,2.13-3.01,2.9-3.02l19.93-.14-1.61,1.65c-.71.73,1.59,2,1.63,5.57.01,1.03-2.72,1.42-5.3,1.33Z" fill="#503a28"/>
  <path d="M218.84,595.67l-8.78.95-9.04-6.15c-.64-.38-2.26-1.66-1.91-2.28l1.11-1.99,5.63,4.13c.55.44,1.64,1.43,2.29,1.17l1.72-1.13,2.79,5.21c1.94-5.34-3.49-12.49,5.63-20.08,2.83,6.49,3.23,13.37.56,20.18Z" fill="#694c35"/>
  <path d="M199.69,607.35l11.77,8.37,4.77,3.3-.52,3.76c-5.36-2.59-11.5-5.14-15.5-9.67l-7.7-8.73c3.65-.18,4.87,1.32,7.18,2.96Z" fill="#503a28"/>
  <path d="M819.13,667.33l1.24-1.13c.08.37-1.01,1.28-1.24,1.13Z" fill="#907b69"/>
  <path d="M486.48,797.25l-1.09-1.91,1.09,1.91Z" fill="#ba8f64"/>
  <path d="M487.61,800.26l-1.07-2.03,1.07,2.03Z" fill="#ba8f64"/>
  <path d="M817.45,668.59l-5.86,5.51c-1.05-1.01-2.5-3.04-1.81-3.17l2.73-.53c.81-.16,1.97-1.82,1.9-2.67-.23-2.65-5.88-.71-5.38-2.4l4.75-.93,3.66,4.19Z" fill="#a29387"/>
  <path d="M204.82,578.11c-.44.57-.93,1.74-1.05,2.31l-1.86-.27,10.55-26.77c2.77,8.52-2.18,17.64-7.65,24.72Z" fill="#71553d"/>
  <path d="M209.86,590.35l-1.72,1.13c-.65.26-1.74-.72-2.29-1.17l1.8-.06-4.1-8.71.23-1.12c.12-.57.61-1.74,1.05-2.31l5.04,12.24Z" fill="#7f6959"/>
  <path d="M829.41,558.26l.88-1.55c-.63,1.11-1.02,1.79-.88,1.55Z" fill="#785d4a"/>
  <path d="M225.98,623.13c-3.29,4.26-6.9,1.28-10.27-.35l.52-3.76c3.05.64,6.6,2.74,9.75,4.11Z" fill="#867261"/>
  <path d="M260.78,629.29c-1.62,1.63-3.86,1.88-6.07,1.5l6.07-1.5Z" fill="#b39a7e"/>
  <path d="M549.47,328.77l1.5-.23c.33-.05.58.95.55,1.15l-5.93,2.17-1.29-4.38,14.47-14.46c.44,2.38-1.61,3.6-2.89,5.02l-10.02,11.15,3.61-.42Z" fill="#99806c"/>
  <path d="M822.06,590.33l-7.85,5.07c-.78.5-2.46,1.33-3.36,1.42l-8.7-1.14.98-4.19c.75.78,2.63,1.84,4.66,2.77.93-3.3,1.31-7.06,1.35-9.85l-7.1,2.78c.24-4.05,1.73-8.13,3.63-11.95,5.89,5.93,4.97,12.83,3.75,20.4,3.69-4.53,6.45-9.72,8.77-15.23l-6.87-14.24c-1.3-2.69-.86-7.51.07-9.91l11.85,30.31c.29.74.76,2.28.33,2.68l-1.51,1.07Z" fill="#71553d"/>
  <path d="M826.5,608.74c-2.66,2.59-5.46,5.92-8.93,7.95l-10.18,5.94-1.3-1.16,4.13-4.08c3.65-3.61,8.68-5.03,12.96-11.33l3.31,2.68Z" fill="#694c35"/>
  <path d="M812.11,605.4c1.4-.12,4.24.28,5.13,1.28l-13.92,1.59-6.25-1.55,2.2-.22,12.83-1.1Z" fill="#b89e82"/>
  <rect x="757.41" y="629.53" width=".71" height=".71" transform="translate(-223.45 720.31) rotate(-45)" fill="#a38971"/>
  <path d="M637.32,835.2l-2.04-1.11c-.05-.23,1.48-1.43,1.63-.97l.41,2.07Z" fill="#71553d"/>
  <path d="M550.47,327.79l1.19-.96-1.19.96Z" fill="#99806c"/>
  <rect x="393.76" y="460.7" width=".71" height=".71" transform="translate(-210.58 413.72) rotate(-45)" fill="#a29387"/>
  <circle cx="436.55" cy="325.7" r="1.15" fill="#886953"/>
  <polygon points="534.98 506.52 535 507.17 535 507.84 534.98 508.49 534.96 507.84 534.96 507.17 534.98 506.52" fill="#907b69"/>
  <path d="M254.78,545.41l-1.04,1.09.03,44.95c0,.88-.09,2.77-.92,2.92l-.03-52.29c1.8,1.19,1.96,2.08,1.96,3.33Z" fill="#9a7d62"/>
  <path d="M792.58,604.05l1.44,1.96c.5.68,2.24.51,3.06.71l6.25,1.55-7.1.43c.53-.55-1.68-1.4-2.18-1.39l-8.61.04.6-3.46,6.55.15Z" fill="#867261"/>
  <path d="M796.22,608.71l-21.05.35,5.13-.68,5.12-1.01,8.61-.04c.5-.01,2.71.84,2.18,1.39Z" fill="#b89e82"/>
  <path d="M798.23,597.4l-6.21.1.57,6.55-6.55-.15-.6,3.46c-.56.02-2.82-.19-3.63-.59l-4.57-2.29-.33-7.72c8.15,4.86,11.09.86,11.08.85l1.94,2.07,1.38-3.25,6.93.98Z" fill="#71553d"/>
  <path d="M787.21,595.3l.03,1.08-10.34.37.33,7.72c-.2-.1-.65-.09-.94-.11l-.82-1.19c-1.48-5.63-6.92-4.47-6.38-8.74l18.12.86Z" fill="#a1856d"/>
  <path d="M776.29,604.37l-2-.3c-.26-.04.75-.58,1.18-.89l.82,1.19Z" fill="#71553d"/>
  <path d="M803.13,591.5c-.78-.81-1.16-3.15-1.09-4.3l7.1-2.78c-.04,2.79-.42,6.55-1.35,9.85-2.03-.93-3.91-1.99-4.66-2.77Z" fill="#503a28"/>
  <path d="M798.23,597.4l1.07.13-4.85,1.27.21,5.85,4.63,1.86-2.2.22c-.82-.2-2.56-.03-3.06-.71l-1.44-1.96-.57-6.55,6.21-.1Z" fill="#c1a88b"/>
  <path d="M787.24,596.38l4.06.04-1.38,3.25-1.94-2.07s-2.93,4.01-11.08-.85l10.34-.37Z" fill="#503a28"/>
  <path d="M777.36,789.57c.89-.47,3.33.9,3.56,1.82.27,1.1-.38,3.77-1.51,3.83s-3.1-.47-3.91-.97c-.96-.59.63-4.03,1.86-4.69Z" fill="#ab9279"/>
  <circle cx="243.91" cy="792.38" r="3.08" fill="#a1856d"/>
</svg>
