<svg xmlns="http://www.w3.org/2000/svg" viewBox="0 0 1024 1024">
  <path d="M161.93,296.03l-2.24-1.82c20.07-33.27,46.5-67.14,75.14-93.34l14.14-12.94c53.28-45.47,116.43-78.21,185.09-91.18.37.85.73,3.08.09,3.1l-2.6.1c-36.68,7.31-71.02,20.26-104.29,37.55-68.75,37.31-125.42,91.21-165.33,158.52Z" fill="currentColor"/>
  <path d="M790.08,815.52l-3.59,1.71-.07-2.16,23.4-23.36c28.84-31.23,52.88-65.89,71.2-104.45,15.17-32.64,26.3-65.92,32.5-101.07l2.1-.84c.41-.16.68,1.78.59,2.28-14.24,76.55-49.78,146.95-102.5,204.05l-23.64,23.85Z" fill="currentColor"/>
  <path d="M214.1,792.08l-.73,3.2-12.07-12.8c-48.82-55.77-83.14-123.86-95.64-197.87,7.33,12.24,6.97,25.91,11.5,38.65,15.59,57.68,54.86,127.67,96.95,168.83Z" fill="currentColor"/>
  <path d="M780.62,192.91l-1.58,1.45-10.2-8.16c-25.56-21.74-53.35-39.41-83.33-54.54-31.39-15.85-63.39-25.07-98.18-33.91,38.46,2.65,88.05,24.65,121.7,43.47,26.16,14.63,49.45,32.46,71.58,51.69Z" fill="currentColor"/>
  <path d="M260.86,213.19c-1.74,1.61-3.21,2.09-4.55.35,22.59-20.74,46.48-39.17,73.43-53.47l17.72-9.4c28.61-13.16,58.17-26.12,90.11-29.22-28.31,8.59-54.7,15.22-80.67,27.7-35.08,16.86-67.24,37.37-96.04,64.04Z" fill="currentColor"/>
  <path d="M505.38,120.8l.06,4.05-8.81.08-1.97-3.72,3.54-1.48-3.28-7.24c-2.72-10.45,6.02-20.34,16.39-20.82,7.64-.35,13.73,3.12,17.07,8.96,3.57,6.26,2.31,13.02-2.1,19.15l14.07.32c1.44.03,1.42,5.64-.03,5.65l-20.01.09c-1.49,0-1.91-4.6-.6-5.63,5.77-4.53,7.62-12.92,3.14-18.45-3.94-4.85-10.27-6.2-15.61-3.85-4.63,2.04-8,6.67-7.5,12.67.32,3.86,3.03,8.45,5.65,10.22Z" fill="currentColor"/>
  <path d="M767.58,214.96c-27.08-20.18-51.25-42.04-81.9-56.36-30.57-18.16-63.5-26.92-98.37-37.02,29.88,2.11,56.89,14.99,84.14,26.17,34.3,18.04,68.74,37.66,96.13,67.21Z" fill="currentColor"/>
  <path d="M880.41,325.46l-1.62,2.61c-23.67-48.56-55.42-92.43-95.45-129.22l-4.3-4.5,1.58-1.45,6.22,5.41,21.34,21.4,10.59,11.63c25.51,27.99,45.55,60.28,61.64,94.13Z" fill="currentColor"/>
  <path d="M161.93,296.03c-25.33,42.73-42.89,88.77-52.93,137.41-.13.65-2.03,2.49-2.17,1.85l-.52-2.42c7.8-39.92,21.08-77.76,39.83-113.77,4.34-8.87,8.54-16.57,13.55-24.89l2.24,1.82Z" fill="currentColor"/>
  <path d="M861.81,352.18l2.75-.46c16.64,39.83,26.7,81.14,30.06,124.14.45,5.72,1.25,10.39-.51,16.63-1.8-6.84-1.93-12.27-2.45-18.74-3.38-42.26-13.65-82.58-29.85-121.58Z" fill="currentColor"/>
  <path d="M160.12,354.2c-16.6,39.08-26.59,79.97-29.94,122.37-.45,5.66.28,10.17-2.6,15.92-.86-5.28-.8-9.09-.42-13.97,3.45-44.21,13.89-86.88,31.51-127.39l1.45,3.07Z" fill="currentColor"/>
  <path d="M514.18,890.6l1.04,3.02,6.75-6.08c2.35,4.16-4.72,6.63-3.54,8.08,2.49,3.05,9.43.2,18.05,3-7.68,3.03-14.49-.26-18.09,2.95-1.07.96,5.74,5.48,6.12,10.44l-9.79-8.62c-.11,6.34-.39,10.38-2.97,14.54-1.98-6.68-.97-15.39-2.66-13.72l-2.27,2.25c-1.89,1.87-3.06,2.9-5.74,2l6.22-7.07-10.92-1.43c-2.15-.28-4.33-.62-7.01-1.41l10.1-1.42,7.11-.73-6.13-8.95,8.88,5.66,1.64-4.79,1.59-3.32,1.6,5.59Z" fill="currentColor"/>
  <path d="M864.55,351.72l-2.75.46c-15.73-37.89-37.34-72.63-63.91-103.99l-1.58-1.86c-.33-.39,1.37-2.1,1.73-1.73l1.7,1.74c27.36,31.45,48.74,66.94,64.79,105.38Z" fill="currentColor"/>
  <path d="M111.37,506.58l.32,2.84c-1.31.05-3.45,1.23-4.75,2.22l5.56,6.86-8.75-4.71-2.43,14.98-2.53-14.99-8.79,4.83,5.62-8.13-12.82-2.53,9.55-1.82c.97-.18,2.74-2.65,2.41-3.03l-5.75-6.65,8.08,5.33c.86-.68,2.42-3.22,2.64-4.52l1.51-8.85,3.23,13.31,9.54-6.57-5.24,6.09c-.61.7-1.29,3.64-.47,4l3.08,1.35Z" fill="currentColor"/>
  <path d="M160.12,354.2l-1.45-3.07c16.88-38.79,39.12-74.59,66.79-106.46.54.02,2.37.17,2.22.49l-.82,1.83c-27.6,32.36-50.08,68-66.75,107.21Z" fill="currentColor"/>
  <path d="M873.08,645.78l-2.79.26c11.17-31.92,18.37-64.33,21.23-98.13l.83-11.47c.28-3.82.84-7.45,1.87-11.86,1.79,7.78.81,14.5.13,21.87l-1.03,11.21c-2.79,30.32-9.49,59.36-20.23,88.13Z" fill="currentColor"/>
  <path d="M918.56,514.91c-2.69-1.03-5.89,1.37-8.97,3.89-1.94-3.02,3.02-3.15,4.8-6.83.34-.7-1.82-1.89-2.81-2.08l-9.68-1.85,12.7-2.72-3.21-5.97,5.29,1.69c1.22.39,2.17-2.99,2.4-4.36l1.59-9.39,2.09,12.69c2.27,1.04,4.05,2.22,5.02,5.12l12.42,3.06-13.03,2.32-4.54,5.44-2.01,12.41-2.06-13.43Z" fill="currentColor"/>
  <path d="M303.59,867.37l2.59-1.4c22.51,13.46,45.46,24.64,70.27,33.29l48.22,14.05c1.23-.2,2,.4,1.95,2.83-45.59-9.86-82.78-25.1-123.03-48.77Z" fill="currentColor"/>
  <path d="M878.79,328.07l1.62-2.61,4.87,10.25c14.51,30.51,24.25,62.7,30.71,95.93.17.88.3,2.87-.33,2.88l-2.02.03c-.41,0-.34-1.24-.5-2.1-6.75-36.56-19.01-71.25-34.35-104.37Z" fill="currentColor"/>
  <path d="M306.18,865.96l-2.59,1.4c-23.65-13.91-45.52-30.14-66.34-48.64l-23.87-23.44.73-3.2,24.18,23.65c20.36,19.91,43.42,35.6,67.9,50.23Z" fill="currentColor"/>
  <polygon points="763.04 457.48 733.11 541.16 731.4 540.26 760.83 457.39 763.04 457.48" fill="currentColor"/>
  <path d="M540.46,138.74l-39.95-.88-.2-2.54-6.69-1.23,24.45-.37,4.43-.88,15.75.06c1.06,0,3.73,1.5,3.41,2.4l-1.2,3.43Z" fill="currentColor"/>
  <polygon points="252.83 447.46 227.26 513.5 225.45 512.71 250.69 445.51 252.83 447.46" fill="currentColor"/>
  <polygon points="521.5 665.86 522.78 667.67 496.52 678.37 468.75 689.7 467.37 687.97 502.77 673.53 521.5 665.86" fill="currentColor"/>
  <path d="M231.21,240.39c-.46-4.43,5.9-6.76,7.85-11.34-2.64-3.85-3.39-8.13-.97-11.3,2.6-3.41,7.08-4.12,11.07-1.83,3.12,1.8,4.48,6.24,3.18,9.85-1.46,4.04-5.85,5.87-10.61,4.77l-10.51,9.85ZM249,219.75l-1.23-1.26c-.75-2.83-5.17-2.17-7.16-.32-2.42,2.24-2.49,5.98-.31,8.56,2.04,2.42,5.66,2.57,8.48.62,2.38-1.64,3.52-6.52.23-7.61Z" fill="currentColor"/>
  <path d="M785.68,230.53l-1.58.98-7.93-1.12c-2.87-.41-5.21-4.7-5.16-7.08.07-3.39,1.07-7.21,4.25-8.11,4.55-1.29,7.98-.56,10.52,2.5,4.25,5.13-1.84,9.55-.1,12.83ZM784.14,220.11c-.76-3.36-5.56-4.21-7.98-2.53-2.88,2.01-4.01,5.17-2.37,8.18,1.24,2.27,5.04,3.55,7.2,2.4,2.7-1.44,4.04-4.12,3.15-8.05Z" fill="currentColor"/>
  <polygon points="643.73 615.52 642.44 636.31 639.73 656.43 637.94 654.24 639.32 643.33 640.72 625.4 641.37 612.41 643.73 615.52" fill="currentColor"/>
  <path d="M514.55,48.83l-4.81-2.31.88,2.33c-2.43-.15-4.42-3.14-4.15-5.38.3-2.44,2.52-4.83,4.82-5.42s4.9,1.37,6.4,4c1.43,2.5-.56,6.33-3.15,6.78Z" fill="currentColor"/>
  <path d="M518.07,133.73l-24.45.37,6.69,1.23.2,2.54-15.97.87-1.1-4.29c-.19-.74,2.35-1.58,2.96-1.6h30.2s1.47.88,1.47.88Z" fill="currentColor"/>
  <polygon points="527.42 719.15 526.55 721.58 516.48 726.29 488.73 737.65 487.3 736.05 504.54 728.32 527.42 719.15" fill="currentColor"/>
  <path d="M514.18,890.6l-1.6-5.59-1.59,3.32.25-9.46.18-17.37c.01-1.08-2.3-3.15-1.97-4.06l1.95-5.36c-.08-.59,2.15-.41,2.25.14,1.74,4.6.93,5.05.46,8.47-.99,7.06-1.41,15.01-.44,22.37l.5,7.56Z" fill="currentColor"/>
  <path d="M616.18,207.22c3.67.13-5.45,2.2-5.8,3.23l-1.97,5.77-1.78-5.78-6.34-3.04c1.81-.44,4.47-.88,5.54-1.71,1.23-.95,1.66-4.01,2.41-6.58l2.37,5.85c.52,1.29,4.12,2.21,5.56,2.26Z" fill="currentColor"/>
  <path d="M511.48,967.14l2.17-.16c1.79,1.16,4.86,4.44,4.69,6.67-.27,3.44-3.1,5.48-5.32,5.62-2.6.16-5.67-.88-6.31-2.94-1.46-4.74.89-8.89,4.77-9.18ZM515.89,972.88l-3.74-3.46c-2.62.26-3.92,1.77-3.92,4.16s2.32,3.73,4.45,3.7c1.62-.02,4.36-3.34,3.2-4.4Z" fill="currentColor"/>
  <path d="M498.2,119.73l-3.54,1.48,1.97,3.72-10.2.99c-1.68,0-3.26-1.83-3.11-3.67.1-1.2,2.59-2.51,3.87-2.49l11.01-.03Z" fill="currentColor"/>
  <path d="M520.57,188.48l-4.24,3.53c-6.64-2.22-13.88-1.62-20.09,1.75l2.01-3.4c4.1-1.65,8.14-3.19,13.27-2.72l9.05.84Z" fill="currentColor"/>
  <path d="M387.76,196.13l1.98,2.61-2.81-.53c-.69-.13-2.04,1.78-1.89,1.63l-6.54-5.15,6.5-4.98,7.13,4.82-4.37,1.6Z" fill="currentColor"/>
  <polygon points="207.06 561.81 202.83 573.07 199.21 569.84 200.05 566.57 201.5 559.43 207.06 561.81" fill="currentColor"/>
  <polygon points="500.51 137.86 540.46 138.74 484.54 138.74 500.51 137.86" fill="currentColor"/>
  <polygon points="572.81 586.57 566.34 606.67 564.19 605.39 570.19 586.67 572.81 586.57" fill="currentColor"/>
  <path d="M514.55,48.83c-.17.26-1.01,2.51-1.02,3.28l-.13,17.72-1.79.12-.06-10.06-.93-11.04-.88-2.33,4.81,2.31Z" fill="currentColor"/>
  <path d="M919.49,467.82c1.43-.24,3.92,1.54,4.4,2.79.64,1.65-1.05,4.6-2.57,4.9-1.97.39-4.52-1.07-5.15-2.68-.78-1.98,1.06-4.62,3.32-5.01Z" fill="currentColor"/>
  <polygon points="513.56 943.21 513.65 966.98 511.48 967.14 511.42 944.22 513.56 943.21" fill="currentColor"/>
  <path d="M105.18,470.09c.93,1.3-.2,4.54-1.42,5.14s-4.24-.04-5.08-1.12c-1.13-1.46-.92-4.37,1.03-6.17,1.04-.95,4.29.52,5.47,2.15Z" fill="currentColor"/>
  <path d="M919.34,540.79c1.35-.47,4.13,1.46,4.58,2.74.55,1.57-.98,4.54-2.56,4.89-1.42.32-4.1-.82-4.83-1.94-.98-1.48.07-4.75,2.81-5.7Z" fill="currentColor"/>
  <polygon points="208.89 653.15 208.78 654.38 208.66 655.36 207.96 658.2 207.46 662.84 201.87 658.28 202.76 654.39 202.68 653.36 204.83 653.05 208.89 653.15" fill="currentColor"/>
  <path d="M98.88,547.83c-1.16-.83-1.86-3.29-1.34-4.21.64-1.14,3-3.32,4.26-3.11,1.98.31,3.66,3.72,3.06,5.23-.77,1.93-3.61,3.8-5.98,2.09Z" fill="currentColor"/>
  <polygon points="775.2 629.31 776.34 630.21 779.27 632.19 760.28 632.15 763.95 629.68 775.2 629.31" fill="currentColor"/>
  <path d="M512.55,166.43l-2.77-10.89,2.32-2.6c.57-.64,2.84,1.16,2.99,2.01s-.54,2.12-1.02,3.36l-1.53,8.13Z" fill="currentColor"/>
  <path d="M236.82,789.17c-.36,2.9-.03,6.23,2.3,8.15,2.11,1.74,5.36,1.76,8.27,1.24l-.97,1.97c-3.29,1.43-6.83.37-9.26-2.22s-3.27-6.31-1.57-9.36l1.22.22Z" fill="currentColor"/>
  <path d="M513.56,943.21l-2.14,1.01c-.78-1.26-1.79-3.33-2.02-4.6s2.41-3.77,3.61-3.31c1.12.42,3.32,3.28,2.65,4.16l-2.09,2.74Z" fill="currentColor"/>
  <path d="M563.13,893.43c2.46-.85,4.64.8,4.49,2.22-.13,1.19-1.22,3.45-2.2,4.09s-3.33-.47-3.93-1.47.43-4.42,1.64-4.84Z" fill="currentColor"/>
  <polygon points="644.1 609.53 643.73 615.52 641.37 612.41 642.08 598.41 643.28 602.36 644.1 609.53" fill="currentColor"/>
  <path d="M458.97,893.31c1.01-.31,3.16,1.61,3.57,2.58.49,1.13-1.42,3.44-2.8,3.85-1.18.35-3.18-1.22-3.83-2.53-.56-1.1,1.58-3.45,3.06-3.9Z" fill="currentColor"/>
  <path d="M784.11,231.51l1.58-.98,9.01,10.8c-3.6-.39-5.34-2.92-7.4-5.63l-3.19-4.19Z" fill="currentColor"/>
  <path d="M513.11,78.36c-.84.57-2.99-.79-3.37-1.58-.46-.95.5-3.37,1.57-4.43.74-.73,3.22.65,3.85,1.58s-.92,3.66-2.06,4.43Z" fill="currentColor"/>
  <path d="M562.58,115.45c.62-.74,3.86-.59,4.43.19.68.93.49,3.76-.46,4.42-.79.55-2.49.53-3.67.11-1.1-.39-1.47-3.29-.29-4.71Z" fill="currentColor"/>
  <path d="M438.04,857.36l2.69,1.37c.37.19-1.04,1.52-1.51,1.53-1.91.08-4.57-3.47-3.71-5.91,1.07-3.01,3.28-5.64,5.99-6.25-2.34,2.82-4.95,6.37-3.47,9.25Z" fill="currentColor"/>
  <path d="M457.74,115.08c.84-.45,3.49.45,4.04,1.23.66.93-.07,3.01-.87,3.82-.92.94-3.63.75-4.09-.28s-.08-4.22.92-4.76Z" fill="currentColor"/>
  <polygon points="351.69 800.81 351.75 803.53 346.82 803.09 344.55 802.66 345.14 797.89 351.69 800.81" fill="currentColor"/>
  <path d="M111.69,509.41l-.32-2.84c2.66.1,6.05.56,9.59,1.42-2.87.76-6.72,1.33-9.27,1.42Z" fill="currentColor"/>
  <path d="M486.43,125.92l10.2-.99,8.81-.08-.06-4.05c.8.54,1.45,2.6,1.17,3.52-.22.73-2.13,1.58-3.06,1.58l-17.07.02Z" fill="currentColor"/>
  <polygon points="273.7 630.51 265.76 632.14 261.52 630.52 268.47 629.91 273.7 630.51" fill="currentColor"/>
  <polygon points="630.3 595.41 629.61 599.44 627.2 600.37 628 594.33 630.3 595.41" fill="currentColor"/>
  <polygon points="398.83 836.24 393.6 836.1 393.55 833.29 398.83 836.24" fill="currentColor"/>
  <polygon points="204.83 653.05 202.68 653.36 202.24 649.82 204.83 653.05" fill="currentColor"/>
  <polygon points="557.58 292.56 554.46 293.71 554.5 291.77 557.58 292.56" fill="currentColor"/>
  <polygon points="196.52 588.62 195.78 590.5 193.83 588.37 196.52 588.62" fill="currentColor"/>
  <polygon points="769.3 539.49 767.13 541.5 767.28 451.57 769.07 450.52 769.3 539.49" fill="currentColor"/>
  <polygon points="802.15 595.69 810.85 596.83 803.17 597.75 799.3 597.52 798.23 597.4 791.3 596.42 787.24 596.38 787.21 595.3 802.15 595.69" fill="currentColor"/>
  <path d="M247.77,218.49l1.23,1.26-.75,4.11c-.22,1.2-3.49,1.17-4.52.51s-1.63-4.07-.53-4.6,3.11-1.01,4.57-1.28Z" fill="currentColor"/>
  <polygon points="409.1 284.48 402.6 283.63 408.59 282.34 409.1 284.48" fill="currentColor"/>
  <polygon points="641.47 780.99 642.22 784.21 637.38 784.23 634.76 781.6 641.47 780.99" fill="currentColor"/>
  <polygon points="810.23 617.39 806.1 621.47 807.39 622.63 800.43 625.58 793.3 627.85 793.15 623.92 810.23 617.39" fill="currentColor"/>
  <polygon points="793.15 623.92 793.3 627.85 776.34 630.21 775.2 629.31 793.15 623.92" fill="currentColor"/>
  <polygon points="254.76 448.6 254.6 540.95 252.79 541.52 252.74 493.52 253.77 491.58 253.77 452.49 252.77 450.55 252.83 447.46 254.76 448.6" fill="currentColor"/>
  <polygon points="715.23 665.57 714.3 663.33 715.31 662.35 716.16 662.34 715.23 665.57" fill="currentColor"/>
  <polygon points="254.74 591.43 253.77 591.45 253.74 546.5 254.78 545.41 254.74 591.43" fill="currentColor"/>
  <polygon points="252.74 493.52 252.77 450.55 253.77 452.49 253.77 491.58 252.74 493.52" fill="currentColor"/>
  <polygon points="769.21 593.42 767.29 593.37 767.13 541.5 769.3 539.49 769.31 547.44 769.21 593.42" fill="currentColor"/>
  <path d="M779.13,219.5c.19,2.88-.47,4.94-1.39,5.33-1.29.54-3.72-1.24-3.75-3.07-.04-2.65,5.04-3.83,5.14-2.26Z" fill="currentColor"/>
</svg>
