<svg xmlns="http://www.w3.org/2000/svg" viewBox="0 0 1024 1024">
  <path d="M311.54,508.67l-.7,7.21.08,21.5c3.39,30.43,24.05,55.48,51.01,68.79l23.53,10.67,1.48.03.8-.17.8-.16c.55.75,2.51,2.76,3.74,3.27,11.28,4.75,20.88,12.73,27.4,22.59l-3.01.38c-6.63-8.95-15.42-15.8-26-20.4l-12.35-5.56c-14.83-6.68-28.87-13.2-40.93-24.07-17.01-15.33-27.47-35.24-29.88-58.27l-1.37-13.11c-.77,4.59-.56,8.5-.44,12.59l-.61.55-.88-7.21-2.79,12.23-.99-6.1,1.65-7.58,1.49-8.43,6.71-13.68,2.21-.74-.9,5.66Z" fill="#b59c6f"/>
  <path d="M618.55,347.53l-1.19.69c-.3.2.2,1.41.56,1.42h1.52s.62,2.46.62,2.46c6.46,8.12,14.67,15.78,24.18,21.68l31.46,19.5c26.81,16.61,45.87,44.72,50.26,76.41l.23,6.03.15,26.29-1.35.47.41-21.57c.01-.56-.89-3.03-1.06-2.36l.02-1.06c.05-2.34-.1-5.18-1.28-7.04-3.18-24.45-15.09-46.73-34.02-63.59-9.32-8.3-19.48-14.31-30.28-20.75-1.67-.99-4.3-1.95-5.77-2.47-2.5-1.76-5.04-3.61-8.06-4.79l9.72,22.96-1.33,1.95c-4.92-7.69-8.38-16.09-10.55-25.59-.87-1.18-2.69-3.24-3.7-4.12l-15.57-13.57c-3.95-3.44-6.95-7.7-9.54-11.72l3.39-2.23c-.49-.43.82.71,1.17,1.02Z" fill="#af966c"/>
  <path d="M382.67,322.94l-5.04.64-9.21,1.63,22.85,1.88.12,1.76-3.82.98c-9.3-1.35-24.34,1.16-31.99,6.99l-6.53.39c-.79-.47-1.23-.64-.3.8l-12.03,2.91-9.76,5.42c.62.6,1.87,1.75,1.51,1.91l-1.57.73-11.48-.7,11.73-4.41c1.17-.44,3.23-2.22,4.34-3.36l-15.94,2.97c-11.4,1.59-22.52,4.39-31.74,10.52l-1.48-5.5c5.94-5.96,12.3-11.56,19.6-15.86l1.79,2.03c-6.85,4.16-13.11,9.17-19.19,15.01,10.11-3.96,19.13-6.95,29.59-8.61,7.44-1.18,14.41-3.31,20.88-7.06,8.59-4.97,17.36-7.11,26.71-9.21-14,.75-26.92,4-40.27,6.39,19.89-8.07,41.06-9.06,61.23-8.27ZM352.38,334.76c9.57-3.97,18-6.09,29.02-7.72-16.52-1.14-34.15,2.01-49.14,11.3,6.74-.77,14.04-1.06,20.12-3.58Z" fill="#a79273"/>
  <path d="M259.02,220.86l-1.42-.49c2.86-3.85,6.24-7.2,10.32-10.52,24.78-20.16,50.58-38.44,79.9-51.77,27.91-12.69,56.88-25.01,87.73-27.55-42.48,11.05-81.78,23.87-118.23,46.93-18.78,11.88-36.27,24.32-52.81,39.02l-5.49,4.36Z" fill="#91795d"/>
  <path d="M782.77,199.59l-2.79,1.45c-28.24-25.29-59.63-45.47-93.7-62.06-27.12-13.21-54.33-20.59-83.8-29.57,35.27,4.49,68.08,19,99.46,34.81,29.63,14.93,55.99,33.9,80.82,55.37Z" fill="#91795d"/>
  <path d="M767.61,220.59c-.38.15-1.45,1.58-1.46,1.97l-25.52-21.18c-44.27-35.16-95.1-58.35-151.14-69.81,3.71-3.27,8.08-1.01,12.26-.01,63.45,15.26,118.4,45.22,165.86,89.04Z" fill="#8a7257"/>
  <path d="M782.56,819.53c-48.41,44.41-116.81,77.38-181.66,91.95l-2.05.46c-.43.1-.46-1.01-.58-2.45,68.06-14.15,130.85-46.57,183.02-92.33l1.27,2.38Z" fill="#8a755d"/>
  <path d="M544.8,230.88c-3.69,3.55-4.03,8.45-2.67,13.33l2.18,7.78-1.46,11.09c-.11.87-.51,2.65.11,2.68l2.15.22c-5.37,10.29-15.23,17.49-26.66,19.48-1.24-1.49-1.78-3.94-1.14-5.91,12.06-3.92,20.04-14.09,22.36-25.61,2.61-12.95-2.51-26.19-12.81-33.96l1.69-4.7c6.89,3.4,12.57,8.85,16.24,15.6Z" fill="#d4b06f"/>
  <path d="M225.86,218.12l-7.15,7.75c-33.75,36.55-56.81,70.45-77.57,115.53-.54-.07-2.32.33-2.31-.17l-.16-1.62c18.33-40.48,42.52-78.04,73.2-110.61l11.7-12.42,2.3,1.55Z" fill="#c4ac80"/>
  <path d="M277.03,812.75c42.08,35.27,100.69,63.45,155.47,74.58,1.34-.36,2.24.52,2.18,2.68-54.99-9.66-117.05-39.87-160.06-75.69.3-.6.49-.8.77-.88l1.64-.69Z" fill="#8a755d"/>
  <path d="M865.07,652.32c-16.94,42.79-40.53,82.7-70.95,117.66-3.44,3.95-6.23,7.87-10.27,10.13l-3.35,1.87-.36-.82c35.17-37.33,63-81.12,81.75-128.82l3.18-.03Z" fill="#bfa57a"/>
  <path d="M417.34,652.35l3.41,3.72.96-3.13,3.27.36,2.57,8.6c1.8,6.01,1.73,11.77,1.85,17.88.26,13.29-5.12,25.43-15.04,34.32-7.14,6.41-15.83,8.92-25.32,9.78-3.24.29-5.86.53-8.61-1.36,20.02.57,37.02-11.81,43.61-30,5.34-14.74-.63-33.46-15.61-40.72l4.24-3.5,4.66,4.04Z" fill="#8c6e48"/>
  <path d="M722.18,514.15l2.84-2.06.47,3.45c-1.58,6.93-4.19,13.33-5.12,21.22l7.43-16.3,1.7,6.95-.16,1.15-2.23,1.95c-1.39,1.57-2.58,4.9-3.35,7.46l-6.09,20.18c-.47,1.56-.2,4.24.14,6.53l-.73,6.9,4.33-1.12-1.33,5.7c-.07.28.33,1.22.4,1.48l-3.01,8.32-1.69.18c-.51.02-1.1-1.25-1.3-1.75l-.81-2.01c-.15-.37-1.22-.48-1.45-.31v-.61s.19-8.69.19-8.69l1.42,7.73,1.66-15.55-.41-18.53.07-8.44.4-12.43c.55-.35,1.72-.87,1.55-1.41l-.51-1.61,1-5.84,1.54-5.45,1.63,7.38c.37-.98,1.29-3.34,1.41-4.46Z" fill="#87683f"/>
  <path d="M512.68,923.95c-1.19-4.49-1.84-7.9-1.99-11.78l-.42-11.14-6.05.87,2.76-4.83-18.45-1.74c4.29-1.38,7.92-1.83,11.93-2.24l6.16-.63-3.52-6.12,6.84,3.22.72-10.45,1.78-13.94c1.03,4.57,1.03,7.72,1.37,11.95l.99,12.27,6.73-3.36-3.34,6.76,16.04,1.17c.35.03,2.22.56,2.24.54s-1.13,1.18-1.42,1.47l-17.63,1.23,4.83,7.35-1.19.54-6.18-5.71-.57,9.74-1.64,14.85Z" fill="#cdad79"/>
  <path d="M746.58,476.21c-.26-.14-1.75.06-1.74.08.02.03-.17-1.37-.2-1.65-.1-.32-.42-1.18-.37-1.55l.98-3.58,1.28-12.06c3.61-33.9-10.99-63.01-39.23-81.77l-6.3-4.18,1.53-2.27c27.63,14.24,46.54,42.5,47.79,74.19.47,11.77-1.09,22.18-3.74,32.79Z" fill="#bfa57a"/>
  <path d="M499.35,741.92l2.57.56c.76.09.71,2.21.63,2.88l-6.94,3.03c-6.86,4.64-12.16,12.34-13.27,20.43l-1.15,8.39c-1.32,9.62,1.81,11.93,5.14,16.38,6.61,8.83,10.38,9.81,18.26,14.8l-.7,1.43c-.08.21.02.54,0,1.94-15.35-4.04-26.4-17.44-27.42-33.28s8.19-30.56,22.89-36.55Z" fill="#c59e5f"/>
  <path d="M866.59,372.6l-2.89.55c-15.65-41.9-37.36-81.07-66.07-115.25l2.94-.82c28.95,34.04,50.36,73.67,66.02,115.52Z" fill="#af966c"/>
  <path d="M886.5,343.48l-2.63,1.14c-17.58-40.24-40.77-77.22-70-109.87l2.87-1.02c26.28,29.63,48.24,62.38,64.65,98.5l5.11,11.24Z" fill="#baa173"/>
  <path d="M419.49,403.63l3.14.76,1.29.58-3.41,1.08c-.7.21.41,1.98,1.02,2.68l-1.95-.2-.98-.91.99-1.83-11.03-1.03c-8.8-.83-16.92,3.23-23.93,7.7l6.88-1.03,1.16,1.1c-5.82,2.32-12.86,3.81-18.11,8.03-13.73,11.04-17.66,20.65-22.81,35.96-3.36-4.5,2.12-7.97,1.43-12.08l-6.5,2.59,4.65-6.78c14.12-17.9,39.29-43.88,62.03-38.15l6.12,1.54Z" fill="#caaf7e"/>
  <path d="M228.19,765.43c-.4.38-1.75-.27-1.88-.32-.1-.04-.49.86-.85,1.44-27.7-31.18-49.84-67.45-65.86-105.85l1.63-2.85c16.96,38.95,39.02,75.27,66.96,107.58Z" fill="#baa173"/>
  <path d="M658.26,550.49l2.1,13.9c1.09,7.22-.49,14.84-4.04,20.89l-6.05,10.33c5.69-1.91,8.12-6.2,11.89-10.82-.37,19.17-12.86,34.13-28.83,41.97l-10.11.86c-2.12.18-5.26-.49-6.85-1.25,19.87-.17,37.48-14.02,42.2-34-6.31,5.04-12.54,8.88-19.14,12.25l2.39-4.73c8.83-8.76,17.81-19.51,16.1-33.28l-1.62-13.06.02-6.08.29-1.09,1.64,4.12Z" fill="#af966c"/>
  <path d="M324.75,368.61l-4.58,4.52-15.23,12.97c-2.48,2.11-5.69,6.82-6.9,9.52l-1.64.02c.43-.86.81-2.45,1.15-4.59-2.87,1.85-4.41,3.78-6.03,6.47l-1.15,1.92-2.15-.68c-.27-.07-.59.23-.68.47l-.89,2.41-1.15.75-7.55,5.36-1.17-3.04c1.81-1.51,3.42-3.15,4.93-5.36l-13.63,4.78c-10.92,3.83-19.67,11.66-28.56,18.44l1.39-4.19c9.46-8.07,20.46-14.6,32.86-18.65,9.12-2.98,16.55-7.75,22.2-15.16l.67,2.82c.17.64,1.68-.35,2.15-.82l13.57-10.18c3.02-2.27,5.3-5.63,8.32-6.54l4.05-1.22Z" fill="#af966c"/>
  <path d="M292.7,548.55c.38,2.17-1.02,5.75-1.34,8.42l-1.98,16.56c-1.4,11.7,1.17,28.41,6.76,39.55,5.32,10.61,12.88,20.17,22.97,26.81l6.39,3.4,6.22,2.08c.1.08-2.35,1.18-1.94,1.52l2.57,2.18c-.85,0-3.46-.42-4.42-.87-25.07-11.79-40.74-36.07-41.34-63.75-.31-14.08,1.06-27.13,4.78-40.04l1.32,4.13Z" fill="#ab9268"/>
  <path d="M501.7,105.74c2.46,4.56,3.59,10.03,4.05,16.15l13.41-.02c.6-5.05,1.62-9.23,3.12-13.23l4.21,2.89c-1.02,3.25-1.78,7.44-1.76,10.35,1.31.76,2.32,1.27,2.22,1.98l-.4,2.68c-.6,0-2.54,2.21-2.34,3.25l1.25,6.39-2.65-2.22c-.59-.5-1.93,1.5-2.5,2.2l-1.09-9.47-13.41.55-2.41,12.78-.22-5.59-1.99,1.87c-.26.25-.45.36-.49.1l-.3-1.53.05-1.99c1.05-.75,1.01-4.13.27-5.44l-7.88-.75c2.18-.34,6.21-2.2,6.94-4.39.21-.64.89-2.8.68-3.54l-3.22-11.62,4.45-1.39ZM518.6,125.98l-.71-3.34-11.65.67-.29,2.41,12.66.26Z" fill="#cdad79"/>
  <path d="M676.48,608.64c-7.97,7.75-17.65,13.91-27.85,18.65l-.4,5.22-2.21-4.94c-10.65,3.44-20.92,3.57-31.53,1.71l.46,2.57c.09.48-1.05,1.49-.99,1.32-.89-1.75-2.5-4.01-3.91-4.31l-12.43-2.69c-.29-.34.34-1.8.94-2.06l1.73-.75,10.15-4.35c1.96,2.83-6.08,5.9-.9,6.22,1.79.11,5.21.37,6.83,1.14s4.73,1.43,6.85,1.25l10.11-.86c13.23-1.12,26.97-6.37,36.11-17.24l6.03-7.93c-.69,2.23-.3,4.98,1,7.04Z" fill="#caaf7e"/>
  <path d="M627.34,692.45l1.6.74c.41.19,1.17-.57,1.5-.81l3.94-1.13-1.99,1.63c-.45.34,2.24,1.14,2.17,1.39l-13.25,3.61-.4,2.1,1.48.39,1.96,1h1.07s2.7,3.08,2.7,3.08c-5.62.33-9.58-6.68-19.52-2.91l-2.21-.39-4.16,1.59-5.81-1.27c-.67-.15-2.17.24-2.76.58-1.98,1.11,3.95,4.09,5.65,6.29.31.4.21,1.8.05,2.25-.89-.59-3.05-.78-3.97-.48l-3.76-1.31-.53,2.5-8.48-7.95-3.28-1.9-.08-2.45.17-.97,4.18-.47,17.58.6,1.89-6.88.51,6.22c8.3.04,16.56-1.98,23.76-5.06ZM593.08,707.79l-.65.02.65.02h.67l.65-.02-.65-.02h-.67Z" fill="#9b7f56"/>
  <path d="M412.67,648.31l-4.24,3.5c-11.82-5.72-23.04-2.92-35.52-.14s-34.04,2.94-40.55-2.6l-2.57-2.18c-.41-.35,2.04-1.45,1.94-1.52,5.99,3.41,13.07,5.39,20.61,5.34,4.86-.04,10.9.08,15.59-1.01,11.59-2.69,21.7-3.74,34.02-3.59l-13.41-3.54-6.71-1.12-.99-1.88,3.82-1.06c9.66,1.8,20.58,3.38,28.01,9.81Z" fill="#9b7f56"/>
  <path d="M423.68,306.31l-.04,1.79c-.06,3.04-4.89-3.59-8.97-1.67l-1.57.29-.74.83c5.76,5.64,12.98,10.02,20.13,13.98l.64,2.72-18.81-.75,1.02-3.38-6.61-.31-.57-.29c-1.49-3.91,1.74.3,5.93-4.33.65-.71-1.84-2.16-2.71-2.76-5.48-3.81-12.37-10.19-16.77-15.47v-3.4s7.22,5.28,7.22,5.28c2.02,1.48,6.77,2.06,9.51,2.99l12.33,4.48ZM412.4,306.16l-1.48.03,1.48-.03Z" fill="#87683f"/>
  <path d="M710.34,841.86c-33.38,20.95-70.38,36.49-108.82,45.72l-2.27-1.84c38.95-9.78,76.22-24.93,110.12-46.49l.96,2.61Z" fill="#8a7257"/>
  <path d="M717.48,585.96l-8.2,30.41c-2.54,9.41-12.55,30.66-18.3,35.36l-7.35,6.01,9.82-14.29c2.97-4.19,4.9-8.09,7.02-13.25l-5.86,1.72c-.73-.17-3.73-.74-4.13.14l-2.24,5.04-2.13-6.13c-.45-1.3-4.07-1.61-5.78-2.04,1.08-.49,3.76-1.42,4.96-1.07s3,2.43,3.84,3.37c3.62-1.66,6.86-2.15,11.71-1.62l5.89-14.75-5.5-.74c.29-.41,1.15-1.72,1.67-1.62l3.75.76,2.23-8.47,1.55-8.45,1.17-6.97c.31-1.85.26-4.47,0-5.93l.62-1.36c.24-.17,1.3-.06,1.45.31l.81,2.01c.21.51.79,1.77,1.3,1.75l1.69-.18Z" fill="#a78d66"/>
  <path d="M507.22,211.74l.58,2.91c-14.86.44-26.5,11.58-30.06,25.18-3.74,14.31,2.3,29.65,15.28,37.41,7.18,4.29,16.83,4.73,24.29,2.31-.64,1.97-.11,4.41,1.14,5.91-13.31,2.32-26.84-2.75-35.35-13.24-8.52-10.49-10.69-24.77-5.68-37.32,5.01-12.55,16.41-21.41,29.81-23.16Z" fill="#9b7f56"/>
  <path d="M341.44,788.14l2.09-.78c3.58,9.18,10.78,16.61,19.78,20.01,11.78,4.44,23.27,1.01,30.41-9.14,2.82-4.01,3.87-8.63,1.75-13.17-1.95-4.16-5.36-6.79-10.98-7.03-2.67-.11-8.18,3.02-6.49,5.45,2.48,3.55,5.4,5.95,4.65,10.06-.65,3.54-2.8,6.68-6.59,7.85l-.42-2.05c1.86-.62,4.19-2.63,4.74-4.25.67-2-.29-5.5-1.4-6.89l-4.66-5.83c3.33-4.46,6.7-7.45,12.24-6.88,4.2.43,8.29,3.73,10.03,6.59,2.58,4.25,2.98,9.65.91,14.08-6.48,13.9-22.62,18.72-36.54,12.67-9.32-4.04-16.01-11.64-19.52-20.69Z" fill="#998362"/>
  <path d="M264.92,524.62c-6.15,11.01-11.63,22.03-14.31,34.97l1.07,2.87,1.45.94c-3.03,5.07-3.45,11.77-1.71,17.09l-2.72.91.74-7.93-2.54-12.99-1.29,5.94c-1.24-12.96,1.95-28.94,6.68-42.03.64.73.77.94,1.13,1.04l1.67.26c-3.23,8.77-5.62,18.04-6.32,27.98l11.09-27.76,3.97-2.46,1.1,1.18Z" fill="#a0865f"/>
  <path d="M186,756.1l-1.59,2.5c-18.11-22.39-32.71-47.27-44.81-73.88l-5.1-11.22,2.07-2.32c12.81,30.19,29.6,58.6,49.42,84.92Z" fill="#baa173"/>
  <path d="M626.3,722.12l3.16-.04c14.79,22.18,36.24,22.81,60.12,9.92-9.16,10.18-22.71,12.45-35.11,13.64l-2.41-2.05c1.8-.11.67-.75-.37-1.32l-14.08-6.02c-12.29-5.26-24.75-8.88-34.18-17.98v-.94c8.63,6.45,18.14,11.94,28.34,15.23l.99-1.14-6.43-9.29ZM634.05,732.8h-1.45s1.45,0,1.45,0Z" fill="#a0865f"/>
  <path d="M228.19,765.43l3.04,3.33,11.12,11.98c1.34,1.45,3.38,4.4,5.1,4.43,3.58.05,6.59.7,8.45,2.44,1.37,1.28,1.31,5.64,2.23,7.47,2.28,4.55,7.44,8.04,11.35,11.32l7.57,6.35-1.64.69c-.28.08-.47.28-.77.88l-13.07-10.89-5.96-5.18c-3.68,3.12-7.64,2.62-10.53.11-3.24-2.81-2.56-7.03-1.16-11.18l-9.94-11.02-8.52-9.59c.37-.58.76-1.48.85-1.44.13.05,1.48.7,1.88.32ZM255.49,793.14c.49-2.21-2.25-5.65-4.59-5.77-2.47-.13-5.55,1.95-6.11,3.84-.73,2.46,1.6,6.31,3.71,6.89,3.1.85,5.77-.83,6.49-3.5l-3.32.11c-.71.02-1.16-2.18-.93-2.86s1.82-2.05,2.3-1.5l2.45,2.8Z" fill="#a78d66"/>
  <path d="M888.17,671.3l.75.93c-10.2,26.7-24.88,51.37-41.55,75.13l-3.79,4.84-2.72-.1.28-.86.93-1.06c17.12-24.81,32.73-50.82,43.96-78.88l1.08.04,1.04-.04Z" fill="#bfa57a"/>
  <path d="M95.89,516.45l1.58-9.32c.12-.76-.59-3.03.08-3.29l2.18-.83,2.65-12.69,2.86,13.05,7.93-4.76-4.85,7.71,12.57,2.46-13.15,2.89,4.48,6.56-7.39-2.89-2.35,9.36-2.06-8.02c-.34-1.32-3.74-1.24-4.52-.25Z" fill="#cdad79"/>
  <path d="M327.87,874.81l-.27,2.38c-32.11-15.17-61.15-36.68-88.17-59.63l2.32-1.37c25.78,23.48,54.57,43.77,86.11,58.62Z" fill="#8a7257"/>
  <path d="M336.77,742.97c5.83,1.62,11.47,7.21,12.98,11.95,2.44,7.67.95,14.52-3.36,19.86l7.68,14.04c4.37,7.99,13.05,13.38,21.58,10.53l.42,2.05c-7.73,2.4-15.52-.54-20.73-7-7.8-9.66-8.35-21.3-16.92-20.17l5.12,13.13-2.09.78-2.99-7.73c-2.3-5.93-5.54-10.98-9.71-15.19l-1.04-1.05-1.16-1.13,2.36.31c1.89.25,4.05,3.19,5.56,5.03l3.47,4.24,6.62.28c4.98-4.15,5.45-11.74,2.67-18.4-1.8-4.32-7.29-8.9-12.62-10.45l2.18-1.09Z" fill="#a79273"/>
  <path d="M207.13,279.98c-13.34,18.95-26.09,38.57-35.8,60.02l-6.1,13.48-2.83-1.21c11.86-26.25,25.91-51.59,42.96-74.87l1.77,2.58Z" fill="#baa173"/>
  <path d="M579.42,698.04l-.17.97-.69.97c-.2.45.35,1.23.77,1.48l3.28,1.9,1.61,4.26c10.69,15.95,26.3,26.54,44.32,32.79-2.95,3.73-5.24,1.24-7.43.11-3.4-1.76-6.33-2.23-9.64-3.21l.56-1.23-9.09-5.64-9.5-6.9c.47-.5.84-.9.54-1.13l-1.5-1.15-1.1-.83-3.13-4.86-3.6-4.43.46,4.29-.51,1.97c-.07.03-1.54-1.19-1.86-1.65l-5.23-7.52c-2.18-3.14-5.11-7.3-8.1-8.56l.67-3.82,9.32,2.21ZM581.23,708.35l-.12-3c-.02-.54-1.33-.7-2.01-.69l2.13,3.7ZM584.54,710.31c0-.61-.5-1.11-1.11-1.11s-1.11.5-1.11,1.11.5,1.11,1.11,1.11,1.11-.5,1.11-1.11Z" fill="#baa173"/>
  <path d="M363.59,335.32c1.19,1.06,1.62,1.33.73.77-1.47.62-2.55,1.14-2.59,1.09-.04-.06.93,1.05,1.17,1.53-15.86,2.7-30.93,9.04-43.42,19.58-8.14,7.59-14.65,15.52-19.96,25.12l-1.74,1.81c-.35.36.56,1.47,1.03,1.32-.48.47-1.99,1.46-2.15.82l-.67-2.82c7.07-14.27,17.7-26.38,30.9-35.56l1.57-.73c.36-.17-.89-1.31-1.51-1.91l7.08-1.21,17.87-7.05-3.16-.07c-.92-1.44-.48-1.27.3-.8l6.53-.39,8.01-1.5Z" fill="#bfa57a"/>
  <path d="M335.47,137.73l1.18,2.13c-26.68,13.25-52.09,28.75-75.39,47.15l-2.65-1.32c23.28-19.2,49.37-35.38,76.87-47.95Z" fill="#a58d6a"/>
  <path d="M365.66,550.38l-2.34.23c-.55.05-.82,1.36-.76,1.96l-5.94-.78-5.86-4.38c-14.53-7.47-25.79-20.84-25.51-37.25,3.18,10.2,5.35,19.84,13.24,26.37,3.1,2.57,5.57,5.62,9.89,6.39-8.03-10.15-12.73-20.14-15.13-31.45l2.12,1.29.63-5.25c1.51,18.57,12.22,35.6,29.66,42.87ZM348.32,543.95l-.65.02.65.02h.67l.65-.02-.65-.02h-.67Z" fill="#91795d"/>
  <path d="M690.98,651.73l-5.26,8.01c-5.13,6.91-16.35,16.05-16.37,16.03-.02-.01.84.58.98.61-1.94.63-4.58,1.66-5.93,2.84l-6.2,5.44,16.24-5.45c-6.42,4.94-13.82,5.8-21.39,8.06l-10.83,5.12c-.35-.19-.93-1-1.29-.83l-1.39.67-4.97,2.04c.07-.25-2.62-1.05-2.17-1.39l1.99-1.63,3.1-.65c2.62-.55,4.2-1.81,6.04-4.1l.55.73c.26.22,1.85-.09,2.2-.31l19.03-11.74,3.24-2.6,15.09-14.85,7.35-6.01Z" fill="#c4ac80"/>
  <path d="M878.15,608.48l-2.05.44c6.94-24.42,10.38-49.56,12.15-75.4.18-2.65-1.16-4.97,2.76-6.59l-.3,15.17c-1.91,20.41-5.19,39.98-9.76,60.05-.56,2.45-1.53,5.19-2.8,6.32Z" fill="#7c5f3f"/>
  <path d="M395.67,319.99l-8.14,1.03-10.66-1.92-7.09-1.26c-9.07.05-18.38-.75-27.15.3l-1.01-2.46,4.18-.6c-9.61-3.46-19.72,1.31-29.2-4.47l1.21-.84c8.68,1.34,17.6,1.17,26.85,2.33l21.05,2.64c10.27,1.29,20.71,2.02,29.96,5.25Z" fill="#baa173"/>
  <path d="M640.99,584.16l1.58,1.15-14.29,10.03c-9.3,6.53-18.07,12.47-24.81,21.18l-3.22,2.38,2.24,1.45-1.41.96c-.26.18-1.1-.56-1.27-.72l-7.85-2.56,7.19-8.79-2.04-.1c-.27.03-.56.08-.54-.24l-.11-1.64s.27-.79.38-1.05c.11-.29.37-.36.66-.43l1.88-.45c.4-.1.47-.85.7-1.61l2.38-.28c-.55,1.01-.83,3.47-.94,5.05l7.81-8.39c-1.74,6.33-7.98,8.16-8.75,15.11,7.56-8.49,14.72-14.88,23.92-20.68l16.47-10.38ZM599.08,615.88l-.65.02.65.02h.67l.65-.02-.65-.02h-.67Z" fill="#c4ac80"/>
  <path d="M805.39,448.32c-6.23,22.07-22.8,32.86-25.22,39.97l-8.94,26.22-2.87,1,2.07-8,3.99-10.94,1.56-8.13c.13-2.92,2.59-2.92,4.19-6.93.51-1.27,1.84-3.3,2.99-3.87l2.12-1.04c6.65-7.42,12.36-15.59,15.93-24.88l1.94-4.08,2.24.68Z" fill="#ab9268"/>
  <path d="M430.45,421.63l-5.07,9.93c-3.13,6.13-7.36,12.58-12.6,17.12-10.18,8.83-24.91,12.06-32.11,27.02-.34-.27-1.56,1.22-1.63.84l-.61-2.18c2.92-5.84,7.04-11.24,13.01-15.01l17.2-10.85c6.8-4.29,10.62-11.84,14.52-18.6l-5.13.54,3.32-6.94,4.37,3.05,3.43-5.97,1.29,1.03Z" fill="#c4ac80"/>
  <path d="M336.71,295.59l16.61.2c.71,0,2.85.58,2.34.98l-14.87.19c-9.54.12-18.2,4.97-26.78,9.12l3.82,3.69-1.21.84c-2.02-1.23-4.78-2.54-6.58-2.96l-.71-1.46,15.53-7.62c-11.38,1.36-20.92,3.83-32.45,6.38-.31-.47-.04.84.29,1.08l.98.72.11,1.03-1.16,1.33-19.97-.68c10.14-2.53,14.06-.79,18.05-4.72l14.17-3.73c10.87-2.86,21.12-4.52,31.84-4.39Z" fill="#ac9a7a"/>
  <path d="M721.2,576.22l-1.12-.06,1.33-5.7,2.01-4.1c3.86-7.86,11.11-16.28,18.57-22.19,9.52-7.54,18.13-16.52,24.42-26.12.41-.63,1.75-1.83,1.93-2.54l2.87-1c-3.43,7.26-8.25,14.69-14.57,20.6l-23.15,21.63c-5.73,5.36-8.74,12.89-12.31,19.48Z" fill="#bfa57a"/>
  <path d="M715.16,537.97l-.07,8.44c-2.15,1.51-2.54,5.16-1.74,8.07l-1.92,2.03c-3.49,9.74-8.23,18.5-13.99,26.96l-9.84,13.18-1.37-3.34,4.84-16.02-1.51,11.59,12.59-18.73,5.96-13.1c1.13-2.48.82-5.32.3-7.65.09,0,1.04-.66,1.14-1l2.05-6.77,3.56-3.69Z" fill="#baa173"/>
  <path d="M730.33,649.35c-2.16,1.38-4.3,2.04-6.22,1.27,6.34-6.22,10.89-13.55,12.92-21.82,4.81-3.12,4.85-9.3,5.49-14.28.91-5.16.95-9.94-.05-14.9,2.16-7.78,5.18-15.81,12.93-19.37-6.27,6.45-9.1,13.51-9.56,22.08l-.65,12.14c-.53,9.84-4.96,18.59-9.97,26.83l-4.9,8.05Z" fill="#a0865f"/>
  <path d="M299.96,524.64l-7.26,23.91-1.32-4.13,5.57-19.31c-7.31,8.58-13.91,15.59-24.3,19.25-6.54,2.31-11.99,6.41-15.58,12.43l-3.94,6.59-1.45-.94c4.19-9.82,9.06-16.31,19.34-20.8,9.61-2.91,17.44-8.51,22.89-17.02l3.76-2.2,2.3,2.21Z" fill="#998362"/>
  <path d="M414.53,408.5l4.99,1.14,2.08.2c.42.04.49.58.86,1.45,3.81-1.13,9.97.55,12.28,3.49-.24.7-1.19,3.11-.72,3.01l1.72-.03-3.01,2.03v-2.91c.42-4.54-4.82,3.24-9.24,1.44l1.13-3.48.5-1.42c.12-.35.18-.7-.13-.7-.43,0-1.4.13-1.41.44l-.03,1.51-1.3-.49-20.7,12.81-1.31-1.57,4.24-2.93,10.99-8.85c-9.34,3.11-17.61,7.97-27,13,6.99-7.05,15.87-10.49,25.06-14.47l-1.22-1.11-.91-1.54,3.14-1.02Z" fill="#a58d6a"/>
  <path d="M366.37,278.62l2.29,1.08c.13.04.43-.07.68-.15l-.82,2.36-1-.07-5.78-2.13-2.14-.03-2.98-.83-8.09-.98c-13.04-1.21-25.46,2.62-36.91,7.74l-.99,2.24c-4.48.69-9.64,2.44-13.81,4.22l-2.4-1.39,10.95-5.37c13.7-6.72,28.56-11.67,44.31-10.18,5.12.48,12.63,2.08,16.68,3.49Z" fill="#c4ac80"/>
  <path d="M315.71,507.79v4.77s-1.21,1.9-1.21,1.9c.04,12.5,3.19,24.45,9.22,34.77l1.12-1.35c-3.15-7.7-5.97-15.42-7.31-23.55,2.48.98,3.99,3.34,4.9,5.85-.53.5-.71,3.72-.19,4.88l6.15,13.55,5.4,10.08c-.68-.31-1.39-.88-2.84-2.03l-1.61,3.01c-11.59-11.93-16.8-31.59-16.99-48.2-.48,1.11-1.53,3.47-1.53,4.41l.7-7.21,4.17-.88ZM325.35,548.4l-1.53,1.05,2.91,3.3-1.38-4.35Z" fill="#a58d6a"/>
  <path d="M916.26,514.3c-1.62-3.33,1.26-5.67-1.39-10.4,1.15-.51,3.14-2.09,3.17-3.05.07-2.24.17-6.25,1.13-9.57,2.3,4.76,1.95,13.48,4.42,11.52l2.79-2.22c1.23-.97,3.15-2.01,3.9-1.62l-4.55,6.17,4.29,3.9-4.65,2.94,1.03,4.63-4.01-2.28-3.27,11.2c-1.16-5.38-1.26-7.91-2.88-11.23Z" fill="#d4b06f"/>
  <path d="M618.6,344.39l5.7,4.4c11.92,9.22,26.99,12.5,42.17,11.8,1.02-.05,3.36.73,3.99,1.14l-2.47.13c-.75.12-.77,2.19-.59,2.44l-9.17-.67c-7.84-.58-16.06-2.11-22.7-5.18-2.13-.98-4.34-1.85-6.2-.74l-3.85-3.44c-1.1-.98-3.65-2.34-5.41-2.17l-.62-2.44-.9-2.13c-.35-.3-1.65-1.44-1.17-1.02l-3.39,2.23c-2.84-4.41-5.12-8.94-6.82-14.03l.85-1.1,6.01,11.68,4.56-.9Z" fill="#9b7f56"/>
  <path d="M483.78,349.56l9.98,7.91c5.34,4.24,6.98,18.2,12.52,21.99,6.03,4.13,6.61,8.73,4.49,14.83l-2.86-2.51c.63-3.36.28-4.7-1.95-7.72l-9.28-12.55c-3.33-4.5-5.48-10.52-9.46-14.37l-7.72-7.47,4.29-.11Z" fill="#ad8d5d"/>
  <path d="M879.13,424.78l2.45-1.69,2.76,13.37,5.99,39.09c.98,6.39.96,12.03.5,18.7-2.86-2.58-2.55-4.8-2.74-7.68l-.47-7.49c-1.17-18.55-4.39-36.56-8.5-54.3Z" fill="#7c5f3f"/>
  <path d="M702.39,483.39l3.61,5.47c3.62,5.48,6.03,12.77,7.25,19.33l-3.03-.63c-3.04-11.58-7.94-22.45-16.59-31.35-7.52-7.73-15.8-15.42-26.41-18.19l-4.98-1.3,1.9-.93c.26-.12.22-.45.14-1.23,1.23.67,4.15.9,5.86,1.18,13.6,5.19,24.6,16.05,32.25,27.64Z" fill="#af966c"/>
  <path d="M359.27,352.25c-7.81,7.47-21.85,25.05-22.74,32.14l-.14,1.08c-.36.14-1.89,1.7-2.24,2.55l-4.34,10.6-1.33,3.89-.89,3.06-1.01,2.97c-.05.14.05.55.04.71l-1.61,2.36-.28-3.98c-.04-.24-.24-.94-.17-1.18l2.05-5.99c4.36-18.04,14.9-34.55,28.03-47.65l4.62-.56Z" fill="#caaf7e"/>
  <path d="M800.57,257.08l-2.94.82-9.89-11.77c-3.53-4.2-7.63-8.35-12.1-11.82-1.79-1.39-6.78-1.81-7.77-3.76s-1.78-6.04-1.73-8c0-.38,1.09-1.81,1.46-1.97l5.56-2.24c2.5-1.01,7.03,2.15,7.78,4.53.98,3.13-.44,7.26-2.49,9.47l10.26,10.81,11.84,13.93ZM768.83,227.73c1.85,2.43,4.56,4.15,6.39,3.5,2.81-.99,4.28-4.11,4.16-6.04-.2-3.37-2.69-5.03-6.4-4.48l-4.15,7.03Z" fill="#998362"/>
  <path d="M579.3,620.76l10.26,1.76c1.58.27,4.1,1.62,4.79,2.94l-10.45-1.08-5.44-.42-3.11-.7c-10.28.31-21.29,3.23-32.57,7.31l3.7-3.5-8.99,2.97-1.57-.34c-.46-.1-1.44,1-1.86,1.22l-2.55,1.34c6.83-8.99,15.29-8.04,22.86-9.25,8.54-1.36,16.69-3.67,24.92-2.26Z" fill="#c4ac80"/>
  <path d="M336.64,139.86l-1.18-2.13c23.31-10.66,47.78-21.76,74.01-25.42-25.53,9.04-49.71,16.06-72.83,27.55Z" fill="#91795d"/>
  <path d="M687.63,571.78l-6.43,21.6-2.94,8.48,4.07-4.07,1.91-2.63c.39-.62,1.71-1.96,2-1.84l1.37,3.34-5.45,6.69c4.11-.31,6.6.49,7.8,4.76l6.29.41,1.04-.13,1.74,4.4c.27.63-.87,2.5-1.05,2.51-1.06-2.05-1.83-3.64-2.68-4.55s-4.27-.16-5.43.34c-.65-1.55-1.72-4.03-2.68-5.26-1.1-1.41-5.71-2.06-6.97-.83l-3.74,3.64c-1.31-2.07-1.69-4.82-1-7.04l5.69-18.37,3.93-12.62,2.52,1.17Z" fill="#af966c"/>
  <path d="M896.16,376.29l1.5.4c.52,0,.23-1.83.61-2.26,7.23,18.85,11.85,38.67,16.16,59-.17.78-.43,2.33-.84,2.18l-2.05-.77c-3.98-19.95-9.02-39.12-15.38-58.55Z" fill="#a0865f"/>
  <path d="M555.3,691.76l12.04,5.19-.79-7.09,4.03,2.29,9.97,1.33,3.05,4.09-4.18.47-9.32-2.21-.67,3.82c-8.66-1.8-16.56-5-24.3-9.99l-10.76-6.93,1.58-2.26,11.65,6.76,7.71,4.52Z" fill="#ad8d5d"/>
  <path d="M647.18,568.46c-9.83,17.2-27.4,14.03-41.26,28.62l-3.44,6.36-2.38.28c-.22.76-.3,1.52-.7,1.61l-1.88.45.53-2.74c6.33-10.63,16.02-17.32,27.68-21.09,7.11-3.7,14.25-7.05,18.49-13.43l2.96-.06Z" fill="#bfa57a"/>
  <path d="M687.63,571.78l-2.52-1.17,2.94-6.56c5.27-11.77,4.29-25.36-2.04-36.33l2.38-3.27c7.94,9.22,13.52,21.26,11.48,34.06-1.01-10.73-3.31-21.51-10.41-30.27,7.76,21.37,5.37,26.89-1.83,43.54Z" fill="#998362"/>
  <path d="M622.21,436.05l2.05,1.76-2.15,2.26c-1.5,2.01,4.02,2.07,4.34,4.4,4.83,12.3,17.06,19.07,29.93,24.06,7.76,3.01,14.85,6.89,20.96,12.02l-1.07,1.12c-15.82-11.72-30.78-13.73-40.58-22.26-5.2-4.53-8.28-9.44-12.25-15.14.71,5.23,2.06,10.2,4.23,14.24l-1.46,2.22c-2.92-5.67-5.68-11.82-6.24-18.08.35-2.44,1.09-4.96,2.24-6.6Z" fill="#a79273"/>
  <path d="M141.13,341.39c-7.95,17.27-14.17,35.39-20.12,53.13-.35-.12-1.63-.57-1.57-.55l.16-4.54c5.23-16.83,11.74-33.66,19.06-49.83l.16,1.62c0,.5,1.76.1,2.31.17Z" fill="#af966c"/>
  <path d="M545.11,265.98l-2.15-.22c-.62-.03-.22-1.81-.11-2.68l1.46-11.09-2.18-7.78c-1.37-4.88-1.02-9.78,2.67-13.33,5.95,10.92,6.07,24.08.31,35.1Z" fill="#c59e5f"/>
  <path d="M345.44,885.62l.2-2.44c19.44,9.15,39.89,16.12,61.09,21.77,3.56.95,6.78,1.27,9.13,4.47l-25.88-6.78-44.54-17.02Z" fill="#8a7257"/>
  <path d="M267.84,688.96l-1.27,1.45c-2.24-.85-6.12,1.1-8.26,2.49-5.34-.39-9.66-5.28-12.64-9.18-9.21-12.05-8.86-26.07-.85-38.17,4.3-6.49,1.28-15.78-1.33-21.91l1.58-.54c4.93,9.42,5.21,19.42-1.05,28.55-7.84,11.44-.78,33.66,13.49,40,3.42-3.08,6.85-3.89,10.33-2.69Z" fill="#998362"/>
  <path d="M395.16,327.89l-.83,2.02-.24.48-17.89,9.19c-2.37,1.22-4.47,6.6-5.43,9.06l-1.39-.88c.52-.88.9-2.72,1.16-4.31l-11.27,8.8-4.62.56,1.29-3.44,3.13-.71c.83-.19,1.35-1.64,1.6-2.89l10.81-7.35-1.22-.97c.73-.12,2.92.1,3.55-.28l7.11-4.33c1.88-1.15,4.61-2.49,6.66-3.01l3.82-.98,3.76-.97Z" fill="#bfa57a"/>
  <path d="M688.39,524.46l-2.38,3.27c-13.81-23.95-46.64-19.88-56.52-47.41,7,10.4,15.65,17.99,27.25,22.86,12.08,5.06,23.35,11.65,31.65,21.28Z" fill="#8a7257"/>
  <path d="M664.28,454.56c.08.78.12,1.1-.14,1.23l-1.9.93c-4.5-1.18-9.38-2.14-14.45-2.72-8.49-.01-15.81-3.75-21.35-9.53-.31-2.33-5.84-2.39-4.34-4.4l2.15-2.26,9.04,8.87c4.92,4.82,13.27,4.69,19.47,5l.57-.72-7.17-10.35c5.86,5.22,11.83,10.52,18.11,13.94ZM653.86,452.05l1.23.07-1.23-.07Z" fill="#91795d"/>
  <path d="M783.85,780.11l-4.46,6.43c2,3.01,2.97,8.2.49,11.28-2.94,3.65-8.11,3.2-12.05-.16l-8.49,7.64-3.07-1.09,9.98-8.83c.02-2.92.54-6.77,2.41-8.21s4.64-1.91,7.73-2.03l3.75-3.98.36.82,3.35-1.87ZM769.19,794.75c.44,2.74,5.1,4.63,7.66,2.62,2.25-1.77,3.23-5.03,1.68-7.86-1.22-2.22-5.71-2.63-7.4-.45.58.68,2.99,3.29,2.17,3.68l-4.11,2.01ZM769.75,790.24l-.02.65v.67l.02.65.02-.65v-.67l-.02-.65Z" fill="#af966c"/>
  <path d="M781.08,668.32l-1.84,3.02-1.19,3.14c-23.46,1.7-42.21,23.73-42.02,47.73-.81-2.84-.8-6.71-1.16-10,3.59-17.42,16.08-32.77,33.72-38.46l6.8-.92,4.55-5.63,1.15,1.13Z" fill="#c4ac80"/>
  <path d="M138.17,438.03l-3.75,28.38-.94,8.03-.66,15.23c-.09,2.12-.55,3.61-3.01,4.03l.87-20.14c.59-13.5,3.35-26.39,5.75-39.08l1.74,3.55Z" fill="#87683f"/>
  <path d="M697.42,450.5l-3.04.14-.87-1.19-8.97-9.22-12.5-12.36c-7.5-7.41-14.2-14.99-18.68-24.13l1.33-1.95,4.92,7.59c10.53,16.24,24.52,24.26,37.81,41.12Z" fill="#c4ac80"/>
  <path d="M651.45,722.28l.1,1.01c-.86,0-2.96.45-3.27.89l-18.83-2.11-3.16.04-13.95-4.79c-4.71-1.62-9.1-4.15-13-6.73.16-.45.27-1.85-.05-2.25l1.13.05c7.28,3.6,14.46,7.62,22.6,9.24-1.3-2.31-1.06-2.09-.27-2.43,6.78,3.56,11.64,4.73,18.38,5.66l10.3,1.42Z" fill="#c4ac80"/>
  <path d="M442.47,405.9c1.49.42,4.44,1.97,5.44,2.67-3.19,1.67-4.63,2.38-5.94,3.64l-3.34,3.22-2.89,2.33-1.72.03c-.47.11.48-2.31.72-3.01-2.31-2.95-8.47-4.62-12.28-3.49-.37-.87-.44-1.41-.86-1.45l-2.08-.2.06-1.1,1.95.2,10.62-3.59c3.22-1.09,6.84-.24,10.32.75Z" fill="#8c6e48"/>
  <path d="M242.9,236.89l-5.26,5.89c-10.81,12.12-21.33,24.15-30.52,37.2l-1.77-2.58c9.12-12.44,19.06-24.49,29.86-36.07l5.35-5.74,2.33,1.31Z" fill="#af966c"/>
  <path d="M818.36,648.36l-2.38.04c11.89-13.33,21.38-39.42,11.09-51.9l-14-16.98,1.29-1.27,10.31,11.75c15.92,17.26,7.92,41.12-6.31,58.36Z" fill="#91795d"/>
  <path d="M287.86,295.9l-26.51,11.47,22.32-2.15,7.04-1.51c-4,3.93-7.91,2.19-18.05,4.72l-7.47,1.86-9.08,2.04-.35-4.7c9.68-5.82,20.53-9.89,31.11-14.01l1,2.27Z" fill="#a58d6a"/>
  <path d="M713.77,678.77c-.58.36-2.19-.83-2.69-1.57,5.9-7.57,10.26-15.67,14.47-24.73l-4.18,3.04-19.96,13.01-1-1.97,23.7-15.93c1.92.77,4.06.11,6.22-1.27-5,10.27-10.12,20.2-16.56,29.42Z" fill="#a58d6a"/>
  <path d="M138.31,582.57l-1.72.25c-.66-1.46-1.72-4.08-1.99-6.16l-3.87-29.24-.76-19.68c4.66,3.19,2.41,7.14,2.8,10.72l1.08,10.12,4.47,33.99Z" fill="#7c5f3f"/>
  <path d="M881.58,423.09l-2.45,1.69c-4.04-17.46-9.03-34.5-15.43-51.63l2.89-.55c6.27,16.76,11.42,33.19,14.99,50.49Z" fill="#9b7f56"/>
  <path d="M537.5,630.05c-4.82,5.12-10.23,8.79-17.39,9.99-3.51.59-4.65,5.3-5.55,8.39-1.48,5.1-1.62,9.3,1.94,12.89l-1.28,2.1c-1.69-2.37-6.64-5.81-5.43-9.71l3.04-9.84c1.88-6.09,6.21-9,12.33-8.84l6.36-2.76,2.55-1.34c.42-.22,1.4-1.32,1.86-1.22l1.57.34Z" fill="#b59c6f"/>
  <path d="M814.44,634.57c-2.91,7.3-5.63,15.48-13.32,19.04,6.54-8.82,12.57-17.16,13.1-28.32.49-10.23-12.68-18.17-9.38-27.52,1.4-3.98,2.95-9.23,8.69-9.06-7.67,5.02-8.63,14.63-3.13,21.47,5.85,7.28,7.5,15.67,4.03,24.37Z" fill="#ac9a7a"/>
  <path d="M320.72,723.33l-1.15,1.12-3.07-3.45-.36-.64-6.38-5.12c-12.71-10.2-29.23-9.44-44.06-4.96,2.72-2.52,6.37-3.29,9.77-4.14,1.7-7.09-2.36-13.24-8.89-15.72l1.27-1.45c7.11,2.46,9.95,8.84,11.27,16.76,15.16-2.33,29.15,3.18,38.23,13.74l.16.15,3.22,3.72Z" fill="#ac9a7a"/>
  <path d="M439.73,314.87l10.89,8.81-3.08.17,1.85,1.52c.4.33,1.41,1.48.98,1.03l-3.93-.56c-.68-.1-1.64,1.05-2.13,1.47-1.97.17-5.52.6-6.96,1.76-1.61,1.31-1.91,5.02-2.1,7.74-3.24-2.63-1.36-6.95,2.38-9.91-1.95-1.46-5.35-1.37-8.02-.57l-2.01.55-4.98-1.3c-.48-.09,1.09-.71,1.37-.73l9.17-.61-.64-2.72,1.11-2.06,3.02,3.51c1.35.84,2.94.96,4.31.39l-3.48-5.58-2.79-4.18c1.3.73,3.37,1.39,5.06,1.26ZM443.62,324.43l-.39-3.86-2.06,2.51c-.24.29,1.39.93,2.45,1.35Z" fill="#b39f7c"/>
  <path d="M150.82,390.16c-5.33,15.48-7.94,33.26-12.65,47.87l-1.74-3.55c2.94-15.56,7.08-30.99,11.99-46.03l.26,1.83c-.08.5,1.71,0,2.13-.11Z" fill="#9b7f56"/>
  <path d="M732.86,666.98l1.34,2.58c-10.95,9.5-21.47,11.39-30.98,19.47-.49-1.49-1.88-2.51-2.83-2.81l-2.13-1.22c4.46-1.54,9.92-4.09,12.82-7.8.5.74,2.11,1.93,2.69,1.57l19.08-11.79Z" fill="#cdad79"/>
  <path d="M684.2,797.59l.32-1.67c7.8,2.95,20.63.52,27.18-6.37,2.58-2.72,5.88-6.09,7.2-9.74l6.89-19c2.47-6.82,9.26-9.43,15.67-6.76-18.1-.69-13.91,13.98-21.85,28.32-7.47,13.5-21.93,19.84-35.41,15.22Z" fill="#91795d"/>
  <path d="M670.6,491.3v2.47s-22.84-11.75-22.84-11.75l-10.99-7.93c-4.77-3.44-8.07-8.5-10.56-13.35l1.46-2.22c4.58,8.52,11.46,15.65,20.27,20.44l22.67,12.34Z" fill="#baa173"/>
  <path d="M277.96,407.73c-8.57,6.08-17.97,10.85-28.18,14.95-5.12,2.05-9.9,5.35-14.23,8.6l-3.77,2.34.18-3.32c.05-.93,1.83-1.57,2.69-1.85l1.77-.53c.29-.17.41-.98.48-1.27l.84-1.12,5.82-2.16,11.23-5.61c7.99-3.99,15.43-7.59,22-13.08l1.17,3.04Z" fill="#b29a75"/>
  <path d="M261.25,187c-7.41,5.85-14.75,12.41-22.13,19.09l-13.26,12.02-2.3-1.55,11.82-11.13,8.48-7.59,14.74-12.16,2.65,1.32Z" fill="#b59c6f"/>
  <path d="M149.41,627.2l-.43,3.14c-4.44-10.7-8.31-21.86-10.23-33.93l-2.16-13.6,1.72-.25,1.69,5.61,8.91,35.15c.32,1.26.63,2.95.51,3.87Z" fill="#8a7257"/>
  <path d="M482.34,410.63l4.35.15.73.05.3,1.65c-1.58.84-4.65,1.13-7.12,1.36l-20.03,1.84-12.1.33-9.83-.59,3.34-3.22,7.56,1.09,17.17-.78,15.64-1.89Z" fill="#c4ac80"/>
  <path d="M805.39,448.32l-2.24-.68c.35-.74.76-2.67.83-3.54.07-.81-.87-2.05-1.67-2.38l2.34-9.95c.68-2.9.29-6.37.06-9.44-.59-7.83-3.66-13.76-8.23-19.91,7.43,4.27,9.97,12.84,11.28,20.6,1.47,8.67-.13,17.34-2.38,25.3Z" fill="#8a7257"/>
  <polygon points="843.59 752.2 819.27 783.23 812.32 790.49 811.23 787.95 820.47 777.48 840.87 752.11 843.59 752.2" fill="#b29a75"/>
  <path d="M423.68,306.31l2.66,1.16c.43.19,1.44-.61,1.31-1.04l2.87,4.25.4,1.72c.05.22.53-.52.84-.87l2.9,2.07,2.79,4.18,3.48,5.58c-1.37.57-2.96.45-4.31-.39l-3.02-3.51-18.93-13.04c4.08-1.92,8.9,4.72,8.97,1.67l.04-1.79Z" fill="#a79273"/>
  <polygon points="878.15 608.48 878.93 609.98 865.07 652.32 861.88 652.35 862.17 651.36 862.99 650.17 872.87 620.28 876.1 608.92 878.15 608.48" fill="#a0865f"/>
  <path d="M267.4,615.16l-4.75,1.54c-3.9-3.55-7.66-7.31-9.98-11.82l1.84-1.52,2.59,3.96.75-1.49-8.21-21.3-1.02-2.13.07-1.03,2.72-.91,2.28,6.95,4.16,12.05c2,5.79,4.75,12.08,9.55,15.69ZM259.25,608.46q0-1.22,0,0,0,2.34,0,0ZM261.24,610.41l-.02.65v.67l.02.65.02-.65v-.67l-.02-.65Z" fill="#9a866b"/>
  <path d="M450.62,323.68l10.11,6.83c4.42,2.98,9.23,5.39,12.71,8.83l-2.03,2.39-4.53-3.38c-.48-.36-2.38-1.11-2.75-.67l-2.47,2.98.84-5.28-7.68-1.36c-1.6.71-1.29.55,1.68-.87-1.11-.85-3.2-2.11-4.76-2.7l-4.24-1.63-3.2-1.52c.49-.42,1.45-1.57,2.13-1.47l3.93.56c.43.45-.58-.7-.98-1.03l-1.85-1.52,3.08-.17Z" fill="#d6bc89"/>
  <path d="M351.76,456.52l-4,14.07c-1.27,4.45-4,7.93-6.12,11.43l-1.17-3.63-2.16,1.99,5.03-7.86c3.96-6.19,6.57-17.75,3.64-22.04l-.28-2.24c-.05-.38-.36-.49-1.32-.8l1.31-.42,6.5-2.59c.68,4.11-4.8,7.58-1.43,12.08Z" fill="#c4ac80"/>
  <path d="M121.02,394.52l-9.67,40.31-1.94.78c-.41.16-.7-1.37-.89-2.16,3.08-15.17,6.65-29.71,11.09-44.02l-.16,4.54c-.06-.02,1.22.42,1.57.55Z" fill="#a0865f"/>
  <path d="M709.54,548.42c-.1.34-1.05.99-1.14,1-1.65-7.32-2.51-14.98-5.87-22.28-5.11-11.11-12.84-21.09-22.74-27.46l1.49-1.64,7.34,6.2c13.38,11.3,20.39,26.98,20.91,44.18Z" fill="#998362"/>
  <path d="M360.66,345.77c-.25,1.25-.77,2.71-1.6,2.89l-3.13.71c-7.22,3.69-17.78,9.61-23.05,16.08l-.93-1.39c-.21-.45-1.94-.36-2.02.13l-.25,1.53-4.93,2.88-4.05,1.22,1.54-2.68,25.9-17.13,12.52-4.24Z" fill="#a0865f"/>
  <path d="M700.42,666.56l1,1.97-4.15,2.16.19-1.77c.08-.32-.3-1.45-.56-1.26l-1.89,1.39-7.15,5.5c-4.24,0-8.52,1.96-12.77,4.93l-.58-2.18-10.1,1.92c1.35-1.19,3.99-2.22,5.93-2.84,7-2.25,14.51-4.1,21.34-7.76,6.13-3.29,9.2-9.91,14.78-14.3-1.43,2.96-3.41,6.08-5.39,8.74l-1.51,2.02c-.3.4.55,1.16.87,1.47Z" fill="#b39f7c"/>
  <path d="M775.98,488.44l-7.35,5.47c-10.69,7.96-21.51,14.97-31,23.57l-1.39-1.28c7.09-8.2,16.67-14.22,25.7-20.95l18.23-13.75c-1.6,4-4.06,4-4.19,6.93Z" fill="#bfa57a"/>
  <path d="M400.22,425.41l1.31,1.57c-8.1,5.02-15.77,11.7-21.77,19.62l-6.23,10.93.75-4.7-3.95-2.37,1.9-6.99,1.35,2.11.11,2.59,13.81-13.75,12.7-8.98Z" fill="#af966c"/>
  <path d="M439.73,314.87c-1.69.13-3.76-.53-5.06-1.26l-2.9-2.07-1.25-.86-2.87-4.25-11.02-13.65-.98-3.09c5.22,2.68,10.32,6.68,14.18,11.83l9.9,13.34Z" fill="#87683f"/>
  <path d="M356.62,551.78l5.94.78c1.07.14,3.18-.54,4.11-.94l2.97-.13,1.12-.06-.12,1.81-.99.24-4.04.95c-14.92,1.51-28.74-5.3-38.15-16.8l2.26-1.17c7.71,7.47,16.06,13.9,26.91,15.32Z" fill="#af966c"/>
  <path d="M165.23,353.48l-12.75,31.87-1.66,4.82c-.42.1-2.21.61-2.13.11l-.26-1.83c4.01-12.28,8.69-24.49,13.98-36.19l2.83,1.21Z" fill="#ab9268"/>
  <path d="M670.46,361.73c10.99.3,22.14,2.38,32.07,7.5l-1.53,2.27-2.67-1.05c-1.34-.53-3.91-.71-5.15.57-7.57-5.36-16.99-6.08-25.78-6.72-.19-.25-.16-2.32.59-2.44l2.47-.13Z" fill="#ab9268"/>
  <path d="M315.76,446.85l-2.29,4.86c-.97,2.07-2.81,5.59-2.16,7.64l-3.93,2.83-16.54,12.82-2.33-1.71c7.52-5.73,15.09-11.92,20.97-19.92,1.73-2.36,4.21-5.78,4.93-7.97l1.34,1.45Z" fill="#af966c"/>
  <path d="M746.58,476.21c-3.17,12.68-8.27,25-12.86,37.28l-1.79-3.14,11.48-33.87,1.22-1.84c.04.28.22,1.68.2,1.65,0-.02,1.48-.22,1.74-.08Z" fill="#a78d66"/>
  <path d="M622.21,436.05c-1.15,1.64-1.88,4.16-2.24,6.6l-.63-7.05c-1.41-15.82,6.34-38.81,21.32-42.83-11.77,8.18-18.51,20.62-18.48,34.86l.02,8.42Z" fill="#91795d"/>
  <path d="M290.84,475l-6.32,5.45c-7.05,6.08-12.72,13.75-17.76,21.27l-3.33-.25c6.52-10.78,14.99-20.5,25.08-28.19l2.33,1.71Z" fill="#d6bc89"/>
  <path d="M676.37,703.25l-1.1,3.01c-13.55,3.89-28.18,2.24-41.83-1.19l-2.99-.75-2.34.14-2.7-3.08,27.51,4.56c5.49.91,20.21-1.06,23.43-2.69Z" fill="#a78d66"/>
  <path d="M341.63,315.68l1.01,2.46c-9.02,1.08-18.51,4.13-26.44,8.95l-12.49,7.59-1.79-2.03,14.89-8.76c7.82-4.6,16.35-6.99,24.82-8.21Z" fill="#c4ac80"/>
  <path d="M398.68,414.39l-5.74,3.82-6.5,5.13c-7.01,5.53-9.57,14.46-12.84,22.22l-1.35-2.11,4.02-10.27c3.18-8.12,9.64-15.02,17.34-18.53,1.18-.53,3.83.03,5.08-.27Z" fill="#caaf7e"/>
  <path d="M513.35,74.81l-1.89-1.7.03-16.15c-3.77-1.37-6.25-4.6-5.49-8.01s4.86-6.99,8.38-5.18c2.61,1.34,4.48,4.09,4.37,6.69-.09,2.19-2.54,4.43-5.09,5.93l-.31,18.41ZM510.51,54.08c3.67.25,5.77-1.58,6.14-3.68.27-1.56-2.1-4.78-3.75-4.42-2.38.51-4.27,2.11-4.61,3.47s1.02,4.55,2.22,4.63Z" fill="#91795d"/>
  <path d="M283.8,354c-11.01,7.31-16.38,19.25-19.83,32.75-.05-14.52,8.31-28.18,18.35-38.25l1.48,5.5Z" fill="#91795d"/>
  <path d="M818.36,648.36c-7.55,9.14-17.45,15.37-29.8,17.36-2.38.39-5.55,1.72-7.48,2.6l-1.15-1.13c1.03-1.27,4.5-1.78,6.15-2.98l14.64-10.66.66,1.53-8.29,7.77c10.04-2.12,16.53-8.52,22.88-14.44l2.38-.04Z" fill="#ac9a7a"/>
  <path d="M239.54,422.55l-1.79,2.98-.84,1.12-2.25,1.8c-.86.28-2.64.92-2.69,1.85l-.18,3.32c-4.85,6.09-8.41,12.61-11.69,20.3.14-15.08,10.39-26.64,20.84-35.55l-1.39,4.19Z" fill="#91795d"/>
  <path d="M906.13,622.91c.18-.59-.05-2.37-.19-2.89s-1.21-.71-1.76-.65l7.72-32.65c.33-1.41,1.99-1.33,3.02.23l-7.35,31.91-1.43,4.04Z" fill="#91795d"/>
  <polygon points="241.76 816.19 239.44 817.56 234.58 813.44 217.42 796.56 209.55 788.45 209.95 784.96 218.18 793.86 229.74 805.24 241.76 816.19" fill="#998362"/>
  <polygon points="209.95 784.96 209.55 788.45 200.98 779.08 184.42 758.6 186 756.1 209.95 784.96" fill="#af966c"/>
  <polygon points="739.5 818.13 742.44 819.41 733.92 825.9 710.34 841.86 709.37 839.24 739.5 818.13" fill="#998362"/>
  <path d="M599.82,620.59l.47,2.77-1.73.75c-.6.26-1.23,1.72-.94,2.06l-3.27-.71c-.7-1.32-3.21-2.67-4.79-2.94l-10.26-1.76c2.2-.22,5.01-1.14,6.78-2.5l7.93-6.08,3.11-3.05,2.04.1-7.19,8.79,7.85,2.56Z" fill="#b59563"/>
  <polygon points="350 575.42 362.83 585.27 369.8 591.33 376.74 599.25 374.69 600.51 371.33 596.78 362.28 588.78 346.35 575.82 350 575.42" fill="#baa173"/>
  <path d="M673.56,724.07c-.17-.23-1.21-.73-1.71-.73s-1.55.5-1.5,1.02h-.99c.56-.34-1.74-1.07-2.27-1.07h-15.52s-.1-1.01-.1-1.01c1.61.22,4-.2,7.03-.78l-6.3-3.04,5.13.66-1.37-1.71c15.24,7.68,28.65,3.1,43.33-5.27-6.2,7.22-17.31,11.17-25.71,11.93Z" fill="#9b7f56"/>
  <polygon points="812.32 790.49 805.65 797.64 797.17 806.13 782.56 819.53 781.29 817.16 792.28 807.23 806.3 793.36 811.23 787.95 812.32 790.49" fill="#a58d6a"/>
  <path d="M248.7,581.38l-.07,1.03c-.08.17-.52,1.19-.55,1.15-.01-.02.51,1.12.59,1.33.43,5.1,2.68,13.65,5.84,18.47l-1.84,1.52c-3.72-4.5-5.28-10.5-6.48-16.42l.56-17.75c0-.54-.71-2.83-1.11-2.26l-.03-2.05,1.29-5.94,2.54,12.99-.74,7.93Z" fill="#b59c6f"/>
  <polygon points="136.59 671.18 134.51 673.5 122.55 642.67 124.13 638.24 136.59 671.18" fill="#b59c6f"/>
  <path d="M317.54,507.03c2.68,7.72,2.5,20.06,12.17,29.43l-2.26,1.17c-1.83-2.24-3.98-4.6-5.02-7.45-.91-2.51-2.42-4.87-4.9-5.85-.99-3.76-1.8-7.98-1.81-11.78v-4.77s-.04-5.27-.04-5.27l1.86,4.51Z" fill="#caaf7e"/>
  <path d="M693.5,449.45c-.51-.02-.82,1.19-.94,1.71,6.69,11.99,10.88,24.6,13.45,37.7l-3.61-5.47.8-.77c-4.2-15.22-10.67-29.07-18.66-42.37l8.97,9.22Z" fill="#998362"/>
  <path d="M898.28,374.43c-.39.43-.09,2.27-.61,2.26l-1.5-.4-12.3-31.66,2.63-1.14,10.36,25.55,1.42,5.4Z" fill="#af966c"/>
  <path d="M527.57,742.07l-2.13,2.58c-7.52-2.29-15.85-2.36-22.88.71.08-.67.13-2.79-.63-2.88l-2.57-.56c9.06-3.69,19.21-3.64,28.22.15Z" fill="#ad8d5d"/>
  <path d="M403.83,569.18l-1.33,1.44c-2.34-.67-4.31-2.63-4.71-5.34-4.62-5.99-11.41-8.88-18.1-11l-3.03-.96-1.03-.1-5,.02.12-1.81c13.38-.76,27.91,6.36,33.08,17.76Z" fill="#a0865f"/>
  <path d="M609.6,327.61c-.89,0-1.8-1.95-1.96-2.88l-1.56-9.32-1.41,7.57-.27-8.24.67-4.12c1.28-7.89,4.24-16.83,11.34-22.34-7.45,12.75-9.97,26.02-6.82,39.34Z" fill="#9b7f56"/>
  <path d="M546.89,791.27l-2.27-1.13c4.63-11.22,3.85-24.21-3.44-34.47l1.82-1.44c7.89,10.74,9.38,24.9,3.89,37.04Z" fill="#7c5f3f"/>
  <path d="M324.6,422.46l.04,5.1.02,1.01-1.19,2.1c-1.03,1.82-1.1,5.44-1.02,7.86l.22,6.04-.15,2.13-2.43-1.1.14-8.24-4.47,9.49-1.34-1.45,5.97-18.02,2.07-5.46,2.15.54Z" fill="#9b7f56"/>
  <path d="M161.22,657.86l-1.63,2.85-10.36-26.54c-.37-.94-.35-3.02-.24-3.82l.43-3.14,2.19,4.36,9.61,26.3Z" fill="#a78d66"/>
  <path d="M710.71,741.33c-6.81,8.15-8.68,23.85,1.68,29.67-2.92.93-5.73-1.15-7.38-3.75-4.37,7.97-10.03,14.78-18.76,16.87l.11-2.04c3.5-.86,8.8-3.4,10.96-6.52l7.1-10.25c-2.69-9.24-.93-18.51,4.85-25.2l1.44,1.22Z" fill="#a79273"/>
  <path d="M380.67,475.71c-5.09,10.58-3.39,19.45-6.72,25.58l-.73-4.86-2.68,3.07-.81-9.78.93-3.54.69,1.36,1.33,7.76c1.31-8.2,2.5-14.41,5.76-20.93l.61,2.18c.07.38,1.29-1.11,1.63-.84Z" fill="#a58d6a"/>
  <path d="M887.13,671.34l-1.08-.04c.05-.16.81-1.34,1.09-1.05v1.09Z" fill="#b59c6f"/>
  <polygon points="900.28 642.48 888.92 672.23 888.17 671.3 887.14 670.26 887.69 667.84 897.12 642.39 900.28 642.48" fill="#b59c6f"/>
  <path d="M591.39,720.42l1.1.83c-.14.43.49,1.94.96,2.28l9.5,6.9,9.09,5.64-.56,1.23c-8.07-2.39-23.07-12.41-26.86-19.92l.51-1.97,2.76,2.64c.69.86,2.6,2.03,3.51,2.37Z" fill="#caaf7e"/>
  <path d="M595.38,710.12l8.02,7.2v.94s-1.15.2-1.51.27c-.29.06-.25.4-.07.62l1.56,1.82,13.15,10.31c-7.89-3.14-13.96-8.38-20.5-13.71l-4.95-6.26.53-2.5,3.76,1.31Z" fill="#ac9a7a"/>
  <path d="M117.07,614.7l-1.79.45c-.31.12-.44.96-.77,1.38l-6.98-29.88,3.07.35,6.46,27.7Z" fill="#8a7257"/>
  <path d="M333.79,558.69l10.16,11.29,6.05,5.44-3.64.4-6.56-5.49c-4.01-3.3-7.95-6.72-10.44-10.66l1.61-3.01c1.45,1.15,2.16,1.72,2.84,2.03Z" fill="#9b7f56"/>
  <path d="M510.76,394.3c-1.56,4.49-4.07,8.09-8.96,10.7l-14.09,7.5-.3-1.65,6.77-9.55-1.34,4.98,10.34-5.01c3.82-1.85,4.14-6.4,4.72-9.48l2.86,2.51Z" fill="#b59c6f"/>
  <path d="M546.89,791.27c-4.47,9.9-13.08,17.32-23.53,20.29-.67-1.21-2.71-2.26-3.86-2.31l2.69-1.24c10.49-1.81,18.56-8.49,22.43-17.87l2.27,1.13Z" fill="#91795d"/>
  <path d="M609.6,327.61l-.31,1.16c-.18,3.55,1.7,8.6,5.08,9.91l.03,1,1.25.83,2.95,3.88-4.56.9-6.01-11.68-.85,1.1c-1.09-3.27-3.07-8.64-2.49-11.74l1.41-7.57,1.56,9.32c.16.93,1.06,2.89,1.96,2.88Z" fill="#87683f"/>
  <path d="M832.12,531.3c-1.76-2.15-4.01-4.68-6.09-5.46-9.54-3.62-22.5,9.52-22.46,25.5-3.58-5.98.05-11.73,2.66-16.78,3.08-5.95,8.18-10.16,14.92-10.29,4.97-.1,10.52.53,10.97,7.04Z" fill="#a19178"/>
  <path d="M918.05,500.85c-.03.96-2.01,2.54-3.17,3.05,2.65,4.72-.24,7.07,1.39,10.4l-7.32,5.22,4.76-8.14-12.83-2.38,12.77-2.71-4.33-6.67c-.2-.31.95-1.49,1.21-1.22l1.37,1.45c.69.73,2.57,2.98,3.41,2.47l2.75-1.47Z" fill="#b59563"/>
  <path d="M280.83,424.96c-3.17,5.29-8.2,9.05-14.19,11.6-5.54,2.35-9.3,6.04-14.04,9.68l7.19-8.83c3.56-4.37,8.94-9.44,12.76-12.64l-5.29,9.33c5.38-2.7,9.73-6.26,13.58-9.14ZM265.4,435.06l-.65.02.65.02h.67l.65-.02-.65-.02h-.67Z" fill="#9a866b"/>
  <path d="M298.05,395.62l-7.9,17.67-6.15,9.42c-.51.78-2.68,1.8-3.17,2.24,4.05-6.77,7.51-13.14,11.06-20.26l4.52-9.06,1.64-.02Z" fill="#9a866b"/>
  <path d="M281.98,413.48l-5.8,8.67c-.6.9-2.69,2.05-3.63,2.62l8.08-12.24,1.34.95Z" fill="#9a866b"/>
  <path d="M517.47,662.29l1.15,1.14,4.04,6.02c2,2.98,4.75,5.33,8.07,8.47l.27-3.88,4.95,6.43-1.58,2.26c-3.92-1.68-8.23-4.01-11.2-8.19l-7.93-11.12,1.28-2.1.97.98Z" fill="#c4ac80"/>
  <path d="M195.27,501.62l-1.08-3.11c-.24-.69-2.13,1.04-3.13,1.87l.72-3.58-5.04-.67,5.19-2.16-.91-2.04c-.12-.28-.02-1.5.21-1.3l2.33,2.05,1.92-7.38,1.72,7.02,3.62-2.1-2.43,3.79,6.6,2.19c-5-.25-8.25,1.15-9.73,5.41Z" fill="#caaf7e"/>
  <path d="M734.2,669.56l-1.34-2.58,10.61-10.46c5.87-5.78,8-13.75,12.53-21.36-2.63,13.58-11.53,25.49-21.8,34.4Z" fill="#998362"/>
  <path d="M528.55,215.28l-1.69,4.7c-5.54-4.18-12.1-5.53-19.07-5.33l-.58-2.91c7.3-.95,14.73.28,21.33,3.54Z" fill="#ad8d5d"/>
  <path d="M655.2,543.4c-1.93,4.4-2.57,8.65-3.26,14-.48,3.71-2.99,7.95-4.77,11.06l-2.96.06c8.19-12.31,3.74-22.58,11.13-29.2.71,1,.29,3.09-.15,4.08Z" fill="#af966c"/>
  <path d="M266.77,501.73c-4.87,7.27-8.65,15.7-11.68,23.95l-1.67-.26c-.36-.1-.49-.31-1.13-1.04,2.9-8.01,6.73-15.58,11.15-22.89l3.33.25Z" fill="#baa173"/>
  <path d="M736.03,722.21l1.69,5.93c6.54,2.69,15.41,5.24,16.41,13.88-5.28-9.09-15.4-13.2-25.94-11.53l-1.92-1.58,8.98-.83c-1.01-5.09-1.39-10.99-.38-15.88.36,3.29.35,7.16,1.16,10Z" fill="#998362"/>
  <path d="M373.95,501.29c1.15,7.64-2.25,17.61-10.22,22.45,4.29-8.24,7.56-15.29,6.81-24.24l2.68-3.07.73,4.86Z" fill="#8c6e48"/>
  <path d="M117.07,614.7l7.06,23.54-1.59,4.43-8.03-26.14c.34-.42.46-1.27.77-1.38l1.79-.45Z" fill="#a0865f"/>
  <path d="M230.58,697.18c-11.25-10.71-14.15-34.24-2.68-43.69-3.99,7.82-6.07,13.91-5.2,22.04.16,7.58,4.43,14.02,7.88,21.66Z" fill="#8a7257"/>
  <polygon points="633.44 705.07 634.22 706.46 655.94 717.41 657.31 719.13 652.18 718.46 630.1 707.65 630.46 704.32 633.44 705.07" fill="#c4ac80"/>
  <path d="M257.61,220.37l1.42.49-1.82,7.7c-.69,4.11-7.16,5.68-10.5,5.12l5.16-1.87c2-1.32,3.82-4.84,3.77-6.82-1.66.19-3.68.45-3.56-.19l.68-3.65c-2.7-1.17-6.53-.23-8.15,2.66l-1.11-1.22c.84-1.84,2.55-3.75,4.52-4.33,1.7-.5,4.29.28,6.08.89l3.52,1.22Z" fill="#a79273"/>
  <path d="M781.28,674.24l1.03-2.09c2.98.29,6.49.96,9.6,2.44,6.8,3.25,14.49,2.83,20.03-2.6l9.79-9.59.86.8-7.98,8.6c-4.35,4.69-11.66,8.11-17.85,5.97-5.32-1.84-10.42-3.9-15.48-3.53Z" fill="#9a866b"/>
  <path d="M499.82,149.91c-2.86,4.57-5.86,8.24-10.19,12.38-1.34-1.33-2.79-3.09-3.14-3.94,3.71-3.84,8.22-7.23,9.69-11.43l3.63,2.99Z" fill="#8c6e48"/>
  <path d="M658.26,550.49l-1.64-4.12-1.42-2.97c.44-1,.85-3.09.15-4.08,1.37-4.23,9.28-9.75,15.06-11.98l-8.24,9.14c-3.11,3.45-3.81,9.72-3.9,14.01Z" fill="#9b7f56"/>
  <path d="M686.36,782.09l-.11,2.04c-8.07,1.93-13.89-6.61-17.04-4.49-.83.56-.96,2.97-.28,3.72l2.43,2.7-1.2,1.19c-4.06-5.25-9.21-9.81-15.79-11.08l-.94-1.99c4.52.51,9.14,2.99,12.92,5.94,7.47-5.99,10.59,4.27,20.02,1.97Z" fill="#998362"/>
  <path d="M528.55,104.94l-4.12-2.01c3.03-4.95,6.47-9.09,10.78-13.43l3.09,2.75-9.75,12.69Z" fill="#8c6e48"/>
  <polygon points="387.49 288.57 388.6 289.82 389.65 289.72 387.39 291.87 374.52 284.96 368.52 281.91 369.34 279.55 377.01 282.41 382.08 281.68 382.66 282.3 379.52 283.33 387.49 288.57" fill="#b29a75"/>
  <path d="M653.43,774.18l.94,1.99c-7.94-1.53-16.59,1.43-21.76,8.36l-8.9,11.93-.5-1.43,3.67-6.21c5.78-9.79,15.41-15.9,26.55-14.64Z" fill="#a19178"/>
  <path d="M519.5,809.25c1.15.05,3.2,1.09,3.86,2.31-6.36,1.81-13.08,1.87-19.48.19.03-1.4-.07-1.73,0-1.94l.7-1.43,7.09.56,7.82.31Z" fill="#b59563"/>
  <polygon points="782.77 199.59 799.74 215.78 797.86 217.82 786.35 206.74 779.98 201.03 782.77 199.59" fill="#a0865f"/>
  <path d="M211.96,380.98c3.2-1.2,6.91,1.35,8.21,4,1.4,2.85-1.01,6.87-3.59,8.15-3.1,1.54-6.97-.41-8.06-2.76-1.55-3.34-1.01-7.73,3.44-9.39ZM217.24,390.03c1.66-1.49,1.76-4.24.48-5.74-1.38-1.61-4.09-2.03-5.34-.54-1.47,1.76-2.73,3.18-2.69,4.34s1.81,3.19,2.92,3.51,3.52-.58,4.63-1.58Z" fill="#998362"/>
  <path d="M803.16,447.63l-1.94,4.08-.23-2.03-9.92,15.7-5.78,11.22-2.12,1.04c-.45-.19-.75-.26-.74-.54.01-.26.44-1.94.63-2.23l9.01-13.35c4.41-6.54,8.56-12.61,10.25-19.8.8.33,1.74,1.56,1.67,2.38-.07.87-.48,2.8-.83,3.54Z" fill="#ac9a7a"/>
  <path d="M341.64,482.02c-4.52,7.48-4.29,14.68-5.95,21.57l-.42-3.11-3.56,3.63-.77-7.49,2.4,3.82c.79-7.14,2.47-13.82,4.98-20.07l2.16-1.99,1.17,3.63Z" fill="#a58d6a"/>
  <path d="M506.95,976.73c-1.69-4.63.02-8.09,3.3-9.45,2.64-1.09,6.71.71,7.82,3.6,1.29,3.35.09,6.23-3.82,8.46-1.82,1.04-6.53-.5-7.31-2.62ZM510.77,969.31c-1.78.74-2.82,4.29-2.2,6.15.5,1.51,3.79,2.1,5.91,1.16,1.54-.68,2.29-3.42,1.44-5.35-.7-1.58-3.08-2.82-5.15-1.96Z" fill="#91795d"/>
  <polygon points="816.74 233.74 813.87 234.76 809.31 229.66 797.86 217.82 799.74 215.78 816.74 233.74" fill="#af966c"/>
  <path d="M256.1,312.33c-.2,0-.38-.02-.5.06l-1.87,1.24-13.78,8.29c2.73-6.96,9.79-10.67,15.8-14.29l.35,4.7Z" fill="#8c6e48"/>
  <path d="M822.49,568.53c-5.99-3.97-10.6-11.8-10.47-19.59,2.61,6.88,6.55,14.58,10.88,18.81l.78.76c10.32,7.42,19.15,18.97,18.22,32.01-2.32-6.85-3.13-13.98-7.89-19.13l-10.87-11.76-.65-1.09Z" fill="#998362"/>
  <path d="M821.49,497.47l-.51,1.38c-12.21,2.69-18.35,14.33-14.49,26.84-4.97-5.91-3.39-12.65.16-19.16,2.46-4.51,8.63-9.16,14.85-9.07Z" fill="#a79273"/>
  <path d="M411.38,409.52l.91,1.54-13.61,3.33c-1.26.3-3.91-.27-5.08.27l.9-1.62c.2-.39-1.85-.55-1.82-.51l-1.16-1.1,5.03-1.04,14.84-.87Z" fill="#a78d66"/>
  <path d="M503.4,140.01c.12,3.04-1.91,7.22-3.58,9.89l-3.63-2.99,4.22-12.05.3,1.53c.04.26.23.15.49-.1l1.99-1.87.22,5.59Z" fill="#b59563"/>
  <polygon points="373.53 457.52 370.6 468.58 368.27 466.49 370.34 450.44 374.28 452.82 373.53 457.52" fill="#9b7f56"/>
  <polygon points="759.33 805.3 742.44 819.41 739.5 818.13 756.26 804.21 759.33 805.3" fill="#a78d66"/>
  <path d="M531.58,151.76l4.78,4.33c.75.68,1.74,2.29,2.1,3.13s-2.51,3.37-3.29,2.7c-2.87-2.48-6.89-7.59-8.69-10.79.73-.77,2.6-1.62,3.19-1.08l1.9,1.72Z" fill="#7c5f3f"/>
  <polygon points="733.72 513.49 731.13 520.4 736.23 516.21 737.62 517.48 729.51 527.42 727.81 520.47 731.93 510.35 733.72 513.49" fill="#a0865f"/>
  <path d="M906.13,622.91l-5.85,19.58-3.16-.09,3.85-10.97,1.27-2.9-.26-1.29,2.19-5.72v-2.13c.56-.06,1.62.13,1.77.65s.37,2.29.19,2.89Z" fill="#a0865f"/>
  <path d="M652.05,743.58l2.41,2.05c-7.96.76-17.09,1.52-25.57-3.06l23.16,1.01Z" fill="#d6bc89"/>
  <path d="M814.36,578.25l-1.29,1.27c-6.06-7.36-13.16-16.34-9.85-26.87,1.32,10.34,4.86,18.43,11.14,25.6Z" fill="#af966c"/>
  <path d="M370.6,468.58l.05,17.6-.93,3.54c-2.11-7.7-2.44-15.55-1.45-23.23l2.33,2.09Z" fill="#8c6e48"/>
  <path d="M415.65,289.69l.98,3.09-8.6-4.2-16.91-5.23c8.99-1.23,17.06,2.5,24.53,6.34Z" fill="#8a755d"/>
  <path d="M743.58,331.39l-2.95,3.82c-.72,1.03,3.04,3.71,4,2.91l3.51-2.89-3.49-3.31,4.64-2.06c-.25.9-1.38,3.6-.48,3.83l4.42,1.12,2.55.64c.36.09.31,1.29-.05,1.25l-2.73-.28c-2.06-.21-7.34.74-7.45,3.11l-.53,11.14h-1.58s-.36-12.46-.36-12.46l-3.92,2.48,1.23-3.73-8.09-.98,11.27-4.61Z" fill="#c4ac80"/>
  <path d="M427.01,210.47c-.28-2.98-.41-5.97-2.08-7.4-2.55-2.18-4.45-2.43-8.37-2.72,3.67-.91,7.84-2.51,10.05-5.15l.35-5.51,1.71,10.33-1.66,10.44Z" fill="#b39f7c"/>
  <path d="M267.4,615.16l9.58,7.19c-.39.86-1.88,2.31-2.53,2l-2.46-1.2c-3.73-1.82-7.03-3.8-9.35-6.45l4.75-1.54Z" fill="#8c6e48"/>
  <path d="M99.72,503.01l-2.18.83c-.67.26.04,2.53-.08,3.29l-1.58,9.32-1.08,1.73c-.26.42-1.99-.24-1.73-.65.86-1.4,2.67-5.05,2.86-6.23l-12.25-2.37,9.33-1.62c.87-.15,2.99-.52,2.91-1.32-.06-.6-.59-2.03-.94-2.62l-3.11-5.28,7.85,4.93Z" fill="#b59563"/>
  <path d="M424.61,414.83l-1.13,3.48c4.42,1.81,9.66-5.97,9.25-1.44v2.91s-2.28,1.85-2.28,1.85l-1.29-1.03-3.43,5.97-4.37-3.05,1.34-1.8c.4-.52,1.2-1.82.8-2.33l-1.79-1.96.52-3.27,1.3.49,1.07.17Z" fill="#b39f7c"/>
  <path d="M497.96,98.79l-3.65,2.24-7.4-8.4c-.15-.16,1.5-2.11,2.33-2.64.69-.44,2.57,1.4,3.14,2.08l5.58,6.72Z" fill="#8c6e48"/>
  <path d="M332.88,365.46l-4.25,5.22c-4.97,6.1-9.06,12.14-13.02,18.98,1.22-5.95,4.61-11.11,8.23-15.81l5.84-8.12.25-1.53c.08-.49,1.8-.57,2.02-.13l.93,1.39Z" fill="#a19178"/>
  <path d="M525.46,136.17l2.27,7.73-4.26,1.85c-1.6-2.86-2.8-6.55-3.15-9.59.57-.69,1.91-2.7,2.5-2.2l2.65,2.22Z" fill="#b59563"/>
  <path d="M542.99,754.23l-1.82,1.44c-3.54-4.97-9.88-9.23-15.74-11.02l2.13-2.58c6.15,2.58,11.48,6.78,15.42,12.16Z" fill="#91795d"/>
  <path d="M402.5,570.63l1.33-1.44c5.48,4.41,8.38,13.03,7.44,20.31-2.05-7.21-4.98-13.2-8.77-18.86Z" fill="#8c6e48"/>
  <path d="M691.68,698.38c-4.69,3.8-10.41,6.16-16.41,7.88l1.1-3.01,13.92-7.06,1.39,2.19Z" fill="#bfa57a"/>
  <path d="M682.32,597.78l-4.07,4.07,2.94-8.48,1.31.5,6.52-21.57c.39,9.04-4.02,16.9-6.7,25.48Z" fill="#c4ac80"/>
  <path d="M386.98,614.16l-.26,1.25.21,1.45-1.48-.03-10.76-16.33,2.05-1.27c3.95,4.51,7.49,9.71,10.24,14.92Z" fill="#998362"/>
  <path d="M328.85,742.28l-2.12,1.86c-.06-6.68-3.73-13.96-7.16-19.69l1.15-1.12c4.48,5.18,7.33,12.16,8.13,18.95Z" fill="#9a866b"/>
  <path d="M726.27,728.91l1.92,1.58c-6.79,1.07-12.94,5.41-17.47,10.84l-1.44-1.22c4.68-5.41,9.65-10.52,17-11.2Z" fill="#c4ac80"/>
  <path d="M526.54,126.53l.4-2.68c.11-.71-.91-1.22-2.22-1.98l9.89.08c1.33,0,2.28,4.58.93,4.63l-9-.05Z" fill="#ad8d5d"/>
  <path d="M623.71,796.47c-3.19,4.27-6.93,7.3-12.59,8.18-5.18.81-10.65-1.17-13.96-5.2l.04-1.19c3.53,2.84,7.5,5.2,11.72,5.2,4.74,0,8.46-2.52,11.81-5.89l2.48-2.53.5,1.43Z" fill="#8a7257"/>
  <polygon points="345.65 883.17 345.44 885.62 327.61 877.19 327.87 874.81 345.65 883.17" fill="#91795d"/>
  <path d="M244.61,223.81c-.49,4.15,3.17,7.58,7.25,7.99l-5.16,1.87-3.8,3.22-2.33-1.31,3.99-4.27c-1.91-3.15-2.29-6.04-1.07-8.73l1.11,1.22Z" fill="#8c6e48"/>
  <path d="M918.47,541.72c1.29-.33,4,1.54,4.38,2.76.43,1.4-1.26,4.14-2.67,4.69-1.96.77-4.04-.73-4.78-2.7-.53-1.41,1.19-4.28,3.07-4.76Z" fill="#c59e5f"/>
  <path d="M820.98,498.85l.51-1.38,11.51.17c3.77,2.31,7.18,6.63,9.78,9.62,2.37-.55,4.67-.41,6.5,1.06l-8.46-.11c-3.57-8.34-11.79-11.13-19.84-9.36Z" fill="#9a866b"/>
  <path d="M375.63,553.23l1.03.1,3.03.96-9.21.47c7.44,2.63,14.67,4.17,21.23,8.86l-22.23-7.83.16-2.31.99-.24,5-.02Z" fill="#ac9a7a"/>
  <path d="M703.22,689.03l-11.54,9.35-1.39-2.19c2.83-1.43,6.1-4.53,8.17-6.59.49-.23,1.49-.58,1.6-1.1l.33-2.28c.94.29,2.34,1.32,2.83,2.81Z" fill="#ab9268"/>
  <path d="M102.3,541.71c1.24-.51,3.7,2.13,3.84,3.46.16,1.51-1.29,4.02-2.9,4.28-1.32.21-3.73-1.42-4.28-2.69s.94-4.06,3.34-5.05Z" fill="#b59563"/>
  <path d="M102.2,469.78c1.27-.81,4.42,1.18,4.69,2.51.31,1.51-.67,3.83-2.23,4.7-1.23.69-3.76-.28-4.41-1.46-.84-1.52-.28-4.33,1.95-5.75Z" fill="#b59563"/>
  <path d="M228.58,643.96c.07-1.7-2.99-4.91-4.51-4.81-1.8.12-4.37,1.68-6.25,3.01.03-2.73,4.67-6.02,7.47-4.37,2.43,1.43,4.92,4.4,5.37,6.49.65,3.01-.67,7.33-2.45,9.27l.38-9.59Z" fill="#8a755d"/>
  <path d="M918.63,469.72c1.32-.16,3.51,2.14,3.67,3.44s-1.78,3.83-3.09,3.95-3.54-1.22-4.11-2.41c-.78-1.64,1.31-4.7,3.53-4.98Z" fill="#b59563"/>
  <path d="M245.06,623.09l-1.58.54c-3.79-8.91-12.27-11.83-22-14.84,10-.54,19.25,6.03,23.58,14.29Z" fill="#8a7257"/>
  <path d="M512.43,453.43c-.94-1.54-3.09-4.36-4.31-5.39l4.39-4.52,4.38,4.52c-.97.79-2.99,3.29-4.46,5.39Z" fill="#caaf7e"/>
  <path d="M321.86,758.76l-1.34,1.63c-3.72-1.64-9.74-1.57-14.27-.58l-5.65,4.42c1.72-5.34,7.77-8.15,13.12-7.09l8.14,1.62Z" fill="#8a755d"/>
  <path d="M419.65,642.4c2.23,3.38,4.22,7.19,5.33,10.9l-3.27-.36-3.07-5.71-2-4.45,3.01-.38Z" fill="#a78d66"/>
  <path d="M326.61,409.25l-.12,3.29-.8,4.06-1.09,5.86-2.15-.54c-.36-.11-.92-.94-.86-1.32l1.02-4.03,2.11-8.93.28,3.98,1.61-2.36Z" fill="#baa173"/>
  <path d="M499.79,122.29c-.73,2.2-4.76,4.05-6.94,4.39-.7.11-2.91.71-2.97.11l-.48-4.78,10.38.28Z" fill="#ad8d5d"/>
  <polygon points="483.78 349.56 479.49 349.67 471.41 341.73 473.44 339.34 483.78 349.56" fill="#bfa57a"/>
  <polygon points="501.7 105.74 497.25 107.13 494.31 101.04 497.96 98.79 501.7 105.74" fill="#ad8d5d"/>
  <polygon points="528.55 104.94 526.49 111.53 522.28 108.64 524.43 102.93 528.55 104.94" fill="#b59563"/>
  <polygon points="335.68 503.59 336 507.5 335.37 512.75 333.25 511.46 331.7 504.12 335.26 500.49 335.68 503.59" fill="#7c5f3f"/>
  <path d="M511.89,934.27c1.07-.29,3.4,1.55,3.61,2.63.25,1.27-1.5,3.7-2.72,4.12s-3.81-1.34-4.16-2.58,1.9-3.81,3.27-4.18Z" fill="#b59563"/>
  <path d="M684.52,795.92l-.32,1.67c-5.56-1.91-10.37-5.59-14.04-10.34l1.2-1.19,6.44,5.95c1.42,1.31,4.87,3.21,6.72,3.91Z" fill="#87683f"/>
  <path d="M567.22,128.72c-.53,1.05-3.96,1.59-4.84.81s-1.04-3.34-.56-4.52c.45-1.09,2.69-2.37,3.7-1.77,1.25.76,2.42,4.05,1.7,5.48Z" fill="#ad8d5d"/>
  <path d="M835.07,639.5l6.69-22.32c.32,7.81-2.43,15.5-6.69,22.32Z" fill="#8a755d"/>
  <path d="M336.77,742.97l-2.18,1.09-5.77.99-.37,8.22-1.65.03-.08-9.15,2.12-1.86c2.19-.06,5.69.07,7.93.69Z" fill="#8a755d"/>
  <circle cx="460.54" cy="126.87" r="3.2" fill="#ad8d5d"/>
  <rect x="511.5" y="179.82" width="2" height="15.98" fill="#91795d"/>
  <path d="M309.32,306.18l.71,1.46-5.16,1.36c-4.36,1.15-8.46.19-12.25.11l1.16-1.33,9.97-.66,5.57-.93Z" fill="#c4ac80"/>
  <polygon points="681.29 498.04 679.8 499.68 670.61 493.77 670.6 491.3 681.29 498.04" fill="#ab9268"/>
  <path d="M744.65,331.93l3.49,3.31-3.51,2.89c-.97.8-4.72-1.88-4-2.91l2.95-3.82c.07-1.76.9-.24,1.07.54Z" fill="#d6bc89"/>
  <path d="M323.71,789.21c-.43-.01-1.08,1.68-1.04,2.28l-1.59-3.53c-2.15-5.42-5.96-8.21-11.6-9.29,7.88-1.42,11.76,4.51,14.22,10.54Z" fill="#8a755d"/>
  <path d="M290.38,399.43l-8.4,14.04-1.34-.95,4.88-10.15,1.15-.75.89-2.41c.09-.24.41-.54.68-.47l2.15.68Z" fill="#ac9a7a"/>
  <path d="M597.2,798.25l-.04,1.19c-2.01-2.44-3.99-6.18-3.53-9.39.49-3.42,3.1-7.42,7.41-7.81l-5.81,5.75c.14,4.52.66,7.26,1.98,10.25Z" fill="#9a866b"/>
  <circle cx="459.64" cy="892.88" r="3.04" fill="#a0865f"/>
  <path d="M599.25,885.74l2.27,1.84-13.63,2.67c2.86-4.38,7.61-3.57,11.36-4.51Z" fill="#9a866b"/>
  <circle cx="563.54" cy="892.88" r="3.04" fill="#a0865f"/>
  <path d="M531.58,151.76l-1.9-1.72c-.59-.54-2.46.31-3.19,1.08l-3.02-5.38,4.26-1.85,3.85,7.87Z" fill="#9b7f56"/>
  <path d="M511.65,851.45c.91-.61,4.05,1.44,3.77,2.47s-1.37,2.73-2.28,3.67c-.75.77-2.8-.68-3.41-1.57s.59-3.68,1.92-4.57Z" fill="#b59c6f"/>
  <path d="M322.67,791.49c-.05-.6.6-2.29,1.04-2.28l5.37,13.14c-3.65-2.59-6.15-7.76-6.4-10.87Z" fill="#ac9a7a"/>
  <path d="M394.62,293.56v3.4c-2.61-1.3-5.19-3.17-7.23-5.1l2.25-2.14,4.97,3.84Z" fill="#9b7f56"/>
  <path d="M515.33,342.62c.43.71-1.88,3.45-2.55,2.94l-3.41-2.6,3.17-4.96,2.79,4.63Z" fill="#cdad79"/>
  <polygon points="294.43 290.68 296.83 292.08 287.86 295.9 286.86 293.63 294.43 290.68" fill="#b29a75"/>
  <path d="M651.56,723.29h15.52c.53,0,2.83.73,2.27,1.06l-21.07-.17c.32-.44,2.41-.89,3.27-.89Z" fill="#ac9a7a"/>
  <path d="M246.19,588.46l-.55-20.01c.4-.57,1.11,1.72,1.11,2.26l-.56,17.75Z" fill="#a0865f"/>
  <path d="M328.9,763.35l-2.36-.31-6.02-2.65,1.34-1.63c2.7.54,5.05,2.18,7.04,4.59Z" fill="#998362"/>
  <path d="M614.37,338.68c-3.38-1.31-5.26-6.36-5.08-9.91l5.08,9.91Z" fill="#9b7f56"/>
  <path d="M597.12,609.13l-3.11,3.05,2.47-4.92.11,1.64c-.03.32.27.28.54.24Z" fill="#bfa57a"/>
  <polygon points="782.3 672.16 781.28 674.24 778.05 674.48 779.24 671.34 782.3 672.16" fill="#ac9a7a"/>
  <path d="M365.66,550.38c.24-.02.74-.02,1,.03v1.21c-.92.41-3.03,1.08-4.1.94-.06-.6.21-1.91.76-1.96l2.34-.23Z" fill="#a0865f"/>
  <polygon points="369.64 553.48 369.49 555.8 365.61 554.43 369.64 553.48" fill="#a0865f"/>
  <path d="M500.45,132.87l.27-5.44c.73,1.31.78,4.69-.27,5.44Z" fill="#b59563"/>
  <path d="M604.41,314.73l.67-4.12-.67,4.12Z" fill="#87683f"/>
  <path d="M321.59,420.6l1.02-4.03-1.02,4.03Z" fill="#9b7f56"/>
  <path d="M901.98,627.23l2.19-5.72-2.19,5.72Z" fill="#91795d"/>
  <path d="M324.56,406.46l2.05-5.99-2.05,5.99Z" fill="#baa173"/>
  <polygon points="369.64 551.49 366.67 551.62 366.66 550.41 369.64 551.49" fill="#91795d"/>
  <path d="M900.98,631.41l1.27-2.9-1.27,2.9Z" fill="#91795d"/>
  <path d="M673.56,724.07l-3.21.29c-.05-.52.99-1.02,1.5-1.02s1.55.5,1.71.73Z" fill="#ac9a7a"/>
  <path d="M255.6,312.39c-.05.63-.11.88-.41.98l-1.47.26,1.87-1.24Z" fill="#a58d6a"/>
  <path d="M368.66,279.7l-2.29-1.08,2.29,1.08Z" fill="#b29a75"/>
  <path d="M386.72,615.42l.26-1.25-.26,1.25Z" fill="#b59c6f"/>
  <path d="M388.6,289.82l-1.11-1.25,1.11,1.25Z" fill="#9b7f56"/>
  <path d="M615.65,340.51l-1.25-.83,1.25.83Z" fill="#9b7f56"/>
  <path d="M388.52,616.54l-.8.16.8-.16Z" fill="#998362"/>
  <path d="M328.74,765.22l-1.04-1.05,1.04,1.05Z" fill="#998362"/>
  <path d="M720.49,577.64c-.07-.26-.47-1.2-.4-1.48l1.12.06-.71,1.42Z" fill="#a79273"/>
  <path d="M841.15,751.24l.93-1.06-.93,1.06Z" fill="#b29a75"/>
  <path d="M862.17,651.36l.81-1.19-.81,1.19Z" fill="#bfa57a"/>
  <path d="M301.38,539.54l.69,18.62c2.03,22.64,12.8,42.47,30.99,55.82,2.54,1.87,4.62,4.07,6.48,6.61,10.63,7.58,22.73,12.28,35.35,15.56l4.71,1.23,3.03.94,2.04.18-3.82,1.06-1.27.5c-15.73-4.14-31.63-9.36-44.54-19.92-26.25-21.47-34.51-39.64-36.76-73.25-.28-4.2,1.26-9.48,2.12-13.44l.99,6.1Z" fill="#a58d6a"/>
  <path d="M318.6,474.7l-.73,9.03,6.47-10.45,1.61,3.36c-4.8,9.56-8.31,19.61-8.41,30.39l-1.86-4.51-.2-10.14-3.05,10.63-2.21.74-6.71,13.68-3.56,7.21-2.3-2.21,2.9-6.19c5.15-10.97,9.78-21.54,13.21-32.64.81-2.64,1.77-6.25,1.86-9.01l2.27-2.29.69,2.39Z" fill="#9b7f56"/>
  <polygon points="315.68 502.52 315.71 507.79 311.54 508.67 312.44 503.01 315.48 492.38 315.68 502.52" fill="#87683f"/>
  <path d="M729.14,494.19l1.06.32-3.33,15.01-1.38,6.04-.47-3.45-2.84,2.06,1.74-16.82.42-18.79c.17-.67,1.07,1.8,1.06,2.36l-.41,21.57,1.35-.47-.15-26.29c.58-.3,1.04,2.01,1.05,2.9l.21,18.94c.64-1.07,1.61-2.73,1.7-3.38ZM724.79,504.52l-.02.65v.67l.02.65.02-.65v-.67l-.02-.65Z" fill="#a78d66"/>
  <path d="M724.37,477.48l-1.28-7.04c1.18,1.87,1.33,4.71,1.28,7.04Z" fill="#a78d66"/>
  <path d="M408.73,319.8l6.61.31-1.02,3.38c-6.5-.02-12.94,2.43-19.17,4.39l-3.76.97-.12-1.76,1.46-1.72-3.28-2.64,4.42-.58-6.33-1.14,8.14-1.03c7.93-.9,9.77,3.52,13.06-.18Z" fill="#a78d66"/>
  <polygon points="389.45 322.73 392.73 325.37 391.28 327.09 368.43 325.21 377.63 323.58 382.67 322.94 389.45 322.73" fill="#8a7257"/>
  <path d="M418.64,647.23l3.07,5.71-.96,3.13-3.41-3.72,1.09-1.56c-8.09-11.41-18.81-19.57-32.07-23.18l-22-6c-9.13-2.49-18.4-5.3-24.81-12.3,8.68,4.69,16.43,9.18,26.01,11.19,10.01,2.1,20.35,3.62,29.17,8.7l10.83,6.23,13.09,11.81Z" fill="#a19178"/>
  <path d="M768.35,515.51c-.18.71-1.52,1.91-1.93,2.54l-.57-1.31-8.59,7.61c-7.73,4.96-14.8,9.46-21.46,15.69-5.59,8.11-9.91,16.3-13.7,25.45l1.33.88-2.01,4.1-4.33,1.12.73-6.9c-.33-2.29-.61-4.97-.14-6.53,5.01-4.85,5.54-15.55,12.49-21.49-3.64,10.49-10.49,18.19-10.53,29.1,5.1-11.87,10.31-23.07,20.01-31.94l8.67-6.19c9.25-5.06,16.12-11.95,22.11-20.12l-2.07,8Z" fill="#a79273"/>
  <path d="M715.08,546.42l.41,18.53-1.66,15.55-1.42-7.73.54-12.43.4-5.86c-.8-2.91-.42-6.56,1.74-8.07Z" fill="#ad8d5d"/>
  <path d="M713.26,508.18l3.34,14.34.51,1.61c.17.54-1,1.06-1.55,1.41-.85.54-1.4,2.44-1.39,3.58l.02,2.71c0,.6-1.28.74-1.85.64.41-8.42.02-16.8-2.11-24.91l3.03.63Z" fill="#9b7f56"/>
  <path d="M717.23,492.59c1.2,5.89,1.91,12.75,1.91,18.64l-1.54,5.45-1.45-11.29-2.09-13.8,1.66,2.99,1.51-2Z" fill="#9b7f56"/>
  <path d="M715.16,537.97l-3.56,3.69-.11-1.18.71-4.98.15-3.03c.57.1,1.86-.03,1.85-.64l-.02-2.71c0-1.14.54-3.04,1.39-3.58l-.4,12.43Z" fill="#ad8d5d"/>
  <path d="M712.23,581.46v.61s-.63,1.36-.63,1.36c-.35-.5-1.32-1.19-1.7-.9l-2.22,1.69.45,7.24-2.48-4.96c-.51-1.03-2.91-1.01-5.15-2.1l6.11-1.76,5.62-1.18Z" fill="#9a866b"/>
  <path d="M727.12,530.52l2.23-1.95-2.23,1.95Z" fill="#a0865f"/>
  <path d="M744.27,473.09l.98-3.58-.98,3.58Z" fill="#a78d66"/>
  <path d="M486.33,793.59c-3.33-4.45-6.46-6.76-5.14-16.38l1.02,1.12c.45,5.57,1.85,10.43,4.12,15.26Z" fill="#d6bc89"/>
  <path d="M429.54,404.77l2.6.37-10.62,3.59c-.61-.7-1.73-2.46-1.02-2.68l3.41-1.08,5.62-.2Z" fill="#baa173"/>
  <polygon points="418.6 407.62 419.58 408.54 419.52 409.64 414.53 408.5 418.6 407.62" fill="#baa173"/>
  <path d="M422.63,404.39l-3.14-.76,3.14.76Z" fill="#baa173"/>
  <polygon points="641.83 599.89 639.44 604.62 631.46 609.51 623.52 613.66 621.52 611.93 630.02 607 641.83 599.89" fill="#d6bc89"/>
  <path d="M656.32,553.54l.02-6.08-.02,6.08Z" fill="#9b7f56"/>
  <polygon points="518.6 125.98 505.95 125.72 506.23 123.31 517.89 122.65 518.6 125.98" fill="#d6bc89"/>
  <path d="M609.55,625.23c-5.18-.31,2.86-3.39.9-6.22l11.07-7.08,2.01,1.74c-4.06,2.13-8.67,4.74-12.23,7.53,11.66-.61,18.92-7.9,29.51-9.52-9.19,6.03-19.46,9.03-30.06,12.15l-1.19,1.39Z" fill="#b39f7c"/>
  <path d="M650.67,696.08l-.27.95-11.31.61c.5.83,2.07,1.74,3.55,1.86l-3.35.79-8.55-.35c-3.78-.16-6.44-.71-9.82.03l.4-2.1,9.73-.82,19.63-.99Z" fill="#a79273"/>
  <path d="M630.44,692.38c-.33.24-1.09,1-1.5.81l-1.6-.74c1.75-3.54,1.13-6.08-1.71-8.99l3.52,1.68c1.29.61,6.88-5.33,6.34-8.3-.4-2.2-1.69-5.1-2.99-8.38,2.07,1.27,4.68,4.42,4.95,6.64,1.1,9.01-10.02,10.07-7.01,17.28Z" fill="#a79273"/>
  <path d="M596.42,701.48c-.35.18,1.12,1.93,1.97,2.35l23.07,11.21c-7.72-.18-18.78-9.07-20.37-7.6l-.65.97-1.13-.05c-1.7-2.2-7.63-5.18-5.65-6.29.59-.33,2.09-.72,2.76-.58Z" fill="#a19178"/>
  <path d="M606.39,701.16l1.87,2.31,26.18,10.56c-2.1.1-4.87-.2-6.72-.95l-25.49-10.33,4.16-1.59Z" fill="#a19178"/>
  <path d="M628.12,704.46l2.34-.14-.36,3.33c-5.96-2.92-15.2-4.98-21.49-6.1,9.93-3.77,13.9,3.23,19.52,2.91Z" fill="#b59c6f"/>
  <path d="M644.4,693.51l.91.06,5.35,2.51-19.63.99-9.73.82,13.25-3.61,4.97-2.04c-.1.76.72,2.24,1.39,2.09l3.48-.81Z" fill="#87683f"/>
  <path d="M624.35,701.37l-1.96-1,1.96,1Z" fill="#a78d66"/>
  <path d="M381.84,641.44c-2.77.43-6.78.82-10,.69l-8.14-.33-11.21-.45-4.91-.64,8.08-.31,23.91-.34,1.27-.5.99,1.88Z" fill="#b39f7c"/>
  <path d="M411.38,312.43c.87.6,3.35,2.05,2.71,2.76-4.19,4.63-7.42.41-5.93,4.33l-4.74-.45,3.15-2.38,2.16-.63-9.34-5.3c-13.55-7.69-28.42-12.99-43.75-14,.51-.4-1.63-.97-2.34-.98l-16.61-.2.98-.91,23.91.07c17.14,3,32.56,9.63,47.32,18.71.59.06,1.62.19,1.94.02l.53-1.05Z" fill="#998362"/>
  <path d="M433.14,324.24l-9.17.61c-.28.02-1.84.64-1.37.73l-9.05-.09c-3.07-.03-6.32.67-9.07,2.03-1.57.78-4.24,1.88-5.79,2.07l-4.35.3.83-2.02c6.23-1.96,12.67-4.41,19.17-4.39l18.81.75Z" fill="#d6bc89"/>
  <path d="M264.92,524.62l-1.1-1.18c.31-1.03,1.55-4.12,2.59-5.09l9.97-9.27c-1.23,3.66-3.88,5.82-6.21,8.81l-5.25,6.73Z" fill="#9a866b"/>
  <path d="M380.91,332.85l-7.11,4.33c-.63.38-2.83.16-3.55.28l-7.36,1.25c-.24-.47-1.21-1.59-1.17-1.53.04.05,1.12-.47,2.59-1.09.89.57.46.29-.73-.77l17.32-2.48Z" fill="#9b7f56"/>
  <path d="M663.5,657.34l2-.15-2.38,5.38,4.59,3.03c.82.54.47,3.33.29,4.31l-.34,1.85c-.06.32.18.45.87.83l-3.24,2.6-1.7-1.24c1.76-2.02,2.92-3.93,2.91-6.07,0-1.63-3.09-3.92-4.6-3.61l-4.39,5.07c.86-5.27,1.2-7.86-.89-11.85l-5,7.2c.5-4.36,1.45-8.15-.04-11.67-.85-2.01-6.16-3.8-7.45-3.65l-3.67,5.25c2.17-7.24.39-12.71-6.74-15.78,7.24-2.21,8.16,5.98,10.4,8.63,4,1.74,9.58,1.78,11.41,8.03l5.55,5.8,2.41-3.97Z" fill="#ac9a7a"/>
  <path d="M643.53,686.5c-1.84,2.29-3.43,3.56-6.04,4.1,2.2-2.08,5.2-4.57,6.59-7.66,1.16-2.57-1.91-6.04-4.6-7.03l2.34-3.3c2.01-2.84,3.4-6.5,1.96-9.95-1.17-2.8-3.28-4.23-6.85-6.61,2.67-2.64,9.57,4.24,9.64,9.8.04,3.09-1.89,5.86-4.6,8.53,4.51,3.16,4.44,8.52,1.56,12.11Z" fill="#a79273"/>
  <path d="M642.21,692.4l2.19,1.11-3.48.81c-.67.16-1.49-1.33-1.39-2.09l1.39-.67c.36-.17.94.64,1.29.83Z" fill="#a79273"/>
  <polygon points="376.88 319.1 366.56 319.86 358.63 320.48 358.66 319.48 369.79 317.84 376.88 319.1" fill="#c4ac80"/>
  <path d="M642.57,585.31l-1.58-1.15c5.3-3.34,8.77-9.38,12.37-14.3-1.83,6.69-6.04,12.11-10.8,15.45Z" fill="#ac9a7a"/>
  <path d="M602.49,620.35l-2.24-1.45,3.22-2.38c-.05.45.08.9.37.75l1.57-.84,10.18-5.53.69.89-13.79,8.57Z" fill="#a19178"/>
  <polygon points="303.76 307.11 293.78 307.78 293.67 306.75 303.76 307.11" fill="#a58d6a"/>
  <path d="M310.65,287.86l.99-2.24c.19.6.35.87.67.82l1.82-.29,13.47-2.21,14.23-.91,10.77.88c11.23.92,22.47,4.1,31.18,11.2-19.25-8.79-38.46-12.58-59.05-9.41l-14.07,2.16Z" fill="#9a866b"/>
  <path d="M359.61,279.68l-2.98-.83,2.98.83Z" fill="#b29a75"/>
  <path d="M367.53,281.84l-5.78-2.13,5.78,2.13Z" fill="#b29a75"/>
  <path d="M635.53,358.45l-.69,1.58c8.41,5.04,16.88,7.86,25.88,11.29l16.41,6.25-.05,2.43-21.17-7.91c-9.78-3.66-19.14-7.72-26.59-14.37,1.86-1.11,4.07-.25,6.2.74Z" fill="#ac9a7a"/>
  <path d="M343.66,414.8l-5.91-11.7-9.27-.59,1.33-3.89,1.84,2.68c1.27,1.29,6.43-2.4,8.99-.25.38,4.17.84,6.88,2.48,9.57,1.26,2.06,5.47,3.41,7.27,2.78-.45-3.3-.28-4.94.84-6.91.15,7.09,4.48,11.73,11.54,12.56-3.6,1.43-7.14.44-9.94-3l-9.18-1.24Z" fill="#a19178"/>
  <path d="M343.66,414.8c-.13,3.75,1.18,7.45,4.24,10.56,3.22.35,5.7.04,7.31-1.12l4.42,3.12-5.52.07c-3.25.04-6.32-.65-9.79-1.23-2.8-.47-6.9,1.2-9.69-1.03-2.2-1.77-3.05-4.51-3.53-8.04l-5.42-.53.8-4.06c-.09.79,1.64,3.78,2.59,3.26l4.06-2.2.5-.49-.93-1.09c-.25-.29.22-1.81.52-1.57l1.53,1.2c2.81,2.21,5.59,2.69,8.9,3.14ZM334.22,413.8l-.6.38c-.85,3-.48,6.37,1.56,8.7,1.78,2.03,6.76,2.25,8.54,1.24l-1.37-8.37c-2.68.86-6.47-.14-8.13-1.95Z" fill="#a19178"/>
  <path d="M336.39,385.46l.14-1.08c3.17.06,8.29-.97,10.93-2.7l4.8-9.02c.39,3.96,1.69,5.88,4.3,9.12-2.03-.35-3.79-1.48-5.7-3.11-2.11,2.95-2.79,6.91-.92,10.06,1.48,2.5,4.08,4.11,8.35,5.52-2.29.8-6.55.15-8.31-1.65-2.1-2.13-2.53-6.08-2.41-8.89-3.67,1.22-7.37,1.99-11.17,1.76Z" fill="#a19178"/>
  <path d="M326.57,408.54l1.01-2.97-1.01,2.97Z" fill="#baa173"/>
  <path d="M578.46,623.96l-5.75,5.58c3.72,2.34,6.05,5.51,4.16,9.01-1.08-6.57-5.22-8.89-11.69-9.66,1.56-.57,3.19-.76,5.59-.68,1.91.07,4.51-2.88,4.58-4.95l3.11.7Z" fill="#ac9a7a"/>
  <path d="M697.29,608.39l-1.04.13c.25-1.86-.54-5.76-1.56-7.41-.64-1.04-4.23-.3-6.07.04.18-1.4,4.29-3.42,6.05-2.6,1.48.69,3.12,3.65,3.98,5.65,2.94-1.49,7.51-1.13,8.45,1.98l-6.83-.74c-1.16-.13-2.32,1.88-2.98,2.96Z" fill="#a79273"/>
  <path d="M570.59,692.15l-4.03-2.29.79,7.09-12.04-5.19.02-1.47c.76.46,2.85,1.09,3.76,1.31s2.11-1.1,2.64-2.07c8.38.54,18.27-3.4,21.28-12.64,1.29-3.98-.02-9.03-.27-14.38,5.16,9.15,4.07,20.44-6.96,26.34l-5.16,3.31Z" fill="#b39f7c"/>
  <path d="M676.26,481.68l1.07-1.12c7.24,6.08,14.61,13.12,17.92,21.92-6.64-7.77-11.66-15.36-18.99-20.8Z" fill="#8a755d"/>
  <path d="M398.68,329.6l-3.27,4.95c-1.5,1.91-1.92,5.24-.42,6.26,5.42,3.72,6.35-3.1,12.43-4.24l-6.45,8.72-1.89-1.69c-1.1-.98-6.71,3.97-4.82,13.1l-2.39-5.53c-3.63,2.65-5.97,5.91-5.29,9.84.57,3.31,3.11,6.01,5.96,8.58-2.2.23-4.49-1.75-6.25-3.96-6.19,5.44.07,10.03.14,14.89-6.01-4.4-5.91-10.93-1.75-15.86l.05-10.52c4.75-3.05,8.07-6.3,10.63-10.94-1.21-.75-3.21-2.87-3.3-4.32-.08-1.26.95-3.83,1.64-4.9l1.43-2.23c.26-.4-.71-1.13-1.04-1.38l.24-.48,4.35-.3Z" fill="#b39f7c"/>
  <path d="M370.77,348.64c-.91,2.33.19,6.17,1.97,7.94l6.69-5.32c-2.17,4.06-4.89,7.53-5.71,11.13-1.37,5.98,2.01,9.1,5.92,12.16-1.98-.46-3.99-1.7-6.4-3.34-3.89,6.75-1.05,15.5,6.21,18.06-5.68.58-7.93-4.05-9.32-6.71-2.48-4.76,1.43-8.55,1.62-12.24l.62-11.79c-3.45-1.95-4.71-7.87-3-10.77l1.39.88Z" fill="#a79273"/>
  <path d="M697.42,450.5c9.71,12.33,16.64,26.52,19.81,42.09l-1.51,2-1.66-2.99c-3.26-15.11-10.42-28.92-19.69-40.96l3.04-.14Z" fill="#af966c"/>
  <path d="M442.47,405.9c-3.48-.99-7.1-1.84-10.32-.75l-2.6-.37,6.24-2.27c-4.18-5.17-8.08-10.7-5.2-17,2.2,9,5.39,15.75,11.88,20.39Z" fill="#ab9268"/>
  <path d="M429.59,326.33l-1.24,5.05-3.21-.53c-.7,2.34-1.13,5.78-1.09,8.39-3.51,2.59-5.54,6.32-5.95,11.6-1.37-2.56-1.39-4.67-.65-8.35-3.3.39-8.02,2.73-9.05,5.53-1.45,3.95-.31,6.37,1.19,10.87l-4.2-4.59c-2.34,1.57-5.46,5.2-5.43,7.98.03,3.03,1.9,6.29,3.55,9.59-4.15-1.57-6.63-6.2-5.78-10.42.75-3.62,3.43-6.85,7.71-8.25-.02-4.85,2.03-9.19,7.16-10.87-2.49-3.14-2.84-7.35-.49-10.54,2.18-2.95,6.07-5.82,10.25-3.05-3.96,1.09-6.53,1.77-8.45,3.82-2.02,2.15-2.02,6.52.36,8.34,2.92,2.23,8.42-.69,8.14-4.13-.38-4.63,1.91-7.76,5.17-9.89l2.01-.55Z" fill="#ac9a7a"/>
  <path d="M443.62,324.43c-1.06-.42-2.69-1.06-2.45-1.35l2.06-2.51.39,3.86Z" fill="#a79273"/>
  <path d="M698.27,685.01l2.13,1.22-.33,2.28c-.11.53-1.11.88-1.6,1.1l-2.12-.12,2.11-2.53-9.39,2.84,2.34.73c-2.65,2.27-5.29,2.86-9.34,1.92l-8.7,1.6-1.78-.67c-.62-.24-1.7.55-2.25.94-.47.33-1.6.85-2.34.93l-1.68-1.54,3.78-1.52,19.07-3.93,3.14-.85,6.94-2.4Z" fill="#b59c6f"/>
  <path d="M486.69,410.79l-4.35-.15,4.35.15Z" fill="#b59c6f"/>
  <path d="M431.77,311.54c-.32.35-.79,1.09-.84.87l-.4-1.72,1.25.86Z" fill="#b39f7c"/>
  <path d="M249.65,584.53l-.98.35c-.08-.21-.6-1.35-.59-1.33.03.04.47-.98.55-1.15l1.02,2.13Z" fill="#a0865f"/>
  <path d="M451.74,330.45c-1.67.16-3.94.83-5.34,1.61-1.62.91-.71,4.54,1.13,5.27-6.16,1.64-8.21,6.1-7.2,12.87-2.21-1.63-2.4-4.57-2.12-7.38.21-2.1,4.24-4.39,5.16-6.27l4.13-7.73,4.24,1.63Z" fill="#b39f7c"/>
  <path d="M346.98,450.48l-11.18,13.4-1.29-3.48,10.87-12.96c.95.31,1.27.42,1.32.8l.28,2.24Z" fill="#caaf7e"/>
  <path d="M697.26,670.69l-21.95,14.55c-7.44,4.93-15.84,6.32-24.05,8.73l11.07-.69c.39.4.82.9,1.03.6l.99-1.58,4.76-.12-3.78,1.52,1.68,1.54-16.61,1.81.27-.95-5.35-2.51,1.2-1.23c15.78-1.45,29.17-8.45,41.34-17.8l7.15-5.5,1.89-1.39c.26-.19.63.94.56,1.26l-.19,1.77Z" fill="#a58d6a"/>
  <path d="M698.33,370.45l-1.96.74,8.85,6.69.61.71,1.83,2.36.54-.07,2.33,2.61-.6,1.5-2.65-2.8c-.13-.12-.4-.42-.5-.59l-1.52-2.46-.81-.13-11.27-7.99c1.23-1.28,3.81-1.1,5.15-.57Z" fill="#b39f7c"/>
  <path d="M315.64,474.6c-.09,2.75-1.04,6.37-1.86,9.01l-.44-3.15-10.46,22.18-5.4,9.99-.87-.69,14.39-29.21c1.71-3.47,2.49-7.28,2.86-11.26-1.5.95-3.37,2.1-4.14,3.06-9.58,11.89-18.61,25.3-32.39,33.35,6.53-9.77,15.81-16.15,22.94-24.69,4.52-5.41,7.91-10.71,11.4-16.99,1.14-2.06.38-4.56-.35-6.85-.65-2.04,1.19-5.57,2.16-7.64,2.27.65,2.75,3.58,2.67,6.24l-.16,5.71-.35,10.94Z" fill="#9a866b"/>
  <path d="M320.09,445.59l-1.83,16.8-.35,9.92-2.27,2.29.35-10.94.16-5.71c.07-2.66-.4-5.59-2.67-6.24l2.29-4.86,4.47-9.49-.14,8.24Z" fill="#7c5f3f"/>
  <path d="M376.66,553.33l-1.03-.1,1.03.1Z" fill="#af966c"/>
  <path d="M322.52,446.7l-.71,9.73c.05.95,3,2.5,3.81,1.85l3.04-2.43-1.91-2.77c-.28-.41,1.78-1.54,1.27-1.14,1.4,1.42,2.91,2.84,4.3,3.5.99.47,2.7-1.36,4-2.82l1.46,2.58-8.22,2c-2.4,2.3-3.83,3.4-7.51,2.6-.38.31-.85,4.46.27,5.25l4.34,3.08c-.57.59-1.99,1.24-2.63.73l-2.93-2.3-2.49,8.13-.69-2.39.35-9.92,1.83-16.8,2.43,1.1Z" fill="#af966c"/>
  <path d="M324.67,428.56l-.02-1.01,6.32-2.93c-2.05,3.83.57,8.8,3.62,9.75,1.06.33,3.81-.51,3.92-1.47l.47-4.28,2.98,6.41c.68,1.46,4.74,1.61,6.67,2-.33,1.02-3.82,2.06-4.86,1.25l-4.37-3.42c-3.81,1.46-8.43,1-10.14-4.17-.46-1.39-2.96-2.49-4.57-2.13Z" fill="#a19178"/>
  <path d="M322.52,446.7l.15-2.13c.76.99,4.63,2.63,5.77,1.64,2.06-1.78-.34-6.72-2.86-7.42-.63-.93-1.42-2.3-1.77-1.82l-1.36,1.55c-.09-2.42-.01-6.04,1.02-7.86,0,1.35.92,4.2,1.9,5.54.86,1.18,3.92,1.12,5.21.79-.34,2.43-.69,4.97-.35,6.23.28,1.08,2.77,2.24,3.84,1.93l2.09-.6c.42-.12.97,1.48.54,1.53l-2.2.26c-2.64.31-5.13,1.01-7.91,1.99l-4.06-1.63Z" fill="#a19178"/>
  <path d="M518.62,663.43l-1.15-1.14,1.15,1.14Z" fill="#b59c6f"/>
  <path d="M422.7,421.72c-.35-.64-.74-.8-1.11-.63l-1.37.86-.59-2.46,2.08-2.06,1.79,1.96c.41.52-.4,1.82-.8,2.33Z" fill="#c4ac80"/>
  <path d="M304.36,620.04c-6.93-9.55-11.49-22.34-10.81-35.15,1.66,12.39,5.04,22.69,10.81,35.15Z" fill="#a19178"/>
  <path d="M355.66,640.4l-8.08.31c-8.23-1.07-17.31-4.36-23.06-11.52,8.4,4.6,15.54,9.72,25.1,10.23l6.04.98Z" fill="#91795d"/>
  <path d="M293.56,572.91c-.13-9.28,1.48-17.46,3.93-25.25-.85,9.46-1.97,17.24-3.93,25.25Z" fill="#a19178"/>
  <path d="M382.63,638.32l-3.03-.94,3.03.94Z" fill="#9b7f56"/>
  <path d="M335.8,463.89c-3.17,3.84-5.13,8.86-6.74,13.63l-.67-3.93-2.44,3.07-1.61-3.36,2.76-4.17,7.42-8.71,1.29,3.48Z" fill="#ab9268"/>
  <path d="M677.09,380l.05-2.43c13.57,5.17,29.33,20.05,35.18,34.2-9.83-13.26-20.39-25.18-35.23-31.77Z" fill="#91795d"/>
  <path d="M730.21,494.51l-1.06-.32,2.67-19.01c1.86-13.24-.85-25.4-2.38-38.78,3.81,8.5,3.84,17.67,4,27.16.18,10.84-.98,20.84-3.22,30.95Z" fill="#91795d"/>
  <path d="M709.93,384.99l.6-1.5c8.74,9.78,15.69,22.08,17.66,35.13-4.94-12.69-10-24.1-18.26-33.63Z" fill="#9a866b"/>
  <path d="M681.33,418.08c-2.6-1.53-5.49-4.06-7.62-6.75l-12.69-15.95.96-.84,10.11,12.32,9.24,11.22Z" fill="#91795d"/>
  <polygon points="724.79 504.52 724.81 505.17 724.81 505.84 724.79 506.5 724.77 505.84 724.77 505.17 724.79 504.52" fill="#af966c"/>
  <path d="M358.66,319.48l-.03,1-27.77,4.04c8.59-4.11,18.43-3.67,27.81-5.05Z" fill="#a19178"/>
  <path d="M618.47,668.85l-5.14,5.84c2.15-6.81,2.09-12.26-4.29-15.64l-5.43,4.49c2.88-5.66,3.29-11.19-1.34-16.23,4.76,1.04,6.53,5.38,6.16,10.12,5.24,1.42,8.84,5.11,9.19,10.54,4.98,1.56,8.32,5.56,7.72,10.63-.78,4.25-4.17,8.71-9.51,9.3,3.49-3.03,6.52-5.34,6.75-7.95.4-4.65-.75-8.4-4.11-11.09Z" fill="#b39f7c"/>
  <path d="M561.71,689.53c-.53.97-1.77,2.28-2.64,2.07-.91-.22-3-.85-3.76-1.31l-8.05-4.94c7.34,1.02,13.59,1.68,19.51-2.94l3.64-4.26c-.19,5.93-5.96,8.15-10.96,9.5l2.25,1.88Z" fill="#9a866b"/>
  <path d="M653.96,648.97c-.73-5.34-.67-9.42-5.7-11.03l-3.03,3.87c-1.16-4.51-1.63-6.01-3.36-9.79l5.66,4.41c1.63,1.27,6.19,2.01,7.26,3.91,1.28,2.29,1.66,6.39-.83,8.63Z" fill="#ac9a7a"/>
  <path d="M557.7,663.6l-8.68,1.32c-4.37.66-8.29-1.96-10.61-5.37l13.54,2.44c1.98.36,4.53,1.09,5.75,1.6Z" fill="#b59c6f"/>
  <path d="M707.56,592.97c4.53,1.14-1.77,2-1.59,9.3l-2.57-4.42c-.6-1.04-3.81.38-4.74.46l1.78-4.34c.43-1.06-2.04-2.44-3.39-3.69.16-.47,2.98-1.24,3.31-.54l1.52,3.25c.49,1.04,1.21,2.34,1.94,2.66.92.4,2.92-1.19,3.74-2.67Z" fill="#a19178"/>
  <path d="M600.55,687.46c2.36-3.19,4.17-5.98,4.16-9.66,0-3.29-2.07-6.31-4.18-9.62,3.87,1.15,6.5,5.81,6.56,9.67.05,3.81-2.73,8.5-6.53,9.61Z" fill="#a79273"/>
  <path d="M687.16,650.08l-8.18-1.85-3.3,5.43c.24-2.89.79-5.58.23-7.17-.53-1.49-3.46-2.86-5.55-3.69,3.35-1.73,6.59.77,8.45,4.28,2.69.24,6.69.47,8.36,3Z" fill="#a19178"/>
  <path d="M614.56,688.73c-.45,2.32-3.89,5.49-6.65,5.52,2.18-1.86,4.58-4.91,4.75-7.52.24-3.81-2.36-6.06-4.56-9.5,4.98,1.16,7.34,6.92,6.46,11.5Z" fill="#9a866b"/>
  <path d="M665.5,657.19l-2,.15c1.05-1.73,1.06-6.31-.27-8.17-1.06-1.5-3.82-2.88-5.99-4.5,3.34-.5,7.41,1.32,8.35,3.96s.84,6.44-.1,8.56Z" fill="#b29a75"/>
  <path d="M619.27,662.45c2.7-7.24.41-13.2-6.19-16.82,4.38-.73,7.12,3.28,8.52,6.15,1.77,3.65.56,7.66-2.33,10.66Z" fill="#a19178"/>
  <path d="M598.46,647.7c-.84,1.36-3.63,3.62-5.14,4.57,1.54-2.99,4.29-6.03,4.21-8.34-.1-3.12-2.14-6.05-4.03-8.6,5.16,1.29,8.07,7.35,4.96,12.36Z" fill="#998362"/>
  <path d="M651.63,681.23c1.26-2.75,3.02-6.15,2.69-8.08-.43-2.55-2.69-4.77-5.21-7.51,3.18.57,6.33,3.7,7.03,6.49.98,3.9-1.21,8.52-4.51,9.1Z" fill="#ac9a7a"/>
  <path d="M587.8,685.98c1.83-.99,5.86-4.86,5.31-7.18l-1.6-6.78c2.93,1.61,4.12,5.67,3.7,8.51s-3.48,6.08-7.4,5.45Z" fill="#a19178"/>
  <path d="M696.74,620.24l-1.93,6.28c-.38-2.11-.53-5.48-1.78-6.16s-3.7-1.11-5.7-1.6c2.15-2.42,5.36-.63,8.21.38,1.2.43,4.4-2.49,5.04,2.09l-3.83-.99Z" fill="#ac9a7a"/>
  <path d="M677.28,656.97l-3.63,7.57.33-7.09c.08-1.68-3.06-3.33-4.72-4.9,3.51-.47,6.36,1.62,8.47,4.56,2.5.95,3.76,1.43-.45-.15Z" fill="#a79273"/>
  <path d="M632.26,663.57c1.89-6.92,1.39-11.78-4.16-16.12,4.06.13,5.97,3.13,6.85,6.01,1.08,3.54,0,7.14-2.69,10.11Z" fill="#a19178"/>
  <path d="M608.48,651.08c.62-2.3,2.11-5.91,1.78-7.83s-2.85-4.36-4.71-6.72c2.46-.07,5.73,2.59,6.46,4.82,1.24,3.76,0,7.54-3.53,9.73Z" fill="#998362"/>
  <path d="M629.71,670.31l-3.4,3.11c2.75-5.26,3.04-9.38.42-14.3,2.66.51,4.57,3.16,4.71,4.9s-.77,4.97-1.73,6.29Z" fill="#a79273"/>
  <path d="M623.67,650.11c.39-2.29,1.07-6.22.45-8.59-.51-1.93-3.2-3.74-5.61-6,2.26.16,5.78,2.58,7,4.61,1.71,2.83,1.71,8.53-1.84,9.97Z" fill="#9a866b"/>
  <path d="M666.56,648.01c.3-2.33.89-5.63.11-7.37-1.2-2.69-4.18-4.18-7.28-4.86,2.92-1.17,6.45-.29,8.43,2.5s2.1,5.88-1.27,9.72Z" fill="#ac9a7a"/>
  <path d="M678.14,632.35c-1.18-2.52-2.15-4.6-3.59-5.77-3.38-2.77-9.79.82-9.09-.53l1.09-2.11,7.98.48c1.31.08,3.71,2.02,3.98,3.33.25,1.23-.07,3.52-.38,4.61Z" fill="#ac9a7a"/>
  <path d="M584.57,649.96c1.05-5.01,1.96-10.13-2.15-14.74,6.13,1.95,6.95,9.55,2.15,14.74Z" fill="#998362"/>
  <path d="M590.62,695.29c2.88-3.32,4.63-6.79,5.28-10.93,3.17,4.15.69,10.48-5.28,10.93Z" fill="#a19178"/>
  <path d="M712.19,535.5l-.71,4.98-1.08-1.06c-.55-25.58-10.31-48.77-27.57-67.7,9.91,6.35,14.72,17,20.69,26.7,3.72,10.46,6.88,20.82,7.84,32.01l.82,5.07Z" fill="#91795d"/>
  <path d="M359.74,367.26l1.24-.07c-1.56,6.91,1.39,11.23,6.86,15.38-2.25-.6-4.11-1.61-6.03-2.81-2.59,3.05-2.84,7.15-.88,10.96,1.37,2.66,5.69,5.06,8.61,4.78.06-3.77.19-5.94,1.44-7.99.62,3.48.56,7.08,2.08,10.01,1.09,2.11,4.94,3.61,8.28,5.33-4.95,1.53-8.5-2.08-11.31-5.62l-7.27-1.55c-6.47-3.92-6.28-11.95-2.49-17.23-1.56-3.47-2.16-7.6-.54-11.19Z" fill="#ac9a7a"/>
  <path d="M420.45,384.24c-3.8-2-3.83-6.92-3.97-11.75-.06-2.14-2.87-6.01-3.42-8.29-1.28-5.25,3.86-11.23,8.45-11.27-3.19,2.54-6.93,5.84-6.9,9.29.03,3.89,1.72,6.92,5.52,7.77-2.59,3.77-1.66,7.71.32,14.26Z" fill="#998362"/>
  <path d="M400.87,382.38c.96-2.12,2.87-4.88,4.6-6.95-.17-4.89,1.18-10.51,7.33-10.66-2.28,1.93-4.76,3.82-5.2,5.81-.58,2.56.61,6.36,1.9,9.87l-4.16-3.3c-3.16,4.91-2.21,10.16,1.01,14.54-4.13-1.47-4.81-5.44-5.68-8.52l-.63-.5c-3.04-.34-5.84-2.6-6.31-6.15-.52-3.94.29-8.43,3.84-10.26-.97,3.51-2.39,6.75-1.87,9.45.41,2.17,2.96,5.05,4.74,6.47l.44.19Z" fill="#a19178"/>
  <path d="M360.98,367.19l-1.24.07c-3.85.21-6.36,4.14-9.7,1.56l9.17-3.65c1.19-5.13.89-11.76,6.7-13.67-1.93,4.28-5.67,7.57-4.17,12.21l7.37,5.73c-3.85,1.07-4.98-2.43-8.13-2.25Z" fill="#998362"/>
  <path d="M461.29,407.46c-3.73.57-7.96-.51-12.13-2.36-6.42-2.84-10.06-9.05-8.18-15.58.8,4.82,2.24,8,5.05,11.76,4.72,2.63,8.86,4.16,15.27,6.18Z" fill="#a19178"/>
  <path d="M379.39,349.51c-2.59-1.6-4.52-3-5.79-4.87l6.94,3.24c-.43-5.7,2.65-10.97,8.27-11.21-2.41,2.21-5.14,4.1-5.85,6.12-1.09,3.12.14,6.97,1.6,10.64l-5.16-3.92Z" fill="#ac9a7a"/>
  <path d="M480,390.64c-2.98,1.09-9.85,1.81-12.22,0l-7.43-5.72,4.28.49c4.46,3.65,9.27,3.85,15.37,5.24Z" fill="#c4ac80"/>
  <path d="M398.25,395.47l-1.3,4.3-1.03-5.38c-3.92-3.7-6.26-10.25-1.23-13.95-1.89,5.73-.68,12.17,5.08,13.8l7.14,2.01-8.66-.78Z" fill="#9a866b"/>
  <path d="M338.8,393.96l-5.1-.67c2.91-.74,4.59-1.45,6.77-3.36.03,1.69.09,6.26,1.43,7.7,1.65,1.76,4.26,2.73,7.49,4.26-5.34,1.65-10.49-1.63-10.59-7.92Z" fill="#9a866b"/>
  <path d="M392.61,395.29c-3.59,1.16-7.09-.87-9.59-3.64-2.96-3.28-3.31-7.48-.67-11.17.13,3.58.07,7.19,1.77,9.86,1.35,2.11,5.09,3.62,8.49,4.95Z" fill="#9a866b"/>
  <path d="M418.01,396.15c-2.24-.16-5.39-1.64-6.69-3.05-1.96-2.11-1.79-5.03-1.31-8.05.38-2.41,2.22-4.4,4.38-4.45-1.69,2.67-3.21,5.45-2.92,8.35.35,3.42,2.98,4.74,6.54,7.19Z" fill="#a19178"/>
  <path d="M434.56,346.03c-6.69,4.27-9.86,8.89-7.16,16.03-3.76-2.53-3.3-6.81-1.49-10.44,1.44-2.89,5.16-5.7,8.65-5.59Z" fill="#9a866b"/>
  <path d="M372.47,410.2c-2.9.84-7.37-.08-9.26-2.58-2.26-2.99-3.11-6.88-2.08-10.27,1.47,6.71,3.61,11.39,11.34,12.85Z" fill="#a19178"/>
  <path d="M413.55,325.49l-5.32,2.7c-.78.56-2.24,3.18-1.8,4.05.53,1.05,1.7,2.11,3.01,3.33l-3.95-.35c-1.05-.09-.79-3.19-.68-4.25l-.34-3.45c2.76-1.36,6.01-2.06,9.07-2.03Z" fill="#b39f7c"/>
  <path d="M360.87,407.27c-2.9.6-6.65-.75-8.79-2.75-2.63-2.46-3.01-6.82-1.8-10.09.21,7.02,4,10.4,10.58,12.84Z" fill="#ac9a7a"/>
  <path d="M465.41,344.38c-5.97-1.47-11.02-.52-14.28,5.8-.48-1.75.55-4.96,1.73-5.96,2.66-2.24,11.34-2.58,12.55.16Z" fill="#ac9a7a"/>
  <path d="M430.2,382.31c-1.78-6.58,3.98-11.88,9.31-14.85-4.12,4.51-6.9,8.73-9.31,14.85Z" fill="#a19178"/>
  <path d="M354.67,344.72c-12.35,5.88-22.95,11.78-34.11,18.95,9.51-9.3,21.87-15.45,34.11-18.95Z" fill="#a19178"/>
  <path d="M639.29,700.3l3.35-.79c5.11-1.21,14.58,4.58,28.13.41l17.82-5.48c-6.52,5.7-14.81,6.67-23.21,8.1-7.59,1.29-14.57.72-22.18-1.03l-3.91-1.2Z" fill="#b39f7c"/>
  <polygon points="696.35 689.48 691.41 690.51 689.07 689.79 698.45 686.95 696.35 689.48" fill="#ab9268"/>
  <path d="M673.37,694.04l-4.02.27c.55-.39,1.62-1.17,2.25-.94l1.78.67Z" fill="#a58d6a"/>
  <path d="M311.07,293.21l-29.52,8.49c9.8-4.7,19.26-7.25,30.52-10.13.44-.11-.56,1.51-1,1.64Z" fill="#a19178"/>
  <path d="M406.57,316.69l-3.15,2.38-35.75-7.53-12.04-1.4c3.85-.36,9.63-1.16,13.7-.22l30.69,7.08.62-.91-17.1-6.39c-14.12-5.28-27.66-6.52-43.04-6.33,15.31-1.68,27.39-1.34,42.22,4.15l23.84,9.17Z" fill="#ac9a7a"/>
  <path d="M302.12,493.91l-19.23,32.17-1.56.09,27.07-45.91c-1.1,5.08-3.68,9.3-6.28,13.65Z" fill="#9a866b"/>
  <path d="M420.22,421.95c-.97,2.72-2.55,5.93-4.93,8.26l-10.08,9.88-15.32,11.89c-4.96,3.85-7.87,9.85-12.32,14.72,5.51-16.53,21.11-22.99,33.22-34.96,3.48-3.44,5.6-9.04,8.84-12.24l.59,2.46Z" fill="#b39f7c"/>
  <path d="M706.44,672.22c-6.11,5.95-13.14,10.26-21.37,13.01l21.37-13.01Z" fill="#a19178"/>
  <path d="M691.32,687.4l-3.14.85,3.14-.85Z" fill="#ab9268"/>
  <path d="M662.33,693.28l2.02-.98-.99,1.58c-.21.3-.64-.2-1.03-.6Z" fill="#b59c6f"/>
</svg>
