<svg xmlns="http://www.w3.org/2000/svg" viewBox="0 0 1024 1024">
  <path d="M382.67,322.94l-5.04.64-9.21,1.63,22.85,1.88.12,1.76-3.82.98c-9.3-1.35-24.34,1.16-31.99,6.99l-6.53.39c-.79-.47-1.23-.64-.3.8l-12.03,2.91-9.76,5.42c.62.6,1.87,1.75,1.51,1.91l-1.57.73-11.48-.7,11.73-4.41c1.17-.44,3.23-2.22,4.34-3.36l-15.94,2.97c-11.4,1.59-22.52,4.39-31.74,10.52l-1.48-5.5c5.94-5.96,12.3-11.56,19.6-15.86l1.79,2.03c-6.85,4.16-13.11,9.17-19.19,15.01,10.11-3.96,19.13-6.95,29.59-8.61,7.44-1.18,14.41-3.31,20.88-7.06,8.59-4.97,17.36-7.11,26.71-9.21-14,.75-26.92,4-40.27,6.39,19.89-8.07,41.06-9.06,61.23-8.27ZM352.38,334.76c9.57-3.97,18-6.09,29.02-7.72-16.52-1.14-34.15,2.01-49.14,11.3,6.74-.77,14.04-1.06,20.12-3.58Z" fill="#a79273"/>
  <path d="M782.56,819.53c-48.41,44.41-116.81,77.38-181.66,91.95l-2.05.46c-.43.1-.46-1.01-.58-2.45,68.06-14.15,130.85-46.57,183.02-92.33l1.27,2.38Z" fill="#8a755d"/>
  <path d="M544.8,230.88c-3.69,3.55-4.03,8.45-2.67,13.33l2.18,7.78-1.46,11.09c-.11.87-.51,2.65.11,2.68l2.15.22c-5.37,10.29-15.23,17.49-26.66,19.48-1.24-1.49-1.78-3.94-1.14-5.91,12.06-3.92,20.04-14.09,22.36-25.61,2.61-12.95-2.51-26.19-12.81-33.96l1.69-4.7c6.89,3.4,12.57,8.85,16.24,15.6Z" fill="#d4b06f"/>
  <path d="M277.03,812.75c42.08,35.27,100.69,63.45,155.47,74.58,1.34-.36,2.24.52,2.18,2.68-54.99-9.66-117.05-39.87-160.06-75.69.3-.6.49-.8.77-.88l1.64-.69Z" fill="#8a755d"/>
  <path d="M865.07,652.32c-16.94,42.79-40.53,82.7-70.95,117.66-3.44,3.95-6.23,7.87-10.27,10.13l-3.35,1.87-.36-.82c35.17-37.33,63-81.12,81.75-128.82l3.18-.03Z" fill="#bfa57a"/>
  <path d="M746.58,476.21c-.26-.14-1.75.06-1.74.08.02.03-.17-1.37-.2-1.65-.1-.32-.42-1.18-.37-1.55l.98-3.58,1.28-12.06c3.61-33.9-10.99-63.01-39.23-81.77l-6.3-4.18,1.53-2.27c27.63,14.24,46.54,42.5,47.79,74.19.47,11.77-1.09,22.18-3.74,32.79Z" fill="#bfa57a"/>
  <path d="M499.35,741.92l2.57.56c.76.09.71,2.21.63,2.88l-6.94,3.03c-6.86,4.64-12.16,12.34-13.27,20.43l-1.15,8.39c-1.32,9.62,1.81,11.93,5.14,16.38,6.61,8.83,10.38,9.81,18.26,14.8l-.7,1.43c-.08.21.02.54,0,1.94-15.35-4.04-26.4-17.44-27.42-33.28s8.19-30.56,22.89-36.55Z" fill="#c59e5f"/>
  <path d="M228.19,765.43c-.4.38-1.75-.27-1.88-.32-.1-.04-.49.86-.85,1.44-27.7-31.18-49.84-67.45-65.86-105.85l1.63-2.85c16.96,38.95,39.02,75.27,66.96,107.58Z" fill="#baa173"/>
  <path d="M324.75,368.61l-4.58,4.52-15.23,12.97c-2.48,2.11-5.69,6.82-6.9,9.52l-1.64.02c.43-.86.81-2.45,1.15-4.59-2.87,1.85-4.41,3.78-6.03,6.47l-1.15,1.92-2.15-.68c-.27-.07-.59.23-.68.47l-.89,2.41-1.15.75-7.55,5.36-1.17-3.04c1.81-1.51,3.42-3.15,4.93-5.36l-13.63,4.78c-10.92,3.83-19.67,11.66-28.56,18.44l1.39-4.19c9.46-8.07,20.46-14.6,32.86-18.65,9.12-2.98,16.55-7.75,22.2-15.16l.67,2.82c.17.64,1.68-.35,2.15-.82l13.57-10.18c3.02-2.27,5.3-5.63,8.32-6.54l4.05-1.22Z" fill="#af966c"/>
  <path d="M423.68,306.31l-.04,1.79c-.06,3.04-4.89-3.59-8.97-1.67l-1.57.29-.74.83c5.76,5.64,12.98,10.02,20.13,13.98l.64,2.72-18.81-.75,1.02-3.38-6.61-.31-.57-.29c-1.49-3.91,1.74.3,5.93-4.33.65-.71-1.84-2.16-2.71-2.76-5.48-3.81-12.37-10.19-16.77-15.47v-3.4s7.22,5.28,7.22,5.28c2.02,1.48,6.77,2.06,9.51,2.99l12.33,4.48ZM412.4,306.16l-1.48.03,1.48-.03Z" fill="#87683f"/>
  <path d="M507.22,211.74l.58,2.91c-14.86.44-26.5,11.58-30.06,25.18-3.74,14.31,2.3,29.65,15.28,37.41,7.18,4.29,16.83,4.73,24.29,2.31-.64,1.97-.11,4.41,1.14,5.91-13.31,2.32-26.84-2.75-35.35-13.24-8.52-10.49-10.69-24.77-5.68-37.32,5.01-12.55,16.41-21.41,29.81-23.16Z" fill="#9b7f56"/>
  <path d="M341.44,788.14l2.09-.78c3.58,9.18,10.78,16.61,19.78,20.01,11.78,4.44,23.27,1.01,30.41-9.14,2.82-4.01,3.87-8.63,1.75-13.17-1.95-4.16-5.36-6.79-10.98-7.03-2.67-.11-8.18,3.02-6.49,5.45,2.48,3.55,5.4,5.95,4.65,10.06-.65,3.54-2.8,6.68-6.59,7.85l-.42-2.05c1.86-.62,4.19-2.63,4.74-4.25.67-2-.29-5.5-1.4-6.89l-4.66-5.83c3.33-4.46,6.7-7.45,12.24-6.88,4.2.43,8.29,3.73,10.03,6.59,2.58,4.25,2.98,9.65.91,14.08-6.48,13.9-22.62,18.72-36.54,12.67-9.32-4.04-16.01-11.64-19.52-20.69Z" fill="#998362"/>
  <path d="M264.92,524.62c-6.15,11.01-11.63,22.03-14.31,34.97l1.07,2.87,1.45.94c-3.03,5.07-3.45,11.77-1.71,17.09l-2.72.91.74-7.93-2.54-12.99-1.29,5.94c-1.24-12.96,1.95-28.94,6.68-42.03.64.73.77.94,1.13,1.04l1.67.26c-3.23,8.77-5.62,18.04-6.32,27.98l11.09-27.76,3.97-2.46,1.1,1.18Z" fill="#a0865f"/>
  <path d="M626.3,722.12l3.16-.04c14.79,22.18,36.24,22.81,60.12,9.92-9.16,10.18-22.71,12.45-35.11,13.64l-2.41-2.05c1.8-.11.67-.75-.37-1.32l-14.08-6.02c-12.29-5.26-24.75-8.88-34.18-17.98v-.94c8.63,6.45,18.14,11.94,28.34,15.23l.99-1.14-6.43-9.29ZM634.05,732.8h-1.45s1.45,0,1.45,0Z" fill="#a0865f"/>
  <path d="M228.19,765.43l3.04,3.33,11.12,11.98c1.34,1.45,3.38,4.4,5.1,4.43,3.58.05,6.59.7,8.45,2.44,1.37,1.28,1.31,5.64,2.23,7.47,2.28,4.55,7.44,8.04,11.35,11.32l7.57,6.35-1.64.69c-.28.08-.47.28-.77.88l-13.07-10.89-5.96-5.18c-3.68,3.12-7.64,2.62-10.53.11-3.24-2.81-2.56-7.03-1.16-11.18l-9.94-11.02-8.52-9.59c.37-.58.76-1.48.85-1.44.13.05,1.48.7,1.88.32ZM255.49,793.14c.49-2.21-2.25-5.65-4.59-5.77-2.47-.13-5.55,1.95-6.11,3.84-.73,2.46,1.6,6.31,3.71,6.89,3.1.85,5.77-.83,6.49-3.5l-3.32.11c-.71.02-1.16-2.18-.93-2.86s1.82-2.05,2.3-1.5l2.45,2.8Z" fill="#a78d66"/>
  <path d="M336.77,742.97c5.83,1.62,11.47,7.21,12.98,11.95,2.44,7.67.95,14.52-3.36,19.86l7.68,14.04c4.37,7.99,13.05,13.38,21.58,10.53l.42,2.05c-7.73,2.4-15.52-.54-20.73-7-7.8-9.66-8.35-21.3-16.92-20.17l5.12,13.13-2.09.78-2.99-7.73c-2.3-5.93-5.54-10.98-9.71-15.19l-1.04-1.05-1.16-1.13,2.36.31c1.89.25,4.05,3.19,5.56,5.03l3.47,4.24,6.62.28c4.98-4.15,5.45-11.74,2.67-18.4-1.8-4.32-7.29-8.9-12.62-10.45l2.18-1.09Z" fill="#a79273"/>
  <path d="M363.59,335.32c1.19,1.06,1.62,1.33.73.77-1.47.62-2.55,1.14-2.59,1.09-.04-.06.93,1.05,1.17,1.53-15.86,2.7-30.93,9.04-43.42,19.58-8.14,7.59-14.65,15.52-19.96,25.12l-1.74,1.81c-.35.36.56,1.47,1.03,1.32-.48.47-1.99,1.46-2.15.82l-.67-2.82c7.07-14.27,17.7-26.38,30.9-35.56l1.57-.73c.36-.17-.89-1.31-1.51-1.91l7.08-1.21,17.87-7.05-3.16-.07c-.92-1.44-.48-1.27.3-.8l6.53-.39,8.01-1.5Z" fill="#bfa57a"/>
  <path d="M395.67,319.99l-8.14,1.03-10.66-1.92-7.09-1.26c-9.07.05-18.38-.75-27.15.3l-1.01-2.46,4.18-.6c-9.61-3.46-19.72,1.31-29.2-4.47l1.21-.84c8.68,1.34,17.6,1.17,26.85,2.33l21.05,2.64c10.27,1.29,20.71,2.02,29.96,5.25Z" fill="#baa173"/>
  <path d="M805.39,448.32c-6.23,22.07-22.8,32.86-25.22,39.97l-8.94,26.22-2.87,1,2.07-8,3.99-10.94,1.56-8.13c.13-2.92,2.59-2.92,4.19-6.93.51-1.27,1.84-3.3,2.99-3.87l2.12-1.04c6.65-7.42,12.36-15.59,15.93-24.88l1.94-4.08,2.24.68Z" fill="#ab9268"/>
  <path d="M336.71,295.59l16.61.2c.71,0,2.85.58,2.34.98l-14.87.19c-9.54.12-18.2,4.97-26.78,9.12l3.82,3.69-1.21.84c-2.02-1.23-4.78-2.54-6.58-2.96l-.71-1.46,15.53-7.62c-11.38,1.36-20.92,3.83-32.45,6.38-.31-.47-.04.84.29,1.08l.98.72.11,1.03-1.16,1.33-19.97-.68c10.14-2.53,14.06-.79,18.05-4.72l14.17-3.73c10.87-2.86,21.12-4.52,31.84-4.39Z" fill="#ac9a7a"/>
  <path d="M721.2,576.22l-1.12-.06,1.33-5.7,2.01-4.1c3.86-7.86,11.11-16.28,18.57-22.19,9.52-7.54,18.13-16.52,24.42-26.12.41-.63,1.75-1.83,1.93-2.54l2.87-1c-3.43,7.26-8.25,14.69-14.57,20.6l-23.15,21.63c-5.73,5.36-8.74,12.89-12.31,19.48Z" fill="#bfa57a"/>
  <path d="M730.33,649.35c-2.16,1.38-4.3,2.04-6.22,1.27,6.34-6.22,10.89-13.55,12.92-21.82,4.81-3.12,4.85-9.3,5.49-14.28.91-5.16.95-9.94-.05-14.9,2.16-7.78,5.18-15.81,12.93-19.37-6.27,6.45-9.1,13.51-9.56,22.08l-.65,12.14c-.53,9.84-4.96,18.59-9.97,26.83l-4.9,8.05Z" fill="#a0865f"/>
  <path d="M299.96,524.64l-7.26,23.91-1.32-4.13,5.57-19.31c-7.31,8.58-13.91,15.59-24.3,19.25-6.54,2.31-11.99,6.41-15.58,12.43l-3.94,6.59-1.45-.94c4.19-9.82,9.06-16.31,19.34-20.8,9.61-2.91,17.44-8.51,22.89-17.02l3.76-2.2,2.3,2.21Z" fill="#998362"/>
  <path d="M366.37,278.62l2.29,1.08c.13.04.43-.07.68-.15l-.82,2.36-1-.07-5.78-2.13-2.14-.03-2.98-.83-8.09-.98c-13.04-1.21-25.46,2.62-36.91,7.74l-.99,2.24c-4.48.69-9.64,2.44-13.81,4.22l-2.4-1.39,10.95-5.37c13.7-6.72,28.56-11.67,44.31-10.18,5.12.48,12.63,2.08,16.68,3.49Z" fill="#c4ac80"/>
  <path d="M618.6,344.39l5.7,4.4c11.92,9.22,26.99,12.5,42.17,11.8,1.02-.05,3.36.73,3.99,1.14l-2.47.13c-.75.12-.77,2.19-.59,2.44l-9.17-.67c-7.84-.58-16.06-2.11-22.7-5.18-2.13-.98-4.34-1.85-6.2-.74l-3.85-3.44c-1.1-.98-3.65-2.34-5.41-2.17l-.62-2.44-.9-2.13c-.35-.3-1.65-1.44-1.17-1.02l-3.39,2.23c-2.84-4.41-5.12-8.94-6.82-14.03l.85-1.1,6.01,11.68,4.56-.9Z" fill="#9b7f56"/>
  <path d="M359.27,352.25c-7.81,7.47-21.85,25.05-22.74,32.14l-.14,1.08c-.36.14-1.89,1.7-2.24,2.55l-4.34,10.6-1.33,3.89-.89,3.06-1.01,2.97c-.05.14.05.55.04.71l-1.61,2.36-.28-3.98c-.04-.24-.24-.94-.17-1.18l2.05-5.99c4.36-18.04,14.9-34.55,28.03-47.65l4.62-.56Z" fill="#caaf7e"/>
  <path d="M545.11,265.98l-2.15-.22c-.62-.03-.22-1.81-.11-2.68l1.46-11.09-2.18-7.78c-1.37-4.88-1.02-9.78,2.67-13.33,5.95,10.92,6.07,24.08.31,35.1Z" fill="#c59e5f"/>
  <path d="M267.84,688.96l-1.27,1.45c-2.24-.85-6.12,1.1-8.26,2.49-5.34-.39-9.66-5.28-12.64-9.18-9.21-12.05-8.86-26.07-.85-38.17,4.3-6.49,1.28-15.78-1.33-21.91l1.58-.54c4.93,9.42,5.21,19.42-1.05,28.55-7.84,11.44-.78,33.66,13.49,40,3.42-3.08,6.85-3.89,10.33-2.69Z" fill="#998362"/>
  <path d="M395.16,327.89l-.83,2.02-.24.48-17.89,9.19c-2.37,1.22-4.47,6.6-5.43,9.06l-1.39-.88c.52-.88.9-2.72,1.16-4.31l-11.27,8.8-4.62.56,1.29-3.44,3.13-.71c.83-.19,1.35-1.64,1.6-2.89l10.81-7.35-1.22-.97c.73-.12,2.92.1,3.55-.28l7.11-4.33c1.88-1.15,4.61-2.49,6.66-3.01l3.82-.98,3.76-.97Z" fill="#bfa57a"/>
  <path d="M783.85,780.11l-4.46,6.43c2,3.01,2.97,8.2.49,11.28-2.94,3.65-8.11,3.2-12.05-.16l-8.49,7.64-3.07-1.09,9.98-8.83c.02-2.92.54-6.77,2.41-8.21s4.64-1.91,7.73-2.03l3.75-3.98.36.82,3.35-1.87ZM769.19,794.75c.44,2.74,5.1,4.63,7.66,2.62,2.25-1.77,3.23-5.03,1.68-7.86-1.22-2.22-5.71-2.63-7.4-.45.58.68,2.99,3.29,2.17,3.68l-4.11,2.01ZM769.75,790.24l-.02.65v.67l.02.65.02-.65v-.67l-.02-.65Z" fill="#af966c"/>
  <path d="M781.08,668.32l-1.84,3.02-1.19,3.14c-23.46,1.7-42.21,23.73-42.02,47.73-.81-2.84-.8-6.71-1.16-10,3.59-17.42,16.08-32.77,33.72-38.46l6.8-.92,4.55-5.63,1.15,1.13Z" fill="#c4ac80"/>
  <path d="M818.36,648.36l-2.38.04c11.89-13.33,21.38-39.42,11.09-51.9l-14-16.98,1.29-1.27,10.31,11.75c15.92,17.26,7.92,41.12-6.31,58.36Z" fill="#91795d"/>
  <path d="M287.86,295.9l-26.51,11.47,22.32-2.15,7.04-1.51c-4,3.93-7.91,2.19-18.05,4.72l-7.47,1.86-9.08,2.04-.35-4.7c9.68-5.82,20.53-9.89,31.11-14.01l1,2.27Z" fill="#a58d6a"/>
  <path d="M713.77,678.77c-.58.36-2.19-.83-2.69-1.57,5.9-7.57,10.26-15.67,14.47-24.73l-4.18,3.04-19.96,13.01-1-1.97,23.7-15.93c1.92.77,4.06.11,6.22-1.27-5,10.27-10.12,20.2-16.56,29.42Z" fill="#a58d6a"/>
  <path d="M814.44,634.57c-2.91,7.3-5.63,15.48-13.32,19.04,6.54-8.82,12.57-17.16,13.1-28.32.49-10.23-12.68-18.17-9.38-27.52,1.4-3.98,2.95-9.23,8.69-9.06-7.67,5.02-8.63,14.63-3.13,21.47,5.85,7.28,7.5,15.67,4.03,24.37Z" fill="#ac9a7a"/>
  <path d="M320.72,723.33l-1.15,1.12-3.07-3.45-.36-.64-6.38-5.12c-12.71-10.2-29.23-9.44-44.06-4.96,2.72-2.52,6.37-3.29,9.77-4.14,1.7-7.09-2.36-13.24-8.89-15.72l1.27-1.45c7.11,2.46,9.95,8.84,11.27,16.76,15.16-2.33,29.15,3.18,38.23,13.74l.16.15,3.22,3.72Z" fill="#ac9a7a"/>
  <path d="M439.73,314.87l10.89,8.81-3.08.17,1.85,1.52c.4.33,1.41,1.48.98,1.03l-3.93-.56c-.68-.1-1.64,1.05-2.13,1.47-1.97.17-5.52.6-6.96,1.76-1.61,1.31-1.91,5.02-2.1,7.74-3.24-2.63-1.36-6.95,2.38-9.91-1.95-1.46-5.35-1.37-8.02-.57l-2.01.55-4.98-1.3c-.48-.09,1.09-.71,1.37-.73l9.17-.61-.64-2.72,1.11-2.06,3.02,3.51c1.35.84,2.94.96,4.31.39l-3.48-5.58-2.79-4.18c1.3.73,3.37,1.39,5.06,1.26ZM443.62,324.43l-.39-3.86-2.06,2.51c-.24.29,1.39.93,2.45,1.35Z" fill="#b39f7c"/>
  <path d="M732.86,666.98l1.34,2.58c-10.95,9.5-21.47,11.39-30.98,19.47-.49-1.49-1.88-2.51-2.83-2.81l-2.13-1.22c4.46-1.54,9.92-4.09,12.82-7.8.5.74,2.11,1.93,2.69,1.57l19.08-11.79Z" fill="#cdad79"/>
  <path d="M684.2,797.59l.32-1.67c7.8,2.95,20.63.52,27.18-6.37,2.58-2.72,5.88-6.09,7.2-9.74l6.89-19c2.47-6.82,9.26-9.43,15.67-6.76-18.1-.69-13.91,13.98-21.85,28.32-7.47,13.5-21.93,19.84-35.41,15.22Z" fill="#91795d"/>
  <path d="M277.96,407.73c-8.57,6.08-17.97,10.85-28.18,14.95-5.12,2.05-9.9,5.35-14.23,8.6l-3.77,2.34.18-3.32c.05-.93,1.83-1.57,2.69-1.85l1.77-.53c.29-.17.41-.98.48-1.27l.84-1.12,5.82-2.16,11.23-5.61c7.99-3.99,15.43-7.59,22-13.08l1.17,3.04Z" fill="#b29a75"/>
  <path d="M805.39,448.32l-2.24-.68c.35-.74.76-2.67.83-3.54.07-.81-.87-2.05-1.67-2.38l2.34-9.95c.68-2.9.29-6.37.06-9.44-.59-7.83-3.66-13.76-8.23-19.91,7.43,4.27,9.97,12.84,11.28,20.6,1.47,8.67-.13,17.34-2.38,25.3Z" fill="#8a7257"/>
  <path d="M423.68,306.31l2.66,1.16c.43.19,1.44-.61,1.31-1.04l2.87,4.25.4,1.72c.05.22.53-.52.84-.87l2.9,2.07,2.79,4.18,3.48,5.58c-1.37.57-2.96.45-4.31-.39l-3.02-3.51-18.93-13.04c4.08-1.92,8.9,4.72,8.97,1.67l.04-1.79Z" fill="#a79273"/>
  <path d="M267.4,615.16l-4.75,1.54c-3.9-3.55-7.66-7.31-9.98-11.82l1.84-1.52,2.59,3.96.75-1.49-8.21-21.3-1.02-2.13.07-1.03,2.72-.91,2.28,6.95,4.16,12.05c2,5.79,4.75,12.08,9.55,15.69ZM259.25,608.46q0-1.22,0,0,0,2.34,0,0ZM261.24,610.41l-.02.65v.67l.02.65.02-.65v-.67l-.02-.65Z" fill="#9a866b"/>
  <path d="M360.66,345.77c-.25,1.25-.77,2.71-1.6,2.89l-3.13.71c-7.22,3.69-17.78,9.61-23.05,16.08l-.93-1.39c-.21-.45-1.94-.36-2.02.13l-.25,1.53-4.93,2.88-4.05,1.22,1.54-2.68,25.9-17.13,12.52-4.24Z" fill="#a0865f"/>
  <path d="M775.98,488.44l-7.35,5.47c-10.69,7.96-21.51,14.97-31,23.57l-1.39-1.28c7.09-8.2,16.67-14.22,25.7-20.95l18.23-13.75c-1.6,4-4.06,4-4.19,6.93Z" fill="#bfa57a"/>
  <path d="M439.73,314.87c-1.69.13-3.76-.53-5.06-1.26l-2.9-2.07-1.25-.86-2.87-4.25-11.02-13.65-.98-3.09c5.22,2.68,10.32,6.68,14.18,11.83l9.9,13.34Z" fill="#87683f"/>
  <path d="M670.46,361.73c10.99.3,22.14,2.38,32.07,7.5l-1.53,2.27-2.67-1.05c-1.34-.53-3.91-.71-5.15.57-7.57-5.36-16.99-6.08-25.78-6.72-.19-.25-.16-2.32.59-2.44l2.47-.13Z" fill="#ab9268"/>
  <path d="M315.76,446.85l-2.29,4.86c-.97,2.07-2.81,5.59-2.16,7.64l-3.93,2.83-16.54,12.82-2.33-1.71c7.52-5.73,15.09-11.92,20.97-19.92,1.73-2.36,4.21-5.78,4.93-7.97l1.34,1.45Z" fill="#af966c"/>
  <path d="M746.58,476.21c-3.17,12.68-8.27,25-12.86,37.28l-1.79-3.14,11.48-33.87,1.22-1.84c.04.28.22,1.68.2,1.65,0-.02,1.48-.22,1.74-.08Z" fill="#a78d66"/>
  <path d="M290.84,475l-6.32,5.45c-7.05,6.08-12.72,13.75-17.76,21.27l-3.33-.25c6.52-10.78,14.99-20.5,25.08-28.19l2.33,1.71Z" fill="#d6bc89"/>
  <path d="M676.37,703.25l-1.1,3.01c-13.55,3.89-28.18,2.24-41.83-1.19l-2.99-.75-2.34.14-2.7-3.08,27.51,4.56c5.49.91,20.21-1.06,23.43-2.69Z" fill="#a78d66"/>
  <path d="M341.63,315.68l1.01,2.46c-9.02,1.08-18.51,4.13-26.44,8.95l-12.49,7.59-1.79-2.03,14.89-8.76c7.82-4.6,16.35-6.99,24.82-8.21Z" fill="#c4ac80"/>
  <path d="M283.8,354c-11.01,7.31-16.38,19.25-19.83,32.75-.05-14.52,8.31-28.18,18.35-38.25l1.48,5.5Z" fill="#91795d"/>
  <path d="M818.36,648.36c-7.55,9.14-17.45,15.37-29.8,17.36-2.38.39-5.55,1.72-7.48,2.6l-1.15-1.13c1.03-1.27,4.5-1.78,6.15-2.98l14.64-10.66.66,1.53-8.29,7.77c10.04-2.12,16.53-8.52,22.88-14.44l2.38-.04Z" fill="#ac9a7a"/>
  <path d="M239.54,422.55l-1.79,2.98-.84,1.12-2.25,1.8c-.86.28-2.64.92-2.69,1.85l-.18,3.32c-4.85,6.09-8.41,12.61-11.69,20.3.14-15.08,10.39-26.64,20.84-35.55l-1.39,4.19Z" fill="#91795d"/>
  <path d="M673.56,724.07c-.17-.23-1.21-.73-1.71-.73s-1.55.5-1.5,1.02h-.99c.56-.34-1.74-1.07-2.27-1.07h-15.52s-.1-1.01-.1-1.01c1.61.22,4-.2,7.03-.78l-6.3-3.04,5.13.66-1.37-1.71c15.24,7.68,28.65,3.1,43.33-5.27-6.2,7.22-17.31,11.17-25.71,11.93Z" fill="#9b7f56"/>
  <path d="M248.7,581.38l-.07,1.03c-.08.17-.52,1.19-.55,1.15-.01-.02.51,1.12.59,1.33.43,5.1,2.68,13.65,5.84,18.47l-1.84,1.52c-3.72-4.5-5.28-10.5-6.48-16.42l.56-17.75c0-.54-.71-2.83-1.11-2.26l-.03-2.05,1.29-5.94,2.54,12.99-.74,7.93Z" fill="#b59c6f"/>
  <path d="M609.6,327.61c-.89,0-1.8-1.95-1.96-2.88l-1.56-9.32-1.41,7.57-.27-8.24.67-4.12c1.28-7.89,4.24-16.83,11.34-22.34-7.45,12.75-9.97,26.02-6.82,39.34Z" fill="#9b7f56"/>
  <path d="M546.89,791.27l-2.27-1.13c4.63-11.22,3.85-24.21-3.44-34.47l1.82-1.44c7.89,10.74,9.38,24.9,3.89,37.04Z" fill="#7c5f3f"/>
  <path d="M324.6,422.46l.04,5.1.02,1.01-1.19,2.1c-1.03,1.82-1.1,5.44-1.02,7.86l.22,6.04-.15,2.13-2.43-1.1.14-8.24-4.47,9.49-1.34-1.45,5.97-18.02,2.07-5.46,2.15.54Z" fill="#9b7f56"/>
  <path d="M710.71,741.33c-6.81,8.15-8.68,23.85,1.68,29.67-2.92.93-5.73-1.15-7.38-3.75-4.37,7.97-10.03,14.78-18.76,16.87l.11-2.04c3.5-.86,8.8-3.4,10.96-6.52l7.1-10.25c-2.69-9.24-.93-18.51,4.85-25.2l1.44,1.22Z" fill="#a79273"/>
  <path d="M887.13,671.34l-1.08-.04c.05-.16.81-1.34,1.09-1.05v1.09Z" fill="#b59c6f"/>
  <path d="M546.89,791.27c-4.47,9.9-13.08,17.32-23.53,20.29-.67-1.21-2.71-2.26-3.86-2.31l2.69-1.24c10.49-1.81,18.56-8.49,22.43-17.87l2.27,1.13Z" fill="#91795d"/>
  <path d="M609.6,327.61l-.31,1.16c-.18,3.55,1.7,8.6,5.08,9.91l.03,1,1.25.83,2.95,3.88-4.56.9-6.01-11.68-.85,1.1c-1.09-3.27-3.07-8.64-2.49-11.74l1.41-7.57,1.56,9.32c.16.93,1.06,2.89,1.96,2.88Z" fill="#87683f"/>
  <path d="M832.12,531.3c-1.76-2.15-4.01-4.68-6.09-5.46-9.54-3.62-22.5,9.52-22.46,25.5-3.58-5.98.05-11.73,2.66-16.78,3.08-5.95,8.18-10.16,14.92-10.29,4.97-.1,10.52.53,10.97,7.04Z" fill="#a19178"/>
  <path d="M280.83,424.96c-3.17,5.29-8.2,9.05-14.19,11.6-5.54,2.35-9.3,6.04-14.04,9.68l7.19-8.83c3.56-4.37,8.94-9.44,12.76-12.64l-5.29,9.33c5.38-2.7,9.73-6.26,13.58-9.14ZM265.4,435.06l-.65.02.65.02h.67l.65-.02-.65-.02h-.67Z" fill="#9a866b"/>
  <path d="M298.05,395.62l-7.9,17.67-6.15,9.42c-.51.78-2.68,1.8-3.17,2.24,4.05-6.77,7.51-13.14,11.06-20.26l4.52-9.06,1.64-.02Z" fill="#9a866b"/>
  <path d="M281.98,413.48l-5.8,8.67c-.6.9-2.69,2.05-3.63,2.62l8.08-12.24,1.34.95Z" fill="#9a866b"/>
  <path d="M195.27,501.62l-1.08-3.11c-.24-.69-2.13,1.04-3.13,1.87l.72-3.58-5.04-.67,5.19-2.16-.91-2.04c-.12-.28-.02-1.5.21-1.3l2.33,2.05,1.92-7.38,1.72,7.02,3.62-2.1-2.43,3.79,6.6,2.19c-5-.25-8.25,1.15-9.73,5.41Z" fill="#caaf7e"/>
  <path d="M734.2,669.56l-1.34-2.58,10.61-10.46c5.87-5.78,8-13.75,12.53-21.36-2.63,13.58-11.53,25.49-21.8,34.4Z" fill="#998362"/>
  <path d="M266.77,501.73c-4.87,7.27-8.65,15.7-11.68,23.95l-1.67-.26c-.36-.1-.49-.31-1.13-1.04,2.9-8.01,6.73-15.58,11.15-22.89l3.33.25Z" fill="#baa173"/>
  <path d="M736.03,722.21l1.69,5.93c6.54,2.69,15.41,5.24,16.41,13.88-5.28-9.09-15.4-13.2-25.94-11.53l-1.92-1.58,8.98-.83c-1.01-5.09-1.39-10.99-.38-15.88.36,3.29.35,7.16,1.16,10Z" fill="#998362"/>
  <path d="M230.58,697.18c-11.25-10.71-14.15-34.24-2.68-43.69-3.99,7.82-6.07,13.91-5.2,22.04.16,7.58,4.43,14.02,7.88,21.66Z" fill="#8a7257"/>
  <path d="M781.28,674.24l1.03-2.09c2.98.29,6.49.96,9.6,2.44,6.8,3.25,14.49,2.83,20.03-2.6l9.79-9.59.86.8-7.98,8.6c-4.35,4.69-11.66,8.11-17.85,5.97-5.32-1.84-10.42-3.9-15.48-3.53Z" fill="#9a866b"/>
  <path d="M686.36,782.09l-.11,2.04c-8.07,1.93-13.89-6.61-17.04-4.49-.83.56-.96,2.97-.28,3.72l2.43,2.7-1.2,1.19c-4.06-5.25-9.21-9.81-15.79-11.08l-.94-1.99c4.52.51,9.14,2.99,12.92,5.94,7.47-5.99,10.59,4.27,20.02,1.97Z" fill="#998362"/>
  <path d="M653.43,774.18l.94,1.99c-7.94-1.53-16.59,1.43-21.76,8.36l-8.9,11.93-.5-1.43,3.67-6.21c5.78-9.79,15.41-15.9,26.55-14.64Z" fill="#a19178"/>
  <path d="M519.5,809.25c1.15.05,3.2,1.09,3.86,2.31-6.36,1.81-13.08,1.87-19.48.19.03-1.4-.07-1.73,0-1.94l.7-1.43,7.09.56,7.82.31Z" fill="#b59563"/>
  <path d="M211.96,380.98c3.2-1.2,6.91,1.35,8.21,4,1.4,2.85-1.01,6.87-3.59,8.15-3.1,1.54-6.97-.41-8.06-2.76-1.55-3.34-1.01-7.73,3.44-9.39ZM217.24,390.03c1.66-1.49,1.76-4.24.48-5.74-1.38-1.61-4.09-2.03-5.34-.54-1.47,1.76-2.73,3.18-2.69,4.34s1.81,3.19,2.92,3.51,3.52-.58,4.63-1.58Z" fill="#998362"/>
  <path d="M803.16,447.63l-1.94,4.08-.23-2.03-9.92,15.7-5.78,11.22-2.12,1.04c-.45-.19-.75-.26-.74-.54.01-.26.44-1.94.63-2.23l9.01-13.35c4.41-6.54,8.56-12.61,10.25-19.8.8.33,1.74,1.56,1.67,2.38-.07.87-.48,2.8-.83,3.54Z" fill="#ac9a7a"/>
  <path d="M256.1,312.33c-.2,0-.38-.02-.5.06l-1.87,1.24-13.78,8.29c2.73-6.96,9.79-10.67,15.8-14.29l.35,4.7Z" fill="#8c6e48"/>
  <path d="M822.49,568.53c-5.99-3.97-10.6-11.8-10.47-19.59,2.61,6.88,6.55,14.58,10.88,18.81l.78.76c10.32,7.42,19.15,18.97,18.22,32.01-2.32-6.85-3.13-13.98-7.89-19.13l-10.87-11.76-.65-1.09Z" fill="#998362"/>
  <path d="M821.49,497.47l-.51,1.38c-12.21,2.69-18.35,14.33-14.49,26.84-4.97-5.91-3.39-12.65.16-19.16,2.46-4.51,8.63-9.16,14.85-9.07Z" fill="#a79273"/>
  <path d="M652.05,743.58l2.41,2.05c-7.96.76-17.09,1.52-25.57-3.06l23.16,1.01Z" fill="#d6bc89"/>
  <path d="M814.36,578.25l-1.29,1.27c-6.06-7.36-13.16-16.34-9.85-26.87,1.32,10.34,4.86,18.43,11.14,25.6Z" fill="#af966c"/>
  <path d="M415.65,289.69l.98,3.09-8.6-4.2-16.91-5.23c8.99-1.23,17.06,2.5,24.53,6.34Z" fill="#8a755d"/>
  <path d="M743.58,331.39l-2.95,3.82c-.72,1.03,3.04,3.71,4,2.91l3.51-2.89-3.49-3.31,4.64-2.06c-.25.9-1.38,3.6-.48,3.83l4.42,1.12,2.55.64c.36.09.31,1.29-.05,1.25l-2.73-.28c-2.06-.21-7.34.74-7.45,3.11l-.53,11.14h-1.58s-.36-12.46-.36-12.46l-3.92,2.48,1.23-3.73-8.09-.98,11.27-4.61Z" fill="#c4ac80"/>
  <path d="M267.4,615.16l9.58,7.19c-.39.86-1.88,2.31-2.53,2l-2.46-1.2c-3.73-1.82-7.03-3.8-9.35-6.45l4.75-1.54Z" fill="#8c6e48"/>
  <path d="M332.88,365.46l-4.25,5.22c-4.97,6.1-9.06,12.14-13.02,18.98,1.22-5.95,4.61-11.11,8.23-15.81l5.84-8.12.25-1.53c.08-.49,1.8-.57,2.02-.13l.93,1.39Z" fill="#a19178"/>
  <path d="M691.68,698.38c-4.69,3.8-10.41,6.16-16.41,7.88l1.1-3.01,13.92-7.06,1.39,2.19Z" fill="#bfa57a"/>
  <path d="M328.85,742.28l-2.12,1.86c-.06-6.68-3.73-13.96-7.16-19.69l1.15-1.12c4.48,5.18,7.33,12.16,8.13,18.95Z" fill="#9a866b"/>
  <path d="M726.27,728.91l1.92,1.58c-6.79,1.07-12.94,5.41-17.47,10.84l-1.44-1.22c4.68-5.41,9.65-10.52,17-11.2Z" fill="#c4ac80"/>
  <path d="M623.71,796.47c-3.19,4.27-6.93,7.3-12.59,8.18-5.18.81-10.65-1.17-13.96-5.2l.04-1.19c3.53,2.84,7.5,5.2,11.72,5.2,4.74,0,8.46-2.52,11.81-5.89l2.48-2.53.5,1.43Z" fill="#8a7257"/>
  <path d="M820.98,498.85l.51-1.38,11.51.17c3.77,2.31,7.18,6.63,9.78,9.62,2.37-.55,4.67-.41,6.5,1.06l-8.46-.11c-3.57-8.34-11.79-11.13-19.84-9.36Z" fill="#9a866b"/>
  <path d="M703.22,689.03l-11.54,9.35-1.39-2.19c2.83-1.43,6.1-4.53,8.17-6.59.49-.23,1.49-.58,1.6-1.1l.33-2.28c.94.29,2.34,1.32,2.83,2.81Z" fill="#ab9268"/>
  <path d="M228.58,643.96c.07-1.7-2.99-4.91-4.51-4.81-1.8.12-4.37,1.68-6.25,3.01.03-2.73,4.67-6.02,7.47-4.37,2.43,1.43,4.92,4.4,5.37,6.49.65,3.01-.67,7.33-2.45,9.27l.38-9.59Z" fill="#8a755d"/>
  <path d="M245.06,623.09l-1.58.54c-3.79-8.91-12.27-11.83-22-14.84,10-.54,19.25,6.03,23.58,14.29Z" fill="#8a7257"/>
  <path d="M321.86,758.76l-1.34,1.63c-3.72-1.64-9.74-1.57-14.27-.58l-5.65,4.42c1.72-5.34,7.77-8.15,13.12-7.09l8.14,1.62Z" fill="#8a755d"/>
  <path d="M326.61,409.25l-.12,3.29-.8,4.06-1.09,5.86-2.15-.54c-.36-.11-.92-.94-.86-1.32l1.02-4.03,2.11-8.93.28,3.98,1.61-2.36Z" fill="#baa173"/>
  <path d="M684.52,795.92l-.32,1.67c-5.56-1.91-10.37-5.59-14.04-10.34l1.2-1.19,6.44,5.95c1.42,1.31,4.87,3.21,6.72,3.91Z" fill="#87683f"/>
  <path d="M835.07,639.5l6.69-22.32c.32,7.81-2.43,15.5-6.69,22.32Z" fill="#8a755d"/>
  <path d="M336.77,742.97l-2.18,1.09-5.77.99-.37,8.22-1.65.03-.08-9.15,2.12-1.86c2.19-.06,5.69.07,7.93.69Z" fill="#8a755d"/>
  <path d="M309.32,306.18l.71,1.46-5.16,1.36c-4.36,1.15-8.46.19-12.25.11l1.16-1.33,9.97-.66,5.57-.93Z" fill="#c4ac80"/>
  <path d="M744.65,331.93l3.49,3.31-3.51,2.89c-.97.8-4.72-1.88-4-2.91l2.95-3.82c.07-1.76.9-.24,1.07.54Z" fill="#d6bc89"/>
  <path d="M323.71,789.21c-.43-.01-1.08,1.68-1.04,2.28l-1.59-3.53c-2.15-5.42-5.96-8.21-11.6-9.29,7.88-1.42,11.76,4.51,14.22,10.54Z" fill="#8a755d"/>
  <path d="M290.38,399.43l-8.4,14.04-1.34-.95,4.88-10.15,1.15-.75.89-2.41c.09-.24.41-.54.68-.47l2.15.68Z" fill="#ac9a7a"/>
  <path d="M597.2,798.25l-.04,1.19c-2.01-2.44-3.99-6.18-3.53-9.39.49-3.42,3.1-7.42,7.41-7.81l-5.81,5.75c.14,4.52.66,7.26,1.98,10.25Z" fill="#9a866b"/>
  <path d="M322.67,791.49c-.05-.6.6-2.29,1.04-2.28l5.37,13.14c-3.65-2.59-6.15-7.76-6.4-10.87Z" fill="#ac9a7a"/>
  <path d="M394.62,293.56v3.4c-2.61-1.3-5.19-3.17-7.23-5.1l2.25-2.14,4.97,3.84Z" fill="#9b7f56"/>
  <path d="M651.56,723.29h15.52c.53,0,2.83.73,2.27,1.06l-21.07-.17c.32-.44,2.41-.89,3.27-.89Z" fill="#ac9a7a"/>
  <path d="M246.19,588.46l-.55-20.01c.4-.57,1.11,1.72,1.11,2.26l-.56,17.75Z" fill="#a0865f"/>
  <path d="M328.9,763.35l-2.36-.31-6.02-2.65,1.34-1.63c2.7.54,5.05,2.18,7.04,4.59Z" fill="#998362"/>
  <path d="M614.37,338.68c-3.38-1.31-5.26-6.36-5.08-9.91l5.08,9.91Z" fill="#9b7f56"/>
  <path d="M604.41,314.73l.67-4.12-.67,4.12Z" fill="#87683f"/>
  <path d="M321.59,420.6l1.02-4.03-1.02,4.03Z" fill="#9b7f56"/>
  <path d="M901.98,627.23l2.19-5.72-2.19,5.72Z" fill="#91795d"/>
  <path d="M324.56,406.46l2.05-5.99-2.05,5.99Z" fill="#baa173"/>
  <path d="M900.98,631.41l1.27-2.9-1.27,2.9Z" fill="#91795d"/>
  <path d="M673.56,724.07l-3.21.29c-.05-.52.99-1.02,1.5-1.02s1.55.5,1.71.73Z" fill="#ac9a7a"/>
  <path d="M255.6,312.39c-.05.63-.11.88-.41.98l-1.47.26,1.87-1.24Z" fill="#a58d6a"/>
  <path d="M368.66,279.7l-2.29-1.08,2.29,1.08Z" fill="#b29a75"/>
  <path d="M386.72,615.42l.26-1.25-.26,1.25Z" fill="#b59c6f"/>
  <path d="M388.6,289.82l-1.11-1.25,1.11,1.25Z" fill="#9b7f56"/>
  <path d="M615.65,340.51l-1.25-.83,1.25.83Z" fill="#9b7f56"/>
  <path d="M388.52,616.54l-.8.16.8-.16Z" fill="#998362"/>
  <path d="M328.74,765.22l-1.04-1.05,1.04,1.05Z" fill="#998362"/>
  <path d="M841.15,751.24l.93-1.06-.93,1.06Z" fill="#b29a75"/>
  <path d="M862.17,651.36l.81-1.19-.81,1.19Z" fill="#bfa57a"/>
  <path d="M729.14,494.19l1.06.32-3.33,15.01-1.38,6.04-.47-3.45-2.84,2.06,1.74-16.82.42-18.79c.17-.67,1.07,1.8,1.06,2.36l-.41,21.57,1.35-.47-.15-26.29c.58-.3,1.04,2.01,1.05,2.9l.21,18.94c.64-1.07,1.61-2.73,1.7-3.38ZM724.79,504.52l-.02.65v.67l.02.65.02-.65v-.67l-.02-.65Z" fill="#a78d66"/>
  <path d="M724.37,477.48l-1.28-7.04c1.18,1.87,1.33,4.71,1.28,7.04Z" fill="#a78d66"/>
  <path d="M408.73,319.8l6.61.31-1.02,3.38c-6.5-.02-12.94,2.43-19.17,4.39l-3.76.97-.12-1.76,1.46-1.72-3.28-2.64,4.42-.58-6.33-1.14,8.14-1.03c7.93-.9,9.77,3.52,13.06-.18Z" fill="#a78d66"/>
  <path d="M768.35,515.51c-.18.71-1.52,1.91-1.93,2.54l-.57-1.31-8.59,7.61c-7.73,4.96-14.8,9.46-21.46,15.69-5.59,8.11-9.91,16.3-13.7,25.45l1.33.88-2.01,4.1-4.33,1.12.73-6.9c-.33-2.29-.61-4.97-.14-6.53,5.01-4.85,5.54-15.55,12.49-21.49-3.64,10.49-10.49,18.19-10.53,29.1,5.1-11.87,10.31-23.07,20.01-31.94l8.67-6.19c9.25-5.06,16.12-11.95,22.11-20.12l-2.07,8Z" fill="#a79273"/>
  <path d="M727.12,530.52l2.23-1.95-2.23,1.95Z" fill="#a0865f"/>
  <path d="M744.27,473.09l.98-3.58-.98,3.58Z" fill="#a78d66"/>
  <path d="M486.33,793.59c-3.33-4.45-6.46-6.76-5.14-16.38l1.02,1.12c.45,5.57,1.85,10.43,4.12,15.26Z" fill="#d6bc89"/>
  <path d="M422.63,404.39l-3.14-.76,3.14.76Z" fill="#baa173"/>
  <path d="M656.32,553.54l.02-6.08-.02,6.08Z" fill="#9b7f56"/>
  <path d="M624.35,701.37l-1.96-1,1.96,1Z" fill="#a78d66"/>
  <path d="M411.38,312.43c.87.6,3.35,2.05,2.71,2.76-4.19,4.63-7.42.41-5.93,4.33l-4.74-.45,3.15-2.38,2.16-.63-9.34-5.3c-13.55-7.69-28.42-12.99-43.75-14,.51-.4-1.63-.97-2.34-.98l-16.61-.2.98-.91,23.91.07c17.14,3,32.56,9.63,47.32,18.71.59.06,1.62.19,1.94.02l.53-1.05Z" fill="#998362"/>
  <path d="M433.14,324.24l-9.17.61c-.28.02-1.84.64-1.37.73l-9.05-.09c-3.07-.03-6.32.67-9.07,2.03-1.57.78-4.24,1.88-5.79,2.07l-4.35.3.83-2.02c6.23-1.96,12.67-4.41,19.17-4.39l18.81.75Z" fill="#d6bc89"/>
  <path d="M264.92,524.62l-1.1-1.18c.31-1.03,1.55-4.12,2.59-5.09l9.97-9.27c-1.23,3.66-3.88,5.82-6.21,8.81l-5.25,6.73Z" fill="#9a866b"/>
  <path d="M380.91,332.85l-7.11,4.33c-.63.38-2.83.16-3.55.28l-7.36,1.25c-.24-.47-1.21-1.59-1.17-1.53.04.05,1.12-.47,2.59-1.09.89.57.46.29-.73-.77l17.32-2.48Z" fill="#9b7f56"/>
  <path d="M310.65,287.86l.99-2.24c.19.6.35.87.67.82l1.82-.29,13.47-2.21,14.23-.91,10.77.88c11.23.92,22.47,4.1,31.18,11.2-19.25-8.79-38.46-12.58-59.05-9.41l-14.07,2.16Z" fill="#9a866b"/>
  <path d="M359.61,279.68l-2.98-.83,2.98.83Z" fill="#b29a75"/>
  <path d="M367.53,281.84l-5.78-2.13,5.78,2.13Z" fill="#b29a75"/>
  <path d="M635.53,358.45l-.69,1.58c8.41,5.04,16.88,7.86,25.88,11.29l16.41,6.25-.05,2.43-21.17-7.91c-9.78-3.66-19.14-7.72-26.59-14.37,1.86-1.11,4.07-.25,6.2.74Z" fill="#ac9a7a"/>
  <path d="M336.39,385.46l.14-1.08c3.17.06,8.29-.97,10.93-2.7l4.8-9.02c.39,3.96,1.69,5.88,4.3,9.12-2.03-.35-3.79-1.48-5.7-3.11-2.11,2.95-2.79,6.91-.92,10.06,1.48,2.5,4.08,4.11,8.35,5.52-2.29.8-6.55.15-8.31-1.65-2.1-2.13-2.53-6.08-2.41-8.89-3.67,1.22-7.37,1.99-11.17,1.76Z" fill="#a19178"/>
  <path d="M326.57,408.54l1.01-2.97-1.01,2.97Z" fill="#baa173"/>
  <path d="M398.68,329.6l-3.27,4.95c-1.5,1.91-1.92,5.24-.42,6.26,5.42,3.72,6.35-3.1,12.43-4.24l-6.45,8.72-1.89-1.69c-1.1-.98-6.71,3.97-4.82,13.1l-2.39-5.53c-3.63,2.65-5.97,5.91-5.29,9.84.57,3.31,3.11,6.01,5.96,8.58-2.2.23-4.49-1.75-6.25-3.96-6.19,5.44.07,10.03.14,14.89-6.01-4.4-5.91-10.93-1.75-15.86l.05-10.52c4.75-3.05,8.07-6.3,10.63-10.94-1.21-.75-3.21-2.87-3.3-4.32-.08-1.26.95-3.83,1.64-4.9l1.43-2.23c.26-.4-.71-1.13-1.04-1.38l.24-.48,4.35-.3Z" fill="#b39f7c"/>
  <path d="M443.62,324.43c-1.06-.42-2.69-1.06-2.45-1.35l2.06-2.51.39,3.86Z" fill="#a79273"/>
  <path d="M698.27,685.01l2.13,1.22-.33,2.28c-.11.53-1.11.88-1.6,1.1l-2.12-.12,2.11-2.53-9.39,2.84,2.34.73c-2.65,2.27-5.29,2.86-9.34,1.92l-8.7,1.6-1.78-.67c-.62-.24-1.7.55-2.25.94-.47.33-1.6.85-2.34.93l-1.68-1.54,3.78-1.52,19.07-3.93,3.14-.85,6.94-2.4Z" fill="#b59c6f"/>
  <path d="M486.69,410.79l-4.35-.15,4.35.15Z" fill="#b59c6f"/>
  <path d="M431.77,311.54c-.32.35-.79,1.09-.84.87l-.4-1.72,1.25.86Z" fill="#b39f7c"/>
  <path d="M249.65,584.53l-.98.35c-.08-.21-.6-1.35-.59-1.33.03.04.47-.98.55-1.15l1.02,2.13Z" fill="#a0865f"/>
  <path d="M697.26,670.69l-21.95,14.55c-7.44,4.93-15.84,6.32-24.05,8.73l11.07-.69c.39.4.82.9,1.03.6l.99-1.58,4.76-.12-3.78,1.52,1.68,1.54-16.61,1.81.27-.95-5.35-2.51,1.2-1.23c15.78-1.45,29.17-8.45,41.34-17.8l7.15-5.5,1.89-1.39c.26-.19.63.94.56,1.26l-.19,1.77Z" fill="#a58d6a"/>
  <path d="M698.33,370.45l-1.96.74,8.85,6.69.61.71,1.83,2.36.54-.07,2.33,2.61-.6,1.5-2.65-2.8c-.13-.12-.4-.42-.5-.59l-1.52-2.46-.81-.13-11.27-7.99c1.23-1.28,3.81-1.1,5.15-.57Z" fill="#b39f7c"/>
  <path d="M315.64,474.6c-.09,2.75-1.04,6.37-1.86,9.01l-.44-3.15-10.46,22.18-5.4,9.99-.87-.69,14.39-29.21c1.71-3.47,2.49-7.28,2.86-11.26-1.5.95-3.37,2.1-4.14,3.06-9.58,11.89-18.61,25.3-32.39,33.35,6.53-9.77,15.81-16.15,22.94-24.69,4.52-5.41,7.91-10.71,11.4-16.99,1.14-2.06.38-4.56-.35-6.85-.65-2.04,1.19-5.57,2.16-7.64,2.27.65,2.75,3.58,2.67,6.24l-.16,5.71-.35,10.94Z" fill="#9a866b"/>
  <path d="M376.66,553.33l-1.03-.1,1.03.1Z" fill="#af966c"/>
  <path d="M518.62,663.43l-1.15-1.14,1.15,1.14Z" fill="#b59c6f"/>
  <path d="M304.36,620.04c-6.93-9.55-11.49-22.34-10.81-35.15,1.66,12.39,5.04,22.69,10.81,35.15Z" fill="#a19178"/>
  <path d="M293.56,572.91c-.13-9.28,1.48-17.46,3.93-25.25-.85,9.46-1.97,17.24-3.93,25.25Z" fill="#a19178"/>
  <path d="M382.63,638.32l-3.03-.94,3.03.94Z" fill="#9b7f56"/>
  <path d="M677.09,380l.05-2.43c13.57,5.17,29.33,20.05,35.18,34.2-9.83-13.26-20.39-25.18-35.23-31.77Z" fill="#91795d"/>
  <path d="M730.21,494.51l-1.06-.32,2.67-19.01c1.86-13.24-.85-25.4-2.38-38.78,3.81,8.5,3.84,17.67,4,27.16.18,10.84-.98,20.84-3.22,30.95Z" fill="#91795d"/>
  <path d="M709.93,384.99l.6-1.5c8.74,9.78,15.69,22.08,17.66,35.13-4.94-12.69-10-24.1-18.26-33.63Z" fill="#9a866b"/>
  <polygon points="724.79 504.52 724.81 505.17 724.81 505.84 724.79 506.5 724.77 505.84 724.77 505.17 724.79 504.52" fill="#af966c"/>
  <path d="M358.66,319.48l-.03,1-27.77,4.04c8.59-4.11,18.43-3.67,27.81-5.05Z" fill="#a19178"/>
  <path d="M360.98,367.19l-1.24.07c-3.85.21-6.36,4.14-9.7,1.56l9.17-3.65c1.19-5.13.89-11.76,6.7-13.67-1.93,4.28-5.67,7.57-4.17,12.21l7.37,5.73c-3.85,1.07-4.98-2.43-8.13-2.25Z" fill="#998362"/>
  <path d="M379.39,349.51c-2.59-1.6-4.52-3-5.79-4.87l6.94,3.24c-.43-5.7,2.65-10.97,8.27-11.21-2.41,2.21-5.14,4.1-5.85,6.12-1.09,3.12.14,6.97,1.6,10.64l-5.16-3.92Z" fill="#ac9a7a"/>
  <path d="M338.8,393.96l-5.1-.67c2.91-.74,4.59-1.45,6.77-3.36.03,1.69.09,6.26,1.43,7.7,1.65,1.76,4.26,2.73,7.49,4.26-5.34,1.65-10.49-1.63-10.59-7.92Z" fill="#9a866b"/>
  <path d="M413.55,325.49l-5.32,2.7c-.78.56-2.24,3.18-1.8,4.05.53,1.05,1.7,2.11,3.01,3.33l-3.95-.35c-1.05-.09-.79-3.19-.68-4.25l-.34-3.45c2.76-1.36,6.01-2.06,9.07-2.03Z" fill="#b39f7c"/>
  <path d="M354.67,344.72c-12.35,5.88-22.95,11.78-34.11,18.95,9.51-9.3,21.87-15.45,34.11-18.95Z" fill="#a19178"/>
  <path d="M639.29,700.3l3.35-.79c5.11-1.21,14.58,4.58,28.13.41l17.82-5.48c-6.52,5.7-14.81,6.67-23.21,8.1-7.59,1.29-14.57.72-22.18-1.03l-3.91-1.2Z" fill="#b39f7c"/>
  <path d="M673.37,694.04l-4.02.27c.55-.39,1.62-1.17,2.25-.94l1.78.67Z" fill="#a58d6a"/>
  <path d="M311.07,293.21l-29.52,8.49c9.8-4.7,19.26-7.25,30.52-10.13.44-.11-.56,1.51-1,1.64Z" fill="#a19178"/>
  <path d="M406.57,316.69l-3.15,2.38-35.75-7.53-12.04-1.4c3.85-.36,9.63-1.16,13.7-.22l30.69,7.08.62-.91-17.1-6.39c-14.12-5.28-27.66-6.52-43.04-6.33,15.31-1.68,27.39-1.34,42.22,4.15l23.84,9.17Z" fill="#ac9a7a"/>
  <path d="M302.12,493.91l-19.23,32.17-1.56.09,27.07-45.91c-1.1,5.08-3.68,9.3-6.28,13.65Z" fill="#9a866b"/>
  <path d="M706.44,672.22c-6.11,5.95-13.14,10.26-21.37,13.01l21.37-13.01Z" fill="#a19178"/>
  <path d="M691.32,687.4l-3.14.85,3.14-.85Z" fill="#ab9268"/>
  <path d="M662.33,693.28l2.02-.98-.99,1.58c-.21.3-.64-.2-1.03-.6Z" fill="#b59c6f"/>
</svg>
