<svg xmlns="http://www.w3.org/2000/svg" viewBox="0 0 1024 1024">
  <path d="M311.54,508.67l-.7,7.21.08,21.5c3.39,30.43,24.05,55.48,51.01,68.79l23.53,10.67,1.48.03.8-.17.8-.16c.55.75,2.51,2.76,3.74,3.27,11.28,4.75,20.88,12.73,27.4,22.59l-3.01.38c-6.63-8.95-15.42-15.8-26-20.4l-12.35-5.56c-14.83-6.68-28.87-13.2-40.93-24.07-17.01-15.33-27.47-35.24-29.88-58.27l-1.37-13.11c-.77,4.59-.56,8.5-.44,12.59l-.61.55-.88-7.21-2.79,12.23-.99-6.1,1.65-7.58,1.49-8.43,6.71-13.68,2.21-.74-.9,5.66Z" fill="#b59c6f"/>
  <path d="M618.55,347.53l-1.19.69c-.3.2.2,1.41.56,1.42h1.52s.62,2.46.62,2.46c6.46,8.12,14.67,15.78,24.18,21.68l31.46,19.5c26.81,16.61,45.87,44.72,50.26,76.41l.23,6.03.15,26.29-1.35.47.41-21.57c.01-.56-.89-3.03-1.06-2.36l.02-1.06c.05-2.34-.1-5.18-1.28-7.04-3.18-24.45-15.09-46.73-34.02-63.59-9.32-8.3-19.48-14.31-30.28-20.75-1.67-.99-4.3-1.95-5.77-2.47-2.5-1.76-5.04-3.61-8.06-4.79l9.72,22.96-1.33,1.95c-4.92-7.69-8.38-16.09-10.55-25.59-.87-1.18-2.69-3.24-3.7-4.12l-15.57-13.57c-3.95-3.44-6.95-7.7-9.54-11.72l3.39-2.23c-.49-.43.82.71,1.17,1.02Z" fill="#af966c"/>
  <path d="M417.34,652.35l3.41,3.72.96-3.13,3.27.36,2.57,8.6c1.8,6.01,1.73,11.77,1.85,17.88.26,13.29-5.12,25.43-15.04,34.32-7.14,6.41-15.83,8.92-25.32,9.78-3.24.29-5.86.53-8.61-1.36,20.02.57,37.02-11.81,43.61-30,5.34-14.74-.63-33.46-15.61-40.72l4.24-3.5,4.66,4.04Z" fill="#8c6e48"/>
  <path d="M722.18,514.15l2.84-2.06.47,3.45c-1.58,6.93-4.19,13.33-5.12,21.22l7.43-16.3,1.7,6.95-.16,1.15-2.23,1.95c-1.39,1.57-2.58,4.9-3.35,7.46l-6.09,20.18c-.47,1.56-.2,4.24.14,6.53l-.73,6.9,4.33-1.12-1.33,5.7c-.07.28.33,1.22.4,1.48l-3.01,8.32-1.69.18c-.51.02-1.1-1.25-1.3-1.75l-.81-2.01c-.15-.37-1.22-.48-1.45-.31v-.61s.19-8.69.19-8.69l1.42,7.73,1.66-15.55-.41-18.53.07-8.44.4-12.43c.55-.35,1.72-.87,1.55-1.41l-.51-1.61,1-5.84,1.54-5.45,1.63,7.38c.37-.98,1.29-3.34,1.41-4.46Z" fill="#87683f"/>
  <path d="M419.49,403.63l3.14.76,1.29.58-3.41,1.08c-.7.21.41,1.98,1.02,2.68l-1.95-.2-.98-.91.99-1.83-11.03-1.03c-8.8-.83-16.92,3.23-23.93,7.7l6.88-1.03,1.16,1.1c-5.82,2.32-12.86,3.81-18.11,8.03-13.73,11.04-17.66,20.65-22.81,35.96-3.36-4.5,2.12-7.97,1.43-12.08l-6.5,2.59,4.65-6.78c14.12-17.9,39.29-43.88,62.03-38.15l6.12,1.54Z" fill="#caaf7e"/>
  <path d="M658.26,550.49l2.1,13.9c1.09,7.22-.49,14.84-4.04,20.89l-6.05,10.33c5.69-1.91,8.12-6.2,11.89-10.82-.37,19.17-12.86,34.13-28.83,41.97l-10.11.86c-2.12.18-5.26-.49-6.85-1.25,19.87-.17,37.48-14.02,42.2-34-6.31,5.04-12.54,8.88-19.14,12.25l2.39-4.73c8.83-8.76,17.81-19.51,16.1-33.28l-1.62-13.06.02-6.08.29-1.09,1.64,4.12Z" fill="#af966c"/>
  <path d="M292.7,548.55c.38,2.17-1.02,5.75-1.34,8.42l-1.98,16.56c-1.4,11.7,1.17,28.41,6.76,39.55,5.32,10.61,12.88,20.17,22.97,26.81l6.39,3.4,6.22,2.08c.1.08-2.35,1.18-1.94,1.52l2.57,2.18c-.85,0-3.46-.42-4.42-.87-25.07-11.79-40.74-36.07-41.34-63.75-.31-14.08,1.06-27.13,4.78-40.04l1.32,4.13Z" fill="#ab9268"/>
  <path d="M676.48,608.64c-7.97,7.75-17.65,13.91-27.85,18.65l-.4,5.22-2.21-4.94c-10.65,3.44-20.92,3.57-31.53,1.71l.46,2.57c.09.48-1.05,1.49-.99,1.32-.89-1.75-2.5-4.01-3.91-4.31l-12.43-2.69c-.29-.34.34-1.8.94-2.06l1.73-.75,10.15-4.35c1.96,2.83-6.08,5.9-.9,6.22,1.79.11,5.21.37,6.83,1.14s4.73,1.43,6.85,1.25l10.11-.86c13.23-1.12,26.97-6.37,36.11-17.24l6.03-7.93c-.69,2.23-.3,4.98,1,7.04Z" fill="#caaf7e"/>
  <path d="M627.34,692.45l1.6.74c.41.19,1.17-.57,1.5-.81l3.94-1.13-1.99,1.63c-.45.34,2.24,1.14,2.17,1.39l-13.25,3.61-.4,2.1,1.48.39,1.96,1h1.07s2.7,3.08,2.7,3.08c-5.62.33-9.58-6.68-19.52-2.91l-2.21-.39-4.16,1.59-5.81-1.27c-.67-.15-2.17.24-2.76.58-1.98,1.11,3.95,4.09,5.65,6.29.31.4.21,1.8.05,2.25-.89-.59-3.05-.78-3.97-.48l-3.76-1.31-.53,2.5-8.48-7.95-3.28-1.9-.08-2.45.17-.97,4.18-.47,17.58.6,1.89-6.88.51,6.22c8.3.04,16.56-1.98,23.76-5.06ZM593.08,707.79l-.65.02.65.02h.67l.65-.02-.65-.02h-.67Z" fill="#9b7f56"/>
  <path d="M412.67,648.31l-4.24,3.5c-11.82-5.72-23.04-2.92-35.52-.14s-34.04,2.94-40.55-2.6l-2.57-2.18c-.41-.35,2.04-1.45,1.94-1.52,5.99,3.41,13.07,5.39,20.61,5.34,4.86-.04,10.9.08,15.59-1.01,11.59-2.69,21.7-3.74,34.02-3.59l-13.41-3.54-6.71-1.12-.99-1.88,3.82-1.06c9.66,1.8,20.58,3.38,28.01,9.81Z" fill="#9b7f56"/>
  <path d="M717.48,585.96l-8.2,30.41c-2.54,9.41-12.55,30.66-18.3,35.36l-7.35,6.01,9.82-14.29c2.97-4.19,4.9-8.09,7.02-13.25l-5.86,1.72c-.73-.17-3.73-.74-4.13.14l-2.24,5.04-2.13-6.13c-.45-1.3-4.07-1.61-5.78-2.04,1.08-.49,3.76-1.42,4.96-1.07s3,2.43,3.84,3.37c3.62-1.66,6.86-2.15,11.71-1.62l5.89-14.75-5.5-.74c.29-.41,1.15-1.72,1.67-1.62l3.75.76,2.23-8.47,1.55-8.45,1.17-6.97c.31-1.85.26-4.47,0-5.93l.62-1.36c.24-.17,1.3-.06,1.45.31l.81,2.01c.21.51.79,1.77,1.3,1.75l1.69-.18Z" fill="#a78d66"/>
  <path d="M579.42,698.04l-.17.97-.69.97c-.2.45.35,1.23.77,1.48l3.28,1.9,1.61,4.26c10.69,15.95,26.3,26.54,44.32,32.79-2.95,3.73-5.24,1.24-7.43.11-3.4-1.76-6.33-2.23-9.64-3.21l.56-1.23-9.09-5.64-9.5-6.9c.47-.5.84-.9.54-1.13l-1.5-1.15-1.1-.83-3.13-4.86-3.6-4.43.46,4.29-.51,1.97c-.07.03-1.54-1.19-1.86-1.65l-5.23-7.52c-2.18-3.14-5.11-7.3-8.1-8.56l.67-3.82,9.32,2.21ZM581.23,708.35l-.12-3c-.02-.54-1.33-.7-2.01-.69l2.13,3.7ZM584.54,710.31c0-.61-.5-1.11-1.11-1.11s-1.11.5-1.11,1.11.5,1.11,1.11,1.11,1.11-.5,1.11-1.11Z" fill="#baa173"/>
  <path d="M365.66,550.38l-2.34.23c-.55.05-.82,1.36-.76,1.96l-5.94-.78-5.86-4.38c-14.53-7.47-25.79-20.84-25.51-37.25,3.18,10.2,5.35,19.84,13.24,26.37,3.1,2.57,5.57,5.62,9.89,6.39-8.03-10.15-12.73-20.14-15.13-31.45l2.12,1.29.63-5.25c1.51,18.57,12.22,35.6,29.66,42.87ZM348.32,543.95l-.65.02.65.02h.67l.65-.02-.65-.02h-.67Z" fill="#91795d"/>
  <path d="M690.98,651.73l-5.26,8.01c-5.13,6.91-16.35,16.05-16.37,16.03-.02-.01.84.58.98.61-1.94.63-4.58,1.66-5.93,2.84l-6.2,5.44,16.24-5.45c-6.42,4.94-13.82,5.8-21.39,8.06l-10.83,5.12c-.35-.19-.93-1-1.29-.83l-1.39.67-4.97,2.04c.07-.25-2.62-1.05-2.17-1.39l1.99-1.63,3.1-.65c2.62-.55,4.2-1.81,6.04-4.1l.55.73c.26.22,1.85-.09,2.2-.31l19.03-11.74,3.24-2.6,15.09-14.85,7.35-6.01Z" fill="#c4ac80"/>
  <path d="M640.99,584.16l1.58,1.15-14.29,10.03c-9.3,6.53-18.07,12.47-24.81,21.18l-3.22,2.38,2.24,1.45-1.41.96c-.26.18-1.1-.56-1.27-.72l-7.85-2.56,7.19-8.79-2.04-.1c-.27.03-.56.08-.54-.24l-.11-1.64s.27-.79.38-1.05c.11-.29.37-.36.66-.43l1.88-.45c.4-.1.47-.85.7-1.61l2.38-.28c-.55,1.01-.83,3.47-.94,5.05l7.81-8.39c-1.74,6.33-7.98,8.16-8.75,15.11,7.56-8.49,14.72-14.88,23.92-20.68l16.47-10.38ZM599.08,615.88l-.65.02.65.02h.67l.65-.02-.65-.02h-.67Z" fill="#c4ac80"/>
  <path d="M430.45,421.63l-5.07,9.93c-3.13,6.13-7.36,12.58-12.6,17.12-10.18,8.83-24.91,12.06-32.11,27.02-.34-.27-1.56,1.22-1.63.84l-.61-2.18c2.92-5.84,7.04-11.24,13.01-15.01l17.2-10.85c6.8-4.29,10.62-11.84,14.52-18.6l-5.13.54,3.32-6.94,4.37,3.05,3.43-5.97,1.29,1.03Z" fill="#c4ac80"/>
  <path d="M715.16,537.97l-.07,8.44c-2.15,1.51-2.54,5.16-1.74,8.07l-1.92,2.03c-3.49,9.74-8.23,18.5-13.99,26.96l-9.84,13.18-1.37-3.34,4.84-16.02-1.51,11.59,12.59-18.73,5.96-13.1c1.13-2.48.82-5.32.3-7.65.09,0,1.04-.66,1.14-1l2.05-6.77,3.56-3.69Z" fill="#baa173"/>
  <path d="M414.53,408.5l4.99,1.14,2.08.2c.42.04.49.58.86,1.45,3.81-1.13,9.97.55,12.28,3.49-.24.7-1.19,3.11-.72,3.01l1.72-.03-3.01,2.03v-2.91c.42-4.54-4.82,3.24-9.24,1.44l1.13-3.48.5-1.42c.12-.35.18-.7-.13-.7-.43,0-1.4.13-1.41.44l-.03,1.51-1.3-.49-20.7,12.81-1.31-1.57,4.24-2.93,10.99-8.85c-9.34,3.11-17.61,7.97-27,13,6.99-7.05,15.87-10.49,25.06-14.47l-1.22-1.11-.91-1.54,3.14-1.02Z" fill="#a58d6a"/>
  <path d="M315.71,507.79v4.77s-1.21,1.9-1.21,1.9c.04,12.5,3.19,24.45,9.22,34.77l1.12-1.35c-3.15-7.7-5.97-15.42-7.31-23.55,2.48.98,3.99,3.34,4.9,5.85-.53.5-.71,3.72-.19,4.88l6.15,13.55,5.4,10.08c-.68-.31-1.39-.88-2.84-2.03l-1.61,3.01c-11.59-11.93-16.8-31.59-16.99-48.2-.48,1.11-1.53,3.47-1.53,4.41l.7-7.21,4.17-.88ZM325.35,548.4l-1.53,1.05,2.91,3.3-1.38-4.35Z" fill="#a58d6a"/>
  <path d="M483.78,349.56l9.98,7.91c5.34,4.24,6.98,18.2,12.52,21.99,6.03,4.13,6.61,8.73,4.49,14.83l-2.86-2.51c.63-3.36.28-4.7-1.95-7.72l-9.28-12.55c-3.33-4.5-5.48-10.52-9.46-14.37l-7.72-7.47,4.29-.11Z" fill="#ad8d5d"/>
  <path d="M702.39,483.39l3.61,5.47c3.62,5.48,6.03,12.77,7.25,19.33l-3.03-.63c-3.04-11.58-7.94-22.45-16.59-31.35-7.52-7.73-15.8-15.42-26.41-18.19l-4.98-1.3,1.9-.93c.26-.12.22-.45.14-1.23,1.23.67,4.15.9,5.86,1.18,13.6,5.19,24.6,16.05,32.25,27.64Z" fill="#af966c"/>
  <path d="M579.3,620.76l10.26,1.76c1.58.27,4.1,1.62,4.79,2.94l-10.45-1.08-5.44-.42-3.11-.7c-10.28.31-21.29,3.23-32.57,7.31l3.7-3.5-8.99,2.97-1.57-.34c-.46-.1-1.44,1-1.86,1.22l-2.55,1.34c6.83-8.99,15.29-8.04,22.86-9.25,8.54-1.36,16.69-3.67,24.92-2.26Z" fill="#c4ac80"/>
  <path d="M687.63,571.78l-6.43,21.6-2.94,8.48,4.07-4.07,1.91-2.63c.39-.62,1.71-1.96,2-1.84l1.37,3.34-5.45,6.69c4.11-.31,6.6.49,7.8,4.76l6.29.41,1.04-.13,1.74,4.4c.27.63-.87,2.5-1.05,2.51-1.06-2.05-1.83-3.64-2.68-4.55s-4.27-.16-5.43.34c-.65-1.55-1.72-4.03-2.68-5.26-1.1-1.41-5.71-2.06-6.97-.83l-3.74,3.64c-1.31-2.07-1.69-4.82-1-7.04l5.69-18.37,3.93-12.62,2.52,1.17Z" fill="#af966c"/>
  <path d="M555.3,691.76l12.04,5.19-.79-7.09,4.03,2.29,9.97,1.33,3.05,4.09-4.18.47-9.32-2.21-.67,3.82c-8.66-1.8-16.56-5-24.3-9.99l-10.76-6.93,1.58-2.26,11.65,6.76,7.71,4.52Z" fill="#ad8d5d"/>
  <path d="M647.18,568.46c-9.83,17.2-27.4,14.03-41.26,28.62l-3.44,6.36-2.38.28c-.22.76-.3,1.52-.7,1.61l-1.88.45.53-2.74c6.33-10.63,16.02-17.32,27.68-21.09,7.11-3.7,14.25-7.05,18.49-13.43l2.96-.06Z" fill="#bfa57a"/>
  <path d="M687.63,571.78l-2.52-1.17,2.94-6.56c5.27-11.77,4.29-25.36-2.04-36.33l2.38-3.27c7.94,9.22,13.52,21.26,11.48,34.06-1.01-10.73-3.31-21.51-10.41-30.27,7.76,21.37,5.37,26.89-1.83,43.54Z" fill="#998362"/>
  <path d="M622.21,436.05l2.05,1.76-2.15,2.26c-1.5,2.01,4.02,2.07,4.34,4.4,4.83,12.3,17.06,19.07,29.93,24.06,7.76,3.01,14.85,6.89,20.96,12.02l-1.07,1.12c-15.82-11.72-30.78-13.73-40.58-22.26-5.2-4.53-8.28-9.44-12.25-15.14.71,5.23,2.06,10.2,4.23,14.24l-1.46,2.22c-2.92-5.67-5.68-11.82-6.24-18.08.35-2.44,1.09-4.96,2.24-6.6Z" fill="#a79273"/>
  <path d="M688.39,524.46l-2.38,3.27c-13.81-23.95-46.64-19.88-56.52-47.41,7,10.4,15.65,17.99,27.25,22.86,12.08,5.06,23.35,11.65,31.65,21.28Z" fill="#8a7257"/>
  <path d="M664.28,454.56c.08.78.12,1.1-.14,1.23l-1.9.93c-4.5-1.18-9.38-2.14-14.45-2.72-8.49-.01-15.81-3.75-21.35-9.53-.31-2.33-5.84-2.39-4.34-4.4l2.15-2.26,9.04,8.87c4.92,4.82,13.27,4.69,19.47,5l.57-.72-7.17-10.35c5.86,5.22,11.83,10.52,18.11,13.94ZM653.86,452.05l1.23.07-1.23-.07Z" fill="#91795d"/>
  <path d="M697.42,450.5l-3.04.14-.87-1.19-8.97-9.22-12.5-12.36c-7.5-7.41-14.2-14.99-18.68-24.13l1.33-1.95,4.92,7.59c10.53,16.24,24.52,24.26,37.81,41.12Z" fill="#c4ac80"/>
  <path d="M651.45,722.28l.1,1.01c-.86,0-2.96.45-3.27.89l-18.83-2.11-3.16.04-13.95-4.79c-4.71-1.62-9.1-4.15-13-6.73.16-.45.27-1.85-.05-2.25l1.13.05c7.28,3.6,14.46,7.62,22.6,9.24-1.3-2.31-1.06-2.09-.27-2.43,6.78,3.56,11.64,4.73,18.38,5.66l10.3,1.42Z" fill="#c4ac80"/>
  <path d="M442.47,405.9c1.49.42,4.44,1.97,5.44,2.67-3.19,1.67-4.63,2.38-5.94,3.64l-3.34,3.22-2.89,2.33-1.72.03c-.47.11.48-2.31.72-3.01-2.31-2.95-8.47-4.62-12.28-3.49-.37-.87-.44-1.41-.86-1.45l-2.08-.2.06-1.1,1.95.2,10.62-3.59c3.22-1.09,6.84-.24,10.32.75Z" fill="#8c6e48"/>
  <path d="M537.5,630.05c-4.82,5.12-10.23,8.79-17.39,9.99-3.51.59-4.65,5.3-5.55,8.39-1.48,5.1-1.62,9.3,1.94,12.89l-1.28,2.1c-1.69-2.37-6.64-5.81-5.43-9.71l3.04-9.84c1.88-6.09,6.21-9,12.33-8.84l6.36-2.76,2.55-1.34c.42-.22,1.4-1.32,1.86-1.22l1.57.34Z" fill="#b59c6f"/>
  <path d="M670.6,491.3v2.47s-22.84-11.75-22.84-11.75l-10.99-7.93c-4.77-3.44-8.07-8.5-10.56-13.35l1.46-2.22c4.58,8.52,11.46,15.65,20.27,20.44l22.67,12.34Z" fill="#baa173"/>
  <path d="M482.34,410.63l4.35.15.73.05.3,1.65c-1.58.84-4.65,1.13-7.12,1.36l-20.03,1.84-12.1.33-9.83-.59,3.34-3.22,7.56,1.09,17.17-.78,15.64-1.89Z" fill="#c4ac80"/>
  <path d="M450.62,323.68l10.11,6.83c4.42,2.98,9.23,5.39,12.71,8.83l-2.03,2.39-4.53-3.38c-.48-.36-2.38-1.11-2.75-.67l-2.47,2.98.84-5.28-7.68-1.36c-1.6.71-1.29.55,1.68-.87-1.11-.85-3.2-2.11-4.76-2.7l-4.24-1.63-3.2-1.52c.49-.42,1.45-1.57,2.13-1.47l3.93.56c.43.45-.58-.7-.98-1.03l-1.85-1.52,3.08-.17Z" fill="#d6bc89"/>
  <path d="M351.76,456.52l-4,14.07c-1.27,4.45-4,7.93-6.12,11.43l-1.17-3.63-2.16,1.99,5.03-7.86c3.96-6.19,6.57-17.75,3.64-22.04l-.28-2.24c-.05-.38-.36-.49-1.32-.8l1.31-.42,6.5-2.59c.68,4.11-4.8,7.58-1.43,12.08Z" fill="#c4ac80"/>
  <path d="M709.54,548.42c-.1.34-1.05.99-1.14,1-1.65-7.32-2.51-14.98-5.87-22.28-5.11-11.11-12.84-21.09-22.74-27.46l1.49-1.64,7.34,6.2c13.38,11.3,20.39,26.98,20.91,44.18Z" fill="#998362"/>
  <path d="M700.42,666.56l1,1.97-4.15,2.16.19-1.77c.08-.32-.3-1.45-.56-1.26l-1.89,1.39-7.15,5.5c-4.24,0-8.52,1.96-12.77,4.93l-.58-2.18-10.1,1.92c1.35-1.19,3.99-2.22,5.93-2.84,7-2.25,14.51-4.1,21.34-7.76,6.13-3.29,9.2-9.91,14.78-14.3-1.43,2.96-3.41,6.08-5.39,8.74l-1.51,2.02c-.3.4.55,1.16.87,1.47Z" fill="#b39f7c"/>
  <path d="M400.22,425.41l1.31,1.57c-8.1,5.02-15.77,11.7-21.77,19.62l-6.23,10.93.75-4.7-3.95-2.37,1.9-6.99,1.35,2.11.11,2.59,13.81-13.75,12.7-8.98Z" fill="#af966c"/>
  <path d="M356.62,551.78l5.94.78c1.07.14,3.18-.54,4.11-.94l2.97-.13,1.12-.06-.12,1.81-.99.24-4.04.95c-14.92,1.51-28.74-5.3-38.15-16.8l2.26-1.17c7.71,7.47,16.06,13.9,26.91,15.32Z" fill="#af966c"/>
  <path d="M622.21,436.05c-1.15,1.64-1.88,4.16-2.24,6.6l-.63-7.05c-1.41-15.82,6.34-38.81,21.32-42.83-11.77,8.18-18.51,20.62-18.48,34.86l.02,8.42Z" fill="#91795d"/>
  <path d="M398.68,414.39l-5.74,3.82-6.5,5.13c-7.01,5.53-9.57,14.46-12.84,22.22l-1.35-2.11,4.02-10.27c3.18-8.12,9.64-15.02,17.34-18.53,1.18-.53,3.83.03,5.08-.27Z" fill="#caaf7e"/>
  <path d="M599.82,620.59l.47,2.77-1.73.75c-.6.26-1.23,1.72-.94,2.06l-3.27-.71c-.7-1.32-3.21-2.67-4.79-2.94l-10.26-1.76c2.2-.22,5.01-1.14,6.78-2.5l7.93-6.08,3.11-3.05,2.04.1-7.19,8.79,7.85,2.56Z" fill="#b59563"/>
  <path d="M317.54,507.03c2.68,7.72,2.5,20.06,12.17,29.43l-2.26,1.17c-1.83-2.24-3.98-4.6-5.02-7.45-.91-2.51-2.42-4.87-4.9-5.85-.99-3.76-1.8-7.98-1.81-11.78v-4.77s-.04-5.27-.04-5.27l1.86,4.51Z" fill="#caaf7e"/>
  <path d="M693.5,449.45c-.51-.02-.82,1.19-.94,1.71,6.69,11.99,10.88,24.6,13.45,37.7l-3.61-5.47.8-.77c-4.2-15.22-10.67-29.07-18.66-42.37l8.97,9.22Z" fill="#998362"/>
  <path d="M527.57,742.07l-2.13,2.58c-7.52-2.29-15.85-2.36-22.88.71.08-.67.13-2.79-.63-2.88l-2.57-.56c9.06-3.69,19.21-3.64,28.22.15Z" fill="#ad8d5d"/>
  <path d="M403.83,569.18l-1.33,1.44c-2.34-.67-4.31-2.63-4.71-5.34-4.62-5.99-11.41-8.88-18.1-11l-3.03-.96-1.03-.1-5,.02.12-1.81c13.38-.76,27.91,6.36,33.08,17.76Z" fill="#a0865f"/>
  <path d="M380.67,475.71c-5.09,10.58-3.39,19.45-6.72,25.58l-.73-4.86-2.68,3.07-.81-9.78.93-3.54.69,1.36,1.33,7.76c1.31-8.2,2.5-14.41,5.76-20.93l.61,2.18c.07.38,1.29-1.11,1.63-.84Z" fill="#a58d6a"/>
  <path d="M591.39,720.42l1.1.83c-.14.43.49,1.94.96,2.28l9.5,6.9,9.09,5.64-.56,1.23c-8.07-2.39-23.07-12.41-26.86-19.92l.51-1.97,2.76,2.64c.69.86,2.6,2.03,3.51,2.37Z" fill="#caaf7e"/>
  <path d="M595.38,710.12l8.02,7.2v.94s-1.15.2-1.51.27c-.29.06-.25.4-.07.62l1.56,1.82,13.15,10.31c-7.89-3.14-13.96-8.38-20.5-13.71l-4.95-6.26.53-2.5,3.76,1.31Z" fill="#ac9a7a"/>
  <path d="M333.79,558.69l10.16,11.29,6.05,5.44-3.64.4-6.56-5.49c-4.01-3.3-7.95-6.72-10.44-10.66l1.61-3.01c1.45,1.15,2.16,1.72,2.84,2.03Z" fill="#9b7f56"/>
  <path d="M510.76,394.3c-1.56,4.49-4.07,8.09-8.96,10.7l-14.09,7.5-.3-1.65,6.77-9.55-1.34,4.98,10.34-5.01c3.82-1.85,4.14-6.4,4.72-9.48l2.86,2.51Z" fill="#b59c6f"/>
  <path d="M517.47,662.29l1.15,1.14,4.04,6.02c2,2.98,4.75,5.33,8.07,8.47l.27-3.88,4.95,6.43-1.58,2.26c-3.92-1.68-8.23-4.01-11.2-8.19l-7.93-11.12,1.28-2.1.97.98Z" fill="#c4ac80"/>
  <path d="M655.2,543.4c-1.93,4.4-2.57,8.65-3.26,14-.48,3.71-2.99,7.95-4.77,11.06l-2.96.06c8.19-12.31,3.74-22.58,11.13-29.2.71,1,.29,3.09-.15,4.08Z" fill="#af966c"/>
  <path d="M373.95,501.29c1.15,7.64-2.25,17.61-10.22,22.45,4.29-8.24,7.56-15.29,6.81-24.24l2.68-3.07.73,4.86Z" fill="#8c6e48"/>
  <path d="M658.26,550.49l-1.64-4.12-1.42-2.97c.44-1,.85-3.09.15-4.08,1.37-4.23,9.28-9.75,15.06-11.98l-8.24,9.14c-3.11,3.45-3.81,9.72-3.9,14.01Z" fill="#9b7f56"/>
  <path d="M341.64,482.02c-4.52,7.48-4.29,14.68-5.95,21.57l-.42-3.11-3.56,3.63-.77-7.49,2.4,3.82c.79-7.14,2.47-13.82,4.98-20.07l2.16-1.99,1.17,3.63Z" fill="#a58d6a"/>
  <path d="M411.38,409.52l.91,1.54-13.61,3.33c-1.26.3-3.91-.27-5.08.27l.9-1.62c.2-.39-1.85-.55-1.82-.51l-1.16-1.1,5.03-1.04,14.84-.87Z" fill="#a78d66"/>
  <path d="M370.6,468.58l.05,17.6-.93,3.54c-2.11-7.7-2.44-15.55-1.45-23.23l2.33,2.09Z" fill="#8c6e48"/>
  <path d="M424.61,414.83l-1.13,3.48c4.42,1.81,9.66-5.97,9.25-1.44v2.91s-2.28,1.85-2.28,1.85l-1.29-1.03-3.43,5.97-4.37-3.05,1.34-1.8c.4-.52,1.2-1.82.8-2.33l-1.79-1.96.52-3.27,1.3.49,1.07.17Z" fill="#b39f7c"/>
  <path d="M542.99,754.23l-1.82,1.44c-3.54-4.97-9.88-9.23-15.74-11.02l2.13-2.58c6.15,2.58,11.48,6.78,15.42,12.16Z" fill="#91795d"/>
  <path d="M402.5,570.63l1.33-1.44c5.48,4.41,8.38,13.03,7.44,20.31-2.05-7.21-4.98-13.2-8.77-18.86Z" fill="#8c6e48"/>
  <path d="M682.32,597.78l-4.07,4.07,2.94-8.48,1.31.5,6.52-21.57c.39,9.04-4.02,16.9-6.7,25.48Z" fill="#c4ac80"/>
  <path d="M386.98,614.16l-.26,1.25.21,1.45-1.48-.03-10.76-16.33,2.05-1.27c3.95,4.51,7.49,9.71,10.24,14.92Z" fill="#998362"/>
  <path d="M375.63,553.23l1.03.1,3.03.96-9.21.47c7.44,2.63,14.67,4.17,21.23,8.86l-22.23-7.83.16-2.31.99-.24,5-.02Z" fill="#ac9a7a"/>
  <path d="M512.43,453.43c-.94-1.54-3.09-4.36-4.31-5.39l4.39-4.52,4.38,4.52c-.97.79-2.99,3.29-4.46,5.39Z" fill="#caaf7e"/>
  <path d="M419.65,642.4c2.23,3.38,4.22,7.19,5.33,10.9l-3.27-.36-3.07-5.71-2-4.45,3.01-.38Z" fill="#a78d66"/>
  <path d="M515.33,342.62c.43.71-1.88,3.45-2.55,2.94l-3.41-2.6,3.17-4.96,2.79,4.63Z" fill="#cdad79"/>
  <path d="M597.12,609.13l-3.11,3.05,2.47-4.92.11,1.64c-.03.32.27.28.54.24Z" fill="#bfa57a"/>
  <path d="M365.66,550.38c.24-.02.74-.02,1,.03v1.21c-.92.41-3.03,1.08-4.1.94-.06-.6.21-1.91.76-1.96l2.34-.23Z" fill="#a0865f"/>
  <path d="M720.49,577.64c-.07-.26-.47-1.2-.4-1.48l1.12.06-.71,1.42Z" fill="#a79273"/>
  <path d="M301.38,539.54l.69,18.62c2.03,22.64,12.8,42.47,30.99,55.82,2.54,1.87,4.62,4.07,6.48,6.61,10.63,7.58,22.73,12.28,35.35,15.56l4.71,1.23,3.03.94,2.04.18-3.82,1.06-1.27.5c-15.73-4.14-31.63-9.36-44.54-19.92-26.25-21.47-34.51-39.64-36.76-73.25-.28-4.2,1.26-9.48,2.12-13.44l.99,6.1Z" fill="#a58d6a"/>
  <path d="M318.6,474.7l-.73,9.03,6.47-10.45,1.61,3.36c-4.8,9.56-8.31,19.61-8.41,30.39l-1.86-4.51-.2-10.14-3.05,10.63-2.21.74-6.71,13.68-3.56,7.21-2.3-2.21,2.9-6.19c5.15-10.97,9.78-21.54,13.21-32.64.81-2.64,1.77-6.25,1.86-9.01l2.27-2.29.69,2.39Z" fill="#9b7f56"/>
  <path d="M418.64,647.23l3.07,5.71-.96,3.13-3.41-3.72,1.09-1.56c-8.09-11.41-18.81-19.57-32.07-23.18l-22-6c-9.13-2.49-18.4-5.3-24.81-12.3,8.68,4.69,16.43,9.18,26.01,11.19,10.01,2.1,20.35,3.62,29.17,8.7l10.83,6.23,13.09,11.81Z" fill="#a19178"/>
  <path d="M715.08,546.42l.41,18.53-1.66,15.55-1.42-7.73.54-12.43.4-5.86c-.8-2.91-.42-6.56,1.74-8.07Z" fill="#ad8d5d"/>
  <path d="M713.26,508.18l3.34,14.34.51,1.61c.17.54-1,1.06-1.55,1.41-.85.54-1.4,2.44-1.39,3.58l.02,2.71c0,.6-1.28.74-1.85.64.41-8.42.02-16.8-2.11-24.91l3.03.63Z" fill="#9b7f56"/>
  <path d="M717.23,492.59c1.2,5.89,1.91,12.75,1.91,18.64l-1.54,5.45-1.45-11.29-2.09-13.8,1.66,2.99,1.51-2Z" fill="#9b7f56"/>
  <path d="M715.16,537.97l-3.56,3.69-.11-1.18.71-4.98.15-3.03c.57.1,1.86-.03,1.85-.64l-.02-2.71c0-1.14.54-3.04,1.39-3.58l-.4,12.43Z" fill="#ad8d5d"/>
  <path d="M712.23,581.46v.61s-.63,1.36-.63,1.36c-.35-.5-1.32-1.19-1.7-.9l-2.22,1.69.45,7.24-2.48-4.96c-.51-1.03-2.91-1.01-5.15-2.1l6.11-1.76,5.62-1.18Z" fill="#9a866b"/>
  <path d="M429.54,404.77l2.6.37-10.62,3.59c-.61-.7-1.73-2.46-1.02-2.68l3.41-1.08,5.62-.2Z" fill="#baa173"/>
  <path d="M609.55,625.23c-5.18-.31,2.86-3.39.9-6.22l11.07-7.08,2.01,1.74c-4.06,2.13-8.67,4.74-12.23,7.53,11.66-.61,18.92-7.9,29.51-9.52-9.19,6.03-19.46,9.03-30.06,12.15l-1.19,1.39Z" fill="#b39f7c"/>
  <path d="M650.67,696.08l-.27.95-11.31.61c.5.83,2.07,1.74,3.55,1.86l-3.35.79-8.55-.35c-3.78-.16-6.44-.71-9.82.03l.4-2.1,9.73-.82,19.63-.99Z" fill="#a79273"/>
  <path d="M630.44,692.38c-.33.24-1.09,1-1.5.81l-1.6-.74c1.75-3.54,1.13-6.08-1.71-8.99l3.52,1.68c1.29.61,6.88-5.33,6.34-8.3-.4-2.2-1.69-5.1-2.99-8.38,2.07,1.27,4.68,4.42,4.95,6.64,1.1,9.01-10.02,10.07-7.01,17.28Z" fill="#a79273"/>
  <path d="M596.42,701.48c-.35.18,1.12,1.93,1.97,2.35l23.07,11.21c-7.72-.18-18.78-9.07-20.37-7.6l-.65.97-1.13-.05c-1.7-2.2-7.63-5.18-5.65-6.29.59-.33,2.09-.72,2.76-.58Z" fill="#a19178"/>
  <path d="M606.39,701.16l1.87,2.31,26.18,10.56c-2.1.1-4.87-.2-6.72-.95l-25.49-10.33,4.16-1.59Z" fill="#a19178"/>
  <path d="M628.12,704.46l2.34-.14-.36,3.33c-5.96-2.92-15.2-4.98-21.49-6.1,9.93-3.77,13.9,3.23,19.52,2.91Z" fill="#b59c6f"/>
  <path d="M644.4,693.51l.91.06,5.35,2.51-19.63.99-9.73.82,13.25-3.61,4.97-2.04c-.1.76.72,2.24,1.39,2.09l3.48-.81Z" fill="#87683f"/>
  <path d="M381.84,641.44c-2.77.43-6.78.82-10,.69l-8.14-.33-11.21-.45-4.91-.64,8.08-.31,23.91-.34,1.27-.5.99,1.88Z" fill="#b39f7c"/>
  <path d="M663.5,657.34l2-.15-2.38,5.38,4.59,3.03c.82.54.47,3.33.29,4.31l-.34,1.85c-.06.32.18.45.87.83l-3.24,2.6-1.7-1.24c1.76-2.02,2.92-3.93,2.91-6.07,0-1.63-3.09-3.92-4.6-3.61l-4.39,5.07c.86-5.27,1.2-7.86-.89-11.85l-5,7.2c.5-4.36,1.45-8.15-.04-11.67-.85-2.01-6.16-3.8-7.45-3.65l-3.67,5.25c2.17-7.24.39-12.71-6.74-15.78,7.24-2.21,8.16,5.98,10.4,8.63,4,1.74,9.58,1.78,11.41,8.03l5.55,5.8,2.41-3.97Z" fill="#ac9a7a"/>
  <path d="M643.53,686.5c-1.84,2.29-3.43,3.56-6.04,4.1,2.2-2.08,5.2-4.57,6.59-7.66,1.16-2.57-1.91-6.04-4.6-7.03l2.34-3.3c2.01-2.84,3.4-6.5,1.96-9.95-1.17-2.8-3.28-4.23-6.85-6.61,2.67-2.64,9.57,4.24,9.64,9.8.04,3.09-1.89,5.86-4.6,8.53,4.51,3.16,4.44,8.52,1.56,12.11Z" fill="#a79273"/>
  <path d="M642.21,692.4l2.19,1.11-3.48.81c-.67.16-1.49-1.33-1.39-2.09l1.39-.67c.36-.17.94.64,1.29.83Z" fill="#a79273"/>
  <path d="M642.57,585.31l-1.58-1.15c5.3-3.34,8.77-9.38,12.37-14.3-1.83,6.69-6.04,12.11-10.8,15.45Z" fill="#ac9a7a"/>
  <path d="M602.49,620.35l-2.24-1.45,3.22-2.38c-.05.45.08.9.37.75l1.57-.84,10.18-5.53.69.89-13.79,8.57Z" fill="#a19178"/>
  <path d="M343.66,414.8l-5.91-11.7-9.27-.59,1.33-3.89,1.84,2.68c1.27,1.29,6.43-2.4,8.99-.25.38,4.17.84,6.88,2.48,9.57,1.26,2.06,5.47,3.41,7.27,2.78-.45-3.3-.28-4.94.84-6.91.15,7.09,4.48,11.73,11.54,12.56-3.6,1.43-7.14.44-9.94-3l-9.18-1.24Z" fill="#a19178"/>
  <path d="M343.66,414.8c-.13,3.75,1.18,7.45,4.24,10.56,3.22.35,5.7.04,7.31-1.12l4.42,3.12-5.52.07c-3.25.04-6.32-.65-9.79-1.23-2.8-.47-6.9,1.2-9.69-1.03-2.2-1.77-3.05-4.51-3.53-8.04l-5.42-.53.8-4.06c-.09.79,1.64,3.78,2.59,3.26l4.06-2.2.5-.49-.93-1.09c-.25-.29.22-1.81.52-1.57l1.53,1.2c2.81,2.21,5.59,2.69,8.9,3.14ZM334.22,413.8l-.6.38c-.85,3-.48,6.37,1.56,8.7,1.78,2.03,6.76,2.25,8.54,1.24l-1.37-8.37c-2.68.86-6.47-.14-8.13-1.95Z" fill="#a19178"/>
  <path d="M578.46,623.96l-5.75,5.58c3.72,2.34,6.05,5.51,4.16,9.01-1.08-6.57-5.22-8.89-11.69-9.66,1.56-.57,3.19-.76,5.59-.68,1.91.07,4.51-2.88,4.58-4.95l3.11.7Z" fill="#ac9a7a"/>
  <path d="M697.29,608.39l-1.04.13c.25-1.86-.54-5.76-1.56-7.41-.64-1.04-4.23-.3-6.07.04.18-1.4,4.29-3.42,6.05-2.6,1.48.69,3.12,3.65,3.98,5.65,2.94-1.49,7.51-1.13,8.45,1.98l-6.83-.74c-1.16-.13-2.32,1.88-2.98,2.96Z" fill="#a79273"/>
  <path d="M570.59,692.15l-4.03-2.29.79,7.09-12.04-5.19.02-1.47c.76.46,2.85,1.09,3.76,1.31s2.11-1.1,2.64-2.07c8.38.54,18.27-3.4,21.28-12.64,1.29-3.98-.02-9.03-.27-14.38,5.16,9.15,4.07,20.44-6.96,26.34l-5.16,3.31Z" fill="#b39f7c"/>
  <path d="M676.26,481.68l1.07-1.12c7.24,6.08,14.61,13.12,17.92,21.92-6.64-7.77-11.66-15.36-18.99-20.8Z" fill="#8a755d"/>
  <path d="M370.77,348.64c-.91,2.33.19,6.17,1.97,7.94l6.69-5.32c-2.17,4.06-4.89,7.53-5.71,11.13-1.37,5.98,2.01,9.1,5.92,12.16-1.98-.46-3.99-1.7-6.4-3.34-3.89,6.75-1.05,15.5,6.21,18.06-5.68.58-7.93-4.05-9.32-6.71-2.48-4.76,1.43-8.55,1.62-12.24l.62-11.79c-3.45-1.95-4.71-7.87-3-10.77l1.39.88Z" fill="#a79273"/>
  <path d="M697.42,450.5c9.71,12.33,16.64,26.52,19.81,42.09l-1.51,2-1.66-2.99c-3.26-15.11-10.42-28.92-19.69-40.96l3.04-.14Z" fill="#af966c"/>
  <path d="M442.47,405.9c-3.48-.99-7.1-1.84-10.32-.75l-2.6-.37,6.24-2.27c-4.18-5.17-8.08-10.7-5.2-17,2.2,9,5.39,15.75,11.88,20.39Z" fill="#ab9268"/>
  <path d="M429.59,326.33l-1.24,5.05-3.21-.53c-.7,2.34-1.13,5.78-1.09,8.39-3.51,2.59-5.54,6.32-5.95,11.6-1.37-2.56-1.39-4.67-.65-8.35-3.3.39-8.02,2.73-9.05,5.53-1.45,3.95-.31,6.37,1.19,10.87l-4.2-4.59c-2.34,1.57-5.46,5.2-5.43,7.98.03,3.03,1.9,6.29,3.55,9.59-4.15-1.57-6.63-6.2-5.78-10.42.75-3.62,3.43-6.85,7.71-8.25-.02-4.85,2.03-9.19,7.16-10.87-2.49-3.14-2.84-7.35-.49-10.54,2.18-2.95,6.07-5.82,10.25-3.05-3.96,1.09-6.53,1.77-8.45,3.82-2.02,2.15-2.02,6.52.36,8.34,2.92,2.23,8.42-.69,8.14-4.13-.38-4.63,1.91-7.76,5.17-9.89l2.01-.55Z" fill="#ac9a7a"/>
  <path d="M451.74,330.45c-1.67.16-3.94.83-5.34,1.61-1.62.91-.71,4.54,1.13,5.27-6.16,1.64-8.21,6.1-7.2,12.87-2.21-1.63-2.4-4.57-2.12-7.38.21-2.1,4.24-4.39,5.16-6.27l4.13-7.73,4.24,1.63Z" fill="#b39f7c"/>
  <path d="M346.98,450.48l-11.18,13.4-1.29-3.48,10.87-12.96c.95.31,1.27.42,1.32.8l.28,2.24Z" fill="#caaf7e"/>
  <path d="M320.09,445.59l-1.83,16.8-.35,9.92-2.27,2.29.35-10.94.16-5.71c.07-2.66-.4-5.59-2.67-6.24l2.29-4.86,4.47-9.49-.14,8.24Z" fill="#7c5f3f"/>
  <path d="M322.52,446.7l-.71,9.73c.05.95,3,2.5,3.81,1.85l3.04-2.43-1.91-2.77c-.28-.41,1.78-1.54,1.27-1.14,1.4,1.42,2.91,2.84,4.3,3.5.99.47,2.7-1.36,4-2.82l1.46,2.58-8.22,2c-2.4,2.3-3.83,3.4-7.51,2.6-.38.31-.85,4.46.27,5.25l4.34,3.08c-.57.59-1.99,1.24-2.63.73l-2.93-2.3-2.49,8.13-.69-2.39.35-9.92,1.83-16.8,2.43,1.1Z" fill="#af966c"/>
  <path d="M324.67,428.56l-.02-1.01,6.32-2.93c-2.05,3.83.57,8.8,3.62,9.75,1.06.33,3.81-.51,3.92-1.47l.47-4.28,2.98,6.41c.68,1.46,4.74,1.61,6.67,2-.33,1.02-3.82,2.06-4.86,1.25l-4.37-3.42c-3.81,1.46-8.43,1-10.14-4.17-.46-1.39-2.96-2.49-4.57-2.13Z" fill="#a19178"/>
  <path d="M322.52,446.7l.15-2.13c.76.99,4.63,2.63,5.77,1.64,2.06-1.78-.34-6.72-2.86-7.42-.63-.93-1.42-2.3-1.77-1.82l-1.36,1.55c-.09-2.42-.01-6.04,1.02-7.86,0,1.35.92,4.2,1.9,5.54.86,1.18,3.92,1.12,5.21.79-.34,2.43-.69,4.97-.35,6.23.28,1.08,2.77,2.24,3.84,1.93l2.09-.6c.42-.12.97,1.48.54,1.53l-2.2.26c-2.64.31-5.13,1.01-7.91,1.99l-4.06-1.63Z" fill="#a19178"/>
  <path d="M422.7,421.72c-.35-.64-.74-.8-1.11-.63l-1.37.86-.59-2.46,2.08-2.06,1.79,1.96c.41.52-.4,1.82-.8,2.33Z" fill="#c4ac80"/>
  <path d="M355.66,640.4l-8.08.31c-8.23-1.07-17.31-4.36-23.06-11.52,8.4,4.6,15.54,9.72,25.1,10.23l6.04.98Z" fill="#91795d"/>
  <path d="M335.8,463.89c-3.17,3.84-5.13,8.86-6.74,13.63l-.67-3.93-2.44,3.07-1.61-3.36,2.76-4.17,7.42-8.71,1.29,3.48Z" fill="#ab9268"/>
  <path d="M681.33,418.08c-2.6-1.53-5.49-4.06-7.62-6.75l-12.69-15.95.96-.84,10.11,12.32,9.24,11.22Z" fill="#91795d"/>
  <path d="M618.47,668.85l-5.14,5.84c2.15-6.81,2.09-12.26-4.29-15.64l-5.43,4.49c2.88-5.66,3.29-11.19-1.34-16.23,4.76,1.04,6.53,5.38,6.16,10.12,5.24,1.42,8.84,5.11,9.19,10.54,4.98,1.56,8.32,5.56,7.72,10.63-.78,4.25-4.17,8.71-9.51,9.3,3.49-3.03,6.52-5.34,6.75-7.95.4-4.65-.75-8.4-4.11-11.09Z" fill="#b39f7c"/>
  <path d="M561.71,689.53c-.53.97-1.77,2.28-2.64,2.07-.91-.22-3-.85-3.76-1.31l-8.05-4.94c7.34,1.02,13.59,1.68,19.51-2.94l3.64-4.26c-.19,5.93-5.96,8.15-10.96,9.5l2.25,1.88Z" fill="#9a866b"/>
  <path d="M653.96,648.97c-.73-5.34-.67-9.42-5.7-11.03l-3.03,3.87c-1.16-4.51-1.63-6.01-3.36-9.79l5.66,4.41c1.63,1.27,6.19,2.01,7.26,3.91,1.28,2.29,1.66,6.39-.83,8.63Z" fill="#ac9a7a"/>
  <path d="M557.7,663.6l-8.68,1.32c-4.37.66-8.29-1.96-10.61-5.37l13.54,2.44c1.98.36,4.53,1.09,5.75,1.6Z" fill="#b59c6f"/>
  <path d="M707.56,592.97c4.53,1.14-1.77,2-1.59,9.3l-2.57-4.42c-.6-1.04-3.81.38-4.74.46l1.78-4.34c.43-1.06-2.04-2.44-3.39-3.69.16-.47,2.98-1.24,3.31-.54l1.52,3.25c.49,1.04,1.21,2.34,1.94,2.66.92.4,2.92-1.19,3.74-2.67Z" fill="#a19178"/>
  <path d="M600.55,687.46c2.36-3.19,4.17-5.98,4.16-9.66,0-3.29-2.07-6.31-4.18-9.62,3.87,1.15,6.5,5.81,6.56,9.67.05,3.81-2.73,8.5-6.53,9.61Z" fill="#a79273"/>
  <path d="M687.16,650.08l-8.18-1.85-3.3,5.43c.24-2.89.79-5.58.23-7.17-.53-1.49-3.46-2.86-5.55-3.69,3.35-1.73,6.59.77,8.45,4.28,2.69.24,6.69.47,8.36,3Z" fill="#a19178"/>
  <path d="M614.56,688.73c-.45,2.32-3.89,5.49-6.65,5.52,2.18-1.86,4.58-4.91,4.75-7.52.24-3.81-2.36-6.06-4.56-9.5,4.98,1.16,7.34,6.92,6.46,11.5Z" fill="#9a866b"/>
  <path d="M665.5,657.19l-2,.15c1.05-1.73,1.06-6.31-.27-8.17-1.06-1.5-3.82-2.88-5.99-4.5,3.34-.5,7.41,1.32,8.35,3.96s.84,6.44-.1,8.56Z" fill="#b29a75"/>
  <path d="M619.27,662.45c2.7-7.24.41-13.2-6.19-16.82,4.38-.73,7.12,3.28,8.52,6.15,1.77,3.65.56,7.66-2.33,10.66Z" fill="#a19178"/>
  <path d="M598.46,647.7c-.84,1.36-3.63,3.62-5.14,4.57,1.54-2.99,4.29-6.03,4.21-8.34-.1-3.12-2.14-6.05-4.03-8.6,5.16,1.29,8.07,7.35,4.96,12.36Z" fill="#998362"/>
  <path d="M651.63,681.23c1.26-2.75,3.02-6.15,2.69-8.08-.43-2.55-2.69-4.77-5.21-7.51,3.18.57,6.33,3.7,7.03,6.49.98,3.9-1.21,8.52-4.51,9.1Z" fill="#ac9a7a"/>
  <path d="M587.8,685.98c1.83-.99,5.86-4.86,5.31-7.18l-1.6-6.78c2.93,1.61,4.12,5.67,3.7,8.51s-3.48,6.08-7.4,5.45Z" fill="#a19178"/>
  <path d="M696.74,620.24l-1.93,6.28c-.38-2.11-.53-5.48-1.78-6.16s-3.7-1.11-5.7-1.6c2.15-2.42,5.36-.63,8.21.38,1.2.43,4.4-2.49,5.04,2.09l-3.83-.99Z" fill="#ac9a7a"/>
  <path d="M677.28,656.97l-3.63,7.57.33-7.09c.08-1.68-3.06-3.33-4.72-4.9,3.51-.47,6.36,1.62,8.47,4.56,2.5.95,3.76,1.43-.45-.15Z" fill="#a79273"/>
  <path d="M632.26,663.57c1.89-6.92,1.39-11.78-4.16-16.12,4.06.13,5.97,3.13,6.85,6.01,1.08,3.54,0,7.14-2.69,10.11Z" fill="#a19178"/>
  <path d="M608.48,651.08c.62-2.3,2.11-5.91,1.78-7.83s-2.85-4.36-4.71-6.72c2.46-.07,5.73,2.59,6.46,4.82,1.24,3.76,0,7.54-3.53,9.73Z" fill="#998362"/>
  <path d="M629.71,670.31l-3.4,3.11c2.75-5.26,3.04-9.38.42-14.3,2.66.51,4.57,3.16,4.71,4.9s-.77,4.97-1.73,6.29Z" fill="#a79273"/>
  <path d="M623.67,650.11c.39-2.29,1.07-6.22.45-8.59-.51-1.93-3.2-3.74-5.61-6,2.26.16,5.78,2.58,7,4.61,1.71,2.83,1.71,8.53-1.84,9.97Z" fill="#9a866b"/>
  <path d="M666.56,648.01c.3-2.33.89-5.63.11-7.37-1.2-2.69-4.18-4.18-7.28-4.86,2.92-1.17,6.45-.29,8.43,2.5s2.1,5.88-1.27,9.72Z" fill="#ac9a7a"/>
  <path d="M678.14,632.35c-1.18-2.52-2.15-4.6-3.59-5.77-3.38-2.77-9.79.82-9.09-.53l1.09-2.11,7.98.48c1.31.08,3.71,2.02,3.98,3.33.25,1.23-.07,3.52-.38,4.61Z" fill="#ac9a7a"/>
  <path d="M584.57,649.96c1.05-5.01,1.96-10.13-2.15-14.74,6.13,1.95,6.95,9.55,2.15,14.74Z" fill="#998362"/>
  <path d="M590.62,695.29c2.88-3.32,4.63-6.79,5.28-10.93,3.17,4.15.69,10.48-5.28,10.93Z" fill="#a19178"/>
  <path d="M712.19,535.5l-.71,4.98-1.08-1.06c-.55-25.58-10.31-48.77-27.57-67.7,9.91,6.35,14.72,17,20.69,26.7,3.72,10.46,6.88,20.82,7.84,32.01l.82,5.07Z" fill="#91795d"/>
  <path d="M359.74,367.26l1.24-.07c-1.56,6.91,1.39,11.23,6.86,15.38-2.25-.6-4.11-1.61-6.03-2.81-2.59,3.05-2.84,7.15-.88,10.96,1.37,2.66,5.69,5.06,8.61,4.78.06-3.77.19-5.94,1.44-7.99.62,3.48.56,7.08,2.08,10.01,1.09,2.11,4.94,3.61,8.28,5.33-4.95,1.53-8.5-2.08-11.31-5.62l-7.27-1.55c-6.47-3.92-6.28-11.95-2.49-17.23-1.56-3.47-2.16-7.6-.54-11.19Z" fill="#ac9a7a"/>
  <path d="M420.45,384.24c-3.8-2-3.83-6.92-3.97-11.75-.06-2.14-2.87-6.01-3.42-8.29-1.28-5.25,3.86-11.23,8.45-11.27-3.19,2.54-6.93,5.84-6.9,9.29.03,3.89,1.72,6.92,5.52,7.77-2.59,3.77-1.66,7.71.32,14.26Z" fill="#998362"/>
  <path d="M400.87,382.38c.96-2.12,2.87-4.88,4.6-6.95-.17-4.89,1.18-10.51,7.33-10.66-2.28,1.93-4.76,3.82-5.2,5.81-.58,2.56.61,6.36,1.9,9.87l-4.16-3.3c-3.16,4.91-2.21,10.16,1.01,14.54-4.13-1.47-4.81-5.44-5.68-8.52l-.63-.5c-3.04-.34-5.84-2.6-6.31-6.15-.52-3.94.29-8.43,3.84-10.26-.97,3.51-2.39,6.75-1.87,9.45.41,2.17,2.96,5.05,4.74,6.47l.44.19Z" fill="#a19178"/>
  <path d="M461.29,407.46c-3.73.57-7.96-.51-12.13-2.36-6.42-2.84-10.06-9.05-8.18-15.58.8,4.82,2.24,8,5.05,11.76,4.72,2.63,8.86,4.16,15.27,6.18Z" fill="#a19178"/>
  <path d="M480,390.64c-2.98,1.09-9.85,1.81-12.22,0l-7.43-5.72,4.28.49c4.46,3.65,9.27,3.85,15.37,5.24Z" fill="#c4ac80"/>
  <path d="M398.25,395.47l-1.3,4.3-1.03-5.38c-3.92-3.7-6.26-10.25-1.23-13.95-1.89,5.73-.68,12.17,5.08,13.8l7.14,2.01-8.66-.78Z" fill="#9a866b"/>
  <path d="M392.61,395.29c-3.59,1.16-7.09-.87-9.59-3.64-2.96-3.28-3.31-7.48-.67-11.17.13,3.58.07,7.19,1.77,9.86,1.35,2.11,5.09,3.62,8.49,4.95Z" fill="#9a866b"/>
  <path d="M418.01,396.15c-2.24-.16-5.39-1.64-6.69-3.05-1.96-2.11-1.79-5.03-1.31-8.05.38-2.41,2.22-4.4,4.38-4.45-1.69,2.67-3.21,5.45-2.92,8.35.35,3.42,2.98,4.74,6.54,7.19Z" fill="#a19178"/>
  <path d="M434.56,346.03c-6.69,4.27-9.86,8.89-7.16,16.03-3.76-2.53-3.3-6.81-1.49-10.44,1.44-2.89,5.16-5.7,8.65-5.59Z" fill="#9a866b"/>
  <path d="M372.47,410.2c-2.9.84-7.37-.08-9.26-2.58-2.26-2.99-3.11-6.88-2.08-10.27,1.47,6.71,3.61,11.39,11.34,12.85Z" fill="#a19178"/>
  <path d="M360.87,407.27c-2.9.6-6.65-.75-8.79-2.75-2.63-2.46-3.01-6.82-1.8-10.09.21,7.02,4,10.4,10.58,12.84Z" fill="#ac9a7a"/>
  <path d="M465.41,344.38c-5.97-1.47-11.02-.52-14.28,5.8-.48-1.75.55-4.96,1.73-5.96,2.66-2.24,11.34-2.58,12.55.16Z" fill="#ac9a7a"/>
  <path d="M430.2,382.31c-1.78-6.58,3.98-11.88,9.31-14.85-4.12,4.51-6.9,8.73-9.31,14.85Z" fill="#a19178"/>
  <path d="M420.22,421.95c-.97,2.72-2.55,5.93-4.93,8.26l-10.08,9.88-15.32,11.89c-4.96,3.85-7.87,9.85-12.32,14.72,5.51-16.53,21.11-22.99,33.22-34.96,3.48-3.44,5.6-9.04,8.84-12.24l.59,2.46Z" fill="#b39f7c"/>
</svg>
