<svg xmlns="http://www.w3.org/2000/svg" viewBox="0 0 1024 1024">
  <path d="M259.02,220.86l-1.42-.49c2.86-3.85,6.24-7.2,10.32-10.52,24.78-20.16,50.58-38.44,79.9-51.77,27.91-12.69,56.88-25.01,87.73-27.55-42.48,11.05-81.78,23.87-118.23,46.93-18.78,11.88-36.27,24.32-52.81,39.02l-5.49,4.36Z" fill="#91795d"/>
  <path d="M782.77,199.59l-2.79,1.45c-28.24-25.29-59.63-45.47-93.7-62.06-27.12-13.21-54.33-20.59-83.8-29.57,35.27,4.49,68.08,19,99.46,34.81,29.63,14.93,55.99,33.9,80.82,55.37Z" fill="#91795d"/>
  <path d="M767.61,220.59c-.38.15-1.45,1.58-1.46,1.97l-25.52-21.18c-44.27-35.16-95.1-58.35-151.14-69.81,3.71-3.27,8.08-1.01,12.26-.01,63.45,15.26,118.4,45.22,165.86,89.04Z" fill="#8a7257"/>
  <path d="M225.86,218.12l-7.15,7.75c-33.75,36.55-56.81,70.45-77.57,115.53-.54-.07-2.32.33-2.31-.17l-.16-1.62c18.33-40.48,42.52-78.04,73.2-110.61l11.7-12.42,2.3,1.55Z" fill="#c4ac80"/>
  <path d="M512.68,923.95c-1.19-4.49-1.84-7.9-1.99-11.78l-.42-11.14-6.05.87,2.76-4.83-18.45-1.74c4.29-1.38,7.92-1.83,11.93-2.24l6.16-.63-3.52-6.12,6.84,3.22.72-10.45,1.78-13.94c1.03,4.57,1.03,7.72,1.37,11.95l.99,12.27,6.73-3.36-3.34,6.76,16.04,1.17c.35.03,2.22.56,2.24.54s-1.13,1.18-1.42,1.47l-17.63,1.23,4.83,7.35-1.19.54-6.18-5.71-.57,9.74-1.64,14.85Z" fill="#cdad79"/>
  <path d="M866.59,372.6l-2.89.55c-15.65-41.9-37.36-81.07-66.07-115.25l2.94-.82c28.95,34.04,50.36,73.67,66.02,115.52Z" fill="#af966c"/>
  <path d="M886.5,343.48l-2.63,1.14c-17.58-40.24-40.77-77.22-70-109.87l2.87-1.02c26.28,29.63,48.24,62.38,64.65,98.5l5.11,11.24Z" fill="#baa173"/>
  <path d="M501.7,105.74c2.46,4.56,3.59,10.03,4.05,16.15l13.41-.02c.6-5.05,1.62-9.23,3.12-13.23l4.21,2.89c-1.02,3.25-1.78,7.44-1.76,10.35,1.31.76,2.32,1.27,2.22,1.98l-.4,2.68c-.6,0-2.54,2.21-2.34,3.25l1.25,6.39-2.65-2.22c-.59-.5-1.93,1.5-2.5,2.2l-1.09-9.47-13.41.55-2.41,12.78-.22-5.59-1.99,1.87c-.26.25-.45.36-.49.1l-.3-1.53.05-1.99c1.05-.75,1.01-4.13.27-5.44l-7.88-.75c2.18-.34,6.21-2.2,6.94-4.39.21-.64.89-2.8.68-3.54l-3.22-11.62,4.45-1.39ZM518.6,125.98l-.71-3.34-11.65.67-.29,2.41,12.66.26Z" fill="#cdad79"/>
  <path d="M710.34,841.86c-33.38,20.95-70.38,36.49-108.82,45.72l-2.27-1.84c38.95-9.78,76.22-24.93,110.12-46.49l.96,2.61Z" fill="#8a7257"/>
  <path d="M186,756.1l-1.59,2.5c-18.11-22.39-32.71-47.27-44.81-73.88l-5.1-11.22,2.07-2.32c12.81,30.19,29.6,58.6,49.42,84.92Z" fill="#baa173"/>
  <path d="M888.17,671.3l.75.93c-10.2,26.7-24.88,51.37-41.55,75.13l-3.79,4.84-2.72-.1.28-.86.93-1.06c17.12-24.81,32.73-50.82,43.96-78.88l1.08.04,1.04-.04Z" fill="#bfa57a"/>
  <path d="M95.89,516.45l1.58-9.32c.12-.76-.59-3.03.08-3.29l2.18-.83,2.65-12.69,2.86,13.05,7.93-4.76-4.85,7.71,12.57,2.46-13.15,2.89,4.48,6.56-7.39-2.89-2.35,9.36-2.06-8.02c-.34-1.32-3.74-1.24-4.52-.25Z" fill="#cdad79"/>
  <path d="M327.87,874.81l-.27,2.38c-32.11-15.17-61.15-36.68-88.17-59.63l2.32-1.37c25.78,23.48,54.57,43.77,86.11,58.62Z" fill="#8a7257"/>
  <path d="M207.13,279.98c-13.34,18.95-26.09,38.57-35.8,60.02l-6.1,13.48-2.83-1.21c11.86-26.25,25.91-51.59,42.96-74.87l1.77,2.58Z" fill="#baa173"/>
  <path d="M335.47,137.73l1.18,2.13c-26.68,13.25-52.09,28.75-75.39,47.15l-2.65-1.32c23.28-19.2,49.37-35.38,76.87-47.95Z" fill="#a58d6a"/>
  <path d="M878.15,608.48l-2.05.44c6.94-24.42,10.38-49.56,12.15-75.4.18-2.65-1.16-4.97,2.76-6.59l-.3,15.17c-1.91,20.41-5.19,39.98-9.76,60.05-.56,2.45-1.53,5.19-2.8,6.32Z" fill="#7c5f3f"/>
  <path d="M916.26,514.3c-1.62-3.33,1.26-5.67-1.39-10.4,1.15-.51,3.14-2.09,3.17-3.05.07-2.24.17-6.25,1.13-9.57,2.3,4.76,1.95,13.48,4.42,11.52l2.79-2.22c1.23-.97,3.15-2.01,3.9-1.62l-4.55,6.17,4.29,3.9-4.65,2.94,1.03,4.63-4.01-2.28-3.27,11.2c-1.16-5.38-1.26-7.91-2.88-11.23Z" fill="#d4b06f"/>
  <path d="M879.13,424.78l2.45-1.69,2.76,13.37,5.99,39.09c.98,6.39.96,12.03.5,18.7-2.86-2.58-2.55-4.8-2.74-7.68l-.47-7.49c-1.17-18.55-4.39-36.56-8.5-54.3Z" fill="#7c5f3f"/>
  <path d="M800.57,257.08l-2.94.82-9.89-11.77c-3.53-4.2-7.63-8.35-12.1-11.82-1.79-1.39-6.78-1.81-7.77-3.76s-1.78-6.04-1.73-8c0-.38,1.09-1.81,1.46-1.97l5.56-2.24c2.5-1.01,7.03,2.15,7.78,4.53.98,3.13-.44,7.26-2.49,9.47l10.26,10.81,11.84,13.93ZM768.83,227.73c1.85,2.43,4.56,4.15,6.39,3.5,2.81-.99,4.28-4.11,4.16-6.04-.2-3.37-2.69-5.03-6.4-4.48l-4.15,7.03Z" fill="#998362"/>
  <path d="M336.64,139.86l-1.18-2.13c23.31-10.66,47.78-21.76,74.01-25.42-25.53,9.04-49.71,16.06-72.83,27.55Z" fill="#91795d"/>
  <path d="M896.16,376.29l1.5.4c.52,0,.23-1.83.61-2.26,7.23,18.85,11.85,38.67,16.16,59-.17.78-.43,2.33-.84,2.18l-2.05-.77c-3.98-19.95-9.02-39.12-15.38-58.55Z" fill="#a0865f"/>
  <path d="M141.13,341.39c-7.95,17.27-14.17,35.39-20.12,53.13-.35-.12-1.63-.57-1.57-.55l.16-4.54c5.23-16.83,11.74-33.66,19.06-49.83l.16,1.62c0,.5,1.76.1,2.31.17Z" fill="#af966c"/>
  <path d="M345.44,885.62l.2-2.44c19.44,9.15,39.89,16.12,61.09,21.77,3.56.95,6.78,1.27,9.13,4.47l-25.88-6.78-44.54-17.02Z" fill="#8a7257"/>
  <path d="M138.17,438.03l-3.75,28.38-.94,8.03-.66,15.23c-.09,2.12-.55,3.61-3.01,4.03l.87-20.14c.59-13.5,3.35-26.39,5.75-39.08l1.74,3.55Z" fill="#87683f"/>
  <path d="M242.9,236.89l-5.26,5.89c-10.81,12.12-21.33,24.15-30.52,37.2l-1.77-2.58c9.12-12.44,19.06-24.49,29.86-36.07l5.35-5.74,2.33,1.31Z" fill="#af966c"/>
  <path d="M138.31,582.57l-1.72.25c-.66-1.46-1.72-4.08-1.99-6.16l-3.87-29.24-.76-19.68c4.66,3.19,2.41,7.14,2.8,10.72l1.08,10.12,4.47,33.99Z" fill="#7c5f3f"/>
  <path d="M881.58,423.09l-2.45,1.69c-4.04-17.46-9.03-34.5-15.43-51.63l2.89-.55c6.27,16.76,11.42,33.19,14.99,50.49Z" fill="#9b7f56"/>
  <path d="M150.82,390.16c-5.33,15.48-7.94,33.26-12.65,47.87l-1.74-3.55c2.94-15.56,7.08-30.99,11.99-46.03l.26,1.83c-.08.5,1.71,0,2.13-.11Z" fill="#9b7f56"/>
  <path d="M261.25,187c-7.41,5.85-14.75,12.41-22.13,19.09l-13.26,12.02-2.3-1.55,11.82-11.13,8.48-7.59,14.74-12.16,2.65,1.32Z" fill="#b59c6f"/>
  <path d="M149.41,627.2l-.43,3.14c-4.44-10.7-8.31-21.86-10.23-33.93l-2.16-13.6,1.72-.25,1.69,5.61,8.91,35.15c.32,1.26.63,2.95.51,3.87Z" fill="#8a7257"/>
  <polygon points="843.59 752.2 819.27 783.23 812.32 790.49 811.23 787.95 820.47 777.48 840.87 752.11 843.59 752.2" fill="#b29a75"/>
  <polygon points="878.15 608.48 878.93 609.98 865.07 652.32 861.88 652.35 862.17 651.36 862.99 650.17 872.87 620.28 876.1 608.92 878.15 608.48" fill="#a0865f"/>
  <path d="M121.02,394.52l-9.67,40.31-1.94.78c-.41.16-.7-1.37-.89-2.16,3.08-15.17,6.65-29.71,11.09-44.02l-.16,4.54c-.06-.02,1.22.42,1.57.55Z" fill="#a0865f"/>
  <path d="M165.23,353.48l-12.75,31.87-1.66,4.82c-.42.1-2.21.61-2.13.11l-.26-1.83c4.01-12.28,8.69-24.49,13.98-36.19l2.83,1.21Z" fill="#ab9268"/>
  <path d="M513.35,74.81l-1.89-1.7.03-16.15c-3.77-1.37-6.25-4.6-5.49-8.01s4.86-6.99,8.38-5.18c2.61,1.34,4.48,4.09,4.37,6.69-.09,2.19-2.54,4.43-5.09,5.93l-.31,18.41ZM510.51,54.08c3.67.25,5.77-1.58,6.14-3.68.27-1.56-2.1-4.78-3.75-4.42-2.38.51-4.27,2.11-4.61,3.47s1.02,4.55,2.22,4.63Z" fill="#91795d"/>
  <path d="M906.13,622.91c.18-.59-.05-2.37-.19-2.89s-1.21-.71-1.76-.65l7.72-32.65c.33-1.41,1.99-1.33,3.02.23l-7.35,31.91-1.43,4.04Z" fill="#91795d"/>
  <polygon points="241.76 816.19 239.44 817.56 234.58 813.44 217.42 796.56 209.55 788.45 209.95 784.96 218.18 793.86 229.74 805.24 241.76 816.19" fill="#998362"/>
  <polygon points="209.95 784.96 209.55 788.45 200.98 779.08 184.42 758.6 186 756.1 209.95 784.96" fill="#af966c"/>
  <polygon points="739.5 818.13 742.44 819.41 733.92 825.9 710.34 841.86 709.37 839.24 739.5 818.13" fill="#998362"/>
  <polygon points="350 575.42 362.83 585.27 369.8 591.33 376.74 599.25 374.69 600.51 371.33 596.78 362.28 588.78 346.35 575.82 350 575.42" fill="#baa173"/>
  <polygon points="812.32 790.49 805.65 797.64 797.17 806.13 782.56 819.53 781.29 817.16 792.28 807.23 806.3 793.36 811.23 787.95 812.32 790.49" fill="#a58d6a"/>
  <polygon points="136.59 671.18 134.51 673.5 122.55 642.67 124.13 638.24 136.59 671.18" fill="#b59c6f"/>
  <path d="M898.28,374.43c-.39.43-.09,2.27-.61,2.26l-1.5-.4-12.3-31.66,2.63-1.14,10.36,25.55,1.42,5.4Z" fill="#af966c"/>
  <path d="M161.22,657.86l-1.63,2.85-10.36-26.54c-.37-.94-.35-3.02-.24-3.82l.43-3.14,2.19,4.36,9.61,26.3Z" fill="#a78d66"/>
  <polygon points="900.28 642.48 888.92 672.23 888.17 671.3 887.14 670.26 887.69 667.84 897.12 642.39 900.28 642.48" fill="#b59c6f"/>
  <path d="M117.07,614.7l-1.79.45c-.31.12-.44.96-.77,1.38l-6.98-29.88,3.07.35,6.46,27.7Z" fill="#8a7257"/>
  <path d="M918.05,500.85c-.03.96-2.01,2.54-3.17,3.05,2.65,4.72-.24,7.07,1.39,10.4l-7.32,5.22,4.76-8.14-12.83-2.38,12.77-2.71-4.33-6.67c-.2-.31.95-1.49,1.21-1.22l1.37,1.45c.69.73,2.57,2.98,3.41,2.47l2.75-1.47Z" fill="#b59563"/>
  <path d="M528.55,215.28l-1.69,4.7c-5.54-4.18-12.1-5.53-19.07-5.33l-.58-2.91c7.3-.95,14.73.28,21.33,3.54Z" fill="#ad8d5d"/>
  <path d="M117.07,614.7l7.06,23.54-1.59,4.43-8.03-26.14c.34-.42.46-1.27.77-1.38l1.79-.45Z" fill="#a0865f"/>
  <polygon points="633.44 705.07 634.22 706.46 655.94 717.41 657.31 719.13 652.18 718.46 630.1 707.65 630.46 704.32 633.44 705.07" fill="#c4ac80"/>
  <path d="M257.61,220.37l1.42.49-1.82,7.7c-.69,4.11-7.16,5.68-10.5,5.12l5.16-1.87c2-1.32,3.82-4.84,3.77-6.82-1.66.19-3.68.45-3.56-.19l.68-3.65c-2.7-1.17-6.53-.23-8.15,2.66l-1.11-1.22c.84-1.84,2.55-3.75,4.52-4.33,1.7-.5,4.29.28,6.08.89l3.52,1.22Z" fill="#a79273"/>
  <path d="M499.82,149.91c-2.86,4.57-5.86,8.24-10.19,12.38-1.34-1.33-2.79-3.09-3.14-3.94,3.71-3.84,8.22-7.23,9.69-11.43l3.63,2.99Z" fill="#8c6e48"/>
  <path d="M528.55,104.94l-4.12-2.01c3.03-4.95,6.47-9.09,10.78-13.43l3.09,2.75-9.75,12.69Z" fill="#8c6e48"/>
  <polygon points="387.49 288.57 388.6 289.82 389.65 289.72 387.39 291.87 374.52 284.96 368.52 281.91 369.34 279.55 377.01 282.41 382.08 281.68 382.66 282.3 379.52 283.33 387.49 288.57" fill="#b29a75"/>
  <polygon points="782.77 199.59 799.74 215.78 797.86 217.82 786.35 206.74 779.98 201.03 782.77 199.59" fill="#a0865f"/>
  <path d="M506.95,976.73c-1.69-4.63.02-8.09,3.3-9.45,2.64-1.09,6.71.71,7.82,3.6,1.29,3.35.09,6.23-3.82,8.46-1.82,1.04-6.53-.5-7.31-2.62ZM510.77,969.31c-1.78.74-2.82,4.29-2.2,6.15.5,1.51,3.79,2.1,5.91,1.16,1.54-.68,2.29-3.42,1.44-5.35-.7-1.58-3.08-2.82-5.15-1.96Z" fill="#91795d"/>
  <polygon points="816.74 233.74 813.87 234.76 809.31 229.66 797.86 217.82 799.74 215.78 816.74 233.74" fill="#af966c"/>
  <path d="M503.4,140.01c.12,3.04-1.91,7.22-3.58,9.89l-3.63-2.99,4.22-12.05.3,1.53c.04.26.23.15.49-.1l1.99-1.87.22,5.59Z" fill="#b59563"/>
  <polygon points="373.53 457.52 370.6 468.58 368.27 466.49 370.34 450.44 374.28 452.82 373.53 457.52" fill="#9b7f56"/>
  <polygon points="759.33 805.3 742.44 819.41 739.5 818.13 756.26 804.21 759.33 805.3" fill="#a78d66"/>
  <path d="M531.58,151.76l4.78,4.33c.75.68,1.74,2.29,2.1,3.13s-2.51,3.37-3.29,2.7c-2.87-2.48-6.89-7.59-8.69-10.79.73-.77,2.6-1.62,3.19-1.08l1.9,1.72Z" fill="#7c5f3f"/>
  <polygon points="733.72 513.49 731.13 520.4 736.23 516.21 737.62 517.48 729.51 527.42 727.81 520.47 731.93 510.35 733.72 513.49" fill="#a0865f"/>
  <path d="M906.13,622.91l-5.85,19.58-3.16-.09,3.85-10.97,1.27-2.9-.26-1.29,2.19-5.72v-2.13c.56-.06,1.62.13,1.77.65s.37,2.29.19,2.89Z" fill="#a0865f"/>
  <path d="M427.01,210.47c-.28-2.98-.41-5.97-2.08-7.4-2.55-2.18-4.45-2.43-8.37-2.72,3.67-.91,7.84-2.51,10.05-5.15l.35-5.51,1.71,10.33-1.66,10.44Z" fill="#b39f7c"/>
  <path d="M99.72,503.01l-2.18.83c-.67.26.04,2.53-.08,3.29l-1.58,9.32-1.08,1.73c-.26.42-1.99-.24-1.73-.65.86-1.4,2.67-5.05,2.86-6.23l-12.25-2.37,9.33-1.62c.87-.15,2.99-.52,2.91-1.32-.06-.6-.59-2.03-.94-2.62l-3.11-5.28,7.85,4.93Z" fill="#b59563"/>
  <path d="M497.96,98.79l-3.65,2.24-7.4-8.4c-.15-.16,1.5-2.11,2.33-2.64.69-.44,2.57,1.4,3.14,2.08l5.58,6.72Z" fill="#8c6e48"/>
  <path d="M525.46,136.17l2.27,7.73-4.26,1.85c-1.6-2.86-2.8-6.55-3.15-9.59.57-.69,1.91-2.7,2.5-2.2l2.65,2.22Z" fill="#b59563"/>
  <path d="M526.54,126.53l.4-2.68c.11-.71-.91-1.22-2.22-1.98l9.89.08c1.33,0,2.28,4.58.93,4.63l-9-.05Z" fill="#ad8d5d"/>
  <polygon points="345.65 883.17 345.44 885.62 327.61 877.19 327.87 874.81 345.65 883.17" fill="#91795d"/>
  <path d="M244.61,223.81c-.49,4.15,3.17,7.58,7.25,7.99l-5.16,1.87-3.8,3.22-2.33-1.31,3.99-4.27c-1.91-3.15-2.29-6.04-1.07-8.73l1.11,1.22Z" fill="#8c6e48"/>
  <path d="M918.47,541.72c1.29-.33,4,1.54,4.38,2.76.43,1.4-1.26,4.14-2.67,4.69-1.96.77-4.04-.73-4.78-2.7-.53-1.41,1.19-4.28,3.07-4.76Z" fill="#c59e5f"/>
  <path d="M102.3,541.71c1.24-.51,3.7,2.13,3.84,3.46.16,1.51-1.29,4.02-2.9,4.28-1.32.21-3.73-1.42-4.28-2.69s.94-4.06,3.34-5.05Z" fill="#b59563"/>
  <path d="M102.2,469.78c1.27-.81,4.42,1.18,4.69,2.51.31,1.51-.67,3.83-2.23,4.7-1.23.69-3.76-.28-4.41-1.46-.84-1.52-.28-4.33,1.95-5.75Z" fill="#b59563"/>
  <path d="M918.63,469.72c1.32-.16,3.51,2.14,3.67,3.44s-1.78,3.83-3.09,3.95-3.54-1.22-4.11-2.41c-.78-1.64,1.31-4.7,3.53-4.98Z" fill="#b59563"/>
  <path d="M499.79,122.29c-.73,2.2-4.76,4.05-6.94,4.39-.7.11-2.91.71-2.97.11l-.48-4.78,10.38.28Z" fill="#ad8d5d"/>
  <polygon points="483.78 349.56 479.49 349.67 471.41 341.73 473.44 339.34 483.78 349.56" fill="#bfa57a"/>
  <polygon points="501.7 105.74 497.25 107.13 494.31 101.04 497.96 98.79 501.7 105.74" fill="#ad8d5d"/>
  <polygon points="528.55 104.94 526.49 111.53 522.28 108.64 524.43 102.93 528.55 104.94" fill="#b59563"/>
  <polygon points="335.68 503.59 336 507.5 335.37 512.75 333.25 511.46 331.7 504.12 335.26 500.49 335.68 503.59" fill="#7c5f3f"/>
  <path d="M511.89,934.27c1.07-.29,3.4,1.55,3.61,2.63.25,1.27-1.5,3.7-2.72,4.12s-3.81-1.34-4.16-2.58,1.9-3.81,3.27-4.18Z" fill="#b59563"/>
  <path d="M567.22,128.72c-.53,1.05-3.96,1.59-4.84.81s-1.04-3.34-.56-4.52c.45-1.09,2.69-2.37,3.7-1.77,1.25.76,2.42,4.05,1.7,5.48Z" fill="#ad8d5d"/>
  <circle cx="460.54" cy="126.87" r="3.2" fill="#ad8d5d"/>
  <rect x="511.5" y="179.82" width="2" height="15.98" fill="#91795d"/>
  <polygon points="681.29 498.04 679.8 499.68 670.61 493.77 670.6 491.3 681.29 498.04" fill="#ab9268"/>
  <circle cx="459.64" cy="892.88" r="3.04" fill="#a0865f"/>
  <path d="M599.25,885.74l2.27,1.84-13.63,2.67c2.86-4.38,7.61-3.57,11.36-4.51Z" fill="#9a866b"/>
  <circle cx="563.54" cy="892.88" r="3.04" fill="#a0865f"/>
  <path d="M531.58,151.76l-1.9-1.72c-.59-.54-2.46.31-3.19,1.08l-3.02-5.38,4.26-1.85,3.85,7.87Z" fill="#9b7f56"/>
  <path d="M511.65,851.45c.91-.61,4.05,1.44,3.77,2.47s-1.37,2.73-2.28,3.67c-.75.77-2.8-.68-3.41-1.57s.59-3.68,1.92-4.57Z" fill="#b59c6f"/>
  <polygon points="294.43 290.68 296.83 292.08 287.86 295.9 286.86 293.63 294.43 290.68" fill="#b29a75"/>
  <polygon points="782.3 672.16 781.28 674.24 778.05 674.48 779.24 671.34 782.3 672.16" fill="#ac9a7a"/>
  <polygon points="369.64 553.48 369.49 555.8 365.61 554.43 369.64 553.48" fill="#a0865f"/>
  <path d="M500.45,132.87l.27-5.44c.73,1.31.78,4.69-.27,5.44Z" fill="#b59563"/>
  <polygon points="369.64 551.49 366.67 551.62 366.66 550.41 369.64 551.49" fill="#91795d"/>
  <polygon points="315.68 502.52 315.71 507.79 311.54 508.67 312.44 503.01 315.48 492.38 315.68 502.52" fill="#87683f"/>
  <polygon points="389.45 322.73 392.73 325.37 391.28 327.09 368.43 325.21 377.63 323.58 382.67 322.94 389.45 322.73" fill="#8a7257"/>
  <polygon points="418.6 407.62 419.58 408.54 419.52 409.64 414.53 408.5 418.6 407.62" fill="#baa173"/>
  <polygon points="641.83 599.89 639.44 604.62 631.46 609.51 623.52 613.66 621.52 611.93 630.02 607 641.83 599.89" fill="#d6bc89"/>
  <polygon points="518.6 125.98 505.95 125.72 506.23 123.31 517.89 122.65 518.6 125.98" fill="#d6bc89"/>
  <polygon points="376.88 319.1 366.56 319.86 358.63 320.48 358.66 319.48 369.79 317.84 376.88 319.1" fill="#c4ac80"/>
  <polygon points="303.76 307.11 293.78 307.78 293.67 306.75 303.76 307.11" fill="#a58d6a"/>
  <polygon points="696.35 689.48 691.41 690.51 689.07 689.79 698.45 686.95 696.35 689.48" fill="#ab9268"/>
</svg>
