<?xml version="1.0" encoding="UTF-8"?>
<svg id="Layer_1" data-name="Layer 1" xmlns="http://www.w3.org/2000/svg" viewBox="0 0 1024 1024">
  <defs>
    <style>
      .cls-1 {
        fill: #a38d72;
      }

      .cls-2 {
        fill: #9a8972;
      }

      .cls-3 {
        fill: #c5a57a;
      }

      .cls-4 {
        fill: #b59b77;
      }

      .cls-5 {
        fill: #bba787;
      }

      .cls-6 {
        fill: #c69c60;
      }

      .cls-7 {
        fill: #b5a283;
      }

      .cls-8 {
        fill: #856f59;
      }

      .cls-9 {
        fill: #b09e7f;
      }

      .cls-10 {
        fill: #b28d5f;
      }

      .cls-11 {
        fill: #d8b272;
      }

      .cls-12 {
        fill: #a89577;
      }

      .cls-13 {
        fill: #8d7c66;
      }

      .cls-14 {
        fill: #a67642;
      }

      .cls-15 {
        fill: #8d755c;
      }

      .cls-16 {
        fill: #95826a;
      }

      .cls-17 {
        fill: #9d8e78;
      }

      .cls-18 {
        fill: #d9bb83;
      }

      .cls-19 {
        fill: #d5a463;
      }

      .cls-20 {
        fill: #9b825a;
      }

      .cls-21 {
        fill: #ac967b;
      }

      .cls-22 {
        fill: #ae8049;
      }

      .cls-23 {
        fill: #a7937b;
      }

      .cls-24 {
        fill: #ab9b80;
      }

      .cls-25 {
        fill: #a29279;
      }

      .cls-26 {
        fill: #a39076;
      }

      .cls-27 {
        fill: #826a52;
      }

      .cls-28 {
        fill: #94836d;
      }

      .cls-29 {
        fill: #867562;
      }

      .cls-30 {
        fill: #beaa89;
      }
    </style>
  </defs>
  <path class="cls-21" d="M738.25,384.73c-4.28,7.04-6.58,17.35.63,21.83l2.02-4.02c.93,1.02,2.51,3.19,2.55,4.56.15,4.36-4.62,4.5-3.96,10.95l1.28,12.5c5.95-.72,8.58.25,13.74-.25l9.54-.92c4.23-.41,8.24.09,11.36-2.02-2.78-2.71-3.98-3.81-4.3-6.99l35.08,8.27c-1.67,1.26-2.43,2.44-3.35,4.75l4.41.12-5.93,2.25-28.95,6.92c-.62-1.39-.67-2.87-.06-3.42l3.72-3.41c-4.59-1.31-7.69-1.04-12.45-1.1l-21.81-.27c-.87-.01-2.16,2.78-1.53,2.74l3.05-.19c2.4-.15,6.33.44,7.57,2.62,1.04,1.83-.28,5.56-1.19,7.56.5,1.13,2.02,3.62,1.46,4.6l-2.41,4.21c.9,3.18-.37,6.71-2.1,9.62-.62,1.05-.16,4.74-1.19,5.35l-4.3,2.53c-8.33,4.9,11.97,18.19-4.92,21.33-3.51,2.83-2.23,9.77.19,13.55,3.98,6.22,6.59,12.66,6.97,20,.62,12.17-1.79,23.19-7.31,33.79-8.1,15.6-15.16,24.49-28.42,35.44l-1.58-1.55,17.32-17.57c.15-4.72,2.63-7.35,4.83-11.03l1.76,2.35,5.47-10.21c.14-.26.75-1.61.73-1.61l-1.89-.77c.9-8.87,5.12-11.1,6.11-16.77,1.75-10.07,1.11-20.24-5.27-28.08l-2.72-7.76c-1.73-4.94-2.96-9.16-1.53-14.25l2.09-1.13c1.8-.38,3.99-.92,4.14-2.23.21-1.91-1.71-4.3-3.47-4.74-3.91-.98-5.16-.35-7.76,1.87-3.54,3.02-8.15,5.58-6,11.16l5.74-7.87-.44,4.5c-.54,1.2-1.68,2.72-2.82,3.67l-2.29,2.06-1.79-.72c-1.71-.69-2.26-7.16,3.81-12.72,1.44-1.32,2.61-3.43,3.84-5.98l-3.62-.53.1-1.09c2.83.5,4.16-2.8,6.39-6.29l-1.4,10.54,3.93-2.31,5.84,3.56.13-9.63-9.03-3.59c-.8-.32-2.5-2.23-2.01-2.8l1.88-2.22c-1.04-.37-2.82-.85-3.05-1.61l-1.24-3.9c-2.85,2.63-5.19,6.43-9.77,4.7,8.22-2.7,12.88-9.61,12.21-18.45l8.71-.47c2.79,2.11,5.01,3.4,8.82,4.09l-6.83-10.6-15.85-.07-.24-1.82,5.52-.99-28.09-.26.05-.91,22.36-.26,1.53-1.63-30.9-.07c-3.98,0-8.31.59-12,1.95h-9.99s.03-1,.03-1l4.22-.35-3.21-.79-.04-.86h56.32c-.05-4.97-.35-11.32-3.59-14.71l1.36-3.72,9.58,4.89,2.06-2.24,3.95-3.56c.02-.29.13-2.21.13-2.19-1.78.21-3.73.29-4.96-.12l1.67-.58c.3-.06.18-.47-.08-.63l-2.28-1.49-4.22-3.57-.28-2.12c2.13-2.82,2.7-6.59,2.72-10.8l4.69-5.56-.66-.72c-.58-1.44-.4-2.16,1-.7l.18.65.33,1.31ZM732.17,425.97c-2,.21.3-1.95.85-1l3.76.63c.64.11.61-2.14.62-3.14,0-.82-.67-3.46-1.23-2.97l-2.6,2.29-6.05-4.67,2.23,18.56,8.94-.27c-.73-3.29-2.12-3.58-6.24-6.27l6.3-.13-6.58-3.03ZM791.32,431.73l10.08-1.8-25.56-6.1c1.97,4.38,5.49,4.35,9.39,4.95l6.08,2.96ZM802.27,433.11l-14.91-.57-5.43,2.19,4.49-4.06-5.16-1.45c-3.56-1-6.56.21-10.71,2.87l9.21,2.93-3.92,4.63,26.43-6.53ZM763.75,430.58l-.5.5.5.5.5-.5-.5-.5ZM726.12,432.19c-2.33-.22-2.16-.2.43.04,1.06.1.67.06-.43-.04ZM746.33,432.37l-.55-.85-5.55.27.55.85,5.55-.27ZM762.26,431.58h-13.49v1h13.49v-1ZM747.56,439.82c-.86.55-2.39,1.58-2.55,1.6-.08.01-1.07-1.08-1.27-1.34-.36-.47-2.75-.64-2.53-.09l1.09,2.74c.44,1.11,2.49,2.78,3.66,3.02s3.34-1.45,3.53-2.63c.16-.99-1.13-3.82-1.93-3.31ZM737.7,456.79c5.13,1.36,10.83-2.17,11.53-5.9.15-.8-1.66-2.8-2.17-2.33-4.58,4.24-12.61-1.95-20.43,5.29l11.07,2.94ZM735.98,458.07c-3.76-.83-7.43-1.4-10.36,1.57,12.84,7.11,24.7,3.34,21.72-.66-2.37-3.18-5.09.48-11.36-.91ZM739.07,471.36c1,.42,4.95-.93,4.93-1.93s-.08-3.58-.08-3.56l-10.94-1.25c-1.63-.19-3.87,1.01-3.74,2.59l9.83,4.14Z"/>
  <path class="cls-7" d="M636.09,187.3c-.35,2.16.37,5.25,1.08,7.49l-.36,1.29c-.07.25.22.45.47.7l-.02,1.2-3.7-1.19-2.94,13.02-.46,11.46-1.66,1.15-1.85-6.82c-.33,4.69.08,8.2.54,12.12l-2.07.11c-1.12-6.73-.86-13.52.59-20.61l2.06-10.11-33.56,41.6-92.41,116.77,7.89,5.1-1.28,1.15c-1.8-1.7-5.08-3.53-7.92-3.92-1.8-.25-4.62,4.77-3.53,5.82,3.64,2.3,7.26,5.27,7.48,9.01l-2.02-.11c-.32-3.25-4.34-6.32-7.5-8.16l-14.31,17.67c-1.56,1.93-2.96,5.96-3.84,7.98-7.72,5.66-1.48,17.2-9.09,17.93l-1.17-1.21c7.42-4.54.4-11.85,9.19-18.99-2.52-1.55-4.86-2.1-8.19-2.83l7.07-.32c.95-.06,3.65-1.03,3.59-1.99l-.25-4.19-.23-3.97c-.06-1.01,2.15-1.78,3.23-2.16l3.53-1.26c3.03-1.08-7.83-12.82-8.92-22.16,4.1-7.54,5.03-14.21,3.44-22.54-1.21-6.35-2.71-12.65-6.47-17.7l2.13-2.77,2.46.03c.27,0,.15.53-.09.64l-2.49,1.22c5.69,9.42,7.87,21.7,6.72,32.62-.23,2.16-2.62,5.77-3.5,7.63-.15,10.44,9.71,15.01,8.85,23.73l6.77-8.68-2.98-3.58,3.83,1.97c1.02-.54,3.57-3.88,3.34-5.18l-6.83-5.65,1.71-2.86c-1.55-5.99-1.55-12.76.32-18.76,2.67-8.54-.76-16.85-9.09-20.55-2.02-.9-3.35-2.85-3.19-4.75,3.88.23,4.89,3.87,8.84,5.5,2.66,1.1,5.94,2.97,7.37,6.41,4.11,9.85,3.66,12.17-1.76,23.41-2.9,6-.8,13.27,5.11,15.79l120.71-152.44,6.03-7.12c.16-2.44.52-3.94,1.24-5.53l6.02-.17-.22-2.44c-.06-.61,2.31-.02,2.28.2ZM492.82,336.55c5.16-5.18,4.38-11.58,3.27-16.92l-3.27,16.92ZM484.66,374.45c-.96-.86-3.78-.5-5.02.72-.82.81-.64,2.25.16,4.77l4.87-5.49Z"/>
  <path class="cls-17" d="M720.62,314.44c2.8.81,4.39,3.45,6.11,5.94l-2.22-.88c-.38-.24-1.12.49-1.5,1.2-1.47-1.43-3.93-2.7-7.49-4.4l9.47,20.7-.49-8.31c-.02-.39.09-1.63.17-1.98.12-.53,1.53-1.16,1.74-.66,1.41,3.39-1.21,7.92,1.01,9.65l5.24,4.07.64-.6.14-.65,2.59-1.59,1.05,3.12c.15.43.51.1,1.65-.52,5.41,13.37,7.2,32.58-.48,45.2l-.33-1.31-.51.77-4.69,5.56c-.02,4.21-.59,7.98-2.72,10.8l.16-8.18c-5.29,5.07-4.7,12.21.22,17.19l5.69,5.23-2.06,2.24-1.46-2.71c-2.81-2.68-5.18-5.54-6.96-8.55l-.16.37-.88,2.56c-2.95-3.53-4.91-8.57-3.98-12.75l4.07-18.3.59-2.6c.08-.35.82-.21.89.14l.66,3.26c5.56-10.49,1.07-28.35-3.91-41.24-.52-1.35-2.45-3.22-3.49-4.19-.27-.61-.64-1.46-.67-1.6-.03-.12-1.56.25-1.42.72l-.33-1.16,2.14-1.9c.32-.36-.78-5.42-4.45-6.99l-9.52-15.12-9.8-11.56c3.44,2.12,5.9,4.67,8.92,7.41l2.36,1.81c.5.38.21,1.92.24,2.65l6.06,8.04c.55-.67,1.99-1.99,2.61-1.59l2.27,1.43,1.98,1.25c.36.23.71-1.44.86-2ZM733.04,341.24c-.8-.19-2.9-1.53-5.79-3.47.41-.67-.62,1.02-1.33,2.17l10.17,9.57,1.46,1.71c.23.26.52.26.59-.11s.22-2.52.05-2.85l-4.37-8.5-.78,1.47ZM734.1,353.88l-5.89-8.06,3.71,18.2c1.25-2.95,2.25-7.63,2.18-10.14ZM737.46,369.45c-.24,2.57-.1,5.2,1.01,7.32,3.04-5.05,3.95-11.43,1.4-16.56l-4.22-2.43-1.57,6.06c-.54,2.09-.34,4.07,1.17,6.62l2.85-8.02-.64,7.01ZM731.73,368.71l-1.37,7.03c-.26,1.31,2.64,3.21,4.04,3.84,1.95.88,3.65-5.26-2.68-10.87ZM731.84,379.91c-2.48-2.67-2.56-1.83-3.36-.66-1.96,4.17-3.25,6.42-4.13,11.15l7.49-10.49ZM737.74,382.76c-1.4-1.46-1.57-.74-1,.7l1-.7ZM725.05,405.06l1.13-13.63c-4.92,3.15-5.28,10.53-1.59,14.21l.46-.59Z"/>
  <path class="cls-16" d="M328.71,416.65l1.98,2-32.89-.15-10.1-1.2c-12.16-1.45-25.26.07-34.9,7.47-5.97,4.58-12.22,7.71-19.48,10.56-2.12,3.92-2.59,11.85-.26,15.86,5.15,3.15,10.09,8.05,15.46,10.45,17.87,7.97,36.96,11.22,56.02,14.99l20.45,2.45c7.71.92,15.07,2.75,19.16,10.12l12.79,23.03c4.24,7.63,6.25,16.82,9.11,25.02l3.83-.1c-1.59,2.19-3.84,4.51-3.9,6.4-.07,2.06,3.38,5.14,4.9,6.68l13.1,33.08-2.67-.21-9.65-24.53c-1.76-4.46-2.66-8.38-6.92-11.44-1.7-1.22-.67-5.79-.34-7.83-3.37-15.51-11.15-29.8-18.48-43.75-4.33-8.23-9.86-13.97-19.72-14.71-20.87-1.55-41.15-5.28-61.4-11.21-6.36-1.86-13.18-2.94-18.52-6.69l-9.25-6.48c-6.38-4.47-9.35-10.34-7.34-18s8.38-5.21,18.28-12.74c18.27-13.91,28.4-10,51.16-9.59l29.6.53Z"/>
  <path class="cls-12" d="M625.09,686.27l1.18-5.01c1.54,7.58,3.29,14.8,7.47,22.38.64-1.94.39-4.64-.55-6.21l1.59-.97c2.97-1.2,5.05-5.64,4.8-10.25,2.87,1.51,3.59,6.09,2.66,9.22-.65,2.18-2.91,4.53-5.49,6.41-.11,8.31-.58,17.3-7.99,19.18-1.04.26-2.68-1.41-2.41-2.11l.98-2.51c3.18-8.13.48-15.99-4.36-22.69l-42.33-58.62-77.27-106.51,1.36-1.25,121.32,167.21-.96-8.26Z"/>
  <path class="cls-25" d="M352.8,363.46c-.25,1.7-2.14,3.49-3.96,4.23l-10.58,4.3c5.82,1.95,10.36-.79,15.77-3.06-4.29,6.27-11.97,5.64-18.19,4.78-20.59-2.82-23.28,14.13-29.06,16.88l-.11-1.84c6.76-8.41,8.39-15.51,22.18-17.19l-2.34-2.26,1.77-2.69c8.56-.94,15.02-5.83,21.39-12.21-.11,5.34-2.51,8.8-4.78,13.43l7.91-4.39ZM328.54,369.22c7.61,2.68,16.03-.93,18.35-8.75-6.07,4.09-11.28,6.59-18.35,8.75Z"/>
  <path class="cls-25" d="M357.36,337.6l-1.56,4.29c-2.84,7.11.08,15.85,7.21,17.93l.32-.71-.09-4.46.55-1.17,13.13,7.95-8.94-1.39c8.9,9.9,15.16,3.85,25.77-.64-3.31,5.78-9.81,6.51-16.35,7.56,6.56,3.92,12.39,1.35,20.25-2.77-7.38,10.31-19.68,6.76-28.94.55-4.24-2.84-11.02-2.19-13.25-8.48l-.9.97c.63,6.85,4.78,13.39,10.41,18.16,6.92,5.86,14.7,2.83,22.85-.82-3.42,3.11-7.82,5.37-12.79,6.71-3.42-.15-8.94-3.04-12.32-4.5-8.98,1.43-15.96,6.61-22.44,12.41-9.43,8.43-22.74,9.22-35.9,7.67,2.58,1.57,7.1,4.41,9.65,4.8l13.71,2.12.47.89,19.21-.36c7.66-.14,14.04-4.01,22.01-6.79-7.18,7-21.79,9.64-33.82,8.47l-7.9-.77-.53-.45-7.82-.89,6.91,4.62.13,1.44-32.72-15.14,2.19-1.18c.49-.3-2.44-1.57-2.63-1.03l-.52,1.76-21.06-.58,4.04-2.17,4.06.02c.65.5,2.53,1.25,3.17.74l1.86-1.51,1.94-.13c-.06.38.98.88,1.49.88s1.55-.5,1.73-1.09c1.97.81,5.61,1.65,7.64,1.03l.1,1.14c.11.84,1.92,2.1,2.91,2.21,16.17,1.86,29.25,1.35,41.52-9.8,5.65-5.14,12.71-7.88,19.39-9.65l-8.7-11.95-2.39-19.24,1.94-3.46c.52-.94-1.67-2.83-2.63-3.15l-1.08.21,5.88-3.41,2.83,3.19ZM354.12,356.44l.04-1.47-.04,1.47ZM366.3,358.13l-.65.02.65.02h.67l.65-.02-.65-.02h-.67ZM365.34,360.14l-1.48.04,1.48-.04Z"/>
  <path class="cls-30" d="M456.7,300.89c-4.26,4.25-8.22,8.9-11.55,14.35-4.82,7.91-11.8,12.65-20.01,17.1,14.22-.29,25.46-8.09,32.13-19.98l2.4-1.38-4.48,7.9c6.67-.78,4.62-10.86,12.18-15.07.67.03,3.49,1.42,3.65.58l.61-3.86.95,2.15.87,1.09,1.18,2.09-2.13,2.77-3.98,2.02,2.22-3.18c.41-.55-2-1.82-2.55-1.36l-2.44,2c-.77.63,1.25,2.28,1.98,2.91l-5.15,4.95c-2.15,10.43-9.83,17.01-18.83,21.99-3.17,5.4-6.46,11.11-10.99,15.29l-2.43-.84,10.12-11.03c-4.53-2.31-8.56,5.22-15.84,8.13l-1.33-1.02c1.22-.45,3.07-1.82,4.41-2.72l-9.18.81-7.88-1.16,1.1-3.08c13.06,4.48,28.54-1.42,34.65-13.89-9.57,5.15-18.33,6.17-28.11,5.67l-12.69-.65.56-.76c12.86.66,13.88.22,23.32-5.07,13.78-7.72,16.19-20.92,26.06-27.24l1.16.5ZM445.4,334.3c7.04-2.31,10.86-7.48,13.36-13.76-6.25,3.2-10.12,8.26-13.36,13.76Z"/>
  <path class="cls-9" d="M489.77,605.36l3.2,7.61c7.73,14.49,19.66,25.13,33.63,33.27,19.33,11.26,39.71,26.13,38.6,50.06l-1.86,12.73,13.8,11.57c12.11,10.16,19.22,25.62,14.46,40.74l-1.21-1.02.07-2.07c.53-.24.92-2.22.96-3.21.53-11.72-5.62-24.46-15.18-32.41l-14.34-11.93-1.77,7.54-.49,2.12-1.52-2.8c-5.16,4.47-10.78,6.29-16.53,8.11l-1.15-1.59c5.35-2.57,12.76-3.72,16.68-9.16,4.32-5.98,6.37-14.77,5.85-21.97-1.96-27.06-26.69-36.6-40.82-47.18l-15.43-11.56c-8.6-7.89-14.57-16.98-18.07-27.91.28,6.04,1.44,11.87,3.28,17.02l-2.63.13-2.78-14.7c-.11-.58-.12-2.44.39-2.64l2.88-.75Z"/>
  <path class="cls-9" d="M594,916.3c-3.11-.03-2.53-1.19-.75-2.04l44.01-11.4c57.69-17.77,110.11-50.47,155.04-91.52-1.96,6.33-7.62,9.58-12.34,13.63-53.46,45.84-115.39,77.63-185.96,91.31Z"/>
  <path class="cls-24" d="M667.14,795.3l1.26-1.16.91.64.6.47,7.66,3.86c7.31.63,17.12-5.14,16-11.03,8.76-4.82,15.89-15.59,11.28-26.06-.67,7.42-2.95,14.05-7.93,19.88-6,7.05-15.27,9.47-24.53,8.04,2.83-3.3,3.61-7.62,2.28-12.03-1.83-6.08-6.64-10.27-12.78-12.33-11.64-3.89-24.44-.32-33.32,7.69-7.69,6.94-9.7,14.96-9.81,25.85-6.73-16.29,11.04-34.54,26.63-36.63,10.58-1.42,19.27-.21,26.64,6.98,4.95,4.83,6.42,12.25,4.24,18.65,10.69.9,18.78-5.39,23.61-14.58,3.38-6.43,3.79-15.75-.35-17.51-.48-.2,1.74-.92,2.19-.62,3.89,2.57,7.3,9.94,6.59,14.97-.85,6.1-3.56,9.76-8.54,15.85,4.79-1.25,8.71-3.85,13.28-6.44,10.33-8.47,15.83-21.38,15.24-34.55l.8-3.16c4.33,21.18-10.73,43.31-32.68,47.03-2.48,7.85-9.16,11.47-17.14,11.26-4.1-.11-8.23-1.31-10.01-4.44l-.42-.74-1.71.08Z"/>
  <path class="cls-11" d="M532.96,187.59l.82,17.24c.16,2.67.14,5.36-.2,8.03l-.11,30.82c-.41.46-1.41,4.11-.53,3.96l3.69-.68c-1.69,1.67-3.81,3.07-6.01,4.3l-1.68-.48c-1.47-.08,2.07-7.34-.27-15.08l1.59-7.15c-.12-.46-.43-1.91-.89-2.07,3.77-15.68-4.2-36.62-20.84-42.09l-2.19-2.15,6.4-1.13c4.07-.72,9.29,1.01,13.94,2.53,2.43.8,4.65,2.73,6.28,3.96Z"/>
  <path class="cls-25" d="M403.71,380.64l1.96,1.89-1.5.2c-.37.06-.6,1.34-.64,1.79l-.72,8.03c-.55,6.16-.76,11.77-2.62,17.3-5.92,2.58.11-3.09.8-16.06l.54-10.13c-4.36,1.9-6.71,3.81-8.02,6.65-1.84,4-.04,7.13,1.6,11.48-4.76-3.78-5.25-8.22-2.35-14.01-2.12,1.56-4.62,3.86-5.12,5.84-1.55,6.12,8.48,8.44,3.25,18.29-.48.9-.81,3.25.01,3.52-.59-.03-2.31.77-2.23,1.24l-9.99-.41c-7.91-.32-15.21-.72-23.02-.03l-8.29.73c-2.32.2-3.09,6.23-.66,7.56l-4.04.26-.09-2.57c-.03-.38-.95-.5-1.32-.57l-.56-.1c-.14-2.55-2.78-4.52-5.68-3.87l-4.32.98-1.98-2c1.85.03,5.66.05,7.34-.64,2.74-1.28,5.2-2.27,7.51-2.5l4.06-.98c7.99-1.18,15.32-3.95,22.4-8.56,4.83-3.15,10.72-6.09,14.15-10.66,5.13-6.83,11.07-11.9,19.54-12.67ZM388.41,414.82l2.44-7.17c-3.92,2.91-7.28,4.96-11.21,4.68,3.99-2.13,10.27-3.68,9.67-8.68l-4.17-7.58-14.98,10.11c-6.69,4.52-13.99,6.04-21.59,8.24l9.2-.53,17.74.04,12.9.91ZM344.1,420.24l.64-4.9-2.16,1.91c-.42.37.62,2.05,1.52,2.99Z"/>
  <path class="cls-16" d="M275.69,391.58l-4.04,2.17c-21.79,4.62-33.8,14.12-39.34,36.19-.63-4.23.43-7.01,1.46-12.07l-13.6,9.17c-7.79,5.25-12.69,14.13-14.29,23.65-.71,4.2,2.24,8.09,4.32,11.36s-.11,8.51-3.13,10.78l-10.77,8.08c-6.09,4.57-4.1,13.65-.45,19.52-7.67-5.19-6.87-17.81.98-22.71,4.23-2.64,8.12-5.09,11.07-9.09,3.89-5.27-4.89-10.03-4.08-16.95,1.62-13.84,9.99-23.41,21.49-30.9l-12.96,1.32c-10.82,1.1-19.21,8.04-23.6,17.5l-.27-2.15c3.79-8.35,9.74-13.3,19.23-15.88l10.14-2.76.91-.35c7.81,1.53,14.2-2.72,19.22-8.54,9.74-11.29,23.51-18.02,37.71-18.34Z"/>
  <path class="cls-7" d="M502.36,524.5l-1.16,1.04-3.2,11.36c-2.86,6.1-4.48,10.99-4.72,17.64-.39,10.88-3.98,21.12-5.57,31.85l-.37,11.95c-.65,1.35-1.07,1.93-2.99,2.98l-.28-6.89c-12.24,31.65-28.26,62.61-54.91,84.21,21.63-23.41,38.66-47.34,49.7-76.92,6.37-17.07,12.25-33.72,12.76-52.38l-3.4,2.03c5.56-10.65,12.71-20.68,9.54-31.83l.89-3.02.88-.21,2.83,8.2Z"/>
  <path class="cls-9" d="M482.62,299.63l-3.1,2.2-5.37-4.97c-1.38-1.28-5.32-2.04-7.57-2.22-13.73-12.29-34.51.88-46.68,14.2-.89-2.47,1.12-2.99,2.32-4.34,8.26-9.29,17.58-14.65,29.95-17-3.63-1.85-7.56-3.66-10.52-3.64l-21.99.13-8.19.42c7.91-3.45,17.23,0,26.56-3.36-27.69-12.47-60.27-1.06-75.16,23.11l-1.26-.4,3.01-5.86c19.56-24.72,52.54-30.79,80.14-16.44,3.71,1.93,8.5,2.06,11.28,5.76,4.61.67,8.3,2.4,11.62,5.21,5.65.97,11.66,2.93,14.95,7.21Z"/>
  <path class="cls-13" d="M262.62,682.16l1.07,1.6c-1.18,1.84-2.31,5.61-3.34,8.34-2.34,6.23,4.01,5.7,7.36,13.88,6.4-3.32,12.9-3.41,19.13-.91,12.23,4.92,20.19,14.07,24.78,26.45,1.24,3.35,1.2,7.43.93,12.23,7.86-2.18,13.2.51,17.09,6.6,4.58,7.17,5.47,15.7.1,22.54,2.57,3.58,3.47,6.94,5.09,10.36l-1.36,2.06-3.33-9.73-6.58.49c-.87.07-2.73-.26-3.43-.62s-.78-2.91-.04-3.2l2.43-.96-.58,2.56c-.58,2.55,9.57-1.67,9.66-10.69.12-12.33-11.67-22.23-17.51-17.82-1.16.88-1.29,3.86-1.55,5.82l-1.86,13.56c-1.78,5.55-2.38,10.8-1.21,18.34-1.76-2.63-2.93-6.83-2.41-10.29l3.67-24.38c1.95-20.66-10.6-39.34-30.89-43.06-7.81-1.43-12.83,2.99-17.87,8.26l3.85-6.6c-.67-3.54-4.52-6.79-7.81-8.89l-6.29-4-.53-.67-1.87-1.15-.5.56-.51,1.41c-.18.5-2.4.25-2.28-.28,1.25-5.51-2.85-12.13,2.12-15.36-.02,5.53,1.39,9.89,3.64,14.17l.47.62,5.66,1.94c1.55-5.49,2.46-9.51,4.72-13.18ZM248.86,691.8l-.76-2.63-.04,3.17.8-.53Z"/>
  <path class="cls-29" d="M193.92,606.56l-2.15,7.63c-3.11,11.02.18,20.66,4.08,31.45-3.06-3.55-4.09-7.73-6.39-12.6-5.38,10.71,3.04,26.19,12.79,29.65,2.97,1.05,5.5,2.83,7.04,5,2.65-.83,6.49-1.38,10.66-1.51-5.56-7.88-5.4-17.16-5.24-27.11-3.61,5.16-2.97,10.84-2.98,17.43l-2.37-2.99c.2-6.09,2.05-12.55,5.69-18.84,3.16,10.13-.19,19.42,4.77,27.13,2.04-10.45,8.88-13.1,16.97-12.65v1.19c-3.88-.05-7.89,1.54-11.11,3.44-2.84,3.09-4.22,6.95-3.95,11.46-5.53,10.06-1.26,20.79,8.24,27.04-9.99-2.7-14.33-14.26-12.11-23.72-6.44-1.83-10.5,3.39-11.65,9.5-1.15,6.12,1.96,12.07,5.6,16.69l.59.74c2.87,1.84,8.34,5.41,11.96,5.63l11.58.7-10.25.57c-5.42.3-11.57-2.2-13.97-6.31-.21-.22-.6-.62-.62-.62-13.87-11.74-1.6-26.1-4.7-29.06-2.48-2.36-16.89-3.46-20.52-23.37-.79-4.36,2.31-9.34,2.54-13.54.51-9.24.6-17.65,5.18-25.24.33.54.46,1.83.32,2.31Z"/>
  <path class="cls-28" d="M786.4,199.61l-1.36,1.35-4.04-4.42-.76.02c-25.93-22.8-53.91-43.34-85.25-59.26-33.44-18.12-68.07-28.65-105.18-37.82,38.96,5.16,75.66,20.26,110.46,38.4,29.87,15.57,56.34,35.4,81.1,57.22l.49.56,4.52,3.95Z"/>
  <path class="cls-22" d="M539.62,244c-.49-.77-1.11-3.25-1.11-4.21l.06-23.87c1.05-4.54.6-8.58.23-13.13l-1.5-11.93c7.12,6.72,11.55,15.4,11.89,25.27.37,10.75-2.1,20.47-9.58,27.87Z"/>
  <path class="cls-16" d="M751.26,203.61c-47.59-39.63-101.8-67.1-163.86-79.73.96-1.89,2.31-1.89,4.49-1.42,26.72,5.79,52.43,13.66,76.8,25.88l16.09,8.07c24.59,12.32,46.99,28.2,67.5,45.8.18.07.64.3.76.41l6.17,5.49.71.72c1.83,1.86,6.45,3.72,5.84,7.27-2.8-2.03-5.39-4.69-6.71-6.47l-.46-.63c-2.64-.77-5.08-3.04-6.47-5.54l-.86.15Z"/>
  <path class="cls-15" d="M165.98,342.76c-18.95,42.52-31.92,87.63-35.26,134.71l-1.01,14.22c-.05.76-.91,2.14-1.74,2.97l.31-17.01c3.82-46.92,15.51-92.32,35.41-135.05l1.55-1.62.75,1.77Z"/>
  <path class="cls-28" d="M284.63,825.28l1.25-1.37c44.92,32.71,92.82,55.36,148.28,66.79-.06.58-.7,1.17-1.68,1.74-34.9-7.48-67.76-19.14-98.97-36.01-17.34-9.6-33.35-19.69-48.88-31.15Z"/>
  <path class="cls-15" d="M877.19,388.21l-2.2.46c-15.75-50.45-41.04-97.5-75.75-137.79l-.71-1.05-2.49-4.01,3.16,2.88.79.79,4.26,4.39c33.07,39.56,57.53,85.02,72.93,134.34Z"/>
  <path class="cls-25" d="M782.35,673.38c.67,13.03-9.29,24.7-23.11,24.87,3.47-2.22,5.82-5.66,6-9.93l-4.18,5.85c-2.43,3.41-5.71,5.32-9.97,5.96-5.06.77-8.91,3.29-12.77,6.1-9.12,6.63-13.34,17.52-7.72,28.11l-1.5,7.77-.8,3.16c-1.49-4.21-3.23-8.1-6.65-11.3-.85.13-2.48.4-2.44.83l.29,2.8,2.88,11.91c-3.85-4.33-5.92-12.37-4.15-17.7l-4.93-2.2.46-1.01c6,1.36,10.18,4.56,14.72,9.97l-2.94-12.5c-.47-12.3,12.91-26.08,24.85-27.75,7.4-1.04,14.03-9.48,14.51-18.85,3.73,5.12,1.82,9.51.05,15.87,10.31-2.14,15.79-13.07,15.43-23.02l1.99,1.06Z"/>
  <path class="cls-25" d="M540.43,724.06l1.15,1.59c-6.4,2.02-12.78,4.87-18.4,9.43-4.35,3.52-6.77,12.01-3.23,16.71,6.36,8.46,18.98,9.53,27.8,4.75,1.5-8.8,11.07-13.25,11.43-23.44l.45-12.76.49-2.12,1.43,7.05c.78,9.58-1.91,18.53-9.41,24.71-1.15.95-2.11,4.79-.98,5.61,4.06,1.34,10.03,2.83,13.47,5.41l-14.99-3.87c-9.6,5.2-22.21,4.68-30.23-2.78-8.21-7.63.7-23.09,7.9-33.25,6.62-9.35,10.43-19.87,9.97-31.68-.06-1.6-2.42-4.2,1.02-5.69l-.06,16.62c-.02,5.54-3.23,11.8-6.16,16.54l-9.84,15.9,18.18-8.73Z"/>
  <path class="cls-27" d="M161.29,667.45l-1.89.88-9.36-23.31c-11.3-31.6-18.38-63.93-21.43-97.43-.42-4.64-2.16-8.91.8-13.5l1.44,13.5c4.73,44.39,13.55,79,30.44,119.87Z"/>
  <path class="cls-5" d="M376.63,139.43l.89,1.98c-43.79,17.35-83.19,42.5-118.18,74.23-1.31-3.65,1.63-4.15,3.53-5.85,33.56-30.1,71.83-53.75,113.76-70.37Z"/>
  <path class="cls-2" d="M429.92,751.58l-10.71,8.31c-9.04,7.02-17.99,13.76-25.15,23.36,16.64,3.35,30.77,15.59,29.13,32.17l-3.48-10.45c-1.28-3.85-4.15-7.1-6.92-9.88-11.79-11.81-29.94-12.73-35.27-5.29-6.43,8.97-14.21,14.7-26.1,11.45-4.51-1.23-8.96-3.38-11.56-7.33l8.27,3.82c9.52,5.5,21.16,2.04,26.04-8.15,1.42-1.65,5.21-5.07,7.47-5.14l10.14-.3c3.54-5.3,7.28-10.99,12.64-15.23l26.12-20.63-.63,3.28Z"/>
  <path class="cls-2" d="M339.86,793.93c-3.07-2.13-5.15-4.97-6.4-8.63l1.36-2.06,5.04,10.69Z"/>
  <path class="cls-7" d="M429.92,751.58l.63-3.28,3.21-1.87c-.32,2.21-2.01,3.73-3.84,5.15Z"/>
  <path class="cls-7" d="M491.92,623.31l4.97,13.9-1.53.15-2.69-7.32c.78,10.23,1.07,18.61,0,28.24l-2.33,21.03-1.63-.99.49-5.05c-8.14,20.74-20.31,40.74-35.41,55.08.3-2.12.91-3.4,2.55-5.3,15.42-17.95,32.6-44.24,34.14-67.66l.61-9.25-.77-13.87-1.03-8.82,2.63-.13Z"/>
  <path class="cls-7" d="M453.79,728.34c-1.91,4.06-11.38,13.85-16.3,14.67l12.75-13.04c.64-.65,2.68-1.46,3.55-1.64Z"/>
  <path class="cls-7" d="M433.76,746.44l.84-1.11-.84,1.11Z"/>
  <path class="cls-7" d="M437.5,743.02c-.03.69-.08,2-.61,2.06l-2.3.24c.3-1.1,1.88-1.73,2.9-2.3Z"/>
  <path class="cls-6" d="M537.3,190.86l1.5,11.93c.37,4.55.82,8.59-.23,13.13l-.06,23.87c0,.96.61,3.43,1.11,4.21l-2.99,2.96-3.69.68c-.88.16.13-3.5.53-3.96l.11-30.82c.35-2.67.36-5.35.2-8.03l-.82-17.24,4.34,3.27Z"/>
  <path class="cls-5" d="M353.33,123.7l1.28,1.71c-39.44,16.98-75.86,40.05-107.5,68.91l-1.45-1.61c30.98-27.92,69.4-52.38,107.68-69.01Z"/>
  <path class="cls-27" d="M872.95,644.7l-2-.86c10.24-29.7,17.82-60.39,20.29-92.32l1.17-15.1,1.21-10.31c3,4.4,1.06,9.01.78,13.4l-.69,10.77c-2.08,32.59-9.89,63.72-20.76,94.42Z"/>
  <path class="cls-28" d="M245.71,574.55l-2.13-.02-1.1-3.99.02-4.23c3.15-15.74,18.25-22.84,33.27-27.79,16.05-5.29,23.76-18.65,28.1-34.85.85,14.57-9.17,26.51-20.7,34.26l-16.69,11.21c-7.39,4.97-12.13,11.9-14.36,20.45-1.2-11.6,11.99-20.66,20.74-28.22-15.85,5.42-33.07,18.04-27.16,33.18Z"/>
  <path class="cls-14" d="M481.24,818.62c-9.18-13.11-9.24-30.55-.16-43.73,1.95,2.55,2.57,6.15,2.37,9.34l-1.35,21.86c-.51,8.25,1.74,10.66,1.09,11.21l-1.96,1.32Z"/>
  <path class="cls-1" d="M871.59,711.74l-9.52,16.42-22.28,32.76c-13.26,17.58-27.29,33.85-43.34,47.99l-.42-1.9c13.22-12.8,25.48-25.98,36.98-40.97,14.25-17.59,26.15-36.19,36.85-55.59l1.73,1.28Z"/>
  <path class="cls-5" d="M737.17,824.71l.99,1.91c-32.66,24.02-68.43,42.98-106.87,55.28l.37-2.07c37.79-12.81,73.11-31.22,105.51-55.11Z"/>
  <path class="cls-23" d="M738.73,339.53c-1.14.63-1.5.95-1.65.52l-1.05-3.12c-1.69-5-6.2-12.07-9.3-16.54-1.72-2.49-3.31-5.13-6.11-5.94l-10.34-9.96-13-11.7-4.7-4.4-9.89-6.12-15.27-8.1c-1.44-.76-3.97-1.06-5.49-2.82-4.43-3.65-9.76-5.77-12.65-11.4l32.33,19.56c11.24,6.8,21.99,13.38,31.49,22.39,11.44,10.83,20.55,23.14,25.62,37.63Z"/>
  <path class="cls-1" d="M247.11,194.32l-10.92,9.97c-6.31,5.76-12.18,11.54-17.91,18.1-19.48,19.65-34.43,41.65-51.05,64.63,13.96-28.35,47.15-66.12,70.5-87.16l7.93-7.14,1.45,1.61Z"/>
  <path class="cls-2" d="M310.36,327.56l-2.05,5.68c-1.84,5.9.8,13.55,7.92,14.76l-.77-7.54c-.09-.88.96-2.65,1.76-2.96l4.38-1.81c4.8,5.74,11.41,5.53,18.44,2.27-5.23,6.25-14.2,4.48-19.17-.21-.6,4.29,2.33,10.21,6.96,10.66,6.1.59,10.14-4.39,14.6-8.13-1.72,6.94-8.21,9-15.08,10.68,5.02,2.91,10.8,2.38,16.04-.91,3.52-2.21,5.7-7.64,6.34-12.43.95.33,3.15,2.22,2.63,3.15l-1.94,3.46c-5.45,9.72-16.87,13.98-24.72,7.7-.88-.7-4.14-2.21-4.4-1.2l-.98,3.84c-2.4-7.06-13.23-4.33-14.51-15.57-.51-4.53.8-9.79,4.56-11.43ZM323.03,348.21l-4.94-9.88c-.59,2.52-.27,6.94.59,8.92.28.64,2.69,1.71,3.33,1.42.48-.22,2.21-1.01,1.02-.46Z"/>
  <polygon class="cls-2" points="313.76 325.7 310.36 327.56 312.8 324.51 313.76 325.7"/>
  <path class="cls-4" d="M386.43,321.36l-.03,2.13-.93,1.63c-3.93-.74-7.84-.69-11.54,2.97,5.48.65,9.57,2.97,10.57,8.17-8.98,1.77-12.08-5.16-17.94-7.26l-3.95,3.74-2.03-1.78c-.48-.42-2.78.35-2.58.95l1.22,4.64-5.17-5.04-1.59-.5c-.37-.12-.78-1.03-.88-1.29l1.3-2.03c2.91,1.23,6.34,2.31,8.83,1.42l4.44-1.59c2.21-.79-.15-10.81,9.66-14.15-.55,4.74-1.89,8.48-4,12.37,10.37-.88,3.91-12.74,12.98-15.8,1.17-.13,2.76,3.31,1.98,4.21-.65.75-1.74,1.57-3.28,2.76l-1.76,5.99,4.71-1.56Z"/>
  <path class="cls-27" d="M143.28,690.14l-1.67,1.43c-16.03-33.02-27.22-67.9-34.29-104.42.01-.44,1.43-2.05,1.59-1.37l.66,2.77c4.07,16.97,7.77,33.36,13.24,49.95,5.91,17.91,12.51,35.13,20.45,51.65Z"/>
  <path class="cls-8" d="M213.59,793.96l-1.93-.95c-1.37-.67-3.11-2.72-3.98-4.12l-.51-.54-9.75-10.87c-20.37-24.24-38.16-50.47-52.21-78.69l-3.59-7.22,1.67-1.43c16,33.25,36.67,64.29,61.11,92.31,1.71,1.96,2.84,3.43,3.75,5.03l.41.52c1.91,1.47,4.19,3.76,5.03,5.97Z"/>
  <path class="cls-4" d="M517.52,834.64l-5.07-2.35c22.34.73,39.05-19.65,35.72-41.1-2.37-15.23-14.52-28.47-30.19-30.15l3.2-1.74c18.1,4.14,30.62,20.66,29.72,39.2s-14.96,33.77-33.37,36.15Z"/>
  <path class="cls-1" d="M512.73,181.1l-6.4,1.13,2.19,2.15c-13.82-2.11-27.54,11.99-30.77,24.15-4.24,15.96,1.33,30.46,14.31,39.69,4.7,3.34,10.07,5.01,15.41,4.55l-3.98,1.55,3.05,1.75c-7.73-1.13-14.53-4.45-20.39-9.9-8.73-8.11-12.64-18.26-11.83-30.59,1.3-19.87,18.48-35.73,38.4-34.48Z"/>
  <path class="cls-8" d="M879.61,330.74l1.64-.45,7.88,16.57c11.17,28.85,22.51,58.29,25.28,89.52-9.01-37.26-18.66-72.12-34.81-105.64Z"/>
  <path class="cls-1" d="M165.98,342.76l-.75-1.77c.07-1.08.4-3.4,1.14-4.83,16.82-32.29,35.38-64.41,60.86-90.11-24.16,31.45-45.64,61.68-61.26,96.72Z"/>
  <path class="cls-30" d="M392.55,323c-.5.68-1.67,1.97-2.51,1.74l-3.64-1.25.03-2.13,8.77-4c1.69-5.38,4.07-11.22,9.51-14.33,1.05,5.14-1.48,8.77-4.52,13.29,9.51-.4,7.23-12.24,20.42-14.49-1.62,7.71-7.56,9.56-13.32,12.5l6.87,2.75c-3.13,3.79-7.22,4.23-12.14,2.9s-11.46.98-10.53,1.99l1.05,1.02Z"/>
  <path class="cls-8" d="M877.19,388.21c9.05,28.98,14.93,57.97,17.06,88.33.47,5.6,2.62,11.39-.72,16.85-1.97-36.31-7.97-70.88-18.54-104.72l2.2-.46Z"/>
  <path class="cls-26" d="M361.61,303.76l1.26.4c-1.86,3.02-3.31,7.27-6.28,9.52.05-.52-.03-1.87-.55-2.05l-2.12-.48-.1-1.26c-.04-.54,1.28-1.88,1.56-1.42l1.83,3c2.76-2.56,1.66-7.89-.81-11.15l-.89-2.97-5.97-1.32,2.8,7.49c.42,1.26.12,2.62-.98,1.21-1.66-4.43-3.45-8.09-6.55-9.77-3.59-1.94-8.13-3.18-11.71-.81-1.96,1.3-4.06,3.72-5.81,5.94l9.48-1.58c3.29-.55,7.41.75,9.44,3.07s2.8,6.5,2.04,9.17c-1.44-3.97-2.89-8.74-6.48-9.7-8.23-2.2-15.22,2.1-18.73,8.98l-1.97,3.19-.41-3.78,7.04-13.69,4.37-4.14,15.64.71c11.75.53,12.08,11.16,12.56,11.23l1.34.21Z"/>
  <path class="cls-25" d="M423.28,348.48l1.33,1.02-16.55,6.61,3.68,7.79-5.73-5.94c-.85,3.35.25,6.28,2.54,8.34,1.84,1.65,6.06,2.67,8.34,1.93,1.39-4.67,2.92-9.12,6.66-11.51l6.76-4.33,2.43.84.29,11.02c.18,6.92-3.99,12.13-10.43,12.37l.71-1.2c4.4-1.55,8.37-4.4,8.24-9.92l-3.06,1.97-5.06,4.22c-.65.55-2.17,1.48-2.9,1.9l6.11-8.79c1.63-2.43,5.14-6.16,3.34-10.66-9.81,6.73-10.54,8.79-11.8,19.37-.39-.88-.81-2.62-1.45-2.67l-3.26-.23c-5.56-.4-9.07-5.56-10.16-10.99l-4.99,3.9c4.71-9.31,15.57-11.65,24.93-15.06Z"/>
  <path class="cls-11" d="M922.05,500.89c.68,1.09,3.55.24,5.45-.42l.35,6.06c.07,1.19,5.02.78,5.14,1.54l.17,1.47-1.15-.07c-1.1-.06-3.1.24-3.94.91-.51.41-.88,1.84-.62,2.44l1.5,3.5c.21.12-1.81-.86-3.73-1.81l-4.66,3.41-5.62-4.25-2.22-3.5-1.28-1.29c1.28-1.07,2.74-2.28,2.81-3.34.07-1.15.07-3.67,1.13-3.95l3.65-.96c.53-.14,1.27-2.55,1.56-2.09l1.47,2.34Z"/>
  <path class="cls-29" d="M881.25,330.29l-1.64.45c-15.24-31.64-33.77-61.9-56.13-89.04l.11-.85c-1.98-.96-3.94-2.38-4.36-5.46,2.29,1.31,3.78,2.95,5.09,4.72l.62.53c13.66,16.19,25.57,33.9,36.87,52.41l15.49,28.57,3.95,8.68Z"/>
  <path class="cls-25" d="M797.2,622.38l1.75,1.06c-7.43,2.21-13.91,7.72-14.96,15.79-.51,3.96.14,6.9,4.2,8.91l-4.14.08c-1.46.03-1.89-10.42-15.5-11.64-4.85-.44-10.48,2.87-13.35,6.91-.31.09-1.21.06-1.3.38l-.73,2.54c-.99,1.51-3.01,4.39-2.56,6.06s2.13,4.37,3.32,5.39c1.27,1.09,3.49,2.34,4.91,2.28,1.69-.07,3.38-2.7,3.99-4.61.43.1,1.97,2.39,1.42,3.15-.44.61-1.42,1.59-2.52,2.5-2.28,1.89-6.64,1.03-9.01-.78-5.13-3.94-5.12-12.76,1.63-19.86,6.93-7.3,20.37-7.55,27.61,0,.39-8.97,6.57-16.55,15.24-18.16Z"/>
  <path class="cls-8" d="M159.4,668.33l1.89-.88c13.15,31.8,31.88,59.35,51.34,87.23-23.58-25.63-39.38-55.91-53.24-86.36Z"/>
  <path class="cls-29" d="M230.74,812.35l1.26-1.31c24.66,22.83,51.54,42.84,81.25,59.39l1.1,3.04c-30.43-17.15-58.41-37.51-83.61-61.13Z"/>
  <path class="cls-29" d="M269.56,563.24l.17,1.54c-3.11,1.81-6.48,7.91-7.89,11.74.54,8.32,7.85,12.74,14.98,14.54-6.3,1.1-12.24-1.32-18.06-3.92l1.05,8.16-.05,2.17-1.94-8.17c-.42-2.41-1.35-4.4-3.78-5.07-5.33-1.46-9.17-5.01-10.46-9.71l2.13.02c1.03,2.63,3.64,5.18,6.33,6.46l4.46,2.13c4.58-10.18-.24-18.16,5.16-24.72l-1.93,10.97c-.18,1.03.96,3.95,1.24,3.89,3.02-4.19,5.38-7.17,8.61-10.04Z"/>
  <path class="cls-19" d="M104.82,501.35l4.01,3.09,3.35,5.01-3.6,2.76-4.72,4.53-2.7-.15-4.52-2.7-3.89-4.23,2.15-3.36c.36-2.47,3.7-5.44,6.22-6.1.96-.25,2.89.55,3.7,1.17Z"/>
  <path class="cls-15" d="M134.2,354.21l-11.11,30.62c-6.15,16.94-8.34,34.09-14.59,51.61,3.78-29.39,13.33-57.1,23.99-83.8l1.71,1.57Z"/>
  <path class="cls-22" d="M486.65,770.28l-1.16,11.89c-.04.42-.02,2.29.33,2.45l1.72.6c-1.85,6.72-1.15,17.05-.01,23.68l-1.85,1.03c-.33.19-.75,2.14-.67,2.51l1.63,7.4c.11.5,1.02,2.19.54,2.39l-2.16.99c-1.37-1.43-2.64-2.96-3.77-4.59l1.96-1.32c.65-.55-1.6-2.96-1.09-11.21l1.35-21.86c.2-3.19-.42-6.79-2.37-9.34,1.21-1.76,2.57-3.42,4.06-4.95l1.5.34Z"/>
  <path class="cls-28" d="M816.08,613.36l2.11.36,5.19.54c2.28.24,5.47,1.15,6.77,2.39l.66.63c6.06,5.83,7.01,15.22,1.59,22.31-3,3.92-7.7,6.02-12.67,4.04-4.03-1.61-8.24-1.28-12.69-.6,4.83-4.27,10.38-.44,15.41-.16,6.58.37,12.38-7.91,11.6-14.35-.47-3.88-2.53-7.47-3.87-10.57l-.48-.57-7.74-1.87c-3.82-.92-8.19,3.33-10.49,6.23l4.04,5.43c-2.26-1.26-5.12-3.75-7.07-3.75h-9.48s-1.75-1.05-1.75-1.05c2.6-1.37,4.32-3.35,5.81-6.16,7.11-13.43,7.84-31.19-.71-42.74-.5-.67-1.02-2.36-1.06-3.06,2.27,1.14,4.45,4.47,5.75,7.33,6.31,13.92,4.35,29.65-3.84,42.35l6.2,1.37,6.75-8.12Z"/>
  <path class="cls-28" d="M796.37,564.1c4.63,1.49,8.97,4.05,12.96,7.34l-1.27,1.16-6.16-4.25-.75.57.08,1.52-5.25-1.96c-1.45-.6-4.33-1.15-6.02-1.22l6.4-3.15ZM800.73,567.94c1.05.04.99.03-1.24-.04l1.24.04Z"/>
  <path class="cls-10" d="M503.45,119.97l-2.87,4.28,3.78,3.82c-.53-.21-2.48.91-3.22,1.65l-15.1,15.12c-1.2-1.12-2.67-2.39-2.38-3.2.23-.65,1.25-2.49,1.73-2.97l14.29-14.54-9.1-9.87,2.27-3.31,10.6,9.04Z"/>
  <path class="cls-18" d="M530.62,251.26c-3.21,1.8-7.34,3.5-11.17,4.36l-2.06-3.88c-.36-.89-1.42-2.49-2.29-2.82l6.18-6.42c4.28-4.45,6.63-9.95,8.09-16.02.46.17.77,1.61.89,2.07l-1.59,7.15c2.35,7.74-1.2,15,.27,15.08l1.68.48Z"/>
  <path class="cls-2" d="M207.79,548.62l-.17-2.23c3.19-5.58,7.09-10.74,13.42-13.71l14.3-6.71c5.55-2.6,6.92-9.82,10.33-14.39l-1.38,5.33c-.15.57-.57,1.81-.16,1.95l2.34.82-10.24,8.38c7.77,1.51,17.29-2.69,21.67-9.17,1.7-2.52,2.48-3.8,4.92-5.04l3.74-6.6c-1.89,10.84-9.71,17.67-19.62,21.59-4.85,1.92-23.96-3.84-39.14,19.79Z"/>
  <path class="cls-23" d="M846.42,702.93c-13.97,24.38-28.71,48.59-49.98,68.66,17.41-22.78,35.64-44.37,48.65-70.43l1.34,1.77Z"/>
  <path class="cls-2" d="M328.29,366.62l-1.77,2.69c-7.95-1.36-16.45-1.23-23.52,3.49-3.33,2.22-4.01,6.69-2.04,9.73l-8.65,5.94,5.02-6.38c.48-2.57,1.3-7.64,3.11-9.56,3.92-4.16,9.29-4.59,14.59-5.46-7.4-3.71-15.18-3.22-21.61,1.38-3.31,2.37-4.41,6.35-5.37,10.25-1.7-1.8-1.05-5.16.36-7.54,4.87-8.19,15.09-10.31,24.15-7.31,5.19,1.72,10.79,3.31,15.73,2.77Z"/>
  <path class="cls-1" d="M713.23,324l-2.06,1.01-10.12-14.01-7.5-8.39-8.07-7.03-17.59-13.36c-7-5.31-14.34-9.23-20.85-15.97,6.41,2.32,10.68,6.97,16.21,10.63,10.41,6.89,20.82,13.43,29.58,22.27l6.55,6.6,13.85,18.25Z"/>
  <path class="cls-19" d="M514.43,891.01c.03.28-.23.99-.37,1.47l4.53,1.9-.81,1.12,4.81,2.72-4.34,2.58-.23,1.32c-.36.56-1.01,1.57-1.58,1.85l-2.14,1.05-3.69.67.46-1.18-5.51-3.41-1.07-1.04-4.82-2.29,5.65-1.81,5.06-3.96c.61-.48,1.71-1.7,2.28-1.52l1.76.52Z"/>
  <path class="cls-13" d="M353.22,892.4l.94-1.54c24.23,9.52,48.15,17.78,73.7,22.7.41.19,1.87.78,1.65,1.03l-1.31,1.49c-25.66-5.7-50.86-12.87-74.98-23.67Z"/>
  <path class="cls-10" d="M539.14,90.05l-.06,24.68-2.29,2.28c-.5.49-2.31-1.67-2.31-2.54v-17.31s-2.03.45-2.03.45l-2.41.31c-.55.07-.14-2.18-.13-2.79l.09-6.01-8.51-1.2,13.89-.07c.93,0,3,1.44,3.77,2.2Z"/>
  <path class="cls-1" d="M539.38,432.57l42.04.02,1.02-1.01h7.99s-.07,1.46-.07,1.46c-.04.38-1.38.55-1.82.55h-6.09s-44.92-.03-44.92-.03l-1.04,1.01h-1s-5.04-1.89-5.04-1.89c1.41.13,4.41-.85,5.36-1.86l-3.48-7.98c5.51,2.72,2.77,9.72,7.05,9.72Z"/>
  <path class="cls-1" d="M487.47,409.61l.55,2.03c.14.53,1.95,1.17,2.6,1.13l7.51-.45c2.4-1.35,3.72-1.08,6.03-1,8.12.26,14.38,2.15,21.23,6.33l6.94,5.2-5.48-2.37,1.32,5.05c-14.4-21.78-35.67-1.84-55.9-14.53l14.24,3.07-.88-5.33,1.85.87Z"/>
  <path class="cls-2" d="M495.36,637.36l1.53-.15c10.47,29.29,20.06,65.31,15.67,96.63l-.85-26.55c-2.57-24.34-8.1-47.51-16.34-69.93Z"/>
  <path class="cls-8" d="M898.77,649.62c-.17.39-1.6.85-1.97.96l.04-1.43c8.36-20.97,11.76-42.41,18.16-64.8-.44,20.04-7.85,38.14-12.66,57.05l-3.57,8.21Z"/>
  <path class="cls-16" d="M165.83,290.91c-12.31,20.45-23.51,40.91-31.63,63.3l-1.71-1.57c8.79-22.02,19.41-43.19,31.96-63.31l1.38,1.58Z"/>
  <path class="cls-16" d="M898.77,649.62l-1.43,5.94c-7.42,19.61-15.52,38.53-25.75,56.17l-1.73-1.28c10.59-19.2,19.11-39.56,26.94-59.87.37-.12,1.81-.58,1.97-.96Z"/>
  <path class="cls-17" d="M712.77,796.3c17.89-7.81,33.33-23.89,30.22-44.78-.83-5.61-4.66-9.32-8.13-14.47,8.87,3.47,11.31,13.12,10.36,22.61-1.67,16.63-14.94,33.26-32.45,36.63Z"/>
  <path class="cls-1" d="M377.53,141.41l-.89-1.98c19.25-7.63,38.61-13.04,58.59-17.54.7.88,1.46,1.82,1,2l-1.84.71c-19.68,4.21-38.21,9.73-56.86,16.81Z"/>
  <path class="cls-7" d="M707.63,597.62c-21.17,17.47-40.96,23.67-55.04,35.07-.99.8-3.08,1.6-4.21,1.87,1.71-2.23,4.01-4.84,6.67-6.44l12.59-7.56c13.17-7.91,27.1-14.45,38.41-24.49l1.58,1.55Z"/>
  <path class="cls-7" d="M634.78,696.46l-1.59.97c-8.44-14.09-6.73-30.09,1.09-45.09,3.63-6.97,8.03-13.7,14.09-17.78l-5.14,7.72c-12.72,16.04-18.48,36.22-8.45,54.19Z"/>
  <path class="cls-18" d="M512.45,832.29l5.07,2.35c-9.69,1.25-19.5-1.25-27.4-6.99l4.72.4c-.23-4.66-1.44-7.98-3.38-11.82l1.26-.13c4.39,7.87,11.26,13.3,19.73,16.19Z"/>
  <path class="cls-16" d="M872.95,644.7c-7.21,20.37-15.79,39.48-26.53,58.23l-1.34-1.77,14.92-29.89,10.95-27.42,2,.86Z"/>
  <path class="cls-13" d="M320.66,309.44l.41,3.78,2.3,8.53.18,1c-4.05,3.18-5.29,8.94-1.95,12.93l-4.38,1.81-.53-1.83,2.04-.5c.47-.15-.56-1.68-1.01-1.86l-1.31-.54-1.64-4.15-1.02-2.93-.96-1.18c-3.26-4.02-4.93-9.23-2.73-13.88s5.77-8.58,11.72-7.63c-4.27,1.35-8.02,3.99-9.61,7.7-1.76,4.12-1.47,8.48,1.78,12.07l6.12-5.85c-.96-1.48-2.41-3.29-1.84-4.1l2.41-3.38ZM321.49,321.86l-1.5-1.82c-4.89,3.46-4.35,7.8-2.82,11.33l4.33-9.51Z"/>
  <path class="cls-2" d="M736.58,719.16c-.26-6.22,5.82-10.98,9.88-13.5,6.53-4.07,13.27-2.48,19.81-.31,9.51,3.15,17.81-1.65,26.5-7.11-7.64,10.85-21.35,11.49-32.94,7.7-9.97-3.25-18.95,4.2-23.24,13.23Z"/>
  <path class="cls-23" d="M628.49,222.41l1.66-1.15c-.15,3.69,1.29,8.09,2.78,11.69.47-7.23,1.21-13.82,5.37-19.53-1.97,9.29-4.16,17.11-2.59,26.38.83,4.89,5,9.53,7.72,13.26l.48.66,5.44,5.85c-4.39.41-5.81-2.91-6.02-5.23l-.48-.53-2.99-1.65c-5.92-9.08-11-19.15-11.36-29.73Z"/>
  <path class="cls-16" d="M636.09,187.3c.03-.22-2.33-.81-2.28-.2l.22,2.44-6.02.17c3.94-8.65-4.03-16.43-.76-17.51,3.82-1.26,10.38,5.66,8.83,15.1Z"/>
  <path class="cls-24" d="M719.84,686.58c-.45,1.7-2.78,3.96-4.31,4.8-.52.28-1.12,1.35-1.32,1.9l-.53,1.5-2.31-.06c-.83.05-4.69,7.96-5.73,15.03-1.12,7.56,3.32,14,8.12,18.85l-.46,1.01c-5.48-2.44-8.85-8.89-9.68-15.65-1.33-10.82,6.12-24.51,16.23-27.37Z"/>
  <path class="cls-29" d="M298.61,796.54c-9.44-3.98-11.73-14.33-13.31-23.02-2.03-11.13,5.42-22.39-7.26-37.3,6.94,3.89,9.43,12.68,9.2,20.36-.49,15.94-1.46,26.29,11.37,39.95Z"/>
  <path class="cls-13" d="M801.28,669.85l-1.92.12c.54-4.48-1.91-9.74-5.73-10.67-.64-.16-3.14.44-3.02.95l.69,2.91s-1.23.95-1.72,1.32c-1.14-6.78-3.27-12.11-8.39-15.98,7.55.39,6.5,9.6,10.26,9.03.71-.11,1.69-1.96,1.4-2.68l-2.87-7.09c-2.4-5.91-2.29-12.77,3.51-16.59-6.52,12.12-1.11,15.51,1.2,25.88,4.2,2.84,7.29,7.06,6.59,12.81Z"/>
  <path class="cls-17" d="M591.61,761.33c-2.78,8.81-7.66,12.78-9.52,19.73,3.56,8.62,7.64,15.68,7.93,24.49-2.96-8.61-4.85-15.21-9.54-22.71l-4.36,17.09c-.82-10.5,3.67-19.69,8.43-28.63l5.85-10.99,1.21,1.02Z"/>
  <path class="cls-25" d="M347.36,810.21l1.69-1c9.96,3.69,21.72-2.8,29.21-11.18,5.05-5.65,10.96-7.43,18.42-6.95,3.92.25,8.13-.2,11.11,1.98-8.99-.83-18.06-2.71-24.8,3.5l-9.35,8.62c-7.17,6.61-17.25,8.2-26.29,5.03Z"/>
  <path class="cls-6" d="M487.53,808.9c.2,1.19,2.23,3.46,3.12,3.24-.05.37-.15.79-.03.99l.82,1.13c.15.23.14.61.12.88l-.08,1.09c1.93,3.84,3.14,7.16,3.38,11.82l-4.72-.4c-1.83-1.33-3.54-2.81-5.11-4.44l2.16-.99c.47-.19-.43-1.88-.54-2.39l-1.63-7.4c-.08-.37.34-2.32.67-2.51l1.85-1.03Z"/>
  <path class="cls-18" d="M521.17,759.29l-3.2,1.74c-7.59-.81-14.46,3.56-19.77,8.83l-3.83,3.37,5.99-9.55c-3.87.04-7.6.66-9.64,2.63l-4.09,3.96-1.5-.34c9.33-9.6,22.98-13.64,36.03-10.65Z"/>
  <path class="cls-13" d="M314.85,560.75l-2.15-.16c17.25-8.19,24.99-27.93,16.48-45.72-2.05-4.29-3.96-8.2-4.85-13.11l7.65,15.58c2.34,4.76,1.96,11.53,1.64,17.26-.65,11.81-9.11,20.91-18.77,26.14Z"/>
  <path class="cls-28" d="M252.8,385.84l3.01,1.71c-10.54.56-20.98,3.77-28.81,11.15-5.93,5.59-9.8,12-8.24,19.76l-.91.35c-4.89-17.44,19.07-32.82,34.95-32.97Z"/>
  <path class="cls-2" d="M715.03,327.48l1.92,3.51.33,1.16,2.22,4.31,1.66,4.24c2.73,6.97,6.32,22.66,5.78,25.92-.09.53-1.63,1.26-1.76.73l-.65-2.79c-1.42-14.13-6.11-27.36-13.36-39.55l2.06-1.01,1.8,3.48Z"/>
  <path class="cls-18" d="M522.73,108.06l-5.34,4.79-7.81,7.26c-.99.92-2.19,3.57-2.25,4.71-1.17-1.08-2.47-3.24-3.03-5.14l16.05-16.11.26,2.81c.03.72,1.02,1.53,2.12,1.67Z"/>
  <path class="cls-28" d="M490.34,679.31c-3.74,22.26-8.83,45-19.84,65.02,8.48-21.9,15.99-43.13,18.21-66.01l1.63.99Z"/>
  <path class="cls-20" d="M592.42,431.58c-.5.26,1.7,1,2.18,1h8.78s65.98,0,65.98,0l-.03,1.01-70.36.42-16.55.59v-1.01s6.09,0,6.09,0c.44,0,1.78-.18,1.82-.55l.07-1.46h2Z"/>
  <path class="cls-12" d="M631.66,879.83l-.37,2.07c-13.63,4.36-27.64,9.18-42.69,9.64l35.63-9.61,7.43-2.1Z"/>
  <path class="cls-29" d="M207.72,651.2c-7.62-6.04-11.95-18.21-8.91-27.82.91-2.88,1.48-4.21,1.33-7.07-.22-4.21.39-8.52,3.32-12.68l-1.38,12.79c.48,2.8.53,5.35-1.67,7.53-2.61,9.75,2.11,18.27,7.31,27.25Z"/>
  <path class="cls-2" d="M392.58,111.23c-.15-.49-.95-1.23-1.25-1.23l1.33-1.35c14.3-3,27.68-9.45,42.8-8.96-15.04,4.24-29.1,6.88-42.88,11.54Z"/>
  <path class="cls-29" d="M785.04,200.97l1.36-1.35,22.3,22.58,11.27,12.34c-4.59.37-5.45-3.7-7.58-5.9l-13.82-14.25-13.54-13.42Z"/>
  <path class="cls-2" d="M235.65,237.99l-5.92,7.3-1.14-3.05c-.28-.76,1.94-1.57,2.7-1.97l9.83-10.59c-1.47-2.47-3.56-5.77-3.09-7.78.67-2.84,3.28-6.33,5.93-5.83-1.89,2.75-4.07,5.38-4.08,7.29-.02,2.41,2.66,5.24,4.55,5.57,3.05.53,5.69-1.25,7.65-4.9,1.49,4.55-2.41,6.67-6.47,6.76s-7.38,4.03-9.96,7.2Z"/>
  <path class="cls-21" d="M391.32,110c.3,0,1.1.74,1.25,1.23-12.8,4.33-25.59,8.84-37.97,14.17l-1.28-1.71c9.87-4.29,32.85-13.75,37.99-13.7Z"/>
  <path class="cls-3" d="M521.48,87.92l8.51,1.2-.09,6.01c0,.61-.42,2.86.13,2.79l2.41-.31-9.72,10.44c-1.1-.15-2.08-.96-2.12-1.67l-.26-2.81,4.93-5.8,4.31-4.73-17.62-.21c-.83,0-2.43-1.75-2.33-2.42s1.41-2.44,2.09-2.45l9.75-.05Z"/>
  <path class="cls-17" d="M774.37,799.61c-3.47-3-2.89-9.52.23-12.03,1.36-1.09,5.42-1.36,7.31-1.65l7.83-7.63,1.43.25-7.28,7.7c3.82,3.48,5,9.26,1.4,13.2-2.27,2.48-8.04,2.65-10.92.15ZM785.95,793.71c0-3.43-2.78-6.21-6.21-6.21s-6.21,2.78-6.21,6.21,2.78,6.21,6.21,6.21,6.21-2.78,6.21-6.21Z"/>
  <path class="cls-8" d="M818.19,613.73l-2.11-.36c5.18-11.25,4.28-25.13-3.2-35.64l-4.82-5.14,1.27-1.16c11.97,9.87,15.2,27.84,8.86,42.29Z"/>
  <path class="cls-3" d="M507.33,124.82l7.51,6.95c1.26,1.16.45,5-1.5,5.33l-8.96-9.03-3.78-3.82,2.87-4.28.84-.29c.56,1.9,1.86,4.06,3.03,5.14Z"/>
  <path class="cls-28" d="M219.93,587.39l-2.09,2.58,4.31,1.17c-6.48-1.04-10.2,3.06-15.38,6.85l4.41-6.15,5.44-2.29c-11.11.96-17.39,9.4-22.7,17,.14-.48,0-1.77-.32-2.31,5.93-9.84,14.95-17.47,26.33-16.86Z"/>
  <path class="cls-13" d="M268.6,401.93c-6.95,3.86-12.21,8.56-18.08,13.65,10.44-16.27,29.82-22.24,46.43-12.17-9.59-2.79-18.35-4.19-28.35-1.49Z"/>
  <path class="cls-28" d="M354.16,890.86l-.94,1.54-11.63-5.21c-9.42-4.22-18.77-8.24-26.69-14.33l39.25,18Z"/>
  <path class="cls-15" d="M263.65,611.68l-.85-2.31.26-.79,1.87-3.35c6.32,7.7,15.77,11,25.87,8.18-6.14,4.63-13.73,3.71-20.5.38l-6.66-2.1Z"/>
  <path class="cls-28" d="M211.6,569.8c-1.15-.97-3.68-2.02-5.13-2.41-3-6.79-2.42-14.75,1.15-21l.17,2.23-1.78,8.32c-.56,2.61,1.14,7.12,2.45,9.58l.47-9.85c2.23-5.27,4.36-11.34,10.04-13.26-7.87,7.5-10.59,16.65-7.37,26.4Z"/>
  <path class="cls-3" d="M514.43,891.01l-1.76-.52c-.57-.17-1.67,1.04-2.28,1.52l-5.06,3.96c.35-.7-.75-2.87-1.52-3.9l-6.3-8.4,11.83,9.07,1.29-8.62,1.54-9.35c1.21,3.09,1.23,5.23,1.53,8.4l.74,7.84Z"/>
  <path class="cls-28" d="M248.52,482.79c1.09,12.91,10.86,11.6,11.99,23.49-4.04-8.16-10.31-14.71-18.01-20.39-3.33-2.46-3.47-4.61-3.09-8.28.43-4.1.73-7.95,2.03-11.29-.37,8.3-2.6,16.46,5.99,21.66l-.24-6.36c-.02-.44,1.11-1.65,1.15-1.22l.2,2.39Z"/>
  <path class="cls-13" d="M263.26,740.11l2.95,1.33c.74.33.79,3.07.43,3.86-2.18,4.73-8.54,6.32-13.4,3.28-6.85-4.28-8.57-13.4-4.8-20.48l1,12.36c.47,5.8,7.42,9.31,12.24,6.97.94-.46,3.31-2.02,3.03-2.9l-1.44-4.41Z"/>
  <path class="cls-2" d="M231.9,660.26l-1.41-.05c3.04-5.22,8.74-7.44,15.54-6.09-2.55-2.18-6.12-3.75-9.25-3.78v-1.19c4.5.25,8.51.61,11.68,4.29,2.8,3.25,3.51,8.65,1.12,12.82-.91,1.58-4.55,2.54-6.08,2.03-1.34-.44-3.54-3.29-2.59-4.28l2.42-1.57c.38-.25.03,1.66-.09,2.53-.21,1.54,4.99,2.12,5.33.61.57-2.51.3-6.89-1.18-8.08-5.17-4.18-10.35-1.86-15.51,2.76Z"/>
  <path class="cls-9" d="M738.16,826.62l-.99-1.91,25.43-20.24c1.53-1.21,2.16-3.01,4.39-1.17l-28.82,23.32Z"/>
  <path class="cls-7" d="M471.63,300.53l-.61,3.86c-.16.84-2.98-.54-3.65-.58l3.75-2.11c-4.36-4.86-9.8-3.18-14.42-.81l-1.16-.5c-.26-.19-2.51-.32-3.34-.09l-6.83,4.18c6.65-9.68,22.68-12.04,26.26-3.95Z"/>
  <path class="cls-30" d="M423.33,375.44l-.71,1.2-1.63.15.68,4.2-2-.35-.81-1.93-7.38,1.93c-1.11.29-2.81,2.46-3.35,3.65l-2.45-1.76-1.96-1.89c3.76-.34,8.13-1.99,11.71-4.06l5.14-2.97c.73-.42,2.24-1.35,2.9-1.9l5.06-4.22-2.21,3.87-2.98,4.07Z"/>
  <path class="cls-8" d="M776.45,230.2l-.22-1.44,4.01.02c-.01.19.45.91.47.98.01.03,1.17-.31,1.51-.42.3-.1-.93-.48-.81-.44l2.55-5.76c.64-1.44-1.93-4.14-2.97-5.53.35.13,1.58-.55,1.82-.66,3.85,2.68,3.2,8.86.21,12.91l10.19,10.88,2.06,1.64c.46.37-.61,2.48-.91,2.65l-9.79-10.69c-2.04-2.22-4.88-3.93-8.1-4.14Z"/>
  <path class="cls-29" d="M231.9,660.26c-5.84,15.59-.21,25.05,13.91,33.07-7.34-.92-12.99-6.83-15.68-12.15-3.66-7.25-3.25-14.76.36-20.96l1.41.05Z"/>
  <polygon class="cls-30" points="635.38 431.58 670.37 431.44 673.59 432.23 669.37 432.58 603.38 432.58 603.41 431.58 635.38 431.58"/>
  <path class="cls-17" d="M668.07,778.01c-11.6-11.15-28.32-10.13-39.83,2.5,5.51-13.53,34.18-16.51,39.83-2.5Z"/>
  <path class="cls-28" d="M722.41,688.52l-1.35.73c-3.48,2.13-7.7,7.13-7.42,12.09l.86,15.08c.27,4.83,4.83,8.02,7.93,12.05-8.58-3.68-10.78-12.57-10.31-21.14.25-4.63.28-8.89,1.57-12.54l.53-1.5,1.32-1.9c1.54-.84,3.86-3.1,4.31-4.8l.33-1.24.58.95c.04.08,1.13-.29,1.48-.36.28-.06-.58-.37-.94-.94,2.85-.87,6.83-1.09,10.31.03,1.46.47,3.36,4.22,2.65,5.53-.63,1.14-2.96,2.85-3.57,2.76l1.87-4.52c.3-.72-1.85-1.88-2.64-1.72l-7.5,1.45Z"/>
  <path class="cls-11" d="M515.1,248.91c.88.33,1.93,1.93,2.29,2.82l2.06,3.88c-4.51,1.01-8.71,1.07-12.9.45l-3.05-1.75,3.98-1.55,7.61-3.85Z"/>
  <path class="cls-28" d="M269.73,564.78l-.17-1.54c9.46-8.42,23.48-11.33,31.12-20.39,5.35-6.35,7.69-13.8,11.89-20.66-1.13,7.93-5.24,15.14-10.08,20.97-4.67,5.63-10.62,8.75-16.75,12.31l-16.01,9.3Z"/>
  <path class="cls-30" d="M609.68,311.23c-.52,4.03-.73,5.7-1.8,8.8l-1.04-12.74c-.2-2.49.57-6.02,1.39-9.27l2.35,6.07c.58,1.5,4.37,1.78,6.32,2.55-2.8.85-6.95,2.53-7.22,4.59Z"/>
  <polygon class="cls-29" points="285.88 823.91 284.63 825.28 282.59 822.82 281.73 822.84 263.54 808.47 256.3 802.24 257.52 800.89 282.74 821.62 283.33 822.05 285.88 823.91"/>
  <path class="cls-28" d="M753.93,657.85c-1.19-1.02-2.85-3.63-3.32-5.39s1.58-4.55,2.56-6.06c.39-.6.9-1.86.73-2.54.09-.31.99-.28,1.3-.38l5.44-1.64c6.39-1.93,13.73-.3,15.62,6.83-4.76-5.66-10.1-7.84-16.39-5.16-5.39,2.29-8.09,8.54-5.94,14.35Z"/>
  <path class="cls-2" d="M294.72,731.21l-1.29.87c-3.07-4.59-7.69-7.48-12.99-9.81-6.5-.24-12.19.63-18.87,1.83,12.95-7.09,24.49-4.54,33.15,7.11Z"/>
  <path class="cls-12" d="M627.18,227.71c1.27,10.86,6.31,20.41,12.62,29.21l.06.77,2.12,1.13c.53.28.28,1.86.03,3.07l-2.7-3.53-.5-.59c-7.19-8.51-11.88-19-13.71-29.94l2.07-.11Z"/>
  <path class="cls-24" d="M411.74,342.33l-1.1,3.08c-3.09-.46-7-1.06-9.95-.59l-.14-1.24,6.18-.39c-5.87-2.35-12.77-2.34-17.9-.12l-.25-1.69c7.84-3.7,15.64-1.63,23.17.95Z"/>
  <path class="cls-17" d="M312.7,560.59l2.15.16c-5.46,2.96-12.78,4.42-18.3,2.78l3.75.05c.98.01,1.56-1.88,1.55-3.24,3.56.08,8.3-2.83,11.85-4.96,6.27-3.76,7.98-10.59,11.25-17.67,1.07,10.6-8.69,19.04-18.32,23.64l6.06-.75Z"/>
  <path class="cls-16" d="M504.45,372.62c.22,3.77.56,10.12-1.23,13.54l-12.67,8.45-1.11-.08c4.85-6.66,14.7-4.81,12.99-22.03l2.02.11Z"/>
  <path class="cls-17" d="M799.37,669.97l1.92-.12c-1.3,10.62-6.5,21.11-16.13,26.71,7.31-8.01,12.92-15.98,14.21-26.58Z"/>
  <path class="cls-13" d="M217.56,504.8c-4.19,3.4-10.87,3.76-16.04-.75-4.3-3.74-4.38-12.18-3.08-17.56.23,7.38.66,14.97,8.18,18.42,2.44,1.12,6.96.3,10.94-.12Z"/>
  <path class="cls-26" d="M518.21,973.76c0,3.31-2.69,6-6,6s-6-2.69-6-6,2.69-6,6-6,6,2.69,6,6ZM511.73,969.4c-2.63.67-4.59,4.16-3.93,5.71.9,2.09,2.85,3.32,4.9,2.89,2.3-.48,4.38-2.61,3.76-5.04-.37-1.45-3.07-3.98-4.74-3.56Z"/>
  <path class="cls-5" d="M366.56,329.01l2,3.84c1.46,2.08,2.68,4.27,3.51,6.53-5.93,1.4-8.16-2.72-9.46-6.63l3.95-3.74Z"/>
  <polygon class="cls-3" points="510.61 905.69 514.3 905.03 513.69 915.12 513.23 924.09 511.81 924.11 511.2 918.17 510.61 905.69"/>
  <path class="cls-13" d="M248.19,503.75l-3.61.27c-3.59-10.07-15.81-11.52-21.03-20.19l14.8,10.22c3.49,2.41,5.77,5.39,9.84,9.71Z"/>
  <path class="cls-17" d="M259.76,597.47l.05-2.17c1.51,3.32,2.98,7.32,5.12,9.93l-1.87,3.35c-4.61-3.66-8.89-9.33-8.84-15.75l5.53,9.66.84-.59-.83-4.43ZM261.3,604.14l-.06-1.26c-.05-1.03-.05-1.01.06,1.26Z"/>
  <path class="cls-27" d="M213.59,793.96c.97.48,3.12,1.64,3.95,2.48l14.47,14.6-1.26,1.31-19.08-19.34,1.93.95Z"/>
  <path class="cls-17" d="M668.4,794.14l-1.26,1.16c-3.54-3.55-7.75-7.69-13.48-6.93-4.91.65-8.79,2.64-13.41,4.96,4.11-5.59,10.4-6.57,17.38-6.25,4.46.2,8.32,3.66,10.77,7.06Z"/>
  <path class="cls-15" d="M383.96,583.3c1.08,7.47,1.25,15.18-1.25,22.25l-2.23.86c2.65-7.2,3.69-15.98.81-23.32l2.67.21Z"/>
  <path class="cls-29" d="M240.79,799.11l-.22,1.31c-2.27-1.17-4.2-4.04-4.03-6.71.16-2.47,1.55-5.12,2.99-7.1l-8.15-8.46.86-.83,9.41,9.1c2.52-.25,5.7-.23,7.04,1.36-3.78-.48-7.62-1.06-9.84,2.02s-.49,6.79,1.95,9.32Z"/>
  <path class="cls-29" d="M349.06,809.21l-1.69,1c-8.66-3.03-16.87-8.57-18.52-18.72,4.22,8.19,11,14.31,20.21,17.72Z"/>
  <path class="cls-20" d="M807.25,433.51l-4.41-.12c.92-2.32,1.69-3.49,3.35-4.75l11.07,2.75c-4.32,1.75-6.88,2.2-10.02,2.12Z"/>
  <path class="cls-6" d="M918.57,541.65c1.32-.74,4.29.39,4.9,2,.52,1.36-.52,3.52-1.94,5.13-.97,1.1-4.08-.27-4.79-1.59-1.05-1.95-.42-4.29,1.83-5.55Z"/>
  <path class="cls-10" d="M101.36,541.64c1.25-.72,4.2.31,4.89,1.92.57,1.31-.39,3.37-1.87,5.16-.92,1.12-3.56-.24-4.68-1.73-1.28-1.69-.72-4,1.65-5.35Z"/>
  <circle class="cls-6" cx="103.04" cy="472.15" r="3.74"/>
  <path class="cls-30" d="M692.58,288.38l-1.31,1.63-20.59-12.58c-1.52-1-3.09-2.36-3.26-3.27l15.27,8.1,9.89,6.12Z"/>
  <path class="cls-13" d="M782.8,216.96c-.24.11-1.47.79-1.82.66-2.42-.9-7.42-.25-8.44,3.08-1.12,3.67.45,6.47,3.68,8.07l.22,1.44c-5.37-.35-7.75-6.08-5.19-10.62,2.19-3.88,6.88-5.87,11.54-2.62Z"/>
  <path class="cls-15" d="M222.15,591.14l-4.31-1.17,2.09-2.58c3.34.18,7.13,2.46,7.84,5.57.89,3.86-1.29,7.65-4.86,7.2,1.55-1.64,3.44-4.46,2.9-5.82-.48-1.19-2.42-2.86-3.66-3.19Z"/>
  <polygon class="cls-20" points="582.44 431.58 581.42 432.59 539.38 432.57 540.5 431.57 582.44 431.58"/>
  <path class="cls-25" d="M373.5,382.88c-7.91,5.99-17.9,1.57-24.61,12.88.44-6.49,6.68-9.04,12.61-10.31l12.01-2.57Z"/>
  <path class="cls-27" d="M211.6,569.8c2.33,1.96,4.89,4.68,6.75,8.09-6.15-.56-9.74-5.65-11.88-10.5,1.46.38,3.98,1.44,5.13,2.41Z"/>
  <path class="cls-28" d="M212.38,443.85l-.95,8.73c-4.45-8.93,2.5-18.11,13.39-20.98-4.13,4.27-10.45,5.26-12.44,12.25Z"/>
  <path class="cls-3" d="M822.77,489.44c-.48-2.62-1.51-5.43-3.07-7.39l3.04-6.2c1.04,2.37,3.35,5.25,5.01,6.24-2.64.86-4.34,4.21-4.99,7.35Z"/>
  <circle class="cls-6" cx="919.82" cy="472.13" r="3.65"/>
  <path class="cls-29" d="M293.43,732.08l1.29-.87c5.61,7.56,8.1,17.1,5.28,26.18.13-9.43-1.48-17.69-6.57-25.31Z"/>
  <path class="cls-8" d="M724.43,412.15l-1.36,3.72c-3.81-3.99-8.5-8.5-4.58-15.06.93,4.52,2.53,9.6,5.94,11.34Z"/>
  <path class="cls-27" d="M301.86,560.33c.01,1.36-.57,3.26-1.55,3.24l-3.75-.05c-3.82-.05-9.14-1.88-12.94-3.6l18.25.41Z"/>
  <path class="cls-17" d="M508.42,361.72l1.28-1.15c2.99,1.93,5.23,7.03,5.17,10.55-.08,4.29-2.16,9.27-6.23,10.69,2.02-3.39,4.57-6.93,4.48-10.46s-2.17-7.26-4.7-9.64Z"/>
  <path class="cls-8" d="M796.37,564.1l-6.4,3.15c-.92.39-2.67,1.56-3.43,2.23s.96,2.98,1.56,3.6c-.8.7-1.59,1.37-1.93,1.01-.45-.48-1.95-2.4-2-3.05-.14-1.92,2.26-5.36,4.01-6.29,2.41-1.29,5.72-1.43,8.18-.64Z"/>
  <path class="cls-3" d="M518.24,900.81l4.34-2.58-4.81-2.72,12.74,1.66c2.11.29,3.78.65,5.25,1.37l-10.45,1.36-7.08.91Z"/>
  <path class="cls-1" d="M489.77,605.36l-2.88.75c-.51.19-.5,2.05-.39,2.64l-1.62-3.39-1.36,8.07-1.18-.07,2-12.04c1.92-1.05,2.34-1.63,2.99-2.98l2.44,7.02Z"/>
  <path class="cls-2" d="M280.94,719.08c-10.07-3.29-17.1-1.67-25.99,5.42,3.85-8.4,18.76-11.17,25.99-5.42Z"/>
  <path class="cls-24" d="M487.47,409.61l-1.85-.87c-.82-4.94.85-10.11,3.83-14.2l1.11.08-2.15,5.86,2.48,7.27-3.28-2.2-.13,4.06Z"/>
  <path class="cls-29" d="M322.79,804.77c-8.47,1.31-17.96-.93-24.31-7.89,8.35,3.98,15.24,7.13,24.31,7.89Z"/>
  <path class="cls-28" d="M360.77,337.54l4.23,3.14-5.48-1.83c-.37,5.27,1.54,10.3,4.27,14.63l-.55,1.17c-1.35-1.12-3.66-4.15-4.04-6.4l-1.83-10.65,3.41-.06Z"/>
  <path class="cls-2" d="M794.33,696.61c4.39-7.32,7.37-13.94,9.62-22.4-.09,7.66-2.25,17.16-9.62,22.4Z"/>
  <path class="cls-8" d="M221.03,763.52c2.17,2.64,4.32,4.22,5.42,7.87-5.14-4.58-9.6-10-13.99-15.34l1.38-1.26,7.19,8.73Z"/>
  <path class="cls-17" d="M259.02,388.94c-8.33,2.33-14.19,7.56-19.08,14.94,1.69-8.59,9.39-12,15.87-16.32l3.22,1.38Z"/>
  <path class="cls-4" d="M510.76,936.34c1.06-.55,4.04.68,4.37,1.72.39,1.21-.59,3.41-1.73,4.7-.84.95-3.58-.44-4.38-1.9-.67-1.24.38-3.81,1.73-4.52Z"/>
  <path class="cls-28" d="M255.65,532.24c7.97-3.61,16.05-5.74,21.21-12.7l5.68-11.05c-.27,12.63-15.25,23.71-26.89,23.74Z"/>
  <polygon class="cls-20" points="670.34 430.58 670.37 431.44 635.38 431.58 636.41 430.59 670.34 430.58"/>
  <path class="cls-16" d="M284.78,390.82l-1.86,1.51c-.64.52-2.52-.24-3.17-.74s-2.23-1.42-3.05-1.64l-7.11-1.96c5.67-.92,10.79.35,15.2,2.83Z"/>
  <path class="cls-3" d="M562.82,893.36c.98-.62,4.16.09,4.57,1.18s-.21,3.9-1.24,4.44-3.29-.22-4.73-1.07c-1.14-.67-.18-3.25,1.41-4.55Z"/>
  <path class="cls-30" d="M395.66,329.76l-2.45-1.15c-.51-.13-1.57.62-1.64,1.03-1.59-.54-3.92-1.79-4.97-2.8l.93-.84c.23-.12.53.2,1.38.97l5.03.36-.16-4.74,5.26,5.09c-.98.98-2.5,2.11-3.38,2.09Z"/>
  <path class="cls-27" d="M259.02,388.94l-3.22-1.38-3.01-1.71,14.27-.13c-1.82,3.61-5.46,2.5-8.05,3.23Z"/>
  <path class="cls-3" d="M511.07,904.52l-2.92-.23c-1.39-.24-4.6,6.35-9.93,7.67l7.34-10.85,5.51,3.41Z"/>
  <path class="cls-3" d="M461.57,897.9c-.54.77-3.35,1.56-4,.91s-1.66-2.1-1.87-3c-.24-1.08,2.74-3.1,3.79-2.73l2.75.97c.76.27.11,2.72-.67,3.85Z"/>
  <path class="cls-13" d="M208.5,474.37c5.91-3.95,10.54-7.49,13.09-13.98.55,7.46-5.96,12.66-13.09,13.98Z"/>
  <path class="cls-3" d="M518.59,894.38l-4.53-1.9c2.09-.74,4.2-2.16,6.17-3.51l7.35-5.04-8.99,10.46Z"/>
  <path class="cls-3" d="M563.67,116.18c.91-.57,3.77,1.39,3.79,2.49s-1.14,3.16-2.04,3.88-3.06-.86-3.72-1.75.4-3.64,1.96-4.62Z"/>
  <path class="cls-16" d="M351.58,329.73c.11.26.51,1.18.88,1.29l1.59.5,5.17,5.04,1.54.98-3.41.06-2.83-3.19-4.84-.59.53-2.58-2.57-.63.09-.97,3.85.08Z"/>
  <path class="cls-17" d="M240.58,800.41l.22-1.31c3.03,1.54,6.41.84,8.56-1.93s.88-5.36-.76-8.98c4.29,1.85,4.17,6.96,1.8,10.06s-6.15,4.06-9.82,2.17Z"/>
  <path class="cls-30" d="M489.31,309.2c-3.95-1.63-4.96-5.27-8.84-5.5l-.95-1.87,3.1-2.2,4.68,6.07,2.58,1.73c.38.26-.48,1.84-.57,1.77Z"/>
  <path class="cls-3" d="M510.68,854.45c1.11-.53,3.84.72,4.47,1.63s-.48,2.81-1.65,3.71c-.84.66-2.84,0-4.02-1.12-.97-.92-.01-3.64,1.2-4.22Z"/>
  <path class="cls-28" d="M400.54,343.58l.14,1.24c-5.89.93-11.46,2.27-17.16,4.73-1.29,1.68-1.97,1.22-1.08-.77,5.94-2.97,12.24-4.83,18.1-5.2Z"/>
  <path class="cls-4" d="M912.71,510.18l-11.87-1.96,13.4-2.67c-.07,1.06-1.53,2.27-2.81,3.34l1.28,1.29Z"/>
  <path class="cls-4" d="M104.82,501.35c-.8-.62-2.74-1.42-3.7-1.17l.47-8.5.71-2.21c.1-.32,1.29,1.32,1.32,1.66l1.2,10.22Z"/>
  <path class="cls-7" d="M257.13,319.3l-3.08-5.11,3.01-4.44,3.18,4.39c-.95.7-2.07,2.45-3.1,5.16Z"/>
  <path class="cls-28" d="M388.57,341.38l.25,1.69c-5.44,2.35-11.62,5.93-17.35,1.83,4.47.43,8.5.54,12.07-1.14l5.02-2.37Z"/>
  <path class="cls-27" d="M188.74,439.6c-.28,5.02.41,9.39,2.65,14.39-5.9-4.32-5.24-11.44-2.92-16.54l.27,2.15Z"/>
  <path class="cls-4" d="M103.87,516.73c.04,3.31.23,6.39-1.07,11.1-1.24-4.17-1.76-7.62-1.63-11.25l2.7.15Z"/>
  <path class="cls-10" d="M457.7,117.07c.8-.52,3.89,0,4.24.89.42,1.07-.18,3.07-1.04,3.83-1.11.98-3.54,1.13-4.03.1-.54-1.13-.14-4.2.82-4.82Z"/>
  <path class="cls-9" d="M922.05,500.89l-1.47-2.34c-.29-.46-1.03,1.95-1.56,2.09,0-3.85.06-7.05,1.52-11.31,1.36,3.96,1.66,7.51,1.51,11.56Z"/>
  <path class="cls-4" d="M499.67,897.78l4.82,2.29-15.25-1.48c3.23-1.92,7.97-1.97,10.43-.8Z"/>
  <path class="cls-5" d="M539.08,114.73l.06-24.68-.06,24.68Z"/>
  <path class="cls-13" d="M295.61,532.67l8.67-9.76,3.39-4.51c-1.57,6.44-6.3,11.05-12.06,14.27Z"/>
  <path class="cls-4" d="M94.9,506.28l-2.15,3.36c-3.56-.05-7.31-.48-11-1.61l13.14-1.75Z"/>
  <path class="cls-16" d="M782.35,673.38l-1.99-1.06c-.15-4.1-2.05-7.67-4.32-12.03,5.23,2.73,6.05,8.15,6.31,13.09Z"/>
  <path class="cls-7" d="M386.6,326.84c-.35-.34-1.03-1.34-1.13-1.71l.93-1.63,3.64,1.25c.84.22,2.01-1.06,2.51-1.74l1.23-.41.16,4.74-5.03-.36c-.86-.76-1.15-1.09-1.38-.97l-.93.84Z"/>
  <path class="cls-4" d="M112.18,509.45l-3.35-5.01c2.86,2.2,7.49,2.48,12.32,3.73-2.31,1.38-6.22,1.54-8.96,1.28Z"/>
  <path class="cls-30" d="M716.95,330.99l-1.92-3.51-.39-5.38c3.67,1.57,4.76,6.63,4.45,6.99l-2.14,1.9Z"/>
  <path class="cls-7" d="M516.43,903.98c.57-.28,1.22-1.29,1.58-1.85l5.73,6.28.53.66,2.43,4.19-3.67-3.36-.46-.49-6.14-5.43Z"/>
  <path class="cls-4" d="M933.16,509.54l-.17-1.47c-.12-.76-5.07-.35-5.14-1.54l12.53,1.52c-2.64,1.46-4.93,1.62-7.22,1.49Z"/>
  <path class="cls-28" d="M262.79,609.37l.85,2.31c-3.32-1.05-7.31-1.68-9.02-4.42l-.51-.82c-2.85-1.27-6.08-4.93-5.44-8.35l5.95,7.96.76.54,7.42,2.78Z"/>
  <path class="cls-16" d="M306.78,390.6c-2.83,1.35-6.13,1.94-9.09,2.05l-.1-1.14,9.09-2.75.11,1.84Z"/>
  <path class="cls-30" d="M722.86,337.23l-1.71,3.48-1.66-4.24-2.22-4.31c-.13-.47,1.39-.84,1.42-.72.03.13.4.99.67,1.6,1.04.97,2.97,2.85,3.49,4.19Z"/>
  <path class="cls-1" d="M603.41,431.58l-.03,1h-8.78c-.49,0-2.69-.74-2.18-1h10.99Z"/>
  <polygon class="cls-9" points="504.73 527.32 503.37 528.57 501.2 525.54 502.36 524.5 504.73 527.32"/>
  <polygon class="cls-28" points="639.52 199.78 637.26 197.98 637.28 196.78 639.27 195.64 639.52 199.78"/>
  <path class="cls-16" d="M293.67,394.78l-.96-.44.52-1.76c.19-.55,3.12.73,2.63,1.03l-2.19,1.18Z"/>
  <path class="cls-27" d="M639.52,199.78l-.26-4.14-1.99,1.14c-.25-.25-.54-.45-.47-.7l.36-1.29,3.6,2.08c.8.62-.48,3.51-1.25,2.9Z"/>
  <path class="cls-17" d="M505.98,383.41c.45-.14,2.69-.68,2.5-.46l-1.56,1.71c-.29.32-1.4-1.1-.94-1.25Z"/>
  <path class="cls-7" d="M395.66,329.76l-4.09-.12c.06-.42,1.13-1.16,1.64-1.03l2.45,1.15Z"/>
  <path class="cls-29" d="M242.47,570.53l-.66-2.39c-.13-.48.47-1.43.68-1.84l-.02,4.23Z"/>
  <path class="cls-16" d="M347.62,412.53l-4.06.98,4.06-.98Z"/>
  <path class="cls-4" d="M932,509.47l-3.94.91c.84-.68,2.84-.98,3.94-.91Z"/>
  <path class="cls-17" d="M590.46,758.24l.96-3.21c-.04.99-.43,2.97-.96,3.21Z"/>
  <path class="cls-16" d="M289.95,390.48c-.18.59-1.22,1.09-1.73,1.09s-1.55-.5-1.49-.88l3.22-.21Z"/>
  <polygon class="cls-27" points="192.47 455.04 193.15 455.04 193.8 455.06 193.15 455.07 192.47 455.07 191.82 455.06 192.47 455.04"/>
  <path class="cls-24" d="M720.17,685.34l1.13-.34c.36.57,1.22.88.94.94-.36.08-1.44.44-1.48.36l-.58-.95Z"/>
  <path class="cls-24" d="M721.07,689.25l1.35-.73-1.35.73Z"/>
  <path class="cls-1" d="M165.83,290.91l-1.38-1.58,1.38,1.58Z"/>
  <rect class="cls-1" x="166.98" y="287.87" width=".71" height=".71" transform="translate(-154.79 202.74) rotate(-45)"/>
  <path class="cls-9" d="M796.46,808.91c-.3-.3-1.21-1.21-1.2-1.2.03.04.8-.72.77-.7l.42,1.9Z"/>
  <path class="cls-7" d="M473.45,303.77l-.87-1.09.87,1.09Z"/>
  <path class="cls-30" d="M669.34,433.59h9.99s11.99,0,11.99,0h7.03s-.05.91-.05.91l-17.58.68-124.29.65-19.38.95c-.52.03-2.23,1.04-2.64,1.16-.55.17-1.16-.54-2.13-1.41l-33.97.13,17.36,6.84c2.88,1.14,5.96,1.8,8.74,1.31,8.36,4.03,17.46,6.2,26.54,3.82l4.55,2.94c11.15-.33,21.32,1.15,32.01,4.06l8.86-.21c5.34-.13,10.8-3.58,16.11-3.6l31.7-.1,7.22,1.8,34.4-.42,13-1.01c12.18-.95,12.22-11.27,22.09-16.35l.24,1.82c-7.42,5.1-11.05,14.84-17.17,15.48l-19.96,2.08-31.35.11-11.4-1.46c-9.13.09-19.55-1.51-28.21.47-12.62,2.88-23.07,4.73-35.87,1.53-8.15-2.04-16.84-1.89-25.39-3.29l-3.65,9.91c-.78-3.7.32-5.94,1.41-10.88l-5.75,5.33,1.78-4.88-14.51-1.9c-.8-.1-3.23-1.03-3.78-.45l-3.03,3.21c-.24-.3-.6-1.8-.29-2.21l1.99-2.65-3.43-.39-1.94-.22-7.41-2.52c-13.62-7.58-30.31-8.88-43.61-1.4l-1.09-1.3-12.85-2.27c-.84-.15-2.88-1.4-3-1.54l.47-1.63,1.36-.08c7.28,4.05,17.13,4.66,24.9-.62l3.12.65,13.48.7,1.8-2.4,4.78-.35c2.86.92,7.14.92,10-.02h22.98s1-.01,1-.01l45.96.02,16.55-.59,70.36-.42Z"/>
  <path class="cls-2" d="M722.38,476.61l-.1,1.09-14.25-2.07-9.7.86-26.08,5.03-38.85,7.27.04-1.41,10.02-1.75,50.79-10.11c6.4-1.27,13.57-1.5,19.55-.43l8.58,1.52Z"/>
  <path class="cls-17" d="M732.95,489.23l-2.09,1.13c-5.93,5-4.27,15.08,1.45,20.17l2.99,8.83-3.62.13.84-5.33-7.92-7.49c-.79-1.13-1.28-1.31-1.2.71l-1.28.3c-.05-.24.29-1.1.33-1.2.38-1.23.98-3.68.77-4.97l2.96,2.94c-2.04-7.83,1.15-15.8,7.98-19.82l-1.23,2.87c-.16.37-.32,1.51.02,1.71Z"/>
  <polygon class="cls-27" points="698.35 433.59 691.32 433.58 691.34 431.62 722.24 431.7 720.71 433.33 698.35 433.59"/>
  <path class="cls-30" d="M735.11,512.37l2.57,6.91c.54,1.44.59,3.7-.26,6.03l-.89-3.77-4.86-2.05,3.62-.13-2.99-8.83c-.54-1.6-.84-4.65.09-5.93l2.72,7.76Z"/>
  <path class="cls-15" d="M728.2,567.47l6.07-10.25,1.89.77s-.6,1.36-.73,1.61l-5.47,10.21-1.76-2.35Z"/>
  <path class="cls-15" d="M723.21,501.52c.2,1.28-.39,3.74-.77,4.97l-2.4-8.84,2.29-2.06.88,5.93Z"/>
  <path class="cls-20" d="M691.34,431.62l-.02,1.96h-11.99c3.69-1.37,8.02-1.97,12-1.96Z"/>
  <path class="cls-17" d="M735.18,408.93c-2.7-.9-4.54-3.56-4.9-6.27l4.22,3.57,2.28,1.49c.25.17.38.57.08.63l-1.67.58Z"/>
  <rect class="cls-27" x="748.77" y="431.58" width="13.49" height="1"/>
  <polygon class="cls-27" points="746.33 432.37 740.77 432.64 740.22 431.79 745.78 431.52 746.33 432.37"/>
  <path class="cls-27" d="M726.55,432.23c1.06.1.67.06-.43-.04-2.33-.22-2.16-.2.43.04Z"/>
  <rect class="cls-27" x="763.4" y="430.73" width=".71" height=".71" transform="translate(-81.12 666.32) rotate(-45)"/>
  <path class="cls-9" d="M421.66,380.99c1.95,7.53,7.33,12.52,14.57,16.06,9.79,4.78,19.69,9.48,30.28,9.68l1.17,1.21-9.11.87-13.87,16.32-1.52.16,7.41-9.51,6.55-7.73-7.36-2.84-17.48-8.2c-7.06-3.31-11.58-9.1-12.63-16.36l2,.35Z"/>
  <path class="cls-13" d="M726.73,320.38c3.09,4.48,7.61,11.55,9.3,16.54l-2.59,1.59c-1.99-6.29-5.47-13.01-10.43-17.81.39-.71,1.12-1.44,1.5-1.2l2.22.88Z"/>
  <path class="cls-20" d="M626.33,670.42l-.05,10.84-1.18,5.01c-.74-6.39-1.09-13.52-.04-19.91l1.27,4.06Z"/>
  <path class="cls-12" d="M350.22,331.24l-2.22,2.41c-.27.36.23.96,1.15,2.3l.54-2.12,4.84.59-5.88,3.41-6.32.89c.61-3.86,2.67-6.09,5.32-8.09l2.57.63Z"/>
  <path class="cls-7" d="M468.52,310.64l-.79.37c-.73-.63-2.75-2.28-1.98-2.91l2.44-2c.55-.45,2.96.81,2.55,1.36l-2.22,3.18Z"/>
  <path class="cls-9" d="M437.59,428.54l-1.17,1.14c-3.61-3.57-9.53-4.37-14.32-6.63-8.42-3.97-15.92-6.6-25.72-5.34l-7.72-1.03c-.07-.46,1.64-1.27,2.23-1.24l13.53.79c5.1.3,8.46.62,13.95,2.62.72-5.39-1.58-11.63-4.9-16.01l1.14-2.35c4.88,5.43,5.92,12.88,6.33,20.1,6.52,1.97,12.18,4.39,16.64,7.95Z"/>
  <path class="cls-23" d="M346.7,424.52c5.49,3.01-5.62,9.6.83,15.03l3.26,1.01-.62,2.06c-.18.54-1.79.85-2.4.93l-5.86.79-1.04-3.53c.86-1,1.35-2.32,1.45-3.61l.45-5.84-1.25-6.66,1.13.09,4.04-.26Z"/>
  <path class="cls-23" d="M341.25,421.64l.28,3.05c-1.89-.3-4.92,2.57-4.94,4.07l3.16,2.67c-2.03.36-4.3-.32-4.78-1.58-.43-1.13.27-3.75,1.2-4.53l4.52-3.78.56.1Z"/>
  <path class="cls-16" d="M344.1,420.24c-.91-.93-1.94-2.62-1.52-2.99l2.16-1.91-.64,4.9Z"/>
  <path class="cls-9" d="M548.43,489.35l-.06,1.38c-1.17.95-3.42-.08-5.88-.35l-11.9-1.29c-4.6-.5-8.93-.1-13.12,1.17-2.63-2.61-6.28-4.16-10.98-4.09-6.95.11-14.3,2.13-14.85,10.73-.25,3.9,3.64,8.41,5.12,12.25l2.77,7.16-.88.21-1.39.18-6.89-14.89c-6.36-12.24-1.42-25.45,9.43-31.98-6.44,7.62-11.63,14.75-9.93,23.8,3.1-8.11,11.05-10.65,18.64-9.34l5.89,1.02.32-5.77h1.52s.43,6.54.43,6.54c.16,1.4,3.51.75,5.27.92l12.68,1.19,13.82,1.17Z"/>
  <polygon class="cls-2" points="497.26 516.69 498.65 516.51 497.76 519.53 455.45 462.42 456.51 461.29 489.85 507.11 497.26 516.69"/>
  <path class="cls-24" d="M454.57,502.58l-.69,6.15c-1.88,16.81-6.13,32.67-14.83,47.16l-8.59,14.31-6.47,12.24-.94-2.89-13.82,13.49-7.47,6.13-1.19-1.6,8.68-7.45c9.83-8.44,17.27-18.02,24.18-28.83,10.33-16.17,16.77-33.48,18.35-52.81l.81-9.95,1.98,4.05Z"/>
  <path class="cls-13" d="M329.64,654.2c.55.41.74.73.62,1.04l-.65,1.05-10.09,2.66-25.76,4.33-2.28-.63c.95-.88,3.92-1.99,5.29-2.2l20.9-3.34,11.98-2.91Z"/>
  <path class="cls-16" d="M353.92,311.16l2.12.48c.53.18.6,1.54.55,2.05l-.84,4.39,6.93-4.95c.86,7.66-4.89,15.47-3.56,15.5l2.59.5c-2.49.89-5.92-.2-8.83-1.42l-2.61-.23.34-3.01c-1.39-6.21-1.62-11.84,3.31-13.32Z"/>
  <path class="cls-6" d="M491.23,777.27l.33,2.01c-1.8.64-3.31,3.36-4.02,5.94l-1.72-.6c-.35-.16-.37-2.03-.33-2.45l1.16-11.89,4.09-3.96.48,8.4v2.55Z"/>
  <path class="cls-3" d="M491.56,779.28c-4.85,10.38-5.16,22.2-.92,32.86-.89.22-2.91-2.05-3.12-3.24-1.14-6.62-1.84-16.96.01-23.68.71-2.58,2.22-5.31,4.02-5.94Z"/>
  <polygon class="cls-3" points="492.72 816.1 491.47 816.23 491.55 815.14 492.72 816.1"/>
  <path class="cls-2" d="M323.55,322.75l-.18-1,4.25-1.31c3.28-1.3,8.61-1.3,11.2.64-3.37-.04-6.13-.18-9.31.43-3.4.65-4.83,4.16-5.45,7.15l-.52-5.9Z"/>
  <path class="cls-2" d="M316.69,335.67l-.28-2.9,1.31.54c.45.18,1.48,1.72,1.01,1.86l-2.04.5Z"/>
  <path class="cls-3" d="M491.43,814.26l-.82-1.13.82,1.13Z"/>
  <path class="cls-11" d="M494.38,773.24l.22,1.1-2.02,1.97-1.36.96v-2.55s-.49-8.4-.49-8.4c2.04-1.97,5.76-2.59,9.64-2.63l-5.99,9.55Z"/>
  <polygon class="cls-14" points="582.44 433.59 582.44 434.6 536.48 434.57 537.51 433.56 582.44 433.59"/>
  <polygon class="cls-14" points="529.48 432.58 530.44 432.69 535.48 434.57 512.5 434.59 502.5 434.61 497.72 434.96 495.43 433.73 527.45 433.35 528.38 432.47 529.48 432.58"/>
  <path class="cls-13" d="M780.24,228.78l1.17.12c-.12-.05,1.11.34.81.44-.34.11-1.5.46-1.51.42-.02-.07-.48-.79-.47-.98Z"/>
  <polygon class="cls-12" points="352.88 327.7 351.58 329.73 347.73 329.65 346.52 329.53 350.27 327.48 352.88 327.7"/>
  <path class="cls-13" d="M482.34,613.36l1.18.07c-2.76,16.31-6.11,32.93-12.76,47.73,4.45-16.9,8.94-31.93,11.58-47.79Z"/>
  <path class="cls-2" d="M349.69,333.83l-.54,2.12c-.92-1.34-1.42-1.94-1.15-2.3l2.22-2.41-.53,2.58Z"/>
  <path class="cls-23" d="M708.66,577.6l-1.7-1.14c8.99-12.6,15.35-27.09,17.11-42.97l.52-17.8c.86-1.35,1.38-3.32.88-5.24l5.98,12.97,2.03,4.92-4.13-3.19c.92,8.28,1.04,13.49.16,21.67l4.33-5.5-2.49-6.81,5.32-10.03c.88,6.37.49,10.1.03,16.21l2.34-5.19c.57,1.96-.13,5.94-1.82,7.61l-7.86,7.72c-1.67,1.64-2.38,4.83-1.75,7.77l4.54-5.17c.29-.33,1.83-.53,1.75-.1l-.41,2.1-4.64,4.07c-2.54,2.22-2.4,6.16-3.55,10.73-1.38-3.16-.74-6.15-.34-10.68l-9.57,16.9-8.46,11.57c-4,5.47-8.93,10.12-14.81,13.52,12.57-12.29,22.56-24.77,29.54-40.74,4.18-9.58,8.38-20.26,5.53-31.22-2.07,18.46-8.41,33.88-18.52,48.04Z"/>
  <path class="cls-5" d="M708.66,577.6c-21.48,30.07-50.7,40.12-66.37,57.54-9.2,10.23-14.36,22.15-15.97,35.28l-1.27-4.06c2.75-16.71,11.47-31.74,25.54-41.73l24-17.05c12.36-8.78,23.78-19.09,32.36-31.12l1.7,1.14Z"/>
  <path class="cls-9" d="M633.44,487.38l-.04,1.41c-8.36,1.56-16.94.24-25.99-.28l-18.98-1.08-.02-2.03c7.38-.36,14.36,1.57,22.09,1.67l22.93.3Z"/>
  <path class="cls-25" d="M588.42,485.41l.02,2.03-11.16.75-24.48.37c-1.38.02-3.56,1.46-4.43,2.17l.06-1.38c2.28-5.14,7.41-.79,22.13-2.43l10.02-1.12,7.84-.38Z"/>
  <path class="cls-15" d="M725.48,510.45c.5,1.92-.02,3.89-.88,5.24l-2.49-8,1.28-.3,2.09,3.06Z"/>
  <path class="cls-30" d="M450.37,438.12l3.3,10.79-3.74,3.35,2.19,1.85c.32.27,1.15-.27,1.53-.38l2.86,7.57-1.05,1.13c-.22-.45-.59-1.52-1-1.86l-2.97-2.06-2.86-5.84-1.24,2.82-.8.07-.04-4.87c0-.65-1.56-2.34-1.88-1.83l-1.07,1.72-1.5.06.56-2.01c.27.08,1.2-1.1.94-1.52l-.95-1.55-1.63-2.93,3.04-1.01c.75-.25-.37-2.56-.47-3.44l4.4.11.08-1.4c.03-.46,2.21-1.17,2.23-.71l.08,1.97Z"/>
  <path class="cls-17" d="M522.5,447.58l-6.24,19.73c-.95-7.35,1.39-13.83,4.3-19.95l1.94.22Z"/>
  <path class="cls-23" d="M469.54,443.45l-4.01,1.25c.77-.62,2.11-1.78,2.92-2.56l1.09,1.3Z"/>
  <path class="cls-23" d="M465.53,444.7c-4.5,6.47-13.91,3.67-11.88,9.02-.38.11-1.21.65-1.53.38l-2.19-1.85,3.74-3.35,11.86-4.21Z"/>
  <path class="cls-15" d="M480.28,432.6l2.23,1.38c-1.11.75-1.91,1.22-1.58,1.44l1.53,1.25-3.12-.65-21.27-.53c-.73-.02-3.12.85-2.13,1.07l-1.51.07-1.36.08.02-1.46c.01-.97-4.28-.43-4.41-1.23l-.06-1.3,31.66-.13Z"/>
  <path class="cls-1" d="M527.45,433.35l-32.02.38,2.29,1.23-1.8,2.4-13.48-.7-1.53-1.25c-.33-.22.47-.69,1.58-1.44l-2.23-1.38,47.18.76Z"/>
  <path class="cls-12" d="M448.61,432.72l.06,1.3c.14.8,4.43.26,4.41,1.23l-.02,1.46-.47,1.63-2.22-.22-.08-1.97c-.02-.45-2.2.26-2.23.71l-.08,1.4-4.4-.11-1.05.46,1.28-3.12c.6.06,2.2.12,2.47-.46l1.18-2.56,1.15.26Z"/>
  <path class="cls-1" d="M512.5,434.59c-2.86.95-7.13.95-10,.02l10-.02Z"/>
  <path class="cls-5" d="M469.45,355.34c-5.47-.6-11.32-2.02-13.96-6.25l10.63,2.96,1.47-7.42,1.86,10.71Z"/>
  <path class="cls-18" d="M475.43,340.09l-13.94-4.51c4.95-1.74,11.5-2.13,13.94,4.51Z"/>
  <path class="cls-30" d="M442.28,412.57c-1.1,4.08-1.14,9.11.9,12.71l1.52-.16c1.81,2.4,2.98,4.7,2.75,7.34l-1.18,2.56c-.27.58-1.87.52-2.47.46l-3.05-2.27c-1.5-.92-3.16-2.38-4.34-3.54l1.17-1.14c.12.15,2.41,1.64,2.58.99.19-.74.55-2.32.46-2.97l-1.09-3.96v-5.05s1.12-5.83,1.12-5.83l-.19-1.25,1.81,2.11Z"/>
  <path class="cls-28" d="M514.4,426.34c-7.24-1.56-12.73-2.61-18.94-.84l-8.05.21c-3.89.1-7.84-.89-10.96-2.93,4.29.37,9.09,2.01,12.85,1.64l10.31-1c5.41-.52,10.65.11,14.78,2.92Z"/>
  <path class="cls-1" d="M529.48,432.58l-1.11-.12,1.11.12Z"/>
  <path class="cls-23" d="M442.53,438.61l1.05-.46c.11.89,1.22,3.2.47,3.44l-3.04,1.01c-.33.11-1.1.04-1.45.03l-1.24-.25c.77-1.84-.41-3.9-2.36-5.12-4.51-2.83-8.67-5.48-13.56-5.48,3.77,2.75,7.41,4.4,8.99,8.25.64,1.54-1.35,5.24-2.8,6.02-1.98,1.06-4.99,1.41-6.87.88l-2.08-.37c-.14-6.36-6.05-6.5-7.79-10.97l12.37,6.14c.83.41,3.47-.53,4.09-1.08s.08-2.81-.74-3.38l-13.76-9.56c6.22.98,11.65,1.91,16.36,4.39l12.37,6.52Z"/>
  <path class="cls-2" d="M340.87,440.8l1.04,3.53c-1.23.17-3.64-.5-5.44-.96-15.97,3.02-30.91,8-46.09,13.71-7.54,2.83-15.36,4.18-22.81,3,10.01-1.5,18.75-3.13,27.8-6.83,14.9-6.1,30.03-10.17,45.5-12.46Z"/>
  <path class="cls-17" d="M443.59,450.55c-4.05,12.54-9.51,24.56-17.09,35.91l-16.87,25.26c4.01-9.09,9.31-16.41,14.6-24.76,7.28-11.48,13.28-24.23,17.87-36.35l1.5-.06Z"/>
  <path class="cls-25" d="M439.56,442.62c-6.18,16.96-16.26,32.34-28.93,45.96l-13.98,15.03-22.91,27.45c2.57-7.91,8.27-13.35,13.28-19.23l5-5.86,14.24-14.9c13.77-14.41,24.44-30.51,32.06-48.7l1.24.25Z"/>
  <path class="cls-17" d="M367.47,439.78l-.07-1.57c.64.15,1.93-.71,3.12-1.7,8.4,6.38,18.56,9.79,29.57,11.57l9.37,6.27c-.76.25-3.58-.19-4.61-.96-3.42-2.58-7.17-3.64-11.23-4.82l-17.43-5.08c-3.17-.92-6.45-1.71-8.73-3.7Z"/>
  <polygon class="cls-2" points="454.45 460.56 454.18 471.8 454.57 502.58 452.58 498.53 452.2 470.66 451.48 458.5 454.45 460.56"/>
  <path class="cls-29" d="M387.72,580.6l5.48-30.57c1.69-6.2,3.51-12.16,6.33-17.72-2.77,11.02-5.83,20.87-7.15,31.9l-4.65,16.39Z"/>
  <path class="cls-13" d="M355.93,478.66l-2.46-4.09,3.22,2.75c.45.62.91,1.28,1.06,1.37,5.62,3.34,14.42,11.42,15.71,20.44-4.3-7.01-9.9-13.78-16.52-19.78l-1.01-.68Z"/>
  <path class="cls-24" d="M419.64,446.56l2.08.37-2.32,3.29c-.63.91-3.76-.16-5.06-.65l-2.87,3.42c-1.06-4.29-2.1-6.23-4.75-9.57l8.14,3.66c.76.34,2.2,2.83,2.66,2.23l2.13-2.75Z"/>
  <path class="cls-28" d="M446.58,455.54l.8-.07c-1.13,9.3-3.23,18.68-7.71,27.2l6.91-27.14Z"/>
  <path class="cls-2" d="M367.41,438.21l.07,1.57-5.77-1.29-10.91,2.07-3.26-1.01c5.44-2.19,14.9-2.51,19.87-1.34Z"/>
  <path class="cls-28" d="M382.7,534.58c1.04-6.93,4.16-13.2,9.06-18.21l-9.06,18.21Z"/>
  <path class="cls-17" d="M442.65,448.6v-3.08s.94,1.55.94,1.55c.26.42-.67,1.6-.94,1.52Z"/>
  <path class="cls-2" d="M335.68,309.22c-5.42-.87-8.66,2.99-11.61,7.74-.29-5.32,4.17-8.7,8.85-9.71,7.02-1.52,13.04,4.28,14.6,12.57-3.5-4.5-5.44-9.58-11.83-10.6Z"/>
  <path class="cls-27" d="M350.61,324.47l-.34,3.01-3.74,2.05c-2.34-.22-6.64-3.15-5.29-6.47.64-1.59,4.67-1.1,5.97-.25l3.41,1.66Z"/>
  <path class="cls-17" d="M329.61,656.3l.65-1.05c.12-.31-.06-.63-.62-1.04l14.41-4.34,22.06-8.05c6.98-2.54,14.39-5.99,19.61-11.26l16.91-17.07c8.45-8.53,13.12-19.42,19.99-29.16-6.32,14.48-15.33,27.55-26.38,38.61l-8.4,8.4c17.19-6.68,33.61-15.88,47.91-28.69,10.15-9.09,17.47-19.66,25.93-30.27-6.51,13.22-16.71,23.8-27.39,33.77-12.17,11.36-26.78,18.09-41.61,25.44-20.65,10.22-41.09,18.91-63.07,24.7Z"/>
  <path class="cls-24" d="M455.74,619.01l-8.18,10.41-16.49,16.46-22.36,17.63-20.02,12.53-1.11-1.77c15.49-7.67,29.76-18.11,42.69-30.14l8.29-7.71,8.15-8.89,7.78-9.28,1.23.76Z"/>
  <path class="cls-23" d="M426.62,680.34c-.12.85-.96,2.67-1.87,3.42l-28.85,23.71-4.99,4.16-.46-1.53,7.42-6.56,23.97-19.99,4.63-4.3.16,1.09Z"/>
  <path class="cls-28" d="M363.73,686.09l.03,1.83c-11.15,4.99-19.72,13.02-30.2,19.48,9.04-8.65,19.21-15.88,30.17-21.31Z"/>
  <polygon class="cls-17" points="388.7 676.03 372.34 684.08 363.76 687.91 363.73 686.09 387.6 674.26 388.7 676.03"/>
  <path class="cls-17" d="M455.74,619.01l-1.23-.76,11.57-16.31,8.59-12.68c-3.74,8.96-8.47,16.53-14.36,23.97l-4.57,5.78Z"/>
  <path class="cls-2" d="M332.7,648.26c1.81-4.33,4.2-8.08,8.3-11.01-1.84,4.38-4.45,7.52-8.3,11.01Z"/>
  <rect class="cls-28" x="373.48" y="721.59" width="11.3" height="1.41" transform="translate(-399.69 479.64) rotate(-45)"/>
  <path class="cls-28" d="M390.9,711.64c-2.27,1.9-4.07,4.4-7.4,5.82l6.94-7.35.46,1.53Z"/>
  <path class="cls-7" d="M426.62,680.34l-.16-1.09.75-.94c.24-.3,1.38.22,1.43.6s-.17,1.36-.55,1.38l-1.47.05Z"/>
  <path class="cls-2" d="M401.75,599.17c-7.46,6.12-15.23,11.63-24.41,15.97l-12.31,5.82c-7.84,3.71-13.88,9.67-21.7,14.56,2.41-3.49,5.25-6.14,8.34-9.04-21.95,5.04-35.13-4.31-53.42,13.53-6.2,6.05-9.6,14.34-6.76,22.64l2.28.63c-12.03,4.07-23.25,9.89-30.06,20.47l-1.07-1.6c5.83-9.45,15.7-15.39,26.41-19.52-3.74-15.29,10.61-30.33,23.63-34.25,16.69-5.03,29.51,1.65,46.35-6.71l19.38-9.61,2.09-5.67,2.23-.86-1.06,4.98,18.9-12.94,1.19,1.6Z"/>
  <path class="cls-8" d="M414.63,400.49l-1.14,2.35-6.36-8.42,3.49-1.5c1.43,3.2,2.45,5.83,4.01,7.57Z"/>
  <path class="cls-9" d="M442.28,412.57l-1.81-2.11c1.07-1.78,2.2-3.53,3.86-5.52l-2.05,7.63Z"/>
  <path class="cls-9" d="M439.55,417.55l1.11-5.83-1.11,5.83Z"/>
  <path class="cls-9" d="M440.63,426.56l-1.09-3.96,1.09,3.96Z"/>
  <path class="cls-25" d="M409.87,280.11c-15.44,2.55-27.09,9.77-36.05,23.85,4.91-14.68,19.93-24.27,36.05-23.85Z"/>
  <path class="cls-24" d="M431.38,286.25c-13.41,1.48-24.87,6.57-37.63,14.8,9.19-9.87,22.82-16.26,37.63-14.8Z"/>
  <path class="cls-18" d="M492.59,776.31l2.02-1.97-2.02,1.97Z"/>
  <path class="cls-4" d="M777.62,790.4c.7-.63,3.4.49,3.59,1.45.24,1.27.03,4.2-1.1,4.51s-4.07-.6-4.42-1.72.8-3.22,1.93-4.24Z"/>
  <circle class="cls-1" cx="244.76" cy="793.49" r="2.99"/>
  <path class="cls-12" d="M479.33,436.02l-23.4.54c-.99-.22,1.4-1.09,2.13-1.07l21.27.53Z"/>
</svg>