<svg xmlns="http://www.w3.org/2000/svg" viewBox="0 0 1024 1024">
  <path d="M328.71,416.65l1.98,2-32.89-.15-10.1-1.2c-12.16-1.45-25.26.07-34.9,7.47-5.97,4.58-12.22,7.71-19.48,10.56-2.12,3.92-2.59,11.85-.26,15.86,5.15,3.15,10.09,8.05,15.46,10.45,17.87,7.97,36.96,11.22,56.02,14.99l20.45,2.45c7.71.92,15.07,2.75,19.16,10.12l12.79,23.03c4.24,7.63,6.25,16.82,9.11,25.02l3.83-.1c-1.59,2.19-3.84,4.51-3.9,6.4-.07,2.06,3.38,5.14,4.9,6.68l13.1,33.08-2.67-.21-9.65-24.53c-1.76-4.46-2.66-8.38-6.92-11.44-1.7-1.22-.67-5.79-.34-7.83-3.37-15.51-11.15-29.8-18.48-43.75-4.33-8.23-9.86-13.97-19.72-14.71-20.87-1.55-41.15-5.28-61.4-11.21-6.36-1.86-13.18-2.94-18.52-6.69l-9.25-6.48c-6.38-4.47-9.35-10.34-7.34-18s8.38-5.21,18.28-12.74c18.27-13.91,28.4-10,51.16-9.59l29.6.53Z" fill="#95826a"/>
  <path d="M625.09,686.27l1.18-5.01c1.54,7.58,3.29,14.8,7.47,22.38.64-1.94.39-4.64-.55-6.21l1.59-.97c2.97-1.2,5.05-5.64,4.8-10.25,2.87,1.51,3.59,6.09,2.66,9.22-.65,2.18-2.91,4.53-5.49,6.41-.11,8.31-.58,17.3-7.99,19.18-1.04.26-2.68-1.41-2.41-2.11l.98-2.51c3.18-8.13.48-15.99-4.36-22.69l-42.33-58.62-77.27-106.51,1.36-1.25,121.32,167.21-.96-8.26Z" fill="#a89577"/>
  <path d="M352.8,363.46c-.25,1.7-2.14,3.49-3.96,4.23l-10.58,4.3c5.82,1.95,10.36-.79,15.77-3.06-4.29,6.27-11.97,5.64-18.19,4.78-20.59-2.82-23.28,14.13-29.06,16.88l-.11-1.84c6.76-8.41,8.39-15.51,22.18-17.19l-2.34-2.26,1.77-2.69c8.56-.94,15.02-5.83,21.39-12.21-.11,5.34-2.51,8.8-4.78,13.43l7.91-4.39ZM328.54,369.22c7.61,2.68,16.03-.93,18.35-8.75-6.07,4.09-11.28,6.59-18.35,8.75Z" fill="#a29279"/>
  <path d="M357.36,337.6l-1.56,4.29c-2.84,7.11.08,15.85,7.21,17.93l.32-.71-.09-4.46.55-1.17,13.13,7.95-8.94-1.39c8.9,9.9,15.16,3.85,25.77-.64-3.31,5.78-9.81,6.51-16.35,7.56,6.56,3.92,12.39,1.35,20.25-2.77-7.38,10.31-19.68,6.76-28.94.55-4.24-2.84-11.02-2.19-13.25-8.48l-.9.97c.63,6.85,4.78,13.39,10.41,18.16,6.92,5.86,14.7,2.83,22.85-.82-3.42,3.11-7.82,5.37-12.79,6.71-3.42-.15-8.94-3.04-12.32-4.5-8.98,1.43-15.96,6.61-22.44,12.41-9.43,8.43-22.74,9.22-35.9,7.67,2.58,1.57,7.1,4.41,9.65,4.8l13.71,2.12.47.89,19.21-.36c7.66-.14,14.04-4.01,22.01-6.79-7.18,7-21.79,9.64-33.82,8.47l-7.9-.77-.53-.45-7.82-.89,6.91,4.62.13,1.44-32.72-15.14,2.19-1.18c.49-.3-2.44-1.57-2.63-1.03l-.52,1.76-21.06-.58,4.04-2.17,4.06.02c.65.5,2.53,1.25,3.17.74l1.86-1.51,1.94-.13c-.06.38.98.88,1.49.88s1.55-.5,1.73-1.09c1.97.81,5.61,1.65,7.64,1.03l.1,1.14c.11.84,1.92,2.1,2.91,2.21,16.17,1.86,29.25,1.35,41.52-9.8,5.65-5.14,12.71-7.88,19.39-9.65l-8.7-11.95-2.39-19.24,1.94-3.46c.52-.94-1.67-2.83-2.63-3.15l-1.08.21,5.88-3.41,2.83,3.19ZM354.12,356.44l.04-1.47-.04,1.47ZM366.3,358.13l-.65.02.65.02h.67l.65-.02-.65-.02h-.67ZM365.34,360.14l-1.48.04,1.48-.04Z" fill="#a29279"/>
  <path d="M456.7,300.89c-4.26,4.25-8.22,8.9-11.55,14.35-4.82,7.91-11.8,12.65-20.01,17.1,14.22-.29,25.46-8.09,32.13-19.98l2.4-1.38-4.48,7.9c6.67-.78,4.62-10.86,12.18-15.07.67.03,3.49,1.42,3.65.58l.61-3.86.95,2.15.87,1.09,1.18,2.09-2.13,2.77-3.98,2.02,2.22-3.18c.41-.55-2-1.82-2.55-1.36l-2.44,2c-.77.63,1.25,2.28,1.98,2.91l-5.15,4.95c-2.15,10.43-9.83,17.01-18.83,21.99-3.17,5.4-6.46,11.11-10.99,15.29l-2.43-.84,10.12-11.03c-4.53-2.31-8.56,5.22-15.84,8.13l-1.33-1.02c1.22-.45,3.07-1.82,4.41-2.72l-9.18.81-7.88-1.16,1.1-3.08c13.06,4.48,28.54-1.42,34.65-13.89-9.57,5.15-18.33,6.17-28.11,5.67l-12.69-.65.56-.76c12.86.66,13.88.22,23.32-5.07,13.78-7.72,16.19-20.92,26.06-27.24l1.16.5ZM445.4,334.3c7.04-2.31,10.86-7.48,13.36-13.76-6.25,3.2-10.12,8.26-13.36,13.76Z" fill="#beaa89"/>
  <path d="M489.77,605.36l3.2,7.61c7.73,14.49,19.66,25.13,33.63,33.27,19.33,11.26,39.71,26.13,38.6,50.06l-1.86,12.73,13.8,11.57c12.11,10.16,19.22,25.62,14.46,40.74l-1.21-1.02.07-2.07c.53-.24.92-2.22.96-3.21.53-11.72-5.62-24.46-15.18-32.41l-14.34-11.93-1.77,7.54-.49,2.12-1.52-2.8c-5.16,4.47-10.78,6.29-16.53,8.11l-1.15-1.59c5.35-2.57,12.76-3.72,16.68-9.16,4.32-5.98,6.37-14.77,5.85-21.97-1.96-27.06-26.69-36.6-40.82-47.18l-15.43-11.56c-8.6-7.89-14.57-16.98-18.07-27.91.28,6.04,1.44,11.87,3.28,17.02l-2.63.13-2.78-14.7c-.11-.58-.12-2.44.39-2.64l2.88-.75Z" fill="#b09e7f"/>
  <path d="M403.71,380.64l1.96,1.89-1.5.2c-.37.06-.6,1.34-.64,1.79l-.72,8.03c-.55,6.16-.76,11.77-2.62,17.3-5.92,2.58.11-3.09.8-16.06l.54-10.13c-4.36,1.9-6.71,3.81-8.02,6.65-1.84,4-.04,7.13,1.6,11.48-4.76-3.78-5.25-8.22-2.35-14.01-2.12,1.56-4.62,3.86-5.12,5.84-1.55,6.12,8.48,8.44,3.25,18.29-.48.9-.81,3.25.01,3.52-.59-.03-2.31.77-2.23,1.24l-9.99-.41c-7.91-.32-15.21-.72-23.02-.03l-8.29.73c-2.32.2-3.09,6.23-.66,7.56l-4.04.26-.09-2.57c-.03-.38-.95-.5-1.32-.57l-.56-.1c-.14-2.55-2.78-4.52-5.68-3.87l-4.32.98-1.98-2c1.85.03,5.66.05,7.34-.64,2.74-1.28,5.2-2.27,7.51-2.5l4.06-.98c7.99-1.18,15.32-3.95,22.4-8.56,4.83-3.15,10.72-6.09,14.15-10.66,5.13-6.83,11.07-11.9,19.54-12.67ZM388.41,414.82l2.44-7.17c-3.92,2.91-7.28,4.96-11.21,4.68,3.99-2.13,10.27-3.68,9.67-8.68l-4.17-7.58-14.98,10.11c-6.69,4.52-13.99,6.04-21.59,8.24l9.2-.53,17.74.04,12.9.91ZM344.1,420.24l.64-4.9-2.16,1.91c-.42.37.62,2.05,1.52,2.99Z" fill="#a29279"/>
  <path d="M502.36,524.5l-1.16,1.04-3.2,11.36c-2.86,6.1-4.48,10.99-4.72,17.64-.39,10.88-3.98,21.12-5.57,31.85l-.37,11.95c-.65,1.35-1.07,1.93-2.99,2.98l-.28-6.89c-12.24,31.65-28.26,62.61-54.91,84.21,21.63-23.41,38.66-47.34,49.7-76.92,6.37-17.07,12.25-33.72,12.76-52.38l-3.4,2.03c5.56-10.65,12.71-20.68,9.54-31.83l.89-3.02.88-.21,2.83,8.2Z" fill="#b5a283"/>
  <path d="M540.43,724.06l1.15,1.59c-6.4,2.02-12.78,4.87-18.4,9.43-4.35,3.52-6.77,12.01-3.23,16.71,6.36,8.46,18.98,9.53,27.8,4.75,1.5-8.8,11.07-13.25,11.43-23.44l.45-12.76.49-2.12,1.43,7.05c.78,9.58-1.91,18.53-9.41,24.71-1.15.95-2.11,4.79-.98,5.61,4.06,1.34,10.03,2.83,13.47,5.41l-14.99-3.87c-9.6,5.2-22.21,4.68-30.23-2.78-8.21-7.63.7-23.09,7.9-33.25,6.62-9.35,10.43-19.87,9.97-31.68-.06-1.6-2.42-4.2,1.02-5.69l-.06,16.62c-.02,5.54-3.23,11.8-6.16,16.54l-9.84,15.9,18.18-8.73Z" fill="#a29279"/>
  <path d="M429.92,751.58l.63-3.28,3.21-1.87c-.32,2.21-2.01,3.73-3.84,5.15Z" fill="#b5a283"/>
  <path d="M491.92,623.31l4.97,13.9-1.53.15-2.69-7.32c.78,10.23,1.07,18.61,0,28.24l-2.33,21.03-1.63-.99.49-5.05c-8.14,20.74-20.31,40.74-35.41,55.08.3-2.12.91-3.4,2.55-5.3,15.42-17.95,32.6-44.24,34.14-67.66l.61-9.25-.77-13.87-1.03-8.82,2.63-.13Z" fill="#b5a283"/>
  <path d="M453.79,728.34c-1.91,4.06-11.38,13.85-16.3,14.67l12.75-13.04c.64-.65,2.68-1.46,3.55-1.64Z" fill="#b5a283"/>
  <path d="M437.5,743.02c-.03.69-.08,2-.61,2.06l-2.3.24c.3-1.1,1.88-1.73,2.9-2.3Z" fill="#b5a283"/>
  <path d="M245.71,574.55l-2.13-.02-1.1-3.99.02-4.23c3.15-15.74,18.25-22.84,33.27-27.79,16.05-5.29,23.76-18.65,28.1-34.85.85,14.57-9.17,26.51-20.7,34.26l-16.69,11.21c-7.39,4.97-12.13,11.9-14.36,20.45-1.2-11.6,11.99-20.66,20.74-28.22-15.85,5.42-33.07,18.04-27.16,33.18Z" fill="#94836d"/>
  <path d="M386.43,321.36l-.03,2.13-.93,1.63c-3.93-.74-7.84-.69-11.54,2.97,5.48.65,9.57,2.97,10.57,8.17-8.98,1.77-12.08-5.16-17.94-7.26l-3.95,3.74-2.03-1.78c-.48-.42-2.78.35-2.58.95l1.22,4.64-5.17-5.04-1.59-.5c-.37-.12-.78-1.03-.88-1.29l1.3-2.03c2.91,1.23,6.34,2.31,8.83,1.42l4.44-1.59c2.21-.79-.15-10.81,9.66-14.15-.55,4.74-1.89,8.48-4,12.37,10.37-.88,3.91-12.74,12.98-15.8,1.17-.13,2.76,3.31,1.98,4.21-.65.75-1.74,1.57-3.28,2.76l-1.76,5.99,4.71-1.56Z" fill="#b59b77"/>
  <path d="M392.55,323c-.5.68-1.67,1.97-2.51,1.74l-3.64-1.25.03-2.13,8.77-4c1.69-5.38,4.07-11.22,9.51-14.33,1.05,5.14-1.48,8.77-4.52,13.29,9.51-.4,7.23-12.24,20.42-14.49-1.62,7.71-7.56,9.56-13.32,12.5l6.87,2.75c-3.13,3.79-7.22,4.23-12.14,2.9s-11.46.98-10.53,1.99l1.05,1.02Z" fill="#beaa89"/>
  <path d="M423.28,348.48l1.33,1.02-16.55,6.61,3.68,7.79-5.73-5.94c-.85,3.35.25,6.28,2.54,8.34,1.84,1.65,6.06,2.67,8.34,1.93,1.39-4.67,2.92-9.12,6.66-11.51l6.76-4.33,2.43.84.29,11.02c.18,6.92-3.99,12.13-10.43,12.37l.71-1.2c4.4-1.55,8.37-4.4,8.24-9.92l-3.06,1.97-5.06,4.22c-.65.55-2.17,1.48-2.9,1.9l6.11-8.79c1.63-2.43,5.14-6.16,3.34-10.66-9.81,6.73-10.54,8.79-11.8,19.37-.39-.88-.81-2.62-1.45-2.67l-3.26-.23c-5.56-.4-9.07-5.56-10.16-10.99l-4.99,3.9c4.71-9.31,15.57-11.65,24.93-15.06Z" fill="#a29279"/>
  <path d="M269.56,563.24l.17,1.54c-3.11,1.81-6.48,7.91-7.89,11.74.54,8.32,7.85,12.74,14.98,14.54-6.3,1.1-12.24-1.32-18.06-3.92l1.05,8.16-.05,2.17-1.94-8.17c-.42-2.41-1.35-4.4-3.78-5.07-5.33-1.46-9.17-5.01-10.46-9.71l2.13.02c1.03,2.63,3.64,5.18,6.33,6.46l4.46,2.13c4.58-10.18-.24-18.16,5.16-24.72l-1.93,10.97c-.18,1.03.96,3.95,1.24,3.89,3.02-4.19,5.38-7.17,8.61-10.04Z" fill="#867562"/>
  <path d="M207.79,548.62l-.17-2.23c3.19-5.58,7.09-10.74,13.42-13.71l14.3-6.71c5.55-2.6,6.92-9.82,10.33-14.39l-1.38,5.33c-.15.57-.57,1.81-.16,1.95l2.34.82-10.24,8.38c7.77,1.51,17.29-2.69,21.67-9.17,1.7-2.52,2.48-3.8,4.92-5.04l3.74-6.6c-1.89,10.84-9.71,17.67-19.62,21.59-4.85,1.92-23.96-3.84-39.14,19.79Z" fill="#9a8972"/>
  <path d="M328.29,366.62l-1.77,2.69c-7.95-1.36-16.45-1.23-23.52,3.49-3.33,2.22-4.01,6.69-2.04,9.73l-8.65,5.94,5.02-6.38c.48-2.57,1.3-7.64,3.11-9.56,3.92-4.16,9.29-4.59,14.59-5.46-7.4-3.71-15.18-3.22-21.61,1.38-3.31,2.37-4.41,6.35-5.37,10.25-1.7-1.8-1.05-5.16.36-7.54,4.87-8.19,15.09-10.31,24.15-7.31,5.19,1.72,10.79,3.31,15.73,2.77Z" fill="#9a8972"/>
  <path d="M539.38,432.57l42.04.02,1.02-1.01h7.99s-.07,1.46-.07,1.46c-.04.38-1.38.55-1.82.55h-6.09s-44.92-.03-44.92-.03l-1.04,1.01h-1s-5.04-1.89-5.04-1.89c1.41.13,4.41-.85,5.36-1.86l-3.48-7.98c5.51,2.72,2.77,9.72,7.05,9.72Z" fill="#a38d72"/>
  <path d="M487.47,409.61l.55,2.03c.14.53,1.95,1.17,2.6,1.13l7.51-.45c2.4-1.35,3.72-1.08,6.03-1,8.12.26,14.38,2.15,21.23,6.33l6.94,5.2-5.48-2.37,1.32,5.05c-14.4-21.78-35.67-1.84-55.9-14.53l14.24,3.07-.88-5.33,1.85.87Z" fill="#a38d72"/>
  <path d="M495.36,637.36l1.53-.15c10.47,29.29,20.06,65.31,15.67,96.63l-.85-26.55c-2.57-24.34-8.1-47.51-16.34-69.93Z" fill="#9a8972"/>
  <path d="M634.78,696.46l-1.59.97c-8.44-14.09-6.73-30.09,1.09-45.09,3.63-6.97,8.03-13.7,14.09-17.78l-5.14,7.72c-12.72,16.04-18.48,36.22-8.45,54.19Z" fill="#b5a283"/>
  <path d="M314.85,560.75l-2.15-.16c17.25-8.19,24.99-27.93,16.48-45.72-2.05-4.29-3.96-8.2-4.85-13.11l7.65,15.58c2.34,4.76,1.96,11.53,1.64,17.26-.65,11.81-9.11,20.91-18.77,26.14Z" fill="#8d7c66"/>
  <path d="M490.34,679.31c-3.74,22.26-8.83,45-19.84,65.02,8.48-21.9,15.99-43.13,18.21-66.01l1.63.99Z" fill="#94836d"/>
  <path d="M592.42,431.58c-.5.26,1.7,1,2.18,1h8.78s65.98,0,65.98,0l-.03,1.01-70.36.42-16.55.59v-1.01s6.09,0,6.09,0c.44,0,1.78-.18,1.82-.55l.07-1.46h2Z" fill="#9b825a"/>
  <path d="M268.6,401.93c-6.95,3.86-12.21,8.56-18.08,13.65,10.44-16.27,29.82-22.24,46.43-12.17-9.59-2.79-18.35-4.19-28.35-1.49Z" fill="#8d7c66"/>
  <path d="M263.65,611.68l-.85-2.31.26-.79,1.87-3.35c6.32,7.7,15.77,11,25.87,8.18-6.14,4.63-13.73,3.71-20.5.38l-6.66-2.1Z" fill="#8d755c"/>
  <path d="M248.52,482.79c1.09,12.91,10.86,11.6,11.99,23.49-4.04-8.16-10.31-14.71-18.01-20.39-3.33-2.46-3.47-4.61-3.09-8.28.43-4.1.73-7.95,2.03-11.29-.37,8.3-2.6,16.46,5.99,21.66l-.24-6.36c-.02-.44,1.11-1.65,1.15-1.22l.2,2.39Z" fill="#94836d"/>
  <path d="M471.63,300.53l-.61,3.86c-.16.84-2.98-.54-3.65-.58l3.75-2.11c-4.36-4.86-9.8-3.18-14.42-.81l-1.16-.5c-.26-.19-2.51-.32-3.34-.09l-6.83,4.18c6.65-9.68,22.68-12.04,26.26-3.95Z" fill="#b5a283"/>
  <path d="M423.33,375.44l-.71,1.2-1.63.15.68,4.2-2-.35-.81-1.93-7.38,1.93c-1.11.29-2.81,2.46-3.35,3.65l-2.45-1.76-1.96-1.89c3.76-.34,8.13-1.99,11.71-4.06l5.14-2.97c.73-.42,2.24-1.35,2.9-1.9l5.06-4.22-2.21,3.87-2.98,4.07Z" fill="#beaa89"/>
  <path d="M269.73,564.78l-.17-1.54c9.46-8.42,23.48-11.33,31.12-20.39,5.35-6.35,7.69-13.8,11.89-20.66-1.13,7.93-5.24,15.14-10.08,20.97-4.67,5.63-10.62,8.75-16.75,12.31l-16.01,9.3Z" fill="#94836d"/>
  <path d="M411.74,342.33l-1.1,3.08c-3.09-.46-7-1.06-9.95-.59l-.14-1.24,6.18-.39c-5.87-2.35-12.77-2.34-17.9-.12l-.25-1.69c7.84-3.7,15.64-1.63,23.17.95Z" fill="#ab9b80"/>
  <path d="M312.7,560.59l2.15.16c-5.46,2.96-12.78,4.42-18.3,2.78l3.75.05c.98.01,1.56-1.88,1.55-3.24,3.56.08,8.3-2.83,11.85-4.96,6.27-3.76,7.98-10.59,11.25-17.67,1.07,10.6-8.69,19.04-18.32,23.64l6.06-.75Z" fill="#9d8e78"/>
  <path d="M504.45,372.62c.22,3.77.56,10.12-1.23,13.54l-12.67,8.45-1.11-.08c4.85-6.66,14.7-4.81,12.99-22.03l2.02.11Z" fill="#95826a"/>
  <path d="M366.56,329.01l2,3.84c1.46,2.08,2.68,4.27,3.51,6.53-5.93,1.4-8.16-2.72-9.46-6.63l3.95-3.74Z" fill="#bba787"/>
  <path d="M259.76,597.47l.05-2.17c1.51,3.32,2.98,7.32,5.12,9.93l-1.87,3.35c-4.61-3.66-8.89-9.33-8.84-15.75l5.53,9.66.84-.59-.83-4.43ZM261.3,604.14l-.06-1.26c-.05-1.03-.05-1.01.06,1.26Z" fill="#9d8e78"/>
  <path d="M383.96,583.3c1.08,7.47,1.25,15.18-1.25,22.25l-2.23.86c2.65-7.2,3.69-15.98.81-23.32l2.67.21Z" fill="#8d755c"/>
  <path d="M373.5,382.88c-7.91,5.99-17.9,1.57-24.61,12.88.44-6.49,6.68-9.04,12.61-10.31l12.01-2.57Z" fill="#a29279"/>
  <path d="M301.86,560.33c.01,1.36-.57,3.26-1.55,3.24l-3.75-.05c-3.82-.05-9.14-1.88-12.94-3.6l18.25.41Z" fill="#826a52"/>
  <path d="M508.42,361.72l1.28-1.15c2.99,1.93,5.23,7.03,5.17,10.55-.08,4.29-2.16,9.27-6.23,10.69,2.02-3.39,4.57-6.93,4.48-10.46s-2.17-7.26-4.7-9.64Z" fill="#9d8e78"/>
  <path d="M489.77,605.36l-2.88.75c-.51.19-.5,2.05-.39,2.64l-1.62-3.39-1.36,8.07-1.18-.07,2-12.04c1.92-1.05,2.34-1.63,2.99-2.98l2.44,7.02Z" fill="#a38d72"/>
  <path d="M487.47,409.61l-1.85-.87c-.82-4.94.85-10.11,3.83-14.2l1.11.08-2.15,5.86,2.48,7.27-3.28-2.2-.13,4.06Z" fill="#ab9b80"/>
  <path d="M360.77,337.54l4.23,3.14-5.48-1.83c-.37,5.27,1.54,10.3,4.27,14.63l-.55,1.17c-1.35-1.12-3.66-4.15-4.04-6.4l-1.83-10.65,3.41-.06Z" fill="#94836d"/>
  <path d="M255.65,532.24c7.97-3.61,16.05-5.74,21.21-12.7l5.68-11.05c-.27,12.63-15.25,23.71-26.89,23.74Z" fill="#94836d"/>
  <path d="M395.66,329.76l-2.45-1.15c-.51-.13-1.57.62-1.64,1.03-1.59-.54-3.92-1.79-4.97-2.8l.93-.84c.23-.12.53.2,1.38.97l5.03.36-.16-4.74,5.26,5.09c-.98.98-2.5,2.11-3.38,2.09Z" fill="#beaa89"/>
  <path d="M351.58,329.73c.11.26.51,1.18.88,1.29l1.59.5,5.17,5.04,1.54.98-3.41.06-2.83-3.19-4.84-.59.53-2.58-2.57-.63.09-.97,3.85.08Z" fill="#95826a"/>
  <path d="M489.31,309.2c-3.95-1.63-4.96-5.27-8.84-5.5l-.95-1.87,3.1-2.2,4.68,6.07,2.58,1.73c.38.26-.48,1.84-.57,1.77Z" fill="#beaa89"/>
  <path d="M400.54,343.58l.14,1.24c-5.89.93-11.46,2.27-17.16,4.73-1.29,1.68-1.97,1.22-1.08-.77,5.94-2.97,12.24-4.83,18.1-5.2Z" fill="#94836d"/>
  <path d="M388.57,341.38l.25,1.69c-5.44,2.35-11.62,5.93-17.35,1.83,4.47.43,8.5.54,12.07-1.14l5.02-2.37Z" fill="#94836d"/>
  <path d="M295.61,532.67l8.67-9.76,3.39-4.51c-1.57,6.44-6.3,11.05-12.06,14.27Z" fill="#8d7c66"/>
  <path d="M386.6,326.84c-.35-.34-1.03-1.34-1.13-1.71l.93-1.63,3.64,1.25c.84.22,2.01-1.06,2.51-1.74l1.23-.41.16,4.74-5.03-.36c-.86-.76-1.15-1.09-1.38-.97l-.93.84Z" fill="#b5a283"/>
  <path d="M262.79,609.37l.85,2.31c-3.32-1.05-7.31-1.68-9.02-4.42l-.51-.82c-2.85-1.27-6.08-4.93-5.44-8.35l5.95,7.96.76.54,7.42,2.78Z" fill="#94836d"/>
  <path d="M306.78,390.6c-2.83,1.35-6.13,1.94-9.09,2.05l-.1-1.14,9.09-2.75.11,1.84Z" fill="#95826a"/>
  <path d="M603.41,431.58l-.03,1h-8.78c-.49,0-2.69-.74-2.18-1h10.99Z" fill="#a38d72"/>
  <path d="M293.67,394.78l-.96-.44.52-1.76c.19-.55,3.12.73,2.63,1.03l-2.19,1.18Z" fill="#95826a"/>
  <path d="M505.98,383.41c.45-.14,2.69-.68,2.5-.46l-1.56,1.71c-.29.32-1.4-1.1-.94-1.25Z" fill="#9d8e78"/>
  <path d="M395.66,329.76l-4.09-.12c.06-.42,1.13-1.16,1.64-1.03l2.45,1.15Z" fill="#b5a283"/>
  <path d="M289.95,390.48c-.18.59-1.22,1.09-1.73,1.09s-1.55-.5-1.49-.88l3.22-.21Z" fill="#95826a"/>
  <path d="M669.34,433.59h9.99s11.99,0,11.99,0h7.03s-.05.91-.05.91l-17.58.68-124.29.65-19.38.95c-.52.03-2.23,1.04-2.64,1.16-.55.17-1.16-.54-2.13-1.41l-33.97.13,17.36,6.84c2.88,1.14,5.96,1.8,8.74,1.31,8.36,4.03,17.46,6.2,26.54,3.82l4.55,2.94c11.15-.33,21.32,1.15,32.01,4.06l8.86-.21c5.34-.13,10.8-3.58,16.11-3.6l31.7-.1,7.22,1.8,34.4-.42,13-1.01c12.18-.95,12.22-11.27,22.09-16.35l.24,1.82c-7.42,5.1-11.05,14.84-17.17,15.48l-19.96,2.08-31.35.11-11.4-1.46c-9.13.09-19.55-1.51-28.21.47-12.62,2.88-23.07,4.73-35.87,1.53-8.15-2.04-16.84-1.89-25.39-3.29l-3.65,9.91c-.78-3.7.32-5.94,1.41-10.88l-5.75,5.33,1.78-4.88-14.51-1.9c-.8-.1-3.23-1.03-3.78-.45l-3.03,3.21c-.24-.3-.6-1.8-.29-2.21l1.99-2.65-3.43-.39-1.94-.22-7.41-2.52c-13.62-7.58-30.31-8.88-43.61-1.4l-1.09-1.3-12.85-2.27c-.84-.15-2.88-1.4-3-1.54l.47-1.63,1.36-.08c7.28,4.05,17.13,4.66,24.9-.62l3.12.65,13.48.7,1.8-2.4,4.78-.35c2.86.92,7.14.92,10-.02h22.98s1-.01,1-.01l45.96.02,16.55-.59,70.36-.42Z" fill="#beaa89"/>
  <path d="M722.38,476.61l-.1,1.09-14.25-2.07-9.7.86-26.08,5.03-38.85,7.27.04-1.41,10.02-1.75,50.79-10.11c6.4-1.27,13.57-1.5,19.55-.43l8.58,1.52Z" fill="#9a8972"/>
  <path d="M421.66,380.99c1.95,7.53,7.33,12.52,14.57,16.06,9.79,4.78,19.69,9.48,30.28,9.68l1.17,1.21-9.11.87-13.87,16.32-1.52.16,7.41-9.51,6.55-7.73-7.36-2.84-17.48-8.2c-7.06-3.31-11.58-9.1-12.63-16.36l2,.35Z" fill="#b09e7f"/>
  <path d="M626.33,670.42l-.05,10.84-1.18,5.01c-.74-6.39-1.09-13.52-.04-19.91l1.27,4.06Z" fill="#9b825a"/>
  <path d="M350.22,331.24l-2.22,2.41c-.27.36.23.96,1.15,2.3l.54-2.12,4.84.59-5.88,3.41-6.32.89c.61-3.86,2.67-6.09,5.32-8.09l2.57.63Z" fill="#a89577"/>
  <path d="M468.52,310.64l-.79.37c-.73-.63-2.75-2.28-1.98-2.91l2.44-2c.55-.45,2.96.81,2.55,1.36l-2.22,3.18Z" fill="#b5a283"/>
  <path d="M437.59,428.54l-1.17,1.14c-3.61-3.57-9.53-4.37-14.32-6.63-8.42-3.97-15.92-6.6-25.72-5.34l-7.72-1.03c-.07-.46,1.64-1.27,2.23-1.24l13.53.79c5.1.3,8.46.62,13.95,2.62.72-5.39-1.58-11.63-4.9-16.01l1.14-2.35c4.88,5.43,5.92,12.88,6.33,20.1,6.52,1.97,12.18,4.39,16.64,7.95Z" fill="#b09e7f"/>
  <path d="M346.7,424.52c5.49,3.01-5.62,9.6.83,15.03l3.26,1.01-.62,2.06c-.18.54-1.79.85-2.4.93l-5.86.79-1.04-3.53c.86-1,1.35-2.32,1.45-3.61l.45-5.84-1.25-6.66,1.13.09,4.04-.26Z" fill="#a7937b"/>
  <path d="M341.25,421.64l.28,3.05c-1.89-.3-4.92,2.57-4.94,4.07l3.16,2.67c-2.03.36-4.3-.32-4.78-1.58-.43-1.13.27-3.75,1.2-4.53l4.52-3.78.56.1Z" fill="#a7937b"/>
  <path d="M344.1,420.24c-.91-.93-1.94-2.62-1.52-2.99l2.16-1.91-.64,4.9Z" fill="#95826a"/>
  <path d="M548.43,489.35l-.06,1.38c-1.17.95-3.42-.08-5.88-.35l-11.9-1.29c-4.6-.5-8.93-.1-13.12,1.17-2.63-2.61-6.28-4.16-10.98-4.09-6.95.11-14.3,2.13-14.85,10.73-.25,3.9,3.64,8.41,5.12,12.25l2.77,7.16-.88.21-1.39.18-6.89-14.89c-6.36-12.24-1.42-25.45,9.43-31.98-6.44,7.62-11.63,14.75-9.93,23.8,3.1-8.11,11.05-10.65,18.64-9.34l5.89,1.02.32-5.77h1.52s.43,6.54.43,6.54c.16,1.4,3.51.75,5.27.92l12.68,1.19,13.82,1.17Z" fill="#b09e7f"/>
  <path d="M454.57,502.58l-.69,6.15c-1.88,16.81-6.13,32.67-14.83,47.16l-8.59,14.31-6.47,12.24-.94-2.89-13.82,13.49-7.47,6.13-1.19-1.6,8.68-7.45c9.83-8.44,17.27-18.02,24.18-28.83,10.33-16.17,16.77-33.48,18.35-52.81l.81-9.95,1.98,4.05Z" fill="#ab9b80"/>
  <path d="M329.64,654.2c.55.41.74.73.62,1.04l-.65,1.05-10.09,2.66-25.76,4.33-2.28-.63c.95-.88,3.92-1.99,5.29-2.2l20.9-3.34,11.98-2.91Z" fill="#8d7c66"/>
  <path d="M482.34,613.36l1.18.07c-2.76,16.31-6.11,32.93-12.76,47.73,4.45-16.9,8.94-31.93,11.58-47.79Z" fill="#8d7c66"/>
  <path d="M349.69,333.83l-.54,2.12c-.92-1.34-1.42-1.94-1.15-2.3l2.22-2.41-.53,2.58Z" fill="#9a8972"/>
  <path d="M708.66,577.6c-21.48,30.07-50.7,40.12-66.37,57.54-9.2,10.23-14.36,22.15-15.97,35.28l-1.27-4.06c2.75-16.71,11.47-31.74,25.54-41.73l24-17.05c12.36-8.78,23.78-19.09,32.36-31.12l1.7,1.14Z" fill="#bba787"/>
  <path d="M633.44,487.38l-.04,1.41c-8.36,1.56-16.94.24-25.99-.28l-18.98-1.08-.02-2.03c7.38-.36,14.36,1.57,22.09,1.67l22.93.3Z" fill="#b09e7f"/>
  <path d="M588.42,485.41l.02,2.03-11.16.75-24.48.37c-1.38.02-3.56,1.46-4.43,2.17l.06-1.38c2.28-5.14,7.41-.79,22.13-2.43l10.02-1.12,7.84-.38Z" fill="#a29279"/>
  <path d="M450.37,438.12l3.3,10.79-3.74,3.35,2.19,1.85c.32.27,1.15-.27,1.53-.38l2.86,7.57-1.05,1.13c-.22-.45-.59-1.52-1-1.86l-2.97-2.06-2.86-5.84-1.24,2.82-.8.07-.04-4.87c0-.65-1.56-2.34-1.88-1.83l-1.07,1.72-1.5.06.56-2.01c.27.08,1.2-1.1.94-1.52l-.95-1.55-1.63-2.93,3.04-1.01c.75-.25-.37-2.56-.47-3.44l4.4.11.08-1.4c.03-.46,2.21-1.17,2.23-.71l.08,1.97Z" fill="#beaa89"/>
  <path d="M522.5,447.58l-6.24,19.73c-.95-7.35,1.39-13.83,4.3-19.95l1.94.22Z" fill="#9d8e78"/>
  <path d="M469.54,443.45l-4.01,1.25c.77-.62,2.11-1.78,2.92-2.56l1.09,1.3Z" fill="#a7937b"/>
  <path d="M465.53,444.7c-4.5,6.47-13.91,3.67-11.88,9.02-.38.11-1.21.65-1.53.38l-2.19-1.85,3.74-3.35,11.86-4.21Z" fill="#a7937b"/>
  <path d="M480.28,432.6l2.23,1.38c-1.11.75-1.91,1.22-1.58,1.44l1.53,1.25-3.12-.65-21.27-.53c-.73-.02-3.12.85-2.13,1.07l-1.51.07-1.36.08.02-1.46c.01-.97-4.28-.43-4.41-1.23l-.06-1.3,31.66-.13Z" fill="#8d755c"/>
  <path d="M527.45,433.35l-32.02.38,2.29,1.23-1.8,2.4-13.48-.7-1.53-1.25c-.33-.22.47-.69,1.58-1.44l-2.23-1.38,47.18.76Z" fill="#a38d72"/>
  <path d="M448.61,432.72l.06,1.3c.14.8,4.43.26,4.41,1.23l-.02,1.46-.47,1.63-2.22-.22-.08-1.97c-.02-.45-2.2.26-2.23.71l-.08,1.4-4.4-.11-1.05.46,1.28-3.12c.6.06,2.2.12,2.47-.46l1.18-2.56,1.15.26Z" fill="#a89577"/>
  <path d="M469.45,355.34c-5.47-.6-11.32-2.02-13.96-6.25l10.63,2.96,1.47-7.42,1.86,10.71Z" fill="#bba787"/>
  <path d="M475.43,340.09l-13.94-4.51c4.95-1.74,11.5-2.13,13.94,4.51Z" fill="#d9bb83"/>
  <path d="M442.28,412.57c-1.1,4.08-1.14,9.11.9,12.71l1.52-.16c1.81,2.4,2.98,4.7,2.75,7.34l-1.18,2.56c-.27.58-1.87.52-2.47.46l-3.05-2.27c-1.5-.92-3.16-2.38-4.34-3.54l1.17-1.14c.12.15,2.41,1.64,2.58.99.19-.74.55-2.32.46-2.97l-1.09-3.96v-5.05s1.12-5.83,1.12-5.83l-.19-1.25,1.81,2.11Z" fill="#beaa89"/>
  <path d="M514.4,426.34c-7.24-1.56-12.73-2.61-18.94-.84l-8.05.21c-3.89.1-7.84-.89-10.96-2.93,4.29.37,9.09,2.01,12.85,1.64l10.31-1c5.41-.52,10.65.11,14.78,2.92Z" fill="#94836d"/>
  <path d="M442.53,438.61l1.05-.46c.11.89,1.22,3.2.47,3.44l-3.04,1.01c-.33.11-1.1.04-1.45.03l-1.24-.25c.77-1.84-.41-3.9-2.36-5.12-4.51-2.83-8.67-5.48-13.56-5.48,3.77,2.75,7.41,4.4,8.99,8.25.64,1.54-1.35,5.24-2.8,6.02-1.98,1.06-4.99,1.41-6.87.88l-2.08-.37c-.14-6.36-6.05-6.5-7.79-10.97l12.37,6.14c.83.41,3.47-.53,4.09-1.08s.08-2.81-.74-3.38l-13.76-9.56c6.22.98,11.65,1.91,16.36,4.39l12.37,6.52Z" fill="#a7937b"/>
  <path d="M340.87,440.8l1.04,3.53c-1.23.17-3.64-.5-5.44-.96-15.97,3.02-30.91,8-46.09,13.71-7.54,2.83-15.36,4.18-22.81,3,10.01-1.5,18.75-3.13,27.8-6.83,14.9-6.1,30.03-10.17,45.5-12.46Z" fill="#9a8972"/>
  <path d="M443.59,450.55c-4.05,12.54-9.51,24.56-17.09,35.91l-16.87,25.26c4.01-9.09,9.31-16.41,14.6-24.76,7.28-11.48,13.28-24.23,17.87-36.35l1.5-.06Z" fill="#9d8e78"/>
  <path d="M439.56,442.62c-6.18,16.96-16.26,32.34-28.93,45.96l-13.98,15.03-22.91,27.45c2.57-7.91,8.27-13.35,13.28-19.23l5-5.86,14.24-14.9c13.77-14.41,24.44-30.51,32.06-48.7l1.24.25Z" fill="#a29279"/>
  <path d="M367.47,439.78l-.07-1.57c.64.15,1.93-.71,3.12-1.7,8.4,6.38,18.56,9.79,29.57,11.57l9.37,6.27c-.76.25-3.58-.19-4.61-.96-3.42-2.58-7.17-3.64-11.23-4.82l-17.43-5.08c-3.17-.92-6.45-1.71-8.73-3.7Z" fill="#9d8e78"/>
  <path d="M387.72,580.6l5.48-30.57c1.69-6.2,3.51-12.16,6.33-17.72-2.77,11.02-5.83,20.87-7.15,31.9l-4.65,16.39Z" fill="#867562"/>
  <path d="M355.93,478.66l-2.46-4.09,3.22,2.75c.45.62.91,1.28,1.06,1.37,5.62,3.34,14.42,11.42,15.71,20.44-4.3-7.01-9.9-13.78-16.52-19.78l-1.01-.68Z" fill="#8d7c66"/>
  <path d="M419.64,446.56l2.08.37-2.32,3.29c-.63.91-3.76-.16-5.06-.65l-2.87,3.42c-1.06-4.29-2.1-6.23-4.75-9.57l8.14,3.66c.76.34,2.2,2.83,2.66,2.23l2.13-2.75Z" fill="#ab9b80"/>
  <path d="M446.58,455.54l.8-.07c-1.13,9.3-3.23,18.68-7.71,27.2l6.91-27.14Z" fill="#94836d"/>
  <path d="M367.41,438.21l.07,1.57-5.77-1.29-10.91,2.07-3.26-1.01c5.44-2.19,14.9-2.51,19.87-1.34Z" fill="#9a8972"/>
  <path d="M382.7,534.58c1.04-6.93,4.16-13.2,9.06-18.21l-9.06,18.21Z" fill="#94836d"/>
  <path d="M329.61,656.3l.65-1.05c.12-.31-.06-.63-.62-1.04l14.41-4.34,22.06-8.05c6.98-2.54,14.39-5.99,19.61-11.26l16.91-17.07c8.45-8.53,13.12-19.42,19.99-29.16-6.32,14.48-15.33,27.55-26.38,38.61l-8.4,8.4c17.19-6.68,33.61-15.88,47.91-28.69,10.15-9.09,17.47-19.66,25.93-30.27-6.51,13.22-16.71,23.8-27.39,33.77-12.17,11.36-26.78,18.09-41.61,25.44-20.65,10.22-41.09,18.91-63.07,24.7Z" fill="#9d8e78"/>
  <path d="M455.74,619.01l-8.18,10.41-16.49,16.46-22.36,17.63-20.02,12.53-1.11-1.77c15.49-7.67,29.76-18.11,42.69-30.14l8.29-7.71,8.15-8.89,7.78-9.28,1.23.76Z" fill="#ab9b80"/>
  <path d="M426.62,680.34c-.12.85-.96,2.67-1.87,3.42l-28.85,23.71-4.99,4.16-.46-1.53,7.42-6.56,23.97-19.99,4.63-4.3.16,1.09Z" fill="#a7937b"/>
  <path d="M363.73,686.09l.03,1.83c-11.15,4.99-19.72,13.02-30.2,19.48,9.04-8.65,19.21-15.88,30.17-21.31Z" fill="#94836d"/>
  <path d="M455.74,619.01l-1.23-.76,11.57-16.31,8.59-12.68c-3.74,8.96-8.47,16.53-14.36,23.97l-4.57,5.78Z" fill="#9d8e78"/>
  <path d="M332.7,648.26c1.81-4.33,4.2-8.08,8.3-11.01-1.84,4.38-4.45,7.52-8.3,11.01Z" fill="#9a8972"/>
  <rect x="373.48" y="721.59" width="11.3" height="1.41" transform="translate(-399.69 479.64) rotate(-45)" fill="#94836d"/>
  <path d="M390.9,711.64c-2.27,1.9-4.07,4.4-7.4,5.82l6.94-7.35.46,1.53Z" fill="#94836d"/>
  <path d="M426.62,680.34l-.16-1.09.75-.94c.24-.3,1.38.22,1.43.6s-.17,1.36-.55,1.38l-1.47.05Z" fill="#b5a283"/>
  <path d="M401.75,599.17c-7.46,6.12-15.23,11.63-24.41,15.97l-12.31,5.82c-7.84,3.71-13.88,9.67-21.7,14.56,2.41-3.49,5.25-6.14,8.34-9.04-21.95,5.04-35.13-4.31-53.42,13.53-6.2,6.05-9.6,14.34-6.76,22.64l2.28.63c-12.03,4.07-23.25,9.89-30.06,20.47l-1.07-1.6c5.83-9.45,15.7-15.39,26.41-19.52-3.74-15.29,10.61-30.33,23.63-34.25,16.69-5.03,29.51,1.65,46.35-6.71l19.38-9.61,2.09-5.67,2.23-.86-1.06,4.98,18.9-12.94,1.19,1.6Z" fill="#9a8972"/>
  <path d="M414.63,400.49l-1.14,2.35-6.36-8.42,3.49-1.5c1.43,3.2,2.45,5.83,4.01,7.57Z" fill="#856f59"/>
  <path d="M442.28,412.57l-1.81-2.11c1.07-1.78,2.2-3.53,3.86-5.52l-2.05,7.63Z" fill="#b09e7f"/>
  <path d="M479.33,436.02l-23.4.54c-.99-.22,1.4-1.09,2.13-1.07l21.27.53Z" fill="#a89577"/>
</svg>
