<svg xmlns="http://www.w3.org/2000/svg" viewBox="0 0 1024 1024">
  <path d="M532.96,187.59l.82,17.24c.16,2.67.14,5.36-.2,8.03l-.11,30.82c-.41.46-1.41,4.11-.53,3.96l3.69-.68c-1.69,1.67-3.81,3.07-6.01,4.3l-1.68-.48c-1.47-.08,2.07-7.34-.27-15.08l1.59-7.15c-.12-.46-.43-1.91-.89-2.07,3.77-15.68-4.2-36.62-20.84-42.09l-2.19-2.15,6.4-1.13c4.07-.72,9.29,1.01,13.94,2.53,2.43.8,4.65,2.73,6.28,3.96Z" fill="currentColor"/>
  <path d="M786.4,199.61l-1.36,1.35-4.04-4.42-.76.02c-25.93-22.8-53.91-43.34-85.25-59.26-33.44-18.12-68.07-28.65-105.18-37.82,38.96,5.16,75.66,20.26,110.46,38.4,29.87,15.57,56.34,35.4,81.1,57.22l.49.56,4.52,3.95Z" fill="currentColor"/>
  <path d="M539.62,244c-.49-.77-1.11-3.25-1.11-4.21l.06-23.87c1.05-4.54.6-8.58.23-13.13l-1.5-11.93c7.12,6.72,11.55,15.4,11.89,25.27.37,10.75-2.1,20.47-9.58,27.87Z" fill="currentColor"/>
  <path d="M751.26,203.61c-47.59-39.63-101.8-67.1-163.86-79.73.96-1.89,2.31-1.89,4.49-1.42,26.72,5.79,52.43,13.66,76.8,25.88l16.09,8.07c24.59,12.32,46.99,28.2,67.5,45.8.18.07.64.3.76.41l6.17,5.49.71.72c1.83,1.86,6.45,3.72,5.84,7.27-2.8-2.03-5.39-4.69-6.71-6.47l-.46-.63c-2.64-.77-5.08-3.04-6.47-5.54l-.86.15Z" fill="currentColor"/>
  <path d="M165.98,342.76c-18.95,42.52-31.92,87.63-35.26,134.71l-1.01,14.22c-.05.76-.91,2.14-1.74,2.97l.31-17.01c3.82-46.92,15.51-92.32,35.41-135.05l1.55-1.62.75,1.77Z" fill="currentColor"/>
  <path d="M877.19,388.21l-2.2.46c-15.75-50.45-41.04-97.5-75.75-137.79l-.71-1.05-2.49-4.01,3.16,2.88.79.79,4.26,4.39c33.07,39.56,57.53,85.02,72.93,134.34Z" fill="currentColor"/>
  <path d="M161.29,667.45l-1.89.88-9.36-23.31c-11.3-31.6-18.38-63.93-21.43-97.43-.42-4.64-2.16-8.91.8-13.5l1.44,13.5c4.73,44.39,13.55,79,30.44,119.87Z" fill="currentColor"/>
  <path d="M376.63,139.43l.89,1.98c-43.79,17.35-83.19,42.5-118.18,74.23-1.31-3.65,1.63-4.15,3.53-5.85,33.56-30.1,71.83-53.75,113.76-70.37Z" fill="currentColor"/>
  <path d="M353.33,123.7l1.28,1.71c-39.44,16.98-75.86,40.05-107.5,68.91l-1.45-1.61c30.98-27.92,69.4-52.38,107.68-69.01Z" fill="currentColor"/>
  <path d="M872.95,644.7l-2-.86c10.24-29.7,17.82-60.39,20.29-92.32l1.17-15.1,1.21-10.31c3,4.4,1.06,9.01.78,13.4l-.69,10.77c-2.08,32.59-9.89,63.72-20.76,94.42Z" fill="currentColor"/>
  <path d="M871.59,711.74l-9.52,16.42-22.28,32.76c-13.26,17.58-27.29,33.85-43.34,47.99l-.42-1.9c13.22-12.8,25.48-25.98,36.98-40.97,14.25-17.59,26.15-36.19,36.85-55.59l1.73,1.28Z" fill="currentColor"/>
  <path d="M737.17,824.71l.99,1.91c-32.66,24.02-68.43,42.98-106.87,55.28l.37-2.07c37.79-12.81,73.11-31.22,105.51-55.11Z" fill="currentColor"/>
  <path d="M247.11,194.32l-10.92,9.97c-6.31,5.76-12.18,11.54-17.91,18.1-19.48,19.65-34.43,41.65-51.05,64.63,13.96-28.35,47.15-66.12,70.5-87.16l7.93-7.14,1.45,1.61Z" fill="currentColor"/>
  <polygon points="313.76 325.7 310.36 327.56 312.8 324.51 313.76 325.7" fill="currentColor"/>
  <path d="M143.28,690.14l-1.67,1.43c-16.03-33.02-27.22-67.9-34.29-104.42.01-.44,1.43-2.05,1.59-1.37l.66,2.77c4.07,16.97,7.77,33.36,13.24,49.95,5.91,17.91,12.51,35.13,20.45,51.65Z" fill="currentColor"/>
  <path d="M213.59,793.96l-1.93-.95c-1.37-.67-3.11-2.72-3.98-4.12l-.51-.54-9.75-10.87c-20.37-24.24-38.16-50.47-52.21-78.69l-3.59-7.22,1.67-1.43c16,33.25,36.67,64.29,61.11,92.31,1.71,1.96,2.84,3.43,3.75,5.03l.41.52c1.91,1.47,4.19,3.76,5.03,5.97Z" fill="currentColor"/>
  <path d="M879.61,330.74l1.64-.45,7.88,16.57c11.17,28.85,22.51,58.29,25.28,89.52-9.01-37.26-18.66-72.12-34.81-105.64Z" fill="currentColor"/>
  <path d="M165.98,342.76l-.75-1.77c.07-1.08.4-3.4,1.14-4.83,16.82-32.29,35.38-64.41,60.86-90.11-24.16,31.45-45.64,61.68-61.26,96.72Z" fill="currentColor"/>
  <path d="M877.19,388.21c9.05,28.98,14.93,57.97,17.06,88.33.47,5.6,2.62,11.39-.72,16.85-1.97-36.31-7.97-70.88-18.54-104.72l2.2-.46Z" fill="currentColor"/>
  <path d="M922.05,500.89c.68,1.09,3.55.24,5.45-.42l.35,6.06c.07,1.19,5.02.78,5.14,1.54l.17,1.47-1.15-.07c-1.1-.06-3.1.24-3.94.91-.51.41-.88,1.84-.62,2.44l1.5,3.5c.21.12-1.81-.86-3.73-1.81l-4.66,3.41-5.62-4.25-2.22-3.5-1.28-1.29c1.28-1.07,2.74-2.28,2.81-3.34.07-1.15.07-3.67,1.13-3.95l3.65-.96c.53-.14,1.27-2.55,1.56-2.09l1.47,2.34Z" fill="currentColor"/>
  <path d="M881.25,330.29l-1.64.45c-15.24-31.64-33.77-61.9-56.13-89.04l.11-.85c-1.98-.96-3.94-2.38-4.36-5.46,2.29,1.31,3.78,2.95,5.09,4.72l.62.53c13.66,16.19,25.57,33.9,36.87,52.41l15.49,28.57,3.95,8.68Z" fill="currentColor"/>
  <path d="M230.74,812.35l1.26-1.31c24.66,22.83,51.54,42.84,81.25,59.39l1.1,3.04c-30.43-17.15-58.41-37.51-83.61-61.13Z" fill="currentColor"/>
  <path d="M104.82,501.35l4.01,3.09,3.35,5.01-3.6,2.76-4.72,4.53-2.7-.15-4.52-2.7-3.89-4.23,2.15-3.36c.36-2.47,3.7-5.44,6.22-6.1.96-.25,2.89.55,3.7,1.17Z" fill="currentColor"/>
  <path d="M134.2,354.21l-11.11,30.62c-6.15,16.94-8.34,34.09-14.59,51.61,3.78-29.39,13.33-57.1,23.99-83.8l1.71,1.57Z" fill="currentColor"/>
  <path d="M503.45,119.97l-2.87,4.28,3.78,3.82c-.53-.21-2.48.91-3.22,1.65l-15.1,15.12c-1.2-1.12-2.67-2.39-2.38-3.2.23-.65,1.25-2.49,1.73-2.97l14.29-14.54-9.1-9.87,2.27-3.31,10.6,9.04Z" fill="currentColor"/>
  <path d="M514.43,891.01c.03.28-.23.99-.37,1.47l4.53,1.9-.81,1.12,4.81,2.72-4.34,2.58-.23,1.32c-.36.56-1.01,1.57-1.58,1.85l-2.14,1.05-3.69.67.46-1.18-5.51-3.41-1.07-1.04-4.82-2.29,5.65-1.81,5.06-3.96c.61-.48,1.71-1.7,2.28-1.52l1.76.52Z" fill="currentColor"/>
  <path d="M353.22,892.4l.94-1.54c24.23,9.52,48.15,17.78,73.7,22.7.41.19,1.87.78,1.65,1.03l-1.31,1.49c-25.66-5.7-50.86-12.87-74.98-23.67Z" fill="currentColor"/>
  <path d="M539.14,90.05l-.06,24.68-2.29,2.28c-.5.49-2.31-1.67-2.31-2.54v-17.31s-2.03.45-2.03.45l-2.41.31c-.55.07-.14-2.18-.13-2.79l.09-6.01-8.51-1.2,13.89-.07c.93,0,3,1.44,3.77,2.2Z" fill="currentColor"/>
  <path d="M898.77,649.62c-.17.39-1.6.85-1.97.96l.04-1.43c8.36-20.97,11.76-42.41,18.16-64.8-.44,20.04-7.85,38.14-12.66,57.05l-3.57,8.21Z" fill="currentColor"/>
  <path d="M165.83,290.91c-12.31,20.45-23.51,40.91-31.63,63.3l-1.71-1.57c8.79-22.02,19.41-43.19,31.96-63.31l1.38,1.58Z" fill="currentColor"/>
  <path d="M898.77,649.62l-1.43,5.94c-7.42,19.61-15.52,38.53-25.75,56.17l-1.73-1.28c10.59-19.2,19.11-39.56,26.94-59.87.37-.12,1.81-.58,1.97-.96Z" fill="currentColor"/>
  <path d="M377.53,141.41l-.89-1.98c19.25-7.63,38.61-13.04,58.59-17.54.7.88,1.46,1.82,1,2l-1.84.71c-19.68,4.21-38.21,9.73-56.86,16.81Z" fill="currentColor"/>
  <path d="M872.95,644.7c-7.21,20.37-15.79,39.48-26.53,58.23l-1.34-1.77,14.92-29.89,10.95-27.42,2,.86Z" fill="currentColor"/>
  <path d="M636.09,187.3c.03-.22-2.33-.81-2.28-.2l.22,2.44-6.02.17c3.94-8.65-4.03-16.43-.76-17.51,3.82-1.26,10.38,5.66,8.83,15.1Z" fill="currentColor"/>
  <path d="M522.73,108.06l-5.34,4.79-7.81,7.26c-.99.92-2.19,3.57-2.25,4.71-1.17-1.08-2.47-3.24-3.03-5.14l16.05-16.11.26,2.81c.03.72,1.02,1.53,2.12,1.67Z" fill="currentColor"/>
  <path d="M631.66,879.83l-.37,2.07c-13.63,4.36-27.64,9.18-42.69,9.64l35.63-9.61,7.43-2.1Z" fill="currentColor"/>
  <path d="M392.58,111.23c-.15-.49-.95-1.23-1.25-1.23l1.33-1.35c14.3-3,27.68-9.45,42.8-8.96-15.04,4.24-29.1,6.88-42.88,11.54Z" fill="currentColor"/>
  <path d="M785.04,200.97l1.36-1.35,22.3,22.58,11.27,12.34c-4.59.37-5.45-3.7-7.58-5.9l-13.82-14.25-13.54-13.42Z" fill="currentColor"/>
  <path d="M235.65,237.99l-5.92,7.3-1.14-3.05c-.28-.76,1.94-1.57,2.7-1.97l9.83-10.59c-1.47-2.47-3.56-5.77-3.09-7.78.67-2.84,3.28-6.33,5.93-5.83-1.89,2.75-4.07,5.38-4.08,7.29-.02,2.41,2.66,5.24,4.55,5.57,3.05.53,5.69-1.25,7.65-4.9,1.49,4.55-2.41,6.67-6.47,6.76s-7.38,4.03-9.96,7.2Z" fill="currentColor"/>
  <path d="M391.32,110c.3,0,1.1.74,1.25,1.23-12.8,4.33-25.59,8.84-37.97,14.17l-1.28-1.71c9.87-4.29,32.85-13.75,37.99-13.7Z" fill="currentColor"/>
  <path d="M521.48,87.92l8.51,1.2-.09,6.01c0,.61-.42,2.86.13,2.79l2.41-.31-9.72,10.44c-1.1-.15-2.08-.96-2.12-1.67l-.26-2.81,4.93-5.8,4.31-4.73-17.62-.21c-.83,0-2.43-1.75-2.33-2.42s1.41-2.44,2.09-2.45l9.75-.05Z" fill="currentColor"/>
  <path d="M507.33,124.82l7.51,6.95c1.26,1.16.45,5-1.5,5.33l-8.96-9.03-3.78-3.82,2.87-4.28.84-.29c.56,1.9,1.86,4.06,3.03,5.14Z" fill="currentColor"/>
  <path d="M354.16,890.86l-.94,1.54-11.63-5.21c-9.42-4.22-18.77-8.24-26.69-14.33l39.25,18Z" fill="currentColor"/>
  <path d="M514.43,891.01l-1.76-.52c-.57-.17-1.67,1.04-2.28,1.52l-5.06,3.96c.35-.7-.75-2.87-1.52-3.9l-6.3-8.4,11.83,9.07,1.29-8.62,1.54-9.35c1.21,3.09,1.23,5.23,1.53,8.4l.74,7.84Z" fill="currentColor"/>
  <path d="M776.45,230.2l-.22-1.44,4.01.02c-.01.19.45.91.47.98.01.03,1.17-.31,1.51-.42.3-.1-.93-.48-.81-.44l2.55-5.76c.64-1.44-1.93-4.14-2.97-5.53.35.13,1.58-.55,1.82-.66,3.85,2.68,3.2,8.86.21,12.91l10.19,10.88,2.06,1.64c.46.37-.61,2.48-.91,2.65l-9.79-10.69c-2.04-2.22-4.88-3.93-8.1-4.14Z" fill="currentColor"/>
  <polygon points="635.38 431.58 670.37 431.44 673.59 432.23 669.37 432.58 603.38 432.58 603.41 431.58 635.38 431.58" fill="currentColor"/>
  <polygon points="285.88 823.91 284.63 825.28 282.59 822.82 281.73 822.84 263.54 808.47 256.3 802.24 257.52 800.89 282.74 821.62 283.33 822.05 285.88 823.91" fill="currentColor"/>
  <path d="M518.21,973.76c0,3.31-2.69,6-6,6s-6-2.69-6-6,2.69-6,6-6,6,2.69,6,6ZM511.73,969.4c-2.63.67-4.59,4.16-3.93,5.71.9,2.09,2.85,3.32,4.9,2.89,2.3-.48,4.38-2.61,3.76-5.04-.37-1.45-3.07-3.98-4.74-3.56Z" fill="currentColor"/>
  <polygon points="510.61 905.69 514.3 905.03 513.69 915.12 513.23 924.09 511.81 924.11 511.2 918.17 510.61 905.69" fill="currentColor"/>
  <path d="M213.59,793.96c.97.48,3.12,1.64,3.95,2.48l14.47,14.6-1.26,1.31-19.08-19.34,1.93.95Z" fill="currentColor"/>
  <path d="M918.57,541.65c1.32-.74,4.29.39,4.9,2,.52,1.36-.52,3.52-1.94,5.13-.97,1.1-4.08-.27-4.79-1.59-1.05-1.95-.42-4.29,1.83-5.55Z" fill="currentColor"/>
  <path d="M101.36,541.64c1.25-.72,4.2.31,4.89,1.92.57,1.31-.39,3.37-1.87,5.16-.92,1.12-3.56-.24-4.68-1.73-1.28-1.69-.72-4,1.65-5.35Z" fill="currentColor"/>
  <circle cx="103.04" cy="472.15" r="3.74" fill="currentColor"/>
  <path d="M782.8,216.96c-.24.11-1.47.79-1.82.66-2.42-.9-7.42-.25-8.44,3.08-1.12,3.67.45,6.47,3.68,8.07l.22,1.44c-5.37-.35-7.75-6.08-5.19-10.62,2.19-3.88,6.88-5.87,11.54-2.62Z" fill="currentColor"/>
  <polygon points="582.44 431.58 581.42 432.59 539.38 432.57 540.5 431.57 582.44 431.58" fill="currentColor"/>
  <circle cx="919.82" cy="472.13" r="3.65" fill="currentColor"/>
  <path d="M518.24,900.81l4.34-2.58-4.81-2.72,12.74,1.66c2.11.29,3.78.65,5.25,1.37l-10.45,1.36-7.08.91Z" fill="currentColor"/>
  <path d="M510.76,936.34c1.06-.55,4.04.68,4.37,1.72.39,1.21-.59,3.41-1.73,4.7-.84.95-3.58-.44-4.38-1.9-.67-1.24.38-3.81,1.73-4.52Z" fill="currentColor"/>
  <polygon points="670.34 430.58 670.37 431.44 635.38 431.58 636.41 430.59 670.34 430.58" fill="currentColor"/>
  <path d="M562.82,893.36c.98-.62,4.16.09,4.57,1.18s-.21,3.9-1.24,4.44-3.29-.22-4.73-1.07c-1.14-.67-.18-3.25,1.41-4.55Z" fill="currentColor"/>
  <path d="M511.07,904.52l-2.92-.23c-1.39-.24-4.6,6.35-9.93,7.67l7.34-10.85,5.51,3.41Z" fill="currentColor"/>
  <path d="M461.57,897.9c-.54.77-3.35,1.56-4,.91s-1.66-2.1-1.87-3c-.24-1.08,2.74-3.1,3.79-2.73l2.75.97c.76.27.11,2.72-.67,3.85Z" fill="currentColor"/>
  <path d="M518.59,894.38l-4.53-1.9c2.09-.74,4.2-2.16,6.17-3.51l7.35-5.04-8.99,10.46Z" fill="currentColor"/>
  <path d="M563.67,116.18c.91-.57,3.77,1.39,3.79,2.49s-1.14,3.16-2.04,3.88-3.06-.86-3.72-1.75.4-3.64,1.96-4.62Z" fill="currentColor"/>
  <path d="M510.68,854.45c1.11-.53,3.84.72,4.47,1.63s-.48,2.81-1.65,3.71c-.84.66-2.84,0-4.02-1.12-.97-.92-.01-3.64,1.2-4.22Z" fill="currentColor"/>
  <path d="M912.71,510.18l-11.87-1.96,13.4-2.67c-.07,1.06-1.53,2.27-2.81,3.34l1.28,1.29Z" fill="currentColor"/>
  <path d="M104.82,501.35c-.8-.62-2.74-1.42-3.7-1.17l.47-8.5.71-2.21c.1-.32,1.29,1.32,1.32,1.66l1.2,10.22Z" fill="currentColor"/>
  <path d="M103.87,516.73c.04,3.31.23,6.39-1.07,11.1-1.24-4.17-1.76-7.62-1.63-11.25l2.7.15Z" fill="currentColor"/>
  <path d="M457.7,117.07c.8-.52,3.89,0,4.24.89.42,1.07-.18,3.07-1.04,3.83-1.11.98-3.54,1.13-4.03.1-.54-1.13-.14-4.2.82-4.82Z" fill="currentColor"/>
  <path d="M922.05,500.89l-1.47-2.34c-.29-.46-1.03,1.95-1.56,2.09,0-3.85.06-7.05,1.52-11.31,1.36,3.96,1.66,7.51,1.51,11.56Z" fill="currentColor"/>
  <path d="M499.67,897.78l4.82,2.29-15.25-1.48c3.23-1.92,7.97-1.97,10.43-.8Z" fill="currentColor"/>
  <path d="M94.9,506.28l-2.15,3.36c-3.56-.05-7.31-.48-11-1.61l13.14-1.75Z" fill="currentColor"/>
  <path d="M112.18,509.45l-3.35-5.01c2.86,2.2,7.49,2.48,12.32,3.73-2.31,1.38-6.22,1.54-8.96,1.28Z" fill="currentColor"/>
  <path d="M516.43,903.98c.57-.28,1.22-1.29,1.58-1.85l5.73,6.28.53.66,2.43,4.19-3.67-3.36-.46-.49-6.14-5.43Z" fill="currentColor"/>
  <path d="M933.16,509.54l-.17-1.47c-.12-.76-5.07-.35-5.14-1.54l12.53,1.52c-2.64,1.46-4.93,1.62-7.22,1.49Z" fill="currentColor"/>
  <polygon points="504.73 527.32 503.37 528.57 501.2 525.54 502.36 524.5 504.73 527.32" fill="currentColor"/>
  <polygon points="639.52 199.78 637.26 197.98 637.28 196.78 639.27 195.64 639.52 199.78" fill="currentColor"/>
  <path d="M639.52,199.78l-.26-4.14-1.99,1.14c-.25-.25-.54-.45-.47-.7l.36-1.29,3.6,2.08c.8.62-.48,3.51-1.25,2.9Z" fill="currentColor"/>
  <path d="M932,509.47l-3.94.91c.84-.68,2.84-.98,3.94-.91Z" fill="currentColor"/>
  <rect x="166.98" y="287.87" width=".71" height=".71" transform="translate(-154.79 202.74) rotate(-45)" fill="currentColor"/>
  <path d="M796.46,808.91c-.3-.3-1.21-1.21-1.2-1.2.03.04.8-.72.77-.7l.42,1.9Z" fill="currentColor"/>
  <polygon points="698.35 433.59 691.32 433.58 691.34 431.62 722.24 431.7 720.71 433.33 698.35 433.59" fill="currentColor"/>
  <polygon points="746.33 432.37 740.77 432.64 740.22 431.79 745.78 431.52 746.33 432.37" fill="currentColor"/>
  <polygon points="497.26 516.69 498.65 516.51 497.76 519.53 455.45 462.42 456.51 461.29 489.85 507.11 497.26 516.69" fill="currentColor"/>
  <polygon points="582.44 433.59 582.44 434.6 536.48 434.57 537.51 433.56 582.44 433.59" fill="currentColor"/>
  <polygon points="529.48 432.58 530.44 432.69 535.48 434.57 512.5 434.59 502.5 434.61 497.72 434.96 495.43 433.73 527.45 433.35 528.38 432.47 529.48 432.58" fill="currentColor"/>
  <path d="M780.24,228.78l1.17.12c-.12-.05,1.11.34.81.44-.34.11-1.5.46-1.51.42-.02-.07-.48-.79-.47-.98Z" fill="currentColor"/>
  <polygon points="352.88 327.7 351.58 329.73 347.73 329.65 346.52 329.53 350.27 327.48 352.88 327.7" fill="currentColor"/>
  <polygon points="454.45 460.56 454.18 471.8 454.57 502.58 452.58 498.53 452.2 470.66 451.48 458.5 454.45 460.56" fill="currentColor"/>
  <polygon points="388.7 676.03 372.34 684.08 363.76 687.91 363.73 686.09 387.6 674.26 388.7 676.03" fill="currentColor"/>
</svg>
