<svg xmlns="http://www.w3.org/2000/svg" viewBox="0 0 1024 1024">
  <path d="M738.25,384.73c-4.28,7.04-6.58,17.35.63,21.83l2.02-4.02c.93,1.02,2.51,3.19,2.55,4.56.15,4.36-4.62,4.5-3.96,10.95l1.28,12.5c5.95-.72,8.58.25,13.74-.25l9.54-.92c4.23-.41,8.24.09,11.36-2.02-2.78-2.71-3.98-3.81-4.3-6.99l35.08,8.27c-1.67,1.26-2.43,2.44-3.35,4.75l4.41.12-5.93,2.25-28.95,6.92c-.62-1.39-.67-2.87-.06-3.42l3.72-3.41c-4.59-1.31-7.69-1.04-12.45-1.1l-21.81-.27c-.87-.01-2.16,2.78-1.53,2.74l3.05-.19c2.4-.15,6.33.44,7.57,2.62,1.04,1.83-.28,5.56-1.19,7.56.5,1.13,2.02,3.62,1.46,4.6l-2.41,4.21c.9,3.18-.37,6.71-2.1,9.62-.62,1.05-.16,4.74-1.19,5.35l-4.3,2.53c-8.33,4.9,11.97,18.19-4.92,21.33-3.51,2.83-2.23,9.77.19,13.55,3.98,6.22,6.59,12.66,6.97,20,.62,12.17-1.79,23.19-7.31,33.79-8.1,15.6-15.16,24.49-28.42,35.44l-1.58-1.55,17.32-17.57c.15-4.72,2.63-7.35,4.83-11.03l1.76,2.35,5.47-10.21c.14-.26.75-1.61.73-1.61l-1.89-.77c.9-8.87,5.12-11.1,6.11-16.77,1.75-10.07,1.11-20.24-5.27-28.08l-2.72-7.76c-1.73-4.94-2.96-9.16-1.53-14.25l2.09-1.13c1.8-.38,3.99-.92,4.14-2.23.21-1.91-1.71-4.3-3.47-4.74-3.91-.98-5.16-.35-7.76,1.87-3.54,3.02-8.15,5.58-6,11.16l5.74-7.87-.44,4.5c-.54,1.2-1.68,2.72-2.82,3.67l-2.29,2.06-1.79-.72c-1.71-.69-2.26-7.16,3.81-12.72,1.44-1.32,2.61-3.43,3.84-5.98l-3.62-.53.1-1.09c2.83.5,4.16-2.8,6.39-6.29l-1.4,10.54,3.93-2.31,5.84,3.56.13-9.63-9.03-3.59c-.8-.32-2.5-2.23-2.01-2.8l1.88-2.22c-1.04-.37-2.82-.85-3.05-1.61l-1.24-3.9c-2.85,2.63-5.19,6.43-9.77,4.7,8.22-2.7,12.88-9.61,12.21-18.45l8.71-.47c2.79,2.11,5.01,3.4,8.82,4.09l-6.83-10.6-15.85-.07-.24-1.82,5.52-.99-28.09-.26.05-.91,22.36-.26,1.53-1.63-30.9-.07c-3.98,0-8.31.59-12,1.95h-9.99s.03-1,.03-1l4.22-.35-3.21-.79-.04-.86h56.32c-.05-4.97-.35-11.32-3.59-14.71l1.36-3.72,9.58,4.89,2.06-2.24,3.95-3.56c.02-.29.13-2.21.13-2.19-1.78.21-3.73.29-4.96-.12l1.67-.58c.3-.06.18-.47-.08-.63l-2.28-1.49-4.22-3.57-.28-2.12c2.13-2.82,2.7-6.59,2.72-10.8l4.69-5.56-.66-.72c-.58-1.44-.4-2.16,1-.7l.18.65.33,1.31ZM732.17,425.97c-2,.21.3-1.95.85-1l3.76.63c.64.11.61-2.14.62-3.14,0-.82-.67-3.46-1.23-2.97l-2.6,2.29-6.05-4.67,2.23,18.56,8.94-.27c-.73-3.29-2.12-3.58-6.24-6.27l6.3-.13-6.58-3.03ZM791.32,431.73l10.08-1.8-25.56-6.1c1.97,4.38,5.49,4.35,9.39,4.95l6.08,2.96ZM802.27,433.11l-14.91-.57-5.43,2.19,4.49-4.06-5.16-1.45c-3.56-1-6.56.21-10.71,2.87l9.21,2.93-3.92,4.63,26.43-6.53ZM763.75,430.58l-.5.5.5.5.5-.5-.5-.5ZM726.12,432.19c-2.33-.22-2.16-.2.43.04,1.06.1.67.06-.43-.04ZM746.33,432.37l-.55-.85-5.55.27.55.85,5.55-.27ZM762.26,431.58h-13.49v1h13.49v-1ZM747.56,439.82c-.86.55-2.39,1.58-2.55,1.6-.08.01-1.07-1.08-1.27-1.34-.36-.47-2.75-.64-2.53-.09l1.09,2.74c.44,1.11,2.49,2.78,3.66,3.02s3.34-1.45,3.53-2.63c.16-.99-1.13-3.82-1.93-3.31ZM737.7,456.79c5.13,1.36,10.83-2.17,11.53-5.9.15-.8-1.66-2.8-2.17-2.33-4.58,4.24-12.61-1.95-20.43,5.29l11.07,2.94ZM735.98,458.07c-3.76-.83-7.43-1.4-10.36,1.57,12.84,7.11,24.7,3.34,21.72-.66-2.37-3.18-5.09.48-11.36-.91ZM739.07,471.36c1,.42,4.95-.93,4.93-1.93s-.08-3.58-.08-3.56l-10.94-1.25c-1.63-.19-3.87,1.01-3.74,2.59l9.83,4.14Z" fill="#ac967b"/>
  <path d="M636.09,187.3c-.35,2.16.37,5.25,1.08,7.49l-.36,1.29c-.07.25.22.45.47.7l-.02,1.2-3.7-1.19-2.94,13.02-.46,11.46-1.66,1.15-1.85-6.82c-.33,4.69.08,8.2.54,12.12l-2.07.11c-1.12-6.73-.86-13.52.59-20.61l2.06-10.11-33.56,41.6-92.41,116.77,7.89,5.1-1.28,1.15c-1.8-1.7-5.08-3.53-7.92-3.92-1.8-.25-4.62,4.77-3.53,5.82,3.64,2.3,7.26,5.27,7.48,9.01l-2.02-.11c-.32-3.25-4.34-6.32-7.5-8.16l-14.31,17.67c-1.56,1.93-2.96,5.96-3.84,7.98-7.72,5.66-1.48,17.2-9.09,17.93l-1.17-1.21c7.42-4.54.4-11.85,9.19-18.99-2.52-1.55-4.86-2.1-8.19-2.83l7.07-.32c.95-.06,3.65-1.03,3.59-1.99l-.25-4.19-.23-3.97c-.06-1.01,2.15-1.78,3.23-2.16l3.53-1.26c3.03-1.08-7.83-12.82-8.92-22.16,4.1-7.54,5.03-14.21,3.44-22.54-1.21-6.35-2.71-12.65-6.47-17.7l2.13-2.77,2.46.03c.27,0,.15.53-.09.64l-2.49,1.22c5.69,9.42,7.87,21.7,6.72,32.62-.23,2.16-2.62,5.77-3.5,7.63-.15,10.44,9.71,15.01,8.85,23.73l6.77-8.68-2.98-3.58,3.83,1.97c1.02-.54,3.57-3.88,3.34-5.18l-6.83-5.65,1.71-2.86c-1.55-5.99-1.55-12.76.32-18.76,2.67-8.54-.76-16.85-9.09-20.55-2.02-.9-3.35-2.85-3.19-4.75,3.88.23,4.89,3.87,8.84,5.5,2.66,1.1,5.94,2.97,7.37,6.41,4.11,9.85,3.66,12.17-1.76,23.41-2.9,6-.8,13.27,5.11,15.79l120.71-152.44,6.03-7.12c.16-2.44.52-3.94,1.24-5.53l6.02-.17-.22-2.44c-.06-.61,2.31-.02,2.28.2ZM492.82,336.55c5.16-5.18,4.38-11.58,3.27-16.92l-3.27,16.92ZM484.66,374.45c-.96-.86-3.78-.5-5.02.72-.82.81-.64,2.25.16,4.77l4.87-5.49Z" fill="#b5a283"/>
  <path d="M720.62,314.44c2.8.81,4.39,3.45,6.11,5.94l-2.22-.88c-.38-.24-1.12.49-1.5,1.2-1.47-1.43-3.93-2.7-7.49-4.4l9.47,20.7-.49-8.31c-.02-.39.09-1.63.17-1.98.12-.53,1.53-1.16,1.74-.66,1.41,3.39-1.21,7.92,1.01,9.65l5.24,4.07.64-.6.14-.65,2.59-1.59,1.05,3.12c.15.43.51.1,1.65-.52,5.41,13.37,7.2,32.58-.48,45.2l-.33-1.31-.51.77-4.69,5.56c-.02,4.21-.59,7.98-2.72,10.8l.16-8.18c-5.29,5.07-4.7,12.21.22,17.19l5.69,5.23-2.06,2.24-1.46-2.71c-2.81-2.68-5.18-5.54-6.96-8.55l-.16.37-.88,2.56c-2.95-3.53-4.91-8.57-3.98-12.75l4.07-18.3.59-2.6c.08-.35.82-.21.89.14l.66,3.26c5.56-10.49,1.07-28.35-3.91-41.24-.52-1.35-2.45-3.22-3.49-4.19-.27-.61-.64-1.46-.67-1.6-.03-.12-1.56.25-1.42.72l-.33-1.16,2.14-1.9c.32-.36-.78-5.42-4.45-6.99l-9.52-15.12-9.8-11.56c3.44,2.12,5.9,4.67,8.92,7.41l2.36,1.81c.5.38.21,1.92.24,2.65l6.06,8.04c.55-.67,1.99-1.99,2.61-1.59l2.27,1.43,1.98,1.25c.36.23.71-1.44.86-2ZM733.04,341.24c-.8-.19-2.9-1.53-5.79-3.47.41-.67-.62,1.02-1.33,2.17l10.17,9.57,1.46,1.71c.23.26.52.26.59-.11s.22-2.52.05-2.85l-4.37-8.5-.78,1.47ZM734.1,353.88l-5.89-8.06,3.71,18.2c1.25-2.95,2.25-7.63,2.18-10.14ZM737.46,369.45c-.24,2.57-.1,5.2,1.01,7.32,3.04-5.05,3.95-11.43,1.4-16.56l-4.22-2.43-1.57,6.06c-.54,2.09-.34,4.07,1.17,6.62l2.85-8.02-.64,7.01ZM731.73,368.71l-1.37,7.03c-.26,1.31,2.64,3.21,4.04,3.84,1.95.88,3.65-5.26-2.68-10.87ZM731.84,379.91c-2.48-2.67-2.56-1.83-3.36-.66-1.96,4.17-3.25,6.42-4.13,11.15l7.49-10.49ZM737.74,382.76c-1.4-1.46-1.57-.74-1,.7l1-.7ZM725.05,405.06l1.13-13.63c-4.92,3.15-5.28,10.53-1.59,14.21l.46-.59Z" fill="#9d8e78"/>
  <path d="M594,916.3c-3.11-.03-2.53-1.19-.75-2.04l44.01-11.4c57.69-17.77,110.11-50.47,155.04-91.52-1.96,6.33-7.62,9.58-12.34,13.63-53.46,45.84-115.39,77.63-185.96,91.31Z" fill="#b09e7f"/>
  <path d="M667.14,795.3l1.26-1.16.91.64.6.47,7.66,3.86c7.31.63,17.12-5.14,16-11.03,8.76-4.82,15.89-15.59,11.28-26.06-.67,7.42-2.95,14.05-7.93,19.88-6,7.05-15.27,9.47-24.53,8.04,2.83-3.3,3.61-7.62,2.28-12.03-1.83-6.08-6.64-10.27-12.78-12.33-11.64-3.89-24.44-.32-33.32,7.69-7.69,6.94-9.7,14.96-9.81,25.85-6.73-16.29,11.04-34.54,26.63-36.63,10.58-1.42,19.27-.21,26.64,6.98,4.95,4.83,6.42,12.25,4.24,18.65,10.69.9,18.78-5.39,23.61-14.58,3.38-6.43,3.79-15.75-.35-17.51-.48-.2,1.74-.92,2.19-.62,3.89,2.57,7.3,9.94,6.59,14.97-.85,6.1-3.56,9.76-8.54,15.85,4.79-1.25,8.71-3.85,13.28-6.44,10.33-8.47,15.83-21.38,15.24-34.55l.8-3.16c4.33,21.18-10.73,43.31-32.68,47.03-2.48,7.85-9.16,11.47-17.14,11.26-4.1-.11-8.23-1.31-10.01-4.44l-.42-.74-1.71.08Z" fill="#ab9b80"/>
  <path d="M275.69,391.58l-4.04,2.17c-21.79,4.62-33.8,14.12-39.34,36.19-.63-4.23.43-7.01,1.46-12.07l-13.6,9.17c-7.79,5.25-12.69,14.13-14.29,23.65-.71,4.2,2.24,8.09,4.32,11.36s-.11,8.51-3.13,10.78l-10.77,8.08c-6.09,4.57-4.1,13.65-.45,19.52-7.67-5.19-6.87-17.81.98-22.71,4.23-2.64,8.12-5.09,11.07-9.09,3.89-5.27-4.89-10.03-4.08-16.95,1.62-13.84,9.99-23.41,21.49-30.9l-12.96,1.32c-10.82,1.1-19.21,8.04-23.6,17.5l-.27-2.15c3.79-8.35,9.74-13.3,19.23-15.88l10.14-2.76.91-.35c7.81,1.53,14.2-2.72,19.22-8.54,9.74-11.29,23.51-18.02,37.71-18.34Z" fill="#95826a"/>
  <path d="M482.62,299.63l-3.1,2.2-5.37-4.97c-1.38-1.28-5.32-2.04-7.57-2.22-13.73-12.29-34.51.88-46.68,14.2-.89-2.47,1.12-2.99,2.32-4.34,8.26-9.29,17.58-14.65,29.95-17-3.63-1.85-7.56-3.66-10.52-3.64l-21.99.13-8.19.42c7.91-3.45,17.23,0,26.56-3.36-27.69-12.47-60.27-1.06-75.16,23.11l-1.26-.4,3.01-5.86c19.56-24.72,52.54-30.79,80.14-16.44,3.71,1.93,8.5,2.06,11.28,5.76,4.61.67,8.3,2.4,11.62,5.21,5.65.97,11.66,2.93,14.95,7.21Z" fill="#b09e7f"/>
  <path d="M262.62,682.16l1.07,1.6c-1.18,1.84-2.31,5.61-3.34,8.34-2.34,6.23,4.01,5.7,7.36,13.88,6.4-3.32,12.9-3.41,19.13-.91,12.23,4.92,20.19,14.07,24.78,26.45,1.24,3.35,1.2,7.43.93,12.23,7.86-2.18,13.2.51,17.09,6.6,4.58,7.17,5.47,15.7.1,22.54,2.57,3.58,3.47,6.94,5.09,10.36l-1.36,2.06-3.33-9.73-6.58.49c-.87.07-2.73-.26-3.43-.62s-.78-2.91-.04-3.2l2.43-.96-.58,2.56c-.58,2.55,9.57-1.67,9.66-10.69.12-12.33-11.67-22.23-17.51-17.82-1.16.88-1.29,3.86-1.55,5.82l-1.86,13.56c-1.78,5.55-2.38,10.8-1.21,18.34-1.76-2.63-2.93-6.83-2.41-10.29l3.67-24.38c1.95-20.66-10.6-39.34-30.89-43.06-7.81-1.43-12.83,2.99-17.87,8.26l3.85-6.6c-.67-3.54-4.52-6.79-7.81-8.89l-6.29-4-.53-.67-1.87-1.15-.5.56-.51,1.41c-.18.5-2.4.25-2.28-.28,1.25-5.51-2.85-12.13,2.12-15.36-.02,5.53,1.39,9.89,3.64,14.17l.47.62,5.66,1.94c1.55-5.49,2.46-9.51,4.72-13.18ZM248.86,691.8l-.76-2.63-.04,3.17.8-.53Z" fill="#8d7c66"/>
  <path d="M193.92,606.56l-2.15,7.63c-3.11,11.02.18,20.66,4.08,31.45-3.06-3.55-4.09-7.73-6.39-12.6-5.38,10.71,3.04,26.19,12.79,29.65,2.97,1.05,5.5,2.83,7.04,5,2.65-.83,6.49-1.38,10.66-1.51-5.56-7.88-5.4-17.16-5.24-27.11-3.61,5.16-2.97,10.84-2.98,17.43l-2.37-2.99c.2-6.09,2.05-12.55,5.69-18.84,3.16,10.13-.19,19.42,4.77,27.13,2.04-10.45,8.88-13.1,16.97-12.65v1.19c-3.88-.05-7.89,1.54-11.11,3.44-2.84,3.09-4.22,6.95-3.95,11.46-5.53,10.06-1.26,20.79,8.24,27.04-9.99-2.7-14.33-14.26-12.11-23.72-6.44-1.83-10.5,3.39-11.65,9.5-1.15,6.12,1.96,12.07,5.6,16.69l.59.74c2.87,1.84,8.34,5.41,11.96,5.63l11.58.7-10.25.57c-5.42.3-11.57-2.2-13.97-6.31-.21-.22-.6-.62-.62-.62-13.87-11.74-1.6-26.1-4.7-29.06-2.48-2.36-16.89-3.46-20.52-23.37-.79-4.36,2.31-9.34,2.54-13.54.51-9.24.6-17.65,5.18-25.24.33.54.46,1.83.32,2.31Z" fill="#867562"/>
  <path d="M284.63,825.28l1.25-1.37c44.92,32.71,92.82,55.36,148.28,66.79-.06.58-.7,1.17-1.68,1.74-34.9-7.48-67.76-19.14-98.97-36.01-17.34-9.6-33.35-19.69-48.88-31.15Z" fill="#94836d"/>
  <path d="M782.35,673.38c.67,13.03-9.29,24.7-23.11,24.87,3.47-2.22,5.82-5.66,6-9.93l-4.18,5.85c-2.43,3.41-5.71,5.32-9.97,5.96-5.06.77-8.91,3.29-12.77,6.1-9.12,6.63-13.34,17.52-7.72,28.11l-1.5,7.77-.8,3.16c-1.49-4.21-3.23-8.1-6.65-11.3-.85.13-2.48.4-2.44.83l.29,2.8,2.88,11.91c-3.85-4.33-5.92-12.37-4.15-17.7l-4.93-2.2.46-1.01c6,1.36,10.18,4.56,14.72,9.97l-2.94-12.5c-.47-12.3,12.91-26.08,24.85-27.75,7.4-1.04,14.03-9.48,14.51-18.85,3.73,5.12,1.82,9.51.05,15.87,10.31-2.14,15.79-13.07,15.43-23.02l1.99,1.06Z" fill="#a29279"/>
  <path d="M429.92,751.58l-10.71,8.31c-9.04,7.02-17.99,13.76-25.15,23.36,16.64,3.35,30.77,15.59,29.13,32.17l-3.48-10.45c-1.28-3.85-4.15-7.1-6.92-9.88-11.79-11.81-29.94-12.73-35.27-5.29-6.43,8.97-14.21,14.7-26.1,11.45-4.51-1.23-8.96-3.38-11.56-7.33l8.27,3.82c9.52,5.5,21.16,2.04,26.04-8.15,1.42-1.65,5.21-5.07,7.47-5.14l10.14-.3c3.54-5.3,7.28-10.99,12.64-15.23l26.12-20.63-.63,3.28Z" fill="#9a8972"/>
  <path d="M339.86,793.93c-3.07-2.13-5.15-4.97-6.4-8.63l1.36-2.06,5.04,10.69Z" fill="#9a8972"/>
  <path d="M433.76,746.44l.84-1.11-.84,1.11Z" fill="#b5a283"/>
  <path d="M537.3,190.86l1.5,11.93c.37,4.55.82,8.59-.23,13.13l-.06,23.87c0,.96.61,3.43,1.11,4.21l-2.99,2.96-3.69.68c-.88.16.13-3.5.53-3.96l.11-30.82c.35-2.67.36-5.35.2-8.03l-.82-17.24,4.34,3.27Z" fill="#c69c60"/>
  <path d="M481.24,818.62c-9.18-13.11-9.24-30.55-.16-43.73,1.95,2.55,2.57,6.15,2.37,9.34l-1.35,21.86c-.51,8.25,1.74,10.66,1.09,11.21l-1.96,1.32Z" fill="#a67642"/>
  <path d="M738.73,339.53c-1.14.63-1.5.95-1.65.52l-1.05-3.12c-1.69-5-6.2-12.07-9.3-16.54-1.72-2.49-3.31-5.13-6.11-5.94l-10.34-9.96-13-11.7-4.7-4.4-9.89-6.12-15.27-8.1c-1.44-.76-3.97-1.06-5.49-2.82-4.43-3.65-9.76-5.77-12.65-11.4l32.33,19.56c11.24,6.8,21.99,13.38,31.49,22.39,11.44,10.83,20.55,23.14,25.62,37.63Z" fill="#a7937b"/>
  <path d="M310.36,327.56l-2.05,5.68c-1.84,5.9.8,13.55,7.92,14.76l-.77-7.54c-.09-.88.96-2.65,1.76-2.96l4.38-1.81c4.8,5.74,11.41,5.53,18.44,2.27-5.23,6.25-14.2,4.48-19.17-.21-.6,4.29,2.33,10.21,6.96,10.66,6.1.59,10.14-4.39,14.6-8.13-1.72,6.94-8.21,9-15.08,10.68,5.02,2.91,10.8,2.38,16.04-.91,3.52-2.21,5.7-7.64,6.34-12.43.95.33,3.15,2.22,2.63,3.15l-1.94,3.46c-5.45,9.72-16.87,13.98-24.72,7.7-.88-.7-4.14-2.21-4.4-1.2l-.98,3.84c-2.4-7.06-13.23-4.33-14.51-15.57-.51-4.53.8-9.79,4.56-11.43ZM323.03,348.21l-4.94-9.88c-.59,2.52-.27,6.94.59,8.92.28.64,2.69,1.71,3.33,1.42.48-.22,2.21-1.01,1.02-.46Z" fill="#9a8972"/>
  <path d="M517.52,834.64l-5.07-2.35c22.34.73,39.05-19.65,35.72-41.1-2.37-15.23-14.52-28.47-30.19-30.15l3.2-1.74c18.1,4.14,30.62,20.66,29.72,39.2s-14.96,33.77-33.37,36.15Z" fill="#b59b77"/>
  <path d="M512.73,181.1l-6.4,1.13,2.19,2.15c-13.82-2.11-27.54,11.99-30.77,24.15-4.24,15.96,1.33,30.46,14.31,39.69,4.7,3.34,10.07,5.01,15.41,4.55l-3.98,1.55,3.05,1.75c-7.73-1.13-14.53-4.45-20.39-9.9-8.73-8.11-12.64-18.26-11.83-30.59,1.3-19.87,18.48-35.73,38.4-34.48Z" fill="#a38d72"/>
  <path d="M361.61,303.76l1.26.4c-1.86,3.02-3.31,7.27-6.28,9.52.05-.52-.03-1.87-.55-2.05l-2.12-.48-.1-1.26c-.04-.54,1.28-1.88,1.56-1.42l1.83,3c2.76-2.56,1.66-7.89-.81-11.15l-.89-2.97-5.97-1.32,2.8,7.49c.42,1.26.12,2.62-.98,1.21-1.66-4.43-3.45-8.09-6.55-9.77-3.59-1.94-8.13-3.18-11.71-.81-1.96,1.3-4.06,3.72-5.81,5.94l9.48-1.58c3.29-.55,7.41.75,9.44,3.07s2.8,6.5,2.04,9.17c-1.44-3.97-2.89-8.74-6.48-9.7-8.23-2.2-15.22,2.1-18.73,8.98l-1.97,3.19-.41-3.78,7.04-13.69,4.37-4.14,15.64.71c11.75.53,12.08,11.16,12.56,11.23l1.34.21Z" fill="#a39076"/>
  <path d="M797.2,622.38l1.75,1.06c-7.43,2.21-13.91,7.72-14.96,15.79-.51,3.96.14,6.9,4.2,8.91l-4.14.08c-1.46.03-1.89-10.42-15.5-11.64-4.85-.44-10.48,2.87-13.35,6.91-.31.09-1.21.06-1.3.38l-.73,2.54c-.99,1.51-3.01,4.39-2.56,6.06s2.13,4.37,3.32,5.39c1.27,1.09,3.49,2.34,4.91,2.28,1.69-.07,3.38-2.7,3.99-4.61.43.1,1.97,2.39,1.42,3.15-.44.61-1.42,1.59-2.52,2.5-2.28,1.89-6.64,1.03-9.01-.78-5.13-3.94-5.12-12.76,1.63-19.86,6.93-7.3,20.37-7.55,27.61,0,.39-8.97,6.57-16.55,15.24-18.16Z" fill="#a29279"/>
  <path d="M159.4,668.33l1.89-.88c13.15,31.8,31.88,59.35,51.34,87.23-23.58-25.63-39.38-55.91-53.24-86.36Z" fill="#856f59"/>
  <path d="M486.65,770.28l-1.16,11.89c-.04.42-.02,2.29.33,2.45l1.72.6c-1.85,6.72-1.15,17.05-.01,23.68l-1.85,1.03c-.33.19-.75,2.14-.67,2.51l1.63,7.4c.11.5,1.02,2.19.54,2.39l-2.16.99c-1.37-1.43-2.64-2.96-3.77-4.59l1.96-1.32c.65-.55-1.6-2.96-1.09-11.21l1.35-21.86c.2-3.19-.42-6.79-2.37-9.34,1.21-1.76,2.57-3.42,4.06-4.95l1.5.34Z" fill="#ae8049"/>
  <path d="M816.08,613.36l2.11.36,5.19.54c2.28.24,5.47,1.15,6.77,2.39l.66.63c6.06,5.83,7.01,15.22,1.59,22.31-3,3.92-7.7,6.02-12.67,4.04-4.03-1.61-8.24-1.28-12.69-.6,4.83-4.27,10.38-.44,15.41-.16,6.58.37,12.38-7.91,11.6-14.35-.47-3.88-2.53-7.47-3.87-10.57l-.48-.57-7.74-1.87c-3.82-.92-8.19,3.33-10.49,6.23l4.04,5.43c-2.26-1.26-5.12-3.75-7.07-3.75h-9.48s-1.75-1.05-1.75-1.05c2.6-1.37,4.32-3.35,5.81-6.16,7.11-13.43,7.84-31.19-.71-42.74-.5-.67-1.02-2.36-1.06-3.06,2.27,1.14,4.45,4.47,5.75,7.33,6.31,13.92,4.35,29.65-3.84,42.35l6.2,1.37,6.75-8.12Z" fill="#94836d"/>
  <path d="M796.37,564.1c4.63,1.49,8.97,4.05,12.96,7.34l-1.27,1.16-6.16-4.25-.75.57.08,1.52-5.25-1.96c-1.45-.6-4.33-1.15-6.02-1.22l6.4-3.15ZM800.73,567.94c1.05.04.99.03-1.24-.04l1.24.04Z" fill="#94836d"/>
  <path d="M530.62,251.26c-3.21,1.8-7.34,3.5-11.17,4.36l-2.06-3.88c-.36-.89-1.42-2.49-2.29-2.82l6.18-6.42c4.28-4.45,6.63-9.95,8.09-16.02.46.17.77,1.61.89,2.07l-1.59,7.15c2.35,7.74-1.2,15,.27,15.08l1.68.48Z" fill="#d9bb83"/>
  <path d="M846.42,702.93c-13.97,24.38-28.71,48.59-49.98,68.66,17.41-22.78,35.64-44.37,48.65-70.43l1.34,1.77Z" fill="#a7937b"/>
  <path d="M713.23,324l-2.06,1.01-10.12-14.01-7.5-8.39-8.07-7.03-17.59-13.36c-7-5.31-14.34-9.23-20.85-15.97,6.41,2.32,10.68,6.97,16.21,10.63,10.41,6.89,20.82,13.43,29.58,22.27l6.55,6.6,13.85,18.25Z" fill="#a38d72"/>
  <path d="M712.77,796.3c17.89-7.81,33.33-23.89,30.22-44.78-.83-5.61-4.66-9.32-8.13-14.47,8.87,3.47,11.31,13.12,10.36,22.61-1.67,16.63-14.94,33.26-32.45,36.63Z" fill="#9d8e78"/>
  <path d="M707.63,597.62c-21.17,17.47-40.96,23.67-55.04,35.07-.99.8-3.08,1.6-4.21,1.87,1.71-2.23,4.01-4.84,6.67-6.44l12.59-7.56c13.17-7.91,27.1-14.45,38.41-24.49l1.58,1.55Z" fill="#b5a283"/>
  <path d="M512.45,832.29l5.07,2.35c-9.69,1.25-19.5-1.25-27.4-6.99l4.72.4c-.23-4.66-1.44-7.98-3.38-11.82l1.26-.13c4.39,7.87,11.26,13.3,19.73,16.19Z" fill="#d9bb83"/>
  <path d="M320.66,309.44l.41,3.78,2.3,8.53.18,1c-4.05,3.18-5.29,8.94-1.95,12.93l-4.38,1.81-.53-1.83,2.04-.5c.47-.15-.56-1.68-1.01-1.86l-1.31-.54-1.64-4.15-1.02-2.93-.96-1.18c-3.26-4.02-4.93-9.23-2.73-13.88s5.77-8.58,11.72-7.63c-4.27,1.35-8.02,3.99-9.61,7.7-1.76,4.12-1.47,8.48,1.78,12.07l6.12-5.85c-.96-1.48-2.41-3.29-1.84-4.1l2.41-3.38ZM321.49,321.86l-1.5-1.82c-4.89,3.46-4.35,7.8-2.82,11.33l4.33-9.51Z" fill="#8d7c66"/>
  <path d="M736.58,719.16c-.26-6.22,5.82-10.98,9.88-13.5,6.53-4.07,13.27-2.48,19.81-.31,9.51,3.15,17.81-1.65,26.5-7.11-7.64,10.85-21.35,11.49-32.94,7.7-9.97-3.25-18.95,4.2-23.24,13.23Z" fill="#9a8972"/>
  <path d="M628.49,222.41l1.66-1.15c-.15,3.69,1.29,8.09,2.78,11.69.47-7.23,1.21-13.82,5.37-19.53-1.97,9.29-4.16,17.11-2.59,26.38.83,4.89,5,9.53,7.72,13.26l.48.66,5.44,5.85c-4.39.41-5.81-2.91-6.02-5.23l-.48-.53-2.99-1.65c-5.92-9.08-11-19.15-11.36-29.73Z" fill="#a7937b"/>
  <path d="M719.84,686.58c-.45,1.7-2.78,3.96-4.31,4.8-.52.28-1.12,1.35-1.32,1.9l-.53,1.5-2.31-.06c-.83.05-4.69,7.96-5.73,15.03-1.12,7.56,3.32,14,8.12,18.85l-.46,1.01c-5.48-2.44-8.85-8.89-9.68-15.65-1.33-10.82,6.12-24.51,16.23-27.37Z" fill="#ab9b80"/>
  <path d="M298.61,796.54c-9.44-3.98-11.73-14.33-13.31-23.02-2.03-11.13,5.42-22.39-7.26-37.3,6.94,3.89,9.43,12.68,9.2,20.36-.49,15.94-1.46,26.29,11.37,39.95Z" fill="#867562"/>
  <path d="M801.28,669.85l-1.92.12c.54-4.48-1.91-9.74-5.73-10.67-.64-.16-3.14.44-3.02.95l.69,2.91s-1.23.95-1.72,1.32c-1.14-6.78-3.27-12.11-8.39-15.98,7.55.39,6.5,9.6,10.26,9.03.71-.11,1.69-1.96,1.4-2.68l-2.87-7.09c-2.4-5.91-2.29-12.77,3.51-16.59-6.52,12.12-1.11,15.51,1.2,25.88,4.2,2.84,7.29,7.06,6.59,12.81Z" fill="#8d7c66"/>
  <path d="M591.61,761.33c-2.78,8.81-7.66,12.78-9.52,19.73,3.56,8.62,7.64,15.68,7.93,24.49-2.96-8.61-4.85-15.21-9.54-22.71l-4.36,17.09c-.82-10.5,3.67-19.69,8.43-28.63l5.85-10.99,1.21,1.02Z" fill="#9d8e78"/>
  <path d="M347.36,810.21l1.69-1c9.96,3.69,21.72-2.8,29.21-11.18,5.05-5.65,10.96-7.43,18.42-6.95,3.92.25,8.13-.2,11.11,1.98-8.99-.83-18.06-2.71-24.8,3.5l-9.35,8.62c-7.17,6.61-17.25,8.2-26.29,5.03Z" fill="#a29279"/>
  <path d="M487.53,808.9c.2,1.19,2.23,3.46,3.12,3.24-.05.37-.15.79-.03.99l.82,1.13c.15.23.14.61.12.88l-.08,1.09c1.93,3.84,3.14,7.16,3.38,11.82l-4.72-.4c-1.83-1.33-3.54-2.81-5.11-4.44l2.16-.99c.47-.19-.43-1.88-.54-2.39l-1.63-7.4c-.08-.37.34-2.32.67-2.51l1.85-1.03Z" fill="#c69c60"/>
  <path d="M521.17,759.29l-3.2,1.74c-7.59-.81-14.46,3.56-19.77,8.83l-3.83,3.37,5.99-9.55c-3.87.04-7.6.66-9.64,2.63l-4.09,3.96-1.5-.34c9.33-9.6,22.98-13.64,36.03-10.65Z" fill="#d9bb83"/>
  <path d="M252.8,385.84l3.01,1.71c-10.54.56-20.98,3.77-28.81,11.15-5.93,5.59-9.8,12-8.24,19.76l-.91.35c-4.89-17.44,19.07-32.82,34.95-32.97Z" fill="#94836d"/>
  <path d="M715.03,327.48l1.92,3.51.33,1.16,2.22,4.31,1.66,4.24c2.73,6.97,6.32,22.66,5.78,25.92-.09.53-1.63,1.26-1.76.73l-.65-2.79c-1.42-14.13-6.11-27.36-13.36-39.55l2.06-1.01,1.8,3.48Z" fill="#9a8972"/>
  <path d="M207.72,651.2c-7.62-6.04-11.95-18.21-8.91-27.82.91-2.88,1.48-4.21,1.33-7.07-.22-4.21.39-8.52,3.32-12.68l-1.38,12.79c.48,2.8.53,5.35-1.67,7.53-2.61,9.75,2.11,18.27,7.31,27.25Z" fill="#867562"/>
  <path d="M774.37,799.61c-3.47-3-2.89-9.52.23-12.03,1.36-1.09,5.42-1.36,7.31-1.65l7.83-7.63,1.43.25-7.28,7.7c3.82,3.48,5,9.26,1.4,13.2-2.27,2.48-8.04,2.65-10.92.15ZM785.95,793.71c0-3.43-2.78-6.21-6.21-6.21s-6.21,2.78-6.21,6.21,2.78,6.21,6.21,6.21,6.21-2.78,6.21-6.21Z" fill="#9d8e78"/>
  <path d="M818.19,613.73l-2.11-.36c5.18-11.25,4.28-25.13-3.2-35.64l-4.82-5.14,1.27-1.16c11.97,9.87,15.2,27.84,8.86,42.29Z" fill="#856f59"/>
  <path d="M219.93,587.39l-2.09,2.58,4.31,1.17c-6.48-1.04-10.2,3.06-15.38,6.85l4.41-6.15,5.44-2.29c-11.11.96-17.39,9.4-22.7,17,.14-.48,0-1.77-.32-2.31,5.93-9.84,14.95-17.47,26.33-16.86Z" fill="#94836d"/>
  <path d="M211.6,569.8c-1.15-.97-3.68-2.02-5.13-2.41-3-6.79-2.42-14.75,1.15-21l.17,2.23-1.78,8.32c-.56,2.61,1.14,7.12,2.45,9.58l.47-9.85c2.23-5.27,4.36-11.34,10.04-13.26-7.87,7.5-10.59,16.65-7.37,26.4Z" fill="#94836d"/>
  <path d="M263.26,740.11l2.95,1.33c.74.33.79,3.07.43,3.86-2.18,4.73-8.54,6.32-13.4,3.28-6.85-4.28-8.57-13.4-4.8-20.48l1,12.36c.47,5.8,7.42,9.31,12.24,6.97.94-.46,3.31-2.02,3.03-2.9l-1.44-4.41Z" fill="#8d7c66"/>
  <path d="M231.9,660.26l-1.41-.05c3.04-5.22,8.74-7.44,15.54-6.09-2.55-2.18-6.12-3.75-9.25-3.78v-1.19c4.5.25,8.51.61,11.68,4.29,2.8,3.25,3.51,8.65,1.12,12.82-.91,1.58-4.55,2.54-6.08,2.03-1.34-.44-3.54-3.29-2.59-4.28l2.42-1.57c.38-.25.03,1.66-.09,2.53-.21,1.54,4.99,2.12,5.33.61.57-2.51.3-6.89-1.18-8.08-5.17-4.18-10.35-1.86-15.51,2.76Z" fill="#9a8972"/>
  <path d="M738.16,826.62l-.99-1.91,25.43-20.24c1.53-1.21,2.16-3.01,4.39-1.17l-28.82,23.32Z" fill="#b09e7f"/>
  <path d="M231.9,660.26c-5.84,15.59-.21,25.05,13.91,33.07-7.34-.92-12.99-6.83-15.68-12.15-3.66-7.25-3.25-14.76.36-20.96l1.41.05Z" fill="#867562"/>
  <path d="M668.07,778.01c-11.6-11.15-28.32-10.13-39.83,2.5,5.51-13.53,34.18-16.51,39.83-2.5Z" fill="#9d8e78"/>
  <path d="M722.41,688.52l-1.35.73c-3.48,2.13-7.7,7.13-7.42,12.09l.86,15.08c.27,4.83,4.83,8.02,7.93,12.05-8.58-3.68-10.78-12.57-10.31-21.14.25-4.63.28-8.89,1.57-12.54l.53-1.5,1.32-1.9c1.54-.84,3.86-3.1,4.31-4.8l.33-1.24.58.95c.04.08,1.13-.29,1.48-.36.28-.06-.58-.37-.94-.94,2.85-.87,6.83-1.09,10.31.03,1.46.47,3.36,4.22,2.65,5.53-.63,1.14-2.96,2.85-3.57,2.76l1.87-4.52c.3-.72-1.85-1.88-2.64-1.72l-7.5,1.45Z" fill="#94836d"/>
  <path d="M515.1,248.91c.88.33,1.93,1.93,2.29,2.82l2.06,3.88c-4.51,1.01-8.71,1.07-12.9.45l-3.05-1.75,3.98-1.55,7.61-3.85Z" fill="#d8b272"/>
  <path d="M609.68,311.23c-.52,4.03-.73,5.7-1.8,8.8l-1.04-12.74c-.2-2.49.57-6.02,1.39-9.27l2.35,6.07c.58,1.5,4.37,1.78,6.32,2.55-2.8.85-6.95,2.53-7.22,4.59Z" fill="#beaa89"/>
  <path d="M753.93,657.85c-1.19-1.02-2.85-3.63-3.32-5.39s1.58-4.55,2.56-6.06c.39-.6.9-1.86.73-2.54.09-.31.99-.28,1.3-.38l5.44-1.64c6.39-1.93,13.73-.3,15.62,6.83-4.76-5.66-10.1-7.84-16.39-5.16-5.39,2.29-8.09,8.54-5.94,14.35Z" fill="#94836d"/>
  <path d="M294.72,731.21l-1.29.87c-3.07-4.59-7.69-7.48-12.99-9.81-6.5-.24-12.19.63-18.87,1.83,12.95-7.09,24.49-4.54,33.15,7.11Z" fill="#9a8972"/>
  <path d="M627.18,227.71c1.27,10.86,6.31,20.41,12.62,29.21l.06.77,2.12,1.13c.53.28.28,1.86.03,3.07l-2.7-3.53-.5-.59c-7.19-8.51-11.88-19-13.71-29.94l2.07-.11Z" fill="#a89577"/>
  <path d="M799.37,669.97l1.92-.12c-1.3,10.62-6.5,21.11-16.13,26.71,7.31-8.01,12.92-15.98,14.21-26.58Z" fill="#9d8e78"/>
  <path d="M217.56,504.8c-4.19,3.4-10.87,3.76-16.04-.75-4.3-3.74-4.38-12.18-3.08-17.56.23,7.38.66,14.97,8.18,18.42,2.44,1.12,6.96.3,10.94-.12Z" fill="#8d7c66"/>
  <path d="M248.19,503.75l-3.61.27c-3.59-10.07-15.81-11.52-21.03-20.19l14.8,10.22c3.49,2.41,5.77,5.39,9.84,9.71Z" fill="#8d7c66"/>
  <path d="M668.4,794.14l-1.26,1.16c-3.54-3.55-7.75-7.69-13.48-6.93-4.91.65-8.79,2.64-13.41,4.96,4.11-5.59,10.4-6.57,17.38-6.25,4.46.2,8.32,3.66,10.77,7.06Z" fill="#9d8e78"/>
  <path d="M240.79,799.11l-.22,1.31c-2.27-1.17-4.2-4.04-4.03-6.71.16-2.47,1.55-5.12,2.99-7.1l-8.15-8.46.86-.83,9.41,9.1c2.52-.25,5.7-.23,7.04,1.36-3.78-.48-7.62-1.06-9.84,2.02s-.49,6.79,1.95,9.32Z" fill="#867562"/>
  <path d="M349.06,809.21l-1.69,1c-8.66-3.03-16.87-8.57-18.52-18.72,4.22,8.19,11,14.31,20.21,17.72Z" fill="#867562"/>
  <path d="M807.25,433.51l-4.41-.12c.92-2.32,1.69-3.49,3.35-4.75l11.07,2.75c-4.32,1.75-6.88,2.2-10.02,2.12Z" fill="#9b825a"/>
  <path d="M692.58,288.38l-1.31,1.63-20.59-12.58c-1.52-1-3.09-2.36-3.26-3.27l15.27,8.1,9.89,6.12Z" fill="#beaa89"/>
  <path d="M222.15,591.14l-4.31-1.17,2.09-2.58c3.34.18,7.13,2.46,7.84,5.57.89,3.86-1.29,7.65-4.86,7.2,1.55-1.64,3.44-4.46,2.9-5.82-.48-1.19-2.42-2.86-3.66-3.19Z" fill="#8d755c"/>
  <path d="M211.6,569.8c2.33,1.96,4.89,4.68,6.75,8.09-6.15-.56-9.74-5.65-11.88-10.5,1.46.38,3.98,1.44,5.13,2.41Z" fill="#826a52"/>
  <path d="M212.38,443.85l-.95,8.73c-4.45-8.93,2.5-18.11,13.39-20.98-4.13,4.27-10.45,5.26-12.44,12.25Z" fill="#94836d"/>
  <path d="M822.77,489.44c-.48-2.62-1.51-5.43-3.07-7.39l3.04-6.2c1.04,2.37,3.35,5.25,5.01,6.24-2.64.86-4.34,4.21-4.99,7.35Z" fill="#c5a57a"/>
  <path d="M293.43,732.08l1.29-.87c5.61,7.56,8.1,17.1,5.28,26.18.13-9.43-1.48-17.69-6.57-25.31Z" fill="#867562"/>
  <path d="M724.43,412.15l-1.36,3.72c-3.81-3.99-8.5-8.5-4.58-15.06.93,4.52,2.53,9.6,5.94,11.34Z" fill="#856f59"/>
  <path d="M796.37,564.1l-6.4,3.15c-.92.39-2.67,1.56-3.43,2.23s.96,2.98,1.56,3.6c-.8.7-1.59,1.37-1.93,1.01-.45-.48-1.95-2.4-2-3.05-.14-1.92,2.26-5.36,4.01-6.29,2.41-1.29,5.72-1.43,8.18-.64Z" fill="#856f59"/>
  <path d="M280.94,719.08c-10.07-3.29-17.1-1.67-25.99,5.42,3.85-8.4,18.76-11.17,25.99-5.42Z" fill="#9a8972"/>
  <path d="M322.79,804.77c-8.47,1.31-17.96-.93-24.31-7.89,8.35,3.98,15.24,7.13,24.31,7.89Z" fill="#867562"/>
  <path d="M794.33,696.61c4.39-7.32,7.37-13.94,9.62-22.4-.09,7.66-2.25,17.16-9.62,22.4Z" fill="#9a8972"/>
  <path d="M221.03,763.52c2.17,2.64,4.32,4.22,5.42,7.87-5.14-4.58-9.6-10-13.99-15.34l1.38-1.26,7.19,8.73Z" fill="#856f59"/>
  <path d="M259.02,388.94c-8.33,2.33-14.19,7.56-19.08,14.94,1.69-8.59,9.39-12,15.87-16.32l3.22,1.38Z" fill="#9d8e78"/>
  <path d="M284.78,390.82l-1.86,1.51c-.64.52-2.52-.24-3.17-.74s-2.23-1.42-3.05-1.64l-7.11-1.96c5.67-.92,10.79.35,15.2,2.83Z" fill="#95826a"/>
  <path d="M259.02,388.94l-3.22-1.38-3.01-1.71,14.27-.13c-1.82,3.61-5.46,2.5-8.05,3.23Z" fill="#826a52"/>
  <path d="M208.5,474.37c5.91-3.95,10.54-7.49,13.09-13.98.55,7.46-5.96,12.66-13.09,13.98Z" fill="#8d7c66"/>
  <path d="M240.58,800.41l.22-1.31c3.03,1.54,6.41.84,8.56-1.93s.88-5.36-.76-8.98c4.29,1.85,4.17,6.96,1.8,10.06s-6.15,4.06-9.82,2.17Z" fill="#9d8e78"/>
  <path d="M257.13,319.3l-3.08-5.11,3.01-4.44,3.18,4.39c-.95.7-2.07,2.45-3.1,5.16Z" fill="#b5a283"/>
  <path d="M188.74,439.6c-.28,5.02.41,9.39,2.65,14.39-5.9-4.32-5.24-11.44-2.92-16.54l.27,2.15Z" fill="#826a52"/>
  <path d="M539.08,114.73l.06-24.68-.06,24.68Z" fill="#bba787"/>
  <path d="M782.35,673.38l-1.99-1.06c-.15-4.1-2.05-7.67-4.32-12.03,5.23,2.73,6.05,8.15,6.31,13.09Z" fill="#95826a"/>
  <path d="M716.95,330.99l-1.92-3.51-.39-5.38c3.67,1.57,4.76,6.63,4.45,6.99l-2.14,1.9Z" fill="#beaa89"/>
  <path d="M722.86,337.23l-1.71,3.48-1.66-4.24-2.22-4.31c-.13-.47,1.39-.84,1.42-.72.03.13.4.99.67,1.6,1.04.97,2.97,2.85,3.49,4.19Z" fill="#beaa89"/>
  <path d="M242.47,570.53l-.66-2.39c-.13-.48.47-1.43.68-1.84l-.02,4.23Z" fill="#867562"/>
  <path d="M347.62,412.53l-4.06.98,4.06-.98Z" fill="#95826a"/>
  <path d="M590.46,758.24l.96-3.21c-.04.99-.43,2.97-.96,3.21Z" fill="#9d8e78"/>
  <polygon points="192.47 455.04 193.15 455.04 193.8 455.06 193.15 455.07 192.47 455.07 191.82 455.06 192.47 455.04" fill="#826a52"/>
  <path d="M720.17,685.34l1.13-.34c.36.57,1.22.88.94.94-.36.08-1.44.44-1.48.36l-.58-.95Z" fill="#ab9b80"/>
  <path d="M721.07,689.25l1.35-.73-1.35.73Z" fill="#ab9b80"/>
  <path d="M165.83,290.91l-1.38-1.58,1.38,1.58Z" fill="#a38d72"/>
  <path d="M473.45,303.77l-.87-1.09.87,1.09Z" fill="#b5a283"/>
  <path d="M732.95,489.23l-2.09,1.13c-5.93,5-4.27,15.08,1.45,20.17l2.99,8.83-3.62.13.84-5.33-7.92-7.49c-.79-1.13-1.28-1.31-1.2.71l-1.28.3c-.05-.24.29-1.1.33-1.2.38-1.23.98-3.68.77-4.97l2.96,2.94c-2.04-7.83,1.15-15.8,7.98-19.82l-1.23,2.87c-.16.37-.32,1.51.02,1.71Z" fill="#9d8e78"/>
  <path d="M735.11,512.37l2.57,6.91c.54,1.44.59,3.7-.26,6.03l-.89-3.77-4.86-2.05,3.62-.13-2.99-8.83c-.54-1.6-.84-4.65.09-5.93l2.72,7.76Z" fill="#beaa89"/>
  <path d="M728.2,567.47l6.07-10.25,1.89.77s-.6,1.36-.73,1.61l-5.47,10.21-1.76-2.35Z" fill="#8d755c"/>
  <path d="M723.21,501.52c.2,1.28-.39,3.74-.77,4.97l-2.4-8.84,2.29-2.06.88,5.93Z" fill="#8d755c"/>
  <path d="M691.34,431.62l-.02,1.96h-11.99c3.69-1.37,8.02-1.97,12-1.96Z" fill="#9b825a"/>
  <path d="M735.18,408.93c-2.7-.9-4.54-3.56-4.9-6.27l4.22,3.57,2.28,1.49c.25.17.38.57.08.63l-1.67.58Z" fill="#9d8e78"/>
  <rect x="748.77" y="431.58" width="13.49" height="1" fill="#826a52"/>
  <path d="M726.55,432.23c1.06.1.67.06-.43-.04-2.33-.22-2.16-.2.43.04Z" fill="#826a52"/>
  <rect x="763.4" y="430.73" width=".71" height=".71" transform="translate(-81.12 666.32) rotate(-45)" fill="#826a52"/>
  <path d="M726.73,320.38c3.09,4.48,7.61,11.55,9.3,16.54l-2.59,1.59c-1.99-6.29-5.47-13.01-10.43-17.81.39-.71,1.12-1.44,1.5-1.2l2.22.88Z" fill="#8d7c66"/>
  <path d="M353.92,311.16l2.12.48c.53.18.6,1.54.55,2.05l-.84,4.39,6.93-4.95c.86,7.66-4.89,15.47-3.56,15.5l2.59.5c-2.49.89-5.92-.2-8.83-1.42l-2.61-.23.34-3.01c-1.39-6.21-1.62-11.84,3.31-13.32Z" fill="#95826a"/>
  <path d="M491.23,777.27l.33,2.01c-1.8.64-3.31,3.36-4.02,5.94l-1.72-.6c-.35-.16-.37-2.03-.33-2.45l1.16-11.89,4.09-3.96.48,8.4v2.55Z" fill="#c69c60"/>
  <path d="M491.56,779.28c-4.85,10.38-5.16,22.2-.92,32.86-.89.22-2.91-2.05-3.12-3.24-1.14-6.62-1.84-16.96.01-23.68.71-2.58,2.22-5.31,4.02-5.94Z" fill="#c5a57a"/>
  <polygon points="492.72 816.1 491.47 816.23 491.55 815.14 492.72 816.1" fill="#c5a57a"/>
  <path d="M323.55,322.75l-.18-1,4.25-1.31c3.28-1.3,8.61-1.3,11.2.64-3.37-.04-6.13-.18-9.31.43-3.4.65-4.83,4.16-5.45,7.15l-.52-5.9Z" fill="#9a8972"/>
  <path d="M316.69,335.67l-.28-2.9,1.31.54c.45.18,1.48,1.72,1.01,1.86l-2.04.5Z" fill="#9a8972"/>
  <path d="M491.43,814.26l-.82-1.13.82,1.13Z" fill="#c5a57a"/>
  <path d="M494.38,773.24l.22,1.1-2.02,1.97-1.36.96v-2.55s-.49-8.4-.49-8.4c2.04-1.97,5.76-2.59,9.64-2.63l-5.99,9.55Z" fill="#d8b272"/>
  <path d="M708.66,577.6l-1.7-1.14c8.99-12.6,15.35-27.09,17.11-42.97l.52-17.8c.86-1.35,1.38-3.32.88-5.24l5.98,12.97,2.03,4.92-4.13-3.19c.92,8.28,1.04,13.49.16,21.67l4.33-5.5-2.49-6.81,5.32-10.03c.88,6.37.49,10.1.03,16.21l2.34-5.19c.57,1.96-.13,5.94-1.82,7.61l-7.86,7.72c-1.67,1.64-2.38,4.83-1.75,7.77l4.54-5.17c.29-.33,1.83-.53,1.75-.1l-.41,2.1-4.64,4.07c-2.54,2.22-2.4,6.16-3.55,10.73-1.38-3.16-.74-6.15-.34-10.68l-9.57,16.9-8.46,11.57c-4,5.47-8.93,10.12-14.81,13.52,12.57-12.29,22.56-24.77,29.54-40.74,4.18-9.58,8.38-20.26,5.53-31.22-2.07,18.46-8.41,33.88-18.52,48.04Z" fill="#a7937b"/>
  <path d="M725.48,510.45c.5,1.92-.02,3.89-.88,5.24l-2.49-8,1.28-.3,2.09,3.06Z" fill="#8d755c"/>
  <path d="M512.5,434.59c-2.86.95-7.13.95-10,.02l10-.02Z" fill="#a38d72"/>
  <path d="M529.48,432.58l-1.11-.12,1.11.12Z" fill="#a38d72"/>
  <path d="M442.65,448.6v-3.08s.94,1.55.94,1.55c.26.42-.67,1.6-.94,1.52Z" fill="#9d8e78"/>
  <path d="M335.68,309.22c-5.42-.87-8.66,2.99-11.61,7.74-.29-5.32,4.17-8.7,8.85-9.71,7.02-1.52,13.04,4.28,14.6,12.57-3.5-4.5-5.44-9.58-11.83-10.6Z" fill="#9a8972"/>
  <path d="M350.61,324.47l-.34,3.01-3.74,2.05c-2.34-.22-6.64-3.15-5.29-6.47.64-1.59,4.67-1.1,5.97-.25l3.41,1.66Z" fill="#826a52"/>
  <path d="M439.55,417.55l1.11-5.83-1.11,5.83Z" fill="#b09e7f"/>
  <path d="M440.63,426.56l-1.09-3.96,1.09,3.96Z" fill="#b09e7f"/>
  <path d="M409.87,280.11c-15.44,2.55-27.09,9.77-36.05,23.85,4.91-14.68,19.93-24.27,36.05-23.85Z" fill="#a29279"/>
  <path d="M431.38,286.25c-13.41,1.48-24.87,6.57-37.63,14.8,9.19-9.87,22.82-16.26,37.63-14.8Z" fill="#ab9b80"/>
  <path d="M492.59,776.31l2.02-1.97-2.02,1.97Z" fill="#d9bb83"/>
  <path d="M777.62,790.4c.7-.63,3.4.49,3.59,1.45.24,1.27.03,4.2-1.1,4.51s-4.07-.6-4.42-1.72.8-3.22,1.93-4.24Z" fill="#b59b77"/>
  <circle cx="244.76" cy="793.49" r="2.99" fill="#a38d72"/>
</svg>
