<?xml version="1.0" encoding="UTF-8"?>
<svg id="Layer_1" data-name="Layer 1" xmlns="http://www.w3.org/2000/svg" viewBox="0 0 1024 1024">
  <defs>
    <style>
      .cls-1 {
        fill: #c1ab79;
      }

      .cls-2 {
        fill: #c5a66a;
      }

      .cls-3 {
        fill: #c2a973;
      }

      .cls-4 {
        fill: #bfa874;
      }

      .cls-5 {
        fill: #b59964;
      }

      .cls-6 {
        fill: #958160;
      }

      .cls-7 {
        fill: #a29370;
      }

      .cls-8 {
        fill: #836c3d;
      }

      .cls-9 {
        fill: #c5aa6f;
      }

      .cls-10 {
        fill: #b49e71;
      }

      .cls-11 {
        fill: #c6b07c;
      }

      .cls-12 {
        fill: #b8a37a;
      }

      .cls-13 {
        fill: #ab9772;
      }

      .cls-14 {
        fill: #c3b081;
      }

      .cls-15 {
        fill: #c8b17b;
      }

      .cls-16 {
        fill: #a0865e;
      }

      .cls-17 {
        fill: #a58d65;
      }

      .cls-18 {
        fill: #998767;
      }

      .cls-19 {
        fill: #b89f6b;
      }

      .cls-20 {
        fill: #b7a274;
      }

      .cls-21 {
        fill: #ab946a;
      }

      .cls-22 {
        fill: #b0a17c;
      }

      .cls-23 {
        fill: #c8af77;
      }

      .cls-24 {
        fill: #b8a071;
      }

      .cls-25 {
        fill: #bca36e;
      }

      .cls-26 {
        fill: #a58b61;
      }

      .cls-27 {
        fill: #cab37d;
      }

      .cls-28 {
        fill: #d1ab62;
      }

      .cls-29 {
        fill: #bb9759;
      }

      .cls-30 {
        fill: #af9c75;
      }
    </style>
  </defs>
  <path class="cls-27" d="M720.38,556.28c.91,1.62,3.19,4.03,4.54,4.24l7.35-4.1c-9.85,7.3-16.61,17.14-20.97,28.98-5.77,15.66-15.57,27.73-29.92,36.01-10.27,5.92-17.43,14.26-24.23,23.76l-17.16,23.98,4.39-1.81.08,1.73,7.69-1.95-17.12,9.03c-16.29,9.77-31.3,21.53-44.15,35.5l-8.4,8.64,1.2-5.14-2.61.06c6.99-12.16,8.66-25.96,6.76-40.15-1.51-11.3.62-22.67,5.2-33.29,3.27-7.6,7.5-15.48,13.4-21.4l20.35-20.45,11.16-9.21c-.4,3.11-1.87,4.31-3.83,6.6-3.97,4.62-7.16,11.07-7.3,17.63l-.65,30.4c-1.44,16.44-10.83,29.35-22.49,40.15-8.5,7.88-15.35,16.49-18.24,27.97,12.25-14.41,26.7-25.2,41.57-36.57l11.26-10.43c8.55-7.92,15.6-17.57,18.3-28.76l6.26-25.86c3.41-14.11,10.28-26.15,21.36-35.65s23.13-15.8,36.19-19.91ZM695.05,571.32l-3.95,2.77c-4.51,3.16-8.17,7.5-12.04,11.62l-3.09,3.3c-5.73,6.12-8.77,15.44-10.77,24.2l-3.75,16.38c2.17-2.47,4.9-6.47,5.34-9.31l2.17-14.11-.28,11.58c1.02-1.52,2.18-3.88,2.47-5.27l1.78-.83c.26-.19.67-.84.91-1.2l8.4-12.94,3.15-3.2c9.58-13.3,21.43-24.68,35.13-34.87-9.51,2.79-17.97,6.63-25.45,11.88ZM690.16,592.31l-.74.85c-.3.35.58,1.37.99,1.48-3.92,2.2-6.73,6.3-9.53,10.35l-5.65,8.16c-.25.36-1.6.78-1.56,1.21l.67,2.44c-3.79,2.4-6.3,8.02-8.23,12.31l18.14-12.85c5.22-3.7,10.28-7.73,14-12.97,4.83-6.8,9.96-13.87,10.98-22.13l4.59-7.08,6.94-11.16c-5.34,3-8.64,5.71-12.45,9.53l-7.01,7.01-11.15,12.85ZM602.49,646.31l1.54,9.32,5.29-16.44,13.16-31.55c-4.39,3.25-8.42,7.31-11.8,11.93-5.5,5.49-8.11,11.9-7.27,19.82-.44,1.66-1.16,5.39-.91,6.93ZM609.23,646.92c-.67,1.81-1.31,4.65-.63,6.6l-4.45,10.88c-.16.32-.38.59-.35.83.06.4.19,1.35.82,1.5-1.96,2.35-3.47,7.01-4.36,10.74l17.51-15.78c4.4-3.96,4.84-10.76,4.99-15.63l.45-14.74.2-9.03,1.67-13.17c-5.57,8.2-8.36,17.52-11.86,27.02l-3.98,10.79ZM595.64,643.41c-.35.48-1.31,1.61-1.44,2.19l-3.52,15.7c-.45,1.99.73,5.81,1.05,7.54l2.77,15.01c.93-2.04,2.15-4.74,2.03-6.24l2.79-5.27,3.23-12.87c-1.24-9.94-1.44-18.24-.57-28.41l-4.76,9.35c-.56,1.09-1.11,2.37-1.59,3.01ZM595.32,690.46l7.9-8.31c5.07-5.33,10.3-9.92,13.6-16.64l-5.94,4.3-9.24,9.76c-3.03,3.21-6.01,6.21-6.32,10.9Z"/>
  <path class="cls-26" d="M895.51,453.67c-11.51-85.16-44.73-162.04-103.59-223.8-4.69-5.68-9.55-10.77-15.29-15.54l-20.14-17.91c-55.89-45.79-123.77-73.53-195.24-81.74.17-1.59.23-2.72.64-2.64l2.07.4c76.45,9.02,148.23,40.59,205.77,91.87l31.02,30.89c24.63,28.36,45.05,58.61,61.43,92.6,17.29,39.63,33.07,81.85,33.32,125.87Z"/>
  <path class="cls-16" d="M466.75,881.27l4,.21c.77.04.97,1,1.76,2.87l-13.08-.99c-43.85-3.32-86.38-14.72-126.34-33.79-71.63-34.17-126.7-92.07-163.44-162.08-20.76-39.57-33.83-82.03-40.45-126.12-.15-.98-.04-2.34.09-2.95s2.6.68,2.66,1.04c5.29,40.23,16.83,78.13,33.98,114.86,36.63,75.81,96.98,141.59,174.61,175.97,40.1,17.76,82.12,28.7,126.21,31Z"/>
  <path class="cls-11" d="M685.38,754.93l-1.71,2.6c-3.72-.86-7.9,1.59-9.44,5.72-2.64,7.09-.55,15.85,6.11,19.97,7.27,4.49,16.05,4.12,24,.03,5.93-3.05,10.96-8.96,13.04-17.21,4.75-18.84-7.42-39.15-26.54-44.03-20.49-5.22-38.7,11.79-64.89,2.47-6.99-2.49-16.23-4.41-22.66-3.36l1.58-.56c.36-.08.03-1.14-.44-1.38.43-.33,3.92-1.5,5.23-1.19l24.1,5.82c3.18.77,7.15.5,10.62.44l-2.02-2.02,8.38,1.67c2.4.48,7.2-1.01,9.56-1.57l8-1.89c2.16-1.3,4.34-2.09,6.71-2.06l13.75.19c-11.3-4.47-22.42-6.88-33.36-7.45l2.99,3.39-3.99-2.32c-5.01-1.7-10.45-1.99-15.99-2.02l1.16,1.86-1.23.18c-4.51-1.28-9.78-1.47-14.1.42,3.56,1.56,6.32,2.38,8.4,4.98-10.17-4.46-19.05-4.58-28.16-.05-.2-.67-1.07-2.39-.63-2.83l2.91-2.86-4.57,1.27,13.44-8.73c10.59-6.64,23.77-9.2,36.26-7.7,22.86,2.75,47.84,20.49,61.61,38.14,6.91,8.86,9.22,19.98,7.05,30.54-3.26,15.78-17.91,26.43-33.52,23.24-10.31-2.1-17.83-11.59-16.19-21.63,1.28-7.83,7.57-13.52,14.56-12.1ZM634.33,702.16l-1.98-.18c-1.34-.61-3.68-.33-5.68.41-7.34,2.71-13.55,5.6-19.64,10.9l13.38-3.01,4.03-.8c4.44-.88,9.51-2.07,13.76-1.8l13.12.11c13.16,1.05,25.47,4.19,38.1,8.43-4.6-3.9-9.1-6.75-13.96-8.94l-6.87-3.1-4.95-1.94-6.34-1.86c-7.32-1.76-18.09-1.62-22.97,1.77Z"/>
  <path class="cls-27" d="M787.33,573.48l11.73.17v11.43s-1.54-4.31-1.54-4.31l-1.9-4.38c-.93-2.13-6.15-2.38-8.94-1.14-2.16.96-4.44,4.1-5.73,6.79l8.46-.5c3.68,3.3-3.19,8.66.04,10.88l.89-.57,6.8-4.11c.03-2.13,1.02-3.34,1.05.1l6.74.56-4.59,12.11c-3.23,8.52-6.61,16.71-13.94,21.82l8.39-1.8c-4.27,6.91-11.37,11.24-18.9,13.31-8.79,2.42-17.15-1.54-23.17-7.42-2.62,3.11-6.33,3.52-10.05,2.22l-21.24,20.56c-12.25,11.86-27.53,15.12-44.25,14.35l-12.64,1.14-8.51,1.36,3.47-2.07,2.96-5.98-5.26,1.42,17.04-17.07c9.99-9.84,30.09-15.58,45.11-14.95,6.75.28,14.29.16,19.8-2.69.81-3.57,1.76-6.85,3.31-8.86l2.03,1.36-2,3.71c-.65,1.3.42,4.82,1.89,5.76,1.38.88,4.16-.05,5.9-1.07l1.72-1c1.09-.64,4.08,5.51,7.3,2.92l15.7,1.66c-4.03,2.21-7.66.61-11.85.52,7.21,4.02,16.14,1.13,22.45-3.98-10.79.63-18.07-3.89-24.74-2.99l9.61,4.67-11.7-2.83.4,1.98-3.7-3.26,3.52-.51,4.13-3.33,1.29-.51c14.88-3.64,18.81-11.88,21.91-26.4l1.07-5.03v-1.07s.98-1.62.98-1.62c.28-.45-1.25-1.96-1.63-1.61l-1.61,1.49c-14.18,1.36-29.01,3.07-32.81,19.32,3.09-4.06,6.51-8.3,11.53-11.77l-10.6,15.15-.89-.03-.37-2.05c-.08-.41-2.77.06-2.74.48l.53,7.4-7.48,1.1c-10.05-14.15-3.26-29.96,10.88-40.42l-1.79,8.58,6.32-5.84c7.76-5.71,17.89-5.17,28.38-11.69l-.42,7.59c-.03.53,1.08.93,1.68.94ZM757.38,581.67l-3,3.88-2.27.87c-1.92,1.13-2.26,4.01-1.67,6.23l1.02,5.66,6.5-9.14c4.23-2.49,9.01-4.86,14.29-5.79,8.72-1.53,8.19-2.95,10.84-13l-7.29,2.5c-6.75,2.32-13.41,4.33-18.43,8.79ZM740.26,595.46l.31,4.02.39,8.78c.01.33.34,1.26.62,1.44l1.58.98,2.99,1.81c1.23.74,2.1-1.65,2.17-3l.34-6.23c.98-.04,3.19-.57,2.84-1.3l-1.46-3.05-.75,3.56-1.34-.37c-.32-.09-.57-1.16-.58-1.62l-.34-16.45-6.78,11.42ZM789.98,593.48l-2.68,7.03-3.88,11.14-1.48.45c-2.77,3.13-7.42,7.08-11.34,9.01l2.48.66c3.06,3.91,10.02,1.55,14.76-4.6l2.94-3.82c.94-1.3,3.05-4.01,3.63-5.57l5.85-15.62c.73-.34.24-1.89-.43-2.16l-9.12,2.37-.5.57-.23.54ZM695.24,634.32c-13.71,2.89-22.14,12.1-30.62,22.04l15.26-7.55c6.3-3.12,12.12-3.6,20.76-8.19,2.26-1.2,3.98-1.15,6.37-1.7,7.94-1.84,15.06-5,23.06-8.7l-12.04.15c-2.3.03-5.35,2.5-8.54,4.05.28-.74,2.09-2.53,3.67-3.8-7.03-1.1-15.42,2.23-20.1,8.52-.6.81-3.37,1.33-3.66,1.01l5.83-5.83ZM691.37,647.5l-4.23,2.94c-3.46.04-8.28,2.41-11.63,4.09l-4.8,2.41-9.27,4.97,13.9-.65c14.71.93,29.05-2.35,40.64-11.12l1.64-1.96c.34-.41-.88-1.15-1.18-1.32,4.19-.65,6.7-2.85,9.8-5.53,3.93-3.39,7.5-6.71,9.78-10.98l-32.81,13.04-11.85,4.11Z"/>
  <path class="cls-19" d="M503.53,302.74l4.6,2.5,1.61,1.48,7.9,7.95.89,1.09,3.76,7.93,1.27,3.03c.38.92.41,2.48.5,4.38.07,1.49,2.8,3.24,4.33,3.75l-.95.77c-.04-.13-2.36.61-2.05,1.01l3.15,4.05-.1,1.42-4.01-2.21-2.26,6.49-.65,2.51-3.03,2.78c-.77.83-1.8,2.85-2.08,3.98-1.36-.13-3.86.09-4.96.82l-5.21,3.48-5.62-.2-5.9,6.88-1.42-.09,3.25-6.05-6.05,1.46c-2.4-.94-4.87-1.07-7.08-.78-3.78.51-7.64,2.97-9.6,6.59l-1.32-.14,2.98-5.21c-3.02.18-5.6,1.4-7.72,3.29-7.25,6.44-8.76,14.39-6.15,24.27-2.72-2.46-2.78-5.71-3.44-9.24-2.18-11.66,7.75-21.77,15.36-21.97l11.16-.29c-6.45-8.3-16.07-10.1-26.41-6.7,2.04-2.39,4.81-2.83,8.41-3.75-3.27-1.56-7.48-1.77-11.35-.75l-15.42,4.07c3.19-2.6,5.35-3.64,8.58-5.27-10.11-4.4-22.15-3.42-30.62,4.68l.32-3.46c-1.69.98-5.19,2.92-6.33,4.58l-6.13,8.85c-.81-6.43,3.99-8.64,7.34-14.14l-7.37,1.94c-2.1-.41-5.21-.49-6.42.69l-3.84,3.77-2.08-1.7c-4.33,2.47-8.8,5.69-12.5,9.33l-2.64-1.9.52-1.75-5.16.54-1.15.46c-.3-.58-1.89-2.43-1.46-1.93l6.74-1.1c1.47-.24,4.95-.2,6.18-1.11,20.02-14.71,28.78-7.95,35.5-10.26l7.62-2.62c8.49-2.92,17.14-1.24,24.55,3.97,11.89-3.93,24.4,1.02,33.38,9.32s31.64,1.36,35.6-11.55c3.59-11.7-1.42-24.55-10.73-32.23l-9.25-7.87c.62-.05,2.36-.24,2.98.1Z"/>
  <path class="cls-15" d="M287.59,306.5l-.97,3.12-.9,1.72c-.32.61.21,2.23.88,2.35l1.07.18-.06,1-1.26-.06c-.31-.01-.88.63-1,.92-.93,2.18-.83,6.5.21,9.02,1.99,4.85-1.68,8.02,4.79,13.28l-1.54,2.17c-.32.45.41,1.78.77,2.59l4.03,8.73,1.03,1.28c2.44,4.32,5.1,10.15,10.15,12.62,2.77,1.36,6.86-1.01,10.09-1.45l-8.45,4.26c11.69,10.6,30.13,19.82,45.76,22.37l26.03-31.83,2.64,1.9-5.14,5.05c-.84.82-1.89,2.66-2.14,3.93l-3.17,2.74-2.63,1.72c-.44.29,1.7,1.31,1.68,1.68-2.68,1.69-5.38,5.21-7.6,7.66l4.62-.79-11.26,9.58,4.63-.26c-3.2,2.81-7.62,5.24-10.1,8.51l-10.47,13.81c-.96,1.26-.47,3.3-3.23,3.59l1.51-6.42c-4.11,3.53-7.42,9.33-6.6,14.66l2.4,15.54,3.95-9.05,1.98.31c-1.74,9.59-6.44,16.9-11.34,24.86l-16.79,27.26-9.32,11.69-1.39-2.29c2.38-1.93,5.42-5.89,7.2-8.89l13.47-22.66,9.24-15.7c2.1-3.57-.87-11.49-2.17-14.98-3.03.06-5.16.02-7.64-2.25l7.32-.56c-1.08-8.09,1.95-15.22,7.9-20.93l15.39-14.78c-21.05-6.13-37.77-13.32-52.24-29.37-11.01-13.5-16.25-30.14-16.32-47.73.39-.55,1.3-1.54,1.39-2l.45-6.85c.34-.13.94-.36.89-.34l.81-3.81,1.48,2.89Z"/>
  <path class="cls-21" d="M540.27,321.45c-1.45,2.22-4.82,4.89-7.76,5l-8.96.28-1.27-3.03c4.63,1.67,9.54.95,14.23-.83l3.76-1.43Z"/>
  <path class="cls-21" d="M562.61,330.55l-1.84-1.94-.76,3.29c-1.92-9.05-6.28-17.28-12.14-24.63-1.25,6.63-3.02,11.09-7.6,14.18,2.49-4.32,5.96-8.9,6.04-14.73.03-2.27-3.93-6.09-5.41-6.48l-1.62.33c.36-2.89-3.04-6.22-5.68-5.53.82,10.94-6.27,17.06-15.07,20.74l-.89-1.09c7.35-4.39,14.85-9.93,14.77-19-.03-3.3-4.47-5.75-6.84-6.87l-7.28-3.44c1.9,11.22-3.67,14.88-8.56,21.36l-1.61-1.48,3.71-4.28c3.9-4.15,6.69-9.75,5.27-15.86l-9.41-3.54c-.51-.19-1.86-.17-2.09-.14l-3.83-1.84c-1.17-.56-3.72,1.99-4.08,3.24l-3.76,12.87-.19.44,9.78,6.62c-.62-.34-2.36-.15-2.98-.1l-25.95-12.02c-14.05-6.51-27.21-13.92-37.57-25.16-6.67-8-11.93-15.98-15.36-25.33.52-.47,1.42-1.3,1.4-1.25-.02.05.99.83,1.31,1.08,11.72,15.6,28.04,25.47,47.01,29.92l32.25,7.72c28.25,6.77,52.17,24.97,58.97,52.94ZM429.08,248.77l-.02.65v.67l.02.65.02-.65v-.67l-.02-.65ZM437.84,260.23l.18-3.67-7.8-5.54c1.73,4.53,4.1,7.3,6.7,9.86l.92-.65ZM443.94,263.02c.09-.8-.91-2.47-2.06-3.4-1.03-.82-3.11-.08-3.81.91l-.66.83,3.46,4.56,2.2-2.11.87-.79ZM443.45,264.23l-.79,3.23,6.15,5.95,3.99-7.1c-2.46-2.23-5.83-3.74-8.65-2.8l-.7.72ZM459.62,269.97c-.87-1.31-3.68-2.63-5.38-2.18-1.34.35-2.94,3.16-2.96,5.04-.04,2.91,3.75,5.24,5.69,4.79,0-2.38.59-5.55,1.81-6.83l.85-.82ZM459.38,271.3c-.71,1.93-1.39,6.73-.33,8.56l9.33,4.87c-.74-4.57-.04-7.73,3.09-11.88l-5.42-1.98c-1.74-.64-4.59-.84-5.94-.52l-.72.94ZM475.84,288.55c1.3-6.24,2.4-9.34,4.3-13.68-2.49-.67-6.06-1.5-7.47-.78-3.08,1.57-4.26,10.31-1.98,11.59l5.14,2.87ZM493.31,295.21c.36-5.53,1.43-10.04,4.28-16.13-1.85-.97-6.13-1.54-8.16-1.14l-3.25,7.7c-.37-3.85.76-5.61,2.26-8.84l-6-1.31c-2.73,3.48-5.17,7.54-4.78,12.29.2,2.46,5,3.83,6.99,3.57,2.61,2.12,5.23,3.45,8.26,4.53l.41-.66Z"/>
  <path class="cls-25" d="M403.31,596.32l1.66,1.19c-3.2,10.92-4.06,22.78,1.27,34.02l.55-10.29,1.61,9.19c1.04,4.04,2.83,8.35,5.33,11.05l1.12-.79c-2.73-11.69-1.3-24.34,4.44-35.63l2.25-7.72.45,1.99c.04.25.78-.93,1-1.03l.87-.36,7.5-11.6,1.42,2.37-4.74,8.14c-6.25,10.74-12.11,21.67-11.26,34.54,1.54,23.17,19.78,34.74,4.79,50.88-5.58,6.01-4.13,14.11-2.98,22.34-6.46-9.9-2.7-20.59,4.47-28.8,4.33-4.96.36-13.18-1.5-18.02-2.57-6.68-5.13-10.88-10.54-15.15s-8.76-11.66-10.22-18.23c-.78-3.53-1.56-6.12-4.01-8.35l-12.42,32.35c-.54-.21-1.39-.45-1.47-.94l-.55-2.2,6.65-16.66c1.99-4.98,5.17-11.64,5.11-16.92-.91-7.94-2.87-15.29-1.47-23.37,2.28-13.12.13-25.91-8.19-36.14l1.12-.72,4.43,4.49c6.81,10.17,7.72,21.64,5.77,33.51-.54,3.28-.13,7.37.28,11.13l3.77-13.2c.82-2.86,1.4-7.65,1.32-10.54l-.25-9.61c7.03,17.83-7.36,33.42-1.79,47.35l4.21-18.27ZM415.19,643.08l-.11-1.18c-.1-1.12-.1-1.1.11,1.18Z"/>
  <path class="cls-3" d="M498.57,400.49l.3-.91c4.16,2.52,10.92,1.46,14.98-.46l.78-1.7c4.65,1.06,9.59-1.16,13.73-3.43l-4.94-1.11.05-1.51c6.18,1.69,12.08-.01,16.15-4.6l2.1-2.05,9.9-9.86c.7-.69,1.54-2.78,1.93-3.68l4.58-10.52c.43.15,1.47-2.28,1.8-1.87l1.59,1.93c-2.19,6.68-5.55,13.34-10.1,18.67l-1.96,2.3c-7.13,8.97-17.35,15.3-28.45,18.35l-1.14,2.03c-.2.36.29,1.11.55,1.84-14.72-1.93-28.71,5.26-40.47,13.78-4.92,3.56-10.72,5.5-16.42,4.57l9.84-3.65,19.34-12.56c-10.26-3.06-13.55,5.64-21.8,4.46-14.54-2.08-25.34-13.24-25.47-27.76-.06-6.76.88-12.79,5.39-18.19-5.47,1.83-9.71,2.36-14.42.48,7.31-.17,13.26-1.45,18.82-5.71,4.09-3.14,9.09-6.2,14.84-4.43-7.83,2.15-13.88,5.92-17.64,12.68-5.47,9.85-5.4,21.09,1.56,30.07,6.05,7.81,17.07,13.03,26.74,8.42-5.95-.45-11.95-.81-15.1-5.29l11.67,2.61c1.66.37,5.24-.78,7-.79l15.09-.05-.83-2.02Z"/>
  <path class="cls-29" d="M498.74,104.05c8.83,9.46,23.7,6.91,27.77-.22,1.03,2.76,1.13,5.68-.37,7.55l-1.56,2.1c4.91,3.43,8.89,7.28,10.85,12.51l-3.89,1.81c-1.59-.32-2.17-.43-2.31.22-3.3-7.76-10.24-12.22-19.12-11.17-7.01.83-14.64,7.09-14.9,14.91-.25,7.4,1.86,13.19,7.03,17.09,4.82,3.64,11.99,3.57,17.18,2.37l5.81-.17c.66.38-.57,3.32-1.58,4.86-.51-.04-.91-.1-1.13-.03l-1.91,1.06c-14.13,4.29-28.28-3.47-31.76-18.61-1.46-9.56,3.36-19.15,12.15-24.33l-6.61-6.97.64-3.88c.15-.88,3.11.24,3.72.9Z"/>
  <path class="cls-23" d="M520.43,403.9c-.27-.74-.75-1.48-.55-1.84l1.14-2.03,4.24,1.74,13.84,4.24c5.7,1.75,11.61,2.24,17.31.72.81-.51,1.93-1.19,2.13-.73l1.14,2.66c-5.31,7.1-11.24,12.67-18.4,17.75l-13.18,12.87c-3.9,3.81-10.04,5.88-15.13,7.67-9.4,3.3-18.57,1.45-26.28-4.69-2.1-1.38-4.87-1.25-6.58-4.7,11.16,2.18,18.21,12.17,31.46,6.49l-4.11-2.59c6.79,1.94,15.17,1.35,17.16-5.08,2.51-1.63,5.22-3.94,8.18-6.5l21.5-18.59-15.71,2.08-10.88-1.23c-9.02-1.02-18.95,1.13-24.26,7.99l3.51-.36c5.43-.56-5.36,1.88-9.5,7.42l5.16.85-9.35,3.36c-4.12,2.41-8.58,3.51-13.56,3.43-1.05.65-1.65,4.57-.83,5.72,1.65,2.31,8.85,2.96,6.77,4.36-.46.31-2.08,1.19-2.63,1.21-3.95.19-8.97-6.18-7.94-10.23,1.61-6.34,12.03.31,21.22-12.66,6.05-8.55,14.5-14.92,25.63-14.19l19.84,1.3c-7.01-2.75-14.29-5.52-21.32-6.45Z"/>
  <path class="cls-4" d="M301.82,496.76l-8.2,6.78c-.88.73-2.33,1.93-2.9,2.82-6.28,9.69,3.03,15.16,3.51,25.44-3.42,2.38,1.41,9.47,3.59,9.53l11.62.3c10.45,3.39,20,7.02,30.8,7.41,7.71.28,20.96-6.05,24.01-15.02l11.54-3.29c7.86-2.24,13.95-5.62,20.83-10.6-4.26,6.98-11.43,10.09-18.93,12.41l-11.17,3.46c-3.13,4.79-5.83,8.02-9.9,11.34l4.99-.8-3.09,1.55,3.05.48c-5.84,1.69-10.74,4.96-15.31,9.43-5.8,5.68-14.9,5.29-22.08,2.98l-10.16-3.27c-4.8-1.55-9.66-7.38-9.88-12.89l-6.97-.57c-10.48-7.37-5.72-17.24-8.84-22.15-4.64-7.29-2.98-15.38,3.45-20.6l8.65-7.03,1.39,2.29ZM320.03,556.81c14.89,4.7,21.06,4.63,31.6-7.13-5.19,1.29-9.51,1.82-15.14,2.22l-27.83-7.43-2.41.17c-.32.02-.37.32-.17.62.18.27,1.52,1.62,1.79,1.71l18.71,5.68-.48,1.13-16.62-4.13c1.43,4.93,5.82,5.68,10.56,7.18Z"/>
  <path class="cls-15" d="M773.21,543.5l9.79,2.32c22.77,4.04,39.82,20.28,40.69,43.19.68,17.8-6.53,35.28-18.94,47.79l-5.08,5.13c-6.92,6.98-14.87,12.44-23.97,17.01-18.92,9.49-39.83,12.38-60.33,14.85l-3.08-1.59c29.08-3.8,54.86-8.16,78.81-27,18.5-14.55,32.16-37.08,28.89-60.73-2.33-16.83-14.75-30.07-30.9-34.88-6.04-1.8-13.04-3.4-18.76-3.04l2.88-3.07Z"/>
  <path class="cls-20" d="M321.62,267.73c-5.91,12.22-12.04,25.49-11.5,39.44.65,16.71,10.18,30.44,24.86,37.17,13.79,6.32,28.08,9.51,42.72,10.64l-6.74,1.1c-.42-.49,1.17,1.35,1.46,1.93-5.8,2.32-11.2,9.75-13.45,16.33-.42-7.97,5.76-11.96,10.89-17.53-10.72-.98-18.08,8.16-22.47,18.45.27-8.35,6.42-14.24,13.45-19.21-6.56-3.3-14.88.45-19.28,6.42l-4.75,6.44c1.43-7.97,6.81-12.28,14.29-15.5-8.34-4.36-16.48-.6-23.33,6.28,1.43-5.26,6.89-8.11,11.91-9.45-4.25-4.38-10.35-5.11-14.86-1.22l-10.16,8.76c2.22-7.02,8.68-10.29,15.33-13.16l-7.79-5.42-2.02-1.4c-.51-.36-1.09,1.44-1.47,1.95-.39.22-.74-.89-.65-1.26.45-1.94-1.2-5.52-2.95-6.75l-11.9,4.97c-1.21-.46-2.88-1.13-1.89-.9l12.92-5.12-3.19-7.62c-4.09,3.48-6.81,5.06-11.54,4.36l10.48-4.83-1.81-8.44c-5.63,4.1-11.54,5.14-16.57,2.67l1.15-1.11c1.43.52,4.35.95,5.92,1.03.83.04,2.34-.61,3.08-.99l5.64-2.89.31-7.17c-5.11.37-9.06.54-13-.48,3.64-.78,11.18,0,12.2-3.71l2.65-12.39-3.86-.83c2.8-.67,4.75-1.59,5.8-3.69.62-1.25,1.64-3.65.73-3.96l-4.63-1.59,6.07-.53,2.99-6.76,1.02-2.04,2.07-3.01,1.85,1Z"/>
  <path class="cls-1" d="M332.32,153.59l2.64,1.56c-26.99,14.02-52.79,30.49-75.68,51.07l-10.72,9.64c-31.45,28.29-56.57,62.89-76.29,100.02l-1.77-2.36c35.99-68.64,93.29-124.52,161.81-159.94Z"/>
  <path class="cls-5" d="M476.55,813.38l1.96,2.59-12,1.25c-21.99-.78-42.02-10.12-58.43-24.52l-22.5-22.38-15.02-15-7.92-6.13c-17.24-13.33-44.38-17.21-59.7.36l-3.53,2.92-2.13-.47c15.7-22.56,43.9-21.37,65.74-6.11,9.1,6.36,16.35,14.09,24.14,21.89l20.44,20.46c14.37,12.62,30.73,22.48,50.08,24.7l18.88.45Z"/>
  <path class="cls-28" d="M220.02,484.44l.76,2.08-.05,1.16,1.14,7.68-.12,1.48,3.73,1.29-.12,2.59c-.03.67,2.26,1.22,2.94,1.31l15.61,2-10.19,1.62c-3.25.52-6.09,1.19-9.84,2.43l4.93,3.44c2.23,3.4,5.7,5.28,6.17,10.67l-12.93-11.22-1.03,10.17-5.9-.72-.69-9.04-3.61,3.23-4.12,2.28-.11-1.34.34-2.03c.43.06,1.31-.25,1.51-.7l.6-1.35c.58-.37,1.82-3.64.81-4.11-1.85-.87-5.76-.97-7.9-.84l-1.31.08-4.75-2.45,10.98-2.39,2.81-1.85c.52-.34-.5-1.88-.76-2.45l-.76-1.68c-.14-.31-1.22-.38-1.42-.16l-.28-1.05,2.21-2.12c1.34,1.29,4.09,2.98,5.64,3.54l1.57-7.49c.53-2.51,1.02-5.92.94-8.88l-.03-1.07c1.91,1.2,2.83,3.56,3.23,5.92Z"/>
  <circle class="cls-28" cx="205.87" cy="516.88" r=".83"/>
  <path class="cls-13" d="M320.68,187.13c-21.79,12.97-41.93,28.23-60.83,45.69-6.26,5.79-11.94,11.18-17.54,17.5l-10.29,11.6-13.17,16.14-.06,8.63-.98-.02c0-1.54-.33-3.59-1.02-5.47-20.94,28.5-37.18,59.05-48.62,91.49l-1.75-1.26c18.66-52.56,49.53-100.77,90.74-139.09,19.34-17.99,39.95-33.7,62.29-46.45l1.22,1.25Z"/>
  <path class="cls-5" d="M644.38,264.89l-4.47,8.39c-14.7,27.59-8.23,62.46,15.35,83.28,12.62,11.14,27.29,15.4,42.97,18.18l9.2,1.64c-4.79,1.48-10.18,1.2-15.08.4l-4.15-1.04c-13.71-1.27-26.18-8.54-36.9-18.16-13.23-11.88-20.71-28.47-22.53-46.3s3.69-35.67,14.59-49.59c.69.07,1.42,2.41,1,3.2Z"/>
  <path class="cls-23" d="M696.34,519.31l-1.25,2.36c-11.44-3.28-20.35-10.52-28.52-19.29l.75,13.09.04,14.01-.39,1.14-.62-7.26c-.15-1.8-.78-3.61-.97-4.92l-.89-6.1c-7.14-35.15-24.72-67.89-50.95-91.66l2.08-2.2,14.75,15.01c14.61,16.66,23.94,35.6,32.19,55.94,6.03,14.86,19.66,24.47,33.78,29.88Z"/>
  <path class="cls-9" d="M546.71,703.37l-.25,5.3c-.08,1.77-.89,5.81-.38,7.49l6.37,21.02c.06.84.05,1.94.66,2.02l2.96.38c.81.11.89-2.96.77-3.21l.46-1.15,1.37,1.31c-3.69,6.24-5.51,14.01-7.11,22.1l24.87-35.36,1.85.64.15,1.37.13,1.12-2.59.85c-.47.24-.44,1.51-.55,2.03l-.57,2.55c-.13.57,2.25.48,2.6.01l1.1-1.49,23.64-17.22,4.57-1.27-2.91,2.86c-.45.44.42,2.16.63,2.83l-1.06-.33-1.53,1.1c-.32.25-.03.91.36.89l2.18-.07c.47.24.8,1.3.44,1.38l-1.58.56-1.83.3c-.07-.72-1.63-1.05-2.11-.68s-1.62,1.16-2.05,1.64c-11.15,5.53-23.15,12.97-31.29,23.29l-17.44,21.63c1.17-2.5,1.9-4.81,1.99-8.22l-5.06,6.08c4.3-8.61,7.27-18.33,4.06-28.02l-5.42-16.35c-1.94-5.86-.85-13.78.23-19.38l1.78-3.25.55,5.21ZM573.94,732.29l-.02.65v.67l.02.65.02-.65v-.67l-.02-.65Z"/>
  <path class="cls-19" d="M514.42,892.15l-.94,3c-.1.47-.19,1.8-.56,1.86l-1.48.13v-.98s1.11-2.38,1.11-2.38c.13-.49-1.03-1.36-1.24-1.77l-1.02-9.79-12.75,10.41,9.38-13.04-17.4-2.57c5.69-2,10.44-1.9,17.65-2.01l-9.09-13.46,12.18,9.59,1-11.99,1.67-11.19,1.23,10.23.81,13.28,13.58-10.8-8.71,11.98c-4.04,4.35,7.15.8,16.8,4.26l-18.09,2.55,9.39,12.69-13.09-10.69-.43,10.7Z"/>
  <path class="cls-27" d="M839.15,716.49l-8.35,12.58c-28.36,42.7-66.08,78.3-109.53,105.06l-1.41-2.38c48.93-30.2,86.18-68.79,117.03-116.81l2.26,1.55Z"/>
  <path class="cls-6" d="M216.82,720.3l1.09.11c-.31,3.86,2.25,7.52,4.82,10.86l6.31,8.22-1.48,1.26c-46.41-57.5-74.71-127.97-80.94-202.12-.31-3.72-1.97-7.13.65-9.94,5.11,69.53,27.47,134.77,67.55,191.56l1.11,1.57c.17.25.59.32.64.02l.25-1.55Z"/>
  <path class="cls-4" d="M558.67,736.54l-1.37-1.31c3.31-8.26,5.56-17.05,3.65-25.99l-2.2,8.63-2.79,15.21-.19,1.95c-.05.5.42,1.33,1.07,1.35.13.25.04,3.31-.77,3.21l-2.96-.38c-.61-.08-.6-1.18-.66-2.02.06.26.91-.72,1.15-1.02l-.36-11.32c-2.64-5.4-4.9-9.35-5.19-15.25l5.97,13.1c1.34-11.18-1.93-21.08-5.19-31.47l-1.82,11-.31,1.14-.55-5.21-1.78,3.25c2-10.35,2.1-19.46-4.49-29.93,3.37,1.61,5.22,4.23,7.55,6.94,6.06,7.03,11.69,14.41,14.64,23.16,4.14,12.3,2.83,24.42-3.41,34.97ZM548.97,684.64l-.05,1.49.05-1.49ZM550.27,686.17l-.78.66,3.67,10.7,2.65,8.48c.99,3.15-.49,7.73,1.99,11.06l1.58-14.7-3.12-6.71c-1.73-3.72-3.78-6.94-5.98-9.51Z"/>
  <path class="cls-15" d="M474.57,473.53l-.07,6.94-.99,2.45c-.12.51.57,1.57.75,1.59-2.9,23-21.01,42.21-44.87,44.52-23.43,2.27-28.91,13.8-45.13,15.56-1.48.16-2.83.55-3.99,1.02l4.5,1.73-9.12.21-4.05-.04-7.85-.07c-.58,0-1.78.81-2.17,1.13l-3.05-.48,3.09-1.55,1.06-.11,2.96-.91h3.06c2.94.02,6.46-.63,8.92-2.13,10.55-1.95,20.55-6.06,29.98-11.85,6.11-3.76,12.7-4.84,19.76-5.41,21.15-1.72,38.52-16.96,43.19-37.55l2.22-9.78.73-2.66c.14-.5-.5-1.58-.91-1.61l-.02-.98,2-.03Z"/>
  <path class="cls-3" d="M500.02,527.62c.12.6.32,1.44.29,1.88-.6,8.5-16.07,30.63-24.23,40.5-23.73,28.72-37.5,53.24-37.02,92.27-2.47-7.53-1.78-15.26-1.05-22.62,2.81-28.55,17.46-49.08,35.12-70.63,10.12-12.35,18.91-25.03,25.32-39.66l.75-1.72c.12-.28.51-.12.82-.03Z"/>
  <path class="cls-12" d="M218.78,338.67v32.95s.98,1.02.98,1.02l.33,28.38,43.81-50.15c4.14-4.74,7.66-9.67,13.39-12.96l-51.77,60.37-5.72,6.52-.09,34.27-2.75-.36.47-29.17c-4.15,2.44-5.8,4.94-8.49,8.32l-3.66,3.13c-1.1,3.19-3.38,5.09-6.22,6.3.08,1.15.29,2.46-.22,2.87l-2.11,1.72-1.21-1.57,22.02-26.14.25-81.46h.99s0,15.97,0,15.97Z"/>
  <path class="cls-17" d="M402.65,806.28l-31.93-31.02-10.05-9.01c-10.68-9.57-27.38-12.98-36.52-3.97-4.55,4.48-4.78,10.37-4.63,17.23-3.61-5.38-1.98-12.36,2.37-17.06,10.71-11.58,27.47-8.62,39.22,1.39l8.12,6.91,28.32,27.47,17.03,16.14c18.36,17.4,37.31,32.53,57.37,49.38-25.22-16.12-46.88-37.1-69.29-57.46Z"/>
  <path class="cls-21" d="M292.89,691.08l-1.37,1.35-17.01-18.97-54.43-64.3-1.3,1.15v39.07s.03,27.96.03,27.96h-1s-.13-71.82-.13-71.82l-1.98-1.94c.96-.81,1.43-1.96,1.42-2.81l-.38-30.07,3.05-.1.05,34.71,38.69,46.27,23.7,27.36,10.69,12.15Z"/>
  <path class="cls-26" d="M299.41,752.47c-2.32,6.96-4.79,9.67-4.9,19.65-.11,9.68,3.22,17.03,9.81,23.55,9.65,9.55,24.94,11.96,35.54,2.92,5.75-4.91,7.45-12.63,2.83-18.86-1.55,2.75-4.21,4.91-6.01,4.16-2.98-1.25-4.53-3.8-3.91-6.02.73-2.63,4.06-4.23,6.75-3.49,5.7,1.58,8.32,7.2,8.33,12.85s-2.35,10.76-6.95,14.3c-11.82,9.1-27.47,6.61-38.05-3.44-13.34-12.65-14.86-32.73-5.56-46.1l2.13.47Z"/>
  <path class="cls-2" d="M548.58,767.29v1.07s-2.91,3.04-2.91,3.04l-8.23,10.99c-11.8,12.93-26.7,23.09-43.25,29.38l-15.68,4.2-1.96-2.59c.42,0,1.67-.28,1.95-.36l3.93-.92,1.19.17,2.99-.91,5.86-2.98-8.06-2.83,10.85-.45c.83-.03,3.13-1.5,3.29-1.71l2.02-.14c.83-.06,2.24-.77,2.95-1.22,13.22-5.13,24.23-13.92,33.22-25.54l8.78-11.34,5.06-6.08c-.1,3.41-.83,5.71-1.99,8.22ZM502.15,806.27c-3.76-1.82-7.59-.09-8.97,3.06l8.97-3.06Z"/>
  <path class="cls-6" d="M808.75,280.6l1.55-1.3c41.02,56.37,65.03,123.63,68.35,193.87-1.78-4.14-1.84-8.21-2.27-12.77-6.08-65.35-29.22-127.1-67.64-179.8Z"/>
  <path class="cls-17" d="M268.79,781.13l-1.17,1.37-3.91-3.74-.71-.31c-9.52-8.4-17.96-18.07-26.77-27.95l-8.68-9.74,1.48-1.26,5.83,6.14-1.84-7.68c-4.26-17.79,5.81-36.75,24.82-38.52,7.17-.67,15.45,3.56,19.66,8.69,6.23,7.58,7.73,18.33,1.3,25.26,3.29-7.64,3.44-15.3-.83-21.85-4.31-6.6-11.73-10.21-20.44-9.32-14.26,1.45-24.45,14.53-22.75,29.17,1.12,9.63,4.36,19.7,11.01,26.72l18.23,19.27.35.65,4.41,3.09Z"/>
  <path class="cls-17" d="M682.7,854.23c-33.73,15.09-69.14,24.6-106.09,28.14l-11.16,1.07-13.44.66c1.57-3.66,2.95-2.67,5.54-2.83,43.73-2.77,86.34-12.24,126.13-30.34l-.97,3.3Z"/>
  <path class="cls-15" d="M790.28,453.34c8.34,1.75,15.92,6.6,21.19,13.99,11.64,16.32,9.91,37.31-2.44,53.08-8.89,11.34-21.28,19.26-34.76,23.17l-.7-2.06,5.93-2.74c9.9-4.57,18.89-9.89,25.73-18.17,8.51-10.3,12.69-22.4,10.54-35.54-2.77-16.9-13.46-26.33-28.58-30.86l3.08-.87Z"/>
  <path class="cls-5" d="M130.79,511.89l-2.37,9.73-2.73-11.58-7.66,4.88,4.65-8.09-14.04-1.7c-.34-.04-2.12-1.29-1.78-1.3l1.91-.07c5.33-.18,8.27-.2,13.8-2.36l-5.63-8.16,8.32,5.07,3.21-10.19,2.54,10.19,8.09-4.72-5.07,8.49c8.45,3.18,15.7-.34,19.05,2.88l-18.84,1.65,3.04,6.33c.65,4.64-2.55-2.53-6.49-1.05Z"/>
  <path class="cls-11" d="M526.68,582.59c-5.85,9.89-12.21,19.82-20.68,28.38l-27.78,28.07-5.56,5.5c-11.88,11.75-22.88,23.84-30.79,38.23l-2.45-1.24c7.89-13.23,17.42-25.39,28.75-36.53l31.27-30.73c10.22-10.04,18.79-20.91,25.88-32.96l1.35,1.27Z"/>
  <path class="cls-2" d="M896.68,517.42l-2.63-7.2-6.67,4.7,3.29-8.34-17.63-1.56,17.17-2.63-.85-5.27,5.1,1.2,2.66-10.88,2.86,11.3,7.65-4.75-4.57,7.43c4.65,2.93,10.27,1.25,16.96,3.14l-17.04,2.42,4.29,8.38-7.16-4.46-3.42,6.51Z"/>
  <path class="cls-10" d="M331.08,217.77l-1.33,3.15-1.66-2.08c-1.54,21.2-11.63,36.6-24.55,53.75-7.66,10.16-13.54,22.17-15.94,33.92l-1.48-2.89-.81,3.81c.55-12.23,9.44-27.8,17.53-38.62,15.78-21.1,24.47-35.94,23.09-64.8,3.44,3.92,4.55,9.08,5.17,13.77Z"/>
  <path class="cls-10" d="M653.59,157.62c37.33,14.66,72.26,36.09,102.92,62.74l17.76,16.97-1.25,1.6c-34.13-35.46-76.08-61.75-121.67-80.05l2.24-1.26Z"/>
  <path class="cls-26" d="M866.5,664.86l-2.15-1.76c14.31-33.3,24.09-67.38,28.98-103.65-.36-.23,2.21-1.67,2.36-1.05s.34,2.25.22,3.05c-5.29,35.95-14.74,70.29-29.41,103.42Z"/>
  <path class="cls-10" d="M590.41,760.79l-.14,1.72c-12.62,8.08-22.96,18.37-33.32,29.22l-15.62,16.36c-13.18,13.6-37.99,28.54-57.16,27.67,26.01-5.58,48.08-19.45,65.36-39.53l22.38-22.45c5.43-5.45,12.06-9.45,18.52-12.99Z"/>
  <path class="cls-5" d="M450.87,743.55l-3.47,9.65c-.33,1.02-.87,3.01-.87,4.13l.02,8.87c0,1.1.38,3.44,1.12,4.05,2.44,13.99,12.16,26.5,25.95,31.78,8.15,3.12,16.98,2.55,24.92,1.36-.15.21-2.46,1.67-3.29,1.71l-10.85.45,8.06,2.83-12.01-.24c.1-1.43-2.54-2.94-3.83-2.6-14.98-3.08-26.72-16.47-32.51-30.46,2.46-3.01.08-6.56-.36-9.57-.62-4.24-.08-9.54.59-14.21l.86-6.02,2.01.9c.42.19,1.15-1.43,1.34-1.85l.8-1.75c.17-.38.93.43,1.5.97Z"/>
  <polygon class="cls-17" points="654.39 249.75 653.49 249.59 556.18 163.29 548.29 155.8 547.78 155.03 545.22 152.78 548.56 154.1 549.22 154.59 632.66 228.34 648.32 242.79 654.39 249.75"/>
  <path class="cls-14" d="M816.17,715.72c-22.91,33.73-50.93,63.25-83.52,86.97l-1.39-1.54,21.01-16.83,8.13-7.13c21.1-18.51,38.76-40.16,54.55-63.38l1.22,1.92Z"/>
  <path class="cls-6" d="M267.62,782.5l1.17-1.37,4.03,3.51.58.4c19.2,16.12,39.65,30.41,62.74,41.63,23.97,12.66,49,19.98,74.4,27.62-48.01-9.59-92.81-31.62-131.07-61.52-2.97-2.32-5.15-4.52-7-6.77l-.45-.48c-1.49-.74-3.23-1.9-4.4-3.02Z"/>
  <path class="cls-21" d="M372.81,138.29l-.47-2.56c28.82-10.98,58.71-18.16,89.79-22.21.75-.13,2.39-.74,2.53-.21l.63,2.27c-31.69,4.4-62.99,11.31-92.48,22.71Z"/>
  <path class="cls-19" d="M615.63,418.48l-2.08,2.2c-9.95-9.01-21.64-16.51-33.39-22.25l-.64.67.51,2.65-15.5-10.35-15.06-9.71,1.96-2.3,5.08,4.13,19.41,9.61c14.32,7.09,28.8,14.25,39.71,25.35ZM578.93,398.12c1.09.06,1.06.06-1.23-.07l1.23.07Z"/>
  <path class="cls-13" d="M379.47,242.94l-10.23,9.11-.72-1.82,8.69-8.05,82.39-73.22,10.6-9.42c3.71-3.29,6.42-7.09,11.51-8.74l-11.81,11.43-9.5,8.45-10.04,9.07-70.9,63.19Z"/>
  <path class="cls-5" d="M621.6,352.54c14.62,24.47,39.87,39.92,67.77,43.94l-4.09,1.52c-28.1-3.52-52.83-20.87-67.11-45.32l3.42-.14Z"/>
  <path class="cls-14" d="M736.81,707.3l1.69-.84c11.58,13.51,18.35,32.52,14.78,49.89-2.99,14.54-9.94,29.07-22.04,38.41,6.08-9.18,12.34-16.62,16.12-26.51,8-20.92,4.29-44.32-10.55-60.96Z"/>
  <path class="cls-10" d="M172.27,315.89c-12.78,24.07-22.61,49.64-30,75.84l-1.95-3.26c7.23-25.95,17.67-51.06,30.18-74.93l1.77,2.36Z"/>
  <path class="cls-30" d="M494.31,659.65c-3.6,2.87-6.05,5.6-10.57,7.75,2.01-3.06,4.84-5.4,7.95-7.88l31.13-24.84c17.49-13.95,30.22-31.6,38.23-52.6l1.4-3.19c.37-.85-1.05-2.51-1.34-2.83l2.96-5.42c.41,2.19,1.65,4.67,2.67,5.05-3.24,4.35-5.76,9.89-8,15-7.12,16.18-18.31,32.18-31.92,43.04l-32.51,25.93Z"/>
  <path class="cls-16" d="M217.1,600.76c.01.85-.45,2-1.42,2.81l-68.46-83.28-.92,8.72-1.04-12.67,8.24,8.63,61.27,74.36c.74.89,2.01,1.9,2.33,1.42Z"/>
  <path class="cls-3" d="M321.6,532.24c-3.51,1.67-6.99,2.96-10.49,1.41-3.26-1.44-4.51-4.72-4.66-8.71-.11-2.79,2.77-6.94,6.25-7.12,6.07-.31,7.39-4.03,10.68-7.6,3.25-3.05,6.97,3.15,7.35,6.03,1.07,8.02-1.82,12.53-9.13,16ZM326.71,521.95c1.73-3.65,1.42-7.18-2.34-10.08-3.18,11.65-15.83,5.09-14.83,15.75.16,1.76,2.9,4.57,4.56,4.07s10.9-6.1,12.62-9.74Z"/>
  <path class="cls-4" d="M384.26,544.58c6.74,3.89,18.62,6.27,24.43,13.7l9.21,11.79c6.33,8.11,8.29,18.26,5.96,27.88l-.87.36c-.23.09-.97,1.28-1,1.03l-.45-1.99.02-2.93c1.21-2.47,1.22-6.62.29-9.05l-5.16-13.38-1.83,3.59c-3.26-13.95-14.66-24.25-28.69-26.27l-.51.62-.08,1.55-1.12.72-8.81-4.66,9.12-.21-4.5-1.73c1.15-.46,2.5-.86,3.99-1.02ZM385.14,548.97l-1.25-.06,1.25.06Z"/>
  <path class="cls-21" d="M653.59,157.62l-2.24,1.26c-29.05-11.66-59.04-17.69-90.75-24.11,32.47,1.45,63.33,12.02,92.99,22.85Z"/>
  <path class="cls-4" d="M441.88,682.78c-7.79,14.18-13.83,29.67-15.18,46.43l-.13,13.05c-.93,1.42-.82,4.42-.33,6.03l1.23,3.98-1.5,2.07-1.68-4.04-.53-13.02.7-14.05c2.59-14.94,7.48-29.16,14.95-41.69l2.45,1.24Z"/>
  <path class="cls-22" d="M358.19,410.52l1.58,1.65c4.94-3.16,9.8-6.85,15.95-8.67-3.34,3.51-8.51,4.99-11.61,8.76-10.32,12.54-13.19,25.36-22.58,39.28l-23.77,35.27c3.12-8.26,7.82-15.35,12.83-22.42,7.26-10.26,12.9-20.81,19.06-31.86l8.73-15.69c-.29-2.18-.42-4.81-.18-6.32Z"/>
  <path class="cls-9" d="M773.57,541.52l.7,2.06-1.06-.07-2.88,3.07c-13.32.85-26.06,4.51-38.06,9.84l-7.35,4.1c-1.35-.2-3.63-2.61-4.54-4.24l34.77-10.96,7.1-2.78c-.09.38-.05,2.26.49,2.13l2.19-.52,5.31-1.62,3.32-1.01Z"/>
  <path class="cls-30" d="M450.87,743.55c-.57-.55-1.32-1.36-1.5-.97l-.8,1.75c-.19.42-.93,2.04-1.34,1.85l-2.01-.9c2.03-14.12,9.5-27.88,20.5-38.21-6.21,11.37-15.07,20.3-17.05,34,5.52-8.67,11.86-16.9,21.1-22.47,6.1-3.68,12.53-6.69,19.81-4.8-17.42,1.93-31.6,13.8-38.7,29.75Z"/>
  <path class="cls-2" d="M526.13,111.37c1.51-1.88,1.4-4.79.37-7.55l6.49-11.4c3.03-5.32,9.54-9.11,15.53-8.48,1.2.43,1.16,4.42-.02,4.89-3.27.69-7.9,2.52-9.55,5.36l-8.5,14.57c-.71,1.22-3.85,2.86-4.33,2.61Z"/>
  <path class="cls-10" d="M741.29,245.76l-1.13,1.18c-21.13-13.01-45.03-14.85-67.61-4.69l-1.45-2.71c22.62-10.43,49.73-8.2,70.2,6.22Z"/>
  <path class="cls-21" d="M817.26,416.34l-1.43,1.27-18.68-20.83c-1.31,4.65-4.35,6.57-8.26,5.83-2.4-.45-5.89-3.99-5.41-7.13s3.56-5.49,6.82-6.42l-8.83-9.8c-.97-1.08-2.08-2.91-2.49-3.95l-.5-.44-5.44-5.04,1.44-1.4,5,5.5.53.88,10.28,10.67,26.98,30.86ZM788.32,392.04c-2.65,1.38-2.62,5.36-1.37,7.11.91,1.27,4.04,1.8,5.86.91,1.59-.78,2.35-4.05,1.47-5.77-.97-1.88-3.67-3.44-5.96-2.25Z"/>
  <path class="cls-18" d="M168.17,372.69c-10.06,28.52-16.44,58.2-19.43,88.77l-.83,4.09-.09-7.04.81-12.05c3.36-25.92,9.23-50.91,17.8-75.04l1.75,1.26Z"/>
  <path class="cls-30" d="M443.77,765.51c.44,3.01,2.82,6.56.36,9.57-11.91-28.8,2.07-69.67,22.99-91.25l14.07-14.52.31,1.47-10.56,11.02c-20.37,21.26-34.11,55.13-27.17,83.71ZM444.07,772.25l-.52.5.52.5.5-.5-.5-.5Z"/>
  <path class="cls-17" d="M142.28,391.73c-5.63,19.96-8.62,40.27-11.85,61.49-1.65-1.69-1.86-4.44-1.59-6.73,2.37-20.05,6.24-39.2,11.49-58.03l1.95,3.26Z"/>
  <path class="cls-2" d="M523.63,155.92c1.01-1.55,2.24-4.48,1.58-4.86l-5.81.17c9.23-3.74,13.6-14.29,9.81-23.2.14-.66.72-.54,2.31-.22l3.89-1.81c4.13,11.07-.6,23.97-11.78,29.93Z"/>
  <path class="cls-1" d="M804.93,588.4l-6.74-.56c-.03-3.44-1.02-2.23-1.05-.1l-6.8,4.11.37.52,9.12-2.37c.67.27,1.17,1.82.43,2.16-.83-.35-3.19-.3-4.19-.07l-6.09,1.39.23-.54-.75-.52c-3.23-2.22,3.64-7.59-.04-10.88l-8.46.5c1.29-2.7,3.57-5.83,5.73-6.79,2.79-1.24,8.02-.99,8.94,1.14l1.9,4.38,1.53,4.31v-11.43s-11.72-.17-11.72-.17c-.66-.26,1.66-1.14,2.17-1.13l10.48.3c.42,5.23.07,10.03-.75,14.44l5.7,1.29Z"/>
  <polygon class="cls-14" points="623.08 786.66 620.48 784.24 674.25 727.73 676.82 730.18 623.08 786.66"/>
  <path class="cls-2" d="M498.74,104.05c-.62-.66-3.57-1.79-3.72-.9l-.64,3.88c-6.58-6.94-5.73-15.63-16.8-17.98-1.11-.24-2.67-2.76-2.11-3.55,2.74-3.9,13.03-.66,17.24,7.17l6.02,11.38Z"/>
  <path class="cls-28" d="M752.33,607.39c-.61,3.19.08,8.15,3.82,7.89l.91,1.47,4.14.82,1.22-.1.68,2-4.13,3.33-3.52.51,3.7,3.26.13.98c-3.21,2.58-6.21-3.56-7.3-2.92l-1.72,1c-.28-3.16-3.07-6.59-5.79-8.4l-2.03-1.36-.17-1.53,7.48-1.1-.53-7.4c-.03-.42,2.66-.89,2.74-.48l.37,2.05Z"/>
  <polygon class="cls-16" points="815.82 417.61 817.26 416.34 855.1 460.55 872.52 481.75 871.54 482.62 815.82 417.61"/>
  <path class="cls-12" d="M630.91,475.68l-1.68.57-5.45-17.18c-5.94-14.57-14.67-27.88-25.56-39.21l-5.89-6.14,1.48-1.07c10.49,9.05,18.44,20.05,25.43,32.07,5.71,9.82,9.5,20.02,11.66,30.96Z"/>
  <path class="cls-24" d="M866.5,664.86l-15.8,32.08-11.55,19.55-2.26-1.55c10.51-16.36,19.24-33.68,27.46-51.84l2.15,1.76Z"/>
  <polygon class="cls-13" points="196.73 431.87 154.42 483.04 147.43 490.61 145.87 490.37 195.52 430.3 196.73 431.87"/>
  <path class="cls-12" d="M732.65,802.69c-19.23,14-40.15,25.74-62.11,34.96l-.99-1.75c22.17-9.29,42.38-21.11,61.72-34.76l1.39,1.54Z"/>
  <path class="cls-7" d="M669.55,835.9l.99,1.75c-24.92,10.47-51.24,18.17-78.04,21.95l.24-1.63c26.7-3.88,51.94-11.66,76.81-22.07Z"/>
  <path class="cls-5" d="M385.65,708.42l2.13-2.33c5.65,14.05,27.99,30.46,29.53,56.55-4.98-14.63-10.51-27.67-21.07-38.94-4.31-4.6-8.16-10.06-10.59-15.28Z"/>
  <path class="cls-6" d="M860.34,625.76l-1.46-.87c10.55-30.04,15.2-60.35,19.33-91.89-.93,31.62-7.86,62.67-17.87,92.75Z"/>
  <path class="cls-21" d="M321.62,267.73l-1.85-1-.29-2.27c-.07-.57-1.85-.83-2.42-1.02l-1.97-.66c-.32-.11.18-1.04.5-.97l4.89.96,3.05-5.46-4.89-3.22,4.64.75c.97.16,1.68-2.12,2.15-3.2l1.15-2.68c.28-.65-.97-1.53-2.29-2.45-.78-1.26-.6-1.98,1.78-.85,2.28-1.83,2.82-6.23,1.14-8.41.83-.84,2.48-3.23,2.49-4.52l.04-11.82,1.33-3.15c2.48,18.73-1.27,33.02-9.47,49.96Z"/>
  <path class="cls-28" d="M407.59,443.4l-.02,1.23-1.04,1.02c-1.77,1.73-5.09,2.61-7.66,1.23-1.95-1.05-3.79-4.03-4.52-6.64.43-2.29,2.44-4.16,4.9-5.75l9.33.14-.99,8.78Z"/>
  <path class="cls-4" d="M608.01,308.79c1.45,10.57,1.9,21.74,7.19,31.69l6.41,12.05-3.42.14c-5.66-9.7-9.71-20.56-11.23-32.5l-.5-19.51.86,3.03.7,5.09Z"/>
  <path class="cls-4" d="M791.2,487.16c5.21-.82,9.16,3.01,9.9,7.15.81,4.6-2.65,9.41-7.43,10.06-4.32.59-8.62-2.36-9.81-7.02-.99-3.89,1.93-9.33,7.35-10.19ZM790.71,489.93c-4.17,2.35-4.81,5.74-3.49,8.16,1.62,2.98,4.78,4.24,7.29,3.2,3.4-1.41,4.47-4.75,3.35-7.9-.83-2.34-4.66-4.87-7.15-3.46Z"/>
  <polygon class="cls-8" points="217.79 677.33 217.79 708.29 218.81 709.32 217.92 720.41 216.82 720.3 217.66 605.51 217.79 677.33"/>
  <path class="cls-30" d="M790.28,453.34l-3.08.87c-7.26.21-14.87.22-21.89,3.26-10.1,4.37-17.5,12.59-18.9,23.09l-1.54-1.13c3.3-17.09,17.72-26.68,35.61-27.73,2.91-.17,7.04,1.06,9.8,1.64Z"/>
  <polygon class="cls-22" points="623.08 786.66 580.6 831.3 578.53 828.33 674.25 727.73 676.82 730.18 556.03 857.11 553.46 854.67 620.48 784.24 623.08 786.66"/>
  <path class="cls-21" d="M512.17,236.06l.53-28.46-1.39-1.71-3.79-4.09c-1.46-1.58,1.97-4.85,2.7-6.4,2.53-5.34,1.88-12.31,2.93-18.62l.54,16.7,4.37,4.54c1.9,3.72-.85,6.94-4.42,8.51l-.21,28.16-1.26,1.38ZM512.7,197.22c-1.63.03-3.8,2.7-3.21,3.86.67,1.33,2.97,3,4.24,2.73s3.14-2.95,2.79-4.2c-.3-1.07-2.61-2.41-3.82-2.39Z"/>
  <path class="cls-17" d="M810.3,279.29l-1.55,1.3-12.36-15.98-10.64-12.46-12.73-13.23,1.25-1.6c13.32,12.73,25.22,27.1,36.03,41.97Z"/>
  <path class="cls-26" d="M671.09,239.54l1.45,2.71c-9.04,4.07-17.43,10.77-24.12,18.35l-4.03,4.28c.42-.79-.31-3.13-1-3.2l8.11-8.6c.74-.79,1.88-2.65,2-3.51l.9.17c5.33-3.84,10.83-7.51,16.7-10.21Z"/>
  <path class="cls-9" d="M379.85,213.72l-1.38-6.95c-1.08-5.4-7.01-5.1-11.71-5.38,2.93-.87,9.67-1.16,11.13-3.79l2.18-8.9c.48,3.73.23,9.29,4.11,10.38l8.46,2.38c-3.13.32-8.01.18-10.07,2.26-1.9,1.92-1.88,6-2.72,10.01Z"/>
  <path class="cls-7" d="M860.34,625.76c-6.53,19.63-14.45,37.85-23.94,56.06l-1.39-1.59c10.25-17.17,16.75-36.13,23.87-55.33l1.46.87Z"/>
  <path class="cls-24" d="M372.35,135.73l.47,2.56c-12.88,4.98-25.6,10.5-37.86,16.86l-2.64-1.56c12.93-6.83,26.43-12.68,40.03-17.86Z"/>
  <polygon class="cls-20" points="719.86 831.75 721.27 834.13 682.7 854.23 683.67 850.93 719.86 831.75"/>
  <path class="cls-21" d="M427.48,752.26c1.52,14.11,8.41,26.33,17.59,37.95-10.52-3.56-20.38-30.08-20.77-39.91l1.68,4.04,1.5-2.07Z"/>
  <polygon class="cls-8" points="217.79 322.7 217.54 404.16 216.78 302.83 217.8 301.71 217.79 322.7"/>
  <path class="cls-25" d="M380.38,681.31l3.66,15.47,3.74,9.31-2.13,2.33-3.29-7.06-2.86-8.82.08-1.27-.81-1.95-.14-2.02-.99-3.94-.1-4.06c-.09-3.87.08-7.56,1.6-11.2l1.23,13.2Z"/>
  <path class="cls-18" d="M320.68,187.13l-1.22-1.25c17.43-9.95,35.2-20.1,55.9-25.95-18.37,8.17-37.04,16.7-54.68,27.2Z"/>
  <path class="cls-23" d="M385.44,437.71l-1.8-3.54c.85-1.21,2.58-3.9,3.86-4.64,7.06-4.1,14.38-7.99,23.32-8.24l-19.26,10.26c-2.71,1.44-4.97,3.32-6.13,6.16Z"/>
  <path class="cls-30" d="M744.06,361.24l.33,1.57c-10.78,7.62-23.66,14.19-36.96,13.56l-9.2-1.64c16.31.33,33.18-3.12,45.83-13.5Z"/>
  <path class="cls-14" d="M383.65,454.28l3.66-4.54c4.14-1.05,8.11-1.06,12.36-.51,7.51.97,12.49-4.26,17.48-10.28-2.09,10.4-12.85,15.34-22.77,11.54-2.43.67-5.84,2.39-7.94,3.71l-1.77,1.11c-.21.13-.46-.33-1.01-1.03Z"/>
  <path class="cls-13" d="M685.28,398l4.09-1.52c7.07,1.02,14.07,2.01,21.54-.31,10.71-.93,20.16-4.81,30.61-8.41-11.9,8.21-35.47,12.85-49.13,11.14l-7.11-.89Z"/>
  <path class="cls-19" d="M324.89,681.46l-3.9,9.82c-.15-2.74-.33-6.22-1.77-7.93-1.61-1.91-4.22-2.05-7.65-2.61.65-.45,2.96-1.28,4.1-1.39,5.33-.5,5.47-5.54,5.24-9.92.79,2.8,1.98,6.72,3.21,9.04l7.75,2.4-6.99.58Z"/>
  <path class="cls-26" d="M513.18,951.92c-2.73-6.75-1.31-14.76-1.78-21.67-.71-1.3-3.22-3.44-2.74-4.66.66-1.67,2.27-3.53,3.58-3.72,1.78-.26,4.07,1.47,4.31,2.96.28,1.72-.98,3.79-2.74,5.13l-.62,21.96Z"/>
  <path class="cls-28" d="M683.67,757.52l1.71-2.6c1.83.37,4.46,1.08,5.48,2.26,1.24,1.44,1.79,4.8.87,6.22-1.92,2.98-5.79,4.13-8.38,1.54-2.13-2.13-1.85-5.01.33-7.42Z"/>
  <path class="cls-5" d="M221.02,521.14l-.97,11.28c-.42,4.86-.35,8.85-2.07,13.35l-2.86-25.35,5.9.72Z"/>
  <polygon class="cls-12" points="836.4 681.81 816.17 715.72 814.95 713.8 835.01 680.22 836.4 681.81"/>
  <path class="cls-14" d="M392.41,409.42l1.23.39-.86,1.85c-11.02,4.78-16.22,14.11-20.33,25.82-.96-13.02,9.13-23.73,19.96-28.05Z"/>
  <path class="cls-7" d="M384.75,385.74c-3.7,3.82-7,7.44-11.41,10.87l8.28-10.06,13.97-13.93c5.42-5.4,11.39-10.19,19.68-11.9-6.59,3.89-13.54,7.5-19.15,13.29l-11.36,11.72Z"/>
  <rect class="cls-12" x="820.18" y="543.06" width="70.77" height="2.65" transform="translate(-116.89 831.91) rotate(-48.94)"/>
  <path class="cls-7" d="M526.68,582.59l-1.35-1.27c7.3-12.39,12.49-25.93,15.96-39.89l1.65.17c-3.39,14.33-8.72,28.26-16.26,41Z"/>
  <path class="cls-4" d="M228.8,511.52l-4.93-3.44c3.75-1.23,6.59-1.91,9.84-2.43l10.19-1.62-15.61-2c-.68-.09-2.97-.64-2.94-1.31l.12-2.59-3.73-1.29,3.7-2.53,7.47-6.67c3.03-2.71,5.53-5.31,9.28-6.88l-9.66,11.49-6.86,8.16,32.16,3.72c-3.49,1.14-6.52,1.26-10.06,1.59l-11.85,1.12-9.59.9,2.47,3.77Z"/>
  <path class="cls-20" d="M345,638.33l-1.68-8.85-8.74-1.63,8.55-1.93,1.92-8.61,1.77,8.83,8.82,1.71c-2.8.49-6.46,1.13-9.23,2.23l-1.4,8.25Z"/>
  <path class="cls-17" d="M362.87,717.92c0,3.68-2.99,6.67-6.67,6.67s-6.67-2.99-6.67-6.67,2.99-6.67,6.67-6.67,6.67,2.99,6.67,6.67ZM360.75,718c0-2.48-2.01-4.48-4.48-4.48s-4.48,2.01-4.48,4.48,2.01,4.48,4.48,4.48,4.48-2.01,4.48-4.48Z"/>
  <path class="cls-22" d="M500.31,529.5c.03-.44-.17-1.29-.29-1.88-.05-1.54.56-3.37,1.07-5.54l5.26-22.54c.78-3.34.7-6.42,1.88-9.26,1,14.11-3.22,27.05-7.92,39.22Z"/>
  <path class="cls-28" d="M656.02,666.04c-.27.04-.6.05-.76.13l-1.87,1.09-1.24-.15-7.69,1.95-.08-1.73,2.1-.87c.89-.37,2.14-1.3,2.98-2.07,2.04-1.85,5.3-4.31,7.73-4.97l5.26-1.42-2.96,5.98-3.47,2.07Z"/>
  <path class="cls-11" d="M399.54,433.58l-.29.91c-2.45,1.58-4.46,3.45-4.9,5.75l-7.05,9.51-3.66,4.54-4.9,3.68c1.2-4.95,4.53-7.15,7.38-10.92l8.18-10.86c.99-1.31,3.83-2.37,5.23-2.61Z"/>
  <path class="cls-7" d="M498.87,399.58l-.3.91c-4.43-.66-7.41-3.25-9.31-6.81l9.62,5.9Z"/>
  <path class="cls-7" d="M490.5,361.98c-2.38.57-4.97,4.95-5.98,7.55-3.49,9.05.74,16.67,4.73,24.15-9.13-5.44-11.06-22.84-1.69-31.77l-4.14-.71c2.2-.3,4.67-.17,7.08.78Z"/>
  <path class="cls-27" d="M407.59,443.4l.99-8.78-9.33-.14.29-.91,4.16-.7,16.94,2.75c1.26.2,4.27-1.61,5.06.86-4.8,2.25-10.04,1.99-15.39.7l-2.72,6.22Z"/>
  <path class="cls-1" d="M359.77,412.17l-1.58-1.65c1.46-9.15,8.69-24.04,17.53-24.97-9.26,7.35-12.45,15.71-15.96,26.62Z"/>
  <path class="cls-21" d="M513.8,59.77c-2.76,1.38-6.81-4.25-5.01-7.42,1.94-3.43,5.14-2.86,7.36-.5,1.97,2.09,2.25,5.62-2.35,7.92Z"/>
  <path class="cls-7" d="M426.17,392.06c12.55,0,23.81,24.75,15.56,34.85,3.18-14.28-1.42-27.75-15.56-34.85Z"/>
  <path class="cls-18" d="M291.52,692.43l1.37-1.35,5.21,5.83,9.5,10.51,9.35,11.18c.24.29.37.52.51.6,1.83,1.12,4.85,3.53,6.14,6.9l-6.94-6.1-.59-.64-8.85-9.65-15.71-17.29Z"/>
  <path class="cls-22" d="M389.44,456.05c1.42-1.43,4.2-1.69,6.42-1.08,9.52,2.65,17.09-.84,22.43-9.83-1.06,9.08-9.84,13.55-18.71,12.31l-10.13-1.41Z"/>
  <path class="cls-22" d="M414.85,463.74c-5.58,2.88-12.96,2.56-17.99.09,15.85,2.74,22.08-3.01,28.14-16.94.18,6.82-4.03,13.69-10.16,16.85Z"/>
  <path class="cls-17" d="M608.69,296.69l-1.09-3.14.77,6.15-.36,9.09-.7-5.09-.86-3.03c.56-13.13,4.38-26.86,11.76-38.21-4.08,11.86-8.28,22.57-9.52,34.23Z"/>
  <polygon class="cls-19" points="206.86 501.74 195.88 504.13 200.63 506.58 190.8 505.86 179.82 505.22 179.81 503.85 206.86 501.74"/>
  <path class="cls-7" d="M511.02,956.39c2.58-1.2,5.53.32,6.81,2.89,1.18,2.37.11,5.61-2.6,7.12-2.39,1.33-5.73-.14-7.04-2.55-1.48-2.72-.52-5.9,2.82-7.45ZM515.81,962.03c-.03-3.2-2.3-4.58-3.54-3.94-1.01.52-2.69,2.28-2.83,3.39s1.68,2.95,2.71,3.46,3.68-1.77,3.66-2.91Z"/>
  <path class="cls-12" d="M666.98,530.62c.62,7.24-1.17,15.74-5.32,22.17,2.51-11.92,4.21-22.97,3.73-34.36.19,1.31.82,3.12.97,4.92l.62,7.26Z"/>
  <path class="cls-6" d="M542.94,541.59l-1.65-.17c2.94-11.8,4.03-23.76,4.64-36.55,2.69,2.02,1.05,5.3.93,7.81-.51,10.1-1.71,19.6-3.91,28.91Z"/>
  <path class="cls-13" d="M450.65,136.27c2.14-.7,5.08,1.62,5.11,3.19.03,2.08-1.27,4.78-2.91,5.28-1.89.57-4.71-1.01-5.2-2.57-.57-1.85.53-5.09,3-5.9Z"/>
  <path class="cls-18" d="M858.66,538.81l-.13.15.13-.15Z"/>
  <path class="cls-6" d="M774.47,368.44l-1.44,1.4-5.94-6.53-.5-.55-9.96-10.93-12.23,10.99-.33-1.57,4.35-3.57,9.37-10.01c.58,2.18,1.65,4.98,2.86,6.38l6.78,7.83.6.49,6.46,6.07Z"/>
  <path class="cls-20" d="M695.09,521.67l1.25-2.36c7.99,3.06,16.18,6.62,19.83,15.6-6.34-6.48-12.92-10.9-21.09-13.24Z"/>
  <polygon class="cls-13" points="712.29 672.21 715.37 673.8 702.31 675.37 681.85 678.33 681.25 677.55 703.23 673.4 712.29 672.21"/>
  <path class="cls-1" d="M432.78,588.73l-1.42-2.37c4.24-6.56,5.03-14.25,7.4-22.75,1.19,9.28-1.8,17.93-5.98,25.12Z"/>
  <path class="cls-29" d="M894.25,467.95c1.66-.85,4.95-.27,5.83.99,1.02,1.46.87,4.26-.56,5.48-1.6,1.36-4.47,1.12-5.57-.28s-1.11-5.46.31-6.19Z"/>
  <polygon class="cls-18" points="580.6 831.3 556.03 857.11 553.46 854.67 578.53 828.33 580.6 831.3"/>
  <path class="cls-22" d="M355.76,489.09l-7.24,8.57c4.06-9.21,10.29-16.69,19.29-21.22l-12.05,12.66Z"/>
  <path class="cls-27" d="M764.33,688.81c1.41-.38,4.35,2.1,4.54,3.47.21,1.54-1.91,4.06-3.68,4.77-1.27.51-3.41-1.45-4.33-3.09-.81-1.44,1.05-4.5,3.47-5.16Z"/>
  <path class="cls-29" d="M128.35,535.75c1.47-.05,4.3,2.13,4.33,3.59s-1.9,4.2-3.32,4.57c-1.71.45-4.06-1.06-4.52-2.43-.65-1.96.98-5.64,3.52-5.72Z"/>
  <path class="cls-29" d="M896.16,536c2.19-.4,4.22,2.06,4.26,3.97.03,1.46-1.97,4.15-3.63,4.12-1.47-.03-3.87-1.97-4.6-3.37-.68-1.31,1.78-4.32,3.97-4.72Z"/>
  <path class="cls-30" d="M823.23,673.86c2.23-1.08,4.52-.09,5.4,1.7.68,1.39-.2,4.31-1.7,5.15-1.16.64-3.87-.03-4.89-.89-1.42-1.19-1.09-4.85,1.19-5.96Z"/>
  <path class="cls-29" d="M129.61,475.28c-1.05.72-3.94-.69-4.4-1.81-.55-1.34-.41-4.9.88-5.59,1.46-.78,5.29-.22,5.74,1.17.53,1.66-.08,4.74-2.22,6.22Z"/>
  <path class="cls-7" d="M437.64,378.03c-4.06-5.03-10.27-3.5-16.32-2.4,3.7-4.01,9.15-3.71,14.17-1.56,3.7,1.59,7.48,6.61,8.18,11.42l-6.03-7.47Z"/>
  <path class="cls-18" d="M396.06,822.3c0,2.73-2.21,4.93-4.93,4.93s-4.93-2.21-4.93-4.93,2.21-4.93,4.93-4.93,4.93,2.21,4.93,4.93ZM389.99,819.38c-1.13.97-2.34,3.13-1.94,4.23s3.29,2,4.43,1.72,1.36-3.27,1.1-4.52c-.19-.96-2.85-2.07-3.59-1.43Z"/>
  <path class="cls-10" d="M220.83,484.4l-.81.03c-.39-2.36-1.31-4.72-3.23-5.92-.14-4.99-.25-9.59,1.47-15.18,1.33,4.07,1.4,7.61,1.8,12.28l.76,8.79Z"/>
  <path class="cls-6" d="M592.74,857.97l-.24,1.63-20.08,2.83c-4.3.61-8.55.78-13.01.38l33.33-4.85Z"/>
  <path class="cls-30" d="M423.72,433.22c-6.93,1.44-13.62-3.57-24.29-3.1,4.25-1.84,9.3-1.99,13.94-.42l10.35,3.52Z"/>
  <path class="cls-7" d="M629.24,476.25l1.68-.57c1.88,9.5,3.2,18.88,2.05,28.9l-1.12-9.35-2.6-18.98Z"/>
  <path class="cls-21" d="M290.72,506.36c.58-.89,2.02-2.09,2.9-2.82-.01,1.36.26,4.28,1.2,5.25s3.75,2.03,5.2,2.47l11.44-1.44c-8.76,4.93-16.33,4.31-20.74-3.47Z"/>
  <path class="cls-21" d="M467.47,804.4l.13,1.7c-7.8-2.66-16.14-6.1-20.85-13.25,7.65,4.65,13.62,8.99,20.72,11.55Z"/>
  <path class="cls-25" d="M380.91,666.42c-1.26-.1-2.35-.83-2.35-1.59v-3.47s.09-2.03.09-2.03l.98-2.98-.04-1.02,1.16-2.85-.1-1.18,3.73-1-3.47,16.12Z"/>
  <path class="cls-7" d="M339.32,522.51l-2.29-12.12c-3.71-4.89-8.25-6.74-14.46-7.33,4.96-1.58,11.3.15,14.66,4.93,2.87,4.08,2.8,10.13,2.09,14.53Z"/>
  <path class="cls-7" d="M480.73,694.61l-1.37-.48c7.61-6.17,16.14-12.11,26.21-14.85l-24.85,15.33Z"/>
  <path class="cls-29" d="M196.23,404.82c1.12-.73,4.43.52,5.19,1.67s-.25,3.91-1.51,4.68c-1.14.7-3.88.18-5.25-.86-1.22-.93-.31-4.27,1.57-5.49Z"/>
  <path class="cls-19" d="M562.61,330.55l-.24,2.26,1.15,7.82.06,1.02-.09,3.07v1.95s-1.05.99-1.05.99l-2.01-.04c-.02-4.97.57-11.05-.42-15.71l.76-3.29,1.84,1.94Z"/>
  <path class="cls-18" d="M472.51,367.65l1.32.14c-3.93,7.25-2.38,15.51-.46,24.14-5.53-7-4.96-17.09-.85-24.28Z"/>
  <circle class="cls-27" cx="397.12" cy="286.96" r="3.6"/>
  <polygon class="cls-5" points="208.67 492.42 206.46 494.54 196.48 483.33 197.62 482.2 204.72 488.63 208.67 492.42"/>
  <polygon class="cls-14" points="218.78 649.38 218.77 610.31 220.07 609.16 219.79 648.34 218.78 649.38"/>
  <circle class="cls-9" cx="652.79" cy="583.7" r="3.57"/>
  <path class="cls-5" d="M258.1,731.7c.92-.72,4.3-.46,5.15.35,1,.94.33,3.97-.73,5.3-.84,1.05-3.32.48-4.88-.48-1.14-.71-.82-4.18.46-5.17Z"/>
  <path class="cls-29" d="M562.69,477.78c1.09-.46,3.51,1.55,3.8,2.65.38,1.43-.97,4.27-2.44,4.32s-3.63-.92-4.28-2c-.7-1.16.73-4.06,2.91-4.97Z"/>
  <path class="cls-14" d="M395.44,353.04c-3.47,3.4-5.14,10.39-6.92,16.38-2-6.68,2.13-12.68,4.84-18.07l2.08,1.7Z"/>
  <path class="cls-7" d="M723.53,802.78c-6.46,4.91-13.22,9.46-21.26,11.54l21.23-13.26.03,1.72Z"/>
  <polygon class="cls-18" points="218.79 322.69 217.79 322.7 217.8 301.71 217.81 286.67 218.79 286.7 218.79 322.69"/>
  <path class="cls-6" d="M147.91,465.56c.09,6.74-.37,13.3-1.67,20.04-.74-7.32-.18-13.86.5-21.02l1.08-6.06.09,7.04Z"/>
  <path class="cls-2" d="M626.46,793.61c1.6-.92,4-.03,4.67,1.41.55,1.18-.26,3.87-1.78,4.51-1,.42-2.75-.05-4.07-.78s-.98-3.89,1.18-5.13Z"/>
  <path class="cls-6" d="M740.16,246.94l1.13-1.18,4.6,3.24c4.89,3.44,8.4,7.82,11.66,12.71-6.43-4.95-11.02-10.84-17.4-14.77Z"/>
  <polygon class="cls-14" points="219.76 372.64 218.78 371.62 218.78 338.67 219.8 339.69 219.76 372.64"/>
  <path class="cls-30" d="M393.64,409.81l-1.23-.39c5.53-3.13,12.44-4.54,19.23-3.52l-15.44,3.75c-.75.18-2.34.19-2.56.16Z"/>
  <path class="cls-7" d="M738.5,706.46l-1.69.84-7.32-8.21c-2.26-2.54-5.85-3.82-6.79-7.01,6.51,4.25,11.28,9.1,15.8,14.38Z"/>
  <circle class="cls-29" cx="237.77" cy="584.42" r="3.19"/>
  <path class="cls-3" d="M250.35,304.31l-4.03-5.18,3.81-4.05,4.15,4.23c-1.21.44-3.48,3.24-3.93,5Z"/>
  <path class="cls-6" d="M746.41,480.56c-.78,5.88.32,11.63,1.81,18.1-4.31-5.72-4.6-12.78-3.35-19.22l1.54,1.13Z"/>
  <polygon class="cls-6" points="218.81 709.32 217.79 708.29 217.79 677.33 218.8 677.34 218.81 709.32"/>
  <polygon class="cls-2" points="582.48 720.29 582.56 721.44 578.28 723.93 576.43 723.28 581.06 715.21 583.68 715.15 582.48 720.29"/>
  <path class="cls-8" d="M512.17,236.06c-.98-10.15-.66-20.17-.86-30.17l1.39,1.71-.53,28.46Z"/>
  <circle class="cls-23" cx="654.52" cy="420.74" r="3.07"/>
  <polygon class="cls-22" points="935.31 503.68 947.96 505.17 928.08 505.52 928.12 503.62 935.31 503.68"/>
  <path class="cls-24" d="M206.58,515.54l.11,1.34c0,.46-.37.83-.83.83s-.83-.37-.83-.83.37-.83.83-.83.83.37.83.83l4.12-2.28c-4.88,4.36-9.5,9-15.17,12.63l7.76-9.86c.59-.75,2.8-1.98,3.17-1.84Z"/>
  <path class="cls-13" d="M474.57,473.53l-2,.03-.28-16.74c2.61,5.87,2.33,11.27,2.27,16.72Z"/>
  <path class="cls-8" d="M216.96,438.71l.47-29.17-.47,29.17Z"/>
  <path class="cls-13" d="M385.44,437.71l-2.91,7.11c-3.53-3.9-1.35-7.14,1.11-10.65l1.8,3.54Z"/>
  <path class="cls-13" d="M333.87,282.73c3.05-4.08,6.21-7.69,11.36-10.15-2.61,4.48-5.98,7.78-11.36,10.15Z"/>
  <path class="cls-5" d="M380.91,666.42l-.54,14.89-1.23-13.2c-1.53,3.64-1.69,7.33-1.6,11.2-.94-3.06-.71-7.16-.25-11.07l1.26-6.88v3.47c0,.76,1.09,1.49,2.35,1.59Z"/>
  <path class="cls-18" d="M593.82,412.65l-1.48,1.07c-4.14-4.31-8.5-7.59-11.6-12.35l13.08,11.28Z"/>
  <path class="cls-30" d="M779.06,531.78c-.64-2.21,1.78-4.94,4.22-6.33l7.98-16.03c-.79,8.39-5.36,15.9-12.2,22.36Z"/>
  <path class="cls-13" d="M358.22,261.78c-5.07,5.01-7.58,7.37-12.85,10.45l10.17-11.23,2.68.78Z"/>
  <path class="cls-6" d="M590.27,762.51l.14-1.72c5.74-3.15,12.01-5.46,18-4.17-6.45,1.18-12.83,2.49-18.14,5.89Z"/>
  <rect class="cls-13" x="357.14" y="255.19" width="12.01" height="2.12" transform="translate(-74.83 331.84) rotate(-45)"/>
  <path class="cls-7" d="M453.26,412.49c-2.9-3.55-5.16-7.94-6.74-13.6,3.14,3.42,5.98,7.62,6.74,13.6Z"/>
  <path class="cls-14" d="M476.63,805.54c1.29-.34,3.93,1.17,3.83,2.6-4.03,0-8.94-.7-12.85-2.04l-.13-1.7c3.03,1.1,6.3,1.9,9.16,1.14Z"/>
  <path class="cls-30" d="M767.44,541.29l-1.27-.97,11.08-7.78c-2.16,4.84-6.24,6.65-9.81,8.76Z"/>
  <path class="cls-30" d="M511.44,897.14l1.48-.13c.37-.06.45-1.38.56-1.86l.94-3-1.4,15.11c-1.14-3.38-1.63-6.77-1.58-10.12Z"/>
  <path class="cls-13" d="M324.26,292.22c.91-3.9,5.01-6.89,9.52-8.6-2.6,3.32-4.58,5.7-9.52,8.6Z"/>
  <path class="cls-14" d="M405.7,348.57l-6.8,5.36,1.07-3.46c.12-.4-.1-.68-.69-1.2,1.21-1.19,4.32-1.1,6.42-.69Z"/>
  <path class="cls-15" d="M767.44,541.29l2.81,1.24-5.31,1.62-2.19.52c-.54.13-.58-1.75-.49-2.13l3.91-2.23,1.27.97Z"/>
  <path class="cls-30" d="M480.73,694.61c-2.67,1.65-4.42,4.71-8.36,5.76,2.33-2.78,4.52-4.64,6.99-6.24l1.37.48Z"/>
  <path class="cls-19" d="M562.52,354.67l-.17,2.93c-.27.13-.79.71-.79,1.08l-.03,2.03-1.59-1.93c-.33-.41-1.38,2.02-1.8,1.87l2.17-7.08.46,3.14,1.75-2.05Z"/>
  <path class="cls-3" d="M562.45,347.66l.71,6.08-.63.94-1.75,2.05-.46-3.14.1-.97c.49.09.99-.95.99-1.45s-.5-1.55-.97-1.5v-2.04s2.01.04,2.01.04Z"/>
  <polygon class="cls-12" points="667.37 529.48 667.33 515.48 668.39 522.49 667.37 529.48"/>
  <path class="cls-5" d="M384.38,648.43v1.88s-3.73,1-3.73,1l1.71-6.02.55,2.2c.09.49.93.73,1.47.94Z"/>
  <path class="cls-20" d="M370.41,372.4l3.48.6-4.43,2.79c.02-.37-2.12-1.38-1.68-1.68l2.63-1.72Z"/>
  <path class="cls-14" d="M723.53,802.78l-.03-1.72c1.15-1.53,2.6-2.36,5.06-2.69l-5.03,4.4Z"/>
  <path class="cls-10" d="M215.88,488.46l.94-8.88c.08,2.96-.41,6.36-.94,8.88Z"/>
  <path class="cls-4" d="M371.59,547.51c-2.08.83-5.83.83-7.85-.07l7.85.07Z"/>
  <path class="cls-19" d="M209.84,507.34l-7.9-.84c2.14-.13,6.05-.03,7.9.84Z"/>
  <path class="cls-4" d="M221.86,495.36l-1.14-7.68,1.14,7.68Z"/>
  <path class="cls-21" d="M563.53,340.63l-1.15-7.82,1.15,7.82Z"/>
  <path class="cls-10" d="M283.96,314.63l.45-6.85-.45,6.85Z"/>
  <polygon class="cls-21" points="563.15 353.74 562.45 347.66 563.48 346.66 563.15 353.74"/>
  <path class="cls-4" d="M377.62,543.4c-2.46,1.5-5.97,2.15-8.92,2.14l8.92-2.14Z"/>
  <path class="cls-20" d="M373.58,369.66c.25-1.27,1.3-3.11,2.14-3.93.12.62,1.01,2.41.33,2.74l-2.47,1.19Z"/>
  <path class="cls-11" d="M601.47,721.41l-4.17.96c.43-.48,1.58-1.26,2.05-1.64s2.04-.05,2.11.68Z"/>
  <polygon class="cls-4" points="608.69 296.69 608.37 299.7 607.6 293.55 608.69 296.69"/>
  <path class="cls-21" d="M426.25,748.29c-.5-1.61-.6-4.61.33-6.03l-.33,6.03Z"/>
  <path class="cls-27" d="M578.55,726.41l-3.14,2.88c.11-.51.09-1.78.55-2.03l2.59-.85Z"/>
  <path class="cls-30" d="M447.67,770.25c-.74-.61-1.12-2.96-1.12-4.05l1.12,4.05Z"/>
  <path class="cls-27" d="M649.46,664.39c-.84.76-2.09,1.7-2.98,2.07l2.98-2.07Z"/>
  <path class="cls-30" d="M446.53,757.33c0-1.12.54-3.11.87-4.13l-.87,4.13Z"/>
  <path class="cls-5" d="M482.43,812.1l-3.93.92,3.93-.92Z"/>
  <path class="cls-13" d="M474.26,484.51c-.18-.02-.86-1.07-.75-1.59l.99-2.45-.24,4.03Z"/>
  <path class="cls-30" d="M692.36,376.77l-4.15-1.04,4.15,1.04Z"/>
  <path class="cls-30" d="M511.46,896.15l-.15-4.15c.21.42,1.37,1.28,1.24,1.77l-1.1,2.38Z"/>
  <path class="cls-5" d="M378.63,687.31l-.99-3.94.99,3.94Z"/>
  <path class="cls-13" d="M472.77,478.8l-.18-4.27c.41.03,1.05,1.12.91,1.61l-.73,2.66Z"/>
  <polygon class="cls-27" points="578.43 725.29 578.28 723.93 582.56 721.44 578.43 725.29"/>
  <path class="cls-5" d="M382.36,701.36l-2.86-8.82,2.86,8.82Z"/>
  <path class="cls-5" d="M378.65,659.34l.98-2.98-.98,2.98Z"/>
  <path class="cls-5" d="M208.92,497.43l-2.18-1.84c.2-.21,1.28-.14,1.42.16l.76,1.68Z"/>
  <path class="cls-30" d="M467.76,705.05l3.39-2.94c.14,1.35-1.35,2.83-3.39,2.94Z"/>
  <path class="cls-5" d="M486.61,811.36l-2.99.91,2.99-.91Z"/>
  <path class="cls-5" d="M503.51,802.04c-.71.45-2.12,1.16-2.95,1.22l2.95-1.22Z"/>
  <path class="cls-24" d="M206.92,513.5c.12-.72,1.19-1.68,2.11-2.05l-.6,1.35c-.2.44-1.08.75-1.51.7Z"/>
  <path class="cls-4" d="M365.64,545.52l-2.96.91c.38-.54,2.12-.91,2.96-.91Z"/>
  <path class="cls-5" d="M379.59,655.34l1.16-2.85-1.16,2.85Z"/>
  <path class="cls-21" d="M563.49,344.72l.09-3.07c.16.17.98,1.13.76,1.52l-.85,1.54Z"/>
  <polygon class="cls-4" points="220.77 486.52 220.02 484.44 220.83 484.4 220.77 486.52"/>
  <path class="cls-27" d="M655.27,666.17c-.07.57-.18.84-.48.89l-1.39.21,1.87-1.09Z"/>
  <path class="cls-2" d="M522.5,155.88l-1.91,1.06,1.91-1.06Z"/>
  <path class="cls-5" d="M379.58,691.27l-.81-1.95.81,1.95Z"/>
  <path class="cls-9" d="M545.67,771.4l2.9-3.04-2.9,3.04Z"/>
  <path class="cls-3" d="M561.56,358.69c0-.37.52-.95.79-1.08-.02.37-.53.97-.79,1.08Z"/>
  <path class="cls-27" d="M406.53,445.65l1.04-1.02-1.04,1.02Z"/>
  <path class="cls-13" d="M599.33,672.33l-2.79,5.27-1.2-15.17c-.45-5.7-1.19-10.62-.15-16.07l-.97-.76c.13-.58,1.08-1.71,1.44-2.19l.58,3.01c.05,8.88.85,17.91,3.1,25.92Z"/>
  <path class="cls-12" d="M674.34,616.81l-.67-2.44c-.04-.43,1.31-.85,1.56-1.21l23.15-12.97c-2.56,3.99-6.54,5.55-10.36,7.97l-13.68,8.65Z"/>
  <path class="cls-22" d="M604.61,666.72c-.63-.14-.76-1.1-.82-1.5-.04-.24.18-.51.35-.83l17.33-17.24c-3.78,8.59-11.36,12.98-16.86,19.57Z"/>
  <path class="cls-12" d="M695.05,571.32l-.71,2.19-10.22,19.24,1.26,1.55-3.15,3.2c.29-1.65.69-5.1,1.44-6.63l7.43-16.8,3.95-2.77Z"/>
  <path class="cls-22" d="M608.6,653.52c-.68-1.95-.04-4.79.63-6.6-.34-.37.22,1.44.34,1.88.09.33.41.46.66.18l1.31-1.51,11-15.06c-.84,5.3-4.33,9.26-7.68,13.4l-6.25,7.72Z"/>
  <path class="cls-12" d="M673.83,610.45c-.23.36-.64,1-.91,1.2l-1.78.83,3.91-18.21.92-5.26,3.09-3.3-.87,3.67c-2.47,6.97-4.16,14.05-4.37,21.07Z"/>
  <path class="cls-22" d="M690.4,594.65c-.41-.11-1.3-1.13-.99-1.48l.74-.85,16.04-8.73c-4.03,4.9-10.13,7.88-15.79,11.07Z"/>
  <path class="cls-22" d="M663.64,702.25c-8.19.29-16.08,1.29-23.53,4.65l11.22.9-13.12-.11c.88-1.5,3.88-3.66,5.42-4.01l13.67-3.29,6.34,1.86Z"/>
  <path class="cls-13" d="M668.3,720.44l-8,1.89-2.56-1.27c-6.99-2.38-13.5-5.08-19.4-8.84l1.23-.18,11.89,5.06c5.68,2.42,11.28,3.57,16.84,3.34Z"/>
  <polygon class="cls-30" points="632.35 701.99 634.33 702.16 631.4 704.21 624.44 709.49 620.41 710.29 632.35 701.99"/>
  <path class="cls-12" d="M790.78,613.35l-2.94,3.82c-4.73,6.15-11.7,8.51-14.76,4.6l7.45-5.09c1.19-.74,2.14-3.76,1.4-4.57l1.48-.45c1.86-1.1,3.54-2.89,5.84-5.26l-2.93,7.4c6.49-5.44,6.24-12.52,9.63-19.53.78,8.45-6.25,17.49-5.62,18.54l.43.56ZM778.71,621.54l2.35-2.08-3.49.81c-.53.12.81,1.16,1.14,1.27Z"/>
  <path class="cls-14" d="M757.96,589.17l-6.5,9.14-1.02-5.66c-.59-2.22-.25-5.1,1.67-6.23.42.52.9.88,1.12.61l1.15-1.48,3-3.88c6.57-3.18,13.57-5.88,21.5-6.56l-14.14,5.13c-1.77.64-4.65,2.9-6.25,4.06l6.83-1.57c-2.96,2.55-5.94,4.46-7.36,6.45ZM754.76,587.44l-.02.65v.67l.02.65.02-.65v-.67l-.02-.65Z"/>
  <path class="cls-14" d="M757.17,615.33l-1.02-.06c-3.74.27-4.42-4.69-3.82-7.89l.89.03.26,2.88c3.5-5.08,6.26-9.58,11.43-13.17l-10.12,16.24,4.12-3.3c3.89-3.11,6.48-7.05,11.5-8.75l-13.25,14.01Z"/>
  <path class="cls-14" d="M748.33,609.5c-.07,1.35-.94,3.74-2.17,3l-2.99-1.81-2.2-2.42-.39-8.78-.31-4.02,2.4.36c1.85.12-1.1,7.87,2.15,13.79l-.42-10.25,3.94,10.13Z"/>
  <path class="cls-14" d="M764.39,618.95l-1.29.51-.68-2,14.77-8.06c-2.87,4.01-8.93,8.03-12.8,9.55Z"/>
  <path class="cls-28" d="M748.67,603.27l.63-.8.75-3.56,1.46,3.05c.35.73-1.86,1.26-2.84,1.3Z"/>
  <path class="cls-1" d="M787.36,586.46l-.4-1.37c-.2-.48-1.19-.73-1.86-.37l1.61-1.49c.39-.36,1.91,1.15,1.63,1.61l-.99,1.62Z"/>
  <path class="cls-1" d="M786.3,592.55l1.07-5.03-1.07,5.03Z"/>
  <path class="cls-28" d="M743.16,610.68l-1.58-.98c-.28-.18-.61-1.11-.62-1.44l2.2,2.42Z"/>
  <path class="cls-7" d="M516.41,355.67c-1.49,6.03,1.06,13.75,7.03,16.97l9.14,4.93c-10.58-.64-19.23-9.81-18.3-20.99-4.61,5.66-3.31,13.19,1.08,19.45,5.73,8.17,16.78,11,26.37,8.7l-2.1,2.05c-3.87-.14-8.67.19-12.42-.78-10.5-2.72-18.03-11.41-17.69-22.32l1.94-7.18c1.1-.74,3.6-.95,4.96-.82Z"/>
  <path class="cls-7" d="M518.49,351.69l3.03-2.78c-1.48,5.75,3.77,13.01,10.35,15.47,8.29,3.09,15.86.66,23.99-2.32-11.11,9.61-29.24,6.43-34.85-5.72l-2.52-4.64Z"/>
  <path class="cls-18" d="M494.72,366.66c-4.54,14.94,4.59,27.28,19.9,30.76l-.78,1.7c-5.67-2.15-11.88-4.29-15.99-8.83-5.15-5.68-8.4-16.56-4.55-23.72l1.42.09Z"/>
  <path class="cls-30" d="M522.16,346.4l2.26-6.49c-.74,5.11,1.32,8.31,5.28,10.57,8.04,4.61,16.18,3.81,24.96.18-7.37,6.93-19.64,6.64-27.29.14l-5.21-4.41Z"/>
  <path class="cls-7" d="M528.43,342.12l.1-1.42c6.72,4.05,15.9,2.88,22.16-2.78l5.84-5.28c-4.13,11.49-18.89,15.36-28.1,9.48Z"/>
  <path class="cls-7" d="M527.43,335.63l.95-.77c4.56,1.5,9.41,1.22,13.78-1.45,5.15-3.19,8.41-7.59,11.34-12.71-1.56,11.04-17.19,21.07-26.07,14.92Z"/>
  <path class="cls-20" d="M378.74,357.02l-5.16.54,5.16-.54Z"/>
  <path class="cls-7" d="M318.72,339.77l-4.64,6.29c-.7.95-3.38,1.32-4.36,1.91l3.49-3.64,4.85-5.82c-.08.37.26,1.48.65,1.26Z"/>
  <path class="cls-7" d="M309.72,347.97c-3.45,3.6-9.94,5.22-15.08,4.83l-1.03-1.28c4.25.31,8.26-.84,12.48-2.42l3.64-1.14Z"/>
  <path class="cls-10" d="M285.56,324.75c-1.03-2.52-1.14-6.83-.21-9.02l.21,9.02Z"/>
  <polygon class="cls-10" points="292.76 315.74 291.62 316.85 287.61 314.88 287.67 313.88 292.76 315.74"/>
  <path class="cls-10" d="M286.6,313.69c-.68-.12-1.2-1.74-.88-2.35l.9-1.72v4.07Z"/>
  <path class="cls-6" d="M540.89,300.24c-2.33,9.23-9.31,18.05-19,19,8.74-4.61,15.64-9.62,17.38-18.67l1.62-.33Z"/>
  <path class="cls-18" d="M507.7,281.56c.5,5.98-1.77,12.03-6.08,16.01,2.25-6.1,4.16-10.89,3.99-16.15.23-.02,1.58-.05,2.09.14Z"/>
  <path class="cls-7" d="M408.39,630.43l-1.61-9.19c-.54-3.09.67-7.36,1.65-11.01l6.98-25.93c.39,15.76-9.04,28.66-7.02,46.13Z"/>
  <path class="cls-7" d="M404.96,597.52l-1.66-1.19,3.97-19.93c1.07,7.11-.3,14.25-2.31,21.12Z"/>
  <path class="cls-22" d="M670.71,656.95l4.8-2.41,1.73.79,25.13.2c-2.37.67-6.12,1.76-7.96,1.76l-23.71-.34Z"/>
  <path class="cls-13" d="M687.14,650.44l4.23-2.94c-.37.26,2.36,1.09,3.12,1.06l21.88-.87c-3.24,1.16-8.18,2.5-11.9,2.54l-17.33.21Z"/>
  <path class="cls-7" d="M523.47,391.37l-.05,1.51c-3.26-.53-6.39-1.61-9.58-3.53-9.72-5.86-15.3-17.64-9.07-28.57.41,5.58-1.41,11.46.45,16.05,3.25,8.03,10.89,12.53,18.26,14.54Z"/>
  <path class="cls-19" d="M553.56,371.19c-.39.9-1.23,2.99-1.93,3.68l-4.92,1.18c-2.72.99-5.86,1.59-8.29,1.42l15.14-6.28Z"/>
  <path class="cls-21" d="M317.7,269.74l-1.02,2.04c-2.58-.09-5.07-.97-7.33-2.69l8.36.66Z"/>
  <path class="cls-10" d="M301.77,315.78c-.74.38-2.25,1.03-3.08.99l3.08-.99Z"/>
  <path class="cls-11" d="M602.25,719.24c-.39.01-.68-.64-.36-.89l1.53-1.1-1.17,2Z"/>
  <path class="cls-5" d="M502.15,806.27l-8.97,3.06c1.38-3.15,5.21-4.87,8.97-3.06Z"/>
  <path class="cls-25" d="M421.55,594.42l.29-9.05c.94,2.43.92,6.58-.29,9.05Z"/>
  <polygon class="cls-5" points="444.07 772.25 444.57 772.75 444.07 773.24 443.55 772.75 444.07 772.25"/>
  <path class="cls-12" d="M761.2,617.55l-4.14-.82-.91-1.47,1.02.06c1.62.11,4.59-1.23,6.35-2.57l11.29-8.6c-.98,7.12-11.53,8.81-13.62,13.4Z"/>
  <path class="cls-19" d="M560.41,352.61l.03-2.95c.46-.05.97.99.97,1.5s-.5,1.55-.99,1.45Z"/>
</svg>