<svg xmlns="http://www.w3.org/2000/svg" viewBox="0 0 1024 1024">
  <path d="M720.38,556.28c.91,1.62,3.19,4.03,4.54,4.24l7.35-4.1c-9.85,7.3-16.61,17.14-20.97,28.98-5.77,15.66-15.57,27.73-29.92,36.01-10.27,5.92-17.43,14.26-24.23,23.76l-17.16,23.98,4.39-1.81.08,1.73,7.69-1.95-17.12,9.03c-16.29,9.77-31.3,21.53-44.15,35.5l-8.4,8.64,1.2-5.14-2.61.06c6.99-12.16,8.66-25.96,6.76-40.15-1.51-11.3.62-22.67,5.2-33.29,3.27-7.6,7.5-15.48,13.4-21.4l20.35-20.45,11.16-9.21c-.4,3.11-1.87,4.31-3.83,6.6-3.97,4.62-7.16,11.07-7.3,17.63l-.65,30.4c-1.44,16.44-10.83,29.35-22.49,40.15-8.5,7.88-15.35,16.49-18.24,27.97,12.25-14.41,26.7-25.2,41.57-36.57l11.26-10.43c8.55-7.92,15.6-17.57,18.3-28.76l6.26-25.86c3.41-14.11,10.28-26.15,21.36-35.65s23.13-15.8,36.19-19.91ZM695.05,571.32l-3.95,2.77c-4.51,3.16-8.17,7.5-12.04,11.62l-3.09,3.3c-5.73,6.12-8.77,15.44-10.77,24.2l-3.75,16.38c2.17-2.47,4.9-6.47,5.34-9.31l2.17-14.11-.28,11.58c1.02-1.52,2.18-3.88,2.47-5.27l1.78-.83c.26-.19.67-.84.91-1.2l8.4-12.94,3.15-3.2c9.58-13.3,21.43-24.68,35.13-34.87-9.51,2.79-17.97,6.63-25.45,11.88ZM690.16,592.31l-.74.85c-.3.35.58,1.37.99,1.48-3.92,2.2-6.73,6.3-9.53,10.35l-5.65,8.16c-.25.36-1.6.78-1.56,1.21l.67,2.44c-3.79,2.4-6.3,8.02-8.23,12.31l18.14-12.85c5.22-3.7,10.28-7.73,14-12.97,4.83-6.8,9.96-13.87,10.98-22.13l4.59-7.08,6.94-11.16c-5.34,3-8.64,5.71-12.45,9.53l-7.01,7.01-11.15,12.85ZM602.49,646.31l1.54,9.32,5.29-16.44,13.16-31.55c-4.39,3.25-8.42,7.31-11.8,11.93-5.5,5.49-8.11,11.9-7.27,19.82-.44,1.66-1.16,5.39-.91,6.93ZM609.23,646.92c-.67,1.81-1.31,4.65-.63,6.6l-4.45,10.88c-.16.32-.38.59-.35.83.06.4.19,1.35.82,1.5-1.96,2.35-3.47,7.01-4.36,10.74l17.51-15.78c4.4-3.96,4.84-10.76,4.99-15.63l.45-14.74.2-9.03,1.67-13.17c-5.57,8.2-8.36,17.52-11.86,27.02l-3.98,10.79ZM595.64,643.41c-.35.48-1.31,1.61-1.44,2.19l-3.52,15.7c-.45,1.99.73,5.81,1.05,7.54l2.77,15.01c.93-2.04,2.15-4.74,2.03-6.24l2.79-5.27,3.23-12.87c-1.24-9.94-1.44-18.24-.57-28.41l-4.76,9.35c-.56,1.09-1.11,2.37-1.59,3.01ZM595.32,690.46l7.9-8.31c5.07-5.33,10.3-9.92,13.6-16.64l-5.94,4.3-9.24,9.76c-3.03,3.21-6.01,6.21-6.32,10.9Z" fill="#cab37d"/>
  <path d="M503.53,302.74l4.6,2.5,1.61,1.48,7.9,7.95.89,1.09,3.76,7.93,1.27,3.03c.38.92.41,2.48.5,4.38.07,1.49,2.8,3.24,4.33,3.75l-.95.77c-.04-.13-2.36.61-2.05,1.01l3.15,4.05-.1,1.42-4.01-2.21-2.26,6.49-.65,2.51-3.03,2.78c-.77.83-1.8,2.85-2.08,3.98-1.36-.13-3.86.09-4.96.82l-5.21,3.48-5.62-.2-5.9,6.88-1.42-.09,3.25-6.05-6.05,1.46c-2.4-.94-4.87-1.07-7.08-.78-3.78.51-7.64,2.97-9.6,6.59l-1.32-.14,2.98-5.21c-3.02.18-5.6,1.4-7.72,3.29-7.25,6.44-8.76,14.39-6.15,24.27-2.72-2.46-2.78-5.71-3.44-9.24-2.18-11.66,7.75-21.77,15.36-21.97l11.16-.29c-6.45-8.3-16.07-10.1-26.41-6.7,2.04-2.39,4.81-2.83,8.41-3.75-3.27-1.56-7.48-1.77-11.35-.75l-15.42,4.07c3.19-2.6,5.35-3.64,8.58-5.27-10.11-4.4-22.15-3.42-30.62,4.68l.32-3.46c-1.69.98-5.19,2.92-6.33,4.58l-6.13,8.85c-.81-6.43,3.99-8.64,7.34-14.14l-7.37,1.94c-2.1-.41-5.21-.49-6.42.69l-3.84,3.77-2.08-1.7c-4.33,2.47-8.8,5.69-12.5,9.33l-2.64-1.9.52-1.75-5.16.54-1.15.46c-.3-.58-1.89-2.43-1.46-1.93l6.74-1.1c1.47-.24,4.95-.2,6.18-1.11,20.02-14.71,28.78-7.95,35.5-10.26l7.62-2.62c8.49-2.92,17.14-1.24,24.55,3.97,11.89-3.93,24.4,1.02,33.38,9.32s31.64,1.36,35.6-11.55c3.59-11.7-1.42-24.55-10.73-32.23l-9.25-7.87c.62-.05,2.36-.24,2.98.1Z" fill="#b89f6b"/>
  <path d="M287.59,306.5l-.97,3.12-.9,1.72c-.32.61.21,2.23.88,2.35l1.07.18-.06,1-1.26-.06c-.31-.01-.88.63-1,.92-.93,2.18-.83,6.5.21,9.02,1.99,4.85-1.68,8.02,4.79,13.28l-1.54,2.17c-.32.45.41,1.78.77,2.59l4.03,8.73,1.03,1.28c2.44,4.32,5.1,10.15,10.15,12.62,2.77,1.36,6.86-1.01,10.09-1.45l-8.45,4.26c11.69,10.6,30.13,19.82,45.76,22.37l26.03-31.83,2.64,1.9-5.14,5.05c-.84.82-1.89,2.66-2.14,3.93l-3.17,2.74-2.63,1.72c-.44.29,1.7,1.31,1.68,1.68-2.68,1.69-5.38,5.21-7.6,7.66l4.62-.79-11.26,9.58,4.63-.26c-3.2,2.81-7.62,5.24-10.1,8.51l-10.47,13.81c-.96,1.26-.47,3.3-3.23,3.59l1.51-6.42c-4.11,3.53-7.42,9.33-6.6,14.66l2.4,15.54,3.95-9.05,1.98.31c-1.74,9.59-6.44,16.9-11.34,24.86l-16.79,27.26-9.32,11.69-1.39-2.29c2.38-1.93,5.42-5.89,7.2-8.89l13.47-22.66,9.24-15.7c2.1-3.57-.87-11.49-2.17-14.98-3.03.06-5.16.02-7.64-2.25l7.32-.56c-1.08-8.09,1.95-15.22,7.9-20.93l15.39-14.78c-21.05-6.13-37.77-13.32-52.24-29.37-11.01-13.5-16.25-30.14-16.32-47.73.39-.55,1.3-1.54,1.39-2l.45-6.85c.34-.13.94-.36.89-.34l.81-3.81,1.48,2.89Z" fill="#c8b17b"/>
  <path d="M540.27,321.45c-1.45,2.22-4.82,4.89-7.76,5l-8.96.28-1.27-3.03c4.63,1.67,9.54.95,14.23-.83l3.76-1.43Z" fill="#ab946a"/>
  <path d="M403.31,596.32l1.66,1.19c-3.2,10.92-4.06,22.78,1.27,34.02l.55-10.29,1.61,9.19c1.04,4.04,2.83,8.35,5.33,11.05l1.12-.79c-2.73-11.69-1.3-24.34,4.44-35.63l2.25-7.72.45,1.99c.04.25.78-.93,1-1.03l.87-.36,7.5-11.6,1.42,2.37-4.74,8.14c-6.25,10.74-12.11,21.67-11.26,34.54,1.54,23.17,19.78,34.74,4.79,50.88-5.58,6.01-4.13,14.11-2.98,22.34-6.46-9.9-2.7-20.59,4.47-28.8,4.33-4.96.36-13.18-1.5-18.02-2.57-6.68-5.13-10.88-10.54-15.15s-8.76-11.66-10.22-18.23c-.78-3.53-1.56-6.12-4.01-8.35l-12.42,32.35c-.54-.21-1.39-.45-1.47-.94l-.55-2.2,6.65-16.66c1.99-4.98,5.17-11.64,5.11-16.92-.91-7.94-2.87-15.29-1.47-23.37,2.28-13.12.13-25.91-8.19-36.14l1.12-.72,4.43,4.49c6.81,10.17,7.72,21.64,5.77,33.51-.54,3.28-.13,7.37.28,11.13l3.77-13.2c.82-2.86,1.4-7.65,1.32-10.54l-.25-9.61c7.03,17.83-7.36,33.42-1.79,47.35l4.21-18.27ZM415.19,643.08l-.11-1.18c-.1-1.12-.1-1.1.11,1.18Z" fill="#bca36e"/>
  <path d="M498.57,400.49l.3-.91c4.16,2.52,10.92,1.46,14.98-.46l.78-1.7c4.65,1.06,9.59-1.16,13.73-3.43l-4.94-1.11.05-1.51c6.18,1.69,12.08-.01,16.15-4.6l2.1-2.05,9.9-9.86c.7-.69,1.54-2.78,1.93-3.68l4.58-10.52c.43.15,1.47-2.28,1.8-1.87l1.59,1.93c-2.19,6.68-5.55,13.34-10.1,18.67l-1.96,2.3c-7.13,8.97-17.35,15.3-28.45,18.35l-1.14,2.03c-.2.36.29,1.11.55,1.84-14.72-1.93-28.71,5.26-40.47,13.78-4.92,3.56-10.72,5.5-16.42,4.57l9.84-3.65,19.34-12.56c-10.26-3.06-13.55,5.64-21.8,4.46-14.54-2.08-25.34-13.24-25.47-27.76-.06-6.76.88-12.79,5.39-18.19-5.47,1.83-9.71,2.36-14.42.48,7.31-.17,13.26-1.45,18.82-5.71,4.09-3.14,9.09-6.2,14.84-4.43-7.83,2.15-13.88,5.92-17.64,12.68-5.47,9.85-5.4,21.09,1.56,30.07,6.05,7.81,17.07,13.03,26.74,8.42-5.95-.45-11.95-.81-15.1-5.29l11.67,2.61c1.66.37,5.24-.78,7-.79l15.09-.05-.83-2.02Z" fill="#c2a973"/>
  <path d="M520.43,403.9c-.27-.74-.75-1.48-.55-1.84l1.14-2.03,4.24,1.74,13.84,4.24c5.7,1.75,11.61,2.24,17.31.72.81-.51,1.93-1.19,2.13-.73l1.14,2.66c-5.31,7.1-11.24,12.67-18.4,17.75l-13.18,12.87c-3.9,3.81-10.04,5.88-15.13,7.67-9.4,3.3-18.57,1.45-26.28-4.69-2.1-1.38-4.87-1.25-6.58-4.7,11.16,2.18,18.21,12.17,31.46,6.49l-4.11-2.59c6.79,1.94,15.17,1.35,17.16-5.08,2.51-1.63,5.22-3.94,8.18-6.5l21.5-18.59-15.71,2.08-10.88-1.23c-9.02-1.02-18.95,1.13-24.26,7.99l3.51-.36c5.43-.56-5.36,1.88-9.5,7.42l5.16.85-9.35,3.36c-4.12,2.41-8.58,3.51-13.56,3.43-1.05.65-1.65,4.57-.83,5.72,1.65,2.31,8.85,2.96,6.77,4.36-.46.31-2.08,1.19-2.63,1.21-3.95.19-8.97-6.18-7.94-10.23,1.61-6.34,12.03.31,21.22-12.66,6.05-8.55,14.5-14.92,25.63-14.19l19.84,1.3c-7.01-2.75-14.29-5.52-21.32-6.45Z" fill="#c8af77"/>
  <path d="M301.82,496.76l-8.2,6.78c-.88.73-2.33,1.93-2.9,2.82-6.28,9.69,3.03,15.16,3.51,25.44-3.42,2.38,1.41,9.47,3.59,9.53l11.62.3c10.45,3.39,20,7.02,30.8,7.41,7.71.28,20.96-6.05,24.01-15.02l11.54-3.29c7.86-2.24,13.95-5.62,20.83-10.6-4.26,6.98-11.43,10.09-18.93,12.41l-11.17,3.46c-3.13,4.79-5.83,8.02-9.9,11.34l4.99-.8-3.09,1.55,3.05.48c-5.84,1.69-10.74,4.96-15.31,9.43-5.8,5.68-14.9,5.29-22.08,2.98l-10.16-3.27c-4.8-1.55-9.66-7.38-9.88-12.89l-6.97-.57c-10.48-7.37-5.72-17.24-8.84-22.15-4.64-7.29-2.98-15.38,3.45-20.6l8.65-7.03,1.39,2.29ZM320.03,556.81c14.89,4.7,21.06,4.63,31.6-7.13-5.19,1.29-9.51,1.82-15.14,2.22l-27.83-7.43-2.41.17c-.32.02-.37.32-.17.62.18.27,1.52,1.62,1.79,1.71l18.71,5.68-.48,1.13-16.62-4.13c1.43,4.93,5.82,5.68,10.56,7.18Z" fill="#bfa874"/>
  <path d="M696.34,519.31l-1.25,2.36c-11.44-3.28-20.35-10.52-28.52-19.29l.75,13.09.04,14.01-.39,1.14-.62-7.26c-.15-1.8-.78-3.61-.97-4.92l-.89-6.1c-7.14-35.15-24.72-67.89-50.95-91.66l2.08-2.2,14.75,15.01c14.61,16.66,23.94,35.6,32.19,55.94,6.03,14.86,19.66,24.47,33.78,29.88Z" fill="#c8af77"/>
  <path d="M546.71,703.37l-.25,5.3c-.08,1.77-.89,5.81-.38,7.49l6.37,21.02c.06.84.05,1.94.66,2.02l2.96.38c.81.11.89-2.96.77-3.21l.46-1.15,1.37,1.31c-3.69,6.24-5.51,14.01-7.11,22.1l24.87-35.36,1.85.64.15,1.37.13,1.12-2.59.85c-.47.24-.44,1.51-.55,2.03l-.57,2.55c-.13.57,2.25.48,2.6.01l1.1-1.49,23.64-17.22,4.57-1.27-2.91,2.86c-.45.44.42,2.16.63,2.83l-1.06-.33-1.53,1.1c-.32.25-.03.91.36.89l2.18-.07c.47.24.8,1.3.44,1.38l-1.58.56-1.83.3c-.07-.72-1.63-1.05-2.11-.68s-1.62,1.16-2.05,1.64c-11.15,5.53-23.15,12.97-31.29,23.29l-17.44,21.63c1.17-2.5,1.9-4.81,1.99-8.22l-5.06,6.08c4.3-8.61,7.27-18.33,4.06-28.02l-5.42-16.35c-1.94-5.86-.85-13.78.23-19.38l1.78-3.25.55,5.21ZM573.94,732.29l-.02.65v.67l.02.65.02-.65v-.67l-.02-.65Z" fill="#c5aa6f"/>
  <path d="M558.67,736.54l-1.37-1.31c3.31-8.26,5.56-17.05,3.65-25.99l-2.2,8.63-2.79,15.21-.19,1.95c-.05.5.42,1.33,1.07,1.35.13.25.04,3.31-.77,3.21l-2.96-.38c-.61-.08-.6-1.18-.66-2.02.06.26.91-.72,1.15-1.02l-.36-11.32c-2.64-5.4-4.9-9.35-5.19-15.25l5.97,13.1c1.34-11.18-1.93-21.08-5.19-31.47l-1.82,11-.31,1.14-.55-5.21-1.78,3.25c2-10.35,2.1-19.46-4.49-29.93,3.37,1.61,5.22,4.23,7.55,6.94,6.06,7.03,11.69,14.41,14.64,23.16,4.14,12.3,2.83,24.42-3.41,34.97ZM548.97,684.64l-.05,1.49.05-1.49ZM550.27,686.17l-.78.66,3.67,10.7,2.65,8.48c.99,3.15-.49,7.73,1.99,11.06l1.58-14.7-3.12-6.71c-1.73-3.72-3.78-6.94-5.98-9.51Z" fill="#bfa874"/>
  <path d="M474.57,473.53l-.07,6.94-.99,2.45c-.12.51.57,1.57.75,1.59-2.9,23-21.01,42.21-44.87,44.52-23.43,2.27-28.91,13.8-45.13,15.56-1.48.16-2.83.55-3.99,1.02l4.5,1.73-9.12.21-4.05-.04-7.85-.07c-.58,0-1.78.81-2.17,1.13l-3.05-.48,3.09-1.55,1.06-.11,2.96-.91h3.06c2.94.02,6.46-.63,8.92-2.13,10.55-1.95,20.55-6.06,29.98-11.85,6.11-3.76,12.7-4.84,19.76-5.41,21.15-1.72,38.52-16.96,43.19-37.55l2.22-9.78.73-2.66c.14-.5-.5-1.58-.91-1.61l-.02-.98,2-.03Z" fill="#c8b17b"/>
  <path d="M500.02,527.62c.12.6.32,1.44.29,1.88-.6,8.5-16.07,30.63-24.23,40.5-23.73,28.72-37.5,53.24-37.02,92.27-2.47-7.53-1.78-15.26-1.05-22.62,2.81-28.55,17.46-49.08,35.12-70.63,10.12-12.35,18.91-25.03,25.32-39.66l.75-1.72c.12-.28.51-.12.82-.03Z" fill="#c2a973"/>
  <path d="M526.68,582.59c-5.85,9.89-12.21,19.82-20.68,28.38l-27.78,28.07-5.56,5.5c-11.88,11.75-22.88,23.84-30.79,38.23l-2.45-1.24c7.89-13.23,17.42-25.39,28.75-36.53l31.27-30.73c10.22-10.04,18.79-20.91,25.88-32.96l1.35,1.27Z" fill="#c6b07c"/>
  <path d="M615.63,418.48l-2.08,2.2c-9.95-9.01-21.64-16.51-33.39-22.25l-.64.67.51,2.65-15.5-10.35-15.06-9.71,1.96-2.3,5.08,4.13,19.41,9.61c14.32,7.09,28.8,14.25,39.71,25.35ZM578.93,398.12c1.09.06,1.06.06-1.23-.07l1.23.07Z" fill="#b89f6b"/>
  <path d="M621.6,352.54c14.62,24.47,39.87,39.92,67.77,43.94l-4.09,1.52c-28.1-3.52-52.83-20.87-67.11-45.32l3.42-.14Z" fill="#b59964"/>
  <path d="M494.31,659.65c-3.6,2.87-6.05,5.6-10.57,7.75,2.01-3.06,4.84-5.4,7.95-7.88l31.13-24.84c17.49-13.95,30.22-31.6,38.23-52.6l1.4-3.19c.37-.85-1.05-2.51-1.34-2.83l2.96-5.42c.41,2.19,1.65,4.67,2.67,5.05-3.24,4.35-5.76,9.89-8,15-7.12,16.18-18.31,32.18-31.92,43.04l-32.51,25.93Z" fill="#af9c75"/>
  <path d="M321.6,532.24c-3.51,1.67-6.99,2.96-10.49,1.41-3.26-1.44-4.51-4.72-4.66-8.71-.11-2.79,2.77-6.94,6.25-7.12,6.07-.31,7.39-4.03,10.68-7.6,3.25-3.05,6.97,3.15,7.35,6.03,1.07,8.02-1.82,12.53-9.13,16ZM326.71,521.95c1.73-3.65,1.42-7.18-2.34-10.08-3.18,11.65-15.83,5.09-14.83,15.75.16,1.76,2.9,4.57,4.56,4.07s10.9-6.1,12.62-9.74Z" fill="#c2a973"/>
  <path d="M384.26,544.58c6.74,3.89,18.62,6.27,24.43,13.7l9.21,11.79c6.33,8.11,8.29,18.26,5.96,27.88l-.87.36c-.23.09-.97,1.28-1,1.03l-.45-1.99.02-2.93c1.21-2.47,1.22-6.62.29-9.05l-5.16-13.38-1.83,3.59c-3.26-13.95-14.66-24.25-28.69-26.27l-.51.62-.08,1.55-1.12.72-8.81-4.66,9.12-.21-4.5-1.73c1.15-.46,2.5-.86,3.99-1.02ZM385.14,548.97l-1.25-.06,1.25.06Z" fill="#bfa874"/>
  <path d="M441.88,682.78c-7.79,14.18-13.83,29.67-15.18,46.43l-.13,13.05c-.93,1.42-.82,4.42-.33,6.03l1.23,3.98-1.5,2.07-1.68-4.04-.53-13.02.7-14.05c2.59-14.94,7.48-29.16,14.95-41.69l2.45,1.24Z" fill="#bfa874"/>
  <path d="M358.19,410.52l1.58,1.65c4.94-3.16,9.8-6.85,15.95-8.67-3.34,3.51-8.51,4.99-11.61,8.76-10.32,12.54-13.19,25.36-22.58,39.28l-23.77,35.27c3.12-8.26,7.82-15.35,12.83-22.42,7.26-10.26,12.9-20.81,19.06-31.86l8.73-15.69c-.29-2.18-.42-4.81-.18-6.32Z" fill="#b0a17c"/>
  <path d="M450.87,743.55c-.57-.55-1.32-1.36-1.5-.97l-.8,1.75c-.19.42-.93,2.04-1.34,1.85l-2.01-.9c2.03-14.12,9.5-27.88,20.5-38.21-6.21,11.37-15.07,20.3-17.05,34,5.52-8.67,11.86-16.9,21.1-22.47,6.1-3.68,12.53-6.69,19.81-4.8-17.42,1.93-31.6,13.8-38.7,29.75Z" fill="#af9c75"/>
  <path d="M443.77,765.51c.44,3.01,2.82,6.56.36,9.57-11.91-28.8,2.07-69.67,22.99-91.25l14.07-14.52.31,1.47-10.56,11.02c-20.37,21.26-34.11,55.13-27.17,83.71ZM444.07,772.25l-.52.5.52.5.5-.5-.5-.5Z" fill="#af9c75"/>
  <path d="M630.91,475.68l-1.68.57-5.45-17.18c-5.94-14.57-14.67-27.88-25.56-39.21l-5.89-6.14,1.48-1.07c10.49,9.05,18.44,20.05,25.43,32.07,5.71,9.82,9.5,20.02,11.66,30.96Z" fill="#b8a37a"/>
  <path d="M385.65,708.42l2.13-2.33c5.65,14.05,27.99,30.46,29.53,56.55-4.98-14.63-10.51-27.67-21.07-38.94-4.31-4.6-8.16-10.06-10.59-15.28Z" fill="#b59964"/>
  <path d="M407.59,443.4l-.02,1.23-1.04,1.02c-1.77,1.73-5.09,2.61-7.66,1.23-1.95-1.05-3.79-4.03-4.52-6.64.43-2.29,2.44-4.16,4.9-5.75l9.33.14-.99,8.78Z" fill="#d1ab62"/>
  <path d="M380.38,681.31l3.66,15.47,3.74,9.31-2.13,2.33-3.29-7.06-2.86-8.82.08-1.27-.81-1.95-.14-2.02-.99-3.94-.1-4.06c-.09-3.87.08-7.56,1.6-11.2l1.23,13.2Z" fill="#bca36e"/>
  <path d="M385.44,437.71l-1.8-3.54c.85-1.21,2.58-3.9,3.86-4.64,7.06-4.1,14.38-7.99,23.32-8.24l-19.26,10.26c-2.71,1.44-4.97,3.32-6.13,6.16Z" fill="#c8af77"/>
  <path d="M383.65,454.28l3.66-4.54c4.14-1.05,8.11-1.06,12.36-.51,7.51.97,12.49-4.26,17.48-10.28-2.09,10.4-12.85,15.34-22.77,11.54-2.43.67-5.84,2.39-7.94,3.71l-1.77,1.11c-.21.13-.46-.33-1.01-1.03Z" fill="#c3b081"/>
  <path d="M392.41,409.42l1.23.39-.86,1.85c-11.02,4.78-16.22,14.11-20.33,25.82-.96-13.02,9.13-23.73,19.96-28.05Z" fill="#c3b081"/>
  <path d="M384.75,385.74c-3.7,3.82-7,7.44-11.41,10.87l8.28-10.06,13.97-13.93c5.42-5.4,11.39-10.19,19.68-11.9-6.59,3.89-13.54,7.5-19.15,13.29l-11.36,11.72Z" fill="#a29370"/>
  <path d="M526.68,582.59l-1.35-1.27c7.3-12.39,12.49-25.93,15.96-39.89l1.65.17c-3.39,14.33-8.72,28.26-16.26,41Z" fill="#a29370"/>
  <path d="M345,638.33l-1.68-8.85-8.74-1.63,8.55-1.93,1.92-8.61,1.77,8.83,8.82,1.71c-2.8.49-6.46,1.13-9.23,2.23l-1.4,8.25Z" fill="#b7a274"/>
  <path d="M500.31,529.5c.03-.44-.17-1.29-.29-1.88-.05-1.54.56-3.37,1.07-5.54l5.26-22.54c.78-3.34.7-6.42,1.88-9.26,1,14.11-3.22,27.05-7.92,39.22Z" fill="#b0a17c"/>
  <path d="M656.02,666.04c-.27.04-.6.05-.76.13l-1.87,1.09-1.24-.15-7.69,1.95-.08-1.73,2.1-.87c.89-.37,2.14-1.3,2.98-2.07,2.04-1.85,5.3-4.31,7.73-4.97l5.26-1.42-2.96,5.98-3.47,2.07Z" fill="#d1ab62"/>
  <path d="M399.54,433.58l-.29.91c-2.45,1.58-4.46,3.45-4.9,5.75l-7.05,9.51-3.66,4.54-4.9,3.68c1.2-4.95,4.53-7.15,7.38-10.92l8.18-10.86c.99-1.31,3.83-2.37,5.23-2.61Z" fill="#c6b07c"/>
  <path d="M498.87,399.58l-.3.91c-4.43-.66-7.41-3.25-9.31-6.81l9.62,5.9Z" fill="#a29370"/>
  <path d="M490.5,361.98c-2.38.57-4.97,4.95-5.98,7.55-3.49,9.05.74,16.67,4.73,24.15-9.13-5.44-11.06-22.84-1.69-31.77l-4.14-.71c2.2-.3,4.67-.17,7.08.78Z" fill="#a29370"/>
  <path d="M407.59,443.4l.99-8.78-9.33-.14.29-.91,4.16-.7,16.94,2.75c1.26.2,4.27-1.61,5.06.86-4.8,2.25-10.04,1.99-15.39.7l-2.72,6.22Z" fill="#cab37d"/>
  <path d="M359.77,412.17l-1.58-1.65c1.46-9.15,8.69-24.04,17.53-24.97-9.26,7.35-12.45,15.71-15.96,26.62Z" fill="#c1ab79"/>
  <path d="M426.17,392.06c12.55,0,23.81,24.75,15.56,34.85,3.18-14.28-1.42-27.75-15.56-34.85Z" fill="#a29370"/>
  <path d="M389.44,456.05c1.42-1.43,4.2-1.69,6.42-1.08,9.52,2.65,17.09-.84,22.43-9.83-1.06,9.08-9.84,13.55-18.71,12.31l-10.13-1.41Z" fill="#b0a17c"/>
  <path d="M414.85,463.74c-5.58,2.88-12.96,2.56-17.99.09,15.85,2.74,22.08-3.01,28.14-16.94.18,6.82-4.03,13.69-10.16,16.85Z" fill="#b0a17c"/>
  <path d="M666.98,530.62c.62,7.24-1.17,15.74-5.32,22.17,2.51-11.92,4.21-22.97,3.73-34.36.19,1.31.82,3.12.97,4.92l.62,7.26Z" fill="#b8a37a"/>
  <path d="M542.94,541.59l-1.65-.17c2.94-11.8,4.03-23.76,4.64-36.55,2.69,2.02,1.05,5.3.93,7.81-.51,10.1-1.71,19.6-3.91,28.91Z" fill="#958160"/>
  <path d="M695.09,521.67l1.25-2.36c7.99,3.06,16.18,6.62,19.83,15.6-6.34-6.48-12.92-10.9-21.09-13.24Z" fill="#b7a274"/>
  <path d="M432.78,588.73l-1.42-2.37c4.24-6.56,5.03-14.25,7.4-22.75,1.19,9.28-1.8,17.93-5.98,25.12Z" fill="#c1ab79"/>
  <path d="M355.76,489.09l-7.24,8.57c4.06-9.21,10.29-16.69,19.29-21.22l-12.05,12.66Z" fill="#b0a17c"/>
  <path d="M437.64,378.03c-4.06-5.03-10.27-3.5-16.32-2.4,3.7-4.01,9.15-3.71,14.17-1.56,3.7,1.59,7.48,6.61,8.18,11.42l-6.03-7.47Z" fill="#a29370"/>
  <path d="M423.72,433.22c-6.93,1.44-13.62-3.57-24.29-3.1,4.25-1.84,9.3-1.99,13.94-.42l10.35,3.52Z" fill="#af9c75"/>
  <path d="M629.24,476.25l1.68-.57c1.88,9.5,3.2,18.88,2.05,28.9l-1.12-9.35-2.6-18.98Z" fill="#a29370"/>
  <path d="M290.72,506.36c.58-.89,2.02-2.09,2.9-2.82-.01,1.36.26,4.28,1.2,5.25s3.75,2.03,5.2,2.47l11.44-1.44c-8.76,4.93-16.33,4.31-20.74-3.47Z" fill="#ab946a"/>
  <path d="M380.91,666.42c-1.26-.1-2.35-.83-2.35-1.59v-3.47s.09-2.03.09-2.03l.98-2.98-.04-1.02,1.16-2.85-.1-1.18,3.73-1-3.47,16.12Z" fill="#bca36e"/>
  <path d="M339.32,522.51l-2.29-12.12c-3.71-4.89-8.25-6.74-14.46-7.33,4.96-1.58,11.3.15,14.66,4.93,2.87,4.08,2.8,10.13,2.09,14.53Z" fill="#a29370"/>
  <path d="M480.73,694.61l-1.37-.48c7.61-6.17,16.14-12.11,26.21-14.85l-24.85,15.33Z" fill="#a29370"/>
  <path d="M562.61,330.55l-.24,2.26,1.15,7.82.06,1.02-.09,3.07v1.95s-1.05.99-1.05.99l-2.01-.04c-.02-4.97.57-11.05-.42-15.71l.76-3.29,1.84,1.94Z" fill="#b89f6b"/>
  <path d="M472.51,367.65l1.32.14c-3.93,7.25-2.38,15.51-.46,24.14-5.53-7-4.96-17.09-.85-24.28Z" fill="#998767"/>
  <circle cx="652.79" cy="583.7" r="3.57" fill="#c5aa6f"/>
  <path d="M562.69,477.78c1.09-.46,3.51,1.55,3.8,2.65.38,1.43-.97,4.27-2.44,4.32s-3.63-.92-4.28-2c-.7-1.16.73-4.06,2.91-4.97Z" fill="#bb9759"/>
  <path d="M395.44,353.04c-3.47,3.4-5.14,10.39-6.92,16.38-2-6.68,2.13-12.68,4.84-18.07l2.08,1.7Z" fill="#c3b081"/>
  <path d="M393.64,409.81l-1.23-.39c5.53-3.13,12.44-4.54,19.23-3.52l-15.44,3.75c-.75.18-2.34.19-2.56.16Z" fill="#af9c75"/>
  <circle cx="654.52" cy="420.74" r="3.07" fill="#c8af77"/>
  <path d="M474.57,473.53l-2,.03-.28-16.74c2.61,5.87,2.33,11.27,2.27,16.72Z" fill="#ab9772"/>
  <path d="M385.44,437.71l-2.91,7.11c-3.53-3.9-1.35-7.14,1.11-10.65l1.8,3.54Z" fill="#ab9772"/>
  <path d="M380.91,666.42l-.54,14.89-1.23-13.2c-1.53,3.64-1.69,7.33-1.6,11.2-.94-3.06-.71-7.16-.25-11.07l1.26-6.88v3.47c0,.76,1.09,1.49,2.35,1.59Z" fill="#b59964"/>
  <path d="M593.82,412.65l-1.48,1.07c-4.14-4.31-8.5-7.59-11.6-12.35l13.08,11.28Z" fill="#998767"/>
  <path d="M453.26,412.49c-2.9-3.55-5.16-7.94-6.74-13.6,3.14,3.42,5.98,7.62,6.74,13.6Z" fill="#a29370"/>
  <path d="M405.7,348.57l-6.8,5.36,1.07-3.46c.12-.4-.1-.68-.69-1.2,1.21-1.19,4.32-1.1,6.42-.69Z" fill="#c3b081"/>
  <path d="M480.73,694.61c-2.67,1.65-4.42,4.71-8.36,5.76,2.33-2.78,4.52-4.64,6.99-6.24l1.37.48Z" fill="#af9c75"/>
  <path d="M562.52,354.67l-.17,2.93c-.27.13-.79.71-.79,1.08l-.03,2.03-1.59-1.93c-.33-.41-1.38,2.02-1.8,1.87l2.17-7.08.46,3.14,1.75-2.05Z" fill="#b89f6b"/>
  <path d="M562.45,347.66l.71,6.08-.63.94-1.75,2.05-.46-3.14.1-.97c.49.09.99-.95.99-1.45s-.5-1.55-.97-1.5v-2.04s2.01.04,2.01.04Z" fill="#c2a973"/>
  <path d="M384.38,648.43v1.88s-3.73,1-3.73,1l1.71-6.02.55,2.2c.09.49.93.73,1.47.94Z" fill="#b59964"/>
  <path d="M370.41,372.4l3.48.6-4.43,2.79c.02-.37-2.12-1.38-1.68-1.68l2.63-1.72Z" fill="#b7a274"/>
  <path d="M371.59,547.51c-2.08.83-5.83.83-7.85-.07l7.85.07Z" fill="#bfa874"/>
  <path d="M377.62,543.4c-2.46,1.5-5.97,2.15-8.92,2.14l8.92-2.14Z" fill="#bfa874"/>
  <path d="M373.58,369.66c.25-1.27,1.3-3.11,2.14-3.93.12.62,1.01,2.41.33,2.74l-2.47,1.19Z" fill="#b7a274"/>
  <path d="M601.47,721.41l-4.17.96c.43-.48,1.58-1.26,2.05-1.64s2.04-.05,2.11.68Z" fill="#c6b07c"/>
  <path d="M426.25,748.29c-.5-1.61-.6-4.61.33-6.03l-.33,6.03Z" fill="#ab946a"/>
  <path d="M578.55,726.41l-3.14,2.88c.11-.51.09-1.78.55-2.03l2.59-.85Z" fill="#cab37d"/>
  <path d="M467.76,705.05l3.39-2.94c.14,1.35-1.35,2.83-3.39,2.94Z" fill="#af9c75"/>
  <path d="M563.49,344.72l.09-3.07c.16.17.98,1.13.76,1.52l-.85,1.54Z" fill="#ab946a"/>
  <path d="M599.33,672.33l-2.79,5.27-1.2-15.17c-.45-5.7-1.19-10.62-.15-16.07l-.97-.76c.13-.58,1.08-1.71,1.44-2.19l.58,3.01c.05,8.88.85,17.91,3.1,25.92Z" fill="#ab9772"/>
  <path d="M674.34,616.81l-.67-2.44c-.04-.43,1.31-.85,1.56-1.21l23.15-12.97c-2.56,3.99-6.54,5.55-10.36,7.97l-13.68,8.65Z" fill="#b8a37a"/>
  <path d="M604.61,666.72c-.63-.14-.76-1.1-.82-1.5-.04-.24.18-.51.35-.83l17.33-17.24c-3.78,8.59-11.36,12.98-16.86,19.57Z" fill="#b0a17c"/>
  <path d="M695.05,571.32l-.71,2.19-10.22,19.24,1.26,1.55-3.15,3.2c.29-1.65.69-5.1,1.44-6.63l7.43-16.8,3.95-2.77Z" fill="#b8a37a"/>
  <path d="M608.6,653.52c-.68-1.95-.04-4.79.63-6.6-.34-.37.22,1.44.34,1.88.09.33.41.46.66.18l1.31-1.51,11-15.06c-.84,5.3-4.33,9.26-7.68,13.4l-6.25,7.72Z" fill="#b0a17c"/>
  <path d="M673.83,610.45c-.23.36-.64,1-.91,1.2l-1.78.83,3.91-18.21.92-5.26,3.09-3.3-.87,3.67c-2.47,6.97-4.16,14.05-4.37,21.07Z" fill="#b8a37a"/>
  <path d="M690.4,594.65c-.41-.11-1.3-1.13-.99-1.48l.74-.85,16.04-8.73c-4.03,4.9-10.13,7.88-15.79,11.07Z" fill="#b0a17c"/>
  <path d="M663.64,702.25c-8.19.29-16.08,1.29-23.53,4.65l11.22.9-13.12-.11c.88-1.5,3.88-3.66,5.42-4.01l13.67-3.29,6.34,1.86Z" fill="#b0a17c"/>
  <path d="M516.41,355.67c-1.49,6.03,1.06,13.75,7.03,16.97l9.14,4.93c-10.58-.64-19.23-9.81-18.3-20.99-4.61,5.66-3.31,13.19,1.08,19.45,5.73,8.17,16.78,11,26.37,8.7l-2.1,2.05c-3.87-.14-8.67.19-12.42-.78-10.5-2.72-18.03-11.41-17.69-22.32l1.94-7.18c1.1-.74,3.6-.95,4.96-.82Z" fill="#a29370"/>
  <path d="M518.49,351.69l3.03-2.78c-1.48,5.75,3.77,13.01,10.35,15.47,8.29,3.09,15.86.66,23.99-2.32-11.11,9.61-29.24,6.43-34.85-5.72l-2.52-4.64Z" fill="#a29370"/>
  <path d="M494.72,366.66c-4.54,14.94,4.59,27.28,19.9,30.76l-.78,1.7c-5.67-2.15-11.88-4.29-15.99-8.83-5.15-5.68-8.4-16.56-4.55-23.72l1.42.09Z" fill="#998767"/>
  <path d="M522.16,346.4l2.26-6.49c-.74,5.11,1.32,8.31,5.28,10.57,8.04,4.61,16.18,3.81,24.96.18-7.37,6.93-19.64,6.64-27.29.14l-5.21-4.41Z" fill="#af9c75"/>
  <path d="M528.43,342.12l.1-1.42c6.72,4.05,15.9,2.88,22.16-2.78l5.84-5.28c-4.13,11.49-18.89,15.36-28.1,9.48Z" fill="#a29370"/>
  <path d="M527.43,335.63l.95-.77c4.56,1.5,9.41,1.22,13.78-1.45,5.15-3.19,8.41-7.59,11.34-12.71-1.56,11.04-17.19,21.07-26.07,14.92Z" fill="#a29370"/>
  <path d="M540.89,300.24c-2.33,9.23-9.31,18.05-19,19,8.74-4.61,15.64-9.62,17.38-18.67l1.62-.33Z" fill="#958160"/>
  <path d="M408.39,630.43l-1.61-9.19c-.54-3.09.67-7.36,1.65-11.01l6.98-25.93c.39,15.76-9.04,28.66-7.02,46.13Z" fill="#a29370"/>
  <path d="M404.96,597.52l-1.66-1.19,3.97-19.93c1.07,7.11-.3,14.25-2.31,21.12Z" fill="#a29370"/>
  <path d="M670.71,656.95l4.8-2.41,1.73.79,25.13.2c-2.37.67-6.12,1.76-7.96,1.76l-23.71-.34Z" fill="#b0a17c"/>
  <path d="M687.14,650.44l4.23-2.94c-.37.26,2.36,1.09,3.12,1.06l21.88-.87c-3.24,1.16-8.18,2.5-11.9,2.54l-17.33.21Z" fill="#ab9772"/>
  <path d="M523.47,391.37l-.05,1.51c-3.26-.53-6.39-1.61-9.58-3.53-9.72-5.86-15.3-17.64-9.07-28.57.41,5.58-1.41,11.46.45,16.05,3.25,8.03,10.89,12.53,18.26,14.54Z" fill="#a29370"/>
  <path d="M553.56,371.19c-.39.9-1.23,2.99-1.93,3.68l-4.92,1.18c-2.72.99-5.86,1.59-8.29,1.42l15.14-6.28Z" fill="#b89f6b"/>
  <path d="M602.25,719.24c-.39.01-.68-.64-.36-.89l1.53-1.1-1.17,2Z" fill="#c6b07c"/>
  <path d="M560.41,352.61l.03-2.95c.46-.05.97.99.97,1.5s-.5,1.55-.99,1.45Z" fill="#b89f6b"/>
</svg>
