<svg xmlns="http://www.w3.org/2000/svg" viewBox="0 0 1024 1024">
  <path d="M498.74,104.05c8.83,9.46,23.7,6.91,27.77-.22,1.03,2.76,1.13,5.68-.37,7.55l-1.56,2.1c4.91,3.43,8.89,7.28,10.85,12.51l-3.89,1.81c-1.59-.32-2.17-.43-2.31.22-3.3-7.76-10.24-12.22-19.12-11.17-7.01.83-14.64,7.09-14.9,14.91-.25,7.4,1.86,13.19,7.03,17.09,4.82,3.64,11.99,3.57,17.18,2.37l5.81-.17c.66.38-.57,3.32-1.58,4.86-.51-.04-.91-.1-1.13-.03l-1.91,1.06c-14.13,4.29-28.28-3.47-31.76-18.61-1.46-9.56,3.36-19.15,12.15-24.33l-6.61-6.97.64-3.88c.15-.88,3.11.24,3.72.9Z" fill="#bb9759"/>
  <path d="M332.32,153.59l2.64,1.56c-26.99,14.02-52.79,30.49-75.68,51.07l-10.72,9.64c-31.45,28.29-56.57,62.89-76.29,100.02l-1.77-2.36c35.99-68.64,93.29-124.52,161.81-159.94Z" fill="#c1ab79"/>
  <path d="M320.68,187.13c-21.79,12.97-41.93,28.23-60.83,45.69-6.26,5.79-11.94,11.18-17.54,17.5l-10.29,11.6-13.17,16.14-.06,8.63-.98-.02c0-1.54-.33-3.59-1.02-5.47-20.94,28.5-37.18,59.05-48.62,91.49l-1.75-1.26c18.66-52.56,49.53-100.77,90.74-139.09,19.34-17.99,39.95-33.7,62.29-46.45l1.22,1.25Z" fill="#ab9772"/>
  <path d="M514.42,892.15l-.94,3c-.1.47-.19,1.8-.56,1.86l-1.48.13v-.98s1.11-2.38,1.11-2.38c.13-.49-1.03-1.36-1.24-1.77l-1.02-9.79-12.75,10.41,9.38-13.04-17.4-2.57c5.69-2,10.44-1.9,17.65-2.01l-9.09-13.46,12.18,9.59,1-11.99,1.67-11.19,1.23,10.23.81,13.28,13.58-10.8-8.71,11.98c-4.04,4.35,7.15.8,16.8,4.26l-18.09,2.55,9.39,12.69-13.09-10.69-.43,10.7Z" fill="#b89f6b"/>
  <path d="M808.75,280.6l1.55-1.3c41.02,56.37,65.03,123.63,68.35,193.87-1.78-4.14-1.84-8.21-2.27-12.77-6.08-65.35-29.22-127.1-67.64-179.8Z" fill="#958160"/>
  <path d="M130.79,511.89l-2.37,9.73-2.73-11.58-7.66,4.88,4.65-8.09-14.04-1.7c-.34-.04-2.12-1.29-1.78-1.3l1.91-.07c5.33-.18,8.27-.2,13.8-2.36l-5.63-8.16,8.32,5.07,3.21-10.19,2.54,10.19,8.09-4.72-5.07,8.49c8.45,3.18,15.7-.34,19.05,2.88l-18.84,1.65,3.04,6.33c.65,4.64-2.55-2.53-6.49-1.05Z" fill="#b59964"/>
  <path d="M896.68,517.42l-2.63-7.2-6.67,4.7,3.29-8.34-17.63-1.56,17.17-2.63-.85-5.27,5.1,1.2,2.66-10.88,2.86,11.3,7.65-4.75-4.57,7.43c4.65,2.93,10.27,1.25,16.96,3.14l-17.04,2.42,4.29,8.38-7.16-4.46-3.42,6.51Z" fill="#c5a66a"/>
  <path d="M653.59,157.62c37.33,14.66,72.26,36.09,102.92,62.74l17.76,16.97-1.25,1.6c-34.13-35.46-76.08-61.75-121.67-80.05l2.24-1.26Z" fill="#b49e71"/>
  <path d="M866.5,664.86l-2.15-1.76c14.31-33.3,24.09-67.38,28.98-103.65-.36-.23,2.21-1.67,2.36-1.05s.34,2.25.22,3.05c-5.29,35.95-14.74,70.29-29.41,103.42Z" fill="#a58b61"/>
  <polygon points="654.39 249.75 653.49 249.59 556.18 163.29 548.29 155.8 547.78 155.03 545.22 152.78 548.56 154.1 549.22 154.59 632.66 228.34 648.32 242.79 654.39 249.75" fill="#a58d65"/>
  <path d="M372.81,138.29l-.47-2.56c28.82-10.98,58.71-18.16,89.79-22.21.75-.13,2.39-.74,2.53-.21l.63,2.27c-31.69,4.4-62.99,11.31-92.48,22.71Z" fill="#ab946a"/>
  <path d="M379.47,242.94l-10.23,9.11-.72-1.82,8.69-8.05,82.39-73.22,10.6-9.42c3.71-3.29,6.42-7.09,11.51-8.74l-11.81,11.43-9.5,8.45-10.04,9.07-70.9,63.19Z" fill="#ab9772"/>
  <path d="M172.27,315.89c-12.78,24.07-22.61,49.64-30,75.84l-1.95-3.26c7.23-25.95,17.67-51.06,30.18-74.93l1.77,2.36Z" fill="#b49e71"/>
  <path d="M653.59,157.62l-2.24,1.26c-29.05-11.66-59.04-17.69-90.75-24.11,32.47,1.45,63.33,12.02,92.99,22.85Z" fill="#ab946a"/>
  <path d="M526.13,111.37c1.51-1.88,1.4-4.79.37-7.55l6.49-11.4c3.03-5.32,9.54-9.11,15.53-8.48,1.2.43,1.16,4.42-.02,4.89-3.27.69-7.9,2.52-9.55,5.36l-8.5,14.57c-.71,1.22-3.85,2.86-4.33,2.61Z" fill="#c5a66a"/>
  <path d="M168.17,372.69c-10.06,28.52-16.44,58.2-19.43,88.77l-.83,4.09-.09-7.04.81-12.05c3.36-25.92,9.23-50.91,17.8-75.04l1.75,1.26Z" fill="#998767"/>
  <path d="M142.28,391.73c-5.63,19.96-8.62,40.27-11.85,61.49-1.65-1.69-1.86-4.44-1.59-6.73,2.37-20.05,6.24-39.2,11.49-58.03l1.95,3.26Z" fill="#a58d65"/>
  <path d="M523.63,155.92c1.01-1.55,2.24-4.48,1.58-4.86l-5.81.17c9.23-3.74,13.6-14.29,9.81-23.2.14-.66.72-.54,2.31-.22l3.89-1.81c4.13,11.07-.6,23.97-11.78,29.93Z" fill="#c5a66a"/>
  <polygon points="623.08 786.66 620.48 784.24 674.25 727.73 676.82 730.18 623.08 786.66" fill="#c3b081"/>
  <path d="M498.74,104.05c-.62-.66-3.57-1.79-3.72-.9l-.64,3.88c-6.58-6.94-5.73-15.63-16.8-17.98-1.11-.24-2.67-2.76-2.11-3.55,2.74-3.9,13.03-.66,17.24,7.17l6.02,11.38Z" fill="#c5a66a"/>
  <polygon points="815.82 417.61 817.26 416.34 855.1 460.55 872.52 481.75 871.54 482.62 815.82 417.61" fill="#a0865e"/>
  <polygon points="196.73 431.87 154.42 483.04 147.43 490.61 145.87 490.37 195.52 430.3 196.73 431.87" fill="#ab9772"/>
  <polygon points="217.79 677.33 217.79 708.29 218.81 709.32 217.92 720.41 216.82 720.3 217.66 605.51 217.79 677.33" fill="#836c3d"/>
  <polygon points="623.08 786.66 580.6 831.3 578.53 828.33 674.25 727.73 676.82 730.18 556.03 857.11 553.46 854.67 620.48 784.24 623.08 786.66" fill="#b0a17c"/>
  <path d="M512.17,236.06l.53-28.46-1.39-1.71-3.79-4.09c-1.46-1.58,1.97-4.85,2.7-6.4,2.53-5.34,1.88-12.31,2.93-18.62l.54,16.7,4.37,4.54c1.9,3.72-.85,6.94-4.42,8.51l-.21,28.16-1.26,1.38ZM512.7,197.22c-1.63.03-3.8,2.7-3.21,3.86.67,1.33,2.97,3,4.24,2.73s3.14-2.95,2.79-4.2c-.3-1.07-2.61-2.41-3.82-2.39Z" fill="#ab946a"/>
  <path d="M810.3,279.29l-1.55,1.3-12.36-15.98-10.64-12.46-12.73-13.23,1.25-1.6c13.32,12.73,25.22,27.1,36.03,41.97Z" fill="#a58d65"/>
  <path d="M379.85,213.72l-1.38-6.95c-1.08-5.4-7.01-5.1-11.71-5.38,2.93-.87,9.67-1.16,11.13-3.79l2.18-8.9c.48,3.73.23,9.29,4.11,10.38l8.46,2.38c-3.13.32-8.01.18-10.07,2.26-1.9,1.92-1.88,6-2.72,10.01Z" fill="#c5aa6f"/>
  <path d="M372.35,135.73l.47,2.56c-12.88,4.98-25.6,10.5-37.86,16.86l-2.64-1.56c12.93-6.83,26.43-12.68,40.03-17.86Z" fill="#b8a071"/>
  <polygon points="719.86 831.75 721.27 834.13 682.7 854.23 683.67 850.93 719.86 831.75" fill="#b7a274"/>
  <polygon points="217.79 322.7 217.54 404.16 216.78 302.83 217.8 301.71 217.79 322.7" fill="#836c3d"/>
  <path d="M320.68,187.13l-1.22-1.25c17.43-9.95,35.2-20.1,55.9-25.95-18.37,8.17-37.04,16.7-54.68,27.2Z" fill="#998767"/>
  <path d="M513.18,951.92c-2.73-6.75-1.31-14.76-1.78-21.67-.71-1.3-3.22-3.44-2.74-4.66.66-1.67,2.27-3.53,3.58-3.72,1.78-.26,4.07,1.47,4.31,2.96.28,1.72-.98,3.79-2.74,5.13l-.62,21.96Z" fill="#a58b61"/>
  <polygon points="836.4 681.81 816.17 715.72 814.95 713.8 835.01 680.22 836.4 681.81" fill="#b8a37a"/>
  <path d="M513.8,59.77c-2.76,1.38-6.81-4.25-5.01-7.42,1.94-3.43,5.14-2.86,7.36-.5,1.97,2.09,2.25,5.62-2.35,7.92Z" fill="#ab946a"/>
  <polygon points="206.86 501.74 195.88 504.13 200.63 506.58 190.8 505.86 179.82 505.22 179.81 503.85 206.86 501.74" fill="#b89f6b"/>
  <path d="M511.02,956.39c2.58-1.2,5.53.32,6.81,2.89,1.18,2.37.11,5.61-2.6,7.12-2.39,1.33-5.73-.14-7.04-2.55-1.48-2.72-.52-5.9,2.82-7.45ZM515.81,962.03c-.03-3.2-2.3-4.58-3.54-3.94-1.01.52-2.69,2.28-2.83,3.39s1.68,2.95,2.71,3.46,3.68-1.77,3.66-2.91Z" fill="#a29370"/>
  <path d="M450.65,136.27c2.14-.7,5.08,1.62,5.11,3.19.03,2.08-1.27,4.78-2.91,5.28-1.89.57-4.71-1.01-5.2-2.57-.57-1.85.53-5.09,3-5.9Z" fill="#ab9772"/>
  <polygon points="712.29 672.21 715.37 673.8 702.31 675.37 681.85 678.33 681.25 677.55 703.23 673.4 712.29 672.21" fill="#ab9772"/>
  <path d="M894.25,467.95c1.66-.85,4.95-.27,5.83.99,1.02,1.46.87,4.26-.56,5.48-1.6,1.36-4.47,1.12-5.57-.28s-1.11-5.46.31-6.19Z" fill="#bb9759"/>
  <polygon points="580.6 831.3 556.03 857.11 553.46 854.67 578.53 828.33 580.6 831.3" fill="#998767"/>
  <path d="M128.35,535.75c1.47-.05,4.3,2.13,4.33,3.59s-1.9,4.2-3.32,4.57c-1.71.45-4.06-1.06-4.52-2.43-.65-1.96.98-5.64,3.52-5.72Z" fill="#bb9759"/>
  <path d="M896.16,536c2.19-.4,4.22,2.06,4.26,3.97.03,1.46-1.97,4.15-3.63,4.12-1.47-.03-3.87-1.97-4.6-3.37-.68-1.31,1.78-4.32,3.97-4.72Z" fill="#bb9759"/>
  <path d="M129.61,475.28c-1.05.72-3.94-.69-4.4-1.81-.55-1.34-.41-4.9.88-5.59,1.46-.78,5.29-.22,5.74,1.17.53,1.66-.08,4.74-2.22,6.22Z" fill="#bb9759"/>
  <path d="M592.74,857.97l-.24,1.63-20.08,2.83c-4.3.61-8.55.78-13.01.38l33.33-4.85Z" fill="#958160"/>
  <polygon points="208.67 492.42 206.46 494.54 196.48 483.33 197.62 482.2 204.72 488.63 208.67 492.42" fill="#b59964"/>
  <polygon points="218.78 649.38 218.77 610.31 220.07 609.16 219.79 648.34 218.78 649.38" fill="#c3b081"/>
  <polygon points="218.79 322.69 217.79 322.7 217.8 301.71 217.81 286.67 218.79 286.7 218.79 322.69" fill="#998767"/>
  <path d="M147.91,465.56c.09,6.74-.37,13.3-1.67,20.04-.74-7.32-.18-13.86.5-21.02l1.08-6.06.09,7.04Z" fill="#958160"/>
  <path d="M740.16,246.94l1.13-1.18,4.6,3.24c4.89,3.44,8.4,7.82,11.66,12.71-6.43-4.95-11.02-10.84-17.4-14.77Z" fill="#958160"/>
  <polygon points="219.76 372.64 218.78 371.62 218.78 338.67 219.8 339.69 219.76 372.64" fill="#c3b081"/>
  <polygon points="218.81 709.32 217.79 708.29 217.79 677.33 218.8 677.34 218.81 709.32" fill="#958160"/>
  <polygon points="582.48 720.29 582.56 721.44 578.28 723.93 576.43 723.28 581.06 715.21 583.68 715.15 582.48 720.29" fill="#c5a66a"/>
  <path d="M512.17,236.06c-.98-10.15-.66-20.17-.86-30.17l1.39,1.71-.53,28.46Z" fill="#836c3d"/>
  <polygon points="935.31 503.68 947.96 505.17 928.08 505.52 928.12 503.62 935.31 503.68" fill="#b0a17c"/>
  <path d="M511.44,897.14l1.48-.13c.37-.06.45-1.38.56-1.86l.94-3-1.4,15.11c-1.14-3.38-1.63-6.77-1.58-10.12Z" fill="#af9c75"/>
  <polygon points="667.37 529.48 667.33 515.48 668.39 522.49 667.37 529.48" fill="#b8a37a"/>
  <polygon points="608.69 296.69 608.37 299.7 607.6 293.55 608.69 296.69" fill="#bfa874"/>
  <path d="M511.46,896.15l-.15-4.15c.21.42,1.37,1.28,1.24,1.77l-1.1,2.38Z" fill="#af9c75"/>
  <polygon points="578.43 725.29 578.28 723.93 582.56 721.44 578.43 725.29" fill="#cab37d"/>
  <polygon points="220.77 486.52 220.02 484.44 220.83 484.4 220.77 486.52" fill="#bfa874"/>
  <polygon points="632.35 701.99 634.33 702.16 631.4 704.21 624.44 709.49 620.41 710.29 632.35 701.99" fill="#af9c75"/>
  <polygon points="292.76 315.74 291.62 316.85 287.61 314.88 287.67 313.88 292.76 315.74" fill="#b49e71"/>
</svg>
