<svg xmlns="http://www.w3.org/2000/svg" viewBox="0 0 1024 1024">
  <path d="M895.51,453.67c-11.51-85.16-44.73-162.04-103.59-223.8-4.69-5.68-9.55-10.77-15.29-15.54l-20.14-17.91c-55.89-45.79-123.77-73.53-195.24-81.74.17-1.59.23-2.72.64-2.64l2.07.4c76.45,9.02,148.23,40.59,205.77,91.87l31.02,30.89c24.63,28.36,45.05,58.61,61.43,92.6,17.29,39.63,33.07,81.85,33.32,125.87Z" fill="#a58b61"/>
  <path d="M466.75,881.27l4,.21c.77.04.97,1,1.76,2.87l-13.08-.99c-43.85-3.32-86.38-14.72-126.34-33.79-71.63-34.17-126.7-92.07-163.44-162.08-20.76-39.57-33.83-82.03-40.45-126.12-.15-.98-.04-2.34.09-2.95s2.6.68,2.66,1.04c5.29,40.23,16.83,78.13,33.98,114.86,36.63,75.81,96.98,141.59,174.61,175.97,40.1,17.76,82.12,28.7,126.21,31Z" fill="#a0865e"/>
  <path d="M685.38,754.93l-1.71,2.6c-3.72-.86-7.9,1.59-9.44,5.72-2.64,7.09-.55,15.85,6.11,19.97,7.27,4.49,16.05,4.12,24,.03,5.93-3.05,10.96-8.96,13.04-17.21,4.75-18.84-7.42-39.15-26.54-44.03-20.49-5.22-38.7,11.79-64.89,2.47-6.99-2.49-16.23-4.41-22.66-3.36l1.58-.56c.36-.08.03-1.14-.44-1.38.43-.33,3.92-1.5,5.23-1.19l24.1,5.82c3.18.77,7.15.5,10.62.44l-2.02-2.02,8.38,1.67c2.4.48,7.2-1.01,9.56-1.57l8-1.89c2.16-1.3,4.34-2.09,6.71-2.06l13.75.19c-11.3-4.47-22.42-6.88-33.36-7.45l2.99,3.39-3.99-2.32c-5.01-1.7-10.45-1.99-15.99-2.02l1.16,1.86-1.23.18c-4.51-1.28-9.78-1.47-14.1.42,3.56,1.56,6.32,2.38,8.4,4.98-10.17-4.46-19.05-4.58-28.16-.05-.2-.67-1.07-2.39-.63-2.83l2.91-2.86-4.57,1.27,13.44-8.73c10.59-6.64,23.77-9.2,36.26-7.7,22.86,2.75,47.84,20.49,61.61,38.14,6.91,8.86,9.22,19.98,7.05,30.54-3.26,15.78-17.91,26.43-33.52,23.24-10.31-2.1-17.83-11.59-16.19-21.63,1.28-7.83,7.57-13.52,14.56-12.1ZM634.33,702.16l-1.98-.18c-1.34-.61-3.68-.33-5.68.41-7.34,2.71-13.55,5.6-19.64,10.9l13.38-3.01,4.03-.8c4.44-.88,9.51-2.07,13.76-1.8l13.12.11c13.16,1.05,25.47,4.19,38.1,8.43-4.6-3.9-9.1-6.75-13.96-8.94l-6.87-3.1-4.95-1.94-6.34-1.86c-7.32-1.76-18.09-1.62-22.97,1.77Z" fill="#c6b07c"/>
  <path d="M787.33,573.48l11.73.17v11.43s-1.54-4.31-1.54-4.31l-1.9-4.38c-.93-2.13-6.15-2.38-8.94-1.14-2.16.96-4.44,4.1-5.73,6.79l8.46-.5c3.68,3.3-3.19,8.66.04,10.88l.89-.57,6.8-4.11c.03-2.13,1.02-3.34,1.05.1l6.74.56-4.59,12.11c-3.23,8.52-6.61,16.71-13.94,21.82l8.39-1.8c-4.27,6.91-11.37,11.24-18.9,13.31-8.79,2.42-17.15-1.54-23.17-7.42-2.62,3.11-6.33,3.52-10.05,2.22l-21.24,20.56c-12.25,11.86-27.53,15.12-44.25,14.35l-12.64,1.14-8.51,1.36,3.47-2.07,2.96-5.98-5.26,1.42,17.04-17.07c9.99-9.84,30.09-15.58,45.11-14.95,6.75.28,14.29.16,19.8-2.69.81-3.57,1.76-6.85,3.31-8.86l2.03,1.36-2,3.71c-.65,1.3.42,4.82,1.89,5.76,1.38.88,4.16-.05,5.9-1.07l1.72-1c1.09-.64,4.08,5.51,7.3,2.92l15.7,1.66c-4.03,2.21-7.66.61-11.85.52,7.21,4.02,16.14,1.13,22.45-3.98-10.79.63-18.07-3.89-24.74-2.99l9.61,4.67-11.7-2.83.4,1.98-3.7-3.26,3.52-.51,4.13-3.33,1.29-.51c14.88-3.64,18.81-11.88,21.91-26.4l1.07-5.03v-1.07s.98-1.62.98-1.62c.28-.45-1.25-1.96-1.63-1.61l-1.61,1.49c-14.18,1.36-29.01,3.07-32.81,19.32,3.09-4.06,6.51-8.3,11.53-11.77l-10.6,15.15-.89-.03-.37-2.05c-.08-.41-2.77.06-2.74.48l.53,7.4-7.48,1.1c-10.05-14.15-3.26-29.96,10.88-40.42l-1.79,8.58,6.32-5.84c7.76-5.71,17.89-5.17,28.38-11.69l-.42,7.59c-.03.53,1.08.93,1.68.94ZM757.38,581.67l-3,3.88-2.27.87c-1.92,1.13-2.26,4.01-1.67,6.23l1.02,5.66,6.5-9.14c4.23-2.49,9.01-4.86,14.29-5.79,8.72-1.53,8.19-2.95,10.84-13l-7.29,2.5c-6.75,2.32-13.41,4.33-18.43,8.79ZM740.26,595.46l.31,4.02.39,8.78c.01.33.34,1.26.62,1.44l1.58.98,2.99,1.81c1.23.74,2.1-1.65,2.17-3l.34-6.23c.98-.04,3.19-.57,2.84-1.3l-1.46-3.05-.75,3.56-1.34-.37c-.32-.09-.57-1.16-.58-1.62l-.34-16.45-6.78,11.42ZM789.98,593.48l-2.68,7.03-3.88,11.14-1.48.45c-2.77,3.13-7.42,7.08-11.34,9.01l2.48.66c3.06,3.91,10.02,1.55,14.76-4.6l2.94-3.82c.94-1.3,3.05-4.01,3.63-5.57l5.85-15.62c.73-.34.24-1.89-.43-2.16l-9.12,2.37-.5.57-.23.54ZM695.24,634.32c-13.71,2.89-22.14,12.1-30.62,22.04l15.26-7.55c6.3-3.12,12.12-3.6,20.76-8.19,2.26-1.2,3.98-1.15,6.37-1.7,7.94-1.84,15.06-5,23.06-8.7l-12.04.15c-2.3.03-5.35,2.5-8.54,4.05.28-.74,2.09-2.53,3.67-3.8-7.03-1.1-15.42,2.23-20.1,8.52-.6.81-3.37,1.33-3.66,1.01l5.83-5.83ZM691.37,647.5l-4.23,2.94c-3.46.04-8.28,2.41-11.63,4.09l-4.8,2.41-9.27,4.97,13.9-.65c14.71.93,29.05-2.35,40.64-11.12l1.64-1.96c.34-.41-.88-1.15-1.18-1.32,4.19-.65,6.7-2.85,9.8-5.53,3.93-3.39,7.5-6.71,9.78-10.98l-32.81,13.04-11.85,4.11Z" fill="#cab37d"/>
  <path d="M562.61,330.55l-1.84-1.94-.76,3.29c-1.92-9.05-6.28-17.28-12.14-24.63-1.25,6.63-3.02,11.09-7.6,14.18,2.49-4.32,5.96-8.9,6.04-14.73.03-2.27-3.93-6.09-5.41-6.48l-1.62.33c.36-2.89-3.04-6.22-5.68-5.53.82,10.94-6.27,17.06-15.07,20.74l-.89-1.09c7.35-4.39,14.85-9.93,14.77-19-.03-3.3-4.47-5.75-6.84-6.87l-7.28-3.44c1.9,11.22-3.67,14.88-8.56,21.36l-1.61-1.48,3.71-4.28c3.9-4.15,6.69-9.75,5.27-15.86l-9.41-3.54c-.51-.19-1.86-.17-2.09-.14l-3.83-1.84c-1.17-.56-3.72,1.99-4.08,3.24l-3.76,12.87-.19.44,9.78,6.62c-.62-.34-2.36-.15-2.98-.1l-25.95-12.02c-14.05-6.51-27.21-13.92-37.57-25.16-6.67-8-11.93-15.98-15.36-25.33.52-.47,1.42-1.3,1.4-1.25-.02.05.99.83,1.31,1.08,11.72,15.6,28.04,25.47,47.01,29.92l32.25,7.72c28.25,6.77,52.17,24.97,58.97,52.94ZM429.08,248.77l-.02.65v.67l.02.65.02-.65v-.67l-.02-.65ZM437.84,260.23l.18-3.67-7.8-5.54c1.73,4.53,4.1,7.3,6.7,9.86l.92-.65ZM443.94,263.02c.09-.8-.91-2.47-2.06-3.4-1.03-.82-3.11-.08-3.81.91l-.66.83,3.46,4.56,2.2-2.11.87-.79ZM443.45,264.23l-.79,3.23,6.15,5.95,3.99-7.1c-2.46-2.23-5.83-3.74-8.65-2.8l-.7.72ZM459.62,269.97c-.87-1.31-3.68-2.63-5.38-2.18-1.34.35-2.94,3.16-2.96,5.04-.04,2.91,3.75,5.24,5.69,4.79,0-2.38.59-5.55,1.81-6.83l.85-.82ZM459.38,271.3c-.71,1.93-1.39,6.73-.33,8.56l9.33,4.87c-.74-4.57-.04-7.73,3.09-11.88l-5.42-1.98c-1.74-.64-4.59-.84-5.94-.52l-.72.94ZM475.84,288.55c1.3-6.24,2.4-9.34,4.3-13.68-2.49-.67-6.06-1.5-7.47-.78-3.08,1.57-4.26,10.31-1.98,11.59l5.14,2.87ZM493.31,295.21c.36-5.53,1.43-10.04,4.28-16.13-1.85-.97-6.13-1.54-8.16-1.14l-3.25,7.7c-.37-3.85.76-5.61,2.26-8.84l-6-1.31c-2.73,3.48-5.17,7.54-4.78,12.29.2,2.46,5,3.83,6.99,3.57,2.61,2.12,5.23,3.45,8.26,4.53l.41-.66Z" fill="#ab946a"/>
  <path d="M773.21,543.5l9.79,2.32c22.77,4.04,39.82,20.28,40.69,43.19.68,17.8-6.53,35.28-18.94,47.79l-5.08,5.13c-6.92,6.98-14.87,12.44-23.97,17.01-18.92,9.49-39.83,12.38-60.33,14.85l-3.08-1.59c29.08-3.8,54.86-8.16,78.81-27,18.5-14.55,32.16-37.08,28.89-60.73-2.33-16.83-14.75-30.07-30.9-34.88-6.04-1.8-13.04-3.4-18.76-3.04l2.88-3.07Z" fill="#c8b17b"/>
  <path d="M321.62,267.73c-5.91,12.22-12.04,25.49-11.5,39.44.65,16.71,10.18,30.44,24.86,37.17,13.79,6.32,28.08,9.51,42.72,10.64l-6.74,1.1c-.42-.49,1.17,1.35,1.46,1.93-5.8,2.32-11.2,9.75-13.45,16.33-.42-7.97,5.76-11.96,10.89-17.53-10.72-.98-18.08,8.16-22.47,18.45.27-8.35,6.42-14.24,13.45-19.21-6.56-3.3-14.88.45-19.28,6.42l-4.75,6.44c1.43-7.97,6.81-12.28,14.29-15.5-8.34-4.36-16.48-.6-23.33,6.28,1.43-5.26,6.89-8.11,11.91-9.45-4.25-4.38-10.35-5.11-14.86-1.22l-10.16,8.76c2.22-7.02,8.68-10.29,15.33-13.16l-7.79-5.42-2.02-1.4c-.51-.36-1.09,1.44-1.47,1.95-.39.22-.74-.89-.65-1.26.45-1.94-1.2-5.52-2.95-6.75l-11.9,4.97c-1.21-.46-2.88-1.13-1.89-.9l12.92-5.12-3.19-7.62c-4.09,3.48-6.81,5.06-11.54,4.36l10.48-4.83-1.81-8.44c-5.63,4.1-11.54,5.14-16.57,2.67l1.15-1.11c1.43.52,4.35.95,5.92,1.03.83.04,2.34-.61,3.08-.99l5.64-2.89.31-7.17c-5.11.37-9.06.54-13-.48,3.64-.78,11.18,0,12.2-3.71l2.65-12.39-3.86-.83c2.8-.67,4.75-1.59,5.8-3.69.62-1.25,1.64-3.65.73-3.96l-4.63-1.59,6.07-.53,2.99-6.76,1.02-2.04,2.07-3.01,1.85,1Z" fill="#b7a274"/>
  <path d="M476.55,813.38l1.96,2.59-12,1.25c-21.99-.78-42.02-10.12-58.43-24.52l-22.5-22.38-15.02-15-7.92-6.13c-17.24-13.33-44.38-17.21-59.7.36l-3.53,2.92-2.13-.47c15.7-22.56,43.9-21.37,65.74-6.11,9.1,6.36,16.35,14.09,24.14,21.89l20.44,20.46c14.37,12.62,30.73,22.48,50.08,24.7l18.88.45Z" fill="#b59964"/>
  <path d="M220.02,484.44l.76,2.08-.05,1.16,1.14,7.68-.12,1.48,3.73,1.29-.12,2.59c-.03.67,2.26,1.22,2.94,1.31l15.61,2-10.19,1.62c-3.25.52-6.09,1.19-9.84,2.43l4.93,3.44c2.23,3.4,5.7,5.28,6.17,10.67l-12.93-11.22-1.03,10.17-5.9-.72-.69-9.04-3.61,3.23-4.12,2.28-.11-1.34.34-2.03c.43.06,1.31-.25,1.51-.7l.6-1.35c.58-.37,1.82-3.64.81-4.11-1.85-.87-5.76-.97-7.9-.84l-1.31.08-4.75-2.45,10.98-2.39,2.81-1.85c.52-.34-.5-1.88-.76-2.45l-.76-1.68c-.14-.31-1.22-.38-1.42-.16l-.28-1.05,2.21-2.12c1.34,1.29,4.09,2.98,5.64,3.54l1.57-7.49c.53-2.51,1.02-5.92.94-8.88l-.03-1.07c1.91,1.2,2.83,3.56,3.23,5.92Z" fill="#d1ab62"/>
  <circle cx="205.87" cy="516.88" r=".83" fill="#d1ab62"/>
  <path d="M644.38,264.89l-4.47,8.39c-14.7,27.59-8.23,62.46,15.35,83.28,12.62,11.14,27.29,15.4,42.97,18.18l9.2,1.64c-4.79,1.48-10.18,1.2-15.08.4l-4.15-1.04c-13.71-1.27-26.18-8.54-36.9-18.16-13.23-11.88-20.71-28.47-22.53-46.3s3.69-35.67,14.59-49.59c.69.07,1.42,2.41,1,3.2Z" fill="#b59964"/>
  <path d="M839.15,716.49l-8.35,12.58c-28.36,42.7-66.08,78.3-109.53,105.06l-1.41-2.38c48.93-30.2,86.18-68.79,117.03-116.81l2.26,1.55Z" fill="#cab37d"/>
  <path d="M216.82,720.3l1.09.11c-.31,3.86,2.25,7.52,4.82,10.86l6.31,8.22-1.48,1.26c-46.41-57.5-74.71-127.97-80.94-202.12-.31-3.72-1.97-7.13.65-9.94,5.11,69.53,27.47,134.77,67.55,191.56l1.11,1.57c.17.25.59.32.64.02l.25-1.55Z" fill="#958160"/>
  <path d="M218.78,338.67v32.95s.98,1.02.98,1.02l.33,28.38,43.81-50.15c4.14-4.74,7.66-9.67,13.39-12.96l-51.77,60.37-5.72,6.52-.09,34.27-2.75-.36.47-29.17c-4.15,2.44-5.8,4.94-8.49,8.32l-3.66,3.13c-1.1,3.19-3.38,5.09-6.22,6.3.08,1.15.29,2.46-.22,2.87l-2.11,1.72-1.21-1.57,22.02-26.14.25-81.46h.99s0,15.97,0,15.97Z" fill="#b8a37a"/>
  <path d="M402.65,806.28l-31.93-31.02-10.05-9.01c-10.68-9.57-27.38-12.98-36.52-3.97-4.55,4.48-4.78,10.37-4.63,17.23-3.61-5.38-1.98-12.36,2.37-17.06,10.71-11.58,27.47-8.62,39.22,1.39l8.12,6.91,28.32,27.47,17.03,16.14c18.36,17.4,37.31,32.53,57.37,49.38-25.22-16.12-46.88-37.1-69.29-57.46Z" fill="#a58d65"/>
  <path d="M292.89,691.08l-1.37,1.35-17.01-18.97-54.43-64.3-1.3,1.15v39.07s.03,27.96.03,27.96h-1s-.13-71.82-.13-71.82l-1.98-1.94c.96-.81,1.43-1.96,1.42-2.81l-.38-30.07,3.05-.1.05,34.71,38.69,46.27,23.7,27.36,10.69,12.15Z" fill="#ab946a"/>
  <path d="M299.41,752.47c-2.32,6.96-4.79,9.67-4.9,19.65-.11,9.68,3.22,17.03,9.81,23.55,9.65,9.55,24.94,11.96,35.54,2.92,5.75-4.91,7.45-12.63,2.83-18.86-1.55,2.75-4.21,4.91-6.01,4.16-2.98-1.25-4.53-3.8-3.91-6.02.73-2.63,4.06-4.23,6.75-3.49,5.7,1.58,8.32,7.2,8.33,12.85s-2.35,10.76-6.95,14.3c-11.82,9.1-27.47,6.61-38.05-3.44-13.34-12.65-14.86-32.73-5.56-46.1l2.13.47Z" fill="#a58b61"/>
  <path d="M548.58,767.29v1.07s-2.91,3.04-2.91,3.04l-8.23,10.99c-11.8,12.93-26.7,23.09-43.25,29.38l-15.68,4.2-1.96-2.59c.42,0,1.67-.28,1.95-.36l3.93-.92,1.19.17,2.99-.91,5.86-2.98-8.06-2.83,10.85-.45c.83-.03,3.13-1.5,3.29-1.71l2.02-.14c.83-.06,2.24-.77,2.95-1.22,13.22-5.13,24.23-13.92,33.22-25.54l8.78-11.34,5.06-6.08c-.1,3.41-.83,5.71-1.99,8.22ZM502.15,806.27c-3.76-1.82-7.59-.09-8.97,3.06l8.97-3.06Z" fill="#c5a66a"/>
  <path d="M268.79,781.13l-1.17,1.37-3.91-3.74-.71-.31c-9.52-8.4-17.96-18.07-26.77-27.95l-8.68-9.74,1.48-1.26,5.83,6.14-1.84-7.68c-4.26-17.79,5.81-36.75,24.82-38.52,7.17-.67,15.45,3.56,19.66,8.69,6.23,7.58,7.73,18.33,1.3,25.26,3.29-7.64,3.44-15.3-.83-21.85-4.31-6.6-11.73-10.21-20.44-9.32-14.26,1.45-24.45,14.53-22.75,29.17,1.12,9.63,4.36,19.7,11.01,26.72l18.23,19.27.35.65,4.41,3.09Z" fill="#a58d65"/>
  <path d="M682.7,854.23c-33.73,15.09-69.14,24.6-106.09,28.14l-11.16,1.07-13.44.66c1.57-3.66,2.95-2.67,5.54-2.83,43.73-2.77,86.34-12.24,126.13-30.34l-.97,3.3Z" fill="#a58d65"/>
  <path d="M790.28,453.34c8.34,1.75,15.92,6.6,21.19,13.99,11.64,16.32,9.91,37.31-2.44,53.08-8.89,11.34-21.28,19.26-34.76,23.17l-.7-2.06,5.93-2.74c9.9-4.57,18.89-9.89,25.73-18.17,8.51-10.3,12.69-22.4,10.54-35.54-2.77-16.9-13.46-26.33-28.58-30.86l3.08-.87Z" fill="#c8b17b"/>
  <path d="M331.08,217.77l-1.33,3.15-1.66-2.08c-1.54,21.2-11.63,36.6-24.55,53.75-7.66,10.16-13.54,22.17-15.94,33.92l-1.48-2.89-.81,3.81c.55-12.23,9.44-27.8,17.53-38.62,15.78-21.1,24.47-35.94,23.09-64.8,3.44,3.92,4.55,9.08,5.17,13.77Z" fill="#b49e71"/>
  <path d="M590.41,760.79l-.14,1.72c-12.62,8.08-22.96,18.37-33.32,29.22l-15.62,16.36c-13.18,13.6-37.99,28.54-57.16,27.67,26.01-5.58,48.08-19.45,65.36-39.53l22.38-22.45c5.43-5.45,12.06-9.45,18.52-12.99Z" fill="#b49e71"/>
  <path d="M450.87,743.55l-3.47,9.65c-.33,1.02-.87,3.01-.87,4.13l.02,8.87c0,1.1.38,3.44,1.12,4.05,2.44,13.99,12.16,26.5,25.95,31.78,8.15,3.12,16.98,2.55,24.92,1.36-.15.21-2.46,1.67-3.29,1.71l-10.85.45,8.06,2.83-12.01-.24c.1-1.43-2.54-2.94-3.83-2.6-14.98-3.08-26.72-16.47-32.51-30.46,2.46-3.01.08-6.56-.36-9.57-.62-4.24-.08-9.54.59-14.21l.86-6.02,2.01.9c.42.19,1.15-1.43,1.34-1.85l.8-1.75c.17-.38.93.43,1.5.97Z" fill="#b59964"/>
  <path d="M816.17,715.72c-22.91,33.73-50.93,63.25-83.52,86.97l-1.39-1.54,21.01-16.83,8.13-7.13c21.1-18.51,38.76-40.16,54.55-63.38l1.22,1.92Z" fill="#c3b081"/>
  <path d="M267.62,782.5l1.17-1.37,4.03,3.51.58.4c19.2,16.12,39.65,30.41,62.74,41.63,23.97,12.66,49,19.98,74.4,27.62-48.01-9.59-92.81-31.62-131.07-61.52-2.97-2.32-5.15-4.52-7-6.77l-.45-.48c-1.49-.74-3.23-1.9-4.4-3.02Z" fill="#958160"/>
  <path d="M736.81,707.3l1.69-.84c11.58,13.51,18.35,32.52,14.78,49.89-2.99,14.54-9.94,29.07-22.04,38.41,6.08-9.18,12.34-16.62,16.12-26.51,8-20.92,4.29-44.32-10.55-60.96Z" fill="#c3b081"/>
  <path d="M217.1,600.76c.01.85-.45,2-1.42,2.81l-68.46-83.28-.92,8.72-1.04-12.67,8.24,8.63,61.27,74.36c.74.89,2.01,1.9,2.33,1.42Z" fill="#a0865e"/>
  <path d="M773.57,541.52l.7,2.06-1.06-.07-2.88,3.07c-13.32.85-26.06,4.51-38.06,9.84l-7.35,4.1c-1.35-.2-3.63-2.61-4.54-4.24l34.77-10.96,7.1-2.78c-.09.38-.05,2.26.49,2.13l2.19-.52,5.31-1.62,3.32-1.01Z" fill="#c5aa6f"/>
  <path d="M741.29,245.76l-1.13,1.18c-21.13-13.01-45.03-14.85-67.61-4.69l-1.45-2.71c22.62-10.43,49.73-8.2,70.2,6.22Z" fill="#b49e71"/>
  <path d="M817.26,416.34l-1.43,1.27-18.68-20.83c-1.31,4.65-4.35,6.57-8.26,5.83-2.4-.45-5.89-3.99-5.41-7.13s3.56-5.49,6.82-6.42l-8.83-9.8c-.97-1.08-2.08-2.91-2.49-3.95l-.5-.44-5.44-5.04,1.44-1.4,5,5.5.53.88,10.28,10.67,26.98,30.86ZM788.32,392.04c-2.65,1.38-2.62,5.36-1.37,7.11.91,1.27,4.04,1.8,5.86.91,1.59-.78,2.35-4.05,1.47-5.77-.97-1.88-3.67-3.44-5.96-2.25Z" fill="#ab946a"/>
  <path d="M804.93,588.4l-6.74-.56c-.03-3.44-1.02-2.23-1.05-.1l-6.8,4.11.37.52,9.12-2.37c.67.27,1.17,1.82.43,2.16-.83-.35-3.19-.3-4.19-.07l-6.09,1.39.23-.54-.75-.52c-3.23-2.22,3.64-7.59-.04-10.88l-8.46.5c1.29-2.7,3.57-5.83,5.73-6.79,2.79-1.24,8.02-.99,8.94,1.14l1.9,4.38,1.53,4.31v-11.43s-11.72-.17-11.72-.17c-.66-.26,1.66-1.14,2.17-1.13l10.48.3c.42,5.23.07,10.03-.75,14.44l5.7,1.29Z" fill="#c1ab79"/>
  <path d="M752.33,607.39c-.61,3.19.08,8.15,3.82,7.89l.91,1.47,4.14.82,1.22-.1.68,2-4.13,3.33-3.52.51,3.7,3.26.13.98c-3.21,2.58-6.21-3.56-7.3-2.92l-1.72,1c-.28-3.16-3.07-6.59-5.79-8.4l-2.03-1.36-.17-1.53,7.48-1.1-.53-7.4c-.03-.42,2.66-.89,2.74-.48l.37,2.05Z" fill="#d1ab62"/>
  <path d="M866.5,664.86l-15.8,32.08-11.55,19.55-2.26-1.55c10.51-16.36,19.24-33.68,27.46-51.84l2.15,1.76Z" fill="#b8a071"/>
  <path d="M732.65,802.69c-19.23,14-40.15,25.74-62.11,34.96l-.99-1.75c22.17-9.29,42.38-21.11,61.72-34.76l1.39,1.54Z" fill="#b8a37a"/>
  <path d="M669.55,835.9l.99,1.75c-24.92,10.47-51.24,18.17-78.04,21.95l.24-1.63c26.7-3.88,51.94-11.66,76.81-22.07Z" fill="#a29370"/>
  <path d="M860.34,625.76l-1.46-.87c10.55-30.04,15.2-60.35,19.33-91.89-.93,31.62-7.86,62.67-17.87,92.75Z" fill="#958160"/>
  <path d="M321.62,267.73l-1.85-1-.29-2.27c-.07-.57-1.85-.83-2.42-1.02l-1.97-.66c-.32-.11.18-1.04.5-.97l4.89.96,3.05-5.46-4.89-3.22,4.64.75c.97.16,1.68-2.12,2.15-3.2l1.15-2.68c.28-.65-.97-1.53-2.29-2.45-.78-1.26-.6-1.98,1.78-.85,2.28-1.83,2.82-6.23,1.14-8.41.83-.84,2.48-3.23,2.49-4.52l.04-11.82,1.33-3.15c2.48,18.73-1.27,33.02-9.47,49.96Z" fill="#ab946a"/>
  <path d="M608.01,308.79c1.45,10.57,1.9,21.74,7.19,31.69l6.41,12.05-3.42.14c-5.66-9.7-9.71-20.56-11.23-32.5l-.5-19.51.86,3.03.7,5.09Z" fill="#bfa874"/>
  <path d="M791.2,487.16c5.21-.82,9.16,3.01,9.9,7.15.81,4.6-2.65,9.41-7.43,10.06-4.32.59-8.62-2.36-9.81-7.02-.99-3.89,1.93-9.33,7.35-10.19ZM790.71,489.93c-4.17,2.35-4.81,5.74-3.49,8.16,1.62,2.98,4.78,4.24,7.29,3.2,3.4-1.41,4.47-4.75,3.35-7.9-.83-2.34-4.66-4.87-7.15-3.46Z" fill="#bfa874"/>
  <path d="M790.28,453.34l-3.08.87c-7.26.21-14.87.22-21.89,3.26-10.1,4.37-17.5,12.59-18.9,23.09l-1.54-1.13c3.3-17.09,17.72-26.68,35.61-27.73,2.91-.17,7.04,1.06,9.8,1.64Z" fill="#af9c75"/>
  <path d="M671.09,239.54l1.45,2.71c-9.04,4.07-17.43,10.77-24.12,18.35l-4.03,4.28c.42-.79-.31-3.13-1-3.2l8.11-8.6c.74-.79,1.88-2.65,2-3.51l.9.17c5.33-3.84,10.83-7.51,16.7-10.21Z" fill="#a58b61"/>
  <path d="M860.34,625.76c-6.53,19.63-14.45,37.85-23.94,56.06l-1.39-1.59c10.25-17.17,16.75-36.13,23.87-55.33l1.46.87Z" fill="#a29370"/>
  <path d="M427.48,752.26c1.52,14.11,8.41,26.33,17.59,37.95-10.52-3.56-20.38-30.08-20.77-39.91l1.68,4.04,1.5-2.07Z" fill="#ab946a"/>
  <path d="M744.06,361.24l.33,1.57c-10.78,7.62-23.66,14.19-36.96,13.56l-9.2-1.64c16.31.33,33.18-3.12,45.83-13.5Z" fill="#af9c75"/>
  <path d="M685.28,398l4.09-1.52c7.07,1.02,14.07,2.01,21.54-.31,10.71-.93,20.16-4.81,30.61-8.41-11.9,8.21-35.47,12.85-49.13,11.14l-7.11-.89Z" fill="#ab9772"/>
  <path d="M324.89,681.46l-3.9,9.82c-.15-2.74-.33-6.22-1.77-7.93-1.61-1.91-4.22-2.05-7.65-2.61.65-.45,2.96-1.28,4.1-1.39,5.33-.5,5.47-5.54,5.24-9.92.79,2.8,1.98,6.72,3.21,9.04l7.75,2.4-6.99.58Z" fill="#b89f6b"/>
  <path d="M683.67,757.52l1.71-2.6c1.83.37,4.46,1.08,5.48,2.26,1.24,1.44,1.79,4.8.87,6.22-1.92,2.98-5.79,4.13-8.38,1.54-2.13-2.13-1.85-5.01.33-7.42Z" fill="#d1ab62"/>
  <path d="M221.02,521.14l-.97,11.28c-.42,4.86-.35,8.85-2.07,13.35l-2.86-25.35,5.9.72Z" fill="#b59964"/>
  <rect x="820.18" y="543.06" width="70.77" height="2.65" transform="translate(-116.89 831.91) rotate(-48.94)" fill="#b8a37a"/>
  <path d="M228.8,511.52l-4.93-3.44c3.75-1.23,6.59-1.91,9.84-2.43l10.19-1.62-15.61-2c-.68-.09-2.97-.64-2.94-1.31l.12-2.59-3.73-1.29,3.7-2.53,7.47-6.67c3.03-2.71,5.53-5.31,9.28-6.88l-9.66,11.49-6.86,8.16,32.16,3.72c-3.49,1.14-6.52,1.26-10.06,1.59l-11.85,1.12-9.59.9,2.47,3.77Z" fill="#bfa874"/>
  <path d="M362.87,717.92c0,3.68-2.99,6.67-6.67,6.67s-6.67-2.99-6.67-6.67,2.99-6.67,6.67-6.67,6.67,2.99,6.67,6.67ZM360.75,718c0-2.48-2.01-4.48-4.48-4.48s-4.48,2.01-4.48,4.48,2.01,4.48,4.48,4.48,4.48-2.01,4.48-4.48Z" fill="#a58d65"/>
  <path d="M291.52,692.43l1.37-1.35,5.21,5.83,9.5,10.51,9.35,11.18c.24.29.37.52.51.6,1.83,1.12,4.85,3.53,6.14,6.9l-6.94-6.1-.59-.64-8.85-9.65-15.71-17.29Z" fill="#998767"/>
  <path d="M608.69,296.69l-1.09-3.14.77,6.15-.36,9.09-.7-5.09-.86-3.03c.56-13.13,4.38-26.86,11.76-38.21-4.08,11.86-8.28,22.57-9.52,34.23Z" fill="#a58d65"/>
  <path d="M858.66,538.81l-.13.15.13-.15Z" fill="#998767"/>
  <path d="M774.47,368.44l-1.44,1.4-5.94-6.53-.5-.55-9.96-10.93-12.23,10.99-.33-1.57,4.35-3.57,9.37-10.01c.58,2.18,1.65,4.98,2.86,6.38l6.78,7.83.6.49,6.46,6.07Z" fill="#958160"/>
  <path d="M764.33,688.81c1.41-.38,4.35,2.1,4.54,3.47.21,1.54-1.91,4.06-3.68,4.77-1.27.51-3.41-1.45-4.33-3.09-.81-1.44,1.05-4.5,3.47-5.16Z" fill="#cab37d"/>
  <path d="M823.23,673.86c2.23-1.08,4.52-.09,5.4,1.7.68,1.39-.2,4.31-1.7,5.15-1.16.64-3.87-.03-4.89-.89-1.42-1.19-1.09-4.85,1.19-5.96Z" fill="#af9c75"/>
  <path d="M396.06,822.3c0,2.73-2.21,4.93-4.93,4.93s-4.93-2.21-4.93-4.93,2.21-4.93,4.93-4.93,4.93,2.21,4.93,4.93ZM389.99,819.38c-1.13.97-2.34,3.13-1.94,4.23s3.29,2,4.43,1.72,1.36-3.27,1.1-4.52c-.19-.96-2.85-2.07-3.59-1.43Z" fill="#998767"/>
  <path d="M220.83,484.4l-.81.03c-.39-2.36-1.31-4.72-3.23-5.92-.14-4.99-.25-9.59,1.47-15.18,1.33,4.07,1.4,7.61,1.8,12.28l.76,8.79Z" fill="#b49e71"/>
  <path d="M467.47,804.4l.13,1.7c-7.8-2.66-16.14-6.1-20.85-13.25,7.65,4.65,13.62,8.99,20.72,11.55Z" fill="#ab946a"/>
  <path d="M196.23,404.82c1.12-.73,4.43.52,5.19,1.67s-.25,3.91-1.51,4.68c-1.14.7-3.88.18-5.25-.86-1.22-.93-.31-4.27,1.57-5.49Z" fill="#bb9759"/>
  <circle cx="397.12" cy="286.96" r="3.6" fill="#cab37d"/>
  <path d="M258.1,731.7c.92-.72,4.3-.46,5.15.35,1,.94.33,3.97-.73,5.3-.84,1.05-3.32.48-4.88-.48-1.14-.71-.82-4.18.46-5.17Z" fill="#b59964"/>
  <path d="M723.53,802.78c-6.46,4.91-13.22,9.46-21.26,11.54l21.23-13.26.03,1.72Z" fill="#a29370"/>
  <path d="M626.46,793.61c1.6-.92,4-.03,4.67,1.41.55,1.18-.26,3.87-1.78,4.51-1,.42-2.75-.05-4.07-.78s-.98-3.89,1.18-5.13Z" fill="#c5a66a"/>
  <path d="M738.5,706.46l-1.69.84-7.32-8.21c-2.26-2.54-5.85-3.82-6.79-7.01,6.51,4.25,11.28,9.1,15.8,14.38Z" fill="#a29370"/>
  <circle cx="237.77" cy="584.42" r="3.19" fill="#bb9759"/>
  <path d="M250.35,304.31l-4.03-5.18,3.81-4.05,4.15,4.23c-1.21.44-3.48,3.24-3.93,5Z" fill="#c2a973"/>
  <path d="M746.41,480.56c-.78,5.88.32,11.63,1.81,18.1-4.31-5.72-4.6-12.78-3.35-19.22l1.54,1.13Z" fill="#958160"/>
  <path d="M206.58,515.54l.11,1.34c0,.46-.37.83-.83.83s-.83-.37-.83-.83.37-.83.83-.83.83.37.83.83l4.12-2.28c-4.88,4.36-9.5,9-15.17,12.63l7.76-9.86c.59-.75,2.8-1.98,3.17-1.84Z" fill="#b8a071"/>
  <path d="M216.96,438.71l.47-29.17-.47,29.17Z" fill="#836c3d"/>
  <path d="M333.87,282.73c3.05-4.08,6.21-7.69,11.36-10.15-2.61,4.48-5.98,7.78-11.36,10.15Z" fill="#ab9772"/>
  <path d="M779.06,531.78c-.64-2.21,1.78-4.94,4.22-6.33l7.98-16.03c-.79,8.39-5.36,15.9-12.2,22.36Z" fill="#af9c75"/>
  <path d="M358.22,261.78c-5.07,5.01-7.58,7.37-12.85,10.45l10.17-11.23,2.68.78Z" fill="#ab9772"/>
  <path d="M590.27,762.51l.14-1.72c5.74-3.15,12.01-5.46,18-4.17-6.45,1.18-12.83,2.49-18.14,5.89Z" fill="#958160"/>
  <rect x="357.14" y="255.19" width="12.01" height="2.12" transform="translate(-74.83 331.84) rotate(-45)" fill="#ab9772"/>
  <path d="M476.63,805.54c1.29-.34,3.93,1.17,3.83,2.6-4.03,0-8.94-.7-12.85-2.04l-.13-1.7c3.03,1.1,6.3,1.9,9.16,1.14Z" fill="#c3b081"/>
  <path d="M767.44,541.29l-1.27-.97,11.08-7.78c-2.16,4.84-6.24,6.65-9.81,8.76Z" fill="#af9c75"/>
  <path d="M324.26,292.22c.91-3.9,5.01-6.89,9.52-8.6-2.6,3.32-4.58,5.7-9.52,8.6Z" fill="#ab9772"/>
  <path d="M767.44,541.29l2.81,1.24-5.31,1.62-2.19.52c-.54.13-.58-1.75-.49-2.13l3.91-2.23,1.27.97Z" fill="#c8b17b"/>
  <path d="M723.53,802.78l-.03-1.72c1.15-1.53,2.6-2.36,5.06-2.69l-5.03,4.4Z" fill="#c3b081"/>
  <path d="M215.88,488.46l.94-8.88c.08,2.96-.41,6.36-.94,8.88Z" fill="#b49e71"/>
  <path d="M209.84,507.34l-7.9-.84c2.14-.13,6.05-.03,7.9.84Z" fill="#b89f6b"/>
  <path d="M221.86,495.36l-1.14-7.68,1.14,7.68Z" fill="#bfa874"/>
  <path d="M563.53,340.63l-1.15-7.82,1.15,7.82Z" fill="#ab946a"/>
  <path d="M283.96,314.63l.45-6.85-.45,6.85Z" fill="#b49e71"/>
  <polygon points="563.15 353.74 562.45 347.66 563.48 346.66 563.15 353.74" fill="#ab946a"/>
  <path d="M447.67,770.25c-.74-.61-1.12-2.96-1.12-4.05l1.12,4.05Z" fill="#af9c75"/>
  <path d="M649.46,664.39c-.84.76-2.09,1.7-2.98,2.07l2.98-2.07Z" fill="#cab37d"/>
  <path d="M446.53,757.33c0-1.12.54-3.11.87-4.13l-.87,4.13Z" fill="#af9c75"/>
  <path d="M482.43,812.1l-3.93.92,3.93-.92Z" fill="#b59964"/>
  <path d="M474.26,484.51c-.18-.02-.86-1.07-.75-1.59l.99-2.45-.24,4.03Z" fill="#ab9772"/>
  <path d="M692.36,376.77l-4.15-1.04,4.15,1.04Z" fill="#af9c75"/>
  <path d="M378.63,687.31l-.99-3.94.99,3.94Z" fill="#b59964"/>
  <path d="M472.77,478.8l-.18-4.27c.41.03,1.05,1.12.91,1.61l-.73,2.66Z" fill="#ab9772"/>
  <path d="M382.36,701.36l-2.86-8.82,2.86,8.82Z" fill="#b59964"/>
  <path d="M378.65,659.34l.98-2.98-.98,2.98Z" fill="#b59964"/>
  <path d="M208.92,497.43l-2.18-1.84c.2-.21,1.28-.14,1.42.16l.76,1.68Z" fill="#b59964"/>
  <path d="M486.61,811.36l-2.99.91,2.99-.91Z" fill="#b59964"/>
  <path d="M503.51,802.04c-.71.45-2.12,1.16-2.95,1.22l2.95-1.22Z" fill="#b59964"/>
  <path d="M206.92,513.5c.12-.72,1.19-1.68,2.11-2.05l-.6,1.35c-.2.44-1.08.75-1.51.7Z" fill="#b8a071"/>
  <path d="M365.64,545.52l-2.96.91c.38-.54,2.12-.91,2.96-.91Z" fill="#bfa874"/>
  <path d="M379.59,655.34l1.16-2.85-1.16,2.85Z" fill="#b59964"/>
  <path d="M655.27,666.17c-.07.57-.18.84-.48.89l-1.39.21,1.87-1.09Z" fill="#cab37d"/>
  <path d="M522.5,155.88l-1.91,1.06,1.91-1.06Z" fill="#c5a66a"/>
  <path d="M379.58,691.27l-.81-1.95.81,1.95Z" fill="#b59964"/>
  <path d="M545.67,771.4l2.9-3.04-2.9,3.04Z" fill="#c5aa6f"/>
  <path d="M561.56,358.69c0-.37.52-.95.79-1.08-.02.37-.53.97-.79,1.08Z" fill="#c2a973"/>
  <path d="M406.53,445.65l1.04-1.02-1.04,1.02Z" fill="#cab37d"/>
  <path d="M668.3,720.44l-8,1.89-2.56-1.27c-6.99-2.38-13.5-5.08-19.4-8.84l1.23-.18,11.89,5.06c5.68,2.42,11.28,3.57,16.84,3.34Z" fill="#ab9772"/>
  <path d="M790.78,613.35l-2.94,3.82c-4.73,6.15-11.7,8.51-14.76,4.6l7.45-5.09c1.19-.74,2.14-3.76,1.4-4.57l1.48-.45c1.86-1.1,3.54-2.89,5.84-5.26l-2.93,7.4c6.49-5.44,6.24-12.52,9.63-19.53.78,8.45-6.25,17.49-5.62,18.54l.43.56ZM778.71,621.54l2.35-2.08-3.49.81c-.53.12.81,1.16,1.14,1.27Z" fill="#b8a37a"/>
  <path d="M757.96,589.17l-6.5,9.14-1.02-5.66c-.59-2.22-.25-5.1,1.67-6.23.42.52.9.88,1.12.61l1.15-1.48,3-3.88c6.57-3.18,13.57-5.88,21.5-6.56l-14.14,5.13c-1.77.64-4.65,2.9-6.25,4.06l6.83-1.57c-2.96,2.55-5.94,4.46-7.36,6.45ZM754.76,587.44l-.02.65v.67l.02.65.02-.65v-.67l-.02-.65Z" fill="#c3b081"/>
  <path d="M757.17,615.33l-1.02-.06c-3.74.27-4.42-4.69-3.82-7.89l.89.03.26,2.88c3.5-5.08,6.26-9.58,11.43-13.17l-10.12,16.24,4.12-3.3c3.89-3.11,6.48-7.05,11.5-8.75l-13.25,14.01Z" fill="#c3b081"/>
  <path d="M748.33,609.5c-.07,1.35-.94,3.74-2.17,3l-2.99-1.81-2.2-2.42-.39-8.78-.31-4.02,2.4.36c1.85.12-1.1,7.87,2.15,13.79l-.42-10.25,3.94,10.13Z" fill="#c3b081"/>
  <path d="M764.39,618.95l-1.29.51-.68-2,14.77-8.06c-2.87,4.01-8.93,8.03-12.8,9.55Z" fill="#c3b081"/>
  <path d="M748.67,603.27l.63-.8.75-3.56,1.46,3.05c.35.73-1.86,1.26-2.84,1.3Z" fill="#d1ab62"/>
  <path d="M787.36,586.46l-.4-1.37c-.2-.48-1.19-.73-1.86-.37l1.61-1.49c.39-.36,1.91,1.15,1.63,1.61l-.99,1.62Z" fill="#c1ab79"/>
  <path d="M786.3,592.55l1.07-5.03-1.07,5.03Z" fill="#c1ab79"/>
  <path d="M743.16,610.68l-1.58-.98c-.28-.18-.61-1.11-.62-1.44l2.2,2.42Z" fill="#d1ab62"/>
  <path d="M378.74,357.02l-5.16.54,5.16-.54Z" fill="#b7a274"/>
  <path d="M318.72,339.77l-4.64,6.29c-.7.95-3.38,1.32-4.36,1.91l3.49-3.64,4.85-5.82c-.08.37.26,1.48.65,1.26Z" fill="#a29370"/>
  <path d="M309.72,347.97c-3.45,3.6-9.94,5.22-15.08,4.83l-1.03-1.28c4.25.31,8.26-.84,12.48-2.42l3.64-1.14Z" fill="#a29370"/>
  <path d="M285.56,324.75c-1.03-2.52-1.14-6.83-.21-9.02l.21,9.02Z" fill="#b49e71"/>
  <path d="M286.6,313.69c-.68-.12-1.2-1.74-.88-2.35l.9-1.72v4.07Z" fill="#b49e71"/>
  <path d="M507.7,281.56c.5,5.98-1.77,12.03-6.08,16.01,2.25-6.1,4.16-10.89,3.99-16.15.23-.02,1.58-.05,2.09.14Z" fill="#998767"/>
  <path d="M317.7,269.74l-1.02,2.04c-2.58-.09-5.07-.97-7.33-2.69l8.36.66Z" fill="#ab946a"/>
  <path d="M301.77,315.78c-.74.38-2.25,1.03-3.08.99l3.08-.99Z" fill="#b49e71"/>
  <path d="M502.15,806.27l-8.97,3.06c1.38-3.15,5.21-4.87,8.97-3.06Z" fill="#b59964"/>
  <path d="M421.55,594.42l.29-9.05c.94,2.43.92,6.58-.29,9.05Z" fill="#bca36e"/>
  <polygon points="444.07 772.25 444.57 772.75 444.07 773.24 443.55 772.75 444.07 772.25" fill="#b59964"/>
  <path d="M761.2,617.55l-4.14-.82-.91-1.47,1.02.06c1.62.11,4.59-1.23,6.35-2.57l11.29-8.6c-.98,7.12-11.53,8.81-13.62,13.4Z" fill="#b8a37a"/>
</svg>
