<svg xmlns="http://www.w3.org/2000/svg" viewBox="0 0 1024 1024">
  <path d="M602.58,245.84l3.14,5.78c6.13-.57,10.33,2.48,14.63,6.24,23.85,20.81,16.17,30.94,18.41,40.47,2.92,12.45,5.44,25.7-2.4,35.33-5.02,6.16-8.03,12.71-6.98,21.09l-2.22-2.13c.2-6.93,2.44-13.96,6.83-19.31s5.87-13.92,4.82-20.77l-1.15-7.56c-2.78,7.28-5.69,12.49-9.65,18.19-8.42,12.12-5.61,26.82,2.18,38.52l8.58,12.89-.89.55-1.2-.03-.22-.67c-.14-.44-1.33-1.27-1.62-.9l-1.53,2.04-4.77-10.07c-22.38-22.93-11.92-35.66-8.67-54.25l1-16.65c7.66,22.06-13.74,37.59.58,58.25-2.5-9.44-2.82-17.54.87-26.35,2.6-6.22,3.24-12.95,3.27-19.85.03-7.6-3.28-13.41-7.26-20.82,6.79,5.23,8.71,13.64,9.61,21.98,4.9-14.01-1.56-27.21-15.65-31.37-.07-.39.35-1.47.42-1.66l1.37-1.69c1.23,5.69,5.13,0,12.04,6-1.29-6.51-2.84-13.36-7.77-18.47-2.91-3.01-11.36-6.55-11.26-6.81l-.72,1.84-11.05.45c3.32.58,7.06.48,9.08,1.5-6.86-.87-13.68.83-19.13,6.13l-26.22,25.5c-3.5,3.41-8.08,5.99-12.68,7.5,2.53-2.77,6.62-4.3,9.2-6.88l20.49-20.48c5.55-5.55,10.74-10.95,18.41-13.41l.48-1.87c.11-.41,1.8-.3,2.28-.23l6.45.94c-1.19-3.45-2.29-6.98-4.3-8.95.11-.64.96-1.28,1.34-1.03l1.86,1.01ZM624.85,267.54l.04-1.48-.04,1.48ZM626.19,267.57l-.97.72,3.71,13.27c.77,2.76,4.31,6.83,6.26,9.38.7-8.98-2.7-18.26-9-23.36ZM627.81,318.26c7.95-9.75,10.65-21.37,2.65-29.85,1.25,7.48,2.5,13.67-.03,20.48-1.14,3.06-2.06,6.04-2.63,9.37Z" fill="#baa376"/>
  <path d="M699.29,618.9l-1.44-1.84c14.16-7.72,28.43-15.3,41.59-25.44l8.53-8.64c6.96-7.05-1.3-16.76,16.8-31.92l14.71-12.33c-2.27,12.13-7.56,21.67-14.08,30.93-4.16,5.91-13.5,10.81-17.89,17.88l17.95-9.05c3.15-1.59,6.98-6.83,10.8-6.79l25.08.27-19.03,12.41c-5.94,3.87-13.11-1.39-19.05-.43-8.02,1.29-16.66,5.51-23.22,10.09l-17.25,12.02,12.59-.79c5.74-.36,11.72,1.19,16.41,4.74l14.27,10.83-16.63,1.47c-7.38.65-13.4-.32-19.27-5.03-2.79-2.24-7.82-6.01-11.75-5.6-7.03.74-13.35,3.95-19.1,7.22ZM768.25,557.28c-1.52,8.46-11.96,12.17-9.25,16.9,8.5-8.17,13.22-17.93,16.57-29.18-3.99,1.9-6.14,5.31-9.18,7.59-6.92,5.17-12.58,11.64-12.08,21.03,2.39-3.74,4.82-6.32,8.12-9.01l5.81-7.33ZM767.39,581.35c6.71,3.8,12.8,2.4,18.33-1.47l8.56-5.99c-9.16-2.57-19.17-1.87-25.93,5.39,3.9-1.22,7.47-2.52,12.05-2.63l-13.01,4.71ZM756.76,573.45l-.02.65v.67l.02.65.02-.65v-.67l-.02-.65ZM727.19,612.18c4.32,4.71,11.82,8.89,18.96,8.11l12.85-1.41-7.16-6.11c-6.37-5.44-15.92-6.52-24.43-4.48,7.16,2.4,13.39,3.48,18.71,6.92l-18.19-4.35-.75,1.33ZM726.8,610.91l-1.23-.08,1.23.08Z" fill="#a99169"/>
  <path d="M379.28,243.73c1.8-.03,5.23,1.27,6.37,2.08-3.44-.26-6.87-.05-10.96.7l12.69,3.51c2.35.65,5.11.75,7.02-.06l3.64-.94c3.11,1.2,7.25,3.42,9.65,5.44l1.87,2.31,1.07,2.12-1.02.94-10.21-7.45c-1-.63-4.01-1.07-5.17-.82s-2.28,1.77-3.1,2.85c-.58-.58-1.33-1.43-1.74-1.27l-2.09.8-4.9,3.85c-1.14.1-2.94,1.79-4.2,3.51,5.78.75,11.09-.49,14.61,4.62-5.62-1.29-11.37-4-16.09-1.12s-5.77,9.39-4.43,14.29l6.99,1.34-.65,1.5c-12.87-.69-24.79,10.85-22.46,23.91.84,4.72,3.31,8.75,7.81,10.24-2.18-7.12-3.22-12.81-.26-18.35l.5,2.88c.12.69,1.55,1.15,2.51,1.26-3.15,9.01.28,18.22,10.75,21.75-4.09,2.49-6.92-1.06-9.99-2.76l-9.64-5.32c-7.85-9.22-5.56-21.34,3.48-30.55-8.26.87-14.11,7.94-16.48,13.69-3.85,9.32-2.17,16.57,2.08,25.2-8.39-6.57-6.76-16.58-4.31-27.12-3.53,2.22-4.37,8.51-7.11,13l-.91-3.14c2.74-12.39,13.05-20.69,25.48-24.36-6.25-3.71-9.9-9.68-8.18-16.77,2.93-12.04,15.85-21.57,27.41-21.77ZM367.6,280.47c-4.75-7.79-.04-11.97,4.13-16.63,4.44-4.97,8.3-9.26,14.13-12.72-7.48-2.23-15.16-2.41-22.03,1.96-4.68,2.98-10.17,9.29-9.98,16.72.13,5.32,6.57,13.25,13.75,10.67ZM371.1,279.95l-.83-11.56c-1.99,2.43-2.71,4.74-2.94,8.68-.06,1.06,2.05,2.75,3.77,2.89Z" fill="#9f855d"/>
  <path d="M236.51,817.12l1.76-2.11c30.07,27.87,64.09,50.97,101.46,68.95,22.48,10.82,44.93,18.46,68.68,25.4,9.06,2.65,18.61,2.81,27.01,8.51-73.31-13.52-144.76-50.53-198.91-100.75Z" fill="#99825e"/>
  <path d="M743.37,484.16l2.46.37c.48.02-.04,1.43-.43,1.7l-1.46,1.02-2.9,2.17-7.43,6.41c-6.3,5.44-10.69,11.86-15.14,18.85l-5.79,9.09-1.67-1.43c8.56-13.95,16.54-27.94,22.31-43.78,2.27-6.22,4.5-12.77,2.2-19.45l-4.88-8.13.34-21.95c5.97,5.38,8.85,12.29,8.74,19.97l-.17,11.74,3.35-10.69,2.32-9.06,1.97,3.64,4.81,1.81c4.02-3.16,5.43-9.27,5.97-14.08l-4.94,2.37c2.18-4.25,4.37-6.58,8.91-8.73l-3.72,14.76c-2.13,8.44-13.31,11.05-14.99,15.86l-10.05,28.87-4.64,11.52c5.67-4.56,11.23-8.4,14.84-12.84ZM734.23,444.99h1.13s2.68,6.78,2.68,6.78c.3-5.94-1.19-11.06-4.51-15.76-2.48,6.83-2.28,14,2.64,18.74l-1.95-9.76ZM748.93,448.04l-.65.02.65.02h.67l.65-.02-.65-.02h-.67Z" fill="#b29c73"/>
  <path d="M561.14,815.11l.54,3.28-4.84,4.18-8.97,7.44c-1.38.4-3.06,2.55-3.63,4.09l-12.08,6.67c-6.95,3.84-13.74,7.02-21.83,8.3l20.35-10.74c8.05-4.25,15.22-9.97,21.84-15.9,7.54-9.31,13.26-19.15,14.29-31.18-4.53-9.6-4.28-19.72-.78-29.29,3.41-9.8.79-17.59-3.76-27.35,8.15,8.29,13.05,18.79,15.22,29.46,2.22,10.9-1.54,19.64-6.19,28.93l-9.37,18.7c-.61,1.21-1.1,2.88-.77,3.4ZM571.67,772.59c.64,6.02-.46,10.7-.77,15.92,6.94-11.62,5.85-25.57-.14-36.2l-4.94,20.42c-1.11,4.59.3,9.51,2.32,14.62l3.53-14.75Z" fill="#a58d65"/>
  <path d="M555.52,829.24l-.24-1.39c10.7-4.76,21.82-9.95,34.19-10.42l13.98-.54c8.48-.33,15.81,5.13,22.61,9.59,8.6,9.04,21.39,11.85,32.54,7.15,15.48-6.52,22.76-20.31,21.4-37.07,4.95,15.05-3.94,29.64-16.91,37.61-17.27,8-37.26,8.45-54.65-.07l-8.55-5.41c-14.24-9.02-29.3-5.94-44.37.56ZM592.58,822.35l17.01,9.67c9.01,5.12,20.45,5.87,30.89,6.18-5.32-2.42-10.06-4.84-14.76-8.26-9.44-8.68-21.28-11.95-33.91-10.67l-3.57.68,4.34,2.41Z" fill="#a58d65"/>
  <path d="M638.44,689.79l-4.53,12.05-6.96,14.1-3.86,6.91c-.8,1.44-1.38,3.94-.66,5.71-2.01,2.33-3.9,6.02-5.57,9.15l-20.41,38.14,16.57-10.74c.61.61,2.05,1.27,2.59,1.11-8.48,5.53-18.15,10.14-24.91,18.34l-16.6,20.14-.7,1.43-2.26,1.94-3.49,5.43-5.96,4.88-.54-3.28,3.61-3.66c9.21-9,16.34-19.79,23.47-30.51.13-3.36,1.49-5.98,4.89-6.16l10.71-18.18,11.68-24.23,2.73-4.15,7.64-16.33,10.2-22.8,2.37.71ZM595.92,775.25l-.02.65v.67l.02.65.02-.65v-.67l-.02-.65Z" fill="#a0865f"/>
  <path d="M150.75,634.35c17.66,53.21,46.16,101.91,84.31,142.91l-1.26,2.99c-38.45-41.16-67.75-90.19-85.37-143.76l.42-1.53c.04-.47,1.13-.57,1.91-.61Z" fill="#b49b6b"/>
  <path d="M359.32,608.37l.07.85-.58,1.27-2.59,4.63-.63,1.12-1.27,1.02c-1,1.08-1.8,3.27-1.67,5.15-3.79,2.91-8.64,5.62-11.59,9.18-2.7.15-5.38,2.16-6.39,4.27-.59.25-1.18,1.44-1.64,1.28l-2.98-1.08c-16.46,11.93-24.57,36.56-8.65,51.74-5.43-14.95-3.09-30.21,5.01-43.77,1.4-2.34,1.6-5.77,5.62-4.43-8.76,11.45-13.18,25.71-10.66,39.85,2.06,11.56,11.82,19.81,19.5,15.84l.72,2.36-10.69,4.02-2.3-1.34,2.37-1.92-13.92-11.72c-2.34-1.97-4.87-7.7-5.61-10.84-3.23-13.73,2.18-26.25,10.5-36.17l.91-1.07,25.1-17.06c3.12-2.12,5.84-7.7,7.9-10.67l2.93-3.62.54,1.11Z" fill="#9f855d"/>
  <path d="M868.47,656.87l-4.62,10.91c-15.83,37.4-37.43,72.06-64.17,102.76l-10.56,11.1-.99-2.77c33.95-35.95,59.83-77.55,77.88-123.69l2.46,1.69Z" fill="#c6ae7c"/>
  <path d="M693.18,248.35c.53.26.82,1.39.74,1.78l-.39,1.81c-7.91,4.52-14.28,13.28-17.09,21.53l-1.02,2.24v1.1c-3.08,4.15-2.66,11.66-.07,16.73v1.21s-.07,3.44-.07,3.44c-.02.78,1.09,1.49,2.09,1.42.08.25.05.87.05,1.11l.95.97-.04,1.04,1.04.96-.04,1.04.97,1.01,6.03,8.09-4.31-2.8c-1.29,1.92-2.02,3.91-1.9,6.03-16.18-15.68-16.77-40.91-1.82-58.42,4.15-4.86,9.25-7.68,14.88-10.28Z" fill="#d2ac6a"/>
  <path d="M459.68,275.84l-1.1,1.63,4.05.24-10.26,2.43c7.92,3.24,13.31,7.95,16.51,15.55l-8.41-.66c-12.64-.99-10.66-11.82-14.67-12.75l-11.16-2.59,3.76,7.22c2.6,1.19,5.71,2.94,6.17,5.24.58,2.9-.42,7.31-2.73,7.43.6-4.37.98-7.96-.49-10.01l-3.19,2.06c-2.49,1.61-.72-10.48-11.71-14.92-.06-.53-.32-1.6-.65-2.09l-1.93-2.9,4.17-7.06-1.33,7.51c2.79-3.28,4.33-5.75,6.06-9.07l1.77.71c-.3,4.28-3.69,7.2-7.72,11.37l14.84,3.8c1.75.45,5.35-2.76,5.55-4.49.89-7.83,5.69-13.87,13.32-16.11l-1.27,5.98c-1.2,5.67-3.7,9.02-7.88,13.6l8.28-2.12ZM453.15,268.96l1.25,3.08c1.54-3.31,2.13-5.78,1.92-8.74-4.8,2.64-6.27,5.97-6.51,11.2l3.33-5.54ZM459.23,286.92c-1.53.15-3.24.35-3.82-.03l-4.9-3.18c1.66,7.68,5.98,9.87,14.16,8.81l-5.45-5.6ZM455.22,284.2l-.65.02.65.02h.67l.65-.02-.65-.02h-.67Z" fill="#baa376"/>
  <path d="M300.48,836.63l.27-2.93c40.4,27.38,85.32,47,133.76,57.43,1,.22,2.09,2.1,1.8,3.15-48.8-10.19-95.37-29.46-135.84-57.64Z" fill="#a0865f"/>
  <path d="M647.4,710.42c-5.83.59-9.59,4.44-16.06,7.05l12.56-13.62,9.52-9.49c5.68-5.67,13.63-7.37,21.93-7.97l28.5-2.06c-19.98,11.34-22.2,25.59-47.61,25.2l-8.84.89ZM645.22,708.12l10.07-.44c9.03-.39,17.03-1.36,24.16-7.35l14.11-11.86-18.96.17c-10.63.09-21.17,6.03-27.12,14.95,11.82-3.65,20.94-9.52,32-9.85l-24.52,9.18c-3.55,1.33-6.49,3.04-9.75,5.2ZM646.03,704.79l-.65.02.65.02h.67l.65-.02-.65-.02h-.67Z" fill="#a48f6d"/>
  <path d="M679.47,599.52l8.35-11.57c6.59-9.14,12.89-19.38,24.45-22.45l26.53-9.85-13.03,19.32c-12.42,18.42-28.76,12.15-46.3,24.54ZM696.13,586.52c-1.13.71-3.2,3.22-3.81,3.86l13.49-3.74c12.91-3.58,18.59-12.57,25.71-24.71l-20.37,6.6c-7.51,2.43-14.66,8.69-17.97,15.99.26,1.07,2.23-.24,3.26-.84l20.12-11.62.81,1.12-21.25,13.34ZM690.83,586.44l-.02.65v.67l.02.65.02-.65v-.67l-.02-.65Z" fill="#b8a074"/>
  <path d="M422.73,265.59l.35,1.28.82,4.86,1.93,2.9c-1.82-.55-3.99-.21-5.52.56l-12.78-7.32c4.55-.2,7.84,1.75,12.29,4.38-2.25-9.6-12.12-10.47-22.17-9.62,2.16,5.39,6.09,7.76,11.84,9.84-3.94,3.69-6.23-.31-8.67-1.68-4.51-2.53-6.55-5.45-4.79-11.12l13.61.16,1.02-.94c.58,1.15,2.16,2.34,4.18,3.16l-3.73-9.77c-13.53-5.06-9.18-13.59-11.39-25.94,6.96,2.94,10.52,8.85,14.11,15.04,1.38,2.39.14,6.05.15,9.41.02,5.99,4.01,11.52,7.02,16.86l1.74-2.06ZM408.37,246.72l-1.76-6.16,4.61,5.8c-.72-6.12-2.79-10.6-8.18-15.31-1.25,6.8.26,15.01,4.87,16.81l.46-1.14ZM409.25,247.84l-.09,1.55c-.04.67.08-1.26.09-1.55Z" fill="#a58a61"/>
  <path d="M510.32,267.69l5.54-3.64c-2.32-.94-4.73-1.54-6.83-1.74.21-1.93-1.25-4.32-3.33-5.07,1.72-7.11,4.89-13.96,12.48-17.52l-1.23,9.6c-.55,4.29-2.65,8.17-4.92,11.57l12.85-6.45c3.01-6.53,8.02-8.52,14.47-9.96l2.66-.59c.56-.12.81,1.91.39,2.3l-1.19,1.09c-4.98,10.11-15.98,7.4-27.12,14.98,7.96.34,14.17,1.64,20.99,5.41-8.32,5.25-17.93,5.67-24.74,0ZM512.04,251.55l-.22,5.32c2.28-3.44,3.26-6.73,2.39-11.25-3.27,3.05-5.39,6.55-5.73,11.19l3.56-5.26ZM524.33,269.44l5.44-1.32c-4.17-2.73-7.69-3.57-12.36-3.42l2.16,1.82-6.09.58c3.52,2.35,7.13,3.23,10.86,2.33Z" fill="#c5b086"/>
  <path d="M682.79,666.03c-10.37.89-19.34,9.06-27.9,14.76l-18.1,16.66c8.76-13.94,22.02-23.09,36.1-30.51,12.87-6.78,10.15-22.37,28.27-25.81l10.75-3.56c-4.35,8.66-11.06,16.34-19.96,20.28l-9.13,4.05,9.56-.39-3.48,1.97c-.66.37-.28,1.83-.22,3.59s-4.31-.28-5.89-1.04ZM695.39,649.99l-4.75,6.45c6.1-2.26,12.42-6.5,15.5-13.94-9.68,1.79-17.22,4.27-21.03,15.16l10.29-7.67Z" fill="#a48f6d"/>
  <path d="M300.75,833.7l-.27,2.93-.79-.42-1.14-.86c-16.69-10.97-32.09-23.78-47.12-37.52-4.37,4.36-9.51,4.12-13.15.46-3.41-3.44-2.57-8.56.77-12.42l-5.25-5.62,1.26-2.99,6.86,6.69c3.59.35,6.91.66,8.95,2.76,1.58,1.63,1.92,5.45,1.98,8.38,15.33,14.04,31.12,27.24,47.9,38.61ZM242.97,786.56c-4.57,1.59-5.07,5.22-3.76,8.84.83,2.28,4.61,3.6,7.78,2.64,2.46-.75,4.39-4.8,3.46-7.79-.81-2.59-4.41-4.76-7.48-3.69Z" fill="#a98e63"/>
  <path d="M697.21,759.27c.1-2.11.61-2.29,1.26-.58l4.29,2.64c2.71,1.67,4.19,5.81,9.07,4.7-4.44-6.8-9.87-14.05-18.53-14.71.47.38,2.41,1.58,3.19,1.87l-3.69,2.11c-3.08-2.77-8.06-3.74-12.7-3.98l7.47,7.65.47-4.03,3.1,3.16c.64.65-.88,3.37-1.87,3.07-2.95-.89-7.26-4.76-9.7-6.9l-6.45-5.66c4.07-.32,6.66-.58,9.85-1.72,5.38-1.91,11.35.31,16.46,3.41,14.52,8.81,27.87,31.38,14.02,42.23,3.41-6.58,5.06-13.97.5-20.07-2.59-3.47-8.05-4.69-11.2-7.78l-5.53-5.43Z" fill="#a0865f"/>
  <path d="M478.48,191.6l1.98,2.96c-11.89,3.07-23.7,7.74-31.72,17.53-.17-.23-1.19-2.61-1.57-2.19l-1.63,1.83-1.01,1.06-1.32.28c-.49.1-.52,1.22-.59,1.72-7.94,6.42-14.51,14.88-17.88,24.77l1.24,6.82-.64,6.42-.7-.54-.29-7.83-5.19,1.34c-.95.24-.2,3.22-.2,4.12l-1.37,2.6c-.32.61.84,1.9,1.59,2.9l-1.76,2.56c-3.37-6.8,1.11-12.28,3.78-18.36,7.2-16.41,17.55-29.26,33.34-37.87,7.85-4.28,15.48-8.02,23.93-10.09Z" fill="#b49b6b"/>
  <path d="M741.04,489.42l2.9-2.17,1.46-1.02c.39-.27.91-1.68.43-1.7l-2.46-.37c3.27-6.53,5.43-13.55,12.3-18.32l1.53-1.08c.25-.18,1.11,1.79.97,2.06l-5.44,10.64c11.7-2.93,8.91-15.8,20.55-17.77-1.18,4.2-3.07,7.16-5.46,10.1l.04,3.06c-6.23,1.69-11.69,4.42-15.65,8.5,6.44-.22,11.06-2.82,15.77,1.49-3.67,1.62-9.15,5.17-12.42,5.35l-14.52,1.22ZM762.01,482.44c-5.13.11-10.09,1.78-14.6,3.79,5.85,1.85,10.7.04,14.6-3.79Z" fill="#a48f6d"/>
  <path d="M789.13,781.64c-1.19,1.25-2.97,3.63-2.76,5,3.1,3.69,3.06,9.4-.08,12.21-3.75,3.36-8.24,3.26-12.69-1.08l-9.04,7.82-35.34,27.96-2.19-1.86c14.71-10.24,27.98-21.35,41.25-33.36,1.4-1.26,3.1-3.11,3.17-4.75.28-6.3,4.6-10.22,10.97-9.13l5.73-5.57.99,2.77ZM786.64,792.59c0-3.46-2.81-6.27-6.27-6.27s-6.27,2.81-6.27,6.27,2.81,6.27,6.27,6.27,6.27-2.81,6.27-6.27Z" fill="#b49b6b"/>
  <path d="M738.87,416.72l1.5-3.27c.02,1.36.9,4,1.23,5.16l.66-.52-.64-7.97,3.52,7.5c.42-5.6-1.25-11.51-4.98-16.88l-1.92,3.9-.88-10.5c7.14,5.69,8.44,13.63,10.44,21.59.62-8.27,3.05-15.94,9.85-21.79,1.2,3.53-.05,6.94-1.92,10.04l-6.5,10.76c.32.6,1.55,1.94,1.99,1.46l2.21-2.38,2.21-2.31c1.03-1.07,4.41,4.08-5.91,13.35l-3.6,8.62c-1.05-4.23-.74-8.5-2.82-10.55-2.23-2.19-4.33-3.83-4.45-6.21Z" fill="#af9a72"/>
  <path d="M567.64,813.51l3.49-5.43h1.72c.55-.07.54-1.44.53-1.94l.7-1.43c.95.34,3.48-.04,4.76-.87l17.13-10.99c8.85-5.68,18.06-7.18,28.58-5.71l11.01,1.54-15.59,9.06c-15.25,8.87-23.4-4.03-42.8,9.23l-9.55,6.53ZM597.21,797.76c10.97,3.79,21.44-.21,29.39-7.75l-8.72-1.42c-7.79-1.27-15.4,2.27-21.35,6.41l13-.67-12.31,3.43Z" fill="#a99169"/>
  <path d="M592.02,772.59c.16-7.6,1.2-14.01-1.84-20.93-6.18-14.04,6.28-24.93,2.89-43.02,3.68,3.46,4.45,7.88,6.01,11.96,4.66,12.22,4.48,24.4-1.14,36.31l-5.92,15.67ZM595.96,738.07l.84,16.41c4.83-11.33,4.17-22.57-.45-33.88-4.1,13.23-8.92,23.07-2.47,35l2.09-17.53Z" fill="#9f8864"/>
  <path d="M420.78,276.74l1.17,3.92-1.38,1.02-.3-.87-11,2.8c2.75-2.37,5.19-3.36,9.12-5.15-7.02-2.67-12.99,1.64-16.6,7.95,5.34.78,12.12.97,16.48-2.76l1.38,2.03-4.66,5.54c-.44,3.36-.37,6.47,0,9.83l6.59-10.35c-.05,2.89-.93,6.15-2.47,8.39l-5.73,8.37c-.66.97-1.54,2.72-1.64,4.01l-.48,6.32-2.72-4.12c-.37-4.09.71-8.14,3.02-11.88-.21-4.44.41-9.06,1.99-12.68-4.7,1.57-8.44-2.03-16.36,1.29l3.42-6.51c4.17-7.92,12.2-10.06,20.18-7.14Z" fill="#a58a61"/>
  <path d="M503.43,265.01l4.12,1.6-8.07,3.02-14.3,4.85,11.19,5.54c1.47-.6,4.44-1.48,4.8-.38.29.91,0,3.72-.46,4.55l-15.99-7.86c-2.33-1.15-6.93-.79-9.9.04,5.84,3.32,8.87,6.42,11.04,12.54l-9.76-2.05c-2.15-.45-5.53-3.1-6.42-4.97l4.76-5.24-3.64-1.72,3.05-1.03c2.98-.6,9.7-1.39,11.5-3.86l6.91-9.45c.39,1.94-.35,4.2-1.58,5.96l-3.13,4.46,15.88-6ZM474.8,280.17l1.22.06-1.22-.06ZM472.2,281.21l-.65.02.65.02h.67l.65-.02-.65-.02h-.67ZM477.34,280.53l-.74.83-3.18,2.09,7.38,2.68c-.92-3.03-1.98-4.58-3.46-5.6Z" fill="#c5b086"/>
  <path d="M502.21,824.5c4.35-6.8,10.15-11.47,15.41-17.25,13.99-15.37,24.27-32.92,26.58-54.21l.27-17.39c0-.56,1.66-2.35,1.89-2.4l-.33,22.73c-3.37,27.1-21.98,51.67-43.82,68.52Z" fill="#ac976f"/>
  <path d="M622.42,764.24l7.82-2.27c6.51,3.91,14.48,9.85,23.11,9.07l12.2-1.1c-4.52-4.37-9.73-10.42-16.33-10.38l-14.07.08c7.61,2.38,14.06,4.14,20.09,7.35l-24.49-5.62,3.61-.52c.67-.15-1.17-2.07-1.66-2.31,6.3-2.2,17.66-2.66,23.38.95,6.2,3.92,11.28,8.65,15.97,14.63-4.26-.6-8.37-2.33-11.36-1.72-21.06,4.29-23.72-9.28-38.26-8.17Z" fill="#a48f6d"/>
  <path d="M724.1,524.92l.05-1.37c2.2-.18,4.63-1.15,6.94-2.47-.44,4.37,8.73,2.97,17.18.54-3.92-1.52-6.24-1.14-9.63-.75l-6.39.72,4.45-1.67-5.79-2.12c-.91.76-2.16,1.73-2.55,1.27l-1.25-1.57c2.91-3.6,4.8-6.6,10.57-8.23l-2.93,7.65c5.98-1.96,10.02-5.33,13.34-9.41l-6.89,3.12c2.6-4.26,6.52-6.08,12.09-5.55-.68,1.87-2.64,5.27-4.08,6.14l-11.83,7.14c6.75.32,11.26-.9,16.06,3.89l-4.93,1.59c-12.47,4.03-20.32-.89-24.42,1.1Z" fill="#ad9b78"/>
  <path d="M471.82,755c-6.88,23.09-20.75,51.07-39.25,66.31l-.22-3.41c11.35-10.54,19.99-23.62,26.92-37.93l10.32-26.68,2.24,1.72Z" fill="#ad9368"/>
  <path d="M664.56,749.14l-1.69.29c-.54.09-.65,1.76-.51,2.29-10.95-2.45-20.42,1.92-31.53,4.18,10.54-7.58,23.43-4.37,24.75-13.06l-9.64,4.37c3.11-4.64,7.68-6.61,13.91-5.59l-4.4,5.54c8.65,1.7,7.79-8.48,21.7-6.85l3.24.38c.63.07-.67,2.5-1.37,2.62-4.17.7-11.05,3.39-14.46,5.83Z" fill="#9f8864"/>
  <path d="M299.63,782.57l11.01.99,11.16-.43c8.16-.32,16.24-3.17,23.81-5.97,18.88-6.98,34.07-17.94,50.04-30.21-9.05,10.65-20.9,17.54-32.86,24.48-17.93,10.41-44.29,18.35-63.16,11.14Z" fill="#a39176"/>
  <path d="M699.45,327.76l6.92-.84-6.17-4.2c19.03,6.41,38.35-2.25,48.11-20.32-5.27,19.92-30.43,31.74-48.85,25.37Z" fill="#c2aa79"/>
  <path d="M432.34,817.9l.22,3.41c-7.26,5.98-15.41,11.38-25.17,13.57l-8.34.66c-6.24.5-13.19-4.62-12.89-11.33.61-13.73,18.53-21.64,23.12-16.18.9,1.07,1.42,4.1,1.22,4.97l-3.43-4.8c-2.1-2.93-17.81,3.84-19.25,15.17-.72,5.69,5.94,11.31,11.79,10.62,12.73-1.48,23.76-7.78,32.73-16.11Z" fill="#99825e"/>
  <path d="M273.81,596.55c-4.14,11.15-1.61,25.52,7.2,31.98l.77-.67-.36-10.45c.47.62.57.9.88.95l1.53.08c-.96,5.43,2.26,17.85,6.76,19.9l1.19,5.95-2.05-.02h-1.24c-.68-4.65-3.89-9.28-7.93-12.7-11.1-9.4-14-24.84-8.01-37.4l1.26,2.38ZM282.29,630.11l-.07-1.23.07,1.23Z" fill="#927953"/>
  <path d="M686.32,313.82l7.17,4.67,6.71,4.23,6.17,4.2-6.92.84c-.25.03-.93.01-1.17-.07l-2.07-.83c-6.28-1.26-11.59-5.44-16.1-9.81-.12-2.12.61-4.11,1.9-6.03l4.31,2.8Z" fill="#b7965f"/>
  <path d="M215.39,579.71c-.77-1.2-1.36-2.76-1.5-4.05l-.95-8.37-4.32,3.19,2.43-4.5-9.48-1.88,9.63-1.93-3.19-4.81,3.53,1.97c.62.35,2.16-1.23,2.19-1.94l.28-5.9,1.44-.07.79,9.09,4.74-2.93-2.64,4.48,10.69,2.06-10.38,1.83,2.3,4.3-4.78-2.87-.78,12.33Z" fill="#c0a673"/>
  <path d="M470.8,274.95l3.64,1.72-4.76,5.24-1.08-2.24,1.85-3.53-8.92-1.24,3.51-8.76c2.79-7.22,9.37-11.39,16.52-14.63-2.32,12.2-5.05,17.01-14.96,22.97l4.19.48ZM472.72,262.94l2.09,3.08,3.07-9.02c-6.35,1.79-10.44,6.65-11.19,12.66l6.04-6.72ZM472.04,265.75l-.02.65v.67l.02.65.02-.65v-.67l-.02-.65Z" fill="#c2aa79"/>
  <path d="M782.64,691.9l-.69,9.45-1.55-.02-.23-8.73-2.41.53c-.56.12.19-2.53.19-2.31l-8.98-1.82,8.42-2.11-1.81-3.53,3.39,1.86,2.59-4.65,1.93,4.69,4.63-3.29-2.8,5.12,8.21,1.93-8.36,1.86,2.13,4.34-4.66-3.3Z" fill="#c0a673"/>
  <path d="M358.72,755.84c-13.56,10.07-29.32,16.12-45.54,18.72l.58-2.73c10.87-1.67,21.37-5.09,30.68-10.67l13.46-8.06.81,2.74Z" fill="#a99169"/>
  <path d="M421.63,753.64c-9.62,12.77-19.6,25.76-31.91,36.54-5.58,4.89-10.5,10.11-17.27,13,18.46-15.31,34.39-32.07,47.86-51.21l1.33,1.67Z" fill="#9b896b"/>
  <path d="M437.63,272.38c.66-21.62,12.73-44.62,32.9-55.93l-13.3,13.11c-10.74,11.75-15.42,26.3-19.6,42.82Z" fill="#ad9b78"/>
  <path d="M425.83,274.62c.33.5.59,1.56.65,2.09-1.74,4.87-.8,14.39,3.26,15.68,7.8,2.47,4.56,8.76,12.06,15.09-5.53-.61-7.07-6.84-9.41-11.4l-6.79-2.98c-.86-6.22-4.04-4.59-3.25-8,.09-.4-1.29-.11-1.66.07l-1.04.51-1.38-2.03,2.31-1.97,1.38-1.02-1.17-3.92-.48-1.56c1.53-.78,3.71-1.11,5.52-.56Z" fill="#b8a074"/>
  <path d="M313.77,771.83l-.58,2.73c-8.61,1.38-17.04.64-25.87-2.41-1.91-.66-3.04-1.06-4.55-2.94-3.14-3.91-7.1-8.27-3.98-13.55,2.5,16.24,19.47,18.55,34.99,16.17Z" fill="#927953"/>
  <path d="M506.85,222.57c-13.62,3.61-23.03,11.61-35.25,19.58,13.98-15.62,35.82-24.5,56.96-25.33l-21.72,5.75Z" fill="#b8a37b"/>
  <path d="M446.08,713.29c-6.9,14.13-15.02,27.83-24.45,40.35l-1.33-1.67c9.06-12.88,17.29-26.56,24.08-40.78l1.7,2.1Z" fill="#ac976f"/>
  <path d="M277.07,665.47c-3.69,11.54-1.06,23.17,7.61,31.74l.06,2.11-.06,3.17-4.4-5.67c-7.75-10-9.78-22.08-4.93-33.4l1.72,2.05Z" fill="#927953"/>
  <path d="M588.31,256c-18.75,6.39-29.51,27.29-47.59,30.7,8.78-5.04,16.99-10.57,24.73-17.91,6.49-6.15,16.53-14.04,22.86-12.78Z" fill="#b8a37b"/>
  <path d="M286.65,699.28l1.24-.25-.44,2.7c4.25,6.56,11.31,12.35,19.49,15.37l18.95,7c-14.14.73-33.28-11.37-41.21-21.6l.06-3.17,1.91-.04Z" fill="#99825e"/>
  <path d="M328.6,700.32l2.3,1.34c-12.88,4.84-30.36,5.64-43.45.06l.44-2.7c7.57,2.89,15.97,5.74,24.84,4.15l15.86-2.84Z" fill="#9f8864"/>
  <path d="M588.54,234.66l-6.2,3.03-10.89.24c-10.46.23-18.88,6.22-28.09,10.86,6.87-6.9,16.25-12.25,26.24-12.68l15.93-.68.14-3.7,2.88,2.94Z" fill="#baa376"/>
  <path d="M425.99,246.38c1.28,7.05-.73,8.87-6.26,16.17l-2.29-4.63,1.76-2.56c-.75-1-1.91-2.29-1.59-2.9l1.37-2.6c0-.9-.75-3.87.2-4.12l5.19-1.34.29,7.83.7.54.64-6.42Z" fill="#b8a37b"/>
  <path d="M273.52,313.82l1.06-.27,1.11,1.21c.25.25.78.77,1.08.94l2.92,1.55-3.05,1.33c-.46.2-1.14,1.12-.85,1.51l1.8,2.42c1.37,1.21.45,1.14-.69.52l-2.65-1.45c-.34-.18-.39,1.71-.42,2.29-.03.65-.87,2.26-1.52,2.14-.43-.08-1.22-.52-1.37-.92l-.72-1.89-2.61-4.35-1.75-1.59,3.37-2.71,1.39-2.42,1.66-1.46,1.22,3.15Z" fill="#d2ac6a"/>
  <path d="M687.4,622.77c-.44.11-.71.23-.96,0l-1.39-1.19c3.26-9.44,8.17-18.22,18.4-22.54l-2.7,9.88c-.93,3.39-3.93,6.75-7.47,7.53,3.17-3.8,6.45-7.05,5.98-12.34-6.66,4.15-10.1,11.38-11.85,18.64Z" fill="#af9a72"/>
  <path d="M717.69,664.42c-2.59,4.72-7.94-3.59-18.73-4.84l14.26-5.46c3-1.15,7.67-1.14,10.8.24-6.92,1.18-12.64,2.47-19.07,5.04l12.75,5.01Z" fill="#9f8864"/>
  <path d="M335.48,309.77l.15,4.82c.27,8.69,3.37,15.62,10.09,20.25-.37-.05-1.22.5-1.23,1.05-10.03-5.61-14.82-18.76-9.93-29.25l.91,3.14Z" fill="#927953"/>
  <path d="M434.56,263.81l-1.77-.71-.52-7.66c-3.77,3.75-6.32,7.24-9.2,11.42l-.35-1.28c-1.31-4.82,6.24-11.21,12.79-15.37l-.95,13.6Z" fill="#b49b6b"/>
  <path d="M767.01,511.78c-5.36,1.71-9.68,4.18-15.07,1.32,1.36-3.47,5.19-5.04,9.3-4.74l7.16.53c.42.03,1.31,2.03.91,2.15l-2.31.74Z" fill="#ad9b78"/>
  <path d="M693.53,251.95l.39-1.81c.08-.4-.2-1.52-.74-1.78,9.27-4.28,20.52-5.2,29.95-.72-11.4-1.55-20.78-.74-29.6,4.31Z" fill="#b49b6b"/>
  <path d="M632.69,758.54c.49.24,2.32,2.16,1.66,2.31l-3.61.52-.5.59-7.82,2.27-6.81,1.99c-.54.16-1.98-.51-2.59-1.11,4.47-2.9,8.36-4.64,13.96-5.6l5.71-.98Z" fill="#927953"/>
  <path d="M599.48,250.62c-12.17-3.77-22.65-2.22-33.97,5.27,7.81-9.49,23.01-12.77,33.97-5.27Z" fill="#b8a37b"/>
  <path d="M610.01,274.63l2.72.15c-.07.19-.49,1.27-.42,1.66l1.3,7.23-1.22,8.02c-1.55-3.81-.22-8.65-2.92-13.6l-7.7,4.02c-.34.18-1.39.65-1.6.41l-.72-.81v-1.99c0-.38.71-.69,1.08-.85l9.49-4.24Z" fill="#af9364"/>
  <path d="M541.54,276.3c-8.94,4.25-17.37,8.86-27.46,6.76,11.61-1.99,21.57-4.48,31.34-11.59-.08,2.21-1.75,3.82-3.88,4.83Z" fill="#b8a37b"/>
  <path d="M816.92,505.9c.05.93.08,2.89-.11,2.62s-1.11-1.18-1.19-1.52l-1.41-5.87c-.38-1.57-3.81-2.65-5.89-3.05l9.3-2.42,5.88,2.56c-4.13,1.73-6.83,3.08-6.58,7.69Z" fill="#b8a074"/>
  <path d="M602.58,245.84l-1.86-1.01c-.38-.25-1.23.4-1.34,1.03-3.33-3.26-7.75-5.24-11.86-7.18-.77-.37-2.22-.93-3.05-.94l-2.13-.04,6.2-3.03,3.28,2.56c4.71,1.85,8.58,4.6,10.77,8.62Z" fill="#c6ae7c"/>
  <path d="M510.32,267.69l-2.77-1.08-4.12-1.6,2.26-7.76c2.08.75,3.54,3.14,3.33,5.07,2.1.2,4.52.8,6.83,1.74l-5.54,3.64Z" fill="#c19d64"/>
  <path d="M566.3,218.2l3.15.97c.68.21.67,1.76.32,2.61-9.75-4.16-20.27-4.37-31.38-5.59l16.85-.17,11.06,2.19Z" fill="#b8a37b"/>
  <path d="M289.73,644.26c-4.65,6.83-10.15,13.37-12.65,21.2l-1.72-2.05c3.02-7.04,7.42-14.05,13.13-19.14h1.24Z" fill="#99825e"/>
  <path d="M664.56,749.14c1.48,1.7,4.53,4.51,6.75,4.99l3.03.65c.6.13.07,2.56-.54,2.46l-3.05-.5c-3.39-.55-7.65-2.4-8.39-5.03-.15-.53-.03-2.19.51-2.29l1.69-.29Z" fill="#a48f6d"/>
  <path d="M724.55,656.94c-.83-.45,1.52-2.99,2.77-2.4,4.49,2.13,10.81-1.02,12.74-6.18.42,7.48-9.39,11.85-15.51,8.58Z" fill="#9f8864"/>
  <path d="M795.63,357.08c-.37-1.34-2.26-3.71-3.99-4.96l4.11-4.89c1.01,1.55,3.43,3.18,5.9,4.46-2.59,1.07-4.84,2.45-6.02,5.4Z" fill="#c2aa79"/>
  <path d="M614.52,298.6l-1.92,5.16-.18-6.07-.04-6.01,1.22-8.02,1.14,7.98c.36,2.54.42,5.22-.22,6.95Z" fill="#c6ae7c"/>
  <path d="M702.75,761.32l-4.29-2.64c-.65-1.71-1.16-1.53-1.26.58l-4.41-3.97,3.69-2.11c2.8,1.05,7.12,4.24,6.27,8.14Z" fill="#ad9b78"/>
  <path d="M483.6,840.28c1.9-2.43,3.75-3.98,6.09-5.9l12.05-10.27c-2.16,4.47-5.78,6.94-9.34,9.92l-8.8,6.25Z" fill="#ac976f"/>
  <path d="M701.24,670.07c-3.65.42-6.77.42-11.52-.68,1.33-2.05,3.23-3.53,4.68-3.78,2.31-.4,4.49,1.48,6.84,4.46Z" fill="#99825e"/>
  <path d="M732.24,521.58l-1.15-.51c-2.32,1.32-4.74,2.28-6.94,2.47l-1.04-1.11,4-4.95,1.25,1.57c.39.46,1.64-.51,2.55-1.27l5.79,2.12-4.45,1.67Z" fill="#9f855d"/>
  <path d="M398.04,249.03l-3.64.94c-1.76-2.35-5.7-3.92-8.74-4.15-1.14-.82-4.57-2.11-6.37-2.08,6.31-1.11,13.6.88,18.76,5.29Z" fill="#927953"/>
  <path d="M507.41,747.29l1.57-.94,7.53,22.04c-4.04-6.76-6.8-13.87-9.1-21.09Z" fill="#99825e"/>
  <path d="M448.75,212.1l-5.81,7.1c-5.22,6.38-8.31,13.81-12.16,21.55,1.01-10.96,11.18-20.35,11.86-25.96.06-.5.1-1.62.59-1.72l1.32-.28,1.96-.41c.25-.05-.72-.5-.95-.64l1.63-1.83c.38-.43,1.41,1.95,1.57,2.19Z" fill="#ad9b78"/>
  <path d="M782.15,465.54l-.57-3.09-7.37,3.31c3.05-4.98,7.92-7.03,13.68-5.62l-5.74,5.4Z" fill="#a39176"/>
  <path d="M449.8,754.34c-3.49,6.61-7.15,13.07-12.38,19.04l10.92-19.65,1.47.62Z" fill="#9b896b"/>
  <path d="M468.6,279.66c-1.52-.74-4.32-1.86-5.96-1.96l-4.05-.24,1.1-1.63,1.85-.95,8.92,1.24-1.85,3.53Z" fill="#c6ae7c"/>
  <path d="M675.34,293.55c-2.59-5.07-3.01-12.58.07-16.73l-1,7.14.93,9.58Z" fill="#c5b086"/>
  <path d="M555.29,827.85l.24,1.39-11.29,4.86c.57-1.54,2.25-3.69,3.63-4.09l7.43-2.16Z" fill="#c5b086"/>
  <path d="M273.52,313.82l-1.22-3.15-1.66,1.46c.12-2.96.52-5.84,1.54-9.56l1.34,11.25Z" fill="#b29c73"/>
  <path d="M622.43,728.56c-.72-1.76-.14-4.27.66-5.71l3.18,1.27-3.84,4.44Z" fill="#a48f6d"/>
  <path d="M631.36,718.68l-4.59,4.6c-.93-3.44,1.16-5.53,4.59-4.6Z" fill="#a48f6d"/>
  <path d="M275.68,314.76l-1.11-1.21c1.07-1.21,2.97-2.69,3.94-2.85l-2.83,4.06Z" fill="#b29c73"/>
  <path d="M677.36,299.61c-1,.07-2.11-.64-2.09-1.42l.08-3.44,2.01,4.86Z" fill="#c5b086"/>
  <path d="M643.35,394.54l-.09-5.89.09,5.89Z" fill="#ac976f"/>
  <path d="M488.54,636.37l-.79-6.16c.5,1.93.83,4.34.79,6.16Z" fill="#9b896b"/>
  <path d="M524.64,333.96c-1.89.62-4.69.69-6.14-.29l6.14.29Z" fill="#b8a37b"/>
  <path d="M587.52,238.68l-3.05-.94c.83.02,2.27.58,3.05.94Z" fill="#baa376"/>
  <path d="M378.68,514.64c.03-.88.39-2.86.86-3.25l-.86,3.25Z" fill="#a99169"/>
  <path d="M137.74,596.5l-.81-3.06.81,3.06Z" fill="#927953"/>
  <path d="M136.8,591.41l-1-2.98,1,2.98Z" fill="#927953"/>
  <path d="M675.41,275.72l1.02-2.24-1.02,2.24Z" fill="#c5b086"/>
  <path d="M698.28,327.69l-2.07-.83,2.07.83Z" fill="#c2aa79"/>
  <path d="M581.45,230.76l-1.07-1,1.07,1Z" fill="#baa376"/>
  <path d="M583.58,232.84l-1.1-1.12,1.1,1.12Z" fill="#baa376"/>
  <path d="M409.57,256.77l-1.87-2.31c.58.49,1.55,1.67,1.87,2.31Z" fill="#a58a61"/>
  <path d="M680.29,305.74l-.97-1.01.97,1.01Z" fill="#c5b086"/>
  <path d="M679.36,303.69l-1.04-.96,1.04.96Z" fill="#c5b086"/>
  <path d="M299.68,836.21l-1.14-.86,1.14.86Z" fill="#a0865f"/>
  <path d="M678.36,301.69l-.95-.97.95.97Z" fill="#c5b086"/>
  <path d="M565.49,658.3l-1.1-.88,1.1.88Z" fill="#99825e"/>
  <rect x="427.73" y="420.74" width=".71" height=".71" transform="translate(-172.37 426.03) rotate(-45)" fill="#b8a37b"/>
  <path d="M519.4,79.82l1.41-.84-1.41.84Z" fill="#c6ae7c"/>
  <path d="M628.66,615.28l-1.16-3.02,1.16,3.02Z" fill="#9f8864"/>
  <path d="M340.61,528.48c-.51-.18-.85-2.34-.78-3.17l.78,3.17Z" fill="#c5b086"/>
  <path d="M373.52,288.58c.01.38-.01,1.43-.32,1.52l-2.77.35-3.1,2.75-2.73,2.48c1.04-6.97,7.83-11.14,14.01-13.75l.65-1.5,9.08,1.74c2.81.54,5.62,2.19,7.51,4.44l-8.04-2.27c-5.06-1.43-11.89-.05-14.3,4.23Z" fill="#b29c73"/>
  <path d="M366.71,301.88c-.96-.12-2.39-.57-2.51-1.26l-.5-2.88-.05-1.01.95-1.04,2.73-2.48,3.1-2.75,2.77-.35c.3-.09.33-1.14.32-1.52l9.48-2.87c1.17-.41,4.01.6,4.57,1.64-9.62-.19-17.89,6.02-20.86,14.53Z" fill="#b8a37b"/>
  <path d="M399.41,252.38l-6.01.85,10.27,4.54-13.13-.65-8.14.69,4.9-3.85,2.09-.8c.41-.16,1.16.69,1.74,1.27.82-1.08,1.94-2.61,3.1-2.85s4.17.18,5.17.82Z" fill="#ad9b78"/>
  <path d="M591.82,819.27l.63.75c6.77.85,13.31,1.56,18.55,5.97-6.89-1.86-12.32-4.05-18.42-3.63l-4.34-2.41,3.57-.68Z" fill="#b8a37b"/>
  <path d="M358.81,610.49l.58-1.27-.58,1.27Z" fill="#9f8864"/>
  <path d="M401.9,330.9l.71-3.2-.71,3.2Z" fill="#ad9b78"/>
  <path d="M291.78,644.29l-1.19-5.95,5.47,2.49c.46.21,2.04,2.09,1.51,2.18l-3.7.67c4.14,5.9,11.91,7.69,19.23,5.29-6.98,5.63-17.4,1.76-21.34-4.68Z" fill="#9b896b"/>
  <polygon points="385.29 402.09 385.96 402.09 386.61 402.11 385.96 402.13 385.29 402.13 384.63 402.11 385.29 402.09" fill="#a48f6d"/>
  <path d="M286.81,698.19l-.16,1.09-1.91.04-.06-2.11c.47.02.77.04.99.19l1.13.79Z" fill="#9f8864"/>
  <path d="M631.43,619.38l-.98-1.03.98,1.03Z" fill="#c0a673"/>
  <path d="M398.49,316.12c-3.04,3.74-9.2,3.45-13.62.07-3.66-2.79-4.94-7.83-4.14-12.78.59-3.62,3.41-8.41,7.99-9.81-4.15,4.63-7.23,8.6-6.13,15.36.39,2.38,2.84,5.84,4.88,6.82,2.66,1.28,6.92.86,11.02.33Z" fill="#a48f6d"/>
  <path d="M394.43,309.57c-6.62,1.23-7.23-12.4-4.83-14.94,1.33-1.41,3.75-2.69,6.15-2.97l-3.82,3.37c-2.82,4.9-1.66,11.09,2.5,14.53Z" fill="#ad9b78"/>
  <path d="M383.57,270.79c-2.21.07-5.93,2.37-8.23,3.67,3.38-6.44,12.22-7.18,18.38-4l-10.15.32Z" fill="#9b896b"/>
  <path d="M295.76,608.69c-2.43,7.59-.76,14.36,1.88,21.95-5.57-6.4-5.44-15-3.31-22.7l1.44.75Z" fill="#99825e"/>
  <path d="M358.71,606.45l.57-1.25-.57,1.25Z" fill="#9f855d"/>
  <path d="M286.81,698.19l-1.13-.79,1.13.79Z" fill="#927953"/>
  <path d="M363.66,296.72l.95-1.04-.95,1.04Z" fill="#9f855d"/>
  <path d="M337.91,661.75l-.09,12.69,2.76,9.03c-4.35-4.18-5.7-10.16-5.03-16.16l.83-7.45,1.53,1.88Z" fill="#9b896b"/>
</svg>
