<svg xmlns="http://www.w3.org/2000/svg" viewBox="0 0 1024 1024">
  <path d="M786.03,199.57c-.99.79-1.8.17-3.27-1.11.27-.6-.43.96-.64,1.54-25.23-23.45-53.26-43.35-83.73-60.16-37.65-20.77-76.64-31.98-118.98-42.28,63.69,5.13,149.58,49.12,195.2,91.88l11.4,10.13Z" fill="currentColor"/>
  <path d="M123.23,631.9c17.59,57.45,46.66,110.07,87.09,154.8l27.95,28.31-1.76,2.11-28.2-28.41c-40.74-45.17-70.38-98.41-87.96-156.34l2.88-.47Z" fill="currentColor"/>
  <path d="M345.78,156.46c-30.83,16.11-58.23,34.77-83.3,58.01-.56.52-1.54,1.2-1.99,1.45s-1.85-1.2-1.54-1.61l1.5-1.99c51.79-47.44,115.68-79.87,184.75-92.38.46.42,1.56,1.29,1.31,1.5l-1.92,1.63c-34.4,6.46-66.96,17.45-98.8,33.39Z" fill="currentColor"/>
  <path d="M762.36,214.26l-18.72-15.88c-19.16-16.25-39.77-29.04-62.14-40.77-32.22-16.75-66.17-28.05-101.88-34.74l-1.83-.99c-.44-.24.3-1.14,1.01-1.98,70.85,12.42,135.02,45.31,187.96,94.66-1.6,1.75-2.85,1.01-4.4-.3Z" fill="currentColor"/>
  <path d="M154.78,375.2l-1.63-1.22c-.25-.2-.38-1.2-.46-1.83,16.64-45.81,40.69-87.91,72.69-124.65l16.54-17.57c-1.75-3.28-2.52-6.65-1.36-9.76.88-2.35,4.19-4.6,6.91-4.4,5.84.44,8.86,4.76,8.2,9.45-.7,4.99-5.5,7.66-11.25,6.26-35.63,35.52-64.11,77.49-82.19,124.37l-7.46,19.34ZM247.04,218.12c-4.11,1.3-5.14,4.66-4.09,7.89.67,2.06,4.06,4.05,6.57,3.29,2.93-.89,4.6-3.66,4.13-6.75-.38-2.5-3.71-5.35-6.61-4.43Z" fill="currentColor"/>
  <path d="M530.53,155.68l-2.14-.74c4.4-2.51,2.71-6.05,2.55-10.57l-.49-14.49,2.69-6.21,1.09,15.15c.23,3.44.63,6.44,1.78,9.66,16.21-12.49,19.18-42.84,6.86-44.59-2.76-.39-6.1,2.83-7.76,5.73.17-1.23-2.4-4.06-2.92-3.68l-1.62,5.17c.15-8.46-.08-16.76-1.74-25.41-.76-3.95-5.4-7.6-8.03-6.72l-1.41.84-.83-.39-2.18-1.57c3.55-2.74,8.52-2.7,12.48,1.08,3.57,3.41,4.45,9.64,4.9,14.78l1.01,11.33c2.48-3.01,5.98-4.95,10.08-4.14,11.98,2.37,12.12,31.14-1.88,45.4l-6.33,6.45c-.44,4.94,4.36,11.87,7.33,11.31,1.53-.29,3.09-1.43,5.23-3.07l1.34,2.34c.38.66-1.18,2.31-1.86,2.76-2.76,1.83-6.48,2.21-9.5-.36-4.9-4.18-4.38-10.57-8.66-10.07Z" fill="currentColor"/>
  <path d="M786.03,199.57c41.55,38.59,74.99,85.87,98.89,138.2l3.66,9.6-2.62.37c-23.17-54.35-57.04-103.54-99.99-144.5l-3.86-3.24c.21-.58.91-2.14.64-1.54,1.47,1.28,2.28,1.9,3.27,1.11Z" fill="currentColor"/>
  <path d="M899.06,647.56c-18.37,52.82-45.63,101.8-83.92,142.45l-11.71,12.43-1.7-1.33c-.33-.17-.81,1.33-.51,1.55l1.02.96-10.06,10.02-.95-2.94,18.56-19.01c38.57-41.78,67.8-90.41,86.35-144.35l2.91.21ZM799.72,803.22l-.5.5.5.5.5-.5-.5-.5Z" fill="currentColor"/>
  <path d="M515.48,905.18l-1.25,9.97-2.43,5.16-2.31-14.75-11.34,7.47,8.53-10.79-17.52-2.65,16.92-2.99-7.94-11.61,11.13,8.87,3.14-18.83,2.01,12.19,1.19,6.13,12.36-9.36-9.43,12.68,12.01,1.49c1.9.23,3.09.42,5.18,1.41l-7.21,1.36-9.94,1.21,8.18,11.49-11.28-8.45Z" fill="currentColor"/>
  <path d="M508.47,86.83l2.14,1.89-4.18.11-2.97-6.05c-.62-1.26-2.73-3.05-3.95-3.54-6.08-2.42-11.81,8.41-12.34,15.78-1.2,16.41-.59,33.35-.43,49.89l2.84.45c.53.08,1,1.84.97,2.15-4.77,1-8.22,1.96-12.68-.58l4.64-1.85.03-54.21c0-5.59-3.35-13.53-8.25-12.87-2.93.4-4.59,2.57-5.1,5.8l-3.22-.74c-1.61-.37,2-7.84,8.14-8.31,2.52-.19,6.83,1.85,8.13,4.32l3.63,6.88c1.72-2.75,3.81-6.06,6.45-8.18,3.08-2.48,7.67-2.32,11.05-.34,2.72,1.6,4.52,5.91,5.11,9.38Z" fill="currentColor"/>
  <path d="M282.77,167.51l-1.88-2.16c44.49-31.26,95.94-56.69,150.66-64.71-54.4,14.66-104.38,33.25-148.78,66.86Z" fill="currentColor"/>
  <path d="M745.36,851.77c-46.52,32.5-96.86,54.13-152.66,65.82-.67.14-2.38-.14-2.98-.33-.45-.14.52-1.31,1.11-1.85,55.6-11.32,107.42-33.89,153.5-66.21l1.03,2.58Z" fill="currentColor"/>
  <polygon points="630.81 559.01 621.18 550.56 622.58 549.1 630.81 559.01" fill="currentColor"/>
  <path d="M220.58,222.07c-34.34,36.88-61.91,78.89-81.61,124.96l-2.12-1.92c17.45-40.79,40.71-77.93,69.57-111.6l11.44-12.29c.37.85.98,1.24,1.37,1.15l1.34-.3Z" fill="currentColor"/>
  <path d="M106.52,517.29l-2.11,12.53-2.67-15.08-9.29,5.75,6.04-8.75-13.85-2.87,13.35-3.03-5.31-8.46,8.8,4.96,2.92-14.08,2.42,14.16,10.24-6.1-6.92,9.09,12.89,3.69-12.72,2.23,5.92,9.14-6.26-4.01-1.62-1.16c-.49-.35-1.74,1.4-1.84,2Z" fill="currentColor"/>
  <path d="M925.11,515.64c-.54-.39-2.08-1.31-2.18-.78l-.59,3.02c-.27,1.37-2.14,4.14-3.22,4.42l-2.11-7.2-8.06,4.61c1.05-2.62,2.71-4.94,5.15-8.08l-12.64-2.78,12.2-3.28-6.06-9.18,9.4,6.13,2.61-12.84,1.32.05c-.09,4.46.46,8.52,2.64,12.61l8.95-6.13-6.05,9.44,13.27,3.18-13.65,2.65,6.21,9.44-7.19-5.28Z" fill="currentColor"/>
  <path d="M585.66,231.73l-.14,3.7-1.94-2.59-1.1-1.12-1.02-.96-1.07-1c-3.09-2.88-6.73-6.33-10.61-7.98.34-.85.36-2.4-.32-2.61l-3.15-.97-1-1.34,2.29-.55-8.28-4.24c-21.84-18.51-51.31-24.62-78.84-17.5l-1.98-2.96c9.86-2.42,20.12-4.6,30.78-3.46,22.47,2.41,43.43,11.68,59.49,27.22l16.91,16.36Z" fill="currentColor"/>
  <path d="M865.71,357.2l-2.94.26c-9.02-22.04-19.46-42.88-32.21-63.08l-25.62-35.76,2.8-.97c20.56,25.09,38.42,52.41,50.89,82.47l7.08,17.08Z" fill="currentColor"/>
  <path d="M690.19,857.62c-31.73,16.88-65.35,28.95-100.68,36.52-.65,0-2.29-.08-2.13-.48l.81-2.08c29.97-6.36,58.62-15.89,86.38-29.21l13.78-7.19,1.84,2.45Z" fill="currentColor"/>
  <path d="M881.13,619.41l-2.19-2.69c6.73-26.47,11.47-52.79,13.18-80.2.19-3.01-.37-5.13,2.77-7.78l-.55,17.73c-2.14,23.21-5.72,45.81-11.9,68.16l-1.32,4.77Z" fill="currentColor"/>
  <path d="M878.08,402.62l2.98-.59c6.81,24.9,11.86,49.67,13.29,75.52l.85,15.51c-4.43-1.57-2.78-3.99-2.96-6.58-1.91-28.72-6.75-56.55-14.16-83.86Z" fill="currentColor"/>
  <path d="M138.98,347.03c-11.49,27.68-20.53,56.33-26.06,86.36l-1.53,2.28c-.21.31-1.34-.74-1.55-1.08,5.67-31.23,14.47-60.68,27.03-89.48l2.12,1.92Z" fill="currentColor"/>
  <path d="M888.58,347.37l7.29,17.69c8.14,21.89,13.94,44.28,18.57,67.31l-.38,2.7c-.06.43-1.08.37-1.96.31-5.62-30.29-14.19-59.65-26.12-87.64l2.62-.37Z" fill="currentColor"/>
  <path d="M282.77,167.51l-18.43,13.95-26.05,22.69c-6.53,5.69-11.83,11.62-17.7,17.92l-1.34.3c-.39.1-.99-.29-1.37-1.15l3.6-4.63,15.3-14.88c13.75-13.37,28.14-25.14,44.11-36.36l1.88,2.16Z" fill="currentColor"/>
  <path d="M510.47,100.98l.07,42.52,4.9,4.04-10.87.4c-.48-.92-1.03-1.83-.61-2.07l2.53-1.42.03-52.54,1.3,8.03,1.44-2.19,1.2,3.23Z" fill="currentColor"/>
  <path d="M807.74,257.64l-2.8.97-12.02-13.73c-3.63-4.15-7.83-10.32-12.81-12.66-4.23-1.38-8.92-.15-10.49-5.53-.95-3.24-.21-7.59,3.17-9.73,3.67-2.33,7.95-1.35,10.65,2.1,2.46,3.15,2.02,7.32-.27,10.83l12.39,13.47,7.03,8.03,5.13,6.26ZM776.81,218.13c-3.45.57-6.06,3.61-5.42,5.9.96,3.45,3.52,5.07,6.37,4.99,3.54-.1,5.02-3.39,4.59-6.57-.26-1.97-3.28-4.69-5.54-4.32Z" fill="currentColor"/>
  <path d="M154.78,375.2c-7.43,19.25-12.12,39.16-15.91,59.12-.54.16-1.85.18-1.9-.36l-.49-2.89c4.11-20.27,9.17-39.53,16.21-58.92.08.63.21,1.63.46,1.83l1.63,1.22Z" fill="currentColor"/>
  <path d="M138.87,434.32c-2.5,13.2-4.15,26.61-5.56,40.49l-1.94,19.05c-4.03-1.85-2.19-4.32-2.04-7,1.11-18.91,3.36-37.12,7.15-55.8l.49,2.89c.04.54,1.36.52,1.9.36Z" fill="currentColor"/>
  <path d="M899.06,647.56l-2.91-.21c6.79-19.75,12.28-40.49,16.12-60.52,1.03-.72,2.84.92,2.59,2.16-4.11,20.25-9.05,39.16-15.8,58.57Z" fill="currentColor"/>
  <path d="M792.18,813.64l-7.02,6.49c-12.6,11.66-25.84,21.88-39.8,31.63l-1.03-2.58c16.39-11.67,32.65-23.89,46.9-38.48l.95,2.94Z" fill="currentColor"/>
  <path d="M138.28,585.33l-2.64,2.11c-3.17-16.35-4.94-33.19-6.37-50.31-.27-3.29-1.56-6.91,2.36-8l.95,12.36,1.13,12.99,4.56,30.85Z" fill="currentColor"/>
  <path d="M150.75,634.35c-.78.04-1.86.14-1.91.61l-.42,1.53c-4.29-13.06-8.23-26.47-10.69-39.99l-.81-3.06-.14-2.03-1-2.98-.17-.99,2.64-2.11c2.46,16.67,7.18,33.07,12.48,49.03Z" fill="currentColor"/>
  <path d="M448.61,225.25c-2.84,3.27-5.28,6.15-8.42,8.51,13.72-22.47,37.92-36.95,64.57-36.32-21.58,2.87-41.33,10.74-56.16,27.82Z" fill="currentColor"/>
  <path d="M865.71,357.2c5.97,14.38,11.07,29.16,15.35,44.83l-2.98.59c-4.14-15.24-9.17-30.16-15.31-45.16l2.94-.26Z" fill="currentColor"/>
  <path d="M123.23,631.9l-2.88.47c-4.41-14.52-7.82-28.6-10.85-44.26.21-1.66,2.37-2.04,2.64-.41,3.38,15.55,6.62,29.61,11.08,44.2Z" fill="currentColor"/>
  <polygon points="727.02 831.69 729.21 833.55 690.19 857.62 688.34 855.17 727.02 831.69" fill="currentColor"/>
  <polygon points="881.13 619.41 868.47 656.87 866.02 655.18 877.22 622.41 878.95 616.72 881.13 619.41" fill="currentColor"/>
  <path d="M559.3,212.07l8.28,4.24-2.29.55c-11.69-5.59-23.68-9.62-37.05-11.95l-14.78-.12,2.01-2.08c15.36-.65,29.99,3.58,43.82,9.36Z" fill="currentColor"/>
  <path d="M518.57,79.43l-3.63,4.96-4.02,8.97c-.77,1.73-.53,5.84-.46,7.61l-1.2-3.23-1.44,2.19-1.3-8.03-.1-3.09,4.18-.11-2.14-1.89c2.91-1.68,2.11-4.47,7.93-8.96l2.18,1.57Z" fill="currentColor"/>
  <polygon points="482.89 591.46 481.16 588.35 485.42 555.45 487.59 554.28 486.53 563.5 482.89 591.46" fill="currentColor"/>
  <path d="M535.12,109.63l-1.98,14.05-2.69,6.21.14-18.78,1.62-5.17c.51-.38,3.09,2.46,2.92,3.68Z" fill="currentColor"/>
  <path d="M510.71,969.39c3.01-1.05,6.6,1.12,7.43,3.64,1.07,3.23-.79,6.61-3.65,7.67s-6.23-.28-7.42-2.7c-1.61-3.29-.85-7.04,3.63-8.61ZM510.9,971.25c-2.17,1.08-2.88,4.07-2.04,5.79.7,1.43,4.07,2.61,5.56,1.62,1.3-.86,2.11-3.95,1.5-5.41s-3.4-2.81-5.02-2Z" fill="currentColor"/>
  <path d="M528.38,154.94l2.14.74c.15.25-1.55,2.31-2.16,2.48l-12.89,3.58c-1,.28-2.57-2.77-1.63-2.98l3.83-.84,10.71-2.98Z" fill="currentColor"/>
  <path d="M486.72,144.92c-.16-16.54-.76-33.48.43-49.89l-.43,49.89Z" fill="currentColor"/>
  <path d="M103.41,541.71c1.48-.64,4.49.91,4.66,2.27.21,1.6-.61,4.64-1.97,5.2s-4.1-.46-4.8-1.67c-1-1.71-.17-4.82,2.11-5.8Z" fill="currentColor"/>
  <polygon points="486.62 628.43 486.78 612.51 488.28 601.31 488.63 627.97 486.62 628.43" fill="currentColor"/>
  <polygon points="370.54 743.82 371.67 746.23 358.72 755.84 357.91 753.1 370.54 743.82" fill="currentColor"/>
  <circle cx="919.6" cy="545.45" r="3.75" fill="currentColor"/>
  <path d="M103.16,469.86c1.91-.95,4.61-.19,5.23,1.56.43,1.23-.12,3.81-1.33,4.65-1.09.77-3.67.04-4.98-1.09-1.48-1.28-1.23-3.98,1.08-5.13Z" fill="currentColor"/>
  <path d="M916.92,470.18c1.85-1.13,4.88-.71,5.35.5.58,1.49.61,4.26-.55,5.04-1.07.72-3.56.64-4.63.1-1.25-.63-1.38-4.9-.17-5.64Z" fill="currentColor"/>
  <circle cx="512.42" cy="940.77" r="3.36" fill="currentColor"/>
  <circle cx="459.55" cy="897.12" r="3.2" fill="currentColor"/>
  <polygon points="460.86 572.59 459.42 571.33 467.08 554.47 467.69 556.06 460.86 572.59" fill="currentColor"/>
  <polygon points="673.25 593.43 671.4 592.43 671.2 578.39 673.15 577.38 673.25 593.43" fill="currentColor"/>
  <circle cx="564.68" cy="897" r="3.05" fill="currentColor"/>
  <polygon points="497.78 619.65 496.08 620.48 493.88 601.2 497.78 619.65" fill="currentColor"/>
  <path d="M515.48,202.71l-2.01,2.08c-4.84-.04-9.57,1.18-15.13.64,5.74-1.58,11.47-2.48,17.15-2.72Z" fill="currentColor"/>
  <polygon points="740.17 400.73 740.37 413.44 738.87 416.72 738.25 404.64 740.17 400.73" fill="currentColor"/>
  <polygon points="269.25 314.54 265.88 317.25 267.62 318.85 258.48 317.34 267.96 315.32 266.72 311.39 269.25 314.54" fill="currentColor"/>
  <polygon points="642.13 395.66 642.41 399.59 640.35 397.63 640.58 386.53 642.13 395.66" fill="currentColor"/>
  <polygon points="276.64 318.57 279.69 317.24 276.77 315.69 284.99 317.35 276.64 318.57" fill="currentColor"/>
  <path d="M803.43,802.44l-1.19,1.18-1.02-.96c-.29-.22.19-1.72.51-1.55l1.7,1.33Z" fill="currentColor"/>
  <rect x="799.37" y="803.36" width=".71" height=".71" transform="translate(-334.08 800.89) rotate(-45)" fill="currentColor"/>
</svg>
