<svg xmlns="http://www.w3.org/2000/svg" viewBox="0 0 1024 1024">
  <path d="M494.43,434.75l.27,12.54c5.86,4.61,11.96,7.68,18.92,10.39,4.06-1.69,7.81-1.19,11.48,1.61l10.42.12c4.68.06,9.26.98,13.37,2.78,21.86-.33,41.41,12.24,48.58,33.35l5.69,23.54c2.08,8.62,8.15,16.18,13.64,22.9l5.8,7.12-1.4,1.45c-6.85-6.92-12.22-14.83-17.65-24l.71,15.94c.28,6.26-.91,13.67.62,19.75,2.75,10.86,9.91,19.82,15.19,29.43l8.57,15.58c1.63,2.96,1.76,7.04,1.73,9.94l-1.5-1.43c-.1-.11-.14-.31-.21-.49l-1.16-3.02c-2.17-5.68-4.88-11.15-8.16-16.81l-15.68-27.15-.77,14.7.03,21.9.53,27.54-.59,13.78-1.68-9.86-.8-11-.68-9.03.22-48.25c.06-12.51.99-24.75.05-37.15-.93-12.28-2.09-24.24-6.29-35.64-6.06-16.45-20.22-28.16-37.69-29.26l-19.01-1.19-8.83,5.41c-9.57,5.87-17.38,13.73-23.94,22.92l-4.91,6.88-1.16-.81c4.06-7.19,8.2-15.17,14.64-20.22l20.97-16.43-11.57,1.1,2.02-2.9-1.75-.27-4.65-.71c-14.95,4.84-21.64,19.11-27.71,32.84l-.81-3.23c2.92-10.81,11.11-23.58,21.45-29.67-12.23-4.99-24.13-11.47-28.51-24.43l8.86,9.37,1.37-12.22,1.37.33c.46.2.55,1.37.57,1.95Z" fill="#c0a673"/>
  <path d="M516.31,333.42l.96,2.39c-4.52-.02-15.73-8.88-14.86-3.4l.73,4.61.34,2.14c.06.39-.99.72-1.35.56s-1.4-1.19-1.42-1.58l-.31-7.73-8.17,1.5c1.79,3.85,3.59,6.01,4.01,9.94l-7.33-10.92c-.34,6.75,2.32,12.79,6.53,18.12,1.45,1.84,7.05-.04,8.89-1.48,4.71-3.7,9.02-5.34,14.37-7.97l4.97-2.44-4.23-1.33,6.2,1.76-6.15,4.04c-2.95,1.94-7.49,2.68-10.1,4.88-6.61,5.57-8.84,14.74-6.59,22.81,1.58,5.67.59,12.31-5.25,14.52,1.7-2.84,4.66-6.96,3.85-9.7-2.38-8.04-3.31-15.38,1.19-22.45l-8.61,1.35-13.03,10.99c-7.16,6.04-11.67,13.65-16.72,21.33-6.33,9.62-12.77,19.26-13.5,31.3-.35,5.86-.76,12.91.32,18.61,2.19,11.62,2.66,23.28-4.57,33.32-11.08,15.39-32.58,20.06-42.82,33.94l-1.26-2.23c4.97-5.93,11.37-10.45,18.32-14.65l11.18-6.75c13.59-8.21,21.57-23.56,16.16-39.7-.65,11.1-3.72,21.34-11.78,29-4.96,4.71-10.04,9.46-16.9,11.31,5.31-4.37,11.14-7.54,15.65-12.38,5.9-6.33,9.96-14.19,10.19-22.82l.36-13.75.51-7.05,1.31,2.19c.26-12.65,3.91-23.41,10.35-33.8l3.61-5.82-.85-1.41,3.79-6.52.69,1.48c.15.32.79-1.13.99-1.44l4.72-7.33c2.89-4.49,7.09-7.38,11.09-10.97l10.47-9.42-6.46-12.34c-4.64,7.57-11.16,5.84-13.44,16.29l-.04-6.22-6.75,3.55c-4.45,2.34-9.14,5.44-14.04,5.27-8.37-.29-15.98-2.1-21.83-7.16l1.13-1.3c10.05,6.63,22.27,8.6,32.89,2.31-9.14.08-17.47-1.89-24.03-7.19l4.81-2.27,18.12,3.01c-6.36.71-12.67-.38-19.4-1.3,13.71,8.64,31.38,5.34,41.44-6.13.49-1.15,1.48-4.22.5-4.44l-3.65-.82c-11.43-2.56-21.74-7.63-30.24-16.6,5.43,2.22,9.38,5.53,14.4,8.54,13.59,8.14,30.89,7.89,45.1,1.2-9.68,1.61-17.89,1.03-26.46-2.99l-18.72-8.76,1.6-.69,23.98,9.66c4.49,1.81,10.45,1.54,15.29,1.74l6.57.28c3.01-.6,5.27-1.34,8.71-1l-15.68,6.03,10.25,4.29Z" fill="#b8a37b"/>
  <path d="M375.11,423.53c.83-.12,3.37.69,3.6,1.44l-13.07,4.48-6.11,1.94c-6.73,2.13-12.86,5.43-15.84,12.23l-.99-1.16c-.31-.37-1.03-1.13-1.39-.81l-1.92,1.7c-14.55,12.86-23.42,31.6-15.98,49.39,6.08,14.54,17.2,21.99,16.4,32.55-.06.83.27,2.99.78,3.17l.24,1.98c-.43-.18-1.09,1.05-1.16,1.57-.73,5.22-.7,14.57-.81,20.9l-.21,12.54,5.14,36.9-1.59.02-3.82-20.1-1.52.17c.44-2.51.37-5.19.16-8.1l-1.08-14.93-.53-11c-2.51,4.37-4.86,9.5-8.52,13.15l-10.59,10.55c-6.95,6.93-15.67,12.18-21.5,20.37l-9.36,16.77-1.62,9.15-1.53-.08c-.31-.06-.41-.33-.88-.95.75-13.56,8.31-25.46,18.53-34.73,7.36-6.68,15.12-11.63,22.36-19.96l-20.6,8.7c-12.32,5.2-22.57,13.26-27.9,25.12l-1.26-2.38c11.91-24.96,35.79-24.97,51.2-35.67,14.45-10.04,17.53-37.27,6.46-49.58-16.71-18.58-15.84-45.05,2.07-63.06,4.93-4.96,10.88-9.13,16.38-13.36l2.07-.66,2.69-.9c6.56-2.19,15.81-6.53,21.7-7.4Z" fill="#9f855d"/>
  <path d="M606.38,255.66c6.42,3.3,8.93,11.04,7.71,17.43l-1.37,1.69-2.72-.15,1.56-3.79c-5.96-1.08-9.83,3.22-11.05,8.03-.37.16-1.07.47-1.07.85v1.99s.71.81.71.81c.22.24,1.26-.23,1.6-.41l7.7-4.02c-.37,1.26-2.28,3.1-3.17,3.56l-11.85,6.12c-7.4,14.27-20.17,23.2-35.7,27.18l-11.11,11-8.31,5.75c-2.13,1.47-3.1,6.51-3.79,8.91l-1.31-2.04,1.42-5.22c-3.94,1.33-7.35,2.48-10,4.22l-6.2-1.76h-2.18s-.96-2.4-.96-2.4l2.19.25c1.45.98,4.25.9,6.14.29,3.54-1.15,10.12-2.25,12.58-5.14l7.22-8.47-3.01,6.32c5.04-2.44,9.56-6.07,13.32-11.61-9.66,3.8-19.48,7.35-30.27,6.51-9.37-.73-17.09-6.05-25.64-9.09l-14.19-5.04c-1.62-.58-4.92-1-6.94-.84l-6.15,1.09-3.02.27-1.08-1.61c25.96-7.9,40.45,14.24,63.67,12.02,13.84-1.33,26.23-6.14,36.35-16.28-2.09-.44-4.26.09-6.74.82-8.63,2.53-18.1,2.22-27.1.63l-25.19-5.08,6.08-.93,23.3,3.95c11.89,2.02,29.88-2.67,40.11-9.39,4.74-3.12,9.24-7.61,12.68-12.22l3.38-4.54c3-4.03,5.62-9.02,10.93-10.75-3.32,3.26-5.73,6.97-8.83,10.76l-11.8,14.4c14.38-2.57,10.69-19.97,27.26-22.23-.98-4.15-3.46-8.03-7.14-9.89-2.02-1.02-5.76-.92-9.08-1.5l11.05-.45ZM569.43,304.35l-7.19,7.67c11.73-3.67,20.3-11.42,26.87-20.34l-11.63,5.88-8.05,6.79Z" fill="#c6ae7c"/>
  <path d="M614.52,298.6l-.15,9-4.25,23.09c-5.69,30.91,14.04,38.72,18.58,54.81l-.66,3.46-1.78-2.79c-3.97-13.45-18.63-20.89-19.62-42.78l1.57-11.96-8.4,10.85c-2.95,3.81-3.09,11.16-2.09,15.88l4.4,20.67c1.02,4.78-6.66,7.36-10.57,6.79-2.08-.31-5.24.21-6.17,1.3-3.32,3.86-.67,9.73-3.75,11.1l-4.62,2.05-2.04,6.66c-.47,1.54-4.26,1.82-6.28,2.36-6.07,1.63-2.15,15.87-12.48,18.97-7.09,2.13-13.81-.63-19.44-4.69l-20.3-14.63c-10.38-7.48-19.08,12.33-22.04,26.02-.01-.58-.11-1.75-.57-1.95l-1.37-.33c1.17-10.4,8.62-28.57,20.2-28.05.09-.16.1-2.24.67-2,6.79,2.91,30.05,28.76,43.16,22.38,7.26-3.53,2.68-12.9,10.66-18.41l-.55-5.87,1.78,3.73c.41.86,3.07,1.54,4.35,1.33,1.29-.93.86-5.61-.55-6.6-3.02-1.95-8.3-.28-10.16-5.45l12.86,4c1.83.57,5.45-1.88,6.61-3.58l-9.25-.75,8.76-2.43c2.74-14.05,13.53-3.73,18.06-11.83l-4.07-19.01c-4.36-20.37,10.57-25.56,12.52-36.09l3.9-21.07.97-5.06.18,6.07,1.92-5.16Z" fill="#c2aa79"/>
  <path d="M695.38,516.49c-.34-.41-.95,1.63-1.03,2.13-.07,5.26.18,12-.77,16.8l-.4-19.02-1.65-8.15c-1.83-9.02-15.06-5.15-19.81-22.14l-3.98-14.24c5.85,3.34,10.7,6.38,14.78,10.47,5.27,5.28,6.76,12.69,9.75,19.37-.39-13.38-3.58-26.67-10.02-37.93-5.3-2.27-11.61-3.35-13.92-9.28l7.47.88.67-.5-3.41-4.04c-2.53-2.99-6.03-5.4-5.07-10.14,5.21,3.36,8.31,7.47,11.21,11.94l.31-12.53c.02-.78,1.78-3.27,2.22-2.69,2.08,2.72,3.45,9.39,3.14,12.56-.27,2.77-2.18,7.07-1.39,9.15l8.53,22.6c-.21-15.92,3.26-23.58,15.02-34.04l-.94,20.04c-.51,10.9-12.29,13.53-11.97,21.6l.48,12.18.76,14.97ZM696.06,480.5c8.83-6.91,9.09-15.59,7.94-26.01-6.01,5.15-9.93,12.73-8.44,21.23l4.3-8.14.65.53-4.45,12.39ZM676.8,456.06l1.26.06c-2.26-.1-2.28-.1-1.26-.06ZM686,498.89c-.02-1.31.56-3.57,1.19-5.15-2.37-6.91-7.74-12.24-14.77-16.11l2.67,11.29c1.16,4.92,6.59,8.8,10.48,10.77l.43-.8ZM686.81,500l1.24.07c-2.28-.12-2.3-.12-1.24-.07Z" fill="#af9a72"/>
  <path d="M490.12,492.65l-.34,3.36c-.09.85,2.31,1.92,3.22,2.12l5.14,1.13,1.16.81.11,1.92c.02.34-1.14.76-1.42.57l-1.39-.95c-6.61-4.54-13.71-3.71-18.96,2.11-3.78,4.2-5.24,9.56-3.31,15.29,1.45,4.29,5.79,8.2,11.78,9.08,9.81,1.45,17.08-7.57,16.67-17.75,2.46,7.21-1,14.91-8.32,18.3,3.62,35.34,17.31,67.69,39.88,95.07l-2.1-15.31-1.03-10.89-.91-10.13-3.08-22.67c6.27,14.48,6.08,29.35,7.68,44.27l1.92,17.88c6.24,7.79,12.63,14.55,20.03,21.2l9.97,8.97-.59,1.51-.77-.23-1.1-.88c-37.51-30.06-68.83-77.86-71.42-127.83-1.79.57-3.53,2.23-4.35,4.27.03-.57-.87-2.37-1.06-2.6-4.49-1.11-7.65-2.2-12.57-5.07l-5.54,9.22-2.31-.06,6.81-11.49c-4.12-6.22-4.16-12.11-.95-18.16,2.66-5.01,7.54-8.38,14.41-9.29l1.89-7,.81,3.23Z" fill="#ac976f"/>
  <path d="M711.01,522.34l1.67,1.43c-1.44,2.25-2.75,5.01-4.06,8.37l14.49-9.7,1.04,1.11-.05,1.37c-15.46,7.51-25.86,20.09-32.75,36.55l-18.43,44.07,5.62-5.41,1.02.98-7.08,9.3c.54-1-.19-3.42-.47-4.72l1.88-7.32-2.23,2.16-.58-3.93.32-4.18,1.85,1,.59,3.06,15.71-40.69,4.03-20.38c.95-4.8.7-11.54.77-16.8.08-.49.69-2.54,1.03-2.13l.73,7.08c1.4-3.72,2.02-5.46,2.36-7.76l2.88-1.32.35,1.77c7.55-6.31,10.93-14.91,10.36-25.05l-8.57,10.46-1.49-1.31c3.49-6,7.64-10.95,12.98-17.05l-.28,8.32c-.32,9.62-3.04,19.14-10.69,25.57-5.58,4.69-7.16,11.15-8.1,18.14l-1.98,14.78,17.06-27.79ZM707.81,531.49l-.02.65v.67l.02.65.02-.65v-.67l-.02-.65Z" fill="#b8a074"/>
  <path d="M672.48,610.41l-2.51,4.61-14.57,36.22,11.79-11.97,8.56-7.51c3.45-3.03,7.87-6.03,9.3-10.17l1.39,1.19c.25.23.52.1.96,0l5.99-3.28,4.46-2.43,1.44,1.84c-18.96,10.78-36.44,24.87-48.38,43.84-5.47,8.69-9.08,18.02-12.47,27.05l-2.37-.71,5.08-13.95c3.05-12.23,2.46-24.68,1.7-36.88,1.63.58,2.83,1.57,3.76,3.25l-.59,12.72-.25,11.25,15.55-36.17c4.63-10.76,8.96-22.19,9.76-32.71l.58,3.93,2.23-2.16-1.88,7.32c.28,1.3,1.01,3.72.47,4.72Z" fill="#af9364"/>
  <path d="M464.31,378.14l-3.79,6.52c-3.55,6.11-11.26,14.65-17.65,19.31-22.77,16.58-48.41,17.99-70.21,35.65.26-.58-.03-2.19-.5-3.01,7.21-5,15.43-9.68,23.82-13.68.72-.34,1.69-1.61,1.7-2.28l-.19-1.51c17.54-4.35,33.38-14.91,45.91-27.61l1.59.33-4.58,5.63-20.41,15.31c21.94-7.9,37.6-25.26,47.61-45.2-.03-1.2.68-1.91,2.77-1.94-1.53,4.41-3.8,8.57-6.07,12.48Z" fill="#c0a673"/>
  <path d="M352.65,622.42c-.13-1.88.66-4.07,1.67-5.15.47.4.91,1.32.95,1.08.07-.45.36-2.32.32-2.1l.63-1.12c1.59.2,3.65-.6,5.25-1.76,13.81-9.93,20.96-24.82,19.09-42.15-1.88-17.46-11.29-32.73-23.3-44.84l-.51.68c.07-.1-.87,1.17-1.07,1.43l-3.51-7.77,4.01.76c1.76.47,4.18,3.01,5.54,4.89l10.97,15.08c6.63,9.11,9.04,19.71,11.33,31.19,1.85-6.45,2.43-13.32.6-20.19l-4.65-17.42c-.82-3.07-1.47-6.84-1.16-9.42l1.68-8.16c-1.3,20.26,10.94,33.21,5.88,53.76l-4.43,17.97c-.88,3.57-2.78,9.46-5.21,12.17l-7.52,8.38-16.55,12.68ZM356.12,526.28l.06-1.49-.06,1.49Z" fill="#a99169"/>
  <path d="M402.61,327.7l-.71,3.2-4.2,10.75-1.04,4.04c-7.87,7.66-15.78,13.55-27.28,17.63l17.44-.19c-8.63,4.1-17.14,1.42-25.19,3.31-1.26.3-2.65,2.69-3.18,4.12-7.22,2.91-11.93,9.76-12.98,17.94-2.28,9.21,3.22,17.9,12.25,19.67-5.96,1.01-12.41-3.37-14.14-8.95l-2.21-7.12c-1.61-8.75,4.87-15.4,10.2-21.35-11.98,1.4-16.83,10.73-22.23,20.66,1.03-11.81,10.63-20.03,21.26-23.85l17.68-6.35c6.62-2.37,12.86-5.87,18.23-9.5.44-.29,1.41-1.03,1.21-1.49l-1.14-1.84c6.18-1.46,9.78-8.95,11.17-14.55.83-1.04,1.89-2.72,2.59-4.31l2.5-3.85-.23,2.02Z" fill="#99825e"/>
  <path d="M646.61,641.51c-.94-1.68-2.13-2.67-3.76-3.25-3-1.07-10.61-19.5-7.96-31.49,3.08-13.93,8-24.8,3.18-38.94l-7.25-8.81,12.57,12.31c3.18,3.11,6.6,5.53,8.74,9.38l-9.23-7.48,6.11,18.6c6.56,19.98,6.27,30.24-2.39,49.69ZM645.7,614.87l.03,22.96c4.24-9.64,7.7-24.18,4.55-33.4l-7.4-21.68-2.86,13.4c-4.35,13.48-3.95,27.33,3.11,38.91,1.67-9.09,1.3-16.24.14-24.65,1.24.29,2.05.7,2.12,1.34l.31,3.12Z" fill="#b29c73"/>
  <path d="M636.47,374.43l-1.23,1.69c-.23.47.6,1.24,1.09,1.45.95,8.44-.67,16.44-4.72,24.14l-6.94,13.17-9.22,15.16c-2.18,3.58-2.4,9.49-1.99,13.52l-1.83,2c-1.51-3.04-1.73-7.29-1.27-10.92,4.46-1.45,5.14-7.3,2.95-11.08l3.1-8.09c-5.88,2.45-9.66,8.52-11.14,13.88-1.92,6.99,1.22,12.93,4.06,19.33-5.89-5.41-8.24-14.82-5.18-22.39,2.45-6.06,7.32-11.44,12.38-13.98l.71-.42c6.94-7.95,12.24-14.74,9-25.74l1.78,2.79.66-3.46c1.13,4.01,1.33,7.93,1.35,12.37,3.91-7.19,3.65-14.89,3.27-22.28l1.53-2.04c.28-.37,1.47.46,1.62.9ZM617.88,414.29l.06-1.5-.06,1.5Z" fill="#b8a37b"/>
  <path d="M643.26,388.66l.09,5.89c0,.37-.65,1.05-1.22,1.12l-1.55-9.13-2.24-7.71c-.14-.47-1.56-1.06-2.02-1.25l.36-2.47,1.2.03.89-.55c2.62,3.94,4.41,9.18,4.48,14.07Z" fill="#b8a37b"/>
  <path d="M482.89,591.46l-6.24,33.12c-6.57,30.98-16.89,60.71-30.57,88.72l-1.7-2.1c16.98-35.59,31.8-84.28,36.79-122.85l1.72,3.11Z" fill="#b8a074"/>
  <path d="M488.54,636.37l-.29,11.98-1.06,16.01-1.07,14.84c-1.88,26.14-7,51.28-14.3,75.79l-2.24-1.72c7.81-26.43,12.96-53.44,14.46-81.29l.84-15.54.79-13.17,2.08-13.07.79,6.16Z" fill="#b8a074"/>
  <path d="M460.86,572.59c-11.54,24.3-26,47.38-44.24,67.8l-23.97,23.9-19.54,15.26-1.79-1.21,4.49-3.78,19.27-15.67,3.7-3.31,1.04-1.24c23.53-21.82,41.84-48.83,56.88-77.76l2.72-5.24,1.44,1.26Z" fill="#c2aa79"/>
  <path d="M602.34,654.53l2-1.2c6.68,8.19,9.52,18.9,8.99,30.02-.28,5.86,1.17,10.99,2.35,16.63l2.15,10.33c1.91,9.18-1.6,14.37.4,17.89l-2.73,4.15.66-9.24c.99-9.52-1.28-19.02-4.69-28.27-1.6-4.34-6.82-7.55-10.03-10.49l.65-2.23,6.28,4.67c-.84-4.09-2.94-6.78-5.06-10.32-4.35-7.24-8.66-14.59-9.79-23.85,4.74,11.1,9.74,21.83,17.43,32.92,1.08-9.54-2.36-23.64-8.61-31.04Z" fill="#9f8864"/>
  <path d="M355.98,452.95c-5.87,7.73-11.37,16.5-13.02,26.62-1.42,8.67-.05,18.05,4.25,25.55l8.97,16.37-4.01-.76c-5.05-8.52-9.61-18.35-12.04-28.31-.42,4.2-.39,7.64-1.62,12.45-1.46-5.89-.81-11.41-.04-17.32l1.08-8.39-1.18-9.31h2.15s.48,1.26.48,1.26c.11.28.47.24.62,0l1.17-1.93c3.17-5.22,6.83-12.98,11.44-17.76l1.76,1.54Z" fill="#9f855d"/>
  <path d="M434.88,668.93c-9.93,17.95-21.13,34.46-34.77,49.91l-21.51,21.45-6.93,5.94-1.13-2.41,5.24-4.38,22.9-23.05c12.27-12.35,21.26-26.88,30.13-41.76l4.61-7.73,1.46,2.03Z" fill="#c5b086"/>
  <path d="M549.96,674.16l-2.06,1.38-11.9-11.84c-19.84-23.22-34.29-50.37-39.42-80.83,2.71,3.7,3.41,7.63,4.73,11.79,8.93,30.43,25.16,58.09,48.64,79.5Z" fill="#ac976f"/>
  <path d="M435.03,436.8c-2.27,5.32-4.68,11.48-9,16.34-21.22,23.87-38.18,28.47-45.54,64.32l-1.68,8.16-.14-10.98.86-3.25c2.39-14.48,10.45-27.97,21.93-37.98l8.55-7.46c9.8-8.55,18.33-17.67,23.28-29.57l1.74.42Z" fill="#baa376"/>
  <path d="M389.55,341.31l1.02,1.5c-2.52,3.16-7.66,4.65-12.06,5.93-6.02,1.74-11.18-2.38-15.38-6.65-1.26-1.29-5.36-2.24-7.3-2.52,1.92,6.19,6.41,9.97,11.95,12.34l-2.18.81c-6.63-1.97-10.63-8.3-13.14-14.58l-7.97-2.27c0-.55.85-1.1,1.23-1.05l5.89.86c-1.83-7.84-1.53-15.59,3.54-22.76l-1.72,17.75c-.47,4.81,2.89,8.98,7.88,8.43-4.2-6.77-6.66-13.31-5.24-20.54,2.01,8.43,4.43,17.32,10.91,23.71,6.46,6.36,16.05,4.06,22.56-.98Z" fill="#99825e"/>
  <path d="M469.45,535.42c-10.01,16.67-21.47,32.4-34.62,47.19-11.84,13.32-35.14,29.06-47.4,15.19l11.31,3.8c10.66-1.49,20.46-6.68,27.82-14.16l8.96-9.11c11.95-13.61,22.61-27.78,31.62-42.98l2.31.06Z" fill="#b8a37b"/>
  <path d="M371.31,678.34l1.79,1.21c-9.53,7.44-20.13,13.82-31.52,18.1l-.72-2.36,20.98-10.86c-.52-5.85-1.36-10.12-2.97-15.35-7.39-24.1-1.85-36.45,10.7-55.39-3.7,13.08-15.13,23.83-11.32,38.32.65,2.47.87,4.58,1.37,7.4l2.64,15.03,1.56,8.28,7.48-4.38Z" fill="#a58d65"/>
  <path d="M673.15,577.38l-1.94,1.01c-.06-4.27-1.93-9.01-5.55-11.06l.69-.71,1.5-.17.67-.6c-.31-2.7-1.4-6.25-3.26-8.15l.48-1.23.02-4.3,3.16-1.99c1.63-5.46,4.13-10.28,7.6-15.16l2.46,18.65c.34,2.56-1.84,7.68-3.26,9.91-3.17,4.99-2.67,8.89-2.58,13.8ZM674.05,551.42l-1.37,13.29c4.62-6.23,5.09-14.04,1.34-21.54-2.91,5.66-4.44,11.49-3.42,17.36l3.45-9.12ZM668.88,566.65l-.05,1.49.05-1.49Z" fill="#b8a074"/>
  <path d="M601.41,649.39l1.44,2.03c.25.36,1.14-1.83,1.4-1.77l.1,3.69-2,1.2-15.85-18.78,2.33,18.24c1.37,10.74,4.42,21.57,13.27,28.14l-.65,2.23c-10.31-7.43-14.95-19.82-15.5-32.57-.34-7.88-2.49-14.66-4.68-22.6,7.99,6.14,14.78,12.59,20.16,20.18Z" fill="#ad9368"/>
  <path d="M522.76,693.29l-2.57.75-10.63-21.8c-6.58-16.89-10.31-34.39-13.49-51.76l1.7-.83,10.2,40.31c3.01,11.9,8.69,22.78,14.78,33.33Z" fill="#ac976f"/>
  <path d="M396.57,391.54l.18,2.32-6.97,4.78-3.34.02c9.49-8.27,17.59-18.76,19.23-32.35-7.87,8.41-16.32,11.07-25.05,4.38l-22.17-.13c.53-1.43,1.92-3.82,3.18-4.12,8.98,3.13,17.11,4.13,26.14,1.06l-.22,1.91-3.44,1.33c8.82,5.67,17.29-1.63,23.47-8.78-.24,11.71-4.73,21.47-10.99,29.59Z" fill="#a48f6d"/>
  <path d="M399.82,654.32l-1.04,1.24c-.42-2.69-.98-7.33-2.32-10.05l-15.43-31.29c-1.4,7.66-2.07,15.76-7.29,21.22l-11.72,12.25-2.73,4.19c-.12-6.51,4.97-9.01,9.01-12.99,6.87-6.76,12.31-17.54,10.94-27.12l-1.49-10.46,3.63,8.36,14.85,30.11c2.25,4.55,3.09,10.01,3.59,14.53Z" fill="#9b896b"/>
  <path d="M520.19,694.05l2.57-.75c7.21,12.49,17.42,22.2,28.98,30.73,11.04,8.15,22.92,13.57,34.83,20.32-12.12-3.39-22.57-9.57-32.98-16.18-13.87-8.8-25.19-19.91-33.41-34.11Z" fill="#a99169"/>
  <path d="M373.65,480.87l-1.28-1.82c3.4-13.15,13.2-28.37,23.97-35.75l26.11-17.86c1.34-.92,2.03-2.11,3.61-.79-3.95,3.95-8.24,6.84-12.61,9.82l-16.02,10.91c-11.62,9.12-20.67,21.17-23.78,35.5Z" fill="#b8a37b"/>
  <path d="M465.06,598.58c-7.64,24.65-17.73,47.84-30.17,70.35l-1.46-2.03c13.06-21.91,22.03-45.31,29.89-69.71l1.74,1.4Z" fill="#b8a37b"/>
  <path d="M378.62,406.58l.1-2.94c2.62-1.41,5.49-3.05,7.71-4.98l3.34-.02-1.15,2.04,9.69-2.33c10.27-2.47,19.8-6.07,27.54-13.4,4.29-5.78,7.12-11.88,9.59-18.36-.31,8.67-4.87,16.89-11.26,22.55-12.14,10.74-29.17,10.39-45.57,17.44ZM385.29,402.09l-.65.02.65.02h.67l.65-.02-.65-.02h-.67Z" fill="#ad9b78"/>
  <path d="M451.55,424.44c1.48-4.19,4.82-7.73,8.66-10.14,11.2-7.02,16.65-18.41,17.71-31.47.54-6.7,2.85-13.07,6.51-17.98-1.98,7.71-3.99,14.08-4.65,20.94-1.16,12.09-6.72,21.83-16.43,28.65l-11.8,10.01Z" fill="#b8a37b"/>
  <path d="M508.98,746.35l-1.57.94c-4.93-15.49-7.9-31.54-9.59-48.2l-1.08-10.67-.75-16.86c1.73,3.66,2.03,7.18,2.33,10.71l1,12.07c1.47,17.85,3.96,35.31,9.67,52Z" fill="#a48f6d"/>
  <path d="M487.87,508.48l-.59,11.03-1.53.02-.5-10.23c-3.13,1.84-.48,5.85-3.29,10.45l-.65-10.73-1.69-1.16c-.33-.23.1-1.63.47-1.47l2.23.99c4.29-2.01,7.17-1.25,10.6,1.72,6.11,5.3-.93,6.95.35,14.59l-5.76-1.59c1.93-4.91,2.83-9.22.37-13.61Z" fill="#c5b086"/>
  <path d="M449.8,754.34l-1.47-.62c12.18-21.93,17.67-45.81,25.01-69.69-3.22,25.16-12.18,48.78-23.54,70.31Z" fill="#a39176"/>
  <path d="M465.06,598.58l-1.74-1.4c6.88-21.34,10.84-42.44,16.08-63.92-1.46,22.76-7.69,43.88-14.33,65.32Z" fill="#9b896b"/>
  <path d="M579.8,349.22l.38,2.63c-6.07-3.99-10.53-9.84-13.56-16.49,5.85,4.61,9.81,7.87,15.27,10.83l4.35-10.11-11.47-4.78c5.55-.03,10.37,1.45,14.83,3.89l-6.3,11.56,4.47,3.96-7.97-1.49Z" fill="#baa376"/>
  <path d="M611.64,445.56l1.83-2c.92,8.96,9.26,13.42,13.65,24.27,4.03,9.95-.95,21.71-11.87,23.61,4.44-2.95,8.41-5.05,9.67-10.59.56-2.46,1.41-7.28.81-9.57-2.36-8.95-8.78-14.8-15-20.82l.91-4.9Z" fill="#ad9368"/>
  <path d="M547.9,675.53l2.06-1.38c16.55,15.09,36.05,19.62,52.75,32.05-7.01-1.83-11.99-6.13-18.29-8.79-13.35-5.64-26.42-11.83-36.52-21.88Z" fill="#a58d65"/>
  <path d="M472.31,337.19c-15.69,2.56-30.44-2.05-41.26-14.86-5.66-6.69-9.69-14.38-8.54-23.42,2.6,10.77,6.07,19.79,14.36,26.52,9.52,8.67,21.66,10.99,35.43,11.76Z" fill="#ad9b78"/>
  <path d="M372.67,439.61c-1.93,4.4-15.22,15.55-19.95,39.92l-1.47-.04c1.59-13.96,8.91-25.13,16.47-37.02-5.07,3.15-8.89,6.74-11.73,10.48l-1.76-1.54c5.49-5.7,11.45-10.32,17.94-14.81.47.82.76,2.43.5,3.01Z" fill="#ac976f"/>
  <path d="M432.35,334.79l1.03,3.79c-10.63-1.54-19.58-9.34-22.39-19.95l-1.01,8.69c-.94-3.29-1.35-7.12-1.41-10.59l-.05-3.08,2.72,4.12.48-6.32c.1-1.29.98-3.04,1.64-4.01-2.35,12.27,5.09,25.21,17.32,28.18l-2.93-5.26c1.88.8,4.16,2.89,4.58,4.43Z" fill="#b8a074"/>
  <path d="M396.82,508.69c-10.48,14.91-11.02,41.56.21,54.38l7.52,8.58c-21.24-13.12-22.73-44.78-8.13-64.22l.4,1.26Z" fill="#9b896b"/>
  <path d="M596,329.67c-5.81-9.5-15.24-11.82-26.1-8.98,1.96-3.45,5.89-2.75,9.59-3.12,9.55-.95,21.91,5.26,20.65,12.23-.17.95-3.63.71-4.15-.14Z" fill="#c6ae7c"/>
  <path d="M667.54,530.78l-2.37,15.57c-5.46-7.16-4.58-15.49-2.26-23.49,3.1,1.26,5.09,4.87,4.63,7.91Z" fill="#99825e"/>
  <path d="M403.72,675.69l-.31-1.51c13.07-12.52,22.85-27.23,34.16-42.13-5.55,12.77-14.78,22.49-22.94,33.29l-10.91,10.35Z" fill="#b8a37b"/>
  <path d="M378.62,406.58c-11.79,5.07-21.37,14.24-27.89,25.25l-2.07.66c4.19-10.91,12.3-19.28,22.9-24.99l7.16-3.86-.1,2.94Z" fill="#a48f6d"/>
  <path d="M540.89,309.45l6.75-.28-12.95,3c-8.86,2.05-26.49-2.08-36.3-6.25l19.21,3.55,23.29-.02Z" fill="#b8a37b"/>
  <path d="M665.74,556.46l-.48,1.23-9.08-9.33c.72,5.2,2.89,11.14,6.54,14.51l3.63,3.74-.69.71c-3.03-1.72-7.29-4.79-8.49-8.45l-5.08-15.54c6.14,3.57,9.69,8.04,13.65,13.13Z" fill="#a99169"/>
  <path d="M641.81,400.92l-10.55,22.53c-2.05,4.37.02,9.13.31,13.7-5.7-9.34-.46-19.44,4.33-28.08l4.5-10.47,1.41,2.32Z" fill="#ac976f"/>
  <path d="M411.14,615.12c7.81-2.95,15.04-8.22,20.98-15.18l12.52-14.68c-5.34,10.29-21.24,30.34-33.49,29.87Z" fill="#a39176"/>
  <path d="M514.53,297.52l-6.08.93c-9.68-.3-18.76.97-29.33,3.1,6.4-4.4,20.69-6.44,28.44-5.17l6.96,1.14Z" fill="#ad9b78"/>
  <path d="M654.76,517.74l4.59,11.68c-5.22-2.61-8.65-13.36-5.85-19.15,3.28,2.89,4.67,6.07,5.13,10.18l-3.87-2.71Z" fill="#a48f6d"/>
  <path d="M566.26,658.53l.59-1.51,22.78,17.31c-6.72-2.51-12.13-6.25-17.44-10.75l-5.94-5.04Z" fill="#99825e"/>
  <path d="M403.72,675.69c-3.2,4.54-7.42,8.87-12.18,12.49l-9.89,7.52c1.99-3.35,4.54-4.87,7.09-7.24l10.94-10.16,3.72-4.13.31,1.51Z" fill="#a39176"/>
  <path d="M446.1,423.5l-.51,7.05c-1.79-9.98-1.43-20.93,3.73-29.77-1.96,8.59-2.69,15.4-3.22,22.72Z" fill="#9f8864"/>
  <path d="M703.5,501.67c-1.84,2.24-2.44,6.35-2.94,10.14l5.16-8.36.72.65-5.09,10.4-2.88,1.32c.74-5.15.97-11.03,3.54-15.45l1.49,1.31Z" fill="#a48f6d"/>
  <path d="M386.58,348.39l1.14,1.84c.21.47-.77,1.2-1.21,1.49l-.86-1.13-10.05,2.21c-3.48.76-6.82.88-9.99-.06l2.18-.81,10.97-1.68,7.82-1.85Z" fill="#a39176"/>
  <path d="M444.49,341.4l-4.81,2.27-6.3-5.09-1.03-3.79c4.03,1.05,8.19,5.96,12.14,6.61Z" fill="#b1915e"/>
  <path d="M488.62,533.87l-1.03,20.41-2.17,1.17,2.14-24.19c.19.24,1.09,2.03,1.06,2.6Z" fill="#927953"/>
  <path d="M399.7,511.45c-3.13,7.8-2.5,14.83,1.05,23.88-5.44-5.26-5.09-16.27-2.12-24.84l1.06.96Z" fill="#9b896b"/>
  <path d="M352.72,479.52c-2.37,12.19.75,17.49-.58,25.07-2.04-8.69-1.8-17.12-.89-25.11l1.47.04Z" fill="#927953"/>
  <path d="M373.65,480.87l-4.22,19.41c-.85-7.47,1.15-14.29,2.94-21.22l1.28,1.82Z" fill="#9b896b"/>
  <path d="M403.66,502.53c-1.69,2.29-2.93,6.33-3.97,8.92l-1.06-.96-.36-2.88c-.06-.44-1.63,1.06-1.45,1.08l-.4-1.26,5.98-7.14,1.26,2.23Z" fill="#ad9b78"/>
  <path d="M535.54,340.62c-1.74,6.04-1.07,11.93.66,18.17-4.54-6.47-3.72-13.78-1.98-20.21l1.31,2.04Z" fill="#a48f6d"/>
  <path d="M435.03,436.8l-1.74-.42,5.01-16.85c.98,6.34-1.03,12.02-3.27,17.28Z" fill="#9b896b"/>
  <path d="M467.46,306.35l1.08,1.61-13.11,5.09c3.2-4.46,7.72-5.38,12.03-6.69Z" fill="#ac976f"/>
  <path d="M591.01,380.96l-7.61.47c-.93.06-3.7.09-3.67-.73l.18-5.02,2.73,4.3c2.85-1.29,6.03-1.83,8.37.97Z" fill="#ad9b78"/>
  <path d="M604.25,649.64c-.26-.06-1.14,2.13-1.4,1.77l-1.44-2.03,1.44-3.17.59-13.78c.22-.63,1.03,1.71,1.02,2.26l-.22,14.95Z" fill="#9f8864"/>
  <path d="M610.37,434.65l.52-4.15,1.19.79.22-1c-.02.09-.61-.43-1.05-.76l2.07-5.96c2.18,3.78,1.51,9.63-2.95,11.08Z" fill="#ad9368"/>
  <path d="M429.48,420.68c1.23-3.5,3.19-6.02,6.19-8.17-1.21,3.5-3.19,6.03-6.19,8.17Z" fill="#b8a37b"/>
  <path d="M484.65,307.44l-13.09.25,6.15-1.09c2.01-.16,5.32.26,6.94.84Z" fill="#ac976f"/>
  <path d="M642.41,399.59l-.61,1.33-1.41-2.32c-.07-.22-.05-.64-.05-.97l2.07,1.96Z" fill="#b8a37b"/>
  <path d="M610.89,430.49l.36-.97c.44.32,1.03.85,1.05.76l-.22,1-1.19-.79Z" fill="#b8a37b"/>
  <path d="M522.2,463.7c-8.23,2.1-15.8,9.49-15.26,10.13l1.13,1.34-10.76,12.53c2.77-6.53,5.97-11.73,10.18-17.47,2.08-2.84,7.19-5.51,10.42-6.97l4.55-2.73,1.75.27-2.02,2.9Z" fill="#b8a37b"/>
  <path d="M630.37,617.19c0,.44-.06.93.09,1.16l.98,1.03c-.42,9.97-3.54,20.04-10.14,27.83l3.9,14.5c1.07,7.83,4.15,15.36.97,23.56-1.66-12.68-2.4-23.79-6.11-35.25-3.99,4.38-5.01,8.59-6.35,13.48-.92-7.39,3.14-13.17,7.32-18.56,6.5-8.37,7.74-19.17,7.83-29.19l1.5,1.43Z" fill="#9f8864"/>
  <path d="M430.83,348.54l-1.13,1.3c-3.8-3.29-8.82-6.95-8.93-12.17,3.57,4.24,6.34,8.43,10.06,10.88Z" fill="#a48f6d"/>
  <path d="M365.64,429.46l-11,9.94c-8.21,8.69-12.65,19.24-14.12,30.45h-2.15s-.69-6.16-.69-6.16c-.07-.66,1.18-1.86.91-2.46l-.83-1.84c-.97-2.15-.54-5.52.5-7.89l4.44-9.02.99,1.16c-2.48,5.67-4.39,12.2-3.76,19.08,3.68-11.45,9.54-22.04,19.23-29.56l1.47-1.14c.25-.19-.86-.49-1.11-.62l6.11-1.94Z" fill="#a39176"/>
  <path d="M336.87,582.46l1.52-.17c-.77,7.18-3.9,13.58-8.77,19.06l-4.68,5.25c-8,6.85-10.19,16.36-8.48,27.05-4.94-10.54-.53-22.02,7.85-29.52,6.67-5.97,11.11-13.42,12.56-21.66Z" fill="#ad9b78"/>
  <path d="M397.5,419.13l.19,1.51-18.97,4.34c-.23-.75-2.77-1.56-3.6-1.44.26-.14,1.99-.81,2.58-.91l19.81-3.49Z" fill="#9f8864"/>
  <path d="M339.68,532.03c.07-.52.73-1.74,1.16-1.57,1.42,3.97,3.66,8.78.31,13.89l-.68-11.83-.79-.49Z" fill="#c5b086"/>
  <path d="M444.99,391.85l-1.59-.33c5.22-5.29,8.66-11.62,13.05-18.12-1.8,7.54-7.3,13.32-11.47,18.45Z" fill="#a39176"/>
  <path d="M359.32,608.37l-.54-1.11c-.1-.2-.21-.59-.08-.81l.57-1.25c6.49-14.8,7.01-30.76,1.03-46.39l-6.72-17.55c3.17,3.29,4.36,7.1,6.19,11.14,8.47,18.81,10.6,39.33-.45,55.96Z" fill="#9f8864"/>
  <path d="M357.66,592.46c-.03,8.94-5.12,17.87-12.13,23.76l-13.58,11.41c-3.84,3.22-7.4,6.63-9.09,10.97l-.91,1.07-1.21-1.96c4.31-7.52,11.04-11.49,17.06-17.34l10.08-9.78c5.23-5.07,7.17-12.3,8.89-19.21l.91-2.03v3.09Z" fill="#9b896b"/>
  <path d="M341.06,631.59c-6.7,8.07-11.61,16.95-15.15,26.74-.1-1.89.35-4.91,1.1-6.48l7.66-16c1.01-2.11,3.69-4.11,6.39-4.27Z" fill="#ad9b78"/>
  <path d="M402.84,325.67l-2.5,3.85c-.71,1.58-1.76,3.27-2.59,4.31l-7.18,8.98-1.02-1.5c2.04-1.93,5.31-6.02,6.54-8.8l5.36-12.12.55-8.81c2,4.45,2.11,9.73.84,14.09Z" fill="#ad9b78"/>
  <path d="M396.65,345.69l1.04-4.04c1.44,2.13,5.17-5.29,7.74-10.96.68,6.71-4.69,11.01-8.78,15Z" fill="#a39176"/>
  <path d="M396.74,393.86l-.18-2.32c7.5-4.31,13.61-11.29,15.81-20.21l3.91-15.82c1.88,15.99-7.15,29.84-19.55,38.35Z" fill="#ad9b78"/>
  <path d="M387.54,369.4l.22-1.91c7.56-2.57,13.26-9.01,15.94-16.65l3.64-10.33c.18,8.62-3.19,16.76-9.13,22.81-2.72,2.77-7.42,4.65-10.67,6.08Z" fill="#ad9b78"/>
  <path d="M409.99,327.32l2.93,10.25c1.74,6.08,6.06,11.74,10.97,15.79,7.96,6.57,17.57,5.77,28.01,4.44-14.8,7.42-31.6,1.17-39.03-13.46-4.53-8.91-6.66-18.35-4.29-27.6.05,3.47.47,7.3,1.41,10.59Z" fill="#a58d65"/>
  <path d="M368.73,420.48c4.01-3.92,9.53-6.71,15.33-8.47l26.82-8.14c7.82-2.37,15.27-6.35,21.06-11.9l13.9-13.3c-5.97,10.06-15.25,17.92-25.67,23.41-8.12,4.28-17.16,6.35-25.96,9.07-8.93,1.74-16.27,5.39-25.48,9.31Z" fill="#ad9b78"/>
  <path d="M395.8,330.08c-1.63,4.6-8.78,7.55-13.99,6.27-3.38-.83-6.66-5.2-5.85-8.81l3.89,5.85c5.3,3.39,10.62,0,15.94-3.31Z" fill="#9b896b"/>
  <rect x="357.91" y="421.88" width="8.48" height="1.41" transform="translate(-192.74 379.85) rotate(-45)" fill="#a39176"/>
  <rect x="365.11" y="415.39" width="7.06" height="1.41" transform="translate(-186.25 382.54) rotate(-45)" fill="#a39176"/>
  <path d="M357.66,592.46v-3.09c.03-4.59.55-10.36-.83-15.12-2.71-9.38-7.95-18-7.99-27.76l-.06-16.05,1.18.66,1.07,18.09c.67,11.26,12.94,25.07,6.62,43.26Z" fill="#a39176"/>
  <path d="M373.84,574.05c-2.92-11.22-5.4-21.39-10.17-31.65-2.63-4.66-5.89-8.53-6.66-14.61l8.02,13.46c4.27,10.25,10.01,20.74,8.81,32.8Z" fill="#a48f6d"/>
  <path d="M295.76,608.69l-1.44-.75c1.95-7.07,4.58-13.82,9.82-19.14l11.45-11.61,1.29,1.28-11.68,12.4c-4.59,4.87-7.47,11.66-9.44,17.82Z" fill="#ad9b78"/>
  <path d="M333.16,489.44c-4.43-9.69-3.1-21.51,2.38-31.09-1.47,7.07-3.38,13.25-2.99,20.1l.61,10.98Z" fill="#a39176"/>
  <path d="M337.69,463.68l.08-4.3.83,1.84c.27.61-.98,1.81-.91,2.46Z" fill="#9f855d"/>
  <rect x="680.13" y="485.58" width="1.41" height="9.89" transform="translate(-147.44 625.09) rotate(-45)" fill="#af9a72"/>
  <path d="M337.91,661.75l-1.53-1.88c2.12-8.89,6.4-17.73,13.17-23.5-3.86,9.44-11.58,16.06-11.64,25.38Z" fill="#b8a37b"/>
</svg>
