<svg xmlns="http://www.w3.org/2000/svg" viewBox="0 0 1024 1024">
  <path d="M494.43,434.75l.27,12.54c5.86,4.61,11.96,7.68,18.92,10.39,4.06-1.69,7.81-1.19,11.48,1.61l10.42.12c4.68.06,9.26.98,13.37,2.78,21.86-.33,41.41,12.24,48.58,33.35l5.69,23.54c2.08,8.62,8.15,16.18,13.64,22.9l5.8,7.12-1.4,1.45c-6.85-6.92-12.22-14.83-17.65-24l.71,15.94c.28,6.26-.91,13.67.62,19.75,2.75,10.86,9.91,19.82,15.19,29.43l8.57,15.58c1.63,2.96,1.76,7.04,1.73,9.94l-1.5-1.43c-.1-.11-.14-.31-.21-.49l-1.16-3.02c-2.17-5.68-4.88-11.15-8.16-16.81l-15.68-27.15-.77,14.7.03,21.9.53,27.54-.59,13.78-1.68-9.86-.8-11-.68-9.03.22-48.25c.06-12.51.99-24.75.05-37.15-.93-12.28-2.09-24.24-6.29-35.64-6.06-16.45-20.22-28.16-37.69-29.26l-19.01-1.19-8.83,5.41c-9.57,5.87-17.38,13.73-23.94,22.92l-4.91,6.88-1.16-.81c4.06-7.19,8.2-15.17,14.64-20.22l20.97-16.43-11.57,1.1,2.02-2.9-1.75-.27-4.65-.71c-14.95,4.84-21.64,19.11-27.71,32.84l-.81-3.23c2.92-10.81,11.11-23.58,21.45-29.67-12.23-4.99-24.13-11.47-28.51-24.43l8.86,9.37,1.37-12.22,1.37.33c.46.2.55,1.37.57,1.95Z" fill="#c0a673"/>
  <path d="M516.31,333.42l.96,2.39c-4.52-.02-15.73-8.88-14.86-3.4l.73,4.61.34,2.14c.06.39-.99.72-1.35.56s-1.4-1.19-1.42-1.58l-.31-7.73-8.17,1.5c1.79,3.85,3.59,6.01,4.01,9.94l-7.33-10.92c-.34,6.75,2.32,12.79,6.53,18.12,1.45,1.84,7.05-.04,8.89-1.48,4.71-3.7,9.02-5.34,14.37-7.97l4.97-2.44-4.23-1.33,6.2,1.76-6.15,4.04c-2.95,1.94-7.49,2.68-10.1,4.88-6.61,5.57-8.84,14.74-6.59,22.81,1.58,5.67.59,12.31-5.25,14.52,1.7-2.84,4.66-6.96,3.85-9.7-2.38-8.04-3.31-15.38,1.19-22.45l-8.61,1.35-13.03,10.99c-7.16,6.04-11.67,13.65-16.72,21.33-6.33,9.62-12.77,19.26-13.5,31.3-.35,5.86-.76,12.91.32,18.61,2.19,11.62,2.66,23.28-4.57,33.32-11.08,15.39-32.58,20.06-42.82,33.94l-1.26-2.23c4.97-5.93,11.37-10.45,18.32-14.65l11.18-6.75c13.59-8.21,21.57-23.56,16.16-39.7-.65,11.1-3.72,21.34-11.78,29-4.96,4.71-10.04,9.46-16.9,11.31,5.31-4.37,11.14-7.54,15.65-12.38,5.9-6.33,9.96-14.19,10.19-22.82l.36-13.75.51-7.05,1.31,2.19c.26-12.65,3.91-23.41,10.35-33.8l3.61-5.82-.85-1.41,3.79-6.52.69,1.48c.15.32.79-1.13.99-1.44l4.72-7.33c2.89-4.49,7.09-7.38,11.09-10.97l10.47-9.42-6.46-12.34c-4.64,7.57-11.16,5.84-13.44,16.29l-.04-6.22-6.75,3.55c-4.45,2.34-9.14,5.44-14.04,5.27-8.37-.29-15.98-2.1-21.83-7.16l1.13-1.3c10.05,6.63,22.27,8.6,32.89,2.31-9.14.08-17.47-1.89-24.03-7.19l4.81-2.27,18.12,3.01c-6.36.71-12.67-.38-19.4-1.3,13.71,8.64,31.38,5.34,41.44-6.13.49-1.15,1.48-4.22.5-4.44l-3.65-.82c-11.43-2.56-21.74-7.63-30.24-16.6,5.43,2.22,9.38,5.53,14.4,8.54,13.59,8.14,30.89,7.89,45.1,1.2-9.68,1.61-17.89,1.03-26.46-2.99l-18.72-8.76,1.6-.69,23.98,9.66c4.49,1.81,10.45,1.54,15.29,1.74l6.57.28c3.01-.6,5.27-1.34,8.71-1l-15.68,6.03,10.25,4.29Z" fill="#b8a37b"/>
  <path d="M375.11,423.53c.83-.12,3.37.69,3.6,1.44l-13.07,4.48-6.11,1.94c-6.73,2.13-12.86,5.43-15.84,12.23l-.99-1.16c-.31-.37-1.03-1.13-1.39-.81l-1.92,1.7c-14.55,12.86-23.42,31.6-15.98,49.39,6.08,14.54,17.2,21.99,16.4,32.55-.06.83.27,2.99.78,3.17l.24,1.98c-.43-.18-1.09,1.05-1.16,1.57-.73,5.22-.7,14.57-.81,20.9l-.21,12.54,5.14,36.9-1.59.02-3.82-20.1-1.52.17c.44-2.51.37-5.19.16-8.1l-1.08-14.93-.53-11c-2.51,4.37-4.86,9.5-8.52,13.15l-10.59,10.55c-6.95,6.93-15.67,12.18-21.5,20.37l-9.36,16.77-1.62,9.15-1.53-.08c-.31-.06-.41-.33-.88-.95.75-13.56,8.31-25.46,18.53-34.73,7.36-6.68,15.12-11.63,22.36-19.96l-20.6,8.7c-12.32,5.2-22.57,13.26-27.9,25.12l-1.26-2.38c11.91-24.96,35.79-24.97,51.2-35.67,14.45-10.04,17.53-37.27,6.46-49.58-16.71-18.58-15.84-45.05,2.07-63.06,4.93-4.96,10.88-9.13,16.38-13.36l2.07-.66,2.69-.9c6.56-2.19,15.81-6.53,21.7-7.4Z" fill="#9f855d"/>
  <path d="M606.38,255.66c6.42,3.3,8.93,11.04,7.71,17.43l-1.37,1.69-2.72-.15,1.56-3.79c-5.96-1.08-9.83,3.22-11.05,8.03-.37.16-1.07.47-1.07.85v1.99s.71.81.71.81c.22.24,1.26-.23,1.6-.41l7.7-4.02c-.37,1.26-2.28,3.1-3.17,3.56l-11.85,6.12c-7.4,14.27-20.17,23.2-35.7,27.18l-11.11,11-8.31,5.75c-2.13,1.47-3.1,6.51-3.79,8.91l-1.31-2.04,1.42-5.22c-3.94,1.33-7.35,2.48-10,4.22l-6.2-1.76h-2.18s-.96-2.4-.96-2.4l2.19.25c1.45.98,4.25.9,6.14.29,3.54-1.15,10.12-2.25,12.58-5.14l7.22-8.47-3.01,6.32c5.04-2.44,9.56-6.07,13.32-11.61-9.66,3.8-19.48,7.35-30.27,6.51-9.37-.73-17.09-6.05-25.64-9.09l-14.19-5.04c-1.62-.58-4.92-1-6.94-.84l-6.15,1.09-3.02.27-1.08-1.61c25.96-7.9,40.45,14.24,63.67,12.02,13.84-1.33,26.23-6.14,36.35-16.28-2.09-.44-4.26.09-6.74.82-8.63,2.53-18.1,2.22-27.1.63l-25.19-5.08,6.08-.93,23.3,3.95c11.89,2.02,29.88-2.67,40.11-9.39,4.74-3.12,9.24-7.61,12.68-12.22l3.38-4.54c3-4.03,5.62-9.02,10.93-10.75-3.32,3.26-5.73,6.97-8.83,10.76l-11.8,14.4c14.38-2.57,10.69-19.97,27.26-22.23-.98-4.15-3.46-8.03-7.14-9.89-2.02-1.02-5.76-.92-9.08-1.5l11.05-.45ZM569.43,304.35l-7.19,7.67c11.73-3.67,20.3-11.42,26.87-20.34l-11.63,5.88-8.05,6.79Z" fill="#c6ae7c"/>
  <path d="M602.58,245.84l3.14,5.78c6.13-.57,10.33,2.48,14.63,6.24,23.85,20.81,16.17,30.94,18.41,40.47,2.92,12.45,5.44,25.7-2.4,35.33-5.02,6.16-8.03,12.71-6.98,21.09l-2.22-2.13c.2-6.93,2.44-13.96,6.83-19.31s5.87-13.92,4.82-20.77l-1.15-7.56c-2.78,7.28-5.69,12.49-9.65,18.19-8.42,12.12-5.61,26.82,2.18,38.52l8.58,12.89-.89.55-1.2-.03-.22-.67c-.14-.44-1.33-1.27-1.62-.9l-1.53,2.04-4.77-10.07c-22.38-22.93-11.92-35.66-8.67-54.25l1-16.65c7.66,22.06-13.74,37.59.58,58.25-2.5-9.44-2.82-17.54.87-26.35,2.6-6.22,3.24-12.95,3.27-19.85.03-7.6-3.28-13.41-7.26-20.82,6.79,5.23,8.71,13.64,9.61,21.98,4.9-14.01-1.56-27.21-15.65-31.37-.07-.39.35-1.47.42-1.66l1.37-1.69c1.23,5.69,5.13,0,12.04,6-1.29-6.51-2.84-13.36-7.77-18.47-2.91-3.01-11.36-6.55-11.26-6.81l-.72,1.84-11.05.45c3.32.58,7.06.48,9.08,1.5-6.86-.87-13.68.83-19.13,6.13l-26.22,25.5c-3.5,3.41-8.08,5.99-12.68,7.5,2.53-2.77,6.62-4.3,9.2-6.88l20.49-20.48c5.55-5.55,10.74-10.95,18.41-13.41l.48-1.87c.11-.41,1.8-.3,2.28-.23l6.45.94c-1.19-3.45-2.29-6.98-4.3-8.95.11-.64.96-1.28,1.34-1.03l1.86,1.01ZM624.85,267.54l.04-1.48-.04,1.48ZM626.19,267.57l-.97.72,3.71,13.27c.77,2.76,4.31,6.83,6.26,9.38.7-8.98-2.7-18.26-9-23.36ZM627.81,318.26c7.95-9.75,10.65-21.37,2.65-29.85,1.25,7.48,2.5,13.67-.03,20.48-1.14,3.06-2.06,6.04-2.63,9.37Z" fill="#baa376"/>
  <path d="M614.52,298.6l-.15,9-4.25,23.09c-5.69,30.91,14.04,38.72,18.58,54.81l-.66,3.46-1.78-2.79c-3.97-13.45-18.63-20.89-19.62-42.78l1.57-11.96-8.4,10.85c-2.95,3.81-3.09,11.16-2.09,15.88l4.4,20.67c1.02,4.78-6.66,7.36-10.57,6.79-2.08-.31-5.24.21-6.17,1.3-3.32,3.86-.67,9.73-3.75,11.1l-4.62,2.05-2.04,6.66c-.47,1.54-4.26,1.82-6.28,2.36-6.07,1.63-2.15,15.87-12.48,18.97-7.09,2.13-13.81-.63-19.44-4.69l-20.3-14.63c-10.38-7.48-19.08,12.33-22.04,26.02-.01-.58-.11-1.75-.57-1.95l-1.37-.33c1.17-10.4,8.62-28.57,20.2-28.05.09-.16.1-2.24.67-2,6.79,2.91,30.05,28.76,43.16,22.38,7.26-3.53,2.68-12.9,10.66-18.41l-.55-5.87,1.78,3.73c.41.86,3.07,1.54,4.35,1.33,1.29-.93.86-5.61-.55-6.6-3.02-1.95-8.3-.28-10.16-5.45l12.86,4c1.83.57,5.45-1.88,6.61-3.58l-9.25-.75,8.76-2.43c2.74-14.05,13.53-3.73,18.06-11.83l-4.07-19.01c-4.36-20.37,10.57-25.56,12.52-36.09l3.9-21.07.97-5.06.18,6.07,1.92-5.16Z" fill="#c2aa79"/>
  <path d="M699.29,618.9l-1.44-1.84c14.16-7.72,28.43-15.3,41.59-25.44l8.53-8.64c6.96-7.05-1.3-16.76,16.8-31.92l14.71-12.33c-2.27,12.13-7.56,21.67-14.08,30.93-4.16,5.91-13.5,10.81-17.89,17.88l17.95-9.05c3.15-1.59,6.98-6.83,10.8-6.79l25.08.27-19.03,12.41c-5.94,3.87-13.11-1.39-19.05-.43-8.02,1.29-16.66,5.51-23.22,10.09l-17.25,12.02,12.59-.79c5.74-.36,11.72,1.19,16.41,4.74l14.27,10.83-16.63,1.47c-7.38.65-13.4-.32-19.27-5.03-2.79-2.24-7.82-6.01-11.75-5.6-7.03.74-13.35,3.95-19.1,7.22ZM768.25,557.28c-1.52,8.46-11.96,12.17-9.25,16.9,8.5-8.17,13.22-17.93,16.57-29.18-3.99,1.9-6.14,5.31-9.18,7.59-6.92,5.17-12.58,11.64-12.08,21.03,2.39-3.74,4.82-6.32,8.12-9.01l5.81-7.33ZM767.39,581.35c6.71,3.8,12.8,2.4,18.33-1.47l8.56-5.99c-9.16-2.57-19.17-1.87-25.93,5.39,3.9-1.22,7.47-2.52,12.05-2.63l-13.01,4.71ZM756.76,573.45l-.02.65v.67l.02.65.02-.65v-.67l-.02-.65ZM727.19,612.18c4.32,4.71,11.82,8.89,18.96,8.11l12.85-1.41-7.16-6.11c-6.37-5.44-15.92-6.52-24.43-4.48,7.16,2.4,13.39,3.48,18.71,6.92l-18.19-4.35-.75,1.33ZM726.8,610.91l-1.23-.08,1.23.08Z" fill="#a99169"/>
  <path d="M379.28,243.73c1.8-.03,5.23,1.27,6.37,2.08-3.44-.26-6.87-.05-10.96.7l12.69,3.51c2.35.65,5.11.75,7.02-.06l3.64-.94c3.11,1.2,7.25,3.42,9.65,5.44l1.87,2.31,1.07,2.12-1.02.94-10.21-7.45c-1-.63-4.01-1.07-5.17-.82s-2.28,1.77-3.1,2.85c-.58-.58-1.33-1.43-1.74-1.27l-2.09.8-4.9,3.85c-1.14.1-2.94,1.79-4.2,3.51,5.78.75,11.09-.49,14.61,4.62-5.62-1.29-11.37-4-16.09-1.12s-5.77,9.39-4.43,14.29l6.99,1.34-.65,1.5c-12.87-.69-24.79,10.85-22.46,23.91.84,4.72,3.31,8.75,7.81,10.24-2.18-7.12-3.22-12.81-.26-18.35l.5,2.88c.12.69,1.55,1.15,2.51,1.26-3.15,9.01.28,18.22,10.75,21.75-4.09,2.49-6.92-1.06-9.99-2.76l-9.64-5.32c-7.85-9.22-5.56-21.34,3.48-30.55-8.26.87-14.11,7.94-16.48,13.69-3.85,9.32-2.17,16.57,2.08,25.2-8.39-6.57-6.76-16.58-4.31-27.12-3.53,2.22-4.37,8.51-7.11,13l-.91-3.14c2.74-12.39,13.05-20.69,25.48-24.36-6.25-3.71-9.9-9.68-8.18-16.77,2.93-12.04,15.85-21.57,27.41-21.77ZM367.6,280.47c-4.75-7.79-.04-11.97,4.13-16.63,4.44-4.97,8.3-9.26,14.13-12.72-7.48-2.23-15.16-2.41-22.03,1.96-4.68,2.98-10.17,9.29-9.98,16.72.13,5.32,6.57,13.25,13.75,10.67ZM371.1,279.95l-.83-11.56c-1.99,2.43-2.71,4.74-2.94,8.68-.06,1.06,2.05,2.75,3.77,2.89Z" fill="#9f855d"/>
  <path d="M695.38,516.49c-.34-.41-.95,1.63-1.03,2.13-.07,5.26.18,12-.77,16.8l-.4-19.02-1.65-8.15c-1.83-9.02-15.06-5.15-19.81-22.14l-3.98-14.24c5.85,3.34,10.7,6.38,14.78,10.47,5.27,5.28,6.76,12.69,9.75,19.37-.39-13.38-3.58-26.67-10.02-37.93-5.3-2.27-11.61-3.35-13.92-9.28l7.47.88.67-.5-3.41-4.04c-2.53-2.99-6.03-5.4-5.07-10.14,5.21,3.36,8.31,7.47,11.21,11.94l.31-12.53c.02-.78,1.78-3.27,2.22-2.69,2.08,2.72,3.45,9.39,3.14,12.56-.27,2.77-2.18,7.07-1.39,9.15l8.53,22.6c-.21-15.92,3.26-23.58,15.02-34.04l-.94,20.04c-.51,10.9-12.29,13.53-11.97,21.6l.48,12.18.76,14.97ZM696.06,480.5c8.83-6.91,9.09-15.59,7.94-26.01-6.01,5.15-9.93,12.73-8.44,21.23l4.3-8.14.65.53-4.45,12.39ZM676.8,456.06l1.26.06c-2.26-.1-2.28-.1-1.26-.06ZM686,498.89c-.02-1.31.56-3.57,1.19-5.15-2.37-6.91-7.74-12.24-14.77-16.11l2.67,11.29c1.16,4.92,6.59,8.8,10.48,10.77l.43-.8ZM686.81,500l1.24.07c-2.28-.12-2.3-.12-1.24-.07Z" fill="#af9a72"/>
  <path d="M490.12,492.65l-.34,3.36c-.09.85,2.31,1.92,3.22,2.12l5.14,1.13,1.16.81.11,1.92c.02.34-1.14.76-1.42.57l-1.39-.95c-6.61-4.54-13.71-3.71-18.96,2.11-3.78,4.2-5.24,9.56-3.31,15.29,1.45,4.29,5.79,8.2,11.78,9.08,9.81,1.45,17.08-7.57,16.67-17.75,2.46,7.21-1,14.91-8.32,18.3,3.62,35.34,17.31,67.69,39.88,95.07l-2.1-15.31-1.03-10.89-.91-10.13-3.08-22.67c6.27,14.48,6.08,29.35,7.68,44.27l1.92,17.88c6.24,7.79,12.63,14.55,20.03,21.2l9.97,8.97-.59,1.51-.77-.23-1.1-.88c-37.51-30.06-68.83-77.86-71.42-127.83-1.79.57-3.53,2.23-4.35,4.27.03-.57-.87-2.37-1.06-2.6-4.49-1.11-7.65-2.2-12.57-5.07l-5.54,9.22-2.31-.06,6.81-11.49c-4.12-6.22-4.16-12.11-.95-18.16,2.66-5.01,7.54-8.38,14.41-9.29l1.89-7,.81,3.23Z" fill="#ac976f"/>
  <path d="M786.03,199.57c-.99.79-1.8.17-3.27-1.11.27-.6-.43.96-.64,1.54-25.23-23.45-53.26-43.35-83.73-60.16-37.65-20.77-76.64-31.98-118.98-42.28,63.69,5.13,149.58,49.12,195.2,91.88l11.4,10.13Z" fill="#a98e63"/>
  <path d="M123.23,631.9c17.59,57.45,46.66,110.07,87.09,154.8l27.95,28.31-1.76,2.11-28.2-28.41c-40.74-45.17-70.38-98.41-87.96-156.34l2.88-.47Z" fill="#ad9368"/>
  <path d="M345.78,156.46c-30.83,16.11-58.23,34.77-83.3,58.01-.56.52-1.54,1.2-1.99,1.45s-1.85-1.2-1.54-1.61l1.5-1.99c51.79-47.44,115.68-79.87,184.75-92.38.46.42,1.56,1.29,1.31,1.5l-1.92,1.63c-34.4,6.46-66.96,17.45-98.8,33.39Z" fill="#a58a61"/>
  <path d="M762.36,214.26l-18.72-15.88c-19.16-16.25-39.77-29.04-62.14-40.77-32.22-16.75-66.17-28.05-101.88-34.74l-1.83-.99c-.44-.24.3-1.14,1.01-1.98,70.85,12.42,135.02,45.31,187.96,94.66-1.6,1.75-2.85,1.01-4.4-.3Z" fill="#a98e63"/>
  <path d="M154.78,375.2l-1.63-1.22c-.25-.2-.38-1.2-.46-1.83,16.64-45.81,40.69-87.91,72.69-124.65l16.54-17.57c-1.75-3.28-2.52-6.65-1.36-9.76.88-2.35,4.19-4.6,6.91-4.4,5.84.44,8.86,4.76,8.2,9.45-.7,4.99-5.5,7.66-11.25,6.26-35.63,35.52-64.11,77.49-82.19,124.37l-7.46,19.34ZM247.04,218.12c-4.11,1.3-5.14,4.66-4.09,7.89.67,2.06,4.06,4.05,6.57,3.29,2.93-.89,4.6-3.66,4.13-6.75-.38-2.5-3.71-5.35-6.61-4.43Z" fill="#ad9368"/>
  <path d="M711.01,522.34l1.67,1.43c-1.44,2.25-2.75,5.01-4.06,8.37l14.49-9.7,1.04,1.11-.05,1.37c-15.46,7.51-25.86,20.09-32.75,36.55l-18.43,44.07,5.62-5.41,1.02.98-7.08,9.3c.54-1-.19-3.42-.47-4.72l1.88-7.32-2.23,2.16-.58-3.93.32-4.18,1.85,1,.59,3.06,15.71-40.69,4.03-20.38c.95-4.8.7-11.54.77-16.8.08-.49.69-2.54,1.03-2.13l.73,7.08c1.4-3.72,2.02-5.46,2.36-7.76l2.88-1.32.35,1.77c7.55-6.31,10.93-14.91,10.36-25.05l-8.57,10.46-1.49-1.31c3.49-6,7.64-10.95,12.98-17.05l-.28,8.32c-.32,9.62-3.04,19.14-10.69,25.57-5.58,4.69-7.16,11.15-8.1,18.14l-1.98,14.78,17.06-27.79ZM707.81,531.49l-.02.65v.67l.02.65.02-.65v-.67l-.02-.65Z" fill="#b8a074"/>
  <path d="M236.51,817.12l1.76-2.11c30.07,27.87,64.09,50.97,101.46,68.95,22.48,10.82,44.93,18.46,68.68,25.4,9.06,2.65,18.61,2.81,27.01,8.51-73.31-13.52-144.76-50.53-198.91-100.75Z" fill="#99825e"/>
  <path d="M530.53,155.68l-2.14-.74c4.4-2.51,2.71-6.05,2.55-10.57l-.49-14.49,2.69-6.21,1.09,15.15c.23,3.44.63,6.44,1.78,9.66,16.21-12.49,19.18-42.84,6.86-44.59-2.76-.39-6.1,2.83-7.76,5.73.17-1.23-2.4-4.06-2.92-3.68l-1.62,5.17c.15-8.46-.08-16.76-1.74-25.41-.76-3.95-5.4-7.6-8.03-6.72l-1.41.84-.83-.39-2.18-1.57c3.55-2.74,8.52-2.7,12.48,1.08,3.57,3.41,4.45,9.64,4.9,14.78l1.01,11.33c2.48-3.01,5.98-4.95,10.08-4.14,11.98,2.37,12.12,31.14-1.88,45.4l-6.33,6.45c-.44,4.94,4.36,11.87,7.33,11.31,1.53-.29,3.09-1.43,5.23-3.07l1.34,2.34c.38.66-1.18,2.31-1.86,2.76-2.76,1.83-6.48,2.21-9.5-.36-4.9-4.18-4.38-10.57-8.66-10.07Z" fill="#b1915e"/>
  <path d="M672.48,610.41l-2.51,4.61-14.57,36.22,11.79-11.97,8.56-7.51c3.45-3.03,7.87-6.03,9.3-10.17l1.39,1.19c.25.23.52.1.96,0l5.99-3.28,4.46-2.43,1.44,1.84c-18.96,10.78-36.44,24.87-48.38,43.84-5.47,8.69-9.08,18.02-12.47,27.05l-2.37-.71,5.08-13.95c3.05-12.23,2.46-24.68,1.7-36.88,1.63.58,2.83,1.57,3.76,3.25l-.59,12.72-.25,11.25,15.55-36.17c4.63-10.76,8.96-22.19,9.76-32.71l.58,3.93,2.23-2.16-1.88,7.32c.28,1.3,1.01,3.72.47,4.72Z" fill="#af9364"/>
  <path d="M743.37,484.16l2.46.37c.48.02-.04,1.43-.43,1.7l-1.46,1.02-2.9,2.17-7.43,6.41c-6.3,5.44-10.69,11.86-15.14,18.85l-5.79,9.09-1.67-1.43c8.56-13.95,16.54-27.94,22.31-43.78,2.27-6.22,4.5-12.77,2.2-19.45l-4.88-8.13.34-21.95c5.97,5.38,8.85,12.29,8.74,19.97l-.17,11.74,3.35-10.69,2.32-9.06,1.97,3.64,4.81,1.81c4.02-3.16,5.43-9.27,5.97-14.08l-4.94,2.37c2.18-4.25,4.37-6.58,8.91-8.73l-3.72,14.76c-2.13,8.44-13.31,11.05-14.99,15.86l-10.05,28.87-4.64,11.52c5.67-4.56,11.23-8.4,14.84-12.84ZM734.23,444.99h1.13s2.68,6.78,2.68,6.78c.3-5.94-1.19-11.06-4.51-15.76-2.48,6.83-2.28,14,2.64,18.74l-1.95-9.76ZM748.93,448.04l-.65.02.65.02h.67l.65-.02-.65-.02h-.67Z" fill="#b29c73"/>
  <path d="M786.03,199.57c41.55,38.59,74.99,85.87,98.89,138.2l3.66,9.6-2.62.37c-23.17-54.35-57.04-103.54-99.99-144.5l-3.86-3.24c.21-.58.91-2.14.64-1.54,1.47,1.28,2.28,1.9,3.27,1.11Z" fill="#af9364"/>
  <path d="M561.14,815.11l.54,3.28-4.84,4.18-8.97,7.44c-1.38.4-3.06,2.55-3.63,4.09l-12.08,6.67c-6.95,3.84-13.74,7.02-21.83,8.3l20.35-10.74c8.05-4.25,15.22-9.97,21.84-15.9,7.54-9.31,13.26-19.15,14.29-31.18-4.53-9.6-4.28-19.72-.78-29.29,3.41-9.8.79-17.59-3.76-27.35,8.15,8.29,13.05,18.79,15.22,29.46,2.22,10.9-1.54,19.64-6.19,28.93l-9.37,18.7c-.61,1.21-1.1,2.88-.77,3.4ZM571.67,772.59c.64,6.02-.46,10.7-.77,15.92,6.94-11.62,5.85-25.57-.14-36.2l-4.94,20.42c-1.11,4.59.3,9.51,2.32,14.62l3.53-14.75Z" fill="#a58d65"/>
  <path d="M555.52,829.24l-.24-1.39c10.7-4.76,21.82-9.95,34.19-10.42l13.98-.54c8.48-.33,15.81,5.13,22.61,9.59,8.6,9.04,21.39,11.85,32.54,7.15,15.48-6.52,22.76-20.31,21.4-37.07,4.95,15.05-3.94,29.64-16.91,37.61-17.27,8-37.26,8.45-54.65-.07l-8.55-5.41c-14.24-9.02-29.3-5.94-44.37.56ZM592.58,822.35l17.01,9.67c9.01,5.12,20.45,5.87,30.89,6.18-5.32-2.42-10.06-4.84-14.76-8.26-9.44-8.68-21.28-11.95-33.91-10.67l-3.57.68,4.34,2.41Z" fill="#a58d65"/>
  <path d="M899.06,647.56c-18.37,52.82-45.63,101.8-83.92,142.45l-11.71,12.43-1.7-1.33c-.33-.17-.81,1.33-.51,1.55l1.02.96-10.06,10.02-.95-2.94,18.56-19.01c38.57-41.78,67.8-90.41,86.35-144.35l2.91.21ZM799.72,803.22l-.5.5.5.5.5-.5-.5-.5Z" fill="#baa376"/>
  <path d="M638.44,689.79l-4.53,12.05-6.96,14.1-3.86,6.91c-.8,1.44-1.38,3.94-.66,5.71-2.01,2.33-3.9,6.02-5.57,9.15l-20.41,38.14,16.57-10.74c.61.61,2.05,1.27,2.59,1.11-8.48,5.53-18.15,10.14-24.91,18.34l-16.6,20.14-.7,1.43-2.26,1.94-3.49,5.43-5.96,4.88-.54-3.28,3.61-3.66c9.21-9,16.34-19.79,23.47-30.51.13-3.36,1.49-5.98,4.89-6.16l10.71-18.18,11.68-24.23,2.73-4.15,7.64-16.33,10.2-22.8,2.37.71ZM595.92,775.25l-.02.65v.67l.02.65.02-.65v-.67l-.02-.65Z" fill="#a0865f"/>
  <path d="M150.75,634.35c17.66,53.21,46.16,101.91,84.31,142.91l-1.26,2.99c-38.45-41.16-67.75-90.19-85.37-143.76l.42-1.53c.04-.47,1.13-.57,1.91-.61Z" fill="#b49b6b"/>
  <path d="M515.48,905.18l-1.25,9.97-2.43,5.16-2.31-14.75-11.34,7.47,8.53-10.79-17.52-2.65,16.92-2.99-7.94-11.61,11.13,8.87,3.14-18.83,2.01,12.19,1.19,6.13,12.36-9.36-9.43,12.68,12.01,1.49c1.9.23,3.09.42,5.18,1.41l-7.21,1.36-9.94,1.21,8.18,11.49-11.28-8.45Z" fill="#b7965f"/>
  <path d="M464.31,378.14l-3.79,6.52c-3.55,6.11-11.26,14.65-17.65,19.31-22.77,16.58-48.41,17.99-70.21,35.65.26-.58-.03-2.19-.5-3.01,7.21-5,15.43-9.68,23.82-13.68.72-.34,1.69-1.61,1.7-2.28l-.19-1.51c17.54-4.35,33.38-14.91,45.91-27.61l1.59.33-4.58,5.63-20.41,15.31c21.94-7.9,37.6-25.26,47.61-45.2-.03-1.2.68-1.91,2.77-1.94-1.53,4.41-3.8,8.57-6.07,12.48Z" fill="#c0a673"/>
  <path d="M508.47,86.83l2.14,1.89-4.18.11-2.97-6.05c-.62-1.26-2.73-3.05-3.95-3.54-6.08-2.42-11.81,8.41-12.34,15.78-1.2,16.41-.59,33.35-.43,49.89l2.84.45c.53.08,1,1.84.97,2.15-4.77,1-8.22,1.96-12.68-.58l4.64-1.85.03-54.21c0-5.59-3.35-13.53-8.25-12.87-2.93.4-4.59,2.57-5.1,5.8l-3.22-.74c-1.61-.37,2-7.84,8.14-8.31,2.52-.19,6.83,1.85,8.13,4.32l3.63,6.88c1.72-2.75,3.81-6.06,6.45-8.18,3.08-2.48,7.67-2.32,11.05-.34,2.72,1.6,4.52,5.91,5.11,9.38Z" fill="#b7965f"/>
  <path d="M359.32,608.37l.07.85-.58,1.27-2.59,4.63-.63,1.12-1.27,1.02c-1,1.08-1.8,3.27-1.67,5.15-3.79,2.91-8.64,5.62-11.59,9.18-2.7.15-5.38,2.16-6.39,4.27-.59.25-1.18,1.44-1.64,1.28l-2.98-1.08c-16.46,11.93-24.57,36.56-8.65,51.74-5.43-14.95-3.09-30.21,5.01-43.77,1.4-2.34,1.6-5.77,5.62-4.43-8.76,11.45-13.18,25.71-10.66,39.85,2.06,11.56,11.82,19.81,19.5,15.84l.72,2.36-10.69,4.02-2.3-1.34,2.37-1.92-13.92-11.72c-2.34-1.97-4.87-7.7-5.61-10.84-3.23-13.73,2.18-26.25,10.5-36.17l.91-1.07,25.1-17.06c3.12-2.12,5.84-7.7,7.9-10.67l2.93-3.62.54,1.11Z" fill="#9f855d"/>
  <path d="M352.65,622.42c-.13-1.88.66-4.07,1.67-5.15.47.4.91,1.32.95,1.08.07-.45.36-2.32.32-2.1l.63-1.12c1.59.2,3.65-.6,5.25-1.76,13.81-9.93,20.96-24.82,19.09-42.15-1.88-17.46-11.29-32.73-23.3-44.84l-.51.68c.07-.1-.87,1.17-1.07,1.43l-3.51-7.77,4.01.76c1.76.47,4.18,3.01,5.54,4.89l10.97,15.08c6.63,9.11,9.04,19.71,11.33,31.19,1.85-6.45,2.43-13.32.6-20.19l-4.65-17.42c-.82-3.07-1.47-6.84-1.16-9.42l1.68-8.16c-1.3,20.26,10.94,33.21,5.88,53.76l-4.43,17.97c-.88,3.57-2.78,9.46-5.21,12.17l-7.52,8.38-16.55,12.68ZM356.12,526.28l.06-1.49-.06,1.49Z" fill="#a99169"/>
  <path d="M282.77,167.51l-1.88-2.16c44.49-31.26,95.94-56.69,150.66-64.71-54.4,14.66-104.38,33.25-148.78,66.86Z" fill="#a58a61"/>
  <path d="M745.36,851.77c-46.52,32.5-96.86,54.13-152.66,65.82-.67.14-2.38-.14-2.98-.33-.45-.14.52-1.31,1.11-1.85,55.6-11.32,107.42-33.89,153.5-66.21l1.03,2.58Z" fill="#9f8864"/>
  <path d="M402.61,327.7l-.71,3.2-4.2,10.75-1.04,4.04c-7.87,7.66-15.78,13.55-27.28,17.63l17.44-.19c-8.63,4.1-17.14,1.42-25.19,3.31-1.26.3-2.65,2.69-3.18,4.12-7.22,2.91-11.93,9.76-12.98,17.94-2.28,9.21,3.22,17.9,12.25,19.67-5.96,1.01-12.41-3.37-14.14-8.95l-2.21-7.12c-1.61-8.75,4.87-15.4,10.2-21.35-11.98,1.4-16.83,10.73-22.23,20.66,1.03-11.81,10.63-20.03,21.26-23.85l17.68-6.35c6.62-2.37,12.86-5.87,18.23-9.5.44-.29,1.41-1.03,1.21-1.49l-1.14-1.84c6.18-1.46,9.78-8.95,11.17-14.55.83-1.04,1.89-2.72,2.59-4.31l2.5-3.85-.23,2.02Z" fill="#99825e"/>
  <path d="M868.47,656.87l-4.62,10.91c-15.83,37.4-37.43,72.06-64.17,102.76l-10.56,11.1-.99-2.77c33.95-35.95,59.83-77.55,77.88-123.69l2.46,1.69Z" fill="#c6ae7c"/>
  <path d="M693.18,248.35c.53.26.82,1.39.74,1.78l-.39,1.81c-7.91,4.52-14.28,13.28-17.09,21.53l-1.02,2.24v1.1c-3.08,4.15-2.66,11.66-.07,16.73v1.21s-.07,3.44-.07,3.44c-.02.78,1.09,1.49,2.09,1.42.08.25.05.87.05,1.11l.95.97-.04,1.04,1.04.96-.04,1.04.97,1.01,6.03,8.09-4.31-2.8c-1.29,1.92-2.02,3.91-1.9,6.03-16.18-15.68-16.77-40.91-1.82-58.42,4.15-4.86,9.25-7.68,14.88-10.28Z" fill="#d2ac6a"/>
  <polygon points="630.81 559.01 621.18 550.56 622.58 549.1 630.81 559.01" fill="#b29c73"/>
  <path d="M646.61,641.51c-.94-1.68-2.13-2.67-3.76-3.25-3-1.07-10.61-19.5-7.96-31.49,3.08-13.93,8-24.8,3.18-38.94l-7.25-8.81,12.57,12.31c3.18,3.11,6.6,5.53,8.74,9.38l-9.23-7.48,6.11,18.6c6.56,19.98,6.27,30.24-2.39,49.69ZM645.7,614.87l.03,22.96c4.24-9.64,7.7-24.18,4.55-33.4l-7.4-21.68-2.86,13.4c-4.35,13.48-3.95,27.33,3.11,38.91,1.67-9.09,1.3-16.24.14-24.65,1.24.29,2.05.7,2.12,1.34l.31,3.12Z" fill="#b29c73"/>
  <path d="M459.68,275.84l-1.1,1.63,4.05.24-10.26,2.43c7.92,3.24,13.31,7.95,16.51,15.55l-8.41-.66c-12.64-.99-10.66-11.82-14.67-12.75l-11.16-2.59,3.76,7.22c2.6,1.19,5.71,2.94,6.17,5.24.58,2.9-.42,7.31-2.73,7.43.6-4.37.98-7.96-.49-10.01l-3.19,2.06c-2.49,1.61-.72-10.48-11.71-14.92-.06-.53-.32-1.6-.65-2.09l-1.93-2.9,4.17-7.06-1.33,7.51c2.79-3.28,4.33-5.75,6.06-9.07l1.77.71c-.3,4.28-3.69,7.2-7.72,11.37l14.84,3.8c1.75.45,5.35-2.76,5.55-4.49.89-7.83,5.69-13.87,13.32-16.11l-1.27,5.98c-1.2,5.67-3.7,9.02-7.88,13.6l8.28-2.12ZM453.15,268.96l1.25,3.08c1.54-3.31,2.13-5.78,1.92-8.74-4.8,2.64-6.27,5.97-6.51,11.2l3.33-5.54ZM459.23,286.92c-1.53.15-3.24.35-3.82-.03l-4.9-3.18c1.66,7.68,5.98,9.87,14.16,8.81l-5.45-5.6ZM455.22,284.2l-.65.02.65.02h.67l.65-.02-.65-.02h-.67Z" fill="#baa376"/>
  <path d="M636.47,374.43l-1.23,1.69c-.23.47.6,1.24,1.09,1.45.95,8.44-.67,16.44-4.72,24.14l-6.94,13.17-9.22,15.16c-2.18,3.58-2.4,9.49-1.99,13.52l-1.83,2c-1.51-3.04-1.73-7.29-1.27-10.92,4.46-1.45,5.14-7.3,2.95-11.08l3.1-8.09c-5.88,2.45-9.66,8.52-11.14,13.88-1.92,6.99,1.22,12.93,4.06,19.33-5.89-5.41-8.24-14.82-5.18-22.39,2.45-6.06,7.32-11.44,12.38-13.98l.71-.42c6.94-7.95,12.24-14.74,9-25.74l1.78,2.79.66-3.46c1.13,4.01,1.33,7.93,1.35,12.37,3.91-7.19,3.65-14.89,3.27-22.28l1.53-2.04c.28-.37,1.47.46,1.62.9ZM617.88,414.29l.06-1.5-.06,1.5Z" fill="#b8a37b"/>
  <path d="M643.26,388.66l.09,5.89c0,.37-.65,1.05-1.22,1.12l-1.55-9.13-2.24-7.71c-.14-.47-1.56-1.06-2.02-1.25l.36-2.47,1.2.03.89-.55c2.62,3.94,4.41,9.18,4.48,14.07Z" fill="#b8a37b"/>
  <path d="M220.58,222.07c-34.34,36.88-61.91,78.89-81.61,124.96l-2.12-1.92c17.45-40.79,40.71-77.93,69.57-111.6l11.44-12.29c.37.85.98,1.24,1.37,1.15l1.34-.3Z" fill="#b49b6b"/>
  <path d="M300.48,836.63l.27-2.93c40.4,27.38,85.32,47,133.76,57.43,1,.22,2.09,2.1,1.8,3.15-48.8-10.19-95.37-29.46-135.84-57.64Z" fill="#a0865f"/>
  <path d="M647.4,710.42c-5.83.59-9.59,4.44-16.06,7.05l12.56-13.62,9.52-9.49c5.68-5.67,13.63-7.37,21.93-7.97l28.5-2.06c-19.98,11.34-22.2,25.59-47.61,25.2l-8.84.89ZM645.22,708.12l10.07-.44c9.03-.39,17.03-1.36,24.16-7.35l14.11-11.86-18.96.17c-10.63.09-21.17,6.03-27.12,14.95,11.82-3.65,20.94-9.52,32-9.85l-24.52,9.18c-3.55,1.33-6.49,3.04-9.75,5.2ZM646.03,704.79l-.65.02.65.02h.67l.65-.02-.65-.02h-.67Z" fill="#a48f6d"/>
  <path d="M106.52,517.29l-2.11,12.53-2.67-15.08-9.29,5.75,6.04-8.75-13.85-2.87,13.35-3.03-5.31-8.46,8.8,4.96,2.92-14.08,2.42,14.16,10.24-6.1-6.92,9.09,12.89,3.69-12.72,2.23,5.92,9.14-6.26-4.01-1.62-1.16c-.49-.35-1.74,1.4-1.84,2Z" fill="#c19d64"/>
  <path d="M925.11,515.64c-.54-.39-2.08-1.31-2.18-.78l-.59,3.02c-.27,1.37-2.14,4.14-3.22,4.42l-2.11-7.2-8.06,4.61c1.05-2.62,2.71-4.94,5.15-8.08l-12.64-2.78,12.2-3.28-6.06-9.18,9.4,6.13,2.61-12.84,1.32.05c-.09,4.46.46,8.52,2.64,12.61l8.95-6.13-6.05,9.44,13.27,3.18-13.65,2.65,6.21,9.44-7.19-5.28Z" fill="#c19d64"/>
  <path d="M679.47,599.52l8.35-11.57c6.59-9.14,12.89-19.38,24.45-22.45l26.53-9.85-13.03,19.32c-12.42,18.42-28.76,12.15-46.3,24.54ZM696.13,586.52c-1.13.71-3.2,3.22-3.81,3.86l13.49-3.74c12.91-3.58,18.59-12.57,25.71-24.71l-20.37,6.6c-7.51,2.43-14.66,8.69-17.97,15.99.26,1.07,2.23-.24,3.26-.84l20.12-11.62.81,1.12-21.25,13.34ZM690.83,586.44l-.02.65v.67l.02.65.02-.65v-.67l-.02-.65Z" fill="#b8a074"/>
  <path d="M585.66,231.73l-.14,3.7-1.94-2.59-1.1-1.12-1.02-.96-1.07-1c-3.09-2.88-6.73-6.33-10.61-7.98.34-.85.36-2.4-.32-2.61l-3.15-.97-1-1.34,2.29-.55-8.28-4.24c-21.84-18.51-51.31-24.62-78.84-17.5l-1.98-2.96c9.86-2.42,20.12-4.6,30.78-3.46,22.47,2.41,43.43,11.68,59.49,27.22l16.91,16.36Z" fill="#c6ae7c"/>
  <path d="M422.73,265.59l.35,1.28.82,4.86,1.93,2.9c-1.82-.55-3.99-.21-5.52.56l-12.78-7.32c4.55-.2,7.84,1.75,12.29,4.38-2.25-9.6-12.12-10.47-22.17-9.62,2.16,5.39,6.09,7.76,11.84,9.84-3.94,3.69-6.23-.31-8.67-1.68-4.51-2.53-6.55-5.45-4.79-11.12l13.61.16,1.02-.94c.58,1.15,2.16,2.34,4.18,3.16l-3.73-9.77c-13.53-5.06-9.18-13.59-11.39-25.94,6.96,2.94,10.52,8.85,14.11,15.04,1.38,2.39.14,6.05.15,9.41.02,5.99,4.01,11.52,7.02,16.86l1.74-2.06ZM408.37,246.72l-1.76-6.16,4.61,5.8c-.72-6.12-2.79-10.6-8.18-15.31-1.25,6.8.26,15.01,4.87,16.81l.46-1.14ZM409.25,247.84l-.09,1.55c-.04.67.08-1.26.09-1.55Z" fill="#a58a61"/>
  <path d="M510.32,267.69l5.54-3.64c-2.32-.94-4.73-1.54-6.83-1.74.21-1.93-1.25-4.32-3.33-5.07,1.72-7.11,4.89-13.96,12.48-17.52l-1.23,9.6c-.55,4.29-2.65,8.17-4.92,11.57l12.85-6.45c3.01-6.53,8.02-8.52,14.47-9.96l2.66-.59c.56-.12.81,1.91.39,2.3l-1.19,1.09c-4.98,10.11-15.98,7.4-27.12,14.98,7.96.34,14.17,1.64,20.99,5.41-8.32,5.25-17.93,5.67-24.74,0ZM512.04,251.55l-.22,5.32c2.28-3.44,3.26-6.73,2.39-11.25-3.27,3.05-5.39,6.55-5.73,11.19l3.56-5.26ZM524.33,269.44l5.44-1.32c-4.17-2.73-7.69-3.57-12.36-3.42l2.16,1.82-6.09.58c3.52,2.35,7.13,3.23,10.86,2.33Z" fill="#c5b086"/>
  <path d="M865.71,357.2l-2.94.26c-9.02-22.04-19.46-42.88-32.21-63.08l-25.62-35.76,2.8-.97c20.56,25.09,38.42,52.41,50.89,82.47l7.08,17.08Z" fill="#b49b6b"/>
  <path d="M482.89,591.46l-6.24,33.12c-6.57,30.98-16.89,60.71-30.57,88.72l-1.7-2.1c16.98-35.59,31.8-84.28,36.79-122.85l1.72,3.11Z" fill="#b8a074"/>
  <path d="M488.54,636.37l-.29,11.98-1.06,16.01-1.07,14.84c-1.88,26.14-7,51.28-14.3,75.79l-2.24-1.72c7.81-26.43,12.96-53.44,14.46-81.29l.84-15.54.79-13.17,2.08-13.07.79,6.16Z" fill="#b8a074"/>
  <path d="M682.79,666.03c-10.37.89-19.34,9.06-27.9,14.76l-18.1,16.66c8.76-13.94,22.02-23.09,36.1-30.51,12.87-6.78,10.15-22.37,28.27-25.81l10.75-3.56c-4.35,8.66-11.06,16.34-19.96,20.28l-9.13,4.05,9.56-.39-3.48,1.97c-.66.37-.28,1.83-.22,3.59s-4.31-.28-5.89-1.04ZM695.39,649.99l-4.75,6.45c6.1-2.26,12.42-6.5,15.5-13.94-9.68,1.79-17.22,4.27-21.03,15.16l10.29-7.67Z" fill="#a48f6d"/>
  <path d="M300.75,833.7l-.27,2.93-.79-.42-1.14-.86c-16.69-10.97-32.09-23.78-47.12-37.52-4.37,4.36-9.51,4.12-13.15.46-3.41-3.44-2.57-8.56.77-12.42l-5.25-5.62,1.26-2.99,6.86,6.69c3.59.35,6.91.66,8.95,2.76,1.58,1.63,1.92,5.45,1.98,8.38,15.33,14.04,31.12,27.24,47.9,38.61ZM242.97,786.56c-4.57,1.59-5.07,5.22-3.76,8.84.83,2.28,4.61,3.6,7.78,2.64,2.46-.75,4.39-4.8,3.46-7.79-.81-2.59-4.41-4.76-7.48-3.69Z" fill="#a98e63"/>
  <path d="M460.86,572.59c-11.54,24.3-26,47.38-44.24,67.8l-23.97,23.9-19.54,15.26-1.79-1.21,4.49-3.78,19.27-15.67,3.7-3.31,1.04-1.24c23.53-21.82,41.84-48.83,56.88-77.76l2.72-5.24,1.44,1.26Z" fill="#c2aa79"/>
  <path d="M697.21,759.27c.1-2.11.61-2.29,1.26-.58l4.29,2.64c2.71,1.67,4.19,5.81,9.07,4.7-4.44-6.8-9.87-14.05-18.53-14.71.47.38,2.41,1.58,3.19,1.87l-3.69,2.11c-3.08-2.77-8.06-3.74-12.7-3.98l7.47,7.65.47-4.03,3.1,3.16c.64.65-.88,3.37-1.87,3.07-2.95-.89-7.26-4.76-9.7-6.9l-6.45-5.66c4.07-.32,6.66-.58,9.85-1.72,5.38-1.91,11.35.31,16.46,3.41,14.52,8.81,27.87,31.38,14.02,42.23,3.41-6.58,5.06-13.97.5-20.07-2.59-3.47-8.05-4.69-11.2-7.78l-5.53-5.43Z" fill="#a0865f"/>
  <path d="M478.48,191.6l1.98,2.96c-11.89,3.07-23.7,7.74-31.72,17.53-.17-.23-1.19-2.61-1.57-2.19l-1.63,1.83-1.01,1.06-1.32.28c-.49.1-.52,1.22-.59,1.72-7.94,6.42-14.51,14.88-17.88,24.77l1.24,6.82-.64,6.42-.7-.54-.29-7.83-5.19,1.34c-.95.24-.2,3.22-.2,4.12l-1.37,2.6c-.32.61.84,1.9,1.59,2.9l-1.76,2.56c-3.37-6.8,1.11-12.28,3.78-18.36,7.2-16.41,17.55-29.26,33.34-37.87,7.85-4.28,15.48-8.02,23.93-10.09Z" fill="#b49b6b"/>
  <path d="M690.19,857.62c-31.73,16.88-65.35,28.95-100.68,36.52-.65,0-2.29-.08-2.13-.48l.81-2.08c29.97-6.36,58.62-15.89,86.38-29.21l13.78-7.19,1.84,2.45Z" fill="#9f8864"/>
  <path d="M741.04,489.42l2.9-2.17,1.46-1.02c.39-.27.91-1.68.43-1.7l-2.46-.37c3.27-6.53,5.43-13.55,12.3-18.32l1.53-1.08c.25-.18,1.11,1.79.97,2.06l-5.44,10.64c11.7-2.93,8.91-15.8,20.55-17.77-1.18,4.2-3.07,7.16-5.46,10.1l.04,3.06c-6.23,1.69-11.69,4.42-15.65,8.5,6.44-.22,11.06-2.82,15.77,1.49-3.67,1.62-9.15,5.17-12.42,5.35l-14.52,1.22ZM762.01,482.44c-5.13.11-10.09,1.78-14.6,3.79,5.85,1.85,10.7.04,14.6-3.79Z" fill="#a48f6d"/>
  <path d="M789.13,781.64c-1.19,1.25-2.97,3.63-2.76,5,3.1,3.69,3.06,9.4-.08,12.21-3.75,3.36-8.24,3.26-12.69-1.08l-9.04,7.82-35.34,27.96-2.19-1.86c14.71-10.24,27.98-21.35,41.25-33.36,1.4-1.26,3.1-3.11,3.17-4.75.28-6.3,4.6-10.22,10.97-9.13l5.73-5.57.99,2.77ZM786.64,792.59c0-3.46-2.81-6.27-6.27-6.27s-6.27,2.81-6.27,6.27,2.81,6.27,6.27,6.27,6.27-2.81,6.27-6.27Z" fill="#b49b6b"/>
  <path d="M738.87,416.72l1.5-3.27c.02,1.36.9,4,1.23,5.16l.66-.52-.64-7.97,3.52,7.5c.42-5.6-1.25-11.51-4.98-16.88l-1.92,3.9-.88-10.5c7.14,5.69,8.44,13.63,10.44,21.59.62-8.27,3.05-15.94,9.85-21.79,1.2,3.53-.05,6.94-1.92,10.04l-6.5,10.76c.32.6,1.55,1.94,1.99,1.46l2.21-2.38,2.21-2.31c1.03-1.07,4.41,4.08-5.91,13.35l-3.6,8.62c-1.05-4.23-.74-8.5-2.82-10.55-2.23-2.19-4.33-3.83-4.45-6.21Z" fill="#af9a72"/>
  <path d="M567.64,813.51l3.49-5.43h1.72c.55-.07.54-1.44.53-1.94l.7-1.43c.95.34,3.48-.04,4.76-.87l17.13-10.99c8.85-5.68,18.06-7.18,28.58-5.71l11.01,1.54-15.59,9.06c-15.25,8.87-23.4-4.03-42.8,9.23l-9.55,6.53ZM597.21,797.76c10.97,3.79,21.44-.21,29.39-7.75l-8.72-1.42c-7.79-1.27-15.4,2.27-21.35,6.41l13-.67-12.31,3.43Z" fill="#a99169"/>
  <path d="M592.02,772.59c.16-7.6,1.2-14.01-1.84-20.93-6.18-14.04,6.28-24.93,2.89-43.02,3.68,3.46,4.45,7.88,6.01,11.96,4.66,12.22,4.48,24.4-1.14,36.31l-5.92,15.67ZM595.96,738.07l.84,16.41c4.83-11.33,4.17-22.57-.45-33.88-4.1,13.23-8.92,23.07-2.47,35l2.09-17.53Z" fill="#9f8864"/>
  <path d="M602.34,654.53l2-1.2c6.68,8.19,9.52,18.9,8.99,30.02-.28,5.86,1.17,10.99,2.35,16.63l2.15,10.33c1.91,9.18-1.6,14.37.4,17.89l-2.73,4.15.66-9.24c.99-9.52-1.28-19.02-4.69-28.27-1.6-4.34-6.82-7.55-10.03-10.49l.65-2.23,6.28,4.67c-.84-4.09-2.94-6.78-5.06-10.32-4.35-7.24-8.66-14.59-9.79-23.85,4.74,11.1,9.74,21.83,17.43,32.92,1.08-9.54-2.36-23.64-8.61-31.04Z" fill="#9f8864"/>
  <path d="M355.98,452.95c-5.87,7.73-11.37,16.5-13.02,26.62-1.42,8.67-.05,18.05,4.25,25.55l8.97,16.37-4.01-.76c-5.05-8.52-9.61-18.35-12.04-28.31-.42,4.2-.39,7.64-1.62,12.45-1.46-5.89-.81-11.41-.04-17.32l1.08-8.39-1.18-9.31h2.15s.48,1.26.48,1.26c.11.28.47.24.62,0l1.17-1.93c3.17-5.22,6.83-12.98,11.44-17.76l1.76,1.54Z" fill="#9f855d"/>
  <path d="M881.13,619.41l-2.19-2.69c6.73-26.47,11.47-52.79,13.18-80.2.19-3.01-.37-5.13,2.77-7.78l-.55,17.73c-2.14,23.21-5.72,45.81-11.9,68.16l-1.32,4.77Z" fill="#9f855d"/>
  <path d="M878.08,402.62l2.98-.59c6.81,24.9,11.86,49.67,13.29,75.52l.85,15.51c-4.43-1.57-2.78-3.99-2.96-6.58-1.91-28.72-6.75-56.55-14.16-83.86Z" fill="#9f855d"/>
  <path d="M138.98,347.03c-11.49,27.68-20.53,56.33-26.06,86.36l-1.53,2.28c-.21.31-1.34-.74-1.55-1.08,5.67-31.23,14.47-60.68,27.03-89.48l2.12,1.92Z" fill="#9f855d"/>
  <path d="M434.88,668.93c-9.93,17.95-21.13,34.46-34.77,49.91l-21.51,21.45-6.93,5.94-1.13-2.41,5.24-4.38,22.9-23.05c12.27-12.35,21.26-26.88,30.13-41.76l4.61-7.73,1.46,2.03Z" fill="#c5b086"/>
  <path d="M549.96,674.16l-2.06,1.38-11.9-11.84c-19.84-23.22-34.29-50.37-39.42-80.83,2.71,3.7,3.41,7.63,4.73,11.79,8.93,30.43,25.16,58.09,48.64,79.5Z" fill="#ac976f"/>
  <path d="M435.03,436.8c-2.27,5.32-4.68,11.48-9,16.34-21.22,23.87-38.18,28.47-45.54,64.32l-1.68,8.16-.14-10.98.86-3.25c2.39-14.48,10.45-27.97,21.93-37.98l8.55-7.46c9.8-8.55,18.33-17.67,23.28-29.57l1.74.42Z" fill="#baa376"/>
  <path d="M420.78,276.74l1.17,3.92-1.38,1.02-.3-.87-11,2.8c2.75-2.37,5.19-3.36,9.12-5.15-7.02-2.67-12.99,1.64-16.6,7.95,5.34.78,12.12.97,16.48-2.76l1.38,2.03-4.66,5.54c-.44,3.36-.37,6.47,0,9.83l6.59-10.35c-.05,2.89-.93,6.15-2.47,8.39l-5.73,8.37c-.66.97-1.54,2.72-1.64,4.01l-.48,6.32-2.72-4.12c-.37-4.09.71-8.14,3.02-11.88-.21-4.44.41-9.06,1.99-12.68-4.7,1.57-8.44-2.03-16.36,1.29l3.42-6.51c4.17-7.92,12.2-10.06,20.18-7.14Z" fill="#a58a61"/>
  <path d="M389.55,341.31l1.02,1.5c-2.52,3.16-7.66,4.65-12.06,5.93-6.02,1.74-11.18-2.38-15.38-6.65-1.26-1.29-5.36-2.24-7.3-2.52,1.92,6.19,6.41,9.97,11.95,12.34l-2.18.81c-6.63-1.97-10.63-8.3-13.14-14.58l-7.97-2.27c0-.55.85-1.1,1.23-1.05l5.89.86c-1.83-7.84-1.53-15.59,3.54-22.76l-1.72,17.75c-.47,4.81,2.89,8.98,7.88,8.43-4.2-6.77-6.66-13.31-5.24-20.54,2.01,8.43,4.43,17.32,10.91,23.71,6.46,6.36,16.05,4.06,22.56-.98Z" fill="#99825e"/>
  <path d="M888.58,347.37l7.29,17.69c8.14,21.89,13.94,44.28,18.57,67.31l-.38,2.7c-.06.43-1.08.37-1.96.31-5.62-30.29-14.19-59.65-26.12-87.64l2.62-.37Z" fill="#9f855d"/>
  <path d="M503.43,265.01l4.12,1.6-8.07,3.02-14.3,4.85,11.19,5.54c1.47-.6,4.44-1.48,4.8-.38.29.91,0,3.72-.46,4.55l-15.99-7.86c-2.33-1.15-6.93-.79-9.9.04,5.84,3.32,8.87,6.42,11.04,12.54l-9.76-2.05c-2.15-.45-5.53-3.1-6.42-4.97l4.76-5.24-3.64-1.72,3.05-1.03c2.98-.6,9.7-1.39,11.5-3.86l6.91-9.45c.39,1.94-.35,4.2-1.58,5.96l-3.13,4.46,15.88-6ZM474.8,280.17l1.22.06-1.22-.06ZM472.2,281.21l-.65.02.65.02h.67l.65-.02-.65-.02h-.67ZM477.34,280.53l-.74.83-3.18,2.09,7.38,2.68c-.92-3.03-1.98-4.58-3.46-5.6Z" fill="#c5b086"/>
  <path d="M469.45,535.42c-10.01,16.67-21.47,32.4-34.62,47.19-11.84,13.32-35.14,29.06-47.4,15.19l11.31,3.8c10.66-1.49,20.46-6.68,27.82-14.16l8.96-9.11c11.95-13.61,22.61-27.78,31.62-42.98l2.31.06Z" fill="#b8a37b"/>
  <path d="M371.31,678.34l1.79,1.21c-9.53,7.44-20.13,13.82-31.52,18.1l-.72-2.36,20.98-10.86c-.52-5.85-1.36-10.12-2.97-15.35-7.39-24.1-1.85-36.45,10.7-55.39-3.7,13.08-15.13,23.83-11.32,38.32.65,2.47.87,4.58,1.37,7.4l2.64,15.03,1.56,8.28,7.48-4.38Z" fill="#a58d65"/>
  <path d="M282.77,167.51l-18.43,13.95-26.05,22.69c-6.53,5.69-11.83,11.62-17.7,17.92l-1.34.3c-.39.1-.99-.29-1.37-1.15l3.6-4.63,15.3-14.88c13.75-13.37,28.14-25.14,44.11-36.36l1.88,2.16Z" fill="#a98e63"/>
  <path d="M502.21,824.5c4.35-6.8,10.15-11.47,15.41-17.25,13.99-15.37,24.27-32.92,26.58-54.21l.27-17.39c0-.56,1.66-2.35,1.89-2.4l-.33,22.73c-3.37,27.1-21.98,51.67-43.82,68.52Z" fill="#ac976f"/>
  <path d="M673.15,577.38l-1.94,1.01c-.06-4.27-1.93-9.01-5.55-11.06l.69-.71,1.5-.17.67-.6c-.31-2.7-1.4-6.25-3.26-8.15l.48-1.23.02-4.3,3.16-1.99c1.63-5.46,4.13-10.28,7.6-15.16l2.46,18.65c.34,2.56-1.84,7.68-3.26,9.91-3.17,4.99-2.67,8.89-2.58,13.8ZM674.05,551.42l-1.37,13.29c4.62-6.23,5.09-14.04,1.34-21.54-2.91,5.66-4.44,11.49-3.42,17.36l3.45-9.12ZM668.88,566.65l-.05,1.49.05-1.49Z" fill="#b8a074"/>
  <path d="M622.42,764.24l7.82-2.27c6.51,3.91,14.48,9.85,23.11,9.07l12.2-1.1c-4.52-4.37-9.73-10.42-16.33-10.38l-14.07.08c7.61,2.38,14.06,4.14,20.09,7.35l-24.49-5.62,3.61-.52c.67-.15-1.17-2.07-1.66-2.31,6.3-2.2,17.66-2.66,23.38.95,6.2,3.92,11.28,8.65,15.97,14.63-4.26-.6-8.37-2.33-11.36-1.72-21.06,4.29-23.72-9.28-38.26-8.17Z" fill="#a48f6d"/>
  <path d="M510.47,100.98l.07,42.52,4.9,4.04-10.87.4c-.48-.92-1.03-1.83-.61-2.07l2.53-1.42.03-52.54,1.3,8.03,1.44-2.19,1.2,3.23Z" fill="#b7965f"/>
  <path d="M807.74,257.64l-2.8.97-12.02-13.73c-3.63-4.15-7.83-10.32-12.81-12.66-4.23-1.38-8.92-.15-10.49-5.53-.95-3.24-.21-7.59,3.17-9.73,3.67-2.33,7.95-1.35,10.65,2.1,2.46,3.15,2.02,7.32-.27,10.83l12.39,13.47,7.03,8.03,5.13,6.26ZM776.81,218.13c-3.45.57-6.06,3.61-5.42,5.9.96,3.45,3.52,5.07,6.37,4.99,3.54-.1,5.02-3.39,4.59-6.57-.26-1.97-3.28-4.69-5.54-4.32Z" fill="#af9364"/>
  <path d="M601.41,649.39l1.44,2.03c.25.36,1.14-1.83,1.4-1.77l.1,3.69-2,1.2-15.85-18.78,2.33,18.24c1.37,10.74,4.42,21.57,13.27,28.14l-.65,2.23c-10.31-7.43-14.95-19.82-15.5-32.57-.34-7.88-2.49-14.66-4.68-22.6,7.99,6.14,14.78,12.59,20.16,20.18Z" fill="#ad9368"/>
  <path d="M724.1,524.92l.05-1.37c2.2-.18,4.63-1.15,6.94-2.47-.44,4.37,8.73,2.97,17.18.54-3.92-1.52-6.24-1.14-9.63-.75l-6.39.72,4.45-1.67-5.79-2.12c-.91.76-2.16,1.73-2.55,1.27l-1.25-1.57c2.91-3.6,4.8-6.6,10.57-8.23l-2.93,7.65c5.98-1.96,10.02-5.33,13.34-9.41l-6.89,3.12c2.6-4.26,6.52-6.08,12.09-5.55-.68,1.87-2.64,5.27-4.08,6.14l-11.83,7.14c6.75.32,11.26-.9,16.06,3.89l-4.93,1.59c-12.47,4.03-20.32-.89-24.42,1.1Z" fill="#ad9b78"/>
  <path d="M471.82,755c-6.88,23.09-20.75,51.07-39.25,66.31l-.22-3.41c11.35-10.54,19.99-23.62,26.92-37.93l10.32-26.68,2.24,1.72Z" fill="#ad9368"/>
  <path d="M664.56,749.14l-1.69.29c-.54.09-.65,1.76-.51,2.29-10.95-2.45-20.42,1.92-31.53,4.18,10.54-7.58,23.43-4.37,24.75-13.06l-9.64,4.37c3.11-4.64,7.68-6.61,13.91-5.59l-4.4,5.54c8.65,1.7,7.79-8.48,21.7-6.85l3.24.38c.63.07-.67,2.5-1.37,2.62-4.17.7-11.05,3.39-14.46,5.83Z" fill="#9f8864"/>
  <path d="M522.76,693.29l-2.57.75-10.63-21.8c-6.58-16.89-10.31-34.39-13.49-51.76l1.7-.83,10.2,40.31c3.01,11.9,8.69,22.78,14.78,33.33Z" fill="#ac976f"/>
  <path d="M396.57,391.54l.18,2.32-6.97,4.78-3.34.02c9.49-8.27,17.59-18.76,19.23-32.35-7.87,8.41-16.32,11.07-25.05,4.38l-22.17-.13c.53-1.43,1.92-3.82,3.18-4.12,8.98,3.13,17.11,4.13,26.14,1.06l-.22,1.91-3.44,1.33c8.82,5.67,17.29-1.63,23.47-8.78-.24,11.71-4.73,21.47-10.99,29.59Z" fill="#a48f6d"/>
  <path d="M399.82,654.32l-1.04,1.24c-.42-2.69-.98-7.33-2.32-10.05l-15.43-31.29c-1.4,7.66-2.07,15.76-7.29,21.22l-11.72,12.25-2.73,4.19c-.12-6.51,4.97-9.01,9.01-12.99,6.87-6.76,12.31-17.54,10.94-27.12l-1.49-10.46,3.63,8.36,14.85,30.11c2.25,4.55,3.09,10.01,3.59,14.53Z" fill="#9b896b"/>
  <path d="M520.19,694.05l2.57-.75c7.21,12.49,17.42,22.2,28.98,30.73,11.04,8.15,22.92,13.57,34.83,20.32-12.12-3.39-22.57-9.57-32.98-16.18-13.87-8.8-25.19-19.91-33.41-34.11Z" fill="#a99169"/>
  <path d="M299.63,782.57l11.01.99,11.16-.43c8.16-.32,16.24-3.17,23.81-5.97,18.88-6.98,34.07-17.94,50.04-30.21-9.05,10.65-20.9,17.54-32.86,24.48-17.93,10.41-44.29,18.35-63.16,11.14Z" fill="#a39176"/>
  <path d="M154.78,375.2c-7.43,19.25-12.12,39.16-15.91,59.12-.54.16-1.85.18-1.9-.36l-.49-2.89c4.11-20.27,9.17-39.53,16.21-58.92.08.63.21,1.63.46,1.83l1.63,1.22Z" fill="#a0865f"/>
  <path d="M699.45,327.76l6.92-.84-6.17-4.2c19.03,6.41,38.35-2.25,48.11-20.32-5.27,19.92-30.43,31.74-48.85,25.37Z" fill="#c2aa79"/>
  <path d="M138.87,434.32c-2.5,13.2-4.15,26.61-5.56,40.49l-1.94,19.05c-4.03-1.85-2.19-4.32-2.04-7,1.11-18.91,3.36-37.12,7.15-55.8l.49,2.89c.04.54,1.36.52,1.9.36Z" fill="#927953"/>
  <path d="M899.06,647.56l-2.91-.21c6.79-19.75,12.28-40.49,16.12-60.52,1.03-.72,2.84.92,2.59,2.16-4.11,20.25-9.05,39.16-15.8,58.57Z" fill="#a98e63"/>
  <path d="M432.34,817.9l.22,3.41c-7.26,5.98-15.41,11.38-25.17,13.57l-8.34.66c-6.24.5-13.19-4.62-12.89-11.33.61-13.73,18.53-21.64,23.12-16.18.9,1.07,1.42,4.1,1.22,4.97l-3.43-4.8c-2.1-2.93-17.81,3.84-19.25,15.17-.72,5.69,5.94,11.31,11.79,10.62,12.73-1.48,23.76-7.78,32.73-16.11Z" fill="#99825e"/>
  <path d="M373.65,480.87l-1.28-1.82c3.4-13.15,13.2-28.37,23.97-35.75l26.11-17.86c1.34-.92,2.03-2.11,3.61-.79-3.95,3.95-8.24,6.84-12.61,9.82l-16.02,10.91c-11.62,9.12-20.67,21.17-23.78,35.5Z" fill="#b8a37b"/>
  <path d="M465.06,598.58c-7.64,24.65-17.73,47.84-30.17,70.35l-1.46-2.03c13.06-21.91,22.03-45.31,29.89-69.71l1.74,1.4Z" fill="#b8a37b"/>
  <path d="M273.81,596.55c-4.14,11.15-1.61,25.52,7.2,31.98l.77-.67-.36-10.45c.47.62.57.9.88.95l1.53.08c-.96,5.43,2.26,17.85,6.76,19.9l1.19,5.95-2.05-.02h-1.24c-.68-4.65-3.89-9.28-7.93-12.7-11.1-9.4-14-24.84-8.01-37.4l1.26,2.38ZM282.29,630.11l-.07-1.23.07,1.23Z" fill="#927953"/>
  <path d="M792.18,813.64l-7.02,6.49c-12.6,11.66-25.84,21.88-39.8,31.63l-1.03-2.58c16.39-11.67,32.65-23.89,46.9-38.48l.95,2.94Z" fill="#b49b6b"/>
  <path d="M138.28,585.33l-2.64,2.11c-3.17-16.35-4.94-33.19-6.37-50.31-.27-3.29-1.56-6.91,2.36-8l.95,12.36,1.13,12.99,4.56,30.85Z" fill="#927953"/>
  <path d="M686.32,313.82l7.17,4.67,6.71,4.23,6.17,4.2-6.92.84c-.25.03-.93.01-1.17-.07l-2.07-.83c-6.28-1.26-11.59-5.44-16.1-9.81-.12-2.12.61-4.11,1.9-6.03l4.31,2.8Z" fill="#b7965f"/>
  <path d="M215.39,579.71c-.77-1.2-1.36-2.76-1.5-4.05l-.95-8.37-4.32,3.19,2.43-4.5-9.48-1.88,9.63-1.93-3.19-4.81,3.53,1.97c.62.35,2.16-1.23,2.19-1.94l.28-5.9,1.44-.07.79,9.09,4.74-2.93-2.64,4.48,10.69,2.06-10.38,1.83,2.3,4.3-4.78-2.87-.78,12.33Z" fill="#c0a673"/>
  <path d="M378.62,406.58l.1-2.94c2.62-1.41,5.49-3.05,7.71-4.98l3.34-.02-1.15,2.04,9.69-2.33c10.27-2.47,19.8-6.07,27.54-13.4,4.29-5.78,7.12-11.88,9.59-18.36-.31,8.67-4.87,16.89-11.26,22.55-12.14,10.74-29.17,10.39-45.57,17.44ZM385.29,402.09l-.65.02.65.02h.67l.65-.02-.65-.02h-.67Z" fill="#ad9b78"/>
  <path d="M470.8,274.95l3.64,1.72-4.76,5.24-1.08-2.24,1.85-3.53-8.92-1.24,3.51-8.76c2.79-7.22,9.37-11.39,16.52-14.63-2.32,12.2-5.05,17.01-14.96,22.97l4.19.48ZM472.72,262.94l2.09,3.08,3.07-9.02c-6.35,1.79-10.44,6.65-11.19,12.66l6.04-6.72ZM472.04,265.75l-.02.65v.67l.02.65.02-.65v-.67l-.02-.65Z" fill="#c2aa79"/>
  <path d="M451.55,424.44c1.48-4.19,4.82-7.73,8.66-10.14,11.2-7.02,16.65-18.41,17.71-31.47.54-6.7,2.85-13.07,6.51-17.98-1.98,7.71-3.99,14.08-4.65,20.94-1.16,12.09-6.72,21.83-16.43,28.65l-11.8,10.01Z" fill="#b8a37b"/>
  <path d="M508.98,746.35l-1.57.94c-4.93-15.49-7.9-31.54-9.59-48.2l-1.08-10.67-.75-16.86c1.73,3.66,2.03,7.18,2.33,10.71l1,12.07c1.47,17.85,3.96,35.31,9.67,52Z" fill="#a48f6d"/>
  <path d="M487.87,508.48l-.59,11.03-1.53.02-.5-10.23c-3.13,1.84-.48,5.85-3.29,10.45l-.65-10.73-1.69-1.16c-.33-.23.1-1.63.47-1.47l2.23.99c4.29-2.01,7.17-1.25,10.6,1.72,6.11,5.3-.93,6.95.35,14.59l-5.76-1.59c1.93-4.91,2.83-9.22.37-13.61Z" fill="#c5b086"/>
  <path d="M150.75,634.35c-.78.04-1.86.14-1.91.61l-.42,1.53c-4.29-13.06-8.23-26.47-10.69-39.99l-.81-3.06-.14-2.03-1-2.98-.17-.99,2.64-2.11c2.46,16.67,7.18,33.07,12.48,49.03Z" fill="#a58a61"/>
  <path d="M449.8,754.34l-1.47-.62c12.18-21.93,17.67-45.81,25.01-69.69-3.22,25.16-12.18,48.78-23.54,70.31Z" fill="#a39176"/>
  <path d="M448.61,225.25c-2.84,3.27-5.28,6.15-8.42,8.51,13.72-22.47,37.92-36.95,64.57-36.32-21.58,2.87-41.33,10.74-56.16,27.82Z" fill="#ad9b78"/>
  <path d="M865.71,357.2c5.97,14.38,11.07,29.16,15.35,44.83l-2.98.59c-4.14-15.24-9.17-30.16-15.31-45.16l2.94-.26Z" fill="#a98e63"/>
  <path d="M782.64,691.9l-.69,9.45-1.55-.02-.23-8.73-2.41.53c-.56.12.19-2.53.19-2.31l-8.98-1.82,8.42-2.11-1.81-3.53,3.39,1.86,2.59-4.65,1.93,4.69,4.63-3.29-2.8,5.12,8.21,1.93-8.36,1.86,2.13,4.34-4.66-3.3Z" fill="#c0a673"/>
  <path d="M465.06,598.58l-1.74-1.4c6.88-21.34,10.84-42.44,16.08-63.92-1.46,22.76-7.69,43.88-14.33,65.32Z" fill="#9b896b"/>
  <path d="M579.8,349.22l.38,2.63c-6.07-3.99-10.53-9.84-13.56-16.49,5.85,4.61,9.81,7.87,15.27,10.83l4.35-10.11-11.47-4.78c5.55-.03,10.37,1.45,14.83,3.89l-6.3,11.56,4.47,3.96-7.97-1.49Z" fill="#baa376"/>
  <path d="M611.64,445.56l1.83-2c.92,8.96,9.26,13.42,13.65,24.27,4.03,9.95-.95,21.71-11.87,23.61,4.44-2.95,8.41-5.05,9.67-10.59.56-2.46,1.41-7.28.81-9.57-2.36-8.95-8.78-14.8-15-20.82l.91-4.9Z" fill="#ad9368"/>
  <path d="M123.23,631.9l-2.88.47c-4.41-14.52-7.82-28.6-10.85-44.26.21-1.66,2.37-2.04,2.64-.41,3.38,15.55,6.62,29.61,11.08,44.2Z" fill="#a0865f"/>
  <path d="M358.72,755.84c-13.56,10.07-29.32,16.12-45.54,18.72l.58-2.73c10.87-1.67,21.37-5.09,30.68-10.67l13.46-8.06.81,2.74Z" fill="#a99169"/>
  <path d="M547.9,675.53l2.06-1.38c16.55,15.09,36.05,19.62,52.75,32.05-7.01-1.83-11.99-6.13-18.29-8.79-13.35-5.64-26.42-11.83-36.52-21.88Z" fill="#a58d65"/>
  <path d="M421.63,753.64c-9.62,12.77-19.6,25.76-31.91,36.54-5.58,4.89-10.5,10.11-17.27,13,18.46-15.31,34.39-32.07,47.86-51.21l1.33,1.67Z" fill="#9b896b"/>
  <polygon points="727.02 831.69 729.21 833.55 690.19 857.62 688.34 855.17 727.02 831.69" fill="#ad9368"/>
  <path d="M472.31,337.19c-15.69,2.56-30.44-2.05-41.26-14.86-5.66-6.69-9.69-14.38-8.54-23.42,2.6,10.77,6.07,19.79,14.36,26.52,9.52,8.67,21.66,10.99,35.43,11.76Z" fill="#ad9b78"/>
  <path d="M437.63,272.38c.66-21.62,12.73-44.62,32.9-55.93l-13.3,13.11c-10.74,11.75-15.42,26.3-19.6,42.82Z" fill="#ad9b78"/>
  <path d="M372.67,439.61c-1.93,4.4-15.22,15.55-19.95,39.92l-1.47-.04c1.59-13.96,8.91-25.13,16.47-37.02-5.07,3.15-8.89,6.74-11.73,10.48l-1.76-1.54c5.49-5.7,11.45-10.32,17.94-14.81.47.82.76,2.43.5,3.01Z" fill="#ac976f"/>
  <path d="M425.83,274.62c.33.5.59,1.56.65,2.09-1.74,4.87-.8,14.39,3.26,15.68,7.8,2.47,4.56,8.76,12.06,15.09-5.53-.61-7.07-6.84-9.41-11.4l-6.79-2.98c-.86-6.22-4.04-4.59-3.25-8,.09-.4-1.29-.11-1.66.07l-1.04.51-1.38-2.03,2.31-1.97,1.38-1.02-1.17-3.92-.48-1.56c1.53-.78,3.71-1.11,5.52-.56Z" fill="#b8a074"/>
  <path d="M432.35,334.79l1.03,3.79c-10.63-1.54-19.58-9.34-22.39-19.95l-1.01,8.69c-.94-3.29-1.35-7.12-1.41-10.59l-.05-3.08,2.72,4.12.48-6.32c.1-1.29.98-3.04,1.64-4.01-2.35,12.27,5.09,25.21,17.32,28.18l-2.93-5.26c1.88.8,4.16,2.89,4.58,4.43Z" fill="#b8a074"/>
  <polygon points="881.13 619.41 868.47 656.87 866.02 655.18 877.22 622.41 878.95 616.72 881.13 619.41" fill="#b49b6b"/>
  <path d="M313.77,771.83l-.58,2.73c-8.61,1.38-17.04.64-25.87-2.41-1.91-.66-3.04-1.06-4.55-2.94-3.14-3.91-7.1-8.27-3.98-13.55,2.5,16.24,19.47,18.55,34.99,16.17Z" fill="#927953"/>
  <path d="M396.82,508.69c-10.48,14.91-11.02,41.56.21,54.38l7.52,8.58c-21.24-13.12-22.73-44.78-8.13-64.22l.4,1.26Z" fill="#9b896b"/>
  <path d="M506.85,222.57c-13.62,3.61-23.03,11.61-35.25,19.58,13.98-15.62,35.82-24.5,56.96-25.33l-21.72,5.75Z" fill="#b8a37b"/>
  <path d="M446.08,713.29c-6.9,14.13-15.02,27.83-24.45,40.35l-1.33-1.67c9.06-12.88,17.29-26.56,24.08-40.78l1.7,2.1Z" fill="#ac976f"/>
  <path d="M277.07,665.47c-3.69,11.54-1.06,23.17,7.61,31.74l.06,2.11-.06,3.17-4.4-5.67c-7.75-10-9.78-22.08-4.93-33.4l1.72,2.05Z" fill="#927953"/>
  <path d="M596,329.67c-5.81-9.5-15.24-11.82-26.1-8.98,1.96-3.45,5.89-2.75,9.59-3.12,9.55-.95,21.91,5.26,20.65,12.23-.17.95-3.63.71-4.15-.14Z" fill="#c6ae7c"/>
  <path d="M588.31,256c-18.75,6.39-29.51,27.29-47.59,30.7,8.78-5.04,16.99-10.57,24.73-17.91,6.49-6.15,16.53-14.04,22.86-12.78Z" fill="#b8a37b"/>
  <path d="M559.3,212.07l8.28,4.24-2.29.55c-11.69-5.59-23.68-9.62-37.05-11.95l-14.78-.12,2.01-2.08c15.36-.65,29.99,3.58,43.82,9.36Z" fill="#b8a37b"/>
  <path d="M667.54,530.78l-2.37,15.57c-5.46-7.16-4.58-15.49-2.26-23.49,3.1,1.26,5.09,4.87,4.63,7.91Z" fill="#99825e"/>
  <path d="M403.72,675.69l-.31-1.51c13.07-12.52,22.85-27.23,34.16-42.13-5.55,12.77-14.78,22.49-22.94,33.29l-10.91,10.35Z" fill="#b8a37b"/>
  <path d="M378.62,406.58c-11.79,5.07-21.37,14.24-27.89,25.25l-2.07.66c4.19-10.91,12.3-19.28,22.9-24.99l7.16-3.86-.1,2.94Z" fill="#a48f6d"/>
  <path d="M286.65,699.28l1.24-.25-.44,2.7c4.25,6.56,11.31,12.35,19.49,15.37l18.95,7c-14.14.73-33.28-11.37-41.21-21.6l.06-3.17,1.91-.04Z" fill="#99825e"/>
  <path d="M328.6,700.32l2.3,1.34c-12.88,4.84-30.36,5.64-43.45.06l.44-2.7c7.57,2.89,15.97,5.74,24.84,4.15l15.86-2.84Z" fill="#9f8864"/>
  <path d="M588.54,234.66l-6.2,3.03-10.89.24c-10.46.23-18.88,6.22-28.09,10.86,6.87-6.9,16.25-12.25,26.24-12.68l15.93-.68.14-3.7,2.88,2.94Z" fill="#baa376"/>
  <path d="M540.89,309.45l6.75-.28-12.95,3c-8.86,2.05-26.49-2.08-36.3-6.25l19.21,3.55,23.29-.02Z" fill="#b8a37b"/>
  <path d="M425.99,246.38c1.28,7.05-.73,8.87-6.26,16.17l-2.29-4.63,1.76-2.56c-.75-1-1.91-2.29-1.59-2.9l1.37-2.6c0-.9-.75-3.87.2-4.12l5.19-1.34.29,7.83.7.54.64-6.42Z" fill="#b8a37b"/>
  <path d="M273.52,313.82l1.06-.27,1.11,1.21c.25.25.78.77,1.08.94l2.92,1.55-3.05,1.33c-.46.2-1.14,1.12-.85,1.51l1.8,2.42c1.37,1.21.45,1.14-.69.52l-2.65-1.45c-.34-.18-.39,1.71-.42,2.29-.03.65-.87,2.26-1.52,2.14-.43-.08-1.22-.52-1.37-.92l-.72-1.89-2.61-4.35-1.75-1.59,3.37-2.71,1.39-2.42,1.66-1.46,1.22,3.15Z" fill="#d2ac6a"/>
  <path d="M687.4,622.77c-.44.11-.71.23-.96,0l-1.39-1.19c3.26-9.44,8.17-18.22,18.4-22.54l-2.7,9.88c-.93,3.39-3.93,6.75-7.47,7.53,3.17-3.8,6.45-7.05,5.98-12.34-6.66,4.15-10.1,11.38-11.85,18.64Z" fill="#af9a72"/>
  <path d="M518.57,79.43l-3.63,4.96-4.02,8.97c-.77,1.73-.53,5.84-.46,7.61l-1.2-3.23-1.44,2.19-1.3-8.03-.1-3.09,4.18-.11-2.14-1.89c2.91-1.68,2.11-4.47,7.93-8.96l2.18,1.57Z" fill="#c6ae7c"/>
  <path d="M665.74,556.46l-.48,1.23-9.08-9.33c.72,5.2,2.89,11.14,6.54,14.51l3.63,3.74-.69.71c-3.03-1.72-7.29-4.79-8.49-8.45l-5.08-15.54c6.14,3.57,9.69,8.04,13.65,13.13Z" fill="#a99169"/>
  <path d="M717.69,664.42c-2.59,4.72-7.94-3.59-18.73-4.84l14.26-5.46c3-1.15,7.67-1.14,10.8.24-6.92,1.18-12.64,2.47-19.07,5.04l12.75,5.01Z" fill="#9f8864"/>
  <path d="M335.48,309.77l.15,4.82c.27,8.69,3.37,15.62,10.09,20.25-.37-.05-1.22.5-1.23,1.05-10.03-5.61-14.82-18.76-9.93-29.25l.91,3.14Z" fill="#927953"/>
  <path d="M434.56,263.81l-1.77-.71-.52-7.66c-3.77,3.75-6.32,7.24-9.2,11.42l-.35-1.28c-1.31-4.82,6.24-11.21,12.79-15.37l-.95,13.6Z" fill="#b49b6b"/>
  <polygon points="482.89 591.46 481.16 588.35 485.42 555.45 487.59 554.28 486.53 563.5 482.89 591.46" fill="#a39176"/>
  <path d="M767.01,511.78c-5.36,1.71-9.68,4.18-15.07,1.32,1.36-3.47,5.19-5.04,9.3-4.74l7.16.53c.42.03,1.31,2.03.91,2.15l-2.31.74Z" fill="#ad9b78"/>
  <path d="M693.53,251.95l.39-1.81c.08-.4-.2-1.52-.74-1.78,9.27-4.28,20.52-5.2,29.95-.72-11.4-1.55-20.78-.74-29.6,4.31Z" fill="#b49b6b"/>
  <path d="M535.12,109.63l-1.98,14.05-2.69,6.21.14-18.78,1.62-5.17c.51-.38,3.09,2.46,2.92,3.68Z" fill="#c0a673"/>
  <path d="M641.81,400.92l-10.55,22.53c-2.05,4.37.02,9.13.31,13.7-5.7-9.34-.46-19.44,4.33-28.08l4.5-10.47,1.41,2.32Z" fill="#ac976f"/>
  <path d="M411.14,615.12c7.81-2.95,15.04-8.22,20.98-15.18l12.52-14.68c-5.34,10.29-21.24,30.34-33.49,29.87Z" fill="#a39176"/>
  <path d="M514.53,297.52l-6.08.93c-9.68-.3-18.76.97-29.33,3.1,6.4-4.4,20.69-6.44,28.44-5.17l6.96,1.14Z" fill="#ad9b78"/>
  <path d="M632.69,758.54c.49.24,2.32,2.16,1.66,2.31l-3.61.52-.5.59-7.82,2.27-6.81,1.99c-.54.16-1.98-.51-2.59-1.11,4.47-2.9,8.36-4.64,13.96-5.6l5.71-.98Z" fill="#927953"/>
  <path d="M599.48,250.62c-12.17-3.77-22.65-2.22-33.97,5.27,7.81-9.49,23.01-12.77,33.97-5.27Z" fill="#b8a37b"/>
  <path d="M510.71,969.39c3.01-1.05,6.6,1.12,7.43,3.64,1.07,3.23-.79,6.61-3.65,7.67s-6.23-.28-7.42-2.7c-1.61-3.29-.85-7.04,3.63-8.61ZM510.9,971.25c-2.17,1.08-2.88,4.07-2.04,5.79.7,1.43,4.07,2.61,5.56,1.62,1.3-.86,2.11-3.95,1.5-5.41s-3.4-2.81-5.02-2Z" fill="#a58d65"/>
  <path d="M610.01,274.63l2.72.15c-.07.19-.49,1.27-.42,1.66l1.3,7.23-1.22,8.02c-1.55-3.81-.22-8.65-2.92-13.6l-7.7,4.02c-.34.18-1.39.65-1.6.41l-.72-.81v-1.99c0-.38.71-.69,1.08-.85l9.49-4.24Z" fill="#af9364"/>
  <path d="M541.54,276.3c-8.94,4.25-17.37,8.86-27.46,6.76,11.61-1.99,21.57-4.48,31.34-11.59-.08,2.21-1.75,3.82-3.88,4.83Z" fill="#b8a37b"/>
  <path d="M654.76,517.74l4.59,11.68c-5.22-2.61-8.65-13.36-5.85-19.15,3.28,2.89,4.67,6.07,5.13,10.18l-3.87-2.71Z" fill="#a48f6d"/>
  <path d="M816.92,505.9c.05.93.08,2.89-.11,2.62s-1.11-1.18-1.19-1.52l-1.41-5.87c-.38-1.57-3.81-2.65-5.89-3.05l9.3-2.42,5.88,2.56c-4.13,1.73-6.83,3.08-6.58,7.69Z" fill="#b8a074"/>
  <path d="M602.58,245.84l-1.86-1.01c-.38-.25-1.23.4-1.34,1.03-3.33-3.26-7.75-5.24-11.86-7.18-.77-.37-2.22-.93-3.05-.94l-2.13-.04,6.2-3.03,3.28,2.56c4.71,1.85,8.58,4.6,10.77,8.62Z" fill="#c6ae7c"/>
  <path d="M510.32,267.69l-2.77-1.08-4.12-1.6,2.26-7.76c2.08.75,3.54,3.14,3.33,5.07,2.1.2,4.52.8,6.83,1.74l-5.54,3.64Z" fill="#c19d64"/>
  <path d="M528.38,154.94l2.14.74c.15.25-1.55,2.31-2.16,2.48l-12.89,3.58c-1,.28-2.57-2.77-1.63-2.98l3.83-.84,10.71-2.98Z" fill="#b49b6b"/>
  <path d="M486.72,144.92c-.16-16.54-.76-33.48.43-49.89l-.43,49.89Z" fill="#c5b086"/>
  <path d="M566.3,218.2l3.15.97c.68.21.67,1.76.32,2.61-9.75-4.16-20.27-4.37-31.38-5.59l16.85-.17,11.06,2.19Z" fill="#b8a37b"/>
  <path d="M289.73,644.26c-4.65,6.83-10.15,13.37-12.65,21.2l-1.72-2.05c3.02-7.04,7.42-14.05,13.13-19.14h1.24Z" fill="#99825e"/>
  <path d="M566.26,658.53l.59-1.51,22.78,17.31c-6.72-2.51-12.13-6.25-17.44-10.75l-5.94-5.04Z" fill="#99825e"/>
  <path d="M103.41,541.71c1.48-.64,4.49.91,4.66,2.27.21,1.6-.61,4.64-1.97,5.2s-4.1-.46-4.8-1.67c-1-1.71-.17-4.82,2.11-5.8Z" fill="#b1915e"/>
  <path d="M403.72,675.69c-3.2,4.54-7.42,8.87-12.18,12.49l-9.89,7.52c1.99-3.35,4.54-4.87,7.09-7.24l10.94-10.16,3.72-4.13.31,1.51Z" fill="#a39176"/>
  <polygon points="486.62 628.43 486.78 612.51 488.28 601.31 488.63 627.97 486.62 628.43" fill="#9b896b"/>
  <path d="M446.1,423.5l-.51,7.05c-1.79-9.98-1.43-20.93,3.73-29.77-1.96,8.59-2.69,15.4-3.22,22.72Z" fill="#9f8864"/>
  <polygon points="370.54 743.82 371.67 746.23 358.72 755.84 357.91 753.1 370.54 743.82" fill="#c6ae7c"/>
  <circle cx="919.6" cy="545.45" r="3.75" fill="#b1915e"/>
  <path d="M703.5,501.67c-1.84,2.24-2.44,6.35-2.94,10.14l5.16-8.36.72.65-5.09,10.4-2.88,1.32c.74-5.15.97-11.03,3.54-15.45l1.49,1.31Z" fill="#a48f6d"/>
  <path d="M664.56,749.14c1.48,1.7,4.53,4.51,6.75,4.99l3.03.65c.6.13.07,2.56-.54,2.46l-3.05-.5c-3.39-.55-7.65-2.4-8.39-5.03-.15-.53-.03-2.19.51-2.29l1.69-.29Z" fill="#a48f6d"/>
  <path d="M103.16,469.86c1.91-.95,4.61-.19,5.23,1.56.43,1.23-.12,3.81-1.33,4.65-1.09.77-3.67.04-4.98-1.09-1.48-1.28-1.23-3.98,1.08-5.13Z" fill="#9f855d"/>
  <path d="M724.55,656.94c-.83-.45,1.52-2.99,2.77-2.4,4.49,2.13,10.81-1.02,12.74-6.18.42,7.48-9.39,11.85-15.51,8.58Z" fill="#9f8864"/>
  <path d="M386.58,348.39l1.14,1.84c.21.47-.77,1.2-1.21,1.49l-.86-1.13-10.05,2.21c-3.48.76-6.82.88-9.99-.06l2.18-.81,10.97-1.68,7.82-1.85Z" fill="#a39176"/>
  <path d="M916.92,470.18c1.85-1.13,4.88-.71,5.35.5.58,1.49.61,4.26-.55,5.04-1.07.72-3.56.64-4.63.1-1.25-.63-1.38-4.9-.17-5.64Z" fill="#9f855d"/>
  <path d="M795.63,357.08c-.37-1.34-2.26-3.71-3.99-4.96l4.11-4.89c1.01,1.55,3.43,3.18,5.9,4.46-2.59,1.07-4.84,2.45-6.02,5.4Z" fill="#c2aa79"/>
  <path d="M444.49,341.4l-4.81,2.27-6.3-5.09-1.03-3.79c4.03,1.05,8.19,5.96,12.14,6.61Z" fill="#b1915e"/>
  <path d="M614.52,298.6l-1.92,5.16-.18-6.07-.04-6.01,1.22-8.02,1.14,7.98c.36,2.54.42,5.22-.22,6.95Z" fill="#c6ae7c"/>
  <path d="M702.75,761.32l-4.29-2.64c-.65-1.71-1.16-1.53-1.26.58l-4.41-3.97,3.69-2.11c2.8,1.05,7.12,4.24,6.27,8.14Z" fill="#ad9b78"/>
  <path d="M483.6,840.28c1.9-2.43,3.75-3.98,6.09-5.9l12.05-10.27c-2.16,4.47-5.78,6.94-9.34,9.92l-8.8,6.25Z" fill="#ac976f"/>
  <path d="M488.62,533.87l-1.03,20.41-2.17,1.17,2.14-24.19c.19.24,1.09,2.03,1.06,2.6Z" fill="#927953"/>
  <path d="M701.24,670.07c-3.65.42-6.77.42-11.52-.68,1.33-2.05,3.23-3.53,4.68-3.78,2.31-.4,4.49,1.48,6.84,4.46Z" fill="#99825e"/>
  <path d="M732.24,521.58l-1.15-.51c-2.32,1.32-4.74,2.28-6.94,2.47l-1.04-1.11,4-4.95,1.25,1.57c.39.46,1.64-.51,2.55-1.27l5.79,2.12-4.45,1.67Z" fill="#9f855d"/>
  <path d="M398.04,249.03l-3.64.94c-1.76-2.35-5.7-3.92-8.74-4.15-1.14-.82-4.57-2.11-6.37-2.08,6.31-1.11,13.6.88,18.76,5.29Z" fill="#927953"/>
  <path d="M507.41,747.29l1.57-.94,7.53,22.04c-4.04-6.76-6.8-13.87-9.1-21.09Z" fill="#99825e"/>
  <path d="M448.75,212.1l-5.81,7.1c-5.22,6.38-8.31,13.81-12.16,21.55,1.01-10.96,11.18-20.35,11.86-25.96.06-.5.1-1.62.59-1.72l1.32-.28,1.96-.41c.25-.05-.72-.5-.95-.64l1.63-1.83c.38-.43,1.41,1.95,1.57,2.19Z" fill="#ad9b78"/>
  <path d="M782.15,465.54l-.57-3.09-7.37,3.31c3.05-4.98,7.92-7.03,13.68-5.62l-5.74,5.4Z" fill="#a39176"/>
  <circle cx="512.42" cy="940.77" r="3.36" fill="#b7965f"/>
  <path d="M399.7,511.45c-3.13,7.8-2.5,14.83,1.05,23.88-5.44-5.26-5.09-16.27-2.12-24.84l1.06.96Z" fill="#9b896b"/>
  <path d="M352.72,479.52c-2.37,12.19.75,17.49-.58,25.07-2.04-8.69-1.8-17.12-.89-25.11l1.47.04Z" fill="#927953"/>
  <path d="M373.65,480.87l-4.22,19.41c-.85-7.47,1.15-14.29,2.94-21.22l1.28,1.82Z" fill="#9b896b"/>
  <circle cx="459.55" cy="897.12" r="3.2" fill="#b1915e"/>
  <path d="M403.66,502.53c-1.69,2.29-2.93,6.33-3.97,8.92l-1.06-.96-.36-2.88c-.06-.44-1.63,1.06-1.45,1.08l-.4-1.26,5.98-7.14,1.26,2.23Z" fill="#ad9b78"/>
  <path d="M535.54,340.62c-1.74,6.04-1.07,11.93.66,18.17-4.54-6.47-3.72-13.78-1.98-20.21l1.31,2.04Z" fill="#a48f6d"/>
  <path d="M449.8,754.34c-3.49,6.61-7.15,13.07-12.38,19.04l10.92-19.65,1.47.62Z" fill="#9b896b"/>
  <polygon points="460.86 572.59 459.42 571.33 467.08 554.47 467.69 556.06 460.86 572.59" fill="#a39176"/>
  <path d="M468.6,279.66c-1.52-.74-4.32-1.86-5.96-1.96l-4.05-.24,1.1-1.63,1.85-.95,8.92,1.24-1.85,3.53Z" fill="#c6ae7c"/>
  <polygon points="673.25 593.43 671.4 592.43 671.2 578.39 673.15 577.38 673.25 593.43" fill="#99825e"/>
  <circle cx="564.68" cy="897" r="3.05" fill="#af9364"/>
  <path d="M435.03,436.8l-1.74-.42,5.01-16.85c.98,6.34-1.03,12.02-3.27,17.28Z" fill="#9b896b"/>
  <polygon points="497.78 619.65 496.08 620.48 493.88 601.2 497.78 619.65" fill="#99825e"/>
  <path d="M467.46,306.35l1.08,1.61-13.11,5.09c3.2-4.46,7.72-5.38,12.03-6.69Z" fill="#ac976f"/>
  <path d="M591.01,380.96l-7.61.47c-.93.06-3.7.09-3.67-.73l.18-5.02,2.73,4.3c2.85-1.29,6.03-1.83,8.37.97Z" fill="#ad9b78"/>
  <path d="M515.48,202.71l-2.01,2.08c-4.84-.04-9.57,1.18-15.13.64,5.74-1.58,11.47-2.48,17.15-2.72Z" fill="#9b896b"/>
  <polygon points="740.17 400.73 740.37 413.44 738.87 416.72 738.25 404.64 740.17 400.73" fill="#927953"/>
  <path d="M604.25,649.64c-.26-.06-1.14,2.13-1.4,1.77l-1.44-2.03,1.44-3.17.59-13.78c.22-.63,1.03,1.71,1.02,2.26l-.22,14.95Z" fill="#9f8864"/>
  <path d="M610.37,434.65l.52-4.15,1.19.79.22-1c-.02.09-.61-.43-1.05-.76l2.07-5.96c2.18,3.78,1.51,9.63-2.95,11.08Z" fill="#ad9368"/>
  <path d="M675.34,293.55c-2.59-5.07-3.01-12.58.07-16.73l-1,7.14.93,9.58Z" fill="#c5b086"/>
  <path d="M555.29,827.85l.24,1.39-11.29,4.86c.57-1.54,2.25-3.69,3.63-4.09l7.43-2.16Z" fill="#c5b086"/>
  <path d="M273.52,313.82l-1.22-3.15-1.66,1.46c.12-2.96.52-5.84,1.54-9.56l1.34,11.25Z" fill="#b29c73"/>
  <polygon points="269.25 314.54 265.88 317.25 267.62 318.85 258.48 317.34 267.96 315.32 266.72 311.39 269.25 314.54" fill="#b8a074"/>
  <polygon points="642.13 395.66 642.41 399.59 640.35 397.63 640.58 386.53 642.13 395.66" fill="#ac976f"/>
  <path d="M429.48,420.68c1.23-3.5,3.19-6.02,6.19-8.17-1.21,3.5-3.19,6.03-6.19,8.17Z" fill="#b8a37b"/>
  <path d="M622.43,728.56c-.72-1.76-.14-4.27.66-5.71l3.18,1.27-3.84,4.44Z" fill="#a48f6d"/>
  <path d="M484.65,307.44l-13.09.25,6.15-1.09c2.01-.16,5.32.26,6.94.84Z" fill="#ac976f"/>
  <polygon points="276.64 318.57 279.69 317.24 276.77 315.69 284.99 317.35 276.64 318.57" fill="#b29c73"/>
  <path d="M631.36,718.68l-4.59,4.6c-.93-3.44,1.16-5.53,4.59-4.6Z" fill="#a48f6d"/>
  <path d="M275.68,314.76l-1.11-1.21c1.07-1.21,2.97-2.69,3.94-2.85l-2.83,4.06Z" fill="#b29c73"/>
  <path d="M677.36,299.61c-1,.07-2.11-.64-2.09-1.42l.08-3.44,2.01,4.86Z" fill="#c5b086"/>
  <path d="M643.35,394.54l-.09-5.89.09,5.89Z" fill="#ac976f"/>
  <path d="M488.54,636.37l-.79-6.16c.5,1.93.83,4.34.79,6.16Z" fill="#9b896b"/>
  <path d="M524.64,333.96c-1.89.62-4.69.69-6.14-.29l6.14.29Z" fill="#b8a37b"/>
  <path d="M803.43,802.44l-1.19,1.18-1.02-.96c-.29-.22.19-1.72.51-1.55l1.7,1.33Z" fill="#b49b6b"/>
  <path d="M642.41,399.59l-.61,1.33-1.41-2.32c-.07-.22-.05-.64-.05-.97l2.07,1.96Z" fill="#b8a37b"/>
  <path d="M587.52,238.68l-3.05-.94c.83.02,2.27.58,3.05.94Z" fill="#baa376"/>
  <path d="M378.68,514.64c.03-.88.39-2.86.86-3.25l-.86,3.25Z" fill="#a99169"/>
  <path d="M137.74,596.5l-.81-3.06.81,3.06Z" fill="#927953"/>
  <path d="M136.8,591.41l-1-2.98,1,2.98Z" fill="#927953"/>
  <path d="M675.41,275.72l1.02-2.24-1.02,2.24Z" fill="#c5b086"/>
  <path d="M610.89,430.49l.36-.97c.44.32,1.03.85,1.05.76l-.22,1-1.19-.79Z" fill="#b8a37b"/>
  <path d="M698.28,327.69l-2.07-.83,2.07.83Z" fill="#c2aa79"/>
  <path d="M581.45,230.76l-1.07-1,1.07,1Z" fill="#baa376"/>
  <path d="M583.58,232.84l-1.1-1.12,1.1,1.12Z" fill="#baa376"/>
  <path d="M409.57,256.77l-1.87-2.31c.58.49,1.55,1.67,1.87,2.31Z" fill="#a58a61"/>
  <path d="M680.29,305.74l-.97-1.01.97,1.01Z" fill="#c5b086"/>
  <path d="M679.36,303.69l-1.04-.96,1.04.96Z" fill="#c5b086"/>
  <path d="M299.68,836.21l-1.14-.86,1.14.86Z" fill="#a0865f"/>
  <path d="M678.36,301.69l-.95-.97.95.97Z" fill="#c5b086"/>
  <path d="M565.49,658.3l-1.1-.88,1.1.88Z" fill="#99825e"/>
  <rect x="427.73" y="420.74" width=".71" height=".71" transform="translate(-172.37 426.03) rotate(-45)" fill="#b8a37b"/>
  <path d="M519.4,79.82l1.41-.84-1.41.84Z" fill="#c6ae7c"/>
  <path d="M522.2,463.7c-8.23,2.1-15.8,9.49-15.26,10.13l1.13,1.34-10.76,12.53c2.77-6.53,5.97-11.73,10.18-17.47,2.08-2.84,7.19-5.51,10.42-6.97l4.55-2.73,1.75.27-2.02,2.9Z" fill="#b8a37b"/>
  <path d="M630.37,617.19c0,.44-.06.93.09,1.16l.98,1.03c-.42,9.97-3.54,20.04-10.14,27.83l3.9,14.5c1.07,7.83,4.15,15.36.97,23.56-1.66-12.68-2.4-23.79-6.11-35.25-3.99,4.38-5.01,8.59-6.35,13.48-.92-7.39,3.14-13.17,7.32-18.56,6.5-8.37,7.74-19.17,7.83-29.19l1.5,1.43Z" fill="#9f8864"/>
  <path d="M628.66,615.28l-1.16-3.02,1.16,3.02Z" fill="#9f8864"/>
  <path d="M430.83,348.54l-1.13,1.3c-3.8-3.29-8.82-6.95-8.93-12.17,3.57,4.24,6.34,8.43,10.06,10.88Z" fill="#a48f6d"/>
  <path d="M365.64,429.46l-11,9.94c-8.21,8.69-12.65,19.24-14.12,30.45h-2.15s-.69-6.16-.69-6.16c-.07-.66,1.18-1.86.91-2.46l-.83-1.84c-.97-2.15-.54-5.52.5-7.89l4.44-9.02.99,1.16c-2.48,5.67-4.39,12.2-3.76,19.08,3.68-11.45,9.54-22.04,19.23-29.56l1.47-1.14c.25-.19-.86-.49-1.11-.62l6.11-1.94Z" fill="#a39176"/>
  <path d="M336.87,582.46l1.52-.17c-.77,7.18-3.9,13.58-8.77,19.06l-4.68,5.25c-8,6.85-10.19,16.36-8.48,27.05-4.94-10.54-.53-22.02,7.85-29.52,6.67-5.97,11.11-13.42,12.56-21.66Z" fill="#ad9b78"/>
  <path d="M397.5,419.13l.19,1.51-18.97,4.34c-.23-.75-2.77-1.56-3.6-1.44.26-.14,1.99-.81,2.58-.91l19.81-3.49Z" fill="#9f8864"/>
  <path d="M339.68,532.03c.07-.52.73-1.74,1.16-1.57,1.42,3.97,3.66,8.78.31,13.89l-.68-11.83-.79-.49Z" fill="#c5b086"/>
  <path d="M340.61,528.48c-.51-.18-.85-2.34-.78-3.17l.78,3.17Z" fill="#c5b086"/>
  <path d="M373.52,288.58c.01.38-.01,1.43-.32,1.52l-2.77.35-3.1,2.75-2.73,2.48c1.04-6.97,7.83-11.14,14.01-13.75l.65-1.5,9.08,1.74c2.81.54,5.62,2.19,7.51,4.44l-8.04-2.27c-5.06-1.43-11.89-.05-14.3,4.23Z" fill="#b29c73"/>
  <path d="M366.71,301.88c-.96-.12-2.39-.57-2.51-1.26l-.5-2.88-.05-1.01.95-1.04,2.73-2.48,3.1-2.75,2.77-.35c.3-.09.33-1.14.32-1.52l9.48-2.87c1.17-.41,4.01.6,4.57,1.64-9.62-.19-17.89,6.02-20.86,14.53Z" fill="#b8a37b"/>
  <path d="M399.41,252.38l-6.01.85,10.27,4.54-13.13-.65-8.14.69,4.9-3.85,2.09-.8c.41-.16,1.16.69,1.74,1.27.82-1.08,1.94-2.61,3.1-2.85s4.17.18,5.17.82Z" fill="#ad9b78"/>
  <path d="M591.82,819.27l.63.75c6.77.85,13.31,1.56,18.55,5.97-6.89-1.86-12.32-4.05-18.42-3.63l-4.34-2.41,3.57-.68Z" fill="#b8a37b"/>
  <path d="M444.99,391.85l-1.59-.33c5.22-5.29,8.66-11.62,13.05-18.12-1.8,7.54-7.3,13.32-11.47,18.45Z" fill="#a39176"/>
  <path d="M359.32,608.37l-.54-1.11c-.1-.2-.21-.59-.08-.81l.57-1.25c6.49-14.8,7.01-30.76,1.03-46.39l-6.72-17.55c3.17,3.29,4.36,7.1,6.19,11.14,8.47,18.81,10.6,39.33-.45,55.96Z" fill="#9f8864"/>
  <path d="M357.66,592.46c-.03,8.94-5.12,17.87-12.13,23.76l-13.58,11.41c-3.84,3.22-7.4,6.63-9.09,10.97l-.91,1.07-1.21-1.96c4.31-7.52,11.04-11.49,17.06-17.34l10.08-9.78c5.23-5.07,7.17-12.3,8.89-19.21l.91-2.03v3.09Z" fill="#9b896b"/>
  <path d="M341.06,631.59c-6.7,8.07-11.61,16.95-15.15,26.74-.1-1.89.35-4.91,1.1-6.48l7.66-16c1.01-2.11,3.69-4.11,6.39-4.27Z" fill="#ad9b78"/>
  <path d="M358.81,610.49l.58-1.27-.58,1.27Z" fill="#9f8864"/>
  <path d="M402.84,325.67l-2.5,3.85c-.71,1.58-1.76,3.27-2.59,4.31l-7.18,8.98-1.02-1.5c2.04-1.93,5.31-6.02,6.54-8.8l5.36-12.12.55-8.81c2,4.45,2.11,9.73.84,14.09Z" fill="#ad9b78"/>
  <path d="M396.65,345.69l1.04-4.04c1.44,2.13,5.17-5.29,7.74-10.96.68,6.71-4.69,11.01-8.78,15Z" fill="#a39176"/>
  <path d="M401.9,330.9l.71-3.2-.71,3.2Z" fill="#ad9b78"/>
  <path d="M396.74,393.86l-.18-2.32c7.5-4.31,13.61-11.29,15.81-20.21l3.91-15.82c1.88,15.99-7.15,29.84-19.55,38.35Z" fill="#ad9b78"/>
  <path d="M387.54,369.4l.22-1.91c7.56-2.57,13.26-9.01,15.94-16.65l3.64-10.33c.18,8.62-3.19,16.76-9.13,22.81-2.72,2.77-7.42,4.65-10.67,6.08Z" fill="#ad9b78"/>
  <path d="M291.78,644.29l-1.19-5.95,5.47,2.49c.46.21,2.04,2.09,1.51,2.18l-3.7.67c4.14,5.9,11.91,7.69,19.23,5.29-6.98,5.63-17.4,1.76-21.34-4.68Z" fill="#9b896b"/>
  <polygon points="385.29 402.09 385.96 402.09 386.61 402.11 385.96 402.13 385.29 402.13 384.63 402.11 385.29 402.09" fill="#a48f6d"/>
  <path d="M409.99,327.32l2.93,10.25c1.74,6.08,6.06,11.74,10.97,15.79,7.96,6.57,17.57,5.77,28.01,4.44-14.8,7.42-31.6,1.17-39.03-13.46-4.53-8.91-6.66-18.35-4.29-27.6.05,3.47.47,7.3,1.41,10.59Z" fill="#a58d65"/>
  <path d="M286.81,698.19l-.16,1.09-1.91.04-.06-2.11c.47.02.77.04.99.19l1.13.79Z" fill="#9f8864"/>
  <rect x="799.37" y="803.36" width=".71" height=".71" transform="translate(-334.08 800.89) rotate(-45)" fill="#b49b6b"/>
  <path d="M631.43,619.38l-.98-1.03.98,1.03Z" fill="#c0a673"/>
  <path d="M368.73,420.48c4.01-3.92,9.53-6.71,15.33-8.47l26.82-8.14c7.82-2.37,15.27-6.35,21.06-11.9l13.9-13.3c-5.97,10.06-15.25,17.92-25.67,23.41-8.12,4.28-17.16,6.35-25.96,9.07-8.93,1.74-16.27,5.39-25.48,9.31Z" fill="#ad9b78"/>
  <path d="M398.49,316.12c-3.04,3.74-9.2,3.45-13.62.07-3.66-2.79-4.94-7.83-4.14-12.78.59-3.62,3.41-8.41,7.99-9.81-4.15,4.63-7.23,8.6-6.13,15.36.39,2.38,2.84,5.84,4.88,6.82,2.66,1.28,6.92.86,11.02.33Z" fill="#a48f6d"/>
  <path d="M395.8,330.08c-1.63,4.6-8.78,7.55-13.99,6.27-3.38-.83-6.66-5.2-5.85-8.81l3.89,5.85c5.3,3.39,10.62,0,15.94-3.31Z" fill="#9b896b"/>
  <path d="M394.43,309.57c-6.62,1.23-7.23-12.4-4.83-14.94,1.33-1.41,3.75-2.69,6.15-2.97l-3.82,3.37c-2.82,4.9-1.66,11.09,2.5,14.53Z" fill="#ad9b78"/>
  <path d="M383.57,270.79c-2.21.07-5.93,2.37-8.23,3.67,3.38-6.44,12.22-7.18,18.38-4l-10.15.32Z" fill="#9b896b"/>
  <rect x="357.91" y="421.88" width="8.48" height="1.41" transform="translate(-192.74 379.85) rotate(-45)" fill="#a39176"/>
  <rect x="365.11" y="415.39" width="7.06" height="1.41" transform="translate(-186.25 382.54) rotate(-45)" fill="#a39176"/>
  <path d="M357.66,592.46v-3.09c.03-4.59.55-10.36-.83-15.12-2.71-9.38-7.95-18-7.99-27.76l-.06-16.05,1.18.66,1.07,18.09c.67,11.26,12.94,25.07,6.62,43.26Z" fill="#a39176"/>
  <path d="M373.84,574.05c-2.92-11.22-5.4-21.39-10.17-31.65-2.63-4.66-5.89-8.53-6.66-14.61l8.02,13.46c4.27,10.25,10.01,20.74,8.81,32.8Z" fill="#a48f6d"/>
  <path d="M295.76,608.69l-1.44-.75c1.95-7.07,4.58-13.82,9.82-19.14l11.45-11.61,1.29,1.28-11.68,12.4c-4.59,4.87-7.47,11.66-9.44,17.82Z" fill="#ad9b78"/>
  <path d="M333.16,489.44c-4.43-9.69-3.1-21.51,2.38-31.09-1.47,7.07-3.38,13.25-2.99,20.1l.61,10.98Z" fill="#a39176"/>
  <path d="M295.76,608.69c-2.43,7.59-.76,14.36,1.88,21.95-5.57-6.4-5.44-15-3.31-22.7l1.44.75Z" fill="#99825e"/>
  <path d="M337.69,463.68l.08-4.3.83,1.84c.27.61-.98,1.81-.91,2.46Z" fill="#9f855d"/>
  <path d="M358.71,606.45l.57-1.25-.57,1.25Z" fill="#9f855d"/>
  <path d="M286.81,698.19l-1.13-.79,1.13.79Z" fill="#927953"/>
  <path d="M363.66,296.72l.95-1.04-.95,1.04Z" fill="#9f855d"/>
  <rect x="680.13" y="485.58" width="1.41" height="9.89" transform="translate(-147.44 625.09) rotate(-45)" fill="#af9a72"/>
  <path d="M337.91,661.75l-1.53-1.88c2.12-8.89,6.4-17.73,13.17-23.5-3.86,9.44-11.58,16.06-11.64,25.38Z" fill="#b8a37b"/>
  <path d="M337.91,661.75l-.09,12.69,2.76,9.03c-4.35-4.18-5.7-10.16-5.03-16.16l.83-7.45,1.53,1.88Z" fill="#9b896b"/>
</svg>
