<svg xmlns="http://www.w3.org/2000/svg" width="1024" height="1024" fill="none" viewBox="0 0 1024 1024">
  <path fill="currentColor" d="M529.89 169.884c5.04.725 10.165.977 15.235 1.501 48.41 5.012 99.01 21.512 140.02 47.961 83.98-24.05 126.9 11.374 118.565 98.467-.64 6.691-1.965 13.713-2.475 20.342 4.305 6.097 9.04 15.324 12.385 22.033a346.06 346.06 0 0 1 31.88 97.49c1.53 9.372 2.13 18.773 3.815 28.051.445 2.464 5.275 7.26 6.845 9.541 11.575 16.805 3.995 29.705-7.035 42.755a348.535 348.535 0 0 1-93.39 210.29c-8.05 8.51-20.94 19.89-29.765 27.505-6.165 5.32-33.68 26.355-40.02 28.455-4.135-.49-32.99 21.06-36.845 17.275 1.58-4.035 28.92-14.125 33.525-20.77 3.48-3.205 11.65-7.725 15.94-10.705A370.778 370.778 0 0 0 731.935 764c65.05-58.205 101.495-134.335 111.485-220.495-7.81 5.695-13.37 9.655-21.425 14.97-1.875 9.91-3.665 19.095-6.285 28.845-19.63 72.95-66.39 135.495-128.74 177.97a316.017 316.017 0 0 1-71.195 36.135c-7.69 2.775-15.665 4.71-22.945 7.26-3.98.955-7.94 1.98-11.93 2.905a309.826 309.826 0 0 1-177.476-11.975c-6.519-2.45-22.965-8.86-28.772-12.485-10.933 3.24-24.223 8.55-34.873 11.17l-.458.57c1.833 2.555 10.792 7.25 13.93 9a333.85 333.85 0 0 0 105.888 37.6 337.397 337.397 0 0 0 35.08 4.11c.875-3.67 1.27-6.125 3.801-9.05 4.43-6.255 13.99-7.83 20.88-5.125 4.47 1.35 7.71 5.19 9.385 9.42-1.04 2.13 1.545 5.125.695 9.995-.83 4.77-3.2 6.75-3.81 9.675-8.445 9.09-22.415 6.87-28.817-3.525-1.248-2.025-1.887-4.605-2.548-6.9-55.208-1.89-115.895-23.505-162.018-53.455-27.348 6.685-66.371 12.055-92.364.515-50.375-22.365-39.254-81.795-21.99-121.89-6.402-12.615-12.365-24.415-17.786-37.53a350.103 350.103 0 0 1-24.758-103.78c-1.924-2.585-4.088-5.23-6.1-7.765-1.759-.215-3.708-.445-5.409-.935a18.112 18.112 0 0 1-10.759-8.72c-2.251-4.17-2.854-9.335-1.436-13.865 2.615-9.269 9.558-12.097 18.321-13.271.343-1.722 4.159-5.663 5.556-7.239 4.504-42.512 11.987-76.681 30.353-115.774 1.865-3.97 7.34-16.055 9.776-19.346l.482.843-.058.68c2.286 1.133 3.219.046 5.205-1.529-4.547 10.074-9.862 19.391-14.485 30.088-14.492 33.527-21.001 63.909-25.625 99.841 8.258-6.357 13.803-9.193 21.427-14.516 2.377-14.393 5.019-28.135 9.525-42.064a410.648 410.648 0 0 1 6.234-18.22c28.54-76.977 89.448-144.364 164.444-178.384a316.042 316.042 0 0 1 217.81-15.144 319.982 319.982 0 0 1 31.72 11.259c5.78 2.466 12.125 5.814 17.845 7.943l.565.206c8.91-5.011 20.575-6.81 28.22-10.68-3.965-3.226-15.39-8.951-20.25-11.451-36.005-18.511-87.83-33.797-128.515-34.371l.155-5.632Zm118.565 543.951c-30.595 17.695-55.205 30.17-90.845 36.585-8.335 1.505-20.325 3.515-28.67 3.635-1.03 5.12-2.5 8.775-7.115 11.915a17.45 17.45 0 0 1-13.51 2.495 16.403 16.403 0 0 1-10.483-7.33c-1.245-1.96-2.133-4.75-2.756-7.005-15.037-1.305-24.697-2.55-39.539-5.54-4.057 1.565-13.297 6.895-17.576 9.18a760.625 760.625 0 0 1-27.852 14.025c-2.322 1.1-10.386 4.925-12.656 5.51l-.708-.325c3.201-2.525 16.791-7.22 21.306-9.99 10.019-6.14 29.937-13.995 38.464-20.85-1.88-1.935-2.343-1.06-4.52-1.115.106 0-2.693-2.26-3.535-2.72-18.259 10.985-32.881 17.215-51.073 26.555l-1.313-.52c10.79-5.16 21.646-10.2 32.232-15.78 4.642-2.445 10.442-5.115 14.601-8.145-34.16-8.6-71.941-30.75-97.653-54.72-2.514 1.295-3.212 1.595-5.929 2.355 4.329-3.245 5.55-3.905 9.481-8.065-.086 1.395-.255 2.37.948 3.46 23.769 21.575 52.236 38.63 82.651 49 5.333 1.82 10.414 3.935 15.596 5.2 3.192-1.41 13.153-7.535 16.444-9.615 8.779-5.55 19.663-11.51 27.963-17.465 1.958-1.4 3.434-2.575 5.292-4.105 3.385-.985 38.68-26.675 43.4-30.49-30.35-12.995-63.095-32.865-90.716-50.965-8.017-5.25-20.127-15.245-27.687-19.365-1.167-1.965-4.312-4.015-6.234-5.43a586.693 586.693 0 0 1-63.394-59.52c-6.957-7.59-13.962-17.405-20.663-24.385l-.363-.375c-4.454 5.89-12.862 14.595-18.177 20.135-.294-1.55-.503-4.525-.675-6.2 4.918-4.775 11.75-12.12 16.15-17.355-2.467-4.51-12.898-18.297-16.387-23.279l-.395-.412c-1.69-.432-1.611-.346-2.949-1.438l-.207-2.235-.535.15c.158 1.494.153.951-.223 2.466-.253-.209-.441-2.382-.513-2.915-.301-5.046-2.536-7.515-5.008-11.752-5.526-9.468-10.776-18.947-15.146-29.008l.458-.045.233-.766c-2.437-3.666-4.216-10.132-6.669-14.094-2.065-3.337-2.297-7.506-4.041-11.164l-.694.041c-1.75-3.915-3.998-11.935-5.151-16.29-7.328-27.673-9.18-50.57-2.982-78.773-3.246 3.286-7.867 10.029-10.554 13.983a317.785 317.785 0 0 0-32.106 59.798 351.133 351.133 0 0 0-6.134 16.411c-.354 1.007-2.021 6.177-2.284 6.72-2.675.039-3.401 1.178-6.392.45-4.506 13.929-7.148 27.671-9.525 42.064-7.624 5.323-13.169 8.159-21.427 14.516 4.624-35.932 11.133-66.314 25.625-99.841 4.623-10.697 9.938-20.014 14.485-30.088-1.986 1.575-2.919 2.662-5.205 1.529l.058-.68-.482-.843c-2.436 3.291-7.911 15.376-9.776 19.346-18.366 39.093-25.849 73.262-30.353 115.774-1.397 1.576-5.213 5.517-5.556 7.239-8.763 1.174-15.706 4.002-18.321 13.271-1.418 4.53-.815 9.695 1.436 13.865a18.112 18.112 0 0 0 10.759 8.72c1.701.49 3.65.72 5.409.935 2.012 2.535 4.176 5.18 6.1 7.765a350.103 350.103 0 0 0 24.758 103.78c5.421 13.115 11.384 24.915 17.786 37.53-17.264 40.095-28.385 99.525 21.99 121.89 25.993 11.54 65.016 6.17 92.364-.515 46.123 29.95 106.81 51.565 162.018 53.455.661 2.295 1.3 4.875 2.548 6.9 6.402 10.395 20.372 12.615 28.817 3.525.61-2.925 2.98-4.905 3.81-9.675.85-4.87-1.735-7.865-.695-9.995-1.675-4.23-4.915-8.07-9.385-9.42-6.89-2.705-16.45-1.13-20.88 5.125-2.531 2.925-2.926 5.38-3.801 9.05a337.397 337.397 0 0 1-35.08-4.11 333.85 333.85 0 0 1-105.888-37.6c-3.138-1.75-12.097-6.445-13.93-9l.458-.57c10.65-2.62 23.94-7.93 34.873-11.17 1.94-1.555 4.323-2.06 6.72-2.61 68.592 30.61 136.643 37.97 209.798 18.895 6.905-1.715 14.29-4.395 21.02-6.69 37.375-12.755 71.305-33.88 101.34-59.315 7.13-6.035 19.07-16.82 24.825-24.16-13.48 5.245-61.545 5.265-76.57 2.31-3.535-.16-9.935-1.12-13.33-1.725Zm95.59-121.725c-1.715 7.265-7.8 19.55-11.175 26.255a247.387 247.387 0 0 1-58.25 75.09c-6.44 5.69-13.085 10.47-19.58 15.885 3.39 1.195 8.7.86 12.61 1.79 1.915-.21 7.675.38 9.945.71 22.78 3.345 42.79-.57 65.275-3.63 3.725-3.67 7.115-7.625 10.38-11.73 23.05-28.945 41.215-61.515 52.685-96.73 4.22-12.96 6.66-25.035 9.96-38.075-14.07 6.11-27.805 12.345-42.455 17.09-9.095 2.95-18.39 5.3-27.515 8.14l-1.88 5.205ZM604.03 693.215l-5.07 3c15.565 5.515 32.62 7.86 48.09 12.08l.34-.16c4.645-2.105 16.745-12.005 20.99-15.57a245.299 245.299 0 0 0 61.955-79.64c3.805-7.725 6.94-16.275 10.45-24.18-3.61-.065-8.27 1.34-11.805 2.275-10.38 2.745-20.99 4.44-31.45 6.8-18.925 36.1-42.775 65.2-77.91 86.855-3.915 2.415-11.515 7.3-15.59 8.54Zm-96.175 22.725c-7.926 4.925-15.69 10.325-23.656 15.36-6.879 4.345-16.291 9.205-22.67 13.78 8.191 2.33 24.834 4.025 33.433 4.545a55.4 55.4 0 0 1 .758-2.235c1.815-4.93 5.05-8.945 9.97-11.025a16.869 16.869 0 0 1 13.545.2c6.1 2.8 7.9 7.305 10.07 13.015 30.985-1.515 64.65-11.515 92.09-25.645 7.075-3.64 13.145-6.365 19.59-11.24-2.09-1.15-20.37-4.815-24.52-5.855-7.78-1.95-16.09-4.575-23.9-6.755-.945-.265-3.36.44-4.415.725-26.45 11.01-51.915 14.83-80.295 15.13ZM758.82 280.939c8.24 7.721 17 20.268 24.12 29.15 2.215 2.758 8.66 13.474 10.545 14.189l.33-.231c2.775-21.736 2.58-42.398-3.18-63.8-11.78-43.758-61-48.279-98.89-36.947 24.43 16.933 47.67 34.753 67.075 57.639ZM655.455 234.69l.515.356c4.62 3.112 10.48 6.013 15.38 8.885a303.72 303.72 0 0 1 18.805 12.233c29.55 20.758 56.195 48.275 77.19 77.615 6.575 9.194 12.225 19.913 18.2 28.194 1.755-6.168 2.955-11.607 4.195-17.891.345-1.758 1.61-8.028 2.15-9.367-.005-8.615-31.05-44.311-37.8-52.135-17.86-19.116-35.99-35.439-57.775-50.062-3.21-2.155-9.345-6.62-12.815-7.497-9.12 3.023-19.185 6.151-28.045 9.669Zm136.38 139.592c10.875 23.832 20.895 45.947 26.15 71.854 1.37 6.75 2.67 14.084 4.295 20.71 8.65 5.227 13.245 8.188 21.195 14.409-.44-3.612-1.895-13.081-2-16.309-.905-3.193-1.945-10.14-2.595-13.654a331.026 331.026 0 0 0-4.645-21.475c-7.835-31.123-19.565-57.355-34.665-85.351-2.5 10.265-4.615 19.643-7.735 29.816Zm-44.98 64.109 5.56 2.152c2.4-3.948 5.555-10.725 7.675-15.026a365.529 365.529 0 0 0 22.64-56.195c-12.295-25.06-50.035-74.207-73.125-90.057-20.145 3.632-40.785 10.128-59.925 17.395-2.605.988-9.745 3.487-11.705 5.029 14.06 9.922 25.82 16.677 38.655 28.929.785.691 2.81 2.831 3.805 2.647 2.07-.383 5.105-2.213 7.195-1.997 14.005 1.448 16.22 12.057 11.79 23.169 1.65 1.879 4.105 4.505 5.525 6.461 1.715 1.25 6.225 7.756 7.765 9.888 15.515 21.535 25.16 42.836 34.145 67.605Zm-313.487-23.985c5.904-4.334 12.112-8.95 18.765-12.337 7.006-3.567 14.562-6.301 20.84-11.138 4.293-3.308 8.756-6.364 13.152-9.382a1232.611 1232.611 0 0 1 42.4-27.971c14.57-9.122 29.575-17.958 44.78-25.979 2.525-1.334 5.095-2.607 7.5-4.151-6.73-3.1-19.78-6.575-27.16-8.065a202.397 202.397 0 0 0-109.996 7.907 198.693 198.693 0 0 0-102.255 84.342c-2.763 4.601-8.606 12.865-9.415 17.954 1.048.931.467.554 1.919.88 4.582-3.648 87.87-11.292 99.47-12.06Zm159.157-91.667.435.27c48.08 21.269 82.84 57.337 105.465 104.189 8.095 1.694 16.215 3.255 24.285 5.017 6.2 1.354 12.485 3.359 18.62 4.78a246.202 246.202 0 0 0-26.345-54.637c-4.025-6.153-8.84-11.987-12.7-17.904-2.055-2.462-3.98-4.768-6.16-7.128-16.025 4.664-26.485-4.788-19.6-20.675l-4.155-4.03c-3.21-2.067-6.565-5.653-9.715-7.979-8.64-6.383-21.065-15.937-30.725-20.392-10.32 4.444-29.955 12.934-39.405 18.489Zm.605 93.877c52.745 47.325 59.325 125.874 11.34 178.894-9.38 10.365-27.345 24.7-40.91 29.77-2.065 1.495-6.28 2.9-8.72 3.805-25.1 9.3-52.315 9.31-78.036 2.505-4.278-1.135-14.63-6.145-18.189-6.245 4.396 4.01 12.843 8.88 18.017 12.225 22.824 14.73 45.868 26.225 70.113 38.225 15.735-13.55 31.295-25.43 47.225-39.585a818.665 818.665 0 0 0 93-98.135c5.04-6.27 22.09-27.7 25.505-33.9-3.37-25.476-4.665-42.583-15.165-67.26-.655-1.785-1.725-3.891-2.545-5.648-30.435-5.996-65.935-8.561-96.95-11.701-1.625-1.751-2.365-2.709-4.685-2.95ZM569.75 685.45c6.685 2.725 16.07 6.475 22.875 8.59a207.954 207.954 0 0 0 89.515-78.41c1.745-2.795 9.675-14.505 8.855-16.585l-1.735.085a770.377 770.377 0 0 1-48.895 6.85c-27.61 27.245-52.54 50.57-83.495 74.41 3.59 1.36 9.67 4.085 12.88 5.06ZM428.547 418.3c-4.873 1.692-30.432 3.59-37.415 4.312-19.776 2.044-38.864 5.336-58.404 7.941-1.682.27-1.651.229-3.17.969-6.417 7.302-13.107 38.573-15.392 48.843 3.456 6.688 16.148 24.395 21.093 30.34 7.289-8.93 10.733-11.786 18.649-19.673a961.083 961.083 0 0 1 39.558-37.149c6.372-5.716 12.937-10.766 18.526-17.268 5.357-6.23 11.145-12.108 16.555-18.315ZM529.12 272.764l-.57 1.49c-6.565 17.345-28.962 16.683-33.511-2.026-19.198 2.563-29.926 3.817-49.132 8.636-12.169 4.005-23.48 7.744-35.118 13.168a243.76 243.76 0 0 0-113.732 109.184c-3.437 6.804-7.536 15.289-10.223 22.44 1.137 2.755 2.59 6.052 3.519 8.831 11.314-1.796 22.404-5.555 33.902-6.921.714-.485 1.27-1.036 1.658-1.818 4.994-10.075 9.79-19.1 16.12-28.457a223.826 223.826 0 0 1 46.263-49.178C431.412 314.34 491.243 300.062 545 309.037c7.745 1.137 15.17 3.036 22.705 5.026 5.425 1.432 14.375 5.663 19.55 6.049 8.26-5.215 30.08-14.973 39.555-19.006-26.085-15.407-67.46-27.053-97.69-28.342ZM749.615 466.77c-9 13.111-16.795 27.968-26.635 40.665-6.495 8.385-6.76 10.465-7.015 20.845-.55 22.495-7.575 43.385-15.725 64.075 7.6-1.875 38.145-7.395 42.705-10.31l.285-.515c8.985-33.035 12.65-59.345 9.08-93.889-.63-6.06-1.285-15.134-2.695-20.871Zm-411.761 47.685a576.161 576.161 0 0 0 39.012 44.55c4.441 4.555 15.271 13.605 18.47 17.41 6.61 5.785 21.04 18.96 27.604 23.215-25.605-30.13-38.64-57.66-35.356-98.27a127.86 127.86 0 0 1 6.283-30.198c.874-2.535 5.664-13.688 5.78-14.991l-.549-.276c-12.959 10.722-27.836 25.272-39.969 37.008-5.831 5.64-16.095 15.592-21.275 21.552Zm422.836-67.427-7.905 14.217c8.965 34.162 6.845 86.085-4.77 119.6 3.38.025 11.78-2.865 15.25-3.935 18.995-5.86 35.985-12.11 53.435-21.62 4.23-33.185 4.2-52.155-.005-85.784-18.995-10.584-35.96-15.214-56.005-22.478Zm-59.745-14.303c1.825 5.806 4.54 11.594 6.235 17.204 4.75 15.748 8.71 32.932 9.01 49.367 4.05-5 8.53-12.445 12.135-17.998 6.07-9.572 12.52-19.58 17.595-29.691l-3.22-9.744c-11.74-2.785-30.53-7.767-41.755-9.138ZM835.57 543.4c4.075-3.24 8.56-5.775 8.76-10.98.455-11.81 1.565-32.654-.425-44.01-5.685-5.248-14.005-12.076-21-15.609 2.25 26.505 4.605 52.694-.065 79.339a80.897 80.897 0 0 0 12.73-8.74ZM643.375 235.597c-13.29-6.873-28.15-12.263-42.47-16.54a310.467 310.467 0 0 0-182.176 1.189c-43.667 13.884-82.283 36.494-115.47 68.09-16.528 15.736-26.481 24.147-29.487 47.608-3.622 28.257.187 52.224 8.9 79.048.475 1.456.989 2.9 1.542 4.328a247.45 247.45 0 0 1 137.04-134.835c4.855-1.98 16.228-6.159 21.29-7.238 13.321-3.829 38.193-9.419 52.016-9.29 1.911-6.129 3.648-11.054 9.96-14.19a16.86 16.86 0 0 1 13.485-.605c6.335 2.381 10.315 8.225 11.38 14.749 37.735 1.891 69.705 14.032 102.99 30.601 23.325-9.498 48.245-19.252 73.31-22.727-13.045-11.639-42.01-31.628-58.105-38.142-1.93.573-9.225 4.078-11.325 5.049a640.162 640.162 0 0 0-30.335 15.067c-3.64 1.973-14.485 9.471-17.72 8.31l.465.286-.475-.432c2.675-5.113 47.545-27.013 55.185-30.326Zm50.93 357.898c10.02-24.335 15.8-42.6 17.57-69.25l-.41-.75c-13.065 16.07-24.69 31.485-38.43 47.28a603.069 603.069 0 0 1-16.4 18.075c-2.22 2.36-9.145 9.29-10.505 11.62l.475.575c5.085-.98 9.92-1.225 14.89-2.03 10.68-1.73 22.305-3.195 32.81-5.52Zm94.69-211.247a461.107 461.107 0 0 1-15.6 38.825c-3.43 7.461-7.24 14.624-10.66 21.953 8.75 2.034 25.78 8.339 34.23 11.95l18.84 8.285c-3.91-18.086-8.21-36.621-14.935-53.893-1.775-4.56-8.985-24.272-11.875-27.12ZM515.185 711.11c9.18-.1 20.815-1.305 29.935-2.6 11.85-2.14 28.055-5.955 39.045-10.96-7.615-3.59-24.225-9.66-32.7-13.01-11.37 8.57-24.575 18.645-36.28 26.57ZM849.52 530.045c.495-.6 2.62-3.09 2.94-3.595 5.745-9.485 5.785-24.645-3.105-32.169.52 13.354.59 22.454.165 35.764Zm-527.004-97.252a585.256 585.256 0 0 0-30.187 6.214c4.606 10.753 12.291 25.307 18.4 35.31 1.903-14.577 7.584-27.838 11.787-41.524Zm159.509-42.342c2.671-.456 5.346-.894 8.024-1.315 40.086-6.245 69.196 2.413 101.401 25.98 3.33-.719 15.775.688 19.765 1.042a1176.216 1176.216 0 0 1 66.29 7.429c2.055.305 13.695 2.621 14.76 2.089l-.31-1.992c-1.15-1.493-4.425-7.747-5.62-9.878a189.26 189.26 0 0 0-10.25-16.503c-23.455-33.417-52.25-55.957-89.52-71.683-8.3 4.091-16.615 9.186-24.71 13.725-27.82 15.602-53.53 33.277-79.83 51.106Zm-30.619 225.614c40.95 23.81 92.044 21.43 130.609-6.075 43.52-31.045 61.4-87.045 43.925-137.567-17.48-50.522-66.14-83.501-119.545-81.016-53.4 2.485-98.788 39.841-111.499 91.767-12.71 51.926 10.293 106.021 56.51 132.891Z"/>
  <path fill="currentColor" fill-opacity=".98" d="M736.565 650.255c2.355 4.645.435 5.055 5.26 10.26 2.06.805 4.76 1.5 6.93 2.12-8.6 1.5-9.685 2.49-11.98 10.855l-.705.22c-1.965-9.5-4.555-9.87-13.475-10.98 9.25-1.42 11.425-3.43 13.97-12.475Z"/>
  <path fill="currentColor" d="M339.325 692.05c4.329-3.245 5.55-3.905 9.481-8.065-.086 1.395-.255 2.37.948 3.46 23.769 21.575 52.236 38.63 82.651 49 5.333 1.82 10.414 3.935 15.596 5.2l-5.094 2.77c-34.16-8.6-71.941-30.75-97.653-54.72-2.514 1.295-3.212 1.595-5.929 2.355Z"/>
  <path fill="currentColor" d="M667.65 711.13c1.915-.21 7.675.38 9.945.71 22.78 3.345 42.79-.57 65.275-3.63-1.555 2.01-2.505 3.455-4.515 5.04-13.48 5.245-61.545 5.265-76.57 2.31-3.535-.16-9.935-1.12-13.33-1.725 1.155-1.1 4.67-2.95 6.585-4.495 3.39 1.195 8.7.86 12.61 1.79Z"/>
  <path fill="currentColor" d="M648.455 713.835c1.155-1.1 4.67-2.95 6.585-4.495 3.39 1.195 8.7.86 12.61 1.79-5.86 1.26-11.24-2.64-15.015 2.47 1.47.98 11.19.625 12.12 1.67l-2.97.29c-3.535-.16-9.935-1.12-13.33-1.725ZM329.34 516.51a368.498 368.498 0 0 1 2.702 3.42c-4.453 5.89-12.862 14.595-18.177 20.135-.294-1.55-.503-4.525-.675-6.2 4.919-4.775 11.75-12.12 16.15-17.355Z"/>
  <path fill="currentColor" d="m215.191 351.015.482.843-.058.68c2.286 1.133 3.219.046 5.205-1.529-4.547 10.074-9.862 19.391-14.485 30.088-14.492 33.527-21.001 63.909-25.625 99.841 8.258-6.357 13.803-9.193 21.427-14.516 2.377-14.393 5.019-28.135 9.525-42.064 2.991.728 3.717-.411 6.392-.45-2.955 9.884-8.413 28.615-9.281 38.933 3.069-.683 17.832-7.751 21.88-9.315 14.732-5.689 30.826-11.52 46.19-15.085.751-1.471 2.394-6.259 3.034-8.037l-2.612-8.345.694-.041c1.744 3.658 1.976 7.827 4.041 11.164 2.453 3.962 4.232 10.428 6.669 14.094l-.233.766-.458.045c-1.112-2.296-2.117-4.931-3.913-6.632-4.461.387-6.281 12.116-7.242 16.046a233.687 233.687 0 0 0-1.933 99.839c1.055 5.325 2.795 12.85 4.657 17.815 8.038-12.135 19.379-24.42 28.888-35.385-1.742-20.46-1.755-30.26-.303-50.923.072.533.26 2.706.513 2.915.376-1.515.381-.972.223-2.466l.535-.15.207 2.235c1.338 1.092 1.259 1.006 2.949 1.438l.395.412c-2.103 6.939-1.106 32.949.237 40.634.172 1.675.381 4.65.675 6.2 2.908 17.42 7.762 37.695 15.705 53.545 11.695 2.64 77.759 11.87 86.892 10.6 1.922 1.415 5.067 3.465 6.234 5.43a880.367 880.367 0 0 1-90.785-10.885c30.192 56.53 80.202 96.655 143.842 108.955 7.23 1.395 14.586 2.45 21.946 2.75-1.858 1.53-3.334 2.705-5.292 4.105-1.67-.61-13.502-1.595-16.547-2.145a203.488 203.488 0 0 1-41.111-12.16c-39.35-16-74.772-46.445-97.24-82.49-3.869-6.205-7.955-13.055-10.786-19.775-15.165-2.81-28.414-6.05-43.373-9.705 8.002 24.78 28.081 58.945 45.447 78.265 9.336-3.07 19.078-1.14 21.466 10.655.364 1.795-.214 5.33-1.458 6.775-3.931 4.16-5.152 4.82-9.481 8.065-13.353 3.6-20.222-10.57-14.182-22.48-3.985-5.275-8.112-9.87-12.112-15.365a275.483 275.483 0 0 1-27.278-46.76c-3.044-6.475-4.659-13.805-7.964-20.08-.581-.32-1.162-.645-1.743-.965-3.318 6.39-7.342 11.655-11.399 17.56a1121.97 1121.97 0 0 0-14.295 21.585c-4.198 6.555-7.872 15.04-12.368 21.02 32.866 60.915 72.398 98.86 132.354 132.375 6.417-2.045 12.239-4.8 18.398-7.46 1.276-.555 6.261-2.895 7.338-3.14l1.313.52c18.192-9.34 32.814-15.57 51.073-26.555.842.46 3.641 2.72 3.535 2.72 2.177.055 2.64-.82 4.52 1.115-8.527 6.855-28.445 14.71-38.464 20.85-4.515 2.77-18.105 7.465-21.306 9.99l.708.325c-5.124 2.77-11.509 4.495-16.081 7.215-2.397.55-4.78 1.055-6.72 2.61-10.933 3.24-24.223 8.55-34.873 11.17l-.458.57c1.833 2.555 10.792 7.25 13.93 9a333.85 333.85 0 0 0 105.888 37.6 337.397 337.397 0 0 0 35.08 4.11c.875-3.67 1.27-6.125 3.801-9.05 4.43-6.255 13.99-7.83 20.88-5.125 4.47 1.35 7.71 5.19 9.385 9.42-1.04 2.13 1.545 5.125.695 9.995-.83 4.77-3.2 6.75-3.81 9.675-8.445 9.09-22.415 6.87-28.817-3.525-1.248-2.025-1.887-4.605-2.548-6.9-55.208-1.89-115.895-23.505-162.018-53.455-27.348 6.685-66.371 12.055-92.364.515-50.375-22.365-39.254-81.795-21.99-121.89-6.402-12.615-12.365-24.415-17.786-37.53a350.103 350.103 0 0 1-24.758-103.78c-1.924-2.585-4.088-5.23-6.1-7.765-1.759-.215-3.708-.445-5.409-.935a18.112 18.112 0 0 1-10.759-8.72c-2.251-4.17-2.854-9.335-1.436-13.865 2.615-9.269 9.558-12.097 18.321-13.271.343-1.722 4.159-5.663 5.556-7.239 4.504-42.512 11.987-76.681 30.353-115.774 1.865-3.97 7.34-16.055 9.776-19.346Zm-8 204.185c13.204 7.955 53.871 23.54 68.596 25.6-2.204-8.76-4.851-18.525-6.419-27.315a236.8 236.8 0 0 1 6.18-109.799c-20.193 4.844-49.432 15.872-67.738 25.321-1.127 3.03-1.701 10.065-2.143 13.6-3.136 25.108-1.279 47.638 1.524 72.593Zm28.582 87.295c7.931-16.685 25.245-42.14 36.233-57.04-5.284-1.805-10.617-3.335-15.957-4.96-16.433-5.01-31.972-11.68-47.62-18.655 3.962 22.67 15.85 60.445 27.344 80.655Zm44.98-60.77c3.851 2.915 36.443 9.45 43.468 10.7-7.467-15.76-11.118-30.38-14.687-47.285-4.202 5.16-27.232 32.915-28.781 36.585Zm27.635 215.11c4.263-.79 9.531-1.675 13.636-3.035-33.441-23.37-55.954-45.555-80.778-78.265a292.512 292.512 0 0 1-11.223-15.945c-1.923-2.915-7.595-12.665-9.556-14.37-1.44 3.07-2.511 6.425-3.526 9.665-6.831 21.78-11.741 46.485-3.762 68.575a51.556 51.556 0 0 0 26.277 28.99c20.448 9.585 47.09 7.855 68.932 4.385ZM200.416 472.98c-6.564 4.09-15.058 9.396-20.302 15.06-.216 2.99-.508 5.974-.876 8.949 9.052 9.476 10.781 20.066.377 29.511-.314.285-.632.565-.951.845.426 2.875.807 5.76 1.144 8.645 2.256 2.15 3.907 3.805 6.464 5.605 4.798 4.125 9.435 7.225 14.921 10.385-2.705-22.425-4.032-41.47-1.939-64.032.212-2.282 1.879-14.077 1.162-14.968Zm126.91 319.445c6.823-.965 29.322-7.845 35.467-10.835-2.696-2.115-11.133-6.835-14.533-8.925a281.715 281.715 0 0 1-23.681-15.98c-33.739-25-61.906-56.825-83.54-92.755-2.059-3.42-3.743-6.86-5.982-10.215l-.352-.52c-3.027 6.59-8.215 18.98-11.609 24.925 3.601 7.385 10.269 17.575 14.913 24.305a339.521 339.521 0 0 0 56.946 64.395c10.357 9.015 21.578 17.13 32.371 25.605Zm-146.935-249.41c3.248 36.585 15.299 78.76 30.784 112.08 2.216 4.765 6.032 13.805 8.986 17.6a175.267 175.267 0 0 1 11.926-24.36c-15.185-31.37-24.39-55.44-29.806-90.165-4.366-2.585-7.651-4.56-11.764-7.575-2.862-2.1-7.302-5.905-10.126-7.58Z"/>
  <path fill="currentColor" d="M208.772 462.841c3.069-.683 17.832-7.751 21.881-9.315 14.731-5.689 30.825-11.52 46.189-15.085l-1.294 5.245c-20.193 4.844-49.432 15.872-67.738 25.321l.962-6.166Z"/>
  <path fill="currentColor" d="m272.005 585.455 4.041.945c-3.318 6.39-7.342 11.655-11.4 17.56a1121.923 1121.923 0 0 0-14.294 21.585c-4.199 6.555-7.872 15.04-12.368 21.02-1.295-1.82-1.443-2.005-2.212-4.07 7.931-16.685 25.246-42.14 36.233-57.04Z"/>
  <path fill="currentColor" d="M151.185 506.645c2.614-9.268 9.558-12.097 18.32-13.27-.525 1.222-.81 1.087-.233 2.421 8.854 20.45-4.409 19.104-16.578 10.629-.916.455-.568.115-1.049 1.01l-.46-.79Z"/>
  <path fill="currentColor" d="M308.435 539.77c.388 1.78.816 3.57 1.099 5.37-4.202 5.16-27.232 32.914-28.781 36.584.22-1.645-.767-4.809-1.206-6.569 8.038-12.135 19.379-24.42 28.888-35.385Z"/>
  <path fill="currentColor" d="M498.02 840.53c4.43-6.255 13.99-7.83 20.88-5.125-3.435 1.185-1.965-1.585-3.615.615-.08 3.53-.74 9.675-2.945 12.435-1.345.67-2.51.375-4.045.245l-.695-.44 2.645-.83c-6.935-1.3-6.09-1.63-9.675-8.125-1.047 1.055-1.14 1.56-2.268 1.66l-.282-.435Z"/>
  <path fill="currentColor" d="M232.087 648.335c.827 1.725 1.49 3.305 2.618 4.86-3.027 6.59-8.215 18.98-11.609 24.925-1.091-1.85-1.959-3.51-2.935-5.425a175.267 175.267 0 0 1 11.926-24.36Z"/>
  <path fill="currentColor" d="m740.785 588.745.94.3c1.05-.61.96-.79 2.15-.835-.005 1.475.025 1.695-.285 3.12l.455.78c-1.715 7.265-7.8 19.55-11.175 26.255a247.387 247.387 0 0 1-58.25 75.09c-6.44 5.69-13.085 10.47-19.58 15.885-1.915 1.545-5.43 3.395-6.585 4.495-30.595 17.695-55.205 30.17-90.845 36.585-8.335 1.505-20.325 3.515-28.67 3.635-1.03 5.12-2.5 8.775-7.115 11.915a17.45 17.45 0 0 1-13.51 2.495 16.403 16.403 0 0 1-10.483-7.33c-1.245-1.96-2.133-4.75-2.756-7.005-15.037-1.305-24.697-2.55-39.539-5.54 1.704-1.53 3.917-2.465 5.992-3.51 8.191 2.33 24.834 4.025 33.433 4.545a55.4 55.4 0 0 1 .758-2.235c1.815-4.93 5.05-8.945 9.97-11.025a16.869 16.869 0 0 1 13.545.2c6.1 2.8 7.9 7.305 10.07 13.015 30.985-1.515 64.65-11.515 92.09-25.645 7.075-3.64 13.145-6.365 19.59-11.24.06-.06 4.9-3.38 6.065-4.4l.34-.16c4.645-2.105 16.745-12.005 20.99-15.57a245.299 245.299 0 0 0 61.955-79.64c3.805-7.725 6.94-16.275 10.45-24.18Z"/>
  <path fill="currentColor" d="M512.125 739.28c4.32 4.405 1.205 16.545-7.09 16.96.63-.885 1.55-.795 2.95-1.13l.115-.105c-.28-.925-.13-.5-1.23-1.26L505.21 755l-.55-.72c.51-3.055 4.31-5.31 4.465-6.645.44-3.76-2.79-5.335 3-8.355Z"/>
  <path fill="currentColor" d="M374.651 787.13c1.941-1.555 4.323-2.06 6.721-2.61 68.591 30.61 136.643 37.969 209.798 18.894-10.135 7.285-58.625 10.941-72.425 11.241-1.275.025-1.95.47-2.72 1.37 3.305 9.1 68.81-8.02 76.805-7.34-3.98.955-7.94 1.98-11.93 2.905a309.825 309.825 0 0 1-177.476-11.975c-6.519-2.45-22.965-8.86-28.773-12.485Zm426.584-448.975c4.305 6.097 9.04 15.324 12.385 22.033a346.06 346.06 0 0 1 31.88 97.49c-1.925-2.484-4.355-17.733-5.35-22.027-2.14-9.241-15.97-57.039-21.795-60.407-.635 2.089.085 5.086.8 7.147 2.125 6.144 6.08 14.532 8.125 20.449 4.48 12.951 14.88 49.469 14.195 62.106-.905-3.193-1.945-10.14-2.595-13.654a331.026 331.026 0 0 0-4.645-21.475c-7.835-31.123-19.565-57.355-34.665-85.351.055-.268-.015-.064.39-.766 2.84 2.55 10.205 20.88 13.85 24.978l.93-.35c2.36-4.954-13.665-25.645-13.505-30.173Zm-42.415-57.216c8.24 7.721 17 20.268 24.12 29.15 2.215 2.758 8.66 13.474 10.545 14.189l.33-.231c-.01 1.898-.96 9.262-1.925 10.668-.005-8.615-31.05-44.311-37.8-52.135 6.2 2.489 27.345 32.039 31.815 38.558l1.165.205c.895-.372 1.18-.298 1.605-.882-.41-2.211-3.22-3.753-3.83-5.618-1.965-6.008-25.745-30.608-26.025-33.904ZM588.15 700.81c.04-.345.285-.63.45-.94 7.265-3.38 32.525 10.925 42.9 8.305 1.275-1.04 1.095-.465 1.235-1.625-4.775-2.59-31.15-6.73-34.015-10.075l.085-.84c1.88-1.745 2.69-2.15 5.225-2.42l-5.07 3c15.565 5.515 32.62 7.86 48.09 12.08-1.165 1.02-6.005 4.34-6.065 4.4-2.09-1.15-20.37-4.815-24.52-5.855-7.78-1.95-16.09-4.575-23.9-6.755-.945-.265-3.36.44-4.415.725Z"/>
  <path fill="currentColor" d="M678.5 221.338c1.065 1.296 3.51 2.709 5 3.683-9.12 3.023-19.185 6.151-28.045 9.669-2.29-.642-3.18-1.38-5.175-2.672 8.91-5.011 20.575-6.81 28.22-10.68Z"/>
  <path fill="currentColor" d="M482.452 424.216c47.333-15.957 98.783 8.578 116.173 55.403 17.395 46.826-5.56 98.996-51.83 117.811-46.275 18.815-99.122-2.535-119.339-48.215-20.217-45.675-.488-99.151 44.551-120.752a92.441 92.441 0 0 1 10.445-4.247Z"/>
  <path fill="currentColor" d="M482.451 424.216c14.189-1.716 20.474 4.906 31.199 12.402 7.69 5.377 13.19 18.583 14.065 27.398 2.33 23.439-15.38 43.544-38.767 44.934-10.343.615-22.585-2.37-30.794-9.027-8.988-7.247-13.183-18.074-13.631-29.369-.13-3.287-.341-11.597 1.59-14.111 3.648-4.751 4.316-11.15 7.771-15.603 2.941-3.791 15.934-9.153 18.123-12.378a92.344 92.344 0 0 1 10.444-4.246Z"/>
  <path fill="currentColor" d="M526.18 552.825c37.08-24.19 54.68-58.75 43.385-102.869-1.17-4.573-9.71-7.669-10.18-9.791 4.005.555 12.615 11.359 16.95 14.323 2.95 3.273 3.67 24.07 2.065 28.463-1.08 1.445-1.965 11.282-2.69 13.975-6.1 22.734-25.32 51.254-47.685 60.879-2.055-.39-2.69 1.4-5.91 1.625-1.36-1.02-.835-.34-1.23-2.375.985-1.97 3.365-1.645 5.295-4.23Z"/>
  <path fill="currentColor" d="M576.335 454.487c2.95 3.273 3.67 24.07 2.065 28.464-.505-5.883 1.965-10.436-2.88-13.072-2.56-1.391.995-10.854.47-13.061-.305-1.285-.155-.837.345-2.331Z"/>
  <path fill="currentColor" d="M528.025 557.805c-.115.105-.235.21-.355.315-16.23 9.515-36.583 12.105-55.057 11.15-9.754-.5-40.778-10.02-39.175-23.005 2.491.18 8.366 5.235 11.405 6.86 28.948 15.495 51.59 14.325 81.337-.3-1.93 2.585-4.31 2.26-5.295 4.23.395 2.035-.13 1.355 1.23 2.375 3.22-.225 3.855-2.015 5.91-1.625Z"/>
  <path fill="currentColor" d="m582.815 559.53.36.265c-1.74 3.1-5.855 8.225-8.3 10.925a83.568 83.568 0 0 1-56.91 26.8l.025-.3c2.465-.615 5.715-.205 7.94-.72 6.72-1.56 14.51-3.85 20.88-6.455 4.27-2.43 6.845-6.645 11.96-7.815 4.55-1.045 7.35-4.675 10.595-7.645 2.51-2.3 4.41-3.61 6.665-6.19 1.87-2.13 4.94-7.425 6.785-8.865Z"/>
  <path fill="currentColor" fill-opacity=".984" d="m320.676 304.3.529.502c.922 3.607 1.086 5.128 3.413 8.168 2.748 1.297 4.543 1.75 7.424 2.568-7.27 1.734-9.128 2.392-10.938 10.019l-.499.205c-2.119-6.681-2.271-7.697-9.058-9.834l.128-.492c6.509-2.365 7.132-3.427 8.843-10.467l.158-.669ZM662.31 455.415c1.52 2.23 1.575 5.576 4.21 6.869.875.432 1.23.682 1.89 1.416-5.475 2.396-3.27 2.899-6.47 6.473-1.545-4.062-1.715-4.407-5.71-6.185l-.58-.253c4.54-3.383 4.41-3.072 6.66-8.32Z"/>
  <path fill="currentColor" fill-opacity=".988" d="M407.761 378.804c3.116 8.789.036 8.34 10.158 12.391-6.596 1.909-7.176 2.889-10.047 8.985-3.964-5.437-1.007-4.507-9.137-9.345l-.391-.229c6.183-1.545 8.216-4.909 9.31-11.156l.107-.646Z"/>
  <path fill="currentColor" d="M494.56 267.957c1.911-6.129 3.648-11.054 9.96-14.19a16.86 16.86 0 0 1 13.485-.605c6.335 2.381 10.315 8.225 11.38 14.749 37.735 1.891 69.705 14.032 102.99 30.601 1.88.98 3.905 1.932 5.6 3.177 14.06 9.922 25.82 16.677 38.655 28.929l.015 2.65 1.61.212v.961l-.805.325c-1.845-.882-3.055-2.008-5.08-2.145-3.21-2.067-6.565-5.653-9.715-7.979-8.64-6.383-21.065-15.937-30.725-20.392-1.78-1.237-3.115-2.283-5.12-3.144-26.085-15.407-67.46-27.053-97.69-28.342l-.57 1.49c-6.565 17.345-28.962 16.683-33.511-2.026-19.198 2.563-29.926 3.817-49.132 8.636l-.61-.456c3.453-2.377 27.252-5.968 32.949-7.341 2.835-.684 13.532-.294 16.791-2.05.357-1.649.454-1.073.093-2.563l-.451.212c-16.665 1.447-33.419 4.2-49.514 8.926-1.462.43-1.486.184-2.621-.345 13.321-3.829 38.193-9.419 52.016-9.29Z"/>
  <path fill="currentColor" d="M516.31 267.865c.12-1.943.135-8.455.77-9.625 7.8.212 13.685 20.237-3.37 24.061-4.065-.381-5.725-.485-9.31-2.712-2.32-2.364-2.78-2.974-4.586-5.687 5.206-.124 8.176.048 13.116-1.739 1.11-1.327 2.485-2.863 3.38-4.298Z"/>
  <path fill="currentColor" d="M504.4 279.588c3.295-1.189 10.14-3.359 9.31 2.713-4.065-.382-5.725-.486-9.31-2.713Z"/>
  <path fill="currentColor" d="M676.63 330.618c.785.691 2.81 2.831 3.805 2.648 2.07-.383 5.105-2.213 7.195-1.997 14.005 1.448 16.22 12.056 11.79 23.168 1.65 1.88 4.105 4.505 5.525 6.461-.82-.39-1.595-.762-2.4-1.182l-.935.379c-.495 1.618.215 2.669.675 4.359-2.055-2.462-3.98-4.767-6.16-7.128-16.025 4.664-26.485-4.787-19.6-20.674l-4.155-4.031c2.025.137 3.235 1.263 5.08 2.146l.805-.326v-.961l-1.61-.211-.015-2.651Z"/>
  <path fill="currentColor" d="M679.87 348.277c3.155-3.214 4.641-.112 8.596-1.443 2.045-2.011 1.089-4.876.759-7.612 2.26-1.06 10.611 4.364 4.736 10.379-4.165 3.445-14.226 2.789-15.356-1.332l1.265.008Z"/>
  <path fill="currentColor" d="M693.961 349.601c-4.165 3.445-14.226 2.79-15.356-1.331l1.265.008.725.062c4.875.385 10.126-1.059 13.366 1.261Z"/>
  <path fill="currentColor" d="M749.615 466.77c1.135-2.381 1.525-3.414 3.17-5.525 8.965 34.162 6.846 86.085-4.769 119.6-1.555-.135-3.201.355-4.786.685 8.985-33.035 12.65-59.345 9.08-93.889-.63-6.06-1.285-15.134-2.695-20.871Z"/>
  <path fill="currentColor" d="M591.45 415.117c3.33-.719 15.775.687 19.765 1.041 22.16 1.85 44.265 4.327 66.29 7.429 2.055.306 13.695 2.622 14.76 2.089l-.31-1.992c1.97 1.325 5.545 10.498 5.355 13.232-.655-1.786-1.725-3.891-2.545-5.649-30.435-5.995-65.935-8.561-96.95-11.701-1.625-1.75-2.365-2.708-4.685-2.95-.81-.395-1-.782-1.68-1.499Z"/>
  <path fill="currentColor" d="M333.898 426.466c4.582-3.648 87.87-11.291 99.469-12.06-1.396 1.233-3.246 3.019-4.82 3.895-4.874 1.691-30.432 3.59-37.415 4.311-19.776 2.044-38.865 5.337-58.404 7.941 2.054-2.105 7.414-2.111 10.226-1.911l.648-1.035c-.102-.188-1.646-1.66-1.912-1.92-1.639.182-6.522 1.023-7.792.779Z"/>
  <path fill="currentColor" d="M705.685 275.785c1.575 1.219 2.69 1.941 3.92 3.48-20.145 3.633-40.785 10.128-59.925 17.396-2.605.988-9.745 3.486-11.705 5.029-1.695-1.246-3.72-2.197-5.6-3.178 23.325-9.498 48.245-19.252 73.31-22.727Z"/>
  <path fill="currentColor" d="M582.015 609.99c-.505 2.23-1.02 2.225-3.15 3.65-24.655 16.525-54.45 22.9-83.698 18.825-1.002-.14-1.727-.19-2.05.67 2.438 3.23 18.783 2.17 23.048 2.195 11.95.075 24.05-2.145 35.325-6.06 3.8-1.325 7.66-2.875 11.395-4.395l.675.405c-2.065 1.495-6.28 2.9-8.72 3.805-25.1 9.3-52.315 9.31-78.037 2.505-4.277-1.135-14.63-6.145-18.189-6.245-1.153-.325-4.013-2.095-4.727-3.18 6.619 2.76 23.393 9.195 31.063 10.285 1.018-.415 1.879-.765 2.584-1.05.954.36 1.531.54 2.515.805l.445-.485c-8.756-1.47-34.506-8.83-39.089-15.655 40.95 23.81 92.045 21.43 130.61-6.075Zm44.795-308.884c2.005.861 3.34 1.907 5.12 3.144-10.32 4.444-29.955 12.934-39.405 18.489l-5.27-2.627c8.26-5.215 30.08-14.973 39.555-19.006Z"/>
  <path fill="currentColor" d="M643.375 235.598c1.465.677 2.795 1.253 4.205 2.045-1.93.574-9.225 4.079-11.325 5.05a640.162 640.162 0 0 0-30.335 15.067c-3.64 1.973-14.485 9.47-17.72 8.31l.465.285-.475-.432c2.675-5.112 47.545-27.012 55.185-30.325Z"/>
  <path fill="currentColor" d="M290.353 434.487c11.314-1.795 22.404-5.554 33.902-6.921-.824 2.01-1.154 3.121-1.739 5.227a587.382 587.382 0 0 0-30.187 6.214c-.453-1.403-1.331-3.14-1.976-4.52Z"/>
  <path fill="currentColor" d="M215.191 351.015c1.428-3.624 5.428-10.236 7.496-13.681a317.604 317.604 0 0 1 26.694-38.509c56.976-71.385 139.694-119.235 231.12-127.67 4.538-.419 9.079-.726 13.608-1.241l-.101 5.264c-24.777 2.183-46.92 5.052-70.928 12.032-65.501 19.041-120.577 56.235-164.112 108.115a409.593 409.593 0 0 0-26.673 36.128c-2.053 3.114-9.861 18.023-11.475 19.556-1.986 1.575-2.919 2.662-5.205 1.529l.058-.68-.482-.843Z"/>
  <path fill="currentColor" d="M495.691 164.884c2.753-10.149 17.104-13.377 25.684-8.25 2.16 1.442 3.715 2.661 5.185 4.87 1.78 3.006 2.865 4.786 3.33 8.38l-.155 5.632c-1.75 7.523-5.575 13.001-13.57 14.803a18.52 18.52 0 0 1-13.905-2.434c-5.157-3.251-6.993-7.119-8.252-12.707l.1-5.264c.381-2.454.478-2.81 1.583-5.03Z"/>
  <path fill="currentColor" d="M495.692 164.884c2.753-10.149 17.103-13.377 25.683-8.25 1.365 1.929 1.785 2.585 3.46 4.197-2.385 7.021-4.95 12.606-12.36 15.608-4.03 1.498-7.36.555-11.36-.119-9.983-1.683-5.5-4.698-5.423-11.436Z"/>
  <path fill="currentColor" d="M521.375 156.634c2.16 1.442 3.715 2.661 5.185 4.87-.815 8.338-8.585 19.01-17.415 18.263 1.19-1.728 1.655-1.981 3.33-3.328 7.41-3.002 9.975-8.587 12.36-15.608-1.675-1.612-2.095-2.268-3.46-4.197Z"/>
  <path fill="currentColor" d="M682.63 800.78c-4.605 6.645-31.945 16.735-33.525 20.77 3.855 3.785 32.71-17.765 36.845-17.275-44 28.955-103.775 47.285-156.1 49.91-.735 4.385-1.33 6.95-4.68 10.31.61-2.925 2.98-4.905 3.81-9.675.85-4.87-1.735-7.865-.695-9.995.95 1.42 1.005 2.545 1.42 4.29 36.22.395 88.665-15.3 121.395-30.91 11.26-5.375 21.01-12.185 31.09-17.21l.44-.215Z"/>
</svg>
