<svg xmlns="http://www.w3.org/2000/svg" width="900" height="908" fill="none" viewBox="0 0 900 908">
  <path fill="#ECDE96" d="M452.758 298.263c3.001 1.361 6.779 6.948 8.978 9.761 15.934 20.391 30.24 42.749 38.398 67.457 2.771 8.394 5.75 16.758 7.639 25.416 1.507 11.302 1.676 31.024-.106 42.25-.785 4.926-5.733 15.841-7.972 20.629-5.608 12.002-17.672 24.283-29.935 29.453-3.773 1.591-9.377 2.992-13.522 4.429-2.274 4.815-1.33 52.87-1.321 61.795l-.005 96.533.018 35.593c.022 7 .129 14.076.014 21.077-.032 1.649-.963 2.035-2.191 3.095l-1.751-.736c-1.015-1.277-.975-1.738-1.024-3.627-.177-6.814-.142-13.731-.2-20.545a2791.4 2791.4 0 0 1-.283-39.038l-.089-119.614c-.013-5.347 1.06-30.72-.035-33.908-2.541-2.864-6.343-2.465-10.255-3.857-14.649-5.205-27.985-18.502-34.363-32.76-23.1-51.643 6.059-112.857 38.338-153.761 2.307-2.921 6.586-8.175 9.667-9.642Zm-.253 192.461c13.07-.541 22.522-5.932 31.332-15.655 15.122-16.445 18.492-36.035 17.765-57.673-1.144-34.217-17.459-66.937-36.834-94.479-2.314-3.293-9.554-14.607-13.203-14.473-4.296 4.642-8.782 11.457-12.481 16.803-20.383 29.449-36.296 64.342-35.324 100.84.495 18.581 5.389 37.069 19.207 50.573 7.873 7.693 18.277 13.691 29.538 14.064Z"/>
  <path fill="#ECDE96" d="M448.724 437.285c11.802-2.246 23.196 5.5 25.443 17.304 2.248 11.803-5.493 23.197-17.295 25.449-11.806 2.257-23.206-5.493-25.457-17.3-2.251-11.811 5.5-23.206 17.309-25.453Zm5.865 38.169c21.396-4.372 18.514-33.113-2.106-33.695-15.694 1.365-21.495 19.326-10.357 30.143 3.432 3.335 7.91 3.561 12.463 3.552Zm147.192 8.42c4.057-.138 11.846-1.925 10.769 5.466-5.666 38.754-19.662 80.47-54.328 102.642-17.029 10.898-36.208 14.396-56.19 12.525-17.561-1.795-11.988-6.105-25.298 7.138-1.715 1.787-3.502 4.212-5.83 4.558-1.693-.372-2.474-1.671-3.613-3.028 3.374-3.308 12.64-12.006 14.981-15.5.315-5.56-.164-10.707-.869-16.209-.772-4.793.239-9.28.78-13.979 5.728-49.532 50.87-75.957 96.531-81.547 7.43-.909 15.433-1.366 23.067-2.066Zm-65.789 69.585c-7.177 6.566-13.757 13.642-20.744 20.319-8.007 7.652-15.145 14.072-22.141 22.775 26.078 2.687 48.414 2.248 69.588-16.036 24.664-21.308 37.007-53.327 41.454-85.098.181-1.295.195-3.326.208-4.642-3.365-.164-9.687-.195-13.11.186-29.243 3.263-54.869 8.495-77.107 29.333-21.019 19.689-26.012 40.935-25.493 68.592l.559.523c2.904-.328 12.334-10.437 15.078-12.973l26.331-24.043c2.673-2.461 9.567-10.477 13.211-8.765.289 4.096-5.187 7.08-7.834 9.829Zm-241.094-69.603c6.474-.324 12.66.461 19.096.873 23.986 1.539 51.945 8.003 71.447 22.634 20.035 15.389 34.562 36.586 36.547 62.221.679 8.752-1.116 21.237.21 29.261 4.511 4.877 9.897 9.32 14.334 14.312-1.271 2.093-1.304 2.868-3.265 3.706-4.484-4.078-8.754-8.215-13.056-12.431-4.311-4.403-11.401-.723-17.376-.04-60.83 6.916-100.37-43.986-107.207-99.623-.652-5.294-4.593-16.502-.73-20.913Zm64.022 60.487c.95-1.166 1.067-1.294 2.513-1.968 1.436.142 1.808.301 2.925 1.383 11.782 11.412 23.564 22.789 35.795 33.726 3.127 2.793 10.995 12.326 14.661 11.878 1.854-3.161-.319-26.079-1.459-30.419-13.375-50.915-65.066-68.605-112.339-68.193-.016 7.32.789 10.778 2.117 17.907 4.363 23.427 13.919 48.207 31.053 65.338 16.557 16.56 33.465 23.498 56.811 24.128 2.662.071 16.054-1.069 18.117-1.933l.361-.532c-.845-2.656-11.25-11.905-14.108-14.72l-25.465-25.24c-2.454-2.408-9.436-8.801-10.982-11.355Zm91.997-348.535c3.379 2.73 3.188 18.221 7.014 23.442 4.7 6.413 18.474 6.07 20.988 9.235-1.636 1.786-9.013 1.595-11.815 2.409-11.718 3.406-13.323 17.428-15.03 28.134l-.873-.146c-2.265-3.944.089-13.041-4.407-19.84-7.19-10.87-11.123-7.613-21.94-9.712-.954-.184-.763-.264-1.208-1.101.742-1.7 3.506-2.313 5.146-2.398 9.537-.497 17.31-5.227 19.979-14.881 1.007-3.632.524-12.101 2.146-15.142ZM240.665 468.675c.329.071.656.151.982.235 5.116 1.321 6.009 3.755 8.515 8.087l-.456.962c-2.136 4.473-2.709 6.491-7.458 8.166-7.07-.128-11.541-4.885-8.7-12.174 1.295-3.325 3.985-4.115 7.117-5.276Zm422.843.027c9.878.794 12.764 12.999 1.822 17.446-3.741-.106-7.368-1.902-8.898-5.484a8.103 8.103 0 0 1 .147-6.735c1.622-3.391 3.697-4.016 6.929-5.227ZM450.882 738.49a8.218 8.218 0 0 1 2.85 16.187c-4.473.798-8.747-2.19-9.532-6.664a8.216 8.216 0 0 1 6.682-9.523Z"/>
</svg>
