<svg xmlns="http://www.w3.org/2000/svg" width="848" height="781" fill="none" viewBox="0 0 848 781">
  <path fill="#EEDD91" d="M399.137 490.763c-8.074-2.551-17.625-2.216-25.6-3.826-32.218-6.506-60.597-17.935-87.336-37.237a207.172 207.172 0 0 1-82.987-135.472C185.822 199.939 269.039 93.856 383.255 81.831c1.391-.146 1.796-.334 2.858.52-.278 3.56-9.219 8.672-12.646 11.816-9.691 8.89-17.592 18.068-25.178 28.754-3.149 4.436-5.019 8.936-7.529 13.655-1.832 3.445-3.768 6.577-5.563 10.132-7.184 14.223-11.524 29.314-14.961 44.811-.822 3.707.039 11.358-.587 15.171-.739 4.508-2.893 6.276-2.859 11.919.028 4.644-.374 10.772.251 15.377.401 2.945 1.749 6.543 2.262 9.725.593 3.678.123 8.721.902 12.027 7.7 32.687 20.805 63.248 42.972 88.763 5.485 6.313 15.122 16.139 21.489 21.367 23.872 19.605 53.308 34.064 83.68 40.002 3.101.606 7.304.574 10.546 1.056 5.023.747 9.975 1.781 15.051 2.072 20.302 1.165 43.576-3.152 62.768-9.72 4.65-1.592 9.337-3.773 13.631-5.546 4.141-1.71 18.144-10.872 21.096-10.717l.489.647c-.331 1.621-1.971 3.19-2.944 4.975-7.731 14.183-18.144 25.736-28.798 37.708-5.946 6.684-10.571 9.967-17.556 15.55a216.591 216.591 0 0 1-98.733 45.207c-11.093 1.938-28.741 2.824-39.868 3.379-.061 4.27-.185 8.535-.371 12.8.234 15.981-.083 32.118.008 48.123.025 4.427.676 23.227-.111 25.745-1.785.89-2.985.124-4.764-.584-1.144-3.739-.816-56.583-.426-63.345-.176-5.433-.382-17.48.773-22.457Zm72.352-18.602c8.318-3.387 16.864-5.805 25.419-10.009 22.38-10.998 42.367-25.136 59.203-43.621 3.498-3.843 11.258-11.615 13.751-15.484l-.609.08c-3.78.525-10.778 3.612-15.018 5.043-24.335 8.212-49.075 8.419-74.457 6.771-3.702-.241-9.08-1.534-12.935-2.276a187.712 187.712 0 0 1-77.551-33.625 197.165 197.165 0 0 1-72.112-103.645c-5.04-17.671-7.559-37.23-7.039-55.541.184-6.488.334-13.31.956-19.804 4.81-31.906 15.238-61.784 34.748-87.793 2.9-3.866 9.111-11.326 12.408-14.262.403-1.529.655-2.359 1.245-3.822l-.689-.17c-.141.072-.282.146-.424.215-3.727 1.802-8.075 2.44-12.03 3.646-7.985 2.436-15.85 5.205-23.43 8.719-50.376 23.35-84.292 64.118-103.005 115.813-2.375 6.558-6.474 20.315-7.508 26.925-.513 3.282.104 6.736-.332 10.035-.429 3.248-2.044 6.333-2.395 9.586-1.003 9.279-1.079 22.233-.071 31.462.412 3.768 1.436 7.45 2.013 11.192.449 2.916.507 5.893 1.024 8.799 2.632 14.787 8.053 30.712 14.42 44.283 24.084 51.331 63.123 86.84 116.503 106.001 8.073 2.894 19.648 6.605 28.067 7.855 2.506.369 5.063.294 7.563.651 3.852.55 7.616 1.834 11.49 2.223 25.517 2.576 56.526-.973 80.795-9.247Z"/>
  <path fill="#DCCC7B" d="M399.075 531.709c.019-1.925-.082-2.513.517-4.294l.447-.186c1.679 3.926 2.189 12.866 2.197 17.218 1.783-3.855-.706-34.818 1.422-41.166.233 15.981-.084 32.118.008 48.123.025 4.427.676 23.227-.112 25.745-1.784.89-2.984.124-4.763-.584-1.144-3.739-.816-56.583-.426-63.345.942 5.425-.03 12.402.71 18.489Z"/>
  <path fill="#9A8F40" d="M398.365 513.22c.942 5.424-.03 12.402.71 18.489 1.251 6.568 1.829 39.336-.284 44.856-1.144-3.739-.816-56.583-.426-63.345Z"/>
  <path fill="#EEDD91" d="M543.789 255.747c2.588 1.505 2.211 9.734 2.455 12.789a50.766 50.766 0 0 0 2.008 10.332c5.329 17.694 17.167 12.191 30.011 17.517.891.369.737.517.965 1.317-1.25 1.651-4.894 1.189-7.043 1.268a34.226 34.226 0 0 0-13.536 3.263c-16.492 7.67-10.55 32.958-14.289 34.643l-.911-.625c-.642-6.338-3.801-22.492-7.37-27.939-6.547-9.995-20.12-8.488-29.419-10.424l-.129-.467c.249-.196 11.648-3.843 11.727-3.843 18.413-.09 21.672-14.627 24.322-29.398.501-2.789.542-5.672 1.209-8.433Zm-86.817-64.274c4.952-1.284 10.016 1.654 11.362 6.591a9.343 9.343 0 0 1-14.074 10.313 9.346 9.346 0 0 1 2.712-16.904Zm-58.17 406.559c5.296-.376 6.973.932 10.781 4.344.697 3.789.693 5.976.255 9.736l-2.374 3.188-3.92 1.23c-7.69-.617-7.967-.994-11.347-7.959.617-5.565 2.083-7.47 6.605-10.539Zm15.674-337.098c3.578.131 3.946 1.822 5.458 4.608l-.634 1.414c-1.201 2.674-1.37 2.901-4.318 3.387-1.885-.462-3.557-1.506-4.379-3.366a3.867 3.867 0 0 1-.003-3.068c.72-1.683 2.298-2.354 3.876-2.975Z"/>
</svg>
