<svg xmlns="http://www.w3.org/2000/svg" width="1158" height="1266" fill="none" viewBox="0 0 1158 1266">
  <path fill="#FFB8B3" d="m627.497 547.944 1.026-1.721 2.3 1.761c1.607 1.205 17.293 2.105 21.379 3.033 47.934 10.88 84.393 52.802 85.265 102.463.024 1.582.723 2.658 1.483 4.012-.89 4.271-2.157 9.155-2.627 13.426-3.475 31.687-22.53 59.313-49.01 76.504a105.47 105.47 0 0 1-48.638 16.425c-7.228.352-7.667 2.72-8.699 9.501l-1.873-.952c-.13-5.254-.983-6.466-5.589-8.982-14.41.723-31.844-5.149-44.502-11.64a108.269 108.269 0 0 1-53.187-63.139 105.642 105.642 0 0 1 7.668-81.899c16.236-30.707 47.099-52.151 81.435-57.267 4.369-.651 9.426-.029 13.569-1.525Zm.315 204.09c-1.107-16.827-.272-43.148-.272-60.877l-.019-116.218c.019-6.728-3.752-8.365-8.834-11.939 1.069-1.946 8.711-4.158 8.872-10.364-2.041-2.9-9.715-.618-13.161-.271-19.856 1.998-39.104 11.455-54.241 24.234a105.32 105.32 0 0 0-36.325 70.637c-2.373 29.314 5.718 55.239 24.759 77.982 15.542 18.563 43.615 34.023 67.969 35.859 1.947.124 3.901.217 5.848.272 3.92-3.542 4.675-3.95 5.404-9.315Zm13.707-189.463c-7.327 3.267-9.769 5.741-11.283 13.715.63 10.645.408 23.897.395 34.657l-.062 54.393-.03 56.976c-.025 7.975.278 20.919-.211 28.627 1.101 6.504.359 5.972 5.101 10.262.89.093 1.781.148 2.671.179 9.713.377 26.053-4.76 34.746-8.883 100.869-47.858 70.989-198.317-42.425-201.11 2.374 7.641 3.963 8.603 11.098 11.184Z"/>
  <path fill="#FFB8B3" d="m627.521 574.939 1.075-.783c.396.962.656 1.636.977 2.626l.662-.496c.63 10.645.408 23.898.395 34.657l-.061 54.393-.031 56.976c-.025 7.975.278 20.919-.211 28.628l-1.83-.106-.686 1.2c-1.107-16.827-.272-43.148-.272-60.877l-.018-116.218Z"/>
  <path fill="#FFB8B3" d="m627.812 752.034.686-1.2 1.83.106c1.101 6.503.359 5.971 5.101 10.261l2.881 1.342.365 1.304c-7.228.352-7.667 2.72-8.699 9.501l-1.874-.952c-.129-5.254-.983-6.466-5.589-8.982l-.105-2.065c3.92-3.542 4.674-3.95 5.404-9.315Z"/>
  <path fill="#FFB8B3" d="M589.452 402.628c7.234-13.832 14.261-18.741 28.508-24.024 5.462.611 5.734 3.303 8.176 8.081-16.6 16.893-20.19 38.252-6.276 58.326 11.339 12.547 22.987 17.95 39.34 9.967l1.274 1.442c-9.268 7.975-18.74 11.854-31.08 12.064l-.754.188c-10.276-1.414-16.873-2.764-25.102-9.106-2.181-.915-6.36-4.977-7.913-6.949-7.852-9.967-11.767-22.689-10.491-35.265 1.094-6.199 1.96-8.935 4.318-14.724Z"/>
  <path fill="#FFB8B3" d="m603.539 459.566 1.117-.226-.777-.781c.199-6.531 6.633-15.225 10.375-20.907 1.36 2.814 2.37 5.462 4.513 7.688l1.094-.329c11.339 12.547 22.987 17.95 39.34 9.967l1.274 1.442c-9.268 7.975-18.74 11.854-31.08 12.064l-.755.188c-10.275-1.414-16.872-2.764-25.101-9.106Z"/>
  <path fill="#FFB8B3" d="M589.453 402.627c1.838-.715 2.23-1.405 4.23-.373 6.238 3.218 10.866 17.619-.009 17.654-2.334.008-4.405-.296-6.893-.087-1.157-1.041-1.058-1.008-1.646-2.469 1.094-6.199 1.96-8.935 4.318-14.725Z"/>
  <path fill="#FFB8B3" d="M613.904 847.892c20.412-6.571 40.814-.686 52.778 17.544.025 2.701 1.323 5.761 2.504 8.036 4.074 7.857 4.55 15.658 3.629 24.312-.34 10.818-12.526 23.689-12.433 26.835-9.756 8.976-20.285 13.062-33.596 12.462a54.936 54.936 0 0 1-10.418-1.483c3.512-4.006 7.555.358 11.642-5.626 2.318-1.873 5.224-3.579 7.338-5.594 15.08-14.335 15.346-41.695 3.364-57.959-5.694-7.727-12.922-11.325-21.744-13.272-1.746-.334-3.819-.42-4.909-1.626.596-1.397 1.118-2.318 1.845-3.629Z"/>
  <path fill="#FFB8B3" d="m857.539 617.426 1.854.176.557.074 1.725 2.553c-3.976 1.984-6.566 3.27-10.016 6.206-14.541 18.291-17.039 45.175 2.739 60.691a35.465 35.465 0 0 0 7.932 4.612l2.275 1.656-.117.952c-3.357 2.337-11.469 2.133-15.865 2.479-41.819-7.288-43.445-64.715-8.6-76.009 5.62-2.755 11.197-2.423 17.516-3.39Z"/>
  <path fill="#FFB8B3" d="m857.539 617.426 1.855.176.556.074 1.725 2.553c-3.976 1.984-6.566 3.27-10.016 6.206-5.292-5.211-3.926-5.885-11.636-5.619 5.62-2.755 11.197-2.423 17.516-3.39Z"/>
  <path fill="#FFB8B3" d="m398.316 616.251 1.308.271c16.37 4.708 23.74 5.326 33.493 21.467 10.719 17.735 3.565 44.328-15.036 53.656-6.128-3.319-9.45-7.041-11.094-13.711 2.246-4.209 3.972-8.623 5.088-13.581 3.352-14.897-2.921-39.655-19.941-43.395-5.934-1.31-12.599 2.491-17.509 5.885l-1.022-1.143c6.036-4.383 9.28-5.947 16.806-7.462 2.989-.598 5.06-.767 7.907-1.987Z"/>
  <path fill="#FFB8B3" fill-opacity=".976" d="m397.325 697.524 2.031-.044c13.905 69.229 43.409 121.995 102.913 162.485 21.378 14.545 54.265 30.012 80.002 33.628.778-5.897.828-11.986 2.808-17.593 4.782-13.55 15.268-23.645 28.825-28.108-.727 1.311-1.25 2.232-1.846 3.629 1.09 1.205 3.163 1.292 4.91 1.626-8.696-.204-13.072 1.001-19.816 7.294-7.661 7.146-12.593 19.812-12.647 30.247a45.905 45.905 0 0 0 13.601 32.614c6.526 6.423 11.993 8.827 20.92 10.373 3.518-1.249 5.62-2.096 8.984-3.703-4.087 5.984-8.131 1.62-11.642 5.625-18.502-2.837-31.368-22.538-33.668-40.038-30.373-3.814-70.361-24.523-94.357-43.284a264.506 264.506 0 0 1-14.217-11.98c-2.268-2.028-4.694-4.494-6.879-6.25-2.997-1.935-4.826-.568-5.754-4.407-.972-4.018-7.948-10.317-10.766-13.631a229.761 229.761 0 0 1-17.951-24.238 236.455 236.455 0 0 1-35.451-94.245Z"/>
  <path fill="#FFB8B3" fill-opacity=".941" d="m930.598 664.075.934.26c.661 67.46-23.531 134.803-63.161 188.997a324.068 324.068 0 0 1-14.968 18.898c-3.494 4.018-9.88 9.865-11.24 14.656-3.067 2.751-6.369 4.216-8.996 6.509-3.079 2.696-6.238 6.009-9.398 8.84a299.836 299.836 0 0 1-24.835 20.189c-40.787 29.79-89.759 50.869-140.141 56.371-6.139.667-16.625 1.867-22.696 1.743l.018-1.137c74.643-3.796 149.743-37.208 201.083-91.686.414-2.102.371-2.584 1.774-4.253 1.509-.563 3.314-1.193 4.433-2.349 8.749-9.032 16.526-18.762 23.902-28.862a332.773 332.773 0 0 0 63.291-188.176Z"/>
  <path fill="#FFB8B3" fill-opacity=".933" d="M324.229 651.502c-.588-161.015 130.049-307.104 292.679-314.39 1.388-.062 3.589.038 4.616.98-13.803 1.248-23.36 1.5-37.966 3.913a299.757 299.757 0 0 0-135.659 60.47c-9.619 7.635-20.638 17.14-29.229 26.076-1.652 1.718-1.525 2.995-1.618 5.266-2.53 2.194-3.735.975-4.319 1.53-6.385 6.071-14.049 15.116-19.293 21.836a325.9 325.9 0 0 0-66.725 173.511c-.47 6.899-.614 13.618-1.163 20.616l-1.323.192Z"/>
  <path fill="#FFB8B3" fill-opacity=".91" d="m628.64 468.672.754-.189.242 8.679c37.664 1.81 70.048 11.124 100.819 33.62 7.098 5.19 15.24 11.607 20.916 18.301l-.254 3.969c-.531-3.535-2.726-5.866-5.453-8.319-32.978-29.664-72.28-45.787-116.245-45.619.019 7.206-.148 14.986.451 22.125l-1.18-.325c-.569-5.37-.13-16.205.03-21.833-82.528.248-146.715 54.816-168.029 133.373l-2.214 2.416c1.096-6.401 3.16-12.735 5.286-18.843 16.546-47.527 52.24-85.237 98.44-105.033 22.541-9.658 42.053-12.52 66.388-13.846l.049-8.476Z"/>
  <path fill="#FFB8B3" fill-opacity=".98" d="M859.949 617.676c46.834 8.444 47.662 71.367-1.323 79.78-1.261 31.916-22.257 78.142-40.966 103.858-6.547 9-16.309 19.194-21.348 26.463l-1.558-1.31c26.919-30.266 44.335-59.313 55.816-98.696 2.851-9.761 4.372-20.381 6.894-30.377-3.456-.049-5.379-.111-8.841-.569 4.396-.346 12.507-.142 15.864-2.478l.118-.952-2.275-1.657c30.962 6.565 49.59-61.575-.656-71.509l-1.725-2.553Z"/>
  <path fill="#FFB8B3" fill-opacity=".949" d="m458.477 614.87 2.214-2.415a180.617 180.617 0 0 0 18.586 136.358c29.627 50.733 87.345 89.399 147.335 88.478l.915-.013.544-.012c.421-8.555.155-16.777.544-25.196l1.639-.495c-1.138 10.175-.384 15.862-.285 25.487 5.052.346 7.24.216 12.328-.241l5.058.668c-13.398 2.856-35.493.921-49.19-1.756a178.713 178.713 0 0 1-114.189-76.529c-30.548-45.583-35.962-91.432-25.499-144.334Z"/>
  <path fill="#FFB8B3" fill-opacity=".914" d="M803.175 642.235c.779 4.587.625 13.835.557 18.731a178.356 178.356 0 0 1-31.983 100.6c-2.801 3.956-16.625 23.305-19.246 24.584-5.311 2.609-15.797 13.352-21.627 17.822-20.978 16.072-56.787 32.781-83.521 33.517l-5.057-.668c84.516-9.742 147.535-71.843 158.682-157.187 1.237-9.451 1.088-18.038 1.534-27.452.265-3.314.488-6.627.661-9.947Z"/>
  <path fill="#FFB8B3" fill-opacity=".969" d="m814.143 406.649.278-1.001c68.033 52.51 113.005 146.099 117.117 231.036.216 4.377-.408 10.898.303 14.861l-2.028.025.099-.05c1.892-2.788-1.305-29.041-1.861-34.277-8.359-78.344-51.792-161.31-113.908-210.594Z"/>
  <path fill="#FFB8B3" fill-opacity=".953" d="m324.41 663.457 1.112.037c.73 9.093.692 18.236 1.625 27.243 7.394 71.404 37.857 140.78 87.881 192.57l.194.148-1.555 1.305c-2.793-4.309-7.761-9.483-11.205-13.464-48.891-56.494-78.431-132.911-78.052-207.839Z"/>
  <path fill="#FFB8B3" fill-opacity=".965" d="M665.123 392.921c6.98 8.686 9.676 15.784 10.746 27.026 48.15 11.74 78.815 27.362 115.367 61.731l-1.249 1.648c-4.612-6.007-14.554-13.688-20.662-18.285-28.416-21.398-58.642-35.878-93.543-42.864-.019.614-.05 1.228-.08 1.841-.674 13.257-5.336 23.433-15.228 32.401l-1.274-1.442a43.603 43.603 0 0 0 14.461-26.075c2.102-12.98-2.3-24.541-9.799-34.885l1.261-1.096Z"/>
  <path fill="#FFB8B3" fill-opacity=".957" d="m788.182 831.938 1.96 2.107-.427.316c-7.289 5.47-14.826 13.352-22.356 19.138a231.041 231.041 0 0 1-92.547 42.573c-1.392 10.608-5.942 21.673-14.431 28.547-.092-3.147 12.094-16.017 12.434-26.835.921-8.654.445-16.455-3.63-24.312-1.18-2.275-2.479-5.335-2.504-8.036 6.826 8.265 8.267 18.551 8.532 28.757a424.656 424.656 0 0 0 19.5-5.384 228.464 228.464 0 0 0 81.728-45.126c3.264-2.807 9.898-8.259 11.741-11.745Z"/>
  <path fill="#FFB8B3" d="M386.07 692.789c9.974-2.627 14.596-7.195 20.917-14.854 1.644 6.67 4.966 10.391 11.094 13.71-6.606 3.951-10.953 4.921-18.726 5.836l-2.03.043c-11.549-1.731-18.422-3.56-26.879-11.603l1.303-1.125c5.809 5.02 7 5.669 14.321 7.993Z"/>
  <path fill="#FFB8B3" fill-opacity=".984" d="m458.774 488.352 2.079 1.398c-24.746 24.451-43.159 58.557-53.118 91.758-3.603 12.015-5.578 22.924-8.111 35.014l-1.308-.271c-.696-4.304 1.197-12.616 2.21-17.177a240.643 240.643 0 0 1 35.825-82.634c7.147-10.613 15.385-18.357 22.131-27.677l.292-.411Z"/>
  <path fill="#FFB8B3" fill-opacity=".98" d="M798.192 488.419c5.861 7.491 11.741 13.854 17.583 21.768a236.128 236.128 0 0 1 36.743 75.072c1.824 6.37 3.394 11.966 4.662 18.465.569 2.938 1.539 11.836 2.213 13.878l-1.854-.176c-2.22-9.574-3.778-19.14-6.356-28.669a241.35 241.35 0 0 0-49.504-93.743c-2.782-3.286-4.384-5.559-8.538-5.926 2.219-.006 2.856-.192 5.051-.669Z"/>
  <path fill="#FFB8B3" fill-opacity=".894" d="M427.076 896.109c10.097 8.302 19.766 16.95 30.259 24.733a297.299 297.299 0 0 0 124.82 54.188c10.13 1.923 18.827 2.788 29.105 3.672 2.254.192 9.856.594 11.426.909l-.179.94c-72.094-1.224-143.56-34.451-195.62-83.471l.189-.971Z"/>
  <path fill="#FFB8B3" fill-opacity=".906" d="M635.669 336.802c14.066.767 26.511 1.449 40.496 4.004 48.033 8.774 101.395 32.679 138.255 64.843l-.278 1a300.515 300.515 0 0 0-153.835-66.65c-8.18-.965-16.576-1.932-24.811-1.861.105-.438.167-.886.173-1.336Z"/>
  <path fill="#FFB8B3" fill-opacity=".965" d="M466.932 481.744c1.556-2.842 3.862-4.533 6.219-6.721 28.914-26.84 64.983-44.467 103.096-53.936 2.381-.591 5.764-1.429 7.985-.327-1.22 1.338-7.57 2.443-9.765 2.937-42.256 9.511-75.314 30.015-107.049 58.553l-.486-.506Z"/>
  <path fill="#FFB8B3" fill-opacity=".969" d="M751.371 529.083c6.751 1.846 5.428 5.584 9.515 10.355 22.82 26.651 41.176 67.331 42.289 102.797a359.33 359.33 0 0 1-.662 9.947c-2.51-42.293-16.742-83.386-45.485-115.191-2.585-2.857-3.803-.361-5.911-3.938l.254-3.97Z"/>
  <path fill="#FFB8B3" fill-opacity=".984" d="M617.96 378.604c19.348-3.824 33.568-.303 47.163 14.317l-1.261 1.096c-7.444-8.064-16.409-13.017-27.445-13.639-3.845 1.89-6.936 3.638-10.281 6.307-2.442-4.778-2.714-7.47-8.176-8.081Z"/>
  <path fill="#FFB8B3" d="M629.092 255.745c4.569 6.028 1.836 5.875 9.558 10.293l-5.744 3.028-2.961 5.749c-3.629-2.464-3.258-5.457-9.781-8.918 5.348-3.58 5.843-4.47 8.928-10.152Zm6.405 82.393a6.469 6.469 0 0 1-7.457 4.87 6.467 6.467 0 0 1-5.255-7.195 6.47 6.47 0 0 1 6.912-5.621 6.468 6.468 0 0 1 5.8 7.946Z"/>
  <path fill="#FFB8B3" fill-opacity=".976" d="M370.446 685.921c-17.457-17.148-15.853-44.873 3.157-60.222l1.022 1.144c-18.33 16.369-19.435 39.816-2.876 57.953l-1.303 1.125Z"/>
  <path fill="#FFB8B3" d="M622.686 979.611c2.85-7.82 9.268-6.312 13.429-.21l-.019 1.137c-.94 2.324-1.935 4.414-4.402 5.489a5.927 5.927 0 0 1-4.631 0c-2.64-1.119-3.536-3.016-4.556-5.477l.179-.939ZM929.813 651.57l2.028-.025c7.246 4.581 5.88 8.153-.309 12.79l-.934-.26c-7.19-2.639-8.402-9.396-.785-12.505Zm-605.584-.068 1.323-.192c6.043 3.431 6.748 9.483-.03 12.184l-1.112-.037c-7.351-1.014-8.69-9.748-.181-11.955Z"/>
  <path fill="#FFB8B3" d="m628.306 512.784 1.985.536c-.73 4.965.037 29.326.531 34.664l-2.3-1.761-1.026 1.721c.519-11.482.118-23.206.81-35.16Z"/>
  <path fill="#FFB8B3" d="M458.774 488.352c-2.564-6.85 1.966-11.381 8.158-6.608l.486.506c.194 2.702.396 3.139-.68 5.501-1.781 1.827-3.325 1.964-5.885 2l-2.079-1.399Zm169.915 12.562 1.181.325c1.774 2.526 2.671 3.671 4.773 5.924-1.397 1.837-3.308 4.172-4.353 6.157l-1.984-.536c-1.657-2.16-2.714-3.853-4.149-6.133 2.22-2.332 2.844-3.021 4.532-5.737Zm-.835 300.77 2.56-.148c1.694 1.78 2.535 2.312 3.098 4.599-.211 2.652-1.132 3.617-3.259 5.44l-1.638.495c-1.991-2.22-3.147-3.06-3.487-5.916.68-2.423.958-2.547 2.726-4.47Zm163.382-320.006c2.313-.99 2.442-1.142 4.835-.768 2.98 2.26 2.881 4.033 2.121 7.509-2.195.477-2.832.663-5.051.668-3.129-.946-3.283-2.956-3.154-5.761l1.249-1.648Z"/>
  <path fill="#FFB8B3" d="M788.182 831.937c.099-2.423.049-2.855 1.514-4.623 2.14-1.144 2.517-.965 5.058-.847l1.558 1.31c.686 4.89-.952 7.418-6.17 6.268l-1.96-2.108Z"/>
  <path fill="#FFB8B3" d="M415.222 883.456c5.687 1.681 3.866 3.338 7.404 7.825 1.321 1.676 2.932 3.314 4.449 4.828l-.189.971c-4.704-4.643-5.805-5.65-11.966-8.104l-.585-.229c-1.102-1.953-.749-1.403-.669-3.987l1.556-1.304Z"/>
  <path fill="#FFB8B3" d="m628.102 772.396 1.873.952c-.018 6.522-1.162 22.575.439 28.188l-2.56.149c1.311-4.773.186-22.842.248-29.289Z"/>
  <path fill="#FFB8B3" fill-opacity=".988" d="m237.374 613.423-.035-.656c5.467-89.38 58.249-191.611 119.036-251.576a458.656 458.656 0 0 1 44.256-38.467c9.125-6.929 19.819-12.727 27.757-20.674 1.788-3.182 5.881-1.99 7.201-2.747 61.89-35.51 124.118-54.572 197.33-54.306 103.657.376 201.323 45.638 273.666 120.847l-1.546 1.535c-19.92-19.85-35.5-34.209-58.58-50.722a375.757 375.757 0 0 0-219.414-69.299c-65.82.116-133.432 19.901-190.126 53.515-.744.44-1.826 3.175-2.219 4.119-2.182 1.935-3.476 1.042-5.525 1.458-3.645.738-11.146 6.607-14.441 8.903a390.738 390.738 0 0 0-91.145 86.884 421.382 421.382 0 0 0-76.414 164.468 582.873 582.873 0 0 0-6.225 34.877c-.821 5.963-1.161 12.326-2.117 18.158.245-3.167.15-3.773-1.459-6.317Z"/>
  <path fill="#FFB8B3" fill-opacity=".976" d="M356.69 956.739a4.904 4.904 0 0 0 2.974-2.943c.838 3.332 8.766 10.293 11.581 12.84a425.456 425.456 0 0 0 69.004 51.154c45.611 27.37 100.612 44.48 153.324 50.1 9.716 1.04 24.958 3.13 34.776 1.86l.6-.87 1.033.46.544.44c5.032 1.07 15.431-.05 20.637-.41 26.264-1.77 52.447-6.18 77.808-13.37a384.43 384.43 0 0 0 150.212-82.515c4.081-3.573 17.497-14.885 19.871-19.151a4.9 4.9 0 0 0 2.436 1.694c-.216.142-.439.278-.655.42-88.949 88.172-210.023 132.422-336.359 109.562a381.928 381.928 0 0 1-169.428-75.686c-7.999-6.207-15.397-12.58-22.923-19.312-3.611-3.227-11.86-11.794-15.435-14.273Z"/>
  <path fill="#FFB8B3" fill-opacity=".949" d="m729.923 224.319.445 1.785c5.75.584 13.064 3.222 18.721 4.998a438.85 438.85 0 0 1 94.544 43.495 324.966 324.966 0 0 1 15.438 10.077c4.334 3.061 8.705 7.094 13.583 9.169 2.739 1.163 20.236 16.706 24.02 20.001a450.056 450.056 0 0 1 125.166 178.195 444.055 444.055 0 0 1 30.65 139.385c.36 5.94 1.06 14.353 1.06 20.195l-1.24-.216c-.68-5.181-.74-10.973-1.02-16.233-8.26-155.963-98.299-305.456-238.916-376.38-26.313-13.271-53.603-25.08-82.568-31.763l.117-2.708Z"/>
  <path fill="#FFB8B3" d="M1020.09 664.786c1.24.896 1.61 1.317 3.03 1.892-1.25 20.764-1.45 34.246-4.42 55.548a413.877 413.877 0 0 1-71.174 178.495c-7.166 10.335-15.079 19.973-23.129 29.579-3.029 3.616-14.974 16.134-16.891 19.262a4.901 4.901 0 0 0-1.873-2.306c2.961-2.596 8.624-8.691 11.382-11.77 55.47-61.964 90.465-141.429 100.335-223.899 1.8-14.978 3.37-31.915 2.74-46.801Zm-785.162-.556 2.471-.21c-.251 90.357 34.41 187.958 91.748 257.811 4.014 4.89 18.332 23.045 23.378 26.043a4.905 4.905 0 0 0-1.945 2.158c-3.351-4.779-12.386-14.132-16.671-19.071a382.628 382.628 0 0 1-24.692-31.848 417.502 417.502 0 0 1-74.289-234.883Zm679.681-290.6.415.615c3.549 5.139 9.892 12.267 14.053 17.273 6.689 8 13.045 16.267 19.067 24.782 36.44 51.973 62.156 116.63 70.826 179.488 1.25 9.056 5.36 42.596 3.61 50.997l-2.2.297c-1.2-18.076-1.28-31.706-3.84-50.1a420.298 420.298 0 0 0-64.427-170.761c-13.02-19.575-24.514-33.52-39.711-50.975l2.207-1.616Z"/>
  <path fill="#FFB8B3" fill-opacity=".953" d="M204.532 651.811c3.599-122.79 50.281-235.682 139.283-321.593 4.2-4.055 33.583-31.007 37.546-31.434-.016.056-28.481 24.628-30.546 26.559a452.86 452.86 0 0 0-77.18 94.902c-2.172 3.555-8.488 13.521-9.239 17.167l1.156 1.463-.543.646-1.838-.494c-4.046 3.888-11.071 20.78-13.385 26.572-.365.913 1.318 1.941-.918 4.966-2.169.829-2.545.511-3.421 2.64-2.233 5.429-4.375 10.964-6.546 16.418a459.258 459.258 0 0 0-31.023 131.144c-.876 9.915-1.835 20.795-1.415 30.704l-1.931.34Z"/>
  <path fill="#FFB8B3" fill-opacity=".961" d="m1052.41 662.659 1.04-.098c.09 7.659-.78 16.943-1.22 24.732a456.43 456.43 0 0 1-78.651 229.772 521.027 521.027 0 0 1-29.182 38.369c-2.85 3.4-14.628 15.906-16 18.298a3.011 3.011 0 0 0-1.725-.779c2.127-.828 19.685-22.365 22.059-25.283a458.738 458.738 0 0 0 93.699-199.457 489.44 489.44 0 0 0 8.25-58.045c.71-8.308.12-19.948 1.73-27.509Zm-847.217-.451 1.326-.062c-.93 84.627 29.081 177.995 75.585 248.305 15.374 23.249 30.858 42.029 49.646 62.496l-.825 5.495c.221-5.464-4.238-9.155-7.841-13.092-27.389-29.969-50.86-64.598-69.242-100.798a462.666 462.666 0 0 1-48.132-174.403c-.658-8.759-.195-18.928-.517-27.941Z"/>
  <path fill="#FFB8B3" fill-opacity=".894" d="M337.496 979.079c1.953 2.188 4.471 3.802 6.564 5.86 7.164 7.023 14.665 13.686 22.376 20.101a415.84 415.84 0 0 0 189.238 90.46 417.16 417.16 0 0 0 40.586 5.71c5.973.49 22.371 1.23 27.49 2.27-7.672.94-35.217-1.65-43.373-2.68a415.185 415.185 0 0 1-205.405-86.94 498.043 498.043 0 0 1-23.432-19.933c-4.387-3.943-13.248-14.007-18.771-14.341 1.56-.309 3.135-.377 4.727-.507Z"/>
  <path fill="#FFB8B3" d="m627.614 183.727 3.11-1.033c.532 5.414.278 11.721 7.493 7.802.019 2.432-2.256 1.706-1.589 4.548 6.183 5.505 16.403 3.281 22.066 4.321-6.486 1.225-16.532.856-21.911 3.534l-.532 1.097c.55 1.006 1.088 2.018 1.62 3.036l-.624.614c-1.194-.361-2.269-.614-3.512-.739-1.991 1.841-1.434 1.622-2.38 4.61l-.18 2.452c-.402 3.885-1.941 16.628-1.836 19.901-.773-3.127.186-7.431-1.119-12.159-.946-4.27.21-13.523-4-15.4-1.447.639-1.707.798-3.24 1.117.909-1.813 1.527-2.628 1.373-4.74-.526-3.366-.538-3.87-.031-7.238a119.254 119.254 0 0 0-2.139-4.164l.259-.623.322 1.237.426-.768-.612.149.136.353 1.07-.064c1.997 1.346 2.553 1.055 4.186-.269 1.323-2.782 1.335-4.559 1.644-7.574Z"/>
  <path fill="#FFB8B3" fill-opacity=".906" d="M860.017 1031.09c-59.81 38.77-116.412 62.53-187.907 70.55-5.515.62-34.289 3.01-38.635 2.18 1.533-1.35 31.605-2.72 36.576-3.27a466.395 466.395 0 0 0 60.583-11.25c48.762-12.63 86.866-32.48 128.703-59.32l.68 1.11Z"/>
  <path fill="#FFB8B3" fill-opacity=".914" d="M404.678 281.333c50.811-36.507 127.819-61.999 190.002-66.834 9.365-.728 21.761-2.485 30.875-1.737l.86.599c-2.925 1.466-14.49 1.159-18.657 1.363a392.415 392.415 0 0 0-42.572 4.683c-50.292 8.261-97.273 25.764-141.268 51.356-3.857 2.244-16.713 9.45-18.48 12.63l-.76-2.06Z"/>
  <path fill="#FFB8B3" d="M629.141 1097.12c1.218 1.43 2.368 4.86 3.431 6.77 3.524 6.31 5.83 6.79 12.334 8.63-10.887 4.05-11.19 4.77-15.333 15.62-1.329-1.18-2.93-5.58-3.752-7.48-2.337-5.42-6.9-6.4-12.205-8.28 10.851-2.46 11.883-5.21 15.525-15.26Zm391.239-450.038 2.2-.297c1.6 3.363 4.93 8.308 8.31 10.027-3.42 3.641-5.44 5.489-7.77 9.866-1.42-.575-1.79-.996-3.03-1.892-2.5-3.74-3.95-5.261-7.99-7.251l-.06-.618c4.67-1.583 7.14-5.193 8.34-9.835Zm-785.369 1.78 2.347-.179c1.663 7.17 4.29 5.242 6.361 9.464l-.719.327c-3.6 1.676-3.866 1.917-5.602 5.545l-2.471.21-2.444 1.564c-1.444-4.555-4.606-6.738-8.316-9.049 4.767-1.793 4.878-2.622 8.094-6.572 1.223-.352 1.697-.593 2.75-1.31Zm394.26 399.788c2.875 6.02 3.314 7.3 9.453 10.09-4.544 2.6-6.993 3.83-8.427 9.26-.111.45-.216.89-.315 1.34l-1.033-.46c-2.102-6.03-3.27-6.9-8.853-10.27 6.114-3.2 5.935-3.34 8.964-9.52l.211-.44Z"/>
  <path fill="#FFB8B3" fill-opacity=".831" d="m631.354 211.517.897 1.084a380.34 380.34 0 0 1 74.351 7.742c5.769 1.167 9.991.848 15.03 3.95-2.3.14-5.471-.677-7.771-1.217-27.525-6.47-54.475-8.514-82.686-9.107l.179-2.452Z"/>
  <path fill="#FFB8B3" fill-opacity=".91" d="M923.438 977.033c.192.526.52.995.952 1.348-2.825 1.162-6.436 5.347-8.828 7.634-15.018 14.345-31.587 28.525-48.781 40.195l-1.057-.82c22.492-16.24 37.812-29.299 57.714-48.357Z"/>
  <path fill="#FFB8B3" d="M237.374 613.423c1.609 2.544 1.704 3.15 1.459 6.317-.435 9.65-.927 19.299-1.475 28.943l-2.347.179c.017-9.909.793-25.808 2.363-35.439Z"/>
  <path fill="#FFB8B3" d="M906.585 365.844c4.872-.475 7.617.995 7.957 6.238.031.516.056 1.032.068 1.548l-2.207 1.616c-6.51 1.293-9.305-1.521-7.363-7.867l1.545-1.535Zm145.725 285.559 1.24.216c1.97 1.756 3.06 2.368 3.95 4.748-.11 2.887-1.43 3.758-3.55 5.724l-.5.47-1.04.099c-6.67-3.165-5.6-7.659-.1-11.257Zm-847.777.408 1.93-.34c4.042 4.488 5.515 6.367.056 10.675l-1.326.062c-6.453-2.571-6.541-6.948-.66-10.397Zm147.992 296.063a4.92 4.92 0 1 1 4.165 8.865 4.92 4.92 0 0 1-4.165-8.865Zm546.53 6.46a4.902 4.902 0 0 1 .296-6.317 4.894 4.894 0 0 1 6.282-.761 4.901 4.901 0 0 1 1.873 2.306 4.9 4.9 0 0 1-8.451 4.772ZM405.437 283.393c-.368 1.081-1.816 4.188-2.614 4.288-4.415.56-7.973 2.069-11.936 3.847 7.406-5.017 4.097-9.041 8.658-11.596 2.553-.082 2.767.182 5.132 1.401l.76 2.06Zm216.915-80.705c-8.734-2.851-15.197-1.524-22.403-3.101 6.143-.388 17.626-.433 22.373-4.137-.507 3.368-.495 3.872.03 7.238Zm5.027-69.95a3.73 3.73 0 0 1 5.608 3.368 3.737 3.737 0 0 1-7.017 1.643 3.733 3.733 0 0 1 1.409-5.011Z"/>
  <path fill="#FFB8B3" d="M627.613 183.728c.705-6.342.915-12.066 1.095-18.416l.612-.967-.279-.294c1.274 4.491 1.472 13.607 1.682 18.643l-3.11 1.034Z"/>
  <path fill="#FFB8B3" d="M628.047 1169.91a3.303 3.303 0 0 1 3.431.37 3.274 3.274 0 0 1 1.23 3.21 3.282 3.282 0 0 1-2.312 2.56 3.292 3.292 0 0 1-4.006-1.98 3.307 3.307 0 0 1 1.657-4.16Zm295.391-192.877a3.084 3.084 0 0 1 .489-2.936 3.067 3.067 0 0 1 2.745-1.144c.643.068 1.249.34 1.725.779a3.072 3.072 0 0 1 .266 4.278 3.072 3.072 0 0 1-4.273.371 3.13 3.13 0 0 1-.952-1.348Zm-591.688-4.086c4.332 1.533 4.432 1.731 5.746 6.132-1.593.13-3.168.198-4.728.507l-1.843-1.143.825-5.496Z"/>
  <path fill="#FFB8B3" fill-opacity=".322" d="M628.219 221.711c1.305 4.729.346 9.033 1.119 12.16.278 2.245.934 7.173-.247 8.994-1.7-2.427-1.02-17.504-.872-21.154Z"/>
  <path fill="#FFB8B3" d="M729.806 227.027c-1.378.545-1.552.53-3.035.744-2.072-.831-1.336-.157-2.412-1.932.421-2.112-.111-1.277 1.694-2.55 2.14-.111 2.084.003 3.871 1.03l-.118 2.708Z"/>
  <path fill="#FFB8B3" fill-opacity=".776" d="m865.724 1025.39 1.058.82c-2.269 1.6-4.575 3.18-6.764 4.88l-.68-1.11c1.768-1.44 4.47-3.23 6.386-4.59Z"/>
</svg>
