<svg xmlns="http://www.w3.org/2000/svg" width="964" height="859" fill="none" viewBox="0 0 964 859">
  <path fill="#ECD989" d="m488.901 240.523.428.814c-3.168 5.57-5.065 22.643-6.331 29.469l-10.012 52.316-10.277 51.986c-4.119 20.084-8.511 40.039-11.962 60.299-.635 3.728-.801 6.88-.786 10.641 21.609 2.359 48.114.479 70.115 1.022 7.997.197 18.55-.577 26.293.47-8.393 15.262-18.108 30.751-26.797 45.93l-80.115 138.292-35.568 62.079c-2.851 4.89-7.486 15.255-11.062 18.244l-.669-.146-.513-2.071c.123-4.698.92-5.766 2.226-10.205 1.343-4.565.891-10.228 1.757-14.996l19.359-104.148 7.15-38.709c.945-5.06 5.289-23.473 3.14-27.314-2.739-1.309-84.49-.739-94.607-.146-1.329-.73-2.723-1.44-4.069-2.146 13.662-21.341 27.32-46.432 40.216-68.542l80.617-136.771c12.387-20.719 23.919-42.158 36.995-62.478.711-1.102 3.338-3.033 4.472-3.89ZM340.966 506.395c8.857.57 17.561.386 26.425.396l39.061-.047c5.884-.038 24.738-1.149 29.323 1.421.724 2.66-3.394 22.49-4.101 26.321l-10.946 62.069c-1.188 6.957-3.131 13.353-3.453 20.611-.335 3.375-2.133 7.997-2.351 11.226-.305 4.533-2.367 10.92-2.59 15.128-.356 6.764-5.004 18.249-3.229 24.024 5.478-8.312 11.814-21.223 17.525-30.731a4152.235 4152.235 0 0 0 55.055-94.198c4.806-8.346 9.306-16.879 14.225-25.163 1.788-3.013 3.257-7.004 5.154-9.847 8.873-13.287 15.825-27.648 24.359-41.138 2.156-3.409 5.055-8.479 7.729-11.428-7.004-1.347-20.033-.961-27.781-.971l-46.628.139c-5.943.038-15.328.56-20.794-.356 6.812-26.86 11.46-54.881 16.754-82.096 4.11-21.127 9.189-42.074 12.41-63.389 1.412-8.676 3.807-10.561 3.179-21.163-.743-.918-.284-.544-1.59-.871-1.23 4.891-15.09 26.499-18.471 32.381l-76.719 131.384-20.683 34.581c-3.326 5.587-10.442 15.989-11.863 21.717Zm84.283-381.143c.102-2.736.189-3.541-.451-6.302l.163-.503c1.707.63 2.742 1.006 4.352 1.829.498 1.424.089 4.916.256 7.238 1.137 10.373 1.93 18.554 10.7 26.091 5.11 4.391 8.932 3.677 13.876 5.448 3.279.563 5.541.702 8.119 2.91l-.13.681c-1.956.677-2.277.519-4.412.27-2.284 1.088-4.95 1.91-7.42 2.458-13.309 2.952-18.962 13.449-20.214 26.53-.395 3.388.498 7.572-3.284 9.134-.631.261-.701.907-1.03 1.609l-.441-.114c-.01-2.45-.84-7.596-1.093-10.493-.617-15.971-11.305-25.428-26.368-28.041 1.757-2.098 1.567-2.751 1.985-5.534 11.447-1.151 17.898-6.577 22.181-17.119 2.416-5.945 2.126-10.007 3.211-16.092Z"/>
  <path fill="#454D39" d="M425.249 125.252c.102-2.736.189-3.541-.451-6.302l.163-.503c1.707.63 2.743 1.006 4.352 1.829.498 1.424.089 4.916.256 7.238-.199 1.867-.224 3.836-1.35 5.338l-.614-.234c-1.324-2.829-1.26-4.801-2.356-7.366Z"/>
  <path fill="#D7C785" d="m424.24 192.038 1.029.604c1.164-.662 1.349-1.395 1.944-2.611l.881-.321c.866.819.897 1.043 1.482 2.105l.512.086c-.395 3.389.499 7.572-3.283 9.134-.632.261-.701.908-1.031 1.609l-.441-.113c-.01-2.45-.84-7.596-1.093-10.493Z"/>
  <path fill="#A78B2A" d="M454.145 159.053c3.278.563 5.541.702 8.119 2.909l-.13.681c-1.956.678-2.277.519-4.413.27-1.556-.816-2.866-1.29-3.877-2.682l.301-1.178Z"/>
  <path fill="#D7C785" fill-opacity=".984" d="M614.264 470.384c7.837-.69 19.167.866 27.536.513 4.641-.193 26.42-.842 28.736 1.2.019 1.167.287 2.255-.038 3.276-1.779 1.186-2.593.965-4.805.941a3301.387 3301.387 0 0 0-36.701.038c-5.658.033-12.21.235-17.887-.169-.122-.01-1.031-.259-1.04-.278l-.876-1.553c-1.624-1.017-1.586-.396-2.513-1.874l.475-.833c1.991-1.087 4.754-1.06 7.113-1.261Zm-378.62.027c5.099-.512 34.494.079 38.88 1.531l.33.861c-.706 4.9-7.42 3.605-11.063 3.634-3.074.023-6.201-.076-9.281-.099-12.919-.057-26.326-.273-39.201.052-.716-1.685-1.294-3.54-1.882-5.281 6.669-.099 15.858-.203 22.217-.698Z"/>
  <path fill="#ECD989" d="M163.152 463.681c4.549-.635 9.103-.294 12.123 3.655a9.363 9.363 0 0 1 1.734 7.256c-.738 4.227-3.213 6.255-6.477 8.477-2.766.65-4.516 1.139-7.311-.009a10.001 10.001 0 0 1-5.64-5.908c-2.111-6.038-.466-11.192 5.571-13.471Zm549.361-.436c6.43-.161 8.318.952 11.429 6.278.235 6.994.372 12.153-7.785 14.346-5.498-.028-10.144-3.144-11.448-8.788-.993-4.302.41-6.871 2.65-10.375 1.605-.575 3.488-1.021 5.154-1.461ZM284.39 583.852c1.845.866 2.455.884 2.971 3.021-.8 3.45-13.843 15.034-16.997 18.136-8.888 8.745-17.528 18.691-27.722 25.807l-1.367.189-.558-.758c.013-.988.018-2.344.699-3.078 3.877-4.18 8.213-8.534 12.186-12.568a3984.643 3984.643 0 0 1 30.788-30.749Zm299.448-.838c15.128 13.715 29.536 29.323 44.326 43.51 1.035.988.343 3.883.117 5.168-.927-.607-4.165-2.871-4.787-3.558-5.577-6.199-38.051-36.577-40.555-41.195-.278-1.647.211-2.306.899-3.925ZM244.161 325.379c5.972.865 17.975 15.896 23.243 20.561 5.796 5.132 11.778 11.404 17.416 16.792 1.399 1.336 2.997 3.007 4.092 4.582.296 1.844.214 1.979-.195 3.847-5.329-2.399-16.92-15.578-21.792-20.127-7.314-6.829-14.713-14.753-21.974-21.717-1.119-1.073-1.374-1.441-1.637-2.897l.847-1.041Zm352.38 31.132c5.794-6.834 10.746-12.822 17.901-18.459 2.721-2.146 11.499-12.423 13.486-12.728l1.176.581c.904 3.444-7.795 11.104-10.416 13.503-7.579 6.929-14.686 15.279-22.034 22.213-.075-1.674-.08-3.428-.113-5.11Z"/>
  <path fill="#D7C785" d="M596.541 356.512c.033 1.681.037 3.435.113 5.109-2.538 2.593-7.372 8.614-10.365 8.723-3.432-5.062 6.627-11.096 10.252-13.832ZM387.567 162.914c5.904-1.456 6.833-3.792 12.29-4.452-.418 2.784-.228 3.436-1.985 5.535-3.43-.404-6.865-.765-10.305-1.083Z"/>
</svg>
