<svg xmlns="http://www.w3.org/2000/svg" width="1246" height="1118" fill="none" viewBox="0 0 1246 1118">
  <path fill="currentColor" d="M630.209 288.824c.457 3.648-81.195 211.496-89.022 232.452 7.082-1.105 26.168 0 34.826-.09l106.287-.259c-4.337 6.58-16.84 21.037-22.34 27.839l-51.994 63.713-82.215 101.082c-28.376 34.739-58.271 70.913-85.743 106.332-1.538 1.697-4.743 6.521-6.207 8.613 2.97-11.447 10.979-27.7 15.94-38.813 30.571-68.473 58.389-138.966 89.927-206.93-9.897-.225-19.539.382-29.378.364l-103.093.226c5.655-10.018 21.427-29.27 29.054-39.345l60.244-79.284 88.08-115.81c14.478-19.107 30.68-41.743 45.634-60.09Z"/>
  <path fill="currentColor" d="M537.62 418.158c-1.536 15.433-4.26 31.658-6.007 47.137-.364 3.227-5.834 15.104-8.137 16.899-7.825 17.657-18.491 34.662-26.997 52.036a132.434 132.434 0 0 1-3.72 7.038c-18.433 8.515-36.309 17.838-54.697 26.423-.243.881-.258.432.113 1.344-3.227 2.506-15.039 6.315-17.256 8.366l.098.319c-1.656 1.09-2.039 1.012-3.971 1.194l-1.003-.453c1-3.82 72.806-96.559 81.781-108.237l25.018-33.04c4.344-5.773 9.956-14.028 14.778-19.026Z"/>
  <path fill="currentColor" d="M537.62 418.158c-1.536 15.433-4.26 31.658-6.007 47.137-.364 3.227-5.833 15.104-8.136 16.899.164-3.847 5.705-10.315 6.467-14.652 2.098-11.945 2.661-23.998 5.098-35.911.438-2.145-.289-3.548.481-5.824.399-1.177.616-3.233.722-4.517-4.385 4.467-7.864 9.428-8.667 15.51-.43 3.258-1.253 8.258-4.789 9.199l-.645-.197c-.531-.16-3.389-1.09-3.899-.582-5.035 5.017-14.746 22.443-20.421 25.004l25.018-33.04c4.345-5.773 9.956-14.028 14.778-19.026Z"/>
  <path fill="currentColor" d="m669.561 527.224.773.129.273.714c-2.324 4.051-9.174 11.916-12.508 16.026l-27.117 33.215-96.906 119.861c-.641-3.656 26.583-31.795 26.697-35.815-2.241-1.089-9.042-4.386-9.865-6.259-2.287-1.722-4.839-4.124-7.149-6.047-2.476 2.044-22.067 35.049-25.152 40.098l-.742.06c.972-2.566 4.642-7.846 6.275-10.517l13.566-22.226c18.088-29.994 36.437-59.826 54.526-89.817 1.383-2.294 2.848-4.281 5.197-5.616 8.033-4.565 16.889-8.334 25.303-12.165a1914.96 1914.96 0 0 0 46.829-21.641Z"/>
  <path fill="currentColor" d="M438.176 569.035c2.59-1.296 5.545-2.431 8.23-3.592 11.202-4.844 22.454-9.546 33.66-14.383 8.952-3.794 12.631-7.141 22.565-5.231 28.391 5.46 56.866 10.286 85.316 15.403.555.1 1.249.624 1.695.937-14.199 4.983-30.795 10.503-44.307 16.635-20.531.238-41.063.301-61.595.19-22.231.117-44.463.09-66.694-.08 1.933-.182 2.315-.104 3.971-1.194l-.098-.319c2.218-2.051 14.03-5.86 17.257-8.366Z"/>
  <path fill="currentColor" d="M614.16 319.277c.261 3.056-68.619 178.718-73.64 191.91-.552 1.451-5.856 12.671-6.845 13.29-7.662 4.795-24.701 11.045-33.198 14.548-.342-3.507 101.452-199.7 113.683-219.748Z"/>
  <path fill="currentColor" d="m526.532 622.71.12 2.822c5.129-1.983 18.106 3.577 20.387 8.607-14.738 28.072-34.442 59.264-50.388 87.019a1721.782 1721.782 0 0 1-31.987 54.27c-3.04 4.97-9.528 16.478-12.817 20.262 19.714-48.248 42.012-95.815 62.163-143.905 4.019-9.592 8.12-19.726 12.522-29.075Z"/>
  <path fill="currentColor" d="M545.334 578.803c13.513-6.132 30.109-11.652 44.308-16.635l-29.289 49.472c-2.087 3.558-11.351 20.024-13.314 22.5-2.281-5.031-15.258-10.59-20.388-8.607l-.119-2.823c2.71-7.129 18.32-39.042 18.802-43.907Z"/>
  <path fill="currentColor" fill-opacity=".973" d="m279.518 618.288 1.4 1.825.743-.104.38-.638c3.968 16.904 6.245 30.614 12.047 47.597C331.02 775.07 429.979 863.445 541.531 887.867c4.008.876 7.555 1.551 11.48 2.786l-.256 1.995c-23.012-5.073-44.433-10.724-66.298-19.61-1.27-.517-2.443.869-3.425 1.636l-.937-.621.102-2.031c.089-2.032-8.589-5.432-10.633-6.375-20.256-9.355-39.94-21.715-57.735-35.036-56.223-42.086-102.391-101.089-123.646-168.473-4.341-13.759-8.711-29.428-10.665-43.85Z"/>
  <path fill="currentColor" d="M840.862 500.603a325.522 325.522 0 0 1 6.254 54.821c1.6 1.824 2.817 2.779 3.17 5.086-.341 2.356-1.345 3.202-2.884 5.16 1.795 71.061-27.7 149.905-73.148 204.095-2.811 3.358-11.103 11.436-10.689 15.663-1.929 1.91-2.233 2.062-4.782 3.017l-2.525-1.508c1.265-2.956 1.138-3.577 3.887-5.481l.731.013c3.431-1.381 16.274-18.601 19.414-22.725 34.508-45.335 56.581-100.833 62.798-157.438 1.114-10.113 3.176-26.161 1.582-36.392-5.238-6.375-.377-6.05.329-10.113 1.004-5.815-2.957-41.684-5.19-44.363l.164-3.316c1.156-1.443.968-4.685.889-6.519Z"/>
  <path fill="currentColor" d="M760.145 781.457c2.671 1.034 3.024.699 3.42 3.972-1.929 1.91-2.233 2.062-4.782 3.017l-2.525-1.509c1.265-2.956 1.138-3.577 3.887-5.48Z"/>
  <path fill="currentColor" fill-opacity=".016" d="M798.061 515.53c-.341-11.483-1.546-16.061-10.234-23.843-.62-.56-.912-5.806-1.91-6.728-3.273-3.038-12.46-8.142-13.543-12.577 1.405-2.168 1.119-2.478 3.085-3.489 4.155-.108 10.111 2.545 13.664 5.192 14.784 11.011 19.323 17.403 23.351 35.351.346 1.549.231 3.173-.633 4.404-3.213-5.293-10.86-3.321-13.78 1.69Z"/>
  <path fill="currentColor" fill-opacity=".976" d="M564.862 252.53c6.468.684 12.885.449 19.974 1.544 63.2 9.768 122.513 38.217 167.826 83.621.262.265.809 1.114 1.071 1.475l-1.046 1.623c-7.015-9.798-40.179-34.475-51.276-41.467a293.341 293.341 0 0 0-115.253-42.073c-5.161-.703-16.704-2.371-21.66-1.252a5.73 5.73 0 0 0 .364-3.471Z"/>
  <path fill="currentColor" fill-opacity=".98" d="M564.943 890.039c9.224-.87 32.782-7.372 41.761-10.189 60.739-19.057 104.903-48.461 149.553-92.913l2.525 1.509c-2.117.377-10.434 9.464-13.202 12.049a373.773 373.773 0 0 1-44.565 35.973c-38.262 26.18-81.082 43.984-126.075 53.82-2.953.645-6.81 1.308-9.641 2.074l-.356-2.323Z"/>
  <path fill="currentColor" fill-opacity=".984" d="M553.64 252.529a5.74 5.74 0 0 0 .146 2.891c-76.061 8.995-131.647 34.284-186.805 87.888l-.828-1.506c2.842-4.013 14.732-14.475 18.935-18.054a304.014 304.014 0 0 1 127.883-64.581c8.617-2.012 17.513-3.774 26.244-5.311 3.467-.61 12.287-.192 14.425-1.327Z"/>
  <path fill="currentColor" d="M281.448 498.018a322.982 322.982 0 0 1 39.422-99.307c10.331-17.281 23.729-33.517 36.976-48.621.815-.929 1.06-1.628 1.104-2.854.971 1.017 1.836 2.058 2.961 2.867-3.331 1.443-9.716 9.674-12.384 12.814-22.017 25.913-39.651 56.957-51.773 88.686-5.051 13.221-12.668 37.125-14.6 51.152-.045-1.481-.071-2.249-.276-3.743l-1.43-.994Z"/>
  <path fill="currentColor" fill-opacity=".976" d="M760.54 346.65c12.862 9.552 39.388 48.947 47.303 63.348 5.379 9.782 13.513 28.129 17.687 38.826 1.156 2.965 2.81 7.272 4.058 10.386.182.46.127 1.102.115 1.661-1.478-1.187-3.078-5.439-3.863-7.374-16.257-40.043-37.125-74.256-66.687-106.043l1.387-.804Z"/>
  <path fill="currentColor" fill-opacity=".867" d="M797.622 528.703c.365-2.776-.006-3.709 2.744-4.411 10.72 3.578 3.657-4.885 7.629-7.753l1.266.39c1.223 2.345.852 5.939 1.168 8.991-.657 2.956-1.734 9.883-4.034 11.646-5.074-2.091-4.855-2.687-9.156-5.178-.396-1.853-.219-1.928.383-3.685Z"/>
  <path fill="currentColor" fill-opacity=".314" d="M798.061 515.53c2.92-5.011 10.568-6.983 13.78-1.69-.164 1.822-.712 11.079-1.411 12.08-.317-3.052.054-6.646-1.168-8.991l-1.266-.391c-3.973 2.869 3.091 11.332-7.629 7.754-2.75.701-2.379 1.634-2.744 4.41-.621-4.721.967-7.815.438-13.172Z"/>
  <path fill="currentColor" d="m281.448 498.018 1.43.994c.205 1.495.231 2.262.276 3.743-1.612 8.907-6.856 44.24-5.259 51.756a5.8 5.8 0 0 0-3.354-.108c1.774-21.473 2.26-34.258 6.907-56.385Zm-7.008 67.557c.986.283 2.028.3 3.022.049-.668 12.922 1.948 40.699 4.58 53.747l-.38.638-.743.104-1.401-1.825c-3.683-9.58-3.786-31.083-4.5-41.754-.247-3.688.086-7.163-.578-10.959Z"/>
  <path fill="currentColor" d="M558.912 189.514c1.474 1.439 3.065 5.118 4.097 7.154 1.877.725 4.262 1.455 6.208 2.112-6.337 3.502-7.178 4.332-9.687 10.668l-.487-.465c-3.059-6.128-4.608-7.207-10.377-10.269 6.987-1.809 7.291-2.765 10.246-9.2Z"/>
  <path fill="currentColor" d="M553.011 890.653c3.651-4.787 8.182-6.484 11.933-.614l.355 2.323c-4.165 7.707-7.944 7.16-12.544.286l.256-1.995Zm-278.47-336.25a5.798 5.798 0 1 1 3 11.201 5.798 5.798 0 0 1-3-11.201Z"/>
  <path fill="currentColor" d="M553.641 252.529a5.73 5.73 0 1 1 10.857 3.472 5.73 5.73 0 0 1-5.558 3.416 5.727 5.727 0 0 1-5.299-6.888Z"/>
  <path fill="currentColor" fill-opacity=".984" d="M835.142 524.37c-2.926 8.652-9.558 18.218-15.386 25.26-.03-.517 10.428-24.158 11.523-28.379 1.332 2.235 1.022 2.404 3.863 3.119Z"/>
  <path fill="currentColor" fill-opacity=".965" d="m831.279 521.251.706-2.233c1.685-5.224.931-10.749 3.182-14.315 1.88-.662 1.576-.278 4.052.737l.754 1.682-.164 3.316c-1.077-1.22-1.162-1.424-1.497-3.016l-.699.144c-.256 5.96.134 11.394-2.47 16.803-2.842-.715-2.531-.883-3.864-3.118Z"/>
  <path fill="currentColor" d="m833.305 476.132 1.101-.036c2.47 10.743 4.557 11.112 6.455 24.507.079 1.834.268 5.076-.888 6.519l-.755-1.682c-3.51-10.849-4.082-18.253-5.913-29.308ZM358.95 347.236c.292-1.516.372-1.719.952-3.157 1.591-1.569 3.988-1.776 6.251-2.277l.827 1.506c-1.07 3.845-1.037 5.407-5.069 6.795-1.125-.809-1.99-1.85-2.961-2.867Zm394.783-8.066c2.33.62 4.094.758 5.573 2.536.742 2.112.864 2.719 1.235 4.944l-1.387.804-2.032-.709c-3.845-1.343-3.626-1.935-4.435-5.952l1.046-1.623Z"/>
  <path fill="currentColor" fill-opacity=".824" d="M833.305 476.132c-.785-2.194-1.655-3.836-1.314-6.076 1.472 1.301 1.941 3.97 2.415 6.04l-1.101.036Z"/>
  <path fill="currentColor" d="m558.349 166.195 1.087-.439c2.503 2.244 15.143 1.415 19.013 1.537 184.896 5.809 340.367 154.033 366.084 335.388 1.417 9.993 4.295 14.832 4.642 26.231l-.992-2.593-.967.028c-2.312 3.064-1.515 9.736-2.842 13.558.365-17.899-4.739-49.377-8.736-66.883a393.194 393.194 0 0 0-173.862-246.318 377.402 377.402 0 0 0-211.534-56.755c-82.105 3.207-162.367 33.656-225.309 86.398-4.802 4.025-19.022 14.915-22.053 19.769-.99-1.093-1-1.219-1.797-2.486 12.159-12.233 26.111-23.016 39.902-33.31 52.13-38.906 113.661-62.544 178.001-70.977 6.079-.797 35.713-1.557 39.363-3.148Z"/>
  <path fill="currentColor" fill-opacity=".984" d="M165.256 676.828c2.01 13.127 10.594 35.438 15.385 47.914 53.371 139.038 180.556 246.544 329.332 266.975 6.032.828 34.156 4.599 39.185 2.871.613 1.211 1.064 2.111 1.591 3.376-3.28-1.04-14.43-1.216-18.707-1.672-9.333-1.004-18.929-1.795-28.222-3.243a411.338 411.338 0 0 1-134.805-47.098 434.713 434.713 0 0 1-205.322-264.974c1.218-1.728 1.184-2.123 1.563-4.149Z"/>
  <path fill="currentColor" d="M558.812 77.781c2.086 13.151 2.035 28.268 4.301 39.749 1.925-1.653 15.928-13.93 16.728-14.004-2.095 4.211-10.377 12.513-13.475 17.178 8.135.814 16.267 1.67 24.405 2.458 4.215.408 9.422.192 13.387 1.154-12.235 1.689-25.084 2.191-37.404 3.563 2.133 4.041 3.64 6.481 7.308 9.486l1.651 2.661c1.352 1.655 3.384 3.895 4.317 5.701-8.279-6.09-7.918-6.324-17.777-7.439-1.414 9.11-1.165 18.487-2.817 27.468l-1.087.439c-1.142-8.072-1.09-18.294-2.299-27.351-5.118.688-8.361-.423-12.775 2.537-.012-2.05.593-2.897 1.476-4.739 2.419-2.238 5.944-5.033 6.356-8.3-1.917-1.458-34.674-3.892-39.174-3.708 6.152-1.339 10.645-1.006 16.731-1.559 7.487-.679 15.791-1.225 23.208-2.214l-.373-.687c-2.478-4.462-9.188-11.933-12.765-16.13 4.938 2.742 13.422 12.644 16.642 12.073 1.322-7.014 3.146-30.275 3.436-38.336Zm385.562 462.124c1.326-3.822.529-10.494 2.841-13.558l.968-.028.991 2.593c1.083 7.935 1.351 15.604 2.403 23.381 3.377-3.12 15.04-13.535 18.465-15.336l-.176.537-.475-.356.11.912c-3.602 4.317-12.436 13.965-15.003 17.905 6.157.216 12.223.342 18.349 1.025 2.178 1.28 1.625.585 2.799 2.637-.384 1.301.018.84-.992 1.568l-.383.305a233.08 233.08 0 0 0-19.353 1.543c3.857 5.996 12.131 15.684 17.278 20.755-7.039-4.826-13.531-11.45-20.406-16.932a612.488 612.488 0 0 0-2.786 26.666c-.779 2.325-.073 1.602-1.649 2.77-2.233-2.051-2.287-7.047-2.592-10.161-.212-6.497-.468-12.511-1.229-18.978-6.065 3.617-13.877 11.051-19.693 15.821 4.465-6.975 11.145-12.255 15.873-19.52-11.097-1.906-26.094-2.817-37.453-3.527 2.841-1.354 33.03-3.719 38.438-4.125-3.887-4.914-12.314-13.684-14.899-18.085 4.569 4.004 12.587 11.046 17.765 13.81.578-3.517.651-7.989.809-11.622Z"/>
  <path fill="currentColor" d="M253.962 802.107c3.308 3.899 6.907 8.76 9.981 12.768 66.661 86.891 169.926 143.898 279.883 148.582 4.307.183 9.292.937 13.57.152 1.545-1.326.514-2.25 1.244-4.507l1.581-.87-.476 5.426c.38 1.283.609 2.037.842 3.345l-.093 4.429c-.475-1.929-.289-2.908-1.514-3.705-.915 1.934-.884 2.135-1.115 4.307.045-2.062.222-3.163-.481-5.122-4.791-.973-13.037-.499-18.269-.833-111.261-7.087-221.747-67.415-286.332-161.788l1.179-2.184Z"/>
  <path fill="currentColor" d="M834.589 841.122c2.123-1.509 6.285-6.673 8.213-8.851a376.455 376.455 0 0 0 25.833-32.207 403.046 403.046 0 0 0 73.135-180.207c1.692-11.332 1.655-22.535 2.994-33.726.304 3.114.359 8.11 2.592 10.162 1.575-1.169.869-.446 1.648-2.771-.109 3.566-.121 8.379-1.137 11.802-3.547 11.918-3.998 24.302-6.395 36.389a409.184 409.184 0 0 1-73.111 164.141c-7.258 9.812-22.085 28.522-30.907 36.776l-.705.651-.079-.967a15.973 15.973 0 0 1-2.081-1.192Z"/>
  <path fill="currentColor" d="M290.561 283.349c.992 1.026 1.509 1.456 2.312 2.653-3.747 4.266-8.057 8.184-11.842 12.363-59.206 65.363-94.733 151.491-100.565 239.35-.262 3.957-.643 8.083-1.01 12.07-1.556-.292-.94-.242-2.596.207.971-93.413 43.817-193.068 108.18-260.129 1.974-2.057 4.575-3.858 5.521-6.514Z"/>
  <path fill="currentColor" d="M557.865 972.034c.232-2.172.2-2.373 1.115-4.307 1.225.797 1.039 1.776 1.514 3.704 1.228 6.673.333 16.43 1.998 22.348 5.159.602 14.111-11.539 18.014-12.67-2.013 3.163-8.823 11.271-11.639 13.771-.895 1.15-1.341 1.594-1.934 2.932 1.388 1.898 1.295 1.874 4.184 2.288 6.318.91 13.427 1.66 19.796 1.67l1.016 2.43c-4.768.5-21.811.56-24.052 3.37.147 3.14 10.077 13.95 12.698 17.4-5.572-4.06-12.2-11.45-18.202-14.2-1.046 12.63-1.096 24.57-3.454 37.1-.59-8.78-2.083-30.3-3.758-37.76-6.42 5.1-11.56 10.47-18.528 15.44 4.639-5.26 12.429-13.3 15.172-19.29-11.33-.66-25.043-2.09-36.314-3.44 6.117-.47 31.255-1.8 35.091-3.694l.167-1.162c-.527-1.265-.978-2.165-1.591-3.376-3.797-4.112-8.242-9.653-11.911-14.008 4.154 2.792 14.178 12.737 17.309 13.163 2.27-2.227 2.983-17.762 3.309-21.709Z"/>
  <path fill="currentColor" fill-opacity=".988" d="M574.062 137.365c104.801.82 207.316 49.069 280.373 123.274a444.996 444.996 0 0 1 20.606 22.766c4.04 4.849 9.649 12.084 13.835 16.518l-2.062.758a231.54 231.54 0 0 1-6.571-7.718c-14.802-18.137-30.974-35.168-48.465-50.762a409.41 409.41 0 0 0-158.938-87.777c-25.887-7.308-70.273-15.953-97.127-14.398l-1.651-2.661Z"/>
  <path fill="currentColor" d="M271.308 261.148c1.768 2.077 2.061 2.052 5.119 2.555-4.865.143-7.04 3.188-10.574 6.91a425.63 425.63 0 0 0-110.452 231.889c-1.416 9.663-5.87 47.128-3.93 55.159l-3.641-.507c.841-1.4.971-11.656 1.084-14.006 3.931-81.969 32.225-167.96 81.962-233.814a470.89 470.89 0 0 1 34.021-40.623c1.916-2.039 5.477-5.275 6.411-7.563Z"/>
  <path fill="currentColor" d="M815.954 860.124c-2.513-5.024-3.784-9.355-1.095-14.805a11.876 11.876 0 0 1 7.136-6.083c4.624-1.429 8.512-.188 12.594 1.886.676.45 1.345.845 2.081 1.192l.079.967c2.209 4.076 3.614 7.786 2.348 12.512a11.909 11.909 0 0 1-5.834 7.318c-4.569 2.512-9.083 2.068-13.835.486a78.182 78.182 0 0 1-1.728-.596c-24.099 19.952-40.215 34.477-68.08 50.754l-1.831-1.958c16.786-8.467 55.918-38.82 68.165-51.673Z"/>
  <path fill="currentColor" d="m176.471 572.192 1.166 2.359c.962-.047.925.054 1.794-.267 2.818 75.391 21.45 143.578 61.336 207.714 4.219 6.782 9.083 13.364 13.196 20.109l-1.179 2.184c-7.169-8.479-17.577-25.833-23.154-35.614a407.199 407.199 0 0 1-53.159-196.485Z"/>
  <path fill="currentColor" d="M895.629 313.589c.499-.736 1.344-1.627 1.953-2.319 1.296 3.566 9.923 15.22 12.387 18.921a349.384 349.384 0 0 1 16.53 27.685 423.222 423.222 0 0 1 50.363 174.425c.493 7.732 1.521 17.287 1.357 24.845l-2.58-.285c-.419-3.137-.498-5.875-.651-9.003-.882-18.257-2.287-36.942-5.177-55.017A427.618 427.618 0 0 0 912.5 338.198c-3.316-5.372-12.77-20.326-16.871-24.609Zm-147.84 598.207 1.831 1.959c-52.772 31.776-114.494 50.499-175.95 52.615-3.72.134-9.631-.152-13.082.633-.234-1.308-.462-2.062-.843-3.346 6.475 1.004 26.824-.778 34.335-1.478 59.042-5.48 102.713-22.086 153.709-50.383Zm178.82-146.745c1.132.225 2.75.487 3.802.828-2.701.973-2.117.389-3.589 3.169-20.588 38.929-50.808 80.687-83.132 110.693a450.045 450.045 0 0 1-41.042 34.452c-7.83 5.797-16.184 11.332-24.05 17.111-1.582 1.161-1.32 2.244-1.576 4.221a4.713 4.713 0 0 0-2.05-4.702c5.11-1.052 21.598-14.033 26.903-18.029 44.729-33.686 83.089-76.648 111.696-124.774 3.65-6.132 10.878-16.631 13.038-22.969Zm48.045-203.865 3.669.22a437.283 437.283 0 0 1-30.499 162.374c-2.592 6.411-6.206 16.217-9.345 21.935l-1.722-2.44c21.148-45.906 34.253-97.761 37.149-148.208.34-5.938 3.242-30.745.365-33.577l.383-.304Zm-641.967-352.35c2.838-.475 24.873-14.845 29.605-17.622 41.709-24.545 87.629-40.569 135.155-49.257 15.214-2.781 31.651-2.775 46.548-5.189l.757-.126c-.884 1.841-1.489 2.689-1.477 4.739-1.916 2.935-3.981 4.682-6.848 6.663 2.043-2.811 3.954-5.641 6.41-8.095-66.124-.115-155.747 32.395-208.563 71.698-.597-2.216-.028-1.345-1.587-2.811Z"/>
  <path fill="currentColor" d="M568.867 994.88c3.861.359 16.731-.529 21.154-.839 52.119-3.65 105.488-18.966 151.659-43.376 8.305-4.386 18.471-9.355 26.168-14.653.243.876.73 1.66 1.411 2.262-1.928.438-19.523 10.919-23.241 12.908a438.398 438.398 0 0 1-26.368 12.804c-44.467 19.41-90.657 30.699-138.991 32.865-4.495.201-9.264.474-13.726.961.593-1.338 1.039-1.782 1.934-2.932ZM147.958 563.991l3.539-.909c-1.084 3.757-.538 13.546-.378 17.793 1.133 30.059 5.558 67.066 14.137 95.953-.378 2.025-.344 2.421-1.562 4.148-8.189-28.138-11.935-57.226-14.72-86.348-.754-7.883.253-24.219-1.016-30.637Z"/>
  <path fill="currentColor" d="M176.861 549.991c1.656-.448 1.04-.498 2.596-.206l.175.683c.929 3.491 1.836 5.712 5.146 7.554a69.019 69.019 0 0 0 3.548 1.801c-1.302 1.694-5.172 3.375-8.076 6.855-.334 2.502-.756 5.094-.819 7.606-.869.32-.832.219-1.794.267l-1.167-2.359c-.684-7.247-2.818-7.869-8.336-12.093l.267.11-.183-.908-.195.543c.939-1.124.468-.547 1.821-1.157 3.991-1.8 5.464-5.045 7.017-8.696Zm749.748 215.06c-6.547-5.791-1.497-12.244 6.248-13.363l2.336 1.368c3.298 5.681 3.815 13.157-4.782 12.822-1.052-.34-2.671-.602-3.802-.827Z"/>
  <path fill="currentColor" d="M290.561 283.349c-.694-2.437-1.185-4.101-.307-6.626a6.086 6.086 0 0 1 3.215-3.543c2.738-1.237 5.002-.548 7.614.45.797 1.267.806 1.393 1.797 2.486.522 7.626-1.655 11.291-10.007 9.886-.803-1.196-1.32-1.626-2.312-2.653Z"/>
  <path fill="currentColor" d="M888.876 299.923c8.262-.234 11.912 2.957 8.706 11.347-.608.691-1.454 1.582-1.953 2.318-9.655-.355-11.219-3.719-8.815-12.907l2.062-.758Z"/>
  <path fill="currentColor" fill-opacity=".973" d="M323.851 215.791c1.237.802 1.339.721 2.304 1.774-10.494 4.986-40.65 35.356-44.759 36.709-1.355-.422-4.921-.596-6.517-.729 2.748-.204 5.178-.006 7.242-2.018 7.814-7.616 16.157-14.667 24.406-21.762 3.896-3.351 14.757-10.528 17.324-13.974Z"/>
  <path fill="currentColor" d="M323.852 215.791c-2.993-6.646 2.516-9.944 8.835-6.955 1.559 1.466.99.595 1.587 2.811-1.791 5.183-2.546 6.37-8.119 5.918-.964-1.053-1.066-.972-2.303-1.774Z"/>
  <path fill="currentColor" d="M271.309 261.148c.082-4.122-.083-5.433 3.57-7.603 1.596.133 5.163.307 6.517.729-.498 5.152.131 6.827-4.969 9.429-3.057-.503-3.35-.478-5.118-2.555Z"/>
  <path fill="currentColor" d="M558.64 959.101c-1.726-3.424-2.327-4.057-5.463-6.149l-.032-.87c3.829-2.701 3.756-2.701 5.914-6.849l.669.043.265.699c2.581 6.581 2.836 3.303 6.199 6.429-2.568 1.758-4.829 2.92-5.971 5.828l-1.581.869Z"/>
  <path fill="currentColor" d="M767.847 936.012a4.7 4.7 0 0 1 1.764-5.061 4.712 4.712 0 0 1 5.361-.128 4.705 4.705 0 1 1-7.125 5.189Zm-210.93-876.01a4.049 4.049 0 0 1 4.682 6.604 4.05 4.05 0 0 1-6.41-2.915c-.13-1.45.53-2.86 1.728-3.689Z"/>
  <path fill="currentColor" d="M558.263 1056.96a3.881 3.881 0 1 1 2.408 7.378 3.881 3.881 0 0 1-2.408-7.378Z"/>
  <path fill="currentColor" d="m975.64 556.861 2.58.285.864.288c5.007 1.637 8.663 1.675 13.859 2.108-5.05 1.597-11.42.903-14.62 1.864l-3.668-.22c1.01-.728.608-.268.991-1.568-1.174-2.053-.62-1.358-2.798-2.638l2.792-.119Z"/>
  <path fill="currentColor" d="m147.831 557.154 3.641.507c.685 2.316.783 3.056.025 5.421l-3.539.909c-1.972-3.705-2.071-3.432-.127-6.837Zm788.926 186.121 1.722 2.44c-1.01 2.183-2.501 5.152-3.285 7.341l-2.337-1.368 3.9-8.413Z"/>
  <path fill="currentColor" fill-opacity=".945" d="M590.912 1001.77c4.631.37 9.435.84 14.061 1.04-3.147.35-10.182 1.35-13.045 1.39l-1.016-2.43Z"/>
</svg>
