<svg xmlns="http://www.w3.org/2000/svg" width="827" height="851" fill="none" viewBox="0 0 827 851">
  <path fill="currentColor" d="m394.661 420.63.525-.432c5.707-4.793 11.024-12.721 16.543-17.148 12.298-9.863 7.348-19.035 9.75-31.49 10.959-56.8 58.418-94.679 112.422-108.47 3.491-.891 8.491-3.988 11.512-1.535 1.974 3.338.432 8.528.079 12.288-.274 2.891.203 7.078-.225 9.772-3.357 21.113-10.518 42.22-20.284 61.222-3.852 7.495-10.589 11.784-13.361 20.667 2.872.547 5.906.81 8.69 1.468 16.606 3.92 30.882 14.902 37.88 30.617 1.139 2.551 3.137 6.498.893 8.862-4.226.927-8.27-10.923-10.526-14.135-18.028-25.643-57.217-27.664-76.321-2.189-3.557 4.747-7.451 18.065-13.369 15.56-2.49-2.748.764-8.594 1.446-11.949-8.731 3.387-23.754 5.539-33.076 4.696-2.568 2.131-23.001 22.516-24.031 24.614 2.589 2.286 41.818 1.397 48.608 1.438l99.398-.104c8.902-.016 18.377-.307 27.154-.228.316.54 2.14 3.602 2.061 3.989-1.953 9.802-1.658 19.575-2.298 29.477-.074 1.16-1.55 3.777-1.683 5.091-.598 6.34-1.778 12.245-3.653 18.362a194.277 194.277 0 0 1-89.461 112.495c-11.532 6.736-24.474 11.768-36.787 16.796-.977.399-1.654.823-1.887 1.99-.245 4.152.669 16.326 1.284 20.058l.607.1c4.808.739 10.119.17 15.027.295 32.191.839 64.461.365 96.664.532 1.496.008 2.971.224 4.343.822l.403.682c-.416.627-.482 1.026-1.434 1.101-5.149.382-11.25.249-16.361.245-10.718-.008-21.436.05-32.154.175a10733.318 10733.318 0 0 1-277.349.203c-25.132-.478-50.34-.145-75.473-.428-1.897-.021-3.436-.349-4.925-1.529l.082-.819c3.665-.851 18.981-.453 23.527-.448l59.176-.117c7.241-.02 27.773.391 33.767-1.043.398-4.113 1.552-17.219.711-20.535l-.511-1.812c-1.97-.594-4.488-1.109-6.311-1.849-41.346-16.8-78.001-43.697-101.023-82.345a201.37 201.37 0 0 1-24.887-65.096c-.703-3.678-.59-7.725-1.207-11.282-.817-4.704-1.662-8.925-1.872-13.613-.316-7.068-1.547-12.449 7.997-11.555 1.735.162 4.494-.079 6.337-.275 1.116-14.027 11.091-30.959 25.59-35.291 7.46-2.229 6.934-8.981 12.147-13.926 8.095-8.869 19.866-12.958 31.554-14.137 4.154-.419 13.976 3.709 17.95 5.286 3.706 1.814 6.784 4.909 11.095 6.648 2.098-.731 3.025-2.131 4.561-3.442 5.258-4.491 19.312-7.918 25.823-7.42 10.7.819 23.204 5.036 30.105 13.583 6.344 7.858 6.241 11.769 16.652 16.135 1.309.535 4.662 2.558 6.073 2.385 8.286-1.018 15.891-14.651 25.254-12.347 6.964 1.713 17.384 7.53 22.291 12.728 6.605 6.996 12.355 17.326 14.488 26.607Zm-116.627 11.498c-3.959-.424-12.244-.054-16.602 0-9.071.054-18.141.058-27.212.008-19.66-.083-39.32-.008-58.979.233-8.148.091-20.556-.279-28.506.577l-.948.096c-.02 9.794-.416 13.11 2.19 22.447.116 7.895 5.509 26.577 8.322 34.372 17.714 49.086 54.792 85.777 101.918 107.244 12.913 5.879 29.762 10.612 43.62 13.841 4.163.611 9.881 2.892 13.879 3.108 22.415 1.205 44.069 5.19 66.492 1.188 5.052-.901 10.852-.27 15.746-1.051 18.152-2.905 36.321-6.914 53.534-13.451a192.255 192.255 0 0 0 105.191-99.435c7.447-16.729 12.106-33.442 13.881-51.53.477-4.907 2.817-12.1.984-16.816-3.096-1.459-16.914-.582-21.115-.574l-49.533.096-222.862-.353Zm-120.178-9.026c8.923 2.485 36.865 1.235 47.741 1.235l84.85.079c6.877.02 44.085.569 48.011-.894 1.061-1.816.788-3.906.146-5.863-4.035-12.29-12.128-21.998-25.409-24.361-1.945-3.25-3.932-7.911-5.734-10.664-9.446-14.221-34.184-17.987-48.257-9.313-6.908 4.258-8.873 11.009-16.362 3.55-6.69-6.664-14.67-8.625-23.785-8.122-5.493.331-8.384.455-13.538 2.653-6.991 2.982-12.126 7.871-15.602 14.657-.936 1.827-1.743 4.869-3.436 6.26-2.37 1.512-5.821 1.729-8.424 2.98-7.458 3.587-13.811 10.387-16.75 18.134-1.266 3.428-1.78 6.291-3.451 9.669Zm222.035 208.549c8.343.163 53.241 1.48 58.386-.02 2.207-3.15-.191-13.991-2.024-17.349-6.026.37-8.985 1.658-14.578 2.888-9.115 2.007-18.303 3.694-27.623 4.264-4.652.282-9.581 1.462-14.281 1.728-12.272.744-24.568.324-36.841.374-7.236.029-12.122-1.354-18.88-2.057-9.203-.955-17.409-2.198-26.444-4.234-4.392-.993-13.053-4.084-17.203-2.663-1.399 1.915-1.43 11.385-1.668 14.231.233 2.199 1.888 3.433 4.04 3.408 10.252-.117 20.623.091 30.867-.191 11.343-.312 23.075.386 34.351-.092 8.75-.054 23.81.553 31.898-.287Zm-26.707-243.465c-5.161 2.699-11.404 6.101-16.186 9.463 2.345 5.207 5.164 10.004 7.34 15.294.756 1.84 1.693 8.489 2.361 9.291 3.381 4.056 21.778 2.177 26.178 2.26 2.872-.012 12.858.337 14.824-.943 1.93-4.03-3.199-12.257-5.164-16.091-5.535-10.8-16.515-20.598-29.353-19.274Zm82.142 1.659.723.754c6.429 2.184 26.011-3.588 31.792-7.592 4.571-3.167 13.141-10.638 17.741-12.287 11.092-3.977 15.701-5.157 22.391-15.454 15.294-19.345 23.098-41.616 27.649-65.596.636-3.357 2.219-16.883.544-19.317-1.251-.052-5.992 1.573-7.497 1.982-41.944 11.409-78.606 40.981-94.178 82.219-1.646 4.357-8.116 28.334-6.487 30.686 5.282.103 23.625-29.404 31.742-24.46.448 3.552-23.14 24.558-24.42 29.065Z"/>
  <path fill="currentColor" d="M347.992 631.938c2.417-.923 4.927-.985 7.515-1.209l-4.241.178c4.763-1.005 7.085-.623 11.942-.149l-.189.087c6.01.648 11.42.22 16.872.806-8.089.839-23.149.233-31.899.287Zm87.334-242.092.723.753c-1.147 1.131-1.135 1.099-2.573 1.854l-.324-.198c.761-1.17 1.176-1.481 2.174-2.409Zm-84.521-87.058c11.832-3.058 23.909 4.031 27.005 15.852 3.095 11.821-3.956 23.918-15.769 27.051-11.865 3.147-24.03-3.942-27.14-15.816-3.11-11.874 4.019-24.015 15.904-27.087Zm8.782 37.022c3.941-.607 6.998-2.47 9.439-5.686a16.496 16.496 0 0 0 3.118-12.342c-.669-4.32-3.424-8.509-7.017-10.959-4.201-2.862-7.398-2.64-12.114-2.391-16.181 3.507-17.786 34.097 6.574 31.378ZM348.57 144.73c.269-.714.543-1.427.821-2.138 1.223-.902 2.9-.574 4.503-.507 1.061 9.18.96 12.976 8.103 19.674 6.897 6.468 20.507 3.995 23.711 7.326l-.163.731c-3.157 1.8-11.942 2.393-15.484 3.597a22.457 22.457 0 0 0-14.51 15.401c-.942 3.438-1.874 9.418-2.275 12.972-1.399 1.433-2.612 2.694-3.929 4.22-1.627-16.413-1.155-30.712-22.735-33.474-2.2-.281-16.417.784-10.739-5.083 2.302-.858 5.282-.286 7.866-.461 10.483-.711 18.894-4.372 23.212-14.559 1.528-3.605 1.009-6.121 1.619-7.699ZM117.575 624.222c7.348-.544 9.765 3.794 12.269 9.748-.649 2.165-1.935 4.766-2.883 6.869-2.47 1.608-3.149 1.953-5.923 2.929-2.657.736-5.472-1.047-8.231-2.231a144.773 144.773 0 0 1-1.791-3.424c-3.276-6.545.562-11.307 6.559-13.891Zm480.554-.083h.162c10.514 0 16.328 14.094 2.789 19.903-4.563.325-8.033-2.642-10.473-6.228-.727-8.249.025-9.944 7.522-13.675ZM246.233 233.202c1.838.915 4.005 5.493 5.878 7.419 2.334 2.399 4.499 4.285 7.066 6.395-.606.534-.508.521-1.161.851-4.955 2.506-7.115 5.88-10.155 10.377-.665.751-.248.521-1.16.849-.91-.868-1.764-4.542-2.232-6.069-4.09-3.587-4.878-4.046-9.912-6.181 6.573-3.728 10.077-6.031 11.676-13.641Zm209.606-5.957c8.145 2.415 10.29 13.566.158 15.053-2.244-.242-5.639-1.634-6.583-3.618-2.809-5.896 2.656-9.392 6.425-11.435Zm-142.618 93.151c2.916.242 5.156 2.257 4.125 5.561-.341 1.094-1.581 1.228-2.609 1.568-.997-.036-1.893-.124-2.882-.22-4.005-2.346-2.717-5.478 1.366-6.909Z"/>
  <path fill="currentColor" d="M348.569 144.73c.074-3.697.414-7.364.712-11.048l4.303 3.25c.047 1.825.144 3.334.31 5.152-1.603-.067-3.28-.394-4.503.507a204.87 204.87 0 0 0-.822 2.139Z"/>
</svg>
