<svg xmlns="http://www.w3.org/2000/svg" width="913" height="1172" fill="none" viewBox="0 0 913 1172">
  <path fill="currentColor" d="M567.452 494.726c.133 4.059 2.547 26.726 4.18 28.767.908 1.215 1.022 1.091 1.326 2.511 4.196 2.109 20.092 2.709 26.171 4.252-4.969.835-23.578 1.148-25.53 3.531-1.082.509-1.297.779-2.419.789-1.051 10.286-2.693 19.962-3.587 30.452a621.414 621.414 0 0 0-3.473-30.093c-3.871 2.616-5.408 5.347-9.517 7.888.048-1.196 6.706-8.281 7.916-9.617-7.674-1.698-17.11-2.986-24.937-3.641 9.659-.574 16.085-1.103 25.522-3.053-2.574-2.473-6.003-6.643-8.417-9.454 3.017 1.702 6.224 5.112 9.806 7.564.953-9.458 1.509-20.759 2.959-29.896Z"/>
  <path fill="currentColor" fill-opacity=".957" d="m571.632 523.493.757-.453c3.986-2.43 6.27-4.766 9.607-7.936l.292.151c-2.965 3.978-7.705 8.431-9.33 10.749-.304-1.421-.418-1.296-1.326-2.511Z"/>
  <path fill="currentColor" fill-opacity=".929" d="M573.599 533.787c1.585 1.636 7.447 8.415 8.34 10.24-3.446-2.573-8.695-8.069-10.759-9.451 1.122-.01 1.337-.28 2.419-.789Z"/>
  <path fill="currentColor" d="M435.145 127.091c-.391 6.516 2.65 27.283 2.948 36.272 2.242-3.454 8.321-15.52 9.965-16.569l-.343.767c-2.203 4.993-4.316 12.21-5.647 17.529 6.67-4.086 16.279-13.035 22.526-18.473l.684 1.823c-5.08 6.256-12.769 15.936-18.129 21.764 8.477-2.206 12.574-3.219 20.758-6.375l-.513.563-.491-.024c-1.176 1.474-14.638 7.84-17.588 9.764 13.671 2.191 28.738 2.34 42.327 4.392a811.93 811.93 0 0 1-41.03 3.607l-.135.942c1.177 1.444 1.936 1.731 3.786 2.372 14.194-.349 40.861 3.962 54.769 6.89a400.103 400.103 0 0 1 194.275 100.559 476.358 476.358 0 0 1 54.111 60.394c1.963 2.572 8.259 12.766 10.028 13.176-1.099.637-2.352 1.326-3.411 1.999-2.17-5.84-26.721-35.605-31.93-41.171-3.136 2.439-10.875 9.172-13.257 12.148 4.597 6.716 10.081 12.52 15.278 19.044 52.13 65.443 83.859 146.767 89.926 230.188.275 3.766.744 7.554.825 11.251 3.4 2.209 5.014 3.491 7.578 6.753 1.552 8.464-.166 9.431-6.479 14.861-1.552 21.632-1.18 39.538-3.956 62.126a430.333 430.333 0 0 1-67.03 179.834c-10.858 16.184-21.093 27.269-31.791 41.919 4.007 13.053-3.143 18.243-15.404 15.708-8.684 11.045-27.321 27-38.644 36.024a387.722 387.722 0 0 1-165.494 77.572c-11.23 2.25-27.862 4.35-39.411 5.76-3.763.44-7.545.69-11.334.76l3.105-4.03c18.753 1.35 47.569-5.7 66.11-10.15 63.189-15.16 122.17-49.138 169.343-93.569 4.831-4.55 9.788-9.814 14.831-13.981a80.685 80.685 0 0 1-1.649-3.639c-1.545-3.743-.841-5.671.596-9.105-11.769-13.414-29.468-31.515-42.193-44.373-3.274.48-4.018.589-7.31.286-3.955 4.721-9.273 9.877-13.743 14.278-51.363 50.611-120.695 83.436-192.908 88.089-2.43.154-6.525.08-8.597.99-.059-3.176.377-3.205-1.056-6.307l.121-.669 1.888 2.008c3.138 1.294 10.785.384 14.401.035 23.698-2.284 51.968-7.932 74.378-16.31a321.72 321.72 0 0 0 94.074-55.887c5.541-4.762 28.117-25.712 30.109-30.119-.487-2.375-.309-3.279-.138-5.659.578-.733 1.214-1.792 1.735-2.598 2.753-.756 3.148-.876 5.97-.515 4.316-1.683 24.557-31.189 28.386-37.186 31.116-48.786 52.479-109.761 54.723-167.857.194-4.967 1.104-22.479.234-26.616-6.932-3.949-5.466-8.43-.108-12.727.023-.819.023-1.643.011-2.461-1.019-59.762-24.362-125.832-57.94-174.68-6.193-9.009-16.777-24.025-24.591-31.591-12.432 1.385-13.291-2.547-11.757-13.599-57.361-59.927-128.255-93.189-211.169-96.803l.015-3.306c2.261.431 5.082.655 7.408.739 23.923.856 46.379 5.149 69.227 12.03a300.044 300.044 0 0 1 110.197 60.208c10.951 9.288 17.688 17.191 27.322 26.004 2.724-.056 6.399 1.304 8.838.879 1.185-.209 49.044-40.901 50.321-43.399-2.216-5.623-24.786-26.576-30.47-31.648a375.417 375.417 0 0 0-174.496-89.617c-9.97-2.155-29.54-6.417-39.385-5.871a579.662 579.662 0 0 1 4.377 4.354c-2.716-1.267-4.402-3.264-7.135-4.744a444.186 444.186 0 0 0-16.277-.74l-1.102 1.02c-.553.823-.167.543-1.199.775l-1.514-1.466c-1.108-.46-7.006-.939-8.658-1.127-.549 4.467-.859 8.971-1.211 13.459-1.715 2.043-1.529 5.437-1.596 8.095l-.069-.387c-.057-.307-1.612-5.002-1.752-5.301-.668-2.045-1.172-12.77-1.509-15.734-3.035-.19-5.428-.598-8.092.894-.975.546-2.657 1.165-3.774 1.186.111-1.197-.031-.616.696-1.675-6.571-.97-5.477 2.055-10.882 1.107-1.61-.282-5.32 0-7.111.085l-2.895 1.385c.075-1.287 1.76-3.683 2.514-4.925 4.108-3.137 15.733-17.028 18.399-21.461l-13.226 2.825c.542-.624 5.698-3.627 7.311-4.811 2.032-.683 2.118-.777 3.831-2.121l.077-.853c-3.46-1.273-34.403-3.457-38.951-3.366 12.099-2.737 28.175-3.265 40.678-4.6-5.463-3.086-11.338-5.672-17.058-8.91l.053-.571-.965-.14c1.616.04 17.707 5.269 19.903 6.093-6.86-9.525-17.523-19.283-23.945-28.581 4.393 3.726 23.899 19.72 27.792 22.028-.699-3.449-1.549-6.519-2.483-9.916l.846-1.995c1.194 2.72 3.455 9.147 6.302 9.958.762-2.242 2.464-30.082 2.65-33.988 1.324-.417 1.187-.472 2.375-1.275Zm315.467 491.024c-.939 71.911-19.234 137.607-58.301 198.29-8.769 13.615-17.665 23.303-26.262 35.693l-.389 7.662c.343.469.686.939 1.041 1.402 3.858 5.053 38.947 42.125 41.586 42.491 3.269-3.079 7.808-2.186 11.769-1.047l.704.206c11.763-14.095 23.687-29.289 33.664-44.7a425.656 425.656 0 0 0 67.516-236.454c-5.363-2.793-5.97-3.405-9.645-8.144a4091.232 4091.232 0 0 0-57.991.103c-1.008 2.375-1.397 3.216-3.692 4.498Zm-85.634-224.408c2.708 4.496 6.703 8.834 10.035 12.937 34.516 42.509 58.18 94.462 68.701 148.148 3.108 15.861 4.596 33.737 5.879 50.098 2.53 2.455 2.908 2.907 4.665 5.958 2.742.44 12.043.452 14.911.452 14.534-.018 28.936-1.099 43.521-1.013a77.189 77.189 0 0 1 1.551-3.548c1.832-3.886 3.572-4.842 7.321-6.198-.04-3.308-.303-6.278-.647-9.545-2.627-24.816-5.936-50.031-12.181-74.246a420.932 420.932 0 0 0-75.157-153.771c-3.355-4.331-13.916-18.036-17.745-20.301-3.126.1-31.735 27.226-36.829 30.546-3.114 2.029-10.195 8.72-12.433 11.986-.876 1.28-1.323 6.451-1.592 8.497Zm51.724-56.541c4.293-4.029 9.502-7.812 13.326-12-10.126-14.995-48.238-47.568-62.147-57.889-50.751-37.657-109.546-64.565-172.193-74.275-7.308-1.133-27.477-4.971-34.37-3.939-2.765-.608-4.643-2.082-7.055-3.618-1.85-.641-2.609-.928-3.786-2.372l.135-.942a811.93 811.93 0 0 0 41.03-3.607c-13.589-2.052-28.656-2.201-42.327-4.392 2.95-1.924 16.412-8.29 17.588-9.764l.491.024.513-.563c-8.184 3.156-12.281 4.169-20.758 6.375 5.36-5.828 13.049-15.508 18.129-21.764l-.684-1.823c-6.247 5.438-15.856 14.387-22.526 18.473 1.331-5.319 3.444-12.536 5.647-17.529l.343-.767c-1.644 1.049-7.723 13.115-9.965 16.569-.298-8.989-3.339-29.756-2.948-36.272-1.188.803-1.051.858-2.375 1.275-.186 3.906-1.888 31.746-2.65 33.988-2.847-.811-5.108-7.238-6.302-9.958l-.846 1.995c.934 3.397 1.784 6.467 2.483 9.916-3.893-2.308-23.399-18.302-27.792-22.028 6.422 9.298 17.085 19.056 23.945 28.581-2.196-.824-18.287-6.053-19.903-6.093l.965.14-.053.571c5.72 3.238 11.595 5.824 17.058 8.91-12.503 1.335-28.579 1.863-40.678 4.6 4.548-.091 35.491 2.093 38.951 3.366l-.077.853c-1.713 1.344-1.799 1.438-3.831 2.121-1.613 1.184-6.769 4.187-7.311 4.811l13.226-2.825c-2.666 4.433-14.291 18.324-18.399 21.461-.754 1.242-2.439 3.638-2.514 4.925l2.895-1.385c1.791-.085 5.501-.367 7.111-.085 5.405.948 4.311-2.077 10.882-1.107-.727 1.059-.585.478-.696 1.675 1.117-.021 2.799-.64 3.774-1.186 2.664-1.492 5.057-1.084 8.092-.894.337 2.964.841 13.689 1.509 15.734.14.299 1.695 4.994 1.752 5.301l.069.387c.067-2.658-.119-6.052 1.596-8.095.352-4.488.662-8.992 1.211-13.459 1.652.188 7.55.667 8.658 1.127l1.514 1.466c1.032-.232.646.048 1.199-.775l1.102-1.02c5.43.147 10.857.394 16.277.74 2.733 1.48 4.419 3.477 7.135 4.744a579.662 579.662 0 0 0-4.377-4.354c-.821-.806-2.153-3.08-2.842-4.16 96.344 7.91 186.271 58.141 250.799 128.812Z"/>
  <path fill="currentColor" d="M435.145 127.091c-.391 6.516 2.65 27.283 2.948 36.272 2.242-3.454 8.321-15.52 9.965-16.569l-.343.767c-2.203 4.993-4.316 12.21-5.647 17.529 6.67-4.086 16.279-13.035 22.526-18.473l.684 1.823c-5.08 6.256-12.769 15.936-18.129 21.764 8.477-2.206 12.574-3.219 20.758-6.375l-.513.563-.491-.024c-1.176 1.474-14.638 7.84-17.588 9.764 13.671 2.191 28.738 2.34 42.327 4.392a811.93 811.93 0 0 1-41.03 3.607l-.135.942c1.177 1.444 1.936 1.731 3.786 2.372 2.412 1.536 4.29 3.01 7.055 3.618 1.194.713 3.115 1.576 3.641 2.611-7.111-1.636-8.107-2.676-16.099-3.707 1.836 3.123 14.5 18.693 17.043 20.387.689 1.08 2.021 3.354 2.842 4.16a579.662 579.662 0 0 1 4.377 4.354c-2.716-1.267-4.402-3.264-7.135-4.744a444.186 444.186 0 0 0-16.277-.74l-1.102 1.02c-.553.823-.167.543-1.199.775l-1.514-1.466c-1.108-.46-7.006-.939-8.658-1.127-.549 4.467-.859 8.971-1.211 13.459-1.715 2.043-1.529 5.437-1.596 8.095l-.069-.387c-.057-.307-1.612-5.002-1.752-5.301-.668-2.045-1.172-12.77-1.509-15.734-3.035-.19-5.428-.598-8.092.894-.975.546-2.657 1.165-3.774 1.186.111-1.197-.031-.616.696-1.675-6.571-.97-5.477 2.055-10.882 1.107-1.61-.282-5.32 0-7.111.085l-2.895 1.385c.075-1.287 1.76-3.683 2.514-4.925 4.108-3.137 15.733-17.028 18.399-21.461l-13.226 2.825c.542-.624 5.698-3.627 7.311-4.811 2.032-.683 2.118-.777 3.831-2.121l.077-.853c-3.46-1.273-34.403-3.457-38.951-3.366 12.099-2.737 28.175-3.265 40.678-4.6-5.463-3.086-11.338-5.672-17.058-8.91l.053-.571-.965-.14c1.616.04 17.707 5.269 19.903 6.093-6.86-9.525-17.523-19.283-23.945-28.581 4.393 3.726 23.899 19.72 27.792 22.028-.699-3.449-1.549-6.519-2.483-9.916l.846-1.995c1.194 2.72 3.455 9.147 6.302 9.958.762-2.242 2.464-30.082 2.65-33.988 1.324-.417 1.187-.472 2.375-1.275Zm-13.772 79.907c1.743-4.156 3.377-10.668 4.438-15.104-7.119 4.786-13.99 11.023-20.51 16.63 4.287-1.054 11.465-1.247 16.072-1.526Zm25.678.134c3.291.189 11.396.779 14.391.356-6.074-5.05-12.726-11.345-19.115-15.745 1.024 4.552 2.455 11.519 4.724 15.389Z"/>
  <path fill="currentColor" d="M430.61 193.093c.073 5.706.53 12.163.491 17.625-3.036-.19-5.429-.598-8.093.894-.974.546-2.657 1.165-3.773 1.187.111-1.198-.032-.617.696-1.676-6.572-.97-5.478 2.055-10.882 1.107-1.611-.282-5.321 0-7.111.086l3.363-3.792c4.287-1.054 11.465-1.247 16.072-1.526l.134 2.611.402-.067.292-.801c2.129-5.77 4.95-10.607 8.409-15.648Zm6.627 17.493c.046-3.475.185-12.179 1.316-15.28 2.885.998 6.704 13.346 7.342 16.407-1.108-.46-7.006-.939-8.658-1.127Zm9.815-3.454c3.29.19 11.395.78 14.39.356a216.043 216.043 0 0 1 4.546 4.637 439.93 439.93 0 0 0-16.278-.74l-1.101 1.019c-1.075-1.525-1.258-3.441-1.557-5.272Z"/>
  <path fill="currentColor" d="M749.593 604.891c2.53 2.455 2.908 2.907 4.665 5.957l.046 2.77c-1.008 2.375-1.397 3.216-3.692 4.498-1.592-.035-3.664.143-5.29.24-6.931-3.949-5.466-8.429-.108-12.727l4.379-.738ZM656.01 850.53c2.753-.756 3.148-.876 5.97-.515 6.016 9.631-1.586 15.834-7.568 8.773-.486-2.375-.309-3.28-.137-5.66.578-.733 1.214-1.791 1.735-2.598Z"/>
  <path fill="currentColor" d="M437.193 368.815c11.475-1.473 31.682-2.466 42.998-.924-48.342 6.848-98.921 40.458-126.961 79.955-97.48 137.318-7.482 334.281 166.768 335.746 35.327-.555 71.958-13.775 100.057-34.977 2.8-2.117 5.564-4.298 8.358-6.427 3.783-4.852 13.566-13.866 18.517-19.314 5.793-6.375 9.937-13.717 14.746-18.959l.406.166c-1.534 4.475-4.001 8.624-5.987 12.905-13.962 30.135-33.447 51.567-56.629 74.606l-2.479 1.866c-46.597 38.353-100.22 60.557-161.393 55.12l-3.993-.171c-45.959-5.265-81.245-19.869-117.987-48.614-9.648-7.549-16.783-16.041-25.221-22.983l-.568-.463-1.753-2.266c-39.025-43.716-62.721-102.733-62.377-161.494l-.057-2.415c.475-10.558.801-21.557 2.339-31.978 5.523-37.442 19.767-73.004 40.659-104.377a245.164 245.164 0 0 1 116.172-91.821c18.063-6.637 30.824-9.129 49.488-12.864 1.602.009 3.399.135 4.897-.317Z"/>
  <path fill="currentColor" d="M519.999 783.592c35.326-.555 71.957-13.775 100.057-34.977 2.799-2.117 5.564-4.298 8.357-6.427l-.257.384c-.642.99-1.397 2.89-1.855 3.519-13.664 18.811-37.688 29.564-57.17 40.889-5.406 3.147-4.178 10.306-15.853 14.667 1.343-3.245 7.671-4.767 7.423-9.866-4.378-5.608-29.18 2.644-35.966 3.508-10.273 1.31-20.117 1.27-30.379 2.014-1.783.189-5.762 4.63-6.948 6.066-2.091-1.087-3.138-4.389-4.743-6.586-5.68-1.242-16.647-3.606-21.977-5.637 1.64-.384 15.337 2.283 19.293 2.523 14.481.905 25.884.292 40.035-3.015l-.017-7.062Z"/>
  <path fill="currentColor" d="M271.087 722.279c-8.1-12.469-13.91-18.169-14.678-34.318-.179-3.325-1.284-7.377-1.004-10.667.261-3.068 3.115-12.854 1.288-15.177-4.521 3.291-2.954 7.142-3.934 10.947-6.531-3.954-13.407-32.985-11.026-40.836 1.126-3.709-.537-12.356 2.108-15.532 2.236 2.925 2.584 6.724 4.159 9.78 1.05 1.986 4.13 5.677 4.551 7.886 2.371 12.418 4.278 17.952 14.721 25.889 2.407 1.832 5.661 9.511 6.223 13.26l.788-.298c.705-3.302 1.713-5.728 1.526-9.139-.321-5.831-.817-11.514-.849-17.362 5.593 6.575 9.896 13.402 17.55 17.694l.493-1.648c3.192-.475 10.25 6.278 12.39 8.424 3.273 3.284 4.114 8.481 3.753 12.916h-.606c-1.691-2.65-2.149-3.96-3.301-6.873l-.943.063c-1.543 1.934-1.697 2.592-2.608 4.875.762 5.277 5.031 17.392 3.758 19.961-3.674.366-5.582-6.289-6.665-9.007l-.286.818c-3.28 9.259-10.892 15.697-5.766 25.792 4.847 9.545 12.205 13.774 21.641 17.248 4.611-11.188 10.369-12.264 18.812-22.181 1.934 1.15 4.183 2.753 6.31 3.079l.355-.658c-1.146-2.759-9.916-13.941-11.999-14.089-7.403-.521-6.81-2.999-10.149-11.451 1.845 2.449 4.528 6.237 6.516 8.406 3.361 1.15 6.997 2.089 9.679 4.332 7.137 5.975 11.534 16.796 17.539 23.274 6.778 7.308 13.992 11.222 21.273 19.085-8.267-3.142-16.385-6.037-22.932-12.361-2.417-2.335-6.119-10.054-8.174-9.368l-.377 2.066c-2.068-1.293-4.4-3.948-6.179-5.791-12.286 4.721-20.177 12.378-14.854 26.513 1.826 4.847 11.668 17.7 17.149 8.166 1.448-2.523-3.941-7.376-3.885-9.408 3.974 2.97 7.46 8.802 10.876 12.544 1.408 1.54 4.363 3.863 6.074 5.265-5.929-2.575-9.278-4.469-15.971-2.827l-.441.555c5.403 7.422 10.137 16.355 17.238 22.147.141.114.136 1.659.107 1.928 9.392 6.747 10.798 5.528 17.487 16.133a245.92 245.92 0 0 0 6.008 7.45l-.442 1.288.834-.664.088.91c-3.065-1.064-7.323-4.544-9.926-6.621-6.352-5.54-16.9-6.564-19.887-9.666-13.025-13.511-9.363-17.82-28.346-24.739-6.598-5.654-27.653-22.656-31.053-29.151-8.05-15.382-13.56-33.306-23.981-47.738l-.441-.607c1.839 8.79 9.061 20.424 9.409 29.483Z"/>
  <path fill="currentColor" d="m292.509 664.406.493-1.648c3.192-.475 10.251 6.278 12.39 8.424 3.273 3.285 4.115 8.481 3.753 12.916h-.606c-1.691-2.65-2.149-3.96-3.301-6.873l-.942.063c-1.543 1.934-1.697 2.592-2.608 4.876.761 5.276 5.03 17.391 3.758 19.96-3.675.367-5.582-6.289-6.666-9.007l-.285.818c-3.28 9.26-10.892 15.698-5.767 25.792 4.848 9.546 12.205 13.775 21.642 17.248 4.611-11.187 10.368-12.263 18.812-22.181 1.934 1.151 4.182 2.753 6.31 3.079l.354-.658c-1.145-2.758-9.916-13.94-11.998-14.089-7.404-.521-6.811-2.999-10.15-11.451 1.846 2.449 4.528 6.237 6.517 8.406 3.361 1.151 6.996 2.089 9.679 4.332 7.137 5.975 11.534 16.796 17.539 23.274 6.777 7.308 13.991 11.223 21.273 19.086-8.268-3.142-16.385-6.038-22.933-12.361-2.416-2.335-6.118-10.055-8.173-9.368l-.378 2.065c-2.067-1.293-4.4-3.948-6.179-5.791-12.285 4.721-20.176 12.378-14.853 26.513 1.826 4.847 11.668 17.7 17.149 8.166 1.447-2.523-3.941-7.376-3.885-9.408 3.974 2.97 7.459 8.802 10.875 12.544 1.409 1.54 4.364 3.863 6.074 5.265-5.929-2.575-9.278-4.469-15.971-2.827l-.441.555c5.403 7.423 10.138 16.356 17.238 22.147.141.115.137 1.66.107 1.929-9.419-6.415-11.726-14.69-18.468-20.648-12.516-11.062-14.908-6.632-19.024-25.551-9.073-.916-20.461-10.885-24.935-18.57-6.716-11.543 3.051-18.136 6.809-27.738 1.433-3.657-.83-7.537-2.612-10.724-2.488-1.488-4.744-2.335-5.952-4.762l.357-1.047c4.59-1.591 7.976 1.625 11.146 4.378 6.056-9.185 3.488-13.031-6.148-17.134Zm43.509-235.338c.534.53.297.25.441 1.232-4.524 9.058-20.335 18.581-27.746 25.742l-.484.471-2.29 7.171c-3.564 2.826-6.347 4.907-9.202 8.463-3.457 4.307-5.059 9.575-9.463 12.799l-.558-.479c7.257-10.14 4.652-12.107 15.846-21.228 7.289-22.692 20.948-18.23 33.456-34.171Zm-55.112 73.976c2.14.463 1.512.038 2.992 1.417 2.008 6.685-6.459 14.831-10.983 18.835l.161-.368c1.902-4.183 8.704-11.156 7.955-14.593l-1.053-.374c-3.845.675-4.608 2.227-7.073 5.234-4.531 6.577-2.472 10.116-8.926 16.906 2.046-11.641 5.138-21.867 16.927-27.057Zm110.101 275.117c2.927 1.585 7.336 6.919 11.255 7.846 9.823 2.335 13.852-.532 21.801-4.532l.482.606-.624 2.226c-3.243 2.575-12.369 3.88-19.362 7.451-7.657-2.483-10.652-6.386-13.552-13.597ZM302.97 487.769l2.134.448c1.377 1.459.951.599 1.136 2.752-1.944 5.302-7.37 8.901-11.965 11.728l-1.958.477-.129-.467c2.521-1.902 5.453-4.053 7.666-6.291 3.412-3.451 3.197-4.079 3.116-8.647Zm189.199 321.34c.657 1.568-.335 5.008-.708 6.885-1.222 1.15-3.228 2.615-4.602 3.685l-.59-.835c.887-4.487 1.784-7.468 5.9-9.735Zm-35.869 3.863a2.534 2.534 0 0 1 2.532-.475 2.543 2.543 0 0 1 1.642 1.986 2.54 2.54 0 0 1-4.462 2.02 2.538 2.538 0 0 1 .288-3.531ZM290.536 600.169c.37 6.679.332 8.773-.869 15.291l-.315.103c-.375-4.48-.276-6.735.001-11.268 1.39-.56 1.091-2.735 1.183-4.126Z"/>
  <path fill="currentColor" d="M289.353 604.295c-.73-2.334-3.055-5.207-2.075-7.496 1.72.658 2.147 1.745 3.259 3.37-.093 1.391.206 3.566-1.184 4.126Zm226.413 201.289a2.171 2.171 0 0 1 3.032.504 2.168 2.168 0 0 1-.504 3.027 2.168 2.168 0 0 1-3.029-.504 2.17 2.17 0 0 1 .501-3.027Z"/>
  <path fill="currentColor" d="M186.31 302.99c3.61-2.369 9.75-8.001 13.529-10.96a404.428 404.428 0 0 1 31.225-22.597c43.203-28.38 98.522-51.119 149.838-57.811 6.867-.896 14.028-2.835 20.655-2.846-.754 1.242-2.439 3.638-2.514 4.925-1.011 1.588-1.149 1.743-2.527 3.042l-.486-.192c1.035-2.017 1.378-2.306 2.923-4.027-64.858 4.769-132.365 33.622-184.339 72.032-9.077 6.707-16.973 13.552-25.544 20.769 2.545 4.216 44.73 49.516 47.878 51.689 12.125-8.27 23.458-17.771 36.159-25.923a310.694 310.694 0 0 1 122.487-45.269c8.858-1.21 22.858-1.821 32.034-2.41l-.116 3.087c-5.462-.15-26.685 2.122-32.518 2.927a300.574 300.574 0 0 0-164.488 78.498c-31.227 29.538-58.128 63.505-76.558 102.608-1.531 3.247-5.756 12.168-6.662 15.03-.807-.325-2.48-1.514-3.296-2.057 2.475-3.437 7.606-16.035 10.009-20.773 14.89-29.354 33.941-55.494 56.259-79.638 7.628-8.252 16.798-15.477 24.338-23.622-2.164-3.073-13.134-14.459-16.246-17.814a1394.891 1394.891 0 0 0-20.684-22c-3.724-3.949-7.276-8.443-11.521-11.745-4.471 3.048-19.041 18.041-23.022 22.21-31.065 32.529-57.041 69.975-75.99 110.783-2.61 5.622-8.02 15.386-9.276 21.331-1.33-.339-2.618-.735-3.933-1.124 2.386-3.216 6.26-14.91 8.57-19.539 5.943-11.9 11.83-23.239 18.632-34.693a458.057 458.057 0 0 1 60.644-80.658c7.304-7.677 15.98-14.26 22.606-21.467-4.815-4.468-6.785-8.283-14.693-8.252-1.18.005-3.396.417-4.259 1.159-9.952 8.554-21.23 20.821-29.754 30.538A446.035 446.035 0 0 0 30.423 558.528c-1.466 10.479-5.608 37.275-3.697 46.866l-4.33-.967a.787.787 0 0 0 .094-.057c1.417-25.466 4.538-54.583 10.176-79.394 3.002-13.208 2.33-8.442 3.725-13.854a448.512 448.512 0 0 1 89.76-176.68c8.545-10.452 27.873-31.985 38.492-40.219-.862-10.968 2.136-13.716 12.755-11.612 9.754-11.428 46.864-35.577 60.677-43.775 4.715-2.799 25.229-12.933 27.552-15.232l1.012 3.254c-29.9 13.083-62.043 37.648-87.305 57.721.641 4.628.599 5.995-.434 10.359 2.468 2.868 4.783 5.324 7.41 8.052Z"/>
  <path fill="currentColor" d="m70.272 470.623 3.799 2.01c-1.913 2.091-2.592 4.941-3.525 7.6-10.405 29.638-17.935 59.996-21.082 91.297-.956 9.508-2.422 16.828-2.519 26.608 4.167 2.518 6.724 4.99 7.783 9.963 4.738.423 53.86.721 56-.029l-.434 3.857c-1.937-.24-4.058-.223-6.019-.303-16.015-.658-32.078.235-48.076-.212-3.615.744-3.483 2.238-4.796 5.551l-5.21 3.004c-.98 15.915.49 34.285 2.214 49.982 3.707 34.01 10.844 67.894 22.646 100.032 1.647 4.487 8.487 24.367 10.816 26.565 10.332 9.751 3.47 10.547 9.243 21.637a452.886 452.886 0 0 0 54.751 83.23c2.612 3.131 8.815 10.891 12.298 12.23 3.103-2.398 45.423-48.191 46.041-49.644-1.412-2.759-1.075-4.246-.314-7.199.965-.824 1.754-1.849 2.576-2.822 2.076-.681 2.425-.589 4.665-.566 5.071 4.784 2.777 4.24 4.132 9.145l-.132.417c3.512 5.597 14.703 15.503 19.777 20.156a302.616 302.616 0 0 0 138.877 72.42c14.385 3.336 37.927 5.688 52.541 5.888l.123 4.041a302.322 302.322 0 0 1-158.062-51.699 338.983 338.983 0 0 1-36.527-28.745c-6.009-5.408-11.805-12.286-18.184-17.116-1.653-1.253-5.794-.99-7.968-.916-14.195 14.913-31.705 34.079-45.434 49.621 4.269 6.341 19.339 19.492 25.404 24.848 43.803 38.68 96.835 68.896 153.507 83.826 6.26 1.65 12.216 3.51 18.556 4.77 14.237 2.82 27.76 5.42 42.314 6.35 3.623.23 8.155 1.05 11.641.86.931 1.17 2.253 2.73 3.05 3.93-10.085-.12-20.13-2.34-30.094-3.57-48.046-5.93-93.457-22.27-135.596-46.339a406.833 406.833 0 0 1-147.368-146.752c-4.713-8.046-15.094-25.843-17.358-34.118-1.872-.578-4.707-1.328-5.3-3.228-1.537-4.915-1.45-11.113-3.509-15.886-23.523-54.502-33.124-112.198-33.243-171.29a37.148 37.148 0 0 1-1.715-.761c-3.015-1.465-5.435-3.857-6.46-7.108a9.654 9.654 0 0 1 .707-7.411c2.044-3.88 4.698-5.179 8.545-6.277.375-36.88 11.3-81.309 22.932-116.304 1.325-3.985 3.185-7.288 3.987-11.543Z"/>
  <path fill="currentColor" d="M206.463 853.981c2.076-.681 2.425-.59 4.665-.567 5.072 4.784 2.778 4.24 4.133 9.145l-.132.418c-1.699 1.705-2.551 2.924-4.847 3.548-3.06-.235-3.553-1.036-6.081-2.524-1.412-2.758-1.075-4.246-.313-7.199.964-.824 1.754-1.849 2.575-2.821Z"/>
  <path fill="currentColor" d="M431.548 1025.16c.539-1.89.516-2.18 1.767-3.6 1.923-.35 1.016-.47 2.809.4.395 4.28.897 13.1 1.599 16.9l1.331.71-.097.23c2.944-2.92 7.847-12.9 9.05-13.48-1.522 4.62-3.352 7.99-4.966 12.43 12.844-2.06 15.275-8.15 24.838-16.18-3.797 5.51-8.039 9.6-11.861 14.64l-3.105 4.03c-2.457 3.29-4.639 6.54-7.839 9.14 7.81-1.8 14.481-4.14 22.042-6.78l-.546.39c-5.014 3.55-14.984 5.46-16.811 9.19 3.098 2.35 23.337 1.64 28.7 3.27l-.512.83c-7.62 1.79-15.098 2.7-22.891 3.38-2.207.19-4.102.26-6.185 1.06 1.013 1.16 1.028.84 2.859 1.31 5.36 4 10.043 5.8 16.065 8.49-7.43-1.83-14.713-4.67-21.892-6.2 5.455 6.29 11.041 13.73 16.45 20.26l-1.159.72a885.642 885.642 0 0 0-21.174-17.95c1.797 4.01 2.709 6.06 3.876 10.24l-1.55 1.2-4.305-9.52c-.339 5.11-2.779 41.84-3.71 43.91l-.706-.18c-1.283-3.58-2.787-34.98-3.385-41.5-4.095 4.58-5.253 9.55-8.374 14.85l-.283-.26c1.816-6 3.592-12.01 5.327-18.04-5.54 4.65-11.071 9.3-16.573 14-2.991 2.54-5.61 5.48-8.801 7.69l-.156-.49c6.89-7.52 14.17-16.16 20.086-24.42-6.881.98-10.651 2.91-16.865 4.08 2.048-2.08 6.685-2.73 9.855-5.95 2.114-.97 4.779-1.59 7.054-2.22-6.795-1.17-16.418-1.96-23.474-2.66-.149-.71-.193-2.87-.229-3.71 3.671-.18 18.879-.1 20.775-2.34-1.563-2.73-11.198-5.8-15-7.74 2.047-.03 16.01 4.12 18.746 4.89-2.194-2.56-4.554-5.78-6.643-8.49 3.591-1.83 7.109.7 9.236-.42l-.088-1.97c-1.406-4.53-2.567-7.88-4.134-12.33 1.608 2.68 6.227 12.09 9.397 11.18.92-3.09 1.191-9.54 1.452-12.99Z"/>
  <path fill="currentColor" d="m21.66 616.107 4.252-.881c-.559 4.801-.326 16.195-.245 21.494.727 47.509 10.53 95.339 26.233 140.113 2.476 7.062 9.334 26.227 13.121 31.904 2.414 1.459 3.964 1.591 5.142 3.663.557 2.752-.076 3.714-.797 6.398l-.113.412c3.654 9.534 12.063 24.201 17.255 33.288A419.912 419.912 0 0 0 230.436 1001.8c8.853 5.5 30.884 19.28 40.209 21.81-.227.92-.748 3.28-1.062 4.04-1.249-1.36-12.746-6.96-15.399-8.3-11.33-5.71-21.704-12.12-32.346-18.96a421.458 421.458 0 0 1-75.49-62.515 450.395 450.395 0 0 1-62.109-81.989c-3.645-6.266-16.774-34.107-20.716-36.568-1.253-.784-1.882-1.247-2.723-2.46-.625-2.524-.07-4.149.441-6.713-5.74-11.588-10.53-25.609-14.784-37.775-11.967-34.216-19.872-70.389-22.618-106.545-.75-9.877-1.525-19.886-2.092-29.803-.247-4.327.64-16.636-.087-19.915Z"/>
  <path fill="currentColor" d="M842.679 604.009c.91-.286 1.024-.378 1.774-.921l.681-.492.498.664c6.148 6.317 6.646 7.502.848 14.392a452.43 452.43 0 0 1-82.022 269.36c-6.09 8.504-20.772 28.241-27.991 35.583a40.85 40.85 0 0 1-1.591 1.551c.269 7.874.269 10.684-8.695 9.614l-2.255-2.335c.75-.904 1.957-4.486 2.461-5.808 8.77-4.756 12.719-10.827 18.81-18.49a416.004 416.004 0 0 0 32.456-46.216 451.466 451.466 0 0 0 64.196-201.775c.818-11.572 1.322-24.408 1.242-36.122-.017-2.026-2.793-8.675-3.343-11.125-.738-3.25 1.048-5.156 2.931-7.88Z"/>
  <path fill="currentColor" d="m770.051 377.992 3.514-2.964c.476 2.799 3.338 6.649 4.9 9.145 36.749 58.782 60.258 126.648 65.524 195.892.372 4.911 2.828 19.017 1.643 23.194l-.498-.663-.681.492c-.75.543-.864.635-1.774.921a45.784 45.784 0 0 1-.247-2.655c-1.539-21.861-3.829-45.284-8.002-66.884-8.523-44.12-24.768-87.956-46.342-127.328-2.96-5.395-14.357-25.993-18.037-29.15ZM115.113 617.566l4.122-.246.065.664c.552 5.866.253 13.849.419 20.012.342 9.969 1.1 19.921 2.269 29.827 3.258 28.647 11.417 57.753 21.926 84.541 3.297 8.406 8.484 18.57 11.193 25.958l-2.889 1.133c-4.426-6.953-10.125-21.592-13.269-29.546-17.849-45.164-22.83-84.415-23.836-132.343Zm363.346 438.884c3.134.66 8.774.8 11.966.44 36.033-4.14 71.785-16.01 104.542-31.33 4.705-2.21 16.772-6.74 19.491-10.67l1.969 3.36c-7.224 2.29-22.731 11.8-31.408 15.3-41.808 16.88-87.596 30.9-133.09 29.47-.066.01-.132.01-.199.01-1.831-.47-1.846-.15-2.859-1.31 2.083-.8 3.978-.87 6.185-1.06 7.793-.68 15.271-1.59 22.891-3.38l.512-.83Zm-196.467-27.13c9.312 3.84 25.605 10.19 34.599 13.27 13.612 4.67 57.34 16.78 70.466 14.12 2.953-.69 7.608-1.02 10.749-1.34.036.84.081 3 .229 3.71 7.056.7 16.68 1.49 23.474 2.66-2.275.63-4.939 1.25-7.054 2.22-10.304-1.82-22.833-.9-33.975-2.83-33.696-5.83-69.625-14.75-100.785-29.13l2.297-2.68Z"/>
  <path fill="currentColor" d="M387.058 1056.71c2.952-.69 7.608-1.02 10.748-1.34.036.84.081 3 .229 3.71-3.448-.42-8.032-.73-10.977-2.37Z"/>
  <path fill="currentColor" d="m723.926 931.425 2.256 2.335c-2.651 2.083-4.459 4.372-6.732 6.827-26.377 28.493-60.195 52.408-93.16 72.273-2.238 5.07-3.893 7.28-9.863 5.39l-1.969-3.36c1.82-7.19 5.066-6.12 11.448-5.19 6.806-5.19 19.256-11.594 27.116-16.985 27.521-18.879 47.922-37.621 70.904-61.29Z"/>
  <path fill="currentColor" d="M274.701 219.952c39.871-18.349 95.372-33.521 139.339-34.624-1.613 1.184-6.768 4.187-7.311 4.811-1.752 1.291-1.867 1.434-3.907 2.061l-.519-.371c1.082-1.559 2.633-2.144 4.351-3.071-38.004 3.541-75.998 11.171-111.442 25.575-4.858 1.975-16.17 5.41-19.05 9.405-.864-1.543-.962-2.063-1.461-3.786Z"/>
  <path fill="currentColor" d="m431.602 848.407 3.993.171c.168 22.153.209 44.311.123 66.469-.006 11.995-.31 28.579.523 40.408.839.892 2.662 2.712 3.322 3.605l-.122.67c-2.769-3.194-3.418-3.079-7.535-3.64.747-4.286-.34-16.224-.274-21.529.612-28.716.602-57.438-.03-86.154Z"/>
  <path fill="currentColor" d="m139.866 494.386 3.253 1.062c-1.978 3.104-5.486 13.718-6.793 17.741-9.089 27.955-16.147 61.531-16.765 91.083l-4.509-.017c1.022-8.452 1.45-19.211 2.723-27.28 4.09-25.938 11.079-58.744 22.091-82.589Zm146.207 279.695 1.753 2.266c-9.039 9.025-22.034 24.39-31.055 34.267l-21.013 23.315c-4.265 4.641-17.583 17.54-19.911 24.201-.368 1.053.509 2.3-.586 4.429-1.355-4.904.939-4.361-4.132-9.145 4.776-.154 48.797-51.99 55.364-58.302 3.803-3.651 15.794-16.682 19.58-21.031Zm145.423-483.184c1.326.008 3.23-.044 4.5.047-1.266 18.015-.167 46.175-.259 65.012-.01 3.937-.138 8.092.368 11.978.308.27.755.722 1.088.882-1.498.452-3.294.325-4.897.316l.001-4.828c-.143-13.471-.851-27.045-.468-40.489.315-11.045-.034-21.877-.333-32.918Z"/>
  <path fill="currentColor" d="M432.298 364.304c1.147-3.553-.314-6.146 1.357-8.27l2.083-.078c-.01 3.937-.139 8.092.367 11.978.308.27.756.722 1.089.881-1.499.452-3.295.326-4.897.317l.001-4.828Z"/>
  <path fill="currentColor" d="M156.498 789.561c1.593-1.151 2.751-1.431 4.28-2.839.373 7.308 38.697 63.367 45.685 67.259-.821.972-1.61 1.997-2.575 2.821-11.076-12.258-20.979-26.41-30.582-39.841-3.736-5.225-13.569-25.266-16.808-27.4Z"/>
  <path fill="currentColor" d="m596.987 793.458 2.479-1.866c5.466 5.128 12.467 13.151 17.768 18.822a2267.735 2267.735 0 0 0 24.9 25.97c2.512 2.621 11.305 12.269 13.875 14.146-.521.807-1.156 1.866-1.735 2.598-2.032-2.569-9.519-9.603-12.209-12.401l-28.369-29.495c-5.066-5.259-12.152-12.229-16.709-17.774ZM123.309 609.034c2.996.572 11.333.417 14.795.44l28.004.132c18.911.08 38.714 1.207 57.53.566l.058 2.415-76.008-.394c-9.017-.035-15.164-.784-24.616-.258l.237-2.901Z"/>
  <path fill="currentColor" d="M432.609 226.452c.14.299 1.695 4.994 1.752 5.301l.069.388c.067-2.658-.119-6.053 1.596-8.096-.168 3.32-.396 6.717-.308 10.033 6.286 5.314 10.195 11.457.193 16.003-1.252-.109-2.696.149-3.964.306-9.882-4.963-6.624-11.428 1.01-16.26-.247-2.661-.293-5.01-.348-7.675Zm-.704 729.638c4.117.561 4.766.446 7.536 3.639 1.434 3.102.997 3.131 1.056 6.307-1.239 2.392-1.416 2.678-3.58 4.263-2.204.006-3.408-.063-5.605.361-2.184-1.276-3.569-3.09-4.866-5.179l-.123-4.04c1.254-2.41 3.434-3.846 5.582-5.351Z"/>
  <path fill="currentColor" d="M431.312 970.66c2.197-.424 3.401-.355 5.606-.361-2.079 3.056-1.213 33.651-1.351 39.521-.478-1.95-.359-2.88-1.631-4.11-1.25 1.28-1.187 2.22-1.712 4.12-.203-9.12.529-31.794-.912-39.17Z"/>
  <path fill="currentColor" d="m115.052 604.255 4.509.018c2.235 1.831 2.688 2.134 3.747 4.761l-.236 2.901c-.989 2.243-2.05 3.686-3.837 5.385l-4.121.246c-2.235-1.837-3.575-3.01-4.82-5.637l.434-3.857c1.077-1.173 3.053-2.735 4.324-3.817ZM431.895 278.35l4.272.322c2.333 1.691 2.367 1.968 3.617 4.518l-.015 3.306c-1.081 2.308-1.693 2.874-3.772 4.448-1.27-.091-3.174-.04-4.5-.048-1.922-1.532-2.539-2.482-3.985-4.397l.116-3.087c1.69-2.518 2.01-2.981 4.267-5.062Z"/>
  <path fill="currentColor" d="M431.947 250.387c1.269-.157 2.712-.415 3.964-.306a704.196 704.196 0 0 0 .256 28.591l-4.272-.322c.872-4.788-.583-20.864.052-27.963Z"/>
  <path fill="currentColor" d="M432.77 128.367c-.065-1.898.88-8.423.357-9.293-1.865-3.104-5.304-5.559-3.818-10.305 5.739-4.505 15.512 2.632 6.677 9.26-2.243 1.683-1.198 6.634-.841 9.062-1.187.804-1.051.859-2.375 1.276Z"/>
  <path fill="currentColor" d="m22.395 604.427 4.331.967c.914 1.791 1.905 3.651 2.736 5.471l-3.55 4.36-4.252.882c-5.491-4.195-6.047-8.59.735-11.68Z"/>
  <path fill="currentColor" d="M431.674 1118.18a20.86 20.86 0 0 1 2.09-.16c6.296-.09 7.282 7.03 2.389 11.32-7.308 1.9-9.552-6.02-4.479-11.16Z"/>
  <path fill="currentColor" d="M767.446 366.464c6.371-.644 8.232 2.809 6.12 8.564l-3.515 2.964c-5.65-1.659-7.401-3.734-6.016-9.529 1.059-.673 2.312-1.362 3.411-1.999Z"/>
  <path fill="currentColor" d="M270.644 1023.61c6.614-2.87 8.854-.15 11.349 5.71l-2.298 2.68c-5.399.23-8.064 1.24-10.113-4.35.314-.76.835-3.12 1.062-4.04ZM73.923 461.113c1.315.388 2.603.784 3.933 1.124 2.282 5.723 2.476 7.673-3.786 10.396l-3.8-2.01c-1.85-4.296-.032-7.375 3.653-9.51Zm70.067 22.392c.816.542 2.489 1.732 3.296 2.057 1.877 5.328 1.865 8.305-4.167 9.886l-3.252-1.062c-1.914-5.518.197-7.616 4.123-10.881Zm121.636-259.902c.776-5.84 4.912-4.662 9.075-3.651.499 1.723.596 2.243 1.461 3.786-1.346 2.516-2.308 4.682-5.136 5.553-2.263-.256-2.651-.518-4.387-2.434l-1.013-3.254ZM155.107 778.321c2.377.435 3.004.361 4.824 1.791 1.48 2.364 1.236 3.795.846 6.61-1.528 1.408-2.686 1.688-4.28 2.839-5.048-3.136-4.772-4.556-4.279-10.107l2.889-1.133Z"/>
  <path fill="currentColor" d="M411.694 1037.28c-2.433-3.29-6.613-7.83-8.361-10.78 2.55 1.31 6.64 5.99 10.921 8.47 4.442 2.56 8.121 2.85 10.579 4.33l.088 1.97c-2.128 1.12-5.646-1.41-9.236.42l-.941-.48c-.798-1.2-2.12-2.76-3.05-3.93Z"/>
  <path fill="currentColor" d="M432.223 1009.83c.525-1.9.462-2.84 1.713-4.12 1.271 1.23 1.152 2.16 1.631 4.11l.556 12.14c-1.793-.87-.886-.75-2.809-.4-1.25 1.42-1.228 1.71-1.767 3.6-.002-4.58.454-10.66.676-15.33Z"/>
  <path fill="currentColor" fill-opacity=".937" d="m443.895 1078.59.136.51c.788 2.88 3.222 7.78 3.132 9.73-1.818-1.76-4.237-6.69-4.817-9.05l1.549-1.19Z"/>
  <path fill="currentColor" fill-opacity=".949" d="M422.972 154.392c-1.183-2.825-2.891-6.141-2.693-9.119l.25-.162c1.795 2.193 2.333 4.574 3.289 7.285l-.846 1.996Z"/>
  <path fill="currentColor" fill-opacity=".918" d="M464.595 146.617c2.222-2.044 3.7-2.99 6.202-4.659-1.63 2.145-3.468 4.81-5.519 6.483l-.683-1.824Z"/>
  <path fill="currentColor" fill-opacity=".827" d="M462.352 1085.58c1.333 1.43 3.285 3.02 3.643 4.65-2.199-.96-3.129-2.2-4.802-3.93l1.159-.72Z"/>
</svg>
