<svg xmlns="http://www.w3.org/2000/svg" width="882" height="904" fill="none" viewBox="0 0 882 904">
  <path fill="currentColor" d="M396.443 348.454c25.382-1.18 45.494 4.723 65.239 21.22 3.96 3.308 7.668 8.761 11.809 11.296 5.222-2.246 25.873-6.334 32.433-7.635a1169.121 1169.121 0 0 1 46.969-8.767c1.81-.316 7.8-1.938 9.266-1.931 8.714.51 17.366-2.511 25.718-2.885 15.133-.678 30.257-2.363 45.394-2.573 8.996-.125 17.344.439 26.221 1.69 4.168.588 8.648.335 12.846.936 15.861 2.489 34.375 7.493 46.387 18.547 5.721 5.268 10.299 14.888 9.681 22.65-1.819 17.034-14.1 30.979-25.405 42.938-1.377 1.792-9.363 6.948-8.533 9.384 2.821 8.294 6.021 12.011 5.708 21.51-.274 8.237-3.655 15.52-9.659 21.21-5.898 5.592-14.802 8.271-22.752 7.715-12.758-.869-16.784-5.91-24.743-14.668-69.739 39.599-145.238 67.677-222.243 89.495-15.08 4.273-30.79 8.114-46.136 11.318-1.672.216-5.175 3.999-6.63 3.924-11.867-.618-21.756 2.9-33.418 5.054a944.236 944.236 0 0 1-83.382 11.053c-40.007 3.593-171.145 1.289-108.7-76.465 2.778-3.46 21.973-24.52 25.994-20.878.009 1.042.084 2.538-.868 3.306-48.647 39.276-53.559 78.866 17.978 87.257 64.788 7.601 125.085-4.502 188.17-17.7 15.236-4.679 33.393-7.981 49.522-12.655a1117.758 1117.758 0 0 0 88.632-28.97c7.999-2.94 17.079-5.976 24.848-9.208 12.219-5.08 24.412-10.607 36.525-15.97 15.08-6.674 30.305-13.485 44.74-21.545 6.375-3.562 15.106-7.327 20.991-11.366 2.317-1.593.379-10.863.512-14.346.269-6.903 3.448-15.431 8.705-20.075 2.975-2.622 6.057-4.546 9.231-7.504-2.119-3.093-9.986-10.673-8.887-13.422.592-.232 2.203-.597 2.627-.147 3.982 4.21 6.304 8.654 10.431 12.943 12.334-2.104 17.084.229 27.966 5.795 7.076-4.952 20.5-19.645 25.162-27.238 5.54-8.463 9.619-18.915 6.798-29.223-4.172-15.236-24.743-22.204-38.242-25.208-26.946-5.996-55.326-6.176-82.669-3.243-6.789.729-13.667.83-20.456 1.626-34.826 4.726-69.66 11.344-103.836 19.557 1.254 3.82 3.801 9.006 5.655 12.757 25.595 51.709-13.504 116.521-72.247 118.472a84.661 84.661 0 0 1-74.593-38.491c-6.963-10.562-11.089-20.702-12.483-33.299-.203-1.841-.573-7.1-1.712-8.161-5.789-.432-54.847 22.034-62.558 25.91-17.981 9.044-40.116 19.761-57.194 31.057-.902.596-1.454.155-2.288-.207-3.416-4.234 3.056-6.145 6.311-8.038 22.654-13.163 46.002-25.218 69.901-35.962a874.276 874.276 0 0 1 27.204-11.824c5.372-2.222 10.926-4.462 16.223-6.827 4.198-1.872 4.414-11.765 5.193-16.149a73.194 73.194 0 0 1 13.474-30.926c14.111-19.146 35.772-31.49 59.17-35.114Zm13.412 161.82c42.893-2.313 75.807-38.936 73.542-81.828-2.265-42.894-38.847-75.846-81.749-73.632-42.97 2.218-75.991 38.873-73.723 81.838 2.268 42.962 38.965 75.94 81.93 73.622Zm264.412-12.257c13.623-2.335 22.761-15.291 20.382-28.904-2.38-13.617-15.367-22.71-28.972-20.287-13.548 2.41-22.589 15.326-20.222 28.877 2.366 13.551 15.251 22.635 28.812 20.314ZM544.271 235.762c12.74-1.569 21.834-4.121 24.593-17.511.6-2.92.931-13.759 2.653-14.632 2.119 5.565 2.926 6.622 3.544 12.785 1.978 19.628 17.892 17.568 31.36 20.483-12.356 6.265-24.389 1.057-29.664 16.678-1.501 4.449-2.662 16.199-5.66 18.499-5.377-3.907 7.103-30.662-26.566-32.186a77.857 77.857 0 0 1-1.629-1.812c.044-1.425.014-.955 1.369-2.304Zm-140.775-48.383c6.954-.012 4.954 4.67 4.839 9.614-.119 5.059-.098 10.129-.085 15.191.089 24.245.009 48.49-.24 72.734-.006 8.594 1.88 22.598-.476 30.489-.702 1.714-.826 2.671-2.759 2.971-2.023-2.294-1.423-14.485-1.433-18.269l-.058-29.585a4416.11 4416.11 0 0 1-.085-55.08c.032-9.45-.137-18.605.297-28.065Zm242.324 387.5a13.575 13.575 0 0 1 10.524 1.597 13.604 13.604 0 0 1 6.145 8.692 13.634 13.634 0 0 1-.159 6.4 13.607 13.607 0 0 1-9.204 9.482 13.6 13.6 0 0 1-13.362-3.24 13.584 13.584 0 0 1-3.695-13.243 13.57 13.57 0 0 1 9.751-9.688ZM143.366 331.953a12.924 12.924 0 0 1 14.099 18.519 12.927 12.927 0 0 1-9.307 6.875c-6.96 1.21-13.602-3.393-14.912-10.335-1.31-6.942 3.197-13.649 10.12-15.059Zm260.827 267.848c1.749.269 2.929 1.117 3.913 2.529 1.027 5.05-.103 24.017-.098 30.837l.059 39.152c.073 6.705 1.208 16.059-.189 22.358-1.742.799-1.835.98-3.418.706-.457-.446-1.058-1.09-1.068-1.775-.422-29.428-.238-58.949-.188-88.396.003-1.765.055-3.915.989-5.411Zm-.316 121.099c2.589-.379 4.062.186 6.592.795 7.383 7.504 5.722 14.218-3.555 18.526a11.179 11.179 0 0 1-6.032-1.558c-7.264-4.238-6.813-15.613 2.995-17.763Zm-.802-577.101c4.875-1.334 9.916 1.507 11.297 6.369a9.214 9.214 0 1 1-18.07 2.113 9.215 9.215 0 0 1 6.773-8.482Z"/>
  <path fill="currentColor" d="M619.576 400.54c4.953 1.409 6.737 2.83 5.223 8.031-4.066-.337-5.757-4.345-5.223-8.031Zm-73.611-47.34c.38-.029.76-.053 1.144-.07 1.986-.086 3.178-.075 4.657 1.277 1.002 1.734.711 2.402.49 4.524-3.783.057-7.103-1.345-6.291-5.731ZM133.14 445.498c3.464 1.686 5.693 4.361 4.583 8.219-4.39-1.589-5.935-3.637-4.583-8.219Zm502.899-29.983c4.423.974 5.857 2.347 4.935 6.823-4.865-.694-5.814-2.434-4.935-6.823ZM234.7 307.15c1.311-.006 1.365-.112 2.523.429 1.455 2.493.855 3.793-1.377 5.487-1.453-.205-1.526-.16-2.915-.79-1.031-1.412-.79-.652-.827-2.336.838-1.672.995-1.698 2.596-2.79Zm-51.77 193.943c4.561 1.549 5.206 2.71 4.479 7.014-4.817-.989-5.468-2.362-4.479-7.014Zm8.425-182.807c2.148-.165 3.22-.576 4.806.946.183 1.627-.121 2.114-.665 3.64-2.041.578-2.85 1.096-4.434-.483-.434-1.657-.101-2.365.293-4.103Zm-65.751 45.438c1.822.509 2.131.743 2.711 2.396-.186 1.835-.963 2.906-1.853 4.529-1.398-.284-1.475-.162-2.498-1.096-.966-2.623-.655-4.175 1.64-5.829Zm45.775 127.363c3.377.6 5.746 2.904 4.795 6.466-4.1-.556-6.201-2.021-4.795-6.466Zm426.275 114.13c1.863.044 3.263-.283 4.221 1.448-.208 1.527-1.316 2.502-2.353 3.712-1.435.172-1.338.212-2.6-.472-1.554-2.159-1.409-3.126.732-4.688ZM212.991 312.554c1.257-.046 1.396-.045 2.633.159 1.092 1.209.776.524 1.003 2.118-.568 1.368-.636 1.791-1.753 2.797-1.44.177-1.519.261-2.98-.064-1.132-1.139-.792-.468-.992-2.114.626-1.756.636-1.656 2.089-2.896Zm372.536 63.576c2.936.172 5.916 2.639 6.776 5.465-5.703.919-6.175-.244-6.776-5.465Zm-270.369-77.091c2.211.302 2.665.487 3.69 2.627-.043 2.178.287 1.226-1.026 2.963-2.229-.166-3.827-.046-4.504-2.377.392-1.678.68-1.844 1.84-3.213Zm301.866 300.443c1.801.111 3.611-.106 4.657 1.435-.282 1.518-1.324 2.326-2.414 3.496-.883.728-.495.485-1.726.733-1.815-1.395-1.678-3.849-.517-5.664Zm-233.834-4.581c2.12-.106 2.968-.128 4.48 1.576.595 1.734.521 1.664.094 3.5-2.331-.093-3.627.256-5.129-1.576-.158-1.567.093-2.021.555-3.5Zm-266.501-213.63c2.014.23 3.024.133 4.239 1.829.15 1.542-.503 2.428-1.205 3.844-1.865.519-2.164.462-3.293-.896-.399-2.056-.141-2.651.259-4.777Zm220.244-81.699c2.118.345 3.43.536 4.171 2.867-.491 1.695-.02.983-1.673 2.055-1.059-.118-2.017-.279-3.066-.449-1.423-1.188-1.093-.478-1.34-2.03.623-1.502.7-1.446 1.908-2.443Zm-83.693 4.611c2.066-.09 3.198-.377 4.763.743.399 1.536-.301 2.817-.864 4.358-2.177.169-2.49-.157-3.754-1.712-.308-1.445-.539-1.951-.145-3.389Zm-81.644 22.091c2.029-.181 3.545-.538 5.105.701-.16 1.666-.131 1.165-1.356 2.706-1.508 1.278-1.112 1.316-2.803 1.648l-.833-.603c-.653-1.842-.398-2.434-.113-4.452Zm62.923 210.635c2.954.106 5.518 1.748 5.379 4.895-1.947.411-3.155.843-4.767-.618-.882-1.712-.691-2.26-.612-4.277Zm39.96-235.528c1.938.055 2.618-.048 3.897 1.374.277 1.514-.135 2.376-.573 3.854-2.132.22-2.65.45-3.943-1.343-.207-1.777.036-2.123.619-3.885Zm85.534-.639c2.069.227 3.063.263 4.471 1.625-.135 1.752-.095 1.207-1.379 2.84-2.381-.004-3.746-.572-4.615-2.851.529-1.332.112-.749 1.523-1.614Zm-20.492 282.139c1.743.004 4.04.106 5.298 1.412.619 1.753.39 1.325.019 3.417-3.769.313-4.785-1.642-5.317-4.829Zm333.513-15.744c.932.198.605.132 1.44.852 1.01 2.847-1.153 3.955-3.276 4.904-1.43-.733-1.51-.941-1.585-2.38.795-1.562 2.018-2.282 3.421-3.376ZM558.15 611.396a2.487 2.487 0 0 1 2.467.344 2.477 2.477 0 0 1-.657 4.255 2.474 2.474 0 0 1-3.174-1.408 2.468 2.468 0 0 1 1.364-3.191ZM446.399 314.277c1.731.679 2.918.877 3.152 2.86-1.205 1.268-1.011.9-2.966 1.459-1.691-.84-2.574-.958-3.452-2.311.892-1.345 1.47-1.218 3.266-2.008Zm132.402 294.639c2.344.446 2.777 2.865 1.757 4.741l-1.121.234c-1.687-.181-2.985-.018-3.488-1.792.782-1.665 1.386-1.965 2.852-3.183Zm-154.49-298.911c2.083-.214 2.679-.406 4.306.739.664 1.428.358 2.437.172 4.024-3.103-.096-4.763-1.507-4.478-4.763Zm-42.27-7.401c1.966.135 2.778 1.077 3.21 2.86-.605 1.401-.275.926-2.045 1.724-1.753-.449-2.87-.534-3.7-2.215.557-1.404 1.217-1.592 2.535-2.369ZM146.869 464.258c3.056 1.381 4.289 3.46 2.232 6.36-2.144-.909-3.714-2.93-3.552-5.332l1.32-1.028Zm456.113-75.094c2.141.149 3.519.17 4.971 1.782.645 1.607.402 2.113.119 3.909-2.728-.916-4.763-2.794-5.09-5.691Zm-137.888-70.202c1.603.781 2.852 1.185 3.938 2.574.137 1.583.305.82-.834 2.281-2.084-.131-3.183-.003-4.45-1.774-.004-1.564.393-1.837 1.346-3.081Zm-265.8 195.369c2.564.923 4.656 2.45 4.362 5.345-2.113.376-2.822.521-4.279-1.156-.53-1.819-.346-2.242-.083-4.189ZM158.29 478.14c2.678.935 4.564 2.966 4.772 5.791l-.425-.009c-4.474-.115-4.856-1.907-4.347-5.782Zm304.968 130.997c1.342.878 1.316 1.258 1.422 2.706-.976 1.876-.42 1.24-2.424 2.299-.666-.304-1.236-.644-1.876-.997-.715-1.47-.688-.764-.296-2.176 1.042-1.263 1.629-1.307 3.174-1.832ZM304.54 569.666c2.69.552 4.534 2.437 4.893 5.112-2.112.339-2.692.472-4.367-.954-.771-1.691-.6-2.225-.526-4.158ZM509.521 336.8c1.965-.024 3.13-.038 4.905.69 1.214 1.349.847.563.971 2.512-2.146.413-3.448.552-5.342-.558-.966-1.54-.737-.702-.534-2.644ZM251.33 546.761c1.583.287 3.133.41 4.43 1.315.969 1.289.749 2.384.751 4.043-2.966-.821-4.944-2.158-5.181-5.358Zm42.232-245.647c1.826-.204 2.884-.586 4.479.276.841 1.185.714 1.552.694 3.001-1.82.074-2.815.292-4.439-.393-.981-1.362-.679-.905-.734-2.884Zm-23.744 254.087c1.561.119 2.537.11 3.712 1.121.802 1.488.478 2.419.266 4.119-.948.159-.728.092-1.726-.062-1.777-1.532-1.906-2.887-2.252-5.178Zm250.111 57.771c1.951.159 2.013.159 3.081 1.651-.318 1.703.031.926-1.315 2.295-1.978-.212-3.307-.155-4.066-2.181.909-1.439.525-.966 2.3-1.765Zm8.564-268.517c1.81.342 2.671.404 4.3 1.199 1.064 1.457.773.828.768 2.902-1.646.028-3.068.085-4.388-.863-.856-1.267-.71-1.712-.68-3.238ZM124.596 428.71c2.907 1.004 2.863 3.98 1.124 6.135-1.615-1.93-2.603-2.587-2.573-4.918l1.449-1.217Zm419.936-188.832c-2.035-.375-4.269-.705-5.69-2.268l.19-.811c1.531-1.046 3.306-.909 5.239-1.037-1.355 1.349-1.324.879-1.368 2.304a77.857 77.857 0 0 0 1.629 1.812ZM216.16 527.277c1.918.115 2.616.04 4.36.729 1.317 1.439.891.596 1.107 2.714-1.797.309-1.916.389-3.593-.159-1.408-1.156-1.36-1.43-1.874-3.284Zm473.018-10.805c1.668.004 3.143-.075 4.493.878.318 1.536.376.746-.618 2.393-1.487.035-2.772.035-4.03-.768-.591-1.453-.481-.658.155-2.503ZM115.125 397.979c1.948.076 1.852-.221 3.293.655.692 1.386.193 3.104-.056 4.72-2.392-.787-2.935-3.139-3.237-5.375Zm366.355-71.813c1.863-.004 2.605-.119 4.34.432 1.258 1.369.839.558 1.015 2.645-1.995.009-2.229.063-4.092-.517-1.36-1.39-.931-.579-1.263-2.56Zm-39.478 281.002c1.77.132 2.278.137 3.585 1.254.516 1.664.467.799-.168 2.674-1.594-.229-2.168-.172-3.443-1.165-.6-1.721-.53-.834.026-2.763Zm-154.984-43.713c3.246.494 4.391.764 5.255 3.823-1.828.079-2.349.176-3.907-.636-1.128-1.271-1.077-1.545-1.348-3.187Zm397.071-12.876.781.375c1.541 2.154 1.042 3.377-.993 4.847-1.015-.45-.993-.375-1.638-1.267-.101-1.492.967-2.657 1.85-3.955Zm-146.93 62.442c1.647.083 1.823.075 3.399.485.87 1.276.605.839.428 2.785-1.58.027-2.326.181-3.747-.521-.645-1.628-.49-.754-.08-2.749Zm-420.667-200.88c1.482.092 2.202-.002 3.464.783.799 1.177.577 2.281.552 3.757l-.442-.25c-2.717-1.561-2.852-1.639-3.574-4.29Zm381.922 201.444c1.064-.128 1.836-.083 2.896-.061 1.36 1.033.949.79 1.624 2.705-1.09.005-1.938-.083-3.01-.181-1.311-1.037-.892-.644-1.51-2.463Zm191.094-79.735c2.296 1.125 1.722 2.741 1.254 4.855-.984-.278-.627-.106-1.408-.834-.472-1.753-.243-2.167.154-4.021Zm-209.643 78.668c1.126.07 1.201.136 2.287.498.953 1.386.644 1.029.671 3.042l-1.638-.57c-1.121-1.068-1.059-1.452-1.32-2.97Zm15.972-282.509c1.668 1.251 1.509 2.475 1.417 4.365-1.073-.396-.751-.253-1.687-.948-.534-1.387-.172-1.977.27-3.417Z"/>
</svg>
