<svg xmlns="http://www.w3.org/2000/svg" width="1038" height="1024" fill="none" viewBox="0 0 1038 1024">
  <path fill="currentColor" d="M706.231 366.859c6.746-2.334 33.05-1.408 41.216-1.266 8.57.148 31.398-1.347 38.935.311 1.622 2.712 1.231 47.966 1.231 54.834v77.871l.132 215.804-.137 61.663c-.01 8.704-.537 20.561-.03 28.986.405 1.531 1.378 1.992 2.838 2.367 7.998 2.048 41.201-2.615 46.056 1.45.624.517.446.892.497 1.632l-.765.801c-7.907.842-17.968.203-26.082.599-19.133.937-38.013.654-57.171.593l-126.091.045-377.69-.147c-3.041-.02-9.694.441-11.923-1.216-.403-1.922-.603-1.116.043-2.631 2.571-.806 9.211-.401 12.218-.543 12.599-.578 25.598.604 37.884-2.337.389-4.212.163-11.284.156-15.796l-.039-28.165-.026-89.189c-.001-7.442-.697-32.114 1.129-37.462 2.352-2.104 13.641-1.491 17.111-1.465l23.416.152c11.595.005 23.57-.426 35.165-.031 1.552.056 2.646.852 3.865 1.764 2.092 3.559 1.343 43.308 1.346 50.917l-.062 88.778c-.011 8.289-.274 20.932.221 29.549.036.629 1.013 1.065 1.471 1.263 8.872-.152 50.047 1.226 55.501-1.379.347-1.399.257-10.57.29-12.557.332-19.775.896-40.625.294-60.365.546-11.437.243-30.528-.001-42.096.435-11.223.137-24.251.075-35.556-.171-16.105-.174-32.22-.008-48.331.015-8.668-.416-26.456.662-34.258 15.67-.248 31.564-.056 47.244.03 10.44.056 21.587-.39 31.928-.131l.107.856c.709 6.205.456 14.57.471 21.038v35.389l.005 109.999c-.005 8.116-.684 63.64 1.08 66.093 7.891 3.326 27.774.598 37.227 1.349 3.776.299 14.906.258 18.636-.228 1.764-1.81 1.561-2.55 1.526-5.207-.02-1.12-.046-2.24-.081-3.361-.477-3.7.055-25.503.076-30.162l.091-68.263-.01-130.221c-.015-20.069-.811-43.834-.096-63.528-.076-4.268-1.014-15.942 1.87-18.693 6.366-.859 75.762-.873 78.792.33.923 1.481.832 1.958.948 3.677-.517 16.016-.015 34.547-.005 50.825v97.006l-.02 110.749c-.025 18.301-.532 38.243-.112 56.336 7.902 1.389 15.991.897 24.024 1.242 11.095.476 23.026-.102 34.181-.634.558-8.37-.04-24.5-.086-33.336l-.106-63.523-.02-221.993.005-73.698c.015-14.745-.264-31.983.598-46.53ZM574.864 499.063c-1.47 9.009-1.1 18.559-1.105 27.735l.162 41.978-.319 148.389c-.385 4.892-.441 9.272-.507 14.164-1.287 17.575 1.678 39.297 1.09 57.577.557 3.772-.304 7.077.126 11.061-.04 2.581-.04 3.473 1.409 5.303 5.104 1.181 58.074.897 64.47.142l-.076-312.091-6.837-.097c-17.547.209-41.191-.859-57.997.252l-.416 5.587ZM295.46 804.824c7.723 2.641 23.731.38 32.173 1.145 6.68-.74 24.596-.06 32.265.046 1.435-6.692.727-24.774.642-32.266a2051.862 2051.862 0 0 1-.029-44.727l-.107-56.852c-.026-9.485-.456-20.794-.218-30.076-18.993-.208-38.057-1.207-57.113-.639-2.278.066-5.116-.279-6.057 2.16-2.952 6.666-1.948 34.851-1.953 43.363l.032 64.481-.045 35.318c.005 4.142-.191 14.427.41 18.047Zm460.36.998c4.277-.086 19.797.37 22.518-1.054.644-5.323.198-18.65.183-24.804l-.026-46.795-.045-162.988.005-138.058.035-37.539c.015-4.487.325-16.581-.329-20.557-4.643-2.756-48.986-2.155-55.605-1.741-3.198.234-5.854-.08-7.902 2.222 1.222 31.699.406 68.245.396 100.35l-.056 181.171-.041 98.862c-.035 6.991-.152 13.981-.182 20.967-.03 6.742.628 13.819-.456 20.505.02-3.513.061-5.997-.35-9.495l-.304.583c-.076 2.819-.492 15.451.689 17.271 3.923 1.602 36.33 1.617 41.47 1.1Zm-255.61-.081.178-9.657-.068-217.645a811.464 811.464 0 0 0-42.295-.406c-7.284.056-16.067-.182-23.146.502l.097 152.155-.067 49.188c-.007 6.818-.363 19.39.249 25.635 9.475.193 18.953.269 28.43.228 4.041 0 11.898-.243 15.582.061 6.787-.258 14.205-.091 21.04-.061Z"/>
  <path fill="currentColor" d="M574.863 499.063c.649 6.877.289 20.435.299 27.709l.061 52.27c.005 48.442.715 99.353-.451 147.644-1.683-2.343-1.181-6.368-1.171-9.521l.319-148.388-.162-41.979c.005-9.176-.365-18.726 1.105-27.735Z"/>
  <path fill="currentColor" d="M574.185 788.906c.588-18.28-2.377-40.002-1.09-57.577.309 4.603.892 8.522.943 13.145l.268-4.573c.431.943.228 6.849.548 9.044.425 9.976-.137 21.281-.021 31.364.046 3.898.051 16.495-.522 19.659-.43-3.985.431-7.29-.126-11.062Z"/>
  <path fill="currentColor" d="M573.602 717.165c-.011 3.153-.512 7.178 1.17 9.52.264 4.775.664 17.646.081 22.26-.319-2.195-.116-8.101-.547-9.044l-.269 4.572c-.05-4.623-.633-8.541-.942-13.144.066-4.892.121-9.272.507-14.164Z"/>
  <path fill="currentColor" d="M568.031 486.408c6.366-.859 75.762-.873 78.793.33.922 1.481.831 1.958.947 3.677-2.838-.553-10.228 2.321-14.495 2.809-17.547.209-41.191-.859-57.997.252l-.416 5.587c-1.47 9.008-1.1 18.559-1.105 27.734l.162 41.979-.319 148.389c-.385 4.892-.441 9.272-.507 14.164-1.287 17.575 1.678 39.297 1.09 57.577-1.612 2.966.38 14.189-1.936 17.367-2.169.163-3.097.223-5.251.076.152-3.132.735-6.498-.897-9.074-.477-3.7.056-25.503.076-30.162l.091-68.263-.01-130.221c-.015-20.069-.811-43.834-.096-63.528-.076-4.268-1.014-15.942 1.87-18.693Z"/>
  <path fill="currentColor" d="M566.161 505.101c-.076-4.269-1.013-15.943 1.871-18.694 1.302 4.345-.31 14.641-1.871 18.694Zm220.221-139.198c1.621 2.712 1.231 47.967 1.231 54.835v77.871l.132 215.803-.137 61.663c-.01 8.704-.537 20.561-.03 28.986l-.659-1.079-.32.04.234 2.165-.406-.375c-1.257-11.462-.988-21.555-.943-33.093.092-12.47.061-24.946-.101-37.416-.421-68.836-.36-137.678.183-206.519-.416-42.921-.375-85.846.116-128.767.086-5.885-.223-30.097.7-34.114Z"/>
  <path fill="currentColor" d="M368.169 635.483c2.092 3.559 1.343 43.308 1.346 50.917l-.062 88.778c-.011 8.289-.274 20.931.221 29.549.036.629 1.012 1.065 1.471 1.263-1.778.294-.986.42-2.494-.117-1.262-2.783-.331-30.857-.315-35.678l-.006-102.714c.052-6.316-.774-27.324-.161-31.998Z"/>
  <path fill="currentColor" d="m360.185 642.094 1.653.471c1.085 2.297 1.866 63.088 1.026 69.49.816 17.434.042 37.376.238 54.946.102 9.105.449 31.719-1.045 39.789-5.895.34-28.801.213-34.424-.821 6.679-.74 24.595-.061 32.264.046 1.435-6.692.728-24.774.643-32.266a2051.862 2051.862 0 0 1-.03-44.727l-.106-56.852c-.027-9.485-.456-20.794-.219-30.076ZM295.46 804.823c-.601-3.619-.405-13.905-.41-18.046l.045-35.318-.032-64.482c.005-8.511-.999-36.697 1.953-43.363 1.073 6.519.704 16.876.714 23.841l.03 37.386c.12 22.523.042 45.041-.235 67.559-.094 6.149.805 28.277-2.065 32.423Zm459.776-595.084c2.722.174 5.443-1.799 8.023-1.92.806-.037 1.997-.028 2.889-.068-5.134 5.626-9.868 15.94-14.541 22.645-24.455 35.082-51.312 69.154-80.263 100.608-10.45 11.358-21.859 21.356-32.645 32.335-47.1 40.628-98.975 76.833-154.965 104.148-6.242 3.045-12.34 6.658-18.588 9.538a529.511 529.511 0 0 1-111.305 36.865c-13.963 2.834-28.121 6.246-42.423 7.153-2.765.173-6.79 2.373-9.924 2.19-9.916.943-20.932.411-30.711 1.409-.762.974-1.527 2.003-2.351 2.915-5.026 28.135-41.408 36.712-57.708 12.81-4.945-7.254-6.579-15.892-4.972-24.525a29.974 29.974 0 0 1 12.972-19.514c16.777-10.947 41.428-4.148 48.515 15.773.689 1.937.103 5.865 3.15 5.891 15.718.101 30.681-2.505 46.085-4.532 94.471-12.45 181.906-54.467 258.805-109.614 36.786-26.379 73.684-57.059 103.075-91.888 5.935-7.031 12.2-13.904 17.962-20.856a746.19 746.19 0 0 0 52.615-71.762c1.014-1.558 5.453-8.852 6.305-9.601ZM243.382 499.113a24.343 24.343 0 0 0-14.88.619c-11.258 4.14-17.826 15.862-15.479 27.628 2.347 11.766 12.91 20.069 24.894 19.572 11.985-.502 21.822-9.652 23.184-21.57 1.363-11.923-6.156-23.058-17.719-26.249Z"/>
  <path fill="currentColor" d="M228.502 499.732c.666-1.922 1.156-3.706 2.681-4.941l.555.301-.035.98-1.464 1.047-.045.526c.901.407 1.194.373 2.189.559l.223-1.103c2.949-2.562 7.862-3.782 11.343-1.574.505 1.823.266 1.392-.567 3.586a24.35 24.35 0 0 0-14.88.619Zm241.891-350.548c.29 3.521.637 7.037 1.042 10.546.049-1.917.392-4.431 2.235-5.49 1.016.859.693 1.186.889 2.999l.318.109c.934 3.694 1.35 9.022 2.126 13.024 3.747 19.35 12.675 20.449 29.092 24.891 5.186 1.403 17.832.786 21.299 5.29-1.49 1.962-14.835 1.159-18.302 1.771-27.381 4.837-30.328 12.369-33.752 38.215l-.41.303c-1.698-.814.36-3.936-1.125-7.059l-.944-.228c-1.078 1.526-1.769 6.636-1.98 8.637l-.067.679c-.287-.475-.81-3.479-1.545-4.992-.752-12.22-6.16-29.247-19.303-31.845-2.942-.582-6.265-1.295-8.889-2.708-2.839-3.493-2.797-3.897-3.463-8.236 4.397-.443 8.188-1.92 12.357-3.221 17.996-5.614 18.723-26.831 20.422-42.685Z"/>
  <path fill="currentColor" d="M471.435 159.73c.048-1.918.391-4.432 2.234-5.491 1.016.86.694 1.186.889 2.999-.278 1.543-.488 4.153-1.483 5.176-1.273-.942-.962-.967-1.64-2.684Z"/>
  <path fill="currentColor" d="M832.549 597.479c24.536-7.163 31.373-5.83 34.865-34.076.117-.973.299-1.44 1.135-1.799 3.842 7.75-.213 25.848 14.146 29.777 6.878 1.88 13.811 4.126 20.674 5.85l-.786.218c-12.067 3.345-17.561-1.237-28.043 9.104-1.231 4.421-2.742 8.106-3.776 12.521-.643 2.743-.466 5.871-.993 8.207l-2.914.416c-.903-5.865-1.896-10.686-3.482-16.429-3.984-14.433-19.316-11.077-30.826-13.789Zm-71.955-407.006c4.044-1.773 9.026-3.695 12.797-5.729 1.146 1.493 2.438 3.266 3.634 4.68.071 15.808.01 31.615-.177 47.422-.081 5.005 1.48 23.869-6.417 23.049-7.303-4.326.35-46.948-4.282-52.144-.893.04-2.084.032-2.889.069-2.58.12-5.302 2.093-8.024 1.919 1.779-2.473 3.031-5.259 4.384-7.995 3.457-.883-.603-7.285.974-11.271ZM200.085 796.986c17.572-.577 19.469 22.082 5.082 25.727-3.365.066-6.184-.056-9.548-.228-3.226-2.59-4.398-4.101-7.078-7.305-.507-10.853-.293-15.674 11.544-18.194Zm671.875.046c9.326.005 11.966 4.117 13.984 12.298-1.632 6.241-3.264 11.873-10.573 12.851-3.467.046-4.962-.111-8.403-.568-3.786-2.773-4.81-4.177-7.263-7.958-.517-10.758.846-14.757 12.255-16.623ZM294.801 410.615c12.911-.362 20.851 16.98 3.649 24.782-5.091.132-10.04-2.208-12.56-6.802a10.907 10.907 0 0 1-.892-8.449c1.621-5.213 5.473-7.159 9.803-9.531Z"/>
  <path fill="currentColor" d="M760.593 190.473c-1.576 3.986 2.484 10.388-.973 11.27-10.238-1.052-50.035 26.396-51.459 14.807 1.759-4.844 11.698-6.846 16.042-9.138 11.312-5.972 24.779-10.315 35.823-16.608l.567-.331Zm-291.324 47.405c.735 1.514 1.258 4.517 1.545 4.992l.067-.679c.211-2.001.901-7.11 1.98-8.637l.944.228c1.485 3.123-.573 6.245 1.125 7.059l.41-.303c-.111 4.269 1.027 13.18-4.768 14.751-.861-3.024-1.232-14.077-1.303-17.411Zm-46.285-40.084c7.533-1.676 6.086-1.993 14.63-2.705.665 4.339.623 4.743 3.462 8.236-4.817-1.762-12.003-1.728-17.272-1.968-.616-1.677-.674-1.692-.82-3.563Zm4.245 533.895-.421.04c-.36 1.07-.514 1.866-.756 2.966l-.423.167c-.259-4.785-.428-46.531.368-48.092.909 1.11.547 3.452.513 5.165l.719-2.342c.244 11.568.546 30.659 0 42.096Zm43.164-582.506-.16-.827c-.423-2.108-.647-1.174.411-2.839 2.036-.218 2.119-.083 4.216 1.329-.056 3.501-.05 7.002.016 10.502l-.318-.11c-.195-1.813.128-2.14-.889-2.999-1.842 1.059-2.186 3.573-2.234 5.491-.405-3.51-.752-7.026-1.042-10.547Z"/>
  <path fill="currentColor" d="M423.805 201.358c-2.46.054-4.191.369-6.088-1.187l.181-.845c1.525-1.333 2.977-1.255 5.087-1.531.146 1.871.204 1.885.82 3.563Z"/>
  <path fill="currentColor" d="m866.856 627.697 2.915-.416c-.497 1.967-.294 4.933-1.465 6.104-1.095-1.871-1.135-3.523-1.45-5.688Z"/>
</svg>
