<svg xmlns="http://www.w3.org/2000/svg" width="974" height="1142" fill="none" viewBox="0 0 974 1142">
  <path fill="#FFFFFF" d="M509.029 287.649c3.313 15.72 7.921 45.138 9.261 61.064 5.676-4.007 11.515-10.758 16.656-13.774-4.774 4.848-9.753 12.833-14.738 16.405 17.766 3.035 35.863 5.445 53.711 7.983 2.453.349 4.884.82 7.303 1.339-10.336 1.202-21.119 3.347-31.364 5.116-8.331 1.438-16.624 2.633-24.918 4.328 3.434 12.802 11.235 29.666 15.792 42.535-10.225-10.765-20.475-20.282-30.461-31.54.711 16.068.401 35.6.311 51.769l-.028 51.482-.869-2.993c-.07 4.929-.652 17.077.328 21.126-.011 2.212-.609 6.384-.878 8.739-1.261-5.905-1.249-10.766-1.293-16.719l-.795-1.519c1.544-3.239.943-100.976.984-111.959-2.317 3.657-7.465 8.391-10.623 11.704-6.526 6.844-13.516 13.52-19.908 20.486 4.979-13.99 11.044-28.697 16.147-42.98-14.02-3.533-43.33-7.677-57.808-9.794a1632.865 1632.865 0 0 0 61.682-8.984c-2.159-2.58-10.787-12.415-11.718-14.882l-.001.297c2.008.494 11.895 10.061 13.964 12.203.171-3.045.718-6.497 1.251-9.511 3.057-17.264 5.462-34.585 8.012-51.921Zm-8.465 71.583c.224-1.149.331-2.219.463-3.378-2.499-1.875-6.119-.614-8.585.918a425.986 425.986 0 0 0-28.805 3.822c8.277 2.408 17.343 2.736 24.771 4.967 3.807 1.725 6.132.361 9.081 2.598.38 1.388.263 1.756.183 3.181l-2.32 7.731c-2.608 4.919-5.398 12.562-8.129 18.222 6.478-6.07 13.353-13.496 19.305-20.144 1.376-1.293 1.557-2.038 1.531-3.78l-.834-.738c-1.576-.018-1.629.175-2.931-.513.131-1.936 1.195-3.027 2.345-4.666l1.215.557c.148.851.287 1.704.417 2.558l.927-1.244.833.194.364 1.022.859-1.488c.308-1.852 1.414-1.55 2.761-3.046l.606-.685 1.559-.079c.822-.74.826-1.657 1.453-2.215 2.9-2.583 7.456-1.992 11.022-1.808-.994.946-1.425 2.81-1.923 4.162l.523.288c2.451.129 26.528-4.217 29.592-5.205-6.994-1.585-17.969-2.572-25.129-3.313-2.613-.47-5.193-.75-7.827-1.068l-2.115-.757.071-.597c-1.643-.432-2.979-.65-4.41-1.562-.58-1.79-1.02-3.137-1.217-5.006l-.462.918c-.534-2.256-.647-2.781-1.604-4.859-1.246-7.939-3.204-22.947-5.14-30.217-1.257 10.444-2.853 20.724-4.152 31.125-1.13 1.903-1.132 2.373-1.629 4.587l.586 1.086c2.079.221 2.257-.439 4.361-1.803l-.425 8.204c-1.391-1.463-3.043-3.597-4.87-4.118l-1.185.396c-.233 1.433.609 2.121 1.695 3.621.308.422.621.843.936 1.261-1.222.952-2.195.801-3.767.871Zm17.803 14.734-2.445-.099-.727-1.172c-2.565.346-2.492-.11-3.893 1.338-.397 4.458 14.516 18.465 18.429 21.64l.433-.341c-2.867-8.471-6.332-16.643-9.38-24.986l-.931.184c-.884.912-1.272 1.002-2.387 1.635l.901 1.801Z"/>
  <path fill="#FFFFFF" fill-opacity=".984" d="M508.179 348.998c.464-1.155.224-.797 1.093-1.631 1.807 1.925.167 5.643 2.782 8.351 3.408-.956 3.923-3.57 3.703-6.639l.462-.918c.197 1.868.638 3.216 1.218 5.005 1.431.912 2.767 1.13 4.41 1.562l-.071.598c-2.562-.535-2.925-1.044-5.14-.24l-3.085 4.211c4.13.313 11.169.879 15.093.404l1.059-.056c2.855.173 5.98.14 8.607 1.105-2.853.683-6.67.578-9.655.468-3.566-.184-8.122-.775-11.022 1.808-.627.558-.631 1.476-1.454 2.215l-1.558.08-.607.684c-1.346 1.496-2.452 1.194-2.76 3.047l-.86 1.487-.364-1.022-.832-.194-.928 1.244a116.32 116.32 0 0 0-.417-2.557l-1.214-.558-1.362-.301c-.843-1.624-.475-1.409-.017-3.724-2.108-1.927-11.872-2.267-15.198-2.553 4.195-.907 6.205-1.243 10.502-1.642 1.572-.069 2.545.081 3.766-.871a95.508 95.508 0 0 1-.935-1.261c-1.086-1.5-1.928-2.188-1.696-3.621l1.186-.396c1.827.521 3.478 2.655 4.87 4.118l.424-8.203Z"/>
  <path fill="#FFFFFF" fill-opacity=".906" d="M492.442 356.772c2.466-1.532 6.086-2.793 8.585-.918-.132 1.159-.239 2.229-.462 3.378-4.297.399-6.307.735-10.502 1.642 3.326.286 13.089.626 15.197 2.552-.457 2.316-.826 2.1.017 3.725l1.362.301c-1.15 1.639-2.214 2.73-2.345 4.666 1.302.688 1.355.495 2.931.513l.834.738c.027 1.742-.155 2.487-1.531 3.78-6.215-2.687-7.236 1.003-10.224 6.103l-.478-.144-.149-1.168c2.088-4.01 4.875-6.886 1.995-10.6.08-1.425.197-1.793-.183-3.181-2.948-2.237-5.274-.873-9.081-2.598 1.121-.895 1.036-1.045 1.784-2.314l-.358-.8c-2.01-1.193-7.228-1.144-9.815-1.258l-.103-.561c4.166-1.761 11.04 1.119 12.526-3.856Z"/>
  <path fill="#FFFFFF" fill-opacity=".953" d="M509.203 326.854c.812 4.382 1.22 10.923 1.64 15.501 1.434 1.947.259-.301 3.311 1.864.957 2.078 1.07 2.603 1.604 4.859.219 3.07-.295 5.684-3.703 6.639-2.615-2.707-.976-6.425-2.783-8.35-.869.834-.629.476-1.092 1.631-2.104 1.364-2.282 2.024-4.361 1.802l-.586-1.086c.497-2.214.499-2.684 1.629-4.586l2.087-.473c1.352-1.939 1.828-14.314 2.254-17.801Z"/>
  <path fill="#FFFFFF" fill-opacity=".01" d="M531.717 357.15c7.161.741 18.136 1.728 25.129 3.313-3.063.988-27.14 5.334-29.592 5.205l-.523-.288c.499-1.352.929-3.216 1.923-4.162 2.986.11 6.803.214 9.656-.469-2.627-.964-5.752-.931-8.607-1.104.628-1.995.077-1.12 2.014-2.495Z"/>
  <path fill="#FFFFFF" fill-opacity=".027" d="M509.014 314.002c1.936 7.27 3.894 22.278 5.139 30.217-3.051-2.165-1.876.083-3.311-1.864-.42-4.578-.827-11.119-1.639-15.502-.426 3.488-.902 15.862-2.254 17.802l-2.087.473c1.299-10.402 2.895-20.682 4.152-31.126Z"/>
  <path fill="#FFFFFF" fill-opacity=".01" d="M492.442 356.772c-1.486 4.975-8.36 2.095-12.526 3.856l.103.561c2.586.114 7.805.066 9.815 1.258l.358.8c-.748 1.27-.663 1.42-1.784 2.314-7.428-2.231-16.494-2.559-24.771-4.967a426.625 426.625 0 0 1 28.805-3.822Z"/>
  <path fill="#FFFFFF" fill-opacity=".843" d="m513.551 359.298 3.085-4.212c2.215-.804 2.579-.295 5.14.24l2.115.757c.452 1.36.451 1.634 1.32 2.801 1.147.264 2.291.536 3.433.817-3.924.475-10.963-.091-15.093-.403Z"/>
  <path fill="#FFFFFF" d="M511.254 369.051c.308-1.852 1.414-1.55 2.76-3.046l.607-.685 1.558-.079c-1.997 2.656-.784 4.558 1.287 6.924l.9 1.801-2.444-.1-.727-1.171c-.43-2.12-.991-3.038-2.742-4.149l-1.199.505Z"/>
  <path fill="#FFFFFF" fill-opacity=".153" d="M523.891 356.083c2.633.317 5.214.597 7.827 1.067-1.938 1.375-1.387.499-2.015 2.495l-1.059.055a222.329 222.329 0 0 0-3.433-.816c-.869-1.168-.868-1.441-1.32-2.801Z"/>
  <path fill="#FFFFFF" fill-opacity=".098" d="M497.672 371.34c2.88 3.715.093 6.59-1.995 10.601l-.325-2.87 2.32-7.731Z"/>
  <path fill="#FFFFFF" fill-opacity=".922" d="M518.367 373.967c1.796 2.605 3.47 5.698 5.054 8.474-3.191-2.932-5.512-4.705-7.499-8.574l2.445.1Z"/>
  <path fill="#FFFFFF" fill-opacity=".651" d="m542.225 860.855.614.73c.129 2.225-.382 3.368-1.018 5.476l-.409-.502.813-5.704Z"/>
  <path fill="#FFFFFF" fill-opacity=".216" d="M488.067 686.711c2.66-.418 4.06-.663 6.63.05-2.344 1.132-4.253.826-6.63-.05Z"/>
  <path fill="#FFFFFF" d="m790.958 542.165 1.74.763c3.651 4.304 9.455 27.102 10.816 33.749 13.213 1.695 18.114 9.518 11.462 21.624l-5.731 2.978c1.873 9.557 2.503 19.968 4.594 28.683-1.282.753-1.176.731-2.654.803-2.024-2.381-4.449-24.657-5.096-29.341-13.286.239-16.932-15.368-4.9-23.448-2.219-7.868-9.746-29.787-10.231-35.811Z"/>
  <path fill="#FFFFFF" d="M802.354 579.666a10.32 10.32 0 0 1 13.743 11.604 10.318 10.318 0 0 1-6.852 7.851c-5.341 1.79-11.128-1.032-13.007-6.34-1.884-5.309.842-11.147 6.116-13.115Z"/>
  <path fill="#FFFFFF" d="M805.159 582.705a6.658 6.658 0 0 1 7.437 5.671c.507 3.602-1.974 6.953-5.575 7.505a6.648 6.648 0 0 1-6.239-2.453 6.638 6.638 0 0 1-.937-6.636 6.652 6.652 0 0 1 5.314-4.087Z"/>
  <path fill="#FFFFFF" d="M739.309 449.067c4.99 1.982 10.57 13.592 14.311 18.08 3.725 4.473 6.139 2.66 12.734 3.269 8.558 5.933 9.974 13.137 2.989 21.177 2.704 4.742 11.239 18.778 10.13 23.094-3.697-2.626-9.696-16.413-12.243-21.25-4.856.597-8.547.996-12.846-1.849a10.499 10.499 0 0 1-4.599-7.252c-.748-5.371 1.315-8.041 4.253-11.937-3.986-6.648-10.202-13.595-14.395-20.212-.357-.564-.351-2.374-.334-3.12Z"/>
  <path fill="#FFFFFF" d="M759.452 471.887c5.587-1.261 11.14 2.243 12.405 7.828 1.266 5.585-2.224 11.142-7.811 12.419-5.592 1.278-11.161-2.226-12.432-7.822-1.272-5.597 2.241-11.162 7.838-12.425Z"/>
  <path fill="#FFFFFF" d="M759.692 475.665a6.72 6.72 0 1 1 4.18 12.772 6.72 6.72 0 0 1-4.18-12.772Z"/>
  <path fill="#FFFFFF" d="M807.974 712.891c1.171-6.479 2.141-12.446 2.682-19.02.106-1.288 1.115-2.387 2.213-3.078l.658.407c.764 3.179-1.556 17.688-2.018 22.45 7.303 3.379 8.786 7.589 7.682 15.206-3.696 6.898-4.7 7.533-12.661 8.492-1.054 4.093-4.672 19.333-7.148 21.575l-.841-.19c-1.026-2.654 3.707-17.453 4.672-22.015-3.396-2.057-4.834-2.855-6.88-6.435-2.286-11.185 1.226-14.972 11.641-17.392Z"/>
  <path fill="#FFFFFF" d="M807.974 712.891c1.171-6.479 2.141-12.446 2.682-19.02.106-1.288 1.115-2.387 2.213-3.078l.658.407c.764 3.179-1.556 17.688-2.018 22.45 7.303 3.379 8.786 7.589 7.682 15.206-.323-1.645-.351-2.465-1.304-3.864a10.394 10.394 0 0 0-6.601-9.48 10.384 10.384 0 0 0-11.279 2.476 10.392 10.392 0 0 0-2.035 11.37l-1.639.925c-2.286-11.185 1.226-14.972 11.641-17.392Z"/>
  <path fill="#FFFFFF" d="M817.887 724.992c.953 1.399.981 2.219 1.305 3.864-3.697 6.898-4.7 7.533-12.662 8.492-1.054 4.093-4.672 19.333-7.147 21.575l-.842-.19c-1.026-2.654 3.707-17.453 4.672-22.015-3.395-2.057-4.834-2.855-6.88-6.435l1.639-.925a10.389 10.389 0 0 0 11.747 5.989 10.39 10.39 0 0 0 8.168-10.355Z"/>
  <path fill="#FFFFFF" d="M806.591 718.518a6.7 6.7 0 0 1 2.682 13.115 6.699 6.699 0 1 1-2.682-13.115Z"/>
  <path fill="#FFFFFF" fill-opacity=".953" d="M382.398 746.644c.055 5.755.048 11.632.181 17.375 20.172-14.882 34.35 16.946 10.465 21.809.44 2.147 1.624 7.031 1.392 8.911l-.756-.19c-1.174-2.191-1.582-5.325-1.783-7.823-4.882-1.796-8.611-2.973-11.09-8.181-2.524-5.297.056-12.256.476-17.882.229-3.067.185-6.118.154-9.196.589-1.527.731-3.189.961-4.823Zm15.686 35.654c5.121-3.195 6.7-9.925 3.533-15.067a10.976 10.976 0 0 0-9.671-5.208 10.973 10.973 0 0 0-10.085 7.545 10.967 10.967 0 0 0 16.223 12.73Z"/>
  <path fill="#FFFFFF" fill-opacity=".745" d="M393.115 779.783a7 7 0 0 1-7.09-3.675 6.999 6.999 0 0 1 .954-7.923 7.012 7.012 0 0 1 7.759-1.891 7.01 7.01 0 0 1-1.623 13.489Z"/>
  <path fill="#FFFFFF" fill-opacity=".608" d="M391.946 762.023a10.98 10.98 0 0 1 5.559 1.321c-1.92 1.461-1.965 1.037-2.768 2.95a7.011 7.011 0 0 0-7.758 1.89 6.999 6.999 0 0 0-.955 7.924 7.003 7.003 0 0 0 7.09 3.675l-.664 1.411c3.029 1.031 4.028-1.863 5.634 1.104a10.967 10.967 0 0 1-12.574-.681 10.965 10.965 0 0 1-3.649-12.05 10.974 10.974 0 0 1 10.085-7.544Z"/>
  <path fill="#FFFFFF" fill-opacity=".592" d="M401.618 767.231c3.166 5.141 1.587 11.872-3.534 15.067-1.606-2.967-2.604-.073-5.634-1.104l.665-1.411a6.993 6.993 0 0 0 5.209-3.513 7 7 0 0 0 .3-6.273l.892.49c1.292-.624 1.315-1.561 2.102-3.256Z"/>
  <path fill="#FFFFFF" fill-opacity=".533" d="M397.505 763.344a10.97 10.97 0 0 1 4.112 3.887c-.786 1.695-.809 2.632-2.101 3.256l-.893-.49a7.01 7.01 0 0 0-3.886-3.703c.803-1.913.848-1.489 2.768-2.95Z"/>
  <path fill="#FFFFFF" d="m778.074 806.275 1.923.547c-2.888 7.706-6.696 13.561-10.688 20.699 2.336 3.869 3.998 6.736 2.933 11.57a10.528 10.528 0 0 1-5.023 6.876c-4.165 2.431-7.282 1.996-11.502.814-1.918 2.788-4.873 7.628-8.04 8.905-.284-3.028 3.791-7.734 5.732-10.366-5.353-6.959-5.158-11.041.312-17.827 5.731-2.56 7.393-2.839 13.481-1.244 2.966-7.093 7.961-13.416 10.872-19.974Z"/>
  <path fill="#FFFFFF" d="M757.975 827.264a9.752 9.752 0 0 1 12.316 5.409 9.783 9.783 0 0 1 .318 6.675 9.773 9.773 0 0 1-5.971 6.262 9.766 9.766 0 0 1-7.136-.179 9.752 9.752 0 0 1-5.96-9.245 9.753 9.753 0 0 1 6.433-8.922Z"/>
  <path fill="#FFFFFF" d="M759.81 830.164a6.557 6.557 0 0 1 6.305 2.035 6.548 6.548 0 0 1 1.316 6.496 6.582 6.582 0 0 1-5.018 4.333 6.565 6.565 0 0 1-7.621-5.152 6.558 6.558 0 0 1 5.018-7.712Z"/>
  <path fill="#FFFFFF" d="m672.467 396.311-.613-.111a8.48 8.48 0 0 1-5.246-3.936c-1.478-2.564-1.433-6.37-.736-9.188 2.196-8.872 15.215-8.84 18.755-1.029 1.394 3.091.808 6.052-.357 9.119l-1.037-.339c-5.609 3.705-2.274 4.928-9.734 4.55-.574.426-.647.374-1.032.934Z"/>
  <path fill="#FFFFFF" d="M672.517 381.254a5.918 5.918 0 0 1 5.949.154 5.908 5.908 0 0 1 2.804 5.247 5.916 5.916 0 0 1-11.128 2.575 5.918 5.918 0 0 1 2.375-7.976Z"/>
  <path fill="#FFFFFF" fill-opacity=".973" d="M508.509 737.934c.787-4.645.301-11.147.781-16.372l.73-.357c.877 30.747.426 61.332.496 92.068.033 14.303-.03 28.539-.313 42.836l-1.828-1.951c-.79-17.225-.299-34.835-.218-52.087.099-20.894-.984-43.394.352-64.137Z"/>
  <path fill="#FFFFFF" fill-opacity=".98" d="m508.603 534.361.794.399c.18 1.884.088 5.747.657 6.998l-.313 1.25.617.696c.481 14.549.035 30.865-.066 45.469-.044 16.45.055 32.899.297 49.343.049 4.333-.576 20.554.135 23.889l.791.306-1.305.53c-2.33-.279-1.517.257-2.77-1.238 1.776-4.617.557-104.825.456-118.737 0-.492.251-.919.438-1.368l-.304-.187c-.032-2.081.369-5.191.573-7.35Z"/>
  <path fill="#FFFFFF" fill-opacity=".961" d="M430.695 626.104c7.551.585 8.878 3.652 10.807 10.092-.984 2.482-2.119 4.629-3.323 6.998-1.446.675-3.49 1.406-5.019 2.008-7.097-1.032-12.533-3.937-9.994-12.853 1.081-3.798 4.085-4.734 7.529-6.245Zm2.82 14.698a5.58 5.58 0 0 0 3.631-4.427 5.572 5.572 0 0 0-2.172-5.292 5.586 5.586 0 0 0-5.691-.602 5.586 5.586 0 0 0-2.821 7.188 5.586 5.586 0 0 0 7.053 3.133Z"/>
  <path fill="#FFFFFF" fill-opacity=".984" d="M429.283 630.481a5.586 5.586 0 0 1 7.864 5.894 5.585 5.585 0 0 1-3.632 4.428 5.586 5.586 0 0 1-7.052-3.134 5.585 5.585 0 0 1 2.82-7.188Z"/>
  <path fill="#FFFFFF" fill-opacity=".973" d="M510.724 662.404c3.68-.708 9.149.82 12.249 2.917 18.302 12.373 12.283 43.472-11.089 44.81l-.077-1.26c26.748-3.904 27.315-41.582-1.83-45.396l-1.816.067c-7.148 1.316-12.308 3.764-16.569 10.009a22.91 22.91 0 0 0-3.587 17.537c1.914 9.413 9.649 17.337 19.589 17.47l.811 1.339-3.841.128c-26.775-7.322-24.883-43.455 2.877-48.022 1.252 1.494.44.959 2.769 1.238l1.306-.53-.792-.307Z"/>
  <path fill="#FFFFFF" fill-opacity=".984" d="M510.013 502.49c-.981-4.049-.399-16.197-.329-21.126l.87 2.992c.043 2.749.131 5.649.106 8.387 6.972.923 12.684 2.652 17.426 8.461 2.868 3.514 6.098 11.651 6.266 16.059 2.238.037 5.121-.006 7.294.198l-.896.412 1.874-.158-1.902-.198.655.433-6.884.211c-.635 7.761-3.291 14.405-9.213 19.768-5.43 4.918-9.664 3.537-14.921 5.775l-.618-.696.313-1.25.4-.242a23.257 23.257 0 0 0 14.92-6.866c4.172-4.258 6.623-10.622 6.574-16.535l.034-.809c.116-13.306-9.651-20.531-21.631-22.737.13 3.416.132 4.53-.338 7.921Z"/>
  <path fill="#FFFFFF" fill-opacity=".98" d="M484.547 517.379c1.608-13.001 8.541-23.164 22.499-24.389l.795 1.519c-13.668 3.904-19.208 8.548-21.197 22.923 2.261-.075 4.128-.311 6.289.303-2.463.648-3.788.505-6.308.484 1.892 14.047 6.922 21.07 21.404 23.492l.305.187c-.187.449-.438.875-.438 1.368-15.722-1.553-22.294-9.797-23.019-25.189-3.754.01-6.43-.035-10.155-.378 3.999-.398 5.817-.477 9.825-.32Z"/>
  <path fill="#FFFFFF" d="M352.15 915.742c5.952-4.372 5.245-6.051 7.563-13.723 1.198.881-.048 7.511 1.533 9.842l1.593-.647c.996.803.893 1.483 1.345 2.994 1.348 1.255 3.776 1.389 5.697 1.729-2.844.457-5.935.535-7.677 2.598l.68 1.06-1.084 1.081-.737-.15c-.668 2.186-.682 3.095-.892 5.409l-1.182-.089-1.117-1.311c-.129-1.455-.361-2.715-.609-4.149-1.178.43-1.427.898-2.393 1.813l-.471-.463c.334-.937.676-1.874 1.027-2.811-1.316-1.098-6.028-1.795-8.376-2.565 1.451-.758 3.315-.563 5.1-.618Z"/>
  <path fill="#FFFFFF" fill-opacity=".859" d="M388.584 810.603c1.032 4.477.16 8.029 1.047 11.553l.023 2.504c-.792 3.045-.738 29.743-.076 32.704.533 3.72.194 16.523.179 20.827-.127 12.898-.16 25.801-.1 38.699-.009 6.82-.338 14.643.087 21.307l-1.215-3.776c-.297-2.526-.071-6.451-.078-9.033-.09-38.247-.064-76.539.133-114.785Z"/>
  <path fill="#FFFFFF" fill-opacity=".89" d="m580.408 731.521 1.099-.022c0 7.913-3.145 16.851 5.787 18.898-2.013 0-2.442-.034-4.377.418-2.564 2.911-1.065 14.671-1.282 19.31a76.124 76.124 0 0 1-1.388 11.002l-.279-.218c.151-8.453.931-17.392.067-25.795-.563-5.492-3.836-4.812-8.341-4.667 3.044-.675 5.269-.714 7.025-3.374 2.303-3.485 1.689-11.085 1.689-15.552Z"/>
  <path fill="#FFFFFF" fill-opacity=".863" d="M381.441 687.28c.726-3.457-.218-9.39.935-11.264.541 7.338.547 16.422.224 23.855-.668 15.329.567 31.567-.202 46.773-.23 1.634-.372 3.295-.961 4.823-.821-18.853-.23-44.927.004-64.187Z"/>
  <path fill="#FFFFFF" d="M672.467 396.311c.384-.56.457-.508 1.031-.934 7.46.378 4.126-.844 9.735-4.55l1.037.339c2.994 6.225 12.923 10.055 14.847 14.898l-.424.881c-3.312-.489-13.113-9.764-16.38-12.601-4.098 1.979-5.152 2.466-9.846 1.967Z"/>
  <path fill="#FFFFFF" fill-opacity=".898" d="m580.397 625.044 1.21-.295a1844.73 1844.73 0 0 0-.184 47.107c-.29 2.582-.463 8.526-.965 10.327-.128-18.864-1.499-38.303-.061-57.139Z"/>
  <path fill="#FFFFFF" fill-opacity=".941" d="m553.107 847.165 1.111-2.955c1.063 4.216.881 6.496 5.383 7.835l.078.73c-3.056 2.543-3.96 2.459-5.31 6.245l-.484-.044-.829-1.634c-.957-1.779-.282-1.104-2.164-2.035-2.529-1.785-3.097-1.924-6.095-2.404l-.774-.117.483-.719 3.3.067c2.487-1.099 3.552-2.833 5.301-4.969Z"/>
  <path fill="#FFFFFF" fill-opacity=".573" d="M514.035 856.979c.12-4.014 1.097-47.453 1.951-49.12 1.159 3.028-.888 47.715-.786 55.695l-1.22 2.66.055-9.235Z"/>
  <path fill="#FFFFFF" d="M779.54 516.136c4.594 1.51 10.916 16.613 9.93 20.362-1.082-.236-.826-.237-1.818-.886-1.912-3.23-7.95-16.12-8.112-19.476Z"/>
  <path fill="#FFFFFF" d="M212.871 566.706c-2.18-2.314-2.69-2.71-5.674-3.769l-.107-.407c5.168-1.032 5.958-2.944 6.846-8.03 1.641 6.53 2.247 7.829 9.667 8.253-4.423.82-7.657.753-8.968 5.827l-1.764-1.874Z"/>
  <path fill="#FFFFFF" fill-opacity=".984" d="M580.052 449.906a4.213 4.213 0 0 1 5.625 1.51 4.215 4.215 0 1 1-5.625-1.51Z"/>
  <path fill="#FFFFFF" fill-opacity=".812" d="m580.409 688.529 1.053 4.31.045 38.66-1.098.022a805.508 805.508 0 0 1 0-42.992Z"/>
  <path fill="#FFFFFF" fill-opacity=".016" d="m670.777 825.039.809.251c-1.026 2.861-2.565 8.359-5.815 9.05-1.238.262-1.734.68-2.654 1.467-.881 2.331-.468 3.122-1.149 5.264-.808.619-1.628 1.221-2.453 1.817-.557-1.488-.836-1.316-.686-2.988 3.452-6.508 7.733-9.38 11.664-14.482l.284-.379Z"/>
  <path fill="#FFFFFF" d="M381.631 454.308c1.182 8.918 1.601 5.522 7.979 8.193-12.183 3.251-5.512 5.284-8.228 8.114-.325-8.123-2.967-7.271-10.441-8.267 7.725-.092 9.815.054 10.69-8.04Z"/>
  <path fill="#FFFFFF" d="M778.074 806.275c1.461-3.451 4.89-11.275 7.176-13.946l1.07-.362c1.433 3.212-3.758 13.148-6.322 14.855l-1.924-.547Zm34.583-135.227 1.807.697c1.689 3.117.97 11.487-.775 14.509-3.758-2.643-2.604-11.598-1.032-15.206Z"/>
  <path fill="#FFFFFF" fill-opacity=".988" d="M731.928 872.331c1.505.228.97-.151 1.845.814-.814 3.228-10.197 11.883-13.035 14.169-.87.089-.385.111-1.444-.184.212-2.052 10.153-11.772 12.634-14.799Z"/>
  <path fill="#FFFFFF" fill-opacity=".953" d="m357.872 924.535 1.117 1.31 1.182.089c-.16 5.889.045 27.842-1.222 32.058l-.697-.218.273-1.344-.329.932c.075-1.601.654-.474.651-1.4-.023-9.312-.63-22.6-.975-31.427Z"/>
  <path fill="#FFFFFF" d="M812.674 653.165c1.422.474 1.818.245 2.32 1.478 1.221 3.028.942 9.234-.045 12.234-1.288-.407-2.308-.597-2.782-1.913-1.137-3.173-.613-8.754.507-11.799Z"/>
  <path fill="#FFFFFF" fill-opacity=".659" d="M443.416 717.542c1.639-2.242 4.266-6.491 6.384-7.746 2.359.67 1.948.686 4.505.413l.147.279c-.869 1.55-1.237 1.678-2.672 2.671-1.402 3.206 1.121 10.578 1.125 14.86l-1.455-3.691c-.641-2.582-1.068-7.299-2.05-8.688-2.528-1.165-3.793.391-5.984 1.902Z"/>
  <path fill="#FFFFFF" fill-opacity=".698" d="M382.332 639.024c.362 10.818.568 26.253.045 36.992-1.153 1.874-.21 7.807-.936 11.264a1451.92 1451.92 0 0 1 .028-37.912c.436-1.918.713-8.063.863-10.344Z"/>
  <path fill="#FFFFFF" d="m579.762 616.92 1.644-1.907c.77 2.548 1.032 3.2 2.799 5.185-.067 1.618-1.483 3-2.598 4.551l-1.21.295c-1.059-1.634-1.405-2.492-3.105-3.457l-.296-1.896-.68 1.132-.446-.418c1.912-1.21 2.481-1.718 3.892-3.485Z"/>
  <path fill="#FFFFFF" d="M810.94 637.016c.975.179 2.118.179 2.715.803 1.907 2.007 1.16 8.108 1.003 11.035-.914-.156-1.984-.145-2.486-.747-1.728-2.08-1.282-8.236-1.232-11.091Z"/>
  <path fill="#FFFFFF" d="M795.586 773.761c-1.455 3.747-3.2 9.245-6.25 11.721l-.519-.519c.24-4.673 1.701-7.015 3.569-11.347l3.2.145Z"/>
  <path fill="#FFFFFF" fill-opacity=".016" d="m652.557 812.85.179 1.271c-2.972 4.522-5.146 10.043-8.608 13.751-2.125 2.275-2.03 2.738-3.596 5.492l-.915-.741c1.149-3.246 10.465-17.978 12.94-19.773Z"/>
  <path fill="#FFFFFF" d="M718.273 424.738c3.491 1.113 6.117 4.137 8.436 6.923 1.505 1.802 1.16 2.045.942 3.95-3.507-.541-9.037-7.1-9.378-10.873Z"/>
  <path fill="#FFFFFF" fill-opacity=".871" d="m553.057 857.342.829 1.634.484.044c.308 7.021.13 12.502-.082 19.517-.134 4.466.37 7.477-.108 12.384l-.72.09c-1.333-7.06.878-24.073-.412-31.455l.009-2.214Z"/>
  <path fill="#FFFFFF" d="M744.244 857.967c.669.401.451.306.914 1.054-.519 3.284-5.821 8.704-8.207 11.425l-1.171-.669-.094-1.176c2.285-4.434 5.062-7.088 8.558-10.634Zm-39.892-446.65c4.008.517 9.522 6.388 10.225 10.406-3.78-1.322-9.774-6.201-10.225-10.406Z"/>
  <path fill="#FFFFFF" fill-opacity=".886" d="M688.752 940.884c.245-1.489.061-1.087.708-2.386.686 3.775.223 56.559-.206 57.562-.48-4.21-.223-14.448-.223-19.355.106-6.317.407-14.169-.034-20.336l.045-.518c.44-3.218.189-11.744-.29-14.967Z"/>
  <path fill="#FFFFFF" fill-opacity=".529" d="M580.436 837.669c.201-2.465.301-3.156.992-5.526.307 2.158-.167 21.803-.524 24.262l-.29.301-.117 1.043c-.345-.848-.323-.407.006-1.327l-.307.016c.006-5.81-1.176-14.453.24-18.769Z"/>
  <path fill="#FFFFFF" fill-opacity=".89" d="M362.884 919.594c2.852 1.723 17.509 12.786 18.99 15.285-1.565-.363-17.304-12.307-20.074-14.203l1.084-1.082Z"/>
  <path fill="#FFFFFF" fill-opacity=".871" d="M580.386 788.047c1.333 3.524 1.087 30.942.474 35.743-.675-1.667-.53-4.07-.563-5.939.234-8.263.067-21.072.089-29.804Z"/>
  <path fill="#FFFFFF" d="M792.386 773.616c.914-3.301 1.466-7.439 4.309-9.128l.853.435c.564 3.039-.869 5.844-1.962 8.838l-3.2-.145Z"/>
  <path fill="#FFFFFF" fill-opacity=".988" d="M715.368 889.817c.424.235.602.569.954.987-.792 3.357-7.739 7.997-10.705 9.647l-.479-.083.05-.865c3.116-3.24 6.568-7.115 10.18-9.686Zm-25.227 21.274c3.2-3.418 8.307-9.507 13.18-9.413-3.017 3.848-8.33 7.997-13.18 9.413Z"/>
  <path fill="#FFFFFF" fill-opacity=".984" d="m363.379 885.574 1.219.34c1.452 4.11-3.743 9.669-.45 13.913-5.743-1.054-1.756-10.388-.769-14.253Z"/>
  <path fill="#FFFFFF" d="M729.976 438.641c4.12.701 7.364 4.966 8.58 8.754-3.931-.722-7.805-4.934-8.58-8.754Z"/>
  <path fill="#FFFFFF" fill-opacity=".906" d="M554.084 822.056c1.928 3.647.032 17.175.135 22.154l-1.112 2.956c.247-5.08.568-20.214.304-24.547l.673-.563Z"/>
  <path fill="#FFFFFF" fill-opacity=".906" d="M554.08 782.828c.187 4.996.363 9.741.325 14.743-.032 4.277-.748 9.875-.574 13.929l-.744 1.439c-.657-5.013.622-15.809.433-22.472.046-3.095.09-4.545.56-7.639Z"/>
  <path fill="#FFFFFF" fill-opacity=".827" d="m508.376 854.158 1.828 1.952c.16 5.582-.016 10.74-.809 16.266-.921-6.558-.976-11.677-1.019-18.218Z"/>
  <path fill="#FFFFFF" fill-opacity=".961" d="M409.216 748.228c.35.356.302.579.458 1.176-1.199 2.777-5.156 6.535-7.374 9.53l-.394.541c-.943-.92-.614-.402-.884-1.634 1.873-2.911 5.536-7.416 8.194-9.613Z"/>
  <path fill="#FFFFFF" fill-opacity=".682" d="m553.832 749.817.508.418c1.298 2.905-.478 18.675-.846 22.846-1.465-2.783.286-18.759.338-23.264Z"/>
  <path fill="#FFFFFF" fill-opacity=".624" d="M381.469 649.368c-.058-6.452-.492-20.816.115-26.727 1.231 2.141.781 13.327.748 16.383-.15 2.281-.427 8.426-.863 10.344Z"/>
  <path fill="#FFFFFF" fill-opacity=".42" d="M518.652 851.303c.144-2.375 1.253-12.574 2.008-14.643.673 1.612-1.126 20.102-1.519 22.924.014-2.805.159-5.554-.489-8.281Z"/>
  <path fill="#FFFFFF" fill-opacity=".965" d="M396.861 740.778c2.733 2.024-.569 9.368-1.226 12.769-2.143-1.901.541-9.981 1.226-12.769Z"/>
  <path fill="#FFFFFF" fill-opacity=".965" d="M437.496 721.055c.223 2.743-6.673 7.076-8.96 9.083-.087-.825-.019-1.003.059-1.834 2.426-2.839 5.587-5.515 8.901-7.249Z"/>
  <path fill="#FFFFFF" fill-opacity=".839" d="M458.975 653.343c1.648.168 12.282 6.413 13.538 8.069-2.467.201-12.147-5.264-13.538-8.069Z"/>
  <path fill="#FFFFFF" d="M198.635 699.854c1.903 1.589 2.255 1.31 2.652 3.19l-2.311 3.507c-.294-.028-.335-.006-.613-.346-2.571-3.122-1.692-4.171.272-6.351Z"/>
  <path fill="#FFFFFF" fill-opacity=".608" d="m525.131 837.268.695.206c-.204 6.803-.7 13.6-1.487 20.364l-.802-1.087c.866-6.19.688-12.909 1.594-19.483Z"/>
  <path fill="#FFFFFF" fill-opacity=".988" d="M394.676 799.406c2.874 1.544 4.471 9.858 5.084 12.87l-1.187-.58c-1.627-3.469-3.112-8.526-3.897-12.29Z"/>
  <path fill="#FFFFFF" fill-opacity=".176" d="M361.932 965.157c4.417.073 9.886 3.151 14.141 4.266l.774.195c.268.602.655 1.076 1.055 1.601l.061.462c-3.546-1.026-12.545-4.946-16.031-6.524Z"/>
  <path fill="#FFFFFF" fill-opacity=".98" d="m374.805 836.688.788.758c.103 2.549-1.471 8.086-2.304 10.589-.563-.808-.762-1.271-1.224-2.157.264-3.134 1.632-6.218 2.74-9.19Z"/>
  <path fill="#FFFFFF" fill-opacity=".957" d="M421.835 734.176c.766.68.482.245.577 1.494-1.982 3.418-4.232 5.08-7.522 7.06-.38-.491-.197-.145-.192-1.155 2.338-2.498 4.662-5.046 7.137-7.399Z"/>
  <path fill="#FFFFFF" fill-opacity=".918" d="M416.974 848.03c1.823 2.152 3.628 6.463 6.088 8.375.612.48.413.781.611 1.963-3.513-.708-7.188-6.864-6.699-10.338Z"/>
  <path fill="#FFFFFF" fill-opacity=".988" d="M388.898 786.051c1.306 3.591-1.003 7.667-3.089 10.444l-.472-1.149c.579-3.44 1.633-6.379 3.561-9.295Z"/>
  <path fill="#FFFFFF" fill-opacity=".945" d="m689.298 912.184-.067-5.158c.19 1.6.324 2.565.909 4.065-.702 2.253-.607 3.725-.674 6.067-.329-.72-.63-1.015-1.11-1.662-1.907-.334-3.016.797-5.068 1.929l-1.109-.34c2.23-1.873 4.666-3.334 7.119-4.901Z"/>
  <path fill="#FFFFFF" fill-opacity=".988" d="m401.006 722.421.546.463c1.113 2.191-1.153 9.039-1.877 11.693l-.724-.814c-.067-3.34 1.027-8.147 2.055-11.342Z"/>
  <path fill="#FFFFFF" fill-opacity=".827" d="M531.44 865.84c.797-4.065 2.551-16.505 3.439-19.299-.463 6.513-1.287 14.113-2.524 20.531l-.915-1.232Z"/>
  <path fill="#FFFFFF" fill-opacity=".98" d="M406.162 704.008c.544.357 1.066 1.037 1.016 1.143-.991 2.158-2.025 8.231-2.215 10.216-.824-.268-.748-.296-1.495-.764.13-3.758.959-7.249 2.694-10.595Z"/>
  <path fill="#FFFFFF" fill-opacity=".98" d="m442.62 611.65.412.53c-.158 1.963-3.193 7.221-4.28 9.296-.833-.686-.528-.24-.832-1.383.875-3.441 2.079-5.995 4.7-8.443Z"/>
  <path fill="#FFFFFF" fill-opacity=".98" d="M425.611 649.362c.262.234.561.775.772 1.104-.811 3.067-2.204 7.372-4.339 9.686l-.622-.708c.367-2.192 2.856-8.192 4.189-10.082Z"/>
  <path fill="#FFFFFF" fill-opacity=".937" d="m408.249 833.47 1.195.686c1.693 3 5.04 7.907 5.413 10.874-3.054-2.906-5.827-7.389-6.608-11.56Z"/>
  <path fill="#FFFFFF" fill-opacity=".839" d="m508.522 715.367.802-.156c.661 2.08.614 3.106.747 5.314l-.051.68-.729.357c-.48 5.225.005 11.727-.781 16.372-.169-7.439-.032-15.106.012-22.567Z"/>
  <path fill="#FFFFFF" fill-opacity=".914" d="M425.738 862.578c2.438 1.021 6.938 8.041 9.194 10.807-4.299-1.718-7.412-6.697-9.194-10.807Z"/>
  <path fill="#FFFFFF" fill-opacity=".918" d="m615.75 426.997.736.746c-.847 1.587-6.311 5.347-8.145 6.753l-.597-.933c.965-2.006 5.955-5.173 8.006-6.566Z"/>
  <path fill="#FFFFFF" fill-opacity=".988" d="M418.486 667.78c.25.229.529.759.726 1.082-.647 3.597-2.034 6.095-3.597 9.39l-.463-.424c-.826-2.866 1.94-7.226 3.334-10.048Z"/>
  <path fill="#FFFFFF" fill-opacity=".012" d="m649.681 831.368.251.814c-2.532 4.049-3.418 5.125-6.786 8.454.268-3.965 3.585-7.021 6.535-9.268Z"/>
  <path fill="#FFFFFF" fill-opacity=".678" d="M388.697 939.942c1.567 6.53.485 11.537 1.048 18.044l-1.147-.156c-.159-6.15-.26-11.726.099-17.888Z"/>
  <path fill="#FFFFFF" fill-opacity=".322" d="M581.422 671.856c.374 6.887.039 14.041.039 20.984l-1.053-4.311c-.234-2.152-.051-4.176.05-6.345.502-1.802.674-7.746.964-10.328Z"/>
  <path fill="#FFFFFF" fill-opacity=".973" d="m469.58 700.239.84.641c-.907 1.255-7.349 4.69-9.132 5.71l-.738-.117-.233-.613c2.068-1.98 6.565-4.171 9.263-5.621Z"/>
  <path fill="#FFFFFF" fill-opacity=".565" d="M389.654 824.66c.152 9.903.389 22.846-.076 32.704-.663-2.961-.716-29.659.076-32.704Z"/>
  <path fill="#FFFFFF" fill-opacity=".957" d="M367.701 869.526c.596.312.58.407 1.073.914-1.901 1.941-1.725 6.881-1.485 9.452l-1.523-.346-.551-.992c-.238-3.201.889-6.307 2.486-9.028Z"/>
  <path fill="#FFFFFF" fill-opacity=".886" d="m571.521 461.51.736.247c-.446 1.479-6.312 5.974-7.962 7.367l-.585-.255-.195-.699c1.282-2.072 5.809-5.049 8.006-6.66Z"/>
  <path fill="#FFFFFF" fill-opacity=".69" d="m508.161 663.542 1.816-.067c.38 5.521.051 7.171-1.213 12.418-.28-4.059-.317-8.197-.603-12.351Z"/>
  <path fill="#FFFFFF" d="m383.509 803.404.448.491c-.064 2.715-.645 7.048-2.131 9.345l-.712-.708c-.335-3.887.76-5.704 2.395-9.128Z"/>
  <path fill="#FFFFFF" fill-opacity=".976" d="M379.946 818.978c.266 1.182-1.478 9.848-2.219 10.662-.796-.803-.583-.591-1.143-1.606.347-3.575 1.417-6.089 3.362-9.056Z"/>
  <path fill="#FFFFFF" fill-opacity=".976" d="M370.264 852.346c.801.563.736.619 1.38 1.394.319 2.777-.627 6.87-1.155 9.747l-.959-.736c-.413-1.439.788-7.706.734-10.405Z"/>
  <path fill="#FFFFFF" fill-opacity=".918" d="m388.529 934.421 1.215 3.775c1.545.965 6.293 2.253 6.766 3.458-6.475.212-8.002-1.16-7.981-7.233Z"/>
  <path fill="#FFFFFF" fill-opacity=".435" d="M388.583 810.602c-.077-1.55-.464-4.6.197-5.799 1.318 2.437.924 14.013.85 17.353-.886-3.524-.015-7.076-1.047-11.554Z"/>
  <path fill="#FFFFFF" fill-opacity=".976" d="M453.213 650.031c-2.282-1.372-4.504-2.453-5.982-4.673l.296-.435c3.148 1.261 5.412 2.71 7.79 5.158l-.201.519-1.249-.262-.654-.307Z"/>
  <path fill="#FFFFFF" fill-opacity=".933" d="m537.876 490.548.568.625c-.851 2.158-5.36 5.639-7.324 7.144l-.503-.567c.449-1.831 5.54-5.729 7.259-7.202Z"/>
  <path fill="#FFFFFF" fill-opacity=".957" d="m412.006 685.607.71 1.054c-1.077 3.301-2.187 6.552-2.992 9.931l-.133.58c-.416-.39-.464-.692-.736-1.26.379-3.452 1.179-7.405 3.151-10.305Z"/>
  <path fill="#FFFFFF" fill-opacity=".608" d="m528.803 853.35.748.847c-.626 4.333-1.38 8.872-1.647 13.227l-1.194 3.262c.534-6.301.835-11.102 2.093-17.336Z"/>
  <path fill="#FFFFFF" fill-opacity=".882" d="M475.107 559.703c.107.362.101 1.009.122 1.422-2.117 3.156-3.375 5.113-5.937 7.884l-.153-1.589c1.524-2.872 3.501-5.587 5.968-7.717Z"/>
  <path fill="#FFFFFF" fill-opacity=".922" d="m487.64 542.432.541.745c-.818 3.058-3.538 5.633-5.728 7.884l-.48-.506c.359-2.028 4.124-6.149 5.667-8.123Z"/>
  <path fill="#FFFFFF" fill-opacity=".941" d="m451.725 594.146.789.898c-.544 2.493-3 5.314-4.431 8.314l-.248.536-.531-.826c.53-2.704 2.739-6.78 4.421-8.922Z"/>
  <path fill="#FFFFFF" fill-opacity=".937" d="m462.689 576.994.491.508c-.014 1.767-3.513 6.395-4.741 8.342l-.57-.619c.371-3.274 2.744-5.677 4.82-8.231Z"/>
  <path fill="#FFFFFF" fill-opacity=".969" d="m634.789 413.714.341.353c-.207 1.065-6.384 5.308-8.09 6.705l-.502-.524c.742-2.746 5.492-4.901 8.251-6.534Z"/>
  <path fill="#FFFFFF" fill-opacity=".373" d="M530.961 833.666c-.162-3.101-.937-10.885 1.371-13.082.287 2.916-.749 9.898-1.178 13.065l-.193.017Z"/>
  <path fill="#FFFFFF" fill-opacity=".192" d="M553.519 790.467c-.934-3.145-.706-11.849.072-14.927 1.029 1.739.737 4.723.551 6.674l-.063.614c-.47 3.094-.514 4.544-.56 7.639Z"/>
  <path fill="#FFFFFF" fill-opacity=".369" d="m388.599 957.83 1.146.156c.09 3.736-.25 9.92-.894 13.556-.33-5.158-.459-8.459-.252-13.712Z"/>
  <path fill="#FFFFFF" fill-opacity=".906" d="M597.524 441.034c.468.45.256.136.362 1.075-2.096 2.193-4.616 3.668-7.158 5.36-.547-.554-.312-.195-.552-1.161 2.308-2.176 4.683-3.568 7.348-5.274Z"/>
  <path fill="#FFFFFF" fill-opacity=".016" d="m459.116 834.084 1.664.022 1.109 1.584c.437 2.465.251 2.978-.292 5.453l-.469.017c-1.777-2.052-.079-3.641-2.012-7.076Z"/>
  <path fill="#FFFFFF" fill-opacity=".337" d="m504.564 710.025 3.841-.128 2.128.546c-1.257 3.396-.028 6.218-.462 10.082-.133-2.208-.086-3.234-.747-5.314l-.802.156-.253-3.964c-1.323-1.411-1.274-.976-3.705-1.378Z"/>
  <path fill="#FFFFFF" fill-opacity=".259" d="M537.482 861.753c-.553-2.047.738-8.431 2.075-9.993-.015 2.593-.637 7.327-1.616 9.703l-.459.29Z"/>
  <path fill="#FFFFFF" fill-opacity=".42" d="m530.923 871.098.517-5.258.915 1.232-.678 5.788c-.275 2.42-.32 3.591-1.117 5.928-.425-2.459.075-5.158.363-7.69Z"/>
  <path fill="#FFFFFF" fill-opacity=".875" d="M508.604 534.361c.328-3.643.498-5.279 1.369-8.801.046 1.911.152 14.756.482 15.955l-.4.243c-.569-1.251-.477-5.114-.658-6.998l-.793-.399Z"/>
  <path fill="#FFFFFF" fill-opacity=".875" d="M530.34 838.891c.28 1.706.579 3.217.64 4.951-.477 3.402-1.034 6.954-1.429 10.355l-.748-.847c.573-4.813 1.085-9.63 1.537-14.459Z"/>
  <path fill="#FFFFFF" fill-opacity=".059" d="m656.265 885.29.318 1.327c-.836 2.024-5.475 5.593-7.382 7.232-.122-1.327 5.364-6.395 7.064-8.559Z"/>
  <path fill="#FFFFFF" fill-opacity=".22" d="M525.131 837.268c-.006-2.833-.215-5.955.68-8.604l.47-.011c.574 3.061.055 5.754-.455 8.821l-.695-.206Z"/>
  <path fill="#FFFFFF" fill-opacity=".302" d="M689.032 976.705c-.725-2.749-.909-17.933-.034-20.336.441 6.167.14 14.019.034 20.336Z"/>
  <path fill="#FFFFFF" fill-opacity=".282" d="M432.738 744.257c1.554 2.103 1.276 7.322 1.313 10.049-2.153-2.727-1.505-6.597-1.313-10.049Z"/>
  <path fill="#FFFFFF" fill-opacity=".043" d="M656.092 867.664c.296 1.935-3.992 5.308-5.53 6.78l-.151-1.227c1.572-2.487 3.396-3.697 5.681-5.553Z"/>
  <path fill="#FFFFFF" fill-opacity=".635" d="M553.831 811.5c.538 2.694.477 7.746.253 10.556l-.673.563c-.016-3.284-.164-6.401-.324-9.68l.744-1.439Z"/>
  <path fill="#FFFFFF" fill-opacity=".392" d="M580.932 824.136c.051 1.009.53 7.689.497 8.007-.692 2.37-.792 3.061-.993 5.526-.351-3.602.502-7.951-.563-11.147l1.059-2.386Z"/>
  <path fill="#FFFFFF" fill-opacity=".808" d="m523.537 856.751.802 1.087a388.225 388.225 0 0 0-.977 12.145c-.326-2.18-.434-5.403-.581-7.706l.756-5.526Z"/>
  <path fill="#FFFFFF" fill-opacity=".102" d="m347.616 902.453.403-.161c1.739.468 3.681 2.721 5.167 4.12-.733.374-.299.257-1.334.19-1.493-1.166-3.626-2.476-4.236-4.149Z"/>
  <path fill="#FFFFFF" fill-opacity=".235" d="M542.318 886.411c-1.037-3.307.312-8.091 2.05-10.991-.228 4.349-1.683 7.004-2.05 10.991Z"/>
  <path fill="#FFFFFF" fill-opacity=".027" d="M369.572 962.503c1.583-.614 3.696.675 5.193 1.366l.151 1.054-1.952.273c-1.75-.591-1.874-1.645-3.392-2.693Z"/>
  <path fill="#FFFFFF" fill-opacity=".784" d="M579.762 616.92c.719-3.123-.034-4.835 1.349-7.901.608 1.711.346 4.109.295 5.994l-1.644 1.907Z"/>
  <path fill="#FFFFFF" fill-opacity=".894" d="m212.871 566.707 1.764 1.873c.107 2.214.137 2.721-.189 4.89l-.538-.05c-1.014-2.788-.942-3.836-1.037-6.713Z"/>
  <path fill="#FFFFFF" fill-opacity=".949" d="M552.401 477.921c-.365 1.83-4.023 4.881-5.571 5.948l-.118-.897c1.125-2.237 3.6-3.817 5.689-5.051Z"/>
  <path fill="#FFFFFF" fill-opacity=".012" d="M341.722 956.341c2.326-.819 3.574.435 6.474 1.701-2.601.664-4.404-.173-6.474-1.701Z"/>
  <path fill="#FFFFFF" fill-opacity=".318" d="M689.042 955.851c-.775-2.983-.702-11.738-.29-14.967.48 3.223.731 11.749.29 14.967Z"/>
  <path fill="#FFFFFF" fill-opacity=".392" d="M517.771 865.394c.143-3.217.314-5.977.644-9.178.046 2.013.048 7.098.446 8.771l.346 1.288c-.371 1.26-.547 1.757-1.077 2.961l-.359-3.842Z"/>
  <path fill="#FFFFFF" fill-opacity=".875" d="M476.529 664.691c2.771.948 4.914 1.963 6.632 4.36-3.294-1.053-4.827-1.449-6.632-4.36Z"/>
  <path fill="#FFFFFF" fill-opacity=".173" d="m338.261 918.557.531-.295c1.969.022 4.284 2.046 5.648 3.44l-.65.201a304.034 304.034 0 0 1-5.529-3.346Z"/>
  <path fill="#FFFFFF" fill-opacity=".278" d="M624.074 865.874c.256 2.927-1.645 4.55-3.541 6.563l-.535-.374a279.622 279.622 0 0 1 4.076-6.189Z"/>
  <path fill="#FFFFFF" fill-opacity=".012" d="M669.758 863.085c.217.653.122.831.1 1.567a105.816 105.816 0 0 1-4.025 3.692c-.424-2.286 2.28-3.831 3.925-5.259Z"/>
  <path fill="#FFFFFF" fill-opacity=".145" d="m654.191 859.182.156.703c-.519 1.728-2.849 3.68-4.232 5.052l.19-1.723c1.461-2.158 1.806-2.42 3.886-4.032Z"/>
  <path fill="#FFFFFF" fill-opacity=".016" d="M426.343 823.205c1.841 1.678 1.623 2.843 2.36 5.632-3.2-2.164-2.732-2.013-2.36-5.632Z"/>
  <path fill="#FFFFFF" fill-opacity=".188" d="M605.843 823.461c.457 2.381-1.746 5.86-2.911 8.074-.468-2.838 1.483-5.554 2.911-8.074Z"/>
  <path fill="#FFFFFF" fill-opacity=".192" d="M522.137 871.611c.35-2.208.352-6.585.644-9.334.147 2.303.255 5.526.581 7.706l.065 2.504-.773.931-.517-1.807Z"/>
  <path fill="#FFFFFF" fill-opacity=".024" d="m641.942 863.325.151.123c.128 1.36-1.857 3.585-2.849 5.03l-.714-.742c.251-1.589 2.191-3.162 3.412-4.411Z"/>
  <path fill="#FFFFFF" fill-opacity=".808" d="m580.893 862.79.97.864c.212 2.036-.764 3.72-1.572 5.682l-.067-.005-.412-.535 1.081-6.006Z"/>
  <path fill="#FFFFFF" fill-opacity=".914" d="M518.652 851.303c.648 2.727.503 5.476.489 8.281-.082 1.684-.121 3.764-.279 5.403-.399-1.673-.4-6.758-.446-8.771l.236-4.913Z"/>
  <path fill="#FFFFFF" fill-opacity=".478" d="m530.962 833.666.192-.017c.131 2.526.444 7.784-.173 10.193-.061-1.734-.36-3.245-.641-4.951-.341-1.913.176-3.318.622-5.225Z"/>
  <path fill="#FFFFFF" fill-opacity=".212" d="m553.459 891.011.72-.089c1.115 2.81.772 5.046.281 8.041-.879-1.578-.341-5.036-1.001-7.952Z"/>
  <path fill="#FFFFFF" fill-opacity=".027" d="M673.432 848.615c.123 2.231-1.935 3.77-3.423 5.27l-.251-.931c.524-1.517 2.458-3.134 3.674-4.339Z"/>
  <path fill="#FFFFFF" fill-opacity=".176" d="M489.685 780.486c1.062 2.046.918 5.275.848 7.561-1.819-1.913-1.134-5.147-.848-7.561Z"/>
  <path fill="#FFFFFF" fill-opacity=".302" d="M329.252 869.074c2.678.853 4.241 2.214 5.847 4.517l-.853.273-4.994-4.79Z"/>
  <path fill="#FFFFFF" fill-opacity=".106" d="M307.568 897.725c3.308.412 4.239 1.299 6.727 3.513-2.639-.235-4.587-1.963-6.727-3.513Z"/>
  <path fill="#FFFFFF" fill-opacity=".239" d="M456.172 876.374c1.595 1.12 1.771 3.485 2.198 5.453l-.624-.072c-.98-1.16-1.258-3.77-1.574-5.381Z"/>
  <path fill="#FFFFFF" fill-opacity=".635" d="M507.594 708.559c2.144-.14 2.117-.145 4.214.312l.076 1.26-1.351.313-2.128-.547-.811-1.338Z"/>
  <path fill="#FFFFFF" fill-opacity=".082" d="M672.802 837.44c.485 2.259-1.305 3.798-2.743 5.242-.558-1.712 1.672-3.797 2.743-5.242Z"/>
  <path fill="#FFFFFF" fill-opacity=".173" d="m546.211 881.063.755.875c-.256 2.203-.468 2.878-1.764 4.768.271-2.258.427-3.457 1.009-5.643Z"/>
  <path fill="#FFFFFF" fill-opacity=".11" d="M547.981 828.307c1.032 1.416.219 2.76 1.525 5.804l-1.626-1.037c-.82-2.007-.342-2.381.101-4.767Z"/>
  <path fill="#FFFFFF" fill-opacity=".247" d="M356.501 962.782c-1.731-.747-3.381-1.232-4.517-2.699 1.649-.195 2.786.502 4.354 1.16l.163 1.539Z"/>
  <path fill="#FFFFFF" fill-opacity=".106" d="M521.253 812.738c1.298 2.08.636 4.606.271 6.943-.947-2.973-.714-3.937-.271-6.943Z"/>
  <path fill="#FFFFFF" fill-opacity=".18" d="M429.111 832.333c2.371 1.494 2.757 4.427 2.961 7.032-1.098-2.415-1.987-4.573-2.961-7.032Z"/>
  <path fill="#FFFFFF" fill-opacity=".09" d="m319.895 974.358.905.468c-.633 1.182-.465.536-.157 2.041-1.681-.251-1.637-.234-3.176-.953l.264-.792 2.164-.764Z"/>
  <path fill="#FFFFFF" fill-opacity=".204" d="M331.31 986.073c2.248-.161 3.487-.596 4.918.547-1.956.931-3.066.268-4.918-.547Z"/>
  <path fill="#FFFFFF" fill-opacity=".031" d="M559.406 869.699c.519 2.364.067 2.503-.674 4.99-1.16-2.085-.207-2.927.674-4.99Z"/>
  <path fill="#FFFFFF" fill-opacity=".106" d="M553.781 708.542c.784 2.498.59 4.338.121 6.842-1.173-2.052-.504-4.595-.121-6.842Z"/>
  <path fill="#FFFFFF" fill-opacity=".137" d="M350.675 878.593c1.6.613 3.611 2.565 4.991 3.753-3.29-.519-3.19-.87-4.991-3.753Z"/>
  <path fill="#FFFFFF" fill-opacity=".145" d="M340.401 948.507c1.753.245 4.06.708 5.126 2.241l-.3.123c-1.59-.156-3.391-1.489-4.826-2.364Z"/>
  <path fill="#FFFFFF" fill-opacity=".451" d="m531.981 517.306-.034.809c-1.965.067-2.768.282-4.463-.551 1.374-.843 2.799-.432 4.497-.258Z"/>
  <path fill="#FFFFFF" fill-opacity=".145" d="M527.379 811.623c1.221 1.84.738 4.026.229 6.017-.713-2.482-.457-3.469-.229-6.017Z"/>
  <path fill="#FFFFFF" fill-opacity=".067" d="m661.183 850.74.462.429c-.1 1.69-.529 1.528-2.107 3.151l-.257-.262c-.089-1.545.575-1.701 1.902-3.318Z"/>
  <path fill="#FFFFFF" fill-opacity=".612" d="M579.873 826.523c-.106-3.725-.156-5.013.424-8.671.033 1.868-.112 4.271.563 5.938l.072.346-1.059 2.387Z"/>
  <path fill="#FFFFFF" fill-opacity=".024" d="M390.456 849.747c2.034 1.428 1.962.875 2.357 2.688l-.444.022c-1.744-.926-1.175-.351-1.913-2.71Z"/>
  <path fill="#FFFFFF" fill-opacity=".012" d="M285.932 811.646c1.159 1.026.785.819 1.028 2.866-1.618-.82-1.883-.575-2.424-1.852l1.396-1.014Z"/>
  <path fill="#FFFFFF" fill-opacity=".667" d="M634.555 941.854c1.595.586 1.177.079 1.829 1.199l-2.185 1.484c-1.16-.235-.787-.034-1.662-.848l2.018-1.835Z"/>
  <path fill="#FFFFFF" fill-opacity=".239" d="M622.574 832.327c.234.218.462.708.641 1.021l-.836 2.782-.564-.15c-.54-1.489-.022-1.684.759-3.653Z"/>
  <path fill="#FFFFFF" fill-opacity=".243" d="m515.2 863.554-.343 4.79c-.24.39-.057.161-.688.546l-.189-2.676 1.22-2.66Z"/>
  <path fill="#FFFFFF" fill-opacity=".055" d="m356.338 961.243 1.306-.625c.319 1.55.337.781-.192 2.381l-.951-.217-.163-1.539Z"/>
  <path fill="#FFFFFF" fill-opacity=".373" d="m451.45 724.328 1.455 3.692-.515 1.02c-.915-1.204-.775-2.967-.94-4.712Z"/>
  <path fill="#FFFFFF" fill-opacity=".714" d="m415.699 1054.34.459.52c-1.903 3.65-4.722 7.88-6.948 11.42l-.192-.03-.317-.59c1.33-3.35 4.599-8.7 6.998-11.32Z"/>
  <path fill="#FFFFFF" fill-opacity=".973" d="M64.743 664c.68.239 1.417.278 2.119.111-1.036 6.558 1.672 33.831 2.413 41.18a467.959 467.959 0 0 0 89.117 229.532c30.435 41.955 65.714 74.357 107.405 104.567 2.994-3.4 23.246-17.25 27.982-19.87-61.896-39.274-119.9-106.411-151.368-172.511-4.555-9.568-11.664-24.089-14.491-33.864l1.782-1.226A441.237 441.237 0 0 0 265.6 996.401c4.675 3.659 27.411 21.639 31.449 20.989l1.052 1.58c1.588 2.87 31.6 19.24 35.868 21.44 106.799 55.17 236.928 58.51 344.642 3.96 13.359-6.77 30.742-15.44 42.462-24.72-18.237-11.81-42.796-22.697-62.795-31.273-6.991-3-15.599-5.186-22.825-8.381l-.602-.268c2.592.268 2.871.636 5.782.552l-.012-.675-2.174-1.628c4.003.892 11.92 4.383 16.157 5.944 13.643 5.019 26.672 11.381 39.646 17.879 9.846 4.94 19.368 11.42 28.885 16.29 5.224-1.98 24.615-16.46 29.984-20.619 43.61-33.791 79.052-76.393 107.112-123.735 8.486-14.314 13.86-27.134 21.281-41.537l1.779 1.366c-2.554 6.859-10.933 23.298-14.591 30.078-23.31 43.188-56.918 87.072-94.272 119.336a467.553 467.553 0 0 1-29.884 23.881c-5.72 4.19-12.918 8.56-18.186 13.06 6.991 6.69 19.792 12.4 27.33 19.91 4.672-4.41 14.969-10.9 20.517-15.41 13.866-11.3 27.988-23.07 40.61-35.753a464.222 464.222 0 0 0 128.46-241.939c6.01-30.703 8.575-50.827 8.452-82.31a3.89 3.89 0 0 0 1.622.028c.486 26.598-3.272 55.321-8.385 81.323a467.614 467.614 0 0 1-126.101 240.7c-44.831 46.451-97.969 79.731-157.507 103.741l-1.249-.81c2.241-.65 9.969-3.96 12.511-4.99a397.275 397.275 0 0 0 79.854-44.18c-1.672-1.38-27.218-19.1-28.361-18.57-6.289 2.95-15.499 8.97-21.638 12.48a389.234 389.234 0 0 1-106.878 41.46c-106.029 23.66-209.175 2.89-300.474-55.14-6.945 6.04-20.034 12.15-28.261 19.23 18.53 13.99 50.003 32 71.539 40.79l-1.043 1.05c-8.73-4.35-17.65-8.22-26.251-12.78a455.126 455.126 0 0 1-84.491-57.88A474.102 474.102 0 0 1 72.07 742.127c-3.15-17.041-5.356-37.171-6.631-54.473-.58-7.874-.146-16.11-.696-23.654Z"/>
  <path fill="#FFFFFF" fill-opacity=".165" d="m474.815 876.413.757.206c.628 2.849 1.467 6.206 1.791 9.05l-.537-.1c-1.104-1.629-2.041-7.049-2.011-9.156Z"/>
  <path fill="#FFFFFF" fill-opacity=".973" d="M166.161 427.518c122.045-191.805 357.008-264.904 554.716-138.624a432.207 432.207 0 0 1 150.159 166.927c4.923 9.604 9.684 20.322 14.083 30.202 2.409 5.408 4.265 11.513 6.735 16.862-1.338.43-1.332.304-2.459 1.065-3.434-10.443-10.052-25.35-14.702-35.355a427.08 427.08 0 0 0-134.614-164.926 382.868 382.868 0 0 0-287.577-70.438c-107.438 16.93-206.001 83.383-268.202 171.6-5.336 7.567-10.351 15.408-15.792 22.881l-2.347-.194Z"/>
  <path fill="#FFFFFF" fill-opacity=".969" d="M488.155 188.985c2.838-.701 7.333-.843 10.257-.581-.359 1.35-.063 1.922.304 3.266 1.428 1.139 1.872 1.02 3.683 1.13a492.411 492.411 0 0 0-61.711 6.736c-98.751 18.118-184.846 69.824-251.521 144.295A475.212 475.212 0 0 0 69.431 611.477c-1.156 11.398-3.485 33.697-2.998 45.223a3.728 3.728 0 0 0-1.695.19c.539-27.725 2.635-56.08 7.876-83.358 32.136-167.28 156.142-313.072 320.168-364.279a424.784 424.784 0 0 1 64.212-14.399c6.655-.989 31.618-2.288 35.387-3.769l-.149-.382c-2.073-.553-2.234-.634-4.077-1.718Z"/>
  <path fill="#FFFFFF" fill-opacity=".945" d="M524.93 188.486c6.627.07 4.854 1.169 7.974 2.437 5.131 2.087 15.738 1.993 22.432 2.687 200.191 20.76 359.27 189.032 391.178 384.249 4.181 25.583 7.677 53.47 6.891 79.048a3.864 3.864 0 0 0-2.147.161c.502-3.529.067-9 .101-12.658.133-15.2-1.69-30.089-3.669-45.116a482.269 482.269 0 0 0-103.36-243.421c-57.955-72.19-142.855-129.059-233.253-150.789a488.203 488.203 0 0 0-59.846-10.36c-9.524-.999-18.973-1.212-28.407-2.238 1.523-1.402 1.48-1.329 2.438-3.157l-.332-.843Z"/>
  <path fill="#FFFFFF" d="m166.161 427.518 2.347.194c-2.304 4.612-4.867 8.357-7.418 12.779a797.976 797.976 0 0 0-12.657 23.155c-24.204 46.707-39.109 99.47-45.09 151.562-.3 2.615-1.951 25.656-2.338 26.409-.72 1.701-1.527 3.769-2.323 5.398.749-13.194 1.004-26.805 2.734-39.948 8.83-67.119 29.752-122.354 64.745-179.549Z"/>
  <path fill="#FFFFFF" d="M101 666.269c-.918 8.716 1.063 25.031 1.942 34.137 2.466 25.534 7.603 49.773 14.379 74.448 3.562 12.976 8.733 24.769 12.381 37.065l-1.782 1.226c-17.727-42.786-29.408-98.737-29.379-145.17l2.459-1.706Z"/>
  <path fill="#FFFFFF" fill-opacity=".965" d="M629.392 800.565c.653.129 1.26.145 1.734.469l.753 4.907.691.217 1.907-1.371.892.267c.229 1.339-.134 1.874-.641 3.134 2.319 3.418 10.124 1.165 12.115 2.292-2.654 2.024-9.601-.625-12.756 2.37.273.875.574 1.751.903 2.609l-.58.341-1.823-.776c-2.096 1.712-1.617 17.309-1.656 21.023l-.095 41.681-.05 61.366c-.045 11.482-.413 24.128-.078 35.493l-.686-.051-.044.106c-.998-4.695-.458-38.353-.547-45.172-.502-38.777.786-78.005-.758-116.754-.992 1.561-2.369 4.182-4.092 4.584.256-2.019 1.628-3.541 2.838-5.281-5.141-.123-8.865-.524-13.978-1.021.837-1.21 11.435-.959 13.141-2.659-.853-1.445-1.232-1.852-2.297-3.073l.363-.652c1.265.518 2.481.959 3.763 1.427 1.037-1.21.831-3.535.981-5.476Z"/>
  <path fill="#FFFFFF" fill-opacity=".988" d="m525.848 956.113 5.185.195c7.035.323 14.372 1.478 20.825 1.745 19.758 2.225 38.295 6.391 57.592 11.197 3.267.809 18.749 6.095 20.528 5.392l.044-.106.686.051c1.556 2.247 4.878 2.654 7.739 3.39l2.174 1.628.011.675c-2.91.084-3.189-.284-5.782-.552-38.324-12.296-69.635-17.454-109.827-20.849l-3.064-1.88 3.889-.886Z"/>
  <path fill="#FFFFFF" d="m895.088 520.999 2.598-1.826.156.742c1.076 4.903 2.922 9.376 4.327 14.199a744.937 744.937 0 0 1 6.472 24.524c6.066 24.423 11.826 69.78 11.29 94.817l-2.241 1.254c-.017-36.68-9.01-99.641-22.602-133.71Z"/>
  <path fill="#FFFFFF" d="M328.533 999.557c6.97-2.939 13.799-6.647 20.724-9.468 16.64-6.781 33.61-13.64 51.045-18.045 3.353-.848 6.648-1.834 9.933-2.911 1.647 1.59 1.85 1.528 4.209 1.935-26.961 6.145-55.745 17.582-80.737 29.262-12.442 5.82-23.608 12.46-35.607 18.64l-1.052-1.58a450.847 450.847 0 0 1 16.054-9.3c3.232-1.75 12.526-6.39 14.737-8.238l.694-.295Z"/>
  <path fill="#FFFFFF" fill-opacity=".925" d="M338.399 1080.48c40.173 18.33 89.921 30.83 133.66 34.48 4.667.39 16.758 1.99 20.502 2.02 4.96.69 32.291.91 36.665-.01 6.934-.93 13.922-1.18 20.898-1.85 15.856-1.51 30.229-3.3 45.706-6.83l1.142.88c-13.113 3.55-37.499 6.28-51.208 7.45-74.625 6.35-139.711-6.28-208.409-35.09l1.044-1.05Z"/>
  <path fill="#FFFFFF" d="M410.235 969.133c30.409-7.227 51.278-12.491 83.044-12.92 2.217.15 3.858.045 5.788 1.087l-.189.881-2.214 1.132c-2.07-.206-6.938-.758-8.7.168-19.573 1.327-55.212 6.462-73.52 11.587-2.358-.407-2.561-.346-4.209-1.935Z"/>
  <path fill="#FFFFFF" fill-opacity=".945" d="m520.237 962.113.186-.882 1.128.062c9.839 1.494 30.309 8.849 40.069 12.507 43.899 16.439 83.194 35.8 121.491 62.79l-.335.14c-7.867-3.55-6.919-4.47-13.029-8.36a610.908 610.908 0 0 0-23.807-14.1 626.316 626.316 0 0 0-103.82-45.366c-6.724-2.197-15.113-5.119-21.883-6.791Z"/>
  <path fill="#FFFFFF" d="m917.589 667.167 1.946.741c.078 23.632-3.585 66.764-10.777 89.626-1.338 1.584-.485 1.355-1.789 2.587l-.77-2.353c1.093-3.217 2.353-10.031 3.078-13.556 5.157-25.07 7.526-51.473 8.312-77.045Z"/>
  <path fill="#FFFFFF" fill-opacity=".976" d="M507.433 178.052c.916-.076 2.956-.311 3.77-.234.223 2.339.197 4.254 1.223 6.337l.949.299c2.387-1.444 3.769-4.22 4.942-3.998-1.089 2.23-3.083 4.222-4.756 6.124 4.302.933 7.021 1.508 11.37 1.906l.331.843c-.957 1.828-.914 1.755-2.437 3.157-2.404.04-4.784-.226-6.754.95-1.064 2.971 3.006 6.055 5.128 8.13-5.08-3.847-4.476-3.954-8.736-8.057-3.254.735-3.869-.028-7.057-.149l-.969-.032-2.037-.528c-1.812-.11-2.255.009-3.683-1.13-.368-1.344-.663-1.916-.305-3.266 2.612-.553 4.195-1.631 6.485-2.939-2.056-1.841-4.093-3.992-5.657-6.266 2.983.979 2.971 4.373 6.532 4.576 1.382-1.426 1.373-3.658 1.661-5.723Z"/>
  <path fill="#FFFFFF" d="M881.512 832.199c6.601-17.186 13.386-33.97 18.822-51.619 2.297-7.455 3.535-15.245 5.865-22.812l.769 2.354c1.305-1.233.452-1.004 1.79-2.588-3.356 22.048-16.726 55.589-25.468 76.031l-1.778-1.366Z"/>
  <path fill="#FFFFFF" fill-opacity=".949" d="m484.598 964.182 1.625 1.304c-34.682 9.591-73.887 26.76-105.756 43.284-6.422 3.33-21.243 11.57-27.005 15.63l-.642-.8c6.184-4.59 17.983-10.81 24.997-14.66 34.823-19.153 69.121-32.809 106.781-44.758Z"/>
  <path fill="#FFFFFF" fill-opacity=".914" d="m517.202 964.756.814-1.623a358.721 358.721 0 0 1 77.707 84.167c2.704 4.06 8.999 12.88 9.673 17.24a361.19 361.19 0 0 0-61.824-77.117c-6.44-6.072-13.599-11.883-20.241-17.766-1.659-1.472-4.9-3.713-6.129-4.901Z"/>
  <path fill="#FFFFFF" fill-opacity=".937" d="m498.491 964.36 1.461 1.031c-31.98 24.195-57.113 51.109-80.145 83.789-1.09 1.55-1.192 3.18-2.722 4.4.386-7.27 34.335-46.37 41.101-53.722 11.26-12.229 27.119-25.26 40.305-35.498Z"/>
  <path fill="#FFFFFF" d="M98.541 667.975a33.04 33.04 0 0 1-1.691.145c-2.573.14-4.509-.123-6.452-2.002a7.283 7.283 0 0 1-2.224-5.213 7.44 7.44 0 0 1 2.581-5.621c2.584-2.253 4.283-1.868 7.46-1.539.916.669 1.794 1.305 2.684 2.013 2.016 4.472 1.848 5.916.101 10.511l-2.459 1.706Z"/>
  <path fill="#FFFFFF" d="M919.931 653.455c3.028-.123 4.717-.268 7.048 1.935a7.524 7.524 0 0 1 2.363 5.805 7.284 7.284 0 0 1-2.888 5.459c-2.023 1.55-4.476 1.45-6.918 1.254l-1.946-.741c-3.78-5.337-3.217-7.389.1-12.457l2.241-1.255Z"/>
  <path fill="#FFFFFF" fill-opacity=".922" d="m630.128 645.353.374 5.537c-.424 11.615-.067 25.098-.011 36.864l.429 76.064c.067 12.313.485 24.92.206 37.216-.474-.324-1.081-.34-1.734-.469-.49-8.52.006-22.511.034-31.421l.162-68.459c.836-2.939.663-11.431.657-14.877.051-5.125.14-9.909-.184-15.039.34-7.595.218-17.872.067-25.416Z"/>
  <path fill="#FFFFFF" fill-opacity=".957" d="M514.562 966.328c10.825 21.507 19.874 47.932 27.655 70.742 2.458 7.2 3.844 15.63 6.321 22.7l-.899.73c-5.022-21.04-12.473-40.15-20.366-60.21-4.327-10.988-9.483-21.683-13.349-32.735l.638-1.227Z"/>
  <path fill="#FFFFFF" fill-opacity=".984" d="M509.883 965.765c1.165 22.946.07 49.715-.151 72.835l-1.283-4.06c.11-22.35-.49-45.266-.459-67.81.276 1.807.371 2.275.958 3.992.726-.942.772-3.524.935-4.957Z"/>
  <path fill="#FFFFFF" fill-opacity=".776" d="M517.318 957.49c.931-.362 3.488-.418 4.641-.49l3.064 1.879-2.904.423c-.812 1.166-.551.536-.569 1.991l-1.127-.061-.186.881-1.74.184-.481.836-.814 1.623c-1.68-1.338-1.224-1.428-2.864-1.366-.449 1.84-.408.892.224 2.938l-.638 1.227c-1.289-2.002-.905-2.18-2.624-2.693l-1.417.903c-.163 1.433-.209 4.015-.935 4.957-.587-1.717-.681-2.185-.957-3.992l-.207-3.441-.51-.384c-3.358.217-4.852-1.818-9.064-.524l-3.004.535 1.423-1.221-.025-.53-1.772.128-.045-.976c-1.527-1.221-4.632-.842-6.823-.836 1.762-.926 6.629-.374 8.7-.167 3.613 1.36 15.191.58 19.133-.251 1.168-.251 1.101-.675 1.521-1.573Z"/>
  <path fill="#FFFFFF" fill-opacity=".945" d="m503.947 965.274 1.539.352c-2.844 5.47-4.515 10.55-7.001 15.936-6.956 15.051-12.402 29.668-18.02 45.208-1.146 3.17-5.219 16.65-6.052 18.19l-.788-.49c2.075-3.77 3.157-11.94 4.898-16.34 6.144-15.55 10.82-30.971 18.009-46.172 2.592-5.481 4.454-11.225 7.415-16.684Z"/>
  <path fill="#FFFFFF" fill-opacity=".255" d="m507.674 933.741 1.039-1.806.842.078c1.767 3.156 1.673 12.602 2.136 16.762 5.294 3.752 6.479 4.488 12.541 7.154-4.08-.335-8.334-1.088-12.353-1.84-.671-2.85-1.354-5.242-2.194-8.041-4.331 7.483-1.643 7.093-10.772 9.764l-1.994.05c3.893-2.894 5.093-1.166 6.254-6.201l1.321-.753c.629.407 1.092.675 1.736 1.043l.703-.608c.978-3.005.915-8.871 1.107-12.362-.017-.786-.263-2.387-.366-3.24Z"/>
  <path fill="#FFFFFF" fill-opacity=".459" d="M453.552 882.346c.987 2.42 2.869 3.842 4.804 5.687l-.837.965c-1.279 1.645-1.296 3.045-1.65 5.119-3.34 1.639-7.888-1.121-9.688-3.976-.043-1.801 2.607-5.247 3.748-6.953l1.238.546 1.152-.831.595.485.638-1.042Z"/>
  <path fill="#FFFFFF" fill-opacity=".949" d="m327.222 812.147 1.055.942c2.092 1.779 2.038 1.149 2.388 3.246-3.498 9.145-2.81 9.814-2.646 19.494.124 8.331.195 16.662.214 24.992.002 1.238.116 8.761.028 9.301-.619 3.123-.532 4.043-.394 7.116l-.692.094c.03-19.366-.21-38.553.059-57.908-.679-1.545-1.425-1.762-2.81-2.548l.138-.932c1.669-1.371 2.016-1.728 2.66-3.797Z"/>
  <path fill="#FFFFFF" fill-opacity=".933" d="m660.107 1089.4 1.249.81c-15.611 6.34-31.785 10.95-48.048 15.23-2.743.72-6.161 1.34-8.759 2.26l-.908-.81c5.324-2.07 11.881-2.89 17.539-4.59 13.002-3.9 26.271-7.99 38.927-12.9Z"/>
  <path fill="#FFFFFF" fill-opacity=".596" d="m498.913 955.812.941.056c4.012.206 5.495-.123 9.303-1.411.57-.195 2.564 2.141 2.608 2.158 1.609.647 3.903.775 5.553.875-.42.898-.353 1.322-1.521 1.573-3.941.831-15.519 1.611-19.133.251l2.214-1.132.19-.881c-1.931-1.043-3.571-.937-5.789-1.088l3.64-.351 1.994-.05Z"/>
  <path fill="#FFFFFF" d="m504.437 193.328.969.032c3.187.121 3.803.884 7.056.149-1.608 3.712-1.174 9.237-2.328 13.782l-.912 3.652-.699.231c-.597-5.979-1.019-12.11-2.467-17.927-1.123 1.268-4.652 5.503-5.943 5.98l-.383.584c.38-1.307 3.656-5.161 4.707-6.483Z"/>
  <path fill="#FFFFFF" fill-opacity=".49" d="M498.913 955.812c9.13-2.671 6.441-2.281 10.772-9.764.84 2.799 1.524 5.191 2.195 8.041 4.018.752 8.273 1.505 12.352 1.84l1.616.184-3.888.886c-1.153.073-3.71.129-4.642.491-1.65-.1-3.944-.228-5.553-.875-.044-.017-2.038-2.353-2.608-2.158-3.808 1.288-5.291 1.617-9.303 1.41l-.941-.055Z"/>
  <path fill="#FFFFFF" fill-opacity=".878" d="m327.174 877.333.693-.095.626.457c-.805 12.251.453 26.041-.256 38.593-.622 1.756-.39 8.565-.263 10.762l-.944.295c-.418-15.507.052-34.243.144-50.012Z"/>
  <path fill="#FFFFFF" fill-opacity=".173" d="M504.297 869.744c-.626-4.394-1.606-38.671-.291-41.928l.526.039c1.845 9.491-.681 25.946.861 36.619-.205 1.601-.325 3.942-1.096 5.27Z"/>
  <path fill="#FFFFFF" fill-opacity=".914" d="m451.661 840.764 1.043 4.244c1.405 11.509-1.268 25.215.848 37.338l-.638 1.042-.595-.485c-1.472-10.371-.565-22.455-.433-32.972.046-3.708-.823-5.386-.225-9.167Z"/>
  <path fill="#FFFFFF" d="M951.259 657.068a3.848 3.848 0 1 1 2.695 7.205 3.848 3.848 0 0 1-2.695-7.205Z"/>
  <path fill="#FFFFFF" fill-opacity=".89" d="m508.45 1034.54 1.283 4.06c-.034 7.04-.029 14.08.012 21.11.013 5.34.146 10.69-.388 15.99l-.835-5.14c.534-10.28-.094-25.23-.072-36.02Z"/>
  <path fill="#FFFFFF" d="M66.433 656.7a3.769 3.769 0 1 1-.88 7.485 3.769 3.769 0 0 1 .88-7.485Z"/>
  <path fill="#FFFFFF" fill-opacity=".847" d="M497.767 823.807c.035-2.967.035-4.216.602-7.21.308 6.981.86 31.739 1.885 37.176-.094 2.816-.083 4.773.064 7.6l-.902.274-.377-4.082c.092-9.58-.855-23.972-1.272-33.758Z"/>
  <path fill="#FFFFFF" fill-opacity=".557" d="m481.84 870.396-.068-.965c-.273-3.658-3.939-24.546-3.428-25.773 2.139 5.197 4.32 23.621 5.294 30.223.842 3.775 1.138 5.309 1.265 9.123-.923-2.069-2.136-9.307-3.063-12.608Z"/>
  <path fill="#FFFFFF" fill-opacity=".792" d="M489.611 859.193c-.216-5.241-2.504-23.514-1.845-26.988.935 1.12 1.452 11.269 1.666 13.572.837 7.662 2.602 21.931 2.655 29.314l-.106.067c-.051-2.71-1.813-13.021-2.37-15.965Z"/>
  <path fill="#FFFFFF" fill-opacity=".988" d="M507.433 178.052a739.62 739.62 0 0 0 1.471-16.825l.574-.129-.075-.061c.766 5.664 1.258 11.099 1.799 16.781-.814-.077-2.853.158-3.769.234Z"/>
  <path fill="#FFFFFF" fill-opacity=".486" d="M474.414 1044.96c-1.314 6.26-3.702 12.71-5.275 19.02-1.033 4.15-1.464 8.52-2.729 12.33l-.25-.14c-.73-2.54 6.037-29.45 7.465-31.7l.789.49Z"/>
  <path fill="#FFFFFF" fill-opacity=".016" d="M497.353 808.98c-.714-4.768-.999-11.008-.72-15.798l.515-.407c2.122 2.51 1.559 17.632 1.273 21.385l-1.068-5.18Z"/>
  <path fill="#FFFFFF" fill-opacity=".953" d="M470.172 814.444c.505 3.452.052 11.811.696 13.511.448 3.842 1.735 10.562.995 13.946l-1.371-3.747c-1.755-5.715-1.183-17.754-.32-23.71Z"/>
  <path fill="#FFFFFF" fill-opacity=".863" d="m327.974 927.05.434.206-.08 23.448c-.262 1.829-.507 3.245-.529 5.085l-.645-.172c.035-9.268.108-19.049-.124-28.272l.944-.295Z"/>
  <path fill="#FFFFFF" fill-opacity=".71" d="m327.29 780.447.929 4.411c.435 7.21.324 20.871.058 28.232l-1.056-.943c.48-9.764-.185-21.518.069-31.7Z"/>
  <path fill="#FFFFFF" fill-opacity=".867" d="M487.078 873.563c-.536-4.427-3.641-29.364-3.429-32.269 1.122 1.74 2.495 16.372 2.879 19.773.564 5.437 1.517 12.77 1.561 18.033-.759-1.488-.828-3.803-1.011-5.537Z"/>
  <path fill="#FFFFFF" fill-opacity=".965" d="m327.154 955.616.646.173.621 1.506-.119 1.014c-.972 3.742-.489 20.086-.4 24.614.017 3.624.233 13.606-.284 16.483-1.228-3.669-.552-37.65-.464-43.79Z"/>
  <path fill="#FFFFFF" fill-opacity=".98" d="M470.286 777.285c1.033-3.976-.486-9.006.73-13.561.252 8.754-.56 19.349.181 27.312.08 2.264.468 2.665-.427 4.366l-.664.195c-.692-5.643-1.169-12.853.18-18.312Z"/>
  <path fill="#FFFFFF" fill-opacity=".686" d="M477.409 869.359c-1.016-6.089-2.16-11.944-2.609-18.106 1.396 2.426 3.55 17.972 4.071 21.34.533 3.351 1.386 7.21 1.458 10.517-1.509-4.512-2.133-9.067-2.92-13.751Z"/>
  <path fill="#FFFFFF" d="M894.017 508.796c.708 2.028 3.295 8.783 3.668 10.377l-2.598 1.826c-.914-3.424-1.979-6.501-3.116-9.857l2.046-2.346Z"/>
  <path fill="#FFFFFF" fill-opacity=".804" d="M353.462 1024.4c-6.008 3.37-12.715 8.17-18.779 11.94l-.694-.18-.245.17c6.842-5.65 11.347-8.55 19.076-12.73l.642.8Z"/>
  <path fill="#FFFFFF" fill-opacity=".918" d="m451.43 785.064.724-2.342c.154 3.318 1.014 24.133.614 25.522l-.812-.43c.412-5.046-1.693-12.953-.901-18.183.319-2.108.345-2.315.375-4.567Z"/>
  <path fill="#FFFFFF" fill-opacity=".976" d="m469.553 849.318 1.216 1.221c-.136 3.92.547 8.593 1.355 12.435l-1.66 6.596c-.138-3.691-1.789-18.668-.911-20.252Z"/>
  <path fill="#FFFFFF" fill-opacity=".208" d="M630.128 645.353c-.279-2.733-.569-14.939.602-16.941l-.212.619c1.076 2.376.747 19.032-.016 21.859l-.374-5.537Z"/>
  <path fill="#FFFFFF" d="M98.682 647.014c.796-1.628 1.603-3.697 2.324-5.397-.051 3.535-.377 10.907-.107 14.141-.89-.708-1.768-1.344-2.684-2.013.509-1.69.418-4.824.467-6.731Z"/>
  <path fill="#FFFFFF" fill-opacity=".667" d="M498.21 962.38c4.212-1.293 5.706.742 9.064.524l.51.385c-.978.87-1.581 1.26-2.298 2.337l-1.54-.352-.791-1.338c-1.693-.212-1.318.028-3.203 1.455l-1.461-1.031-.281-1.98Z"/>
  <path fill="#FFFFFF" fill-opacity=".824" d="M451.721 769.216c-.269-3.396-1.115-12.055-.568-14.855 1.256 5.287 2.51 15.714 1.431 20.956-.434-1.841-.631-4.177-.863-6.101Z"/>
  <path fill="#FFFFFF" fill-opacity=".89" d="M452.192 816.909c-.291 6.524 1.536 11.939.995 17.587l-.033.38-.94-2.889c-.146-5.799-2.172-7.221-1.073-14.174l1.051-.904Z"/>
  <path fill="#FFFFFF" fill-opacity=".18" d="M470.589 739.668c.263 1.416.619 3.708 1.048 4.985.156 5.604-.98 10.5-.502 15.569l-1.137-2.342.591-18.212Z"/>
  <path fill="#FFFFFF" fill-opacity=".875" d="m468.192 871.071.504-.09c.457.58.888 1.266 1.442 1.651.773 2.955 1.756 9.485 1.784 12.474l-.499.1-.495-1.935c-1.039-3.089-1.674-8.319-2.736-12.2Z"/>
  <path fill="#FFFFFF" fill-opacity=".49" d="M492.561 1116.99c12.221-.17 24.443-.17 36.665-.02-4.375.92-31.706.7-36.665.02Z"/>
  <path fill="#FFFFFF" fill-opacity=".878" d="m494.833 961.293 1.772-.128.025.529-1.423 1.221c-3.386.625-5.762 1.222-8.984 2.571l-1.624-1.305c1.188-.178 8.281-2.375 10.234-2.888Z"/>
  <path fill="#FFFFFF" d="M889.396 503.95c1.126-.761 1.12-.635 2.458-1.065l2.163 5.911-2.046 2.347-2.575-7.193Z"/>
  <path fill="#FFFFFF" fill-opacity=".286" d="M509.746 1059.71c1.304 5.91.288 16.81-.64 22.74-.541-4.6-.887-7.3-.584-11.89l.835 5.14c.534-5.3.402-10.65.389-15.99Z"/>
  <path fill="#FFFFFF" fill-opacity=".047" d="M468.192 871.07c-.933-2.08-2.485-5.459-.924-7.555l1.342-.039c2.065 3.078.068 4.198.086 7.505l-.504.089Z"/>
  <path fill="#FFFFFF" fill-opacity=".933" d="M510.134 207.292c.026 2.954.46 11.397-1.322 13.401l-.335-1.485 1.033-.009-1.073-.58c-.022-2.068-.164-5.504.086-7.445l.699-.231.912-3.651Z"/>
  <path fill="#FFFFFF" fill-opacity=".027" d="m472.865 866.705.916.289.448 1.473c.754.329 1.507.663 2.256.998l.488 2.091.145 1.517-.512.184-2.416-2.303.547 1.104-1.496-1.322c-.47-1.595-.959-2.504-.376-4.031Z"/>
  <path fill="#FFFFFF" fill-opacity=".784" d="m495.321 938.08.279-.118c2.891 3.614 5.871 7.467 8.894 10.946l-1.321.753c-1.934-2.754-7.099-8.933-7.852-11.581Z"/>
  <path fill="#FFFFFF" fill-opacity=".733" d="M494.601 845.331c.63 5.42 1.057 10.862 1.279 16.316l-.836.58c-.135-3.736-.651-8.342-.971-12.128l.528-4.768Z"/>
  <path fill="#FFFFFF" fill-opacity=".525" d="m469.997 757.88 1.138 2.342-.119 3.502c-1.216 4.555.303 9.585-.73 13.561-.471-6.507-.337-12.887-.289-19.405Z"/>
  <path fill="#FFFFFF" fill-opacity=".557" d="M328.301 958.31c.229 8.146.103 16.566.077 24.741l-.476-.128c-.09-4.528-.572-20.872.399-24.613Z"/>
  <path fill="#FFFFFF" fill-opacity=".388" d="M451.722 769.216c.232 1.924.428 4.261.863 6.101-.187 2.464-.33 4.935-.431 7.405l-.724 2.342c-.587-1.93.156-13.64.292-15.848Z"/>
  <path fill="#FFFFFF" fill-opacity=".808" d="m470.493 838.154 1.371 3.747c-.523 2.973-.637 6.079-1.094 8.638l-1.216-1.221c.64-2.086.895-8.721.939-11.164Z"/>
  <path fill="#FFFFFF" fill-opacity=".812" d="M471.198 791.036c.83 3.557.646 9.769.366 13.5-.906-1.311-.98-3.38-1.198-5.041l-.26-3.898.664-.195c.896-1.701.508-2.102.428-4.366Z"/>
  <path fill="#FFFFFF" fill-opacity=".639" d="M470.085 812.766c.234-1.478.331-3.19 1.101-4.405-.013 2.883.056 17.76-.317 19.595-.644-1.701-.191-10.06-.696-13.512l-.088-1.678Z"/>
  <path fill="#FFFFFF" fill-opacity=".333" d="m327.261 771.112 1.275-.463c-.194 4.824-.385 9.368-.317 14.208l-.929-4.41c.12-2.85-.003-6.43-.029-9.335Z"/>
  <path fill="#FFFFFF" fill-opacity=".929" d="M493.474 842.905c-.02-1.6-.411-6.435.431-7.327l.049.256-.087-.903-.213 1.316.052-.323c.934 1.438.898 7.41.895 9.407l-.528 4.767c-.112-2.542-.324-4.684-.599-7.193Z"/>
  <path fill="#FFFFFF" fill-opacity=".514" d="M630.061 670.769c.324 5.13.234 9.914.184 15.039l-.752-.156c-.106-3.97-.424-11.231.568-14.883Z"/>
  <path fill="#FFFFFF" fill-opacity=".514" d="m262.308 1040.92.555.62c-1.81 2.22-4.982 4.24-7.477 5.6l-.173-.14-.043-.63c2.407-1.78 4.786-3.6 7.138-5.45Z"/>
  <path fill="#FFFFFF" fill-opacity=".529" d="M470.496 734.343c-.479-4.065-.825-5.972-.327-9.998 1.352 3.948.623 7.338 1.467 10.115l-1.14-.117Z"/>
  <path fill="#FFFFFF" fill-opacity=".612" d="m629.493 685.652.752.156c.006 3.446.179 11.939-.657 14.877-.296-4.5-.112-10.422-.095-15.033Z"/>
  <path fill="#FFFFFF" fill-opacity=".4" d="M470.366 799.495c.219 1.661.293 3.73 1.199 5.041.03 1.488.176 2.431-.379 3.825-.77 1.215-.867 2.927-1.101 4.405.046-4.422.139-8.849.281-13.271Z"/>
  <path fill="#FFFFFF" fill-opacity=".69" d="m470.497 734.343 1.14.117c.247 3.39.247 6.797 0 10.193-.429-1.277-.785-3.569-1.048-4.985l-.092-5.325Z"/>
  <path fill="#FFFFFF" fill-opacity=".502" d="m452.214 831.987.94 2.889c-.896 3.881-.35 6.323-.449 10.132l-1.044-4.244c.317-1.745.455-6.747.553-8.777Z"/>
  <path fill="#FFFFFF" fill-opacity=".608" d="m497.353 808.98 1.067 5.18-.051 2.437c-.568 2.994-.568 4.243-.603 7.21-.704-3.887-.452-10.667-.413-14.827Z"/>
  <path fill="#FFFFFF" fill-opacity=".573" d="m495.88 861.647.627 1.846c-.123 1.7-.254 2.654-.032 4.371-.191 1.517-.26 2.588-.761 4.049-.325-3.101-.473-6.547-.67-9.686l.836-.58Z"/>
  <path fill="#FFFFFF" fill-opacity=".38" d="m327.902 982.923.476.128c-.005 5.504.046 11.002.155 16.506l-.694.295-.222-.446c.518-2.877.302-12.859.285-16.483Z"/>
  <path fill="#FFFFFF" fill-opacity=".345" d="m548.941 1065.17.812-1.12c.634 2.55 1.602 5.5 1.405 8.04-1.022-.62-1.934-5.55-2.217-6.92Z"/>
  <path fill="#FFFFFF" fill-opacity=".565" d="M451.141 817.813c.349-3.586.129-6.179.815-9.999l.812.43c-.376 3.24-.508 5.409-.576 8.665l-1.051.904Z"/>
  <path fill="#FFFFFF" fill-opacity=".788" d="m603.64 1106.89.909.81c-2.007.4-5.67 1.23-7.577 1.47l-1.143-.88 7.811-1.4Z"/>
  <path fill="#FFFFFF" fill-opacity=".243" d="M461.198 880.405c-.581-2.074-2.117-6.011-1.472-7.589 1.241 1.539 2.115 5.442 2.071 7.416l-.599.173Z"/>
  <path fill="#FFFFFF" fill-opacity=".608" d="M480.398 189.895c2.593-.514 5.13-.683 7.757-.91 1.843 1.084 2.005 1.165 4.078 1.718l-11.835-.808Z"/>
  <path fill="#FFFFFF" fill-opacity=".325" d="M496.476 867.864c.398 2.755.784 5.114-.357 7.695-.537-1.622-.45-1.985-.404-3.646.5-1.461.57-2.532.761-4.049Z"/>
  <path fill="#FFFFFF" fill-opacity=".678" d="M500.318 861.374c.218 1.36.455 2.721.596 4.092l-.725 3.993c-.192-2.615-.492-5.208-.773-7.812l.902-.273Z"/>
  <path fill="#FFFFFF" fill-opacity=".263" d="M460.774 861.775c-.704-2.404-.992-3.1-1.114-5.548 1.076.981 1.516 3.1 2.059 4.684l-.945.864Z"/>
  <path fill="#FFFFFF" fill-opacity=".133" d="M500.914 865.466c.211 2.805.53 4.194-.345 6.876-.626-1.422-.565-1.327-.38-2.883l.725-3.993Z"/>
  <path fill="#FFFFFF" fill-opacity=".212" d="M548.539 1059.77c.459 1.45.924 2.79 1.214 4.28l-.811 1.12-1.303-4.67.9-.73Z"/>
  <path fill="#FFFFFF" fill-opacity=".659" d="M327.973 927.05c-.126-2.197-.358-9.006.263-10.762.134 3.652.191 7.31.172 10.968l-.435-.206Z"/>
  <path fill="#FFFFFF" fill-opacity=".725" d="M327.261 771.112c-.029-1.751-.302-2.838.389-4.282.603 1.767.641 1.962.886 3.819l-1.275.463Z"/>
  <path fill="#FFFFFF" fill-opacity=".584" d="M327.867 877.238c-.138-3.073-.225-3.993.393-7.115.058 2.236.052 5.425.233 7.572l-.626-.457Z"/>
  <path fill="#FFFFFF" fill-opacity=".592" d="m328.327 950.704.093 6.591-.621-1.506c.022-1.84.267-3.256.528-5.085Z"/>
</svg>
