<svg xmlns="http://www.w3.org/2000/svg" width="1394" height="1394" fill="none" viewBox="0 0 1394 1394">
  <path fill="#AD6A5F" fill-opacity=".906" d="M713.929 1112.21c104.631-2.8 210.4-49.7 282.373-125.785 52.958-55.985 88.088-122.86 105.498-197.849 1.6-6.922 9.38-54.916 9.7-55.535l.85.408c-2.06 17.555-4.96 38.349-8.95 55.733a415.631 415.631 0 0 1-147.829 235.898 415.07 415.07 0 0 1-241.663 88.51l.021-1.38Z"/>
  <path fill="#FCFBF4" fill-opacity=".867" d="M852.158 530.689c1.497-3.824.687-3.873 4.39-5.52-1.94-3.845-10.026-11.558-11.217-14.389 3.627 3.825 10.652 13.207 15.886 11.822 2.144-2.197 2.063-2.062 3.172-4.923.143 2.424.021 4.421 1.103 6.555l.878-.397.538-1.562c8.971-.394 6.037.129 13.722-6.118-2.75 3.221-6.997 7.314-6.997 11.479 3.655 6.234 22.019 2.598 28.778 4.387-4.656.859-17.725.724-23.844 1.25-1.3 3.255-2.049 4.383-3.954 7.359 3.246 3.744 8.229 8.942 10.931 12.72-3.396-3.281-8.501-8.532-12.231-11.025-3.785.416-1.736 3.669-6.358 2.29-1.327 6.676-1.538 40.271-1.225 48.323-1.171-9.396.245-21.783-1.205-30.93.136-6.69 1.913-13.055-4.499-16.213.878-1.952 1.014-1.977 1.212-4.064l-1.069-.296-2.246 1.312c-3.199.24-8.352 5.424-10.959 7.751-.02-.635 5.854-7.709 6.8-8.905-.939-2.682-1.783-5.595-2.634-8.323-7.018-.602-14.036-.491-21.128-1.153.715-.512 19.501-1.156 22.156-1.43Z"/>
  <path fill="#B57965" fill-opacity=".898" d="m512.922 310.371.993 1.308c-14.058 5.56-42.644 23.675-55.109 32.547a419.534 419.534 0 0 0-162.53 232.67c-4.746 17.71-8.632 36.17-11.189 54.363-.511 3.637-1.058 15.06-3.006 17.235l-.538-.859c1.673-8.444 2.326-18.19 3.715-26.859a401.637 401.637 0 0 1 14.112-60.043c36.006-112.105 109.154-196.7 213.552-250.362Z"/>
  <path fill="#AD6A5F" fill-opacity=".871" d="M968.033 367.699c6.092 3.805 24.729 22.914 30.31 28.881a429.972 429.972 0 0 1 105.737 200.595c4.95 21.395 9.06 53.962 9.62 75.641l-1.47 4.718c-.05-6.382 0-13.071-.44-19.405a430.114 430.114 0 0 0-144.669-289.746l.912-.684Z"/>
  <path fill="#AD6A5F" fill-opacity=".902" d="M357.997 935.328c-39.94-57.19-66.807-118.776-75.054-188.538-.339-2.872-2.002-11.516-.851-13.872 1.24 2.383 3.144 21.387 4.068 26.669a431.642 431.642 0 0 0 14.147 59.17c10.38 33.598 27.254 67.529 46.176 97.076 4.049 6.317 8.962 12.586 12.571 19.12l-1.057.375Z"/>
  <path fill="#F9EFDB" fill-opacity=".965" d="m857.923 542.749 2.246-1.312 1.069.296c-.198 2.088-.334 2.112-1.212 4.064-2.736 3.341-4.54 7.019-6.779 10.691-20.658 33.839-50.472 68.034-80.598 93.705l-1.633-2.272c.183-.072.36-.143.537-.215 26.982-21.027 74.336-75.966 86.37-104.957Z"/>
  <path fill="#AD6A5F" fill-opacity=".894" d="M464.664 1038.17a422.82 422.82 0 0 0 216.585 74.14l3.076 1.24c-12.369.34-38.563-3.15-51.089-5.32a416.274 416.274 0 0 1-132.499-46.33c-13.603-7.54-24.536-14.92-37.481-22.87l1.408-.86Z"/>
  <path fill="#ECA795" fill-opacity=".898" d="M791.305 688.914c2.049.068 4.173-.266 5.514.707.619 7.848.401 16.364.353 24.287-.211 34.373.804 68.937-.143 103.29-.598-2.307-.898-5.166-1.245-7.569-.245-38.518-1.178-81.21.156-119.381-16.512-.3-33.72.041-50.294.068-.531 15.41-.143 33.23-.163 48.817l-.98-.265c-.102-15.309-.844-34.987-.17-49.886 8.14.803 21.236.755 29.588.571 5.888.177 11.639.62 17.384-.639Z"/>
  <path fill="#F9EFDB" d="M666.307 267.655c21.947.056 29.237 1.607 30.408-22.604.251 2.904.721 6.047.83 8.927.592 15.51 17.895 13.473 29.956 13.818-7.256 1.559-23.292-2.204-27.614 5.163-1.872 3.193-2.342 8.97-2.968 12.763-.463-3.311-1.042-6.852-1.382-10.157-1.443-1.815-3.083-4.009-4.696-5.604-5.541-1.749-8.72-1.995-14.53-1.737a928.24 928.24 0 0 1-10.004-.569Zm445.923 409.879 1.47-4.718c1.63 16.887 6.72 15.539 22.38 16.397 5.21.286 10.69.361 15.9.701-2.63.021-6.3.17-8.88.068-34.03-1.402-27.43 3.417-30.69 32.189.13-8.161.03-16.322-.3-24.477l-.53-.803c-6.17-9.216-14.44-7.086-24.57-7.093 10.42-.551 23.56.926 25.22-12.264Z"/>
  <path fill="#F3D2C4" fill-opacity=".957" d="M866.491 618.403c1.995 4.941.756 124.365.763 139.496l-1.491-1.654c.851-45.012-.667-91.795.041-137.298l.687-.544Z"/>
  <path fill="#F9EFDB" d="M279.726 705.733c.09-22.435-25.132-15.43-42.523-15.873 8.7-.442 31.573.654 38.619-3.846 4.675-2.988 4.699-18.724 4.914-24.826-.039 25.112-2.142 25.35 22.948 28.767-12.039-.034-18.425-1.94-22.785 10.775l-1.173 5.003Z"/>
  <path fill="#B57965" fill-opacity=".902" d="M895.653 318.064c-40.52-22.778-87.439-38.679-133.404-45.557-7.072-1.058-14.546-1.712-21.495-3.193l.129-.497c6.977-.15 20.999 2.135 28.261 3.318 44.727 7.283 86.914 23.11 126.774 44.507l-.265 1.422Z"/>
  <path fill="#F9EFDB" fill-opacity=".988" d="M695.483 1105.11c.878-4.27 1.096-5.73 1.334-10.14l1.021 9.7c4.063 5.07 5.602 6.48 12.19 7.18 1.301.14 2.601.26 3.901.36l-.021 1.38c-14.648-.43-16.159 4.84-16.833 17.88-1.238-10-1.483-16.07-12.748-17.92l-3.077-1.24c7.692-1.21 9.012-1.26 14.233-7.2Z"/>
  <path fill="#C19992" fill-opacity=".702" d="M604.204 785.105c13.938 1.293 35.599-.082 50.511.361.025 20.175.935 49.858-.371 69.475l-.414.177c-2.006-10.666-.946-17.615-1.112-28.118-.205-12.912.562-27.22.064-39.976-14.316-.211-35.644.491-49.07-.353l.392-1.566Z"/>
  <path fill="#C19992" fill-opacity=".898" d="m865.137 605.935.721-.122c-.068 3.113-.333 9.919.634 12.59l-.688.545c-13.566-.863-35.061-.038-49.334-.11-1.253 11.979-.395 40.063-.382 53.598l-.129 101.929c-.02 9.515.633 33.958-.381 42.616-.538-19.113-.034-39.628-.157-58.837-.286-46.707.388-93.594-.136-140.289 15.097-.676 34.346-.223 49.757-.371l.095-11.549Z"/>
  <path fill="#AD6A5F" fill-opacity=".91" d="m650.859 269.104 2.735.889c-39.35 5.421-73.76 12.852-110.665 28.305-6.676 2.796-15.17 6.133-21.424 9.577l-1.396-.973c42.929-19.735 83.502-32.577 130.75-37.798Z"/>
  <path fill="#AD6A5F" fill-opacity=".871" d="m363.322 942.849.633-1.116c22.854 28.527 43.461 51.982 72.22 75.177 9.377 7.55 19.703 14.2 28.489 21.26l-1.407.86c-8.809-7.25-19.446-14.27-29.052-22.2a444.88 444.88 0 0 1-70.883-73.981Z"/>
  <path fill="#B57965" fill-opacity=".91" d="M619.217 754.468c-9.578 7.243-99.802 44.448-110.41 42.943 25.387-6.119 56.082-19.82 80.31-30.112 6.274-2.668 25.292-12.79 29.669-14.056l.431 1.225Z"/>
  <path fill="#C8AE99" fill-opacity=".475" d="M815.578 816.981c1.014-8.658.361-33.101.381-42.617l.13-101.928c-.014-13.535-.872-41.619.381-53.599.864 9.609.354 25.746.313 36.059l.02 58.658-.088 75.948c-.027 5.527.381 24.729-.654 29.051l-.462.49-.021-2.062Z"/>
  <path fill="#C8AE99" fill-opacity=".953" d="M707.074 699.457c2.771-2.382 13.831-9.856 17.806-12.851a1003.793 1003.793 0 0 0 33.428-26.671l2.3.927c-18.309 14.701-33.025 26.874-52.452 40.562l-1.082-1.967Z"/>
  <path fill="#C8AE99" fill-opacity=".941" d="M630.594 746.92c3.044-2.063 8.581-5.139 11.878-6.732 16.595-8.025 32.066-20.522 48-29.132l1.178.844c-9.237 7.14-50.072 32.284-60.436 35.986l-.62-.966Z"/>
  <path fill="#A97771" fill-opacity=".98" d="m744.503 738.868.98.265-.156 85.914c-.021 4.894.122 28.41-.45 30.868-1.17-8.236.109-22.319-.238-31.406-1.082-28.295-.558-57.298-.136-85.641Z"/>
  <path fill="#ECA795" d="M694.202 1047.26c3.07-1.37 6.677-.02 8.079 3.03a6.133 6.133 0 0 1-2.947 8.11c-3.083 1.46-6.766.11-8.188-2.98a6.129 6.129 0 0 1 3.056-8.16Zm.831-721.479a6.092 6.092 0 0 1 5.997 1.577 6.092 6.092 0 1 1-10.237 5.766 6.09 6.09 0 0 1 4.24-7.343Z"/>
  <path fill="#A97771" fill-opacity=".776" d="m603.812 786.671-.771.381c-2.177 4.982.364 65.82-.952 77.255-1.295-3.158-1.892-75.683-.561-78.358l2.676-.844-.392 1.566Z"/>
  <path fill="#F3D2C4" d="M690.473 711.056c2.171-2.498 1.409-5.956 2.892-6.964 5.82-3.975 6.562 1.627 13.709-4.635l1.082 1.967-.823.538c-2.274 1.518-3.492 2.083-4.547 4.628-3.104 7.467-4.846 5.439-11.136 5.31l-1.177-.844Z"/>
  <path fill="#ECA795" d="M1054.55 683.741a5.827 5.827 0 0 1 6.11 5.411 5.82 5.82 0 0 1-5.3 6.201 5.802 5.802 0 0 1-5.31-2.512 5.825 5.825 0 0 1-.42-5.867 5.828 5.828 0 0 1 4.92-3.233Zm-716.464.013a5.783 5.783 0 0 1 6.227 5.167 5.784 5.784 0 0 1-5.024 6.343 5.787 5.787 0 1 1-1.203-11.51Z"/>
  <path fill="#AD6A5F" fill-opacity=".98" d="M528.773 817.41c6.092.122 10.785.115 16.85-.245l5.554 1.014-20.477.891c.37 16.622-.291 35.844-.736 52.575-.433-2.362-.513-12.477-.587-15.363a1872.487 1872.487 0 0 1-.604-38.872Z"/>
  <path fill="#C19992" fill-opacity=".506" d="m673.029 746.28 1.711-1.327c-.178 20.617.729 47.306-.289 67.338l-.747-.191c-.933-7.589-.464-19.004-.453-26.94l-.222-38.88Z"/>
  <path fill="#F3D2C4" fill-opacity=".961" d="m673.029 746.28.125-1.961c2.231-1.647 49.828-1.456 52.442-.347.517 2.036.388 2.029.088 4.152l-.687.191-.293-2.975c-.953-.476-44.878-.551-49.964-.388l-1.711 1.328Z"/>
  <path fill="#AD6A5F" fill-opacity=".835" d="M907.753 323.608c16.54 9.196 35.912 23.187 50.492 35.46l-.681 1.119c-11.973-11.017-36.49-26.753-50.226-35.533l.415-1.046Z"/>
  <path fill="#F3D2C4" d="M758.307 659.934c5.411-4.356 4.717-4.697 7.691-10.681 2.478-1.718 1.573-1.204 5.017-1.332l1.633 2.272c-.102 2.449.13 3.488-1.422 5.349-5.391 2.676-6.222.089-10.619 5.32l-2.3-.928Zm-139.522 93.31c3.539-2.172 2.312-3.247 5.649-6.474 2.252-.85 3.76-.292 6.159.15l.62.967c-1.081 2.995-1.171 4.281-3.662 6.024-6.033.422-3.039-1.661-8.336.558l-.43-1.225Z"/>
  <path fill="#895555" fill-opacity=".714" d="M724.369 778.312c1.517 9.407-.198 22.462 1.198 32.039.469 4.281.258 10.169.211 14.614-.198 5.935.081 17.738-.77 22.829-.66-21.897-1.075-47.755-.639-69.482Z"/>
  <path fill="#AD6A5F" fill-opacity=".773" d="m581.191 825.53 1.478.081c.098 5.493.231 37.743-.586 41.759-.78-5.37-1.443-36.395-.892-41.84Z"/>
  <path fill="#ECA795" fill-opacity=".898" d="m865.765 756.245 1.49 1.654c0 8.529.531 29.391-.857 36.695-.96-2.178-.633-33.645-.633-38.349Z"/>
  <path fill="#AD6A5F" d="M610.237 880.671c1.524 0 10.064-.028 10.969.565-14.453 1.164-45.581.462-60.747.095 3.803-.694 8.51-.572 12.447-.633 11.365.163 25.963.422 37.331-.027Z"/>
  <path fill="#A97771" fill-opacity=".898" d="m724.996 748.315.688-.19-.116 62.226c-1.395-9.577.32-22.632-1.198-32.039l-.02-4.043c1.082-7.501.183-17.786.646-25.954Z"/>
  <path fill="#C19992" fill-opacity=".263" d="M864.526 562.011c1.45 9.146.034 21.533 1.205 30.929.517 3.187.544 9.669.129 12.873l-.722.122c-1.061-8.421-1.123-34.986-.612-43.924Z"/>
  <path fill="#F3D2C4" fill-opacity=".969" d="M864.389 517.679c.047-6.875.102-15.737.544-22.589l.49-.196-.122-1.138c-.381.778-.259.352-.334 1.287l.552.704c.211 7.79.211 19.279 1.388 26.528l-.538 1.563-.878.396c-1.082-2.134-.959-4.131-1.102-6.555Z"/>
  <path fill="#A97771" fill-opacity=".765" d="M795.784 809.629c.347 2.403.646 5.262 1.245 7.569.572 8.536-.408 17.432.048 25.689l-1.354-4.69c.483-3.54-.089-22.714.061-28.568Z"/>
  <path fill="#A97771" fill-opacity=".318" d="M545.623 817.164c10.214-1.211 22.264 1.035 31.923.096l.395.905c-6.084-.095-22.284.687-26.764.013l-5.554-1.014Z"/>
  <path fill="#ECA795" d="M1198.98 686.279a3.21 3.21 0 0 1 3.23.565c.9.763 1.3 1.961 1.06 3.111a3.217 3.217 0 0 1-2.22 2.423 3.219 3.219 0 0 1-3.99-2.042 3.218 3.218 0 0 1 1.92-4.057Z"/>
  <path fill="#AD6A5F" fill-opacity=".949" d="m673.704 812.1.747.191a454.706 454.706 0 0 1-.658 29.377c-.482-2.246-.597-6.895-.732-9.359.021-5.609-.23-14.954.643-20.209Z"/>
  <path fill="#ECA795" d="M188.657 686.579a3.1 3.1 0 1 1 2.913 5.474 3.1 3.1 0 0 1-2.913-5.474Z"/>
  <path fill="#A97771" fill-opacity=".259" d="M650.859 269.104c.83-.406 13.798-1.428 15.448-1.449 3.334.208 6.669.397 10.004.569-4.97 1.303-21.308.478-22.716 1.769l-2.736-.889Z"/>
  <path fill="#925855" fill-opacity=".498" d="M725.779 824.965c.551 7.671.939 26.838-.157 33.965-1.014-2.566-.742-8.284-.612-11.136.85-5.091.571-16.894.769-22.829Z"/>
  <path fill="#A97771" fill-opacity=".592" d="M643.129 880.664c4.121-.32 20.122-.981 23.524.462-3.579.899-12.386.484-16.15.273-1.34-.756-5.526-.654-7.374-.735Z"/>
  <path fill="#C19992" d="M695.026 189.653a2.861 2.861 0 0 1 4.567 2.366 2.85 2.85 0 0 1-1.661 2.535 2.864 2.864 0 0 1-2.906-4.901Z"/>
  <path fill="#A97771" fill-opacity=".333" d="M572.906 880.698c5.81-.933 31.463-.899 37.331-.027-11.368.449-25.966.19-37.331.027Z"/>
  <path fill="#A97771" fill-opacity=".804" d="m279.727 705.733 1.173-5.003c.147 7.004.4 14.049.053 21.046-.798-2.287-1.241-12.647-1.437-15.662l.211-.381Z"/>
  <path fill="#895555" fill-opacity=".169" d="M536.664 881.392c-2.836.286-4.482.149-7.355 0l.036-.211c4.367-1.525 17.037-1.634 21.503-.327-4.71-.089-9.627-.429-14.184.538Z"/>
  <path fill="#C19992" fill-opacity=".373" d="M744.334 688.982c4.37-.613 23.639-.062 29.588-.164v.735c-8.351.184-21.447.232-29.588-.571Z"/>
  <path fill="#AD6A5F" fill-opacity=".773" d="M895.918 316.642c4.159 2.27 7.95 4.245 11.837 6.966l-.416 1.046-11.687-6.59.266-1.422Z"/>
  <path fill="#895555" fill-opacity=".678" d="M673.06 832.309c.135 2.464.25 7.113.732 9.359.185 3.546.189 5.799.012 9.353l-.493-.892.61.299-.445.279c-1.413-5.037-1.202-13.211-.416-18.398Z"/>
  <path fill="#B57965" fill-opacity=".984" d="M650.504 881.399c-5.119.245-12.559.81-17.522-.123 3.51-.708 6.576-.578 10.148-.612 1.848.081 6.035-.021 7.374.735Z"/>
  <path fill="#B57965" fill-opacity=".918" d="M958.245 359.069c3.376 2.743 6.895 5.394 9.788 8.631l-.912.684c-2.852-2.641-6.507-5.486-9.557-8.197l.681-1.118Z"/>
  <path fill="#C8AE99" fill-opacity=".533" d="M577.545 817.26c2.02-.402 2.555-.77 4.373.095 1.489 2.076.886 5.479.75 8.256l-1.478-.081c.258-2.369.367-3.336.262-5.698-1.455-1.892-.487-1.129-3.512-1.667l-.395-.905Z"/>
  <path fill="#A97771" fill-opacity=".529" d="m724.703 745.341.292 2.974c-.463 8.168.436 18.453-.646 25.954-.293-5.697-.484-23.959.354-28.928Z"/>
  <path fill="#925855" fill-opacity=".737" d="M359.054 934.953c2.056 2.396 3.601 3.887 4.901 6.78l-.633 1.116c-1.982-2.553-3.538-4.86-5.326-7.521l1.058-.375Z"/>
  <path fill="#AD6A5F" fill-opacity=".659" d="m512.922 310.371 7.187-3.469 1.395.973-7.59 3.804-.992-1.308Z"/>
  <path fill="#C19992" fill-opacity=".188" d="M773.922 688.819c5.159.04 12.483-.157 17.384.095-5.745 1.259-11.496.817-17.384.64v-.735Z"/>
  <path fill="#895555" fill-opacity=".192" d="m795.723 838.197 1.355 4.69c.231 2.293-.402 5.738-.722 8.12-.524-4.983-.857-7.848-.633-12.81Z"/>
  <path fill="#925855" fill-opacity=".753" d="M536.664 881.392c4.557-.967 9.474-.626 14.184-.538-4.503.919-9.566.715-14.184.538Z"/>
</svg>
