<svg xmlns="http://www.w3.org/2000/svg" width="1223" height="880" fill="none" viewBox="0 0 1223 880">
  <path fill="currentColor" d="M598.667 471.918c80.367-3.928 156.135 57.116 173.836 134.314 2.967 12.956 4.263 26.478 5.052 39.684 16.171.525 35.221.084 51.595.078l98.909-.024a31.988 31.988 0 0 1 2.771 1.976c6.807 5.48 4.293 15.415-4.861 15.391a9949.115 9949.115 0 0 0-32.779-.042l-70.34.018-215.679.006-222.291.018-75.868-.054c-7.784-.036-27.585 1.379-34.631-1.624-5.272-2.25-4.013-14.901 4.956-15.45 10.347-.633 21.175-.257 31.793-.251l80.154.024c8.075 0 32.013.477 39.197-.514l.763-.113a176.157 176.157 0 0 1 49.949-121.513c29.736-30.585 74.675-51.377 117.474-51.924ZM448.589 645.88c52.597.836 107.032.102 159.776.078l100.115.03c13.263 0 39.216.752 51.691-.365 1.26-83.841-71.559-156.323-154.643-156.124-2.657.007-5.302.057-7.936.405-5.607.441-16.906 1.021-21.995 2.084-36.739 7.673-65.858 25.034-90.196 53.302-22.068 25.631-38.418 67.02-36.812 100.59Zm359.033-303.146c5.846-.039 12.056 6.179 9.285 10.936-8.485 14.548-20.136 27.796-30.24 41.412l-34.988 47.382c-6.665 9.019-13.341 18.361-20.423 27.042-1.738 2.125-2.867 2.794-5.333 3.836-7.25.891-11.585-7.583-8.05-13.253 4.162-6.675 9.358-13.302 14.028-19.684l37.83-50.863 21.259-29.065c3.774-5.152 7.728-10.626 11.914-15.463 1.009-1.17 3.213-1.81 4.718-2.28Zm-413.122.09c3.978-.297 6.564.091 9.174 3.427 6.251 7.993 12.319 16.154 18.429 24.259l40.445 54.443 17.665 24.082c5.516 7.543 16.523 18.352 2.832 24.219-6.715 1.361-13.555-10.713-17.125-15.559l-18.179-24.689a4272.105 4272.105 0 0 0-52.78-70.629c-5.946-7.941-10.641-12.386-.461-19.553Zm208.311-50.878c4.168 1.411 8.11 3.944 8.235 8.828 1.111 42.757-.251 85.738.478 128.504-3.147 5.496-3.977 5.956-10.319 6.287-10.008-3.81-6.86-17.985-7.043-26.806-.455-21.819-.351-43.695-.019-65.515.222-14.689-1.017-29.638.772-44.27.436-3.375 5.089-5.537 7.896-7.028Z"/>
  <path fill="currentColor" d="M900.84 528.973c4.569-.297 7.883 2.437 9.507 6.532 3.846 9.727-10.898 12.278-17.019 14.216-6.324 2.002-12.266 3.719-18.381 5.636l-71.899 22.301c-3.111.853-9.513 1.57-11.065-2.437-1.786-4.615-1.565-11.384 4.102-13.29 8.689-2.921 17.599-5.606 26.413-8.369l51.094-15.945c9.232-2.88 18.136-5.275 27.248-8.644Zm-599.241.007c5.197-.343 12.472 3.301 17.676 4.903l57.664 17.904c10.802 3.42 22.847 6.462 33.318 10.564 8.001 3.134 5.756 13.264-2.736 16.582-9.266-2.193-19.166-5.841-28.344-8.741-24.986-7.895-50.255-15.022-75.138-23.223-11.312-3.727-12.27-11.318-2.44-17.989Zm302.92-356.528c3.082 9.293 2.025 20.176 11.956 25.126 6.772 3.379 10.952 1.824 18.524 3.948l-1.201.764c1.255 1.156 1.201 1.082 2.885 1.476l-.741.001.759-.043-.114-1.464.92-.986c1.989.197 1.248-.035 2.932 1.42l.293 1.196-.836.842c-3.679-.147-5.291.983-7.405.986-19.617.028-25.099 8.217-27.273 27.732-1.141-1.892-1.117-2.635-2.848-3.318l-1.159 1.314-.478-.055c-.221-.639-.901-5.326-1.2-6.511-3.543-13.933-8.822-18.043-23.093-19.122-2.866-.217-6.75-.556-9.382-2.076l-.074-.854c5.894-4.363 17.445-.505 27.807-9.392l.546-.473c2.834-7.466 4.644-11.047 5.528-19.153l1.779 2.304.848-.168 1.027-3.494ZM963.16 427.574l1.94-1.302c1.577 7.762 2.526 14.467 9.185 19.46 6.533 4.903 17.407 1.034 19.038 4.872-6.838 2.378-19.958.269-24.52 10.637-2.723 6.19-4.437 15.414-4.855 22.1-.836-8.144-1.368-21.347-8.157-26.674-6.701-5.258-16.524-4.525-23.762-6.583 10.869-2.432 14.004-.894 24.61-5.937 2.705-4.08 5.792-11.882 6.521-16.573Zm-722.065.023 1.491-.367.362.797c2.702 6.005 3.686 16.64 10.362 18.603 6.258 1.841 13.349 1.741 19.864 3.74-5.5.812-10.77 1.657-16.228 2.723-11.112 2.172-10.512 12.261-14.169 20.959-1.389.054-1.291.072-2.52-.58-1.866-21.586-13.091-20.422-30.715-23.073 13.208-4.286 24.758.767 29.247-15.736.475-1.747 1.536-5.776 2.306-7.066Zm734.618 215.442c2.556-.191 5.536-.078 8.14-.048 3.768 2.46 4.891 4.347 7.423 7.97.238 2.424.292 4.932.388 7.38-3.04 5.182-3.709 6.059-8.856 9.044-12.708 2.765-17.414-10.119-12.594-20.788 1.719-1.361 3.618-2.424 5.499-3.558Zm-750.913-.532c5.665-.31 10.47 2.442 12.38 7.94a13.493 13.493 0 0 1-.64 10.418c-2.219 4.544-4.895 5.547-9.236 7.081-6.548-.675-9.135-3.887-12.868-8.8-.246-8.806 1.046-14.03 10.364-16.639Zm747.7-85.396c11.759-.634 16.602 7.059 8.617 16.442-12.289 3.801-17.258-8.406-8.617-16.442Zm-745.858.057c13.181-.954 15.114 12.682 5.487 17.227-11.92.002-15.535-12.185-5.487-17.227Z"/>
  <path fill="currentColor" d="M600.865 173.809c-.042-2.563-.586-7.731.453-9.596l-.412-.326c1.553 1.603 1.123 1.708 2.765 1.788l.968-1.237c-.173 2.351-.108 5.578-.12 8.014l-1.027 3.494-.848.168-1.779-2.305Zm.346 57.637 1.158-1.314c1.732.683 1.708 1.426 2.849 3.317.107 2.876.448 7.074-.149 9.738l-.651-.355-.317-1.077c-.466-4.624-.8-6.209-2.89-10.309Z"/>
  <path fill="currentColor" d="m600.734 231.391.478.055c2.09 4.1 2.424 5.685 2.89 10.309-1.839-.41-.663.732-2.807-.415-1.098-2.694-.543-6.86-.561-9.949Z"/>
  <path fill="currentColor" d="M241.094 427.597c-.322-2.778-.909-5.58-.102-8.211l.667-.012c1.089 2.589.898 5.041.926 7.856l-1.491.367Z"/>
  <path fill="currentColor" d="M240.257 473.473c1.229.651 1.131.633 2.52.579l-1.602 10.034c-.531-3.85-.729-6.72-.918-10.613Z"/>
  <path fill="currentColor" d="M963.161 427.574c0-1.976-.054-7.235.86-8.632l-.245-.513c.854 1.57 1.111 5.818 1.326 7.843l-1.941 1.302Z"/>
</svg>
