<svg xmlns="http://www.w3.org/2000/svg" width="1661" height="1661" fill="none" viewBox="0 0 1661 1661">
  <path fill="#FFFFFF" fill-opacity=".047" d="M797.825 878.684c35.984-11.842 67.89-5.459 95.546 21.119 3.35 3.228 8.768 11.792 12.15 13.763 1.849 1.184 5.92 10.025 9.01 13.358l1.476.535c.503-1.622.446-1.249.625-2.976 1.371.697 1.76 2.863 2.522 4.777l.974-.763c.235-6.464-8.452-8.167-8.954-12.36l.973-.787 5.847.73.625-3.098 1.484-.138 2.271 3.853c.884-1.363.649-.998 1.136-2.579l1.776.089.527 1.241-1.987 4.323.924.705c1.071-1.241.803-1.143 1.387-2.822 2.709.559 5.905 6.277 5.645 9.205l-2.206 1.452c3.674 1.103 6.837-2.742 10.633-2.863 7.567-.26 44.42-6.505 48.767-5.126-1.784.527-17.145 3.95-18.905 4.055-7.137.446-15.166 2.206-21.987 2.709l-2.198 2.79-1.184-.097c-2.709-.203-4.331-.706-6.529.665-1.525 2.765-.146 8.702 3.114 9.789 1.501.503 3.301.584 4.948 1.046-4.915 2.312-12.563 1.403-18.07.925-.779-1.501-.462-.69-.9-2.433l-1.282-.138c-1.006 2.279-.827 2.206-.47 4.72l2.976 1.744-1.273.957c3.179.178 8.086-.325 10.324.592-4.371 2.319-84.039.503-95.15 1.938-3.163.414-13.455-1.273-17.438-1.241-16.858.057-33.712.56-50.543 1.509-5.226-.527-11.866-.641-17.227-.876 6.24-2.271 23.252-1.371 31.275-4.355-2.858-3.447-37.108.932-43.2-.341-.741-.154-.825-1.014-1.114-1.711 2.03-9.538 10.007-16.87 9.72-25.337.462-1.062 2.981-5.32 3.67-6.545 12.002-16.537 21.435-23.325 40.292-32.003Z"/>
  <path fill="#FFFFFF" fill-opacity=".02" d="M757.183 948.976c-10.923-1.144-14.423 1.022-27.223-1.946l.005-.787c1.272-.511 2.393-.973 3.648-1.533l-.427-.698c-9.152-.17-21.135-.738-30.527.382-1.184.146-1.381-.633-1.811-1.111.302-3.058.667-3.366 2.27-5.889l2.285-.494-1.597-.073.798-.268.941.6c-.082 2.377-.376 1.663.49 3.617 3.731.438 3.59.422 7.279-.389l-.006-.892c-2.647-.146-3.439-.032-5.897-1.16-1.603-2.465-3.255-5.782-2.974-8.759 2.283-2.1 4.3-1.873 7.396-1.833l-.357-1.314c-2.267-1.046-6.546-.3-9.66-.34l.9-1.087c8.031-.6 7.328-5.134 10.61-11.638.266 3.568.089 5.401 3.215 7.42 2.885-1.03 3.943-.462 5.893-1.622-3.205-.576-2.065.203-3.916-1.768.451-2.855-.078-1.565 1.832-3.933l1.096.438.463 2.92c2.47 1.549 6.336.559 9.644.056l-.21-1.038c-3.8-1.395-5.51 1.468-8.438-.162l-.339-1.217 3.073-.794-2.531-1.963-.01-1.322c4.684-2.555 15.625 5.839 23.229 3.982l2.67.406 1.145 1.711c-1.608 5.32-3.75 8.824-5.26 14.209 3.873-4.988 5.746-7.98 8.981-13.455.288 8.467-7.689 15.799-9.72 25.337.29.697.373 1.557 1.115 1.711 6.091 1.273 40.341-3.106 43.199.341-8.022 2.984-25.035 2.084-31.274 4.355Z"/>
  <path fill="#FFFFFF" fill-opacity=".89" d="M774.532 330.46c1.728-.037 1.006-.316 2.221.686-3.25 1.938-26.328 4.341-31.725 5.276a447.877 447.877 0 0 0-28.774 5.833 486.58 486.58 0 0 0-233.203 132.819A495.056 495.056 0 0 0 351.42 722.37c-2.421 11.981-7.515 39.558-7.39 51.328-.726.727-.24.408-1.61.669-.231-.596-.614-1.449-.549-2.081 9.51-93.129 45.171-182.957 103.358-256.725A488.663 488.663 0 0 1 774.532 330.46Z"/>
  <path fill="#FFFFFF" fill-opacity=".859" d="M456.254 1148.05c74.056 86.99 170.8 145.99 283.611 167.29 7.527 1.42 32.582 4.14 38.221 6.5-3.116 1.53-18.185-1.62-22.406-2.25-122.281-18.34-220.527-79.14-300.959-170.82l1.533-.72Z"/>
  <path fill="#FFFFFF" fill-opacity=".878" d="M1183.03 482.699a488.606 488.606 0 0 0-238.807-140.288c-11.97-2.999-25.336-5.27-37.567-7.368-8.24-1.415-16.423-1.642-24.736-3.466l-.633-.818.049.526c3.366-2.484 44.736 5.502 51.127 6.861a486.155 486.155 0 0 1 251.557 143.26l-.99 1.293Z"/>
  <path fill="#FFFFFF" fill-opacity=".898" d="M1184.02 481.406a499.597 499.597 0 0 1 125.85 245.628c1.31 6.916 7.71 43.392 5.83 47.316-1.94-1.864-3.19-19.895-3.85-24.453a520.83 520.83 0 0 0-23.54-94.633 497.082 497.082 0 0 0-76.95-139.549c-9.74-12.352-18.49-21.5-28.33-33.016l.99-1.293Z"/>
  <path fill="#FFFFFF" fill-opacity=".914" d="M1190.01 1162.42c68.92-80.86 111.64-168.585 123.7-275.066.26-2.32 0-9.368 2.09-9.7 1.02 5.515-2.43 25.401-3.48 32.214a492.886 492.886 0 0 1-79.68 200.692c-10.59 15.38-22.01 30.33-34.26 44.42-2.54 2.92-5.23 5.92-7.55 8.99l-.82-1.55Z"/>
  <path fill="#FFFFFF" fill-opacity=".894" d="M454.721 1148.77c-60.007-73.96-99.397-159.997-111.128-255.001-.447-3.626-2.402-13.626-.892-16.594-.245-.3 9.909 58.905 11.408 65.24 17.869 75.525 52.155 145.965 102.145 205.635l-1.533.72Z"/>
  <path fill="#FFFFFF" fill-opacity=".922" d="M991.571 641.156c.706.637.827 1.08 1.338 1.949-2.076 6.337-15.961 28.088-20.259 36.22-23.902 45.126-50.057 89.515-74.332 134.419-10.584 19.57-25.458 42.547-34.071 62.498l-.73-.648c-.414-2.669 117.754-217.66 128.054-234.438Z"/>
  <path fill="#FFFFFF" fill-opacity=".871" d="M667.092 640.559c4.446 4.496 123.478 220.184 124.869 226.624-1.453-1.29-51.042-89.486-53.404-95.662-6.695-17.5-70.091-119.207-71.465-130.962Z"/>
  <path fill="#FFFFFF" fill-opacity=".988" d="m828.886 305.573 1.557-.545c.219 5.524.576 15.405 4.615 19.247 4.882 4.652 22.465 5.08 29.465 5.461-5.475 1.609-23.05-1.521-28.703 3.912-5.117 4.91-5.766 17.51-6.521 24.288-.859-29.228-5.442-27.635-33.51-28.264 21.288-1.425 32.87.623 33.097-24.099Z"/>
  <path fill="#FFFFFF" fill-opacity=".933" d="M829.844 1296.8c.86 10.92-.811 17.72 8.589 24.85 7.113 1.07 20.868.66 25.499 1.7-6.967.44-13.95.88-20.909 1.44-10.048.81-10.146 8.84-12.133 16.31l-.3 1.09-1.687 5.24c-.267-22.21-6.22-22.32-27.075-23.49-6.985-.39-14.198-1.43-21.367-1.61 10.328-1.5 33.462 3.88 43.438-3.31 5.515-3.98 5.142-15.15 5.945-22.22Z"/>
  <path fill="#FFFFFF" fill-opacity=".914" d="m1092.22 1246.2.45 1.16c-5.96 4.74-25.62 15.74-32.98 19.74-59.67 32.41-112.149 46.61-178.403 55.54l-.486-.86c2.498-1.68 8.41-1.64 11.614-2.06 55.256-7.12 108.325-24.25 158.025-49.34 14.42-7.28 27.66-16.3 41.78-24.18Z"/>
  <path fill="#FFFFFF" d="M324.647 824.904c16.09-.154 14.428-12.125 17.185-24.675.152 4.874.354 9.747.606 14.618 2.172 5.215 3.166 6.456 7.876 9.603a528.735 528.735 0 0 0 20.898 1.435c-26.448 4.096-25.726-3.414-30.222 26.116l-.206-.974c-2.341-11.476 1.01-21.979-14.303-23.982l-6.235-1.257 4.401-.884Zm992.653-26.616c.99 11.948-.58 25.237 14.3 26.632 3.62.43 7.24.933 10.85 1.484-26.17 2.36-20.3 3.577-25.56 26.043l-.18.713c-.66-27.032-4.28-26.212-29.95-27.08 2.6-.714.04-.138 2.45-.138 26.37-.033 26.01-3.479 28.09-27.654Z"/>
  <path fill="#FFFFFF" fill-opacity=".929" d="M830.354 810.21c.154 13.258.187 26.519.097 39.779-.032 5.856-.502 15.288.057 20.779 25.532 1.176 46.286 9.4 64.469 28.111 3.22 3.309 8.711 10.511 10.544 14.687-3.382-1.97-8.8-10.535-12.149-13.763-27.657-26.578-59.563-32.96-95.547-21.119l-.47-1.501c8.928-4.509 21.791-6.107 31.701-6.399-.803-15.588-.259-31.63-.024-47.267 1.225-3.049 1.217-9.749 1.322-13.307Z"/>
  <path fill="#FFFFFF" fill-opacity=".867" d="M737.055 860.792c-24.965-22.311-49.144-45.547-74.548-67.39-9.037-7.77-17.83-15.867-26.823-23.701-8.2-7.144-17.258-14.173-24.563-22.194 8.49 5.514 31.408 25.978 39.484 33.046a3473.35 3473.35 0 0 1 87.716 79.542l-1.266.697Z"/>
  <path fill="#FFFFFF" fill-opacity=".933" d="M529.67 947.265c45.348-.163 94.661-1.59 139.613.089-2.726.535-5.571 1.143-8.306 1.541l-113.187-.089c-5.59-.884-12.381-.698-18.138-.722l.018-.819Z"/>
  <path fill="#FFFFFF" fill-opacity=".89" d="m1035.35 758.594.67 1.503c-34.27 28.723-69.624 61.814-103.217 91.677l-1.241-.893c8.103-6.472 22.044-20.016 30.22-27.364a3080.29 3080.29 0 0 1 73.568-64.923Z"/>
  <path fill="#FFFFFF" fill-opacity=".894" d="M677.768 885.204c-10.988-5.669-33.762-14.25-46.118-19.229a6394.386 6394.386 0 0 0-75.117-30.138c5.304-.957 111.738 43.357 122.518 48.353l-1.283 1.014Z"/>
  <path fill="#FFFFFF" fill-opacity=".859" d="M968.912 889.527c36.228-16.513 77.418-32.506 114.538-47.405l.8 1.111c-24.49 10.892-51.43 20.56-76.23 31.185-5.47 2.343-34.428 14.979-38.167 15.888l-.941-.779Z"/>
  <path fill="#FFFFFF" fill-opacity=".886" d="m1190.01 1162.42.82 1.55c-20.36 22.48-57.14 56.74-82.71 73.18l-.52-1.51c34.51-25.37 52.99-41.84 82.41-73.22Z"/>
  <path fill="#FFFFFF" d="M827.321 1236.39a7.547 7.547 0 0 1 7.486 1.61 7.539 7.539 0 0 1 2.238 7.31 7.558 7.558 0 0 1-5.304 5.52c-3.95 1.1-8.062-1.15-9.262-5.06-1.2-3.92.949-8.09 4.842-9.38Zm1.095-828.014c3.917-.761 7.729 1.731 8.613 5.626a7.392 7.392 0 0 1-12.587 6.696 7.381 7.381 0 0 1-1.655-7.334 7.395 7.395 0 0 1 5.629-4.988ZM1240.2 819.624a6.809 6.809 0 0 1 8.39 4.372 6.811 6.811 0 0 1-4.1 8.524 6.792 6.792 0 0 1-6.81-1.249 6.787 6.787 0 0 1-2.18-6.57 6.809 6.809 0 0 1 4.7-5.077Zm-824.252-.121a6.73 6.73 0 0 1 7.418 5.628 6.733 6.733 0 0 1-5.303 7.656 6.731 6.731 0 1 1-2.115-13.284Z"/>
  <path fill="#FFFFFF" fill-opacity=".827" d="M791.96 867.183c1.961 2.133 4.812 7.259 5.395 10l.469 1.501c-18.856 8.678-28.289 15.466-40.292 32.003l-.919-2.587 5.729-7.089c2.055-2.181 7.404-7.08 8.389-9.351l-1.695-1.963.157-1.184 2.173 1.444c2.644.089 20.672-10.746 24.728-12.814-1.606-3.05-3.922-6.659-4.134-9.96Z"/>
  <path fill="#FFFFFF" fill-opacity=".761" d="M679.052 884.19c18.199 7.154 36.221 15.516 54.312 23.009 4.983 2.069 11.44 4.518 16.107 6.975l-.474.593-2.67-.406c-21.118-8.743-47.905-21.582-68.557-29.157l1.282-1.014Z"/>
  <path fill="#FFFFFF" fill-opacity=".945" d="m1005.22 947.362 80.65-.154c13.28.008 32.53-.487 45.46.389-3.93.755-20.04.641-24.68.625-4.38-.381-9.65-.154-14.12-.073-18.14.349-36.71-.852-54.8-.057-6.02-.17-10.84-.178-16.85.073-4.98-.852-9.05.698-15.66-.803Z"/>
  <path fill="#FFFFFF" fill-opacity=".871" d="M969.853 890.306c-13.715 7.08-41.525 17.583-56.521 23.52l.081-.406c14.38-7.956 39.684-17.015 55.499-23.893l.941.779Z"/>
  <path fill="#FFFFFF" fill-opacity=".647" d="M932.803 851.773c-11.038 10.382-24.128 22.855-35.864 32.117.447-2.968 30.439-29.529 34.623-33.009l1.241.892Z"/>
  <path fill="#FFFFFF" fill-opacity=".6" d="M967.07 947.273c6.837-.122 32.661-.755 38.15.089 6.61 1.5 10.68-.049 15.66.803-4.95 1.654-35.918.511-43.315.673-4.315-.365-6.31-.552-10.495-1.565Z"/>
  <path fill="#FFFFFF" fill-opacity=".337" d="M828.895 653.711c-.827-15.636.349-36.555.559-52.671l.544.287c.722 5.281-.081 9.009.057 14.235.275 10.279 1.378 20.869.356 31.139-.584 2.441-1.127 4.521-1.516 7.01Z"/>
  <path fill="#FFFFFF" fill-opacity=".745" d="M738.321 860.095c4.666 4.177 28.848 25.036 30.873 28.418l-.158 1.185-3.347-2.58c-7.291-7.656-20.27-18.556-28.634-26.326l1.266-.697Z"/>
  <path fill="#FFFFFF" fill-opacity=".486" d="m749.47 914.175 1.42.292c2.55-.965 4.091-3.966 5.723-6.367l.919 2.587c-.688 1.225-3.207 5.483-3.67 6.545-3.235 5.475-5.108 8.468-8.981 13.455 1.51-5.385 3.652-8.889 5.259-14.209l-1.144-1.711.474-.592Z"/>
  <path fill="#FFFFFF" fill-opacity=".588" d="M1037.73 948.092c18.09-.795 36.66.406 54.8.057 4.47-.081 9.74-.308 14.12.073-6.8 1.298-61.58 1.022-68.92-.13Z"/>
  <path fill="#FFFFFF" fill-opacity=".263" d="M977.565 948.838c-4.826.308-31.2.617-34.323-1.516 1.947-.982 20.755-.382 23.828-.049 4.185 1.014 6.18 1.2 10.495 1.565Z"/>
  <path fill="#FFFFFF" fill-opacity=".804" d="M829.032 823.517c-.463-8.443-.235-20.316.478-28.634 1.46 1.842.957 12.69.844 15.328-.106 3.558-.098 10.257-1.322 13.306Z"/>
  <path fill="#FFFFFF" fill-opacity=".373" d="M285.166 826.299c-2.574.211-2.976.406-5.507-.268 2.844-1.768 39.485-1.273 44.987-1.127l-4.4.884c-7.178-.487-27.849-.268-35.08.511Z"/>
  <path fill="#FFFFFF" d="M233.109 822.722a3.532 3.532 0 0 1 3.519 3.082 3.522 3.522 0 0 1-6.211 2.685 3.523 3.523 0 0 1 2.692-5.767Z"/>
  <path fill="#FFFFFF" fill-opacity=".796" d="M1331.6 824.92c4.66-.073 33.27.04 36.34 1.152-5.08.356-20.58.786-25.49.332-3.61-.551-7.23-1.054-10.85-1.484Z"/>
  <path fill="#FFFFFF" fill-opacity=".357" d="M669.283 947.354c3.315-.284 15.089-.997 17.584.365-5.563 2.036-19.395 1.265-25.89 1.176 2.735-.397 5.579-1.006 8.306-1.541Z"/>
  <path fill="#FFFFFF" fill-opacity=".714" d="m828.918 674.121 1.622-5.255c.057 5.673-.487 22.692-.073 27.25l-1.46-2.913-.089-19.082Z"/>
  <path fill="#FFFFFF" d="M1415.02 822.698a3.388 3.388 0 0 1 3.62 3.058 3.373 3.373 0 0 1-2.98 3.682 3.393 3.393 0 0 1-3.14-1.379 3.39 3.39 0 0 1 2.5-5.361Z"/>
  <path fill="#FFFFFF" fill-opacity=".78" d="M1035.35 758.594c5.78-5.259 10.52-9.168 16.68-13.984-2.23 3.674-12.51 12.448-16.01 15.487l-.67-1.503Z"/>
  <path fill="#FFFFFF" fill-opacity=".812" d="M828.895 653.71c.389-2.489.932-4.568 1.516-7.009.065 7.237.276 14.969.13 22.164l-1.622 5.256-.024-20.411Z"/>
  <path fill="#FFFFFF" fill-opacity=".804" d="M1083.45 842.122c5.86-2.052 16.04-6.285 21.41-7.851l.04.771.03-.122c-4.69 2.944-15.16 6.983-20.68 8.313l-.8-1.111Z"/>
  <path fill="#FFFFFF" fill-opacity=".247" d="m507.26 948.003 22.392.081c5.757.024 12.548-.162 18.138.722-4.453.454-38.804.284-40.53-.803Z"/>
  <path fill="#FFFFFF" fill-opacity=".808" d="M1092.22 1246.2c2.46-2.11 12.21-8.41 15.38-10.56l.53 1.51c-5.14 3.63-9.95 7.15-15.46 10.21l-.45-1.16Z"/>
  <path fill="#FFFFFF" fill-opacity=".898" d="M285.166 826.299c7.231-.779 27.902-.998 35.08-.511l6.234 1.257c-12.407.227-28.431-.641-41.314-.746Z"/>
  <path fill="#FFFFFF" fill-opacity=".459" d="M830.59 1342.19c.056 5.88.405 12.94-.787 18.57l.3-1.18-.503 1.36-.284-1.7.868-.44-.925-.44c-.097-2.73-.478-8.44-.356-10.93l1.687-5.24Z"/>
  <path fill="#FFFFFF" fill-opacity=".494" d="M828.885 305.573c.073-3.312-.413-12.414 1.395-14.266l-.721.04.64-.472-.373-.272-.349 1.454.982.467c.097 4.167.089 8.337-.016 12.504l-1.558.545Z"/>
  <path fill="#FFFFFF" fill-opacity=".871" d="M507.26 948.003c1.578-1.355 19.166-.755 22.41-.739l-.018.82-22.392-.081Z"/>
  <path fill="#FFFFFF" fill-opacity=".204" d="m829.008 693.203 1.46 2.913c.146 3.074-.024 4.245-.413 7.338l-.528-.02c-1.054-4.324-.762-5.85-.519-10.231Z"/>
  <path fill="#FFFFFF" fill-opacity=".067" d="M631.885 913.298c3.953-.178 8.213 0 11.685 2.069-5.477.145-6.599-.406-11.685-2.069Z"/>
</svg>
