<svg xmlns="http://www.w3.org/2000/svg" width="985" height="1143" fill="none" viewBox="0 0 985 1143">
  <path fill="#FFFFFF" d="M464.924 84.122c1.717 1.298 2.82 1.716 2.714 3.902l-1.918 1.463c-.681.254-.864.053-1.801-.1l-.58-.988c.04-2.535.07-1.798 1.585-4.277Z"/>
  <path fill="#FFFFFF" d="M248.489 818.478c5.338-.519 10.101 3.354 10.681 8.69.581 5.33-3.236 10.135-8.562 10.783a9.803 9.803 0 0 1-9.049-3.907 9.8 9.8 0 0 1-1.067-9.801 9.805 9.805 0 0 1 7.997-5.765Zm445.866 4.365c1.97 2.991 3.013 5.81 2.031 9.421-.497 1.869-3.376 5.653-5.19 6.222-13.656 4.264-18.556-12.3-7.467-18.445 2.472-1.367 7.467.05 9.772 1.691l.854 1.111Z"/>
  <path fill="#FFFFFF" fill-opacity=".867" d="M286.813 863.735c2.911 1.887 8.316 6.335 11.384 8.668 7.101 5.408 13.324 9.577 20.865 14.377a296.064 296.064 0 0 0 98.256 39.245c4.995 1 11.372 2.406 16.361 2.908-8.975.966-21.487-2.908-30.355-5.079-41.182-10.079-80.431-30.199-113.725-56.34-1.215-.955-1.968-1.758-2.937-2.969l.151-.81Z"/>
  <path fill="#FFFFFF" fill-opacity=".89" d="m693.501 821.732.441-.43c26.235-25.94 48.759-65.934 61.377-100.531.681-1.87 2.293-7.049 3.27-8.383l.402.48c-1.362 5.922-5.72 17.011-8.232 22.883a295.643 295.643 0 0 1-46.113 75.573c-2.567 3.058-7.445 9.035-10.291 11.519l-.854-1.111Z"/>
  <path fill="#FFFFFF" fill-opacity=".871" d="M272.193 747.499c-4.05-7.607-8.801-15.064-12.852-23.089a230.152 230.152 0 0 1-22.091-69.523c-.997-6.352-2.689-16.861-2.072-23.229l.419-.29c1.154 3.181 1.171 10.107 1.52 13.78 2.704 28.446 11.931 55.459 24.365 81.065 3.352 6.898 8.076 13.919 11.738 20.929l-1.027.357Z"/>
  <path fill="#FFFFFF" d="M463.421 1029.89a5.918 5.918 0 0 1 7.536 3.29 5.926 5.926 0 0 1-3.025 7.65 5.922 5.922 0 1 1-4.511-10.94Z"/>
  <path fill="#FFFFFF" fill-opacity=".663" d="M298.408 781.532c11.018 12.239 23.967 25.26 37.411 34.915l-.397 1.133c-13.446-9.488-26.691-22.626-37.646-34.926l.632-1.122Z"/>
  <path fill="#FFFFFF" fill-opacity=".863" d="M284.427 863.06c-4.79-2.964-24.278-21.253-27.35-26.382.156.062 24.805 22.899 27.704 25.4l-.354.982Z"/>
  <path fill="#FFFFFF" fill-opacity=".914" d="M335.819 816.447c8.028 6.424 15.603 10.47 23.473 16.341l-.518.586c-5.107-2.668-18.768-12.055-23.352-15.794l.397-1.133Z"/>
  <path fill="#FFFFFF" fill-opacity=".867" d="M659.883 856.301c5.793-5.949 12.824-12.016 18.946-18.099l.614.044c-2.907 5.844-15.057 14.126-18.801 19.082l-.759-1.027Z"/>
  <path fill="#FFFFFF" fill-opacity=".725" d="M760.465 706.16c.703-2.601 6.105-26.466 6.367-26.806.994 2.4-3.934 23.619-5.346 26.856l-1.021-.05Z"/>
  <path fill="#FFFFFF" fill-opacity=".894" d="M283.411 762.378c2.642 3.416 8.01 11.223 10.683 13.93l-.698 1.234c-3.701-4.387-7.107-9.298-10.478-13.964l.493-1.2Z"/>
  <path fill="#FFFFFF" fill-opacity=".671" d="M273.22 747.142c3.549 4.838 5.835 9.571 9.427 14.125l-.942.715c-1.941-3.382-7.009-10.493-9.512-14.483l1.027-.357Z"/>
  <path fill="#FFFFFF" fill-opacity=".82" d="M359.292 832.788c6.173 2.512 9.012 4.861 14.72 7.786l-.669.614-14.57-7.814.519-.586Z"/>
  <path fill="#FFFFFF" fill-opacity=".824" d="m657.706 858.026.24 1.362c-3.253 2.651-7.316 5.759-10.274 8.617l-1.01-.581a433.475 433.475 0 0 1 11.044-9.398Z"/>
  <path fill="#FFFFFF" fill-opacity=".714" d="M374.013 840.574c4.216 1.903 8.735 3.549 12.654 5.832-3.61-1.15-10.105-3.254-13.323-5.218l.669-.614Z"/>
  <path fill="#FFFFFF" fill-opacity=".012" d="m586.78 904.566-.513.558-.017.653c-1.607 1.01-3.248 1.97-5.078 1.161 1.133-1.58 2.902-1.92 4.95-2.813l.658.441Z"/>
  <path fill="#FFFFFF" fill-opacity=".204" d="M575.167 909.232c.681-.179.921-.123 1.641-.14-.603 1.089-5.117 2.791-6.63 3.472l-1.144-.391c1.061-1.261 4.415-2.277 6.133-2.941Z"/>
  <path fill="#FFFFFF" fill-opacity=".784" d="M294.094 776.308c1.746 1.926 2.763 3.092 4.315 5.224l-.632 1.122c-1.704-2.294-2.334-3.092-4.381-5.112l.698-1.234Z"/>
  <path fill="#FFFFFF" fill-opacity=".157" d="M647.672 868.005c-1.964 1.568-3.142 2.757-5.53 3.527.217-1.038 3.393-3.192 4.52-4.108l1.01.581Z"/>
  <path fill="#FFFFFF" fill-opacity=".11" d="M586.122 904.125c2.249-.999 2.238-1.429 4.308-1.194-.457 1.713-2.092 1.518-3.649 1.635l-.659-.441Z"/>
  <path fill="#FFFFFF" fill-opacity=".6" d="M761.486 706.21c-.463 1.624-.636 2.857-1.725 4.13-.424-1.401.235-2.707.704-4.18l1.021.05Z"/>
  <path fill="#FFFFFF" fill-opacity=".408" d="m657.707 858.026 2.177-1.725.759 1.027c-.916.726-1.725 1.401-2.696 2.06l-.24-1.362Z"/>
  <path fill="#FFFFFF" fill-opacity=".749" d="M284.781 862.078c.579.441 1.583 1.149 2.032 1.657l-.151.809-2.235-1.484.354-.982Z"/>
  <path fill="#FFFFFF" fill-opacity=".333" d="m282.647 761.267.764 1.111-.493 1.2-1.213-1.597.942-.714Z"/>
  <path fill="#FFFFFF" fill-opacity=".012" d="m642.404 384.883.759-.88c2.997-1.015 5.291 2.714 8.243 4.942 7.768 5.841 14.699 12.368 21.737 19.015 2.969 2.803 7.645 8.906 11.05 10.138 2.176-.488 2.466-1.662 4.046-3.789l1.216-.133-.134 1.531.888-.075c1.049 2.687 4.972 10.071 7.511 11.236 1.781-.241 2.858-.63 4.359.27 1.2 1.922 1.066.975.993 2.833-1.122 1.518-3.376 2.13-5.212 2.871l-.09.67a448.428 448.428 0 0 1 27.229 36.044c4.096 6.147 9.057 12.98 11.535 19.88 1.161 3.227 3.382 4.045 4.046 5.926 3.276 9.25 11.357 18.957 12.021 28.649.179 2.658 1.077.92 1.613 3.728-1.222 1.559-.491 1.241-2.031 1.46-3.287-1.905-5.135-7.292-6.82-10.666-8.354-16.702-16.776-34.22-28.093-49.124-4.242-5.59-18.657-29.308-25.019-30.561-2.115 1.265-1.077 1.984-3.069 4.703l-1.317.066c-2.322-2.163-3.689-7.7-5.475-9.392-1.948-1.851-6.29-1.147-8.572-3.957-.458-3.825 3.533-1.74 5.648-5.162.122-4.128-8.137-10.159-11.19-13.188-13.555-13.467-28.735-25.281-44.517-35.996-8.667-5.889-16.346-11.33-26.263-14.898-1.083-.289-5.871-5.565-6.368-5.476-5.575.99-10.999-5.363-16.457-7.124-5.263-1.695-10.163-3.706-15.448-5.335-4.378-1.348-8.668-3.98-13.212-5.021-4.22-1.238-23.204-4.866-25.398-6.488-.538-1.956-.609-1.9-.338-3.862l1.205.42c.878-.358 3.642-1.46 4.461-1.234 7.554 2.094 15.568 3.637 23.116 5.654 2.62.7 6.433 3.371 9.106 4.397 3.683 1.417 16.156 4.223 18.249 7.117l-2.802 1.054c-5.474-3.41-21.13-8.171-27.619-10.105-1.984-.689-4.332-1.778-6.31-1.461 1.123 1.167 4.398 1.995 6.056 2.372 22.683 6.949 34.246 12.767 54.873 22.843 4.704 3.316 13.656 7.361 16.58 9.642l9.995 6.862c4.844 2.576 7.707 5.8 11.742 8.285 8.505 6.318 25.688 20.365 32.72 28.612l2.316 1.562c3.304 3.341 7.395 8.724 11.268 10.247-2.383 2.682-3.092 3.033-6.335 4.644l-.881.432-.078.636c7.327 4.33 7.31 2.116 10.564 11.135 1.027-3.166 1.183-3.662 3.086-6.444 1.903-1.728 5.715-3.961 8.02-5.405-6.882-2.183-8.918-4.058-10.81-10.86l-.575.246c-.882 2.461-1.194 3.593-2.991 5.616-2.233-2.719-8.226-9.156-10.872-11.141l-1.841-2.056c-2.143-1.661-5.905-5.605-8.182-7.588-6.395-5.563-15.012-13.572-21.932-18.317Zm85.235 95.697c1.233 1.842 2.556 3.657 3.504 5.651 1.306 2.506 1.881 3.875 3.756 6.033.737 1.776 1.473 4.122 2.857 5.22-.011-1.988-1.367-4.324-2.249-6.209-1.199-2.061-2.5-3.982-3.817-5.968-1.021-2.413-1.2-3.206-3.002-5.104-6.692-12.611-24.472-35.113-33.635-46.025l-.558-.089c.039 1.796 13.377 17.254 15.285 20.221 5.386 8.352 13.567 17.386 17.859 26.27Zm21.095 38.533c.128-2.588-1.753-6.799-3.862-8.163-.028 2.67 1.786 6.359 3.51 8.198l.352-.035Z"/>
  <path fill="#FFFFFF" fill-opacity=".882" d="M727.639 480.58c-4.291-8.884-12.473-17.918-17.858-26.269-1.909-2.968-15.247-18.426-15.286-20.222l.558.09c9.164 10.911 26.944 33.414 33.635 46.024l-1.049.377Z"/>
  <path fill="#FFFFFF" fill-opacity=".286" d="M731.69 485.307c1.318 1.986 2.618 3.907 3.818 5.968l-.609.989c-1.875-2.158-2.45-3.527-3.755-6.033l.546-.924Z"/>
  <path fill="#FFFFFF" fill-opacity=".639" d="M728.688 480.204c1.802 1.898 1.981 2.691 3.002 5.103l-.547.924c-.948-1.994-2.271-3.809-3.504-5.651l1.049-.376Z"/>
  <path fill="#FFFFFF" fill-opacity=".427" d="m734.899 492.265.609-.99c.881 1.886 2.238 4.221 2.249 6.21-1.384-1.098-2.121-3.445-2.858-5.22Z"/>
  <path fill="#FFFFFF" d="M244.969 419.229c14.481-.963 18.326 15.016 5.708 20.282-14.177 1.182-18.653-13.783-5.708-20.282Z"/>
  <path fill="#FFFFFF" fill-opacity=".906" d="m431.521 326.179 1.199.652a300.228 300.228 0 0 0-142.754 62.48 371.407 371.407 0 0 0-19.224 16.649c-4.155 3.891-11.434 11.055-15.93 14.28.976-2.437 4.107-5.288 5.951-7.06 40.498-38.917 89.446-68.687 144.261-82.154 7.918-1.945 18.064-4.469 26.497-4.847Z"/>
  <path fill="#FFFFFF" d="M685.231 423.985c1.797-2.023 2.109-3.155 2.991-5.616l.575-.246c1.891 6.802 3.928 8.677 10.809 10.86-2.304 1.444-6.116 3.678-8.019 5.405-1.903 2.783-2.059 3.278-3.086 6.444-3.254-9.019-3.237-6.805-10.564-11.135l.078-.636.881-.432c3.243-1.611 3.952-1.961 6.335-4.644Zm-221.457-214.48a5.863 5.863 0 1 1 3.428 11.214 5.863 5.863 0 0 1-3.428-11.214Z"/>
  <path fill="#FFFFFF" fill-opacity=".788" d="M545.991 335.021c6.49 1.935 22.145 6.695 27.62 10.106 9.191 2.985 19.304 8.824 28.11 13.045l-1.111.603c-20.626-10.075-32.189-15.894-54.873-22.843l.254-.911Z"/>
  <path fill="#FFFFFF" fill-opacity=".824" d="m639.787 383.019 2.618 1.864c6.92 4.746 15.536 12.754 21.932 18.318 2.277 1.982 6.038 5.926 8.181 7.587l-.87 1.389c-7.032-8.248-24.215-22.295-32.72-28.613l.859-.545Z"/>
  <path fill="#FFFFFF" fill-opacity=".961" d="M431.521 326.179c7.889-1.599 20.02-3.127 27.912-2.358l.278.255a695.873 695.873 0 0 0-26.991 2.755l-1.199-.652Z"/>
  <path fill="#FFFFFF" fill-opacity=".937" d="M601.721 358.172c3.209 2.528 12.612 7.623 16.513 9.67l-1.043.575c-2.925-2.28-11.876-6.326-16.581-9.642l1.111-.603Z"/>
  <path fill="#FFFFFF" fill-opacity=".922" d="M674.359 412.845c2.645 1.984 8.639 8.421 10.871 11.141-3.873-1.524-7.963-6.906-11.267-10.247l.396-.894Z"/>
  <path fill="#FFFFFF" fill-opacity=".914" d="M627.945 374.615c3.711 1.803 8.499 5.753 11.842 8.403l-.86.546c-4.034-2.485-6.897-5.709-11.741-8.285l.759-.664Z"/>
  <path fill="#FFFFFF" fill-opacity=".706" d="M618.234 367.842c2.64 1.728 7.517 4.751 9.71 6.774l-.759.663-9.995-6.862 1.044-.575Z"/>
  <path fill="#FFFFFF" fill-opacity=".145" d="M545.737 335.932c-1.658-.377-4.932-1.205-6.056-2.372 1.978-.317 4.326.772 6.31 1.461l-.254.911Z"/>
  <path fill="#FFFFFF" fill-opacity=".725" d="m672.518 410.788 1.842 2.057-.397.894-2.316-1.562.871-1.389Z"/>
  <path fill="#FFFFFF" fill-opacity=".157" d="M488.479 770.186c-1.461-3.338-1.528-6.904-1.827-10.543l.18-.273c1.3 4.04 1.516 6.552 2.042 10.81l-.395.006Z"/>
  <path fill="#FFFFFF" fill-opacity=".718" d="m488.479 770.185.395-.005c.138 3.237.583 4.671 1.375 7.808l-.744 3.114c-.494-3.996-1.552-6.865-1.026-10.917Z"/>
  <path fill="#FFFFFF" fill-opacity=".553" d="M490.25 777.988c.242 2.07.542 2.908-.201 4.766-.635-1.044-.53-.48-.543-1.652l.744-3.114Z"/>
  <path fill="#FFFFFF" fill-opacity=".427" d="m518.56 488.359.738 1.272c-2.421 5.142-2.777 10.439-6.764 17.128.148-2.769 4.768-15.007 6.026-18.4Z"/>
  <path fill="#FFFFFF" fill-opacity=".596" d="M520.298 484.795c1.563-4.354 5.696-15.518 7.623-19.422-1.154 5.266-6.033 17.789-6.365 19.81l-1.258-.388Z"/>
  <path fill="#FFFFFF" fill-opacity=".243" d="m518.56 488.359 1.738-3.564 1.258.388c-.474.961-1.741 3.699-2.259 4.448l-.737-1.272Z"/>
  <path fill="#FFFFFF" fill-opacity=".212" d="M492.955 474.685c1.114 2.461.351 4.046-.348 6.644-.945-2.249-.185-4.248.348-6.644Z"/>
  <path fill="#FFFFFF" fill-opacity=".502" d="m435.646 487.454.544-1.954c1.28 4.359 1.98 6.475 2.385 10.939l-.264.114c-1.749-3.971-1.51-6.102-2.665-9.099Z"/>
  <path fill="#FFFFFF" fill-opacity=".31" d="M361.393 534.832c-1.381-1.172-3.154-2.551-3.678-4.218 1.749.325 2.936 1.831 4.487 3.174l-.809 1.044Z"/>
  <path fill="#FFFFFF" fill-opacity=".349" d="M418.093 502.517c1.632 1.714 2.192 4.417 2.945 6.775l-1.196-.756c-1.283-2.132-1.334-3.572-1.749-6.019Z"/>
  <path fill="#FFFFFF" fill-opacity=".506" d="m361.393 534.832.809-1.044c1.168 1.209 3.238 2.899 3.504 4.259-2.165-1.178-2.462-1.517-4.313-3.215Z"/>
  <path fill="#FFFFFF" fill-opacity=".106" d="M317.332 560.963c2.776.608 3.08.418 5.073 2.64-2.687-.698-2.887-.854-5.073-2.64Z"/>
  <path fill="#FFFFFF" fill-opacity=".149" d="M434.955 484.668c-.349-1.774-.415-1.748-.109-3.623l.499.18.507 2.249-.897 1.194Z"/>
  <path fill="#FFFFFF" fill-opacity=".271" d="m434.955 484.668.897-1.194.338 2.027-.545 1.953-.69-2.786Z"/>
  <path fill="#FFFFFF" fill-opacity=".522" d="M329.401 639.215c2.482-.43 2.739-.575 5.139-.078l-.18.385-20.583 3.075c-1.674.05-4.345.418-5.706-.502l-.268.117c1.792-.882 18.662-2.623 21.598-2.997Z"/>
  <path fill="#FFFFFF" fill-opacity=".318" d="M430.368 783.284c1.398 2.869-1.019 9.611-1.965 12.764-.784-2.5 1.308-9.973 1.965-12.764Z"/>
  <path fill="#FFFFFF" fill-opacity=".098" d="m361.962 724.354.067.681c-.685 2.043-3.52 4.074-5.265 5.347l-.656-.48c1.237-1.58 4.252-4.114 5.854-5.548Z"/>
  <path fill="#FFFFFF" fill-opacity=".012" d="M348.242 736.431c.855.173.473-.039 1.076.754a206.5 206.5 0 0 0-4.027 3.504l-.937-.714c.573-1.557 2.43-2.534 3.888-3.544Z"/>
  <path fill="#FFFFFF" fill-opacity=".251" d="M330.602 691.018c1.944-.993 4.039-2.355 6.119-2.383-.726 1.356-3.574 2.495-5.132 3.087l-.987-.704Z"/>
  <path fill="#FFFFFF" fill-opacity=".263" d="m346.807 682.987 1.078.145-.03.519-5.46 3.131-1.012-.396c.718-1.323 3.888-2.617 5.424-3.399Z"/>
  <path fill="#FFFFFF" fill-opacity=".149" d="M331.589 691.722c-2.245 1.016-2.522 1.194-4.91 1.557.526-1.027 2.61-1.663 3.922-2.26l.988.703Z"/>
  <path fill="#FFFFFF" fill-opacity=".263" d="m431.793 776.911.626.48c-.259 1.495-.355 3.449-1.383 4.392-.479-1.669.226-3.159.757-4.872Z"/>
  <path fill="#FFFFFF" fill-opacity=".788" d="M431.793 776.911c.475-1.937.309-2.802 1.511-3.918.214 2.014-.115 2.427-.885 4.398l-.626-.48Z"/>
  <path fill="#FFFFFF" fill-opacity=".145" d="m418.114 673.516.649.58c-.38 1.546-6.208 6.72-7.686 8.127l-.779-.469c1.517-2.339 5.646-6.117 7.816-8.238Z"/>
  <path fill="#FFFFFF" fill-opacity=".012" d="M403.729 687.201c.655-2.004.036-1.395 1.578-2.188l.982.335c.156 1.423-.258 1.937-1.453 2.891l-1.107-1.038Z"/>
  <path fill="#FFFFFF" fill-opacity=".118" d="m403.729 687.201 1.108 1.038a120.772 120.772 0 0 0-4.806 3.583l-.799-.698a137.024 137.024 0 0 1 4.497-3.923Z"/>
  <path fill="#FFFFFF" fill-opacity=".255" d="m399.232 691.125.799.697c-1.576 1.234-1.295 1.423-2.949 1.568.281-1.322.699-1.2 2.15-2.265Z"/>
  <path fill="#FFFFFF" fill-opacity=".969" d="M466.893 448.776c4.428-.915 14.616.332 19.272.851 85.956 9.593 158.595 91.318 159.482 177.6 6.652.357 50.266 1.161 54.764-.167l1.133.178c5.804.882 16.2.575 22.484.575l48.631-.028c5.017 0 20.66-.234 25.046.29l-.396.57-6.675-.045c.955.469 5.442.251 6.803.245l.252.603c-24.338.24-48.631-.072-72.918.29-4.766.073-19.845.006-23.691.514l-.853-.106c-13.645-1.133-40.74-.329-54.92.028l-.854-.09c-16.335-.39-35.912-.34-52.325.095-1.993 37.924-17.055 67.911-45.338 93.723-20.3 18.523-50.154 32.258-78.272 32.537-.472.006-1.104-.161-1.563-.273l.085-1.652c65.903-2.26 120.311-58.835 121.65-124.418l-17.111.044c.419 13.188-3.158 24.183-7.528 36.327l-1.418-.541c4.716-13.495 6.759-21.314 7.54-35.797l-8.282-.067c.14 27.437-13.031 55.626-32.038 75.205-3.365 3.466-12.132 10.358-14.507 13.322l-.86-.971c6.668-4.895 18.396-15.834 22.807-22.609l.445-.681c14.947-18.669 20.721-40.943 22.747-64.227-5.562-.134-10.602.447-16.061.475-4.872.027-10.064-.419-15.03-.492-2.998 27.548-13.194 42.545-37.553 55.666l-.789-1.914c2.679-1.502 6.729-2.891 8.593-4.694 4.166-2.997 6.047-4.644 9.756-8.215 1.429-1.016 3.485-3.745 4.711-5.219 8.296-11.156 11.55-22.173 12.323-35.813-2.952-.497-6.358-.274-9.379-.207-.482-.837-.377-.363-.175-1.445 2.141-.715 6.797-.441 9.491-.586-.23-4.281-.511-6.463-1.292-10.694.016-4.04-2.355-9.61-3.88-13.26l-.882-2.255c-1.123-1.49-2.468-3.979-3.443-5.659-2.034-4.448-8.916-12.29-12.794-15.549-2.275-2.037-6.748-4.744-9.477-6.502-1.901-1.099-4.862-2.266-6.947-3.164l-3.759-1.546c-3.816-1.541-6.533-1.864-10.599-2.534l.617-1.741c10.631.675 23.911 6.915 31.81 13.79 15.892 13.841 21.598 28.575 23.55 48.712 7.17.145 9.117.536 15.593-2.026 6.452 2.846 8.357 2.216 15.119 1.97-1.01-15.046-1.049-21.694-6.88-36.64-9.874-25.299-30.02-47.641-54.881-58.672 2.55.24 4.422.878 6.322-.865 10.043 4.318 20.193 8.62 28.913 15.29 17.493 13.379 34.228 29.675 49.402 45.565-3.712-20.455-28.107-52.533-45.414-64.032l.993-.873c3.167 1.99 6.687 5.124 9.591 7.623 27.513 23.678 41.845 56.679 44.138 92.744 14.069.725 37.988.496 52.091-.04-3.064-83.26-64.815-158.134-146.592-174.579-10.204-2.052-20.168-2.474-30.533-2.881l-.245-1.063ZM582.83 592.73c-7.071-5.904-13.606-12.384-20.425-18.551-2.155-1.942-8.241-7.83-10.399-9.013 12.212 22.402 19.004 34.987 19.953 62.1 5.592.206 11.189.234 16.781.084-.502-11.224-1.758-24.116-5.91-34.62Zm-12.462 34.402c-1.635-26.689-8.533-52.992-29.262-71.412-6.188-5.498-21.997-17.467-30.031-18.82l3.031 2.032c29.77 19.637 46.351 53.291 47.969 88.334 2.495-.006 5.877.089 8.293-.134Z"/>
  <path fill="#D1D1D1" fill-opacity=".01" d="M511.075 536.9c8.034 1.353 23.843 13.322 30.031 18.82 20.729 18.42 27.627 44.724 29.262 71.412-2.416.223-5.798.129-8.293.134-1.618-35.043-18.199-68.697-47.969-88.334l-3.031-2.032Z"/>
  <path fill="#FFFFFF" fill-opacity=".012" d="M542.674 647.709c-1.46-.485-3.84-1.032-4.744-2.126 1.499-.915 4.836-.346 6.371.396l-.779.765-.848.965Z"/>
  <path fill="#FFFFFF" fill-opacity=".243" d="M543.522 646.744c1.439.396 3.858.842 4.759 1.836-2.399-.022-3.228-.302-5.606-.871l.847-.965Z"/>
  <path fill="#FFFFFF" fill-opacity=".259" d="M490.277 556.814c.587 2.318-.439 3.836-1.47 5.98l-.327-.966c.267-2.394.643-2.813 1.797-5.014Z"/>
  <path fill="#FFFFFF" fill-opacity=".149" d="M375.479 547.263c2.968.684 4.221 2.664 6.257 4.937-3.009-.364-4.206-2.548-6.257-4.937Z"/>
  <path fill="#FFFFFF" fill-opacity=".957" d="M463.842 586.781c1.748-5.631.746-13.065 1.271-18.735l.702-.224c1.447 5.637-2.2 6.184 1.459 13.266.272 3.606.482 7.803.925 11.347.311 3.253 1.181 12.741 2.217 15.638l.508-.207.074-.189c2.609-1.898 5.234-6.776 7.34-7.669.433 2.166-1.21 9.069-1.721 11.614 3.71-1.512 11.693-6.016 13.557-6.529l.246.68c-2.03 3.662-5.132 6.564-5.524 10.08l-.605.318c-1.269 1.434-.97.631-1.037 2.456 1.661 2.528 1.857 6.608 4.593 6.753l1.898-.352c4.261 3.734.763 6.653-2.812 8.734l.157.832.684.318c2.214 1.513 4.958 3.561 7.35 4.616 1.088.854 2.503 1.897 3.504 2.796-5.16-.296-10.322-2.261-15.464-3.17 2.7 3.778 5.419 7.54 8.158 11.29 1.237 1.675 2.659 3.728 3.982 5.285l-2.107.653-.526-.418c-3.51-2.819-11.254-7.177-15.401-9.661.179 1.741.343 3.483.491 5.224-.157 1.992-.02 3.84-1.261 5.33-2.001-3.07-3.846-5.961-6.072-8.868-.639 3.789-1.341 7.668-1.812 11.474-.666 6.178-1.89 15.409-1.587 21.47l-.023 2.484c-.067 1.713-.086 4.258-.347 5.882l-.912.508c.452 1.083.335.983 1.008 1.915 1.296 6.708.162 31.549.911 40.557 14.491-.173 35.315-5.944 46.82-14.661l.859.971c12.981-5.994 30.125-23.485 37.994-35.713 2.922-4.543 6.705-11.966 9.294-16.95l1.418.541c-14.486 37.991-56.361 67.425-96.918 68.659.071 3.689.458 16.218-.093 19.388l-.085 1.652c.816 3.929.308 13.858.32 18.284.028 10.833-.251 21.788.062 32.632l.235 1.898c-.759 4.37-.48 20.934-.485 26.381l-.084 54.533c-.009 2.109.044 15.057-.388 16.324-2.27 4.621.451 17.91-1.584 19.573-1.21-4.666-1.436-113.725-.662-117.464l-.387-1.128c.184-3.588-.123-11.229-.133-15.052l-.036-35.746c-4.713-.067-10.657-.447-15.216-1.591l.992-1.524c3.978.642 9.903.787 14.184 1.144l.098-19.422c-4.686-.418-9.435-.814-14.081-1.534-32.116-4.984-60.771-27.733-75.926-56.017l.838-1.976c19.966 34.641 48.721 54.555 89.116 56.927a797.99 797.99 0 0 0 .264-29.881c-.007-2.138.088-9.739-.237-11.363l.363-1.351c.149-2.601.104-5.91.145-8.567l-.168-4.124-.312-5.425c-.094-1.189-.393-2.701-.589-3.907.025-5.687-1.605-13.551-2.633-19.294-2.089.508-1.231.86-3.291 1.323-1.435-.96-1.819-1.177-3.048-2.472l-.234-.558c-3.471.814-10.377 7.456-13.479 4.956.085-1.948 5.443-9.929 6.776-12.067l.106-.647c-1.643-1.384-2.311-2.952-3.373-4.844l.227-.33c-1.125-.826-4.706-1.345-6.275-1.657l-4.596-.67-3.747-.491-.131-.329c1.847.016 2.255.134 3.934-.715.567-1.819.352-1.328-.305-3.516l2.528-.547c2.186-.083 7.763-1.122 10.176-1.501l-5.026-3.031c-2.624-2.109-8.752-5.357-11.911-7.149l8.461 2.126c2.976 1.362 7.035 1.803 10.345 2.328-3.402-5.358-2.518-5.592.018-11.324 2.512 2.042 3.766 2.679 6.591 4.23-.727-3.973-2.127-11.988-3.934-15.443l-.059-.653.524-.563c1.969 1.981 8.225 11.29 9.697 13.835 1.691-8.187 2.395-13.779 3.217-22.006Z"/>
  <path fill="#FFFFFF" fill-opacity=".012" d="M576.635 655.618c1.741.608 2.679.954 3.56 2.528l-.787.374c-1.903-.502-2.595-.715-4.397-1.485l.095-.792 1.529-.625Z"/>
  <path fill="#FFFFFF" fill-opacity=".965" d="m464.274 448.624-.486 1.179c-46.239.503-89.968 20.771-122.169 53.615a192.497 192.497 0 0 0-52.56 101.847c-1.37 7.814-1.484 14.745-2.379 22.425 17.378-.569 35.351.324 53.07-.324a129.79 129.79 0 0 1 39.716-89.623c21.661-20.479 50.79-34.74 80.939-35.037l3.393.917-.517.07c-6.386.821-10.802.38-17.884 1.709a126.507 126.507 0 0 0-76.052 46.759c-17.173 21.951-25.601 47.451-26.273 75.177 5.905.067 11.647.196 17.55-.128-.664-17.413 5.276-40.842 14.195-55.883l.494.039.121-.575c-.202.179-.404.352-.606.53l.346.464c-7.244 18.138-13.75 33.078-12.51 53.712 1.572 2.561 4.466 2.104 6.772.708 2.195-5.112 2.717-21.777 4.796-28.614 2.409-7.914 5.811-13.673 8.764-21.018l1.006 1.161c-3.954 9.108-16.104 41.149-10.868 48.912 4.819 1.502 21.018.212 27.742 1.044l.653.084c.959-25.428 12.417-40.435 32.094-55.018 4.639-2.49 8.807-4.666 13.909-6.006.156.575.254 1.178.538 1.652-2.211.882-5.764 2.149-7.726 3.299-5.831 2.757-16.353 9.543-19.745 14.896-10.127 11.335-16.731 25.606-16.024 41.065l.158 1.959c.005 14.092 4.554 29.501 14.777 39.603 2.204 3.271 12.702 11.475 16.833 13.093 1.77.893 5.817 3.098 7.503 3.438 7.679 2.724 12.097 3.7 20.364 4.058l-.363 1.35c-.488.129-.981.285-1.495.268-33.072-1.267-60.664-28.742-60.63-61.91-6.883.954-22.664.613-30.119.664 2.307 24.266 7.586 43.264 21.753 63.317.865 1.228 4.568 6.284 4.365 7.406-1.834-1.273-6.177-7.953-7.627-10.258-11.307-17.971-20.248-38.844-19.536-60.46l-8.027-.15c1.999 19.115 3.928 27.916 12.173 45.441l-.838 1.975c-7.923-15.861-12.284-29.457-12.799-47.405-5.804 0-12.272-.117-18.023.106a128.112 128.112 0 0 0 40.923 90.547c17.968 16.793 41.006 29.473 65.624 32.582l-.992 1.524a129.386 129.386 0 0 1-84.007-53.193c-14.952-21.404-24.345-45.235-24.822-71.577-17.695-.24-35.393-.224-53.088.044 3.364 93.148 83.592 175.178 177.302 177.115l.387 1.127c-2.964.503-6.208.207-9.27.012-83.104-5.353-159.573-79.48-168.628-161.935-.596-5.425-1.14-11.123-.76-16.598-4.535.385-13.528.023-18.562.05-14.353.146-28.707.173-43.061.084l-34.762.028c-5.351.006-16.249.268-21.08-.603-.834-.329-1.156-.312-2.051-.457l.002.005-.139-.575c2.971.101 5.322.268 8.245-.374 3.282-.591 11.018-.145 14.681-.284 13.461-.53 33.036 1.211 45.923-.558l.959-.067c6.245 1.523 15.135.368 21.647.725 8.794.486 19.288-.993 27.893-.061 1.995-24.88 3.293-35.981 12.61-59.695 23.89-60.813 78.842-108.958 144.406-117.953 6.187-.848 15.764-2.185 21.852-1.446Z"/>
  <path fill="#FFFFFF" d="M39.938 613.698C41.57 565.06 52.773 508.41 71.01 463.311a453.641 453.641 0 0 1 242.904-248.162 406.363 406.363 0 0 1 314.778-.651 452.178 452.178 0 0 1 242.411 243.464l-1.914 1.505c-11.781-26.073-22.491-48.803-38.312-73.024-49.831-76.289-124.043-139.032-208.921-172.205-105.94-41.407-216.07-38.415-319.901 8.724A449.955 449.955 0 0 0 70.788 471.638a415.406 415.406 0 0 0-24.037 98.718c-.827 7.216-1.893 14.522-2.727 21.755-.519 4.498-.128 17.77-.913 20.89-.866.776-1.712.564-3.173.697Zm864.292 25.79c.207 4.744-.234 9.226-.552 14.187-6.519 101.101-47.308 197.838-116.42 272.054-.073.073-.145.14-.212.207.206-.078-25.638 25.472-28.791 28.279-101.458 90.365-237.408 132.315-372.054 102.765a442.437 442.437 0 0 1-220.849-122.751c-8.419-8.572-27.216-28.865-33.384-38.514l1.113-2.59c6.517 10.118 26.183 31.31 34.992 40.178A435.77 435.77 0 0 0 383.85 1054.08a413.451 413.451 0 0 0 315.595-58.068 461.813 461.813 0 0 0 74.079-59.667c3.337-3.304 9.677-9.159 11.864-12.915a40.031 40.031 0 0 0 1.959-1.708c8.293-7.746 24.801-29.434 31.559-38.799a435.208 435.208 0 0 0 82.299-240.343c1.072-.993 2.021-2.031 3.025-3.092Z"/>
  <path fill="#FFFFFF" fill-opacity=".055" d="M554.54 546.855c.129 1.97-1.327 2.621-2.704 3.838l-.159-.759c.659-1.852 1-1.618 2.863-3.079Z"/>
  <path fill="#FFFFFF" fill-opacity=".933" d="M0 628.404c.68.012 2.13-.15 2.729 0 4.75 1.172 2.82-9.856 2.99-13.935 1.162-27.883 4.24-55.632 9.792-83.022a479.77 479.77 0 0 1 117.495-229.932 472.295 472.295 0 0 1 228.836-140.094c21.241-5.73 55.455-12.379 77.743-13.379l-.398.71 1.618.551c-121.698 8.295-235.218 70.818-314.799 162.079A479.907 479.907 0 0 0 12.695 555.308c-3.284 21.26-6.02 51.202-4.955 72.745 6.829.106 13.902-.257 20.582-.039l-.958.926 1.005.581c-6.97-.062-13.94-.084-20.91-.067.201 10.364.253 28.111 1.739 37.962-.126 1.574-.12 3.215-.716 4.644-3.308-13.869-1.613-29.022-2.892-41.987-1.633-.915-3.656-.67-5.59-.67v-.999Z"/>
  <path fill="#FFFFFF" fill-opacity=".98" d="m464.85 356.427.919-2.617c.468 2.682.279 8.936.734 10.437.169 9.34.12 19.307.565 28.572l.099.881c-1.724 15.563 1.332 40.094-.274 55.076l.245 1.063c-.035 16.43-.492 36.623.511 52.761l-.091 1.507c-.397 3.857-.535 14.538-.122 18.362 11.172.966 27.172 3.056 37.113 8.554-1.9 1.742-3.772 1.104-6.322.864-9.592-4.257-20.454-5.529-30.885-6.178a464.213 464.213 0 0 0-.334 19.244c-1.374 6.093.052 13.666-.987 19.895-2.534 1.306-4.292.703-7.006 1.294-3.047.486-8.236 1.15-10.947 2.261-.284-.475-.381-1.077-.538-1.652 3.273-.955 15.346-2.093 16.5-3.578.685-11.017.198-26.428-.013-37.627-12.171 1.095-19.26 2.199-30.592 6.596l-.775-.537c7.38-4.048 15.51-5.857 23.866-6.219 2.808-.121 4.339-.052 6.813-1.594l-.439-.428c-10.286 1.071-18.834 1.401-28.776 4.583l-.234-.975c10.953-3.837 18.901-2.933 29.808-4.766.324-5.347.105-13.057.111-18.583l-3.394-.917c2.025-.118 1.84.218 3.157-.799.565-5.154.258-13.002.252-18.418l-.025-33.685.485-1.18c-.788-4.084-.489-16.604-.464-21.274.069-11.153.066-22.306-.009-33.459l.328-.87c-.604-5.927.215-30.083.721-36.594Z"/>
  <path fill="#FFFFFF" fill-opacity=".51" d="M473.336 577.729c.169-1.691-.067-2.93.866-3.818 8.027.765 23.053 7.719 29.547 13.451.962.848.645 2.087.511 3.108-2.138 2.372-3.564 2.288-4.082 4.387l.368 1.362c-.995 1.227-1.01 1.328-2.27 2.243-1.618-.441-2.076-.162-3.338 1.172-2.983 1.998-11.478 8.255-14.505 8.483-2.711-1.663.158-11.407.846-14.438-2.568 3.165-9.762 10.772-10.282 13.998l-.073.189-.508.207c-1.036-2.897-1.906-12.385-2.217-15.638.929 0 2.13-.101 3.082-.157 1.157-4.124 2.668-10.341 2.055-14.549Z"/>
  <path fill="#FFFFFF" d="M39.888 642.162c1.25.457 1.742.681 3.066.921 1.245 17.881 2.651 36.215 5.436 53.963a436.678 436.678 0 0 0 56.058 154.026c6.582 11.056 20.396 32.565 28.632 42.053l-1.112 2.59c-8.438-9.17-23.102-32.22-29.849-43.482-39.485-65.924-57.56-133.817-62.231-210.071Z"/>
  <path fill="#FFFFFF" fill-opacity=".114" d="m440.342 571.701.82 1.574c.757-.123.217-.089 1.03.034 3.494.541 8.791-3.723 11.027-.162-3.127 1.194-7.853 2.048-9.613 3.672h-.004c1.08.502 13.095-.837 14.66-1.334l.672-.865c.247 4.409.009 8.243.183 12.29-2.871.72-2.373-1.524-4.118.295-1.242 1.295-.462 1.2-2.392 2.607-2.787.323-2.783-.184-4.106 1.384-.097 2.126-.126 2.249.479 4.258-6.727 4.052-7.342.151-13.649 3.131l-2.105-1.512c-2.914-2.16-7.539-7.317-10.099-7.898l-1.252-.664-.481.246c1.079 1.228 1.982 2.35 2.994 3.633.504 3.165-4.971 6.418-5.526 9.795l-.914-3.153 1.283-1.58c-1.329-.614-.803-.139-1.477-1.618-.827.011-1.588.111-2.402.24.559-.385 1.187-.916 1.728-1.345l-.736-.503c.294-2.517 4.018-4.258 4.253-7.629 3.391-5.352 13.914-12.139 19.745-14.896Z"/>
  <path fill="#FFFFFF" fill-opacity=".216" d="M433.998 658.018c1.069 4.805 11.137 7.372 15.744 7.305 3.162.034 6.339-.178 9.487-.474.321-.034 1.058 2.589 1.092 2.952.2 2.065 1.923 3.075 3.551 3.896l.313 5.425c-1.2-2.211-.656-2.082-2.433-2.696-3.155 2.121-.696 7.127-8.22 8.483-3.062.553-2.451 2.138-7.414.502-2.952-.976-6.892-2.115-9.778-1.093-4.13-1.619-14.628-9.823-16.832-13.094.108-1.495-.699-3.064-.651-5.246 1.067 1.228 3.883 6.301 4.437 6.48-.082-1.998.242-1.702-.752-3.014 3.82-.207 7.1-3.377 9.593-6.217.689-.787-.013-1.903 1.863-3.209Z"/>
  <path fill="#FFFFFF" fill-opacity=".408" d="M495.214 606.337c1.19-1.262 1.248-2.796 2.207-3.807 3.254-3.426 5.148-6.842 8.642-10.302 3.874-1.306 2.242 2.26 7.191 4.392-.494-1.127-1.072-1.763-1.801-2.762l.422-.793c1.278.659 1.819 1.97 2.912 3.109l2.087-.385c.976 1.679 2.321 4.169 3.443 5.659-2.425-.653-5.107-.413-7.476.374l-.107.552c3.731 1.077 3.784 1.557 4.534 5.57 2.431 3.84 2.304 12.133 1.763 16.559-.745-2.93-1.652-7.272-3.114-9.756l-.675-.134c-.086 4.934 3.424 2.545.566 10.465.477 1.875-.058 1.278 1.198 2.221-4.168-.106-19.4-.591-21.061-4.582.691-2.031 1.926-2.891 3.499-4.387l.37.012c1.491-1.641 1.095-.715 1.354-2.813l-1.692-.893-.984-.463c-2.218-4.047-2.975-3.081-3.278-7.836Z"/>
  <path fill="#FFFFFF" fill-opacity=".929" d="M9.656 686.933c.076-.865.554-2.662.768-3.589 4.044 21.342 6.091 38.889 11.58 60.493 29.018 114.222 98.348 212.337 196.439 277.673 6.745 4.49 13.65 8.48 20.435 12.88l-.141 1.24c-22.587-13.95-39.843-25.52-60.618-42.498a468.973 468.973 0 0 1-152.44-230.794c-6.69-22.207-13.74-52.584-16.023-75.405Z"/>
  <path fill="#FFFFFF" fill-opacity=".933" d="m936.437 659.798 1.149.977c-.898 6.652-.965 12.976-1.746 19.5a537.202 537.202 0 0 1-9.488 55.029 470.687 470.687 0 0 1-175.603 270.076c-3.935 3-8.12 6.14-12.228 8.88l-.569-1.18c.212-.2 3.672-2.47 4.269-2.92 19.544-14.606 39.975-31.489 57.337-48.756a473.202 473.202 0 0 0 126.125-229.705c6.021-26.566 7.065-45.877 10.754-71.901Z"/>
  <path fill="#FFFFFF" fill-opacity=".216" d="M475.154 662.298c1.704.994 5.996 4.074 7.175 3.795.925-1.641 1.026-1.78 2.683-2.673 2.209.028 3.995.156 6.177-.251 1.704-2.121 2.31-2.551 4.692-3.879 1.574 1.228 6.93 5.559 8.349 6.284l2.901 2.869c-7.421-.876-9.841 4.191-7.486 10.699-1.864 1.803-5.914 3.192-8.594 4.694-.859.329-1.995.725-2.804 1.099l-4.99 1.724c-2.213.698-6.08 2.015-8.232 2.462-.302-1.379-1.603-3.661-2.197-5.219 1.102-.061.861.067 1.835-.329-1.129-.809-1.333-.865-2.179-1.936.311-4.13.165-16.755 2.67-19.339Z"/>
  <path fill="#FFFFFF" fill-opacity=".906" d="M534.372 151.488c23.479 3.995 45.896 8.574 68.677 15.742a484.022 484.022 0 0 1 246.808 181.665 642.313 642.313 0 0 1 20.855 31.872l-.803 1.651c-3.544-6.926-12.406-19.859-16.938-26.501a482.447 482.447 0 0 0-252.132-188.056c-20.018-6.209-41.275-10.872-61.932-14.135-2.438-.385-4.919-.881-7.348-1.339l2.813-.899Z"/>
  <path fill="#FFFFFF" d="m462.283 136.682 3.734-24.286c.223 4.313 1.479 19.835 3.483 22.935 2.095-.337 8.713-5.671 10.902-7.322-3.298 4.107-5.555 6.89-8.366 11.4 7.43 1.555 15.589 2.677 23.101 3.704-1.835.079-3.668.193-5.498.342-2.756.231-14.663 1.424-16.139 3.174 1.222 1 1.547.649 3.53.735l-4.088.659 1.551 2.911-.779 1.86c-1.698-1.338-2.048-1.792-4.063-2.36-2.122 2.074-3.299 18.879-3.668 22.741-.829-4.223-2.583-20.723-3.996-22.544-4.516.039-5.367 4.199-7.89 4.913.901-3.069 3.491-5.952 4.869-9.672-5.657-1.294-15.094-2.095-20.931-2.691 4.025-.848 16.163-2.232 18.333-3.251 3.027-3.615-1.853-7.768-4.298-10.682 4.032 2.431 6.567 4.517 10.213 7.434Z"/>
  <path fill="#FFFFFF" fill-opacity=".024" d="M426.436 592.552c2.005 1.708 4.028 3.471 6.052 5.151 5.708 8.115 2.446 10.219 4.955 18.674l-8.46-2.126c3.158 1.791 9.287 5.04 11.911 7.149-2.083-.089-1.147-.139-2.803.279-4.553 1.144-13.154-.396-17.698.637l.277.647 2.784 1.072c-3.431.239-2.028.195-5.162-1.708.076.044-4.957 0-5.523-.006l-.741-.831c-1.048-3.634.158-12.379 3.073-14.84l.467.396c-.03 2.439-.014 2.154 1.528 3.745l.945-.028c.321-1.167.168-1.446-.208-2.584 1.277-4.409 6.186-10.883 8.603-15.627Z"/>
  <path fill="#FFFFFF" fill-opacity=".247" d="m516.335 630.174 4.501-.095c-.328 2.489-1.735 4.543-1.85 6.373-.06.955 1.899 3.449 1.025 5.414-3.031 6.809-9.297 15.013-7.228 22.888l1.329.954c-1.227 1.474-3.282 4.203-4.712 5.218-.55-1.093-1.329-1.613-2.269-2.483l-2.902-2.869.315-.351c-.574-1.792-5.015-6.497-6.697-7.34l-1.946-1.808c-.407-2.668.02-3.873.609-6.452 2.276-1.495 2.719-1.78 5.295-2.617l-.093.134c3.474-2.534 3.061-7.836 3.009-11.854l.088-1.25.531.614c1.308 3.722-.153 4.52.473 7.579 2.871-1.959 3.053-7.942 9.871-11.698l.651-.357Z"/>
  <path fill="#FFFFFF" fill-opacity=".957" d="m869.908 382.418.804-1.651c5.742 10.451 11.485 20.392 16.898 31.1 33.49 66.255 50.964 139.189 51.07 213.435.005 2.801.507 2.807 3.024 3.532l.067.447-2.69.257c-.915 2.165-.479 20.103-1.495 24.807-.413-1.149-.62-2.399-.871-3.605.586-5.849.469-15.303.329-21.236l.056-1.01c.955-88.33-23.372-169.997-67.192-246.076Z"/>
  <path fill="#FFFFFF" fill-opacity=".035" d="m429.716 631.039 3.747.491c-1.575.882-2.374.909-2.822 3.058-1.793 8.573-.376 15.599-.135 24.06-2.704 3.086-5.573 8.394-9.705 5.793-3.227-5.776-5.583-9.415-7.097-15.911.599-4.186-1.907-7.842-.747-11.107 3.127-2.679 9.332-.206 14.12-1.361 1.138-1.892 1.729-3.014 2.639-5.023Z"/>
  <path fill="#FFFFFF" fill-opacity=".925" d="m644.452 630.084.854.09c.904 8.388-.686 21.833-2.288 29.981a175.475 175.475 0 0 1-37.24 79.396c-30.505 37.605-75.815 63.563-124.218 68.48a250.53 250.53 0 0 1-13.989.949l-.234-1.898c38.128.798 79.272-16.168 108.679-39.921a187.582 187.582 0 0 0 56.544-76.511c6.345-15.538 9.476-28.954 10.955-45.664.424-4.772.346-9.6.87-14.36l.067-.542Z"/>
  <path fill="#FFFFFF" d="M449.229 1097.86c3.415-.53 8.81-.04 9.696-3.8-.81-2.38-2.284-3.66-3.988-5.55l.123-.71c3.271.71 4.578 5.47 7.581 4.13.872-1.49 2.649-12.22 3.285-15.17.508 4.34.717 12.73 3.69 15.18 2.049-.35 1.594-.43 3.453-1.92l1.525.79c-1.164 1.54-2.473 3.19-3.561 4.77 4.084 1.07 8.498 2.29 12.751 2.29l1.39 1.68c-5.199.73-8.452 1.29-13.546 2.61 1.846 3.34 4.739 7.04 7.038 10.16-3.685-2.95-5.838-5.35-10.145-7.29-.987 5.8-1.929 11.59-2.824 17.4-.959-3.49-1.782-14.39-2.893-16.11-3.205-.38-6.937 3.45-10.267 5.66 9.201-10.4 8.044-10.63-5.42-12.73l2.112-1.39Z"/>
  <path fill="#FFFFFF" d="M885.859 500.295c10.77 31.963 17.735 83.16 18.466 116.585l-3.376 1.188c1.016-39.586-7.032-75.647-16.435-113.489 1.261-1.698 1.144-2.071 1.345-4.284Z"/>
  <path fill="#FFFFFF" d="M123.625 628.421c3.999-10.995 13.361-11.145 18.442-.597 7.248.089 16.549.24 23.646-.363l1.187-.05c2.842.385 4.564.469 7.402.552-2.922.642-5.273.475-8.245.374l.139.575-.001-.005c.895.145 1.216.128 2.051.457l-1.185.743-.997-.157c-5.03-.642-17.323-.078-23.998-.418-5.025 11.43-14.585 11.307-18.51-.419l-.797-.318.866-.374Z"/>
  <path fill="#FFFFFF" fill-opacity=".937" d="m722.739 1023.73 1.512.71c-11.463 6.19-22.663 13.93-34.712 20.37a465.84 465.84 0 0 1-136.95 48.35c-8.861 1.64-33.976 5.6-42.575 5.09l-4.441-.5c3.362-.77 11.176-.72 15.3-1.29 12.147-1.69 24.702-3.11 36.695-5.59a467.142 467.142 0 0 0 133.595-48.26c10.787-5.85 21.357-13.32 31.576-18.88Z"/>
  <path fill="#FFFFFF" d="m464.983 304.411.736-1.948.449.402c1.413 2.866 20.359 15.01.339 21.553l-1.098.181c-6.623-1.758-7.225-4.217-9.148-10.411 1.518-6.108 2.691-7.666 8.722-9.777Z"/>
  <path fill="#FFFFFF" fill-opacity=".922" d="M165.714 627.461c-.918-55.124 19.935-118.832 51.619-163.174 5.702-7.98 13.059-18.84 19.831-25.863a46.515 46.515 0 0 1 3.468-3.265l-.424.702c-2.285 3.73-5.324 7.491-8.117 10.893-7.282 8.873-13.779 18.021-19.99 27.696a293.337 293.337 0 0 0-44.056 128.293c-.758 7.741-.88 16.827-1.144 24.668l-1.187.05Z"/>
  <path fill="#FFFFFF" d="M39.287 619.369c1.696-.168 2.118-.536 3.264.167.866 2.462.332 2.16 2.08 3.382 2.89.012 5.486-3.421 8.083-5.363-1.686 2.344-4.722 5.737-5.177 8.143 1 2.255 2.288 2.048 4.665 2.299 1.194.927 1.041.424 1.237 1.468-2.148.474-4.256.608-5.688 2.11-.426 1.747-.278 1.763.329 3.41l-2.507-.023c-3.023 1.228-2.641 5.157-2.619 8.121-1.324-.24-1.816-.463-3.067-.921-.458-2.272-.669-4.817-2.089-6.496-3.19-.079-4.153 2.673-7.07 2.879.37-3.181 4.442-3.398 3.49-7.199-1.744-1.513-3.491-1.474-5.85-1.825l-1.005-.581.959-.926.758-.045c2.73-.128 4.18.268 5.102-2.506-.727-2.45-3.506-5.653-5.19-8.047 2.466 1.897 5.145 5.597 8.112 5.541 1.817-1.412 1.267-1.049 2.183-3.588Zm425.744 306.422c2.035-1.663-.686-14.952 1.584-19.573.48 6.843-.009 13.467.388 20.059 2.202 1.35 4.929 2.751 6.507 4.688l.476 1.261c-.021 6.775-.503 9.404-7.519 11.921l-1.43-.245c-6.103-.648-9.097-5.799-7.025-11.492 1.533-4.214 3.269-4.666 7.019-6.619Z"/>
  <path fill="#FFFFFF" fill-opacity=".439" d="M467.209 574.302c-.075-2.372-.518-5.447.571-7.356 1.608-1.038 3.527-.597 5.519-.452 4.065.67 6.783.993 10.598 2.534-2.207 2.606-1.988.96-5.028 3.108-1.899-.524-2.835-.77-4.775-1.043l-.658.497c1.269 1.59 5.401.976 6.506 1.674 3.773 2.4 9.894 3.533 13.468 5.581 3.619 2.07 6.187 4.772 10.244 6.669.992-1.523.558-3.131.427-5.274 3.878 3.26 10.759 11.101 12.793 15.549l-2.087.385c-1.093-1.138-1.634-2.45-2.912-3.109l-.422.793c.728.999 1.307 1.635 1.801 2.763-4.949-2.132-3.317-5.699-7.191-4.393-3.494 3.461-5.388 6.876-8.643 10.303-.958 1.01-1.016 2.545-2.206 3.806-.12-3.974.798-4.56 3.062-7.875 1.26-.915 1.275-1.015 2.27-2.243l-.368-1.362c.518-2.099 1.944-2.015 4.082-4.387.134-1.021.451-2.26-.511-3.108-6.494-5.732-21.52-12.686-29.547-13.451-.933.888-.697 2.127-.866 3.818-1.048-.642-.703-.419-1.498-1.451.172-1.541.366-1.133-.146-2.372-2.598-.508-1.954-.09-4.483.396Z"/>
  <path fill="#FFFFFF" fill-opacity=".906" d="m330.725 442.852.412.929c-6.669 6.235-13.718 11.766-20.355 18.198-35.675 34.578-61.158 78.279-71.089 127.157-2.541 12.507-2.71 25.277-3.827 37.918l-.96.067c-.621-11.587 3.123-36.947 5.989-48.461 11.149-44.788 35.297-84.666 68.382-116.706 4.603-4.458 16.229-15.965 21.448-19.102Z"/>
  <path fill="#FFFFFF" d="m900.948 618.068 3.377-1.189c.123 2.272-.106 4.008 1.289 5.66 3.069.764 6.284-3.025 9.057-4.772-1.903 2.361-4.285 4.699-4.933 7.501 1.116 3.477 6.128 2.863 9.465 3.064l-2.495 1.166c-3.309.38-5.943.636-8.053 3.271-.586 1.239-.29.982-1.216 1.858-2.394 1.362-2.5 2.272-3.209 4.861-1.005 1.061-1.953 2.099-3.025 3.092-.402-2.863-.731-5.637-2.394-7.998l-1.535-1.255c-1.501-2.138-3.164-2.88-5.519-3.801.156-.614.346-.848.653-1.418 2.282-.491 3.125-.329 3.856-2.623-.524-1.964-3.689-5.564-5.268-7.981 2.573 1.915 5.123 5.715 8.271 5.118 1.356-1.44 1.306-2.506 1.679-4.554Zm-103.243 10.007c2.227-10.079 14.097-11.117 17.546-.245l1.032 1.032-.491.491c-2.411 4.342-5.653 11.369-13.388 7.909-2.327-1.044-4.208-5.274-4.716-7.814l-.251-.603-.128-.2.396-.57Z"/>
  <path fill="#FFFFFF" fill-opacity=".529" d="m434.331 640.906.11.435c2.014.586 10.421-1.216 12.934-1.663-1.333 2.138-6.691 10.119-6.777 12.066 3.103 2.501 10.009-4.141 13.48-4.956l.234.559c-.888 3.772-2.275 9.66-3.553 13.199l.137.792 1.43.034-1.147 1.339c-2.491.636-8.772-2.305-11.478-3.226-10.021-3.432 9.824-15.454-8.573-16.804 1.484-1.111 1.473-1.105 3.203-1.775Z"/>
  <path fill="#FFFFFF" fill-opacity=".929" d="M277.993 1055.12a464.838 464.838 0 0 0 130.088 39.47c11.442 1.77 29.917 3.97 41.148 3.26l-2.112 1.4c-3.903.25-16.41-.81-20.509-1.2-46.377-4.37-107.774-20.63-149.257-42.13l.642-.8Z"/>
  <path fill="#FFFFFF" fill-opacity=".902" d="m166.064 629.95.997.156a286.802 286.802 0 0 0 27.091 118.207c3.649 7.959 8.926 15.75 12.369 22.983l-1.421.011c-3.486-7.199-8.683-15.013-12.275-22.854a291.515 291.515 0 0 1-26.249-98.21c-.51-6.619-1.061-13.69-.512-20.293Zm534.162.196.854.106c.597 5.29-.697 14.097-1.484 19.522-6.937 48.081-29.595 95.369-61.098 132.154l-.943-.391c1.964-3.159 4.866-6.223 7.171-9.192 30.359-39.151 54.284-91.78 55.5-142.199Z"/>
  <path fill="#FFFFFF" fill-opacity=".976" d="M434.114 527.947c9.942-3.182 18.49-3.513 28.776-4.584l.439.429c-2.474 1.542-4.005 1.473-6.813 1.594-8.356.362-16.486 2.17-23.866 6.218l.775.538c-24.248 11.239-36.313 21.499-49.425 45.592l-1.006-1.161c6.682-15.164 19.099-27.256 32.011-37.118 2.878-1.529 15.242-7.87 16.169-10.068 1.298-.077 1.874-.675 2.94-1.44Z"/>
  <path fill="#FFFFFF" fill-opacity=".345" d="M433.998 658.017c1.634-3.315.138-10.073-.62-14.159-1.282-.078-1.677-.061-2.908-.379l.658-.798c18.397 1.35-1.448 13.372 8.573 16.804 2.706.921 8.988 3.862 11.478 3.226l1.148-1.339c6.647-1.256 9.066.385 10.957 6.418.196 1.205.495 2.718.589 3.907-1.629-.821-3.352-1.831-3.551-3.896-.035-.363-.772-2.986-1.093-2.952-3.148.295-6.325.507-9.487.474-4.607.067-14.674-2.5-15.744-7.306Z"/>
  <path fill="#FFFFFF" fill-opacity=".984" d="M414.132 536.591c-13.726 5.972-23.895 14.341-34.624 24.517-2.73 2.59-4.916 6.162-7.634 8.294-.036-1.278 1.28-3.796 2.019-4.744 13.138-16.863 39.639-33.374 59.987-37.686l.234.975c-1.066.765-1.642 1.363-2.94 1.441-6.316 2.871-10.765 3.766-17.042 7.203Z"/>
  <path fill="#FFFFFF" fill-opacity=".325" d="m433.226 597.072 2.105 1.513c1.272.932 4.614 3.22 5.505 4.241 2.041 2.026 4.444 2.707 6.969 4.555-2.535 5.731-3.419 5.966-.018 11.323-3.309-.524-7.368-.965-10.345-2.327-2.509-8.455.753-10.559-4.955-18.674l.739-.631Z"/>
  <path fill="#FFFFFF" fill-opacity=".878" d="M631.98 467.487c26.162 27.708 44.595 55.112 57.492 91.656 1.217 3.449 4.487 13.283 4.973 16.727l-.742.932c-8.12-30.377-21.927-58.018-40.768-83.276-6.702-8.981-15.246-17.137-21.553-25.267l-.301-.394.899-.378Z"/>
  <path fill="#FFFFFF" fill-opacity=".196" d="m433.464 631.53 4.596.669c-2.294 1.853-3.387 5.833-3.729 8.707-1.73.67-1.718.664-3.203 1.775l-.658.798c1.231.318 1.626.301 2.908.379.758 4.086 2.255 10.844.62 14.159-1.876 1.306-1.174 2.423-1.862 3.21-2.493 2.84-5.774 6.01-9.594 6.217-.669-.982-1.167-1.965-1.74-3.003 4.132 2.601 7.001-2.707 9.704-5.793-.24-8.461-1.658-15.487.135-24.06.449-2.149 1.248-2.176 2.823-3.058Z"/>
  <path fill="#FFFFFF" fill-opacity=".271" d="M468.615 659.463c3.894-.201 4.424-.045 8.135.926l-1.596 1.909c-2.505 2.584-2.359 15.208-2.67 19.338.846 1.072 1.05 1.128 2.178 1.937-.974.396-.732.268-1.834.329-1.192-.831-2.752-1.144-4.177-1.557-.613-.993-.557-.932-1.622-1.412-.303-6.061.921-15.292 1.586-21.47Z"/>
  <path fill="#FFFFFF" fill-opacity=".643" d="m499.476 614.636 1.692.893c-.259 2.098.137 1.172-1.355 2.813l-.369-.012c-1.573 1.496-2.808 2.356-3.499 4.387 1.66 3.991 16.893 4.476 21.06 4.582l3.527-.072c1.863.111 4.022.167 5.839.429-2.694.145-7.349-.128-9.49.586-.202 1.083-.308.609.174 1.446-4.195.106-8.458.045-12.501 1.211-2.128.324-5.143.882-7.214 1.032 2.782-2.171 4.053-.747 6.365-2.651l-.179-.954c-3.032-2.059-9.882-2.723-13.781-3.298l-1.899.351c-.943-.898-.751-.363-.845-1.518 1.358-1.15 9.493-7.121 10.848-7.674l1.171.056.456-1.607Z"/>
  <path fill="#FFFFFF" fill-opacity=".184" d="M521.2 603.703c1.524 3.65 3.896 9.22 3.88 13.26-1.182 4.683-.642 7.624-4.548 10.264l-3.527.072c-1.255-.943-.72-.346-1.197-2.221 2.858-7.919-.653-5.531-.566-10.464l.675.134c1.462 2.483 2.369 6.825 3.114 9.755.54-4.426.668-12.719-1.763-16.559 1.374.263.875.24 2.247.011 1.356-1.272 1.333-2.394 1.685-4.252Z"/>
  <path fill="#FFFFFF" fill-opacity=".31" d="M459.014 566.142c2.821.19 2.59-.296 4.275 1.178 1.144 2.919.492 7.618.452 11.19-1.352-9.109-6.174-3.198-10.522-5.364-2.236-3.56-7.533.704-11.027.162-.813-.123-.273-.156-1.029-.033l-.821-1.574c1.962-1.15 5.515-2.417 7.726-3.299 2.71-1.11 7.9-1.774 10.946-2.26Z"/>
  <path fill="#FFFFFF" fill-opacity=".329" d="M478.552 661.266c.921 1.361.827 1.384 2.187 2.254l.43-.468c.213-6.915 5.598-7.412 11.503-7.088l.525.418c1.314.994 2.859 2.461 4.381 2.528l.27-1.027c1.681.843 6.123 5.548 6.697 7.34l-.315.351c-1.419-.725-6.775-5.056-8.349-6.284-2.382 1.328-2.988 1.758-4.692 3.879-2.182.407-3.968.279-6.177.251-1.657.893-1.758 1.032-2.683 2.673-1.179.279-5.471-2.802-7.175-3.795l1.597-1.909 1.801.877Z"/>
  <path fill="#FFFFFF" d="M871.103 457.962c4.877 14.75 10.653 26.174 14.755 42.333-.201 2.213-.084 2.585-1.345 4.284-2.589-12.573-11.295-32.363-15.325-45.112l1.915-1.505Z"/>
  <path fill="#FFFFFF" fill-opacity=".031" d="M410.334 629.716c7.375-.139 11.864.279 19.252.994l.13.329c-.91 2.009-1.501 3.131-2.639 5.023-4.788 1.155-10.993-1.317-14.12 1.362-1.16 3.264 1.346 6.92.747 11.106-1.623-5.313-2.069-16.302-2.923-17.592l-.447-1.222Z"/>
  <path fill="#FFFFFF" fill-opacity=".659" d="M494.938 599.634c1.262-1.334 1.72-1.613 3.338-1.172-2.264 3.315-3.182 3.902-3.062 7.875.303 4.755 1.059 3.79 3.278 7.836l.984.463-.456 1.608-1.171-.056c-4.999-.078-10.712 2.461-13.64 1.423l.081-1.44.605-.318c2.35-1.663 9.863-12.926 10.043-16.219Z"/>
  <path fill="#FFFFFF" fill-opacity=".941" d="M467.649 502.6c26.983.644 49.502 7.087 70.793 24.372l-.992.873c-20.949-15.654-43.511-24.13-69.892-23.739l.091-1.506Z"/>
  <path fill="#FFFFFF" fill-opacity=".38" d="M450.928 594.951c6.299-.904 9.099-.223 10.495-6.931l.304 1.016.571-1.111c.991-.519.717-.363 1.545-1.144-.823 8.226-1.527 13.818-3.218 22.006-1.472-2.545-7.728-11.854-9.697-13.836Z"/>
  <path fill="#FFFFFF" fill-opacity=".475" d="M504.081 580.24c.131 2.143.565 3.751-.427 5.274-4.057-1.897-6.625-4.599-10.244-6.669-3.574-2.048-9.695-3.181-13.468-5.581-1.105-.698-5.237-.084-6.506-1.675l.658-.496c1.94.273 2.876.519 4.776 1.043 1.618.073 6.82.129 7.814.754 2.181 1.11 4.57 2.595 6.919 2.829l.798-.519.203-1.462c2.729 1.758 7.202 4.465 9.477 6.502Z"/>
  <path fill="#FFFFFF" fill-opacity=".929" d="m465.037 943.901 1.43.246c.394 22.268-.5 44.57-.522 66.843-.003 3.61-.014 7.21-.348 10.81-1.182-3.65-.791-18.68-.817-23.232-.106-18.239.369-36.411.257-54.667Z"/>
  <path fill="#FFFFFF" fill-opacity=".024" d="M443.844 685.755c3.681-2.98 4.9.43 8.408-.329 1.055-.229 5.91-2.679 7.182-3.114.41-.14 1.414-3.259 3.21-3.918 1.263.893 1.022 1.139 1.709 2.852-.041 2.657.004 5.966-.145 8.567-8.267-.357-12.685-1.334-20.364-4.058Z"/>
  <path fill="#FFFFFF" fill-opacity=".486" d="M477.762 651.527a306.297 306.297 0 0 0-.491-5.224c4.147 2.483 11.89 6.842 15.401 9.661-5.905-.324-11.29.173-11.503 7.087l-.43.469c-1.36-.87-1.266-.893-2.187-2.254l.512-.374.182.055.439-.374c-.135-2.874-1.182-6.2-1.923-9.046Z"/>
  <path fill="#FFFFFF" fill-opacity=".478" d="M467.209 574.302c2.529-.486 1.885-.904 4.483-.397.512 1.239.318.832.146 2.372.795 1.033.449.81 1.497 1.451.614 4.209-.897 10.426-2.054 14.55-.952.056-2.153.157-3.082.157-.443-3.544-.654-7.741-.926-11.347l-.064-6.786Z"/>
  <path fill="#FFFFFF" fill-opacity=".694" d="M470.997 607.676c.52-3.225 7.713-10.832 10.281-13.997-.688 3.031-3.557 12.775-.846 14.438 3.028-.228 11.523-6.485 14.506-8.483-.18 3.293-7.693 14.556-10.043 16.219.393-3.516 3.495-6.418 5.525-10.08l-.247-.681c-1.864.514-9.846 5.018-13.557 6.53.512-2.545 2.154-9.448 1.721-11.614-2.105.893-4.73 5.771-7.34 7.668Z"/>
  <path fill="#FFFFFF" fill-opacity=".424" d="M499.009 643.027c.246-1.205.078-.809.841-1.853l.705.38c2.755-2.004 2.941-3.092 4.167-6.268.052 4.018.464 9.32-3.009 11.854l.093-.134c-2.576.838-3.02 1.122-5.295 2.618-.59 2.578-1.017 3.784-.61 6.452l-.597-.346c-1.323-1.558-2.745-3.611-3.982-5.286.314-4.42 3.264-7.4 7.687-7.417Z"/>
  <path fill="#FFFFFF" fill-opacity=".275" d="M459.117 586.909c1.018-1.144 1.879-1.841 3.026-2.824l1.532.179.167 2.517c-.828.781-.554.625-1.544 1.144l-.572 1.111-.304-1.016c-1.396 6.708-4.196 6.028-10.495 6.932l-.523.563-1.424-.061c-.605-2.009-.576-2.132-.479-4.258 1.323-1.569 1.319-1.061 4.106-1.384 1.93-1.407 1.15-1.312 2.392-2.607 1.745-1.819 1.246.424 4.118-.296Z"/>
  <path fill="#FFFFFF" fill-opacity=".365" d="M450.462 596.168c1.807 3.455 3.207 11.469 3.934 15.443-2.824-1.552-4.078-2.188-6.591-4.231-2.525-1.847-4.928-2.528-6.969-4.554 3.397-.848 8.515-3.148 9.626-6.658Z"/>
  <path fill="#FFFFFF" fill-opacity=".973" d="M52.202 627.997c8.546-.011 67.244-.882 71.423.424l-.866.374.797.318c-2.423.625-6.17.379-8.786.346-4.176-.698-48.05-.731-52.01-.028-3.08.095-6.233.045-9.32.034-.197-1.044-.043-.542-1.238-1.468Z"/>
  <path fill="#FFFFFF" fill-opacity=".455" d="M460.651 648.496c1.028 5.743 2.658 13.607 2.633 19.294-1.892-6.033-4.31-7.674-10.958-6.418l-1.43-.034-.137-.792c2.677-.877 7.97-9.326 9.892-12.05Z"/>
  <path fill="#FFFFFF" fill-opacity=".22" d="M453.219 573.146c4.348 2.166 9.169-3.744 10.522 5.364l-.066 5.754-1.532-.179c-1.146.983-2.008 1.68-3.026 2.824-.174-4.046.064-7.88-.183-12.289l-.672.865c-1.565.497-13.58 1.836-14.659 1.334h.003c1.76-1.624 6.486-2.478 9.613-3.673Z"/>
  <path fill="#FFFFFF" fill-opacity=".443" d="M517.055 629.688c3.021-.067 6.428-.29 9.379.207-1.764.201-3.798.156-5.598.184l-4.501.095-7.114.29c-1.245 1.473-2.383 2.98-3.881 4.186l-.532-.614-.087 1.25c-1.226 3.176-1.412 4.264-4.167 6.268l-.705-.38c-.763 1.044-.595.647-.841 1.853l-.381-.703c-1.001-.899-2.416-1.942-3.504-2.796 1.039-4.309 5.106-5.682 9.431-8.629 4.043-1.166 8.306-1.105 12.501-1.211Z"/>
  <path fill="#FFFFFF" fill-opacity=".878" d="M464.983 304.411c.263-12.189-.317-25.05-.189-37.281.054-5.114-.438-15.018.58-19.671.923 4.574 1.59 50.701.793 55.406l-.449-.401-.735 1.947Z"/>
  <path fill="#FFFFFF" fill-opacity=".804" d="M393.423 406.541c17.4-7.174 52.381-15.231 70.706-13.52l-.328.87c-20.623-.359-51.475 5.671-70.251 13.969l-.127-1.319Z"/>
  <path fill="#FFFFFF" fill-opacity=".796" d="M459.015 566.142c2.714-.591 4.472.011 7.006-1.295 1.038-6.228-.387-13.801.986-19.894.044 6.106.015 12.365.147 18.454l6.762 1.345-.617 1.742c-1.992-.145-3.91-.586-5.519.452-1.088 1.909-.646 4.984-.571 7.356l.065 6.786c-3.659-7.082-.012-7.629-1.459-13.266l-.702.223c-.525 5.671.477 13.105-1.27 18.736l-.167-2.517.066-5.754c.039-3.572.692-8.271-.452-11.19-1.686-1.474-1.455-.988-4.275-1.178Z"/>
  <path fill="#FFFFFF" fill-opacity=".98" d="M404.573 627.662c11.112.089 17.672.134 28.642-1.183.657 2.188.872 1.697.305 3.516-1.679.848-2.087.731-3.934.714-7.388-.714-11.877-1.132-19.252-.993l-5.603-.095-.158-1.959Z"/>
  <path fill="#FFFFFF" fill-opacity=".682" d="M489.745 625.028c3.9.575 10.749 1.239 13.781 3.298l.179.955c-2.312 1.903-3.583.48-6.364 2.651-3.029.563-6.323 1.032-9.185 2.092l-.382.888-.684-.318-.157-.832c3.575-2.082 7.073-5 2.812-8.734Z"/>
  <path fill="#FFFFFF" fill-opacity=".914" d="M477.03 147.364c9.949-.908 42.996 1.923 53.064 3.86l-1.982.858c-18.343-3.071-36.909-2.649-55.17-4.059l4.088-.659Z"/>
  <path fill="#FFFFFF" fill-opacity=".035" d="M499.645 679.142c-2.355-6.508.065-11.575 7.486-10.699.94.871 1.72 1.39 2.27 2.484-3.709 3.571-5.59 5.218-9.756 8.215Z"/>
  <path fill="#FFFFFF" fill-opacity=".047" d="m440.893 621.4 5.026 3.031c-2.414.379-7.991 1.417-10.177 1.501-2.929-1.585-8.983-1.814-12.289-1.898l-2.784-1.071-.276-.648c4.543-1.032 13.144.508 17.697-.636 1.656-.418.72-.368 2.803-.279Z"/>
  <path fill="#FFFFFF" fill-opacity=".914" d="M576.061 423.42c14.744 9.208 28.428 18.43 41.448 29.994 2.757 2.454 5.714 5.489 8.488 7.749l-1.005.525c-2.249-1.77-4.933-4.318-7.02-6.315-12.836-12.257-26.883-20.751-41.37-30.624l-.541-1.329Z"/>
  <path fill="#FFFFFF" fill-opacity=".78" d="M694.444 575.87c.642.915 1.954 2.484 2.076 3.421 2.216 16.861 5.112 30.785 5.023 47.947l-1.133-.178c-.039-9.851-2.818-42.578-6.708-50.258l.742-.932Z"/>
  <path fill="#FFFFFF" fill-opacity=".114" d="M436.341 682.317c2.886-1.021 6.825.118 9.777 1.094 4.963 1.636 4.352.05 7.415-.502 7.523-1.356 5.064-6.362 8.219-8.483 1.777.614 1.233.485 2.433 2.695l.168 4.125c-.687-1.714-.446-1.959-1.709-2.852-1.795.658-2.799 3.778-3.21 3.918-1.271.435-6.127 2.885-7.182 3.114-3.508.759-4.727-2.651-8.408.329-1.686-.34-5.733-2.545-7.503-3.438Z"/>
  <path fill="#FFFFFF" fill-opacity=".435" d="M470.427 647.988c2.226 2.908 4.071 5.799 6.072 8.869l2.564 4.035-.511.374-1.802-.877c-3.711-.971-4.241-1.127-8.135-.926.472-3.806 1.174-7.685 1.812-11.475Z"/>
  <path fill="#FFFFFF" fill-opacity=".596" d="M483.164 639.153c5.142.91 10.304 2.875 15.464 3.17l.381.704c-4.423.016-7.373 2.997-7.687 7.417a1324.853 1324.853 0 0 1-8.158-11.291Z"/>
  <path fill="#FFFFFF" fill-opacity=".537" d="M497.341 631.932c2.07-.151 5.085-.709 7.214-1.033-4.326 2.947-8.393 4.32-9.431 8.629-2.392-1.055-5.136-3.103-7.35-4.616l.382-.887c2.862-1.061 6.156-1.529 9.185-2.093Z"/>
  <path fill="#FFFFFF" fill-opacity=".831" d="M857.43 628.025c10.715 0 22.39-.24 33.027 0l-3.555.781c1.166.179 3.376.458 4.448.704l-56.795-.112c5.619-1.607 33.233.117 41.783-.792-4.549.072-14.879.53-18.908-.581Z"/>
  <path fill="#FFFFFF" d="m815.251 627.83 42.179.195c4.03 1.111 14.359.653 18.908.58-8.55.91-36.163-.815-41.783.793-4.219.151-14.918.385-18.763-.045l.491-.491-1.032-1.032Z"/>
  <path fill="#FFFFFF" fill-opacity=".776" d="M487.847 625.38c-2.736-.145-2.932-4.225-4.593-6.753.067-1.825-.232-1.022 1.037-2.456l-.082 1.44c2.928 1.038 8.642-1.502 13.641-1.423-1.356.552-9.49 6.524-10.849 7.674.095 1.155-.097.619.846 1.518Z"/>
  <path fill="#FFFFFF" fill-opacity=".482" d="M410.781 630.938c.855 1.29 1.3 12.279 2.923 17.592 1.514 6.496 3.871 10.135 7.097 15.912.574 1.038 1.071 2.02 1.741 3.002.994 1.312.67 1.016.752 3.014-.554-.179-3.37-5.252-4.437-6.48-.192-.58-3.084-6.267-3.543-7.233-3.814-8.02-5.871-16.91-4.533-25.807Z"/>
  <path fill="#FFFFFF" fill-opacity=".173" d="m448.98 595.454 1.424.061.059.653c-1.111 3.511-6.229 5.81-9.627 6.659-.891-1.022-4.233-3.31-5.505-4.242 6.307-2.98 6.923.921 13.649-3.131Z"/>
  <path fill="#FFFFFF" fill-opacity=".847" d="m366.576 418.513.771 1.233c-7.774 5.583-25.969 14.284-32.893 21.989l-1.048-.535c3.762-4.922 26.816-18.584 33.17-22.687Z"/>
  <path fill="#FFFFFF" fill-opacity=".859" d="m465.409 324.599 1.098-.181.127 26.401c.014 3.198.214 10.639-.131 13.428-.455-1.501-.265-7.755-.734-10.437l-.919 2.617c.319-10.606.506-21.216.559-31.828Z"/>
  <path fill="#FFFFFF" fill-opacity=".341" d="m509.221 630.464 7.114-.29-.651.357c-6.818 3.756-7 9.739-9.871 11.698-.626-3.059.835-3.857-.473-7.579 1.498-1.206 2.636-2.713 3.881-4.186Z"/>
  <path fill="#FFFFFF" fill-opacity=".812" d="M467.068 392.819c9.3-1.637 34.661 2.448 44.307 4.769l-2.92.586c-12.606-3.307-28.257-4.867-41.288-4.474l-.099-.881Z"/>
  <path fill="#FFFFFF" fill-opacity=".855" d="M454.312 647.347c1.228 1.294 1.613 1.512 3.048 2.472 2.06-.463 1.202-.815 3.291-1.323-1.922 2.724-7.215 11.174-9.892 12.05 1.278-3.539 2.665-9.427 3.553-13.199Z"/>
  <path fill="#FFFFFF" fill-opacity=".31" d="M438.06 632.2c1.569.312 5.15.831 6.275 1.657l-.226.33c-2.172 2.344-6.89 4.983-9.778 6.719.342-2.874 1.435-6.853 3.729-8.706Z"/>
  <path fill="#FFFFFF" fill-opacity=".898" d="M444.109 634.187c1.061 1.892 1.73 3.46 3.372 4.844l-.106.647c-2.513.447-10.92 2.249-12.934 1.663l-.11-.435c2.888-1.736 7.606-4.375 9.778-6.719Z"/>
  <path fill="#FFFFFF" fill-opacity=".016" d="M431.174 529.388c-.928 2.198-13.291 8.538-16.17 10.067l-.872-2.864c6.276-3.437 10.726-4.332 17.042-7.203Z"/>
  <path fill="#FFFFFF" fill-opacity=".941" d="m483.257 686.66 1.814.597c-.158.363-.502 1.2-.687 1.507-6.895 1.579-10.576 2.065-17.63 2.958-.672-.932-.555-.832-1.007-1.915l.912-.508c2.723.637 4.459.19 7.229-.172l1.136-.006c2.152-.447 6.019-1.764 8.233-2.461Z"/>
  <path fill="#FFFFFF" fill-opacity=".643" d="M366.576 418.513c3.182-1.097 8.968-4.261 12.307-5.764 4.88-2.196 9.584-4.155 14.539-6.207l.127 1.318c-9.396 3.719-17.316 7.046-26.202 11.886l-.771-1.233Z"/>
  <path fill="#FFFFFF" fill-opacity=".271" d="M517.269 607.944c-.751-4.012-.804-4.492-4.535-5.57l.107-.552c2.369-.787 5.052-1.027 7.476-.374l.883 2.255c-.351 1.858-.329 2.98-1.684 4.252-1.373.229-.874.252-2.247-.011Z"/>
  <path fill="#FFFFFF" fill-opacity=".906" d="M240.716 1035.54c6.635 3.55 19.511 10.17 25.616 13.85l-.939.64c-9.244-4.69-16.114-8.08-25.063-13.52l.386-.97Z"/>
  <path fill="#FFFFFF" fill-opacity=".784" d="M537.293 695.009c-7.276-6.736-17.818-14.595-23.764-22.391.548.089 21.812 19.383 24.209 21.71l-.445.681Z"/>
  <path fill="#FFFFFF" fill-opacity=".827" d="M208.884 774.93c3.693 6.161 7.394 11.608 11.551 17.485 1.109 1.568 4.727 6.29 5.317 7.557l-.96.441c-3.995-6.82-11.954-16.794-16.86-24.719l.952-.764Z"/>
  <path fill="#FFFFFF" fill-opacity=".141" d="M467.029 680.933c1.065.48 1.009.419 1.622 1.412 1.426.413 2.985.726 4.177 1.557.594 1.557 1.895 3.84 2.197 5.219l-1.137.005c-3.038-2.936-4.242-1.624-6.882-5.709l.023-2.484Z"/>
  <path fill="#FFFFFF" fill-opacity=".596" d="M62.76 629.432c3.961-.704 47.834-.67 52.011.027-3.082.413-13.587.162-17.344.157a3453.623 3453.623 0 0 1-34.667-.184Z"/>
  <path fill="#FFFFFF" fill-opacity=".655" d="M513.505 398.22c6.667 1.125 17.729 4.34 24.089 7.179l-2.67.593c-4.425-2.986-16.079-5.693-21.591-6.963l.172-.809Z"/>
  <path fill="#FFFFFF" fill-opacity=".039" d="M520.532 627.227c3.906-2.64 3.365-5.581 4.547-10.264.781 4.231 1.062 6.413 1.292 10.694-1.817-.263-3.976-.318-5.839-.43Z"/>
  <path fill="#FFFFFF" fill-opacity=".949" d="M483.783 1097.87c5.568.86 15.919.15 21.79-.12l4.441.5c-2.131.23-5.691.72-7.722.7-3.935-.15-7.572-.2-11.484.45l-5.634.15-1.391-1.68Z"/>
  <path fill="#FFFFFF" fill-opacity=".976" d="M439.584 148.042c6.23-.762 9.586-.892 15.833-.368l.17.33c-4.804.843-9.896 1.013-14.782 1.299l-1.618-.55.397-.711Z"/>
  <path fill="#FFFFFF" fill-opacity=".376" d="M225.753 799.972c2.453 2.651 8.619 10.051 10.239 13.098l-.358-.658-.456.206c-4.409-4.236-6.71-7.378-10.385-12.205l.96-.441Z"/>
  <path fill="#FFFFFF" d="M39.938 613.699c1.462-.134 2.307.078 3.173-.698-.054 1.63-.006 5.196-.56 6.535-1.145-.703-1.567-.334-3.263-.167.06-1.44.47-4.136.65-5.67Z"/>
  <path fill="#FFFFFF" fill-opacity=".439" d="M487.657 570.574c2.085.898 5.046 2.065 6.947 3.164l-.202 1.462-.798.519c-2.349-.234-4.739-1.719-6.919-2.829l.972-2.316Z"/>
  <path fill="#FFFFFF" fill-opacity=".035" d="M467.006 683.417c2.639 4.085 3.844 2.774 6.882 5.709-2.77.363-4.506.81-7.229.173.261-1.624.28-4.169.347-5.882Z"/>
  <path fill="#FFFFFF" fill-opacity=".922" d="M9.198 667.416c.262 2.863 1.508 13.78 1.226 15.928-.214.927-.692 2.724-.768 3.589-.54-4.783-1.509-10.197-1.174-14.874.595-1.428.59-3.069.716-4.643Z"/>
  <path fill="#FFFFFF" fill-opacity=".596" d="m432.209 544.392.787-1.246c1.047 2.248 3.752 8.836 4.707 10.475 1.025 2.532 1.995 4.624 2.414 7.347-1.271-1.412-2.243-4.047-3.044-5.871-.579-2.158-3.744-8.552-4.864-10.705Z"/>
  <path fill="#FFFFFF" fill-opacity=".808" d="m919.204 628.332 2.885-.29.418.82c3.137.106 5.525.1 8.662-.408 2.438-.15 3.516-.212 5.932.04l-.056 1.01-20.336-.006 2.495-1.166Z"/>
  <path fill="#FFFFFF" fill-opacity=".463" d="m483.897 569.027 3.76 1.546-.973 2.316c-.995-.625-6.196-.68-7.815-.753 3.04-2.149 2.821-.502 5.028-3.109Z"/>
  <path fill="#FFFFFF" fill-opacity=".733" d="M484.527 930.423c3.005-.151 7.066-.245 9.957-.67l-.378.436.219-.168c-5.795 2.54-13.944.899-20.34 2.205l-.475-1.262 1.99-.223c3.06.218 5.997.168 9.027-.318Z"/>
  <path fill="#FFFFFF" fill-opacity=".792" d="M266.333 1049.39c3.838 1.84 7.933 3.72 11.66 5.73l-.643.8c-4.601-1.99-7.576-3.45-11.956-5.89l.939-.64Z"/>
  <path fill="#FFFFFF" fill-opacity=".306" d="M563.152 417.351c-3.543-1.856-7.2-2.804-10.467-5.083l-.094-.633c2.152.308 9.49 3.713 11.192 5.075l-.631.641Z"/>
  <path fill="#FFFFFF" fill-opacity=".612" d="m483.257 686.66 4.989-1.725c1.201.843 1.233 1.044 2.646 1.233-2.822 1.446-3.464 1.692-6.508 2.596.185-.307.529-1.144.687-1.507l-1.814-.597Z"/>
  <path fill="#FFFFFF" fill-opacity=".969" d="m730.167 1018.44 7.785-5.36.569 1.18c-2.422 1.84-5.831 3.94-7.846 5.55l-.508-1.37Z"/>
  <path fill="#FFFFFF" fill-opacity=".804" d="M477.761 651.527c.742 2.846 1.788 6.172 1.924 9.047l-.44.374-.182-.056-2.564-4.035c1.241-1.49 1.104-3.338 1.262-5.33Z"/>
  <path fill="#FFFFFF" fill-opacity=".71" d="M563.783 416.71c3.616 1.956 7.339 4.035 10.994 5.896l-.095 1.398c-3.605-2.651-7.64-3.904-11.53-6.653l.631-.641Z"/>
  <path fill="#FFFFFF" fill-opacity=".459" d="M423.127 589.175c2.56.581 7.186 5.738 10.099 7.897l-.738.631c-2.025-1.68-4.048-3.443-6.052-5.151-1.383-1.239-2.073-1.987-3.309-3.377Z"/>
  <path fill="#FFFFFF" fill-opacity=".82" d="m730.167 1018.44.508 1.37c-2.115 1.48-4.425 3.02-6.423 4.63l-1.513-.71 7.428-5.29Z"/>
  <path fill="#FFFFFF" fill-opacity=".525" d="M638.498 781.928c-2.863 3.109-4.805 5.47-8.176 8.043 2.244-3.282 4.526-5.565 7.233-8.433l.943.39Z"/>
  <path fill="#FFFFFF" fill-opacity=".698" d="M625.997 461.164c2.025 2.075 4.096 4.122 5.982 6.323l-.898.378c-2.316-2.081-3.985-3.894-6.089-6.177l1.005-.524Z"/>
  <path fill="#FFFFFF" fill-opacity=".976" d="M891.874 640.147c2.004-3.025 2.768-4.308 5.402-6.82l1.535 1.256c-2.216 2.02-4.554 3.739-6.937 5.564Z"/>
  <path fill="#FFFFFF" fill-opacity=".953" d="M474.493 150.935c1.753 2.066 3.519 4.098 5.168 6.249-2.257-1.34-4.405-2.328-5.946-4.39l.778-1.859Z"/>
  <path fill="#FFFFFF" fill-opacity=".976" d="M907.439 634.628c.927-.877.631-.62 1.217-1.859 1.54 2.383 3.611 5.375 4.811 7.847-2.037-1.836-4.454-3.801-6.028-5.988Z"/>
  <path fill="#FFFFFF" fill-opacity=".933" d="M48.08 634.984c1.853 1.758 2.863 3.712 4.201 5.894-2.279-1.948-4.546-3.834-6.708-5.916l2.508.022Z"/>
  <path fill="#FFFFFF" fill-opacity=".91" d="M936.715 650.74c.252 1.205.458 2.455.871 3.605v6.429l-1.15-.976c-.039-3.371-.067-5.71.279-9.058Z"/>
  <path fill="#FFFFFF" fill-opacity=".376" d="M432.209 544.392c-.785-2.111-1.709-3.903-1.558-6.094 1.253 1.042 1.681 3.093 2.346 4.849l-.788 1.245Z"/>
  <path fill="#FFFFFF" fill-opacity=".749" d="m205.1 771.307 1.421-.011 2.363 3.633-.952.765c-.963-.893-2.112-3.154-2.832-4.387Z"/>
  <path fill="#FFFFFF" fill-opacity=".682" d="m495.304 655.729.597.347 1.947 1.808-.27 1.027c-1.522-.067-3.068-1.535-4.381-2.529l2.107-.653Z"/>
  <path fill="#FFFFFF" fill-opacity=".467" d="M537.594 405.399c1.428.341 2.533.56 3.923 1.056-1.463.992-4.81-.172-6.593-.462l2.67-.594Z"/>
  <path fill="#FFFFFF" fill-opacity=".902" d="M473.068 1090.02c1.165-1.3 1.651-2.18 3.34-2.48l.162.84c-.669.85-1.262 1.61-1.976 2.43l-1.526-.79Z"/>
  <path fill="#FFFFFF" fill-opacity=".984" d="M922.088 628.042c3.03.078 6.055.212 9.08.412-3.137.508-5.525.514-8.662.408l-.418-.82Z"/>
  <path fill="#FFFFFF" fill-opacity=".643" d="M490.809 1099.4c3.911-.65 7.548-.6 11.484-.45-3.219.61-8.175.66-11.484.45Z"/>
  <path fill="#FFFFFF" fill-opacity=".439" d="m426.207 564.189.879.006 2.921 4.023-.243.732c-1.774-1.569-2.547-2.685-3.557-4.761Z"/>
  <path fill="#FFFFFF" d="m890.456 628.025 1.954.084c-.307.569-.497.803-.653 1.417l-.408-.017c-1.071-.245-3.281-.524-4.448-.703l3.555-.781Z"/>
  <path fill="#FFFFFF" fill-opacity=".71" d="M488.246 684.935c.809-.374 1.945-.77 2.805-1.1l.789 1.915-.948.418c-1.413-.189-1.445-.39-2.646-1.233Z"/>
  <path fill="#FFFFFF" fill-opacity=".796" d="M530.093 151.224c1.109.059 3.269.117 4.279.264l-2.814.899-3.447-.305 1.982-.858Z"/>
  <path fill="#FFFFFF" fill-opacity=".133" d="m426.208 564.189-.982-2.327.339-.642c1.142 1.099 1.081 1.445 1.522 2.974l-.879-.005Z"/>
  <path fill="#FFFFFF" fill-opacity=".459" d="m511.374 397.588 2.131.632-.172.809-4.879-.855 2.92-.586Z"/>
  <path fill="#FFFFFF" fill-opacity=".722" d="m333.406 441.2 1.048.535-3.317 2.046-.411-.929 2.68-1.652Z"/>
  <path fill="#FFFFFF" fill-opacity=".302" d="M475.5 930.741c3.302-.446 5.705-.357 9.027-.318-3.029.486-5.967.536-9.027.318Z"/>
  <path fill="#FFFFFF" fill-opacity=".69" d="m238.878 1034.39 1.838 1.15-.386.97-1.594-.88.142-1.24Z"/>
  <path fill="#FFFFFF" d="M797.437 628.845c-1.362.006-5.849.223-6.803-.245l6.674.044.129.201Z"/>
  <path fill="#FFFFFF" fill-opacity=".439" d="m574.777 422.606 1.283.814.541 1.33-1.919-.746.095-1.398Z"/>
</svg>
